<?xml version="1.0" encoding="UTF-8" standalone="no"?>
<!DOCTYPE svg PUBLIC "-//W3C//DTD SVG 1.1//EN"
 "http://www.w3.org/Graphics/SVG/1.1/DTD/svg11.dtd">
<!-- Generated by graphviz version 5.0.0 (20220707.1540)
 -->
<!-- Title: dependencies Pages: 1 -->
<svg width="372pt" height="247pt"
 viewBox="0.00 0.00 372.00 246.80" xmlns="http://www.w3.org/2000/svg" xmlns:xlink="http://www.w3.org/1999/xlink">
<g id="graph0" class="graph" transform="scale(1 1) rotate(0) translate(4 242.8)">
<title>dependencies</title>
<polygon fill="white" stroke="transparent" points="-4,4 -4,-242.8 368,-242.8 368,4 -4,4"/>
<text text-anchor="middle" x="182" y="-8.2" font-family="sans-serif" font-size="14.00">dependencies</text>
<g id="clust1" class="cluster">
<title>cluster_EditionFolioViewerFolioModule</title>
<polygon fill="none" stroke="black" stroke-dasharray="1,5" points="8,-32.8 8,-230.8 356,-230.8 356,-32.8 8,-32.8"/>
</g>
<g id="clust2" class="cluster">
<title>cluster_EditionFolioViewerFolioModule_declarations</title>
<polygon fill="none" stroke="black" points="138,-40.8 138,-92.8 348,-92.8 348,-40.8 138,-40.8"/>
</g>
<g id="clust5" class="cluster">
<title>cluster_EditionFolioViewerFolioModule_exports</title>
<polygon fill="none" stroke="black" points="76,-170.8 76,-222.8 288,-222.8 288,-170.8 76,-170.8"/>
</g>
<g id="clust4" class="cluster">
<title>cluster_EditionFolioViewerFolioModule_imports</title>
<polygon fill="none" stroke="black" points="16,-40.8 16,-92.8 130,-92.8 130,-40.8 16,-40.8"/>
</g>
<!-- EditionFolioViewerComponent -->
<g id="node1" class="node">
<title>EditionFolioViewerComponent</title>
<polygon fill="#ffffb3" stroke="black" points="339.82,-84.8 146.18,-84.8 146.18,-48.8 339.82,-48.8 339.82,-84.8"/>
<text text-anchor="middle" x="243" y="-62.6" font-family="Times,serif" font-size="14.00">EditionFolioViewerComponent</text>
</g>
<!-- EditionFolioViewerFolioModule -->
<g id="node2" class="node">
<title>EditionFolioViewerFolioModule</title>
<polygon fill="#8dd3c7" stroke="black" points="282.6,-149.8 279.6,-153.8 258.6,-153.8 255.6,-149.8 81.4,-149.8 81.4,-113.8 282.6,-113.8 282.6,-149.8"/>
<text text-anchor="middle" x="182" y="-127.6" font-family="Times,serif" font-size="14.00">EditionFolioViewerFolioModule</text>
</g>
<!-- EditionFolioViewerComponent&#45;&gt;EditionFolioViewerFolioModule -->
<g id="edge1" class="edge">
<title>EditionFolioViewerComponent&#45;&gt;EditionFolioViewerFolioModule</title>
<path fill="none" stroke="black" d="M214.45,-84.91C214.45,-84.91 214.45,-103.79 214.45,-103.79"/>
<polygon fill="black" stroke="black" points="210.95,-103.79 214.45,-113.79 217.95,-103.79 210.95,-103.79"/>
</g>
<!-- EditionFolioViewerComponent  -->
<g id="node4" class="node">
<title>EditionFolioViewerComponent </title>
<polygon fill="#fb8072" stroke="black" points="280.32,-214.8 83.68,-214.8 83.68,-178.8 280.32,-178.8 280.32,-214.8"/>
<text text-anchor="middle" x="182" y="-192.6" font-family="Times,serif" font-size="14.00">EditionFolioViewerComponent </text>
</g>
<!-- EditionFolioViewerFolioModule&#45;&gt;EditionFolioViewerComponent  -->
<g id="edge3" class="edge">
<title>EditionFolioViewerFolioModule&#45;&gt;EditionFolioViewerComponent </title>
<path fill="none" stroke="black" stroke-dasharray="5,2" d="M182,-149.91C182,-149.91 182,-168.79 182,-168.79"/>
<polygon fill="black" stroke="black" points="178.5,-168.79 182,-178.79 185.5,-168.79 178.5,-168.79"/>
</g>
<!-- SharedModule -->
<g id="node3" class="node">
<title>SharedModule</title>
<polygon fill="#8dd3c7" stroke="black" points="122.43,-84.8 119.43,-88.8 98.43,-88.8 95.43,-84.8 23.57,-84.8 23.57,-48.8 122.43,-48.8 122.43,-84.8"/>
<text text-anchor="middle" x="73" y="-62.6" font-family="Times,serif" font-size="14.00">SharedModule</text>
</g>
<!-- SharedModule&#45;&gt;EditionFolioViewerFolioModule -->
<g id="edge2" class="edge">
<title>SharedModule&#45;&gt;EditionFolioViewerFolioModule</title>
<path fill="none" stroke="black" d="M101.83,-84.91C101.83,-84.91 101.83,-103.79 101.83,-103.79"/>
<polygon fill="black" stroke="black" points="98.33,-103.79 101.83,-113.79 105.33,-103.79 98.33,-103.79"/>
</g>
</g>
</svg>
