<?xml version="1.0" encoding="UTF-8" standalone="no"?>
<!DOCTYPE svg PUBLIC "-//W3C//DTD SVG 1.1//EN"
 "http://www.w3.org/Graphics/SVG/1.1/DTD/svg11.dtd">
<!-- Generated by graphviz version 2.47.0 (20210316.0004)
 -->
<!-- Title: dependencies Pages: 1 -->
<svg width="668pt" height="284pt"
 viewBox="0.00 0.00 668.00 284.00" xmlns="http://www.w3.org/2000/svg" xmlns:xlink="http://www.w3.org/1999/xlink">
<g id="graph0" class="graph" transform="scale(1 1) rotate(0) translate(4 280)">
<title>dependencies</title>
<polygon fill="white" stroke="transparent" points="-4,4 -4,-280 664,-280 664,4 -4,4"/>
<text text-anchor="start" x="309.01" y="-42.4" font-family="Times-12" font-weight="bold" font-size="14.00">Legend</text>
<polygon fill="#ffffb3" stroke="transparent" points="96,-10 96,-30 116,-30 116,-10 96,-10"/>
<text text-anchor="start" x="119.63" y="-15.4" font-family="Times-12" font-size="14.00"> &#160;Declarations</text>
<polygon fill="#8dd3c7" stroke="transparent" points="209,-10 209,-30 229,-30 229,-10 209,-10"/>
<text text-anchor="start" x="232.73" y="-15.4" font-family="Times-12" font-size="14.00"> &#160;Module</text>
<polygon fill="#80b1d3" stroke="transparent" points="295,-10 295,-30 315,-30 315,-10 295,-10"/>
<text text-anchor="start" x="318.78" y="-15.4" font-family="Times-12" font-size="14.00"> &#160;Bootstrap</text>
<polygon fill="#fdb462" stroke="transparent" points="392,-10 392,-30 412,-30 412,-10 392,-10"/>
<text text-anchor="start" x="415.67" y="-15.4" font-family="Times-12" font-size="14.00"> &#160;Providers</text>
<polygon fill="#fb8072" stroke="transparent" points="488,-10 488,-30 508,-30 508,-10 488,-10"/>
<text text-anchor="start" x="511.73" y="-15.4" font-family="Times-12" font-size="14.00"> &#160;Exports</text>
<g id="clust1" class="cluster">
<title>cluster_EditionSvgSheetViewerModule</title>
<polygon fill="none" stroke="black" stroke-dasharray="1,5" points="8,-70 8,-268 652,-268 652,-70 8,-70"/>
</g>
<g id="clust2" class="cluster">
<title>cluster_EditionSvgSheetViewerModule_declarations</title>
<polygon fill="none" stroke="black" points="138,-78 138,-130 644,-130 644,-78 138,-78"/>
</g>
<g id="clust5" class="cluster">
<title>cluster_EditionSvgSheetViewerModule_imports</title>
<polygon fill="none" stroke="black" points="16,-78 16,-130 130,-130 130,-78 16,-78"/>
</g>
<g id="clust6" class="cluster">
<title>cluster_EditionSvgSheetViewerModule_exports</title>
<polygon fill="none" stroke="black" points="73,-208 73,-260 587,-260 587,-208 73,-208"/>
</g>
<!-- EditionSvgSheetViewerComponent -->
<g id="node1" class="node">
<title>EditionSvgSheetViewerComponent</title>
<polygon fill="#ffffb3" stroke="black" points="636.14,-122 419.86,-122 419.86,-86 636.14,-86 636.14,-122"/>
<text text-anchor="middle" x="528" y="-99.8" font-family="Times,serif" font-size="14.00">EditionSvgSheetViewerComponent</text>
</g>
<!-- EditionSvgSheetViewerModule -->
<g id="node3" class="node">
<title>EditionSvgSheetViewerModule</title>
<polygon fill="#8dd3c7" stroke="black" points="371.35,-187 368.35,-191 347.35,-191 344.35,-187 176.65,-187 176.65,-151 371.35,-151 371.35,-187"/>
<text text-anchor="middle" x="274" y="-164.8" font-family="Times,serif" font-size="14.00">EditionSvgSheetViewerModule</text>
</g>
<!-- EditionSvgSheetViewerComponent&#45;&gt;EditionSvgSheetViewerModule -->
<g id="edge1" class="edge">
<title>EditionSvgSheetViewerComponent&#45;&gt;EditionSvgSheetViewerModule</title>
<path fill="none" stroke="black" d="M499.38,-122.11C499.38,-141.34 499.38,-169 499.38,-169 499.38,-169 381.54,-169 381.54,-169"/>
<polygon fill="black" stroke="black" points="381.54,-165.5 371.54,-169 381.54,-172.5 381.54,-165.5"/>
</g>
<!-- EditionSvgSheetViewerSwitchComponent -->
<g id="node2" class="node">
<title>EditionSvgSheetViewerSwitchComponent</title>
<polygon fill="#ffffb3" stroke="black" points="401.52,-122 146.48,-122 146.48,-86 401.52,-86 401.52,-122"/>
<text text-anchor="middle" x="274" y="-99.8" font-family="Times,serif" font-size="14.00">EditionSvgSheetViewerSwitchComponent</text>
</g>
<!-- EditionSvgSheetViewerSwitchComponent&#45;&gt;EditionSvgSheetViewerModule -->
<g id="edge2" class="edge">
<title>EditionSvgSheetViewerSwitchComponent&#45;&gt;EditionSvgSheetViewerModule</title>
<path fill="none" stroke="black" d="M274,-122.11C274,-122.11 274,-140.99 274,-140.99"/>
<polygon fill="black" stroke="black" points="270.5,-140.99 274,-150.99 277.5,-140.99 270.5,-140.99"/>
</g>
<!-- EditionSvgSheetViewerComponent  -->
<g id="node5" class="node">
<title>EditionSvgSheetViewerComponent </title>
<polygon fill="#fb8072" stroke="black" points="579.14,-252 358.86,-252 358.86,-216 579.14,-216 579.14,-252"/>
<text text-anchor="middle" x="469" y="-229.8" font-family="Times,serif" font-size="14.00">EditionSvgSheetViewerComponent </text>
</g>
<!-- EditionSvgSheetViewerModule&#45;&gt;EditionSvgSheetViewerComponent  -->
<g id="edge4" class="edge">
<title>EditionSvgSheetViewerModule&#45;&gt;EditionSvgSheetViewerComponent </title>
<path fill="none" stroke="black" stroke-dasharray="5,2" d="M365.18,-187.11C365.18,-187.11 365.18,-205.99 365.18,-205.99"/>
<polygon fill="black" stroke="black" points="361.68,-205.99 365.18,-215.99 368.68,-205.99 361.68,-205.99"/>
</g>
<!-- EditionSvgSheetViewerSwitchComponent  -->
<g id="node6" class="node">
<title>EditionSvgSheetViewerSwitchComponent </title>
<polygon fill="#fb8072" stroke="black" points="340.52,-252 81.48,-252 81.48,-216 340.52,-216 340.52,-252"/>
<text text-anchor="middle" x="211" y="-229.8" font-family="Times,serif" font-size="14.00">EditionSvgSheetViewerSwitchComponent </text>
</g>
<!-- EditionSvgSheetViewerModule&#45;&gt;EditionSvgSheetViewerSwitchComponent  -->
<g id="edge5" class="edge">
<title>EditionSvgSheetViewerModule&#45;&gt;EditionSvgSheetViewerSwitchComponent </title>
<path fill="none" stroke="black" stroke-dasharray="5,2" d="M258.54,-187.11C258.54,-187.11 258.54,-205.99 258.54,-205.99"/>
<polygon fill="black" stroke="black" points="255.04,-205.99 258.54,-215.99 262.04,-205.99 255.04,-205.99"/>
</g>
<!-- SharedModule -->
<g id="node4" class="node">
<title>SharedModule</title>
<polygon fill="#8dd3c7" stroke="black" points="122.42,-122 119.42,-126 98.42,-126 95.42,-122 23.58,-122 23.58,-86 122.42,-86 122.42,-122"/>
<text text-anchor="middle" x="73" y="-99.8" font-family="Times,serif" font-size="14.00">SharedModule</text>
</g>
<!-- SharedModule&#45;&gt;EditionSvgSheetViewerModule -->
<g id="edge3" class="edge">
<title>SharedModule&#45;&gt;EditionSvgSheetViewerModule</title>
<path fill="none" stroke="black" d="M101.85,-122.11C101.85,-141.34 101.85,-169 101.85,-169 101.85,-169 166.61,-169 166.61,-169"/>
<polygon fill="black" stroke="black" points="166.61,-172.5 176.61,-169 166.61,-165.5 166.61,-172.5"/>
</g>
</g>
</svg>
