<?xml version="1.0" encoding="UTF-8" standalone="no"?>
<!DOCTYPE svg PUBLIC "-//W3C//DTD SVG 1.1//EN"
 "http://www.w3.org/Graphics/SVG/1.1/DTD/svg11.dtd">
<!-- Generated by graphviz version 2.47.0 (20210316.0004)
 -->
<!-- Title: dependencies Pages: 1 -->
<svg width="674pt" height="284pt"
 viewBox="0.00 0.00 674.00 284.00" xmlns="http://www.w3.org/2000/svg" xmlns:xlink="http://www.w3.org/1999/xlink">
<g id="graph0" class="graph" transform="scale(1 1) rotate(0) translate(4 280)">
<title>dependencies</title>
<polygon fill="white" stroke="transparent" points="-4,4 -4,-280 670,-280 670,4 -4,4"/>
<text text-anchor="start" x="312.01" y="-42.4" font-family="Times-12" font-weight="bold" font-size="14.00">Legend</text>
<polygon fill="#ffffb3" stroke="transparent" points="99,-10 99,-30 119,-30 119,-10 99,-10"/>
<text text-anchor="start" x="122.63" y="-15.4" font-family="Times-12" font-size="14.00"> &#160;Declarations</text>
<polygon fill="#8dd3c7" stroke="transparent" points="212,-10 212,-30 232,-30 232,-10 212,-10"/>
<text text-anchor="start" x="235.73" y="-15.4" font-family="Times-12" font-size="14.00"> &#160;Module</text>
<polygon fill="#80b1d3" stroke="transparent" points="298,-10 298,-30 318,-30 318,-10 298,-10"/>
<text text-anchor="start" x="321.78" y="-15.4" font-family="Times-12" font-size="14.00"> &#160;Bootstrap</text>
<polygon fill="#fdb462" stroke="transparent" points="395,-10 395,-30 415,-30 415,-10 395,-10"/>
<text text-anchor="start" x="418.67" y="-15.4" font-family="Times-12" font-size="14.00"> &#160;Providers</text>
<polygon fill="#fb8072" stroke="transparent" points="491,-10 491,-30 511,-30 511,-10 491,-10"/>
<text text-anchor="start" x="514.73" y="-15.4" font-family="Times-12" font-size="14.00"> &#160;Exports</text>
<g id="clust1" class="cluster">
<title>cluster_EditionSvgSheetViewerModule</title>
<polygon fill="none" stroke="black" stroke-dasharray="1,5" points="8,-70 8,-268 658,-268 658,-70 8,-70"/>
</g>
<g id="clust5" class="cluster">
<title>cluster_EditionSvgSheetViewerModule_imports</title>
<polygon fill="none" stroke="black" points="536,-78 536,-130 650,-130 650,-78 536,-78"/>
</g>
<g id="clust6" class="cluster">
<title>cluster_EditionSvgSheetViewerModule_exports</title>
<polygon fill="none" stroke="black" points="73,-208 73,-260 593,-260 593,-208 73,-208"/>
</g>
<g id="clust2" class="cluster">
<title>cluster_EditionSvgSheetViewerModule_declarations</title>
<polygon fill="none" stroke="black" points="16,-78 16,-130 528,-130 528,-78 16,-78"/>
</g>
<!-- EditionSvgSheetViewerComponent -->
<g id="node1" class="node">
<title>EditionSvgSheetViewerComponent</title>
<polygon fill="#ffffb3" stroke="black" points="520.14,-122 303.86,-122 303.86,-86 520.14,-86 520.14,-122"/>
<text text-anchor="middle" x="412" y="-99.8" font-family="Times,serif" font-size="14.00">EditionSvgSheetViewerComponent</text>
</g>
<!-- EditionSvgSheetViewerModule -->
<g id="node3" class="node">
<title>EditionSvgSheetViewerModule</title>
<polygon fill="#8dd3c7" stroke="black" points="509.35,-187 506.35,-191 485.35,-191 482.35,-187 314.65,-187 314.65,-151 509.35,-151 509.35,-187"/>
<text text-anchor="middle" x="412" y="-164.8" font-family="Times,serif" font-size="14.00">EditionSvgSheetViewerModule</text>
</g>
<!-- EditionSvgSheetViewerComponent&#45;&gt;EditionSvgSheetViewerModule -->
<g id="edge1" class="edge">
<title>EditionSvgSheetViewerComponent&#45;&gt;EditionSvgSheetViewerModule</title>
<path fill="none" stroke="black" d="M412,-122.11C412,-122.11 412,-140.99 412,-140.99"/>
<polygon fill="black" stroke="black" points="408.5,-140.99 412,-150.99 415.5,-140.99 408.5,-140.99"/>
</g>
<!-- EditionSvgSheetViewerSettingsComponent -->
<g id="node2" class="node">
<title>EditionSvgSheetViewerSettingsComponent</title>
<polygon fill="#ffffb3" stroke="black" points="285.75,-122 24.25,-122 24.25,-86 285.75,-86 285.75,-122"/>
<text text-anchor="middle" x="155" y="-99.8" font-family="Times,serif" font-size="14.00">EditionSvgSheetViewerSettingsComponent</text>
</g>
<!-- EditionSvgSheetViewerSettingsComponent&#45;&gt;EditionSvgSheetViewerModule -->
<g id="edge2" class="edge">
<title>EditionSvgSheetViewerSettingsComponent&#45;&gt;EditionSvgSheetViewerModule</title>
<path fill="none" stroke="black" d="M183.62,-122.11C183.62,-141.34 183.62,-169 183.62,-169 183.62,-169 304.49,-169 304.49,-169"/>
<polygon fill="black" stroke="black" points="304.49,-172.5 314.49,-169 304.49,-165.5 304.49,-172.5"/>
</g>
<!-- EditionSvgSheetViewerComponent  -->
<g id="node5" class="node">
<title>EditionSvgSheetViewerComponent </title>
<polygon fill="#fb8072" stroke="black" points="585.14,-252 364.86,-252 364.86,-216 585.14,-216 585.14,-252"/>
<text text-anchor="middle" x="475" y="-229.8" font-family="Times,serif" font-size="14.00">EditionSvgSheetViewerComponent </text>
</g>
<!-- EditionSvgSheetViewerModule&#45;&gt;EditionSvgSheetViewerComponent  -->
<g id="edge4" class="edge">
<title>EditionSvgSheetViewerModule&#45;&gt;EditionSvgSheetViewerComponent </title>
<path fill="none" stroke="black" stroke-dasharray="5,2" d="M437.18,-187.11C437.18,-187.11 437.18,-205.99 437.18,-205.99"/>
<polygon fill="black" stroke="black" points="433.68,-205.99 437.18,-215.99 440.68,-205.99 433.68,-205.99"/>
</g>
<!-- EditionSvgSheetViewerSettingsComponent  -->
<g id="node6" class="node">
<title>EditionSvgSheetViewerSettingsComponent </title>
<polygon fill="#fb8072" stroke="black" points="346.75,-252 81.25,-252 81.25,-216 346.75,-216 346.75,-252"/>
<text text-anchor="middle" x="214" y="-229.8" font-family="Times,serif" font-size="14.00">EditionSvgSheetViewerSettingsComponent </text>
</g>
<!-- EditionSvgSheetViewerModule&#45;&gt;EditionSvgSheetViewerSettingsComponent  -->
<g id="edge5" class="edge">
<title>EditionSvgSheetViewerModule&#45;&gt;EditionSvgSheetViewerSettingsComponent </title>
<path fill="none" stroke="black" stroke-dasharray="5,2" d="M330.6,-187.11C330.6,-187.11 330.6,-205.99 330.6,-205.99"/>
<polygon fill="black" stroke="black" points="327.1,-205.99 330.6,-215.99 334.1,-205.99 327.1,-205.99"/>
</g>
<!-- SharedModule -->
<g id="node4" class="node">
<title>SharedModule</title>
<polygon fill="#8dd3c7" stroke="black" points="642.42,-122 639.42,-126 618.42,-126 615.42,-122 543.58,-122 543.58,-86 642.42,-86 642.42,-122"/>
<text text-anchor="middle" x="593" y="-99.8" font-family="Times,serif" font-size="14.00">SharedModule</text>
</g>
<!-- SharedModule&#45;&gt;EditionSvgSheetViewerModule -->
<g id="edge3" class="edge">
<title>SharedModule&#45;&gt;EditionSvgSheetViewerModule</title>
<path fill="none" stroke="black" d="M564.43,-122.11C564.43,-141.34 564.43,-169 564.43,-169 564.43,-169 519.4,-169 519.4,-169"/>
<polygon fill="black" stroke="black" points="519.4,-165.5 509.4,-169 519.4,-172.5 519.4,-165.5"/>
</g>
</g>
</svg>
