<?xml version="1.0" encoding="UTF-8" standalone="no"?>
<!DOCTYPE svg PUBLIC "-//W3C//DTD SVG 1.1//EN"
 "http://www.w3.org/Graphics/SVG/1.1/DTD/svg11.dtd">
<!-- Generated by graphviz version 2.47.0 (20210316.0004)
 -->
<!-- Title: dependencies Pages: 1 -->
<svg width="592pt" height="211pt"
 viewBox="0.00 0.00 592.00 211.00" xmlns="http://www.w3.org/2000/svg" xmlns:xlink="http://www.w3.org/1999/xlink">
<g id="graph0" class="graph" transform="scale(1 1) rotate(0) translate(4 207)">
<title>dependencies</title>
<polygon fill="white" stroke="transparent" points="-4,4 -4,-207 588,-207 588,4 -4,4"/>
<text text-anchor="start" x="271.01" y="-42.4" font-family="Times-12" font-weight="bold" font-size="14.00">Legend</text>
<polygon fill="#ffffb3" stroke="transparent" points="58,-10 58,-30 78,-30 78,-10 58,-10"/>
<text text-anchor="start" x="81.63" y="-15.4" font-family="Times-12" font-size="14.00"> &#160;Declarations</text>
<polygon fill="#8dd3c7" stroke="transparent" points="171,-10 171,-30 191,-30 191,-10 171,-10"/>
<text text-anchor="start" x="194.73" y="-15.4" font-family="Times-12" font-size="14.00"> &#160;Module</text>
<polygon fill="#80b1d3" stroke="transparent" points="257,-10 257,-30 277,-30 277,-10 257,-10"/>
<text text-anchor="start" x="280.78" y="-15.4" font-family="Times-12" font-size="14.00"> &#160;Bootstrap</text>
<polygon fill="#fdb462" stroke="transparent" points="354,-10 354,-30 374,-30 374,-10 354,-10"/>
<text text-anchor="start" x="377.67" y="-15.4" font-family="Times-12" font-size="14.00"> &#160;Providers</text>
<polygon fill="#fb8072" stroke="transparent" points="450,-10 450,-30 470,-30 470,-10 450,-10"/>
<text text-anchor="start" x="473.73" y="-15.4" font-family="Times-12" font-size="14.00"> &#160;Exports</text>
<g id="clust1" class="cluster">
<title>cluster_EditionRowTablesModule</title>
<polygon fill="none" stroke="black" stroke-dasharray="1,5" points="8,-70 8,-195 576,-195 576,-70 8,-70"/>
</g>
<g id="clust2" class="cluster">
<title>cluster_EditionRowTablesModule_declarations</title>
<polygon fill="none" stroke="black" points="366,-78 366,-130 568,-130 568,-78 366,-78"/>
</g>
<g id="clust4" class="cluster">
<title>cluster_EditionRowTablesModule_imports</title>
<polygon fill="none" stroke="black" points="16,-78 16,-130 358,-130 358,-78 16,-78"/>
</g>
<!-- EditionRowTablesComponent -->
<g id="node1" class="node">
<title>EditionRowTablesComponent</title>
<polygon fill="#ffffb3" stroke="black" points="560.32,-122 373.68,-122 373.68,-86 560.32,-86 560.32,-122"/>
<text text-anchor="middle" x="467" y="-99.8" font-family="Times,serif" font-size="14.00">EditionRowTablesComponent</text>
</g>
<!-- EditionRowTablesModule -->
<g id="node2" class="node">
<title>EditionRowTablesModule</title>
<polygon fill="#8dd3c7" stroke="black" points="327.04,-187 324.04,-191 303.04,-191 300.04,-187 162.96,-187 162.96,-151 327.04,-151 327.04,-187"/>
<text text-anchor="middle" x="245" y="-164.8" font-family="Times,serif" font-size="14.00">EditionRowTablesModule</text>
</g>
<!-- EditionRowTablesComponent&#45;&gt;EditionRowTablesModule -->
<g id="edge1" class="edge">
<title>EditionRowTablesComponent&#45;&gt;EditionRowTablesModule</title>
<path fill="none" stroke="black" d="M467,-122.11C467,-141.34 467,-169 467,-169 467,-169 337.35,-169 337.35,-169"/>
<polygon fill="black" stroke="black" points="337.35,-165.5 327.35,-169 337.35,-172.5 337.35,-165.5"/>
</g>
<!-- EditionRowTablesRoutingModule -->
<g id="node3" class="node">
<title>EditionRowTablesRoutingModule</title>
<polygon fill="#8dd3c7" stroke="black" points="349.65,-122 346.65,-126 325.65,-126 322.65,-122 140.35,-122 140.35,-86 349.65,-86 349.65,-122"/>
<text text-anchor="middle" x="245" y="-99.8" font-family="Times,serif" font-size="14.00">EditionRowTablesRoutingModule</text>
</g>
<!-- EditionRowTablesRoutingModule&#45;&gt;EditionRowTablesModule -->
<g id="edge2" class="edge">
<title>EditionRowTablesRoutingModule&#45;&gt;EditionRowTablesModule</title>
<path fill="none" stroke="black" d="M245,-122.11C245,-122.11 245,-140.99 245,-140.99"/>
<polygon fill="black" stroke="black" points="241.5,-140.99 245,-150.99 248.5,-140.99 241.5,-140.99"/>
</g>
<!-- SharedModule -->
<g id="node4" class="node">
<title>SharedModule</title>
<polygon fill="#8dd3c7" stroke="black" points="122.42,-122 119.42,-126 98.42,-126 95.42,-122 23.58,-122 23.58,-86 122.42,-86 122.42,-122"/>
<text text-anchor="middle" x="73" y="-99.8" font-family="Times,serif" font-size="14.00">SharedModule</text>
</g>
<!-- SharedModule&#45;&gt;EditionRowTablesModule -->
<g id="edge3" class="edge">
<title>SharedModule&#45;&gt;EditionRowTablesModule</title>
<path fill="none" stroke="black" d="M73,-122.11C73,-141.34 73,-169 73,-169 73,-169 152.78,-169 152.78,-169"/>
<polygon fill="black" stroke="black" points="152.78,-172.5 162.78,-169 152.78,-165.5 152.78,-172.5"/>
</g>
</g>
</svg>
