<?xml version="1.0" encoding="UTF-8" standalone="no"?>
<!DOCTYPE svg PUBLIC "-//W3C//DTD SVG 1.1//EN"
 "http://www.w3.org/Graphics/SVG/1.1/DTD/svg11.dtd">
<!-- Generated by graphviz version 5.0.0 (20220707.1540)
 -->
<!-- Title: dependencies Pages: 1 -->
<svg width="592pt" height="174pt"
 viewBox="0.00 0.00 592.00 173.80" xmlns="http://www.w3.org/2000/svg" xmlns:xlink="http://www.w3.org/1999/xlink">
<g id="graph0" class="graph" transform="scale(1 1) rotate(0) translate(4 169.8)">
<title>dependencies</title>
<polygon fill="white" stroke="transparent" points="-4,4 -4,-169.8 588,-169.8 588,4 -4,4"/>
<text text-anchor="middle" x="292" y="-8.2" font-family="sans-serif" font-size="14.00">dependencies</text>
<g id="clust1" class="cluster">
<title>cluster_EditionRowTablesModule</title>
<polygon fill="none" stroke="black" stroke-dasharray="1,5" points="8,-32.8 8,-157.8 576,-157.8 576,-32.8 8,-32.8"/>
</g>
<g id="clust2" class="cluster">
<title>cluster_EditionRowTablesModule_declarations</title>
<polygon fill="none" stroke="black" points="366,-40.8 366,-92.8 568,-92.8 568,-40.8 366,-40.8"/>
</g>
<g id="clust4" class="cluster">
<title>cluster_EditionRowTablesModule_imports</title>
<polygon fill="none" stroke="black" points="16,-40.8 16,-92.8 358,-92.8 358,-40.8 16,-40.8"/>
</g>
<!-- EditionRowTablesComponent -->
<g id="node1" class="node">
<title>EditionRowTablesComponent</title>
<polygon fill="#ffffb3" stroke="black" points="560.32,-84.8 373.68,-84.8 373.68,-48.8 560.32,-48.8 560.32,-84.8"/>
<text text-anchor="middle" x="467" y="-62.6" font-family="Times,serif" font-size="14.00">EditionRowTablesComponent</text>
</g>
<!-- EditionRowTablesModule -->
<g id="node2" class="node">
<title>EditionRowTablesModule</title>
<polygon fill="#8dd3c7" stroke="black" points="327.04,-149.8 324.04,-153.8 303.04,-153.8 300.04,-149.8 162.96,-149.8 162.96,-113.8 327.04,-113.8 327.04,-149.8"/>
<text text-anchor="middle" x="245" y="-127.6" font-family="Times,serif" font-size="14.00">EditionRowTablesModule</text>
</g>
<!-- EditionRowTablesComponent&#45;&gt;EditionRowTablesModule -->
<g id="edge1" class="edge">
<title>EditionRowTablesComponent&#45;&gt;EditionRowTablesModule</title>
<path fill="none" stroke="black" d="M467,-84.91C467,-104.14 467,-131.8 467,-131.8 467,-131.8 337.35,-131.8 337.35,-131.8"/>
<polygon fill="black" stroke="black" points="337.35,-128.3 327.35,-131.8 337.35,-135.3 337.35,-128.3"/>
</g>
<!-- EditionRowTablesRoutingModule -->
<g id="node3" class="node">
<title>EditionRowTablesRoutingModule</title>
<polygon fill="#8dd3c7" stroke="black" points="349.66,-84.8 346.66,-88.8 325.66,-88.8 322.66,-84.8 140.34,-84.8 140.34,-48.8 349.66,-48.8 349.66,-84.8"/>
<text text-anchor="middle" x="245" y="-62.6" font-family="Times,serif" font-size="14.00">EditionRowTablesRoutingModule</text>
</g>
<!-- EditionRowTablesRoutingModule&#45;&gt;EditionRowTablesModule -->
<g id="edge2" class="edge">
<title>EditionRowTablesRoutingModule&#45;&gt;EditionRowTablesModule</title>
<path fill="none" stroke="black" d="M245,-84.91C245,-84.91 245,-103.79 245,-103.79"/>
<polygon fill="black" stroke="black" points="241.5,-103.79 245,-113.79 248.5,-103.79 241.5,-103.79"/>
</g>
<!-- SharedModule -->
<g id="node4" class="node">
<title>SharedModule</title>
<polygon fill="#8dd3c7" stroke="black" points="122.43,-84.8 119.43,-88.8 98.43,-88.8 95.43,-84.8 23.57,-84.8 23.57,-48.8 122.43,-48.8 122.43,-84.8"/>
<text text-anchor="middle" x="73" y="-62.6" font-family="Times,serif" font-size="14.00">SharedModule</text>
</g>
<!-- SharedModule&#45;&gt;EditionRowTablesModule -->
<g id="edge3" class="edge">
<title>SharedModule&#45;&gt;EditionRowTablesModule</title>
<path fill="none" stroke="black" d="M73,-84.91C73,-104.14 73,-131.8 73,-131.8 73,-131.8 152.78,-131.8 152.78,-131.8"/>
<polygon fill="black" stroke="black" points="152.78,-135.3 162.78,-131.8 152.78,-128.3 152.78,-135.3"/>
</g>
</g>
</svg>
