<?xml version="1.0" encoding="UTF-8" standalone="no"?>
<!DOCTYPE svg PUBLIC "-//W3C//DTD SVG 1.1//EN"
 "http://www.w3.org/Graphics/SVG/1.1/DTD/svg11.dtd">
<!-- Generated by graphviz version 2.40.1 (20161225.0304)
 -->
<!-- Title: dependencies Pages: 1 -->
<svg width="1397pt" height="211pt"
 viewBox="0.00 0.00 1397.00 211.00" xmlns="http://www.w3.org/2000/svg" xmlns:xlink="http://www.w3.org/1999/xlink">
<g id="graph0" class="graph" transform="scale(1 1) rotate(0) translate(4 207)">
<title>dependencies</title>
<polygon fill="#ffffff" stroke="transparent" points="-4,4 -4,-207 1393,-207 1393,4 -4,4"/>
<text text-anchor="start" x="673.5091" y="-42.4" font-family="sans-serif" font-weight="bold" font-size="14.00" fill="#000000">Legend</text>
<polygon fill="#ffffb3" stroke="transparent" points="460.5,-10 460.5,-30 480.5,-30 480.5,-10 460.5,-10"/>
<text text-anchor="start" x="484.129" y="-15.4" font-family="sans-serif" font-size="14.00" fill="#000000"> &#160;Declarations</text>
<polygon fill="#8dd3c7" stroke="transparent" points="573.5,-10 573.5,-30 593.5,-30 593.5,-10 573.5,-10"/>
<text text-anchor="start" x="597.2251" y="-15.4" font-family="sans-serif" font-size="14.00" fill="#000000"> &#160;Module</text>
<polygon fill="#80b1d3" stroke="transparent" points="659.5,-10 659.5,-30 679.5,-30 679.5,-10 659.5,-10"/>
<text text-anchor="start" x="683.2812" y="-15.4" font-family="sans-serif" font-size="14.00" fill="#000000"> &#160;Bootstrap</text>
<polygon fill="#fdb462" stroke="transparent" points="756.5,-10 756.5,-30 776.5,-30 776.5,-10 756.5,-10"/>
<text text-anchor="start" x="780.1732" y="-15.4" font-family="sans-serif" font-size="14.00" fill="#000000"> &#160;Providers</text>
<polygon fill="#fb8072" stroke="transparent" points="852.5,-10 852.5,-30 872.5,-30 872.5,-10 852.5,-10"/>
<text text-anchor="start" x="876.2258" y="-15.4" font-family="sans-serif" font-size="14.00" fill="#000000"> &#160;Exports</text>
<g id="clust1" class="cluster">
<title>cluster_EditionModule</title>
<polygon fill="none" stroke="#000000" stroke-dasharray="1,5" points="8,-70 8,-195 1381,-195 1381,-70 8,-70"/>
</g>
<g id="clust2" class="cluster">
<title>cluster_EditionModule_declarations</title>
<polygon fill="none" stroke="#000000" points="570,-78 570,-130 1373,-130 1373,-78 570,-78"/>
</g>
<g id="clust8" class="cluster">
<title>cluster_EditionModule_imports</title>
<polygon fill="none" stroke="#000000" points="16,-78 16,-130 562,-130 562,-78 16,-78"/>
</g>
<!-- EditionDetailComponent -->
<g id="node1" class="node">
<title>EditionDetailComponent</title>
<polygon fill="#ffffb3" stroke="#000000" points="1365.2646,-122 1208.7354,-122 1208.7354,-86 1365.2646,-86 1365.2646,-122"/>
<text text-anchor="middle" x="1287" y="-99.8" font-family="Times,serif" font-size="14.00" fill="#000000">EditionDetailComponent</text>
</g>
<!-- EditionModule -->
<g id="node6" class="node">
<title>EditionModule</title>
<polygon fill="#8dd3c7" stroke="#000000" points="688.2745,-187 685.2745,-191 664.2745,-191 661.2745,-187 587.7255,-187 587.7255,-151 688.2745,-151 688.2745,-187"/>
<text text-anchor="middle" x="638" y="-164.8" font-family="Times,serif" font-size="14.00" fill="#000000">EditionModule</text>
</g>
<!-- EditionDetailComponent&#45;&gt;EditionModule -->
<g id="edge1" class="edge">
<title>EditionDetailComponent&#45;&gt;EditionModule</title>
<path fill="none" stroke="#000000" d="M1287,-122.0109C1287,-144.4852 1287,-180 1287,-180 1287,-180 698.3859,-180 698.3859,-180"/>
<polygon fill="#000000" stroke="#000000" points="698.3859,-176.5001 688.3859,-180 698.3859,-183.5001 698.3859,-176.5001"/>
</g>
<!-- EditionOverviewComponent -->
<g id="node2" class="node">
<title>EditionOverviewComponent</title>
<polygon fill="#ffffb3" stroke="#000000" points="1190.7506,-122 1013.2494,-122 1013.2494,-86 1190.7506,-86 1190.7506,-122"/>
<text text-anchor="middle" x="1102" y="-99.8" font-family="Times,serif" font-size="14.00" fill="#000000">EditionOverviewComponent</text>
</g>
<!-- EditionOverviewComponent&#45;&gt;EditionModule -->
<g id="edge2" class="edge">
<title>EditionOverviewComponent&#45;&gt;EditionModule</title>
<path fill="none" stroke="#000000" d="M1102,-122.1289C1102,-142.5724 1102,-173 1102,-173 1102,-173 698.5394,-173 698.5394,-173"/>
<polygon fill="#000000" stroke="#000000" points="698.5395,-169.5001 688.5394,-173 698.5394,-176.5001 698.5395,-169.5001"/>
</g>
<!-- EditionViewComponent -->
<g id="node3" class="node">
<title>EditionViewComponent</title>
<polygon fill="#ffffb3" stroke="#000000" points="995.3753,-122 842.6247,-122 842.6247,-86 995.3753,-86 995.3753,-122"/>
<text text-anchor="middle" x="919" y="-99.8" font-family="Times,serif" font-size="14.00" fill="#000000">EditionViewComponent</text>
</g>
<!-- EditionViewComponent&#45;&gt;EditionModule -->
<g id="edge3" class="edge">
<title>EditionViewComponent&#45;&gt;EditionModule</title>
<path fill="none" stroke="#000000" d="M919,-122.2667C919,-140.5552 919,-166 919,-166 919,-166 698.5617,-166 698.5617,-166"/>
<polygon fill="#000000" stroke="#000000" points="698.5617,-162.5001 688.5617,-166 698.5617,-169.5001 698.5617,-162.5001"/>
</g>
<!-- IntroComponent -->
<g id="node4" class="node">
<title>IntroComponent</title>
<polygon fill="#ffffb3" stroke="#000000" points="824.0452,-122 715.9548,-122 715.9548,-86 824.0452,-86 824.0452,-122"/>
<text text-anchor="middle" x="770" y="-99.8" font-family="Times,serif" font-size="14.00" fill="#000000">IntroComponent</text>
</g>
<!-- IntroComponent&#45;&gt;EditionModule -->
<g id="edge4" class="edge">
<title>IntroComponent&#45;&gt;EditionModule</title>
<path fill="none" stroke="#000000" d="M770,-122.0091C770,-138.0494 770,-159 770,-159 770,-159 698.2801,-159 698.2801,-159"/>
<polygon fill="#000000" stroke="#000000" points="698.2801,-155.5001 688.2801,-159 698.2801,-162.5001 698.2801,-155.5001"/>
</g>
<!-- ReportComponent -->
<g id="node5" class="node">
<title>ReportComponent</title>
<polygon fill="#ffffb3" stroke="#000000" points="697.9356,-122 578.0644,-122 578.0644,-86 697.9356,-86 697.9356,-122"/>
<text text-anchor="middle" x="638" y="-99.8" font-family="Times,serif" font-size="14.00" fill="#000000">ReportComponent</text>
</g>
<!-- ReportComponent&#45;&gt;EditionModule -->
<g id="edge5" class="edge">
<title>ReportComponent&#45;&gt;EditionModule</title>
<path fill="none" stroke="#000000" d="M638,-122.1061C638,-122.1061 638,-140.991 638,-140.991"/>
<polygon fill="#000000" stroke="#000000" points="634.5001,-140.9909 638,-150.991 641.5001,-140.991 634.5001,-140.9909"/>
</g>
<!-- EditionDetailModule -->
<g id="node7" class="node">
<title>EditionDetailModule</title>
<polygon fill="#8dd3c7" stroke="#000000" points="554.4818,-122 551.4818,-126 530.4818,-126 527.4818,-122 419.5182,-122 419.5182,-86 554.4818,-86 554.4818,-122"/>
<text text-anchor="middle" x="487" y="-99.8" font-family="Times,serif" font-size="14.00" fill="#000000">EditionDetailModule</text>
</g>
<!-- EditionDetailModule&#45;&gt;EditionModule -->
<g id="edge6" class="edge">
<title>EditionDetailModule&#45;&gt;EditionModule</title>
<path fill="none" stroke="#000000" d="M487,-122.0091C487,-138.0494 487,-159 487,-159 487,-159 577.7192,-159 577.7192,-159"/>
<polygon fill="#000000" stroke="#000000" points="577.7192,-162.5001 587.7192,-159 577.7192,-155.5001 577.7192,-162.5001"/>
</g>
<!-- EditionRoutingModule -->
<g id="node8" class="node">
<title>EditionRoutingModule</title>
<polygon fill="#8dd3c7" stroke="#000000" points="401.892,-122 398.892,-126 377.892,-126 374.892,-122 256.108,-122 256.108,-86 401.892,-86 401.892,-122"/>
<text text-anchor="middle" x="329" y="-99.8" font-family="Times,serif" font-size="14.00" fill="#000000">EditionRoutingModule</text>
</g>
<!-- EditionRoutingModule&#45;&gt;EditionModule -->
<g id="edge7" class="edge">
<title>EditionRoutingModule&#45;&gt;EditionModule</title>
<path fill="none" stroke="#000000" d="M329,-122.2667C329,-140.5552 329,-166 329,-166 329,-166 577.6661,-166 577.6661,-166"/>
<polygon fill="#000000" stroke="#000000" points="577.6661,-169.5001 587.6661,-166 577.6661,-162.5001 577.6661,-169.5001"/>
</g>
<!-- ReportModule -->
<g id="node9" class="node">
<title>ReportModule</title>
<polygon fill="#8dd3c7" stroke="#000000" points="237.6528,-122 234.6528,-126 213.6528,-126 210.6528,-122 140.3472,-122 140.3472,-86 237.6528,-86 237.6528,-122"/>
<text text-anchor="middle" x="189" y="-99.8" font-family="Times,serif" font-size="14.00" fill="#000000">ReportModule</text>
</g>
<!-- ReportModule&#45;&gt;EditionModule -->
<g id="edge8" class="edge">
<title>ReportModule&#45;&gt;EditionModule</title>
<path fill="none" stroke="#000000" d="M189,-122.1289C189,-142.5724 189,-173 189,-173 189,-173 577.3668,-173 577.3668,-173"/>
<polygon fill="#000000" stroke="#000000" points="577.3668,-176.5001 587.3668,-173 577.3668,-169.5001 577.3668,-176.5001"/>
</g>
<!-- SharedModule -->
<g id="node10" class="node">
<title>SharedModule</title>
<polygon fill="#8dd3c7" stroke="#000000" points="122.4231,-122 119.4231,-126 98.4231,-126 95.4231,-122 23.5769,-122 23.5769,-86 122.4231,-86 122.4231,-122"/>
<text text-anchor="middle" x="73" y="-99.8" font-family="Times,serif" font-size="14.00" fill="#000000">SharedModule</text>
</g>
<!-- SharedModule&#45;&gt;EditionModule -->
<g id="edge9" class="edge">
<title>SharedModule&#45;&gt;EditionModule</title>
<path fill="none" stroke="#000000" d="M73,-122.0109C73,-144.4852 73,-180 73,-180 73,-180 577.3628,-180 577.3628,-180"/>
<polygon fill="#000000" stroke="#000000" points="577.3628,-183.5001 587.3628,-180 577.3628,-176.5001 577.3628,-183.5001"/>
</g>
</g>
</svg>
