<?xml version="1.0" encoding="utf-8"?>
<!-- Generator: Adobe Illustrator 22.1.0, SVG Export Plug-In . SVG Version: 6.00 Build 0)  -->
<svg version="1.1" id="Ebene_1" xmlns="http://www.w3.org/2000/svg" xmlns:xlink="http://www.w3.org/1999/xlink" x="0px" y="0px"
	 viewBox="0 0 1021 595" style="enable-background:new 0 0 1021 595;" xml:space="preserve">
<style type="text/css">
	.st0{enable-background:new    ;}
	.st1{fill:none;stroke:#000000;stroke-width:0.4;}
	.st2{fill:none;stroke:#000000;stroke-width:0.49;}
	.st3{fill:#FFFFFF;}
	.st4{fill:#FFFFFF;stroke:#000000;stroke-width:0.4;stroke-miterlimit:10;}
	.st5{fill:none;stroke:#000000;stroke-width:0.4;stroke-dasharray:2.5,2.5;}
	.st6{fill:none;stroke:#000000;stroke-width:0.56;}
	.st7{fill:none;stroke:#000000;stroke-width:0.44;}
	.st8{fill:none;stroke:#000000;stroke-width:0.4;stroke-miterlimit:10;}
	.st9{fill:none;}
</style>
<g class="st0">
	<path d="M94.6,180.7c-0.3,0-0.5,0.1-0.8,0.1c-0.3,0-0.6,0-0.8,0s-0.5-0.1-0.7-0.1c-0.2,0-0.4-0.1-0.6-0.2c-0.7-0.3-1.3-0.7-1.7-1.1
		c-0.4-0.4-0.8-0.8-1-1.2c-0.2-0.4-0.4-0.8-0.5-1.2c-0.1-0.4-0.2-0.9-0.2-1.3c0-0.5,0-0.9,0.1-1.4c0.1-0.5,0.3-0.9,0.5-1.3
		c0.2-0.4,0.5-0.8,0.7-1.2c0.3-0.4,0.6-0.7,0.8-0.9c0.3-0.3,0.7-0.6,1-0.9s0.7-0.6,1.2-0.9c0-0.1,0-0.2,0-0.3c0-0.1,0-0.2,0-0.3
		c0-0.1,0-0.2-0.1-0.3c0-0.1,0-0.3,0-0.4c0-0.1,0-0.2,0-0.4c0-0.2,0-0.4,0-0.7c0-0.3,0-0.6,0-0.9c0-0.4,0.1-0.7,0.1-1.1
		c0-0.2,0.1-0.5,0.3-0.9c0.1-0.3,0.3-0.7,0.5-1c0.2-0.3,0.4-0.6,0.6-0.8c0.2-0.2,0.4-0.4,0.6-0.4c0.1,0,0.2,0.1,0.3,0.2
		c0.1,0.1,0.2,0.3,0.3,0.5c0.1,0.2,0.2,0.4,0.3,0.7c0.1,0.3,0.2,0.5,0.3,0.8c0.1,0.3,0.1,0.5,0.2,0.8c0,0.3,0.1,0.5,0.1,0.7
		c0,0.5,0,0.9-0.1,1.2c0,0.4-0.1,0.7-0.2,1c-0.1,0.3-0.2,0.5-0.3,0.8s-0.2,0.5-0.4,0.7c-0.1,0.2-0.3,0.5-0.4,0.6
		c-0.1,0.2-0.3,0.4-0.5,0.6c-0.2,0.2-0.3,0.4-0.5,0.5c-0.2,0.1-0.3,0.3-0.5,0.4c0.1,0.5,0.2,0.9,0.2,1.2c0,0.2,0.1,0.3,0.1,0.5
		c0,0.2,0,0.3,0.1,0.4s0,0.2,0.1,0.3c0,0.1,0,0.1,0,0.2c0.2,0,0.4,0,0.7,0s0.4,0.1,0.7,0.1c0.2,0,0.4,0.1,0.6,0.2s0.3,0.1,0.4,0.2
		c0.5,0.4,0.8,0.8,1,1.2c0.2,0.5,0.3,0.9,0.4,1.4c0,0.4,0,0.8-0.1,1.1c-0.1,0.4-0.2,0.7-0.5,1.1c-0.2,0.3-0.5,0.7-0.8,1
		s-0.7,0.5-1.2,0.7c0.1,0.4,0.1,0.7,0.1,1c0,0.3,0.1,0.5,0.1,0.8c0,0.3,0.1,0.4,0.1,0.5c0.1,0.5,0.1,1,0.1,1.3
		c0,0.3-0.1,0.6-0.2,0.8c-0.1,0.2-0.2,0.4-0.3,0.5c-0.1,0.2-0.3,0.3-0.5,0.5c-0.2,0.1-0.4,0.2-0.6,0.3c-0.2,0.1-0.5,0.1-0.8,0.2
		c-0.2,0-0.5,0-0.8-0.1c-0.3-0.1-0.6-0.2-0.9-0.3c-0.3-0.1-0.6-0.3-0.8-0.6c-0.2-0.3-0.3-0.6-0.4-0.9c0-0.2,0-0.4,0-0.7
		s0.1-0.4,0.2-0.6c0.1-0.2,0.3-0.3,0.4-0.4s0.4-0.2,0.7-0.2c0.2,0,0.3,0,0.5,0.1s0.3,0.1,0.5,0.2c0.1,0.1,0.3,0.2,0.4,0.4
		c0.1,0.2,0.1,0.3,0.2,0.5c0,0.3-0.1,0.7-0.3,1c-0.2,0.3-0.6,0.5-1.2,0.7c0.1,0.1,0.3,0.2,0.5,0.4s0.6,0.2,0.9,0.2
		c0.4,0,0.8-0.1,1.1-0.4c0.4-0.2,0.6-0.5,0.8-0.9c0.1-0.2,0.2-0.5,0.2-0.9c0-0.4,0-0.7-0.1-1.1c0-0.1,0-0.2-0.1-0.5
		c0-0.2-0.1-0.5-0.1-0.8C94.7,181.5,94.7,181.1,94.6,180.7z M92.8,175.7c-0.2,0.1-0.4,0.3-0.6,0.5c-0.1,0.2-0.2,0.4-0.3,0.6
		s-0.1,0.4-0.1,0.6c0,0.2,0,0.3,0.1,0.5s0.1,0.3,0.2,0.5s0.2,0.3,0.3,0.4c0.1,0.1,0.2,0.2,0.4,0.3c0,0,0,0,0,0s0,0,0,0s0,0,0,0.1
		c-0.3-0.1-0.5-0.3-0.7-0.5c-0.2-0.2-0.3-0.3-0.4-0.4c-0.1-0.1-0.2-0.3-0.3-0.4c-0.1-0.1-0.1-0.2-0.2-0.3c0-0.1-0.1-0.3-0.1-0.4
		c0-0.1-0.1-0.3-0.1-0.5c0-0.2,0-0.4,0-0.6c0-0.2,0.1-0.4,0.2-0.6s0.2-0.4,0.4-0.6c0.2-0.2,0.4-0.4,0.6-0.6c0.1-0.1,0.2-0.2,0.3-0.2
		c0.1-0.1,0.2-0.1,0.3-0.1c0.1,0,0.2-0.1,0.2-0.1c0.1,0,0.2,0,0.3-0.1l-0.4-2.4c-0.1,0.1-0.3,0.2-0.5,0.4c-0.2,0.2-0.5,0.4-0.8,0.7
		c-0.3,0.3-0.6,0.5-0.9,0.8s-0.5,0.6-0.7,0.9c-0.3,0.5-0.6,1-0.8,1.4c-0.2,0.4-0.2,0.9-0.2,1.4c0,0.6,0.2,1.1,0.5,1.6
		c0.3,0.5,0.7,0.9,1.2,1.2c0.5,0.3,1,0.6,1.7,0.7c0.6,0.1,1.3,0.1,1.9,0c-0.1-0.9-0.3-1.7-0.4-2.4c-0.1-0.3-0.1-0.6-0.1-0.9
		c0-0.3-0.1-0.5-0.1-0.8c0-0.2-0.1-0.5-0.1-0.8C93.4,175.5,93.1,175.6,92.8,175.7z M94.9,163.6c-0.4,0-0.7,0.2-0.9,0.5
		c-0.3,0.3-0.5,0.7-0.6,1.2c-0.2,0.5-0.3,1.1-0.3,1.7c-0.1,0.6,0,1.2,0,1.7c0.3-0.2,0.6-0.5,0.9-0.8c0.3-0.3,0.6-0.7,0.9-1
		c0.3-0.4,0.5-0.7,0.6-1.1s0.2-0.7,0.2-1.1c0-0.1,0-0.2-0.1-0.4s-0.1-0.3-0.1-0.4c-0.1-0.1-0.1-0.2-0.2-0.3
		C95.2,163.7,95,163.6,94.9,163.6z M94.9,180.2c0.4-0.1,0.7-0.3,0.9-0.5c0.2-0.2,0.4-0.5,0.5-0.7s0.2-0.5,0.2-0.8c0-0.3,0-0.5,0-0.7
		c0-0.2-0.1-0.4-0.1-0.6c-0.1-0.2-0.2-0.5-0.3-0.7c-0.2-0.2-0.4-0.4-0.7-0.6s-0.7-0.2-1.2-0.2L94.9,180.2z"/>
</g>
<g class="st0">
	<path d="M94.6,221.2c-0.3,0-0.5,0.1-0.8,0.1c-0.3,0-0.6,0-0.8,0s-0.5-0.1-0.7-0.1c-0.2,0-0.4-0.1-0.6-0.2c-0.7-0.3-1.3-0.7-1.7-1.1
		c-0.4-0.4-0.8-0.8-1-1.2c-0.2-0.4-0.4-0.8-0.5-1.2c-0.1-0.4-0.2-0.9-0.2-1.3c0-0.5,0-0.9,0.1-1.4c0.1-0.5,0.3-0.9,0.5-1.3
		c0.2-0.4,0.5-0.8,0.7-1.2c0.3-0.4,0.6-0.7,0.8-0.9c0.3-0.3,0.7-0.6,1-0.9s0.7-0.6,1.2-0.9c0-0.1,0-0.2,0-0.3c0-0.1,0-0.2,0-0.3
		c0-0.1,0-0.2-0.1-0.3c0-0.1,0-0.3,0-0.4c0-0.1,0-0.2,0-0.4c0-0.2,0-0.4,0-0.7c0-0.3,0-0.6,0-0.9c0-0.4,0.1-0.7,0.1-1.1
		c0-0.2,0.1-0.5,0.3-0.9c0.1-0.3,0.3-0.7,0.5-1c0.2-0.3,0.4-0.6,0.6-0.8c0.2-0.2,0.4-0.4,0.6-0.4c0.1,0,0.2,0.1,0.3,0.2
		c0.1,0.1,0.2,0.3,0.3,0.5c0.1,0.2,0.2,0.4,0.3,0.7c0.1,0.3,0.2,0.5,0.3,0.8c0.1,0.3,0.1,0.5,0.2,0.8c0,0.3,0.1,0.5,0.1,0.7
		c0,0.5,0,0.9-0.1,1.2c0,0.4-0.1,0.7-0.2,1c-0.1,0.3-0.2,0.5-0.3,0.8s-0.2,0.5-0.4,0.7c-0.1,0.2-0.3,0.5-0.4,0.6
		c-0.1,0.2-0.3,0.4-0.5,0.6c-0.2,0.2-0.3,0.4-0.5,0.5c-0.2,0.1-0.3,0.3-0.5,0.4c0.1,0.5,0.2,0.9,0.2,1.2c0,0.2,0.1,0.3,0.1,0.5
		c0,0.2,0,0.3,0.1,0.4s0,0.2,0.1,0.3c0,0.1,0,0.1,0,0.2c0.2,0,0.4,0,0.7,0s0.4,0.1,0.7,0.1c0.2,0,0.4,0.1,0.6,0.2s0.3,0.1,0.4,0.2
		c0.5,0.4,0.8,0.8,1,1.2c0.2,0.5,0.3,0.9,0.4,1.4c0,0.4,0,0.8-0.1,1.1c-0.1,0.4-0.2,0.7-0.5,1.1c-0.2,0.3-0.5,0.7-0.8,1
		s-0.7,0.5-1.2,0.7c0.1,0.4,0.1,0.7,0.1,1c0,0.3,0.1,0.5,0.1,0.8c0,0.3,0.1,0.4,0.1,0.5c0.1,0.5,0.1,1,0.1,1.3
		c0,0.3-0.1,0.6-0.2,0.8c-0.1,0.2-0.2,0.4-0.3,0.5c-0.1,0.2-0.3,0.3-0.5,0.5c-0.2,0.1-0.4,0.2-0.6,0.3c-0.2,0.1-0.5,0.1-0.8,0.2
		c-0.2,0-0.5,0-0.8-0.1c-0.3-0.1-0.6-0.2-0.9-0.3c-0.3-0.1-0.6-0.3-0.8-0.6c-0.2-0.3-0.3-0.6-0.4-0.9c0-0.2,0-0.4,0-0.7
		s0.1-0.4,0.2-0.6c0.1-0.2,0.3-0.3,0.4-0.4s0.4-0.2,0.7-0.2c0.2,0,0.3,0,0.5,0.1s0.3,0.1,0.5,0.2c0.1,0.1,0.3,0.2,0.4,0.4
		c0.1,0.2,0.1,0.3,0.2,0.5c0,0.3-0.1,0.7-0.3,1c-0.2,0.3-0.6,0.5-1.2,0.7c0.1,0.1,0.3,0.2,0.5,0.4s0.6,0.2,0.9,0.2
		c0.4,0,0.8-0.1,1.1-0.4c0.4-0.2,0.6-0.5,0.8-0.9c0.1-0.2,0.2-0.5,0.2-0.9c0-0.4,0-0.7-0.1-1.1c0-0.1,0-0.2-0.1-0.5
		c0-0.2-0.1-0.5-0.1-0.8C94.7,222,94.7,221.6,94.6,221.2z M92.8,216.2c-0.2,0.1-0.4,0.3-0.6,0.5c-0.1,0.2-0.2,0.4-0.3,0.6
		s-0.1,0.4-0.1,0.6c0,0.2,0,0.3,0.1,0.5s0.1,0.3,0.2,0.5s0.2,0.3,0.3,0.4c0.1,0.1,0.2,0.2,0.4,0.3c0,0,0,0,0,0s0,0,0,0s0,0,0,0.1
		c-0.3-0.1-0.5-0.3-0.7-0.5c-0.2-0.2-0.3-0.3-0.4-0.4c-0.1-0.1-0.2-0.3-0.3-0.4c-0.1-0.1-0.1-0.2-0.2-0.3c0-0.1-0.1-0.3-0.1-0.4
		c0-0.1-0.1-0.3-0.1-0.5c0-0.2,0-0.4,0-0.6c0-0.2,0.1-0.4,0.2-0.6s0.2-0.4,0.4-0.6c0.2-0.2,0.4-0.4,0.6-0.6c0.1-0.1,0.2-0.2,0.3-0.2
		c0.1-0.1,0.2-0.1,0.3-0.1c0.1,0,0.2-0.1,0.2-0.1c0.1,0,0.2,0,0.3-0.1l-0.4-2.4c-0.1,0.1-0.3,0.2-0.5,0.4c-0.2,0.2-0.5,0.4-0.8,0.7
		c-0.3,0.3-0.6,0.5-0.9,0.8s-0.5,0.6-0.7,0.9c-0.3,0.5-0.6,1-0.8,1.4c-0.2,0.4-0.2,0.9-0.2,1.4c0,0.6,0.2,1.1,0.5,1.6
		c0.3,0.5,0.7,0.9,1.2,1.2c0.5,0.3,1,0.6,1.7,0.7c0.6,0.1,1.3,0.1,1.9,0c-0.1-0.9-0.3-1.7-0.4-2.4c-0.1-0.3-0.1-0.6-0.1-0.9
		c0-0.3-0.1-0.5-0.1-0.8c0-0.2-0.1-0.5-0.1-0.8C93.4,216,93.1,216.1,92.8,216.2z M94.9,204.1c-0.4,0-0.7,0.2-0.9,0.5
		c-0.3,0.3-0.5,0.7-0.6,1.2c-0.2,0.5-0.3,1.1-0.3,1.7c-0.1,0.6,0,1.2,0,1.7c0.3-0.2,0.6-0.5,0.9-0.8c0.3-0.3,0.6-0.7,0.9-1
		c0.3-0.4,0.5-0.7,0.6-1.1s0.2-0.7,0.2-1.1c0-0.1,0-0.2-0.1-0.4s-0.1-0.3-0.1-0.4c-0.1-0.1-0.1-0.2-0.2-0.3
		C95.2,204.2,95,204.1,94.9,204.1z M94.9,220.7c0.4-0.1,0.7-0.3,0.9-0.5c0.2-0.2,0.4-0.5,0.5-0.7s0.2-0.5,0.2-0.8c0-0.3,0-0.5,0-0.7
		c0-0.2-0.1-0.4-0.1-0.6c-0.1-0.2-0.2-0.5-0.3-0.7c-0.2-0.2-0.4-0.4-0.7-0.6s-0.7-0.2-1.2-0.2L94.9,220.7z"/>
</g>
<g class="st0">
	<path d="M95.1,255.1c-0.1,0.2-0.2,0.3-0.2,0.4c-0.1,0.1-0.2,0.2-0.2,0.4c-0.1,0.1-0.2,0.2-0.3,0.3s-0.2,0.2-0.3,0.4
		c-0.1,0.1-0.2,0.3-0.3,0.4c-0.1,0.1-0.2,0.2-0.3,0.3c-0.1,0.1-0.2,0.2-0.3,0.3c-0.1,0.1-0.2,0.2-0.4,0.3c-0.2,0.1-0.3,0.3-0.5,0.4
		c-0.2,0.1-0.3,0.2-0.5,0.3c-0.2,0.1-0.3,0.2-0.5,0.2s-0.4,0.1-0.6,0.2s-0.4,0.2-0.7,0.2s-0.5,0.1-0.7,0.2c-0.3,0.1-0.5,0.1-0.8,0.1
		l-0.1-0.2c0.4-0.1,0.8-0.3,1.3-0.5c0.4-0.2,0.7-0.4,1.1-0.6s0.7-0.5,1-0.8c0.7-0.8,1.3-1.6,1.7-2.6s0.6-2,0.5-3.2
		c0-0.3,0-0.6-0.1-0.9c-0.1-0.4-0.2-0.7-0.3-1c-0.1-0.3-0.4-0.6-0.6-0.8c-0.3-0.2-0.6-0.3-1-0.3c-0.2,0-0.5,0-0.8,0.1
		c-0.3,0.1-0.5,0.2-0.7,0.4c-0.2,0.2-0.4,0.4-0.6,0.6c-0.1,0.2-0.2,0.5-0.2,0.7c0,0,0,0,0.1,0s0.1,0,0.2-0.1c0.1,0,0.2-0.1,0.4-0.1
		c0.1,0,0.3,0,0.5,0c0.2,0,0.4,0.1,0.5,0.2s0.3,0.3,0.4,0.4s0.1,0.4,0.2,0.6c0,0.2,0,0.4,0,0.6c-0.1,0.3-0.2,0.5-0.4,0.7
		c-0.2,0.2-0.5,0.3-0.8,0.3c-0.2,0-0.4,0-0.6-0.1s-0.4-0.2-0.5-0.3c-0.2-0.1-0.3-0.3-0.4-0.5c-0.1-0.2-0.1-0.4-0.1-0.7
		c0-0.4,0-0.7,0.1-1c0.1-0.3,0.2-0.6,0.4-0.8c0.1-0.2,0.3-0.4,0.4-0.5c0.2-0.1,0.3-0.2,0.4-0.3c0.3-0.2,0.7-0.3,1-0.4
		c0.3-0.1,0.7-0.1,1-0.1c0.3,0,0.7,0.1,1,0.2c0.3,0.1,0.7,0.3,1,0.5c0.3,0.2,0.6,0.5,0.8,0.8c0.2,0.3,0.4,0.6,0.6,1
		c0.2,0.4,0.2,0.8,0.2,1.3s-0.1,0.9-0.2,1.5c0,0.2-0.1,0.3-0.1,0.5c0,0.1-0.1,0.3-0.1,0.4c-0.1,0.1-0.1,0.3-0.2,0.4
		C95.2,254.8,95.2,255,95.1,255.1z M96.5,249.9c0-0.2,0.1-0.4,0.2-0.5c0.1-0.1,0.3-0.2,0.5-0.2c0.2,0,0.4,0.1,0.5,0.2
		c0.1,0.1,0.2,0.3,0.2,0.5c0,0.2-0.1,0.4-0.2,0.5s-0.3,0.2-0.5,0.2c-0.2,0-0.4-0.1-0.5-0.2C96.5,250.3,96.5,250.1,96.5,249.9z
		 M96.5,253.3c0-0.2,0.1-0.4,0.2-0.5s0.3-0.2,0.5-0.2c0.2,0,0.4,0.1,0.5,0.2c0.1,0.1,0.2,0.3,0.2,0.5c0,0.2-0.1,0.4-0.2,0.5
		s-0.3,0.2-0.5,0.2c-0.2,0-0.4-0.1-0.5-0.2C96.5,253.7,96.5,253.5,96.5,253.3z"/>
</g>
<line class="st1" x1="84.9" y1="126.7" x2="935.4" y2="126.7"/>
<line class="st1" x1="84.9" y1="130.1" x2="935.4" y2="130.1"/>
<line class="st1" x1="84.9" y1="133.5" x2="935.4" y2="133.5"/>
<line class="st1" x1="84.9" y1="136.8" x2="935.4" y2="136.8"/>
<line class="st1" x1="84.9" y1="140.2" x2="935.4" y2="140.2"/>
<line class="st1" x1="84.9" y1="167.2" x2="935.4" y2="167.2"/>
<line class="st1" x1="84.9" y1="170.6" x2="935.4" y2="170.6"/>
<line class="st1" x1="84.9" y1="174" x2="935.4" y2="174"/>
<line class="st1" x1="84.9" y1="177.3" x2="935.4" y2="177.3"/>
<line class="st1" x1="84.9" y1="180.7" x2="935.4" y2="180.7"/>
<line class="st1" x1="84.9" y1="207.7" x2="935.4" y2="207.7"/>
<line class="st1" x1="84.9" y1="211.1" x2="935.4" y2="211.1"/>
<line class="st1" x1="84.9" y1="214.5" x2="935.4" y2="214.5"/>
<line class="st1" x1="84.9" y1="217.8" x2="935.4" y2="217.8"/>
<line class="st1" x1="84.9" y1="221.2" x2="935.4" y2="221.2"/>
<line class="st1" x1="84.9" y1="248.2" x2="935.4" y2="248.2"/>
<line class="st1" x1="84.9" y1="251.6" x2="935.4" y2="251.6"/>
<line class="st1" x1="84.9" y1="255" x2="935.4" y2="255"/>
<line class="st1" x1="84.9" y1="258.3" x2="935.4" y2="258.3"/>
<line class="st1" x1="84.9" y1="261.7" x2="935.4" y2="261.7"/>
<path d="M83.2,207.7c-7.2,11.5,3.1,21.9-3.7,27h0.3c8.2-6.8-1.9-15.5,3.4-26.7L83.2,207.7z"/>
<path d="M83.2,261.7c-7.2-11.5,3.1-21.9-3.7-27h0.3c8.2,6.8-1.9,15.5,3.4,26.7L83.2,261.7z"/>
<line class="st1" x1="86.3" y1="263" x2="97" y2="242.6"/>
<g class="st0">
	<path d="M77,113.2l0.1,0.5l-0.6,0.1l0.3,1.2l-0.5,0.1l-0.3-1.2l-1.8,0.4l-0.1-0.4l1.4-3.3l0.4-0.1l0.6,2.8L77,113.2z M75.9,113.4
		l-0.5-2.2l-1.1,2.5L75.9,113.4z"/>
	<path d="M78.3,113.9c0.1,0,0.2,0,0.3,0c0.1,0.1,0.1,0.1,0.2,0.2c0,0.1,0,0.2,0,0.3c-0.1,0.1-0.1,0.1-0.2,0.2c-0.1,0-0.2,0-0.3,0
		c-0.1-0.1-0.1-0.1-0.2-0.2c0-0.1,0-0.2,0-0.3C78.1,114,78.2,113.9,78.3,113.9z"/>
</g>
<g class="st0">
	<path d="M84.5,108.6l0,0.1c-0.1,0.1-0.3,0.1-0.3,0.2c-0.1,0.1-0.2,0.3-0.2,0.5l-0.7,4.1l-0.1,0l-2.5-3.4c-0.1-0.2-0.2-0.3-0.3-0.3
		c-0.1-0.1-0.1-0.1-0.2-0.1s-0.2,0-0.3,0l0-0.1l1.8-0.4l0,0.1c-0.2,0.1-0.3,0.1-0.4,0.2c0,0.1-0.1,0.1,0,0.2c0,0.1,0.1,0.3,0.3,0.5
		l1.7,2.3l0.5-2.8c0-0.3,0.1-0.5,0-0.6c0-0.1-0.1-0.1-0.1-0.2c-0.1,0-0.2-0.1-0.3-0.1c0,0,0,0-0.1,0l0-0.1L84.5,108.6z"/>
	<path d="M87.6,112.4l0,0.1l-1.9,0.4l0-0.1l0.2,0c0.2,0,0.3-0.1,0.4-0.2c0-0.1,0-0.3,0-0.5l-0.6-2.8c0-0.2-0.1-0.4-0.1-0.4
		c0,0-0.1-0.1-0.2-0.1c-0.1,0-0.2,0-0.3,0l-0.2,0l0-0.1l1.9-0.4l0,0.1l-0.2,0c-0.2,0-0.3,0.1-0.4,0.2c0,0.1,0,0.3,0,0.5l0.6,2.8
		c0,0.2,0.1,0.4,0.1,0.4c0,0,0.1,0.1,0.2,0.1c0.1,0,0.2,0,0.3,0L87.6,112.4z"/>
	<path d="M89.8,111.9l0,0.1l-1.9,0.4l0-0.1l0.2,0c0.2,0,0.3-0.1,0.4-0.2c0-0.1,0-0.3,0-0.5l-0.6-2.8c0-0.2-0.1-0.4-0.1-0.4
		c0,0-0.1-0.1-0.2-0.1c-0.1,0-0.2,0-0.3,0l-0.2,0l0-0.1l1.9-0.4l0,0.1l-0.2,0c-0.2,0-0.3,0.1-0.4,0.2c0,0.1,0,0.3,0,0.5l0.6,2.8
		c0,0.2,0.1,0.4,0.1,0.4c0,0,0.1,0.1,0.2,0.1c0.1,0,0.2,0,0.3,0L89.8,111.9z"/>
	<path d="M90.6,111.2c0.1,0,0.2,0,0.3,0c0.1,0.1,0.1,0.1,0.2,0.2c0,0.1,0,0.2,0,0.3c-0.1,0.1-0.1,0.1-0.2,0.2c-0.1,0-0.2,0-0.3,0
		s-0.1-0.1-0.2-0.2c0-0.1,0-0.2,0-0.3C90.5,111.3,90.5,111.2,90.6,111.2z"/>
	<path d="M92.8,107.6c0.1-0.3,0.2-0.6,0.3-0.8c0.2-0.2,0.4-0.3,0.7-0.4c0.4-0.1,0.6,0,0.9,0.2c0.2,0.1,0.3,0.3,0.3,0.5
		c0.1,0.3-0.1,0.7-0.4,1.1c0.3,0,0.5,0.2,0.7,0.3s0.3,0.4,0.4,0.6c0.1,0.4,0,0.7-0.1,1.1c-0.2,0.4-0.6,0.7-1.2,0.8
		c-0.3,0.1-0.5,0.1-0.6,0c-0.1,0-0.2-0.1-0.2-0.2c0-0.1,0-0.1,0-0.2c0-0.1,0.1-0.1,0.2-0.1c0.1,0,0.1,0,0.2,0c0,0,0.1,0,0.3,0.1
		c0.1,0,0.2,0.1,0.3,0.1c0.1,0,0.2,0,0.3,0c0.2,0,0.4-0.2,0.5-0.4c0.1-0.2,0.2-0.4,0.1-0.7c0-0.2-0.1-0.3-0.2-0.5
		c-0.1-0.1-0.2-0.2-0.2-0.2c-0.1-0.1-0.3-0.1-0.4-0.1c-0.2,0-0.3,0-0.5,0l-0.1,0l0-0.1c0.2-0.1,0.3-0.2,0.5-0.3
		c0.1-0.1,0.2-0.3,0.3-0.4c0-0.2,0.1-0.3,0-0.5c0-0.2-0.2-0.4-0.3-0.5c-0.2-0.1-0.4-0.1-0.6-0.1c-0.3,0.1-0.6,0.3-0.7,0.7
		L92.8,107.6z"/>
	<path d="M99.3,108.2l0.1,0.5l-0.6,0.1L99,110l-0.5,0.1l-0.3-1.2l-1.8,0.4l-0.1-0.4l1.4-3.3l0.4-0.1l0.6,2.8L99.3,108.2z
		 M98.1,108.5l-0.5-2.2l-1.1,2.5L98.1,108.5z"/>
</g>
<g class="st0">
	<path d="M51.3,80.9l1-4.8h1.5c0.3,0,0.5,0,0.6,0c0.2,0,0.4,0.1,0.5,0.2c0.1,0.1,0.3,0.2,0.3,0.4c0.1,0.2,0.1,0.3,0.1,0.5
		c0,0.3-0.1,0.5-0.2,0.7s-0.4,0.4-0.7,0.5c0.3,0.1,0.5,0.2,0.6,0.4c0.1,0.2,0.2,0.4,0.2,0.6c0,0.3-0.1,0.5-0.2,0.8s-0.4,0.4-0.6,0.6
		s-0.5,0.2-0.8,0.2H51.3z M52.1,80.4h1.1c0.3,0,0.5,0,0.6,0c0.2,0,0.4-0.1,0.5-0.2c0.1-0.1,0.2-0.2,0.3-0.3c0.1-0.1,0.1-0.3,0.1-0.4
		c0-0.2-0.1-0.4-0.2-0.5c-0.1-0.1-0.4-0.2-0.8-0.2h-1.2L52.1,80.4z M52.5,78.1h1c0.5,0,0.8-0.1,1-0.2c0.2-0.1,0.3-0.4,0.3-0.7
		c0-0.1,0-0.3-0.1-0.4c-0.1-0.1-0.1-0.2-0.3-0.2c-0.1,0-0.3-0.1-0.6-0.1h-1L52.5,78.1z"/>
	<path d="M55.7,80.9l1-4.8h0.6l-1,4.8H55.7z"/>
	<path d="M57.4,80.9l0.1-0.7h0.7l-0.1,0.7H57.4z"/>
	<path d="M61.1,79.6l0.6-0.1c0,0.3,0.1,0.6,0.3,0.7c0.2,0.1,0.3,0.2,0.6,0.2c0.3,0,0.5-0.1,0.8-0.3c0.2-0.2,0.3-0.5,0.3-0.7
		c0-0.2-0.1-0.4-0.2-0.6c-0.2-0.2-0.4-0.2-0.6-0.2c0,0-0.1,0-0.2,0l0.1-0.5c0.1,0,0.1,0,0.2,0c0.3,0,0.6-0.1,0.8-0.2
		s0.3-0.4,0.3-0.6c0-0.2-0.1-0.4-0.2-0.6c-0.2-0.2-0.3-0.2-0.6-0.2c-0.2,0-0.4,0.1-0.6,0.2c-0.2,0.2-0.3,0.4-0.3,0.7l-0.6-0.1
		c0.1-0.4,0.3-0.7,0.6-0.9c0.3-0.2,0.6-0.3,1-0.3c0.4,0,0.7,0.1,1,0.4s0.4,0.5,0.4,0.9c0,0.3-0.1,0.5-0.2,0.7
		c-0.1,0.2-0.3,0.3-0.6,0.5c0.2,0.1,0.3,0.2,0.4,0.4c0.1,0.2,0.1,0.3,0.1,0.5c0,0.4-0.2,0.8-0.5,1.1S63.1,81,62.7,81
		c-0.4,0-0.8-0.1-1.1-0.4C61.3,80.4,61.2,80.1,61.1,79.6z"/>
	<path d="M66,78.3c-0.2-0.1-0.3-0.2-0.4-0.4c-0.1-0.2-0.1-0.3-0.1-0.5c0-0.3,0.1-0.6,0.3-0.8c0.3-0.3,0.7-0.5,1.1-0.5
		c0.4,0,0.8,0.1,1,0.3c0.2,0.2,0.4,0.5,0.4,0.8c0,0.2-0.1,0.4-0.2,0.6c-0.1,0.2-0.3,0.3-0.6,0.5c0.2,0.1,0.3,0.2,0.4,0.4
		c0.1,0.2,0.2,0.4,0.2,0.6c0,0.4-0.2,0.8-0.5,1.2c-0.3,0.3-0.7,0.5-1.2,0.5c-0.4,0-0.7-0.1-1-0.4c-0.3-0.3-0.4-0.6-0.4-0.9
		c0-0.4,0.1-0.7,0.3-0.9C65.5,78.5,65.7,78.3,66,78.3z M65.6,79.7c0,0.1,0,0.3,0.1,0.4c0.1,0.1,0.2,0.2,0.3,0.3s0.3,0.1,0.5,0.1
		c0.3,0,0.6-0.2,0.8-0.5c0.2-0.2,0.2-0.5,0.2-0.8c0-0.2-0.1-0.4-0.2-0.5c-0.1-0.1-0.3-0.2-0.6-0.2c-0.3,0-0.6,0.1-0.8,0.3
		S65.6,79.4,65.6,79.7z M66.1,77.4c0,0.2,0.1,0.4,0.2,0.5c0.1,0.1,0.3,0.2,0.5,0.2c0.3,0,0.5-0.1,0.7-0.2c0.2-0.2,0.3-0.4,0.3-0.6
		c0-0.2-0.1-0.4-0.2-0.5c-0.1-0.1-0.3-0.2-0.5-0.2c-0.2,0-0.3,0-0.5,0.1c-0.1,0.1-0.3,0.2-0.3,0.3C66.1,77.1,66.1,77.3,66.1,77.4z"
		/>
</g>
<g class="st0">
	<path d="M68.9,78.7l-0.3-2h0.3l0.2,1.1c0,0.1,0,0.3,0.1,0.6c0.1-0.1,0.2-0.3,0.3-0.5l0.7-1.2h0.4l-1.2,2H68.9z"/>
</g>
<g class="st0">
	<path d="M52.6,136.8l0.8-3.6c-0.3,0.3-0.8,0.5-1.4,0.6l0.1-0.5c0.3-0.1,0.6-0.3,0.9-0.5c0.3-0.2,0.5-0.4,0.7-0.5
		c0.1-0.1,0.2-0.2,0.3-0.3h0.3l-1,4.9H52.6z"/>
</g>
<g class="st0">
	<path d="M51.4,177.3c0.1-0.3,0.1-0.5,0.3-0.7s0.3-0.4,0.4-0.6s0.5-0.5,1-0.9c0.3-0.2,0.5-0.4,0.6-0.6c0.2-0.2,0.3-0.3,0.4-0.5
		c0.1-0.1,0.1-0.2,0.1-0.4c0-0.2-0.1-0.4-0.2-0.6c-0.2-0.2-0.4-0.2-0.6-0.2c-0.2,0-0.4,0.1-0.6,0.2c-0.2,0.2-0.3,0.4-0.4,0.8
		l-0.6-0.1c0.1-0.4,0.2-0.8,0.5-1c0.3-0.2,0.6-0.4,1-0.4c0.3,0,0.5,0.1,0.7,0.2c0.2,0.1,0.4,0.3,0.5,0.5c0.1,0.2,0.2,0.4,0.2,0.6
		c0,0.3-0.1,0.6-0.3,0.9c-0.1,0.2-0.6,0.5-1.2,1.1c-0.3,0.2-0.5,0.4-0.7,0.6c-0.1,0.1-0.3,0.3-0.3,0.4h2.2l-0.1,0.5H51.4z"/>
</g>
<g class="st0">
	<path d="M51.4,216.5l0.6-0.1c0,0.3,0.1,0.6,0.3,0.7c0.2,0.1,0.3,0.2,0.6,0.2c0.3,0,0.5-0.1,0.8-0.3c0.2-0.2,0.3-0.5,0.3-0.7
		c0-0.2-0.1-0.4-0.2-0.6c-0.2-0.2-0.4-0.2-0.6-0.2c0,0-0.1,0-0.2,0l0.1-0.5c0.1,0,0.1,0,0.2,0c0.3,0,0.6-0.1,0.8-0.2
		s0.3-0.4,0.3-0.6c0-0.2-0.1-0.4-0.2-0.6c-0.2-0.2-0.3-0.2-0.6-0.2c-0.2,0-0.4,0.1-0.6,0.2c-0.2,0.2-0.3,0.4-0.3,0.7l-0.6-0.1
		c0.1-0.4,0.3-0.7,0.6-0.9c0.3-0.2,0.6-0.3,1-0.3c0.4,0,0.7,0.1,1,0.4s0.4,0.5,0.4,0.9c0,0.3-0.1,0.5-0.2,0.7
		c-0.1,0.2-0.3,0.3-0.6,0.5c0.2,0.1,0.3,0.2,0.4,0.4c0.1,0.2,0.1,0.3,0.1,0.5c0,0.4-0.2,0.8-0.5,1.1s-0.7,0.5-1.2,0.5
		c-0.4,0-0.8-0.1-1.1-0.4C51.6,217.3,51.4,216.9,51.4,216.5z"/>
</g>
<g class="st0">
	<path d="M53,258.3l0.3-1.2h-2l0.1-0.6l2.7-3h0.5l-0.6,3.1h0.7l-0.1,0.5h-0.7l-0.3,1.2H53z M53.4,256.5l0.4-2l-1.8,2H53.4z"/>
</g>
<path class="st2" d="M84.8,126.7l0.1,134.9"/>
<g class="st0">
	<path d="M136.3,109.6v-0.3c0.5-0.3,0.8-0.5,0.9-0.7c0.1-0.2,0.2-0.5,0.2-0.7c0-0.1,0-0.2-0.1-0.3c-0.1-0.1-0.1-0.1-0.2-0.1
		c0,0-0.1,0-0.2,0.1s-0.2,0.1-0.3,0.1c-0.2,0-0.4-0.1-0.5-0.2s-0.2-0.3-0.2-0.5c0-0.2,0.1-0.4,0.3-0.6s0.4-0.2,0.6-0.2
		c0.3,0,0.6,0.1,0.8,0.4s0.4,0.6,0.4,1c0,0.5-0.2,0.9-0.5,1.3S136.9,109.4,136.3,109.6z M139.6,109.6v-0.3c0.4-0.2,0.7-0.4,0.9-0.7
		c0.2-0.2,0.3-0.5,0.3-0.7c0-0.2,0-0.3-0.1-0.3c0-0.1-0.1-0.1-0.2-0.1c-0.1,0-0.1,0-0.2,0.1c-0.1,0-0.2,0.1-0.3,0.1
		c-0.2,0-0.3-0.1-0.5-0.2s-0.2-0.3-0.2-0.5c0-0.2,0.1-0.4,0.3-0.6s0.4-0.2,0.6-0.2c0.3,0,0.6,0.1,0.8,0.4c0.2,0.3,0.4,0.6,0.4,1
		c0,0.5-0.2,0.9-0.5,1.3C140.6,109.1,140.2,109.4,139.6,109.6z"/>
</g>
<g class="st0">
	<path d="M154.9,98.2v0.3c-0.2,0-0.4,0-0.6,0.1s-0.3,0.2-0.4,0.5c-0.1,0.2-0.2,0.5-0.4,1.1l-2.6,7.5h-0.3l-2.1-5.9l-2.1,5.9h-0.2
		l-2.8-7.7c-0.2-0.6-0.3-0.9-0.4-1c-0.1-0.2-0.2-0.3-0.4-0.4c-0.2-0.1-0.4-0.1-0.6-0.1v-0.3h3.4v0.3h-0.2c-0.2,0-0.4,0.1-0.6,0.2
		s-0.2,0.2-0.2,0.4c0,0.2,0.1,0.5,0.3,1.1l1.8,5.2l1.5-4.4l-0.3-0.8l-0.2-0.6c-0.1-0.2-0.2-0.4-0.3-0.6c-0.1-0.1-0.1-0.2-0.2-0.2
		c-0.1-0.1-0.2-0.1-0.3-0.2c-0.1,0-0.2,0-0.4,0v-0.3h3.6v0.3h-0.2c-0.3,0-0.4,0.1-0.6,0.2S149,98.9,149,99c0,0.2,0.1,0.6,0.3,1.2
		l1.8,5l1.8-5.1c0.2-0.6,0.3-1,0.3-1.2c0-0.1,0-0.2-0.1-0.3s-0.1-0.2-0.2-0.2c-0.2-0.1-0.4-0.1-0.7-0.1v-0.3H154.9z"/>
</g>
<g class="st0">
	<path d="M157,101v5c0,0.4,0,0.7,0.1,0.8c0.1,0.1,0.1,0.2,0.3,0.3s0.3,0.1,0.6,0.1v0.2h-3v-0.2c0.3,0,0.5,0,0.6-0.1s0.2-0.2,0.2-0.3
		s0.1-0.4,0.1-0.8v-2.4c0-0.7,0-1.1-0.1-1.3c0-0.1-0.1-0.2-0.2-0.3c-0.1-0.1-0.2-0.1-0.3-0.1c-0.1,0-0.3,0-0.5,0.1l-0.1-0.2l1.9-0.8
		H157z M156.5,97.7c0.2,0,0.4,0.1,0.5,0.2c0.1,0.1,0.2,0.3,0.2,0.5s-0.1,0.4-0.2,0.5s-0.3,0.2-0.5,0.2s-0.4-0.1-0.5-0.2
		s-0.2-0.3-0.2-0.5s0.1-0.4,0.2-0.5C156.1,97.8,156.3,97.7,156.5,97.7z"/>
	<path d="M159.8,103.5c0,0.9,0.2,1.7,0.7,2.2s1,0.8,1.6,0.8c0.4,0,0.8-0.1,1.1-0.3c0.3-0.2,0.6-0.6,0.8-1.2l0.2,0.1
		c-0.1,0.6-0.4,1.2-0.8,1.7c-0.5,0.5-1,0.8-1.7,0.8c-0.8,0-1.4-0.3-1.9-0.9c-0.5-0.6-0.8-1.4-0.8-2.4c0-1.1,0.3-1.9,0.8-2.5
		c0.5-0.6,1.2-0.9,2.1-0.9c0.7,0,1.3,0.2,1.7,0.7c0.5,0.5,0.7,1.1,0.7,1.9H159.8z M159.8,103.2h2.9c0-0.4-0.1-0.7-0.1-0.8
		c-0.1-0.3-0.3-0.5-0.5-0.6s-0.5-0.2-0.7-0.2c-0.4,0-0.7,0.1-1,0.4C160,102.2,159.9,102.6,159.8,103.2z"/>
	<path d="M170.2,102.3c0.6-0.8,1.3-1.3,2-1.3c0.6,0,1.2,0.3,1.7,0.8c0.5,0.5,0.7,1.3,0.7,2.3c0,1.1-0.4,2-1.1,2.7
		c-0.6,0.6-1.3,0.9-2.1,0.9c-0.4,0-0.7-0.1-1.1-0.2s-0.8-0.3-1.2-0.6v-6.5c0-0.7,0-1.1-0.1-1.3s-0.1-0.3-0.2-0.3s-0.2-0.1-0.3-0.1
		c-0.1,0-0.3,0-0.5,0.1l-0.1-0.2l1.9-0.8h0.3V102.3z M170.2,102.7v3.7c0.2,0.2,0.5,0.4,0.7,0.5c0.2,0.1,0.5,0.2,0.8,0.2
		c0.4,0,0.8-0.2,1.2-0.7s0.5-1.1,0.5-2c0-0.8-0.2-1.4-0.5-1.8c-0.4-0.4-0.8-0.6-1.2-0.6c-0.2,0-0.5,0.1-0.7,0.2
		C170.7,102.2,170.5,102.4,170.2,102.7z"/>
	<path d="M177.6,101v5c0,0.4,0,0.7,0.1,0.8c0.1,0.1,0.1,0.2,0.3,0.3s0.3,0.1,0.6,0.1v0.2h-3v-0.2c0.3,0,0.5,0,0.6-0.1
		s0.2-0.2,0.2-0.3s0.1-0.4,0.1-0.8v-2.4c0-0.7,0-1.1-0.1-1.3c0-0.1-0.1-0.2-0.2-0.3c-0.1-0.1-0.2-0.1-0.3-0.1c-0.1,0-0.3,0-0.5,0.1
		l-0.1-0.2l1.9-0.8H177.6z M177.1,97.7c0.2,0,0.4,0.1,0.5,0.2c0.1,0.1,0.2,0.3,0.2,0.5s-0.1,0.4-0.2,0.5s-0.3,0.2-0.5,0.2
		s-0.4-0.1-0.5-0.2s-0.2-0.3-0.2-0.5s0.1-0.4,0.2-0.5C176.7,97.8,176.9,97.7,177.1,97.7z"/>
	<path d="M181.2,102.3c0.7-0.9,1.4-1.3,2.1-1.3c0.3,0,0.6,0.1,0.9,0.3c0.2,0.2,0.4,0.5,0.6,0.8c0.1,0.3,0.2,0.7,0.2,1.3v2.7
		c0,0.4,0,0.7,0.1,0.8c0.1,0.1,0.1,0.2,0.2,0.3s0.3,0.1,0.6,0.1v0.2h-3.1v-0.2h0.1c0.3,0,0.5,0,0.6-0.1c0.1-0.1,0.2-0.2,0.2-0.4
		c0-0.1,0-0.3,0-0.6v-2.6c0-0.6-0.1-1-0.2-1.2c-0.1-0.3-0.4-0.4-0.7-0.4c-0.5,0-1.1,0.3-1.6,0.9v3.3c0,0.4,0,0.7,0.1,0.8
		c0.1,0.1,0.2,0.2,0.3,0.3c0.1,0.1,0.3,0.1,0.7,0.1v0.2h-3.1v-0.2h0.1c0.3,0,0.5-0.1,0.6-0.2c0.1-0.2,0.2-0.5,0.2-0.9v-2.3
		c0-0.8,0-1.2-0.1-1.4s-0.1-0.3-0.2-0.3s-0.2-0.1-0.3-0.1c-0.1,0-0.3,0-0.5,0.1l-0.1-0.2l1.9-0.8h0.3V102.3z"/>
	<path d="M192,101v5c0,0.4,0,0.7,0.1,0.8c0.1,0.1,0.1,0.2,0.3,0.3s0.3,0.1,0.6,0.1v0.2h-3v-0.2c0.3,0,0.5,0,0.6-0.1s0.2-0.2,0.2-0.3
		s0.1-0.4,0.1-0.8v-2.4c0-0.7,0-1.1-0.1-1.3c0-0.1-0.1-0.2-0.2-0.3c-0.1-0.1-0.2-0.1-0.3-0.1c-0.1,0-0.3,0-0.5,0.1l-0.1-0.2l1.9-0.8
		H192z M191.5,97.7c0.2,0,0.4,0.1,0.5,0.2c0.1,0.1,0.2,0.3,0.2,0.5s-0.1,0.4-0.2,0.5s-0.3,0.2-0.5,0.2s-0.4-0.1-0.5-0.2
		s-0.2-0.3-0.2-0.5s0.1-0.4,0.2-0.5C191.1,97.8,191.3,97.7,191.5,97.7z"/>
	<path d="M199.1,105.1c-0.2,0.8-0.5,1.5-1,1.9c-0.5,0.4-1,0.7-1.6,0.7c-0.7,0-1.3-0.3-1.9-0.9s-0.8-1.4-0.8-2.4c0-1,0.3-1.8,0.9-2.4
		s1.3-0.9,2.1-0.9c0.6,0,1.1,0.2,1.5,0.5c0.4,0.3,0.6,0.7,0.6,1c0,0.2-0.1,0.3-0.2,0.4c-0.1,0.1-0.3,0.2-0.5,0.2
		c-0.3,0-0.5-0.1-0.6-0.3c-0.1-0.1-0.1-0.3-0.2-0.5s-0.1-0.5-0.3-0.6c-0.2-0.1-0.4-0.2-0.7-0.2c-0.5,0-0.8,0.2-1.1,0.5
		c-0.4,0.4-0.6,1-0.6,1.8c0,0.7,0.2,1.4,0.6,2c0.4,0.6,0.9,0.9,1.5,0.9c0.4,0,0.8-0.2,1.2-0.5c0.3-0.2,0.5-0.6,0.7-1.1L199.1,105.1z
		"/>
	<path d="M201.8,97.7v4.6c0.5-0.6,0.9-0.9,1.2-1.1c0.3-0.2,0.6-0.2,0.9-0.2c0.4,0,0.7,0.1,0.9,0.3s0.4,0.5,0.6,0.9
		c0.1,0.3,0.1,0.8,0.1,1.6v2.2c0,0.4,0,0.7,0.1,0.8c0,0.1,0.1,0.2,0.2,0.3s0.3,0.1,0.6,0.1v0.2h-3.1v-0.2h0.1c0.3,0,0.5,0,0.6-0.1
		c0.1-0.1,0.2-0.2,0.2-0.4c0-0.1,0-0.3,0-0.6v-2.2c0-0.7,0-1.1-0.1-1.3s-0.2-0.4-0.3-0.5c-0.2-0.1-0.3-0.2-0.6-0.2
		c-0.2,0-0.5,0.1-0.7,0.2s-0.5,0.4-0.9,0.7v3.3c0,0.4,0,0.7,0.1,0.8s0.1,0.2,0.3,0.3c0.1,0.1,0.4,0.1,0.7,0.1v0.2h-3.1v-0.2
		c0.3,0,0.5,0,0.7-0.1c0.1,0,0.2-0.1,0.2-0.3s0.1-0.4,0.1-0.8v-5.7c0-0.7,0-1.2-0.1-1.3s-0.1-0.3-0.2-0.3s-0.2-0.1-0.3-0.1
		c-0.1,0-0.3,0-0.5,0.1l-0.1-0.2l1.9-0.8H201.8z"/>
	<path d="M212.9,101.7v4.1c0,0.6,0.1,1,0.2,1.1c0.2,0.2,0.4,0.3,0.7,0.3h0.6v0.2h-3.7v-0.2h0.3c0.2,0,0.3,0,0.5-0.1s0.3-0.2,0.3-0.4
		s0.1-0.5,0.1-0.9v-4.1h-1.2v-0.5h1.2v-0.4c0-0.6,0.1-1.2,0.3-1.6s0.5-0.8,0.9-1c0.4-0.3,0.9-0.4,1.4-0.4c0.5,0,0.9,0.2,1.3,0.5
		c0.3,0.2,0.4,0.4,0.4,0.7c0,0.1-0.1,0.3-0.2,0.4c-0.1,0.1-0.2,0.2-0.4,0.2c-0.1,0-0.2,0-0.3-0.1c-0.1-0.1-0.3-0.2-0.4-0.5
		c-0.2-0.2-0.3-0.4-0.5-0.5s-0.3-0.1-0.5-0.1c-0.2,0-0.4,0.1-0.5,0.2c-0.1,0.1-0.3,0.3-0.3,0.5c-0.1,0.2-0.1,0.8-0.1,1.8v0.5h1.6
		v0.5H212.9z"/>
	<path d="M217,101v1.4c0.5-0.9,1.1-1.4,1.6-1.4c0.3,0,0.5,0.1,0.6,0.2c0.2,0.2,0.2,0.3,0.2,0.5c0,0.2-0.1,0.3-0.2,0.5
		s-0.3,0.2-0.4,0.2c-0.2,0-0.3-0.1-0.5-0.2c-0.2-0.2-0.3-0.2-0.4-0.2c-0.1,0-0.2,0-0.3,0.1c-0.2,0.2-0.4,0.5-0.6,0.9v3
		c0,0.3,0,0.6,0.1,0.8c0.1,0.1,0.2,0.2,0.3,0.3s0.4,0.1,0.6,0.1v0.2h-3.2v-0.2c0.3,0,0.6,0,0.7-0.2c0.1-0.1,0.2-0.2,0.2-0.3
		c0-0.1,0-0.3,0-0.7v-2.4c0-0.7,0-1.2,0-1.3c0-0.1-0.1-0.2-0.2-0.3s-0.2-0.1-0.3-0.1c-0.1,0-0.3,0-0.5,0.1l-0.1-0.2l1.9-0.8H217z"/>
	<path d="M222.9,101c0.9,0,1.7,0.4,2.3,1.1c0.5,0.6,0.7,1.3,0.7,2.1c0,0.6-0.1,1.1-0.4,1.7s-0.6,1-1.1,1.3s-1,0.4-1.6,0.4
		c-0.9,0-1.7-0.4-2.2-1.1c-0.5-0.6-0.7-1.3-0.7-2.1c0-0.6,0.1-1.1,0.4-1.7c0.3-0.6,0.7-1,1.1-1.3C221.8,101.1,222.3,101,222.9,101z
		 M222.6,101.4c-0.2,0-0.5,0.1-0.7,0.2c-0.2,0.1-0.4,0.4-0.6,0.8s-0.2,0.8-0.2,1.4c0,0.9,0.2,1.7,0.5,2.4s0.8,1,1.4,1
		c0.4,0,0.8-0.2,1.1-0.5s0.4-1,0.4-1.9c0-1.1-0.2-2-0.7-2.6C223.6,101.7,223.1,101.4,222.6,101.4z"/>
	<path d="M228.6,97.7v4.6c0.5-0.6,0.9-0.9,1.2-1.1c0.3-0.2,0.6-0.2,0.9-0.2c0.4,0,0.7,0.1,0.9,0.3s0.4,0.5,0.6,0.9
		c0.1,0.3,0.1,0.8,0.1,1.6v2.2c0,0.4,0,0.7,0.1,0.8c0,0.1,0.1,0.2,0.2,0.3s0.3,0.1,0.6,0.1v0.2h-3.1v-0.2h0.1c0.3,0,0.5,0,0.6-0.1
		c0.1-0.1,0.2-0.2,0.2-0.4c0-0.1,0-0.3,0-0.6v-2.2c0-0.7,0-1.1-0.1-1.3s-0.2-0.4-0.3-0.5c-0.2-0.1-0.3-0.2-0.6-0.2
		c-0.2,0-0.5,0.1-0.7,0.2s-0.5,0.4-0.9,0.7v3.3c0,0.4,0,0.7,0.1,0.8s0.1,0.2,0.3,0.3c0.1,0.1,0.4,0.1,0.7,0.1v0.2h-3.1v-0.2
		c0.3,0,0.5,0,0.7-0.1c0.1,0,0.2-0.1,0.2-0.3s0.1-0.4,0.1-0.8v-5.7c0-0.7,0-1.2-0.1-1.3s-0.1-0.3-0.2-0.3s-0.2-0.1-0.3-0.1
		c-0.1,0-0.3,0-0.5,0.1l-0.1-0.2l1.9-0.8H228.6z"/>
	<path d="M235.8,105h-0.3l-0.6-5.5c0-0.2,0-0.4,0-0.5c0-0.3,0.1-0.5,0.2-0.7s0.3-0.3,0.6-0.3s0.4,0.1,0.5,0.3s0.2,0.4,0.2,0.8
		c0,0.1,0,0.3,0,0.5L235.8,105z M235.7,106.1c0.2,0,0.4,0.1,0.5,0.2c0.1,0.1,0.2,0.3,0.2,0.5c0,0.2-0.1,0.4-0.2,0.5
		c-0.1,0.1-0.3,0.2-0.5,0.2s-0.4-0.1-0.5-0.2c-0.1-0.1-0.2-0.3-0.2-0.5c0-0.2,0.1-0.4,0.2-0.5C235.3,106.2,235.5,106.1,235.7,106.1z
		"/>
	<path d="M240.2,101.5c-0.5-0.2-1-0.5-1.3-0.9s-0.5-0.8-0.5-1.3c0-0.4,0.1-0.7,0.4-1s0.5-0.4,0.8-0.4c0.2,0,0.4,0.1,0.6,0.2
		s0.3,0.3,0.3,0.6c0,0.2-0.1,0.4-0.2,0.5c-0.2,0.1-0.3,0.2-0.5,0.2c-0.1,0-0.2,0-0.3-0.1c-0.1,0-0.1,0-0.2,0c-0.2,0-0.3,0.1-0.3,0.4
		c0,0.3,0.1,0.6,0.3,0.8s0.5,0.4,0.8,0.6V101.5z M243.5,101.5c-0.5-0.2-1-0.5-1.3-0.9s-0.5-0.8-0.5-1.3c0-0.4,0.1-0.7,0.4-1
		s0.5-0.4,0.8-0.4c0.2,0,0.4,0.1,0.6,0.2s0.3,0.3,0.3,0.6c0,0.2-0.1,0.4-0.2,0.5c-0.2,0.1-0.3,0.2-0.5,0.2c-0.1,0-0.2,0-0.3-0.1
		c-0.1,0-0.1,0-0.2,0c-0.2,0-0.3,0.1-0.3,0.4c0,0.3,0.1,0.6,0.3,0.8s0.5,0.4,0.8,0.6V101.5z"/>
</g>
<rect x="359" y="117.9" class="st3" width="164" height="30.2"/>
<rect x="359" y="117.9" class="st4" width="175.2" height="30.2"/>
<g class="st0">
	<path d="M51.9,47.2v-8.6h2.6l1.6,5.9l1.5-5.9h2.6v8.6h-1.6v-6.8l-1.7,6.8h-1.7l-1.7-6.8v6.8H51.9z"/>
	<path d="M64.8,45l1.6-0.2c0.1,0.4,0.2,0.7,0.4,0.9s0.5,0.3,0.8,0.3c0.3,0,0.6-0.1,0.9-0.4s0.3-0.6,0.3-1c0-0.4-0.1-0.7-0.3-1
		s-0.5-0.4-0.8-0.4c-0.2,0-0.5,0-0.8,0.1l0.2-1.3c0.4,0,0.8-0.1,1-0.3s0.4-0.5,0.4-0.8c0-0.3-0.1-0.5-0.3-0.7S67.8,40,67.5,40
		c-0.3,0-0.5,0.1-0.7,0.3s-0.3,0.5-0.4,0.9l-1.5-0.3c0.1-0.5,0.3-0.9,0.5-1.2s0.5-0.6,0.9-0.7s0.8-0.3,1.3-0.3
		c0.8,0,1.5,0.3,1.9,0.8c0.4,0.4,0.6,0.9,0.6,1.4c0,0.8-0.4,1.4-1.2,1.8c0.5,0.1,0.9,0.3,1.2,0.7s0.4,0.8,0.4,1.3
		c0,0.8-0.3,1.4-0.8,1.9s-1.2,0.8-2.1,0.8c-0.8,0-1.4-0.2-1.9-0.7S64.9,45.7,64.8,45z"/>
	<path d="M75.7,47.2h-1.6V41c-0.6,0.6-1.3,1-2.1,1.2v-1.5c0.4-0.1,0.9-0.4,1.4-0.8s0.8-0.9,1-1.4h1.3V47.2z"/>
	<path d="M78.2,40.3v-1.5h5.6V40c-0.5,0.5-0.9,1.1-1.4,2s-0.8,1.8-1.1,2.7s-0.4,1.8-0.4,2.6h-1.6c0-1.2,0.3-2.4,0.7-3.6
		s1.1-2.3,1.9-3.3H78.2z"/>
	<path d="M88.1,44.4l1.7-0.2c0.1,0.6,0.3,1,0.6,1.2s0.7,0.4,1.3,0.4c0.6,0,1-0.1,1.3-0.4s0.4-0.5,0.4-0.8c0-0.2-0.1-0.4-0.2-0.5
		s-0.3-0.3-0.6-0.4c-0.2-0.1-0.7-0.2-1.4-0.4c-0.9-0.2-1.6-0.5-2-0.8c-0.5-0.5-0.8-1-0.8-1.7c0-0.4,0.1-0.8,0.4-1.2s0.6-0.7,1.1-0.9
		s1-0.3,1.7-0.3c1.1,0,1.9,0.2,2.4,0.7s0.8,1.1,0.9,1.9l-1.7,0.1c-0.1-0.4-0.2-0.8-0.5-1s-0.6-0.3-1.1-0.3c-0.5,0-0.9,0.1-1.2,0.3
		c-0.2,0.1-0.3,0.3-0.3,0.5c0,0.2,0.1,0.4,0.3,0.5c0.2,0.2,0.8,0.4,1.6,0.6s1.5,0.4,1.9,0.6s0.7,0.5,0.9,0.9s0.3,0.8,0.3,1.4
		c0,0.5-0.1,1-0.4,1.4s-0.7,0.7-1.2,1s-1.1,0.3-1.9,0.3c-1.1,0-1.9-0.3-2.5-0.8S88.3,45.4,88.1,44.4z"/>
	<path d="M96.5,47.2v-8.6h1.6v4.6l1.9-2.2h2l-2.1,2.3l2.3,3.9h-1.8l-1.6-2.8l-0.8,0.8v2H96.5z"/>
	<path d="M102.8,45l1.6-0.2c0.1,0.4,0.2,0.7,0.4,0.9s0.5,0.3,0.8,0.3c0.3,0,0.6-0.1,0.9-0.4s0.3-0.6,0.3-1c0-0.4-0.1-0.7-0.3-1
		s-0.5-0.4-0.8-0.4c-0.2,0-0.5,0-0.8,0.1l0.2-1.3c0.4,0,0.8-0.1,1-0.3s0.4-0.5,0.4-0.8c0-0.3-0.1-0.5-0.3-0.7s-0.4-0.3-0.7-0.3
		c-0.3,0-0.5,0.1-0.7,0.3s-0.3,0.5-0.4,0.9l-1.5-0.3c0.1-0.5,0.3-0.9,0.5-1.2s0.5-0.6,0.9-0.7s0.8-0.3,1.3-0.3
		c0.8,0,1.5,0.3,1.9,0.8c0.4,0.4,0.6,0.9,0.6,1.4c0,0.8-0.4,1.4-1.2,1.8c0.5,0.1,0.9,0.3,1.2,0.7s0.4,0.8,0.4,1.3
		c0,0.8-0.3,1.4-0.8,1.9s-1.2,0.8-2.1,0.8c-0.8,0-1.4-0.2-1.9-0.7S102.9,45.7,102.8,45z"/>
	<path d="M109.9,47.2v-1.6h1.6v1.6H109.9z"/>
	<path d="M117.1,47.2h-1.6V41c-0.6,0.6-1.3,1-2.1,1.2v-1.5c0.4-0.1,0.9-0.4,1.4-0.8s0.8-0.9,1-1.4h1.3V47.2z"/>
</g>
<rect x="807" y="117.9" class="st4" width="126.6" height="30.2"/>
<polygon class="st4" points="538.5,117.9 538.5,148.1 708.5,148.1 708.5,231.4 803.5,231.4 803.5,190.4 933.6,190.4 933.6,159.4 
	804.5,159.4 804.5,117.9 "/>
<rect x="552.7" y="159.5" class="st4" width="141.3" height="30.2"/>
<g class="st0">
	<path d="M104.5,171.9c0,0.3-0.1,0.6-0.3,0.9c-0.2,0.3-0.4,0.5-0.7,0.6s-0.6,0.3-0.9,0.4s-0.6,0.1-0.8,0.1c-0.3,0-0.7,0-1-0.1
		c-0.3-0.1-0.5-0.2-0.8-0.4c-0.2-0.2-0.4-0.3-0.5-0.6c-0.1-0.2-0.2-0.5-0.2-0.7c0-0.1,0-0.2,0.1-0.4c0.1-0.1,0.1-0.2,0.2-0.3
		c0.1-0.1,0.2-0.2,0.3-0.2c0.1-0.1,0.2-0.1,0.4-0.1c0.3,0,0.5,0.1,0.7,0.2c0.2,0.1,0.3,0.4,0.3,0.6c0,0.2,0,0.3-0.1,0.4
		c-0.1,0.1-0.1,0.2-0.2,0.3c-0.1,0.1-0.1,0.2-0.2,0.2c0,0.1-0.1,0.2-0.1,0.3c0,0,0,0.1,0.1,0.1c0,0,0.1,0.1,0.2,0.1
		c0.1,0,0.1,0.1,0.2,0.1s0.1,0,0.1,0c0.2,0,0.4-0.1,0.6-0.2c0.2-0.1,0.3-0.3,0.4-0.4c0.1-0.2,0.2-0.4,0.2-0.5
		c0.1-0.2,0.1-0.4,0.1-0.5c0-0.3-0.1-0.5-0.2-0.7c-0.1-0.1-0.3-0.3-0.5-0.3s-0.4-0.1-0.6-0.1c-0.2,0-0.5-0.1-0.7-0.1c0,0,0,0,0-0.1
		c0,0,0-0.1,0-0.1c0,0,0-0.1,0-0.2c0.2,0,0.4-0.1,0.6-0.1s0.4-0.1,0.6-0.2c0.2-0.1,0.3-0.2,0.4-0.4c0.1-0.2,0.1-0.4,0.1-0.6
		c0-0.4-0.1-0.6-0.2-0.8c-0.1-0.2-0.3-0.3-0.4-0.4c-0.2-0.1-0.3-0.1-0.4-0.1c-0.1,0-0.2,0-0.3,0c0,0-0.1,0-0.1,0s-0.1,0-0.1,0.1
		s-0.1,0.1-0.1,0.1c0,0,0,0.1,0,0.1c0,0.1,0,0.1,0.1,0.2c0,0.1,0.1,0.1,0.2,0.2c0.1,0.1,0.1,0.1,0.2,0.2c0.1,0.1,0.1,0.2,0.2,0.3
		c0,0.1,0,0.3,0,0.4c0,0.1-0.1,0.2-0.2,0.4s-0.2,0.2-0.3,0.2c-0.1,0.1-0.3,0.1-0.4,0.1c-0.2,0-0.3,0-0.4-0.1
		c-0.1-0.1-0.2-0.2-0.3-0.3s-0.2-0.2-0.2-0.3c-0.1-0.1-0.1-0.2-0.1-0.3c0-0.2,0-0.4,0.1-0.6c0.1-0.2,0.2-0.4,0.4-0.6
		s0.5-0.3,0.8-0.4c0.3-0.1,0.8-0.2,1.3-0.2c0.2,0,0.5,0,0.7,0.1s0.4,0.2,0.6,0.3c0.2,0.1,0.3,0.3,0.4,0.5c0.1,0.2,0.2,0.4,0.2,0.7
		c0,0.3-0.1,0.6-0.2,0.8c-0.2,0.2-0.3,0.3-0.5,0.4c-0.2,0.1-0.4,0.2-0.5,0.2s-0.2,0.1-0.2,0.1c0.2,0,0.4,0.1,0.6,0.1
		c0.2,0.1,0.4,0.1,0.6,0.2c0.2,0.1,0.3,0.2,0.4,0.4C104.5,171.4,104.5,171.7,104.5,171.9z"/>
</g>
<g class="st0">
	<path d="M103.4,178.8v0.9c0,0.1,0,0.2,0.1,0.3s0.1,0.1,0.2,0.2c0.1,0,0.2,0.1,0.3,0.1v0.4h-2.9v-0.4c0.1,0,0.2,0,0.3-0.1
		c0.1,0,0.2-0.1,0.2-0.1c0.1-0.1,0.1-0.2,0.1-0.3v-0.9h-2.5l-0.2-0.3c0.3-0.4,0.5-0.7,0.7-1s0.3-0.5,0.5-0.8
		c0.1-0.2,0.2-0.5,0.3-0.7c0.1-0.2,0.2-0.4,0.2-0.6s0.1-0.5,0.2-0.7c0-0.3,0.1-0.6,0.2-0.9h2.3c-0.1,0.3-0.3,0.6-0.6,0.9
		c-0.3,0.4-0.6,0.7-1,1.1s-0.7,0.8-1.1,1.2c-0.4,0.4-0.7,0.8-1.1,1.2h2.1v-1.7l1.6-1.8v3.5h1v0.4H103.4z"/>
</g>
<rect x="170.3" y="199.4" class="st4" width="368.2" height="30.2"/>
<rect x="112.8" y="239.9" class="st4" width="199" height="30.2"/>
<rect x="669" y="239.9" class="st4" width="40.2" height="30.2"/>
<g class="st0">
	<path d="M441.4,134l1.7-0.2c0.1,0.6,0.3,1,0.6,1.2s0.7,0.4,1.3,0.4c0.6,0,1-0.1,1.3-0.4s0.4-0.5,0.4-0.8c0-0.2-0.1-0.4-0.2-0.5
		s-0.3-0.3-0.6-0.4c-0.2-0.1-0.7-0.2-1.4-0.4c-0.9-0.2-1.6-0.5-2-0.8c-0.5-0.5-0.8-1-0.8-1.7c0-0.4,0.1-0.8,0.4-1.2s0.6-0.7,1.1-0.9
		s1-0.3,1.7-0.3c1.1,0,1.9,0.2,2.4,0.7s0.8,1.1,0.9,1.9l-1.7,0.1c-0.1-0.4-0.2-0.8-0.5-1s-0.6-0.3-1.1-0.3c-0.5,0-0.9,0.1-1.2,0.3
		c-0.2,0.1-0.3,0.3-0.3,0.5c0,0.2,0.1,0.4,0.3,0.5c0.2,0.2,0.8,0.4,1.6,0.6s1.5,0.4,1.9,0.6s0.7,0.5,0.9,0.9s0.3,0.8,0.3,1.4
		c0,0.5-0.1,1-0.4,1.4s-0.7,0.7-1.2,1s-1.1,0.3-1.9,0.3c-1.1,0-1.9-0.3-2.5-0.8S441.6,135,441.4,134z"/>
	<path d="M449.8,136.8v-8.6h1.6v4.6l1.9-2.2h2l-2.1,2.3l2.3,3.9h-1.8l-1.6-2.8l-0.8,0.8v2H449.8z"/>
	<path d="M460.4,136.8h-1.6v-6.2c-0.6,0.6-1.3,1-2.1,1.2v-1.5c0.4-0.1,0.9-0.4,1.4-0.8s0.8-0.9,1-1.4h1.3V136.8z"/>
</g>
<g class="st0">
	<path d="M746.4,174.5l1.7-0.2c0.1,0.6,0.3,1,0.6,1.2s0.7,0.4,1.3,0.4c0.6,0,1-0.1,1.3-0.4s0.4-0.5,0.4-0.8c0-0.2-0.1-0.4-0.2-0.5
		s-0.3-0.3-0.6-0.4c-0.2-0.1-0.7-0.2-1.4-0.4c-0.9-0.2-1.6-0.5-2-0.8c-0.5-0.5-0.8-1-0.8-1.7c0-0.4,0.1-0.8,0.4-1.2s0.6-0.7,1.1-0.9
		s1-0.3,1.7-0.3c1.1,0,1.9,0.2,2.4,0.7s0.8,1.1,0.9,1.9l-1.7,0.1c-0.1-0.4-0.2-0.8-0.5-1s-0.6-0.3-1.1-0.3c-0.5,0-0.9,0.1-1.2,0.3
		c-0.2,0.1-0.3,0.3-0.3,0.5c0,0.2,0.1,0.4,0.3,0.5c0.2,0.2,0.8,0.4,1.6,0.6s1.5,0.4,1.9,0.6s0.7,0.5,0.9,0.9s0.3,0.8,0.3,1.4
		c0,0.5-0.1,1-0.4,1.4s-0.7,0.7-1.2,1s-1.1,0.3-1.9,0.3c-1.1,0-1.9-0.3-2.5-0.8S746.5,175.5,746.4,174.5z"/>
	<path d="M754.8,177.3v-8.6h1.6v4.6l1.9-2.2h2l-2.1,2.3l2.3,3.9h-1.8l-1.6-2.8l-0.8,0.8v2H754.8z"/>
	<path d="M766.7,175.8v1.5H761c0.1-0.6,0.2-1.1,0.6-1.6s0.9-1.2,1.9-2.1c0.7-0.7,1.2-1.2,1.4-1.4c0.2-0.3,0.3-0.7,0.3-1
		c0-0.4-0.1-0.6-0.3-0.8s-0.5-0.3-0.8-0.3c-0.3,0-0.6,0.1-0.8,0.3s-0.3,0.6-0.4,1l-1.6-0.2c0.1-0.9,0.4-1.6,0.9-2s1.2-0.6,1.9-0.6
		c0.8,0,1.5,0.2,2,0.7s0.7,1,0.7,1.7c0,0.4-0.1,0.8-0.2,1.1s-0.4,0.7-0.7,1.1c-0.2,0.3-0.6,0.6-1.1,1.1s-0.8,0.8-1,0.9
		s-0.3,0.3-0.3,0.5H766.7z"/>
	<path d="M768.2,177.3v-1.6h1.6v1.6H768.2z"/>
	<path d="M775.4,177.3h-1.6v-6.2c-0.6,0.6-1.3,1-2.1,1.2v-1.5c0.4-0.1,0.9-0.4,1.4-0.8s0.8-0.9,1-1.4h1.3V177.3z"/>
</g>
<g class="st0">
	<path d="M851.8,134l1.7-0.2c0.1,0.6,0.3,1,0.6,1.2s0.7,0.4,1.3,0.4c0.6,0,1-0.1,1.3-0.4s0.4-0.5,0.4-0.8c0-0.2-0.1-0.4-0.2-0.5
		s-0.3-0.3-0.6-0.4c-0.2-0.1-0.7-0.2-1.4-0.4c-0.9-0.2-1.6-0.5-2-0.8c-0.5-0.5-0.8-1-0.8-1.7c0-0.4,0.1-0.8,0.4-1.2s0.6-0.7,1.1-0.9
		s1-0.3,1.7-0.3c1.1,0,1.9,0.2,2.4,0.7s0.8,1.1,0.9,1.9l-1.7,0.1c-0.1-0.4-0.2-0.8-0.5-1s-0.6-0.3-1.1-0.3c-0.5,0-0.9,0.1-1.2,0.3
		c-0.2,0.1-0.3,0.3-0.3,0.5c0,0.2,0.1,0.4,0.3,0.5c0.2,0.2,0.8,0.4,1.6,0.6s1.5,0.4,1.9,0.6s0.7,0.5,0.9,0.9s0.3,0.8,0.3,1.4
		c0,0.5-0.1,1-0.4,1.4s-0.7,0.7-1.2,1s-1.1,0.3-1.9,0.3c-1.1,0-1.9-0.3-2.5-0.8S851.9,135,851.8,134z"/>
	<path d="M860.1,136.8v-8.6h1.6v4.6l1.9-2.2h2l-2.1,2.3l2.3,3.9h-1.8l-1.6-2.8l-0.8,0.8v2H860.1z"/>
	<path d="M872.1,135.3v1.5h-5.8c0.1-0.6,0.2-1.1,0.6-1.6s0.9-1.2,1.9-2.1c0.7-0.7,1.2-1.2,1.4-1.4c0.2-0.3,0.3-0.7,0.3-1
		c0-0.4-0.1-0.6-0.3-0.8s-0.5-0.3-0.8-0.3c-0.3,0-0.6,0.1-0.8,0.3s-0.3,0.6-0.4,1l-1.6-0.2c0.1-0.9,0.4-1.6,0.9-2s1.2-0.6,1.9-0.6
		c0.8,0,1.5,0.2,2,0.7s0.7,1,0.7,1.7c0,0.4-0.1,0.8-0.2,1.1s-0.4,0.7-0.7,1.1c-0.2,0.3-0.6,0.6-1.1,1.1s-0.8,0.8-1,0.9
		s-0.3,0.3-0.3,0.5H872.1z"/>
	<path d="M873.5,136.8v-1.6h1.6v1.6H873.5z"/>
	<path d="M880.7,136.8h-1.6v-6.2c-0.6,0.6-1.3,1-2.1,1.2v-1.5c0.4-0.1,0.9-0.4,1.4-0.8s0.8-0.9,1-1.4h1.3V136.8z"/>
	<path d="M883.6,136.8v-1.6h1.6v1.6H883.6z"/>
	<path d="M890.7,136.8h-1.6v-6.2c-0.6,0.6-1.3,1-2.1,1.2v-1.5c0.4-0.1,0.9-0.4,1.4-0.8s0.8-0.9,1-1.4h1.3V136.8z"/>
</g>
<g class="st0">
	<path d="M603.4,174.5l1.7-0.2c0.1,0.6,0.3,1,0.6,1.2s0.7,0.4,1.3,0.4c0.6,0,1-0.1,1.3-0.4s0.4-0.5,0.4-0.8c0-0.2-0.1-0.4-0.2-0.5
		s-0.3-0.3-0.6-0.4c-0.2-0.1-0.7-0.2-1.4-0.4c-0.9-0.2-1.6-0.5-2-0.8c-0.5-0.5-0.8-1-0.8-1.7c0-0.4,0.1-0.8,0.4-1.2s0.6-0.7,1.1-0.9
		s1-0.3,1.7-0.3c1.1,0,1.9,0.2,2.4,0.7s0.8,1.1,0.9,1.9l-1.7,0.1c-0.1-0.4-0.2-0.8-0.5-1s-0.6-0.3-1.1-0.3c-0.5,0-0.9,0.1-1.2,0.3
		c-0.2,0.1-0.3,0.3-0.3,0.5c0,0.2,0.1,0.4,0.3,0.5c0.2,0.2,0.8,0.4,1.6,0.6s1.5,0.4,1.9,0.6s0.7,0.5,0.9,0.9s0.3,0.8,0.3,1.4
		c0,0.5-0.1,1-0.4,1.4s-0.7,0.7-1.2,1s-1.1,0.3-1.9,0.3c-1.1,0-1.9-0.3-2.5-0.8S603.5,175.5,603.4,174.5z"/>
	<path d="M611.8,177.3v-8.6h1.6v4.6l1.9-2.2h2l-2.1,2.3l2.3,3.9h-1.8l-1.6-2.8l-0.8,0.8v2H611.8z"/>
	<path d="M623.7,175.8v1.5H618c0.1-0.6,0.2-1.1,0.6-1.6s0.9-1.2,1.9-2.1c0.7-0.7,1.2-1.2,1.4-1.4c0.2-0.3,0.3-0.7,0.3-1
		c0-0.4-0.1-0.6-0.3-0.8s-0.5-0.3-0.8-0.3c-0.3,0-0.6,0.1-0.8,0.3s-0.3,0.6-0.4,1l-1.6-0.2c0.1-0.9,0.4-1.6,0.9-2s1.2-0.6,1.9-0.6
		c0.8,0,1.5,0.2,2,0.7s0.7,1,0.7,1.7c0,0.4-0.1,0.8-0.2,1.1s-0.4,0.7-0.7,1.1c-0.2,0.3-0.6,0.6-1.1,1.1s-0.8,0.8-1,0.9
		s-0.3,0.3-0.3,0.5H623.7z"/>
	<path d="M625.2,177.3v-1.6h1.6v1.6H625.2z"/>
	<path d="M632.4,177.3h-1.6v-6.2c-0.6,0.6-1.3,1-2.1,1.2v-1.5c0.4-0.1,0.9-0.4,1.4-0.8s0.8-0.9,1-1.4h1.3V177.3z"/>
	<path d="M635.2,177.3v-1.6h1.6v1.6H635.2z"/>
	<path d="M643.8,175.8v1.5H638c0.1-0.6,0.2-1.1,0.6-1.6s0.9-1.2,1.9-2.1c0.7-0.7,1.2-1.2,1.4-1.4c0.2-0.3,0.3-0.7,0.3-1
		c0-0.4-0.1-0.6-0.3-0.8s-0.5-0.3-0.8-0.3c-0.3,0-0.6,0.1-0.8,0.3s-0.3,0.6-0.4,1l-1.6-0.2c0.1-0.9,0.4-1.6,0.9-2s1.2-0.6,1.9-0.6
		c0.8,0,1.5,0.2,2,0.7s0.7,1,0.7,1.7c0,0.4-0.1,0.8-0.2,1.1s-0.4,0.7-0.7,1.1c-0.2,0.3-0.6,0.6-1.1,1.1s-0.8,0.8-1,0.9
		s-0.3,0.3-0.3,0.5H643.8z"/>
</g>
<g class="st0">
	<path d="M670.8,248.8l1.7-0.2c0.1,0.6,0.3,1,0.6,1.2s0.7,0.4,1.3,0.4c0.6,0,1-0.1,1.3-0.4s0.4-0.5,0.4-0.8c0-0.2-0.1-0.4-0.2-0.5
		s-0.3-0.3-0.6-0.4c-0.2-0.1-0.7-0.2-1.4-0.4c-0.9-0.2-1.6-0.5-2-0.8c-0.5-0.5-0.8-1-0.8-1.7c0-0.4,0.1-0.8,0.4-1.2s0.6-0.7,1.1-0.9
		s1-0.3,1.7-0.3c1.1,0,1.9,0.2,2.4,0.7s0.8,1.1,0.9,1.9l-1.7,0.1c-0.1-0.4-0.2-0.8-0.5-1s-0.6-0.3-1.1-0.3c-0.5,0-0.9,0.1-1.2,0.3
		c-0.2,0.1-0.3,0.3-0.3,0.5c0,0.2,0.1,0.4,0.3,0.5c0.2,0.2,0.8,0.4,1.6,0.6s1.5,0.4,1.9,0.6s0.7,0.5,0.9,0.9s0.3,0.8,0.3,1.4
		c0,0.5-0.1,1-0.4,1.4s-0.7,0.7-1.2,1s-1.1,0.3-1.9,0.3c-1.1,0-1.9-0.3-2.5-0.8S670.9,249.8,670.8,248.8z"/>
	<path d="M679.1,251.6V243h1.6v4.6l1.9-2.2h2l-2.1,2.3l2.3,3.9h-1.8l-1.6-2.8l-0.8,0.8v2H679.1z"/>
	<path d="M691.1,250.1v1.5h-5.8c0.1-0.6,0.2-1.1,0.6-1.6s0.9-1.2,1.9-2.1c0.7-0.7,1.2-1.2,1.4-1.4c0.2-0.3,0.3-0.7,0.3-1
		c0-0.4-0.1-0.6-0.3-0.8s-0.5-0.3-0.8-0.3c-0.3,0-0.6,0.1-0.8,0.3s-0.3,0.6-0.4,1l-1.6-0.2c0.1-0.9,0.4-1.6,0.9-2s1.2-0.6,1.9-0.6
		c0.8,0,1.5,0.2,2,0.7s0.7,1,0.7,1.7c0,0.4-0.1,0.8-0.2,1.1s-0.4,0.7-0.7,1.1c-0.2,0.3-0.6,0.6-1.1,1.1s-0.8,0.8-1,0.9
		s-0.3,0.3-0.3,0.5H691.1z"/>
	<path d="M692.5,251.6v-1.6h1.6v1.6H692.5z"/>
	<path d="M699.7,251.6h-1.6v-6.2c-0.6,0.6-1.3,1-2.1,1.2v-1.5c0.4-0.1,0.9-0.4,1.4-0.8s0.8-0.9,1-1.4h1.3V251.6z"/>
	<path d="M702.6,251.6v-1.6h1.6v1.6H702.6z"/>
</g>
<g class="st0">
	<path d="M676.4,264.5v1.5h-5.8c0.1-0.6,0.2-1.1,0.6-1.6s0.9-1.2,1.9-2.1c0.7-0.7,1.2-1.2,1.4-1.4c0.2-0.3,0.3-0.7,0.3-1
		c0-0.4-0.1-0.6-0.3-0.8s-0.5-0.3-0.8-0.3c-0.3,0-0.6,0.1-0.8,0.3s-0.3,0.6-0.4,1l-1.6-0.2c0.1-0.9,0.4-1.6,0.9-2s1.2-0.6,1.9-0.6
		c0.8,0,1.5,0.2,2,0.7s0.7,1,0.7,1.7c0,0.4-0.1,0.8-0.2,1.1s-0.4,0.7-0.7,1.1c-0.2,0.3-0.6,0.6-1.1,1.1s-0.8,0.8-1,0.9
		s-0.3,0.3-0.3,0.5H676.4z"/>
	<path d="M677.9,266v-1.6h1.6v1.6H677.9z"/>
	<path d="M685.1,266h-1.6v-6.2c-0.6,0.6-1.3,1-2.1,1.2v-1.5c0.4-0.1,0.9-0.4,1.4-0.8s0.8-0.9,1-1.4h1.3V266z"/>
</g>
<g class="st0">
	<path d="M352.4,215l1.7-0.2c0.1,0.6,0.3,1,0.6,1.2s0.7,0.4,1.3,0.4c0.6,0,1-0.1,1.3-0.4s0.4-0.5,0.4-0.8c0-0.2-0.1-0.4-0.2-0.5
		s-0.3-0.3-0.6-0.4c-0.2-0.1-0.7-0.2-1.4-0.4c-0.9-0.2-1.6-0.5-2-0.8c-0.5-0.5-0.8-1-0.8-1.7c0-0.4,0.1-0.8,0.4-1.2s0.6-0.7,1.1-0.9
		s1-0.3,1.7-0.3c1.1,0,1.9,0.2,2.4,0.7s0.8,1.1,0.9,1.9l-1.7,0.1c-0.1-0.4-0.2-0.8-0.5-1s-0.6-0.3-1.1-0.3c-0.5,0-0.9,0.1-1.2,0.3
		c-0.2,0.1-0.3,0.3-0.3,0.5c0,0.2,0.1,0.4,0.3,0.5c0.2,0.2,0.8,0.4,1.6,0.6s1.5,0.4,1.9,0.6s0.7,0.5,0.9,0.9s0.3,0.8,0.3,1.4
		c0,0.5-0.1,1-0.4,1.4s-0.7,0.7-1.2,1s-1.1,0.3-1.9,0.3c-1.1,0-1.9-0.3-2.5-0.8S352.5,216,352.4,215z"/>
	<path d="M360.8,217.8v-8.6h1.6v4.6l1.9-2.2h2l-2.1,2.3l2.3,3.9h-1.8l-1.6-2.8l-0.8,0.8v2H360.8z"/>
	<path d="M367.1,215.6l1.6-0.2c0.1,0.4,0.2,0.7,0.4,0.9s0.5,0.3,0.8,0.3c0.3,0,0.6-0.1,0.9-0.4s0.3-0.6,0.3-1c0-0.4-0.1-0.7-0.3-1
		s-0.5-0.4-0.8-0.4c-0.2,0-0.5,0-0.8,0.1l0.2-1.3c0.4,0,0.8-0.1,1-0.3s0.4-0.5,0.4-0.8c0-0.3-0.1-0.5-0.3-0.7s-0.4-0.3-0.7-0.3
		c-0.3,0-0.5,0.1-0.7,0.3s-0.3,0.5-0.4,0.9l-1.5-0.3c0.1-0.5,0.3-0.9,0.5-1.2s0.5-0.6,0.9-0.7s0.8-0.3,1.3-0.3
		c0.8,0,1.5,0.3,1.9,0.8c0.4,0.4,0.6,0.9,0.6,1.4c0,0.8-0.4,1.4-1.2,1.8c0.5,0.1,0.9,0.3,1.2,0.7s0.4,0.8,0.4,1.3
		c0,0.8-0.3,1.4-0.8,1.9s-1.2,0.8-2.1,0.8c-0.8,0-1.4-0.2-1.9-0.7S367.2,216.3,367.1,215.6z"/>
</g>
<g class="st0">
	<path d="M190.1,257.2l1.7-0.2c0.1,0.6,0.3,1,0.6,1.2s0.7,0.4,1.3,0.4c0.6,0,1-0.1,1.3-0.4s0.4-0.5,0.4-0.8c0-0.2-0.1-0.4-0.2-0.5
		s-0.3-0.3-0.6-0.4c-0.2-0.1-0.7-0.2-1.4-0.4c-0.9-0.2-1.6-0.5-2-0.8c-0.5-0.5-0.8-1-0.8-1.7c0-0.4,0.1-0.8,0.4-1.2s0.6-0.7,1.1-0.9
		s1-0.3,1.7-0.3c1.1,0,1.9,0.2,2.4,0.7s0.8,1.1,0.9,1.9l-1.7,0.1c-0.1-0.4-0.2-0.8-0.5-1s-0.6-0.3-1.1-0.3c-0.5,0-0.9,0.1-1.2,0.3
		c-0.2,0.1-0.3,0.3-0.3,0.5c0,0.2,0.1,0.4,0.3,0.5c0.2,0.2,0.8,0.4,1.6,0.6s1.5,0.4,1.9,0.6s0.7,0.5,0.9,0.9s0.3,0.8,0.3,1.4
		c0,0.5-0.1,1-0.4,1.4s-0.7,0.7-1.2,1s-1.1,0.3-1.9,0.3c-1.1,0-1.9-0.3-2.5-0.8S190.2,258.2,190.1,257.2z"/>
	<path d="M198.5,260v-8.6h1.6v4.6l1.9-2.2h2l-2.1,2.3l2.3,3.9h-1.8l-1.6-2.8l-0.8,0.8v2H198.5z"/>
	<path d="M204.8,257.8l1.6-0.2c0.1,0.4,0.2,0.7,0.4,0.9s0.5,0.3,0.8,0.3c0.3,0,0.6-0.1,0.9-0.4s0.3-0.6,0.3-1c0-0.4-0.1-0.7-0.3-1
		s-0.5-0.4-0.8-0.4c-0.2,0-0.5,0-0.8,0.1l0.2-1.3c0.4,0,0.8-0.1,1-0.3s0.4-0.5,0.4-0.8c0-0.3-0.1-0.5-0.3-0.7s-0.4-0.3-0.7-0.3
		c-0.3,0-0.5,0.1-0.7,0.3s-0.3,0.5-0.4,0.9l-1.5-0.3c0.1-0.5,0.3-0.9,0.5-1.2s0.5-0.6,0.9-0.7s0.8-0.3,1.3-0.3
		c0.8,0,1.5,0.3,1.9,0.8c0.4,0.4,0.6,0.9,0.6,1.4c0,0.8-0.4,1.4-1.2,1.8c0.5,0.1,0.9,0.3,1.2,0.7s0.4,0.8,0.4,1.3
		c0,0.8-0.3,1.4-0.8,1.9s-1.2,0.8-2.1,0.8c-0.8,0-1.4-0.2-1.9-0.7S204.9,258.5,204.8,257.8z"/>
	<path d="M211.9,260v-1.6h1.6v1.6H211.9z"/>
	<path d="M219.1,260h-1.6v-6.2c-0.6,0.6-1.3,1-2.1,1.2v-1.5c0.4-0.1,0.9-0.4,1.4-0.8s0.8-0.9,1-1.4h1.3V260z"/>
	<path d="M221.9,260v-1.6h1.6v1.6H221.9z"/>
	<path d="M230.4,258.5v1.5h-5.8c0.1-0.6,0.2-1.1,0.6-1.6s0.9-1.2,1.9-2.1c0.7-0.7,1.2-1.2,1.4-1.4c0.2-0.3,0.3-0.7,0.3-1
		c0-0.4-0.1-0.6-0.3-0.8s-0.5-0.3-0.8-0.3c-0.3,0-0.6,0.1-0.8,0.3s-0.3,0.6-0.4,1l-1.6-0.2c0.1-0.9,0.4-1.6,0.9-2s1.2-0.6,1.9-0.6
		c0.8,0,1.5,0.2,2,0.7s0.7,1,0.7,1.7c0,0.4-0.1,0.8-0.2,1.1s-0.4,0.7-0.7,1.1c-0.2,0.3-0.6,0.6-1.1,1.1s-0.8,0.8-1,0.9
		s-0.3,0.3-0.3,0.5H230.4z"/>
</g>
<rect x="106.7" y="117.9" class="st4" width="247.5" height="30.2"/>
<g class="st0">
	<path d="M214.4,134l1.7-0.2c0.1,0.6,0.3,1,0.6,1.2s0.7,0.4,1.3,0.4c0.6,0,1-0.1,1.3-0.4s0.4-0.5,0.4-0.8c0-0.2-0.1-0.4-0.2-0.5
		s-0.3-0.3-0.6-0.4c-0.2-0.1-0.7-0.2-1.4-0.4c-0.9-0.2-1.6-0.5-2-0.8c-0.5-0.5-0.8-1-0.8-1.7c0-0.4,0.1-0.8,0.4-1.2s0.6-0.7,1.1-0.9
		s1-0.3,1.7-0.3c1.1,0,1.9,0.2,2.4,0.7s0.8,1.1,0.9,1.9l-1.7,0.1c-0.1-0.4-0.2-0.8-0.5-1s-0.6-0.3-1.1-0.3c-0.5,0-0.9,0.1-1.2,0.3
		c-0.2,0.1-0.3,0.3-0.3,0.5c0,0.2,0.1,0.4,0.3,0.5c0.2,0.2,0.8,0.4,1.6,0.6s1.5,0.4,1.9,0.6s0.7,0.5,0.9,0.9s0.3,0.8,0.3,1.4
		c0,0.5-0.1,1-0.4,1.4s-0.7,0.7-1.2,1s-1.1,0.3-1.9,0.3c-1.1,0-1.9-0.3-2.5-0.8S214.5,135,214.4,134z"/>
	<path d="M222.8,136.8v-8.6h1.6v4.6l1.9-2.2h2l-2.1,2.3l2.3,3.9h-1.8l-1.6-2.8l-0.8,0.8v2H222.8z"/>
	<path d="M234.7,135.3v1.5H229c0.1-0.6,0.2-1.1,0.6-1.6s0.9-1.2,1.9-2.1c0.7-0.7,1.2-1.2,1.4-1.4c0.2-0.3,0.3-0.7,0.3-1
		c0-0.4-0.1-0.6-0.3-0.8s-0.5-0.3-0.8-0.3c-0.3,0-0.6,0.1-0.8,0.3s-0.3,0.6-0.4,1l-1.6-0.2c0.1-0.9,0.4-1.6,0.9-2s1.2-0.6,1.9-0.6
		c0.8,0,1.5,0.2,2,0.7s0.7,1,0.7,1.7c0,0.4-0.1,0.8-0.2,1.1s-0.4,0.7-0.7,1.1c-0.2,0.3-0.6,0.6-1.1,1.1s-0.8,0.8-1,0.9
		s-0.3,0.3-0.3,0.5H234.7z"/>
</g>
<rect x="821.5" y="225.4" class="st4" width="75" height="20.6"/>
<g class="st0">
	<path d="M839.8,239.3l1.7-0.2c0.1,0.6,0.3,1,0.6,1.2s0.7,0.4,1.3,0.4c0.6,0,1-0.1,1.3-0.4s0.4-0.5,0.4-0.8c0-0.2-0.1-0.4-0.2-0.5
		s-0.3-0.3-0.6-0.4c-0.2-0.1-0.7-0.2-1.4-0.4c-0.9-0.2-1.6-0.5-2-0.8c-0.5-0.5-0.8-1-0.8-1.7c0-0.4,0.1-0.8,0.4-1.2s0.6-0.7,1.1-0.9
		s1-0.3,1.7-0.3c1.1,0,1.9,0.2,2.4,0.7s0.8,1.1,0.9,1.9l-1.7,0.1c-0.1-0.4-0.2-0.8-0.5-1s-0.6-0.3-1.1-0.3c-0.5,0-0.9,0.1-1.2,0.3
		c-0.2,0.1-0.3,0.3-0.3,0.5c0,0.2,0.1,0.4,0.3,0.5c0.2,0.2,0.8,0.4,1.6,0.6s1.5,0.4,1.9,0.6s0.7,0.5,0.9,0.9s0.3,0.8,0.3,1.4
		c0,0.5-0.1,1-0.4,1.4s-0.7,0.7-1.2,1s-1.1,0.3-1.9,0.3c-1.1,0-1.9-0.3-2.5-0.8S839.9,240.3,839.8,239.3z"/>
	<path d="M848.1,242.1v-8.6h1.6v4.6l1.9-2.2h2l-2.1,2.3l2.3,3.9h-1.8l-1.6-2.8l-0.8,0.8v2H848.1z"/>
	<path d="M860.1,240.6v1.5h-5.8c0.1-0.6,0.2-1.1,0.6-1.6s0.9-1.2,1.9-2.1c0.7-0.7,1.2-1.2,1.4-1.4c0.2-0.3,0.3-0.7,0.3-1
		c0-0.4-0.1-0.6-0.3-0.8s-0.5-0.3-0.8-0.3c-0.3,0-0.6,0.1-0.8,0.3s-0.3,0.6-0.4,1l-1.6-0.2c0.1-0.9,0.4-1.6,0.9-2s1.2-0.6,1.9-0.6
		c0.8,0,1.5,0.2,2,0.7s0.7,1,0.7,1.7c0,0.4-0.1,0.8-0.2,1.1s-0.4,0.7-0.7,1.1c-0.2,0.3-0.6,0.6-1.1,1.1s-0.8,0.8-1,0.9
		s-0.3,0.3-0.3,0.5H860.1z"/>
	<path d="M861.5,242.1v-1.6h1.6v1.6H861.5z"/>
	<path d="M868.7,242.1h-1.6v-6.2c-0.6,0.6-1.3,1-2.1,1.2v-1.5c0.4-0.1,0.9-0.4,1.4-0.8s0.8-0.9,1-1.4h1.3V242.1z"/>
	<path d="M871.6,242.1v-1.6h1.6v1.6H871.6z"/>
	<path d="M874.5,239.8l1.6-0.2c0.1,0.4,0.2,0.7,0.4,0.9s0.5,0.3,0.8,0.3c0.3,0,0.6-0.1,0.9-0.4s0.3-0.6,0.3-1c0-0.4-0.1-0.7-0.3-1
		s-0.5-0.4-0.8-0.4c-0.2,0-0.5,0-0.8,0.1l0.2-1.3c0.4,0,0.8-0.1,1-0.3s0.4-0.5,0.4-0.8c0-0.3-0.1-0.5-0.3-0.7s-0.4-0.3-0.7-0.3
		c-0.3,0-0.5,0.1-0.7,0.3s-0.3,0.5-0.4,0.9l-1.5-0.3c0.1-0.5,0.3-0.9,0.5-1.2s0.5-0.6,0.9-0.7s0.8-0.3,1.3-0.3
		c0.8,0,1.5,0.3,1.9,0.8c0.4,0.4,0.6,0.9,0.6,1.4c0,0.8-0.4,1.4-1.2,1.8c0.5,0.1,0.9,0.3,1.2,0.7s0.4,0.8,0.4,1.3
		c0,0.8-0.3,1.4-0.8,1.9s-1.2,0.8-2.1,0.8c-0.8,0-1.4-0.2-1.9-0.7S874.6,240.5,874.5,239.8z"/>
</g>
<line class="st1" x1="368.3" y1="248.2" x2="368.3" y2="261.7"/>
<line class="st1" x1="440.5" y1="248.2" x2="440.5" y2="261.7"/>
<line class="st1" x1="511.4" y1="248.2" x2="511.4" y2="261.7"/>
<line class="st1" x1="581.1" y1="248.2" x2="581.1" y2="261.7"/>
<line class="st1" x1="540.5" y1="245.4" x2="548.3" y2="237.8"/>
<line class="st1" x1="548.3" y1="246.5" x2="555.9" y2="238.2"/>
<line class="st1" x1="599.8" y1="278.9" x2="599.8" y2="280.6"/>
<line class="st5" x1="599.8" y1="280.6" x2="607.8" y2="280.6"/>
<line class="st1" x1="607.8" y1="280.6" x2="607.8" y2="278.9"/>
<g class="st0">
	<path d="M333.1,252.1c0.2-0.1,0.4,0,0.6,0s0.3,0.2,0.4,0.4s0.1,0.3,0.2,0.5s0,0.4,0,0.5c0.1,0,0.3,0,0.4-0.1c0.1,0,0.2-0.1,0.4-0.2
		c0.1-0.1,0.2-0.2,0.3-0.3c0.1-0.1,0.2-0.2,0.3-0.3l0.2,0.1l-1.5,5.7h-0.5c0.1-0.3,0.2-0.6,0.3-0.9c0.1-0.2,0.2-0.5,0.2-0.7
		c0.1-0.3,0.2-0.5,0.2-0.6c0.1-0.4,0.3-0.7,0.4-1.1c0.1-0.3,0.2-0.6,0.2-0.8c0.1-0.3,0.1-0.5,0.1-0.7c-0.1,0.1-0.2,0.1-0.3,0.2
		s-0.3,0.2-0.5,0.3c-0.2,0.1-0.3,0.2-0.5,0.2s-0.3,0.1-0.5,0.1c-0.4,0-0.6-0.1-0.8-0.3s-0.3-0.4-0.4-0.7c0-0.3,0-0.5,0.2-0.8
		C332.5,252.4,332.7,252.2,333.1,252.1z"/>
</g>
<g class="st0">
	<path d="M344.2,253.3c0.1-0.2,0.2-0.5,0.4-0.7s0.4-0.4,0.6-0.5c0.2-0.2,0.5-0.3,0.8-0.4c0.3-0.1,0.6-0.1,0.9-0.1s0.5,0,0.8,0.1
		c0.2,0.1,0.4,0.2,0.5,0.4c0.1,0.2,0.2,0.3,0.2,0.6c0,0.2,0,0.4-0.1,0.7s-0.2,0.5-0.4,0.7c-0.2,0.2-0.4,0.4-0.6,0.6
		s-0.5,0.3-0.8,0.4c-0.3,0.1-0.6,0.1-0.8,0.1c-0.3,0-0.5,0-0.7-0.1c-0.2-0.1-0.4-0.2-0.5-0.4s-0.2-0.3-0.2-0.6
		C344.1,253.8,344.1,253.5,344.2,253.3z"/>
</g>
<g class="st0">
	<path d="M340.3,251.2V249h0.4v2.1l1.3-0.4v-2h0.4v1.8l0.5-0.2v1.4l-0.5,0.2v2l0.5-0.2v1.4l-0.5,0.2v2.2H342v-2.1l-1.3,0.4v2h-0.4
		V256l-0.6,0.2v-1.4l0.6-0.2v-2l-0.6,0.2v-1.4L340.3,251.2z M340.7,252.4v2l1.3-0.4v-2L340.7,252.4z"/>
</g>
<line class="st1" x1="348.2" y1="252.7" x2="348.2" y2="242.3"/>
<g class="st0">
	<path d="M357.6,260c0.1-0.2,0.2-0.5,0.4-0.7s0.4-0.4,0.6-0.5c0.2-0.2,0.5-0.3,0.8-0.4c0.3-0.1,0.6-0.1,0.9-0.1s0.5,0,0.8,0.1
		c0.2,0.1,0.4,0.2,0.5,0.4c0.1,0.2,0.2,0.3,0.2,0.6c0,0.2,0,0.4-0.1,0.7s-0.2,0.5-0.4,0.7c-0.2,0.2-0.4,0.4-0.6,0.6
		s-0.5,0.3-0.8,0.4c-0.3,0.1-0.6,0.1-0.8,0.1c-0.3,0-0.5,0-0.7-0.1c-0.2-0.1-0.4-0.2-0.5-0.4s-0.2-0.3-0.2-0.6
		C357.4,260.5,357.5,260.3,357.6,260z"/>
</g>
<g class="st0">
	<path d="M355.9,257.4v7.7h-0.4v-2.9l-1.9,0.5v-7.8h0.3v3L355.9,257.4z M354,259.2v2.1l1.5-0.4v-2.1L354,259.2z"/>
</g>
<line class="st1" x1="361.6" y1="259.5" x2="361.6" y2="244"/>
<path d="M348,241.5l13.8,1.7v1.7l-13.8-1.7V241.5z"/>
<g class="st0">
	<path d="M346.2,235.9l0-0.1c0.3,0,0.5-0.1,0.6-0.2c0.2-0.1,0.4-0.2,0.5-0.3s0.1-0.3,0.1-0.4c0-0.1,0-0.2-0.1-0.3
		c-0.1-0.1-0.2-0.1-0.3-0.1c-0.1,0-0.2,0-0.3,0.1c-0.1,0.1-0.2,0.1-0.3,0.3l-0.1-0.1c0.2-0.2,0.3-0.4,0.5-0.5
		c0.2-0.1,0.3-0.1,0.5-0.1c0.2,0,0.4,0.1,0.6,0.2c0.2,0.1,0.2,0.3,0.2,0.5c0,0.2,0,0.3-0.1,0.4c-0.1,0.1-0.2,0.2-0.3,0.3
		c-0.1,0.1-0.3,0.1-0.5,0.2c0.2,0.1,0.3,0.2,0.4,0.3c0.1,0.2,0.2,0.4,0.2,0.6c0,0.4-0.2,0.8-0.6,1.1c-0.3,0.2-0.7,0.4-1.1,0.4
		c-0.2,0-0.4,0-0.5-0.1c-0.1-0.1-0.1-0.1-0.1-0.2c0-0.1,0-0.2,0.1-0.2c0.1-0.1,0.1-0.1,0.2-0.1c0,0,0.1,0,0.1,0
		c0.1,0,0.2,0.1,0.3,0.2c0.1,0.1,0.3,0.1,0.3,0.1c0.1,0,0.2-0.1,0.3-0.2c0.1-0.2,0.2-0.4,0.2-0.6c0-0.2,0-0.4-0.1-0.5
		s-0.2-0.3-0.3-0.3S346.4,235.9,346.2,235.9z"/>
</g>
<g class="st0">
	<path d="M323.9,260.9c-0.2,0-0.4,0.1-0.6,0.1c-0.2,0-0.4,0-0.6,0c-0.2,0-0.4,0-0.6-0.1s-0.3-0.1-0.4-0.1c-0.5-0.2-0.9-0.5-1.3-0.8
		s-0.6-0.6-0.7-0.9s-0.3-0.6-0.4-0.9c-0.1-0.3-0.1-0.6-0.1-1c0-0.4,0-0.7,0.1-1.1s0.2-0.7,0.4-1c0.2-0.3,0.3-0.6,0.5-0.9
		c0.2-0.3,0.4-0.5,0.6-0.7c0.2-0.2,0.5-0.5,0.8-0.7s0.6-0.5,0.9-0.7c0-0.1,0-0.2,0-0.2s0-0.1,0-0.2s0-0.2,0-0.2c0-0.1,0-0.2,0-0.3
		c0-0.1,0-0.2,0-0.3c0-0.1,0-0.3,0-0.5s0-0.4,0-0.7s0-0.5,0.1-0.8c0-0.2,0.1-0.4,0.2-0.6c0.1-0.3,0.2-0.5,0.4-0.8s0.3-0.5,0.5-0.6
		s0.3-0.3,0.5-0.3c0.1,0,0.2,0,0.2,0.1c0.1,0.1,0.2,0.2,0.3,0.4s0.2,0.3,0.2,0.5s0.2,0.4,0.2,0.6c0.1,0.2,0.1,0.4,0.1,0.6
		c0,0.2,0.1,0.4,0.1,0.5c0,0.4,0,0.7,0,0.9c0,0.3-0.1,0.5-0.2,0.7c-0.1,0.2-0.1,0.4-0.2,0.6s-0.2,0.4-0.3,0.5
		c-0.1,0.2-0.2,0.3-0.3,0.5c-0.1,0.1-0.2,0.3-0.3,0.4c-0.1,0.1-0.2,0.3-0.4,0.4c-0.1,0.1-0.3,0.2-0.4,0.3c0.1,0.3,0.1,0.7,0.2,0.9
		c0,0.1,0,0.2,0.1,0.4c0,0.1,0,0.2,0.1,0.3s0,0.2,0,0.2s0,0.1,0,0.1c0.2,0,0.3,0,0.5,0c0.2,0,0.3,0,0.5,0.1c0.2,0,0.3,0.1,0.4,0.1
		c0.1,0.1,0.2,0.1,0.3,0.2c0.4,0.3,0.6,0.6,0.8,0.9c0.2,0.3,0.2,0.7,0.3,1.1c0,0.3,0,0.6-0.1,0.9s-0.2,0.6-0.3,0.8s-0.4,0.5-0.6,0.7
		c-0.3,0.2-0.6,0.4-0.9,0.5c0,0.3,0.1,0.5,0.1,0.8c0,0.2,0.1,0.4,0.1,0.6s0,0.3,0.1,0.4c0.1,0.4,0.1,0.7,0.1,1s-0.1,0.5-0.2,0.6
		c-0.1,0.1-0.2,0.3-0.3,0.4c-0.1,0.1-0.2,0.2-0.3,0.3c-0.1,0.1-0.3,0.2-0.5,0.3c-0.2,0.1-0.4,0.1-0.6,0.1c-0.2,0-0.4,0-0.6,0
		s-0.5-0.1-0.7-0.2c-0.2-0.1-0.4-0.3-0.6-0.5c-0.2-0.2-0.3-0.4-0.3-0.7c0-0.2,0-0.3,0-0.5c0-0.2,0.1-0.3,0.2-0.4s0.2-0.2,0.3-0.3
		c0.1-0.1,0.3-0.1,0.5-0.2c0.1,0,0.2,0,0.4,0.1c0.1,0,0.2,0.1,0.3,0.2s0.2,0.2,0.3,0.3c0.1,0.1,0.1,0.3,0.1,0.4
		c0,0.2-0.1,0.5-0.2,0.7c-0.2,0.2-0.5,0.4-0.9,0.5c0.1,0.1,0.2,0.2,0.4,0.3s0.4,0.1,0.7,0.1c0.3,0,0.6-0.1,0.9-0.3
		c0.3-0.2,0.5-0.4,0.6-0.7c0.1-0.2,0.1-0.4,0.1-0.7c0-0.3,0-0.6-0.1-0.8c0,0,0-0.2-0.1-0.3c0-0.2-0.1-0.4-0.1-0.6
		C324,261.4,324,261.2,323.9,260.9z M322.6,257.1c-0.2,0.1-0.3,0.2-0.4,0.4c-0.1,0.1-0.2,0.3-0.2,0.4s-0.1,0.3,0,0.4s0,0.2,0.1,0.4
		c0,0.1,0.1,0.2,0.2,0.4s0.2,0.2,0.3,0.3c0.1,0.1,0.2,0.2,0.3,0.2c0,0,0,0,0,0c0,0,0,0,0,0c0,0,0,0,0,0c-0.2-0.1-0.4-0.2-0.6-0.4
		c-0.2-0.1-0.3-0.2-0.3-0.3c-0.1-0.1-0.1-0.2-0.2-0.3c-0.1-0.1-0.1-0.2-0.1-0.3c0-0.1-0.1-0.2-0.1-0.3c0-0.1,0-0.2,0-0.4
		c0-0.1,0-0.3,0-0.5c0-0.2,0.1-0.3,0.2-0.5s0.2-0.3,0.3-0.5c0.1-0.2,0.3-0.3,0.4-0.4c0.1-0.1,0.2-0.1,0.2-0.2c0.1,0,0.1-0.1,0.2-0.1
		c0.1,0,0.1-0.1,0.2-0.1c0.1,0,0.1,0,0.2-0.1l-0.3-1.8c-0.1,0-0.2,0.1-0.4,0.3c-0.2,0.1-0.4,0.3-0.6,0.5c-0.2,0.2-0.4,0.4-0.6,0.6
		s-0.4,0.4-0.5,0.7c-0.2,0.4-0.4,0.7-0.6,1.1c-0.1,0.3-0.2,0.7-0.2,1.1c0,0.4,0.2,0.8,0.4,1.2c0.2,0.4,0.5,0.7,0.9,0.9
		c0.4,0.2,0.8,0.4,1.2,0.5c0.5,0.1,0.9,0.1,1.4,0c-0.1-0.7-0.2-1.3-0.3-1.8c0-0.2-0.1-0.4-0.1-0.7c0-0.2-0.1-0.4-0.1-0.6
		s-0.1-0.4-0.1-0.6C323,257,322.8,257,322.6,257.1z M324.1,248.1c-0.3,0-0.5,0.1-0.7,0.4s-0.4,0.6-0.5,0.9c-0.1,0.4-0.2,0.8-0.2,1.2
		c0,0.5,0,0.9,0,1.3c0.2-0.2,0.5-0.4,0.7-0.6c0.2-0.2,0.5-0.5,0.7-0.8c0.2-0.3,0.4-0.5,0.5-0.8c0.1-0.3,0.2-0.5,0.2-0.8
		c0-0.1,0-0.2,0-0.3c0-0.1-0.1-0.2-0.1-0.3c0-0.1-0.1-0.2-0.2-0.2C324.3,248.1,324.2,248.1,324.1,248.1z M324.1,260.5
		c0.3-0.1,0.5-0.2,0.7-0.4s0.3-0.3,0.4-0.5c0.1-0.2,0.1-0.4,0.1-0.6c0-0.2,0-0.4,0-0.5c0-0.1,0-0.3-0.1-0.5c0-0.2-0.1-0.4-0.2-0.5
		s-0.3-0.3-0.5-0.4c-0.2-0.1-0.5-0.2-0.9-0.1L324.1,260.5z"/>
</g>
<line class="st1" x1="381" y1="262.8" x2="381" y2="251.6"/>
<g class="st0">
	<path d="M377,263.4c0.1-0.2,0.2-0.5,0.4-0.7s0.4-0.4,0.6-0.5c0.2-0.2,0.5-0.3,0.8-0.4c0.3-0.1,0.6-0.1,0.9-0.1s0.5,0,0.8,0.1
		c0.2,0.1,0.4,0.2,0.5,0.4c0.1,0.2,0.2,0.3,0.2,0.6c0,0.2,0,0.4-0.1,0.7s-0.2,0.5-0.4,0.7c-0.2,0.2-0.4,0.4-0.6,0.6
		s-0.5,0.3-0.8,0.4c-0.3,0.1-0.6,0.1-0.8,0.1c-0.3,0-0.5,0-0.7-0.1c-0.2-0.1-0.4-0.2-0.5-0.4s-0.2-0.3-0.2-0.6
		C376.8,263.9,376.9,263.7,377,263.4z"/>
</g>
<g class="st0">
	<path d="M375.3,260.8v7.7h-0.4v-2.9l-1.9,0.5v-7.8h0.3v3L375.3,260.8z M373.4,262.6v2.1l1.5-0.4v-2.1L373.4,262.6z"/>
</g>
<g class="st0">
	<path d="M407.4,252.1c0.2-0.1,0.4,0,0.6,0s0.3,0.2,0.4,0.4s0.1,0.3,0.2,0.5s0,0.4,0,0.5c0.1,0,0.3,0,0.4-0.1c0.1,0,0.2-0.1,0.4-0.2
		c0.1-0.1,0.2-0.2,0.3-0.3c0.1-0.1,0.2-0.2,0.3-0.3l0.2,0.1l-1.5,5.7h-0.5c0.1-0.3,0.2-0.6,0.3-0.9c0.1-0.2,0.2-0.5,0.2-0.7
		c0.1-0.3,0.2-0.5,0.2-0.6c0.1-0.4,0.3-0.7,0.4-1.1c0.1-0.3,0.2-0.6,0.2-0.8c0.1-0.3,0.1-0.5,0.1-0.7c-0.1,0.1-0.2,0.1-0.3,0.2
		s-0.3,0.2-0.5,0.3c-0.2,0.1-0.3,0.2-0.5,0.2s-0.3,0.1-0.5,0.1c-0.4,0-0.6-0.1-0.8-0.3s-0.3-0.4-0.4-0.7c0-0.3,0-0.5,0.2-0.8
		C406.7,252.4,407,252.2,407.4,252.1z"/>
</g>
<g class="st0">
	<path d="M417.7,255c0.1-0.2,0.2-0.5,0.4-0.7s0.4-0.4,0.6-0.5c0.2-0.2,0.5-0.3,0.8-0.4c0.3-0.1,0.6-0.1,0.9-0.1s0.5,0,0.8,0.1
		c0.2,0.1,0.4,0.2,0.5,0.4c0.1,0.2,0.2,0.3,0.2,0.6c0,0.2,0,0.4-0.1,0.7s-0.2,0.5-0.4,0.7c-0.2,0.2-0.4,0.4-0.6,0.6
		s-0.5,0.3-0.8,0.4c-0.3,0.1-0.6,0.1-0.8,0.1c-0.3,0-0.5,0-0.7-0.1c-0.2-0.1-0.4-0.2-0.5-0.4s-0.2-0.3-0.2-0.6
		C417.6,255.5,417.7,255.2,417.7,255z"/>
</g>
<g class="st0">
	<path d="M414.1,250.2v2.4v0.9c0.1-0.1,0.2-0.2,0.4-0.3c0.1-0.1,0.2-0.1,0.3-0.2c0.1,0,0.2-0.1,0.3-0.1c0.1,0,0.2,0,0.4,0
		c0.2,0,0.3,0,0.5,0.1c0.1,0.1,0.3,0.2,0.4,0.3c0.1,0.1,0.2,0.2,0.2,0.4c0.1,0.1,0.1,0.3,0.1,0.4c0,0.1,0,0.3,0,0.4
		s-0.1,0.3-0.1,0.4c-0.1,0.2-0.2,0.3-0.3,0.4c-0.1,0.1-0.3,0.2-0.4,0.3c0,0-0.1,0.1-0.2,0.2c-0.1,0.1-0.2,0.2-0.4,0.3
		s-0.3,0.2-0.5,0.3c-0.2,0.1-0.3,0.2-0.4,0.3c-0.1,0.1-0.3,0.2-0.5,0.3v-8h0.4V250.2z M415.1,253.7c0-0.1-0.1-0.1-0.2-0.1
		c-0.1,0-0.2-0.1-0.2-0.1c-0.1,0-0.2,0-0.3,0.1c-0.1,0.1-0.2,0.1-0.2,0.3c-0.1,0.2-0.1,0.4-0.1,0.6c0,0.3,0,0.5,0,0.7v1.2
		c0.1-0.1,0.2-0.2,0.3-0.2c0.1-0.1,0.2-0.1,0.2-0.2s0.2-0.2,0.2-0.2c0.1-0.1,0.2-0.2,0.3-0.4c0.1-0.1,0.2-0.3,0.2-0.5
		c0.1-0.2,0.1-0.4,0-0.6C415.3,254.1,415.3,253.9,415.1,253.7z"/>
</g>
<line class="st1" x1="421.7" y1="254.4" x2="421.7" y2="244"/>
<line class="st6" x1="428.2" y1="265.1" x2="434.2" y2="265.1"/>
<g class="st0">
	<path d="M429.1,266.8c0.1-0.2,0.2-0.5,0.4-0.7s0.4-0.4,0.6-0.5c0.2-0.2,0.5-0.3,0.8-0.4c0.3-0.1,0.6-0.1,0.9-0.1s0.5,0,0.8,0.1
		c0.2,0.1,0.4,0.2,0.5,0.4c0.1,0.2,0.2,0.3,0.2,0.6c0,0.2,0,0.4-0.1,0.7s-0.2,0.5-0.4,0.7c-0.2,0.2-0.4,0.4-0.6,0.6
		s-0.5,0.3-0.8,0.4c-0.3,0.1-0.6,0.1-0.8,0.1c-0.3,0-0.5,0-0.7-0.1c-0.2-0.1-0.4-0.2-0.5-0.4s-0.2-0.3-0.2-0.6
		C429,267.3,429,267,429.1,266.8z"/>
</g>
<g class="st0">
	<path d="M427.4,264.1v7.7h-0.4V269l-1.9,0.5v-7.8h0.3v3L427.4,264.1z M425.6,265.9v2.1l1.5-0.4v-2.1L425.6,265.9z"/>
</g>
<line class="st1" x1="433.1" y1="266.2" x2="433.1" y2="245.7"/>
<path d="M421.5,243.2l11.8,1.7v1.7l-11.8-1.7V243.2z"/>
<path class="st7" d="M368.1,248.2v13.5"/>
<g class="st0">
	<path d="M454.9,253.3c0-0.2,0.1-0.3,0.2-0.5c0.1-0.1,0.3-0.2,0.5-0.2c0.2,0,0.4,0.1,0.5,0.2c0.1,0.1,0.2,0.3,0.2,0.5
		c0,0.2-0.1,0.4-0.2,0.5c-0.1,0.1-0.3,0.2-0.5,0.2c-0.2,0-0.4-0.1-0.5-0.2C455,253.6,454.9,253.5,454.9,253.3z"/>
</g>
<line class="st1" x1="449.2" y1="253.8" x2="449.2" y2="265.1"/>
<g class="st0">
	<path d="M449.1,253.3c0.1-0.2,0.2-0.5,0.4-0.7s0.4-0.4,0.6-0.5c0.2-0.2,0.5-0.3,0.8-0.4c0.3-0.1,0.6-0.1,0.9-0.1s0.5,0,0.8,0.1
		c0.2,0.1,0.4,0.2,0.5,0.4c0.1,0.2,0.2,0.3,0.2,0.6c0,0.2,0,0.4-0.1,0.7s-0.2,0.5-0.4,0.7c-0.2,0.2-0.4,0.4-0.6,0.6
		s-0.5,0.3-0.8,0.4c-0.3,0.1-0.6,0.1-0.8,0.1c-0.3,0-0.5,0-0.7-0.1c-0.2-0.1-0.4-0.2-0.5-0.4s-0.2-0.3-0.2-0.6
		C449,253.8,449,253.5,449.1,253.3z"/>
</g>
<g class="st0">
	<path d="M447.4,250.6v7.7h-0.4v-2.9l-1.9,0.5v-7.8h0.3v3L447.4,250.6z M445.5,252.4v2.1l1.5-0.4V252L445.5,252.4z"/>
</g>
<line class="st1" x1="493.7" y1="268.6" x2="493.7" y2="257.3"/>
<g class="st0">
	<path d="M493.5,256.7c0.1-0.2,0.2-0.5,0.4-0.7s0.4-0.4,0.6-0.5c0.2-0.2,0.5-0.3,0.8-0.4c0.3-0.1,0.6-0.1,0.9-0.1s0.5,0,0.8,0.1
		c0.2,0.1,0.4,0.2,0.5,0.4c0.1,0.2,0.2,0.3,0.2,0.6c0,0.2,0,0.4-0.1,0.7s-0.2,0.5-0.4,0.7c-0.2,0.2-0.4,0.4-0.6,0.6
		s-0.5,0.3-0.8,0.4c-0.3,0.1-0.6,0.1-0.8,0.1c-0.3,0-0.5,0-0.7-0.1c-0.2-0.1-0.4-0.2-0.5-0.4s-0.2-0.3-0.2-0.6
		C493.4,257.1,493.5,256.9,493.5,256.7z"/>
</g>
<g class="st0">
	<path d="M491.9,254v7.7h-0.4v-2.9l-1.9,0.5v-7.8h0.3v3L491.9,254z M490,255.8v2.1l1.5-0.4v-2.1L490,255.8z"/>
</g>
<line class="st1" x1="520.6" y1="247.1" x2="520.6" y2="258.3"/>
<g class="st0">
	<path d="M524.8,245.3c0.1,0.1,0.1,0.2,0.1,0.3c0,0.1,0,0.2,0,0.4c0,0.1,0,0.2-0.1,0.3c0,0.1-0.1,0.2-0.1,0.3
		c-0.1,0.3-0.3,0.6-0.6,0.9s-0.5,0.4-0.7,0.5c-0.4,0.2-1,0.3-1.6,0.3c-0.1,0-0.2,0-0.3,0s-0.2,0-0.4-0.1c-0.1,0-0.2-0.1-0.4-0.2
		c-0.1-0.1-0.2-0.2-0.3-0.3c-0.1-0.1-0.1-0.2-0.1-0.4c0-0.1,0-0.2,0-0.4c0-0.1,0-0.2,0.1-0.3c0-0.1,0.1-0.2,0.1-0.2
		c0.1-0.3,0.3-0.6,0.5-0.9c0.2-0.2,0.5-0.4,0.7-0.5c0.2-0.1,0.5-0.2,0.8-0.3c0.3-0.1,0.6-0.1,1,0c0.1,0,0.2,0,0.3,0
		c0.1,0,0.2,0,0.3,0.1c0.1,0,0.2,0.1,0.3,0.2S524.7,245.2,524.8,245.3z M524.4,245.6c-0.1-0.1-0.2-0.2-0.3-0.2c-0.1,0-0.2,0-0.3,0
		c-0.1,0-0.2,0-0.4,0.1s-0.2,0.1-0.4,0.1c-0.2,0.1-0.3,0.1-0.4,0.2c-0.1,0.1-0.2,0.1-0.4,0.2c-0.3,0.1-0.5,0.3-0.8,0.5
		c-0.1,0.1-0.2,0.1-0.3,0.2s-0.2,0.2-0.3,0.3c-0.1,0.1-0.1,0.2-0.1,0.3c0,0.1,0,0.2,0.1,0.3c0.1,0.1,0.1,0.2,0.3,0.2
		c0.1,0,0.2,0,0.3,0c0.1,0,0.2,0,0.4-0.1s0.2-0.1,0.4-0.1c0.2-0.1,0.3-0.1,0.4-0.2s0.3-0.1,0.4-0.2c0.1-0.1,0.3-0.1,0.4-0.2
		c0.1-0.1,0.3-0.2,0.4-0.3c0.1-0.1,0.2-0.1,0.3-0.2s0.2-0.2,0.3-0.3c0.1-0.1,0.1-0.2,0.1-0.3C524.5,245.8,524.5,245.7,524.4,245.6z"
		/>
</g>
<g class="st0">
	<path d="M516.7,244.4v-2.2h0.4v2.1l1.3-0.4v-2h0.4v1.8l0.5-0.2v1.4l-0.5,0.2v2l0.5-0.2v1.4l-0.5,0.2v2.2h-0.4v-2.1l-1.3,0.4v2h-0.4
		v-1.9l-0.6,0.2V248l0.6-0.2v-2l-0.6,0.2v-1.4L516.7,244.4z M517.1,245.7v2l1.3-0.4v-2L517.1,245.7z"/>
</g>
<g class="st0">
	<path d="M556.9,252.1c0.2-0.1,0.4,0,0.6,0s0.3,0.2,0.4,0.4c0.1,0.2,0.1,0.3,0.2,0.5c0,0.2,0,0.4,0,0.5c0.1,0,0.3,0,0.4-0.1
		s0.2-0.1,0.4-0.2c0.1-0.1,0.2-0.2,0.3-0.3c0.1-0.1,0.2-0.2,0.3-0.3l0.2,0.1l-1.5,5.7h-0.5c0.1-0.3,0.2-0.6,0.3-0.9
		c0.1-0.2,0.2-0.5,0.2-0.7c0.1-0.3,0.2-0.5,0.2-0.6c0.1-0.4,0.3-0.7,0.4-1.1s0.2-0.6,0.2-0.8c0.1-0.3,0.1-0.5,0.1-0.7
		c-0.1,0.1-0.2,0.1-0.3,0.2s-0.3,0.2-0.5,0.3c-0.2,0.1-0.3,0.2-0.5,0.2s-0.3,0.1-0.5,0.1c-0.4,0-0.6-0.1-0.8-0.3
		c-0.2-0.2-0.3-0.4-0.4-0.7s0-0.5,0.2-0.8C556.2,252.4,556.5,252.2,556.9,252.1z"/>
</g>
<g class="st0">
	<path d="M572.7,247.1c0.2,0.4,0.3,0.7,0.5,1c0.2,0.3,0.5,0.7,0.7,1c0.3,0.4,0.5,0.8,0.8,1.2c0.1,0.2,0.2,0.4,0.3,0.6
		c0.1,0.2,0.2,0.5,0.3,0.7s0.1,0.4,0.2,0.7c0,0.2,0.1,0.4,0.1,0.5c0,0.3,0.1,0.6,0.1,0.8c0,0.3,0,0.5,0,0.8c0,0.8-0.2,1.6-0.4,2.3
		l-0.2,0c0.1-0.3,0.2-0.7,0.3-1.1c0.1-0.4,0.1-0.8,0.1-1.2c0-0.3,0-0.7-0.1-1.1c-0.1-0.4-0.1-0.7-0.3-1.1c-0.2-0.6-0.5-1.1-0.7-1.4
		c-0.3-0.4-0.5-0.6-0.7-0.7c-0.2-0.1-0.3-0.2-0.4-0.2s-0.3-0.1-0.4-0.1c-0.1,0-0.3-0.1-0.4-0.1h-0.2V246h0.2
		C572.5,246.4,572.6,246.7,572.7,247.1z"/>
</g>
<line class="st1" x1="572.5" y1="257.8" x2="572.5" y2="246.5"/>
<g class="st0">
	<path d="M568.5,258.4c0.1-0.2,0.2-0.5,0.4-0.7s0.4-0.4,0.6-0.5s0.5-0.3,0.8-0.4c0.3-0.1,0.6-0.1,0.9-0.1s0.5,0,0.8,0.1
		c0.2,0.1,0.4,0.2,0.5,0.4c0.1,0.2,0.2,0.3,0.2,0.6c0,0.2,0,0.4-0.1,0.7s-0.2,0.5-0.4,0.7c-0.2,0.2-0.4,0.4-0.6,0.6
		s-0.5,0.3-0.8,0.4c-0.3,0.1-0.6,0.1-0.8,0.1c-0.3,0-0.5,0-0.8-0.1c-0.2-0.1-0.4-0.2-0.5-0.4c-0.1-0.2-0.2-0.3-0.2-0.6
		C568.4,258.8,568.4,258.6,568.5,258.4z"/>
</g>
<g class="st0">
	<path d="M566.8,255.7v7.7h-0.4v-2.9l-1.9,0.5v-7.8h0.3v3L566.8,255.7z M564.9,257.5v2.1l1.5-0.4v-2.1L564.9,257.5z"/>
</g>
<g class="st0">
	<path d="M570.9,273.6v1.8c0,0.3,0,0.6,0,0.6s0,0.1,0.1,0.2c0,0,0.1,0,0.1,0c0.1,0,0.1,0,0.2-0.1l0,0.1l-0.9,0.4h-0.1v-0.6
		c-0.3,0.3-0.5,0.5-0.6,0.5c-0.1,0.1-0.3,0.1-0.4,0.1c-0.2,0-0.3,0-0.4-0.1s-0.2-0.2-0.3-0.4c0-0.2-0.1-0.4-0.1-0.7v-1.3
		c0-0.1,0-0.2,0-0.3c0-0.1-0.1-0.1-0.1-0.1c-0.1,0-0.2,0-0.3,0v-0.1h1.1v2c0,0.3,0,0.5,0.1,0.6c0.1,0.1,0.2,0.1,0.4,0.1
		c0.1,0,0.2,0,0.3-0.1c0.1-0.1,0.3-0.2,0.4-0.3v-1.7c0-0.2,0-0.3-0.1-0.3s-0.2-0.1-0.4-0.1v-0.1H570.9z"/>
	<path d="M572.2,276c0.1,0,0.2,0,0.3,0.1s0.1,0.2,0.1,0.3c0,0.1,0,0.2-0.1,0.3s-0.2,0.1-0.3,0.1c-0.1,0-0.2,0-0.3-0.1
		s-0.1-0.2-0.1-0.3c0-0.1,0-0.2,0.1-0.3S572.1,276,572.2,276z"/>
</g>
<g class="st0">
	<path d="M563.3,242.5v0.1h-1.9v-0.1h0.2c0.2,0,0.3-0.1,0.4-0.2c0.1-0.1,0.1-0.2,0.1-0.5v-2.9c0-0.2,0-0.4,0-0.4
		c0-0.1-0.1-0.1-0.1-0.1c-0.1-0.1-0.2-0.1-0.3-0.1h-0.2v-0.1h1.9v0.1h-0.2c-0.2,0-0.3,0.1-0.4,0.2c-0.1,0.1-0.1,0.2-0.1,0.5v2.9
		c0,0.2,0,0.4,0,0.4c0,0.1,0.1,0.1,0.1,0.1c0.1,0.1,0.2,0.1,0.3,0.1H563.3z"/>
</g>
<g class="st0">
	<path d="M589.7,209.4c0.1-0.2,0.2-0.5,0.4-0.7s0.4-0.4,0.6-0.5s0.5-0.3,0.8-0.4c0.3-0.1,0.6-0.1,0.9-0.1s0.5,0,0.8,0.1
		c0.2,0.1,0.4,0.2,0.5,0.4c0.1,0.2,0.2,0.3,0.2,0.6c0,0.2,0,0.4-0.1,0.7s-0.2,0.5-0.4,0.7c-0.2,0.2-0.4,0.4-0.6,0.6
		s-0.5,0.3-0.8,0.4c-0.3,0.1-0.6,0.1-0.8,0.1c-0.3,0-0.5,0-0.8-0.1c-0.2-0.1-0.4-0.2-0.5-0.4c-0.1-0.2-0.2-0.3-0.2-0.6
		C589.6,209.9,589.6,209.7,589.7,209.4z"/>
</g>
<g class="st0">
	<path d="M588,206.8v7.7h-0.4v-2.9l-1.9,0.5v-7.8h0.3v3L588,206.8z M586.2,208.6v2.1l1.5-0.4v-2.1L586.2,208.6z"/>
</g>
<line class="st1" x1="589.8" y1="210" x2="589.8" y2="231.3"/>
<g class="st0">
	<path d="M605.8,221.2c0.1-0.2,0.2-0.5,0.4-0.7s0.4-0.4,0.6-0.5c0.2-0.2,0.5-0.3,0.8-0.4c0.3-0.1,0.6-0.1,0.9-0.1s0.5,0,0.8,0.1
		c0.2,0.1,0.4,0.2,0.5,0.4c0.1,0.2,0.2,0.3,0.2,0.6c0,0.2,0,0.4-0.1,0.7s-0.2,0.5-0.4,0.7c-0.2,0.2-0.4,0.4-0.6,0.6
		s-0.5,0.3-0.8,0.4c-0.3,0.1-0.6,0.1-0.8,0.1c-0.3,0-0.5,0-0.7-0.1c-0.2-0.1-0.4-0.2-0.5-0.4c-0.1-0.2-0.2-0.3-0.2-0.6
		C605.6,221.7,605.7,221.5,605.8,221.2z"/>
</g>
<g class="st0">
	<path d="M602.1,216.4v2.4v0.9c0.1-0.1,0.2-0.2,0.4-0.3c0.1-0.1,0.2-0.1,0.3-0.2c0.1,0,0.2-0.1,0.3-0.1c0.1,0,0.2,0,0.4,0
		c0.2,0,0.3,0,0.5,0.1s0.3,0.2,0.4,0.3c0.1,0.1,0.2,0.2,0.2,0.4c0.1,0.1,0.1,0.3,0.1,0.4c0,0.1,0,0.3,0,0.4s-0.1,0.3-0.1,0.4
		c-0.1,0.2-0.2,0.3-0.3,0.4c-0.1,0.1-0.3,0.2-0.4,0.3c0,0-0.1,0.1-0.2,0.2s-0.2,0.2-0.4,0.3s-0.3,0.2-0.5,0.3
		c-0.2,0.1-0.3,0.2-0.4,0.3c-0.1,0.1-0.3,0.2-0.5,0.3v-8h0.4V216.4z M603.2,220c0-0.1-0.1-0.1-0.2-0.1c-0.1,0-0.2-0.1-0.2-0.1
		s-0.2,0-0.3,0.1c-0.1,0.1-0.2,0.1-0.2,0.3c-0.1,0.2-0.1,0.4-0.1,0.6c0,0.3,0,0.5,0,0.7v1.2c0.1-0.1,0.2-0.2,0.3-0.2
		s0.2-0.1,0.2-0.2c0.1-0.1,0.2-0.2,0.2-0.2c0.1-0.1,0.2-0.2,0.3-0.4c0.1-0.1,0.2-0.3,0.2-0.5c0.1-0.2,0.1-0.4,0-0.6
		C603.4,220.3,603.3,220.1,603.2,220z"/>
</g>
<line class="st1" x1="605.9" y1="221.8" x2="605.9" y2="232.2"/>
<g class="st0">
	<path d="M621.5,217.9c0.1-0.2,0.2-0.5,0.4-0.7s0.4-0.4,0.6-0.5c0.2-0.2,0.5-0.3,0.8-0.4c0.3-0.1,0.6-0.1,0.9-0.1s0.5,0,0.8,0.1
		c0.2,0.1,0.4,0.2,0.5,0.4c0.1,0.2,0.2,0.3,0.2,0.6c0,0.2,0,0.4-0.1,0.7s-0.2,0.5-0.4,0.7c-0.2,0.2-0.4,0.4-0.6,0.6
		s-0.5,0.3-0.8,0.4c-0.3,0.1-0.6,0.1-0.8,0.1c-0.3,0-0.5,0-0.7-0.1c-0.2-0.1-0.4-0.2-0.5-0.4c-0.1-0.2-0.2-0.3-0.2-0.6
		C621.4,218.3,621.4,218.1,621.5,217.9z"/>
</g>
<g class="st0">
	<path d="M617.8,213.1v2.4v0.9c0.1-0.1,0.2-0.2,0.4-0.3c0.1-0.1,0.2-0.1,0.3-0.2c0.1,0,0.2-0.1,0.3-0.1c0.1,0,0.2,0,0.4,0
		c0.2,0,0.3,0,0.5,0.1s0.3,0.2,0.4,0.3c0.1,0.1,0.2,0.2,0.2,0.4c0.1,0.1,0.1,0.3,0.1,0.4c0,0.1,0,0.3,0,0.4s-0.1,0.3-0.1,0.4
		c-0.1,0.2-0.2,0.3-0.3,0.4c-0.1,0.1-0.3,0.2-0.4,0.3c0,0-0.1,0.1-0.2,0.2s-0.2,0.2-0.4,0.3s-0.3,0.2-0.5,0.3
		c-0.2,0.1-0.3,0.2-0.4,0.3c-0.1,0.1-0.3,0.2-0.5,0.3v-8h0.4V213.1z M618.9,216.6c0-0.1-0.1-0.1-0.2-0.1c-0.1,0-0.2-0.1-0.2-0.1
		s-0.2,0-0.3,0.1c-0.1,0.1-0.2,0.1-0.2,0.3c-0.1,0.2-0.1,0.4-0.1,0.6c0,0.3,0,0.5,0,0.7v1.2c0.1-0.1,0.2-0.2,0.3-0.2
		s0.2-0.1,0.2-0.2c0.1-0.1,0.2-0.2,0.2-0.2c0.1-0.1,0.2-0.2,0.3-0.4c0.1-0.1,0.2-0.3,0.2-0.5c0.1-0.2,0.1-0.4,0-0.6
		C619.1,216.9,619,216.8,618.9,216.6z"/>
</g>
<line class="st1" x1="621.6" y1="218.4" x2="621.6" y2="233"/>
<path d="M589.6,230.5l32.2,1.7v1.7l-32.2-1.7V230.5z"/>
<g class="st0">
	<path d="M606.9,213.9l0-0.1c0.3,0,0.5-0.1,0.6-0.2c0.2-0.1,0.4-0.2,0.5-0.3c0.1-0.1,0.1-0.3,0.1-0.4c0-0.1,0-0.2-0.1-0.3
		c-0.1-0.1-0.2-0.1-0.3-0.1c-0.1,0-0.2,0-0.3,0.1c-0.1,0.1-0.2,0.1-0.3,0.3l-0.1-0.1c0.2-0.2,0.3-0.4,0.5-0.5
		c0.2-0.1,0.3-0.1,0.5-0.1c0.2,0,0.4,0.1,0.6,0.2c0.2,0.1,0.2,0.3,0.2,0.5c0,0.2,0,0.3-0.1,0.4c-0.1,0.1-0.2,0.2-0.3,0.3
		c-0.1,0.1-0.3,0.1-0.5,0.2c0.2,0.1,0.3,0.2,0.4,0.3c0.1,0.2,0.2,0.4,0.2,0.6c0,0.4-0.2,0.8-0.6,1.1c-0.3,0.2-0.7,0.4-1.1,0.4
		c-0.2,0-0.4,0-0.5-0.1c-0.1-0.1-0.1-0.1-0.1-0.2c0-0.1,0-0.2,0.1-0.2c0.1-0.1,0.1-0.1,0.2-0.1c0,0,0.1,0,0.1,0
		c0.1,0,0.2,0.1,0.3,0.2c0.1,0.1,0.3,0.1,0.3,0.1c0.1,0,0.2-0.1,0.3-0.2c0.1-0.2,0.2-0.4,0.2-0.6c0-0.2,0-0.4-0.1-0.5
		c-0.1-0.2-0.2-0.3-0.3-0.3C607.3,213.9,607.1,213.9,606.9,213.9z"/>
</g>
<g class="st0">
	<path d="M589.7,249.9c0.1-0.2,0.2-0.5,0.4-0.7s0.4-0.4,0.6-0.5s0.5-0.3,0.8-0.4c0.3-0.1,0.6-0.1,0.9-0.1s0.5,0,0.8,0.1
		c0.2,0.1,0.4,0.2,0.5,0.4c0.1,0.2,0.2,0.3,0.2,0.6c0,0.2,0,0.4-0.1,0.7s-0.2,0.5-0.4,0.7c-0.2,0.2-0.4,0.4-0.6,0.6
		s-0.5,0.3-0.8,0.4c-0.3,0.1-0.6,0.1-0.8,0.1c-0.3,0-0.5,0-0.8-0.1c-0.2-0.1-0.4-0.2-0.5-0.4c-0.1-0.2-0.2-0.3-0.2-0.6
		C589.6,250.4,589.6,250.2,589.7,249.9z"/>
</g>
<g class="st0">
	<path d="M588,247.3v7.7h-0.4v-2.9l-1.9,0.5v-7.8h0.3v3L588,247.3z M586.2,249.1v2.1l1.5-0.4v-2.1L586.2,249.1z"/>
</g>
<line class="st1" x1="589.8" y1="250.5" x2="589.8" y2="265.7"/>
<g class="st0">
	<path d="M607.6,261.7c0.1-0.2,0.2-0.5,0.4-0.7c0.2-0.2,0.4-0.4,0.6-0.5c0.2-0.2,0.5-0.3,0.8-0.4c0.3-0.1,0.6-0.1,0.9-0.1
		s0.5,0,0.8,0.1c0.2,0.1,0.4,0.2,0.5,0.4c0.1,0.2,0.2,0.3,0.2,0.6c0,0.2,0,0.4-0.1,0.7s-0.2,0.5-0.4,0.7c-0.2,0.2-0.4,0.4-0.6,0.6
		c-0.2,0.2-0.5,0.3-0.8,0.4c-0.3,0.1-0.6,0.1-0.8,0.1c-0.3,0-0.5,0-0.8-0.1c-0.2-0.1-0.4-0.2-0.5-0.4s-0.2-0.3-0.2-0.6
		C607.5,262.2,607.5,262,607.6,261.7z"/>
</g>
<g class="st0">
	<path d="M603.9,256.9v2.4v0.9c0.1-0.1,0.2-0.2,0.4-0.3c0.1-0.1,0.2-0.1,0.3-0.2c0.1,0,0.2-0.1,0.3-0.1c0.1,0,0.2,0,0.4,0
		c0.2,0,0.3,0,0.5,0.1s0.3,0.2,0.4,0.3c0.1,0.1,0.2,0.2,0.2,0.4c0.1,0.1,0.1,0.3,0.1,0.4c0,0.1,0,0.3,0,0.4s-0.1,0.3-0.1,0.4
		c-0.1,0.2-0.2,0.3-0.3,0.4c-0.1,0.1-0.3,0.2-0.4,0.3c0,0-0.1,0.1-0.2,0.2s-0.2,0.2-0.4,0.3s-0.3,0.2-0.5,0.3
		c-0.2,0.1-0.3,0.2-0.4,0.3c-0.1,0.1-0.3,0.2-0.5,0.3v-8h0.4V256.9z M605,260.5c0-0.1-0.1-0.1-0.2-0.1c-0.1,0-0.2-0.1-0.2-0.1
		s-0.2,0-0.3,0.1c-0.1,0.1-0.2,0.1-0.2,0.3c-0.1,0.2-0.1,0.4-0.1,0.6c0,0.3,0,0.5,0,0.7v1.2c0.1-0.1,0.2-0.2,0.3-0.2
		s0.2-0.1,0.2-0.2c0.1-0.1,0.2-0.2,0.2-0.2c0.1-0.1,0.2-0.2,0.3-0.4c0.1-0.1,0.2-0.3,0.2-0.5c0.1-0.2,0.1-0.4,0-0.6
		C605.2,260.8,605.1,260.6,605,260.5z"/>
</g>
<line class="st1" x1="607.7" y1="262.3" x2="607.7" y2="267.3"/>
<path d="M589.6,264.8l18.3,1.7v1.7l-18.3-1.7V264.8z"/>
<line class="st1" x1="629.2" y1="257.8" x2="629.2" y2="246.5"/>
<g class="st0">
	<path d="M625.2,258.4c0.1-0.2,0.2-0.5,0.4-0.7s0.4-0.4,0.6-0.5s0.5-0.3,0.8-0.4c0.3-0.1,0.6-0.1,0.9-0.1s0.5,0,0.8,0.1
		c0.2,0.1,0.4,0.2,0.5,0.4c0.1,0.2,0.2,0.3,0.2,0.6c0,0.2,0,0.4-0.1,0.7s-0.2,0.5-0.4,0.7c-0.2,0.2-0.4,0.4-0.6,0.6
		s-0.5,0.3-0.8,0.4c-0.3,0.1-0.6,0.1-0.8,0.1c-0.3,0-0.5,0-0.8-0.1c-0.2-0.1-0.4-0.2-0.5-0.4c-0.1-0.2-0.2-0.3-0.2-0.6
		C625,258.8,625.1,258.6,625.2,258.4z"/>
</g>
<g class="st0">
	<path d="M621.5,253.6v2.4v0.9c0.1-0.1,0.2-0.2,0.4-0.3c0.1-0.1,0.2-0.1,0.3-0.2c0.1,0,0.2-0.1,0.3-0.1c0.1,0,0.2,0,0.4,0
		c0.2,0,0.3,0,0.5,0.1s0.3,0.2,0.4,0.3c0.1,0.1,0.2,0.2,0.2,0.4c0.1,0.1,0.1,0.3,0.1,0.4c0,0.1,0,0.3,0,0.4s-0.1,0.3-0.1,0.4
		c-0.1,0.2-0.2,0.3-0.3,0.4c-0.1,0.1-0.3,0.2-0.4,0.3c0,0-0.1,0.1-0.2,0.2s-0.2,0.2-0.4,0.3s-0.3,0.2-0.5,0.3
		c-0.2,0.1-0.3,0.2-0.4,0.3c-0.1,0.1-0.3,0.2-0.5,0.3v-8h0.4V253.6z M622.6,257.1c0-0.1-0.1-0.1-0.2-0.1c-0.1,0-0.2-0.1-0.2-0.1
		s-0.2,0-0.3,0.1c-0.1,0.1-0.2,0.1-0.2,0.3c-0.1,0.2-0.1,0.4-0.1,0.6c0,0.3,0,0.5,0,0.7v1.2c0.1-0.1,0.2-0.2,0.3-0.2
		s0.2-0.1,0.2-0.2c0.1-0.1,0.2-0.2,0.2-0.2c0.1-0.1,0.2-0.2,0.3-0.4c0.1-0.1,0.2-0.3,0.2-0.5c0.1-0.2,0.1-0.4,0-0.6
		C622.8,257.4,622.7,257.3,622.6,257.1z"/>
</g>
<g class="st0">
	<path d="M585.7,271.9v4c0,0.2,0,0.3,0,0.4c0,0.1,0.1,0.1,0.1,0.1c0.1,0,0.2,0,0.3,0v0.1h-1.5v-0.1c0.1,0,0.2,0,0.3,0
		c0,0,0.1-0.1,0.1-0.1c0-0.1,0-0.2,0-0.4v-2.7c0-0.3,0-0.5,0-0.6c0-0.1,0-0.1-0.1-0.2c0,0-0.1,0-0.1,0c-0.1,0-0.1,0-0.2,0.1
		l-0.1-0.1l0.9-0.4H585.7z"/>
	<path d="M587.1,274.7c0,0.4,0.1,0.8,0.3,1.1s0.5,0.4,0.8,0.4c0.2,0,0.4-0.1,0.5-0.2c0.1-0.1,0.3-0.3,0.4-0.6l0.1,0.1
		c0,0.3-0.2,0.6-0.4,0.8s-0.5,0.4-0.8,0.4c-0.4,0-0.7-0.1-0.9-0.4c-0.3-0.3-0.4-0.7-0.4-1.1c0-0.5,0.1-0.9,0.4-1.2s0.6-0.4,1-0.4
		c0.3,0,0.6,0.1,0.8,0.3c0.2,0.2,0.3,0.5,0.3,0.9H587.1z M587.1,274.6h1.4c0-0.2,0-0.3-0.1-0.4c-0.1-0.1-0.1-0.2-0.2-0.3
		c-0.1-0.1-0.2-0.1-0.3-0.1c-0.2,0-0.3,0.1-0.5,0.2C587.2,274.1,587.1,274.3,587.1,274.6z"/>
	<path d="M592.2,273.6v1.8c0,0.3,0,0.6,0,0.6s0,0.1,0.1,0.2c0,0,0.1,0,0.1,0c0.1,0,0.1,0,0.2-0.1l0,0.1l-0.9,0.4h-0.1v-0.6
		c-0.3,0.3-0.5,0.5-0.6,0.5c-0.1,0.1-0.3,0.1-0.4,0.1c-0.2,0-0.3,0-0.4-0.1s-0.2-0.2-0.3-0.4c0-0.2-0.1-0.4-0.1-0.7v-1.3
		c0-0.1,0-0.2,0-0.3c0-0.1-0.1-0.1-0.1-0.1c-0.1,0-0.2,0-0.3,0v-0.1h1.1v2c0,0.3,0,0.5,0.1,0.6c0.1,0.1,0.2,0.1,0.4,0.1
		c0.1,0,0.2,0,0.3-0.1c0.1-0.1,0.3-0.2,0.4-0.3v-1.7c0-0.2,0-0.3-0.1-0.3s-0.2-0.1-0.4-0.1v-0.1H592.2z"/>
	<path d="M595.5,275.5c-0.1,0.4-0.2,0.7-0.5,0.9c-0.2,0.2-0.5,0.3-0.8,0.3c-0.3,0-0.6-0.1-0.9-0.4c-0.3-0.3-0.4-0.7-0.4-1.2
		c0-0.5,0.1-0.9,0.4-1.2s0.6-0.4,1-0.4c0.3,0,0.5,0.1,0.7,0.2c0.2,0.2,0.3,0.3,0.3,0.5c0,0.1,0,0.2-0.1,0.2
		c-0.1,0.1-0.1,0.1-0.2,0.1c-0.1,0-0.2,0-0.3-0.1c0,0-0.1-0.1-0.1-0.3c0-0.1-0.1-0.2-0.1-0.3c-0.1-0.1-0.2-0.1-0.3-0.1
		c-0.2,0-0.4,0.1-0.5,0.2c-0.2,0.2-0.3,0.5-0.3,0.9c0,0.4,0.1,0.7,0.3,1c0.2,0.3,0.4,0.4,0.7,0.4c0.2,0,0.4-0.1,0.6-0.2
		C595.2,275.9,595.3,275.7,595.5,275.5L595.5,275.5z"/>
	<path d="M596.8,271.9v2.2c0.2-0.3,0.4-0.4,0.6-0.5c0.1-0.1,0.3-0.1,0.4-0.1c0.2,0,0.3,0,0.4,0.1c0.1,0.1,0.2,0.2,0.3,0.4
		c0,0.1,0.1,0.4,0.1,0.8v1.1c0,0.2,0,0.3,0,0.4c0,0.1,0.1,0.1,0.1,0.1c0.1,0,0.1,0,0.3,0v0.1h-1.5v-0.1h0.1c0.1,0,0.2,0,0.3-0.1
		s0.1-0.1,0.1-0.2c0,0,0-0.1,0-0.3v-1.1c0-0.3,0-0.5-0.1-0.6s-0.1-0.2-0.2-0.2c-0.1-0.1-0.2-0.1-0.3-0.1c-0.1,0-0.2,0-0.3,0.1
		c-0.1,0.1-0.3,0.2-0.4,0.3v1.6c0,0.2,0,0.3,0,0.4c0,0.1,0.1,0.1,0.1,0.1s0.2,0.1,0.3,0.1v0.1h-1.5v-0.1c0.1,0,0.2,0,0.3-0.1
		c0,0,0.1-0.1,0.1-0.1s0-0.2,0-0.4v-2.7c0-0.3,0-0.6,0-0.6c0-0.1,0-0.1-0.1-0.2s-0.1,0-0.1,0c0,0-0.1,0-0.2,0.1l0-0.1l0.9-0.4H596.8
		z"/>
</g>
<g class="st0">
	<path d="M607.3,272.6v1h0.7v0.2h-0.7v2c0,0.2,0,0.3,0.1,0.4c0.1,0.1,0.1,0.1,0.2,0.1c0.1,0,0.1,0,0.2-0.1s0.1-0.1,0.2-0.2h0.1
		c-0.1,0.2-0.2,0.4-0.3,0.5c-0.1,0.1-0.3,0.2-0.4,0.2c-0.1,0-0.2,0-0.3-0.1c-0.1-0.1-0.2-0.1-0.2-0.2s-0.1-0.3-0.1-0.5v-2h-0.5v-0.1
		c0.1,0,0.2-0.1,0.4-0.2c0.1-0.1,0.2-0.3,0.3-0.4c0.1-0.1,0.1-0.2,0.2-0.5H607.3z"/>
	<path d="M608.9,274.7c0,0.4,0.1,0.8,0.3,1.1s0.5,0.4,0.8,0.4c0.2,0,0.4-0.1,0.5-0.2c0.1-0.1,0.3-0.3,0.4-0.6l0.1,0.1
		c0,0.3-0.2,0.6-0.4,0.8s-0.5,0.4-0.8,0.4c-0.4,0-0.7-0.1-0.9-0.4c-0.3-0.3-0.4-0.7-0.4-1.1c0-0.5,0.1-0.9,0.4-1.2s0.6-0.4,1-0.4
		c0.3,0,0.6,0.1,0.8,0.3c0.2,0.2,0.3,0.5,0.3,0.9H608.9z M608.9,274.6h1.4c0-0.2,0-0.3-0.1-0.4c-0.1-0.1-0.1-0.2-0.2-0.3
		c-0.1-0.1-0.2-0.1-0.3-0.1c-0.2,0-0.3,0.1-0.5,0.2C609,274.1,608.9,274.3,608.9,274.6z"/>
	<path d="M612.2,272.6v1h0.7v0.2h-0.7v2c0,0.2,0,0.3,0.1,0.4c0.1,0.1,0.1,0.1,0.2,0.1c0.1,0,0.1,0,0.2-0.1s0.1-0.1,0.2-0.2h0.1
		c-0.1,0.2-0.2,0.4-0.3,0.5c-0.1,0.1-0.3,0.2-0.4,0.2c-0.1,0-0.2,0-0.3-0.1c-0.1-0.1-0.2-0.1-0.2-0.2s-0.1-0.3-0.1-0.5v-2h-0.5v-0.1
		c0.1,0,0.2-0.1,0.4-0.2c0.1-0.1,0.2-0.3,0.3-0.4c0.1-0.1,0.1-0.2,0.2-0.5H612.2z"/>
</g>
<g class="st0">
	<path d="M626.4,273.5v1h-0.1c-0.1-0.3-0.2-0.5-0.3-0.7c-0.1-0.1-0.3-0.2-0.5-0.2c-0.2,0-0.3,0-0.4,0.1c-0.1,0.1-0.1,0.2-0.1,0.3
		c0,0.1,0,0.2,0.1,0.3c0.1,0.1,0.2,0.2,0.4,0.3l0.5,0.2c0.4,0.2,0.7,0.5,0.7,0.9c0,0.3-0.1,0.5-0.3,0.7c-0.2,0.2-0.4,0.3-0.7,0.3
		c-0.2,0-0.4,0-0.6-0.1c-0.1,0-0.1,0-0.2,0c-0.1,0-0.1,0-0.1,0.1h-0.1v-1.1h0.1c0.1,0.3,0.2,0.5,0.4,0.7c0.2,0.2,0.4,0.2,0.6,0.2
		c0.2,0,0.3,0,0.4-0.1s0.1-0.2,0.1-0.3c0-0.2-0.1-0.3-0.2-0.4s-0.3-0.2-0.6-0.4s-0.5-0.3-0.6-0.4c-0.1-0.1-0.1-0.3-0.1-0.5
		c0-0.2,0.1-0.5,0.3-0.6c0.2-0.2,0.4-0.3,0.7-0.3c0.1,0,0.3,0,0.4,0.1c0.1,0,0.2,0,0.2,0c0,0,0.1,0,0.1,0s0,0,0.1-0.1H626.4z"/>
	<path d="M628.5,273.5c0.5,0,0.8,0.2,1.1,0.5c0.2,0.3,0.4,0.6,0.4,1c0,0.3-0.1,0.5-0.2,0.8c-0.1,0.3-0.3,0.5-0.5,0.6
		c-0.2,0.1-0.5,0.2-0.8,0.2c-0.5,0-0.8-0.2-1.1-0.5c-0.2-0.3-0.3-0.6-0.3-1c0-0.3,0.1-0.6,0.2-0.8s0.3-0.5,0.5-0.6
		C628,273.6,628.3,273.5,628.5,273.5z M628.4,273.7c-0.1,0-0.2,0-0.4,0.1c-0.1,0.1-0.2,0.2-0.3,0.4s-0.1,0.4-0.1,0.7
		c0,0.4,0.1,0.8,0.3,1.1c0.2,0.3,0.4,0.5,0.7,0.5c0.2,0,0.4-0.1,0.5-0.3s0.2-0.5,0.2-0.9c0-0.5-0.1-1-0.3-1.3
		C628.9,273.8,628.7,273.7,628.4,273.7z"/>
</g>
<path d="M523.7,243.9c6-3.4,24-3.4,30.1,0l-0.1,0.1c-6-2.7-24-2.7-30,0V243.9z"/>
<line class="st1" x1="83.9" y1="288.7" x2="934.4" y2="288.7"/>
<line class="st1" x1="83.9" y1="292.1" x2="934.4" y2="292.1"/>
<line class="st1" x1="83.9" y1="295.5" x2="934.4" y2="295.5"/>
<line class="st1" x1="83.9" y1="298.8" x2="934.4" y2="298.8"/>
<line class="st1" x1="83.9" y1="302.2" x2="934.4" y2="302.2"/>
<g class="st0">
	<path d="M51.5,297.4l0.6-0.1c0,0.1,0,0.1,0,0.2c0,0.1,0,0.3,0.1,0.4c0.1,0.1,0.2,0.3,0.3,0.3c0.1,0.1,0.3,0.1,0.4,0.1
		c0.2,0,0.4-0.1,0.6-0.2c0.2-0.1,0.3-0.3,0.5-0.6s0.2-0.5,0.2-0.7c0-0.3-0.1-0.5-0.2-0.6c-0.2-0.2-0.4-0.2-0.6-0.2
		c-0.2,0-0.3,0-0.5,0.1c-0.2,0.1-0.3,0.2-0.4,0.4l-0.5,0l0.7-2.5h2.4l-0.1,0.5h-1.8l-0.4,1.2c0.1-0.1,0.3-0.2,0.4-0.2
		s0.3-0.1,0.4-0.1c0.4,0,0.7,0.1,0.9,0.4s0.4,0.6,0.4,1c0,0.4-0.1,0.7-0.2,1c-0.2,0.3-0.4,0.6-0.7,0.7s-0.6,0.3-0.9,0.3
		c-0.3,0-0.5-0.1-0.7-0.2c-0.2-0.1-0.4-0.3-0.5-0.5S51.5,297.7,51.5,297.4C51.5,297.5,51.5,297.5,51.5,297.4z"/>
</g>
<g class="st0">
	<path d="M355.3,284.2c0.2,0.4,0.3,0.7,0.5,1c0.2,0.3,0.5,0.7,0.7,1c0.3,0.4,0.5,0.8,0.8,1.2c0.1,0.2,0.2,0.4,0.3,0.6
		c0.1,0.2,0.2,0.5,0.3,0.7s0.1,0.4,0.2,0.7c0,0.2,0.1,0.4,0.1,0.5c0,0.3,0.1,0.6,0.1,0.8c0,0.3,0,0.5,0,0.8c0,0.8-0.2,1.6-0.4,2.3
		l-0.2,0c0.1-0.3,0.2-0.7,0.3-1.1c0.1-0.4,0.1-0.8,0.1-1.2c0-0.3,0-0.7-0.1-1.1c-0.1-0.4-0.1-0.7-0.3-1.1c-0.2-0.6-0.5-1.1-0.7-1.4
		c-0.3-0.4-0.5-0.6-0.7-0.7c-0.2-0.1-0.3-0.2-0.4-0.2c-0.1-0.1-0.3-0.1-0.4-0.1c-0.1,0-0.3-0.1-0.4-0.1h-0.2v-3.5h0.2
		C355.1,283.5,355.2,283.8,355.3,284.2z"/>
</g>
<line class="st1" x1="355.1" y1="294.9" x2="355.1" y2="283.7"/>
<g class="st0">
	<path d="M351.1,295.5c0.1-0.2,0.2-0.5,0.4-0.7s0.4-0.4,0.6-0.5c0.2-0.2,0.5-0.3,0.8-0.4c0.3-0.1,0.6-0.1,0.9-0.1s0.5,0,0.8,0.1
		c0.2,0.1,0.4,0.2,0.5,0.4c0.1,0.2,0.2,0.3,0.2,0.6c0,0.2,0,0.4-0.1,0.7s-0.2,0.5-0.4,0.7c-0.2,0.2-0.4,0.4-0.6,0.6
		s-0.5,0.3-0.8,0.4c-0.3,0.1-0.6,0.1-0.8,0.1c-0.3,0-0.5,0-0.7-0.1c-0.2-0.1-0.4-0.2-0.5-0.4s-0.2-0.3-0.2-0.6
		C351,296,351,295.7,351.1,295.5z"/>
</g>
<g class="st0">
	<path d="M347.4,290.7v2.4v0.9c0.1-0.1,0.2-0.2,0.4-0.3c0.1-0.1,0.2-0.1,0.3-0.2c0.1,0,0.2-0.1,0.3-0.1c0.1,0,0.2,0,0.4,0
		c0.2,0,0.3,0,0.5,0.1c0.1,0.1,0.3,0.2,0.4,0.3c0.1,0.1,0.2,0.2,0.2,0.4c0.1,0.1,0.1,0.3,0.1,0.4c0,0.1,0,0.3,0,0.4
		s-0.1,0.3-0.1,0.4c-0.1,0.2-0.2,0.3-0.3,0.4c-0.1,0.1-0.3,0.2-0.4,0.3c0,0-0.1,0.1-0.2,0.2c-0.1,0.1-0.2,0.2-0.4,0.3
		s-0.3,0.2-0.5,0.3c-0.2,0.1-0.3,0.2-0.4,0.3c-0.1,0.1-0.3,0.2-0.5,0.3v-8h0.4V290.7z M348.5,294.2c0-0.1-0.1-0.1-0.2-0.1
		c-0.1,0-0.2-0.1-0.2-0.1c-0.1,0-0.2,0-0.3,0.1c-0.1,0.1-0.2,0.1-0.2,0.3c-0.1,0.2-0.1,0.4-0.1,0.6c0,0.3,0,0.5,0,0.7v1.2
		c0.1-0.1,0.2-0.2,0.3-0.2c0.1-0.1,0.2-0.1,0.2-0.2s0.2-0.2,0.2-0.2c0.1-0.1,0.2-0.2,0.3-0.4c0.1-0.1,0.2-0.3,0.2-0.5
		c0.1-0.2,0.1-0.4,0-0.6C348.7,294.6,348.6,294.4,348.5,294.2z"/>
</g>
<g class="st0">
	<path d="M323.9,301.4c-0.2,0-0.4,0.1-0.6,0.1c-0.2,0-0.4,0-0.6,0c-0.2,0-0.4,0-0.6-0.1s-0.3-0.1-0.4-0.1c-0.5-0.2-0.9-0.5-1.3-0.8
		s-0.6-0.6-0.7-0.9s-0.3-0.6-0.4-0.9c-0.1-0.3-0.1-0.6-0.1-1c0-0.4,0-0.7,0.1-1.1s0.2-0.7,0.4-1c0.2-0.3,0.3-0.6,0.5-0.9
		c0.2-0.3,0.4-0.5,0.6-0.7c0.2-0.2,0.5-0.5,0.8-0.7s0.6-0.5,0.9-0.7c0-0.1,0-0.2,0-0.2s0-0.1,0-0.2s0-0.2,0-0.2c0-0.1,0-0.2,0-0.3
		c0-0.1,0-0.2,0-0.3c0-0.1,0-0.3,0-0.5s0-0.4,0-0.7s0-0.5,0.1-0.8c0-0.2,0.1-0.4,0.2-0.6c0.1-0.3,0.2-0.5,0.4-0.8s0.3-0.5,0.5-0.6
		s0.3-0.3,0.5-0.3c0.1,0,0.2,0,0.2,0.1c0.1,0.1,0.2,0.2,0.3,0.4s0.2,0.3,0.2,0.5s0.2,0.4,0.2,0.6c0.1,0.2,0.1,0.4,0.1,0.6
		c0,0.2,0.1,0.4,0.1,0.5c0,0.4,0,0.7,0,0.9c0,0.3-0.1,0.5-0.2,0.7c-0.1,0.2-0.1,0.4-0.2,0.6s-0.2,0.4-0.3,0.5
		c-0.1,0.2-0.2,0.3-0.3,0.5c-0.1,0.1-0.2,0.3-0.3,0.4c-0.1,0.1-0.2,0.3-0.4,0.4c-0.1,0.1-0.3,0.2-0.4,0.3c0.1,0.3,0.1,0.7,0.2,0.9
		c0,0.1,0,0.2,0.1,0.4c0,0.1,0,0.2,0.1,0.3s0,0.2,0,0.2s0,0.1,0,0.1c0.2,0,0.3,0,0.5,0c0.2,0,0.3,0,0.5,0.1c0.2,0,0.3,0.1,0.4,0.1
		c0.1,0.1,0.2,0.1,0.3,0.2c0.4,0.3,0.6,0.6,0.8,0.9c0.2,0.3,0.2,0.7,0.3,1.1c0,0.3,0,0.6-0.1,0.9s-0.2,0.6-0.3,0.8s-0.4,0.5-0.6,0.7
		c-0.3,0.2-0.6,0.4-0.9,0.5c0,0.3,0.1,0.5,0.1,0.8c0,0.2,0.1,0.4,0.1,0.6s0,0.3,0.1,0.4c0.1,0.4,0.1,0.7,0.1,1s-0.1,0.5-0.2,0.6
		c-0.1,0.1-0.2,0.3-0.3,0.4c-0.1,0.1-0.2,0.2-0.3,0.3c-0.1,0.1-0.3,0.2-0.5,0.3c-0.2,0.1-0.4,0.1-0.6,0.1c-0.2,0-0.4,0-0.6,0
		s-0.5-0.1-0.7-0.2c-0.2-0.1-0.4-0.3-0.6-0.5c-0.2-0.2-0.3-0.4-0.3-0.7c0-0.2,0-0.3,0-0.5c0-0.2,0.1-0.3,0.2-0.4s0.2-0.2,0.3-0.3
		c0.1-0.1,0.3-0.1,0.5-0.2c0.1,0,0.2,0,0.4,0.1c0.1,0,0.2,0.1,0.3,0.2s0.2,0.2,0.3,0.3c0.1,0.1,0.1,0.3,0.1,0.4
		c0,0.2-0.1,0.5-0.2,0.7c-0.2,0.2-0.5,0.4-0.9,0.5c0.1,0.1,0.2,0.2,0.4,0.3s0.4,0.1,0.7,0.1c0.3,0,0.6-0.1,0.9-0.3
		c0.3-0.2,0.5-0.4,0.6-0.7c0.1-0.2,0.1-0.4,0.1-0.7c0-0.3,0-0.6-0.1-0.8c0,0,0-0.2-0.1-0.3c0-0.2-0.1-0.4-0.1-0.6
		C324,301.9,324,301.7,323.9,301.4z M322.6,297.6c-0.2,0.1-0.3,0.2-0.4,0.4c-0.1,0.1-0.2,0.3-0.2,0.4s-0.1,0.3,0,0.4s0,0.2,0.1,0.4
		c0,0.1,0.1,0.2,0.2,0.4s0.2,0.2,0.3,0.3c0.1,0.1,0.2,0.2,0.3,0.2c0,0,0,0,0,0c0,0,0,0,0,0c0,0,0,0,0,0c-0.2-0.1-0.4-0.2-0.6-0.4
		c-0.2-0.1-0.3-0.2-0.3-0.3c-0.1-0.1-0.1-0.2-0.2-0.3c-0.1-0.1-0.1-0.2-0.1-0.3c0-0.1-0.1-0.2-0.1-0.3c0-0.1,0-0.2,0-0.4
		c0-0.1,0-0.3,0-0.5c0-0.2,0.1-0.3,0.2-0.5s0.2-0.3,0.3-0.5c0.1-0.2,0.3-0.3,0.4-0.4c0.1-0.1,0.2-0.1,0.2-0.2c0.1,0,0.1-0.1,0.2-0.1
		c0.1,0,0.1-0.1,0.2-0.1c0.1,0,0.1,0,0.2-0.1l-0.3-1.8c-0.1,0-0.2,0.1-0.4,0.3c-0.2,0.1-0.4,0.3-0.6,0.5c-0.2,0.2-0.4,0.4-0.6,0.6
		s-0.4,0.4-0.5,0.7c-0.2,0.4-0.4,0.7-0.6,1.1c-0.1,0.3-0.2,0.7-0.2,1.1c0,0.4,0.2,0.8,0.4,1.2c0.2,0.4,0.5,0.7,0.9,0.9
		c0.4,0.2,0.8,0.4,1.2,0.5c0.5,0.1,0.9,0.1,1.4,0c-0.1-0.7-0.2-1.3-0.3-1.8c0-0.2-0.1-0.4-0.1-0.7c0-0.2-0.1-0.4-0.1-0.6
		s-0.1-0.4-0.1-0.6C323,297.5,322.8,297.5,322.6,297.6z M324.1,288.6c-0.3,0-0.5,0.1-0.7,0.4s-0.4,0.6-0.5,0.9
		c-0.1,0.4-0.2,0.8-0.2,1.2c0,0.5,0,0.9,0,1.3c0.2-0.2,0.5-0.4,0.7-0.6c0.2-0.2,0.5-0.5,0.7-0.8c0.2-0.3,0.4-0.5,0.5-0.8
		c0.1-0.3,0.2-0.5,0.2-0.8c0-0.1,0-0.2,0-0.3c0-0.1-0.1-0.2-0.1-0.3c0-0.1-0.1-0.2-0.2-0.2C324.3,288.6,324.2,288.6,324.1,288.6z
		 M324.1,301c0.3-0.1,0.5-0.2,0.7-0.4s0.3-0.3,0.4-0.5c0.1-0.2,0.1-0.4,0.1-0.6c0-0.2,0-0.4,0-0.5c0-0.1,0-0.3-0.1-0.5
		c0-0.2-0.1-0.4-0.2-0.5s-0.3-0.3-0.5-0.4c-0.2-0.1-0.5-0.2-0.9-0.1L324.1,301z"/>
</g>
<line class="st6" x1="416.8" y1="305.6" x2="422.8" y2="305.6"/>
<g class="st0">
	<path d="M417.7,307.3c0.1-0.2,0.2-0.5,0.4-0.7s0.4-0.4,0.6-0.5c0.2-0.2,0.5-0.3,0.8-0.4c0.3-0.1,0.6-0.1,0.9-0.1s0.5,0,0.8,0.1
		c0.2,0.1,0.4,0.2,0.5,0.4c0.1,0.2,0.2,0.3,0.2,0.6c0,0.2,0,0.4-0.1,0.7s-0.2,0.5-0.4,0.7c-0.2,0.2-0.4,0.4-0.6,0.6
		s-0.5,0.3-0.8,0.4c-0.3,0.1-0.6,0.1-0.8,0.1c-0.3,0-0.5,0-0.7-0.1c-0.2-0.1-0.4-0.2-0.5-0.4s-0.2-0.3-0.2-0.6
		C417.6,307.8,417.7,307.5,417.7,307.3z"/>
</g>
<line class="st1" x1="421.7" y1="306.7" x2="421.7" y2="284.5"/>
<g class="st0">
	<path d="M429.1,293.8c0.1-0.2,0.2-0.5,0.4-0.7s0.4-0.4,0.6-0.5c0.2-0.2,0.5-0.3,0.8-0.4c0.3-0.1,0.6-0.1,0.9-0.1s0.5,0,0.8,0.1
		c0.2,0.1,0.4,0.2,0.5,0.4c0.1,0.2,0.2,0.3,0.2,0.6c0,0.2,0,0.4-0.1,0.7s-0.2,0.5-0.4,0.7c-0.2,0.2-0.4,0.4-0.6,0.6
		s-0.5,0.3-0.8,0.4c-0.3,0.1-0.6,0.1-0.8,0.1c-0.3,0-0.5,0-0.7-0.1c-0.2-0.1-0.4-0.2-0.5-0.4s-0.2-0.3-0.2-0.6
		C429,294.3,429,294,429.1,293.8z"/>
</g>
<g class="st0">
	<path d="M427.4,291.1v7.7h-0.4V296l-1.9,0.5v-7.8h0.3v3L427.4,291.1z M425.6,292.9v2.1l1.5-0.4v-2.1L425.6,292.9z"/>
</g>
<line class="st1" x1="433.1" y1="293.2" x2="433.1" y2="282.8"/>
<path d="M421.5,283.7l11.8-1.7v1.7l-11.8,1.7V283.7z"/>
<line class="st1" x1="449.2" y1="289.3" x2="449.2" y2="300.5"/>
<g class="st0">
	<path d="M449.1,288.7c0.1-0.2,0.2-0.5,0.4-0.7s0.4-0.4,0.6-0.5c0.2-0.2,0.5-0.3,0.8-0.4c0.3-0.1,0.6-0.1,0.9-0.1s0.5,0,0.8,0.1
		c0.2,0.1,0.4,0.2,0.5,0.4c0.1,0.2,0.2,0.3,0.2,0.6c0,0.2,0,0.4-0.1,0.7s-0.2,0.5-0.4,0.7c-0.2,0.2-0.4,0.4-0.6,0.6
		s-0.5,0.3-0.8,0.4c-0.3,0.1-0.6,0.1-0.8,0.1c-0.3,0-0.5,0-0.7-0.1c-0.2-0.1-0.4-0.2-0.5-0.4s-0.2-0.3-0.2-0.6
		C449,289.2,449,289,449.1,288.7z"/>
</g>
<path class="st1" d="M439.6,288.7v13.5"/>
<path class="st1" d="M319.6,287h-1.4v19.1h1.4"/>
<path class="st1" d="M325.7,287h1.4v19.1h-1.4"/>
<path class="st1" d="M319.6,246.5h-1.4v19.1h1.4"/>
<path class="st1" d="M325.7,246.5h1.4v19.1h-1.4"/>
<path class="st8" d="M310.2,230.6c6.2-0.3,12.3,1.2,17.6,4.3c1,0.6,2,1.3,3,2.1"/>
<path d="M332.5,238.8c-1.2-0.6-2.4-1-3.7-1.2l1.9-0.8l0.9-1.8C331.7,236.3,332,237.6,332.5,238.8z"/>
<polyline class="st8" points="513.7,242.6 509.2,242.7 509.2,264.8 513.7,264.8 "/>
<polyline class="st8" points="642,242.1 657,242.1 657,285.3 642,285.3 "/>
<polyline class="st4" points="485,327.4 485,280.6 544.4,280.6 544.4,327.4 "/>
<g class="st0">
	<path d="M494.1,297.2l1.7-0.2c0.1,0.6,0.3,1,0.6,1.2c0.3,0.3,0.7,0.4,1.3,0.4c0.6,0,1-0.1,1.3-0.4c0.3-0.2,0.4-0.5,0.4-0.8
		c0-0.2-0.1-0.4-0.2-0.5s-0.3-0.3-0.6-0.4c-0.2-0.1-0.7-0.2-1.4-0.4c-0.9-0.2-1.6-0.5-2-0.8c-0.5-0.5-0.8-1-0.8-1.7
		c0-0.4,0.1-0.8,0.4-1.2s0.6-0.7,1.1-0.9s1-0.3,1.7-0.3c1.1,0,1.9,0.2,2.4,0.7s0.8,1.1,0.9,1.9l-1.7,0.1c-0.1-0.4-0.2-0.8-0.5-1
		s-0.6-0.3-1.1-0.3c-0.5,0-0.9,0.1-1.2,0.3c-0.2,0.1-0.3,0.3-0.3,0.5c0,0.2,0.1,0.4,0.3,0.5c0.2,0.2,0.8,0.4,1.6,0.6
		s1.5,0.4,1.9,0.6s0.7,0.5,0.9,0.9s0.3,0.8,0.3,1.4c0,0.5-0.1,1-0.4,1.4s-0.7,0.7-1.2,1s-1.1,0.3-1.9,0.3c-1.1,0-1.9-0.3-2.5-0.8
		S494.2,298.2,494.1,297.2z"/>
	<path d="M502.5,300v-8.6h1.6v4.6l1.9-2.2h2l-2.1,2.3l2.3,3.9h-1.8l-1.6-2.8l-0.8,0.8v2H502.5z"/>
	<path d="M508.8,297.8l1.6-0.2c0.1,0.4,0.2,0.7,0.4,0.9c0.2,0.2,0.5,0.3,0.8,0.3c0.3,0,0.6-0.1,0.9-0.4c0.2-0.3,0.3-0.6,0.3-1
		c0-0.4-0.1-0.7-0.3-1s-0.5-0.4-0.8-0.4c-0.2,0-0.5,0-0.8,0.1l0.2-1.3c0.4,0,0.8-0.1,1-0.3s0.4-0.5,0.4-0.8c0-0.3-0.1-0.5-0.3-0.7
		s-0.4-0.3-0.7-0.3c-0.3,0-0.5,0.1-0.7,0.3s-0.3,0.5-0.4,0.9l-1.5-0.3c0.1-0.5,0.3-0.9,0.5-1.2s0.5-0.6,0.9-0.7s0.8-0.3,1.3-0.3
		c0.8,0,1.5,0.3,1.9,0.8c0.4,0.4,0.6,0.9,0.6,1.4c0,0.8-0.4,1.4-1.2,1.8c0.5,0.1,0.9,0.3,1.2,0.7s0.4,0.8,0.4,1.3
		c0,0.8-0.3,1.4-0.8,1.9s-1.2,0.8-2.1,0.8c-0.8,0-1.4-0.2-1.9-0.7S508.9,298.5,508.8,297.8z"/>
	<path d="M515.9,300v-1.6h1.6v1.6H515.9z"/>
	<path d="M523.1,300h-1.6v-6.2c-0.6,0.6-1.3,1-2.1,1.2v-1.5c0.4-0.1,0.9-0.4,1.4-0.8s0.8-0.9,1-1.4h1.3V300z"/>
	<path d="M525.9,300v-1.6h1.6v1.6H525.9z"/>
	<path d="M533.1,300h-1.6v-6.2c-0.6,0.6-1.3,1-2.1,1.2v-1.5c0.4-0.1,0.9-0.4,1.4-0.8s0.8-0.9,1-1.4h1.3V300z"/>
</g>
<polyline class="st4" points="90.8,327.4 90.8,280.6 298,280.6 298,327.4 "/>
<g class="st0">
	<path d="M171.1,297.2l1.7-0.2c0.1,0.6,0.3,1,0.6,1.2c0.3,0.3,0.7,0.4,1.3,0.4c0.6,0,1-0.1,1.3-0.4c0.3-0.2,0.4-0.5,0.4-0.8
		c0-0.2-0.1-0.4-0.2-0.5s-0.3-0.3-0.6-0.4c-0.2-0.1-0.7-0.2-1.4-0.4c-0.9-0.2-1.6-0.5-2-0.8c-0.5-0.5-0.8-1-0.8-1.7
		c0-0.4,0.1-0.8,0.4-1.2s0.6-0.7,1.1-0.9s1-0.3,1.7-0.3c1.1,0,1.9,0.2,2.4,0.7s0.8,1.1,0.9,1.9l-1.7,0.1c-0.1-0.4-0.2-0.8-0.5-1
		s-0.6-0.3-1.1-0.3c-0.5,0-0.9,0.1-1.2,0.3c-0.2,0.1-0.3,0.3-0.3,0.5c0,0.2,0.1,0.4,0.3,0.5c0.2,0.2,0.8,0.4,1.6,0.6
		s1.5,0.4,1.9,0.6s0.7,0.5,0.9,0.9s0.3,0.8,0.3,1.4c0,0.5-0.1,1-0.4,1.4s-0.7,0.7-1.2,1s-1.1,0.3-1.9,0.3c-1.1,0-1.9-0.3-2.5-0.8
		S171.2,298.2,171.1,297.2z"/>
	<path d="M179.5,300v-8.6h1.6v4.6l1.9-2.2h2l-2.1,2.3l2.3,3.9h-1.8l-1.6-2.8l-0.8,0.8v2H179.5z"/>
	<path d="M185.8,297.8l1.6-0.2c0.1,0.4,0.2,0.7,0.4,0.9c0.2,0.2,0.5,0.3,0.8,0.3c0.3,0,0.6-0.1,0.9-0.4c0.2-0.3,0.3-0.6,0.3-1
		c0-0.4-0.1-0.7-0.3-1s-0.5-0.4-0.8-0.4c-0.2,0-0.5,0-0.8,0.1l0.2-1.3c0.4,0,0.8-0.1,1-0.3s0.4-0.5,0.4-0.8c0-0.3-0.1-0.5-0.3-0.7
		s-0.4-0.3-0.7-0.3c-0.3,0-0.5,0.1-0.7,0.3s-0.3,0.5-0.4,0.9l-1.5-0.3c0.1-0.5,0.3-0.9,0.5-1.2s0.5-0.6,0.9-0.7s0.8-0.3,1.3-0.3
		c0.8,0,1.5,0.3,1.9,0.8c0.4,0.4,0.6,0.9,0.6,1.4c0,0.8-0.4,1.4-1.2,1.8c0.5,0.1,0.9,0.3,1.2,0.7s0.4,0.8,0.4,1.3
		c0,0.8-0.3,1.4-0.8,1.9s-1.2,0.8-2.1,0.8c-0.8,0-1.4-0.2-1.9-0.7S185.9,298.5,185.8,297.8z"/>
	<path d="M192.9,300v-1.6h1.6v1.6H192.9z"/>
	<path d="M200.1,300h-1.6v-6.2c-0.6,0.6-1.3,1-2.1,1.2v-1.5c0.4-0.1,0.9-0.4,1.4-0.8s0.8-0.9,1-1.4h1.3V300z"/>
	<path d="M202.9,300v-1.6h1.6v1.6H202.9z"/>
	<path d="M205.8,297.8l1.6-0.2c0.1,0.4,0.2,0.7,0.4,0.9c0.2,0.2,0.5,0.3,0.8,0.3c0.3,0,0.6-0.1,0.9-0.4c0.2-0.3,0.3-0.6,0.3-1
		c0-0.4-0.1-0.7-0.3-1s-0.5-0.4-0.8-0.4c-0.2,0-0.5,0-0.8,0.1l0.2-1.3c0.4,0,0.8-0.1,1-0.3s0.4-0.5,0.4-0.8c0-0.3-0.1-0.5-0.3-0.7
		s-0.4-0.3-0.7-0.3c-0.3,0-0.5,0.1-0.7,0.3s-0.3,0.5-0.4,0.9l-1.5-0.3c0.1-0.5,0.3-0.9,0.5-1.2s0.5-0.6,0.9-0.7s0.8-0.3,1.3-0.3
		c0.8,0,1.5,0.3,1.9,0.8c0.4,0.4,0.6,0.9,0.6,1.4c0,0.8-0.4,1.4-1.2,1.8c0.5,0.1,0.9,0.3,1.2,0.7s0.4,0.8,0.4,1.3
		c0,0.8-0.3,1.4-0.8,1.9s-1.2,0.8-2.1,0.8c-0.8,0-1.4-0.2-1.9-0.7S205.9,298.5,205.8,297.8z"/>
</g>
<g class="st0">
	<path d="M367.5,79.6l0.6-0.1c0,0.3,0.1,0.6,0.3,0.7c0.2,0.1,0.3,0.2,0.6,0.2c0.3,0,0.5-0.1,0.8-0.3c0.2-0.2,0.3-0.5,0.3-0.7
		c0-0.2-0.1-0.4-0.2-0.6c-0.2-0.2-0.4-0.2-0.6-0.2c0,0-0.1,0-0.2,0l0.1-0.5c0.1,0,0.1,0,0.2,0c0.3,0,0.6-0.1,0.8-0.2
		s0.3-0.4,0.3-0.6c0-0.2-0.1-0.4-0.2-0.6c-0.2-0.2-0.3-0.2-0.6-0.2c-0.2,0-0.4,0.1-0.6,0.2c-0.2,0.2-0.3,0.4-0.3,0.7l-0.6-0.1
		c0.1-0.4,0.3-0.7,0.6-0.9c0.3-0.2,0.6-0.3,1-0.3c0.4,0,0.7,0.1,1,0.4s0.4,0.5,0.4,0.9c0,0.3-0.1,0.5-0.2,0.7
		c-0.1,0.2-0.3,0.3-0.6,0.5c0.2,0.1,0.3,0.2,0.4,0.4c0.1,0.2,0.1,0.3,0.1,0.5c0,0.4-0.2,0.8-0.5,1.1S369.5,81,369,81
		c-0.4,0-0.8-0.1-1.1-0.4C367.7,80.4,367.5,80.1,367.5,79.6z"/>
</g>
<g class="st0">
	<path d="M441.3,80.9l0.3-1.2h-2l0.1-0.6l2.7-3h0.5l-0.6,3.1h0.7l-0.1,0.5h-0.7l-0.3,1.2H441.3z M441.7,79.2l0.4-2l-1.8,2H441.7z"/>
</g>
<g class="st0">
	<path d="M510.6,78.9c0.2,0,0.3,0,0.4-0.1c0.1-0.1,0.2-0.2,0.3-0.4c0.1-0.1,0.1-0.4,0.2-0.7c0.1-0.4,0.1-0.6,0.2-0.7
		c0.1-0.2,0.1-0.3,0.2-0.4c0.1-0.1,0.2-0.2,0.3-0.3s0.2-0.1,0.3-0.1c0.1,0,0.2,0,0.4,0h0.2l-0.1,0.5H513c-0.2,0-0.3,0-0.4,0.1
		s-0.1,0.1-0.2,0.2s-0.1,0.3-0.2,0.6c-0.1,0.4-0.2,0.7-0.3,0.9s-0.2,0.3-0.3,0.5c-0.1,0.1-0.3,0.2-0.5,0.3c0.2,0.1,0.3,0.2,0.4,0.3
		c0.1,0.1,0.1,0.3,0.1,0.5c0,0.2,0,0.5-0.1,0.9c-0.1,0.3-0.1,0.5-0.1,0.6c0,0.1,0,0.1,0,0.2c0,0,0.1,0.1,0.1,0.1c0.1,0,0.2,0,0.4,0
		l-0.1,0.5h-0.2c-0.2,0-0.4,0-0.4,0c-0.1,0-0.2-0.1-0.3-0.2c-0.1-0.1-0.1-0.2-0.1-0.4c0-0.1,0.1-0.5,0.2-0.9
		c0.1-0.4,0.1-0.6,0.1-0.7c0-0.2,0-0.3-0.1-0.4c-0.1-0.1-0.2-0.1-0.4-0.1L510.6,78.9z"/>
	<path d="M512.9,79.5l0.6-0.1c0,0.1,0,0.1,0,0.2c0,0.1,0,0.3,0.1,0.4c0.1,0.1,0.2,0.3,0.3,0.3c0.1,0.1,0.3,0.1,0.4,0.1
		c0.2,0,0.4-0.1,0.6-0.2c0.2-0.1,0.3-0.3,0.5-0.6c0.1-0.2,0.2-0.5,0.2-0.7c0-0.3-0.1-0.5-0.2-0.6c-0.2-0.2-0.4-0.2-0.6-0.2
		c-0.2,0-0.3,0-0.5,0.1c-0.2,0.1-0.3,0.2-0.4,0.4l-0.5,0l0.7-2.5h2.4l-0.1,0.5h-1.8l-0.4,1.2c0.1-0.1,0.3-0.2,0.4-0.2
		c0.1,0,0.3-0.1,0.4-0.1c0.4,0,0.7,0.1,0.9,0.4s0.4,0.6,0.4,1c0,0.4-0.1,0.7-0.2,1c-0.2,0.3-0.4,0.6-0.7,0.7
		c-0.3,0.2-0.6,0.3-0.9,0.3c-0.3,0-0.5-0.1-0.7-0.2s-0.4-0.3-0.5-0.5S512.9,79.8,512.9,79.5C512.9,79.6,512.9,79.6,512.9,79.5z"/>
	<path d="M518.3,78.9l-0.1,0.5c-0.2,0-0.3,0-0.4,0.1s-0.2,0.2-0.3,0.4c-0.1,0.2-0.1,0.4-0.2,0.8c-0.1,0.4-0.1,0.6-0.2,0.7
		c-0.1,0.2-0.1,0.3-0.2,0.5c-0.1,0.1-0.2,0.2-0.3,0.3s-0.2,0.1-0.3,0.1c-0.1,0-0.2,0-0.4,0h-0.2l0.1-0.5h0.1c0.2,0,0.3,0,0.4-0.1
		c0.1,0,0.1-0.1,0.2-0.2c0-0.1,0.1-0.3,0.2-0.6c0.1-0.4,0.2-0.7,0.2-0.9c0.1-0.2,0.2-0.4,0.3-0.5c0.1-0.1,0.3-0.2,0.5-0.3
		c-0.2-0.1-0.3-0.2-0.4-0.3s-0.1-0.3-0.1-0.5c0-0.2,0-0.5,0.1-0.9c0.1-0.3,0.1-0.5,0.1-0.6c0-0.1,0-0.2-0.1-0.2
		c-0.1,0-0.2-0.1-0.4-0.1h-0.1L517,76h0.2c0.2,0,0.4,0,0.4,0c0.1,0,0.2,0.1,0.3,0.2s0.1,0.2,0.1,0.4c0,0.1,0,0.4-0.1,0.7
		c-0.1,0.5-0.2,0.8-0.2,0.9c0,0.2,0,0.3,0.1,0.4C518,78.8,518.1,78.9,518.3,78.9z"/>
</g>
<g class="st0">
	<path d="M580.4,78.9c0.2,0,0.3,0,0.4-0.1c0.1-0.1,0.2-0.2,0.3-0.4c0.1-0.1,0.1-0.4,0.2-0.7c0.1-0.4,0.1-0.6,0.2-0.7
		c0.1-0.2,0.1-0.3,0.2-0.4c0.1-0.1,0.2-0.2,0.3-0.3s0.2-0.1,0.3-0.1c0.1,0,0.2,0,0.4,0h0.2l-0.1,0.5h-0.1c-0.2,0-0.3,0-0.4,0.1
		s-0.1,0.1-0.2,0.2s-0.1,0.3-0.2,0.6c-0.1,0.4-0.2,0.7-0.3,0.9s-0.2,0.3-0.3,0.5c-0.1,0.1-0.3,0.2-0.5,0.3c0.2,0.1,0.3,0.2,0.4,0.3
		c0.1,0.1,0.1,0.3,0.1,0.5c0,0.2,0,0.5-0.1,0.9c-0.1,0.3-0.1,0.5-0.1,0.6c0,0.1,0,0.1,0,0.2c0,0,0.1,0.1,0.1,0.1c0.1,0,0.2,0,0.4,0
		l-0.1,0.5h-0.2c-0.2,0-0.4,0-0.4,0c-0.1,0-0.2-0.1-0.3-0.2s-0.1-0.2-0.1-0.4c0-0.1,0-0.5,0.2-0.9c0.1-0.4,0.1-0.6,0.1-0.7
		c0-0.2,0-0.3-0.1-0.4c-0.1-0.1-0.2-0.1-0.4-0.1L580.4,78.9z"/>
	<path d="M583.5,78.1c0.2-0.1,0.3-0.2,0.5-0.3s0.3-0.1,0.5-0.1c0.4,0,0.7,0.1,0.9,0.4c0.2,0.2,0.4,0.6,0.4,1c0,0.5-0.2,1-0.5,1.4
		c-0.3,0.3-0.7,0.5-1.1,0.5c-0.4,0-0.7-0.1-1-0.4c-0.3-0.3-0.4-0.7-0.4-1.3c0-0.5,0.1-1,0.3-1.5c0.1-0.4,0.3-0.7,0.5-1
		c0.2-0.3,0.4-0.4,0.6-0.6c0.2-0.1,0.5-0.2,0.7-0.2c0.3,0,0.6,0.1,0.8,0.3c0.2,0.2,0.3,0.5,0.4,0.9l-0.6,0.1c0-0.3-0.1-0.5-0.2-0.6
		c-0.1-0.1-0.3-0.2-0.4-0.2c-0.2,0-0.4,0.1-0.5,0.2c-0.2,0.1-0.3,0.3-0.5,0.6S583.6,77.9,583.5,78.1z M583.3,79.6
		c0,0.3,0.1,0.5,0.3,0.7s0.4,0.3,0.6,0.3c0.1,0,0.3-0.1,0.5-0.2c0.2-0.1,0.3-0.3,0.4-0.5c0.1-0.2,0.2-0.5,0.2-0.7
		c0-0.3-0.1-0.5-0.2-0.7c-0.2-0.2-0.4-0.3-0.6-0.3c-0.3,0-0.5,0.1-0.7,0.4C583.4,78.8,583.3,79.1,583.3,79.6z"/>
	<path d="M588,78.9l-0.1,0.5c-0.2,0-0.3,0-0.4,0.1s-0.2,0.2-0.3,0.4c-0.1,0.2-0.1,0.4-0.2,0.8c-0.1,0.4-0.1,0.6-0.2,0.7
		c-0.1,0.2-0.1,0.3-0.2,0.5c-0.1,0.1-0.2,0.2-0.3,0.3s-0.2,0.1-0.3,0.1c-0.1,0-0.2,0-0.4,0h-0.2l0.1-0.5h0.1c0.2,0,0.3,0,0.4-0.1
		c0.1,0,0.1-0.1,0.2-0.2c0-0.1,0.1-0.3,0.2-0.6c0.1-0.4,0.2-0.7,0.2-0.9c0.1-0.2,0.2-0.4,0.3-0.5c0.1-0.1,0.3-0.2,0.5-0.3
		c-0.2-0.1-0.3-0.2-0.4-0.3s-0.1-0.3-0.1-0.5c0-0.2,0-0.5,0.1-0.9c0.1-0.3,0.1-0.5,0.1-0.6c0-0.1,0-0.2-0.1-0.2
		c-0.1,0-0.2-0.1-0.4-0.1h-0.1l0.1-0.5h0.2c0.2,0,0.4,0,0.4,0c0.1,0,0.2,0.1,0.3,0.2s0.1,0.2,0.1,0.4c0,0.1,0,0.4-0.1,0.7
		c-0.1,0.5-0.2,0.8-0.2,0.9c0,0.2,0,0.3,0.1,0.4C587.7,78.8,587.8,78.9,588,78.9z"/>
</g>
<line class="st9" x1="478" y1="284.5" x2="493.7" y2="270.1"/>
<line class="st8" x1="478" y1="284.5" x2="491.9" y2="271.7"/>
<path d="M493.7,270.1c-0.6,1.2-1,2.4-1.2,3.7l-0.8-1.9l-1.8-0.9C491.2,270.9,492.5,270.6,493.7,270.1z"/>
<g class="st0">
	<path d="M493.7,268.5h-0.2V265h0.2c0.1,0,0.3,0,0.4-0.1c0.1,0,0.3-0.1,0.4-0.1c0.1-0.1,0.3-0.1,0.4-0.2c0.2-0.1,0.5-0.4,0.7-0.7
		c0.3-0.4,0.5-0.8,0.7-1.4c0.1-0.3,0.2-0.7,0.3-1.1c0.1-0.4,0.1-0.7,0.1-1.1c0-0.4,0-0.8-0.1-1.2s-0.2-0.8-0.3-1.1l0.2,0
		c0.3,0.7,0.4,1.5,0.4,2.3c0,0.3,0,0.5,0,0.8c0,0.3-0.1,0.6-0.1,0.8c0,0.1-0.1,0.3-0.1,0.5s-0.1,0.4-0.2,0.7s-0.2,0.5-0.3,0.7
		s-0.2,0.4-0.3,0.6c-0.3,0.4-0.5,0.8-0.8,1.2c-0.3,0.4-0.5,0.7-0.7,1c-0.2,0.3-0.4,0.6-0.5,1S493.7,268.2,493.7,268.5z"/>
</g>
<line class="st8" x1="370.5" y1="238.9" x2="370.5" y2="244"/>
<line class="st8" x1="367.9" y1="241.4" x2="373.1" y2="241.4"/>
<line class="st8" x1="368.7" y1="239.6" x2="372.3" y2="243.3"/>
<line class="st8" x1="372" y1="239.4" x2="369" y2="243.5"/>
<g class="st0">
	<path d="M338.8,274.2c0.4-0.4,0.7-0.6,1-0.6c0.2,0,0.3,0,0.4,0.1s0.2,0.2,0.3,0.4c0,0.1,0.1,0.3,0.1,0.6v1.3c0,0.2,0,0.3,0,0.4
		c0,0.1,0.1,0.1,0.1,0.1c0.1,0,0.2,0,0.3,0v0.1h-1.5v-0.1h0.1c0.1,0,0.2,0,0.3-0.1s0.1-0.1,0.1-0.2c0,0,0-0.1,0-0.3v-1.2
		c0-0.3,0-0.5-0.1-0.6s-0.2-0.2-0.4-0.2c-0.3,0-0.5,0.1-0.8,0.4v1.6c0,0.2,0,0.3,0,0.4c0,0.1,0.1,0.1,0.1,0.1c0.1,0,0.2,0,0.3,0v0.1
		h-1.5v-0.1h0.1c0.2,0,0.3,0,0.3-0.1s0.1-0.2,0.1-0.4v-1.1c0-0.4,0-0.6,0-0.7c0-0.1,0-0.1-0.1-0.2c0,0-0.1,0-0.1,0
		c-0.1,0-0.1,0-0.2,0l0-0.1l0.9-0.4h0.1V274.2z"/>
	<path d="M342.8,273.5c0.5,0,0.8,0.2,1.1,0.5c0.2,0.3,0.4,0.6,0.4,1c0,0.3-0.1,0.5-0.2,0.8c-0.1,0.3-0.3,0.5-0.5,0.6
		c-0.2,0.1-0.5,0.2-0.8,0.2c-0.5,0-0.8-0.2-1.1-0.5c-0.2-0.3-0.3-0.6-0.3-1c0-0.3,0.1-0.6,0.2-0.8c0.1-0.3,0.3-0.5,0.5-0.6
		S342.6,273.5,342.8,273.5z M342.7,273.7c-0.1,0-0.2,0-0.4,0.1s-0.2,0.2-0.3,0.4s-0.1,0.4-0.1,0.7c0,0.4,0.1,0.8,0.3,1.1
		c0.2,0.3,0.4,0.5,0.7,0.5c0.2,0,0.4-0.1,0.5-0.3s0.2-0.5,0.2-0.9c0-0.5-0.1-1-0.3-1.3C343.2,273.8,343,273.7,342.7,273.7z"/>
	<path d="M347.3,275.5c-0.1,0.4-0.2,0.7-0.5,0.9c-0.2,0.2-0.5,0.3-0.8,0.3c-0.3,0-0.6-0.1-0.9-0.4c-0.3-0.3-0.4-0.7-0.4-1.2
		c0-0.5,0.1-0.9,0.4-1.2s0.6-0.4,1-0.4c0.3,0,0.5,0.1,0.7,0.2c0.2,0.2,0.3,0.3,0.3,0.5c0,0.1,0,0.2-0.1,0.2
		c-0.1,0.1-0.1,0.1-0.2,0.1c-0.1,0-0.2,0-0.3-0.1c0,0-0.1-0.1-0.1-0.3c0-0.1-0.1-0.2-0.1-0.3c-0.1-0.1-0.2-0.1-0.3-0.1
		c-0.2,0-0.4,0.1-0.5,0.2c-0.2,0.2-0.3,0.5-0.3,0.9c0,0.4,0.1,0.7,0.3,1c0.2,0.3,0.4,0.4,0.7,0.4c0.2,0,0.4-0.1,0.6-0.2
		C346.9,275.9,347.1,275.7,347.3,275.5L347.3,275.5z"/>
	<path d="M348.6,271.9v2.2c0.2-0.3,0.4-0.4,0.6-0.5c0.1-0.1,0.3-0.1,0.4-0.1c0.2,0,0.3,0,0.4,0.1c0.1,0.1,0.2,0.2,0.3,0.4
		c0,0.1,0.1,0.4,0.1,0.8v1.1c0,0.2,0,0.3,0,0.4c0,0.1,0.1,0.1,0.1,0.1c0.1,0,0.1,0,0.3,0v0.1h-1.5v-0.1h0.1c0.1,0,0.2,0,0.3-0.1
		c0.1,0,0.1-0.1,0.1-0.2c0,0,0-0.1,0-0.3v-1.1c0-0.3,0-0.5-0.1-0.6s-0.1-0.2-0.2-0.2s-0.2-0.1-0.3-0.1c-0.1,0-0.2,0-0.3,0.1
		c-0.1,0.1-0.3,0.2-0.4,0.3v1.6c0,0.2,0,0.3,0,0.4c0,0.1,0.1,0.1,0.1,0.1s0.2,0.1,0.3,0.1v0.1h-1.5v-0.1c0.1,0,0.2,0,0.3-0.1
		c0,0,0.1-0.1,0.1-0.1s0-0.2,0-0.4v-2.7c0-0.3,0-0.6,0-0.6c0-0.1,0-0.1-0.1-0.2c0,0-0.1,0-0.1,0c0,0-0.1,0-0.2,0.1l0-0.1l0.9-0.4
		H348.6z"/>
</g>
<g class="st0">
	<path d="M354.4,274.7c0,0.4,0.1,0.8,0.3,1.1s0.5,0.4,0.8,0.4c0.2,0,0.4-0.1,0.5-0.2c0.1-0.1,0.3-0.3,0.4-0.6l0.1,0.1
		c0,0.3-0.2,0.6-0.4,0.8c-0.2,0.2-0.5,0.4-0.8,0.4c-0.4,0-0.7-0.1-0.9-0.4s-0.4-0.7-0.4-1.1c0-0.5,0.1-0.9,0.4-1.2
		c0.3-0.3,0.6-0.4,1-0.4c0.3,0,0.6,0.1,0.8,0.3c0.2,0.2,0.3,0.5,0.3,0.9H354.4z M354.4,274.6h1.4c0-0.2,0-0.3-0.1-0.4
		c-0.1-0.1-0.1-0.2-0.2-0.3s-0.2-0.1-0.3-0.1c-0.2,0-0.3,0.1-0.5,0.2S354.4,274.3,354.4,274.6z"/>
	<path d="M357.9,273.5v2.4c0,0.2,0,0.3,0,0.4c0,0.1,0.1,0.1,0.1,0.1c0.1,0,0.2,0,0.3,0v0.1h-1.5v-0.1c0.1,0,0.2,0,0.3,0
		c0.1,0,0.1-0.1,0.1-0.1c0-0.1,0-0.2,0-0.4v-1.2c0-0.3,0-0.5,0-0.6c0-0.1,0-0.1-0.1-0.1c0,0-0.1,0-0.1,0c-0.1,0-0.1,0-0.2,0l0-0.1
		l0.9-0.4H357.9z M357.6,271.9c0.1,0,0.2,0,0.2,0.1c0.1,0.1,0.1,0.1,0.1,0.2c0,0.1,0,0.2-0.1,0.2c-0.1,0.1-0.1,0.1-0.2,0.1
		s-0.2,0-0.2-0.1c-0.1-0.1-0.1-0.1-0.1-0.2c0-0.1,0-0.2,0.1-0.2C357.5,272,357.5,271.9,357.6,271.9z"/>
	<path d="M359.6,274.2c0.4-0.4,0.7-0.6,1-0.6c0.2,0,0.3,0,0.4,0.1s0.2,0.2,0.3,0.4c0,0.1,0.1,0.3,0.1,0.6v1.3c0,0.2,0,0.3,0,0.4
		c0,0.1,0.1,0.1,0.1,0.1c0.1,0,0.2,0,0.3,0v0.1h-1.5v-0.1h0.1c0.1,0,0.2,0,0.3-0.1s0.1-0.1,0.1-0.2c0,0,0-0.1,0-0.3v-1.2
		c0-0.3,0-0.5-0.1-0.6s-0.2-0.2-0.4-0.2c-0.3,0-0.5,0.1-0.8,0.4v1.6c0,0.2,0,0.3,0,0.4c0,0.1,0.1,0.1,0.1,0.1c0.1,0,0.2,0,0.3,0v0.1
		h-1.5v-0.1h0.1c0.2,0,0.3,0,0.3-0.1s0.1-0.2,0.1-0.4v-1.1c0-0.4,0-0.6,0-0.7c0-0.1,0-0.1-0.1-0.2c0,0-0.1,0-0.1,0
		c-0.1,0-0.1,0-0.2,0l0-0.1l0.9-0.4h0.1V274.2z"/>
	<path d="M367.2,274.9h1.7v0.5h-1.7V274.9z"/>
	<path d="M375.4,274.2c0.2-0.2,0.3-0.3,0.4-0.4c0.1-0.1,0.2-0.1,0.3-0.2c0.1,0,0.2-0.1,0.3-0.1c0.2,0,0.4,0.1,0.5,0.2
		c0.1,0.1,0.2,0.3,0.3,0.5c0.2-0.3,0.4-0.4,0.6-0.5c0.2-0.1,0.3-0.1,0.5-0.1c0.2,0,0.3,0,0.4,0.1s0.2,0.2,0.3,0.4
		c0,0.1,0.1,0.3,0.1,0.6v1.3c0,0.2,0,0.3,0,0.4c0,0,0.1,0.1,0.1,0.1s0.2,0.1,0.3,0.1v0.1H378v-0.1h0.1c0.1,0,0.2,0,0.3-0.1
		c0.1,0,0.1-0.1,0.1-0.2c0,0,0-0.1,0-0.3v-1.3c0-0.2,0-0.4-0.1-0.5c-0.1-0.1-0.2-0.2-0.4-0.2c-0.1,0-0.2,0-0.4,0.1
		c-0.1,0.1-0.3,0.2-0.4,0.3l0,0l0,0.1v1.4c0,0.2,0,0.3,0,0.4c0,0.1,0.1,0.1,0.1,0.1c0.1,0,0.2,0.1,0.3,0.1v0.1h-1.5v-0.1
		c0.2,0,0.3,0,0.3-0.1c0.1,0,0.1-0.1,0.1-0.2c0,0,0-0.1,0-0.3v-1.3c0-0.2,0-0.4-0.1-0.5c-0.1-0.1-0.2-0.2-0.4-0.2
		c-0.1,0-0.2,0-0.4,0.1c-0.2,0.1-0.3,0.2-0.4,0.3v1.6c0,0.2,0,0.3,0,0.4c0,0.1,0.1,0.1,0.1,0.1s0.2,0,0.3,0v0.1h-1.5v-0.1
		c0.1,0,0.2,0,0.3,0c0.1,0,0.1-0.1,0.1-0.1c0-0.1,0-0.2,0-0.4v-1.2c0-0.3,0-0.5,0-0.6c0-0.1,0-0.1-0.1-0.2c0,0-0.1,0-0.1,0
		c-0.1,0-0.1,0-0.2,0l0-0.1l0.9-0.4h0.1V274.2z"/>
	<path d="M381.5,276.2c-0.3,0.2-0.5,0.4-0.6,0.4c-0.1,0.1-0.2,0.1-0.4,0.1c-0.2,0-0.4-0.1-0.5-0.2s-0.2-0.3-0.2-0.6
		c0-0.1,0-0.3,0.1-0.4c0.1-0.1,0.2-0.3,0.5-0.4s0.6-0.3,1.1-0.5v-0.1c0-0.3,0-0.5-0.1-0.6c-0.1-0.1-0.2-0.2-0.4-0.2
		c-0.1,0-0.2,0-0.3,0.1c-0.1,0.1-0.1,0.2-0.1,0.3l0,0.2c0,0.1,0,0.2-0.1,0.2c-0.1,0.1-0.1,0.1-0.2,0.1c-0.1,0-0.1,0-0.2-0.1
		c-0.1-0.1-0.1-0.1-0.1-0.2c0-0.2,0.1-0.4,0.3-0.5s0.5-0.2,0.8-0.2c0.3,0,0.5,0,0.7,0.1c0.1,0.1,0.2,0.2,0.3,0.3
		c0,0.1,0.1,0.3,0.1,0.6v1c0,0.3,0,0.5,0,0.5c0,0.1,0,0.1,0.1,0.1c0,0,0.1,0,0.1,0c0,0,0.1,0,0.1,0c0,0,0.1-0.1,0.3-0.2v0.2
		c-0.2,0.3-0.5,0.5-0.7,0.5c-0.1,0-0.2,0-0.3-0.1C381.5,276.5,381.5,276.4,381.5,276.2z M381.5,276v-1.2c-0.3,0.1-0.5,0.2-0.6,0.3
		c-0.2,0.1-0.3,0.2-0.4,0.3s-0.1,0.2-0.1,0.3c0,0.2,0,0.3,0.1,0.4c0.1,0.1,0.2,0.2,0.3,0.2C381,276.3,381.2,276.2,381.5,276z"/>
	<path d="M383.8,271.9v4c0,0.2,0,0.3,0,0.4c0,0.1,0.1,0.1,0.1,0.1c0.1,0,0.2,0,0.3,0v0.1h-1.5v-0.1c0.1,0,0.2,0,0.3,0
		c0.1,0,0.1-0.1,0.1-0.1c0-0.1,0-0.2,0-0.4v-2.7c0-0.3,0-0.5,0-0.6c0-0.1,0-0.1-0.1-0.2c0,0-0.1,0-0.1,0c-0.1,0-0.1,0-0.2,0.1
		l-0.1-0.1l0.9-0.4H383.8z"/>
</g>
<line class="st8" x1="525.2" y1="278.9" x2="515.4" y2="269"/>
<path d="M513.7,267.3c1.2,0.6,2.4,0.9,3.7,1.1l-1.8,0.9l-0.9,1.8C514.6,269.8,514.3,268.5,513.7,267.3z"/>
</svg>
