<svg id="Ebene_1" data-name="Ebene 1" xmlns="http://www.w3.org/2000/svg" viewBox="0 0 1021 595"><defs><style>.cls-1,.cls-3,.cls-5,.cls-6{isolation:isolate;}.cls-1{font-size:13.5px;}.cls-1,.cls-5{font-family:Maestro, Maestro;}.cls-2,.cls-8{fill:none;}.cls-10,.cls-2,.cls-7,.cls-8{stroke:#000;}.cls-10,.cls-2,.cls-7{stroke-width:0.4px;}.cls-3,.cls-4{font-size:6.75px;font-family:Arial-ItalicMT, Arial;font-style:italic;}.cls-5{font-size:10.13px;}.cls-6{font-size:12px;font-family:Arial-BoldMT, Arial;font-weight:700;}.cls-10,.cls-11,.cls-7{fill:#fff;}.cls-7{stroke-miterlimit:10;}.cls-8{stroke-width:0.4px;}.cls-9{letter-spacing:-0.11em;}</style></defs><title>Zeichenfläche 1</title><text class="cls-1" transform="translate(414.7 136.84)">4</text><text class="cls-1" transform="translate(414.98 130.09)">3</text><line class="cls-2" x1="84.9" y1="126.7" x2="935.4" y2="126.7"/><line class="cls-2" x1="84.9" y1="130.1" x2="935.4" y2="130.1"/><line class="cls-2" x1="84.9" y1="133.5" x2="935.4" y2="133.5"/><line class="cls-2" x1="84.9" y1="136.8" x2="935.4" y2="136.8"/><line class="cls-2" x1="84.9" y1="140.2" x2="935.4" y2="140.2"/><text class="cls-3" transform="translate(51.02 79.02)">Bl. 39</text><text class="cls-4" transform="translate(68.28 76.77) scale(0.58)">r</text><text class="cls-3" transform="translate(51.02 136.84)">13</text><text class="cls-5" transform="translate(401.06 136.84)">&amp;</text><text class="cls-1" transform="translate(426.52 133.47)">‰</text><line class="cls-2" x1="468.5" y1="134.6" x2="468.5" y2="123.3"/><text class="cls-1" transform="translate(464.34 135.16)">œ</text><text class="cls-6" transform="translate(51.02 46.5)">M 317 Sk4.2</text><polyline class="cls-7" points="90.3 154.8 90.3 119.3 394.3 119.3 394.3 157.6"/><path class="cls-8" d="M401.4,125H400v19.1h1.4"/><path class="cls-8" d="M407.5,125h1.4v19.1h-1.4"/><text class="cls-6" transform="translate(199.94 153.72)">Sk4 <tspan class="cls-9" x="24.69" y="0">T</tspan><tspan x="30.69" y="0">. 13–15</tspan></text><polyline class="cls-10" points="524.5 119.3 524.5 151.4 581.8 151.4 581.8 119.3"/><polyline class="cls-11" points="751.6 119.3 751.6 151.4 913.1 151.4 913.1 119.5"/><line class="cls-2" x1="751.8" y1="119.3" x2="751.8" y2="151.4"/><line class="cls-2" x1="913.1" y1="119.4" x2="913.1" y2="151.4"/><line class="cls-2" x1="581.8" y1="119.3" x2="751.6" y2="119.3"/><text class="cls-6" transform="translate(628 113.21)">Sk4 <tspan class="cls-9" x="24.69" y="0">T</tspan><tspan x="30.69" y="0">. 7–12</tspan></text><text class="cls-3" transform="translate(410.98 79.02)">13</text></svg>