<svg id="Ebene_1" data-name="Ebene 1" xmlns="http://www.w3.org/2000/svg" viewBox="0 0 1021 595"><defs><style>.cls-1,.cls-12,.cls-14,.cls-19,.cls-3,.cls-6,.cls-9{isolation:isolate;}.cls-1{font-size:13.5px;}.cls-1,.cls-14,.cls-19{font-family:Maestro, Maestro;}.cls-13,.cls-16,.cls-17,.cls-18,.cls-2,.cls-8{fill:none;}.cls-11,.cls-13,.cls-16,.cls-17,.cls-18,.cls-2,.cls-8{stroke:#000;}.cls-11,.cls-2{stroke-width:0.4px;}.cls-3,.cls-6,.cls-7{font-size:6.75px;}.cls-3,.cls-9{font-family:TimesNewRomanPSMT, Times New Roman;}.cls-4{letter-spacing:-0.02em;}.cls-5{letter-spacing:0em;}.cls-6,.cls-7{font-family:Arial-ItalicMT, Arial;font-style:italic;}.cls-7{letter-spacing:0em;}.cls-8{stroke-width:0.49px;}.cls-9{font-size:14px;}.cls-10{letter-spacing:-0.04em;}.cls-11{fill:#fff;}.cls-11,.cls-18{stroke-miterlimit:10;}.cls-12{font-size:12px;font-family:Arial-BoldMT, Arial;font-weight:700;}.cls-13{stroke-width:0.4px;}.cls-14{font-size:10.13px;}.cls-15{letter-spacing:-0.04em;}.cls-16{stroke-width:0.56px;}.cls-17{stroke-width:0.25px;}.cls-18{stroke-width:0.4px;}.cls-19{font-size:10px;}</style></defs><title>Zeichenfläche 1</title><text class="cls-1" transform="translate(88.31 177.34)">&amp;</text><text class="cls-1" transform="translate(88.31 217.84)">&amp;</text><text class="cls-1" transform="translate(88.31 251.59)">?</text><line class="cls-2" x1="84.9" y1="126.7" x2="935.4" y2="126.7"/><line class="cls-2" x1="84.9" y1="130.1" x2="935.4" y2="130.1"/><line class="cls-2" x1="84.9" y1="133.5" x2="935.4" y2="133.5"/><line class="cls-2" x1="84.9" y1="136.8" x2="935.4" y2="136.8"/><line class="cls-2" x1="84.9" y1="140.2" x2="935.4" y2="140.2"/><line class="cls-2" x1="84.9" y1="167.2" x2="935.4" y2="167.2"/><line class="cls-2" x1="84.9" y1="170.6" x2="935.4" y2="170.6"/><line class="cls-2" x1="84.9" y1="174" x2="935.4" y2="174"/><line class="cls-2" x1="84.9" y1="177.3" x2="935.4" y2="177.3"/><line class="cls-2" x1="84.9" y1="180.7" x2="935.4" y2="180.7"/><line class="cls-2" x1="84.9" y1="207.7" x2="935.4" y2="207.7"/><line class="cls-2" x1="84.9" y1="211.1" x2="935.4" y2="211.1"/><line class="cls-2" x1="84.9" y1="214.5" x2="935.4" y2="214.5"/><line class="cls-2" x1="84.9" y1="217.8" x2="935.4" y2="217.8"/><line class="cls-2" x1="84.9" y1="221.2" x2="935.4" y2="221.2"/><line class="cls-2" x1="84.9" y1="248.2" x2="935.4" y2="248.2"/><line class="cls-2" x1="84.9" y1="251.6" x2="935.4" y2="251.6"/><line class="cls-2" x1="84.9" y1="255" x2="935.4" y2="255"/><line class="cls-2" x1="84.9" y1="258.3" x2="935.4" y2="258.3"/><line class="cls-2" x1="84.9" y1="261.7" x2="935.4" y2="261.7"/><path d="M83.2,207.7c-7.2,11.5,3.1,21.9-3.7,27h.3c8.2-6.8-1.9-15.5,3.4-26.7Z"/><path d="M83.2,261.7c-7.2-11.5,3.1-21.9-3.7-27h.3c8.2,6.8-1.9,15.5,3.4,26.7Z"/><line class="cls-2" x1="86.3" y1="263" x2="97" y2="242.6"/><text class="cls-3" transform="translate(74.34 115.45) rotate(-12.5)">4.<tspan class="cls-4" x="5.06" y="0"> </tspan><tspan class="cls-5" x="6.63" y="0">VII. 34</tspan></text><text class="cls-6" transform="translate(51.02 78.91)">Bl. 38</text><text class="cls-7" transform="translate(68.28 76.66) scale(0.58)">v</text><text class="cls-6" transform="translate(51.02 136.8)">1</text><text class="cls-6" transform="translate(51.02 177.3)">2</text><text class="cls-6" transform="translate(51.02 217.8)">3</text><text class="cls-6" transform="translate(51.02 258.3)">4</text><path class="cls-8" d="M84.8,126.7l.1,134.9"/><text class="cls-9" transform="translate(135.56 107.45)">„<tspan class="cls-10" x="6.21" y="0">W</tspan><tspan x="18.87" y="0">ie bin ich froh!‟</tspan></text><rect class="cls-11" x="106" y="117.9" width="237.3" height="30.2"/><text class="cls-12" transform="translate(51.02 46.5)">M 317 Sk2.1</text><rect class="cls-11" x="816.8" y="117.9" width="116.8" height="30.2"/><rect class="cls-11" x="552.7" y="159.5" width="136.5" height="30.2"/><rect class="cls-11" x="820" y="225.9" width="75" height="20.6"/><text class="cls-1" transform="translate(99.5 170.59)">3</text><text class="cls-1" transform="translate(98.92 177.34)">4</text><rect class="cls-11" x="170.3" y="199.4" width="368.2" height="30.2"/><rect class="cls-11" x="112.8" y="239.9" width="199" height="30.2"/><rect class="cls-11" x="669" y="239.9" width="40.2" height="30.2"/><polyline class="cls-11" points="317.6 285.9 317.5 239.9 575 239.9 575 199.4 660 199.4 660 270.1 475 270.1 475 284.9"/><text class="cls-12" transform="translate(188.01 136.84)">Sk2</text><text class="cls-12" transform="translate(851.33 136.84)">Sk2.1.1</text><text class="cls-12" transform="translate(837.83 242.59)">Sk2.1.3</text><text class="cls-12" transform="translate(603 177.34)">Sk2.1.2</text><text class="cls-12" transform="translate(670.33 251.59)">Sk2.1.</text><text class="cls-12" transform="translate(670.33 265.99)">2.1</text><text class="cls-12" transform="translate(352 217.84)">Sk3</text><text class="cls-12" transform="translate(189.67 260.03)">Sk3.1.2</text><text class="cls-12" transform="translate(463.33 260.03)">Sk3.1</text><path class="cls-13" d="M526.3,124.8h-1.4v19.1h1.4"/><path class="cls-13" d="M532.4,124.8h1.4v19.1h-1.4"/><rect class="cls-11" x="346" y="117.9" width="174.5" height="30.2"/><text class="cls-12" transform="translate(433.75 136.84)">Sk1</text><line class="cls-2" x1="619.8" y1="126.7" x2="619.8" y2="140.2"/><line class="cls-2" x1="760.9" y1="126.7" x2="760.9" y2="140.2"/><text class="cls-14" transform="translate(526.05 136.84)">&amp;</text><text class="cls-1" transform="translate(540.81 133.47)">‰</text><line class="cls-2" x1="560" y1="131.2" x2="560" y2="122.2"/><text class="cls-1" transform="translate(555.86 131.78)">œ</text><text class="cls-1" transform="translate(551.5 131.78)">#</text><text class="cls-1" transform="translate(556 135.16)">-</text><line class="cls-2" x1="584.3" y1="139.7" x2="584.3" y2="128.4"/><text class="cls-1" transform="translate(580.19 140.22)">œ</text><text class="cls-1" transform="translate(576.39 140.22)">n</text><text class="cls-1" transform="translate(580.33 143.88)">-</text><text class="cls-1" transform="translate(604.52 136.84)">J</text><line class="cls-2" x1="604.7" y1="129" x2="604.7" y2="140.2"/><text class="cls-1" transform="translate(604.52 128.41)">œ</text><text class="cls-1" transform="translate(600.58 128.41)">b</text><text class="cls-1" transform="translate(605.5 124.89)">.</text><text class="cls-3" transform="translate(552.53 155.13)"><tspan class="cls-15">W</tspan><tspan x="6.1" y="0">ie</tspan></text><text class="cls-3" transform="translate(578.03 155.13)">bin</text><text class="cls-3" transform="translate(602.55 155.13)">ich</text><text class="cls-1" transform="translate(525.13 109)">6</text><text class="cls-1" transform="translate(525.13 116.31)">8</text><line class="cls-2" x1="632.4" y1="136.3" x2="632.4" y2="125"/><text class="cls-1" transform="translate(628.28 136.84)">œ</text><text class="cls-1" transform="translate(624.48 136.84)">n</text><text class="cls-1" transform="translate(657.81 135.16)">J</text><line class="cls-2" x1="658" y1="127.3" x2="658" y2="138.5"/><text class="cls-1" transform="translate(657.81 126.72)">œ</text><text class="cls-1" transform="translate(653.45 126.72)">#</text><line class="cls-2" x1="676.4" y1="137.4" x2="676.4" y2="146.4"/><text class="cls-1" transform="translate(676.23 136.84)">œ</text><text class="cls-1" transform="translate(672.44 136.84)">n</text><text class="cls-1" transform="translate(705.77 133.47)">‰</text><text class="cls-1" transform="translate(724.05 133.47)">‰</text><text class="cls-1" transform="translate(742.47 133.47)">œ</text><text class="cls-1" transform="translate(738.53 133.47)">b</text><line class="cls-2" x1="742.7" y1="134" x2="742.7" y2="144.4"/><text class="cls-1" transform="translate(769.47 133.47)">œ</text><line class="cls-2" x1="769.7" y1="134" x2="769.7" y2="144.4"/><line class="cls-16" x1="786.6" y1="123.3" x2="792.7" y2="123.3"/><text class="cls-1" transform="translate(787.47 123.34)">œ</text><text class="cls-1" transform="translate(783.53 123.34)">b</text><line class="cls-2" x1="787.7" y1="123.9" x2="787.7" y2="144.4"/><path d="M742.5,143.6h45.4v1.7H742.5Z"/><text class="cls-3" transform="translate(624.81 155.13)">froh</text><text class="cls-3" transform="translate(653.22 155.13)">froh!</text><text class="cls-3" transform="translate(738.58 155.13)">Noch</text><line class="cls-2" x1="805.1" y1="135.7" x2="805.1" y2="144.7"/><text class="cls-1" transform="translate(804.91 135.16)">œ</text><text class="cls-1" transform="translate(801.11 135.16)">n</text><text class="cls-3" transform="translate(785.22 155.13)">ein</text><text class="cls-3" transform="translate(802 155.13)">mal</text><path class="cls-2" d="M808,122.5h5.9v23.8H808"/><path d="M745.6,130.9c4.9-3.1,19.8-3.1,24.8,0l-.1.1c-4.8-2.4-19.8-2.4-24.6,0Z"/><line class="cls-17" x1="668.6" y1="155" x2="680.5" y2="155"/><line class="cls-17" x1="754.4" y1="155" x2="769.5" y2="155"/><text class="cls-3" transform="translate(796.61 155.13)">-</text><path d="M660.1,123.3c7.3-1.8,15.5,2.1,18.4,9h0c-3.3-6.1-11.5-10-18.4-9"/><path d="M586.2,131.9c3.4-7.5,12.7-11.8,20.5-9.6h0c-7.5-1.4-16.7,2.9-20.5,9.6"/><text class="cls-1" transform="translate(706.77 173.97)">‰</text><text class="cls-1" transform="translate(725.05 173.97)">œ</text><text class="cls-1" transform="translate(721.11 173.97)">b</text><line class="cls-2" x1="725.2" y1="174.5" x2="725.2" y2="184.9"/><line class="cls-16" x1="742.6" y1="163.8" x2="748.7" y2="163.8"/><text class="cls-1" transform="translate(743.47 163.84)">œ</text><text class="cls-1" transform="translate(739.53 163.84)">b</text><line class="cls-2" x1="743.7" y1="164.4" x2="743.7" y2="183.3"/><path d="M725,184.1l18.8-1.7v1.7L725,185.8Z"/><text class="cls-14" transform="translate(694.81 177.34)">&amp;</text><line class="cls-2" x1="774.7" y1="175.1" x2="774.7" y2="163.8"/><text class="cls-1" transform="translate(770.61 175.66)">œ</text><text class="cls-1" transform="translate(766.81 175.66)">n</text><text class="cls-1" transform="translate(805.91 173.97)">‰</text><text class="cls-1" transform="translate(832.34 182.69)">.</text><text class="cls-1" transform="translate(827.39 175.66)">j</text><line class="cls-2" x1="827.6" y1="183.5" x2="827.6" y2="172.3"/><line class="cls-16" x1="822.6" y1="184.1" x2="828.7" y2="184.1"/><text class="cls-1" transform="translate(823.48 184.09)">œ</text><text class="cls-1" transform="translate(819.69 184.09)">n</text><text class="cls-1" transform="translate(855.83 172.56)">.</text><text class="cls-1" transform="translate(850.88 165.53)">j</text><line class="cls-2" x1="851.1" y1="173.4" x2="851.1" y2="162.2"/><text class="cls-1" transform="translate(846.97 173.97)">œ</text><text class="cls-1" transform="translate(843.17 173.97)">n</text><path class="cls-2" d="M761.6,167.2v13.5"/><text class="cls-1" transform="translate(884.09 169.19)">.</text><line class="cls-2" x1="878.8" y1="171.2" x2="878.8" y2="182.4"/><text class="cls-1" transform="translate(878.61 170.59)">œ</text><text class="cls-1" transform="translate(874.81 170.59)">n</text><line class="cls-2" x1="904.5" y1="171.2" x2="904.5" y2="182.4"/><text class="cls-1" transform="translate(904.34 170.59)">œ</text><text class="cls-1" transform="translate(926.81 170.59)">j</text><line class="cls-2" x1="927" y1="178.5" x2="927" y2="167.2"/><text class="cls-1" transform="translate(922.91 179.03)">œ</text><text class="cls-1" transform="translate(919.11 179.03)">n</text><path class="cls-2" d="M869.8,167.2v13.5"/><path class="cls-2" d="M935.1,167.2v13.5"/><path d="M881.8,167.9c4.6-2.8,18.8-2.8,23.5,0l-.1.1c-4.6-2.1-18.8-2.1-23.3,0Z"/><path class="cls-13" d="M695.4,165.5H694v19.1h1.4"/><path class="cls-13" d="M701.5,165.5h1.4v19.1h-1.4"/><text class="cls-1" transform="translate(742.47 216.16)">œ</text><text class="cls-1" transform="translate(738.53 216.16)">b</text><line class="cls-2" x1="746.6" y1="215.6" x2="746.6" y2="205.2"/><text class="cls-1" transform="translate(769.75 216.16)">œ</text><line class="cls-2" x1="773.9" y1="215.6" x2="773.9" y2="205.2"/><path d="M746.4,204.3h27.7V206H746.4Z"/><text class="cls-14" transform="translate(724.05 217.84)">&amp;</text><path class="cls-2" d="M738.6,197.5c-4.9,8.3-4.9,25,0,33.3"/><text class="cls-1" transform="translate(787.19 221.22)">J</text><line class="cls-2" x1="787.4" y1="213.3" x2="787.4" y2="224.6"/><text class="cls-1" transform="translate(787.19 212.78)">œ</text><text class="cls-1" transform="translate(783.39 212.78)">n</text><line class="cls-2" x1="809" y1="215.6" x2="809" y2="204.3"/><text class="cls-1" transform="translate(804.91 216.16)">œ</text><text class="cls-1" transform="translate(801.11 216.16)">n</text><path class="cls-2" d="M761.6,207.7v13.5"/><path class="cls-2" d="M809.3,198.4c7.2,8.3,7.2,25,0,33.3"/><path d="M748.9,213.6c4.4-2.2,17.3-2.2,21.7,0l-.1.1c-4.3-1.5-17.2-1.5-21.5,0Z"/><path class="cls-13" d="M724.4,206H723v19.1h1.4"/><path class="cls-13" d="M730.5,206h1.4v19.1h-1.4"/><text class="cls-6" transform="translate(536.31 78.91)">1</text><text class="cls-6" transform="translate(619.56 78.91)">2</text><text class="cls-6" transform="translate(760.75 78.91)">3</text><text class="cls-6" transform="translate(869.31 78.91)">4</text><path class="cls-18" d="M624.92,127.85a10.68,10.68,0,0,0-2.93,5.92,11.22,11.22,0,0,0,2.92,8.83"/><path class="cls-18" d="M633.9,127.85a10.75,10.75,0,0,1,2.92,5.92,11.26,11.26,0,0,1-2.91,8.83"/><text class="cls-19" transform="translate(822.91 173.97)">‰</text></svg>