<?xml version="1.0" encoding="UTF-8" standalone="no"?>
<!DOCTYPE svg PUBLIC "-//W3C//DTD SVG 1.1//EN"
 "http://www.w3.org/Graphics/SVG/1.1/DTD/svg11.dtd">
<!-- Generated by graphviz version 2.47.0 (20210316.0004)
 -->
<!-- Title: dependencies Pages: 1 -->
<svg width="3309pt" height="284pt"
 viewBox="0.00 0.00 3309.00 284.00" xmlns="http://www.w3.org/2000/svg" xmlns:xlink="http://www.w3.org/1999/xlink">
<g id="graph0" class="graph" transform="scale(1 1) rotate(0) translate(4 280)">
<title>dependencies</title>
<polygon fill="white" stroke="transparent" points="-4,4 -4,-280 3305,-280 3305,4 -4,4"/>
<text text-anchor="start" x="1629.51" y="-42.4" font-family="Times-12" font-weight="bold" font-size="14.00">Legend</text>
<polygon fill="#ffffb3" stroke="transparent" points="1416.5,-10 1416.5,-30 1436.5,-30 1436.5,-10 1416.5,-10"/>
<text text-anchor="start" x="1440.13" y="-15.4" font-family="Times-12" font-size="14.00"> &#160;Declarations</text>
<polygon fill="#8dd3c7" stroke="transparent" points="1529.5,-10 1529.5,-30 1549.5,-30 1549.5,-10 1529.5,-10"/>
<text text-anchor="start" x="1553.23" y="-15.4" font-family="Times-12" font-size="14.00"> &#160;Module</text>
<polygon fill="#80b1d3" stroke="transparent" points="1615.5,-10 1615.5,-30 1635.5,-30 1635.5,-10 1615.5,-10"/>
<text text-anchor="start" x="1639.28" y="-15.4" font-family="Times-12" font-size="14.00"> &#160;Bootstrap</text>
<polygon fill="#fdb462" stroke="transparent" points="1712.5,-10 1712.5,-30 1732.5,-30 1732.5,-10 1712.5,-10"/>
<text text-anchor="start" x="1736.17" y="-15.4" font-family="Times-12" font-size="14.00"> &#160;Providers</text>
<polygon fill="#fb8072" stroke="transparent" points="1808.5,-10 1808.5,-30 1828.5,-30 1828.5,-10 1808.5,-10"/>
<text text-anchor="start" x="1832.23" y="-15.4" font-family="Times-12" font-size="14.00"> &#160;Exports</text>
<g id="clust1" class="cluster">
<title>cluster_SharedModule</title>
<polygon fill="none" stroke="black" stroke-dasharray="1,5" points="8,-70 8,-268 3293,-268 3293,-70 8,-70"/>
</g>
<g id="clust2" class="cluster">
<title>cluster_SharedModule_declarations</title>
<polygon fill="none" stroke="black" points="3094,-78 3094,-130 3258,-130 3258,-78 3094,-78"/>
</g>
<g id="clust5" class="cluster">
<title>cluster_SharedModule_exports</title>
<polygon fill="none" stroke="black" points="16,-208 16,-260 3285,-260 3285,-208 16,-208"/>
</g>
<g id="clust4" class="cluster">
<title>cluster_SharedModule_imports</title>
<polygon fill="none" stroke="black" points="48,-78 48,-130 3086,-130 3086,-78 48,-78"/>
</g>
<!-- JsonViewerComponent -->
<g id="node1" class="node">
<title>JsonViewerComponent</title>
<polygon fill="#ffffb3" stroke="black" points="3249.92,-122 3102.08,-122 3102.08,-86 3249.92,-86 3249.92,-122"/>
<text text-anchor="middle" x="3176" y="-99.8" font-family="Times,serif" font-size="14.00">JsonViewerComponent</text>
</g>
<!-- SharedModule -->
<g id="node2" class="node">
<title>SharedModule</title>
<polygon fill="#8dd3c7" stroke="black" points="1733.42,-187 1730.42,-191 1709.42,-191 1706.42,-187 1634.58,-187 1634.58,-151 1733.42,-151 1733.42,-187"/>
<text text-anchor="middle" x="1684" y="-164.8" font-family="Times,serif" font-size="14.00">SharedModule</text>
</g>
<!-- JsonViewerComponent&#45;&gt;SharedModule -->
<g id="edge1" class="edge">
<title>JsonViewerComponent&#45;&gt;SharedModule</title>
<path fill="none" stroke="black" d="M3130.43,-122.11C3130.43,-141.34 3130.43,-169 3130.43,-169 3130.43,-169 1743.37,-169 1743.37,-169"/>
<polygon fill="black" stroke="black" points="1743.37,-165.5 1733.37,-169 1743.37,-172.5 1743.37,-165.5"/>
</g>
<!-- AbbrDirective  -->
<g id="node21" class="node">
<title>AbbrDirective </title>
<polygon fill="#fb8072" stroke="black" points="3277.35,-252 3176.65,-252 3176.65,-216 3277.35,-216 3277.35,-252"/>
<text text-anchor="middle" x="3227" y="-229.8" font-family="Times,serif" font-size="14.00">AbbrDirective </text>
</g>
<!-- SharedModule&#45;&gt;AbbrDirective  -->
<g id="edge20" class="edge">
<title>SharedModule&#45;&gt;AbbrDirective </title>
<path fill="none" stroke="black" stroke-dasharray="5,2" d="M1733.58,-170C1996.24,-170 3213.27,-170 3213.27,-170 3213.27,-170 3213.27,-205.83 3213.27,-205.83"/>
<polygon fill="black" stroke="black" points="3209.77,-205.83 3213.27,-215.83 3216.77,-205.83 3209.77,-205.83"/>
</g>
<!-- AlertErrorComponent  -->
<g id="node22" class="node">
<title>AlertErrorComponent </title>
<polygon fill="#fb8072" stroke="black" points="3158.63,-252 3015.37,-252 3015.37,-216 3158.63,-216 3158.63,-252"/>
<text text-anchor="middle" x="3087" y="-229.8" font-family="Times,serif" font-size="14.00">AlertErrorComponent </text>
</g>
<!-- SharedModule&#45;&gt;AlertErrorComponent  -->
<g id="edge21" class="edge">
<title>SharedModule&#45;&gt;AlertErrorComponent </title>
<path fill="none" stroke="black" stroke-dasharray="5,2" d="M1733.31,-172C1977.66,-172 3046.93,-172 3046.93,-172 3046.93,-172 3046.93,-205.73 3046.93,-205.73"/>
<polygon fill="black" stroke="black" points="3043.43,-205.73 3046.93,-215.73 3050.43,-205.73 3043.43,-205.73"/>
</g>
<!-- AlertInfoComponent  -->
<g id="node23" class="node">
<title>AlertInfoComponent </title>
<polygon fill="#fb8072" stroke="black" points="2997.42,-252 2860.58,-252 2860.58,-216 2997.42,-216 2997.42,-252"/>
<text text-anchor="middle" x="2929" y="-229.8" font-family="Times,serif" font-size="14.00">AlertInfoComponent </text>
</g>
<!-- SharedModule&#45;&gt;AlertInfoComponent  -->
<g id="edge22" class="edge">
<title>SharedModule&#45;&gt;AlertInfoComponent </title>
<path fill="none" stroke="black" stroke-dasharray="5,2" d="M1733.28,-174C1962.39,-174 2912.18,-174 2912.18,-174 2912.18,-174 2912.18,-206 2912.18,-206"/>
<polygon fill="black" stroke="black" points="2908.68,-206 2912.18,-216 2915.68,-206 2908.68,-206"/>
</g>
<!-- ButtonScrollToTopComponent  -->
<g id="node24" class="node">
<title>ButtonScrollToTopComponent </title>
<polygon fill="#fb8072" stroke="black" points="2842.5,-252 2647.5,-252 2647.5,-216 2842.5,-216 2842.5,-252"/>
<text text-anchor="middle" x="2745" y="-229.8" font-family="Times,serif" font-size="14.00">ButtonScrollToTopComponent </text>
</g>
<!-- SharedModule&#45;&gt;ButtonScrollToTopComponent  -->
<g id="edge23" class="edge">
<title>SharedModule&#45;&gt;ButtonScrollToTopComponent </title>
<path fill="none" stroke="black" stroke-dasharray="5,2" d="M1733.24,-176C1931.84,-176 2663.39,-176 2663.39,-176 2663.39,-176 2663.39,-205.97 2663.39,-205.97"/>
<polygon fill="black" stroke="black" points="2659.89,-205.97 2663.39,-215.97 2666.89,-205.97 2659.89,-205.97"/>
</g>
<!-- CompileHtmlDirective  -->
<g id="node25" class="node">
<title>CompileHtmlDirective </title>
<polygon fill="#fb8072" stroke="black" points="2629.08,-252 2480.92,-252 2480.92,-216 2629.08,-216 2629.08,-252"/>
<text text-anchor="middle" x="2555" y="-229.8" font-family="Times,serif" font-size="14.00">CompileHtmlDirective </text>
</g>
<!-- SharedModule&#45;&gt;CompileHtmlDirective  -->
<g id="edge24" class="edge">
<title>SharedModule&#45;&gt;CompileHtmlDirective </title>
<path fill="none" stroke="black" stroke-dasharray="5,2" d="M1733.32,-178C1917.58,-178 2555,-178 2555,-178 2555,-178 2555,-205.97 2555,-205.97"/>
<polygon fill="black" stroke="black" points="2551.5,-205.97 2555,-215.97 2558.5,-205.97 2551.5,-205.97"/>
</g>
<!-- ExternalLinkDirective  -->
<g id="node26" class="node">
<title>ExternalLinkDirective </title>
<polygon fill="#fb8072" stroke="black" points="2462.95,-252 2317.05,-252 2317.05,-216 2462.95,-216 2462.95,-252"/>
<text text-anchor="middle" x="2390" y="-229.8" font-family="Times,serif" font-size="14.00">ExternalLinkDirective </text>
</g>
<!-- SharedModule&#45;&gt;ExternalLinkDirective  -->
<g id="edge25" class="edge">
<title>SharedModule&#45;&gt;ExternalLinkDirective </title>
<path fill="none" stroke="black" stroke-dasharray="5,2" d="M1733.32,-180C1892.36,-180 2381.41,-180 2381.41,-180 2381.41,-180 2381.41,-205.72 2381.41,-205.72"/>
<polygon fill="black" stroke="black" points="2377.91,-205.72 2381.41,-215.72 2384.91,-205.72 2377.91,-205.72"/>
</g>
<!-- FullscreenToggleComponent  -->
<g id="node27" class="node">
<title>FullscreenToggleComponent </title>
<polygon fill="#fb8072" stroke="black" points="2299.3,-252 2116.7,-252 2116.7,-216 2299.3,-216 2299.3,-252"/>
<text text-anchor="middle" x="2208" y="-229.8" font-family="Times,serif" font-size="14.00">FullscreenToggleComponent </text>
</g>
<!-- SharedModule&#45;&gt;FullscreenToggleComponent  -->
<g id="edge26" class="edge">
<title>SharedModule&#45;&gt;FullscreenToggleComponent </title>
<path fill="none" stroke="black" stroke-dasharray="5,2" d="M1733.53,-182C1849.87,-182 2130.84,-182 2130.84,-182 2130.84,-182 2130.84,-205.81 2130.84,-205.81"/>
<polygon fill="black" stroke="black" points="2127.34,-205.81 2130.84,-215.81 2134.34,-205.81 2127.34,-205.81"/>
</g>
<!-- HeadingComponent  -->
<g id="node28" class="node">
<title>HeadingComponent </title>
<polygon fill="#fb8072" stroke="black" points="2098.26,-252 1965.74,-252 1965.74,-216 2098.26,-216 2098.26,-252"/>
<text text-anchor="middle" x="2032" y="-229.8" font-family="Times,serif" font-size="14.00">HeadingComponent </text>
</g>
<!-- SharedModule&#45;&gt;HeadingComponent  -->
<g id="edge27" class="edge">
<title>SharedModule&#45;&gt;HeadingComponent </title>
<path fill="none" stroke="black" stroke-dasharray="5,2" d="M1733.49,-184C1829.57,-184 2032,-184 2032,-184 2032,-184 2032,-205.95 2032,-205.95"/>
<polygon fill="black" stroke="black" points="2028.5,-205.95 2032,-215.95 2035.5,-205.95 2028.5,-205.95"/>
</g>
<!-- JsonViewerComponent  -->
<g id="node29" class="node">
<title>JsonViewerComponent </title>
<polygon fill="#fb8072" stroke="black" points="1947.42,-252 1796.58,-252 1796.58,-216 1947.42,-216 1947.42,-252"/>
<text text-anchor="middle" x="1872" y="-229.8" font-family="Times,serif" font-size="14.00">JsonViewerComponent </text>
</g>
<!-- SharedModule&#45;&gt;JsonViewerComponent  -->
<g id="edge28" class="edge">
<title>SharedModule&#45;&gt;JsonViewerComponent </title>
<path fill="none" stroke="black" stroke-dasharray="5,2" d="M1733.52,-186C1778.93,-186 1839.15,-186 1839.15,-186 1839.15,-186 1839.15,-205.85 1839.15,-205.85"/>
<polygon fill="black" stroke="black" points="1835.65,-205.85 1839.15,-215.85 1842.65,-205.85 1835.65,-205.85"/>
</g>
<!-- LanguageSwitcherComponent  -->
<g id="node30" class="node">
<title>LanguageSwitcherComponent </title>
<polygon fill="#fb8072" stroke="black" points="1778.79,-252 1589.21,-252 1589.21,-216 1778.79,-216 1778.79,-252"/>
<text text-anchor="middle" x="1684" y="-229.8" font-family="Times,serif" font-size="14.00">LanguageSwitcherComponent </text>
</g>
<!-- SharedModule&#45;&gt;LanguageSwitcherComponent  -->
<g id="edge29" class="edge">
<title>SharedModule&#45;&gt;LanguageSwitcherComponent </title>
<path fill="none" stroke="black" stroke-dasharray="5,2" d="M1684,-187.11C1684,-187.11 1684,-205.99 1684,-205.99"/>
<polygon fill="black" stroke="black" points="1680.5,-205.99 1684,-215.99 1687.5,-205.99 1680.5,-205.99"/>
</g>
<!-- LicenseComponent  -->
<g id="node31" class="node">
<title>LicenseComponent </title>
<polygon fill="#fb8072" stroke="black" points="1571.36,-252 1442.64,-252 1442.64,-216 1571.36,-216 1571.36,-252"/>
<text text-anchor="middle" x="1507" y="-229.8" font-family="Times,serif" font-size="14.00">LicenseComponent </text>
</g>
<!-- SharedModule&#45;&gt;LicenseComponent  -->
<g id="edge30" class="edge">
<title>SharedModule&#45;&gt;LicenseComponent </title>
<path fill="none" stroke="black" stroke-dasharray="5,2" d="M1634.74,-186C1576.9,-186 1488.77,-186 1488.77,-186 1488.77,-186 1488.77,-205.85 1488.77,-205.85"/>
<polygon fill="black" stroke="black" points="1485.27,-205.85 1488.77,-215.85 1492.27,-205.85 1485.27,-205.85"/>
</g>
<!-- LogoComponent  -->
<g id="node32" class="node">
<title>LogoComponent </title>
<polygon fill="#fb8072" stroke="black" points="1425.39,-252 1310.61,-252 1310.61,-216 1425.39,-216 1425.39,-252"/>
<text text-anchor="middle" x="1368" y="-229.8" font-family="Times,serif" font-size="14.00">LogoComponent </text>
</g>
<!-- SharedModule&#45;&gt;LogoComponent  -->
<g id="edge31" class="edge">
<title>SharedModule&#45;&gt;LogoComponent </title>
<path fill="none" stroke="black" stroke-dasharray="5,2" d="M1634.61,-184C1542.58,-184 1354.1,-184 1354.1,-184 1354.1,-184 1354.1,-205.95 1354.1,-205.95"/>
<polygon fill="black" stroke="black" points="1350.6,-205.95 1354.1,-215.95 1357.6,-205.95 1350.6,-205.95"/>
</g>
<!-- MetaIdentifierBadgesComponent  -->
<g id="node33" class="node">
<title>MetaIdentifierBadgesComponent </title>
<polygon fill="#fb8072" stroke="black" points="1292.39,-252 1085.61,-252 1085.61,-216 1292.39,-216 1292.39,-252"/>
<text text-anchor="middle" x="1189" y="-229.8" font-family="Times,serif" font-size="14.00">MetaIdentifierBadgesComponent </text>
</g>
<!-- SharedModule&#45;&gt;MetaIdentifierBadgesComponent  -->
<g id="edge32" class="edge">
<title>SharedModule&#45;&gt;MetaIdentifierBadgesComponent </title>
<path fill="none" stroke="black" stroke-dasharray="5,2" d="M1634.41,-182C1510.06,-182 1194.88,-182 1194.88,-182 1194.88,-182 1194.88,-205.81 1194.88,-205.81"/>
<polygon fill="black" stroke="black" points="1191.38,-205.81 1194.88,-215.81 1198.38,-205.81 1191.38,-205.81"/>
</g>
<!-- ModalComponent  -->
<g id="node34" class="node">
<title>ModalComponent </title>
<polygon fill="#fb8072" stroke="black" points="1067.88,-252 946.12,-252 946.12,-216 1067.88,-216 1067.88,-252"/>
<text text-anchor="middle" x="1007" y="-229.8" font-family="Times,serif" font-size="14.00">ModalComponent </text>
</g>
<!-- SharedModule&#45;&gt;ModalComponent  -->
<g id="edge33" class="edge">
<title>SharedModule&#45;&gt;ModalComponent </title>
<path fill="none" stroke="black" stroke-dasharray="5,2" d="M1634.76,-180C1480.12,-180 1014.38,-180 1014.38,-180 1014.38,-180 1014.38,-205.72 1014.38,-205.72"/>
<polygon fill="black" stroke="black" points="1010.88,-205.72 1014.38,-215.72 1017.88,-205.72 1010.88,-205.72"/>
</g>
<!-- SharedNgbootstrapModule  -->
<g id="node35" class="node">
<title>SharedNgbootstrapModule </title>
<polygon fill="#fb8072" stroke="black" points="928.63,-252 757.37,-252 757.37,-216 928.63,-216 928.63,-252"/>
<text text-anchor="middle" x="843" y="-229.8" font-family="Times,serif" font-size="14.00">SharedNgbootstrapModule </text>
</g>
<!-- SharedModule&#45;&gt;SharedNgbootstrapModule  -->
<g id="edge34" class="edge">
<title>SharedModule&#45;&gt;SharedNgbootstrapModule </title>
<path fill="none" stroke="black" stroke-dasharray="5,2" d="M1634.75,-178C1455.99,-178 851.88,-178 851.88,-178 851.88,-178 851.88,-205.97 851.88,-205.97"/>
<polygon fill="black" stroke="black" points="848.38,-205.97 851.88,-215.97 855.38,-205.97 848.38,-205.97"/>
</g>
<!-- TableComponent  -->
<g id="node36" class="node">
<title>TableComponent </title>
<polygon fill="#fb8072" stroke="black" points="739.21,-252 622.79,-252 622.79,-216 739.21,-216 739.21,-252"/>
<text text-anchor="middle" x="681" y="-229.8" font-family="Times,serif" font-size="14.00">TableComponent </text>
</g>
<!-- SharedModule&#45;&gt;TableComponent  -->
<g id="edge35" class="edge">
<title>SharedModule&#45;&gt;TableComponent </title>
<path fill="none" stroke="black" stroke-dasharray="5,2" d="M1634.46,-176C1433.77,-176 691.88,-176 691.88,-176 691.88,-176 691.88,-205.97 691.88,-205.97"/>
<polygon fill="black" stroke="black" points="688.38,-205.97 691.88,-215.97 695.38,-205.97 688.38,-205.97"/>
</g>
<!-- ToastComponent  -->
<g id="node37" class="node">
<title>ToastComponent </title>
<polygon fill="#fb8072" stroke="black" points="604.93,-252 489.07,-252 489.07,-216 604.93,-216 604.93,-252"/>
<text text-anchor="middle" x="547" y="-229.8" font-family="Times,serif" font-size="14.00">ToastComponent </text>
</g>
<!-- SharedModule&#45;&gt;ToastComponent  -->
<g id="edge36" class="edge">
<title>SharedModule&#45;&gt;ToastComponent </title>
<path fill="none" stroke="black" stroke-dasharray="5,2" d="M1634.59,-174C1417.54,-174 559.38,-174 559.38,-174 559.38,-174 559.38,-206 559.38,-206"/>
<polygon fill="black" stroke="black" points="555.88,-206 559.38,-216 562.88,-206 555.88,-206"/>
</g>
<!-- TwelveToneSpinnerComponent  -->
<g id="node38" class="node">
<title>TwelveToneSpinnerComponent </title>
<polygon fill="#fb8072" stroke="black" points="470.63,-252 271.37,-252 271.37,-216 470.63,-216 470.63,-252"/>
<text text-anchor="middle" x="371" y="-229.8" font-family="Times,serif" font-size="14.00">TwelveToneSpinnerComponent </text>
</g>
<!-- SharedModule&#45;&gt;TwelveToneSpinnerComponent  -->
<g id="edge37" class="edge">
<title>SharedModule&#45;&gt;TwelveToneSpinnerComponent </title>
<path fill="none" stroke="black" stroke-dasharray="5,2" d="M1634.68,-172C1397.47,-172 385.38,-172 385.38,-172 385.38,-172 385.38,-205.73 385.38,-205.73"/>
<polygon fill="black" stroke="black" points="381.88,-205.73 385.38,-215.73 388.88,-205.73 381.88,-205.73"/>
</g>
<!-- ViewHandleButtonGroupComponent  -->
<g id="node39" class="node">
<title>ViewHandleButtonGroupComponent </title>
<polygon fill="#fb8072" stroke="black" points="253.96,-252 24.04,-252 24.04,-216 253.96,-216 253.96,-252"/>
<text text-anchor="middle" x="139" y="-229.8" font-family="Times,serif" font-size="14.00">ViewHandleButtonGroupComponent </text>
</g>
<!-- SharedModule&#45;&gt;ViewHandleButtonGroupComponent  -->
<g id="edge38" class="edge">
<title>SharedModule&#45;&gt;ViewHandleButtonGroupComponent </title>
<path fill="none" stroke="black" stroke-dasharray="5,2" d="M1634.42,-170C1371.79,-170 154.88,-170 154.88,-170 154.88,-170 154.88,-205.83 154.88,-205.83"/>
<polygon fill="black" stroke="black" points="151.38,-205.83 154.88,-215.83 158.38,-205.83 151.38,-205.83"/>
</g>
<!-- AbbrDirective -->
<g id="node3" class="node">
<title>AbbrDirective</title>
<polygon fill="#8dd3c7" stroke="black" points="3078.35,-122 3075.35,-126 3054.35,-126 3051.35,-122 2981.65,-122 2981.65,-86 3078.35,-86 3078.35,-122"/>
<text text-anchor="middle" x="3030" y="-99.8" font-family="Times,serif" font-size="14.00">AbbrDirective</text>
</g>
<!-- AbbrDirective&#45;&gt;SharedModule -->
<g id="edge2" class="edge">
<title>AbbrDirective&#45;&gt;SharedModule</title>
<path fill="none" stroke="black" d="M2989.52,-122.22C2989.52,-140.83 2989.52,-167 2989.52,-167 2989.52,-167 1743.58,-167 1743.58,-167"/>
<polygon fill="black" stroke="black" points="1743.58,-163.5 1733.58,-167 1743.58,-170.5 1743.58,-163.5"/>
</g>
<!-- AlertErrorComponent -->
<g id="node4" class="node">
<title>AlertErrorComponent</title>
<polygon fill="#8dd3c7" stroke="black" points="2963.63,-122 2960.63,-126 2939.63,-126 2936.63,-122 2824.37,-122 2824.37,-86 2963.63,-86 2963.63,-122"/>
<text text-anchor="middle" x="2894" y="-99.8" font-family="Times,serif" font-size="14.00">AlertErrorComponent</text>
</g>
<!-- AlertErrorComponent&#45;&gt;SharedModule -->
<g id="edge3" class="edge">
<title>AlertErrorComponent&#45;&gt;SharedModule</title>
<path fill="none" stroke="black" d="M2833.22,-122.3C2833.22,-140.27 2833.22,-165 2833.22,-165 2833.22,-165 1743.38,-165 1743.38,-165"/>
<polygon fill="black" stroke="black" points="1743.38,-161.5 1733.38,-165 1743.38,-168.5 1743.38,-161.5"/>
</g>
<!-- AlertInfoComponent -->
<g id="node5" class="node">
<title>AlertInfoComponent</title>
<polygon fill="#8dd3c7" stroke="black" points="2805.92,-122 2802.92,-126 2781.92,-126 2778.92,-122 2672.08,-122 2672.08,-86 2805.92,-86 2805.92,-122"/>
<text text-anchor="middle" x="2739" y="-99.8" font-family="Times,serif" font-size="14.00">AlertInfoComponent</text>
</g>
<!-- AlertInfoComponent&#45;&gt;SharedModule -->
<g id="edge4" class="edge">
<title>AlertInfoComponent&#45;&gt;SharedModule</title>
<path fill="none" stroke="black" d="M2739,-122.02C2739,-139.37 2739,-163 2739,-163 2739,-163 1743.47,-163 1743.47,-163"/>
<polygon fill="black" stroke="black" points="1743.47,-159.5 1733.47,-163 1743.47,-166.5 1743.47,-159.5"/>
</g>
<!-- ButtonScrollToTopComponent -->
<g id="node6" class="node">
<title>ButtonScrollToTopComponent</title>
<polygon fill="#8dd3c7" stroke="black" points="2654.49,-122 2651.49,-126 2630.49,-126 2627.49,-122 2463.51,-122 2463.51,-86 2654.49,-86 2654.49,-122"/>
<text text-anchor="middle" x="2559" y="-99.8" font-family="Times,serif" font-size="14.00">ButtonScrollToTopComponent</text>
</g>
<!-- ButtonScrollToTopComponent&#45;&gt;SharedModule -->
<g id="edge5" class="edge">
<title>ButtonScrollToTopComponent&#45;&gt;SharedModule</title>
<path fill="none" stroke="black" d="M2472.11,-122.04C2472.11,-138.73 2472.11,-161 2472.11,-161 2472.11,-161 1743.3,-161 1743.3,-161"/>
<polygon fill="black" stroke="black" points="1743.3,-157.5 1733.3,-161 1743.3,-164.5 1743.3,-157.5"/>
</g>
<!-- CompileHtmlDirective -->
<g id="node7" class="node">
<title>CompileHtmlDirective</title>
<polygon fill="#8dd3c7" stroke="black" points="2445.58,-122 2442.58,-126 2421.58,-126 2418.58,-122 2300.42,-122 2300.42,-86 2445.58,-86 2445.58,-122"/>
<text text-anchor="middle" x="2373" y="-99.8" font-family="Times,serif" font-size="14.00">CompileHtmlDirective</text>
</g>
<!-- CompileHtmlDirective&#45;&gt;SharedModule -->
<g id="edge6" class="edge">
<title>CompileHtmlDirective&#45;&gt;SharedModule</title>
<path fill="none" stroke="black" d="M2308.87,-122.01C2308.87,-138.05 2308.87,-159 2308.87,-159 2308.87,-159 1743.29,-159 1743.29,-159"/>
<polygon fill="black" stroke="black" points="1743.29,-155.5 1733.29,-159 1743.29,-162.5 1743.29,-155.5"/>
</g>
<!-- ExternalLinkDirective -->
<g id="node8" class="node">
<title>ExternalLinkDirective</title>
<polygon fill="#8dd3c7" stroke="black" points="2281.95,-122 2278.95,-126 2257.95,-126 2254.95,-122 2140.05,-122 2140.05,-86 2281.95,-86 2281.95,-122"/>
<text text-anchor="middle" x="2211" y="-99.8" font-family="Times,serif" font-size="14.00">ExternalLinkDirective</text>
</g>
<!-- ExternalLinkDirective&#45;&gt;SharedModule -->
<g id="edge7" class="edge">
<title>ExternalLinkDirective&#45;&gt;SharedModule</title>
<path fill="none" stroke="black" d="M2211,-122.24C2211,-137.57 2211,-157 2211,-157 2211,-157 1743.58,-157 1743.58,-157"/>
<polygon fill="black" stroke="black" points="1743.58,-153.5 1733.58,-157 1743.58,-160.5 1743.58,-153.5"/>
</g>
<!-- FullscreenToggleComponent -->
<g id="node9" class="node">
<title>FullscreenToggleComponent</title>
<polygon fill="#8dd3c7" stroke="black" points="2121.8,-122 2118.8,-126 2097.8,-126 2094.8,-122 1942.2,-122 1942.2,-86 2121.8,-86 2121.8,-122"/>
<text text-anchor="middle" x="2032" y="-99.8" font-family="Times,serif" font-size="14.00">FullscreenToggleComponent</text>
</g>
<!-- FullscreenToggleComponent&#45;&gt;SharedModule -->
<g id="edge8" class="edge">
<title>FullscreenToggleComponent&#45;&gt;SharedModule</title>
<path fill="none" stroke="black" d="M1956.66,-122.12C1956.66,-136.78 1956.66,-155 1956.66,-155 1956.66,-155 1743.38,-155 1743.38,-155"/>
<polygon fill="black" stroke="black" points="1743.38,-151.5 1733.38,-155 1743.38,-158.5 1743.38,-151.5"/>
</g>
<!-- HeadingComponent -->
<g id="node10" class="node">
<title>HeadingComponent</title>
<polygon fill="#8dd3c7" stroke="black" points="1924.26,-122 1921.26,-126 1900.26,-126 1897.26,-122 1795.74,-122 1795.74,-86 1924.26,-86 1924.26,-122"/>
<text text-anchor="middle" x="1860" y="-99.8" font-family="Times,serif" font-size="14.00">HeadingComponent</text>
</g>
<!-- HeadingComponent&#45;&gt;SharedModule -->
<g id="edge9" class="edge">
<title>HeadingComponent&#45;&gt;SharedModule</title>
<path fill="none" stroke="black" d="M1881.77,-122.25C1881.77,-136.18 1881.77,-153 1881.77,-153 1881.77,-153 1743.39,-153 1743.39,-153"/>
<polygon fill="black" stroke="black" points="1743.39,-149.5 1733.39,-153 1743.39,-156.5 1743.39,-149.5"/>
</g>
<!-- LanguageSwitcherComponent -->
<g id="node11" class="node">
<title>LanguageSwitcherComponent</title>
<polygon fill="#8dd3c7" stroke="black" points="1777.29,-122 1774.29,-126 1753.29,-126 1750.29,-122 1590.71,-122 1590.71,-86 1777.29,-86 1777.29,-122"/>
<text text-anchor="middle" x="1684" y="-99.8" font-family="Times,serif" font-size="14.00">LanguageSwitcherComponent</text>
</g>
<!-- LanguageSwitcherComponent&#45;&gt;SharedModule -->
<g id="edge10" class="edge">
<title>LanguageSwitcherComponent&#45;&gt;SharedModule</title>
<path fill="none" stroke="black" d="M1684,-122.11C1684,-122.11 1684,-140.99 1684,-140.99"/>
<polygon fill="black" stroke="black" points="1680.5,-140.99 1684,-150.99 1687.5,-140.99 1680.5,-140.99"/>
</g>
<!-- LicenseComponent -->
<g id="node12" class="node">
<title>LicenseComponent</title>
<polygon fill="#8dd3c7" stroke="black" points="1572.36,-122 1569.36,-126 1548.36,-126 1545.36,-122 1447.64,-122 1447.64,-86 1572.36,-86 1572.36,-122"/>
<text text-anchor="middle" x="1510" y="-99.8" font-family="Times,serif" font-size="14.00">LicenseComponent</text>
</g>
<!-- LicenseComponent&#45;&gt;SharedModule -->
<g id="edge11" class="edge">
<title>LicenseComponent&#45;&gt;SharedModule</title>
<path fill="none" stroke="black" d="M1529.98,-122.25C1529.98,-136.18 1529.98,-153 1529.98,-153 1529.98,-153 1624.42,-153 1624.42,-153"/>
<polygon fill="black" stroke="black" points="1624.42,-156.5 1634.42,-153 1624.42,-149.5 1624.42,-156.5"/>
</g>
<!-- LogoComponent -->
<g id="node13" class="node">
<title>LogoComponent</title>
<polygon fill="#8dd3c7" stroke="black" points="1429.39,-122 1426.39,-126 1405.39,-126 1402.39,-122 1318.61,-122 1318.61,-86 1429.39,-86 1429.39,-122"/>
<text text-anchor="middle" x="1374" y="-99.8" font-family="Times,serif" font-size="14.00">LogoComponent</text>
</g>
<!-- LogoComponent&#45;&gt;SharedModule -->
<g id="edge12" class="edge">
<title>LogoComponent&#45;&gt;SharedModule</title>
<path fill="none" stroke="black" d="M1389.65,-122.12C1389.65,-136.78 1389.65,-155 1389.65,-155 1389.65,-155 1624.73,-155 1624.73,-155"/>
<polygon fill="black" stroke="black" points="1624.73,-158.5 1634.73,-155 1624.73,-151.5 1624.73,-158.5"/>
</g>
<!-- MetaIdentifierBadgesComponent -->
<g id="node14" class="node">
<title>MetaIdentifierBadgesComponent</title>
<polygon fill="#8dd3c7" stroke="black" points="1300.89,-122 1297.89,-126 1276.89,-126 1273.89,-122 1097.11,-122 1097.11,-86 1300.89,-86 1300.89,-122"/>
<text text-anchor="middle" x="1199" y="-99.8" font-family="Times,serif" font-size="14.00">MetaIdentifierBadgesComponent</text>
</g>
<!-- MetaIdentifierBadgesComponent&#45;&gt;SharedModule -->
<g id="edge13" class="edge">
<title>MetaIdentifierBadgesComponent&#45;&gt;SharedModule</title>
<path fill="none" stroke="black" d="M1296.57,-122.24C1296.57,-137.57 1296.57,-157 1296.57,-157 1296.57,-157 1624.54,-157 1624.54,-157"/>
<polygon fill="black" stroke="black" points="1624.54,-160.5 1634.54,-157 1624.54,-153.5 1624.54,-160.5"/>
</g>
<!-- ModalComponent -->
<g id="node15" class="node">
<title>ModalComponent</title>
<polygon fill="#8dd3c7" stroke="black" points="1078.88,-122 1075.88,-126 1054.88,-126 1051.88,-122 961.12,-122 961.12,-86 1078.88,-86 1078.88,-122"/>
<text text-anchor="middle" x="1020" y="-99.8" font-family="Times,serif" font-size="14.00">ModalComponent</text>
</g>
<!-- ModalComponent&#45;&gt;SharedModule -->
<g id="edge14" class="edge">
<title>ModalComponent&#45;&gt;SharedModule</title>
<path fill="none" stroke="black" d="M1073.32,-122.01C1073.32,-138.05 1073.32,-159 1073.32,-159 1073.32,-159 1624.54,-159 1624.54,-159"/>
<polygon fill="black" stroke="black" points="1624.54,-162.5 1634.54,-159 1624.54,-155.5 1624.54,-162.5"/>
</g>
<!-- SharedNgbootstrapModule -->
<g id="node16" class="node">
<title>SharedNgbootstrapModule</title>
<polygon fill="#8dd3c7" stroke="black" points="942.63,-122 939.63,-126 918.63,-126 915.63,-122 775.37,-122 775.37,-86 942.63,-86 942.63,-122"/>
<text text-anchor="middle" x="859" y="-99.8" font-family="Times,serif" font-size="14.00">SharedNgbootstrapModule</text>
</g>
<!-- SharedNgbootstrapModule&#45;&gt;SharedModule -->
<g id="edge15" class="edge">
<title>SharedNgbootstrapModule&#45;&gt;SharedModule</title>
<path fill="none" stroke="black" d="M935.69,-122.04C935.69,-138.73 935.69,-161 935.69,-161 935.69,-161 1624.61,-161 1624.61,-161"/>
<polygon fill="black" stroke="black" points="1624.61,-164.5 1634.61,-161 1624.61,-157.5 1624.61,-164.5"/>
</g>
<!-- TableComponent -->
<g id="node17" class="node">
<title>TableComponent</title>
<polygon fill="#8dd3c7" stroke="black" points="757.7,-122 754.7,-126 733.7,-126 730.7,-122 644.3,-122 644.3,-86 757.7,-86 757.7,-122"/>
<text text-anchor="middle" x="701" y="-99.8" font-family="Times,serif" font-size="14.00">TableComponent</text>
</g>
<!-- TableComponent&#45;&gt;SharedModule -->
<g id="edge16" class="edge">
<title>TableComponent&#45;&gt;SharedModule</title>
<path fill="none" stroke="black" d="M748.39,-122.02C748.39,-139.37 748.39,-163 748.39,-163 748.39,-163 1624.69,-163 1624.69,-163"/>
<polygon fill="black" stroke="black" points="1624.69,-166.5 1634.69,-163 1624.69,-159.5 1624.69,-166.5"/>
</g>
<!-- ToastComponent -->
<g id="node18" class="node">
<title>ToastComponent</title>
<polygon fill="#8dd3c7" stroke="black" points="626.44,-122 623.44,-126 602.44,-126 599.44,-122 513.56,-122 513.56,-86 626.44,-86 626.44,-122"/>
<text text-anchor="middle" x="570" y="-99.8" font-family="Times,serif" font-size="14.00">ToastComponent</text>
</g>
<!-- ToastComponent&#45;&gt;SharedModule -->
<g id="edge17" class="edge">
<title>ToastComponent&#45;&gt;SharedModule</title>
<path fill="none" stroke="black" d="M613.81,-122.3C613.81,-140.27 613.81,-165 613.81,-165 613.81,-165 1624.53,-165 1624.53,-165"/>
<polygon fill="black" stroke="black" points="1624.53,-168.5 1634.53,-165 1624.53,-161.5 1624.53,-168.5"/>
</g>
<!-- TwelveToneSpinnerComponent -->
<g id="node19" class="node">
<title>TwelveToneSpinnerComponent</title>
<polygon fill="#8dd3c7" stroke="black" points="495.63,-122 492.63,-126 471.63,-126 468.63,-122 300.37,-122 300.37,-86 495.63,-86 495.63,-122"/>
<text text-anchor="middle" x="398" y="-99.8" font-family="Times,serif" font-size="14.00">TwelveToneSpinnerComponent</text>
</g>
<!-- TwelveToneSpinnerComponent&#45;&gt;SharedModule -->
<g id="edge18" class="edge">
<title>TwelveToneSpinnerComponent&#45;&gt;SharedModule</title>
<path fill="none" stroke="black" d="M479.8,-122.22C479.8,-140.83 479.8,-167 479.8,-167 479.8,-167 1624.55,-167 1624.55,-167"/>
<polygon fill="black" stroke="black" points="1624.55,-170.5 1634.55,-167 1624.55,-163.5 1624.55,-170.5"/>
</g>
<!-- ViewHandleButtonGroupComponent -->
<g id="node20" class="node">
<title>ViewHandleButtonGroupComponent</title>
<polygon fill="#8dd3c7" stroke="black" points="281.96,-122 278.96,-126 257.96,-126 254.96,-122 56.04,-122 56.04,-86 281.96,-86 281.96,-122"/>
<text text-anchor="middle" x="169" y="-99.8" font-family="Times,serif" font-size="14.00">ViewHandleButtonGroupComponent</text>
</g>
<!-- ViewHandleButtonGroupComponent&#45;&gt;SharedModule -->
<g id="edge19" class="edge">
<title>ViewHandleButtonGroupComponent&#45;&gt;SharedModule</title>
<path fill="none" stroke="black" d="M276.71,-122.11C276.71,-141.34 276.71,-169 276.71,-169 276.71,-169 1624.74,-169 1624.74,-169"/>
<polygon fill="black" stroke="black" points="1624.74,-172.5 1634.74,-169 1624.74,-165.5 1624.74,-172.5"/>
</g>
</g>
</svg>
