<svg id="Ebene_1" data-name="Ebene 1" xmlns="http://www.w3.org/2000/svg" viewBox="0 0 1021 595"><defs><style>.cls-1,.cls-10,.cls-15,.cls-17,.cls-3,.cls-6,.cls-8{isolation:isolate;}.cls-1{font-size:13.5px;}.cls-1,.cls-17{font-family:Maestro, Maestro;}.cls-12,.cls-16,.cls-2,.cls-9{fill:none;}.cls-12,.cls-14,.cls-16,.cls-2,.cls-9{stroke:#000;}.cls-14,.cls-2{stroke-width:0.4px;}.cls-3,.cls-6,.cls-7,.cls-8{font-size:6.75px;}.cls-10,.cls-3{font-family:TimesNewRomanPSMT, Times New Roman;}.cls-4{letter-spacing:-0.02em;}.cls-5{letter-spacing:0em;}.cls-6,.cls-7,.cls-8{font-family:Arial-ItalicMT, Arial;font-style:italic;}.cls-7{letter-spacing:0em;}.cls-8{letter-spacing:-0.04em;}.cls-9{stroke-width:0.49px;}.cls-10{font-size:14px;}.cls-11{letter-spacing:-0.04em;}.cls-12{stroke-width:0.39px;}.cls-13,.cls-14{fill:#fff;}.cls-14{stroke-miterlimit:10;}.cls-15{font-size:12px;font-family:Arial-BoldMT, Arial;font-weight:700;}.cls-16{stroke-width:0.4px;}.cls-17{font-size:10px;}</style></defs><title>Zeichenfläche 1</title><text class="cls-1" transform="translate(88.31 136.84)">&amp;</text><text class="cls-1" transform="translate(88.31 177.34)">&amp;</text><text class="cls-1" transform="translate(88.31 217.84)">&amp;</text><text class="cls-1" transform="translate(88.31 251.59)">?</text><line class="cls-2" x1="84.9" y1="126.7" x2="935.4" y2="126.7"/><line class="cls-2" x1="84.9" y1="130.1" x2="935.4" y2="130.1"/><line class="cls-2" x1="84.9" y1="133.5" x2="935.4" y2="133.5"/><line class="cls-2" x1="84.9" y1="136.8" x2="935.4" y2="136.8"/><line class="cls-2" x1="84.9" y1="140.2" x2="935.4" y2="140.2"/><line class="cls-2" x1="84.9" y1="167.2" x2="935.4" y2="167.2"/><line class="cls-2" x1="84.9" y1="170.6" x2="935.4" y2="170.6"/><line class="cls-2" x1="84.9" y1="174" x2="935.4" y2="174"/><line class="cls-2" x1="84.9" y1="177.3" x2="935.4" y2="177.3"/><line class="cls-2" x1="84.9" y1="180.7" x2="935.4" y2="180.7"/><line class="cls-2" x1="84.9" y1="207.7" x2="935.4" y2="207.7"/><line class="cls-2" x1="84.9" y1="211.1" x2="935.4" y2="211.1"/><line class="cls-2" x1="84.9" y1="214.5" x2="935.4" y2="214.5"/><line class="cls-2" x1="84.9" y1="217.8" x2="935.4" y2="217.8"/><line class="cls-2" x1="84.9" y1="221.2" x2="935.4" y2="221.2"/><line class="cls-2" x1="84.9" y1="248.2" x2="935.4" y2="248.2"/><line class="cls-2" x1="84.9" y1="251.6" x2="935.4" y2="251.6"/><line class="cls-2" x1="84.9" y1="255" x2="935.4" y2="255"/><line class="cls-2" x1="84.9" y1="258.3" x2="935.4" y2="258.3"/><line class="cls-2" x1="84.9" y1="261.7" x2="935.4" y2="261.7"/><path d="M83.2,207.7c-7.2,11.5,3.1,21.9-3.7,27h.3c8.2-6.8-1.9-15.5,3.4-26.7Z"/><path d="M83.2,261.7c-7.2-11.5,3.1-21.9-3.7-27h.3c8.2,6.8-1.9,15.5,3.4,26.7Z"/><line class="cls-2" x1="86.3" y1="263" x2="97" y2="242.6"/><text class="cls-3" transform="translate(74.34 115.45) rotate(-12.5)">4.<tspan class="cls-4" x="5.06" y="0"> </tspan><tspan class="cls-5" x="6.63" y="0">VII. 34</tspan></text><text class="cls-1" transform="translate(116.44 131.78)">œ</text><text class="cls-1" transform="translate(112.08 131.78)">#</text><text class="cls-1" transform="translate(130.36 128.41)">œ</text><text class="cls-1" transform="translate(126.56 128.41)">n</text><text class="cls-1" transform="translate(144.28 126.72)">œ</text><text class="cls-1" transform="translate(139.92 126.72)">#</text><text class="cls-1" transform="translate(158.2 130.09)">œ</text><text class="cls-1" transform="translate(153.84 130.09)">#</text><text class="cls-1" transform="translate(172.13 125.03)">œ</text><text class="cls-6" transform="translate(51.02 78.91)">Bl. 38</text><text class="cls-7" transform="translate(68.28 76.66) scale(0.58)">v</text><text class="cls-6" transform="translate(51.02 136.8)">1</text><text class="cls-8" transform="translate(84.94 78.91)">A</text><text class="cls-6" transform="translate(51.02 177.3)">2</text><text class="cls-6" transform="translate(51.02 217.8)">3</text><text class="cls-6" transform="translate(51.02 258.3)">4</text><path class="cls-9" d="M84.8,126.7l.1,134.9"/><text class="cls-10" transform="translate(135.56 107.45)">„<tspan class="cls-11" x="6.21" y="0">W</tspan><tspan x="18.87" y="0">ie bin ich froh!‟</tspan></text><path class="cls-12" d="M179.3,119.1H183"/><path class="cls-12" d="M183,119.1v23.2"/><text class="cls-1" transform="translate(206.44 131.78)">œ</text><text class="cls-1" transform="translate(202.08 131.78)">#</text><text class="cls-1" transform="translate(222.19 128.41)">œ</text><text class="cls-1" transform="translate(218.39 128.41)">n</text><text class="cls-1" transform="translate(238.08 130.09)">œ</text><text class="cls-1" transform="translate(233.72 130.09)">#</text><text class="cls-1" transform="translate(255.97 126.72)">œ</text><text class="cls-1" transform="translate(251.61 126.72)">#</text><text class="cls-1" transform="translate(269.72 125.03)">œ</text><text class="cls-1" transform="translate(265.92 125.03)">n</text><text class="cls-1" transform="translate(285.75 133.47)">œ</text><text class="cls-1" transform="translate(281.81 133.47)">b</text><text class="cls-1" transform="translate(295.73 135.16)">œ</text><text class="cls-1" transform="translate(291.8 135.16)">b</text><text class="cls-1" transform="translate(305.58 135.16)">œ</text><text class="cls-1" transform="translate(301.78 135.16)">n</text><text class="cls-1" transform="translate(315.56 131.78)">œ</text><text class="cls-1" transform="translate(311.77 131.78)">n</text><text class="cls-1" transform="translate(325.55 133.47)">œ</text><text class="cls-1" transform="translate(321.75 133.47)">n</text><text class="cls-1" transform="translate(335.53 130.09)">œ</text><text class="cls-1" transform="translate(331.73 130.09)">n</text><text class="cls-1" transform="translate(345.52 126.72)">œ</text><text class="cls-1" transform="translate(341.72 126.72)">n</text><text class="cls-6" transform="translate(186.33 78.91)">B</text><rect class="cls-13" x="359" y="117.9" width="164" height="30.2"/><rect class="cls-14" x="359" y="117.9" width="175.2" height="30.2"/><text class="cls-15" transform="translate(51.02 46.5)">M 317 Sk2</text><path class="cls-16" d="M89.2,120.8H87.5v25.3h1.7"/><path class="cls-16" d="M96.7,120.8h1.7v25.3H96.7"/><rect class="cls-14" x="807" y="117.9" width="126.6" height="30.2"/><polygon class="cls-14" points="538.5 117.9 538.5 148.1 708.5 148.1 708.5 231.4 803.5 231.4 803.5 190.4 933.6 190.4 933.6 159.4 804.5 159.4 804.5 117.9 538.5 117.9"/><rect class="cls-14" x="552.7" y="159.5" width="141.3" height="30.2"/><rect class="cls-14" x="820" y="225.9" width="75" height="20.6"/><text class="cls-1" transform="translate(99.5 170.59)">3</text><text class="cls-1" transform="translate(98.92 177.34)">4</text><rect class="cls-14" x="170.3" y="199.4" width="368.2" height="30.2"/><rect class="cls-14" x="112.8" y="239.9" width="199" height="30.2"/><rect class="cls-14" x="669" y="239.9" width="40.2" height="30.2"/><polyline class="cls-14" points="317.6 285.9 317.5 239.9 575 239.9 575 199.4 660 199.4 660 270.1 475 270.1 475 284.9"/><text class="cls-15" transform="translate(441.01 136.84)">Sk1</text><text class="cls-15" transform="translate(746 177.34)">Sk2.1</text><text class="cls-15" transform="translate(851.33 136.84)">Sk2.1.1</text><text class="cls-15" transform="translate(837.83 242.59)">Sk2.1.3</text><text class="cls-15" transform="translate(603 177.34)">Sk2.1.2</text><text class="cls-15" transform="translate(670.33 251.59)">Sk2.1.</text><text class="cls-15" transform="translate(671.33 265.99)">2.1</text><text class="cls-15" transform="translate(352 217.84)">Sk3</text><text class="cls-15" transform="translate(189.67 260.03)">Sk3.1.2</text><text class="cls-15" transform="translate(463.33 260.03)">Sk3.1</text><text class="cls-1" transform="translate(167.92 125.03)">n</text><text class="cls-17" transform="translate(247.72 125.03)">œ</text><text class="cls-17" transform="translate(244.92 125.03)">n</text></svg>