<svg id="Ebene_1" data-name="Ebene 1" xmlns="http://www.w3.org/2000/svg" viewBox="0 0 1021 595"><defs><style>.cls-1,.cls-3,.cls-8{fill:none;stroke:#000;}.cls-1{stroke-width:0.4px;}.cls-10,.cls-2,.cls-4,.cls-6,.cls-9{isolation:isolate;}.cls-2{font-size:13.5px;font-family:Maestro, Maestro;}.cls-3{stroke-width:0.56px;}.cls-10,.cls-4,.cls-5,.cls-6{font-size:6.75px;}.cls-10,.cls-4,.cls-5{font-family:Arial-ItalicMT, Arial;font-style:italic;}.cls-5{letter-spacing:0em;}.cls-6{font-family:TimesNewRomanPSMT, Times New Roman;}.cls-7{letter-spacing:-0.02em;}.cls-8{stroke-width:0.4px;}.cls-9{font-size:12px;font-family:Arial-BoldMT, Arial;font-weight:700;}.cls-10{letter-spacing:-0.04em;}</style></defs><title>Zeichenfläche 1</title><line class="cls-1" x1="85.14" y1="126.72" x2="85.14" y2="180.72"/><text class="cls-2" transform="translate(88.73 136.84)">&amp;</text><text class="cls-2" transform="translate(88.73 177.34)">&amp;</text><text class="cls-2" transform="translate(88.73 217.84)">&amp;</text><text class="cls-2" transform="translate(88.73 258.34)">&amp;</text><line class="cls-1" x1="324.34" y1="167.22" x2="324.34" y2="180.72"/><line class="cls-1" x1="324.34" y1="207.72" x2="324.34" y2="221.22"/><line class="cls-1" x1="324.34" y1="248.22" x2="324.34" y2="261.72"/><line class="cls-1" x1="502.23" y1="167.22" x2="502.23" y2="180.72"/><line class="cls-1" x1="502.23" y1="207.72" x2="502.23" y2="221.22"/><line class="cls-1" x1="502.23" y1="248.22" x2="502.23" y2="261.72"/><line class="cls-1" x1="84.94" y1="126.72" x2="575.02" y2="126.72"/><line class="cls-1" x1="84.94" y1="130.09" x2="575.02" y2="130.09"/><line class="cls-1" x1="84.94" y1="133.47" x2="575.02" y2="133.47"/><line class="cls-1" x1="84.94" y1="136.84" x2="575.02" y2="136.84"/><line class="cls-1" x1="84.94" y1="140.22" x2="575.02" y2="140.22"/><line class="cls-1" x1="84.94" y1="167.22" x2="575.02" y2="167.22"/><line class="cls-1" x1="84.94" y1="170.59" x2="575.02" y2="170.59"/><line class="cls-1" x1="84.94" y1="173.97" x2="575.02" y2="173.97"/><line class="cls-1" x1="84.94" y1="177.34" x2="575.02" y2="177.34"/><line class="cls-1" x1="84.94" y1="180.72" x2="575.02" y2="180.72"/><line class="cls-1" x1="84.94" y1="207.72" x2="575.02" y2="207.72"/><line class="cls-1" x1="84.94" y1="211.09" x2="575.02" y2="211.09"/><line class="cls-1" x1="84.94" y1="214.47" x2="575.02" y2="214.47"/><line class="cls-1" x1="84.94" y1="217.84" x2="575.02" y2="217.84"/><line class="cls-1" x1="84.94" y1="221.22" x2="575.02" y2="221.22"/><line class="cls-1" x1="84.94" y1="248.22" x2="575.02" y2="248.22"/><line class="cls-1" x1="84.94" y1="251.59" x2="575.02" y2="251.59"/><line class="cls-1" x1="84.94" y1="254.97" x2="575.02" y2="254.97"/><line class="cls-1" x1="84.94" y1="258.34" x2="575.02" y2="258.34"/><line class="cls-1" x1="84.94" y1="261.72" x2="575.02" y2="261.72"/><line class="cls-1" x1="83.95" y1="207.58" x2="83.95" y2="273.81"/><line class="cls-1" x1="83.95" y1="274.03" x2="91.27" y2="274.03"/><text class="cls-2" transform="translate(110.53 136.84)">œ</text><text class="cls-2" transform="translate(106.73 136.84)">n</text><text class="cls-2" transform="translate(124.73 140.22)">œ</text><text class="cls-2" transform="translate(120.94 140.22)">n</text><text class="cls-2" transform="translate(142.88 140.22)">œ</text><text class="cls-2" transform="translate(138.94 140.22)">b</text><text class="cls-2" transform="translate(161.02 138.53)">œ</text><text class="cls-2" transform="translate(156.66 138.53)">#</text><line class="cls-3" x1="178.31" y1="143.59" x2="184.36" y2="143.59"/><text class="cls-2" transform="translate(179.16 143.59)">œ</text><text class="cls-2" transform="translate(174.8 143.59)">#</text><text class="cls-2" transform="translate(197.3 138.53)">œ</text><text class="cls-2" transform="translate(193.5 138.53)">n</text><text class="cls-2" transform="translate(215.44 141.91)">œ</text><text class="cls-2" transform="translate(211.64 141.91)">n</text><line class="cls-3" x1="232.59" y1="143.59" x2="238.64" y2="143.59"/><text class="cls-2" transform="translate(233.44 145.28)">œ</text><text class="cls-2" transform="translate(229.64 145.28)">n</text><line class="cls-3" x1="250.73" y1="143.59" x2="256.78" y2="143.59"/><text class="cls-2" transform="translate(251.58 145.28)">œ</text><text class="cls-2" transform="translate(247.64 145.28)">b</text><line class="cls-3" x1="268.88" y1="143.59" x2="274.92" y2="143.59"/><text class="cls-2" transform="translate(269.72 143.59)">œ</text><text class="cls-2" transform="translate(265.92 143.59)">n</text><line class="cls-3" x1="287.02" y1="146.97" x2="293.06" y2="146.97"/><line class="cls-3" x1="287.02" y1="143.59" x2="293.06" y2="143.59"/><text class="cls-2" transform="translate(287.86 146.97)">œ</text><text class="cls-2" transform="translate(284.06 146.97)">n</text><line class="cls-3" x1="305.16" y1="146.97" x2="311.2" y2="146.97"/><line class="cls-3" x1="305.16" y1="143.59" x2="311.2" y2="143.59"/><text class="cls-2" transform="translate(306 148.66)">œ</text><text class="cls-2" transform="translate(301.64 148.66)">#</text><text class="cls-2" transform="translate(111.09 177.34)">œ</text><text class="cls-2" transform="translate(107.3 177.34)">n</text><text class="cls-2" transform="translate(124.73 173.97)">œ</text><text class="cls-2" transform="translate(120.8 173.97)">b</text><text class="cls-2" transform="translate(142.88 173.97)">œ</text><text class="cls-2" transform="translate(139.08 173.97)">n</text><text class="cls-2" transform="translate(161.02 177.34)">œ</text><text class="cls-2" transform="translate(156.66 177.34)">#</text><text class="cls-2" transform="translate(179.16 172.28)">œ</text><text class="cls-2" transform="translate(174.8 172.28)">#</text><text class="cls-2" transform="translate(197.3 175.66)">œ</text><text class="cls-2" transform="translate(193.5 175.66)">n</text><text class="cls-2" transform="translate(215.44 172.28)">œ</text><text class="cls-2" transform="translate(211.64 172.28)">n</text><text class="cls-2" transform="translate(233.44 168.91)">œ</text><text class="cls-2" transform="translate(229.5 168.91)">b</text><text class="cls-2" transform="translate(251.58 168.91)">œ</text><text class="cls-2" transform="translate(247.78 168.91)">n</text><text class="cls-2" transform="translate(269.72 170.59)">œ</text><text class="cls-2" transform="translate(265.92 170.59)">n</text><text class="cls-2" transform="translate(287.86 167.22)">œ</text><text class="cls-2" transform="translate(284.06 167.22)">n</text><text class="cls-2" transform="translate(306 167.22)">œ</text><text class="cls-2" transform="translate(301.64 167.22)">#</text><text class="cls-2" transform="translate(110.53 212.78)">œ</text><text class="cls-2" transform="translate(106.73 212.78)">n</text><text class="cls-2" transform="translate(124.73 216.16)">œ</text><text class="cls-2" transform="translate(120.94 216.16)">n</text><text class="cls-2" transform="translate(142.88 217.84)">œ</text><text class="cls-2" transform="translate(138.52 217.84)">#</text><text class="cls-2" transform="translate(161.02 214.47)">œ</text><text class="cls-2" transform="translate(157.22 214.47)">n</text><text class="cls-2" transform="translate(179.16 219.53)">œ</text><text class="cls-2" transform="translate(174.8 219.53)">#</text><text class="cls-2" transform="translate(197.3 214.47)">œ</text><text class="cls-2" transform="translate(193.36 214.47)">b</text><text class="cls-2" transform="translate(215.44 217.84)">œ</text><text class="cls-2" transform="translate(211.64 217.84)">n</text><text class="cls-2" transform="translate(233.44 221.22)">œ</text><text class="cls-2" transform="translate(229.64 221.22)">n</text><text class="cls-2" transform="translate(251.58 221.22)">œ</text><text class="cls-2" transform="translate(247.64 221.22)">b</text><text class="cls-2" transform="translate(269.72 219.53)">œ</text><text class="cls-2" transform="translate(265.92 219.53)">n</text><text class="cls-2" transform="translate(287.86 222.91)">œ</text><text class="cls-2" transform="translate(284.06 222.91)">n</text><line class="cls-3" x1="305.16" y1="224.59" x2="311.2" y2="224.59"/><text class="cls-2" transform="translate(306 224.59)">œ</text><text class="cls-2" transform="translate(301.64 224.59)">#</text><text class="cls-2" transform="translate(111.09 253.28)">œ</text><text class="cls-2" transform="translate(107.3 253.28)">n</text><text class="cls-2" transform="translate(124.73 249.91)">œ</text><text class="cls-2" transform="translate(120.8 249.91)">b</text><text class="cls-2" transform="translate(142.88 249.91)">œ</text><text class="cls-2" transform="translate(139.08 249.91)">n</text><text class="cls-2" transform="translate(161.02 253.28)">œ</text><text class="cls-2" transform="translate(156.66 253.28)">#</text><text class="cls-2" transform="translate(179.16 248.22)">œ</text><text class="cls-2" transform="translate(174.8 248.22)">#</text><text class="cls-2" transform="translate(197.3 251.59)">œ</text><text class="cls-2" transform="translate(193.5 251.59)">n</text><text class="cls-2" transform="translate(215.44 248.22)">œ</text><text class="cls-2" transform="translate(211.64 248.22)">n</text><text class="cls-2" transform="translate(233.44 246.53)">œ</text><text class="cls-2" transform="translate(229.08 246.53)">#</text><line class="cls-3" x1="250.73" y1="244.84" x2="256.78" y2="244.84"/><text class="cls-2" transform="translate(251.58 244.84)">œ</text><text class="cls-2" transform="translate(247.78 244.84)">n</text><text class="cls-2" transform="translate(269.72 246.53)">œ</text><text class="cls-2" transform="translate(265.92 246.53)">n</text><line class="cls-3" x1="287.02" y1="244.84" x2="293.06" y2="244.84"/><text class="cls-2" transform="translate(287.86 243.16)">œ</text><text class="cls-2" transform="translate(283.92 243.16)">b</text><line class="cls-3" x1="305.16" y1="244.84" x2="311.2" y2="244.84"/><text class="cls-2" transform="translate(306 243.16)">œ</text><text class="cls-2" transform="translate(302.2 243.16)">n</text><text class="cls-4" transform="translate(42.5 136.84)">1</text><text class="cls-4" transform="translate(42.5 84.64)">Bl. 1</text><text class="cls-5" transform="translate(56.01 82.4) scale(0.58)">r</text><text class="cls-6" transform="translate(86.77 125.59)">1</text><text class="cls-4" transform="translate(42.5 177.34)">2</text><text class="cls-6" transform="translate(86.34 166.09)">3</text><text class="cls-4" transform="translate(42.5 217.84)">3</text><text class="cls-6" transform="translate(87.89 206.59)">5</text><text class="cls-6" transform="translate(53.86 234.02)">Unte<tspan class="cls-7" x="13.12" y="0">r</tspan><tspan x="15.23" y="0">-</tspan></text><text class="cls-6" transform="translate(53.86 241.75)">Quint</text><text class="cls-4" transform="translate(42.5 258.34)">4</text><text class="cls-6" transform="translate(99.56 247.09)">7</text><text class="cls-6" transform="translate(63.7 248.22)">2. Lied</text><line class="cls-3" x1="332.58" y1="146.97" x2="338.63" y2="146.97"/><line class="cls-3" x1="332.58" y1="143.59" x2="338.63" y2="143.59"/><text class="cls-2" transform="translate(333.42 148.66)">œ</text><text class="cls-2" transform="translate(329.06 148.66)">#</text><line class="cls-3" x1="346.64" y1="146.97" x2="352.69" y2="146.97"/><line class="cls-3" x1="346.64" y1="143.59" x2="352.69" y2="143.59"/><text class="cls-2" transform="translate(347.48 146.97)">œ</text><line class="cls-3" x1="360.7" y1="143.59" x2="366.75" y2="143.59"/><text class="cls-2" transform="translate(361.55 143.59)">œ</text><text class="cls-2" transform="translate(357.75 143.59)">n</text><line class="cls-3" x1="374.77" y1="143.59" x2="380.81" y2="143.59"/><text class="cls-2" transform="translate(375.61 145.28)">œ</text><text class="cls-2" transform="translate(371.67 145.28)">b</text><line class="cls-3" x1="388.83" y1="143.59" x2="394.88" y2="143.59"/><text class="cls-2" transform="translate(389.67 145.28)">œ</text><text class="cls-2" transform="translate(385.88 145.28)">n</text><text class="cls-2" transform="translate(403.73 141.91)">œ</text><text class="cls-2" transform="translate(399.94 141.91)">n</text><text class="cls-2" transform="translate(417.8 138.53)">œ</text><text class="cls-2" transform="translate(414 138.53)">n</text><line class="cls-3" x1="430.88" y1="143.59" x2="436.92" y2="143.59"/><text class="cls-2" transform="translate(431.72 143.59)">œ</text><text class="cls-2" transform="translate(427.36 143.59)">#</text><text class="cls-2" transform="translate(445.78 138.53)">œ</text><text class="cls-2" transform="translate(441.42 138.53)">#</text><text class="cls-2" transform="translate(459.84 140.22)">œ</text><text class="cls-2" transform="translate(455.91 140.22)">b</text><text class="cls-2" transform="translate(473.91 140.22)">œ</text><text class="cls-2" transform="translate(470.11 140.22)">n</text><text class="cls-2" transform="translate(487.97 136.84)">œ</text><text class="cls-2" transform="translate(484.17 136.84)">n</text><text class="cls-2" transform="translate(333.42 167.22)">œ</text><text class="cls-2" transform="translate(329.06 167.22)">#</text><text class="cls-2" transform="translate(347.48 167.22)">œ</text><text class="cls-2" transform="translate(343.69 167.22)">n</text><text class="cls-2" transform="translate(361.55 170.59)">œ</text><text class="cls-2" transform="translate(357.75 170.59)">n</text><text class="cls-2" transform="translate(375.61 168.91)">œ</text><text class="cls-2" transform="translate(371.81 168.91)">n</text><text class="cls-2" transform="translate(389.67 168.91)">œ</text><text class="cls-2" transform="translate(385.73 168.91)">b</text><text class="cls-2" transform="translate(403.73 172.28)">œ</text><text class="cls-2" transform="translate(399.94 172.28)">n</text><text class="cls-2" transform="translate(417.8 175.66)">œ</text><text class="cls-2" transform="translate(414 175.66)">n</text><text class="cls-2" transform="translate(431.72 172.28)">œ</text><text class="cls-2" transform="translate(427.36 172.28)">#</text><text class="cls-2" transform="translate(445.78 177.34)">œ</text><text class="cls-2" transform="translate(441.42 177.34)">#</text><text class="cls-2" transform="translate(459.84 173.97)">œ</text><text class="cls-2" transform="translate(456.05 173.97)">n</text><text class="cls-2" transform="translate(473.91 173.97)">œ</text><text class="cls-2" transform="translate(469.97 173.97)">b</text><text class="cls-2" transform="translate(487.97 177.34)">œ</text><text class="cls-2" transform="translate(484.17 177.34)">n</text><line class="cls-3" x1="332.58" y1="224.59" x2="338.63" y2="224.59"/><text class="cls-2" transform="translate(333.42 224.59)">œ</text><text class="cls-2" transform="translate(329.06 224.59)">#</text><text class="cls-2" transform="translate(347.48 222.91)">œ</text><text class="cls-2" transform="translate(343.69 222.91)">n</text><text class="cls-2" transform="translate(361.55 219.53)">œ</text><text class="cls-2" transform="translate(357.75 219.53)">n</text><text class="cls-2" transform="translate(375.61 221.22)">œ</text><text class="cls-2" transform="translate(371.67 221.22)">b</text><text class="cls-2" transform="translate(389.67 221.22)">œ</text><text class="cls-2" transform="translate(385.88 221.22)">n</text><text class="cls-2" transform="translate(403.73 217.84)">œ</text><text class="cls-2" transform="translate(399.94 217.84)">n</text><text class="cls-2" transform="translate(417.8 214.47)">œ</text><text class="cls-2" transform="translate(413.86 214.47)">b</text><text class="cls-2" transform="translate(431.72 219.53)">œ</text><text class="cls-2" transform="translate(427.36 219.53)">#</text><text class="cls-2" transform="translate(445.78 214.47)">œ</text><text class="cls-2" transform="translate(441.98 214.47)">n</text><text class="cls-2" transform="translate(459.84 217.84)">œ</text><text class="cls-2" transform="translate(455.48 217.84)">#</text><text class="cls-2" transform="translate(473.91 216.16)">œ</text><text class="cls-2" transform="translate(470.11 216.16)">n</text><text class="cls-2" transform="translate(487.97 212.78)">œ</text><text class="cls-2" transform="translate(484.17 212.78)">n</text><line class="cls-3" x1="332.58" y1="244.84" x2="338.63" y2="244.84"/><text class="cls-2" transform="translate(333.42 243.16)">œ</text><text class="cls-2" transform="translate(329.63 243.16)">n</text><line class="cls-3" x1="346.64" y1="244.84" x2="352.69" y2="244.84"/><text class="cls-2" transform="translate(347.48 243.16)">œ</text><text class="cls-2" transform="translate(343.55 243.16)">b</text><text class="cls-2" transform="translate(361.55 246.53)">œ</text><text class="cls-2" transform="translate(357.75 246.53)">n</text><line class="cls-3" x1="374.77" y1="244.84" x2="380.81" y2="244.84"/><text class="cls-2" transform="translate(375.61 244.84)">œ</text><text class="cls-2" transform="translate(371.81 244.84)">n</text><text class="cls-2" transform="translate(389.67 246.53)">œ</text><text class="cls-2" transform="translate(385.31 246.53)">#</text><text class="cls-2" transform="translate(403.73 248.22)">œ</text><text class="cls-2" transform="translate(399.94 248.22)">n</text><text class="cls-2" transform="translate(417.8 251.59)">œ</text><text class="cls-2" transform="translate(414 251.59)">n</text><text class="cls-2" transform="translate(431.72 248.22)">œ</text><text class="cls-2" transform="translate(427.36 248.22)">#</text><text class="cls-2" transform="translate(445.78 253.28)">œ</text><text class="cls-2" transform="translate(441.42 253.28)">#</text><text class="cls-2" transform="translate(459.84 249.91)">œ</text><text class="cls-2" transform="translate(456.05 249.91)">n</text><text class="cls-2" transform="translate(473.91 249.91)">œ</text><text class="cls-2" transform="translate(469.97 249.91)">b</text><text class="cls-2" transform="translate(487.97 253.28)">œ</text><text class="cls-2" transform="translate(484.17 253.28)">n</text><text class="cls-6" transform="translate(324.14 126.3)">2</text><text class="cls-6" transform="translate(487.69 113.64)">Reihen op. 25</text><path class="cls-8" d="M324,126.72v13.5"/><text class="cls-6" transform="translate(324.42 166.09)">4</text><text class="cls-6" transform="translate(325.83 207.02)">6</text><text class="cls-6" transform="translate(324.14 247.09)">8</text><path class="cls-8" d="M500.2,126.72v13.5"/><text class="cls-6" transform="translate(504.56 158.92)">3 Lieder</text><text class="cls-6" transform="translate(507.94 246.67)">1934</text><text class="cls-9" transform="translate(42.5 45.75)">M 317 Sk5 / M 321 Sk1 / M 322 Sk1</text><line class="cls-1" x1="85.14" y1="207.72" x2="85.14" y2="261.72"/><polyline class="cls-8" points="484.17 108.06 484.17 116.59 529 116.59 529 108.06"/><line class="cls-1" x1="503.23" y1="207.72" x2="503.23" y2="221.22"/><line class="cls-1" x1="503.23" y1="167.22" x2="503.23" y2="180.72"/><line class="cls-1" x1="503.23" y1="248.22" x2="503.23" y2="261.72"/><text class="cls-10" transform="translate(84.94 84.64)">A</text><text class="cls-4" transform="translate(324 84.64)">B</text></svg>