<?xml version="1.0" encoding="UTF-8" standalone="no"?>
<!DOCTYPE svg PUBLIC "-//W3C//DTD SVG 1.1//EN"
 "http://www.w3.org/Graphics/SVG/1.1/DTD/svg11.dtd">
<!-- Generated by graphviz version 5.0.0 (20220707.1540)
 -->
<!-- Title: dependencies Pages: 1 -->
<svg width="599pt" height="247pt"
 viewBox="0.00 0.00 599.00 246.80" xmlns="http://www.w3.org/2000/svg" xmlns:xlink="http://www.w3.org/1999/xlink">
<g id="graph0" class="graph" transform="scale(1 1) rotate(0) translate(4 242.8)">
<title>dependencies</title>
<polygon fill="white" stroke="transparent" points="-4,4 -4,-242.8 595,-242.8 595,4 -4,4"/>
<text text-anchor="middle" x="295.5" y="-8.2" font-family="sans-serif" font-size="14.00">dependencies</text>
<g id="clust1" class="cluster">
<title>cluster_CoreModule</title>
<polygon fill="none" stroke="black" stroke-dasharray="1,5" points="8,-32.8 8,-230.8 583,-230.8 583,-32.8 8,-32.8"/>
</g>
<g id="clust5" class="cluster">
<title>cluster_CoreModule_imports</title>
<polygon fill="none" stroke="black" points="347,-40.8 347,-92.8 575,-92.8 575,-40.8 347,-40.8"/>
</g>
<g id="clust2" class="cluster">
<title>cluster_CoreModule_declarations</title>
<polygon fill="none" stroke="black" points="16,-40.8 16,-92.8 339,-92.8 339,-40.8 16,-40.8"/>
</g>
<g id="clust6" class="cluster">
<title>cluster_CoreModule_exports</title>
<polygon fill="none" stroke="black" points="71,-170.8 71,-222.8 519,-222.8 519,-170.8 71,-170.8"/>
</g>
<!-- NavbarComponent -->
<g id="node1" class="node">
<title>NavbarComponent</title>
<polygon fill="#ffffb3" stroke="black" points="331.03,-84.8 208.97,-84.8 208.97,-48.8 331.03,-48.8 331.03,-84.8"/>
<text text-anchor="middle" x="270" y="-62.6" font-family="Times,serif" font-size="14.00">NavbarComponent</text>
</g>
<!-- CoreModule -->
<g id="node3" class="node">
<title>CoreModule</title>
<polygon fill="#8dd3c7" stroke="black" points="373.27,-149.8 370.27,-153.8 349.27,-153.8 346.27,-149.8 286.73,-149.8 286.73,-113.8 373.27,-113.8 373.27,-149.8"/>
<text text-anchor="middle" x="330" y="-127.6" font-family="Times,serif" font-size="14.00">CoreModule</text>
</g>
<!-- NavbarComponent&#45;&gt;CoreModule -->
<g id="edge1" class="edge">
<title>NavbarComponent&#45;&gt;CoreModule</title>
<path fill="none" stroke="black" d="M308.94,-84.91C308.94,-84.91 308.94,-103.79 308.94,-103.79"/>
<polygon fill="black" stroke="black" points="305.44,-103.79 308.94,-113.79 312.44,-103.79 305.44,-103.79"/>
</g>
<!-- ViewContainerComponent -->
<g id="node2" class="node">
<title>ViewContainerComponent</title>
<polygon fill="#ffffb3" stroke="black" points="190.36,-84.8 23.64,-84.8 23.64,-48.8 190.36,-48.8 190.36,-84.8"/>
<text text-anchor="middle" x="107" y="-62.6" font-family="Times,serif" font-size="14.00">ViewContainerComponent</text>
</g>
<!-- ViewContainerComponent&#45;&gt;CoreModule -->
<g id="edge2" class="edge">
<title>ViewContainerComponent&#45;&gt;CoreModule</title>
<path fill="none" stroke="black" d="M134.62,-84.82C134.62,-102.17 134.62,-125.8 134.62,-125.8 134.62,-125.8 276.64,-125.8 276.64,-125.8"/>
<polygon fill="black" stroke="black" points="276.64,-129.3 286.64,-125.8 276.64,-122.3 276.64,-129.3"/>
</g>
<!-- FooterModule  -->
<g id="node6" class="node">
<title>FooterModule </title>
<polygon fill="#fb8072" stroke="black" points="510.6,-214.8 411.4,-214.8 411.4,-178.8 510.6,-178.8 510.6,-214.8"/>
<text text-anchor="middle" x="461" y="-192.6" font-family="Times,serif" font-size="14.00">FooterModule </text>
</g>
<!-- CoreModule&#45;&gt;FooterModule  -->
<g id="edge5" class="edge">
<title>CoreModule&#45;&gt;FooterModule </title>
<path fill="none" stroke="black" stroke-dasharray="5,2" d="M373.34,-137.8C401.2,-137.8 432.21,-137.8 432.21,-137.8 432.21,-137.8 432.21,-168.78 432.21,-168.78"/>
<polygon fill="black" stroke="black" points="428.71,-168.78 432.21,-178.78 435.71,-168.78 428.71,-168.78"/>
</g>
<!-- NavbarComponent  -->
<g id="node7" class="node">
<title>NavbarComponent </title>
<polygon fill="#fb8072" stroke="black" points="393.03,-214.8 266.97,-214.8 266.97,-178.8 393.03,-178.8 393.03,-214.8"/>
<text text-anchor="middle" x="330" y="-192.6" font-family="Times,serif" font-size="14.00">NavbarComponent </text>
</g>
<!-- CoreModule&#45;&gt;NavbarComponent  -->
<g id="edge6" class="edge">
<title>CoreModule&#45;&gt;NavbarComponent </title>
<path fill="none" stroke="black" stroke-dasharray="5,2" d="M330,-149.91C330,-149.91 330,-168.79 330,-168.79"/>
<polygon fill="black" stroke="black" points="326.5,-168.79 330,-178.79 333.5,-168.79 326.5,-168.79"/>
</g>
<!-- ViewContainerComponent  -->
<g id="node8" class="node">
<title>ViewContainerComponent </title>
<polygon fill="#fb8072" stroke="black" points="249.36,-214.8 78.64,-214.8 78.64,-178.8 249.36,-178.8 249.36,-214.8"/>
<text text-anchor="middle" x="164" y="-192.6" font-family="Times,serif" font-size="14.00">ViewContainerComponent </text>
</g>
<!-- CoreModule&#45;&gt;ViewContainerComponent  -->
<g id="edge7" class="edge">
<title>CoreModule&#45;&gt;ViewContainerComponent </title>
<path fill="none" stroke="black" stroke-dasharray="5,2" d="M286.56,-137.8C259.18,-137.8 228.96,-137.8 228.96,-137.8 228.96,-137.8 228.96,-168.78 228.96,-168.78"/>
<polygon fill="black" stroke="black" points="225.46,-168.78 228.96,-178.78 232.46,-168.78 225.46,-168.78"/>
</g>
<!-- FooterModule -->
<g id="node4" class="node">
<title>FooterModule</title>
<polygon fill="#8dd3c7" stroke="black" points="567.1,-84.8 564.1,-88.8 543.1,-88.8 540.1,-84.8 470.9,-84.8 470.9,-48.8 567.1,-48.8 567.1,-84.8"/>
<text text-anchor="middle" x="519" y="-62.6" font-family="Times,serif" font-size="14.00">FooterModule</text>
</g>
<!-- FooterModule&#45;&gt;CoreModule -->
<g id="edge3" class="edge">
<title>FooterModule&#45;&gt;CoreModule</title>
<path fill="none" stroke="black" d="M490.88,-84.82C490.88,-102.17 490.88,-125.8 490.88,-125.8 490.88,-125.8 383.54,-125.8 383.54,-125.8"/>
<polygon fill="black" stroke="black" points="383.54,-122.3 373.54,-125.8 383.54,-129.3 383.54,-122.3"/>
</g>
<!-- SharedModule -->
<g id="node5" class="node">
<title>SharedModule</title>
<polygon fill="#8dd3c7" stroke="black" points="453.43,-84.8 450.43,-88.8 429.43,-88.8 426.43,-84.8 354.57,-84.8 354.57,-48.8 453.43,-48.8 453.43,-84.8"/>
<text text-anchor="middle" x="404" y="-62.6" font-family="Times,serif" font-size="14.00">SharedModule</text>
</g>
<!-- SharedModule&#45;&gt;CoreModule -->
<g id="edge4" class="edge">
<title>SharedModule&#45;&gt;CoreModule</title>
<path fill="none" stroke="black" d="M364.08,-84.91C364.08,-84.91 364.08,-103.79 364.08,-103.79"/>
<polygon fill="black" stroke="black" points="360.58,-103.79 364.08,-113.79 367.58,-103.79 360.58,-103.79"/>
</g>
</g>
</svg>
