<?xml version="1.0" encoding="UTF-8" standalone="no"?>
<!DOCTYPE svg PUBLIC "-//W3C//DTD SVG 1.1//EN"
 "http://www.w3.org/Graphics/SVG/1.1/DTD/svg11.dtd">
<!-- Generated by graphviz version 2.47.0 (20210316.0004)
 -->
<!-- Title: dependencies Pages: 1 -->
<svg width="599pt" height="284pt"
 viewBox="0.00 0.00 599.00 284.00" xmlns="http://www.w3.org/2000/svg" xmlns:xlink="http://www.w3.org/1999/xlink">
<g id="graph0" class="graph" transform="scale(1 1) rotate(0) translate(4 280)">
<title>dependencies</title>
<polygon fill="white" stroke="transparent" points="-4,4 -4,-280 595,-280 595,4 -4,4"/>
<text text-anchor="start" x="274.51" y="-42.4" font-family="sans-serif" font-weight="bold" font-size="14.00">Legend</text>
<polygon fill="#ffffb3" stroke="transparent" points="61.5,-10 61.5,-30 81.5,-30 81.5,-10 61.5,-10"/>
<text text-anchor="start" x="85.13" y="-15.4" font-family="sans-serif" font-size="14.00"> &#160;Declarations</text>
<polygon fill="#8dd3c7" stroke="transparent" points="174.5,-10 174.5,-30 194.5,-30 194.5,-10 174.5,-10"/>
<text text-anchor="start" x="198.23" y="-15.4" font-family="sans-serif" font-size="14.00"> &#160;Module</text>
<polygon fill="#80b1d3" stroke="transparent" points="260.5,-10 260.5,-30 280.5,-30 280.5,-10 260.5,-10"/>
<text text-anchor="start" x="284.28" y="-15.4" font-family="sans-serif" font-size="14.00"> &#160;Bootstrap</text>
<polygon fill="#fdb462" stroke="transparent" points="357.5,-10 357.5,-30 377.5,-30 377.5,-10 357.5,-10"/>
<text text-anchor="start" x="381.17" y="-15.4" font-family="sans-serif" font-size="14.00"> &#160;Providers</text>
<polygon fill="#fb8072" stroke="transparent" points="453.5,-10 453.5,-30 473.5,-30 473.5,-10 453.5,-10"/>
<text text-anchor="start" x="477.23" y="-15.4" font-family="sans-serif" font-size="14.00"> &#160;Exports</text>
<g id="clust1" class="cluster">
<title>cluster_CoreModule</title>
<polygon fill="none" stroke="black" stroke-dasharray="1,5" points="8,-70 8,-268 583,-268 583,-70 8,-70"/>
</g>
<g id="clust5" class="cluster">
<title>cluster_CoreModule_imports</title>
<polygon fill="none" stroke="black" points="347,-78 347,-130 575,-130 575,-78 347,-78"/>
</g>
<g id="clust2" class="cluster">
<title>cluster_CoreModule_declarations</title>
<polygon fill="none" stroke="black" points="16,-78 16,-130 339,-130 339,-78 16,-78"/>
</g>
<g id="clust6" class="cluster">
<title>cluster_CoreModule_exports</title>
<polygon fill="none" stroke="black" points="71,-208 71,-260 519,-260 519,-208 71,-208"/>
</g>
<!-- NavbarComponent -->
<g id="node1" class="node">
<title>NavbarComponent</title>
<polygon fill="#ffffb3" stroke="black" points="331.03,-122 208.97,-122 208.97,-86 331.03,-86 331.03,-122"/>
<text text-anchor="middle" x="270" y="-99.8" font-family="Times,serif" font-size="14.00">NavbarComponent</text>
</g>
<!-- CoreModule -->
<g id="node3" class="node">
<title>CoreModule</title>
<polygon fill="#8dd3c7" stroke="black" points="373.26,-187 370.26,-191 349.26,-191 346.26,-187 286.74,-187 286.74,-151 373.26,-151 373.26,-187"/>
<text text-anchor="middle" x="330" y="-164.8" font-family="Times,serif" font-size="14.00">CoreModule</text>
</g>
<!-- NavbarComponent&#45;&gt;CoreModule -->
<g id="edge1" class="edge">
<title>NavbarComponent&#45;&gt;CoreModule</title>
<path fill="none" stroke="black" d="M308.94,-122.11C308.94,-122.11 308.94,-140.99 308.94,-140.99"/>
<polygon fill="black" stroke="black" points="305.44,-140.99 308.94,-150.99 312.44,-140.99 305.44,-140.99"/>
</g>
<!-- ViewContainerComponent -->
<g id="node2" class="node">
<title>ViewContainerComponent</title>
<polygon fill="#ffffb3" stroke="black" points="190.36,-122 23.64,-122 23.64,-86 190.36,-86 190.36,-122"/>
<text text-anchor="middle" x="107" y="-99.8" font-family="Times,serif" font-size="14.00">ViewContainerComponent</text>
</g>
<!-- ViewContainerComponent&#45;&gt;CoreModule -->
<g id="edge2" class="edge">
<title>ViewContainerComponent&#45;&gt;CoreModule</title>
<path fill="none" stroke="black" d="M134.62,-122.02C134.62,-139.37 134.62,-163 134.62,-163 134.62,-163 276.64,-163 276.64,-163"/>
<polygon fill="black" stroke="black" points="276.64,-166.5 286.64,-163 276.64,-159.5 276.64,-166.5"/>
</g>
<!-- FooterModule  -->
<g id="node6" class="node">
<title>FooterModule </title>
<polygon fill="#fb8072" stroke="black" points="510.6,-252 411.4,-252 411.4,-216 510.6,-216 510.6,-252"/>
<text text-anchor="middle" x="461" y="-229.8" font-family="Times,serif" font-size="14.00">FooterModule </text>
</g>
<!-- CoreModule&#45;&gt;FooterModule  -->
<g id="edge5" class="edge">
<title>CoreModule&#45;&gt;FooterModule </title>
<path fill="none" stroke="black" stroke-dasharray="5,2" d="M373.34,-175C401.2,-175 432.21,-175 432.21,-175 432.21,-175 432.21,-205.98 432.21,-205.98"/>
<polygon fill="black" stroke="black" points="428.71,-205.98 432.21,-215.98 435.71,-205.98 428.71,-205.98"/>
</g>
<!-- NavbarComponent  -->
<g id="node7" class="node">
<title>NavbarComponent </title>
<polygon fill="#fb8072" stroke="black" points="393.03,-252 266.97,-252 266.97,-216 393.03,-216 393.03,-252"/>
<text text-anchor="middle" x="330" y="-229.8" font-family="Times,serif" font-size="14.00">NavbarComponent </text>
</g>
<!-- CoreModule&#45;&gt;NavbarComponent  -->
<g id="edge6" class="edge">
<title>CoreModule&#45;&gt;NavbarComponent </title>
<path fill="none" stroke="black" stroke-dasharray="5,2" d="M330,-187.11C330,-187.11 330,-205.99 330,-205.99"/>
<polygon fill="black" stroke="black" points="326.5,-205.99 330,-215.99 333.5,-205.99 326.5,-205.99"/>
</g>
<!-- ViewContainerComponent  -->
<g id="node8" class="node">
<title>ViewContainerComponent </title>
<polygon fill="#fb8072" stroke="black" points="249.36,-252 78.64,-252 78.64,-216 249.36,-216 249.36,-252"/>
<text text-anchor="middle" x="164" y="-229.8" font-family="Times,serif" font-size="14.00">ViewContainerComponent </text>
</g>
<!-- CoreModule&#45;&gt;ViewContainerComponent  -->
<g id="edge7" class="edge">
<title>CoreModule&#45;&gt;ViewContainerComponent </title>
<path fill="none" stroke="black" stroke-dasharray="5,2" d="M286.56,-175C259.18,-175 228.96,-175 228.96,-175 228.96,-175 228.96,-205.98 228.96,-205.98"/>
<polygon fill="black" stroke="black" points="225.46,-205.98 228.96,-215.98 232.46,-205.98 225.46,-205.98"/>
</g>
<!-- FooterModule -->
<g id="node4" class="node">
<title>FooterModule</title>
<polygon fill="#8dd3c7" stroke="black" points="567.1,-122 564.1,-126 543.1,-126 540.1,-122 470.9,-122 470.9,-86 567.1,-86 567.1,-122"/>
<text text-anchor="middle" x="519" y="-99.8" font-family="Times,serif" font-size="14.00">FooterModule</text>
</g>
<!-- FooterModule&#45;&gt;CoreModule -->
<g id="edge3" class="edge">
<title>FooterModule&#45;&gt;CoreModule</title>
<path fill="none" stroke="black" d="M490.88,-122.02C490.88,-139.37 490.88,-163 490.88,-163 490.88,-163 383.54,-163 383.54,-163"/>
<polygon fill="black" stroke="black" points="383.54,-159.5 373.54,-163 383.54,-166.5 383.54,-159.5"/>
</g>
<!-- SharedModule -->
<g id="node5" class="node">
<title>SharedModule</title>
<polygon fill="#8dd3c7" stroke="black" points="453.42,-122 450.42,-126 429.42,-126 426.42,-122 354.58,-122 354.58,-86 453.42,-86 453.42,-122"/>
<text text-anchor="middle" x="404" y="-99.8" font-family="Times,serif" font-size="14.00">SharedModule</text>
</g>
<!-- SharedModule&#45;&gt;CoreModule -->
<g id="edge4" class="edge">
<title>SharedModule&#45;&gt;CoreModule</title>
<path fill="none" stroke="black" d="M364.08,-122.11C364.08,-122.11 364.08,-140.99 364.08,-140.99"/>
<polygon fill="black" stroke="black" points="360.58,-140.99 364.08,-150.99 367.58,-140.99 360.58,-140.99"/>
</g>
</g>
</svg>
