<?xml version="1.0" encoding="UTF-8" standalone="no"?>
<!DOCTYPE svg PUBLIC "-//W3C//DTD SVG 1.1//EN"
 "http://www.w3.org/Graphics/SVG/1.1/DTD/svg11.dtd">
<!-- Generated by graphviz version 2.47.3 (20210619.1520)
 -->
<!-- Title: dependencies Pages: 1 -->
<svg width="599pt" height="247pt"
 viewBox="0.00 0.00 599.00 246.80" xmlns="http://www.w3.org/2000/svg" xmlns:xlink="http://www.w3.org/1999/xlink">
<g id="graph0" class="graph" transform="scale(1 1) rotate(0) translate(4 242.8)">
<title>dependencies</title>
<polygon fill="white" stroke="transparent" points="-4,4 -4,-242.8 595,-242.8 595,4 -4,4"/>
<text text-anchor="middle" x="295.5" y="-8.2" font-family="sans-serif" font-size="14.00">dependencies</text>
<g id="clust1" class="cluster">
<title>cluster_CoreModule</title>
<polygon fill="none" stroke="black" stroke-dasharray="1,5" points="8,-32.8 8,-230.8 583,-230.8 583,-32.8 8,-32.8"/>
</g>
<g id="clust2" class="cluster">
<title>cluster_CoreModule_declarations</title>
<polygon fill="none" stroke="black" points="252,-40.8 252,-92.8 575,-92.8 575,-40.8 252,-40.8"/>
</g>
<g id="clust5" class="cluster">
<title>cluster_CoreModule_imports</title>
<polygon fill="none" stroke="black" points="16,-40.8 16,-92.8 244,-92.8 244,-40.8 16,-40.8"/>
</g>
<g id="clust6" class="cluster">
<title>cluster_CoreModule_exports</title>
<polygon fill="none" stroke="black" points="50,-170.8 50,-222.8 498,-222.8 498,-170.8 50,-170.8"/>
</g>
<!-- NavbarComponent -->
<g id="node1" class="node">
<title>NavbarComponent</title>
<polygon fill="#ffffb3" stroke="black" points="567.03,-84.8 444.97,-84.8 444.97,-48.8 567.03,-48.8 567.03,-84.8"/>
<text text-anchor="middle" x="506" y="-62.6" font-family="Times,serif" font-size="14.00">NavbarComponent</text>
</g>
<!-- CoreModule -->
<g id="node3" class="node">
<title>CoreModule</title>
<polygon fill="#8dd3c7" stroke="black" points="352.26,-149.8 349.26,-153.8 328.26,-153.8 325.26,-149.8 265.74,-149.8 265.74,-113.8 352.26,-113.8 352.26,-149.8"/>
<text text-anchor="middle" x="309" y="-127.6" font-family="Times,serif" font-size="14.00">CoreModule</text>
</g>
<!-- NavbarComponent&#45;&gt;CoreModule -->
<g id="edge1" class="edge">
<title>NavbarComponent&#45;&gt;CoreModule</title>
<path fill="none" stroke="black" d="M467.27,-84.82C467.27,-102.17 467.27,-125.8 467.27,-125.8 467.27,-125.8 362.67,-125.8 362.67,-125.8"/>
<polygon fill="black" stroke="black" points="362.67,-122.3 352.67,-125.8 362.67,-129.3 362.67,-122.3"/>
</g>
<!-- ViewContainerComponent -->
<g id="node2" class="node">
<title>ViewContainerComponent</title>
<polygon fill="#ffffb3" stroke="black" points="426.36,-84.8 259.64,-84.8 259.64,-48.8 426.36,-48.8 426.36,-84.8"/>
<text text-anchor="middle" x="343" y="-62.6" font-family="Times,serif" font-size="14.00">ViewContainerComponent</text>
</g>
<!-- ViewContainerComponent&#45;&gt;CoreModule -->
<g id="edge2" class="edge">
<title>ViewContainerComponent&#45;&gt;CoreModule</title>
<path fill="none" stroke="black" d="M309,-84.91C309,-84.91 309,-103.79 309,-103.79"/>
<polygon fill="black" stroke="black" points="305.5,-103.79 309,-113.79 312.5,-103.79 305.5,-103.79"/>
</g>
<!-- FooterModule  -->
<g id="node6" class="node">
<title>FooterModule </title>
<polygon fill="#fb8072" stroke="black" points="489.6,-214.8 390.4,-214.8 390.4,-178.8 489.6,-178.8 489.6,-214.8"/>
<text text-anchor="middle" x="440" y="-192.6" font-family="Times,serif" font-size="14.00">FooterModule </text>
</g>
<!-- CoreModule&#45;&gt;FooterModule  -->
<g id="edge5" class="edge">
<title>CoreModule&#45;&gt;FooterModule </title>
<path fill="none" stroke="black" stroke-dasharray="5,2" d="M352.27,-137.8C379.04,-137.8 408.32,-137.8 408.32,-137.8 408.32,-137.8 408.32,-168.78 408.32,-168.78"/>
<polygon fill="black" stroke="black" points="404.82,-168.78 408.32,-178.78 411.82,-168.78 404.82,-168.78"/>
</g>
<!-- NavbarComponent  -->
<g id="node7" class="node">
<title>NavbarComponent </title>
<polygon fill="#fb8072" stroke="black" points="372.03,-214.8 245.97,-214.8 245.97,-178.8 372.03,-178.8 372.03,-214.8"/>
<text text-anchor="middle" x="309" y="-192.6" font-family="Times,serif" font-size="14.00">NavbarComponent </text>
</g>
<!-- CoreModule&#45;&gt;NavbarComponent  -->
<g id="edge6" class="edge">
<title>CoreModule&#45;&gt;NavbarComponent </title>
<path fill="none" stroke="black" stroke-dasharray="5,2" d="M309,-149.91C309,-149.91 309,-168.79 309,-168.79"/>
<polygon fill="black" stroke="black" points="305.5,-168.79 309,-178.79 312.5,-168.79 305.5,-168.79"/>
</g>
<!-- ViewContainerComponent  -->
<g id="node8" class="node">
<title>ViewContainerComponent </title>
<polygon fill="#fb8072" stroke="black" points="228.36,-214.8 57.64,-214.8 57.64,-178.8 228.36,-178.8 228.36,-214.8"/>
<text text-anchor="middle" x="143" y="-192.6" font-family="Times,serif" font-size="14.00">ViewContainerComponent </text>
</g>
<!-- CoreModule&#45;&gt;ViewContainerComponent  -->
<g id="edge7" class="edge">
<title>CoreModule&#45;&gt;ViewContainerComponent </title>
<path fill="none" stroke="black" stroke-dasharray="5,2" d="M265.65,-140.8C229.57,-140.8 184.07,-140.8 184.07,-140.8 184.07,-140.8 184.07,-168.77 184.07,-168.77"/>
<polygon fill="black" stroke="black" points="180.57,-168.77 184.07,-178.77 187.57,-168.77 180.57,-168.77"/>
</g>
<!-- FooterModule -->
<g id="node4" class="node">
<title>FooterModule</title>
<polygon fill="#8dd3c7" stroke="black" points="236.1,-84.8 233.1,-88.8 212.1,-88.8 209.1,-84.8 139.9,-84.8 139.9,-48.8 236.1,-48.8 236.1,-84.8"/>
<text text-anchor="middle" x="188" y="-62.6" font-family="Times,serif" font-size="14.00">FooterModule</text>
</g>
<!-- FooterModule&#45;&gt;CoreModule -->
<g id="edge3" class="edge">
<title>FooterModule&#45;&gt;CoreModule</title>
<path fill="none" stroke="black" d="M232.11,-84.83C232.11,-101.2 232.11,-122.8 232.11,-122.8 232.11,-122.8 255.61,-122.8 255.61,-122.8"/>
<polygon fill="black" stroke="black" points="255.61,-126.3 265.61,-122.8 255.61,-119.3 255.61,-126.3"/>
</g>
<!-- SharedModule -->
<g id="node5" class="node">
<title>SharedModule</title>
<polygon fill="#8dd3c7" stroke="black" points="122.42,-84.8 119.42,-88.8 98.42,-88.8 95.42,-84.8 23.58,-84.8 23.58,-48.8 122.42,-48.8 122.42,-84.8"/>
<text text-anchor="middle" x="73" y="-62.6" font-family="Times,serif" font-size="14.00">SharedModule</text>
</g>
<!-- SharedModule&#45;&gt;CoreModule -->
<g id="edge4" class="edge">
<title>SharedModule&#45;&gt;CoreModule</title>
<path fill="none" stroke="black" d="M90.02,-84.91C90.02,-104.14 90.02,-131.8 90.02,-131.8 90.02,-131.8 255.74,-131.8 255.74,-131.8"/>
<polygon fill="black" stroke="black" points="255.74,-135.3 265.74,-131.8 255.74,-128.3 255.74,-135.3"/>
</g>
</g>
</svg>
