<?xml version="1.0" encoding="UTF-8" standalone="no"?>
<!DOCTYPE svg PUBLIC "-//W3C//DTD SVG 1.1//EN"
 "http://www.w3.org/Graphics/SVG/1.1/DTD/svg11.dtd">
<!-- Generated by graphviz version 2.40.1 (20161225.0304)
 -->
<!-- Title: dependencies Pages: 1 -->
<svg width="599pt" height="284pt"
 viewBox="0.00 0.00 599.00 284.00" xmlns="http://www.w3.org/2000/svg" xmlns:xlink="http://www.w3.org/1999/xlink">
<g id="graph0" class="graph" transform="scale(1 1) rotate(0) translate(4 280)">
<title>dependencies</title>
<polygon fill="#ffffff" stroke="transparent" points="-4,4 -4,-280 595,-280 595,4 -4,4"/>
<text text-anchor="start" x="274.5091" y="-42.4" font-family="sans-serif" font-weight="bold" font-size="14.00" fill="#000000">Legend</text>
<polygon fill="#ffffb3" stroke="transparent" points="61.5,-10 61.5,-30 81.5,-30 81.5,-10 61.5,-10"/>
<text text-anchor="start" x="85.129" y="-15.4" font-family="sans-serif" font-size="14.00" fill="#000000"> &#160;Declarations</text>
<polygon fill="#8dd3c7" stroke="transparent" points="174.5,-10 174.5,-30 194.5,-30 194.5,-10 174.5,-10"/>
<text text-anchor="start" x="198.2251" y="-15.4" font-family="sans-serif" font-size="14.00" fill="#000000"> &#160;Module</text>
<polygon fill="#80b1d3" stroke="transparent" points="260.5,-10 260.5,-30 280.5,-30 280.5,-10 260.5,-10"/>
<text text-anchor="start" x="284.2812" y="-15.4" font-family="sans-serif" font-size="14.00" fill="#000000"> &#160;Bootstrap</text>
<polygon fill="#fdb462" stroke="transparent" points="357.5,-10 357.5,-30 377.5,-30 377.5,-10 357.5,-10"/>
<text text-anchor="start" x="381.1732" y="-15.4" font-family="sans-serif" font-size="14.00" fill="#000000"> &#160;Providers</text>
<polygon fill="#fb8072" stroke="transparent" points="453.5,-10 453.5,-30 473.5,-30 473.5,-10 453.5,-10"/>
<text text-anchor="start" x="477.2258" y="-15.4" font-family="sans-serif" font-size="14.00" fill="#000000"> &#160;Exports</text>
<g id="clust1" class="cluster">
<title>cluster_CoreModule</title>
<polygon fill="none" stroke="#000000" stroke-dasharray="1,5" points="8,-70 8,-268 583,-268 583,-70 8,-70"/>
</g>
<g id="clust2" class="cluster">
<title>cluster_CoreModule_declarations</title>
<polygon fill="none" stroke="#000000" points="252,-78 252,-130 575,-130 575,-78 252,-78"/>
</g>
<g id="clust5" class="cluster">
<title>cluster_CoreModule_imports</title>
<polygon fill="none" stroke="#000000" points="16,-78 16,-130 244,-130 244,-78 16,-78"/>
</g>
<g id="clust6" class="cluster">
<title>cluster_CoreModule_exports</title>
<polygon fill="none" stroke="#000000" points="50,-208 50,-260 498,-260 498,-208 50,-208"/>
</g>
<!-- NavbarComponent -->
<g id="node1" class="node">
<title>NavbarComponent</title>
<polygon fill="#ffffb3" stroke="#000000" points="567.0297,-122 444.9703,-122 444.9703,-86 567.0297,-86 567.0297,-122"/>
<text text-anchor="middle" x="506" y="-99.8" font-family="Times,serif" font-size="14.00" fill="#000000">NavbarComponent</text>
</g>
<!-- CoreModule -->
<g id="node3" class="node">
<title>CoreModule</title>
<polygon fill="#8dd3c7" stroke="#000000" points="352.2619,-187 349.2619,-191 328.2619,-191 325.2619,-187 265.7381,-187 265.7381,-151 352.2619,-151 352.2619,-187"/>
<text text-anchor="middle" x="309" y="-164.8" font-family="Times,serif" font-size="14.00" fill="#000000">CoreModule</text>
</g>
<!-- NavbarComponent&#45;&gt;CoreModule -->
<g id="edge1" class="edge">
<title>NavbarComponent&#45;&gt;CoreModule</title>
<path fill="none" stroke="#000000" d="M467.2674,-122.0225C467.2674,-139.3734 467.2674,-163 467.2674,-163 467.2674,-163 362.6662,-163 362.6662,-163"/>
<polygon fill="#000000" stroke="#000000" points="362.6662,-159.5001 352.6662,-163 362.6662,-166.5001 362.6662,-159.5001"/>
</g>
<!-- ViewContainerComponent -->
<g id="node2" class="node">
<title>ViewContainerComponent</title>
<polygon fill="#ffffb3" stroke="#000000" points="426.3585,-122 259.6415,-122 259.6415,-86 426.3585,-86 426.3585,-122"/>
<text text-anchor="middle" x="343" y="-99.8" font-family="Times,serif" font-size="14.00" fill="#000000">ViewContainerComponent</text>
</g>
<!-- ViewContainerComponent&#45;&gt;CoreModule -->
<g id="edge2" class="edge">
<title>ViewContainerComponent&#45;&gt;CoreModule</title>
<path fill="none" stroke="#000000" d="M309,-122.1061C309,-122.1061 309,-140.991 309,-140.991"/>
<polygon fill="#000000" stroke="#000000" points="305.5001,-140.9909 309,-150.991 312.5001,-140.991 305.5001,-140.9909"/>
</g>
<!-- FooterModule  -->
<g id="node6" class="node">
<title>FooterModule </title>
<polygon fill="#fb8072" stroke="#000000" points="489.599,-252 390.401,-252 390.401,-216 489.599,-216 489.599,-252"/>
<text text-anchor="middle" x="440" y="-229.8" font-family="Times,serif" font-size="14.00" fill="#000000">FooterModule </text>
</g>
<!-- CoreModule&#45;&gt;FooterModule  -->
<g id="edge5" class="edge">
<title>CoreModule&#45;&gt;FooterModule </title>
<path fill="none" stroke="#000000" stroke-dasharray="5,2" d="M352.2721,-175C379.0355,-175 408.3151,-175 408.3151,-175 408.3151,-175 408.3151,-205.9775 408.3151,-205.9775"/>
<polygon fill="#000000" stroke="#000000" points="404.8151,-205.9774 408.3151,-215.9775 411.8151,-205.9775 404.8151,-205.9774"/>
</g>
<!-- NavbarComponent  -->
<g id="node7" class="node">
<title>NavbarComponent </title>
<polygon fill="#fb8072" stroke="#000000" points="372.0288,-252 245.9712,-252 245.9712,-216 372.0288,-216 372.0288,-252"/>
<text text-anchor="middle" x="309" y="-229.8" font-family="Times,serif" font-size="14.00" fill="#000000">NavbarComponent </text>
</g>
<!-- CoreModule&#45;&gt;NavbarComponent  -->
<g id="edge6" class="edge">
<title>CoreModule&#45;&gt;NavbarComponent </title>
<path fill="none" stroke="#000000" stroke-dasharray="5,2" d="M309,-187.1061C309,-187.1061 309,-205.991 309,-205.991"/>
<polygon fill="#000000" stroke="#000000" points="305.5001,-205.9909 309,-215.991 312.5001,-205.991 305.5001,-205.9909"/>
</g>
<!-- ViewContainerComponent  -->
<g id="node8" class="node">
<title>ViewContainerComponent </title>
<polygon fill="#fb8072" stroke="#000000" points="228.3588,-252 57.6412,-252 57.6412,-216 228.3588,-216 228.3588,-252"/>
<text text-anchor="middle" x="143" y="-229.8" font-family="Times,serif" font-size="14.00" fill="#000000">ViewContainerComponent </text>
</g>
<!-- CoreModule&#45;&gt;ViewContainerComponent  -->
<g id="edge7" class="edge">
<title>CoreModule&#45;&gt;ViewContainerComponent </title>
<path fill="none" stroke="#000000" stroke-dasharray="5,2" d="M265.6544,-178C229.5702,-178 184.0651,-178 184.0651,-178 184.0651,-178 184.0651,-205.973 184.0651,-205.973"/>
<polygon fill="#000000" stroke="#000000" points="180.5651,-205.973 184.0651,-215.973 187.5651,-205.973 180.5651,-205.973"/>
</g>
<!-- FooterModule -->
<g id="node4" class="node">
<title>FooterModule</title>
<polygon fill="#8dd3c7" stroke="#000000" points="236.0983,-122 233.0983,-126 212.0983,-126 209.0983,-122 139.9017,-122 139.9017,-86 236.0983,-86 236.0983,-122"/>
<text text-anchor="middle" x="188" y="-99.8" font-family="Times,serif" font-size="14.00" fill="#000000">FooterModule</text>
</g>
<!-- FooterModule&#45;&gt;CoreModule -->
<g id="edge3" class="edge">
<title>FooterModule&#45;&gt;CoreModule</title>
<path fill="none" stroke="#000000" d="M232.1142,-122.027C232.1142,-138.3976 232.1142,-160 232.1142,-160 232.1142,-160 255.6137,-160 255.6137,-160"/>
<polygon fill="#000000" stroke="#000000" points="255.6138,-163.5001 265.6137,-160 255.6137,-156.5001 255.6138,-163.5001"/>
</g>
<!-- SharedModule -->
<g id="node5" class="node">
<title>SharedModule</title>
<polygon fill="#8dd3c7" stroke="#000000" points="122.4231,-122 119.4231,-126 98.4231,-126 95.4231,-122 23.5769,-122 23.5769,-86 122.4231,-86 122.4231,-122"/>
<text text-anchor="middle" x="73" y="-99.8" font-family="Times,serif" font-size="14.00" fill="#000000">SharedModule</text>
</g>
<!-- SharedModule&#45;&gt;CoreModule -->
<g id="edge4" class="edge">
<title>SharedModule&#45;&gt;CoreModule</title>
<path fill="none" stroke="#000000" d="M90.016,-122.1061C90.016,-141.3391 90.016,-169 90.016,-169 90.016,-169 255.7358,-169 255.7358,-169"/>
<polygon fill="#000000" stroke="#000000" points="255.7358,-172.5001 265.7358,-169 255.7358,-165.5001 255.7358,-172.5001"/>
</g>
</g>
</svg>
