<?xml version="1.0" encoding="UTF-8" standalone="no"?>
<!DOCTYPE svg PUBLIC "-//W3C//DTD SVG 1.1//EN"
 "http://www.w3.org/Graphics/SVG/1.1/DTD/svg11.dtd">
<!-- Generated by graphviz version 2.47.0 (20210316.0004)
 -->
<!-- Title: dependencies Pages: 1 -->
<svg width="2327pt" height="284pt"
 viewBox="0.00 0.00 2327.00 284.00" xmlns="http://www.w3.org/2000/svg" xmlns:xlink="http://www.w3.org/1999/xlink">
<g id="graph0" class="graph" transform="scale(1 1) rotate(0) translate(4 280)">
<title>dependencies</title>
<polygon fill="white" stroke="transparent" points="-4,4 -4,-280 2323,-280 2323,4 -4,4"/>
<text text-anchor="start" x="1138.51" y="-42.4" font-family="sans-serif" font-weight="bold" font-size="14.00">Legend</text>
<polygon fill="#ffffb3" stroke="transparent" points="925.5,-10 925.5,-30 945.5,-30 945.5,-10 925.5,-10"/>
<text text-anchor="start" x="949.13" y="-15.4" font-family="sans-serif" font-size="14.00"> &#160;Declarations</text>
<polygon fill="#8dd3c7" stroke="transparent" points="1038.5,-10 1038.5,-30 1058.5,-30 1058.5,-10 1038.5,-10"/>
<text text-anchor="start" x="1062.23" y="-15.4" font-family="sans-serif" font-size="14.00"> &#160;Module</text>
<polygon fill="#80b1d3" stroke="transparent" points="1124.5,-10 1124.5,-30 1144.5,-30 1144.5,-10 1124.5,-10"/>
<text text-anchor="start" x="1148.28" y="-15.4" font-family="sans-serif" font-size="14.00"> &#160;Bootstrap</text>
<polygon fill="#fdb462" stroke="transparent" points="1221.5,-10 1221.5,-30 1241.5,-30 1241.5,-10 1221.5,-10"/>
<text text-anchor="start" x="1245.17" y="-15.4" font-family="sans-serif" font-size="14.00"> &#160;Providers</text>
<polygon fill="#fb8072" stroke="transparent" points="1317.5,-10 1317.5,-30 1337.5,-30 1337.5,-10 1317.5,-10"/>
<text text-anchor="start" x="1341.23" y="-15.4" font-family="sans-serif" font-size="14.00"> &#160;Exports</text>
<g id="clust1" class="cluster">
<title>cluster_ResourceDetailModule</title>
<polygon fill="none" stroke="black" stroke-dasharray="1,5" points="8,-70 8,-268 2311,-268 2311,-70 8,-70"/>
</g>
<g id="clust2" class="cluster">
<title>cluster_ResourceDetailModule_declarations</title>
<polygon fill="none" stroke="black" points="138,-78 138,-130 2303,-130 2303,-78 138,-78"/>
</g>
<g id="clust11" class="cluster">
<title>cluster_ResourceDetailModule_imports</title>
<polygon fill="none" stroke="black" points="16,-78 16,-130 130,-130 130,-78 16,-78"/>
</g>
<g id="clust12" class="cluster">
<title>cluster_ResourceDetailModule_exports</title>
<polygon fill="none" stroke="black" points="63,-208 63,-260 2256,-260 2256,-208 63,-208"/>
</g>
<!-- ResourceDetailHeaderComponent -->
<g id="node1" class="node">
<title>ResourceDetailHeaderComponent</title>
<polygon fill="#ffffb3" stroke="black" points="2295.04,-122 2086.96,-122 2086.96,-86 2295.04,-86 2295.04,-122"/>
<text text-anchor="middle" x="2191" y="-99.8" font-family="Times,serif" font-size="14.00">ResourceDetailHeaderComponent</text>
</g>
<!-- ResourceDetailModule -->
<g id="node9" class="node">
<title>ResourceDetailModule</title>
<polygon fill="#8dd3c7" stroke="black" points="1174.84,-187 1171.84,-191 1150.84,-191 1147.84,-187 1029.16,-187 1029.16,-151 1174.84,-151 1174.84,-187"/>
<text text-anchor="middle" x="1102" y="-164.8" font-family="Times,serif" font-size="14.00">ResourceDetailModule</text>
</g>
<!-- ResourceDetailHeaderComponent&#45;&gt;ResourceDetailModule -->
<g id="edge1" class="edge">
<title>ResourceDetailHeaderComponent&#45;&gt;ResourceDetailModule</title>
<path fill="none" stroke="black" d="M2167.38,-122.22C2167.38,-140.83 2167.38,-167 2167.38,-167 2167.38,-167 1185.23,-167 1185.23,-167"/>
<polygon fill="black" stroke="black" points="1185.23,-163.5 1175.23,-167 1185.23,-170.5 1185.23,-163.5"/>
</g>
<!-- ResourceDetailHtmlComponent -->
<g id="node2" class="node">
<title>ResourceDetailHtmlComponent</title>
<polygon fill="#ffffb3" stroke="black" points="2069.4,-122 1872.6,-122 1872.6,-86 2069.4,-86 2069.4,-122"/>
<text text-anchor="middle" x="1971" y="-99.8" font-family="Times,serif" font-size="14.00">ResourceDetailHtmlComponent</text>
</g>
<!-- ResourceDetailHtmlComponent&#45;&gt;ResourceDetailModule -->
<g id="edge2" class="edge">
<title>ResourceDetailHtmlComponent&#45;&gt;ResourceDetailModule</title>
<path fill="none" stroke="black" d="M1945.38,-122.02C1945.38,-139.37 1945.38,-163 1945.38,-163 1945.38,-163 1185,-163 1185,-163"/>
<polygon fill="black" stroke="black" points="1185,-159.5 1175,-163 1185,-166.5 1185,-159.5"/>
</g>
<!-- ResourceDetailHtmlContentComponent -->
<g id="node3" class="node">
<title>ResourceDetailHtmlContentComponent</title>
<polygon fill="#ffffb3" stroke="black" points="1854.24,-122 1613.76,-122 1613.76,-86 1854.24,-86 1854.24,-122"/>
<text text-anchor="middle" x="1734" y="-99.8" font-family="Times,serif" font-size="14.00">ResourceDetailHtmlContentComponent</text>
</g>
<!-- ResourceDetailHtmlContentComponent&#45;&gt;ResourceDetailModule -->
<g id="edge3" class="edge">
<title>ResourceDetailHtmlContentComponent&#45;&gt;ResourceDetailModule</title>
<path fill="none" stroke="black" d="M1706.88,-122.01C1706.88,-138.05 1706.88,-159 1706.88,-159 1706.88,-159 1184.96,-159 1184.96,-159"/>
<polygon fill="black" stroke="black" points="1184.96,-155.5 1174.96,-159 1184.96,-162.5 1184.96,-155.5"/>
</g>
<!-- ResourceDetailHtmlContentImageobjectsComponent -->
<g id="node4" class="node">
<title>ResourceDetailHtmlContentImageobjectsComponent</title>
<polygon fill="#ffffb3" stroke="black" points="1595.87,-122 1280.13,-122 1280.13,-86 1595.87,-86 1595.87,-122"/>
<text text-anchor="middle" x="1438" y="-99.8" font-family="Times,serif" font-size="14.00">ResourceDetailHtmlContentImageobjectsComponent</text>
</g>
<!-- ResourceDetailHtmlContentImageobjectsComponent&#45;&gt;ResourceDetailModule -->
<g id="edge4" class="edge">
<title>ResourceDetailHtmlContentImageobjectsComponent&#45;&gt;ResourceDetailModule</title>
<path fill="none" stroke="black" d="M1408.88,-122.12C1408.88,-136.78 1408.88,-155 1408.88,-155 1408.88,-155 1185.11,-155 1185.11,-155"/>
<polygon fill="black" stroke="black" points="1185.11,-151.5 1175.11,-155 1185.11,-158.5 1185.11,-151.5"/>
</g>
<!-- ResourceDetailHtmlContentLinkedobjectsComponent -->
<g id="node5" class="node">
<title>ResourceDetailHtmlContentLinkedobjectsComponent</title>
<polygon fill="#ffffb3" stroke="black" points="1262.05,-122 941.95,-122 941.95,-86 1262.05,-86 1262.05,-122"/>
<text text-anchor="middle" x="1102" y="-99.8" font-family="Times,serif" font-size="14.00">ResourceDetailHtmlContentLinkedobjectsComponent</text>
</g>
<!-- ResourceDetailHtmlContentLinkedobjectsComponent&#45;&gt;ResourceDetailModule -->
<g id="edge5" class="edge">
<title>ResourceDetailHtmlContentLinkedobjectsComponent&#45;&gt;ResourceDetailModule</title>
<path fill="none" stroke="black" d="M1102,-122.11C1102,-122.11 1102,-140.99 1102,-140.99"/>
<polygon fill="black" stroke="black" points="1098.5,-140.99 1102,-150.99 1105.5,-140.99 1098.5,-140.99"/>
</g>
<!-- ResourceDetailHtmlContentPropsComponent -->
<g id="node6" class="node">
<title>ResourceDetailHtmlContentPropsComponent</title>
<polygon fill="#ffffb3" stroke="black" points="924.12,-122 651.88,-122 651.88,-86 924.12,-86 924.12,-122"/>
<text text-anchor="middle" x="788" y="-99.8" font-family="Times,serif" font-size="14.00">ResourceDetailHtmlContentPropsComponent</text>
</g>
<!-- ResourceDetailHtmlContentPropsComponent&#45;&gt;ResourceDetailModule -->
<g id="edge6" class="edge">
<title>ResourceDetailHtmlContentPropsComponent&#45;&gt;ResourceDetailModule</title>
<path fill="none" stroke="black" d="M900.77,-122.19C900.77,-137.18 900.77,-156 900.77,-156 900.77,-156 1019.07,-156 1019.07,-156"/>
<polygon fill="black" stroke="black" points="1019.07,-159.5 1029.07,-156 1019.07,-152.5 1019.07,-159.5"/>
</g>
<!-- ResourceDetailJsonConvertedComponent -->
<g id="node7" class="node">
<title>ResourceDetailJsonConvertedComponent</title>
<polygon fill="#ffffb3" stroke="black" points="633.33,-122 382.67,-122 382.67,-86 633.33,-86 633.33,-122"/>
<text text-anchor="middle" x="508" y="-99.8" font-family="Times,serif" font-size="14.00">ResourceDetailJsonConvertedComponent</text>
</g>
<!-- ResourceDetailJsonConvertedComponent&#45;&gt;ResourceDetailModule -->
<g id="edge7" class="edge">
<title>ResourceDetailJsonConvertedComponent&#45;&gt;ResourceDetailModule</title>
<path fill="none" stroke="black" d="M608.18,-122.03C608.18,-138.4 608.18,-160 608.18,-160 608.18,-160 1019.13,-160 1019.13,-160"/>
<polygon fill="black" stroke="black" points="1019.13,-163.5 1029.13,-160 1019.13,-156.5 1019.13,-163.5"/>
</g>
<!-- ResourceDetailJsonRawComponent -->
<g id="node8" class="node">
<title>ResourceDetailJsonRawComponent</title>
<polygon fill="#ffffb3" stroke="black" points="364.17,-122 145.83,-122 145.83,-86 364.17,-86 364.17,-122"/>
<text text-anchor="middle" x="255" y="-99.8" font-family="Times,serif" font-size="14.00">ResourceDetailJsonRawComponent</text>
</g>
<!-- ResourceDetailJsonRawComponent&#45;&gt;ResourceDetailModule -->
<g id="edge8" class="edge">
<title>ResourceDetailJsonRawComponent&#45;&gt;ResourceDetailModule</title>
<path fill="none" stroke="black" d="M337.46,-122.3C337.46,-140.27 337.46,-165 337.46,-165 337.46,-165 1019.04,-165 1019.04,-165"/>
<polygon fill="black" stroke="black" points="1019.04,-168.5 1029.04,-165 1019.04,-161.5 1019.04,-168.5"/>
</g>
<!-- ResourceDetailHeaderComponent  -->
<g id="node11" class="node">
<title>ResourceDetailHeaderComponent </title>
<polygon fill="#fb8072" stroke="black" points="2247.54,-252 2036.46,-252 2036.46,-216 2247.54,-216 2247.54,-252"/>
<text text-anchor="middle" x="2142" y="-229.8" font-family="Times,serif" font-size="14.00">ResourceDetailHeaderComponent </text>
</g>
<!-- ResourceDetailModule&#45;&gt;ResourceDetailHeaderComponent  -->
<g id="edge10" class="edge">
<title>ResourceDetailModule&#45;&gt;ResourceDetailHeaderComponent </title>
<path fill="none" stroke="black" stroke-dasharray="5,2" d="M1175.02,-171C1397.64,-171 2052.72,-171 2052.72,-171 2052.72,-171 2052.72,-205.78 2052.72,-205.78"/>
<polygon fill="black" stroke="black" points="2049.22,-205.78 2052.72,-215.78 2056.22,-205.78 2049.22,-205.78"/>
</g>
<!-- ResourceDetailHtmlComponent  -->
<g id="node12" class="node">
<title>ResourceDetailHtmlComponent </title>
<polygon fill="#fb8072" stroke="black" points="2017.9,-252 1818.1,-252 1818.1,-216 2017.9,-216 2017.9,-252"/>
<text text-anchor="middle" x="1918" y="-229.8" font-family="Times,serif" font-size="14.00">ResourceDetailHtmlComponent </text>
</g>
<!-- ResourceDetailModule&#45;&gt;ResourceDetailHtmlComponent  -->
<g id="edge11" class="edge">
<title>ResourceDetailModule&#45;&gt;ResourceDetailHtmlComponent </title>
<path fill="none" stroke="black" stroke-dasharray="5,2" d="M1175.08,-175C1360.79,-175 1836.21,-175 1836.21,-175 1836.21,-175 1836.21,-205.98 1836.21,-205.98"/>
<polygon fill="black" stroke="black" points="1832.71,-205.98 1836.21,-215.98 1839.71,-205.98 1832.71,-205.98"/>
</g>
<!-- ResourceDetailHtmlContentComponent  -->
<g id="node13" class="node">
<title>ResourceDetailHtmlContentComponent </title>
<polygon fill="#fb8072" stroke="black" points="1800.24,-252 1555.76,-252 1555.76,-216 1800.24,-216 1800.24,-252"/>
<text text-anchor="middle" x="1678" y="-229.8" font-family="Times,serif" font-size="14.00">ResourceDetailHtmlContentComponent </text>
</g>
<!-- ResourceDetailModule&#45;&gt;ResourceDetailHtmlContentComponent  -->
<g id="edge12" class="edge">
<title>ResourceDetailModule&#45;&gt;ResourceDetailHtmlContentComponent </title>
<path fill="none" stroke="black" stroke-dasharray="5,2" d="M1174.99,-179C1307.89,-179 1575.78,-179 1575.78,-179 1575.78,-179 1575.78,-205.99 1575.78,-205.99"/>
<polygon fill="black" stroke="black" points="1572.28,-205.99 1575.78,-215.99 1579.28,-205.99 1572.28,-205.99"/>
</g>
<!-- ResourceDetailHtmlContentImageobjectsComponent  -->
<g id="node14" class="node">
<title>ResourceDetailHtmlContentImageobjectsComponent </title>
<polygon fill="#fb8072" stroke="black" points="1537.37,-252 1218.63,-252 1218.63,-216 1537.37,-216 1537.37,-252"/>
<text text-anchor="middle" x="1378" y="-229.8" font-family="Times,serif" font-size="14.00">ResourceDetailHtmlContentImageobjectsComponent </text>
</g>
<!-- ResourceDetailModule&#45;&gt;ResourceDetailHtmlContentImageobjectsComponent  -->
<g id="edge13" class="edge">
<title>ResourceDetailModule&#45;&gt;ResourceDetailHtmlContentImageobjectsComponent </title>
<path fill="none" stroke="black" stroke-dasharray="5,2" d="M1175.2,-183C1208.37,-183 1240.29,-183 1240.29,-183 1240.29,-183 1240.29,-205.88 1240.29,-205.88"/>
<polygon fill="black" stroke="black" points="1236.79,-205.88 1240.29,-215.88 1243.79,-205.88 1236.79,-205.88"/>
</g>
<!-- ResourceDetailHtmlContentLinkedobjectsComponent  -->
<g id="node15" class="node">
<title>ResourceDetailHtmlContentLinkedobjectsComponent </title>
<polygon fill="#fb8072" stroke="black" points="1200.55,-252 877.45,-252 877.45,-216 1200.55,-216 1200.55,-252"/>
<text text-anchor="middle" x="1039" y="-229.8" font-family="Times,serif" font-size="14.00">ResourceDetailHtmlContentLinkedobjectsComponent </text>
</g>
<!-- ResourceDetailModule&#45;&gt;ResourceDetailHtmlContentLinkedobjectsComponent  -->
<g id="edge14" class="edge">
<title>ResourceDetailModule&#45;&gt;ResourceDetailHtmlContentLinkedobjectsComponent </title>
<path fill="none" stroke="black" stroke-dasharray="5,2" d="M1102,-187.11C1102,-187.11 1102,-205.99 1102,-205.99"/>
<polygon fill="black" stroke="black" points="1098.5,-205.99 1102,-215.99 1105.5,-205.99 1098.5,-205.99"/>
</g>
<!-- ResourceDetailHtmlContentPropsComponent  -->
<g id="node16" class="node">
<title>ResourceDetailHtmlContentPropsComponent </title>
<polygon fill="#fb8072" stroke="black" points="859.12,-252 582.88,-252 582.88,-216 859.12,-216 859.12,-252"/>
<text text-anchor="middle" x="721" y="-229.8" font-family="Times,serif" font-size="14.00">ResourceDetailHtmlContentPropsComponent </text>
</g>
<!-- ResourceDetailModule&#45;&gt;ResourceDetailHtmlContentPropsComponent  -->
<g id="edge15" class="edge">
<title>ResourceDetailModule&#45;&gt;ResourceDetailHtmlContentPropsComponent </title>
<path fill="none" stroke="black" stroke-dasharray="5,2" d="M1028.91,-183C927.22,-183 755.38,-183 755.38,-183 755.38,-183 755.38,-205.88 755.38,-205.88"/>
<polygon fill="black" stroke="black" points="751.88,-205.88 755.38,-215.88 758.88,-205.88 751.88,-205.88"/>
</g>
<!-- ResourceDetailJsonConvertedComponent  -->
<g id="node17" class="node">
<title>ResourceDetailJsonConvertedComponent </title>
<polygon fill="#fb8072" stroke="black" points="565.33,-252 310.67,-252 310.67,-216 565.33,-216 565.33,-252"/>
<text text-anchor="middle" x="438" y="-229.8" font-family="Times,serif" font-size="14.00">ResourceDetailJsonConvertedComponent </text>
</g>
<!-- ResourceDetailModule&#45;&gt;ResourceDetailJsonConvertedComponent  -->
<g id="edge16" class="edge">
<title>ResourceDetailModule&#45;&gt;ResourceDetailJsonConvertedComponent </title>
<path fill="none" stroke="black" stroke-dasharray="5,2" d="M1029.02,-178C863.51,-178 473.88,-178 473.88,-178 473.88,-178 473.88,-205.97 473.88,-205.97"/>
<polygon fill="black" stroke="black" points="470.38,-205.97 473.88,-215.97 477.38,-205.97 470.38,-205.97"/>
</g>
<!-- ResourceDetailJsonRawComponent  -->
<g id="node18" class="node">
<title>ResourceDetailJsonRawComponent </title>
<polygon fill="#fb8072" stroke="black" points="292.67,-252 71.33,-252 71.33,-216 292.67,-216 292.67,-252"/>
<text text-anchor="middle" x="182" y="-229.8" font-family="Times,serif" font-size="14.00">ResourceDetailJsonRawComponent </text>
</g>
<!-- ResourceDetailModule&#45;&gt;ResourceDetailJsonRawComponent  -->
<g id="edge17" class="edge">
<title>ResourceDetailModule&#45;&gt;ResourceDetailJsonRawComponent </title>
<path fill="none" stroke="black" stroke-dasharray="5,2" d="M1029.02,-174C817.55,-174 219.38,-174 219.38,-174 219.38,-174 219.38,-206 219.38,-206"/>
<polygon fill="black" stroke="black" points="215.88,-206 219.38,-216 222.88,-206 215.88,-206"/>
</g>
<!-- SharedModule -->
<g id="node10" class="node">
<title>SharedModule</title>
<polygon fill="#8dd3c7" stroke="black" points="122.42,-122 119.42,-126 98.42,-126 95.42,-122 23.58,-122 23.58,-86 122.42,-86 122.42,-122"/>
<text text-anchor="middle" x="73" y="-99.8" font-family="Times,serif" font-size="14.00">SharedModule</text>
</g>
<!-- SharedModule&#45;&gt;ResourceDetailModule -->
<g id="edge9" class="edge">
<title>SharedModule&#45;&gt;ResourceDetailModule</title>
<path fill="none" stroke="black" d="M96.69,-122.11C96.69,-141.34 96.69,-169 96.69,-169 96.69,-169 1018.89,-169 1018.89,-169"/>
<polygon fill="black" stroke="black" points="1018.89,-172.5 1028.89,-169 1018.89,-165.5 1018.89,-172.5"/>
</g>
</g>
</svg>
