<?xml version="1.0" encoding="UTF-8" standalone="no"?>
<!DOCTYPE svg PUBLIC "-//W3C//DTD SVG 1.1//EN"
 "http://www.w3.org/Graphics/SVG/1.1/DTD/svg11.dtd">
<!-- Generated by graphviz version 5.0.0 (20220707.1540)
 -->
<!-- Title: dependencies Pages: 1 -->
<svg width="2327pt" height="247pt"
 viewBox="0.00 0.00 2327.00 246.80" xmlns="http://www.w3.org/2000/svg" xmlns:xlink="http://www.w3.org/1999/xlink">
<g id="graph0" class="graph" transform="scale(1 1) rotate(0) translate(4 242.8)">
<title>dependencies</title>
<polygon fill="white" stroke="transparent" points="-4,4 -4,-242.8 2323,-242.8 2323,4 -4,4"/>
<text text-anchor="middle" x="1159.5" y="-8.2" font-family="sans-serif" font-size="14.00">dependencies</text>
<g id="clust1" class="cluster">
<title>cluster_ResourceDetailModule</title>
<polygon fill="none" stroke="black" stroke-dasharray="1,5" points="8,-32.8 8,-230.8 2311,-230.8 2311,-32.8 8,-32.8"/>
</g>
<g id="clust2" class="cluster">
<title>cluster_ResourceDetailModule_declarations</title>
<polygon fill="none" stroke="black" points="138,-40.8 138,-92.8 2303,-92.8 2303,-40.8 138,-40.8"/>
</g>
<g id="clust11" class="cluster">
<title>cluster_ResourceDetailModule_imports</title>
<polygon fill="none" stroke="black" points="16,-40.8 16,-92.8 130,-92.8 130,-40.8 16,-40.8"/>
</g>
<g id="clust12" class="cluster">
<title>cluster_ResourceDetailModule_exports</title>
<polygon fill="none" stroke="black" points="63,-170.8 63,-222.8 2256,-222.8 2256,-170.8 63,-170.8"/>
</g>
<!-- ResourceDetailHeaderComponent -->
<g id="node1" class="node">
<title>ResourceDetailHeaderComponent</title>
<polygon fill="#ffffb3" stroke="black" points="2295.04,-84.8 2086.96,-84.8 2086.96,-48.8 2295.04,-48.8 2295.04,-84.8"/>
<text text-anchor="middle" x="2191" y="-62.6" font-family="Times,serif" font-size="14.00">ResourceDetailHeaderComponent</text>
</g>
<!-- ResourceDetailModule -->
<g id="node9" class="node">
<title>ResourceDetailModule</title>
<polygon fill="#8dd3c7" stroke="black" points="1174.85,-149.8 1171.85,-153.8 1150.85,-153.8 1147.85,-149.8 1029.15,-149.8 1029.15,-113.8 1174.85,-113.8 1174.85,-149.8"/>
<text text-anchor="middle" x="1102" y="-127.6" font-family="Times,serif" font-size="14.00">ResourceDetailModule</text>
</g>
<!-- ResourceDetailHeaderComponent&#45;&gt;ResourceDetailModule -->
<g id="edge1" class="edge">
<title>ResourceDetailHeaderComponent&#45;&gt;ResourceDetailModule</title>
<path fill="none" stroke="black" d="M2167.38,-85.02C2167.38,-103.63 2167.38,-129.8 2167.38,-129.8 2167.38,-129.8 1185.23,-129.8 1185.23,-129.8"/>
<polygon fill="black" stroke="black" points="1185.23,-126.3 1175.23,-129.8 1185.23,-133.3 1185.23,-126.3"/>
</g>
<!-- ResourceDetailHtmlComponent -->
<g id="node2" class="node">
<title>ResourceDetailHtmlComponent</title>
<polygon fill="#ffffb3" stroke="black" points="2069.41,-84.8 1872.59,-84.8 1872.59,-48.8 2069.41,-48.8 2069.41,-84.8"/>
<text text-anchor="middle" x="1971" y="-62.6" font-family="Times,serif" font-size="14.00">ResourceDetailHtmlComponent</text>
</g>
<!-- ResourceDetailHtmlComponent&#45;&gt;ResourceDetailModule -->
<g id="edge2" class="edge">
<title>ResourceDetailHtmlComponent&#45;&gt;ResourceDetailModule</title>
<path fill="none" stroke="black" d="M1945.38,-84.82C1945.38,-102.17 1945.38,-125.8 1945.38,-125.8 1945.38,-125.8 1185,-125.8 1185,-125.8"/>
<polygon fill="black" stroke="black" points="1185,-122.3 1175,-125.8 1185,-129.3 1185,-122.3"/>
</g>
<!-- ResourceDetailHtmlContentComponent -->
<g id="node3" class="node">
<title>ResourceDetailHtmlContentComponent</title>
<polygon fill="#ffffb3" stroke="black" points="1854.24,-84.8 1613.76,-84.8 1613.76,-48.8 1854.24,-48.8 1854.24,-84.8"/>
<text text-anchor="middle" x="1734" y="-62.6" font-family="Times,serif" font-size="14.00">ResourceDetailHtmlContentComponent</text>
</g>
<!-- ResourceDetailHtmlContentComponent&#45;&gt;ResourceDetailModule -->
<g id="edge3" class="edge">
<title>ResourceDetailHtmlContentComponent&#45;&gt;ResourceDetailModule</title>
<path fill="none" stroke="black" d="M1706.88,-84.81C1706.88,-100.85 1706.88,-121.8 1706.88,-121.8 1706.88,-121.8 1184.96,-121.8 1184.96,-121.8"/>
<polygon fill="black" stroke="black" points="1184.96,-118.3 1174.96,-121.8 1184.96,-125.3 1184.96,-118.3"/>
</g>
<!-- ResourceDetailHtmlContentImageobjectsComponent -->
<g id="node4" class="node">
<title>ResourceDetailHtmlContentImageobjectsComponent</title>
<polygon fill="#ffffb3" stroke="black" points="1595.87,-84.8 1280.13,-84.8 1280.13,-48.8 1595.87,-48.8 1595.87,-84.8"/>
<text text-anchor="middle" x="1438" y="-62.6" font-family="Times,serif" font-size="14.00">ResourceDetailHtmlContentImageobjectsComponent</text>
</g>
<!-- ResourceDetailHtmlContentImageobjectsComponent&#45;&gt;ResourceDetailModule -->
<g id="edge4" class="edge">
<title>ResourceDetailHtmlContentImageobjectsComponent&#45;&gt;ResourceDetailModule</title>
<path fill="none" stroke="black" d="M1408.88,-84.92C1408.88,-99.58 1408.88,-117.8 1408.88,-117.8 1408.88,-117.8 1185.11,-117.8 1185.11,-117.8"/>
<polygon fill="black" stroke="black" points="1185.11,-114.3 1175.11,-117.8 1185.11,-121.3 1185.11,-114.3"/>
</g>
<!-- ResourceDetailHtmlContentLinkedobjectsComponent -->
<g id="node5" class="node">
<title>ResourceDetailHtmlContentLinkedobjectsComponent</title>
<polygon fill="#ffffb3" stroke="black" points="1262.05,-84.8 941.95,-84.8 941.95,-48.8 1262.05,-48.8 1262.05,-84.8"/>
<text text-anchor="middle" x="1102" y="-62.6" font-family="Times,serif" font-size="14.00">ResourceDetailHtmlContentLinkedobjectsComponent</text>
</g>
<!-- ResourceDetailHtmlContentLinkedobjectsComponent&#45;&gt;ResourceDetailModule -->
<g id="edge5" class="edge">
<title>ResourceDetailHtmlContentLinkedobjectsComponent&#45;&gt;ResourceDetailModule</title>
<path fill="none" stroke="black" d="M1102,-84.91C1102,-84.91 1102,-103.79 1102,-103.79"/>
<polygon fill="black" stroke="black" points="1098.5,-103.79 1102,-113.79 1105.5,-103.79 1098.5,-103.79"/>
</g>
<!-- ResourceDetailHtmlContentPropsComponent -->
<g id="node6" class="node">
<title>ResourceDetailHtmlContentPropsComponent</title>
<polygon fill="#ffffb3" stroke="black" points="924.14,-84.8 651.86,-84.8 651.86,-48.8 924.14,-48.8 924.14,-84.8"/>
<text text-anchor="middle" x="788" y="-62.6" font-family="Times,serif" font-size="14.00">ResourceDetailHtmlContentPropsComponent</text>
</g>
<!-- ResourceDetailHtmlContentPropsComponent&#45;&gt;ResourceDetailModule -->
<g id="edge6" class="edge">
<title>ResourceDetailHtmlContentPropsComponent&#45;&gt;ResourceDetailModule</title>
<path fill="none" stroke="black" d="M900.77,-84.99C900.77,-99.98 900.77,-118.8 900.77,-118.8 900.77,-118.8 1019.07,-118.8 1019.07,-118.8"/>
<polygon fill="black" stroke="black" points="1019.07,-122.3 1029.07,-118.8 1019.07,-115.3 1019.07,-122.3"/>
</g>
<!-- ResourceDetailJsonConvertedComponent -->
<g id="node7" class="node">
<title>ResourceDetailJsonConvertedComponent</title>
<polygon fill="#ffffb3" stroke="black" points="633.34,-84.8 382.66,-84.8 382.66,-48.8 633.34,-48.8 633.34,-84.8"/>
<text text-anchor="middle" x="508" y="-62.6" font-family="Times,serif" font-size="14.00">ResourceDetailJsonConvertedComponent</text>
</g>
<!-- ResourceDetailJsonConvertedComponent&#45;&gt;ResourceDetailModule -->
<g id="edge7" class="edge">
<title>ResourceDetailJsonConvertedComponent&#45;&gt;ResourceDetailModule</title>
<path fill="none" stroke="black" d="M608.18,-84.83C608.18,-101.2 608.18,-122.8 608.18,-122.8 608.18,-122.8 1019.13,-122.8 1019.13,-122.8"/>
<polygon fill="black" stroke="black" points="1019.13,-126.3 1029.13,-122.8 1019.13,-119.3 1019.13,-126.3"/>
</g>
<!-- ResourceDetailJsonRawComponent -->
<g id="node8" class="node">
<title>ResourceDetailJsonRawComponent</title>
<polygon fill="#ffffb3" stroke="black" points="364.19,-84.8 145.81,-84.8 145.81,-48.8 364.19,-48.8 364.19,-84.8"/>
<text text-anchor="middle" x="255" y="-62.6" font-family="Times,serif" font-size="14.00">ResourceDetailJsonRawComponent</text>
</g>
<!-- ResourceDetailJsonRawComponent&#45;&gt;ResourceDetailModule -->
<g id="edge8" class="edge">
<title>ResourceDetailJsonRawComponent&#45;&gt;ResourceDetailModule</title>
<path fill="none" stroke="black" d="M337.46,-85.1C337.46,-103.07 337.46,-127.8 337.46,-127.8 337.46,-127.8 1019.04,-127.8 1019.04,-127.8"/>
<polygon fill="black" stroke="black" points="1019.04,-131.3 1029.04,-127.8 1019.04,-124.3 1019.04,-131.3"/>
</g>
<!-- ResourceDetailHeaderComponent  -->
<g id="node11" class="node">
<title>ResourceDetailHeaderComponent </title>
<polygon fill="#fb8072" stroke="black" points="2247.54,-214.8 2036.46,-214.8 2036.46,-178.8 2247.54,-178.8 2247.54,-214.8"/>
<text text-anchor="middle" x="2142" y="-192.6" font-family="Times,serif" font-size="14.00">ResourceDetailHeaderComponent </text>
</g>
<!-- ResourceDetailModule&#45;&gt;ResourceDetailHeaderComponent  -->
<g id="edge10" class="edge">
<title>ResourceDetailModule&#45;&gt;ResourceDetailHeaderComponent </title>
<path fill="none" stroke="black" stroke-dasharray="5,2" d="M1175.02,-133.8C1397.64,-133.8 2052.72,-133.8 2052.72,-133.8 2052.72,-133.8 2052.72,-168.58 2052.72,-168.58"/>
<polygon fill="black" stroke="black" points="2049.22,-168.58 2052.72,-178.58 2056.22,-168.58 2049.22,-168.58"/>
</g>
<!-- ResourceDetailHtmlComponent  -->
<g id="node12" class="node">
<title>ResourceDetailHtmlComponent </title>
<polygon fill="#fb8072" stroke="black" points="2017.91,-214.8 1818.09,-214.8 1818.09,-178.8 2017.91,-178.8 2017.91,-214.8"/>
<text text-anchor="middle" x="1918" y="-192.6" font-family="Times,serif" font-size="14.00">ResourceDetailHtmlComponent </text>
</g>
<!-- ResourceDetailModule&#45;&gt;ResourceDetailHtmlComponent  -->
<g id="edge11" class="edge">
<title>ResourceDetailModule&#45;&gt;ResourceDetailHtmlComponent </title>
<path fill="none" stroke="black" stroke-dasharray="5,2" d="M1175.08,-137.8C1360.79,-137.8 1836.21,-137.8 1836.21,-137.8 1836.21,-137.8 1836.21,-168.78 1836.21,-168.78"/>
<polygon fill="black" stroke="black" points="1832.71,-168.78 1836.21,-178.78 1839.71,-168.78 1832.71,-168.78"/>
</g>
<!-- ResourceDetailHtmlContentComponent  -->
<g id="node13" class="node">
<title>ResourceDetailHtmlContentComponent </title>
<polygon fill="#fb8072" stroke="black" points="1800.24,-214.8 1555.76,-214.8 1555.76,-178.8 1800.24,-178.8 1800.24,-214.8"/>
<text text-anchor="middle" x="1678" y="-192.6" font-family="Times,serif" font-size="14.00">ResourceDetailHtmlContentComponent </text>
</g>
<!-- ResourceDetailModule&#45;&gt;ResourceDetailHtmlContentComponent  -->
<g id="edge12" class="edge">
<title>ResourceDetailModule&#45;&gt;ResourceDetailHtmlContentComponent </title>
<path fill="none" stroke="black" stroke-dasharray="5,2" d="M1174.99,-141.8C1307.89,-141.8 1575.78,-141.8 1575.78,-141.8 1575.78,-141.8 1575.78,-168.79 1575.78,-168.79"/>
<polygon fill="black" stroke="black" points="1572.28,-168.79 1575.78,-178.79 1579.28,-168.79 1572.28,-168.79"/>
</g>
<!-- ResourceDetailHtmlContentImageobjectsComponent  -->
<g id="node14" class="node">
<title>ResourceDetailHtmlContentImageobjectsComponent </title>
<polygon fill="#fb8072" stroke="black" points="1537.37,-214.8 1218.63,-214.8 1218.63,-178.8 1537.37,-178.8 1537.37,-214.8"/>
<text text-anchor="middle" x="1378" y="-192.6" font-family="Times,serif" font-size="14.00">ResourceDetailHtmlContentImageobjectsComponent </text>
</g>
<!-- ResourceDetailModule&#45;&gt;ResourceDetailHtmlContentImageobjectsComponent  -->
<g id="edge13" class="edge">
<title>ResourceDetailModule&#45;&gt;ResourceDetailHtmlContentImageobjectsComponent </title>
<path fill="none" stroke="black" stroke-dasharray="5,2" d="M1175.2,-145.8C1208.37,-145.8 1240.29,-145.8 1240.29,-145.8 1240.29,-145.8 1240.29,-168.68 1240.29,-168.68"/>
<polygon fill="black" stroke="black" points="1236.79,-168.68 1240.29,-178.68 1243.79,-168.68 1236.79,-168.68"/>
</g>
<!-- ResourceDetailHtmlContentLinkedobjectsComponent  -->
<g id="node15" class="node">
<title>ResourceDetailHtmlContentLinkedobjectsComponent </title>
<polygon fill="#fb8072" stroke="black" points="1200.55,-214.8 877.45,-214.8 877.45,-178.8 1200.55,-178.8 1200.55,-214.8"/>
<text text-anchor="middle" x="1039" y="-192.6" font-family="Times,serif" font-size="14.00">ResourceDetailHtmlContentLinkedobjectsComponent </text>
</g>
<!-- ResourceDetailModule&#45;&gt;ResourceDetailHtmlContentLinkedobjectsComponent  -->
<g id="edge14" class="edge">
<title>ResourceDetailModule&#45;&gt;ResourceDetailHtmlContentLinkedobjectsComponent </title>
<path fill="none" stroke="black" stroke-dasharray="5,2" d="M1102,-149.91C1102,-149.91 1102,-168.79 1102,-168.79"/>
<polygon fill="black" stroke="black" points="1098.5,-168.79 1102,-178.79 1105.5,-168.79 1098.5,-168.79"/>
</g>
<!-- ResourceDetailHtmlContentPropsComponent  -->
<g id="node16" class="node">
<title>ResourceDetailHtmlContentPropsComponent </title>
<polygon fill="#fb8072" stroke="black" points="859.13,-214.8 582.87,-214.8 582.87,-178.8 859.13,-178.8 859.13,-214.8"/>
<text text-anchor="middle" x="721" y="-192.6" font-family="Times,serif" font-size="14.00">ResourceDetailHtmlContentPropsComponent </text>
</g>
<!-- ResourceDetailModule&#45;&gt;ResourceDetailHtmlContentPropsComponent  -->
<g id="edge15" class="edge">
<title>ResourceDetailModule&#45;&gt;ResourceDetailHtmlContentPropsComponent </title>
<path fill="none" stroke="black" stroke-dasharray="5,2" d="M1028.91,-145.8C927.22,-145.8 755.38,-145.8 755.38,-145.8 755.38,-145.8 755.38,-168.68 755.38,-168.68"/>
<polygon fill="black" stroke="black" points="751.88,-168.68 755.38,-178.68 758.88,-168.68 751.88,-168.68"/>
</g>
<!-- ResourceDetailJsonConvertedComponent  -->
<g id="node17" class="node">
<title>ResourceDetailJsonConvertedComponent </title>
<polygon fill="#fb8072" stroke="black" points="565.34,-214.8 310.66,-214.8 310.66,-178.8 565.34,-178.8 565.34,-214.8"/>
<text text-anchor="middle" x="438" y="-192.6" font-family="Times,serif" font-size="14.00">ResourceDetailJsonConvertedComponent </text>
</g>
<!-- ResourceDetailModule&#45;&gt;ResourceDetailJsonConvertedComponent  -->
<g id="edge16" class="edge">
<title>ResourceDetailModule&#45;&gt;ResourceDetailJsonConvertedComponent </title>
<path fill="none" stroke="black" stroke-dasharray="5,2" d="M1029.02,-140.8C863.51,-140.8 473.88,-140.8 473.88,-140.8 473.88,-140.8 473.88,-168.77 473.88,-168.77"/>
<polygon fill="black" stroke="black" points="470.38,-168.77 473.88,-178.77 477.38,-168.77 470.38,-168.77"/>
</g>
<!-- ResourceDetailJsonRawComponent  -->
<g id="node18" class="node">
<title>ResourceDetailJsonRawComponent </title>
<polygon fill="#fb8072" stroke="black" points="292.69,-214.8 71.31,-214.8 71.31,-178.8 292.69,-178.8 292.69,-214.8"/>
<text text-anchor="middle" x="182" y="-192.6" font-family="Times,serif" font-size="14.00">ResourceDetailJsonRawComponent </text>
</g>
<!-- ResourceDetailModule&#45;&gt;ResourceDetailJsonRawComponent  -->
<g id="edge17" class="edge">
<title>ResourceDetailModule&#45;&gt;ResourceDetailJsonRawComponent </title>
<path fill="none" stroke="black" stroke-dasharray="5,2" d="M1029.02,-136.8C817.55,-136.8 219.38,-136.8 219.38,-136.8 219.38,-136.8 219.38,-168.8 219.38,-168.8"/>
<polygon fill="black" stroke="black" points="215.88,-168.8 219.38,-178.8 222.88,-168.8 215.88,-168.8"/>
</g>
<!-- SharedModule -->
<g id="node10" class="node">
<title>SharedModule</title>
<polygon fill="#8dd3c7" stroke="black" points="122.43,-84.8 119.43,-88.8 98.43,-88.8 95.43,-84.8 23.57,-84.8 23.57,-48.8 122.43,-48.8 122.43,-84.8"/>
<text text-anchor="middle" x="73" y="-62.6" font-family="Times,serif" font-size="14.00">SharedModule</text>
</g>
<!-- SharedModule&#45;&gt;ResourceDetailModule -->
<g id="edge9" class="edge">
<title>SharedModule&#45;&gt;ResourceDetailModule</title>
<path fill="none" stroke="black" d="M96.69,-84.91C96.69,-104.14 96.69,-131.8 96.69,-131.8 96.69,-131.8 1018.89,-131.8 1018.89,-131.8"/>
<polygon fill="black" stroke="black" points="1018.89,-135.3 1028.89,-131.8 1018.89,-128.3 1018.89,-135.3"/>
</g>
</g>
</svg>
