<?xml version="1.0" encoding="UTF-8" standalone="no"?>
<!DOCTYPE svg PUBLIC "-//W3C//DTD SVG 1.1//EN"
 "http://www.w3.org/Graphics/SVG/1.1/DTD/svg11.dtd">
<!-- Generated by graphviz version 2.47.3 (20210619.1520)
 -->
<!-- Title: dependencies Pages: 1 -->
<svg width="2327pt" height="247pt"
 viewBox="0.00 0.00 2327.00 246.80" xmlns="http://www.w3.org/2000/svg" xmlns:xlink="http://www.w3.org/1999/xlink">
<g id="graph0" class="graph" transform="scale(1 1) rotate(0) translate(4 242.8)">
<title>dependencies</title>
<polygon fill="white" stroke="transparent" points="-4,4 -4,-242.8 2323,-242.8 2323,4 -4,4"/>
<text text-anchor="middle" x="1159.5" y="-8.2" font-family="sans-serif" font-size="14.00">dependencies</text>
<g id="clust1" class="cluster">
<title>cluster_ResourceDetailModule</title>
<polygon fill="none" stroke="black" stroke-dasharray="1,5" points="8,-32.8 8,-230.8 2311,-230.8 2311,-32.8 8,-32.8"/>
</g>
<g id="clust12" class="cluster">
<title>cluster_ResourceDetailModule_exports</title>
<polygon fill="none" stroke="black" points="63,-170.8 63,-222.8 2256,-222.8 2256,-170.8 63,-170.8"/>
</g>
<g id="clust11" class="cluster">
<title>cluster_ResourceDetailModule_imports</title>
<polygon fill="none" stroke="black" points="2189,-40.8 2189,-92.8 2303,-92.8 2303,-40.8 2189,-40.8"/>
</g>
<g id="clust2" class="cluster">
<title>cluster_ResourceDetailModule_declarations</title>
<polygon fill="none" stroke="black" points="16,-40.8 16,-92.8 2181,-92.8 2181,-40.8 16,-40.8"/>
</g>
<!-- ResourceDetailHeaderComponent -->
<g id="node1" class="node">
<title>ResourceDetailHeaderComponent</title>
<polygon fill="#ffffb3" stroke="black" points="2173.04,-84.8 1964.96,-84.8 1964.96,-48.8 2173.04,-48.8 2173.04,-84.8"/>
<text text-anchor="middle" x="2069" y="-62.6" font-family="Times,serif" font-size="14.00">ResourceDetailHeaderComponent</text>
</g>
<!-- ResourceDetailModule -->
<g id="node9" class="node">
<title>ResourceDetailModule</title>
<polygon fill="#8dd3c7" stroke="black" points="1388.84,-149.8 1385.84,-153.8 1364.84,-153.8 1361.84,-149.8 1243.16,-149.8 1243.16,-113.8 1388.84,-113.8 1388.84,-149.8"/>
<text text-anchor="middle" x="1316" y="-127.6" font-family="Times,serif" font-size="14.00">ResourceDetailModule</text>
</g>
<!-- ResourceDetailHeaderComponent&#45;&gt;ResourceDetailModule -->
<g id="edge1" class="edge">
<title>ResourceDetailHeaderComponent&#45;&gt;ResourceDetailModule</title>
<path fill="none" stroke="black" d="M1991.47,-85.1C1991.47,-103.07 1991.47,-127.8 1991.47,-127.8 1991.47,-127.8 1398.93,-127.8 1398.93,-127.8"/>
<polygon fill="black" stroke="black" points="1398.93,-124.3 1388.93,-127.8 1398.93,-131.3 1398.93,-124.3"/>
</g>
<!-- ResourceDetailHtmlComponent -->
<g id="node2" class="node">
<title>ResourceDetailHtmlComponent</title>
<polygon fill="#ffffb3" stroke="black" points="1947.4,-84.8 1750.6,-84.8 1750.6,-48.8 1947.4,-48.8 1947.4,-84.8"/>
<text text-anchor="middle" x="1849" y="-62.6" font-family="Times,serif" font-size="14.00">ResourceDetailHtmlComponent</text>
</g>
<!-- ResourceDetailHtmlComponent&#45;&gt;ResourceDetailModule -->
<g id="edge2" class="edge">
<title>ResourceDetailHtmlComponent&#45;&gt;ResourceDetailModule</title>
<path fill="none" stroke="black" d="M1775.46,-84.83C1775.46,-101.2 1775.46,-122.8 1775.46,-122.8 1775.46,-122.8 1399.06,-122.8 1399.06,-122.8"/>
<polygon fill="black" stroke="black" points="1399.06,-119.3 1389.06,-122.8 1399.06,-126.3 1399.06,-119.3"/>
</g>
<!-- ResourceDetailHtmlContentComponent -->
<g id="node3" class="node">
<title>ResourceDetailHtmlContentComponent</title>
<polygon fill="#ffffb3" stroke="black" points="1732.24,-84.8 1491.76,-84.8 1491.76,-48.8 1732.24,-48.8 1732.24,-84.8"/>
<text text-anchor="middle" x="1612" y="-62.6" font-family="Times,serif" font-size="14.00">ResourceDetailHtmlContentComponent</text>
</g>
<!-- ResourceDetailHtmlContentComponent&#45;&gt;ResourceDetailModule -->
<g id="edge3" class="edge">
<title>ResourceDetailHtmlContentComponent&#45;&gt;ResourceDetailModule</title>
<path fill="none" stroke="black" d="M1514.53,-84.99C1514.53,-99.98 1514.53,-118.8 1514.53,-118.8 1514.53,-118.8 1399.08,-118.8 1399.08,-118.8"/>
<polygon fill="black" stroke="black" points="1399.08,-115.3 1389.08,-118.8 1399.08,-122.3 1399.08,-115.3"/>
</g>
<!-- ResourceDetailHtmlContentImageobjectsComponent -->
<g id="node4" class="node">
<title>ResourceDetailHtmlContentImageobjectsComponent</title>
<polygon fill="#ffffb3" stroke="black" points="1473.87,-84.8 1158.13,-84.8 1158.13,-48.8 1473.87,-48.8 1473.87,-84.8"/>
<text text-anchor="middle" x="1316" y="-62.6" font-family="Times,serif" font-size="14.00">ResourceDetailHtmlContentImageobjectsComponent</text>
</g>
<!-- ResourceDetailHtmlContentImageobjectsComponent&#45;&gt;ResourceDetailModule -->
<g id="edge4" class="edge">
<title>ResourceDetailHtmlContentImageobjectsComponent&#45;&gt;ResourceDetailModule</title>
<path fill="none" stroke="black" d="M1316,-84.91C1316,-84.91 1316,-103.79 1316,-103.79"/>
<polygon fill="black" stroke="black" points="1312.5,-103.79 1316,-113.79 1319.5,-103.79 1312.5,-103.79"/>
</g>
<!-- ResourceDetailHtmlContentLinkedobjectsComponent -->
<g id="node5" class="node">
<title>ResourceDetailHtmlContentLinkedobjectsComponent</title>
<polygon fill="#ffffb3" stroke="black" points="1140.05,-84.8 819.95,-84.8 819.95,-48.8 1140.05,-48.8 1140.05,-84.8"/>
<text text-anchor="middle" x="980" y="-62.6" font-family="Times,serif" font-size="14.00">ResourceDetailHtmlContentLinkedobjectsComponent</text>
</g>
<!-- ResourceDetailHtmlContentLinkedobjectsComponent&#45;&gt;ResourceDetailModule -->
<g id="edge5" class="edge">
<title>ResourceDetailHtmlContentLinkedobjectsComponent&#45;&gt;ResourceDetailModule</title>
<path fill="none" stroke="black" d="M1008.62,-84.92C1008.62,-99.58 1008.62,-117.8 1008.62,-117.8 1008.62,-117.8 1233.16,-117.8 1233.16,-117.8"/>
<polygon fill="black" stroke="black" points="1233.16,-121.3 1243.16,-117.8 1233.16,-114.3 1233.16,-121.3"/>
</g>
<!-- ResourceDetailHtmlContentPropsComponent -->
<g id="node6" class="node">
<title>ResourceDetailHtmlContentPropsComponent</title>
<polygon fill="#ffffb3" stroke="black" points="802.12,-84.8 529.88,-84.8 529.88,-48.8 802.12,-48.8 802.12,-84.8"/>
<text text-anchor="middle" x="666" y="-62.6" font-family="Times,serif" font-size="14.00">ResourceDetailHtmlContentPropsComponent</text>
</g>
<!-- ResourceDetailHtmlContentPropsComponent&#45;&gt;ResourceDetailModule -->
<g id="edge6" class="edge">
<title>ResourceDetailHtmlContentPropsComponent&#45;&gt;ResourceDetailModule</title>
<path fill="none" stroke="black" d="M692.62,-84.81C692.62,-100.85 692.62,-121.8 692.62,-121.8 692.62,-121.8 1232.96,-121.8 1232.96,-121.8"/>
<polygon fill="black" stroke="black" points="1232.96,-125.3 1242.96,-121.8 1232.96,-118.3 1232.96,-125.3"/>
</g>
<!-- ResourceDetailJsonConvertedComponent -->
<g id="node7" class="node">
<title>ResourceDetailJsonConvertedComponent</title>
<polygon fill="#ffffb3" stroke="black" points="511.33,-84.8 260.67,-84.8 260.67,-48.8 511.33,-48.8 511.33,-84.8"/>
<text text-anchor="middle" x="386" y="-62.6" font-family="Times,serif" font-size="14.00">ResourceDetailJsonConvertedComponent</text>
</g>
<!-- ResourceDetailJsonConvertedComponent&#45;&gt;ResourceDetailModule -->
<g id="edge7" class="edge">
<title>ResourceDetailJsonConvertedComponent&#45;&gt;ResourceDetailModule</title>
<path fill="none" stroke="black" d="M411.12,-84.82C411.12,-102.17 411.12,-125.8 411.12,-125.8 411.12,-125.8 1233.1,-125.8 1233.1,-125.8"/>
<polygon fill="black" stroke="black" points="1233.1,-129.3 1243.1,-125.8 1233.1,-122.3 1233.1,-129.3"/>
</g>
<!-- ResourceDetailJsonRawComponent -->
<g id="node8" class="node">
<title>ResourceDetailJsonRawComponent</title>
<polygon fill="#ffffb3" stroke="black" points="242.17,-84.8 23.83,-84.8 23.83,-48.8 242.17,-48.8 242.17,-84.8"/>
<text text-anchor="middle" x="133" y="-62.6" font-family="Times,serif" font-size="14.00">ResourceDetailJsonRawComponent</text>
</g>
<!-- ResourceDetailJsonRawComponent&#45;&gt;ResourceDetailModule -->
<g id="edge8" class="edge">
<title>ResourceDetailJsonRawComponent&#45;&gt;ResourceDetailModule</title>
<path fill="none" stroke="black" d="M156.62,-85.02C156.62,-103.63 156.62,-129.8 156.62,-129.8 156.62,-129.8 1233.04,-129.8 1233.04,-129.8"/>
<polygon fill="black" stroke="black" points="1233.04,-133.3 1243.04,-129.8 1233.04,-126.3 1233.04,-133.3"/>
</g>
<!-- ResourceDetailHeaderComponent  -->
<g id="node11" class="node">
<title>ResourceDetailHeaderComponent </title>
<polygon fill="#fb8072" stroke="black" points="2247.54,-214.8 2036.46,-214.8 2036.46,-178.8 2247.54,-178.8 2247.54,-214.8"/>
<text text-anchor="middle" x="2142" y="-192.6" font-family="Times,serif" font-size="14.00">ResourceDetailHeaderComponent </text>
</g>
<!-- ResourceDetailModule&#45;&gt;ResourceDetailHeaderComponent  -->
<g id="edge10" class="edge">
<title>ResourceDetailModule&#45;&gt;ResourceDetailHeaderComponent </title>
<path fill="none" stroke="black" stroke-dasharray="5,2" d="M1389.13,-136.8C1584.63,-136.8 2104.62,-136.8 2104.62,-136.8 2104.62,-136.8 2104.62,-168.8 2104.62,-168.8"/>
<polygon fill="black" stroke="black" points="2101.13,-168.8 2104.62,-178.8 2108.13,-168.8 2101.13,-168.8"/>
</g>
<!-- ResourceDetailHtmlComponent  -->
<g id="node12" class="node">
<title>ResourceDetailHtmlComponent </title>
<polygon fill="#fb8072" stroke="black" points="2017.9,-214.8 1818.1,-214.8 1818.1,-178.8 2017.9,-178.8 2017.9,-214.8"/>
<text text-anchor="middle" x="1918" y="-192.6" font-family="Times,serif" font-size="14.00">ResourceDetailHtmlComponent </text>
</g>
<!-- ResourceDetailModule&#45;&gt;ResourceDetailHtmlComponent  -->
<g id="edge11" class="edge">
<title>ResourceDetailModule&#45;&gt;ResourceDetailHtmlComponent </title>
<path fill="none" stroke="black" stroke-dasharray="5,2" d="M1388.92,-140.8C1541.95,-140.8 1882.62,-140.8 1882.62,-140.8 1882.62,-140.8 1882.62,-168.77 1882.62,-168.77"/>
<polygon fill="black" stroke="black" points="1879.13,-168.77 1882.62,-178.77 1886.13,-168.77 1879.13,-168.77"/>
</g>
<!-- ResourceDetailHtmlContentComponent  -->
<g id="node13" class="node">
<title>ResourceDetailHtmlContentComponent </title>
<polygon fill="#fb8072" stroke="black" points="1800.24,-214.8 1555.76,-214.8 1555.76,-178.8 1800.24,-178.8 1800.24,-214.8"/>
<text text-anchor="middle" x="1678" y="-192.6" font-family="Times,serif" font-size="14.00">ResourceDetailHtmlContentComponent </text>
</g>
<!-- ResourceDetailModule&#45;&gt;ResourceDetailHtmlContentComponent  -->
<g id="edge12" class="edge">
<title>ResourceDetailModule&#45;&gt;ResourceDetailHtmlContentComponent </title>
<path fill="none" stroke="black" stroke-dasharray="5,2" d="M1389.23,-145.8C1485.94,-145.8 1644.12,-145.8 1644.12,-145.8 1644.12,-145.8 1644.12,-168.68 1644.12,-168.68"/>
<polygon fill="black" stroke="black" points="1640.63,-168.68 1644.12,-178.68 1647.63,-168.68 1640.63,-168.68"/>
</g>
<!-- ResourceDetailHtmlContentImageobjectsComponent  -->
<g id="node14" class="node">
<title>ResourceDetailHtmlContentImageobjectsComponent </title>
<polygon fill="#fb8072" stroke="black" points="1537.37,-214.8 1218.63,-214.8 1218.63,-178.8 1537.37,-178.8 1537.37,-214.8"/>
<text text-anchor="middle" x="1378" y="-192.6" font-family="Times,serif" font-size="14.00">ResourceDetailHtmlContentImageobjectsComponent </text>
</g>
<!-- ResourceDetailModule&#45;&gt;ResourceDetailHtmlContentImageobjectsComponent  -->
<g id="edge13" class="edge">
<title>ResourceDetailModule&#45;&gt;ResourceDetailHtmlContentImageobjectsComponent </title>
<path fill="none" stroke="black" stroke-dasharray="5,2" d="M1316,-149.91C1316,-149.91 1316,-168.79 1316,-168.79"/>
<polygon fill="black" stroke="black" points="1312.5,-168.79 1316,-178.79 1319.5,-168.79 1312.5,-168.79"/>
</g>
<!-- ResourceDetailHtmlContentLinkedobjectsComponent  -->
<g id="node15" class="node">
<title>ResourceDetailHtmlContentLinkedobjectsComponent </title>
<polygon fill="#fb8072" stroke="black" points="1200.55,-214.8 877.45,-214.8 877.45,-178.8 1200.55,-178.8 1200.55,-214.8"/>
<text text-anchor="middle" x="1039" y="-192.6" font-family="Times,serif" font-size="14.00">ResourceDetailHtmlContentLinkedobjectsComponent </text>
</g>
<!-- ResourceDetailModule&#45;&gt;ResourceDetailHtmlContentLinkedobjectsComponent  -->
<g id="edge14" class="edge">
<title>ResourceDetailModule&#45;&gt;ResourceDetailHtmlContentLinkedobjectsComponent </title>
<path fill="none" stroke="black" stroke-dasharray="5,2" d="M1242.98,-145.8C1210.54,-145.8 1179.54,-145.8 1179.54,-145.8 1179.54,-145.8 1179.54,-168.68 1179.54,-168.68"/>
<polygon fill="black" stroke="black" points="1176.04,-168.68 1179.54,-178.68 1183.04,-168.68 1176.04,-168.68"/>
</g>
<!-- ResourceDetailHtmlContentPropsComponent  -->
<g id="node16" class="node">
<title>ResourceDetailHtmlContentPropsComponent </title>
<polygon fill="#fb8072" stroke="black" points="859.12,-214.8 582.88,-214.8 582.88,-178.8 859.12,-178.8 859.12,-214.8"/>
<text text-anchor="middle" x="721" y="-192.6" font-family="Times,serif" font-size="14.00">ResourceDetailHtmlContentPropsComponent </text>
</g>
<!-- ResourceDetailModule&#45;&gt;ResourceDetailHtmlContentPropsComponent  -->
<g id="edge15" class="edge">
<title>ResourceDetailModule&#45;&gt;ResourceDetailHtmlContentPropsComponent </title>
<path fill="none" stroke="black" stroke-dasharray="5,2" d="M1243.11,-141.8C1109.64,-141.8 839.52,-141.8 839.52,-141.8 839.52,-141.8 839.52,-168.79 839.52,-168.79"/>
<polygon fill="black" stroke="black" points="836.02,-168.79 839.52,-178.79 843.02,-168.79 836.02,-168.79"/>
</g>
<!-- ResourceDetailJsonConvertedComponent  -->
<g id="node17" class="node">
<title>ResourceDetailJsonConvertedComponent </title>
<polygon fill="#fb8072" stroke="black" points="565.33,-214.8 310.67,-214.8 310.67,-178.8 565.33,-178.8 565.33,-214.8"/>
<text text-anchor="middle" x="438" y="-192.6" font-family="Times,serif" font-size="14.00">ResourceDetailJsonConvertedComponent </text>
</g>
<!-- ResourceDetailModule&#45;&gt;ResourceDetailJsonConvertedComponent  -->
<g id="edge16" class="edge">
<title>ResourceDetailModule&#45;&gt;ResourceDetailJsonConvertedComponent </title>
<path fill="none" stroke="black" stroke-dasharray="5,2" d="M1243,-137.8C1051.15,-137.8 547.43,-137.8 547.43,-137.8 547.43,-137.8 547.43,-168.78 547.43,-168.78"/>
<polygon fill="black" stroke="black" points="543.93,-168.78 547.43,-178.78 550.93,-168.78 543.93,-168.78"/>
</g>
<!-- ResourceDetailJsonRawComponent  -->
<g id="node18" class="node">
<title>ResourceDetailJsonRawComponent </title>
<polygon fill="#fb8072" stroke="black" points="292.67,-214.8 71.33,-214.8 71.33,-178.8 292.67,-178.8 292.67,-214.8"/>
<text text-anchor="middle" x="182" y="-192.6" font-family="Times,serif" font-size="14.00">ResourceDetailJsonRawComponent </text>
</g>
<!-- ResourceDetailModule&#45;&gt;ResourceDetailJsonRawComponent  -->
<g id="edge17" class="edge">
<title>ResourceDetailModule&#45;&gt;ResourceDetailJsonRawComponent </title>
<path fill="none" stroke="black" stroke-dasharray="5,2" d="M1242.92,-133.8C1006.35,-133.8 276.71,-133.8 276.71,-133.8 276.71,-133.8 276.71,-168.58 276.71,-168.58"/>
<polygon fill="black" stroke="black" points="273.21,-168.58 276.71,-178.58 280.21,-168.58 273.21,-168.58"/>
</g>
<!-- SharedModule -->
<g id="node10" class="node">
<title>SharedModule</title>
<polygon fill="#8dd3c7" stroke="black" points="2295.42,-84.8 2292.42,-88.8 2271.42,-88.8 2268.42,-84.8 2196.58,-84.8 2196.58,-48.8 2295.42,-48.8 2295.42,-84.8"/>
<text text-anchor="middle" x="2246" y="-62.6" font-family="Times,serif" font-size="14.00">SharedModule</text>
</g>
<!-- SharedModule&#45;&gt;ResourceDetailModule -->
<g id="edge9" class="edge">
<title>SharedModule&#45;&gt;ResourceDetailModule</title>
<path fill="none" stroke="black" d="M2222.28,-84.91C2222.28,-104.14 2222.28,-131.8 2222.28,-131.8 2222.28,-131.8 1399.01,-131.8 1399.01,-131.8"/>
<polygon fill="black" stroke="black" points="1399.01,-128.3 1389.01,-131.8 1399.01,-135.3 1399.01,-128.3"/>
</g>
</g>
</svg>
