<?xml version="1.0" encoding="UTF-8" standalone="no"?>
<!DOCTYPE svg PUBLIC "-//W3C//DTD SVG 1.1//EN"
 "http://www.w3.org/Graphics/SVG/1.1/DTD/svg11.dtd">
<!-- Generated by graphviz version 2.40.1 (20161225.0304)
 -->
<!-- Title: dependencies Pages: 1 -->
<svg width="2327pt" height="284pt"
 viewBox="0.00 0.00 2327.00 284.00" xmlns="http://www.w3.org/2000/svg" xmlns:xlink="http://www.w3.org/1999/xlink">
<g id="graph0" class="graph" transform="scale(1 1) rotate(0) translate(4 280)">
<title>dependencies</title>
<polygon fill="#ffffff" stroke="transparent" points="-4,4 -4,-280 2323,-280 2323,4 -4,4"/>
<text text-anchor="start" x="1138.5091" y="-42.4" font-family="sans-serif" font-weight="bold" font-size="14.00" fill="#000000">Legend</text>
<polygon fill="#ffffb3" stroke="transparent" points="925.5,-10 925.5,-30 945.5,-30 945.5,-10 925.5,-10"/>
<text text-anchor="start" x="949.129" y="-15.4" font-family="sans-serif" font-size="14.00" fill="#000000"> &#160;Declarations</text>
<polygon fill="#8dd3c7" stroke="transparent" points="1038.5,-10 1038.5,-30 1058.5,-30 1058.5,-10 1038.5,-10"/>
<text text-anchor="start" x="1062.2251" y="-15.4" font-family="sans-serif" font-size="14.00" fill="#000000"> &#160;Module</text>
<polygon fill="#80b1d3" stroke="transparent" points="1124.5,-10 1124.5,-30 1144.5,-30 1144.5,-10 1124.5,-10"/>
<text text-anchor="start" x="1148.2812" y="-15.4" font-family="sans-serif" font-size="14.00" fill="#000000"> &#160;Bootstrap</text>
<polygon fill="#fdb462" stroke="transparent" points="1221.5,-10 1221.5,-30 1241.5,-30 1241.5,-10 1221.5,-10"/>
<text text-anchor="start" x="1245.1732" y="-15.4" font-family="sans-serif" font-size="14.00" fill="#000000"> &#160;Providers</text>
<polygon fill="#fb8072" stroke="transparent" points="1317.5,-10 1317.5,-30 1337.5,-30 1337.5,-10 1317.5,-10"/>
<text text-anchor="start" x="1341.2258" y="-15.4" font-family="sans-serif" font-size="14.00" fill="#000000"> &#160;Exports</text>
<g id="clust1" class="cluster">
<title>cluster_ResourceDetailModule</title>
<polygon fill="none" stroke="#000000" stroke-dasharray="1,5" points="8,-70 8,-268 2311,-268 2311,-70 8,-70"/>
</g>
<g id="clust2" class="cluster">
<title>cluster_ResourceDetailModule_declarations</title>
<polygon fill="none" stroke="#000000" points="138,-78 138,-130 2303,-130 2303,-78 138,-78"/>
</g>
<g id="clust11" class="cluster">
<title>cluster_ResourceDetailModule_imports</title>
<polygon fill="none" stroke="#000000" points="16,-78 16,-130 130,-130 130,-78 16,-78"/>
</g>
<g id="clust12" class="cluster">
<title>cluster_ResourceDetailModule_exports</title>
<polygon fill="none" stroke="#000000" points="63,-208 63,-260 2256,-260 2256,-208 63,-208"/>
</g>
<!-- ResourceDetailHeaderComponent -->
<g id="node1" class="node">
<title>ResourceDetailHeaderComponent</title>
<polygon fill="#ffffb3" stroke="#000000" points="2295.0366,-122 2086.9634,-122 2086.9634,-86 2295.0366,-86 2295.0366,-122"/>
<text text-anchor="middle" x="2191" y="-99.8" font-family="Times,serif" font-size="14.00" fill="#000000">ResourceDetailHeaderComponent</text>
</g>
<!-- ResourceDetailModule -->
<g id="node9" class="node">
<title>ResourceDetailModule</title>
<polygon fill="#8dd3c7" stroke="#000000" points="1174.8431,-187 1171.8431,-191 1150.8431,-191 1147.8431,-187 1029.1569,-187 1029.1569,-151 1174.8431,-151 1174.8431,-187"/>
<text text-anchor="middle" x="1102" y="-164.8" font-family="Times,serif" font-size="14.00" fill="#000000">ResourceDetailModule</text>
</g>
<!-- ResourceDetailHeaderComponent&#45;&gt;ResourceDetailModule -->
<g id="edge1" class="edge">
<title>ResourceDetailHeaderComponent&#45;&gt;ResourceDetailModule</title>
<path fill="none" stroke="#000000" d="M2167.375,-122.2222C2167.375,-140.8285 2167.375,-167 2167.375,-167 2167.375,-167 1185.2275,-167 1185.2275,-167"/>
<polygon fill="#000000" stroke="#000000" points="1185.2276,-163.5001 1175.2275,-167 1185.2275,-170.5001 1185.2276,-163.5001"/>
</g>
<!-- ResourceDetailHtmlComponent -->
<g id="node2" class="node">
<title>ResourceDetailHtmlComponent</title>
<polygon fill="#ffffb3" stroke="#000000" points="2069.4044,-122 1872.5956,-122 1872.5956,-86 2069.4044,-86 2069.4044,-122"/>
<text text-anchor="middle" x="1971" y="-99.8" font-family="Times,serif" font-size="14.00" fill="#000000">ResourceDetailHtmlComponent</text>
</g>
<!-- ResourceDetailHtmlComponent&#45;&gt;ResourceDetailModule -->
<g id="edge2" class="edge">
<title>ResourceDetailHtmlComponent&#45;&gt;ResourceDetailModule</title>
<path fill="none" stroke="#000000" d="M1945.375,-122.0225C1945.375,-139.3734 1945.375,-163 1945.375,-163 1945.375,-163 1185.0017,-163 1185.0017,-163"/>
<polygon fill="#000000" stroke="#000000" points="1185.0018,-159.5001 1175.0017,-163 1185.0017,-166.5001 1185.0018,-159.5001"/>
</g>
<!-- ResourceDetailHtmlContentComponent -->
<g id="node3" class="node">
<title>ResourceDetailHtmlContentComponent</title>
<polygon fill="#ffffb3" stroke="#000000" points="1854.2365,-122 1613.7635,-122 1613.7635,-86 1854.2365,-86 1854.2365,-122"/>
<text text-anchor="middle" x="1734" y="-99.8" font-family="Times,serif" font-size="14.00" fill="#000000">ResourceDetailHtmlContentComponent</text>
</g>
<!-- ResourceDetailHtmlContentComponent&#45;&gt;ResourceDetailModule -->
<g id="edge3" class="edge">
<title>ResourceDetailHtmlContentComponent&#45;&gt;ResourceDetailModule</title>
<path fill="none" stroke="#000000" d="M1706.875,-122.0091C1706.875,-138.0494 1706.875,-159 1706.875,-159 1706.875,-159 1184.9621,-159 1184.9621,-159"/>
<polygon fill="#000000" stroke="#000000" points="1184.9621,-155.5001 1174.9621,-159 1184.962,-162.5001 1184.9621,-155.5001"/>
</g>
<!-- ResourceDetailHtmlContentImageobjectsComponent -->
<g id="node4" class="node">
<title>ResourceDetailHtmlContentImageobjectsComponent</title>
<polygon fill="#ffffb3" stroke="#000000" points="1595.872,-122 1280.128,-122 1280.128,-86 1595.872,-86 1595.872,-122"/>
<text text-anchor="middle" x="1438" y="-99.8" font-family="Times,serif" font-size="14.00" fill="#000000">ResourceDetailHtmlContentImageobjectsComponent</text>
</g>
<!-- ResourceDetailHtmlContentImageobjectsComponent&#45;&gt;ResourceDetailModule -->
<g id="edge4" class="edge">
<title>ResourceDetailHtmlContentImageobjectsComponent&#45;&gt;ResourceDetailModule</title>
<path fill="none" stroke="#000000" d="M1408.875,-122.1243C1408.875,-136.7832 1408.875,-155 1408.875,-155 1408.875,-155 1185.1143,-155 1185.1143,-155"/>
<polygon fill="#000000" stroke="#000000" points="1185.1144,-151.5001 1175.1143,-155 1185.1143,-158.5001 1185.1144,-151.5001"/>
</g>
<!-- ResourceDetailHtmlContentLinkedobjectsComponent -->
<g id="node5" class="node">
<title>ResourceDetailHtmlContentLinkedobjectsComponent</title>
<polygon fill="#ffffb3" stroke="#000000" points="1262.0492,-122 941.9508,-122 941.9508,-86 1262.0492,-86 1262.0492,-122"/>
<text text-anchor="middle" x="1102" y="-99.8" font-family="Times,serif" font-size="14.00" fill="#000000">ResourceDetailHtmlContentLinkedobjectsComponent</text>
</g>
<!-- ResourceDetailHtmlContentLinkedobjectsComponent&#45;&gt;ResourceDetailModule -->
<g id="edge5" class="edge">
<title>ResourceDetailHtmlContentLinkedobjectsComponent&#45;&gt;ResourceDetailModule</title>
<path fill="none" stroke="#000000" d="M1102,-122.1061C1102,-122.1061 1102,-140.991 1102,-140.991"/>
<polygon fill="#000000" stroke="#000000" points="1098.5001,-140.9909 1102,-150.991 1105.5001,-140.991 1098.5001,-140.9909"/>
</g>
<!-- ResourceDetailHtmlContentPropsComponent -->
<g id="node6" class="node">
<title>ResourceDetailHtmlContentPropsComponent</title>
<polygon fill="#ffffb3" stroke="#000000" points="924.1245,-122 651.8755,-122 651.8755,-86 924.1245,-86 924.1245,-122"/>
<text text-anchor="middle" x="788" y="-99.8" font-family="Times,serif" font-size="14.00" fill="#000000">ResourceDetailHtmlContentPropsComponent</text>
</g>
<!-- ResourceDetailHtmlContentPropsComponent&#45;&gt;ResourceDetailModule -->
<g id="edge6" class="edge">
<title>ResourceDetailHtmlContentPropsComponent&#45;&gt;ResourceDetailModule</title>
<path fill="none" stroke="#000000" d="M900.7688,-122.1871C900.7688,-137.1824 900.7688,-156 900.7688,-156 900.7688,-156 1019.0664,-156 1019.0664,-156"/>
<polygon fill="#000000" stroke="#000000" points="1019.0664,-159.5001 1029.0664,-156 1019.0663,-152.5001 1019.0664,-159.5001"/>
</g>
<!-- ResourceDetailJsonConvertedComponent -->
<g id="node7" class="node">
<title>ResourceDetailJsonConvertedComponent</title>
<polygon fill="#ffffb3" stroke="#000000" points="633.3319,-122 382.6681,-122 382.6681,-86 633.3319,-86 633.3319,-122"/>
<text text-anchor="middle" x="508" y="-99.8" font-family="Times,serif" font-size="14.00" fill="#000000">ResourceDetailJsonConvertedComponent</text>
</g>
<!-- ResourceDetailJsonConvertedComponent&#45;&gt;ResourceDetailModule -->
<g id="edge7" class="edge">
<title>ResourceDetailJsonConvertedComponent&#45;&gt;ResourceDetailModule</title>
<path fill="none" stroke="#000000" d="M608.1769,-122.027C608.1769,-138.3976 608.1769,-160 608.1769,-160 608.1769,-160 1019.1347,-160 1019.1347,-160"/>
<polygon fill="#000000" stroke="#000000" points="1019.1347,-163.5001 1029.1347,-160 1019.1347,-156.5001 1019.1347,-163.5001"/>
</g>
<!-- ResourceDetailJsonRawComponent -->
<g id="node8" class="node">
<title>ResourceDetailJsonRawComponent</title>
<polygon fill="#ffffb3" stroke="#000000" points="364.1727,-122 145.8273,-122 145.8273,-86 364.1727,-86 364.1727,-122"/>
<text text-anchor="middle" x="255" y="-99.8" font-family="Times,serif" font-size="14.00" fill="#000000">ResourceDetailJsonRawComponent</text>
</g>
<!-- ResourceDetailJsonRawComponent&#45;&gt;ResourceDetailModule -->
<g id="edge8" class="edge">
<title>ResourceDetailJsonRawComponent&#45;&gt;ResourceDetailModule</title>
<path fill="none" stroke="#000000" d="M337.4602,-122.302C337.4602,-140.2699 337.4602,-165 337.4602,-165 337.4602,-165 1019.039,-165 1019.039,-165"/>
<polygon fill="#000000" stroke="#000000" points="1019.0391,-168.5001 1029.039,-165 1019.039,-161.5001 1019.0391,-168.5001"/>
</g>
<!-- ResourceDetailHeaderComponent  -->
<g id="node11" class="node">
<title>ResourceDetailHeaderComponent </title>
<polygon fill="#fb8072" stroke="#000000" points="2247.5371,-252 2036.4629,-252 2036.4629,-216 2247.5371,-216 2247.5371,-252"/>
<text text-anchor="middle" x="2142" y="-229.8" font-family="Times,serif" font-size="14.00" fill="#000000">ResourceDetailHeaderComponent </text>
</g>
<!-- ResourceDetailModule&#45;&gt;ResourceDetailHeaderComponent  -->
<g id="edge10" class="edge">
<title>ResourceDetailModule&#45;&gt;ResourceDetailHeaderComponent </title>
<path fill="none" stroke="#000000" stroke-dasharray="5,2" d="M1175.0225,-171C1397.6447,-171 2052.7168,-171 2052.7168,-171 2052.7168,-171 2052.7168,-205.7778 2052.7168,-205.7778"/>
<polygon fill="#000000" stroke="#000000" points="2049.2169,-205.7778 2052.7168,-215.7778 2056.2169,-205.7778 2049.2169,-205.7778"/>
</g>
<!-- ResourceDetailHtmlComponent  -->
<g id="node12" class="node">
<title>ResourceDetailHtmlComponent </title>
<polygon fill="#fb8072" stroke="#000000" points="2017.904,-252 1818.096,-252 1818.096,-216 2017.904,-216 2017.904,-252"/>
<text text-anchor="middle" x="1918" y="-229.8" font-family="Times,serif" font-size="14.00" fill="#000000">ResourceDetailHtmlComponent </text>
</g>
<!-- ResourceDetailModule&#45;&gt;ResourceDetailHtmlComponent  -->
<g id="edge11" class="edge">
<title>ResourceDetailModule&#45;&gt;ResourceDetailHtmlComponent </title>
<path fill="none" stroke="#000000" stroke-dasharray="5,2" d="M1175.0829,-175C1360.7922,-175 1836.2081,-175 1836.2081,-175 1836.2081,-175 1836.2081,-205.9775 1836.2081,-205.9775"/>
<polygon fill="#000000" stroke="#000000" points="1832.7082,-205.9774 1836.2081,-215.9775 1839.7082,-205.9775 1832.7082,-205.9774"/>
</g>
<!-- ResourceDetailHtmlContentComponent  -->
<g id="node13" class="node">
<title>ResourceDetailHtmlContentComponent </title>
<polygon fill="#fb8072" stroke="#000000" points="1800.2365,-252 1555.7635,-252 1555.7635,-216 1800.2365,-216 1800.2365,-252"/>
<text text-anchor="middle" x="1678" y="-229.8" font-family="Times,serif" font-size="14.00" fill="#000000">ResourceDetailHtmlContentComponent </text>
</g>
<!-- ResourceDetailModule&#45;&gt;ResourceDetailHtmlContentComponent  -->
<g id="edge12" class="edge">
<title>ResourceDetailModule&#45;&gt;ResourceDetailHtmlContentComponent </title>
<path fill="none" stroke="#000000" stroke-dasharray="5,2" d="M1174.9904,-179C1307.8906,-179 1575.7839,-179 1575.7839,-179 1575.7839,-179 1575.7839,-205.9909 1575.7839,-205.9909"/>
<polygon fill="#000000" stroke="#000000" points="1572.2839,-205.9909 1575.7839,-215.9909 1579.2839,-205.991 1572.2839,-205.9909"/>
</g>
<!-- ResourceDetailHtmlContentImageobjectsComponent  -->
<g id="node14" class="node">
<title>ResourceDetailHtmlContentImageobjectsComponent </title>
<polygon fill="#fb8072" stroke="#000000" points="1537.3718,-252 1218.6282,-252 1218.6282,-216 1537.3718,-216 1537.3718,-252"/>
<text text-anchor="middle" x="1378" y="-229.8" font-family="Times,serif" font-size="14.00" fill="#000000">ResourceDetailHtmlContentImageobjectsComponent </text>
</g>
<!-- ResourceDetailModule&#45;&gt;ResourceDetailHtmlContentImageobjectsComponent  -->
<g id="edge13" class="edge">
<title>ResourceDetailModule&#45;&gt;ResourceDetailHtmlContentImageobjectsComponent </title>
<path fill="none" stroke="#000000" stroke-dasharray="5,2" d="M1175.1967,-183C1208.3691,-183 1240.2944,-183 1240.2944,-183 1240.2944,-183 1240.2944,-205.8757 1240.2944,-205.8757"/>
<polygon fill="#000000" stroke="#000000" points="1236.7944,-205.8757 1240.2944,-215.8757 1243.7944,-205.8757 1236.7944,-205.8757"/>
</g>
<!-- ResourceDetailHtmlContentLinkedobjectsComponent  -->
<g id="node15" class="node">
<title>ResourceDetailHtmlContentLinkedobjectsComponent </title>
<polygon fill="#fb8072" stroke="#000000" points="1200.5495,-252 877.4505,-252 877.4505,-216 1200.5495,-216 1200.5495,-252"/>
<text text-anchor="middle" x="1039" y="-229.8" font-family="Times,serif" font-size="14.00" fill="#000000">ResourceDetailHtmlContentLinkedobjectsComponent </text>
</g>
<!-- ResourceDetailModule&#45;&gt;ResourceDetailHtmlContentLinkedobjectsComponent  -->
<g id="edge14" class="edge">
<title>ResourceDetailModule&#45;&gt;ResourceDetailHtmlContentLinkedobjectsComponent </title>
<path fill="none" stroke="#000000" stroke-dasharray="5,2" d="M1102,-187.1061C1102,-187.1061 1102,-205.991 1102,-205.991"/>
<polygon fill="#000000" stroke="#000000" points="1098.5001,-205.9909 1102,-215.991 1105.5001,-205.991 1098.5001,-205.9909"/>
</g>
<!-- ResourceDetailHtmlContentPropsComponent  -->
<g id="node16" class="node">
<title>ResourceDetailHtmlContentPropsComponent </title>
<polygon fill="#fb8072" stroke="#000000" points="859.1242,-252 582.8758,-252 582.8758,-216 859.1242,-216 859.1242,-252"/>
<text text-anchor="middle" x="721" y="-229.8" font-family="Times,serif" font-size="14.00" fill="#000000">ResourceDetailHtmlContentPropsComponent </text>
</g>
<!-- ResourceDetailModule&#45;&gt;ResourceDetailHtmlContentPropsComponent  -->
<g id="edge15" class="edge">
<title>ResourceDetailModule&#45;&gt;ResourceDetailHtmlContentPropsComponent </title>
<path fill="none" stroke="#000000" stroke-dasharray="5,2" d="M1028.9133,-183C927.2175,-183 755.375,-183 755.375,-183 755.375,-183 755.375,-205.8757 755.375,-205.8757"/>
<polygon fill="#000000" stroke="#000000" points="751.8751,-205.8757 755.375,-215.8757 758.8751,-205.8757 751.8751,-205.8757"/>
</g>
<!-- ResourceDetailJsonConvertedComponent  -->
<g id="node17" class="node">
<title>ResourceDetailJsonConvertedComponent </title>
<polygon fill="#fb8072" stroke="#000000" points="565.332,-252 310.668,-252 310.668,-216 565.332,-216 565.332,-252"/>
<text text-anchor="middle" x="438" y="-229.8" font-family="Times,serif" font-size="14.00" fill="#000000">ResourceDetailJsonConvertedComponent </text>
</g>
<!-- ResourceDetailModule&#45;&gt;ResourceDetailJsonConvertedComponent  -->
<g id="edge16" class="edge">
<title>ResourceDetailModule&#45;&gt;ResourceDetailJsonConvertedComponent </title>
<path fill="none" stroke="#000000" stroke-dasharray="5,2" d="M1029.0249,-178C863.5073,-178 473.875,-178 473.875,-178 473.875,-178 473.875,-205.973 473.875,-205.973"/>
<polygon fill="#000000" stroke="#000000" points="470.3751,-205.973 473.875,-215.973 477.3751,-205.973 470.3751,-205.973"/>
</g>
<!-- ResourceDetailJsonRawComponent  -->
<g id="node18" class="node">
<title>ResourceDetailJsonRawComponent </title>
<polygon fill="#fb8072" stroke="#000000" points="292.6728,-252 71.3272,-252 71.3272,-216 292.6728,-216 292.6728,-252"/>
<text text-anchor="middle" x="182" y="-229.8" font-family="Times,serif" font-size="14.00" fill="#000000">ResourceDetailJsonRawComponent </text>
</g>
<!-- ResourceDetailModule&#45;&gt;ResourceDetailJsonRawComponent  -->
<g id="edge17" class="edge">
<title>ResourceDetailModule&#45;&gt;ResourceDetailJsonRawComponent </title>
<path fill="none" stroke="#000000" stroke-dasharray="5,2" d="M1029.0202,-174C817.5544,-174 219.375,-174 219.375,-174 219.375,-174 219.375,-205.998 219.375,-205.998"/>
<polygon fill="#000000" stroke="#000000" points="215.8751,-205.998 219.375,-215.998 222.8751,-205.9981 215.8751,-205.998"/>
</g>
<!-- SharedModule -->
<g id="node10" class="node">
<title>SharedModule</title>
<polygon fill="#8dd3c7" stroke="#000000" points="122.4231,-122 119.4231,-126 98.4231,-126 95.4231,-122 23.5769,-122 23.5769,-86 122.4231,-86 122.4231,-122"/>
<text text-anchor="middle" x="73" y="-99.8" font-family="Times,serif" font-size="14.00" fill="#000000">SharedModule</text>
</g>
<!-- SharedModule&#45;&gt;ResourceDetailModule -->
<g id="edge9" class="edge">
<title>SharedModule&#45;&gt;ResourceDetailModule</title>
<path fill="none" stroke="#000000" d="M96.6874,-122.1061C96.6874,-141.3391 96.6874,-169 96.6874,-169 96.6874,-169 1018.8906,-169 1018.8906,-169"/>
<polygon fill="#000000" stroke="#000000" points="1018.8906,-172.5001 1028.8906,-169 1018.8906,-165.5001 1018.8906,-172.5001"/>
</g>
</g>
</svg>
