<?xml version="1.0" encoding="UTF-8" standalone="no"?>
<!DOCTYPE svg PUBLIC "-//W3C//DTD SVG 1.1//EN"
 "http://www.w3.org/Graphics/SVG/1.1/DTD/svg11.dtd">
<!-- Generated by graphviz version 5.0.0 (20220707.1540)
 -->
<!-- Title: dependencies Pages: 1 -->
<svg width="530pt" height="174pt"
 viewBox="0.00 0.00 530.00 173.80" xmlns="http://www.w3.org/2000/svg" xmlns:xlink="http://www.w3.org/1999/xlink">
<g id="graph0" class="graph" transform="scale(1 1) rotate(0) translate(4 169.8)">
<title>dependencies</title>
<polygon fill="white" stroke="transparent" points="-4,4 -4,-169.8 526,-169.8 526,4 -4,4"/>
<text text-anchor="middle" x="261" y="-8.2" font-family="sans-serif" font-size="14.00">dependencies</text>
<g id="clust1" class="cluster">
<title>cluster_ContactViewModule</title>
<polygon fill="none" stroke="black" stroke-dasharray="1,5" points="8,-32.8 8,-157.8 514,-157.8 514,-32.8 8,-32.8"/>
</g>
<g id="clust2" class="cluster">
<title>cluster_ContactViewModule_declarations</title>
<polygon fill="none" stroke="black" points="334,-40.8 334,-92.8 506,-92.8 506,-40.8 334,-40.8"/>
</g>
<g id="clust4" class="cluster">
<title>cluster_ContactViewModule_imports</title>
<polygon fill="none" stroke="black" points="16,-40.8 16,-92.8 326,-92.8 326,-40.8 16,-40.8"/>
</g>
<!-- ContactViewComponent -->
<g id="node1" class="node">
<title>ContactViewComponent</title>
<polygon fill="#ffffb3" stroke="black" points="497.7,-84.8 342.3,-84.8 342.3,-48.8 497.7,-48.8 497.7,-84.8"/>
<text text-anchor="middle" x="420" y="-62.6" font-family="Times,serif" font-size="14.00">ContactViewComponent</text>
</g>
<!-- ContactViewModule -->
<g id="node2" class="node">
<title>ContactViewModule</title>
<polygon fill="#8dd3c7" stroke="black" points="295.92,-149.8 292.92,-153.8 271.92,-153.8 268.92,-149.8 162.08,-149.8 162.08,-113.8 295.92,-113.8 295.92,-149.8"/>
<text text-anchor="middle" x="229" y="-127.6" font-family="Times,serif" font-size="14.00">ContactViewModule</text>
</g>
<!-- ContactViewComponent&#45;&gt;ContactViewModule -->
<g id="edge1" class="edge">
<title>ContactViewComponent&#45;&gt;ContactViewModule</title>
<path fill="none" stroke="black" d="M420,-84.91C420,-104.14 420,-131.8 420,-131.8 420,-131.8 305.8,-131.8 305.8,-131.8"/>
<polygon fill="black" stroke="black" points="305.8,-128.3 295.8,-131.8 305.8,-135.3 305.8,-128.3"/>
</g>
<!-- ContactViewRoutingModule -->
<g id="node3" class="node">
<title>ContactViewRoutingModule</title>
<polygon fill="#8dd3c7" stroke="black" points="318.04,-84.8 315.04,-88.8 294.04,-88.8 291.04,-84.8 139.96,-84.8 139.96,-48.8 318.04,-48.8 318.04,-84.8"/>
<text text-anchor="middle" x="229" y="-62.6" font-family="Times,serif" font-size="14.00">ContactViewRoutingModule</text>
</g>
<!-- ContactViewRoutingModule&#45;&gt;ContactViewModule -->
<g id="edge2" class="edge">
<title>ContactViewRoutingModule&#45;&gt;ContactViewModule</title>
<path fill="none" stroke="black" d="M229,-84.91C229,-84.91 229,-103.79 229,-103.79"/>
<polygon fill="black" stroke="black" points="225.5,-103.79 229,-113.79 232.5,-103.79 225.5,-103.79"/>
</g>
<!-- SharedModule -->
<g id="node4" class="node">
<title>SharedModule</title>
<polygon fill="#8dd3c7" stroke="black" points="122.43,-84.8 119.43,-88.8 98.43,-88.8 95.43,-84.8 23.57,-84.8 23.57,-48.8 122.43,-48.8 122.43,-84.8"/>
<text text-anchor="middle" x="73" y="-62.6" font-family="Times,serif" font-size="14.00">SharedModule</text>
</g>
<!-- SharedModule&#45;&gt;ContactViewModule -->
<g id="edge3" class="edge">
<title>SharedModule&#45;&gt;ContactViewModule</title>
<path fill="none" stroke="black" d="M73,-84.91C73,-104.14 73,-131.8 73,-131.8 73,-131.8 151.94,-131.8 151.94,-131.8"/>
<polygon fill="black" stroke="black" points="151.94,-135.3 161.94,-131.8 151.94,-128.3 151.94,-135.3"/>
</g>
</g>
</svg>
