<?xml version="1.0" encoding="UTF-8" standalone="no"?>
<!DOCTYPE svg PUBLIC "-//W3C//DTD SVG 1.1//EN"
 "http://www.w3.org/Graphics/SVG/1.1/DTD/svg11.dtd">
<!-- Generated by graphviz version 2.47.0 (20210316.0004)
 -->
<!-- Title: dependencies Pages: 1 -->
<svg width="530pt" height="211pt"
 viewBox="0.00 0.00 530.00 211.00" xmlns="http://www.w3.org/2000/svg" xmlns:xlink="http://www.w3.org/1999/xlink">
<g id="graph0" class="graph" transform="scale(1 1) rotate(0) translate(4 207)">
<title>dependencies</title>
<polygon fill="white" stroke="transparent" points="-4,4 -4,-207 526,-207 526,4 -4,4"/>
<text text-anchor="start" x="240.01" y="-42.4" font-family="Times-12" font-weight="bold" font-size="14.00">Legend</text>
<polygon fill="#ffffb3" stroke="transparent" points="27,-10 27,-30 47,-30 47,-10 27,-10"/>
<text text-anchor="start" x="50.63" y="-15.4" font-family="Times-12" font-size="14.00"> &#160;Declarations</text>
<polygon fill="#8dd3c7" stroke="transparent" points="140,-10 140,-30 160,-30 160,-10 140,-10"/>
<text text-anchor="start" x="163.73" y="-15.4" font-family="Times-12" font-size="14.00"> &#160;Module</text>
<polygon fill="#80b1d3" stroke="transparent" points="226,-10 226,-30 246,-30 246,-10 226,-10"/>
<text text-anchor="start" x="249.78" y="-15.4" font-family="Times-12" font-size="14.00"> &#160;Bootstrap</text>
<polygon fill="#fdb462" stroke="transparent" points="323,-10 323,-30 343,-30 343,-10 323,-10"/>
<text text-anchor="start" x="346.67" y="-15.4" font-family="Times-12" font-size="14.00"> &#160;Providers</text>
<polygon fill="#fb8072" stroke="transparent" points="419,-10 419,-30 439,-30 439,-10 419,-10"/>
<text text-anchor="start" x="442.73" y="-15.4" font-family="Times-12" font-size="14.00"> &#160;Exports</text>
<g id="clust1" class="cluster">
<title>cluster_ContactViewModule</title>
<polygon fill="none" stroke="black" stroke-dasharray="1,5" points="8,-70 8,-195 514,-195 514,-70 8,-70"/>
</g>
<g id="clust4" class="cluster">
<title>cluster_ContactViewModule_imports</title>
<polygon fill="none" stroke="black" points="196,-78 196,-130 506,-130 506,-78 196,-78"/>
</g>
<g id="clust2" class="cluster">
<title>cluster_ContactViewModule_declarations</title>
<polygon fill="none" stroke="black" points="16,-78 16,-130 188,-130 188,-78 16,-78"/>
</g>
<!-- ContactViewComponent -->
<g id="node1" class="node">
<title>ContactViewComponent</title>
<polygon fill="#ffffb3" stroke="black" points="179.7,-122 24.3,-122 24.3,-86 179.7,-86 179.7,-122"/>
<text text-anchor="middle" x="102" y="-99.8" font-family="Times,serif" font-size="14.00">ContactViewComponent</text>
</g>
<!-- ContactViewModule -->
<g id="node2" class="node">
<title>ContactViewModule</title>
<polygon fill="#8dd3c7" stroke="black" points="319.92,-187 316.92,-191 295.92,-191 292.92,-187 186.08,-187 186.08,-151 319.92,-151 319.92,-187"/>
<text text-anchor="middle" x="253" y="-164.8" font-family="Times,serif" font-size="14.00">ContactViewModule</text>
</g>
<!-- ContactViewComponent&#45;&gt;ContactViewModule -->
<g id="edge1" class="edge">
<title>ContactViewComponent&#45;&gt;ContactViewModule</title>
<path fill="none" stroke="black" d="M179.68,-104C188.86,-104 195.04,-104 195.04,-104 195.04,-104 195.04,-140.89 195.04,-140.89"/>
<polygon fill="black" stroke="black" points="191.54,-140.89 195.04,-150.89 198.54,-140.89 191.54,-140.89"/>
</g>
<!-- ContactViewRoutingModule -->
<g id="node3" class="node">
<title>ContactViewRoutingModule</title>
<polygon fill="#8dd3c7" stroke="black" points="498.03,-122 495.03,-126 474.03,-126 471.03,-122 319.97,-122 319.97,-86 498.03,-86 498.03,-122"/>
<text text-anchor="middle" x="409" y="-99.8" font-family="Times,serif" font-size="14.00">ContactViewRoutingModule</text>
</g>
<!-- ContactViewRoutingModule&#45;&gt;ContactViewModule -->
<g id="edge2" class="edge">
<title>ContactViewRoutingModule&#45;&gt;ContactViewModule</title>
<path fill="none" stroke="black" d="M319.66,-104C314.26,-104 310.96,-104 310.96,-104 310.96,-104 310.96,-140.89 310.96,-140.89"/>
<polygon fill="black" stroke="black" points="307.46,-140.89 310.96,-150.89 314.46,-140.89 307.46,-140.89"/>
</g>
<!-- SharedModule -->
<g id="node4" class="node">
<title>SharedModule</title>
<polygon fill="#8dd3c7" stroke="black" points="302.42,-122 299.42,-126 278.42,-126 275.42,-122 203.58,-122 203.58,-86 302.42,-86 302.42,-122"/>
<text text-anchor="middle" x="253" y="-99.8" font-family="Times,serif" font-size="14.00">SharedModule</text>
</g>
<!-- SharedModule&#45;&gt;ContactViewModule -->
<g id="edge3" class="edge">
<title>SharedModule&#45;&gt;ContactViewModule</title>
<path fill="none" stroke="black" d="M253,-122.11C253,-122.11 253,-140.99 253,-140.99"/>
<polygon fill="black" stroke="black" points="249.5,-140.99 253,-150.99 256.5,-140.99 249.5,-140.99"/>
</g>
</g>
</svg>
