<?xml version="1.0" encoding="UTF-8" standalone="no"?>
<!DOCTYPE svg PUBLIC "-//W3C//DTD SVG 1.1//EN"
 "http://www.w3.org/Graphics/SVG/1.1/DTD/svg11.dtd">
<!-- Generated by graphviz version 2.47.3 (20210619.1520)
 -->
<!-- Title: dependencies Pages: 1 -->
<svg width="530pt" height="174pt"
 viewBox="0.00 0.00 530.00 173.80" xmlns="http://www.w3.org/2000/svg" xmlns:xlink="http://www.w3.org/1999/xlink">
<g id="graph0" class="graph" transform="scale(1 1) rotate(0) translate(4 169.8)">
<title>dependencies</title>
<polygon fill="white" stroke="transparent" points="-4,4 -4,-169.8 526,-169.8 526,4 -4,4"/>
<text text-anchor="middle" x="261" y="-8.2" font-family="sans-serif" font-size="14.00">dependencies</text>
<g id="clust1" class="cluster">
<title>cluster_ContactViewModule</title>
<polygon fill="none" stroke="black" stroke-dasharray="1,5" points="8,-32.8 8,-157.8 514,-157.8 514,-32.8 8,-32.8"/>
</g>
<g id="clust4" class="cluster">
<title>cluster_ContactViewModule_imports</title>
<polygon fill="none" stroke="black" points="196,-40.8 196,-92.8 506,-92.8 506,-40.8 196,-40.8"/>
</g>
<g id="clust2" class="cluster">
<title>cluster_ContactViewModule_declarations</title>
<polygon fill="none" stroke="black" points="16,-40.8 16,-92.8 188,-92.8 188,-40.8 16,-40.8"/>
</g>
<!-- ContactViewComponent -->
<g id="node1" class="node">
<title>ContactViewComponent</title>
<polygon fill="#ffffb3" stroke="black" points="179.7,-84.8 24.3,-84.8 24.3,-48.8 179.7,-48.8 179.7,-84.8"/>
<text text-anchor="middle" x="102" y="-62.6" font-family="Times,serif" font-size="14.00">ContactViewComponent</text>
</g>
<!-- ContactViewModule -->
<g id="node2" class="node">
<title>ContactViewModule</title>
<polygon fill="#8dd3c7" stroke="black" points="319.92,-149.8 316.92,-153.8 295.92,-153.8 292.92,-149.8 186.08,-149.8 186.08,-113.8 319.92,-113.8 319.92,-149.8"/>
<text text-anchor="middle" x="253" y="-127.6" font-family="Times,serif" font-size="14.00">ContactViewModule</text>
</g>
<!-- ContactViewComponent&#45;&gt;ContactViewModule -->
<g id="edge1" class="edge">
<title>ContactViewComponent&#45;&gt;ContactViewModule</title>
<path fill="none" stroke="black" d="M179.68,-66.8C188.86,-66.8 195.04,-66.8 195.04,-66.8 195.04,-66.8 195.04,-103.69 195.04,-103.69"/>
<polygon fill="black" stroke="black" points="191.54,-103.69 195.04,-113.69 198.54,-103.69 191.54,-103.69"/>
</g>
<!-- ContactViewRoutingModule -->
<g id="node3" class="node">
<title>ContactViewRoutingModule</title>
<polygon fill="#8dd3c7" stroke="black" points="498.03,-84.8 495.03,-88.8 474.03,-88.8 471.03,-84.8 319.97,-84.8 319.97,-48.8 498.03,-48.8 498.03,-84.8"/>
<text text-anchor="middle" x="409" y="-62.6" font-family="Times,serif" font-size="14.00">ContactViewRoutingModule</text>
</g>
<!-- ContactViewRoutingModule&#45;&gt;ContactViewModule -->
<g id="edge2" class="edge">
<title>ContactViewRoutingModule&#45;&gt;ContactViewModule</title>
<path fill="none" stroke="black" d="M319.66,-66.8C314.26,-66.8 310.96,-66.8 310.96,-66.8 310.96,-66.8 310.96,-103.69 310.96,-103.69"/>
<polygon fill="black" stroke="black" points="307.46,-103.69 310.96,-113.69 314.46,-103.69 307.46,-103.69"/>
</g>
<!-- SharedModule -->
<g id="node4" class="node">
<title>SharedModule</title>
<polygon fill="#8dd3c7" stroke="black" points="302.42,-84.8 299.42,-88.8 278.42,-88.8 275.42,-84.8 203.58,-84.8 203.58,-48.8 302.42,-48.8 302.42,-84.8"/>
<text text-anchor="middle" x="253" y="-62.6" font-family="Times,serif" font-size="14.00">SharedModule</text>
</g>
<!-- SharedModule&#45;&gt;ContactViewModule -->
<g id="edge3" class="edge">
<title>SharedModule&#45;&gt;ContactViewModule</title>
<path fill="none" stroke="black" d="M253,-84.91C253,-84.91 253,-103.79 253,-103.79"/>
<polygon fill="black" stroke="black" points="249.5,-103.79 253,-113.79 256.5,-103.79 249.5,-103.79"/>
</g>
</g>
</svg>
