<?xml version="1.0" encoding="UTF-8" standalone="no"?>
<!DOCTYPE svg PUBLIC "-//W3C//DTD SVG 1.1//EN"
 "http://www.w3.org/Graphics/SVG/1.1/DTD/svg11.dtd">
<!-- Generated by graphviz version 2.40.1 (20161225.0304)
 -->
<!-- Title: dependencies Pages: 1 -->
<svg width="530pt" height="211pt"
 viewBox="0.00 0.00 530.00 211.00" xmlns="http://www.w3.org/2000/svg" xmlns:xlink="http://www.w3.org/1999/xlink">
<g id="graph0" class="graph" transform="scale(1 1) rotate(0) translate(4 207)">
<title>dependencies</title>
<polygon fill="#ffffff" stroke="transparent" points="-4,4 -4,-207 526,-207 526,4 -4,4"/>
<text text-anchor="start" x="240.0091" y="-42.4" font-family="sans-serif" font-weight="bold" font-size="14.00" fill="#000000">Legend</text>
<polygon fill="#ffffb3" stroke="transparent" points="27,-10 27,-30 47,-30 47,-10 27,-10"/>
<text text-anchor="start" x="50.629" y="-15.4" font-family="sans-serif" font-size="14.00" fill="#000000"> &#160;Declarations</text>
<polygon fill="#8dd3c7" stroke="transparent" points="140,-10 140,-30 160,-30 160,-10 140,-10"/>
<text text-anchor="start" x="163.7251" y="-15.4" font-family="sans-serif" font-size="14.00" fill="#000000"> &#160;Module</text>
<polygon fill="#80b1d3" stroke="transparent" points="226,-10 226,-30 246,-30 246,-10 226,-10"/>
<text text-anchor="start" x="249.7812" y="-15.4" font-family="sans-serif" font-size="14.00" fill="#000000"> &#160;Bootstrap</text>
<polygon fill="#fdb462" stroke="transparent" points="323,-10 323,-30 343,-30 343,-10 323,-10"/>
<text text-anchor="start" x="346.6732" y="-15.4" font-family="sans-serif" font-size="14.00" fill="#000000"> &#160;Providers</text>
<polygon fill="#fb8072" stroke="transparent" points="419,-10 419,-30 439,-30 439,-10 419,-10"/>
<text text-anchor="start" x="442.7258" y="-15.4" font-family="sans-serif" font-size="14.00" fill="#000000"> &#160;Exports</text>
<g id="clust1" class="cluster">
<title>cluster_ContactViewModule</title>
<polygon fill="none" stroke="#000000" stroke-dasharray="1,5" points="8,-70 8,-195 514,-195 514,-70 8,-70"/>
</g>
<g id="clust2" class="cluster">
<title>cluster_ContactViewModule_declarations</title>
<polygon fill="none" stroke="#000000" points="334,-78 334,-130 506,-130 506,-78 334,-78"/>
</g>
<g id="clust4" class="cluster">
<title>cluster_ContactViewModule_imports</title>
<polygon fill="none" stroke="#000000" points="16,-78 16,-130 326,-130 326,-78 16,-78"/>
</g>
<!-- ContactViewComponent -->
<g id="node1" class="node">
<title>ContactViewComponent</title>
<polygon fill="#ffffb3" stroke="#000000" points="497.6979,-122 342.3021,-122 342.3021,-86 497.6979,-86 497.6979,-122"/>
<text text-anchor="middle" x="420" y="-99.8" font-family="Times,serif" font-size="14.00" fill="#000000">ContactViewComponent</text>
</g>
<!-- ContactViewModule -->
<g id="node2" class="node">
<title>ContactViewModule</title>
<polygon fill="#8dd3c7" stroke="#000000" points="295.9158,-187 292.9158,-191 271.9158,-191 268.9158,-187 162.0842,-187 162.0842,-151 295.9158,-151 295.9158,-187"/>
<text text-anchor="middle" x="229" y="-164.8" font-family="Times,serif" font-size="14.00" fill="#000000">ContactViewModule</text>
</g>
<!-- ContactViewComponent&#45;&gt;ContactViewModule -->
<g id="edge1" class="edge">
<title>ContactViewComponent&#45;&gt;ContactViewModule</title>
<path fill="none" stroke="#000000" d="M420,-122.1061C420,-141.3391 420,-169 420,-169 420,-169 305.8025,-169 305.8025,-169"/>
<polygon fill="#000000" stroke="#000000" points="305.8026,-165.5001 295.8025,-169 305.8025,-172.5001 305.8026,-165.5001"/>
</g>
<!-- ContactViewRoutingModule -->
<g id="node3" class="node">
<title>ContactViewRoutingModule</title>
<polygon fill="#8dd3c7" stroke="#000000" points="318.0336,-122 315.0336,-126 294.0336,-126 291.0336,-122 139.9664,-122 139.9664,-86 318.0336,-86 318.0336,-122"/>
<text text-anchor="middle" x="229" y="-99.8" font-family="Times,serif" font-size="14.00" fill="#000000">ContactViewRoutingModule</text>
</g>
<!-- ContactViewRoutingModule&#45;&gt;ContactViewModule -->
<g id="edge2" class="edge">
<title>ContactViewRoutingModule&#45;&gt;ContactViewModule</title>
<path fill="none" stroke="#000000" d="M229,-122.1061C229,-122.1061 229,-140.991 229,-140.991"/>
<polygon fill="#000000" stroke="#000000" points="225.5001,-140.9909 229,-150.991 232.5001,-140.991 225.5001,-140.9909"/>
</g>
<!-- SharedModule -->
<g id="node4" class="node">
<title>SharedModule</title>
<polygon fill="#8dd3c7" stroke="#000000" points="122.4231,-122 119.4231,-126 98.4231,-126 95.4231,-122 23.5769,-122 23.5769,-86 122.4231,-86 122.4231,-122"/>
<text text-anchor="middle" x="73" y="-99.8" font-family="Times,serif" font-size="14.00" fill="#000000">SharedModule</text>
</g>
<!-- SharedModule&#45;&gt;ContactViewModule -->
<g id="edge3" class="edge">
<title>SharedModule&#45;&gt;ContactViewModule</title>
<path fill="none" stroke="#000000" d="M73,-122.1061C73,-141.3391 73,-169 73,-169 73,-169 151.9366,-169 151.9366,-169"/>
<polygon fill="#000000" stroke="#000000" points="151.9366,-172.5001 161.9366,-169 151.9366,-165.5001 151.9366,-172.5001"/>
</g>
</g>
</svg>
