<?xml version="1.0" encoding="UTF-8" standalone="no"?>
<!DOCTYPE svg PUBLIC "-//W3C//DTD SVG 1.1//EN"
 "http://www.w3.org/Graphics/SVG/1.1/DTD/svg11.dtd">
<!-- Generated by graphviz version 5.0.0 (20220707.1540)
 -->
<!-- Title: dependencies Pages: 1 -->
<svg width="1053pt" height="247pt"
 viewBox="0.00 0.00 1053.00 246.80" xmlns="http://www.w3.org/2000/svg" xmlns:xlink="http://www.w3.org/1999/xlink">
<g id="graph0" class="graph" transform="scale(1 1) rotate(0) translate(4 242.8)">
<title>dependencies</title>
<polygon fill="white" stroke="transparent" points="-4,4 -4,-242.8 1049,-242.8 1049,4 -4,4"/>
<text text-anchor="middle" x="522.5" y="-8.2" font-family="sans-serif" font-size="14.00">dependencies</text>
<g id="clust1" class="cluster">
<title>cluster_FooterModule</title>
<polygon fill="none" stroke="black" stroke-dasharray="1,5" points="8,-32.8 8,-230.8 1037,-230.8 1037,-32.8 8,-32.8"/>
</g>
<g id="clust9" class="cluster">
<title>cluster_FooterModule_exports</title>
<polygon fill="none" stroke="black" points="440,-170.8 440,-222.8 578,-222.8 578,-170.8 440,-170.8"/>
</g>
<g id="clust2" class="cluster">
<title>cluster_FooterModule_declarations</title>
<polygon fill="none" stroke="black" points="138,-40.8 138,-92.8 1029,-92.8 1029,-40.8 138,-40.8"/>
</g>
<g id="clust8" class="cluster">
<title>cluster_FooterModule_imports</title>
<polygon fill="none" stroke="black" points="16,-40.8 16,-92.8 130,-92.8 130,-40.8 16,-40.8"/>
</g>
<!-- FooterComponent -->
<g id="node1" class="node">
<title>FooterComponent</title>
<polygon fill="#ffffb3" stroke="black" points="1020.88,-84.8 903.12,-84.8 903.12,-48.8 1020.88,-48.8 1020.88,-84.8"/>
<text text-anchor="middle" x="962" y="-62.6" font-family="Times,serif" font-size="14.00">FooterComponent</text>
</g>
<!-- FooterModule -->
<g id="node6" class="node">
<title>FooterModule</title>
<polygon fill="#8dd3c7" stroke="black" points="557.1,-149.8 554.1,-153.8 533.1,-153.8 530.1,-149.8 460.9,-149.8 460.9,-113.8 557.1,-113.8 557.1,-149.8"/>
<text text-anchor="middle" x="509" y="-127.6" font-family="Times,serif" font-size="14.00">FooterModule</text>
</g>
<!-- FooterComponent&#45;&gt;FooterModule -->
<g id="edge1" class="edge">
<title>FooterComponent&#45;&gt;FooterModule</title>
<path fill="none" stroke="black" d="M962,-85.08C962,-106.12 962,-137.8 962,-137.8 962,-137.8 567.48,-137.8 567.48,-137.8"/>
<polygon fill="black" stroke="black" points="567.48,-134.3 557.48,-137.8 567.48,-141.3 567.48,-134.3"/>
</g>
<!-- FooterCopyrightComponent -->
<g id="node2" class="node">
<title>FooterCopyrightComponent</title>
<polygon fill="#ffffb3" stroke="black" points="885.16,-84.8 710.84,-84.8 710.84,-48.8 885.16,-48.8 885.16,-84.8"/>
<text text-anchor="middle" x="798" y="-62.6" font-family="Times,serif" font-size="14.00">FooterCopyrightComponent</text>
</g>
<!-- FooterCopyrightComponent&#45;&gt;FooterModule -->
<g id="edge2" class="edge">
<title>FooterCopyrightComponent&#45;&gt;FooterModule</title>
<path fill="none" stroke="black" d="M798,-84.82C798,-102.17 798,-125.8 798,-125.8 798,-125.8 567.37,-125.8 567.37,-125.8"/>
<polygon fill="black" stroke="black" points="567.37,-122.3 557.37,-125.8 567.37,-129.3 567.37,-122.3"/>
</g>
<!-- FooterDeclarationComponent -->
<g id="node3" class="node">
<title>FooterDeclarationComponent</title>
<polygon fill="#ffffb3" stroke="black" points="692.68,-84.8 509.32,-84.8 509.32,-48.8 692.68,-48.8 692.68,-84.8"/>
<text text-anchor="middle" x="601" y="-62.6" font-family="Times,serif" font-size="14.00">FooterDeclarationComponent</text>
</g>
<!-- FooterDeclarationComponent&#45;&gt;FooterModule -->
<g id="edge3" class="edge">
<title>FooterDeclarationComponent&#45;&gt;FooterModule</title>
<path fill="none" stroke="black" d="M533.23,-84.91C533.23,-84.91 533.23,-103.79 533.23,-103.79"/>
<polygon fill="black" stroke="black" points="529.73,-103.79 533.23,-113.79 536.73,-103.79 529.73,-103.79"/>
</g>
<!-- FooterLogoComponent -->
<g id="node4" class="node">
<title>FooterLogoComponent</title>
<polygon fill="#ffffb3" stroke="black" points="491.94,-84.8 344.06,-84.8 344.06,-48.8 491.94,-48.8 491.94,-84.8"/>
<text text-anchor="middle" x="418" y="-62.6" font-family="Times,serif" font-size="14.00">FooterLogoComponent</text>
</g>
<!-- FooterLogoComponent&#45;&gt;FooterModule -->
<g id="edge4" class="edge">
<title>FooterLogoComponent&#45;&gt;FooterModule</title>
<path fill="none" stroke="black" d="M476.33,-84.91C476.33,-84.91 476.33,-103.79 476.33,-103.79"/>
<polygon fill="black" stroke="black" points="472.83,-103.79 476.33,-113.79 479.83,-103.79 472.83,-103.79"/>
</g>
<!-- FooterPoweredbyComponent -->
<g id="node5" class="node">
<title>FooterPoweredbyComponent</title>
<polygon fill="#ffffb3" stroke="black" points="326.37,-84.8 145.63,-84.8 145.63,-48.8 326.37,-48.8 326.37,-84.8"/>
<text text-anchor="middle" x="236" y="-62.6" font-family="Times,serif" font-size="14.00">FooterPoweredbyComponent</text>
</g>
<!-- FooterPoweredbyComponent&#45;&gt;FooterModule -->
<g id="edge5" class="edge">
<title>FooterPoweredbyComponent&#45;&gt;FooterModule</title>
<path fill="none" stroke="black" d="M236,-84.82C236,-102.17 236,-125.8 236,-125.8 236,-125.8 450.82,-125.8 450.82,-125.8"/>
<polygon fill="black" stroke="black" points="450.82,-129.3 460.82,-125.8 450.82,-122.3 450.82,-129.3"/>
</g>
<!-- FooterComponent  -->
<g id="node8" class="node">
<title>FooterComponent </title>
<polygon fill="#fb8072" stroke="black" points="569.88,-214.8 448.12,-214.8 448.12,-178.8 569.88,-178.8 569.88,-214.8"/>
<text text-anchor="middle" x="509" y="-192.6" font-family="Times,serif" font-size="14.00">FooterComponent </text>
</g>
<!-- FooterModule&#45;&gt;FooterComponent  -->
<g id="edge7" class="edge">
<title>FooterModule&#45;&gt;FooterComponent </title>
<path fill="none" stroke="black" stroke-dasharray="5,2" d="M509,-149.91C509,-149.91 509,-168.79 509,-168.79"/>
<polygon fill="black" stroke="black" points="505.5,-168.79 509,-178.79 512.5,-168.79 505.5,-168.79"/>
</g>
<!-- SharedModule -->
<g id="node7" class="node">
<title>SharedModule</title>
<polygon fill="#8dd3c7" stroke="black" points="122.43,-84.8 119.43,-88.8 98.43,-88.8 95.43,-84.8 23.57,-84.8 23.57,-48.8 122.43,-48.8 122.43,-84.8"/>
<text text-anchor="middle" x="73" y="-62.6" font-family="Times,serif" font-size="14.00">SharedModule</text>
</g>
<!-- SharedModule&#45;&gt;FooterModule -->
<g id="edge6" class="edge">
<title>SharedModule&#45;&gt;FooterModule</title>
<path fill="none" stroke="black" d="M73,-85.08C73,-106.12 73,-137.8 73,-137.8 73,-137.8 450.67,-137.8 450.67,-137.8"/>
<polygon fill="black" stroke="black" points="450.67,-141.3 460.67,-137.8 450.67,-134.3 450.67,-141.3"/>
</g>
</g>
</svg>
