<?xml version="1.0" encoding="UTF-8" standalone="no"?>
<!DOCTYPE svg PUBLIC "-//W3C//DTD SVG 1.1//EN"
 "http://www.w3.org/Graphics/SVG/1.1/DTD/svg11.dtd">
<!-- Generated by graphviz version 2.40.1 (20161225.0304)
 -->
<!-- Title: dependencies Pages: 1 -->
<svg width="1053pt" height="284pt"
 viewBox="0.00 0.00 1053.00 284.00" xmlns="http://www.w3.org/2000/svg" xmlns:xlink="http://www.w3.org/1999/xlink">
<g id="graph0" class="graph" transform="scale(1 1) rotate(0) translate(4 280)">
<title>dependencies</title>
<polygon fill="#ffffff" stroke="transparent" points="-4,4 -4,-280 1049,-280 1049,4 -4,4"/>
<text text-anchor="start" x="501.5091" y="-42.4" font-family="sans-serif" font-weight="bold" font-size="14.00" fill="#000000">Legend</text>
<polygon fill="#ffffb3" stroke="transparent" points="288.5,-10 288.5,-30 308.5,-30 308.5,-10 288.5,-10"/>
<text text-anchor="start" x="312.129" y="-15.4" font-family="sans-serif" font-size="14.00" fill="#000000"> &#160;Declarations</text>
<polygon fill="#8dd3c7" stroke="transparent" points="401.5,-10 401.5,-30 421.5,-30 421.5,-10 401.5,-10"/>
<text text-anchor="start" x="425.2251" y="-15.4" font-family="sans-serif" font-size="14.00" fill="#000000"> &#160;Module</text>
<polygon fill="#80b1d3" stroke="transparent" points="487.5,-10 487.5,-30 507.5,-30 507.5,-10 487.5,-10"/>
<text text-anchor="start" x="511.2812" y="-15.4" font-family="sans-serif" font-size="14.00" fill="#000000"> &#160;Bootstrap</text>
<polygon fill="#fdb462" stroke="transparent" points="584.5,-10 584.5,-30 604.5,-30 604.5,-10 584.5,-10"/>
<text text-anchor="start" x="608.1732" y="-15.4" font-family="sans-serif" font-size="14.00" fill="#000000"> &#160;Providers</text>
<polygon fill="#fb8072" stroke="transparent" points="680.5,-10 680.5,-30 700.5,-30 700.5,-10 680.5,-10"/>
<text text-anchor="start" x="704.2258" y="-15.4" font-family="sans-serif" font-size="14.00" fill="#000000"> &#160;Exports</text>
<g id="clust1" class="cluster">
<title>cluster_FooterModule</title>
<polygon fill="none" stroke="#000000" stroke-dasharray="1,5" points="8,-70 8,-268 1037,-268 1037,-70 8,-70"/>
</g>
<g id="clust2" class="cluster">
<title>cluster_FooterModule_declarations</title>
<polygon fill="none" stroke="#000000" points="138,-78 138,-130 1029,-130 1029,-78 138,-78"/>
</g>
<g id="clust8" class="cluster">
<title>cluster_FooterModule_imports</title>
<polygon fill="none" stroke="#000000" points="16,-78 16,-130 130,-130 130,-78 16,-78"/>
</g>
<g id="clust9" class="cluster">
<title>cluster_FooterModule_exports</title>
<polygon fill="none" stroke="#000000" points="440,-208 440,-260 578,-260 578,-208 440,-208"/>
</g>
<!-- FooterComponent -->
<g id="node1" class="node">
<title>FooterComponent</title>
<polygon fill="#ffffb3" stroke="#000000" points="1020.8809,-122 903.1191,-122 903.1191,-86 1020.8809,-86 1020.8809,-122"/>
<text text-anchor="middle" x="962" y="-99.8" font-family="Times,serif" font-size="14.00" fill="#000000">FooterComponent</text>
</g>
<!-- FooterModule -->
<g id="node6" class="node">
<title>FooterModule</title>
<polygon fill="#8dd3c7" stroke="#000000" points="557.0983,-187 554.0983,-191 533.0983,-191 530.0983,-187 460.9017,-187 460.9017,-151 557.0983,-151 557.0983,-187"/>
<text text-anchor="middle" x="509" y="-164.8" font-family="Times,serif" font-size="14.00" fill="#000000">FooterModule</text>
</g>
<!-- FooterComponent&#45;&gt;FooterModule -->
<g id="edge1" class="edge">
<title>FooterComponent&#45;&gt;FooterModule</title>
<path fill="none" stroke="#000000" d="M962,-122.2843C962,-143.3211 962,-175 962,-175 962,-175 567.0501,-175 567.0501,-175"/>
<polygon fill="#000000" stroke="#000000" points="567.0501,-171.5001 557.0501,-175 567.05,-178.5001 567.0501,-171.5001"/>
</g>
<!-- FooterCopyrightComponent -->
<g id="node2" class="node">
<title>FooterCopyrightComponent</title>
<polygon fill="#ffffb3" stroke="#000000" points="885.1595,-122 710.8405,-122 710.8405,-86 885.1595,-86 885.1595,-122"/>
<text text-anchor="middle" x="798" y="-99.8" font-family="Times,serif" font-size="14.00" fill="#000000">FooterCopyrightComponent</text>
</g>
<!-- FooterCopyrightComponent&#45;&gt;FooterModule -->
<g id="edge2" class="edge">
<title>FooterCopyrightComponent&#45;&gt;FooterModule</title>
<path fill="none" stroke="#000000" d="M798,-122.0225C798,-139.3734 798,-163 798,-163 798,-163 567.3721,-163 567.3721,-163"/>
<polygon fill="#000000" stroke="#000000" points="567.3721,-159.5001 557.3721,-163 567.3721,-166.5001 567.3721,-159.5001"/>
</g>
<!-- FooterDeclarationComponent -->
<g id="node3" class="node">
<title>FooterDeclarationComponent</title>
<polygon fill="#ffffb3" stroke="#000000" points="692.6783,-122 509.3217,-122 509.3217,-86 692.6783,-86 692.6783,-122"/>
<text text-anchor="middle" x="601" y="-99.8" font-family="Times,serif" font-size="14.00" fill="#000000">FooterDeclarationComponent</text>
</g>
<!-- FooterDeclarationComponent&#45;&gt;FooterModule -->
<g id="edge3" class="edge">
<title>FooterDeclarationComponent&#45;&gt;FooterModule</title>
<path fill="none" stroke="#000000" d="M533.23,-122.1061C533.23,-122.1061 533.23,-140.991 533.23,-140.991"/>
<polygon fill="#000000" stroke="#000000" points="529.7301,-140.9909 533.23,-150.991 536.7301,-140.991 529.7301,-140.9909"/>
</g>
<!-- FooterLogoComponent -->
<g id="node4" class="node">
<title>FooterLogoComponent</title>
<polygon fill="#ffffb3" stroke="#000000" points="491.934,-122 344.066,-122 344.066,-86 491.934,-86 491.934,-122"/>
<text text-anchor="middle" x="418" y="-99.8" font-family="Times,serif" font-size="14.00" fill="#000000">FooterLogoComponent</text>
</g>
<!-- FooterLogoComponent&#45;&gt;FooterModule -->
<g id="edge4" class="edge">
<title>FooterLogoComponent&#45;&gt;FooterModule</title>
<path fill="none" stroke="#000000" d="M476.3338,-122.1061C476.3338,-122.1061 476.3338,-140.991 476.3338,-140.991"/>
<polygon fill="#000000" stroke="#000000" points="472.8339,-140.9909 476.3338,-150.991 479.8339,-140.991 472.8339,-140.9909"/>
</g>
<!-- FooterPoweredbyComponent -->
<g id="node5" class="node">
<title>FooterPoweredbyComponent</title>
<polygon fill="#ffffb3" stroke="#000000" points="326.3599,-122 145.6401,-122 145.6401,-86 326.3599,-86 326.3599,-122"/>
<text text-anchor="middle" x="236" y="-99.8" font-family="Times,serif" font-size="14.00" fill="#000000">FooterPoweredbyComponent</text>
</g>
<!-- FooterPoweredbyComponent&#45;&gt;FooterModule -->
<g id="edge5" class="edge">
<title>FooterPoweredbyComponent&#45;&gt;FooterModule</title>
<path fill="none" stroke="#000000" d="M236,-122.0225C236,-139.3734 236,-163 236,-163 236,-163 450.8215,-163 450.8215,-163"/>
<polygon fill="#000000" stroke="#000000" points="450.8215,-166.5001 460.8215,-163 450.8215,-159.5001 450.8215,-166.5001"/>
</g>
<!-- FooterComponent  -->
<g id="node8" class="node">
<title>FooterComponent </title>
<polygon fill="#fb8072" stroke="#000000" points="569.8814,-252 448.1186,-252 448.1186,-216 569.8814,-216 569.8814,-252"/>
<text text-anchor="middle" x="509" y="-229.8" font-family="Times,serif" font-size="14.00" fill="#000000">FooterComponent </text>
</g>
<!-- FooterModule&#45;&gt;FooterComponent  -->
<g id="edge7" class="edge">
<title>FooterModule&#45;&gt;FooterComponent </title>
<path fill="none" stroke="#000000" stroke-dasharray="5,2" d="M509,-187.1061C509,-187.1061 509,-205.991 509,-205.991"/>
<polygon fill="#000000" stroke="#000000" points="505.5001,-205.9909 509,-215.991 512.5001,-205.991 505.5001,-205.9909"/>
</g>
<!-- SharedModule -->
<g id="node7" class="node">
<title>SharedModule</title>
<polygon fill="#8dd3c7" stroke="#000000" points="122.4231,-122 119.4231,-126 98.4231,-126 95.4231,-122 23.5769,-122 23.5769,-86 122.4231,-86 122.4231,-122"/>
<text text-anchor="middle" x="73" y="-99.8" font-family="Times,serif" font-size="14.00" fill="#000000">SharedModule</text>
</g>
<!-- SharedModule&#45;&gt;FooterModule -->
<g id="edge6" class="edge">
<title>SharedModule&#45;&gt;FooterModule</title>
<path fill="none" stroke="#000000" d="M73,-122.2843C73,-143.3211 73,-175 73,-175 73,-175 450.6745,-175 450.6745,-175"/>
<polygon fill="#000000" stroke="#000000" points="450.6745,-178.5001 460.6745,-175 450.6745,-171.5001 450.6745,-178.5001"/>
</g>
</g>
</svg>
