<?xml version="1.0" encoding="UTF-8" standalone="no"?>
<!DOCTYPE svg PUBLIC "-//W3C//DTD SVG 1.1//EN"
 "http://www.w3.org/Graphics/SVG/1.1/DTD/svg11.dtd">
<!-- Generated by graphviz version 2.47.3 (20210619.1520)
 -->
<!-- Title: dependencies Pages: 1 -->
<svg width="1053pt" height="247pt"
 viewBox="0.00 0.00 1053.00 246.80" xmlns="http://www.w3.org/2000/svg" xmlns:xlink="http://www.w3.org/1999/xlink">
<g id="graph0" class="graph" transform="scale(1 1) rotate(0) translate(4 242.8)">
<title>dependencies</title>
<polygon fill="white" stroke="transparent" points="-4,4 -4,-242.8 1049,-242.8 1049,4 -4,4"/>
<text text-anchor="middle" x="522.5" y="-8.2" font-family="sans-serif" font-size="14.00">dependencies</text>
<g id="clust1" class="cluster">
<title>cluster_FooterModule</title>
<polygon fill="none" stroke="black" stroke-dasharray="1,5" points="8,-32.8 8,-230.8 1037,-230.8 1037,-32.8 8,-32.8"/>
</g>
<g id="clust8" class="cluster">
<title>cluster_FooterModule_imports</title>
<polygon fill="none" stroke="black" points="915,-40.8 915,-92.8 1029,-92.8 1029,-40.8 915,-40.8"/>
</g>
<g id="clust2" class="cluster">
<title>cluster_FooterModule_declarations</title>
<polygon fill="none" stroke="black" points="16,-40.8 16,-92.8 907,-92.8 907,-40.8 16,-40.8"/>
</g>
<g id="clust9" class="cluster">
<title>cluster_FooterModule_exports</title>
<polygon fill="none" stroke="black" points="508,-170.8 508,-222.8 646,-222.8 646,-170.8 508,-170.8"/>
</g>
<!-- FooterComponent -->
<g id="node1" class="node">
<title>FooterComponent</title>
<polygon fill="#ffffb3" stroke="black" points="898.88,-84.8 781.12,-84.8 781.12,-48.8 898.88,-48.8 898.88,-84.8"/>
<text text-anchor="middle" x="840" y="-62.6" font-family="Times,serif" font-size="14.00">FooterComponent</text>
</g>
<!-- FooterModule -->
<g id="node6" class="node">
<title>FooterModule</title>
<polygon fill="#8dd3c7" stroke="black" points="625.1,-149.8 622.1,-153.8 601.1,-153.8 598.1,-149.8 528.9,-149.8 528.9,-113.8 625.1,-113.8 625.1,-149.8"/>
<text text-anchor="middle" x="577" y="-127.6" font-family="Times,serif" font-size="14.00">FooterModule</text>
</g>
<!-- FooterComponent&#45;&gt;FooterModule -->
<g id="edge1" class="edge">
<title>FooterComponent&#45;&gt;FooterModule</title>
<path fill="none" stroke="black" d="M840,-84.82C840,-102.17 840,-125.8 840,-125.8 840,-125.8 635.24,-125.8 635.24,-125.8"/>
<polygon fill="black" stroke="black" points="635.24,-122.3 625.24,-125.8 635.24,-129.3 635.24,-122.3"/>
</g>
<!-- FooterCopyrightComponent -->
<g id="node2" class="node">
<title>FooterCopyrightComponent</title>
<polygon fill="#ffffb3" stroke="black" points="763.16,-84.8 588.84,-84.8 588.84,-48.8 763.16,-48.8 763.16,-84.8"/>
<text text-anchor="middle" x="676" y="-62.6" font-family="Times,serif" font-size="14.00">FooterCopyrightComponent</text>
</g>
<!-- FooterCopyrightComponent&#45;&gt;FooterModule -->
<g id="edge2" class="edge">
<title>FooterCopyrightComponent&#45;&gt;FooterModule</title>
<path fill="none" stroke="black" d="M606.86,-84.91C606.86,-84.91 606.86,-103.79 606.86,-103.79"/>
<polygon fill="black" stroke="black" points="603.36,-103.79 606.86,-113.79 610.36,-103.79 603.36,-103.79"/>
</g>
<!-- FooterDeclarationComponent -->
<g id="node3" class="node">
<title>FooterDeclarationComponent</title>
<polygon fill="#ffffb3" stroke="black" points="570.68,-84.8 387.32,-84.8 387.32,-48.8 570.68,-48.8 570.68,-84.8"/>
<text text-anchor="middle" x="479" y="-62.6" font-family="Times,serif" font-size="14.00">FooterDeclarationComponent</text>
</g>
<!-- FooterDeclarationComponent&#45;&gt;FooterModule -->
<g id="edge3" class="edge">
<title>FooterDeclarationComponent&#45;&gt;FooterModule</title>
<path fill="none" stroke="black" d="M549.77,-84.91C549.77,-84.91 549.77,-103.79 549.77,-103.79"/>
<polygon fill="black" stroke="black" points="546.27,-103.79 549.77,-113.79 553.27,-103.79 546.27,-103.79"/>
</g>
<!-- FooterLogoComponent -->
<g id="node4" class="node">
<title>FooterLogoComponent</title>
<polygon fill="#ffffb3" stroke="black" points="369.93,-84.8 222.07,-84.8 222.07,-48.8 369.93,-48.8 369.93,-84.8"/>
<text text-anchor="middle" x="296" y="-62.6" font-family="Times,serif" font-size="14.00">FooterLogoComponent</text>
</g>
<!-- FooterLogoComponent&#45;&gt;FooterModule -->
<g id="edge4" class="edge">
<title>FooterLogoComponent&#45;&gt;FooterModule</title>
<path fill="none" stroke="black" d="M296,-84.82C296,-102.17 296,-125.8 296,-125.8 296,-125.8 518.69,-125.8 518.69,-125.8"/>
<polygon fill="black" stroke="black" points="518.69,-129.3 528.69,-125.8 518.69,-122.3 518.69,-129.3"/>
</g>
<!-- FooterPoweredbyComponent -->
<g id="node5" class="node">
<title>FooterPoweredbyComponent</title>
<polygon fill="#ffffb3" stroke="black" points="204.36,-84.8 23.64,-84.8 23.64,-48.8 204.36,-48.8 204.36,-84.8"/>
<text text-anchor="middle" x="114" y="-62.6" font-family="Times,serif" font-size="14.00">FooterPoweredbyComponent</text>
</g>
<!-- FooterPoweredbyComponent&#45;&gt;FooterModule -->
<g id="edge5" class="edge">
<title>FooterPoweredbyComponent&#45;&gt;FooterModule</title>
<path fill="none" stroke="black" d="M114,-85.08C114,-106.12 114,-137.8 114,-137.8 114,-137.8 518.76,-137.8 518.76,-137.8"/>
<polygon fill="black" stroke="black" points="518.76,-141.3 528.76,-137.8 518.76,-134.3 518.76,-141.3"/>
</g>
<!-- FooterComponent  -->
<g id="node8" class="node">
<title>FooterComponent </title>
<polygon fill="#fb8072" stroke="black" points="637.88,-214.8 516.12,-214.8 516.12,-178.8 637.88,-178.8 637.88,-214.8"/>
<text text-anchor="middle" x="577" y="-192.6" font-family="Times,serif" font-size="14.00">FooterComponent </text>
</g>
<!-- FooterModule&#45;&gt;FooterComponent  -->
<g id="edge7" class="edge">
<title>FooterModule&#45;&gt;FooterComponent </title>
<path fill="none" stroke="black" stroke-dasharray="5,2" d="M577,-149.91C577,-149.91 577,-168.79 577,-168.79"/>
<polygon fill="black" stroke="black" points="573.5,-168.79 577,-178.79 580.5,-168.79 573.5,-168.79"/>
</g>
<!-- SharedModule -->
<g id="node7" class="node">
<title>SharedModule</title>
<polygon fill="#8dd3c7" stroke="black" points="1021.42,-84.8 1018.42,-88.8 997.42,-88.8 994.42,-84.8 922.58,-84.8 922.58,-48.8 1021.42,-48.8 1021.42,-84.8"/>
<text text-anchor="middle" x="972" y="-62.6" font-family="Times,serif" font-size="14.00">SharedModule</text>
</g>
<!-- SharedModule&#45;&gt;FooterModule -->
<g id="edge6" class="edge">
<title>SharedModule&#45;&gt;FooterModule</title>
<path fill="none" stroke="black" d="M972,-85.08C972,-106.12 972,-137.8 972,-137.8 972,-137.8 635.43,-137.8 635.43,-137.8"/>
<polygon fill="black" stroke="black" points="635.43,-134.3 625.43,-137.8 635.43,-141.3 635.43,-134.3"/>
</g>
</g>
</svg>
