<?xml version="1.0" encoding="UTF-8" standalone="no"?>
<!DOCTYPE svg PUBLIC "-//W3C//DTD SVG 1.1//EN"
 "http://www.w3.org/Graphics/SVG/1.1/DTD/svg11.dtd">
<!-- Generated by graphviz version 2.47.0 (20210316.0004)
 -->
<!-- Title: dependencies Pages: 1 -->
<svg width="967pt" height="284pt"
 viewBox="0.00 0.00 967.00 284.00" xmlns="http://www.w3.org/2000/svg" xmlns:xlink="http://www.w3.org/1999/xlink">
<g id="graph0" class="graph" transform="scale(1 1) rotate(0) translate(4 280)">
<title>dependencies</title>
<polygon fill="white" stroke="transparent" points="-4,4 -4,-280 963,-280 963,4 -4,4"/>
<text text-anchor="start" x="458.51" y="-42.4" font-family="Times-12" font-weight="bold" font-size="14.00">Legend</text>
<polygon fill="#ffffb3" stroke="transparent" points="245.5,-10 245.5,-30 265.5,-30 265.5,-10 245.5,-10"/>
<text text-anchor="start" x="269.13" y="-15.4" font-family="Times-12" font-size="14.00"> &#160;Declarations</text>
<polygon fill="#8dd3c7" stroke="transparent" points="358.5,-10 358.5,-30 378.5,-30 378.5,-10 358.5,-10"/>
<text text-anchor="start" x="382.23" y="-15.4" font-family="Times-12" font-size="14.00"> &#160;Module</text>
<polygon fill="#80b1d3" stroke="transparent" points="444.5,-10 444.5,-30 464.5,-30 464.5,-10 444.5,-10"/>
<text text-anchor="start" x="468.28" y="-15.4" font-family="Times-12" font-size="14.00"> &#160;Bootstrap</text>
<polygon fill="#fdb462" stroke="transparent" points="541.5,-10 541.5,-30 561.5,-30 561.5,-10 541.5,-10"/>
<text text-anchor="start" x="565.17" y="-15.4" font-family="Times-12" font-size="14.00"> &#160;Providers</text>
<polygon fill="#fb8072" stroke="transparent" points="637.5,-10 637.5,-30 657.5,-30 657.5,-10 637.5,-10"/>
<text text-anchor="start" x="661.23" y="-15.4" font-family="Times-12" font-size="14.00"> &#160;Exports</text>
<g id="clust1" class="cluster">
<title>cluster_AppModule</title>
<polygon fill="none" stroke="black" stroke-dasharray="1,5" points="8,-70 8,-268 951,-268 951,-70 8,-70"/>
</g>
<g id="clust5" class="cluster">
<title>cluster_AppModule_imports</title>
<polygon fill="none" stroke="black" points="310,-78 310,-130 943,-130 943,-78 310,-78"/>
</g>
<g id="clust2" class="cluster">
<title>cluster_AppModule_declarations</title>
<polygon fill="none" stroke="black" points="16,-78 16,-130 302,-130 302,-78 16,-78"/>
</g>
<g id="clust7" class="cluster">
<title>cluster_AppModule_bootstrap</title>
<polygon fill="none" stroke="black" points="431,-208 431,-260 555,-260 555,-208 431,-208"/>
</g>
<!-- AppComponent -->
<g id="node1" class="node">
<title>AppComponent</title>
<polygon fill="#ffffb3" stroke="black" points="293.94,-122 188.06,-122 188.06,-86 293.94,-86 293.94,-122"/>
<text text-anchor="middle" x="241" y="-99.8" font-family="Times,serif" font-size="14.00">AppComponent</text>
</g>
<!-- AppModule -->
<g id="node3" class="node">
<title>AppModule</title>
<polygon fill="#8dd3c7" stroke="black" points="534.66,-187 531.66,-191 510.66,-191 507.66,-187 451.34,-187 451.34,-151 534.66,-151 534.66,-187"/>
<text text-anchor="middle" x="493" y="-164.8" font-family="Times,serif" font-size="14.00">AppModule</text>
</g>
<!-- AppComponent&#45;&gt;AppModule -->
<g id="edge1" class="edge">
<title>AppComponent&#45;&gt;AppModule</title>
<path fill="none" stroke="black" d="M241,-122.11C241,-141.34 241,-169 241,-169 241,-169 441.1,-169 441.1,-169"/>
<polygon fill="black" stroke="black" points="441.1,-172.5 451.1,-169 441.1,-165.5 441.1,-172.5"/>
</g>
<!-- HomeViewComponent -->
<g id="node2" class="node">
<title>HomeViewComponent</title>
<polygon fill="#ffffb3" stroke="black" points="169.86,-122 24.14,-122 24.14,-86 169.86,-86 169.86,-122"/>
<text text-anchor="middle" x="97" y="-99.8" font-family="Times,serif" font-size="14.00">HomeViewComponent</text>
</g>
<!-- HomeViewComponent&#45;&gt;AppModule -->
<g id="edge2" class="edge">
<title>HomeViewComponent&#45;&gt;AppModule</title>
<path fill="none" stroke="black" d="M97,-122.29C97,-144.21 97,-178 97,-178 97,-178 441,-178 441,-178"/>
<polygon fill="black" stroke="black" points="441,-181.5 451,-178 441,-174.5 441,-181.5"/>
</g>
<!-- AppComponent  -->
<g id="node9" class="node">
<title>AppComponent </title>
<polygon fill="#80b1d3" stroke="black" points="547.44,-252 438.56,-252 438.56,-216 547.44,-216 547.44,-252"/>
<text text-anchor="middle" x="493" y="-229.8" font-family="Times,serif" font-size="14.00">AppComponent </text>
</g>
<!-- AppModule&#45;&gt;AppComponent  -->
<g id="edge8" class="edge">
<title>AppModule&#45;&gt;AppComponent </title>
<path fill="none" stroke="black" stroke-dasharray="1,5" d="M493,-187.11C493,-187.11 493,-205.99 493,-205.99"/>
<polygon fill="black" stroke="black" points="489.5,-205.99 493,-215.99 496.5,-205.99 489.5,-205.99"/>
</g>
<!-- AppRoutingModule -->
<g id="node4" class="node">
<title>AppRoutingModule</title>
<polygon fill="#8dd3c7" stroke="black" points="935.27,-122 932.27,-126 911.27,-126 908.27,-122 806.73,-122 806.73,-86 935.27,-86 935.27,-122"/>
<text text-anchor="middle" x="871" y="-99.8" font-family="Times,serif" font-size="14.00">AppRoutingModule</text>
</g>
<!-- AppRoutingModule&#45;&gt;AppModule -->
<g id="edge3" class="edge">
<title>AppRoutingModule&#45;&gt;AppModule</title>
<path fill="none" stroke="black" d="M871,-122.29C871,-144.21 871,-178 871,-178 871,-178 544.9,-178 544.9,-178"/>
<polygon fill="black" stroke="black" points="544.9,-174.5 534.9,-178 544.9,-181.5 544.9,-174.5"/>
</g>
<!-- CoreModule -->
<g id="node5" class="node">
<title>CoreModule</title>
<polygon fill="#8dd3c7" stroke="black" points="788.26,-122 785.26,-126 764.26,-126 761.26,-122 701.74,-122 701.74,-86 788.26,-86 788.26,-122"/>
<text text-anchor="middle" x="745" y="-99.8" font-family="Times,serif" font-size="14.00">CoreModule</text>
</g>
<!-- CoreModule&#45;&gt;AppModule -->
<g id="edge4" class="edge">
<title>CoreModule&#45;&gt;AppModule</title>
<path fill="none" stroke="black" d="M745,-122.11C745,-141.34 745,-169 745,-169 745,-169 544.9,-169 544.9,-169"/>
<polygon fill="black" stroke="black" points="544.9,-165.5 534.9,-169 544.9,-172.5 544.9,-165.5"/>
</g>
<!-- HomeViewModule -->
<g id="node6" class="node">
<title>HomeViewModule</title>
<polygon fill="#8dd3c7" stroke="black" points="684.08,-122 681.08,-126 660.08,-126 657.08,-122 559.92,-122 559.92,-86 684.08,-86 684.08,-122"/>
<text text-anchor="middle" x="622" y="-99.8" font-family="Times,serif" font-size="14.00">HomeViewModule</text>
</g>
<!-- HomeViewModule&#45;&gt;AppModule -->
<g id="edge5" class="edge">
<title>HomeViewModule&#45;&gt;AppModule</title>
<path fill="none" stroke="black" d="M622,-122.03C622,-138.4 622,-160 622,-160 622,-160 544.88,-160 544.88,-160"/>
<polygon fill="black" stroke="black" points="544.88,-156.5 534.88,-160 544.88,-163.5 544.88,-156.5"/>
</g>
<!-- SharedModule -->
<g id="node7" class="node">
<title>SharedModule</title>
<polygon fill="#8dd3c7" stroke="black" points="542.42,-122 539.42,-126 518.42,-126 515.42,-122 443.58,-122 443.58,-86 542.42,-86 542.42,-122"/>
<text text-anchor="middle" x="493" y="-99.8" font-family="Times,serif" font-size="14.00">SharedModule</text>
</g>
<!-- SharedModule&#45;&gt;AppModule -->
<g id="edge6" class="edge">
<title>SharedModule&#45;&gt;AppModule</title>
<path fill="none" stroke="black" d="M493,-122.11C493,-122.11 493,-140.99 493,-140.99"/>
<polygon fill="black" stroke="black" points="489.5,-140.99 493,-150.99 496.5,-140.99 489.5,-140.99"/>
</g>
<!-- SideInfoModule -->
<g id="node8" class="node">
<title>SideInfoModule</title>
<polygon fill="#8dd3c7" stroke="black" points="425.76,-122 422.76,-126 401.76,-126 398.76,-122 318.24,-122 318.24,-86 425.76,-86 425.76,-122"/>
<text text-anchor="middle" x="372" y="-99.8" font-family="Times,serif" font-size="14.00">SideInfoModule</text>
</g>
<!-- SideInfoModule&#45;&gt;AppModule -->
<g id="edge7" class="edge">
<title>SideInfoModule&#45;&gt;AppModule</title>
<path fill="none" stroke="black" d="M372,-122.03C372,-138.4 372,-160 372,-160 372,-160 441.02,-160 441.02,-160"/>
<polygon fill="black" stroke="black" points="441.02,-163.5 451.02,-160 441.02,-156.5 441.02,-163.5"/>
</g>
</g>
</svg>
