<?xml version="1.0" encoding="UTF-8" standalone="no"?>
<svg xmlns="http://www.w3.org/2000/svg" xml:space="preserve" id="svg953" width="1133.867" height="541.478" x="0" y="0" version="1.1" viewBox="0 0 1133.867 541.478">
  <font id="font32" horiz-adv-x="1000" horiz-origin-x="0" horiz-origin-y="0" vert-adv-y="1024" vert-origin-x="512" vert-origin-y="768">
    <font-face id="font-face2" font-family="'Maestro'" underline-position="-78" underline-thickness="9" units-per-em="1000">
      <font-face-src>
        <font-face-name name="Maestro"/>
      </font-face-src>
    </font-face>
    <glyph id="glyph6" d="M72 62V-87l98 32V94L72 62m-29 94v163h29V166l98 32v146h29V207l39 13V116l-39-13V-45l39 12v-103l-39-13v-163h-29v154l-98-32v-148H43v138L0-214v104l43 14V53L0 39v103l43 14z" horiz-adv-x="236" unicode="#"/>
    <glyph id="glyph8" d="M466-252c-19-3-38-5-60-6-20-1-41 0-61 2-20 1-39 4-55 6-18 4-31 8-42 13-51 25-93 51-124 79-32 27-57 56-74 86S20-11 14 20C6 52 2 84 0 116c-3 35 0 69 10 104 8 35 21 68 36 100 16 31 34 60 54 87 21 27 41 50 62 70 24 23 49 45 76 67 26 23 55 46 86 69-1 9-2 16-2 23-2 7-3 14-4 20-1 8-3 15-4 24-2 9-3 19-4 32 0 5-1 15-2 30-1 14-2 31-2 52-1 20 0 43 1 69s5 53 10 81c3 17 11 38 21 64 12 25 24 50 40 74 14 24 30 45 47 62s32 26 47 26c7 0 15-4 24-14 9-8 17-20 26-36 8-14 16-32 24-50 8-20 15-39 21-59s11-40 15-59c3-19 5-36 6-51 1-35-1-65-4-91-3-27-8-50-15-72-7-20-15-40-23-58-10-17-19-35-29-53-11-18-21-34-33-47-10-14-22-28-33-42-12-15-25-27-37-36-14-10-26-21-39-32 6-34 11-65 16-92 2-12 4-24 6-35s4-22 5-31c1-10 3-18 4-24 1-7 2-11 2-12 16 2 32 2 50 0 16-1 33-4 48-7 16-3 30-8 42-13 13-5 23-10 30-15 36-27 62-57 76-91 16-35 24-70 27-106 2-28 0-56-7-84-7-29-18-56-34-82-15-25-36-49-60-70-26-21-55-39-89-53 4-27 8-53 11-76 3-20 6-39 9-59 3-18 5-32 6-39 6-40 8-73 7-99-1-25-6-46-15-62-7-13-16-26-25-39-10-13-22-24-35-34s-29-18-47-25c-17-7-37-11-60-12-17-1-38 0-62 4-24 5-47 12-69 24-22 10-41 25-57 44s-25 42-27 69c-1 16 0 32 3 49 3 16 9 30 18 44 8 12 19 23 32 32 14 9 31 14 51 15 12 1 24-1 37-5 12-5 23-11 34-19s19-18 26-30 11-25 12-39c2-25-6-48-23-72-17-22-47-40-88-51 7-9 19-18 38-27 19-8 42-12 70-12 29 0 57 9 85 26 26 17 47 39 62 65 9 17 14 40 14 67 0 28-2 56-5 84-1 5-3 16-6 34-3 19-6 38-9 58-3 23-7 49-12 78m21 1267c-26 0-49-12-69-37-19-24-35-55-48-92-12-37-20-78-24-123s-3-88 3-129c22 17 45 37 69 60 24 24 46 49 66 76 19 27 35 54 48 81 12 27 17 53 15 78-1 8-2 17-4 27s-5 19-10 28-11 16-18 22-17 9-28 9m-2-1226c29 10 51 23 67 39s28 33 36 52c7 19 12 37 12 56 2 19 2 35 1 50-1 12-4 27-9 45-4 18-12 35-24 52s-29 31-51 41c-22 12-51 16-88 14l56-349m-82 347c-27-1-50-7-67-16-18-10-32-22-42-36-11-13-18-28-22-43-3-15-5-29-4-41s3-24 8-37 11-25 18-35c8-12 16-22 26-30 8-10 18-16 27-21l-3-3-4-4c-1-1-2-3-3-4-21 10-39 22-55 36-15 13-25 23-30 29-7 10-14 19-19 27s-10 16-13 26c-3 8-6 18-8 29-3 11-4 23-5 38-1 14 0 29 3 45 3 15 9 31 16 47 8 16 18 31 30 47 13 14 27 29 44 42 9 7 16 12 24 16 6 4 13 8 19 10 6 4 12 6 19 8 6 1 13 3 20 5l-30 181c-8-5-21-14-39-28s-38-31-59-50-42-40-64-62c-20-23-38-44-51-65-24-38-43-73-56-105S65 75 68 38c3-42 16-81 38-118 24-36 53-66 89-91s77-42 123-51c46-10 94-9 143 3-11 66-20 125-29 177-4 22-8 44-11 65s-7 40-9 57c-4 17-6 30-7 40-1 11-2 16-2 16z" horiz-adv-x="709" unicode="&amp;"/>
    <glyph id="glyph10" d="M0 15v32h286V15H0z" horiz-adv-x="286" unicode="-"/>
    <glyph id="glyph12" d="M31 20c0 14 5 26 15 36 10 9 22 14 37 14s27-5 37-14c10-10 15-22 15-36s-5-26-15-36-22-15-37-15-27 5-37 15S31 6 31 20z" horiz-adv-x="155" unicode="."/>
    <glyph id="glyph14" d="M502-262c-6-11-12-22-18-31-5-9-11-18-17-27s-12-17-19-26c-7-8-14-17-23-27s-17-19-25-27c-7-8-15-16-22-23-8-7-16-15-25-21-9-8-18-15-29-23-13-10-26-19-38-26-11-7-23-14-34-20-12-6-24-11-37-17-13-4-27-10-42-16s-32-12-51-16c-18-6-35-10-52-13-19-4-39-8-58-11l-7 15c31 11 63 23 94 37 26 12 53 26 83 44 28 16 54 36 75 58 54 57 95 120 123 190 28 68 41 147 40 235 0 20-2 43-6 69-5 26-12 51-24 74-10 23-26 43-46 60-19 17-45 25-76 25-18 0-37-4-58-11-20-7-38-17-55-30-17-12-30-26-41-44-11-16-15-35-13-54 1-3 3-4 7-2 3 0 8 2 16 4 6 2 15 4 26 6 10 2 22 3 36 2 15-1 27-5 38-14 11-8 19-18 26-31s11-27 13-41c2-16 1-30-2-44-5-22-15-40-29-52-15-14-35-20-60-20-16 0-32 3-46 8-16 6-29 14-40 24-11 11-20 24-28 38-6 16-10 33-10 52-1 29 2 54 10 76 6 22 15 41 26 57 10 16 21 29 32 39 12 11 23 19 33 25 25 15 50 26 75 31 25 6 49 9 72 10 25 0 51-4 76-12 26-9 50-21 73-36 23-16 43-35 61-56 18-22 32-46 41-73 11-30 17-62 17-95 1-34-3-71-12-110-3-13-6-25-9-36s-7-21-11-31-8-20-14-30c-4-10-10-21-16-33m101 385c-1 15 4 28 15 39 11 10 24 15 39 15 15 1 29-4 39-14 12-10 17-23 17-38 1-15-4-29-15-39-11-12-24-17-39-17-15-1-29 4-39 15-12 11-17 24-17 39m0-252c0 15 5 28 16 38s24 15 39 16c15 0 28-5 40-15 10-9 16-22 16-37 1-15-4-29-15-39-11-12-24-17-39-17-15-1-28 4-40 15-10 11-16 24-17 39z" horiz-adv-x="723" unicode="?"/>
    <glyph id="glyph16" d="M280 253c-3-27-10-55-20-85s-25-62-46-97c-21-36-43-71-65-103-22-34-43-64-62-92-17-23-32-50-47-80-14-29-21-58-21-86H0v266h19c10 1 21 4 32 7 9 3 20 7 33 11 12 6 24 12 37 21 9 6 19 14 29 25 12 11 23 24 34 40 11 15 22 33 34 54 10 21 20 44 29 69 9 28 15 53 17 74s3 46 2 73c0 15-2 30-4 46-4 17-7 33-12 48-5 16-10 31-15 46-5 14-11 26-17 37l11 7c9-14 18-31 25-50 8-20 14-42 20-66 4-24 8-50 10-78 1-28 0-57-4-87z" horiz-adv-x="330" unicode="J"/>
    <glyph id="glyph18" d="M26 354V113c9 9 18 16 26 21s16 10 23 12c7 4 15 6 23 7 9 1 18 2 29 2 13 0 24-3 34-8s19-12 26-21 13-18 17-29 6-21 6-31c1-11 0-21-3-32-3-10-6-19-10-28-5-11-12-21-22-30s-19-17-27-25c-3-3-8-7-17-14s-19-14-29-22c-12-8-23-16-35-25-12-8-23-16-33-22-10-8-18-14-24-18-7-6-10-8-10-8v591h26v-79m81-263c-3 4-8 7-13 10-6 3-12 4-19 4s-13-2-20-6-13-11-18-21c-7-13-10-28-11-48v-137s2 1 6 5c4 2 9 6 14 12 6 4 12 10 18 16 7 6 13 11 18 16 9 9 17 18 24 28s12 23 15 38c4 15 5 30 3 45s-8 27-17 38z" horiz-adv-x="210" unicode="b"/>
    <glyph id="glyph20" d="M15 287c0-25 6-50 18-77s25-50 40-71c17-23 35-48 54-75 19-26 39-55 58-88 8-14 16-30 23-46 7-18 14-34 20-52 6-16 11-33 14-48 4-15 7-28 8-38 3-21 6-41 8-62 1-20 2-40 1-59-1-61-12-118-31-170l-12 2c9 23 16 51 20 82 5 31 7 61 7 89 0 24-2 50-6 79s-10 55-19 80c-15 45-34 80-55 106s-40 44-55 54C97 0 86 6 75 10c-11 5-21 8-30 10-11 3-21 4-30 5H1v262h14z" horiz-adv-x="330" unicode="j"/>
    <glyph id="glyph22" d="M24 62V-95l114 30V92L24 62m140 134v-571h-26v214L-1-197v578h25V158l140 38z" horiz-adv-x="198" unicode="n"/>
    <glyph id="glyph24" d="M257-217c-17 7-33 13-46 15-13 4-25 5-36 5-21 0-39-6-55-19-14-13-22-31-22-54 0-7 2-16 8-25 4-9 10-18 17-26 7-9 16-19 26-28l-12-10c-22 13-42 28-60 44-15 13-30 29-43 45-14 18-22 35-25 54-2 11-1 23 1 34 4 11 8 22 16 30 6 10 16 17 26 22 12 6 24 10 38 11 5 0 12 0 19-1 7 0 15 0 21-2 8 0 14-2 20-2 7-2 12-2 16-3C118-80 82-42 58-11 33 20 23 40 27 49c5 6 12 15 21 27 10 13 20 27 29 44s18 34 25 53 11 37 11 55c0 11-4 26-11 42-7 18-15 34-24 50-11 18-22 37-35 57l14 10 182-229c-17-20-31-40-43-61-11-17-21-36-30-57-9-20-13-39-13-57 0-13 2-25 5-37 4-11 9-22 14-32 5-11 11-20 18-30 7-8 13-16 18-23 3-4 7-9 13-15 6-7 12-13 17-20 5-6 10-12 14-17 5-5 7-9 7-10l-2-16z" horiz-adv-x="287" unicode="Œ"/>
    <glyph id="glyph26" d="M8-1c7 18 17 35 30 50 14 15 30 29 48 41 18 11 37 20 58 26 21 7 42 10 63 10s40-4 56-10c16-8 29-17 38-28 9-12 15-26 17-42 3-15 1-32-6-50s-17-35-31-50c-14-16-30-30-48-42-18-11-37-20-59-26-20-7-41-10-62-10s-40 4-56 10c-15 8-28 17-38 29C9-81 3-67 1-52-1-36 1-19 8-1z" horiz-adv-x="319" unicode="œ"/>
    <glyph id="glyph28" d="M72 213c18 5 33 4 45-3s21-16 27-28c7-12 11-25 12-40 1-14 0-26-3-36 11 1 20 3 29 6s18 9 27 18 16 17 21 24c6 7 13 16 21 25l14-8-111-419h-40c7 22 14 44 21 65 6 17 12 35 18 55 6 18 11 34 16 45 11 29 19 55 27 79 6 22 12 42 16 58 5 19 8 35 11 49-6-5-14-11-25-17-10-8-21-14-33-21s-24-13-37-17c-13-6-25-8-37-9-26-1-47 6-63 21C13 75 4 93 1 114c-3 20 2 40 13 60 11 19 31 32 58 39z" horiz-adv-x="304" unicode="‰"/>
    <glyph id="glyph30" d="M320 89c4-7 6-15 8-25V38c-2-10-3-18-5-26s-4-14-6-19c-9-25-23-48-42-67s-36-33-51-40c-33-17-72-23-117-19-7 1-15 2-23 3-10 1-18 4-28 7-8 3-17 8-26 13-8 5-14 12-19 20-5 9-9 18-9 26-2 10-2 18 0 26 0 9 2 16 4 24 2 6 4 13 6 18 9 25 23 46 40 63s34 30 49 39 34 16 57 21c22 5 47 6 75 3 5-1 12-2 20-2 8-2 16-4 25-6l24-12c7-6 13-12 18-21m-23-17c-5 8-12 13-19 16-8 3-16 4-26 3-8-1-18-3-27-6s-18-7-26-11c-11-5-21-11-31-16-8-5-18-11-28-16-19-11-39-23-59-36-7-5-15-10-23-16-7-6-14-13-19-20s-9-15-11-24c-1-8 0-16 5-24s11-13 19-16 16-4 26-2c8 0 18 3 27 6s18 7 26 11c11 5 22 11 31 16 10 5 20 11 30 16s20 11 28 16c10 5 19 12 30 19 7 5 14 10 22 16 7 6 14 13 19 20s9 15 11 24c1 8 0 16-5 24z" horiz-adv-x="328" unicode="˙"/>
  </font>
  <font id="font68" horiz-adv-x="1000" horiz-origin-x="0" horiz-origin-y="0" vert-adv-y="1024" vert-origin-x="512" vert-origin-y="768">
    <font-face id="font-face34" font-family="'Sabon LT Pro'" font-style="italic" underline-position="-75" underline-thickness="50" units-per-em="1000">
      <font-face-src>
        <font-face-name name="Sabon LT Pro Italic"/>
      </font-face-src>
    </font-face>
    <glyph id="glyph38" horiz-adv-x="278"/>
    <glyph id="glyph40" d="M117 117c-37 0-65-18-65-58 0-28 18-46 44-52 27-6 31-11 31-26 0-56-41-89-134-101l7-20c101-2 193 66 193 162 0 54-29 95-76 95z" horiz-adv-x="278" unicode=","/>
    <glyph id="glyph42" d="M116 117c-35 0-66-32-66-67 0-36 31-65 66-65 36 0 66 29 66 65s-31 67-66 67z" horiz-adv-x="278" unicode="."/>
    <glyph id="glyph44" d="M347 705C168 705 59 413 59 262c0-135 51-277 176-277 192 0 293 275 293 431 0 181-65 289-181 289M139 199c0 110 53 474 207 474 106 0 102-155 102-217 0-99-60-445-204-445-71 0-105 59-105 188z" horiz-adv-x="556" unicode="0"/>
    <glyph id="glyph46" d="m128 558 13-24 160 81L201 65c-8-43-44-40-82-40H84L79 0c52 1 103 2 161 2 57 0 109-2 164-2l5 25h-45c-56 0-71 7-71 31 0 13 3 33 8 61l103 583-10 5-266-147z" horiz-adv-x="556" unicode="1"/>
    <glyph id="glyph48" d="M308 705c-62 0-122-26-207-119l16-23c67 66 100 82 149 82 67 0 109-50 109-127 0-102-86-231-214-353L23 35 20 0c72 1 144 2 218 2 68 0 137-1 206-2l39 132-22 6-32-58H119c4 5 42 42 121 114 159 145 227 252 227 355 0 96-64 156-159 156z" horiz-adv-x="556" unicode="2"/>
    <glyph id="glyph50" d="M322 705c-60 0-109-19-188-88l16-18c40 29 72 59 124 59 73 0 106-53 106-124 0-82-89-149-191-158l-5-27c11 2 28 1 41 1 79 0 127-56 127-143 0-96-67-196-174-196-57 0-95 23-119 79L17 77l11-51C69-1 98-15 173-15c160 0 271 115 271 232 0 94-59 146-152 159v2c123 48 174 109 174 196 0 79-63 131-144 131z" horiz-adv-x="556" unicode="3"/>
    <glyph id="glyph52" d="m28 266-3-35h288L270 0h82l42 231h109l13 66H406l76 408h-45L28 266m349 327h2l-54-296H104l273 296z" horiz-adv-x="556" unicode="4"/>
    <glyph id="glyph54" d="M275 690 171 434c115-63 175-151 175-249 0-87-53-174-143-174-62 0-95 22-128 79L32 75l10-43c32-30 83-47 147-47 140 0 237 109 237 243 0 99-64 192-191 275l43 107h221l28 80H275z" horiz-adv-x="556" unicode="5"/>
    <glyph id="glyph56" d="M118 690 84 567h25l24 43h343L103 0l40-22 426 704v8H118z" horiz-adv-x="556" unicode="7"/>
    <glyph id="glyph58" d="M336 705c-113 0-190-84-190-183 0-67 37-131 101-186C117 280 66 218 66 131c0-86 83-146 171-146 127 0 213 75 213 187 0 67-20 114-104 188 113 56 162 121 162 200 0 87-81 145-172 145M220 554c0 64 51 119 112 119 73 0 110-48 110-120 0-82-49-137-113-181-79 80-109 133-109 182m-88-424c0 75 38 135 131 188 76-72 107-122 107-173 0-81-52-128-125-128-66 0-113 45-113 113z" horiz-adv-x="556" unicode="8"/>
    <glyph id="glyph60" d="M170 411c-35 0-66-32-66-67 0-36 31-65 66-65 36 0 66 29 66 65s-31 67-66 67m-54-294c-35 0-66-32-66-67 0-36 31-65 66-65 36 0 66 29 66 65s-31 67-66 67z" horiz-adv-x="278" unicode=":"/>
    <glyph id="glyph62" d="M128 672h22c60 0 71-24 67-44l-91-507c-12-65-9-95-73-95H28L23 0c44 1 88 2 135 2l141-2c166 0 281 81 281 210 0 93-58 148-177 160v2c111 11 196 78 196 177 0 97-83 149-226 149-37 0-79-6-241 0l-4-26m187-8c7 1 27 2 34 2 94 0 152-35 152-114 0-91-58-170-172-170-11 0-53 2-68 3l54 279m-60-317c16 2 37 3 58 3 126 0 169-45 169-130 0-118-79-188-175-188-33 0-109-2-100 49l48 266z" horiz-adv-x="667" unicode="B"/>
    <glyph id="glyph64" d="M285 764c-65-20-91-25-146-31l-5-14 60-32L54 83c-1-4-7-25-7-49 0-27 7-49 37-49 63 0 119 95 151 136l-12 21c-24-33-61-77-77-77-12 0-13 10-13 21 0 7 2 15 3 20s52 217 156 652l-7 6z" horiz-adv-x="278" unicode="l"/>
    <glyph id="glyph66" d="M179 457c-40 0-104-67-151-134l13-17c35 43 65 67 84 67 13 0 19-15 19-26 0-12-4-31-11-56L51 5C50-6 69-15 84-15c19 0 32 1 35 8 6 22 12 44 18 64 38 118 107 296 173 296 11 0 25-4 37-4 31 0 42 50 42 74 0 23-11 34-31 34-38 0-99-66-184-227h-2l38 137c7 27 10 43 10 52 0 27-16 38-41 38z" horiz-adv-x="389" unicode="r"/>
  </font>
  <font id="font80" horiz-adv-x="2048" horiz-origin-x="0" horiz-origin-y="0" vert-adv-y="1024" vert-origin-x="512" vert-origin-y="768">
    <font-face id="font-face70" font-family="'Times'" underline-position="-155" underline-thickness="101" units-per-em="2048">
      <font-face-src>
        <font-face-name name="Times Roman"/>
      </font-face-src>
    </font-face>
    <glyph id="glyph74" d="M758 1379c74 0 150-11 228-33s122-33 131-33c19 0 38 5 55 16s29 27 36 50h43l19-460h-47c-27 91-63 165-107 221-84 105-197 158-339 158-143 0-261-57-351-170-92-113-137-269-137-468 0-183 48-328 143-438C528 114 649 59 796 59c106 0 204 25 293 76 51 29 108 72 169 130l38-38c-45-57-102-108-169-151C1012 3 888-34 754-34c-220 0-395 70-524 211C111 307 51 469 51 664c0 199 63 367 189 502 133 142 305 213 518 213z" horiz-adv-x="1366" unicode="C"/>
    <glyph id="glyph76" d="M168 1291c0 29 10 53 30 74s45 31 74 31 53-10 74-30c20-21 30-46 30-75s-10-53-30-73c-21-21-45-31-74-31s-54 10-74 31c-20 20-30 44-30 73M40 28c71 7 116 19 135 36 19 18 28 66 28 144v477c0 43-3 73-9 90-10 27-31 41-63 41-7 0-15-1-21-2-8-1-28-7-61-16v31l43 14c117 38 198 67 244 86 19 8 31 12 36 12 1-5 2-10 2-15V208c0-76 9-124 28-143 18-19 59-32 124-37V0H40v28z" horiz-adv-x="569" unicode="i"/>
    <glyph id="glyph78" d="M106 315h33c15-76 36-134 62-175C248 65 316 28 406 28c50 0 90 14 118 42 30 27 44 63 44 107 0 28-8 55-25 81s-46 51-88 76l-112 64c-82 44-142 88-181 133s-58 97-58 158c0 75 27 136 80 184s120 72 201 72c35 0 74-7 117-20 42-13 66-20 71-20 12 0 21 2 26 5s10 9 14 16h24l7-279h-31c-13 65-31 115-54 151-41 67-101 100-179 100-47 0-83-14-110-43s-40-62-40-101c0-61 46-116 138-164l132-71c142-77 213-167 213-270 0-79-29-143-89-193-58-50-136-75-231-75-40 0-85 7-136 20s-81 20-90 20c-8 0-15-3-21-9-6-5-11-12-14-20h-26v323z" horiz-adv-x="797" unicode="s"/>
  </font>
  <font id="font132" horiz-adv-x="2048" horiz-origin-x="0" horiz-origin-y="0" vert-adv-y="1024" vert-origin-x="512" vert-origin-y="768">
    <font-face id="font-face82" font-family="'Times New Roman'" underline-position="-223" underline-thickness="100" units-per-em="2048">
      <font-face-src>
        <font-face-name name="Times New Roman"/>
      </font-face-src>
    </font-face>
    <glyph id="glyph86" d="M83 535h517V384H83v151z" horiz-adv-x="682" unicode="-"/>
    <glyph id="glyph88" d="M256 194c31 0 58-11 79-32 21-22 32-48 32-79s-11-57-33-79c-21-21-47-32-78-32s-57 11-78 32c-22 22-33 48-33 79s11 58 33 79c21 21 47 32 78 32z" horiz-adv-x="512" unicode="."/>
    <glyph id="glyph90" d="m1257 1387 35-428h-35c-35 107-81 187-137 241-81 78-184 117-311 117-173 0-304-68-394-205-75-115-113-253-113-412 0-129 25-247 75-354s115-185 197-234c80-50 164-75 249-75 50 0 98 6 145 19s92 31 135 56v392c0 68-5 112-15 134-11 20-27 36-48 48-22 10-60 16-115 16v38h525v-38h-25c-52 0-88-17-107-52-13-25-20-73-20-146V89c-77-41-152-72-227-91S913-31 822-31c-262 0-461 84-597 252C123 347 72 492 72 657c0 119 29 234 86 343 68 130 161 230 280 300 99 58 217 87 352 87 49 0 94-4 134-12 41-8 98-26 172-53 37-14 62-21 75-21s23 6 33 17c8 12 14 35 16 69h37z" horiz-adv-x="1479" unicode="G"/>
    <glyph id="glyph92" d="M838 0 314 1141V235c0-83 9-135 27-156 25-28 64-42 117-42h48V0H34v37h48c57 0 98 17 122 52 15 21 22 70 22 146v886c0 60-7 103-20 130-9 19-26 35-52 49-24 12-65 19-120 19v37h384L910 295l484 1061h384v-37h-47c-58 0-99-17-123-52-15-21-22-70-22-146V235c0-83 9-135 28-156 25-28 64-42 117-42h47V0h-576v37h48c58 0 99 17 122 52 15 21 22 70 22 146v906L871 0h-33z" horiz-adv-x="1821" unicode="M"/>
    <glyph id="glyph94" d="M-27 1356h368l829-1017v782c0 83-9 135-28 156-25 28-64 42-117 42h-47v37h472v-37h-48c-57 0-98-17-122-52-15-21-22-70-22-146V-22h-36L328 1070V235c0-83 9-135 27-156 25-28 64-42 117-42h48V0H48v37h47c58 0 99 17 123 52 15 21 22 70 22 146v943c-39 46-69 76-90 91-20 15-50 28-89 41-19 6-49 9-88 9v37z" horiz-adv-x="1479" unicode="N"/>
    <glyph id="glyph96" d="M420 635V240c0-85 9-138 28-159 25-29 64-44 115-44h52V0H34v37h51c57 0 98 19 123 56 13 21 20 70 20 147v876c0 85-9 138-27 159-26 29-65 44-116 44H34v37h497c121 0 217-12 287-38 70-24 129-67 177-126s72-130 72-211c0-111-37-201-109-270-74-69-177-104-310-104-33 0-68 2-106 7s-79 12-122 21m0 57c35-7 67-12 94-15s51-5 70-5c69 0 129 27 180 80 50 54 75 124 75 209 0 59-12 113-36 163-24 51-58 88-102 114-44 24-94 37-150 37-34 0-78-6-131-19V692z" horiz-adv-x="1139" unicode="P"/>
    <glyph id="glyph98" d="M583 132C489 59 430 17 406 6c-36-17-74-25-115-25-63 0-115 22-157 65-40 43-61 100-61 171 0 45 10 83 30 116 27 45 75 88 143 128 67 40 180 89 337 146v36c0 91-15 154-43 188-30 34-72 51-127 51-42 0-75-11-100-34s-38-49-38-78l2-58c0-31-8-54-23-71-16-17-37-25-62-25s-45 9-60 26c-16 17-24 41-24 71 0 57 29 110 88 158s141 72 247 72c81 0 148-14 200-41 39-21 68-53 87-97 12-29 18-87 18-176V318c0-87 2-141 5-160 3-20 9-33 17-40 7-7 16-10 26-10 11 0 20 2 28 7 14 9 41 33 81 73v-56C830 32 759-18 691-18c-33 0-59 11-78 34s-29 61-30 116m0 65v349c-101-40-166-68-195-85-53-29-90-60-113-92s-34-67-34-105c0-48 14-88 43-120 29-31 62-47 99-47 51 0 117 33 200 100z" horiz-adv-x="909" unicode="a"/>
    <glyph id="glyph100" d="M315 758c89 123 184 185 287 185 94 0 176-40 246-121 70-80 105-190 105-329 0-163-54-294-162-393C698 15 595-28 481-28c-53 0-107 10-163 29-54 19-111 48-168 87v949c0 104-2 168-8 192-4 24-12 40-23 49s-24 13-40 13c-19 0-42-5-70-16l-14 35 275 112h45V758m0-64V146c34-33 69-58 105-76 37-16 74-25 112-25 61 0 117 33 170 100 52 67 78 164 78 291 0 117-26 208-78 270-53 64-112 95-179 95-35 0-71-9-106-27-27-13-61-40-102-80z" horiz-adv-x="1024" unicode="b"/>
    <glyph id="glyph102" d="M842 348c-25-121-73-214-145-278-72-66-152-98-239-98-104 0-195 44-272 131S70 308 70 457c0 144 43 261 128 351 86 90 189 135 309 135 90 0 164-24 222-71 58-48 87-98 87-149 0-25-8-46-24-61-17-16-40-24-69-24-39 0-69 13-89 38-11 14-19 41-22 80-4 39-18 69-41 90-23 20-56 30-97 30-67 0-120-25-161-74-54-65-81-152-81-259 0-109 27-206 80-289 54-84 127-126 218-126 65 0 124 22 176 67 37 31 72 86 107 167l29-14z" horiz-adv-x="909" unicode="c"/>
    <glyph id="glyph104" d="M711 103C666 56 623 23 580 2c-43-20-89-30-138-30-100 0-187 42-262 126-75 83-112 191-112 322s41 252 124 360c83 110 189 164 319 164 81 0 147-26 200-77v169c0 105-3 169-7 193-6 24-13 40-24 49s-24 13-40 13c-17 0-40-5-69-16l-13 35 273 112h45V363c0-107 2-173 8-197 4-23 12-40 24-49 10-9 23-14 38-14 18 0 42 6 72 17l11-35L757-28h-46v131m0 70v472c-4 45-16 87-36 124s-47 65-79 85c-34 18-66 28-97 28-59 0-111-26-157-79-61-69-91-171-91-304 0-135 29-238 88-309 59-72 124-108 196-108 61 0 119 30 176 91z" horiz-adv-x="1024" unicode="d"/>
    <glyph id="glyph106" d="M218 571c-1-136 32-243 99-320s145-116 235-116c60 0 112 17 156 49 45 34 82 90 112 170l31-20c-14-91-55-174-122-250C662 10 577-28 476-28c-110 0-204 43-282 128-79 86-118 201-118 346 0 157 40 279 120 366 81 88 182 132 303 132 103 0 187-34 253-102 66-67 99-158 99-271H218m0 58h424c-3 59-10 100-21 124-17 37-41 67-75 88-32 21-67 32-103 32-55 0-105-21-149-65-43-42-69-102-76-179z" horiz-adv-x="909" unicode="e"/>
    <glyph id="glyph108" d="M309 334c-56 27-99 66-129 114-30 50-45 104-45 163 0 91 34 169 103 234 68 65 155 98 262 98 87 0 163-21 227-64h194c29 0 45-1 50-3 5-1 8-4 10-8 4-6 6-17 6-32 0-17-2-29-5-36-2-3-6-6-10-8-6-2-22-3-51-3H802c37-48 56-109 56-184 0-85-33-158-98-219s-153-91-263-91c-45 0-92 7-139 20-29-25-49-47-60-67-10-18-15-35-15-48 0-11 5-22 17-33 10-11 32-18 64-23 19-3 65-5 140-7 137-3 226-8 267-14 62-9 111-32 149-69 36-37 55-83 55-138 0-75-35-146-106-212-104-97-240-146-407-146-129 0-237 29-326 87-50 33-75 68-75 104 0 16 4 32 11 48 11 25 35 59 70 103 5 6 39 42 102 108-35 21-59 39-74 56-14 16-21 34-21 55 0 23 9 51 29 82 18 31 62 76 131 133m174 561c-49 0-91-20-124-59s-50-100-50-181c0-105 23-187 68-245 35-44 79-66 132-66 51 0 92 19 125 57s49 98 49 179c0 106-23 189-69 249-34 44-78 66-131 66M299 0c-31-34-55-66-71-95s-24-56-24-81c0-32 19-60 58-84 67-41 163-62 289-62 120 0 209 21 265 64 58 42 86 87 86 135 0 35-17 59-51 74-35 15-103 23-206 26-150 4-265 12-346 23z" horiz-adv-x="1024" unicode="g"/>
    <glyph id="glyph110" d="M333 1422V752c74 81 133 134 176 156 43 24 87 35 130 35 52 0 97-14 134-43s65-74 83-135c13-43 19-121 19-234V207c0-58 5-98 14-119 7-16 18-29 34-38s45-14 88-14V0H561v36h21c43 0 72 6 89 20 17 12 28 32 35 57 2 11 3 42 3 94v324c0 100-5 166-15 197-11 31-27 55-50 70-23 16-50 24-82 24-33 0-67-9-102-26s-78-52-127-105V207c0-63 3-102 11-117 6-15 20-28 38-38 20-11 52-16 99-16V0H27v36c41 0 73 6 96 19 13 7 24 19 32 38s12 57 12 114v829c0 105-3 169-7 193-6 24-13 40-24 49-10 9-24 13-41 13-14 0-37-5-68-16l-14 35 274 112h46z" horiz-adv-x="1024" unicode="h"/>
    <glyph id="glyph112" d="M297 1422c28 0 52-10 71-30 20-19 30-43 30-71s-10-52-30-72c-19-20-43-30-71-30s-52 10-72 30-30 44-30 72 10 52 29 71c20 20 44 30 73 30m83-479V207c0-57 4-95 12-115 9-18 21-33 38-42 16-9 46-14 89-14V0H74v36c45 0 75 4 90 13s28 23 36 43c10 20 14 58 14 115v353c0 99-3 164-9 193-5 21-12 36-22 45-10 8-24 12-41 12-19 0-41-5-68-15l-14 36 276 112h44z" horiz-adv-x="569" unicode="i"/>
    <glyph id="glyph114" d="M379 1422V207c0-57 4-95 13-114 8-19 21-33 38-43 17-9 50-14 97-14V0H78v36c42 0 71 4 86 13s27 23 36 43 13 58 13 115v832c0 103-2 167-7 191-5 23-12 39-22 48-11 9-24 13-40 13-17 0-39-5-66-16l-17 35 273 112h45z" horiz-adv-x="569" unicode="l"/>
    <glyph id="glyph116" d="M336 748c67 67 106 105 118 115 30 25 62 45 97 59s69 21 103 21c57 0 107-17 148-50s69-82 83-145c69 80 127 132 174 158 47 24 96 37 146 37 49 0 92-13 129-37 38-26 68-66 90-123 15-39 22-99 22-182V207c0-57 4-97 13-118 7-15 19-27 37-37 18-11 47-16 88-16V0h-452v36h19c39 0 70 8 92 23 15 11 26 28 33 51 3 11 4 44 4 97v394c0 75-9 127-27 158-26 43-68 64-125 64-35 0-71-9-106-27-36-17-79-50-130-98l-2-11 2-43V207c0-63 4-102 10-117 8-15 21-28 40-38 19-11 52-16 99-16V0H578v36c51 0 86 6 104 18 20 12 33 30 40 54 3 11 5 44 5 99v394c0 75-11 128-33 161-29 43-70 64-123 64-36 0-72-10-107-29-55-29-98-62-128-99V207c0-60 4-99 12-117 9-18 21-32 38-40 16-10 49-14 99-14V0H32v36c42 0 71 4 88 14 17 8 29 23 38 42 9 20 13 58 13 115v350c0 101-3 166-9 195-5 22-12 37-22 46-10 8-24 12-41 12-19 0-41-5-67-15l-15 36 276 112h43V748z" horiz-adv-x="1593" unicode="m"/>
    <glyph id="glyph118" d="M331 749c107 129 210 194 307 194 50 0 93-13 129-37 36-26 65-67 86-124 15-40 22-101 22-184V207c0-58 5-97 14-118 7-17 19-30 35-39 17-9 47-14 91-14V0H562v36h19c43 0 73 6 89 20 18 12 29 32 36 57 3 10 4 41 4 94v375c0 83-11 144-32 182-22 37-59 56-110 56-79 0-158-43-237-130V207c0-62 4-100 11-115 9-19 22-34 38-42 17-10 50-14 100-14V0H27v36h20c47 0 78 12 95 36 16 23 24 68 24 135v340c0 110-2 177-8 201-4 24-12 40-22 49-11 9-25 13-42 13-19 0-41-5-67-15l-15 36 276 112h43V749z" horiz-adv-x="1024" unicode="n"/>
    <glyph id="glyph120" d="M512 943c139 0 250-53 334-158 71-90 107-193 107-310 0-82-20-165-59-249S800 79 732 36C662-7 586-28 501-28c-138 0-248 55-329 165-69 93-103 197-103 312 0 84 21 167 63 251 41 82 96 144 164 184 68 39 140 59 216 59m-31-65c-35 0-71-10-107-32-35-20-64-57-86-110s-33-120-33-203c0-133 27-248 79-345C388 91 457 43 544 43c65 0 118 27 160 80s63 145 63 275c0 163-35 291-105 384-47 64-108 96-181 96z" horiz-adv-x="1024" unicode="o"/>
    <glyph id="glyph122" d="M332 943V737c77 137 155 206 236 206 37 0 67-11 91-33 24-23 36-49 36-78 0-26-9-48-26-66s-38-27-62-27c-23 0-49 11-79 35-28 22-50 34-64 34-12 0-25-7-39-20-30-27-61-72-93-135V214c0-51 6-89 19-115 9-18 24-33 46-45s54-18 95-18V0H23v36c47 0 81 7 104 22 17 11 28 28 35 51 3 11 5 44 5 97v355c0 107-2 170-7 191-4 20-12 35-24 44-11 9-26 14-43 14-21 0-44-5-70-15l-10 36 277 112h42z" horiz-adv-x="682" unicode="r"/>
    <glyph id="glyph124" d="M656 943V631h-33c-25 98-58 165-97 200-40 35-91 53-152 53-47 0-84-12-113-37s-43-52-43-82c0-37 11-69 32-96s63-56 126-87l146-71c135-66 203-153 203-261 0-83-31-150-95-202-62-50-133-76-211-76-56 0-120 10-192 30-22 7-40 10-54 10-15 0-27-9-36-26h-33v327h33c19-93 54-164 107-211s112-71 177-71c46 0 83 13 113 41 28 26 43 59 43 97 0 46-16 85-49 116-32 31-96 71-193 119s-160 91-190 130c-30 38-45 86-45 144 0 75 26 138 78 189 51 51 118 76 200 76 36 0 80-8 131-23 34-10 57-15 68-15s19 2 25 7 13 15 21 31h33z" horiz-adv-x="797" unicode="s"/>
    <glyph id="glyph126" d="M330 1217V916h214v-70H330V252c0-59 8-99 26-120 16-21 38-31 65-31 22 0 43 7 64 21 21 13 37 33 48 60h39c-23-65-56-114-99-148-43-32-87-49-132-49-31 0-61 9-90 25-29 18-51 42-65 74-14 31-21 80-21 146v616H20v33c37 15 74 39 112 75 39 34 73 76 103 124 15 25 37 72 64 139h31z" horiz-adv-x="569" unicode="t"/>
    <glyph id="glyph128" d="M867 916V361c0-106 3-171 7-195 6-23 14-40 24-49 12-9 24-14 39-14 21 0 44 6 70 17l14-35L747-28h-45v194C623 81 563 27 522 5s-85-33-131-33c-51 0-96 15-133 44-38 30-64 68-79 115s-22 113-22 198v409c0 43-5 73-14 90s-23 30-41 38c-19 10-52 14-100 13v37h321V303c0-85 15-141 45-168 29-27 65-40 107-40 29 0 61 9 97 27 37 18 80 52 130 103v519c0 52-10 87-28 106-20 18-59 28-119 29v37h312z" horiz-adv-x="1024" unicode="u"/>
    <glyph id="glyph130" d="M13 916h384v-37c-35-3-59-9-69-19-12-10-17-24-17-43 0-21 6-46 17-75l196-527 197 429-52 135c-16 40-37 68-63 83-15 9-42 15-82 17v37h436v-37c-48-2-82-11-102-26-13-11-20-28-20-51 0-13 3-27 8-41l208-526 193 507c13 36 20 65 20 86 0 13-7 24-19 34-14 10-39 16-77 17v37h289v-37c-58-9-101-48-128-118L1026-28h-41L756 557 489-28h-37L158 742c-19 49-38 82-57 98-19 18-48 30-88 39v37z" horiz-adv-x="1479" unicode="w"/>
  </font>
  <font id="font186" horiz-adv-x="2048" horiz-origin-x="0" horiz-origin-y="0" vert-adv-y="1024" vert-origin-x="512" vert-origin-y="768">
    <font-face id="font-face134" font-family="'Times New Roman'" font-weight="bold" underline-position="-223" underline-thickness="195" units-per-em="2048">
      <font-face-src>
        <font-face-name name="Times New Roman Bold"/>
      </font-face-src>
    </font-face>
    <glyph id="glyph138" horiz-adv-x="512"/>
    <glyph id="glyph140" d="M256 308c47 0 86-16 118-49 33-33 49-72 49-118s-16-85-49-117c-33-33-72-49-118-49S171-9 138 24c-32 32-48 71-48 117s16 85 48 118c33 33 72 49 118 49z" horiz-adv-x="512" unicode="."/>
    <glyph id="glyph142" d="M667 1384V275c0-83 4-137 11-159 7-24 23-42 46-57s61-22 112-22h31V0H153v37h36c58 0 99 7 124 20s41 32 50 55 13 78 13 163v703c0 63-3 102-9 118-6 15-17 28-33 40-17 10-36 16-57 16-34 0-75-11-124-32l-18 36 499 228h33z" horiz-adv-x="1024" unicode="1"/>
    <glyph id="glyph144" d="M848 0H50v22c245 291 393 487 446 588 52 101 78 199 78 295 0 70-22 128-65 175-43 46-96 69-159 69-103 0-182-51-239-154l-37 13c36 128 91 223 164 284s158 92 254 92c69 0 131-16 188-48s101-76 133-132c32-55 48-107 48-156 0-89-25-179-74-270-67-123-214-295-441-516h293c72 0 119 3 141 9 21 6 39 16 53 31 14 14 32 44 55 90h36L848 0z" horiz-adv-x="1024" unicode="2"/>
    <glyph id="glyph146" d="M962 1384v-28c-121-31-218-70-290-118-74-49-131-108-174-176-42-70-75-155-98-257 29 20 54 33 73 39 43 13 87 20 131 20 101 0 186-37 254-110 67-74 101-175 101-302 0-89-18-171-55-246S815 74 748 33 609-28 532-28c-83 0-160 23-231 68-71 46-126 113-165 201-40 88-60 184-60 287 0 152 36 294 110 424 72 132 176 236 310 314 135 77 290 117 466 118M387 724c-5-92-8-159-8-202 0-92 9-181 27-267 17-86 41-146 72-181 22-25 48-37 78-37 31 0 58 18 82 53 24 36 36 109 36 218 0 184-22 311-67 381-29 45-67 68-116 68-27 0-61-11-104-33z" horiz-adv-x="1024" unicode="6"/>
    <glyph id="glyph148" d="M63-28V0c111 25 205 63 281 112 78 49 138 110 184 183 44 73 76 156 94 251-41-21-76-36-106-44-28-9-59-13-91-13-103 0-188 37-257 111-68 74-102 175-102 304 0 89 18 171 56 246 36 74 89 132 158 172 69 42 140 62 214 62 79 0 154-23 225-68s127-111 169-197 63-184 63-294c0-143-34-279-103-410-68-131-170-235-305-315C408 22 248-21 63-28m574 658c7 75 10 140 10 197 0 121-14 234-42 339-16 58-40 101-71 128-17 15-38 22-65 22-33 0-59-14-78-43-26-39-39-114-39-225 0-185 22-312 66-382 29-45 67-68 116-68 26 0 60 11 103 32z" horiz-adv-x="1024" unicode="9"/>
    <glyph id="glyph150" d="M342 962c46 0 85-16 118-48 32-33 48-72 48-118s-16-85-48-118c-33-32-72-48-118-48s-85 16-118 48c-32 33-48 72-48 118s16 85 48 118c33 32 72 48 118 48m-1-654c47 0 86-16 119-49 32-33 48-72 48-118s-16-85-49-117c-33-33-72-49-118-49S256-9 224 24c-33 32-49 71-49 117s16 85 49 118c32 33 71 49 117 49z" horiz-adv-x="682" unicode=":"/>
    <glyph id="glyph152" d="M852 386H373l-57-132c-19-44-28-80-28-109 0-38 15-66 46-84 18-11 62-19 133-24V0H16v37c49 7 89 27 120 61 31 32 70 101 116 204l485 1082h19l489-1112c47-105 85-172 115-199 23-21 55-33 96-36V0H800v37h27c53 0 90 7 111 22 15 11 22 26 22 46 0 12-2 24-6 37-1 6-11 31-30 75l-72 169m-34 74L616 927 408 460h410z" horiz-adv-x="1479" unicode="A"/>
    <glyph id="glyph154" d="M911 719c129-30 219-66 271-109 75-61 112-139 112-236 0-102-41-186-123-253C1070 40 924 0 732 0H43v37c63 0 105 6 127 17 23 12 38 27 48 46 8 19 13 65 13 138v880c0 73-5 120-13 138-10 20-25 35-48 46s-65 17-127 17v37h650c155 0 265-14 330-42 65-27 116-68 153-124 37-54 56-113 56-175 0-65-24-123-71-175-47-50-131-91-250-121m-364 27c95 0 165 11 209 32 46 21 80 51 104 90s36 88 36 148-12 109-36 148c-23 38-57 67-101 87s-115 30-212 29V746m0-78V233l-1-50c0-36 9-63 28-81 18-19 45-28 81-28 53 0 103 12 147 36 46 23 80 58 104 102 24 46 36 96 36 151 0 63-15 120-44 171-29 50-70 85-121 105s-128 30-230 29z" horiz-adv-x="1366" unicode="B"/>
    <glyph id="glyph156" d="m976 462 368 894h552v-37h-44c-40 0-72-7-96-21-17-9-30-25-40-47-7-16-11-58-11-125V232c0-69 4-113 11-130s22-32 45-46c23-12 53-19 91-19h44V0h-708v37h44c40 0 72 7 96 21 17 9 30 25 40 48 7 16 11 58 11 126v1005L859 0h-24L307 1228V273c0-67 2-108 5-123 9-33 28-60 56-82 30-20 75-31 137-31V0H41v37h14c30-1 58 4 84 15 26 10 46 24 59 41s24 42 31 73c1 7 2 41 2 102v858c0 69-4 112-11 128-7 18-22 32-45 46-23 12-53 19-91 19H41v37h554l381-894z" horiz-adv-x="1933" unicode="M"/>
    <glyph id="glyph158" d="m962 1387 11-452h-41c-19 113-67 205-142 273-76 70-158 104-246 104-68 0-122-18-162-54-39-37-59-79-59-126 0-30 7-57 21-80 19-31 50-62 93-93 31-22 104-61 217-117 159-78 266-152 321-221s82-149 82-238c0-113-44-211-133-293C836 9 724-32 588-32c-43 0-83 4-121 13S381 6 324 30c-32 13-58 20-79 20-17 0-36-7-55-20s-35-34-47-61h-37v512h37c29-144 86-254 169-329C396 76 486 38 583 38c75 0 134 20 179 61 44 41 66 88 66 142 0 32-8 63-26 93-16 30-42 58-77 86-35 26-96 62-184 105-123 61-212 112-266 155s-95 90-125 143c-28 53-43 111-43 174 0 108 40 200 119 276s179 114 300 114c44 0 87-5 128-16 31-8 70-23 114-45 46-21 77-32 95-32 17 0 31 5 41 16s19 36 28 77h30z" horiz-adv-x="1139" unicode="S"/>
    <glyph id="glyph160" d="M214-374v1730h402v-42h-45c-44 0-73-4-89-14-14-8-26-22-34-40-7-17-11-60-11-127V-158c0-64 1-101 4-110 6-24 17-42 33-53 17-11 49-17 97-17h45v-36H214z" horiz-adv-x="682" unicode="["/>
    <glyph id="glyph162" d="M469 1356V-374H67v38h45c44 0 74 4 88 13 16 9 27 22 34 40 8 18 12 60 12 127v1292c0 64-1 101-4 110-6 23-17 41-34 52-16 12-48 18-96 18H67v40h402z" horiz-adv-x="682" unicode="]"/>
    <glyph id="glyph164" d="M-19-311h1062v-131H-19v131z" horiz-adv-x="1024" unicode="_"/>
    <glyph id="glyph166" d="M585 138C471 37 369-13 278-13c-53 0-98 17-133 53-35 34-53 78-53 131 0 71 31 135 92 193 61 56 195 132 401 227v94c0 71-4 115-11 133-8 19-23 35-44 48-21 14-45 21-72 21-43 0-79-10-107-29-17-12-26-26-26-42 0-14 9-31 28-52 25-29 38-56 38-83 0-33-12-61-37-83-24-24-56-35-95-35-42 0-77 13-105 38-29 25-43 55-43 89 0 48 19 94 57 138 38 43 91 77 159 100s139 35 212 35c89 0 159-19 211-57 51-37 85-78 100-122 9-28 14-92 14-193V228c0-43 2-70 5-80 3-12 8-20 15-25s14-8 23-8c17 0 35 12 53 37l30-24c-33-49-68-85-104-108-35-22-76-33-121-33-53 0-95 13-125 37-30 26-48 63-55 114m0 73v313c-81-47-141-98-180-152-26-36-39-72-39-109 0-31 11-58 33-81 17-18 40-27 70-27 33 0 72 19 116 56z" horiz-adv-x="1024" unicode="a"/>
    <glyph id="glyph168" d="M861 501H348c6-124 39-222 99-294 46-55 101-83 166-83 40 0 76 11 109 34 33 22 68 62 105 120l34-22C810 153 754 80 693 36 632-6 561-28 480-28c-139 0-244 53-315 160-57 86-86 193-86 320 0 156 42 280 127 372 84 93 183 139 296 139 95 0 177-39 246-117 70-77 108-192 113-345m-246 67c0 107-6 181-17 221-12 40-30 70-55 91-14 12-33 18-56 18-35 0-63-17-85-51-39-59-59-141-59-244v-35h272z" horiz-adv-x="909" unicode="e"/>
    <glyph id="glyph170" d="M449 1356V464l217 213c45 43 72 75 84 94 10 19 16 38 16 56s-7 33-22 45-43 21-86 26v37h419v-37c-40-2-75-12-105-28-30-18-89-69-176-154L694 616l220-322c89-131 141-204 158-220 23-23 51-35 86-38V0H675v36c21 0 37 4 47 12 9 8 14 17 14 26 0 15-14 44-42 85L509 430l-60-59V203c0-71 7-116 20-133 13-18 41-29 82-34V0H68v36c39 4 67 17 84 38 11 15 17 58 17 129v950c0 71-7 115-19 132-14 17-41 29-82 34v37h381z" horiz-adv-x="1139" unicode="k"/>
    <glyph id="glyph172" d="M435 1356V194c0-66 8-108 23-126 15-19 45-29 90-32V0H43v36c41 1 72 13 92 36 13 15 20 56 20 122v968c0 65-8 107-23 126-15 18-45 28-89 31v37h392z" horiz-adv-x="569" unicode="l"/>
    <glyph id="glyph174" d="M457 935V812c51 56 99 95 143 118 43 22 91 33 143 33 60 0 110-14 151-42s72-71 94-128c53 60 104 103 154 130 48 27 100 40 153 40 65 0 116-15 155-45 38-29 64-67 80-112 14-46 22-119 22-219V204c0-72 6-117 20-134 12-17 40-29 81-34V0h-483v36c38 3 66 18 84 44 12 18 18 59 18 124v402c0 83-3 136-10 159s-17 39-32 51c-14 10-31 16-50 16-29 0-58-10-87-32-29-20-59-52-89-94V204c0-67 6-110 17-127 15-25 45-38 88-41V0H625v36c26 1 47 8 61 20 16 11 26 25 30 42 6 16 8 51 8 106v402c0 85-3 138-10 159s-18 38-34 50c-15 12-32 18-50 18-27 0-51-7-73-21-31-21-65-56-100-106V204c0-66 7-110 19-130 14-22 41-34 82-38V0H76v36c39 4 67 17 84 38 11 15 17 58 17 130v528c0 71-7 115-19 132-14 17-41 29-82 34v37h381z" horiz-adv-x="1706" unicode="m"/>
    <glyph id="glyph176" d="M457 935V723c62 97 116 161 163 193 47 31 92 47 135 47 37 0 67-11 89-35 23-22 34-55 34-97 0-45-11-79-32-104-22-25-48-37-79-37-35 0-66 11-92 34s-41 35-46 38c-7 4-14 6-23 6-19 0-38-7-55-22-27-23-48-55-62-97-21-65-32-136-32-214V220l1-56c0-38 2-62 7-73 8-18 20-31 35-39 16-9 43-14 80-16V0H75v36c41 3 68 14 83 34 14 18 21 69 21 150v517c0 53-3 87-8 102-7 19-16 32-29 41s-35 15-67 18v37h382z" horiz-adv-x="909" unicode="r"/>
    <glyph id="glyph178" d="m660 961 15-319h-34c-41 95-83 159-127 194-43 35-87 52-130 52-27 0-51-9-70-28-19-18-29-39-29-63 0-18 7-35 20-52 21-27 81-74 179-141 98-66 162-122 194-168 30-47 46-99 46-156 0-52-13-103-39-153S622 39 575 12 475-28 418-28c-45 0-104 14-179 42-20 7-34 11-41 11-22 0-40-17-55-50h-33L94 311h34c30-88 71-154 124-198 52-44 101-66 148-66 32 0 58 10 78 29 21 20 31 44 31 72 0 32-10 60-30 83s-65 59-134 106c-102 71-168 125-198 162-44 55-66 115-66 181 0 72 25 137 75 196 49 58 121 87 215 87 51 0 100-12 147-37 18-10 33-15 44-15 12 0 22 3 29 7 7 6 19 20 35 43h34z" horiz-adv-x="797" unicode="s"/>
    <glyph id="glyph180" d="M440 1277V935h222v-99H440V259c0-54 2-89 8-105 4-15 13-28 26-38 13-9 24-14 35-14 43 0 84 33 123 99l30-22C608 51 520-13 399-13c-59 0-109 17-151 49-40 34-67 70-78 111-7 23-10 84-10 184v505H38v35c84 59 156 122 214 187 60 65 111 138 155 219h33z" horiz-adv-x="682" unicode="t"/>
    <glyph id="glyph182" d="M498-38 196 655c-45 105-79 169-100 193-22 24-48 41-79 50v37h497v-37c-33-1-56-8-69-19s-20-25-20-41c0-25 17-75 50-150l160-366 109 283c39 101 59 171 59 210 0 25-8 44-25 59-16 15-45 23-86 24v37h313v-37c-31-3-56-15-75-36-19-20-52-89-97-207L566-38c-67-173-117-280-150-320-46-56-104-84-173-84-55 0-100 16-135 48-34 31-51 69-51 114 0 39 12 71 35 96 24 25 53 38 88 38 33 0 60-11 80-32 21-21 31-54 32-99 1-25 4-42 9-49s13-11 23-11c16 0 33 10 51 29 27 28 58 92 94 192l29 78z" horiz-adv-x="1024" unicode="y"/>
    <glyph id="glyph184" d="M1040 413H-17v121h1057V413z" horiz-adv-x="1024" unicode="–"/>
  </font>
  <font id="font206" horiz-adv-x="2048" horiz-origin-x="0" horiz-origin-y="0" vert-adv-y="1024" vert-origin-x="512" vert-origin-y="768">
    <font-face id="font-face188" font-family="'Times New Roman'" font-style="italic" underline-position="-223" underline-thickness="100" units-per-em="2048">
      <font-face-src>
        <font-face-name name="Times New Roman Italic"/>
      </font-face-src>
    </font-face>
    <glyph id="glyph192" d="M708 1384c85 0 157-36 216-107 58-71 87-184 87-338 0-132-22-267-65-404S842 279 763 178C700 99 635 41 566 6c-40-20-86-30-139-30-87 0-159 36-217 107-59 71-88 184-88 339 0 153 29 306 88 460 69 180 156 317 263 410 70 61 148 92 235 92m1-52c-39 0-78-15-117-46-40-30-81-93-124-189-42-96-82-220-121-371-50-198-75-367-75-506 0-69 15-121 45-156 30-34 66-51 109-51 41 0 75 13 104 40 77 72 142 195 197 369 89 285 133 516 133 694 0 74-15 128-45 164-30 34-65 52-106 52z" horiz-adv-x="1024" unicode="0"/>
    <glyph id="glyph194" d="M855 1384 533 263c-19-66-28-114-28-143 0-25 9-44 25-56 18-14 57-22 120-27L640 0H125l14 37c55 1 91 6 108 13 28 12 49 28 63 48 22 31 44 86 67 165l232 805c14 49 22 77 23 84 2 13 3 26 3 39 0 23-6 42-19 55s-30 20-52 20c-17 0-44-4-81-12l-13 36 337 94h48z" horiz-adv-x="1024" unicode="1"/>
    <glyph id="glyph196" d="M707 0H32v37c344 301 571 538 682 709 51 79 77 163 77 250 0 69-21 126-64 170-43 43-98 65-166 65-94 0-171-45-232-135l-35 16c34 86 84 153 149 200 65 48 136 72 212 72 86 0 158-30 217-88 59-60 88-131 88-215 0-59-10-113-31-163-32-78-91-165-177-262-131-148-305-318-523-511h340c55 0 100 11 135 34s61 53 76 91h40L707 0z" horiz-adv-x="1024" unicode="2"/>
    <glyph id="glyph198" d="M1076 1384v-39c-114-27-225-83-332-169-107-85-201-195-282-329 72 31 131 46 176 46 85 0 157-31 216-92 60-61 90-144 90-248 0-159-51-295-154-408S577-24 458-24C350-24 268 16 212 96c-55 79-83 171-83 276 0 137 32 272 95 404 63 134 149 248 258 343 108 95 220 166 337 211 69 27 155 45 257 54M414 763c-95-203-143-374-143-512 0-71 18-127 54-169 36-40 77-61 124-61 77 0 148 56 215 167 66 112 99 242 99 389 0 79-19 139-58 182s-85 64-140 64c-23 0-45-4-67-11-20-8-49-24-84-49z" horiz-adv-x="1024" unicode="6"/>
    <glyph id="glyph200" d="M397 1356h675v-34L312-24l-80 37 665 1184H575c-89 0-149-8-181-23-33-16-70-54-113-115h-41l157 297z" horiz-adv-x="1024" unicode="7"/>
    <glyph id="glyph202" d="M691 759c64-69 111-134 141-195 29-61 44-121 44-182 0-109-41-204-124-284C669 16 567-24 446-24 337-24 249 9 180 75 112 141 78 218 78 306c0 75 28 149 84 222 55 73 160 143 315 210-59 73-99 133-121 180-20 47-31 94-31 141 0 89 33 165 99 229 67 64 150 96 251 96 96 0 174-28 235-83s91-120 91-194c0-73-25-140-73-200-50-60-128-109-237-148m-39 42c72 25 128 65 168 121 39 56 59 120 59 193 0 68-19 121-57 161-39 38-89 58-151 58-59 0-107-19-144-56s-55-86-55-145c0-45 10-86 29-124 28-56 78-125 151-208M514 697c-99-41-174-101-226-179-50-79-76-163-76-253 0-73 22-131 68-175 44-45 104-67 177-67 76 0 140 27 192 80s78 117 78 191c0 56-15 115-45 176-31 62-87 138-168 227z" horiz-adv-x="1024" unicode="8"/>
    <glyph id="glyph204" d="M59-24V8c69 15 128 36 179 64 90 49 171 110 242 183 72 73 136 157 192 253-41-20-72-33-95-39s-48-9-76-9c-101 0-178 34-231 103s-80 149-80 240c0 159 52 296 156 410 103 114 213 171 330 171 106 0 187-40 244-120 57-79 85-172 85-279 0-135-31-269-94-401S763 338 656 243 436 77 318 31C248 4 162-15 59-24m663 615c94 191 141 361 141 511 0 73-18 129-53 169-36 40-78 60-125 60-79 0-151-55-215-165-66-110-98-241-98-392 0-80 18-140 56-182 36-40 83-61 139-61 25 0 49 4 70 11 21 8 50 24 85 49z" horiz-adv-x="1024" unicode="9"/>
  </font>
  <font id="font214" horiz-adv-x="2048" horiz-origin-x="0" horiz-origin-y="0" vert-adv-y="1024" vert-origin-x="512" vert-origin-y="768">
    <font-face id="font-face208" font-family="'Times New Roman'" font-style="italic" font-weight="bold" underline-position="-223" underline-thickness="195" units-per-em="2048">
      <font-face-src>
        <font-face-name name="Times New Roman Bold Italic"/>
      </font-face-src>
    </font-face>
    <glyph id="glyph212" d="m261 737 13 43c93 13 167 33 224 59 76 33 131 72 166 117s52 93 52 144c0 44-16 82-47 113s-70 47-117 47c-37 0-71-10-102-29s-65-53-102-101l-40 20c56 84 112 144 168 180 57 36 120 54 190 54 88 0 159-25 214-74 55-50 82-110 82-179 0-55-13-102-40-143s-66-76-118-106c-38-22-98-44-179-67 74-32 126-68 156-108 45-59 67-131 67-215 0-157-68-287-204-390C530 15 398-28 248-28c-80 0-140 15-181 45-28 21-42 48-42 82 0 31 11 56 32 76s48 30 79 30c16 0 31-3 46-10 25-11 63-33 114-67 51-35 93-52 126-52 41 0 78 21 109 63 46 62 69 140 69 233 0 73-15 136-44 191s-67 95-113 121c-46 27-107 44-182 53z" horiz-adv-x="1024" unicode="3"/>
  </font>
</svg>
