<?xml version="1.0" encoding="UTF-8" standalone="no"?>
<!DOCTYPE svg PUBLIC "-//W3C//DTD SVG 1.1//EN"
 "http://www.w3.org/Graphics/SVG/1.1/DTD/svg11.dtd">
<!-- Generated by graphviz version 2.47.3 (20210619.1520)
 -->
<!-- Title: dependencies Pages: 1 -->
<svg width="466pt" height="247pt"
 viewBox="0.00 0.00 466.00 246.80" xmlns="http://www.w3.org/2000/svg" xmlns:xlink="http://www.w3.org/1999/xlink">
<g id="graph0" class="graph" transform="scale(1 1) rotate(0) translate(4 242.8)">
<title>dependencies</title>
<polygon fill="white" stroke="transparent" points="-4,4 -4,-242.8 462,-242.8 462,4 -4,4"/>
<text text-anchor="middle" x="229" y="-8.2" font-family="sans-serif" font-size="14.00">dependencies</text>
<g id="clust1" class="cluster">
<title>cluster_EditionConvoluteModule</title>
<polygon fill="none" stroke="black" stroke-dasharray="1,5" points="8,-32.8 8,-230.8 450,-230.8 450,-32.8 8,-32.8"/>
</g>
<g id="clust4" class="cluster">
<title>cluster_EditionConvoluteModule_imports</title>
<polygon fill="none" stroke="black" points="220,-40.8 220,-92.8 442,-92.8 442,-40.8 220,-40.8"/>
</g>
<g id="clust5" class="cluster">
<title>cluster_EditionConvoluteModule_exports</title>
<polygon fill="none" stroke="black" points="177,-170.8 177,-222.8 377,-222.8 377,-170.8 177,-170.8"/>
</g>
<g id="clust2" class="cluster">
<title>cluster_EditionConvoluteModule_declarations</title>
<polygon fill="none" stroke="black" points="16,-40.8 16,-92.8 212,-92.8 212,-40.8 16,-40.8"/>
</g>
<!-- EditionConvoluteComponent -->
<g id="node1" class="node">
<title>EditionConvoluteComponent</title>
<polygon fill="#ffffb3" stroke="black" points="204.39,-84.8 23.61,-84.8 23.61,-48.8 204.39,-48.8 204.39,-84.8"/>
<text text-anchor="middle" x="114" y="-62.6" font-family="Times,serif" font-size="14.00">EditionConvoluteComponent</text>
</g>
<!-- EditionConvoluteModule -->
<g id="node2" class="node">
<title>EditionConvoluteModule</title>
<polygon fill="#8dd3c7" stroke="black" points="356.61,-149.8 353.61,-153.8 332.61,-153.8 329.61,-149.8 197.39,-149.8 197.39,-113.8 356.61,-113.8 356.61,-149.8"/>
<text text-anchor="middle" x="277" y="-127.6" font-family="Times,serif" font-size="14.00">EditionConvoluteModule</text>
</g>
<!-- EditionConvoluteComponent&#45;&gt;EditionConvoluteModule -->
<g id="edge1" class="edge">
<title>EditionConvoluteComponent&#45;&gt;EditionConvoluteModule</title>
<path fill="none" stroke="black" d="M191.13,-84.91C191.13,-104.14 191.13,-131.8 191.13,-131.8 191.13,-131.8 191.74,-131.8 191.74,-131.8"/>
<polygon fill="black" stroke="black" points="187.3,-135.3 197.3,-131.8 187.3,-128.3 187.3,-135.3"/>
</g>
<!-- EditionConvoluteComponent  -->
<g id="node5" class="node">
<title>EditionConvoluteComponent </title>
<polygon fill="#fb8072" stroke="black" points="369.39,-214.8 184.61,-214.8 184.61,-178.8 369.39,-178.8 369.39,-214.8"/>
<text text-anchor="middle" x="277" y="-192.6" font-family="Times,serif" font-size="14.00">EditionConvoluteComponent </text>
</g>
<!-- EditionConvoluteModule&#45;&gt;EditionConvoluteComponent  -->
<g id="edge4" class="edge">
<title>EditionConvoluteModule&#45;&gt;EditionConvoluteComponent </title>
<path fill="none" stroke="black" stroke-dasharray="5,2" d="M277,-149.91C277,-149.91 277,-168.79 277,-168.79"/>
<polygon fill="black" stroke="black" points="273.5,-168.79 277,-178.79 280.5,-168.79 273.5,-168.79"/>
</g>
<!-- FolioModule -->
<g id="node3" class="node">
<title>FolioModule</title>
<polygon fill="#8dd3c7" stroke="black" points="433.61,-84.8 430.61,-88.8 409.61,-88.8 406.61,-84.8 344.39,-84.8 344.39,-48.8 433.61,-48.8 433.61,-84.8"/>
<text text-anchor="middle" x="389" y="-62.6" font-family="Times,serif" font-size="14.00">FolioModule</text>
</g>
<!-- FolioModule&#45;&gt;EditionConvoluteModule -->
<g id="edge2" class="edge">
<title>FolioModule&#45;&gt;EditionConvoluteModule</title>
<path fill="none" stroke="black" d="M350.5,-84.91C350.5,-84.91 350.5,-103.79 350.5,-103.79"/>
<polygon fill="black" stroke="black" points="347,-103.79 350.5,-113.79 354,-103.79 347,-103.79"/>
</g>
<!-- SharedModule -->
<g id="node4" class="node">
<title>SharedModule</title>
<polygon fill="#8dd3c7" stroke="black" points="326.42,-84.8 323.42,-88.8 302.42,-88.8 299.42,-84.8 227.58,-84.8 227.58,-48.8 326.42,-48.8 326.42,-84.8"/>
<text text-anchor="middle" x="277" y="-62.6" font-family="Times,serif" font-size="14.00">SharedModule</text>
</g>
<!-- SharedModule&#45;&gt;EditionConvoluteModule -->
<g id="edge3" class="edge">
<title>SharedModule&#45;&gt;EditionConvoluteModule</title>
<path fill="none" stroke="black" d="M277,-84.91C277,-84.91 277,-103.79 277,-103.79"/>
<polygon fill="black" stroke="black" points="273.5,-103.79 277,-113.79 280.5,-103.79 273.5,-103.79"/>
</g>
</g>
</svg>
