<?xml version="1.0" encoding="UTF-8" standalone="no"?>
<!DOCTYPE svg PUBLIC "-//W3C//DTD SVG 1.1//EN"
 "http://www.w3.org/Graphics/SVG/1.1/DTD/svg11.dtd">
<!-- Generated by graphviz version 5.0.0 (20220707.1540)
 -->
<!-- Title: dependencies Pages: 1 -->
<svg width="578pt" height="247pt"
 viewBox="0.00 0.00 578.00 246.80" xmlns="http://www.w3.org/2000/svg" xmlns:xlink="http://www.w3.org/1999/xlink">
<g id="graph0" class="graph" transform="scale(1 1) rotate(0) translate(4 242.8)">
<title>dependencies</title>
<polygon fill="white" stroke="transparent" points="-4,4 -4,-242.8 574,-242.8 574,4 -4,4"/>
<text text-anchor="middle" x="285" y="-8.2" font-family="sans-serif" font-size="14.00">dependencies</text>
<g id="clust1" class="cluster">
<title>cluster_EditionConvoluteModule</title>
<polygon fill="none" stroke="black" stroke-dasharray="1,5" points="8,-32.8 8,-230.8 562,-230.8 562,-32.8 8,-32.8"/>
</g>
<g id="clust2" class="cluster">
<title>cluster_EditionConvoluteModule_declarations</title>
<polygon fill="none" stroke="black" points="358,-40.8 358,-92.8 554,-92.8 554,-40.8 358,-40.8"/>
</g>
<g id="clust4" class="cluster">
<title>cluster_EditionConvoluteModule_imports</title>
<polygon fill="none" stroke="black" points="16,-40.8 16,-92.8 350,-92.8 350,-40.8 16,-40.8"/>
</g>
<g id="clust5" class="cluster">
<title>cluster_EditionConvoluteModule_exports</title>
<polygon fill="none" stroke="black" points="141,-170.8 141,-222.8 341,-222.8 341,-170.8 141,-170.8"/>
</g>
<!-- EditionConvoluteComponent -->
<g id="node1" class="node">
<title>EditionConvoluteComponent</title>
<polygon fill="#ffffb3" stroke="black" points="546.38,-84.8 365.62,-84.8 365.62,-48.8 546.38,-48.8 546.38,-84.8"/>
<text text-anchor="middle" x="456" y="-62.6" font-family="Times,serif" font-size="14.00">EditionConvoluteComponent</text>
</g>
<!-- EditionConvoluteModule -->
<g id="node2" class="node">
<title>EditionConvoluteModule</title>
<polygon fill="#8dd3c7" stroke="black" points="320.6,-149.8 317.6,-153.8 296.6,-153.8 293.6,-149.8 161.4,-149.8 161.4,-113.8 320.6,-113.8 320.6,-149.8"/>
<text text-anchor="middle" x="241" y="-127.6" font-family="Times,serif" font-size="14.00">EditionConvoluteModule</text>
</g>
<!-- EditionConvoluteComponent&#45;&gt;EditionConvoluteModule -->
<g id="edge1" class="edge">
<title>EditionConvoluteComponent&#45;&gt;EditionConvoluteModule</title>
<path fill="none" stroke="black" d="M456,-84.91C456,-104.14 456,-131.8 456,-131.8 456,-131.8 330.75,-131.8 330.75,-131.8"/>
<polygon fill="black" stroke="black" points="330.75,-128.3 320.75,-131.8 330.75,-135.3 330.75,-128.3"/>
</g>
<!-- EditionConvoluteComponent  -->
<g id="node5" class="node">
<title>EditionConvoluteComponent </title>
<polygon fill="#fb8072" stroke="black" points="333.38,-214.8 148.62,-214.8 148.62,-178.8 333.38,-178.8 333.38,-214.8"/>
<text text-anchor="middle" x="241" y="-192.6" font-family="Times,serif" font-size="14.00">EditionConvoluteComponent </text>
</g>
<!-- EditionConvoluteModule&#45;&gt;EditionConvoluteComponent  -->
<g id="edge4" class="edge">
<title>EditionConvoluteModule&#45;&gt;EditionConvoluteComponent </title>
<path fill="none" stroke="black" stroke-dasharray="5,2" d="M241,-149.91C241,-149.91 241,-168.79 241,-168.79"/>
<polygon fill="black" stroke="black" points="237.5,-168.79 241,-178.79 244.5,-168.79 237.5,-168.79"/>
</g>
<!-- EditionFolioViewerFolioModule -->
<g id="node3" class="node">
<title>EditionFolioViewerFolioModule</title>
<polygon fill="#8dd3c7" stroke="black" points="341.6,-84.8 338.6,-88.8 317.6,-88.8 314.6,-84.8 140.4,-84.8 140.4,-48.8 341.6,-48.8 341.6,-84.8"/>
<text text-anchor="middle" x="241" y="-62.6" font-family="Times,serif" font-size="14.00">EditionFolioViewerFolioModule</text>
</g>
<!-- EditionFolioViewerFolioModule&#45;&gt;EditionConvoluteModule -->
<g id="edge2" class="edge">
<title>EditionFolioViewerFolioModule&#45;&gt;EditionConvoluteModule</title>
<path fill="none" stroke="black" d="M241,-84.91C241,-84.91 241,-103.79 241,-103.79"/>
<polygon fill="black" stroke="black" points="237.5,-103.79 241,-113.79 244.5,-103.79 237.5,-103.79"/>
</g>
<!-- SharedModule -->
<g id="node4" class="node">
<title>SharedModule</title>
<polygon fill="#8dd3c7" stroke="black" points="122.43,-84.8 119.43,-88.8 98.43,-88.8 95.43,-84.8 23.57,-84.8 23.57,-48.8 122.43,-48.8 122.43,-84.8"/>
<text text-anchor="middle" x="73" y="-62.6" font-family="Times,serif" font-size="14.00">SharedModule</text>
</g>
<!-- SharedModule&#45;&gt;EditionConvoluteModule -->
<g id="edge3" class="edge">
<title>SharedModule&#45;&gt;EditionConvoluteModule</title>
<path fill="none" stroke="black" d="M73,-84.91C73,-104.14 73,-131.8 73,-131.8 73,-131.8 151.43,-131.8 151.43,-131.8"/>
<polygon fill="black" stroke="black" points="151.43,-135.3 161.43,-131.8 151.43,-128.3 151.43,-135.3"/>
</g>
</g>
</svg>
