<?xml version="1.0" encoding="UTF-8" standalone="no"?>
<!DOCTYPE svg PUBLIC "-//W3C//DTD SVG 1.1//EN"
 "http://www.w3.org/Graphics/SVG/1.1/DTD/svg11.dtd">
<!-- Generated by graphviz version 2.47.3 (20210619.1520)
 -->
<!-- Title: dependencies Pages: 1 -->
<svg width="520pt" height="174pt"
 viewBox="0.00 0.00 520.00 173.80" xmlns="http://www.w3.org/2000/svg" xmlns:xlink="http://www.w3.org/1999/xlink">
<g id="graph0" class="graph" transform="scale(1 1) rotate(0) translate(4 169.8)">
<title>dependencies</title>
<polygon fill="white" stroke="transparent" points="-4,4 -4,-169.8 516,-169.8 516,4 -4,4"/>
<text text-anchor="middle" x="256" y="-8.2" font-family="sans-serif" font-size="14.00">dependencies</text>
<g id="clust1" class="cluster">
<title>cluster_FakeRouterModule</title>
<polygon fill="none" stroke="black" stroke-dasharray="1,5" points="8,-32.8 8,-157.8 504,-157.8 504,-32.8 8,-32.8"/>
</g>
<g id="clust5" class="cluster">
<title>cluster_FakeRouterModule_imports</title>
<polygon fill="none" stroke="black" points="396,-40.8 396,-92.8 496,-92.8 496,-40.8 396,-40.8"/>
</g>
<g id="clust2" class="cluster">
<title>cluster_FakeRouterModule_declarations</title>
<polygon fill="none" stroke="black" points="16,-40.8 16,-92.8 388,-92.8 388,-40.8 16,-40.8"/>
</g>
<!-- RouterLinkStubDirective -->
<g id="node1" class="node">
<title>RouterLinkStubDirective</title>
<polygon fill="#ffffb3" stroke="black" points="380.3,-84.8 221.7,-84.8 221.7,-48.8 380.3,-48.8 380.3,-84.8"/>
<text text-anchor="middle" x="301" y="-62.6" font-family="Times,serif" font-size="14.00">RouterLinkStubDirective</text>
</g>
<!-- FakeRouterModule -->
<g id="node3" class="node">
<title>FakeRouterModule</title>
<polygon fill="#8dd3c7" stroke="black" points="363.36,-149.8 360.36,-153.8 339.36,-153.8 336.36,-149.8 238.64,-149.8 238.64,-113.8 363.36,-113.8 363.36,-149.8"/>
<text text-anchor="middle" x="301" y="-127.6" font-family="Times,serif" font-size="14.00">FakeRouterModule</text>
</g>
<!-- RouterLinkStubDirective&#45;&gt;FakeRouterModule -->
<g id="edge1" class="edge">
<title>RouterLinkStubDirective&#45;&gt;FakeRouterModule</title>
<path fill="none" stroke="black" d="M301,-84.91C301,-84.91 301,-103.79 301,-103.79"/>
<polygon fill="black" stroke="black" points="297.5,-103.79 301,-113.79 304.5,-103.79 297.5,-103.79"/>
</g>
<!-- RouterOutletStubComponent -->
<g id="node2" class="node">
<title>RouterOutletStubComponent</title>
<polygon fill="#ffffb3" stroke="black" points="204.1,-84.8 23.9,-84.8 23.9,-48.8 204.1,-48.8 204.1,-84.8"/>
<text text-anchor="middle" x="114" y="-62.6" font-family="Times,serif" font-size="14.00">RouterOutletStubComponent</text>
</g>
<!-- RouterOutletStubComponent&#45;&gt;FakeRouterModule -->
<g id="edge2" class="edge">
<title>RouterOutletStubComponent&#45;&gt;FakeRouterModule</title>
<path fill="none" stroke="black" d="M114,-84.91C114,-104.14 114,-131.8 114,-131.8 114,-131.8 228.47,-131.8 228.47,-131.8"/>
<polygon fill="black" stroke="black" points="228.47,-135.3 238.47,-131.8 228.47,-128.3 228.47,-135.3"/>
</g>
<!-- AppModule -->
<g id="node4" class="node">
<title>AppModule</title>
<polygon fill="#8dd3c7" stroke="black" points="487.66,-84.8 484.66,-88.8 463.66,-88.8 460.66,-84.8 404.34,-84.8 404.34,-48.8 487.66,-48.8 487.66,-84.8"/>
<text text-anchor="middle" x="446" y="-62.6" font-family="Times,serif" font-size="14.00">AppModule</text>
</g>
<!-- AppModule&#45;&gt;FakeRouterModule -->
<g id="edge3" class="edge">
<title>AppModule&#45;&gt;FakeRouterModule</title>
<path fill="none" stroke="black" d="M446,-84.91C446,-104.14 446,-131.8 446,-131.8 446,-131.8 373.76,-131.8 373.76,-131.8"/>
<polygon fill="black" stroke="black" points="373.76,-128.3 363.76,-131.8 373.76,-135.3 373.76,-128.3"/>
</g>
</g>
</svg>
