<?xml version="1.0" encoding="UTF-8" standalone="no"?>
<!DOCTYPE svg PUBLIC "-//W3C//DTD SVG 1.1//EN"
 "http://www.w3.org/Graphics/SVG/1.1/DTD/svg11.dtd">
<!-- Generated by graphviz version 2.40.1 (20161225.0304)
 -->
<!-- Title: dependencies Pages: 1 -->
<svg width="520pt" height="211pt"
 viewBox="0.00 0.00 520.00 211.00" xmlns="http://www.w3.org/2000/svg" xmlns:xlink="http://www.w3.org/1999/xlink">
<g id="graph0" class="graph" transform="scale(1 1) rotate(0) translate(4 207)">
<title>dependencies</title>
<polygon fill="#ffffff" stroke="transparent" points="-4,4 -4,-207 516,-207 516,4 -4,4"/>
<text text-anchor="start" x="235.0091" y="-42.4" font-family="sans-serif" font-weight="bold" font-size="14.00" fill="#000000">Legend</text>
<polygon fill="#ffffb3" stroke="transparent" points="22,-10 22,-30 42,-30 42,-10 22,-10"/>
<text text-anchor="start" x="45.629" y="-15.4" font-family="sans-serif" font-size="14.00" fill="#000000"> &#160;Declarations</text>
<polygon fill="#8dd3c7" stroke="transparent" points="135,-10 135,-30 155,-30 155,-10 135,-10"/>
<text text-anchor="start" x="158.7251" y="-15.4" font-family="sans-serif" font-size="14.00" fill="#000000"> &#160;Module</text>
<polygon fill="#80b1d3" stroke="transparent" points="221,-10 221,-30 241,-30 241,-10 221,-10"/>
<text text-anchor="start" x="244.7812" y="-15.4" font-family="sans-serif" font-size="14.00" fill="#000000"> &#160;Bootstrap</text>
<polygon fill="#fdb462" stroke="transparent" points="318,-10 318,-30 338,-30 338,-10 318,-10"/>
<text text-anchor="start" x="341.6732" y="-15.4" font-family="sans-serif" font-size="14.00" fill="#000000"> &#160;Providers</text>
<polygon fill="#fb8072" stroke="transparent" points="414,-10 414,-30 434,-30 434,-10 414,-10"/>
<text text-anchor="start" x="437.7258" y="-15.4" font-family="sans-serif" font-size="14.00" fill="#000000"> &#160;Exports</text>
<g id="clust1" class="cluster">
<title>cluster_FakeRouterModule</title>
<polygon fill="none" stroke="#000000" stroke-dasharray="1,5" points="8,-70 8,-195 504,-195 504,-70 8,-70"/>
</g>
<g id="clust2" class="cluster">
<title>cluster_FakeRouterModule_declarations</title>
<polygon fill="none" stroke="#000000" points="124,-78 124,-130 496,-130 496,-78 124,-78"/>
</g>
<g id="clust5" class="cluster">
<title>cluster_FakeRouterModule_imports</title>
<polygon fill="none" stroke="#000000" points="16,-78 16,-130 116,-130 116,-78 16,-78"/>
</g>
<!-- RouterLinkStubDirective -->
<g id="node1" class="node">
<title>RouterLinkStubDirective</title>
<polygon fill="#ffffb3" stroke="#000000" points="488.3019,-122 329.6981,-122 329.6981,-86 488.3019,-86 488.3019,-122"/>
<text text-anchor="middle" x="409" y="-99.8" font-family="Times,serif" font-size="14.00" fill="#000000">RouterLinkStubDirective</text>
</g>
<!-- FakeRouterModule -->
<g id="node3" class="node">
<title>FakeRouterModule</title>
<polygon fill="#8dd3c7" stroke="#000000" points="284.3641,-187 281.3641,-191 260.3641,-191 257.3641,-187 159.6359,-187 159.6359,-151 284.3641,-151 284.3641,-187"/>
<text text-anchor="middle" x="222" y="-164.8" font-family="Times,serif" font-size="14.00" fill="#000000">FakeRouterModule</text>
</g>
<!-- RouterLinkStubDirective&#45;&gt;FakeRouterModule -->
<g id="edge1" class="edge">
<title>RouterLinkStubDirective&#45;&gt;FakeRouterModule</title>
<path fill="none" stroke="#000000" d="M409,-122.1061C409,-141.3391 409,-169 409,-169 409,-169 294.5283,-169 294.5283,-169"/>
<polygon fill="#000000" stroke="#000000" points="294.5283,-165.5001 284.5283,-169 294.5282,-172.5001 294.5283,-165.5001"/>
</g>
<!-- RouterOutletStubComponent -->
<g id="node2" class="node">
<title>RouterOutletStubComponent</title>
<polygon fill="#ffffb3" stroke="#000000" points="312.101,-122 131.899,-122 131.899,-86 312.101,-86 312.101,-122"/>
<text text-anchor="middle" x="222" y="-99.8" font-family="Times,serif" font-size="14.00" fill="#000000">RouterOutletStubComponent</text>
</g>
<!-- RouterOutletStubComponent&#45;&gt;FakeRouterModule -->
<g id="edge2" class="edge">
<title>RouterOutletStubComponent&#45;&gt;FakeRouterModule</title>
<path fill="none" stroke="#000000" d="M222,-122.1061C222,-122.1061 222,-140.991 222,-140.991"/>
<polygon fill="#000000" stroke="#000000" points="218.5001,-140.9909 222,-150.991 225.5001,-140.991 218.5001,-140.9909"/>
</g>
<!-- AppModule -->
<g id="node4" class="node">
<title>AppModule</title>
<polygon fill="#8dd3c7" stroke="#000000" points="107.6571,-122 104.6571,-126 83.6571,-126 80.6571,-122 24.3429,-122 24.3429,-86 107.6571,-86 107.6571,-122"/>
<text text-anchor="middle" x="66" y="-99.8" font-family="Times,serif" font-size="14.00" fill="#000000">AppModule</text>
</g>
<!-- AppModule&#45;&gt;FakeRouterModule -->
<g id="edge3" class="edge">
<title>AppModule&#45;&gt;FakeRouterModule</title>
<path fill="none" stroke="#000000" d="M66,-122.1061C66,-141.3391 66,-169 66,-169 66,-169 149.4477,-169 149.4477,-169"/>
<polygon fill="#000000" stroke="#000000" points="149.4477,-172.5001 159.4477,-169 149.4477,-165.5001 149.4477,-172.5001"/>
</g>
</g>
</svg>
