<?xml version="1.0" encoding="UTF-8" standalone="no"?>
<!DOCTYPE svg PUBLIC "-//W3C//DTD SVG 1.1//EN"
 "http://www.w3.org/Graphics/SVG/1.1/DTD/svg11.dtd">
<!-- Generated by graphviz version 2.47.0 (20210316.0004)
 -->
<!-- Title: dependencies Pages: 1 -->
<svg width="520pt" height="211pt"
 viewBox="0.00 0.00 520.00 211.00" xmlns="http://www.w3.org/2000/svg" xmlns:xlink="http://www.w3.org/1999/xlink">
<g id="graph0" class="graph" transform="scale(1 1) rotate(0) translate(4 207)">
<title>dependencies</title>
<polygon fill="white" stroke="transparent" points="-4,4 -4,-207 516,-207 516,4 -4,4"/>
<text text-anchor="start" x="235.01" y="-42.4" font-family="sans-serif" font-weight="bold" font-size="14.00">Legend</text>
<polygon fill="#ffffb3" stroke="transparent" points="22,-10 22,-30 42,-30 42,-10 22,-10"/>
<text text-anchor="start" x="45.63" y="-15.4" font-family="sans-serif" font-size="14.00"> &#160;Declarations</text>
<polygon fill="#8dd3c7" stroke="transparent" points="135,-10 135,-30 155,-30 155,-10 135,-10"/>
<text text-anchor="start" x="158.73" y="-15.4" font-family="sans-serif" font-size="14.00"> &#160;Module</text>
<polygon fill="#80b1d3" stroke="transparent" points="221,-10 221,-30 241,-30 241,-10 221,-10"/>
<text text-anchor="start" x="244.78" y="-15.4" font-family="sans-serif" font-size="14.00"> &#160;Bootstrap</text>
<polygon fill="#fdb462" stroke="transparent" points="318,-10 318,-30 338,-30 338,-10 318,-10"/>
<text text-anchor="start" x="341.67" y="-15.4" font-family="sans-serif" font-size="14.00"> &#160;Providers</text>
<polygon fill="#fb8072" stroke="transparent" points="414,-10 414,-30 434,-30 434,-10 414,-10"/>
<text text-anchor="start" x="437.73" y="-15.4" font-family="sans-serif" font-size="14.00"> &#160;Exports</text>
<g id="clust1" class="cluster">
<title>cluster_FakeRouterModule</title>
<polygon fill="none" stroke="black" stroke-dasharray="1,5" points="8,-70 8,-195 504,-195 504,-70 8,-70"/>
</g>
<g id="clust5" class="cluster">
<title>cluster_FakeRouterModule_imports</title>
<polygon fill="none" stroke="black" points="396,-78 396,-130 496,-130 496,-78 396,-78"/>
</g>
<g id="clust2" class="cluster">
<title>cluster_FakeRouterModule_declarations</title>
<polygon fill="none" stroke="black" points="16,-78 16,-130 388,-130 388,-78 16,-78"/>
</g>
<!-- RouterLinkStubDirective -->
<g id="node1" class="node">
<title>RouterLinkStubDirective</title>
<polygon fill="#ffffb3" stroke="black" points="380.3,-122 221.7,-122 221.7,-86 380.3,-86 380.3,-122"/>
<text text-anchor="middle" x="301" y="-99.8" font-family="Times,serif" font-size="14.00">RouterLinkStubDirective</text>
</g>
<!-- FakeRouterModule -->
<g id="node3" class="node">
<title>FakeRouterModule</title>
<polygon fill="#8dd3c7" stroke="black" points="363.36,-187 360.36,-191 339.36,-191 336.36,-187 238.64,-187 238.64,-151 363.36,-151 363.36,-187"/>
<text text-anchor="middle" x="301" y="-164.8" font-family="Times,serif" font-size="14.00">FakeRouterModule</text>
</g>
<!-- RouterLinkStubDirective&#45;&gt;FakeRouterModule -->
<g id="edge1" class="edge">
<title>RouterLinkStubDirective&#45;&gt;FakeRouterModule</title>
<path fill="none" stroke="black" d="M301,-122.11C301,-122.11 301,-140.99 301,-140.99"/>
<polygon fill="black" stroke="black" points="297.5,-140.99 301,-150.99 304.5,-140.99 297.5,-140.99"/>
</g>
<!-- RouterOutletStubComponent -->
<g id="node2" class="node">
<title>RouterOutletStubComponent</title>
<polygon fill="#ffffb3" stroke="black" points="204.1,-122 23.9,-122 23.9,-86 204.1,-86 204.1,-122"/>
<text text-anchor="middle" x="114" y="-99.8" font-family="Times,serif" font-size="14.00">RouterOutletStubComponent</text>
</g>
<!-- RouterOutletStubComponent&#45;&gt;FakeRouterModule -->
<g id="edge2" class="edge">
<title>RouterOutletStubComponent&#45;&gt;FakeRouterModule</title>
<path fill="none" stroke="black" d="M114,-122.11C114,-141.34 114,-169 114,-169 114,-169 228.47,-169 228.47,-169"/>
<polygon fill="black" stroke="black" points="228.47,-172.5 238.47,-169 228.47,-165.5 228.47,-172.5"/>
</g>
<!-- AppModule -->
<g id="node4" class="node">
<title>AppModule</title>
<polygon fill="#8dd3c7" stroke="black" points="487.66,-122 484.66,-126 463.66,-126 460.66,-122 404.34,-122 404.34,-86 487.66,-86 487.66,-122"/>
<text text-anchor="middle" x="446" y="-99.8" font-family="Times,serif" font-size="14.00">AppModule</text>
</g>
<!-- AppModule&#45;&gt;FakeRouterModule -->
<g id="edge3" class="edge">
<title>AppModule&#45;&gt;FakeRouterModule</title>
<path fill="none" stroke="black" d="M446,-122.11C446,-141.34 446,-169 446,-169 446,-169 373.76,-169 373.76,-169"/>
<polygon fill="black" stroke="black" points="373.76,-165.5 363.76,-169 373.76,-172.5 373.76,-165.5"/>
</g>
</g>
</svg>
