<?xml version="1.0" encoding="UTF-8" standalone="no"?>
<!DOCTYPE svg PUBLIC "-//W3C//DTD SVG 1.1//EN"
 "http://www.w3.org/Graphics/SVG/1.1/DTD/svg11.dtd">
<!-- Generated by graphviz version 2.47.3 (20210619.1520)
 -->
<!-- Title: dependencies Pages: 1 -->
<svg width="520pt" height="247pt"
 viewBox="0.00 0.00 520.00 246.80" xmlns="http://www.w3.org/2000/svg" xmlns:xlink="http://www.w3.org/1999/xlink">
<g id="graph0" class="graph" transform="scale(1 1) rotate(0) translate(4 242.8)">
<title>dependencies</title>
<polygon fill="white" stroke="transparent" points="-4,4 -4,-242.8 516,-242.8 516,4 -4,4"/>
<text text-anchor="middle" x="256" y="-8.2" font-family="sans-serif" font-size="14.00">dependencies</text>
<g id="clust1" class="cluster">
<title>cluster_FakeRouterModule</title>
<polygon fill="none" stroke="black" stroke-dasharray="1,5" points="8,-32.8 8,-230.8 504,-230.8 504,-32.8 8,-32.8"/>
</g>
<g id="clust2" class="cluster">
<title>cluster_FakeRouterModule_declarations</title>
<polygon fill="none" stroke="black" points="124,-40.8 124,-92.8 496,-92.8 496,-40.8 124,-40.8"/>
</g>
<g id="clust6" class="cluster">
<title>cluster_FakeRouterModule_exports</title>
<polygon fill="none" stroke="black" points="122,-170.8 122,-222.8 322,-222.8 322,-170.8 122,-170.8"/>
</g>
<g id="clust5" class="cluster">
<title>cluster_FakeRouterModule_imports</title>
<polygon fill="none" stroke="black" points="16,-40.8 16,-92.8 116,-92.8 116,-40.8 16,-40.8"/>
</g>
<!-- RouterLinkStubDirective -->
<g id="node1" class="node">
<title>RouterLinkStubDirective</title>
<polygon fill="#ffffb3" stroke="black" points="488.3,-84.8 329.7,-84.8 329.7,-48.8 488.3,-48.8 488.3,-84.8"/>
<text text-anchor="middle" x="409" y="-62.6" font-family="Times,serif" font-size="14.00">RouterLinkStubDirective</text>
</g>
<!-- FakeRouterModule -->
<g id="node3" class="node">
<title>FakeRouterModule</title>
<polygon fill="#8dd3c7" stroke="black" points="284.36,-149.8 281.36,-153.8 260.36,-153.8 257.36,-149.8 159.64,-149.8 159.64,-113.8 284.36,-113.8 284.36,-149.8"/>
<text text-anchor="middle" x="222" y="-127.6" font-family="Times,serif" font-size="14.00">FakeRouterModule</text>
</g>
<!-- RouterLinkStubDirective&#45;&gt;FakeRouterModule -->
<g id="edge1" class="edge">
<title>RouterLinkStubDirective&#45;&gt;FakeRouterModule</title>
<path fill="none" stroke="black" d="M409,-84.91C409,-104.14 409,-131.8 409,-131.8 409,-131.8 294.53,-131.8 294.53,-131.8"/>
<polygon fill="black" stroke="black" points="294.53,-128.3 284.53,-131.8 294.53,-135.3 294.53,-128.3"/>
</g>
<!-- RouterOutletStubComponent -->
<g id="node2" class="node">
<title>RouterOutletStubComponent</title>
<polygon fill="#ffffb3" stroke="black" points="312.1,-84.8 131.9,-84.8 131.9,-48.8 312.1,-48.8 312.1,-84.8"/>
<text text-anchor="middle" x="222" y="-62.6" font-family="Times,serif" font-size="14.00">RouterOutletStubComponent</text>
</g>
<!-- RouterOutletStubComponent&#45;&gt;FakeRouterModule -->
<g id="edge2" class="edge">
<title>RouterOutletStubComponent&#45;&gt;FakeRouterModule</title>
<path fill="none" stroke="black" d="M222,-84.91C222,-84.91 222,-103.79 222,-103.79"/>
<polygon fill="black" stroke="black" points="218.5,-103.79 222,-113.79 225.5,-103.79 218.5,-103.79"/>
</g>
<!-- RouterOutletStubComponent  -->
<g id="node5" class="node">
<title>RouterOutletStubComponent </title>
<polygon fill="#fb8072" stroke="black" points="313.6,-214.8 130.4,-214.8 130.4,-178.8 313.6,-178.8 313.6,-214.8"/>
<text text-anchor="middle" x="222" y="-192.6" font-family="Times,serif" font-size="14.00">RouterOutletStubComponent </text>
</g>
<!-- FakeRouterModule&#45;&gt;RouterOutletStubComponent  -->
<g id="edge4" class="edge">
<title>FakeRouterModule&#45;&gt;RouterOutletStubComponent </title>
<path fill="none" stroke="black" stroke-dasharray="5,2" d="M222,-149.91C222,-149.91 222,-168.79 222,-168.79"/>
<polygon fill="black" stroke="black" points="218.5,-168.79 222,-178.79 225.5,-168.79 218.5,-168.79"/>
</g>
<!-- AppModule -->
<g id="node4" class="node">
<title>AppModule</title>
<polygon fill="#8dd3c7" stroke="black" points="107.66,-84.8 104.66,-88.8 83.66,-88.8 80.66,-84.8 24.34,-84.8 24.34,-48.8 107.66,-48.8 107.66,-84.8"/>
<text text-anchor="middle" x="66" y="-62.6" font-family="Times,serif" font-size="14.00">AppModule</text>
</g>
<!-- AppModule&#45;&gt;FakeRouterModule -->
<g id="edge3" class="edge">
<title>AppModule&#45;&gt;FakeRouterModule</title>
<path fill="none" stroke="black" d="M66,-84.91C66,-104.14 66,-131.8 66,-131.8 66,-131.8 149.45,-131.8 149.45,-131.8"/>
<polygon fill="black" stroke="black" points="149.45,-135.3 159.45,-131.8 149.45,-128.3 149.45,-135.3"/>
</g>
</g>
</svg>
