<?xml version="1.0" encoding="UTF-8" standalone="no"?>
<!DOCTYPE svg PUBLIC "-//W3C//DTD SVG 1.1//EN"
 "http://www.w3.org/Graphics/SVG/1.1/DTD/svg11.dtd">
<!-- Generated by graphviz version 2.47.3 (20210619.1520)
 -->
<!-- Title: dependencies Pages: 1 -->
<svg width="2074pt" height="247pt"
 viewBox="0.00 0.00 2074.00 246.80" xmlns="http://www.w3.org/2000/svg" xmlns:xlink="http://www.w3.org/1999/xlink">
<g id="graph0" class="graph" transform="scale(1 1) rotate(0) translate(4 242.8)">
<title>dependencies</title>
<polygon fill="white" stroke="transparent" points="-4,4 -4,-242.8 2070,-242.8 2070,4 -4,4"/>
<text text-anchor="middle" x="1033" y="-8.2" font-family="sans-serif" font-size="14.00">dependencies</text>
<g id="clust1" class="cluster">
<title>cluster_SharedModule</title>
<polygon fill="none" stroke="black" stroke-dasharray="1,5" points="8,-32.8 8,-230.8 2058,-230.8 2058,-32.8 8,-32.8"/>
</g>
<g id="clust14" class="cluster">
<title>cluster_SharedModule_exports</title>
<polygon fill="none" stroke="black" points="16,-170.8 16,-222.8 2050,-222.8 2050,-170.8 16,-170.8"/>
</g>
<g id="clust2" class="cluster">
<title>cluster_SharedModule_declarations</title>
<polygon fill="none" stroke="black" points="380,-40.8 380,-92.8 2033,-92.8 2033,-40.8 380,-40.8"/>
</g>
<g id="clust13" class="cluster">
<title>cluster_SharedModule_imports</title>
<polygon fill="none" stroke="black" points="34,-40.8 34,-92.8 372,-92.8 372,-40.8 34,-40.8"/>
</g>
<!-- AddressComponent -->
<g id="node1" class="node">
<title>AddressComponent</title>
<polygon fill="#ffffb3" stroke="black" points="2024.7,-84.8 1897.3,-84.8 1897.3,-48.8 2024.7,-48.8 2024.7,-84.8"/>
<text text-anchor="middle" x="1961" y="-62.6" font-family="Times,serif" font-size="14.00">AddressComponent</text>
</g>
<!-- SharedModule -->
<g id="node11" class="node">
<title>SharedModule</title>
<polygon fill="#8dd3c7" stroke="black" points="1155.42,-149.8 1152.42,-153.8 1131.42,-153.8 1128.42,-149.8 1056.58,-149.8 1056.58,-113.8 1155.42,-113.8 1155.42,-149.8"/>
<text text-anchor="middle" x="1106" y="-127.6" font-family="Times,serif" font-size="14.00">SharedModule</text>
</g>
<!-- AddressComponent&#45;&gt;SharedModule -->
<g id="edge1" class="edge">
<title>AddressComponent&#45;&gt;SharedModule</title>
<path fill="none" stroke="black" d="M1904.52,-84.97C1904.52,-103.89 1904.52,-130.8 1904.52,-130.8 1904.52,-130.8 1165.35,-130.8 1165.35,-130.8"/>
<polygon fill="black" stroke="black" points="1165.35,-127.3 1155.35,-130.8 1165.35,-134.3 1165.35,-127.3"/>
</g>
<!-- ExternalLinkDirective -->
<g id="node2" class="node">
<title>ExternalLinkDirective</title>
<polygon fill="#ffffb3" stroke="black" points="1878.95,-84.8 1737.05,-84.8 1737.05,-48.8 1878.95,-48.8 1878.95,-84.8"/>
<text text-anchor="middle" x="1808" y="-62.6" font-family="Times,serif" font-size="14.00">ExternalLinkDirective</text>
</g>
<!-- ExternalLinkDirective&#45;&gt;SharedModule -->
<g id="edge2" class="edge">
<title>ExternalLinkDirective&#45;&gt;SharedModule</title>
<path fill="none" stroke="black" d="M1745.5,-85.1C1745.5,-103.07 1745.5,-127.8 1745.5,-127.8 1745.5,-127.8 1165.38,-127.8 1165.38,-127.8"/>
<polygon fill="black" stroke="black" points="1165.38,-124.3 1155.38,-127.8 1165.38,-131.3 1165.38,-124.3"/>
</g>
<!-- HeadingComponent -->
<g id="node3" class="node">
<title>HeadingComponent</title>
<polygon fill="#ffffb3" stroke="black" points="1719.26,-84.8 1590.74,-84.8 1590.74,-48.8 1719.26,-48.8 1719.26,-84.8"/>
<text text-anchor="middle" x="1655" y="-62.6" font-family="Times,serif" font-size="14.00">HeadingComponent</text>
</g>
<!-- HeadingComponent&#45;&gt;SharedModule -->
<g id="edge3" class="edge">
<title>HeadingComponent&#45;&gt;SharedModule</title>
<path fill="none" stroke="black" d="M1676.46,-84.84C1676.46,-101.53 1676.46,-123.8 1676.46,-123.8 1676.46,-123.8 1165.63,-123.8 1165.63,-123.8"/>
<polygon fill="black" stroke="black" points="1165.63,-120.3 1155.63,-123.8 1165.63,-127.3 1165.63,-120.3"/>
</g>
<!-- JsonViewerComponent -->
<g id="node4" class="node">
<title>JsonViewerComponent</title>
<polygon fill="#ffffb3" stroke="black" points="1572.92,-84.8 1425.08,-84.8 1425.08,-48.8 1572.92,-48.8 1572.92,-84.8"/>
<text text-anchor="middle" x="1499" y="-62.6" font-family="Times,serif" font-size="14.00">JsonViewerComponent</text>
</g>
<!-- JsonViewerComponent&#45;&gt;SharedModule -->
<g id="edge4" class="edge">
<title>JsonViewerComponent&#45;&gt;SharedModule</title>
<path fill="none" stroke="black" d="M1432.58,-85.08C1432.58,-100.75 1432.58,-120.8 1432.58,-120.8 1432.58,-120.8 1165.25,-120.8 1165.25,-120.8"/>
<polygon fill="black" stroke="black" points="1165.25,-117.3 1155.25,-120.8 1165.25,-124.3 1165.25,-117.3"/>
</g>
<!-- ModalComponent -->
<g id="node5" class="node">
<title>ModalComponent</title>
<polygon fill="#ffffb3" stroke="black" points="1406.88,-84.8 1289.12,-84.8 1289.12,-48.8 1406.88,-48.8 1406.88,-84.8"/>
<text text-anchor="middle" x="1348" y="-62.6" font-family="Times,serif" font-size="14.00">ModalComponent</text>
</g>
<!-- ModalComponent&#45;&gt;SharedModule -->
<g id="edge5" class="edge">
<title>ModalComponent&#45;&gt;SharedModule</title>
<path fill="none" stroke="black" d="M1348,-84.92C1348,-99.58 1348,-117.8 1348,-117.8 1348,-117.8 1165.26,-117.8 1165.26,-117.8"/>
<polygon fill="black" stroke="black" points="1165.26,-114.3 1155.26,-117.8 1165.26,-121.3 1165.26,-114.3"/>
</g>
<!-- OpenStreetMapComponent -->
<g id="node6" class="node">
<title>OpenStreetMapComponent</title>
<polygon fill="#ffffb3" stroke="black" points="1270.97,-84.8 1101.03,-84.8 1101.03,-48.8 1270.97,-48.8 1270.97,-84.8"/>
<text text-anchor="middle" x="1186" y="-62.6" font-family="Times,serif" font-size="14.00">OpenStreetMapComponent</text>
</g>
<!-- OpenStreetMapComponent&#45;&gt;SharedModule -->
<g id="edge6" class="edge">
<title>OpenStreetMapComponent&#45;&gt;SharedModule</title>
<path fill="none" stroke="black" d="M1128.11,-84.91C1128.11,-84.91 1128.11,-103.79 1128.11,-103.79"/>
<polygon fill="black" stroke="black" points="1124.61,-103.79 1128.11,-113.79 1131.61,-103.79 1124.61,-103.79"/>
</g>
<!-- RouterLinkButtonGroupComponent -->
<g id="node7" class="node">
<title>RouterLinkButtonGroupComponent</title>
<polygon fill="#ffffb3" stroke="black" points="1082.76,-84.8 863.24,-84.8 863.24,-48.8 1082.76,-48.8 1082.76,-84.8"/>
<text text-anchor="middle" x="973" y="-62.6" font-family="Times,serif" font-size="14.00">RouterLinkButtonGroupComponent</text>
</g>
<!-- RouterLinkButtonGroupComponent&#45;&gt;SharedModule -->
<g id="edge7" class="edge">
<title>RouterLinkButtonGroupComponent&#45;&gt;SharedModule</title>
<path fill="none" stroke="black" d="M1069.84,-84.91C1069.84,-84.91 1069.84,-103.79 1069.84,-103.79"/>
<polygon fill="black" stroke="black" points="1066.34,-103.79 1069.84,-113.79 1073.34,-103.79 1066.34,-103.79"/>
</g>
<!-- TableComponent -->
<g id="node8" class="node">
<title>TableComponent</title>
<polygon fill="#ffffb3" stroke="black" points="845.7,-84.8 732.3,-84.8 732.3,-48.8 845.7,-48.8 845.7,-84.8"/>
<text text-anchor="middle" x="789" y="-62.6" font-family="Times,serif" font-size="14.00">TableComponent</text>
</g>
<!-- TableComponent&#45;&gt;SharedModule -->
<g id="edge8" class="edge">
<title>TableComponent&#45;&gt;SharedModule</title>
<path fill="none" stroke="black" d="M789,-84.92C789,-99.58 789,-117.8 789,-117.8 789,-117.8 1046.47,-117.8 1046.47,-117.8"/>
<polygon fill="black" stroke="black" points="1046.47,-121.3 1056.47,-117.8 1046.47,-114.3 1046.47,-121.3"/>
</g>
<!-- ToastComponent -->
<g id="node9" class="node">
<title>ToastComponent</title>
<polygon fill="#ffffb3" stroke="black" points="714.44,-84.8 601.56,-84.8 601.56,-48.8 714.44,-48.8 714.44,-84.8"/>
<text text-anchor="middle" x="658" y="-62.6" font-family="Times,serif" font-size="14.00">ToastComponent</text>
</g>
<!-- ToastComponent&#45;&gt;SharedModule -->
<g id="edge9" class="edge">
<title>ToastComponent&#45;&gt;SharedModule</title>
<path fill="none" stroke="black" d="M706.79,-85.08C706.79,-100.75 706.79,-120.8 706.79,-120.8 706.79,-120.8 1046.65,-120.8 1046.65,-120.8"/>
<polygon fill="black" stroke="black" points="1046.65,-124.3 1056.65,-120.8 1046.65,-117.3 1046.65,-124.3"/>
</g>
<!-- TwelveToneSpinnerComponent -->
<g id="node10" class="node">
<title>TwelveToneSpinnerComponent</title>
<polygon fill="#ffffb3" stroke="black" points="583.63,-84.8 388.37,-84.8 388.37,-48.8 583.63,-48.8 583.63,-84.8"/>
<text text-anchor="middle" x="486" y="-62.6" font-family="Times,serif" font-size="14.00">TwelveToneSpinnerComponent</text>
</g>
<!-- TwelveToneSpinnerComponent&#45;&gt;SharedModule -->
<g id="edge10" class="edge">
<title>TwelveToneSpinnerComponent&#45;&gt;SharedModule</title>
<path fill="none" stroke="black" d="M547.12,-84.84C547.12,-101.53 547.12,-123.8 547.12,-123.8 547.12,-123.8 1046.4,-123.8 1046.4,-123.8"/>
<polygon fill="black" stroke="black" points="1046.4,-127.3 1056.4,-123.8 1046.4,-120.3 1046.4,-127.3"/>
</g>
<!-- AddressComponent  -->
<g id="node14" class="node">
<title>AddressComponent </title>
<polygon fill="#fb8072" stroke="black" points="2042.2,-214.8 1911.8,-214.8 1911.8,-178.8 2042.2,-178.8 2042.2,-214.8"/>
<text text-anchor="middle" x="1977" y="-192.6" font-family="Times,serif" font-size="14.00">AddressComponent </text>
</g>
<!-- SharedModule&#45;&gt;AddressComponent  -->
<g id="edge13" class="edge">
<title>SharedModule&#45;&gt;AddressComponent </title>
<path fill="none" stroke="black" stroke-dasharray="5,2" d="M1155.45,-133.8C1338.64,-133.8 1968.12,-133.8 1968.12,-133.8 1968.12,-133.8 1968.12,-168.58 1968.12,-168.58"/>
<polygon fill="black" stroke="black" points="1964.63,-168.58 1968.12,-178.58 1971.63,-168.58 1964.63,-168.58"/>
</g>
<!-- CompileHtmlModule  -->
<g id="node15" class="node">
<title>CompileHtmlModule </title>
<polygon fill="#fb8072" stroke="black" points="1894.05,-214.8 1753.95,-214.8 1753.95,-178.8 1894.05,-178.8 1894.05,-214.8"/>
<text text-anchor="middle" x="1824" y="-192.6" font-family="Times,serif" font-size="14.00">CompileHtmlModule </text>
</g>
<!-- SharedModule&#45;&gt;CompileHtmlModule  -->
<g id="edge14" class="edge">
<title>SharedModule&#45;&gt;CompileHtmlModule </title>
<path fill="none" stroke="black" stroke-dasharray="5,2" d="M1155.4,-136.8C1316.51,-136.8 1816.47,-136.8 1816.47,-136.8 1816.47,-136.8 1816.47,-168.8 1816.47,-168.8"/>
<polygon fill="black" stroke="black" points="1812.97,-168.8 1816.47,-178.8 1819.97,-168.8 1812.97,-168.8"/>
</g>
<!-- ExternalLinkDirective  -->
<g id="node16" class="node">
<title>ExternalLinkDirective </title>
<polygon fill="#fb8072" stroke="black" points="1735.95,-214.8 1590.05,-214.8 1590.05,-178.8 1735.95,-178.8 1735.95,-214.8"/>
<text text-anchor="middle" x="1663" y="-192.6" font-family="Times,serif" font-size="14.00">ExternalLinkDirective </text>
</g>
<!-- SharedModule&#45;&gt;ExternalLinkDirective  -->
<g id="edge15" class="edge">
<title>SharedModule&#45;&gt;ExternalLinkDirective </title>
<path fill="none" stroke="black" stroke-dasharray="5,2" d="M1155.63,-140.8C1286.95,-140.8 1633.54,-140.8 1633.54,-140.8 1633.54,-140.8 1633.54,-168.77 1633.54,-168.77"/>
<polygon fill="black" stroke="black" points="1630.04,-168.77 1633.54,-178.77 1637.04,-168.77 1630.04,-168.77"/>
</g>
<!-- HeadingComponent  -->
<g id="node17" class="node">
<title>HeadingComponent </title>
<polygon fill="#fb8072" stroke="black" points="1572.26,-214.8 1439.74,-214.8 1439.74,-178.8 1572.26,-178.8 1572.26,-214.8"/>
<text text-anchor="middle" x="1506" y="-192.6" font-family="Times,serif" font-size="14.00">HeadingComponent </text>
</g>
<!-- SharedModule&#45;&gt;HeadingComponent  -->
<g id="edge16" class="edge">
<title>SharedModule&#45;&gt;HeadingComponent </title>
<path fill="none" stroke="black" stroke-dasharray="5,2" d="M1155.45,-143.8C1262.47,-143.8 1506,-143.8 1506,-143.8 1506,-143.8 1506,-168.56 1506,-168.56"/>
<polygon fill="black" stroke="black" points="1502.5,-168.56 1506,-178.56 1509.5,-168.56 1502.5,-168.56"/>
</g>
<!-- JsonViewerComponent  -->
<g id="node18" class="node">
<title>JsonViewerComponent </title>
<polygon fill="#fb8072" stroke="black" points="1421.42,-214.8 1270.58,-214.8 1270.58,-178.8 1421.42,-178.8 1421.42,-214.8"/>
<text text-anchor="middle" x="1346" y="-192.6" font-family="Times,serif" font-size="14.00">JsonViewerComponent </text>
</g>
<!-- SharedModule&#45;&gt;JsonViewerComponent  -->
<g id="edge17" class="edge">
<title>SharedModule&#45;&gt;JsonViewerComponent </title>
<path fill="none" stroke="black" stroke-dasharray="5,2" d="M1155.4,-146.8C1206.85,-146.8 1280.02,-146.8 1280.02,-146.8 1280.02,-146.8 1280.02,-168.75 1280.02,-168.75"/>
<polygon fill="black" stroke="black" points="1276.52,-168.75 1280.02,-178.75 1283.52,-168.75 1276.52,-168.75"/>
</g>
<!-- ModalComponent  -->
<g id="node19" class="node">
<title>ModalComponent </title>
<polygon fill="#fb8072" stroke="black" points="1252.88,-214.8 1131.12,-214.8 1131.12,-178.8 1252.88,-178.8 1252.88,-214.8"/>
<text text-anchor="middle" x="1192" y="-192.6" font-family="Times,serif" font-size="14.00">ModalComponent </text>
</g>
<!-- SharedModule&#45;&gt;ModalComponent  -->
<g id="edge18" class="edge">
<title>SharedModule&#45;&gt;ModalComponent </title>
<path fill="none" stroke="black" stroke-dasharray="5,2" d="M1143.26,-149.91C1143.26,-149.91 1143.26,-168.79 1143.26,-168.79"/>
<polygon fill="black" stroke="black" points="1139.76,-168.79 1143.26,-178.79 1146.76,-168.79 1139.76,-168.79"/>
</g>
<!-- OpenStreetMapComponent  -->
<g id="node20" class="node">
<title>OpenStreetMapComponent </title>
<polygon fill="#fb8072" stroke="black" points="1113.97,-214.8 940.03,-214.8 940.03,-178.8 1113.97,-178.8 1113.97,-214.8"/>
<text text-anchor="middle" x="1027" y="-192.6" font-family="Times,serif" font-size="14.00">OpenStreetMapComponent </text>
</g>
<!-- SharedModule&#45;&gt;OpenStreetMapComponent  -->
<g id="edge19" class="edge">
<title>SharedModule&#45;&gt;OpenStreetMapComponent </title>
<path fill="none" stroke="black" stroke-dasharray="5,2" d="M1085.26,-149.91C1085.26,-149.91 1085.26,-168.79 1085.26,-168.79"/>
<polygon fill="black" stroke="black" points="1081.76,-168.79 1085.26,-178.79 1088.76,-168.79 1081.76,-168.79"/>
</g>
<!-- RouterLinkButtonGroupComponent  -->
<g id="node21" class="node">
<title>RouterLinkButtonGroupComponent </title>
<polygon fill="#fb8072" stroke="black" points="922.76,-214.8 699.24,-214.8 699.24,-178.8 922.76,-178.8 922.76,-214.8"/>
<text text-anchor="middle" x="811" y="-192.6" font-family="Times,serif" font-size="14.00">RouterLinkButtonGroupComponent </text>
</g>
<!-- SharedModule&#45;&gt;RouterLinkButtonGroupComponent  -->
<g id="edge20" class="edge">
<title>SharedModule&#45;&gt;RouterLinkButtonGroupComponent </title>
<path fill="none" stroke="black" stroke-dasharray="5,2" d="M1056.57,-146.8C993.61,-146.8 892.88,-146.8 892.88,-146.8 892.88,-146.8 892.88,-168.75 892.88,-168.75"/>
<polygon fill="black" stroke="black" points="889.38,-168.75 892.88,-178.75 896.38,-168.75 889.38,-168.75"/>
</g>
<!-- SharedNgbootstrapModule  -->
<g id="node22" class="node">
<title>SharedNgbootstrapModule </title>
<polygon fill="#fb8072" stroke="black" points="681.63,-214.8 510.37,-214.8 510.37,-178.8 681.63,-178.8 681.63,-214.8"/>
<text text-anchor="middle" x="596" y="-192.6" font-family="Times,serif" font-size="14.00">SharedNgbootstrapModule </text>
</g>
<!-- SharedModule&#45;&gt;SharedNgbootstrapModule  -->
<g id="edge21" class="edge">
<title>SharedModule&#45;&gt;SharedNgbootstrapModule </title>
<path fill="none" stroke="black" stroke-dasharray="5,2" d="M1056.75,-143.8C937.25,-143.8 641.67,-143.8 641.67,-143.8 641.67,-143.8 641.67,-168.56 641.67,-168.56"/>
<polygon fill="black" stroke="black" points="638.17,-168.56 641.67,-178.56 645.17,-168.56 638.17,-168.56"/>
</g>
<!-- TableComponent  -->
<g id="node23" class="node">
<title>TableComponent </title>
<polygon fill="#fb8072" stroke="black" points="492.21,-214.8 375.79,-214.8 375.79,-178.8 492.21,-178.8 492.21,-214.8"/>
<text text-anchor="middle" x="434" y="-192.6" font-family="Times,serif" font-size="14.00">TableComponent </text>
</g>
<!-- SharedModule&#45;&gt;TableComponent  -->
<g id="edge22" class="edge">
<title>SharedModule&#45;&gt;TableComponent </title>
<path fill="none" stroke="black" stroke-dasharray="5,2" d="M1056.78,-140.8C902.76,-140.8 440.27,-140.8 440.27,-140.8 440.27,-140.8 440.27,-168.77 440.27,-168.77"/>
<polygon fill="black" stroke="black" points="436.77,-168.77 440.27,-178.77 443.77,-168.77 436.77,-168.77"/>
</g>
<!-- ToastComponent  -->
<g id="node24" class="node">
<title>ToastComponent </title>
<polygon fill="#fb8072" stroke="black" points="357.93,-214.8 242.07,-214.8 242.07,-178.8 357.93,-178.8 357.93,-214.8"/>
<text text-anchor="middle" x="300" y="-192.6" font-family="Times,serif" font-size="14.00">ToastComponent </text>
</g>
<!-- SharedModule&#45;&gt;ToastComponent  -->
<g id="edge23" class="edge">
<title>SharedModule&#45;&gt;ToastComponent </title>
<path fill="none" stroke="black" stroke-dasharray="5,2" d="M1056.49,-136.8C883.92,-136.8 319.32,-136.8 319.32,-136.8 319.32,-136.8 319.32,-168.8 319.32,-168.8"/>
<polygon fill="black" stroke="black" points="315.82,-168.8 319.32,-178.8 322.82,-168.8 315.82,-168.8"/>
</g>
<!-- TwelveToneSpinnerComponent  -->
<g id="node25" class="node">
<title>TwelveToneSpinnerComponent </title>
<polygon fill="#fb8072" stroke="black" points="223.63,-214.8 24.37,-214.8 24.37,-178.8 223.63,-178.8 223.63,-214.8"/>
<text text-anchor="middle" x="124" y="-192.6" font-family="Times,serif" font-size="14.00">TwelveToneSpinnerComponent </text>
</g>
<!-- SharedModule&#45;&gt;TwelveToneSpinnerComponent  -->
<g id="edge24" class="edge">
<title>SharedModule&#45;&gt;TwelveToneSpinnerComponent </title>
<path fill="none" stroke="black" stroke-dasharray="5,2" d="M1056.6,-133.8C869.74,-133.8 216.69,-133.8 216.69,-133.8 216.69,-133.8 216.69,-168.58 216.69,-168.58"/>
<polygon fill="black" stroke="black" points="213.19,-168.58 216.69,-178.58 220.19,-168.58 213.19,-168.58"/>
</g>
<!-- CompileHtmlModule -->
<g id="node12" class="node">
<title>CompileHtmlModule</title>
<polygon fill="#8dd3c7" stroke="black" points="364.05,-84.8 361.05,-88.8 340.05,-88.8 337.05,-84.8 227.95,-84.8 227.95,-48.8 364.05,-48.8 364.05,-84.8"/>
<text text-anchor="middle" x="296" y="-62.6" font-family="Times,serif" font-size="14.00">CompileHtmlModule</text>
</g>
<!-- CompileHtmlModule&#45;&gt;SharedModule -->
<g id="edge11" class="edge">
<title>CompileHtmlModule&#45;&gt;SharedModule</title>
<path fill="none" stroke="black" d="M280.68,-85.1C280.68,-103.07 280.68,-127.8 280.68,-127.8 280.68,-127.8 1046.54,-127.8 1046.54,-127.8"/>
<polygon fill="black" stroke="black" points="1046.54,-131.3 1056.54,-127.8 1046.54,-124.3 1046.54,-131.3"/>
</g>
<!-- SharedNgbootstrapModule -->
<g id="node13" class="node">
<title>SharedNgbootstrapModule</title>
<polygon fill="#8dd3c7" stroke="black" points="209.63,-84.8 206.63,-88.8 185.63,-88.8 182.63,-84.8 42.37,-84.8 42.37,-48.8 209.63,-48.8 209.63,-84.8"/>
<text text-anchor="middle" x="126" y="-62.6" font-family="Times,serif" font-size="14.00">SharedNgbootstrapModule</text>
</g>
<!-- SharedNgbootstrapModule&#45;&gt;SharedModule -->
<g id="edge12" class="edge">
<title>SharedNgbootstrapModule&#45;&gt;SharedModule</title>
<path fill="none" stroke="black" d="M126,-84.97C126,-103.89 126,-130.8 126,-130.8 126,-130.8 1046.73,-130.8 1046.73,-130.8"/>
<polygon fill="black" stroke="black" points="1046.73,-134.3 1056.73,-130.8 1046.73,-127.3 1046.73,-134.3"/>
</g>
</g>
</svg>
