<?xml version="1.0" encoding="UTF-8" standalone="no"?>
<!DOCTYPE svg PUBLIC "-//W3C//DTD SVG 1.1//EN"
 "http://www.w3.org/Graphics/SVG/1.1/DTD/svg11.dtd">
<!-- Generated by graphviz version 5.0.0 (20220707.1540)
 -->
<!-- Title: dependencies Pages: 1 -->
<svg width="2868pt" height="247pt"
 viewBox="0.00 0.00 2868.00 246.80" xmlns="http://www.w3.org/2000/svg" xmlns:xlink="http://www.w3.org/1999/xlink">
<g id="graph0" class="graph" transform="scale(1 1) rotate(0) translate(4 242.8)">
<title>dependencies</title>
<polygon fill="white" stroke="transparent" points="-4,4 -4,-242.8 2864,-242.8 2864,4 -4,4"/>
<text text-anchor="middle" x="1430" y="-8.2" font-family="sans-serif" font-size="14.00">dependencies</text>
<g id="clust1" class="cluster">
<title>cluster_SharedModule</title>
<polygon fill="none" stroke="black" stroke-dasharray="1,5" points="8,-32.8 8,-230.8 2852,-230.8 2852,-32.8 8,-32.8"/>
</g>
<g id="clust18" class="cluster">
<title>cluster_SharedModule_exports</title>
<polygon fill="none" stroke="black" points="87,-170.8 87,-222.8 2774,-222.8 2774,-170.8 87,-170.8"/>
</g>
<g id="clust17" class="cluster">
<title>cluster_SharedModule_imports</title>
<polygon fill="none" stroke="black" points="2362,-40.8 2362,-92.8 2844,-92.8 2844,-40.8 2362,-40.8"/>
</g>
<g id="clust2" class="cluster">
<title>cluster_SharedModule_declarations</title>
<polygon fill="none" stroke="black" points="16,-40.8 16,-92.8 2354,-92.8 2354,-40.8 16,-40.8"/>
</g>
<!-- AddressComponent -->
<g id="node1" class="node">
<title>AddressComponent</title>
<polygon fill="#ffffb3" stroke="black" points="2345.71,-84.8 2218.29,-84.8 2218.29,-48.8 2345.71,-48.8 2345.71,-84.8"/>
<text text-anchor="middle" x="2282" y="-62.6" font-family="Times,serif" font-size="14.00">AddressComponent</text>
</g>
<!-- SharedModule -->
<g id="node15" class="node">
<title>SharedModule</title>
<polygon fill="#8dd3c7" stroke="black" points="1576.43,-149.8 1573.43,-153.8 1552.43,-153.8 1549.43,-149.8 1477.57,-149.8 1477.57,-113.8 1576.43,-113.8 1576.43,-149.8"/>
<text text-anchor="middle" x="1527" y="-127.6" font-family="Times,serif" font-size="14.00">SharedModule</text>
</g>
<!-- AddressComponent&#45;&gt;SharedModule -->
<g id="edge1" class="edge">
<title>AddressComponent&#45;&gt;SharedModule</title>
<path fill="none" stroke="black" d="M2265.06,-84.82C2265.06,-102.17 2265.06,-125.8 2265.06,-125.8 2265.06,-125.8 1586.28,-125.8 1586.28,-125.8"/>
<polygon fill="black" stroke="black" points="1586.28,-122.3 1576.28,-125.8 1586.28,-129.3 1586.28,-122.3"/>
</g>
<!-- ExternalLinkDirective -->
<g id="node2" class="node">
<title>ExternalLinkDirective</title>
<polygon fill="#ffffb3" stroke="black" points="2199.95,-84.8 2058.05,-84.8 2058.05,-48.8 2199.95,-48.8 2199.95,-84.8"/>
<text text-anchor="middle" x="2129" y="-62.6" font-family="Times,serif" font-size="14.00">ExternalLinkDirective</text>
</g>
<!-- ExternalLinkDirective&#45;&gt;SharedModule -->
<g id="edge2" class="edge">
<title>ExternalLinkDirective&#45;&gt;SharedModule</title>
<path fill="none" stroke="black" d="M2103.08,-84.83C2103.08,-101.2 2103.08,-122.8 2103.08,-122.8 2103.08,-122.8 1586.37,-122.8 1586.37,-122.8"/>
<polygon fill="black" stroke="black" points="1586.37,-119.3 1576.37,-122.8 1586.37,-126.3 1586.37,-119.3"/>
</g>
<!-- HeadingComponent -->
<g id="node3" class="node">
<title>HeadingComponent</title>
<polygon fill="#ffffb3" stroke="black" points="2040.26,-84.8 1911.74,-84.8 1911.74,-48.8 2040.26,-48.8 2040.26,-84.8"/>
<text text-anchor="middle" x="1976" y="-62.6" font-family="Times,serif" font-size="14.00">HeadingComponent</text>
</g>
<!-- HeadingComponent&#45;&gt;SharedModule -->
<g id="edge3" class="edge">
<title>HeadingComponent&#45;&gt;SharedModule</title>
<path fill="none" stroke="black" d="M1954.54,-85.08C1954.54,-100.75 1954.54,-120.8 1954.54,-120.8 1954.54,-120.8 1586.46,-120.8 1586.46,-120.8"/>
<polygon fill="black" stroke="black" points="1586.46,-117.3 1576.46,-120.8 1586.46,-124.3 1586.46,-117.3"/>
</g>
<!-- JsonViewerComponent -->
<g id="node4" class="node">
<title>JsonViewerComponent</title>
<polygon fill="#ffffb3" stroke="black" points="1893.93,-84.8 1746.07,-84.8 1746.07,-48.8 1893.93,-48.8 1893.93,-84.8"/>
<text text-anchor="middle" x="1820" y="-62.6" font-family="Times,serif" font-size="14.00">JsonViewerComponent</text>
</g>
<!-- JsonViewerComponent&#45;&gt;SharedModule -->
<g id="edge4" class="edge">
<title>JsonViewerComponent&#45;&gt;SharedModule</title>
<path fill="none" stroke="black" d="M1787.23,-84.99C1787.23,-99.98 1787.23,-118.8 1787.23,-118.8 1787.23,-118.8 1586.25,-118.8 1586.25,-118.8"/>
<polygon fill="black" stroke="black" points="1586.25,-115.3 1576.25,-118.8 1586.25,-122.3 1586.25,-115.3"/>
</g>
<!-- LicenseComponent -->
<g id="node5" class="node">
<title>LicenseComponent</title>
<polygon fill="#ffffb3" stroke="black" points="1728.36,-84.8 1603.64,-84.8 1603.64,-48.8 1728.36,-48.8 1728.36,-84.8"/>
<text text-anchor="middle" x="1666" y="-62.6" font-family="Times,serif" font-size="14.00">LicenseComponent</text>
</g>
<!-- LicenseComponent&#45;&gt;SharedModule -->
<g id="edge5" class="edge">
<title>LicenseComponent&#45;&gt;SharedModule</title>
<path fill="none" stroke="black" d="M1642.63,-84.85C1642.63,-99.17 1642.63,-116.8 1642.63,-116.8 1642.63,-116.8 1586.37,-116.8 1586.37,-116.8"/>
<polygon fill="black" stroke="black" points="1586.37,-113.3 1576.37,-116.8 1586.37,-120.3 1586.37,-113.3"/>
</g>
<!-- ModalComponent -->
<g id="node6" class="node">
<title>ModalComponent</title>
<polygon fill="#ffffb3" stroke="black" points="1585.88,-84.8 1468.12,-84.8 1468.12,-48.8 1585.88,-48.8 1585.88,-84.8"/>
<text text-anchor="middle" x="1527" y="-62.6" font-family="Times,serif" font-size="14.00">ModalComponent</text>
</g>
<!-- ModalComponent&#45;&gt;SharedModule -->
<g id="edge6" class="edge">
<title>ModalComponent&#45;&gt;SharedModule</title>
<path fill="none" stroke="black" d="M1527,-84.91C1527,-84.91 1527,-103.79 1527,-103.79"/>
<polygon fill="black" stroke="black" points="1523.5,-103.79 1527,-113.79 1530.5,-103.79 1523.5,-103.79"/>
</g>
<!-- OpenStreetMapComponent -->
<g id="node7" class="node">
<title>OpenStreetMapComponent</title>
<polygon fill="#ffffb3" stroke="black" points="1449.97,-84.8 1280.03,-84.8 1280.03,-48.8 1449.97,-48.8 1449.97,-84.8"/>
<text text-anchor="middle" x="1365" y="-62.6" font-family="Times,serif" font-size="14.00">OpenStreetMapComponent</text>
</g>
<!-- OpenStreetMapComponent&#45;&gt;SharedModule -->
<g id="edge7" class="edge">
<title>OpenStreetMapComponent&#45;&gt;SharedModule</title>
<path fill="none" stroke="black" d="M1409.62,-84.85C1409.62,-99.17 1409.62,-116.8 1409.62,-116.8 1409.62,-116.8 1467.56,-116.8 1467.56,-116.8"/>
<polygon fill="black" stroke="black" points="1467.56,-120.3 1477.56,-116.8 1467.56,-113.3 1467.56,-120.3"/>
</g>
<!-- OrderByPipe -->
<g id="node8" class="node">
<title>OrderByPipe</title>
<polygon fill="#ffffb3" stroke="black" points="1261.88,-84.8 1172.12,-84.8 1172.12,-48.8 1261.88,-48.8 1261.88,-84.8"/>
<text text-anchor="middle" x="1217" y="-62.6" font-family="Times,serif" font-size="14.00">OrderByPipe</text>
</g>
<!-- OrderByPipe&#45;&gt;SharedModule -->
<g id="edge8" class="edge">
<title>OrderByPipe&#45;&gt;SharedModule</title>
<path fill="none" stroke="black" d="M1249.47,-84.99C1249.47,-99.98 1249.47,-118.8 1249.47,-118.8 1249.47,-118.8 1467.7,-118.8 1467.7,-118.8"/>
<polygon fill="black" stroke="black" points="1467.7,-122.3 1477.7,-118.8 1467.7,-115.3 1467.7,-122.3"/>
</g>
<!-- RouterLinkButtonGroupComponent -->
<g id="node9" class="node">
<title>RouterLinkButtonGroupComponent</title>
<polygon fill="#ffffb3" stroke="black" points="1153.77,-84.8 934.23,-84.8 934.23,-48.8 1153.77,-48.8 1153.77,-84.8"/>
<text text-anchor="middle" x="1044" y="-62.6" font-family="Times,serif" font-size="14.00">RouterLinkButtonGroupComponent</text>
</g>
<!-- RouterLinkButtonGroupComponent&#45;&gt;SharedModule -->
<g id="edge9" class="edge">
<title>RouterLinkButtonGroupComponent&#45;&gt;SharedModule</title>
<path fill="none" stroke="black" d="M1085.62,-85.08C1085.62,-100.75 1085.62,-120.8 1085.62,-120.8 1085.62,-120.8 1467.65,-120.8 1467.65,-120.8"/>
<polygon fill="black" stroke="black" points="1467.65,-124.3 1477.65,-120.8 1467.65,-117.3 1467.65,-124.3"/>
</g>
<!-- TableComponent -->
<g id="node10" class="node">
<title>TableComponent</title>
<polygon fill="#ffffb3" stroke="black" points="916.7,-84.8 803.3,-84.8 803.3,-48.8 916.7,-48.8 916.7,-84.8"/>
<text text-anchor="middle" x="860" y="-62.6" font-family="Times,serif" font-size="14.00">TableComponent</text>
</g>
<!-- TableComponent&#45;&gt;SharedModule -->
<g id="edge10" class="edge">
<title>TableComponent&#45;&gt;SharedModule</title>
<path fill="none" stroke="black" d="M872.51,-84.83C872.51,-101.2 872.51,-122.8 872.51,-122.8 872.51,-122.8 1467.54,-122.8 1467.54,-122.8"/>
<polygon fill="black" stroke="black" points="1467.54,-126.3 1477.54,-122.8 1467.54,-119.3 1467.54,-126.3"/>
</g>
<!-- TablePaginationComponent -->
<g id="node11" class="node">
<title>TablePaginationComponent</title>
<polygon fill="#ffffb3" stroke="black" points="785.58,-84.8 612.42,-84.8 612.42,-48.8 785.58,-48.8 785.58,-84.8"/>
<text text-anchor="middle" x="699" y="-62.6" font-family="Times,serif" font-size="14.00">TablePaginationComponent</text>
</g>
<!-- TablePaginationComponent&#45;&gt;SharedModule -->
<g id="edge11" class="edge">
<title>TablePaginationComponent&#45;&gt;SharedModule</title>
<path fill="none" stroke="black" d="M739.6,-84.82C739.6,-102.17 739.6,-125.8 739.6,-125.8 739.6,-125.8 1467.74,-125.8 1467.74,-125.8"/>
<polygon fill="black" stroke="black" points="1467.74,-129.3 1477.74,-125.8 1467.74,-122.3 1467.74,-129.3"/>
</g>
<!-- ToastComponent -->
<g id="node12" class="node">
<title>ToastComponent</title>
<polygon fill="#ffffb3" stroke="black" points="594.44,-84.8 481.56,-84.8 481.56,-48.8 594.44,-48.8 594.44,-84.8"/>
<text text-anchor="middle" x="538" y="-62.6" font-family="Times,serif" font-size="14.00">ToastComponent</text>
</g>
<!-- ToastComponent&#45;&gt;SharedModule -->
<g id="edge12" class="edge">
<title>ToastComponent&#45;&gt;SharedModule</title>
<path fill="none" stroke="black" d="M577.12,-85.1C577.12,-103.07 577.12,-127.8 577.12,-127.8 577.12,-127.8 1467.6,-127.8 1467.6,-127.8"/>
<polygon fill="black" stroke="black" points="1467.6,-131.3 1477.6,-127.8 1467.6,-124.3 1467.6,-131.3"/>
</g>
<!-- TwelveToneSpinnerComponent -->
<g id="node13" class="node">
<title>TwelveToneSpinnerComponent</title>
<polygon fill="#ffffb3" stroke="black" points="463.63,-84.8 268.37,-84.8 268.37,-48.8 463.63,-48.8 463.63,-84.8"/>
<text text-anchor="middle" x="366" y="-62.6" font-family="Times,serif" font-size="14.00">TwelveToneSpinnerComponent</text>
</g>
<!-- TwelveToneSpinnerComponent&#45;&gt;SharedModule -->
<g id="edge13" class="edge">
<title>TwelveToneSpinnerComponent&#45;&gt;SharedModule</title>
<path fill="none" stroke="black" d="M403.12,-85.02C403.12,-103.63 403.12,-129.8 403.12,-129.8 403.12,-129.8 1467.62,-129.8 1467.62,-129.8"/>
<polygon fill="black" stroke="black" points="1467.62,-133.3 1477.62,-129.8 1467.62,-126.3 1467.62,-133.3"/>
</g>
<!-- ViewHandleButtonGroupComponent -->
<g id="node14" class="node">
<title>ViewHandleButtonGroupComponent</title>
<polygon fill="#ffffb3" stroke="black" points="249.97,-84.8 24.03,-84.8 24.03,-48.8 249.97,-48.8 249.97,-84.8"/>
<text text-anchor="middle" x="137" y="-62.6" font-family="Times,serif" font-size="14.00">ViewHandleButtonGroupComponent</text>
</g>
<!-- ViewHandleButtonGroupComponent&#45;&gt;SharedModule -->
<g id="edge14" class="edge">
<title>ViewHandleButtonGroupComponent&#45;&gt;SharedModule</title>
<path fill="none" stroke="black" d="M172.62,-84.91C172.62,-104.14 172.62,-131.8 172.62,-131.8 172.62,-131.8 1467.59,-131.8 1467.59,-131.8"/>
<polygon fill="black" stroke="black" points="1467.59,-135.3 1477.59,-131.8 1467.59,-128.3 1467.59,-135.3"/>
</g>
<!-- AddressComponent  -->
<g id="node19" class="node">
<title>AddressComponent </title>
<polygon fill="#fb8072" stroke="black" points="2766.21,-214.8 2635.79,-214.8 2635.79,-178.8 2766.21,-178.8 2766.21,-214.8"/>
<text text-anchor="middle" x="2701" y="-192.6" font-family="Times,serif" font-size="14.00">AddressComponent </text>
</g>
<!-- SharedModule&#45;&gt;AddressComponent  -->
<g id="edge18" class="edge">
<title>SharedModule&#45;&gt;AddressComponent </title>
<path fill="none" stroke="black" stroke-dasharray="5,2" d="M1576.22,-134.8C1794.45,-134.8 2663.96,-134.8 2663.96,-134.8 2663.96,-134.8 2663.96,-168.53 2663.96,-168.53"/>
<polygon fill="black" stroke="black" points="2660.46,-168.53 2663.96,-178.53 2667.46,-168.53 2660.46,-168.53"/>
</g>
<!-- CodeMirrorModule  -->
<g id="node20" class="node">
<title>CodeMirrorModule </title>
<polygon fill="#fb8072" stroke="black" points="2617.93,-214.8 2488.07,-214.8 2488.07,-178.8 2617.93,-178.8 2617.93,-214.8"/>
<text text-anchor="middle" x="2553" y="-192.6" font-family="Times,serif" font-size="14.00">CodeMirrorModule </text>
</g>
<!-- SharedModule&#45;&gt;CodeMirrorModule  -->
<g id="edge19" class="edge">
<title>SharedModule&#45;&gt;CodeMirrorModule </title>
<path fill="none" stroke="black" stroke-dasharray="5,2" d="M1576.23,-136.8C1775.67,-136.8 2512.93,-136.8 2512.93,-136.8 2512.93,-136.8 2512.93,-168.8 2512.93,-168.8"/>
<polygon fill="black" stroke="black" points="2509.43,-168.8 2512.93,-178.8 2516.43,-168.8 2509.43,-168.8"/>
</g>
<!-- CompileHtmlModule  -->
<g id="node21" class="node">
<title>CompileHtmlModule </title>
<polygon fill="#fb8072" stroke="black" points="2470.05,-214.8 2329.95,-214.8 2329.95,-178.8 2470.05,-178.8 2470.05,-214.8"/>
<text text-anchor="middle" x="2400" y="-192.6" font-family="Times,serif" font-size="14.00">CompileHtmlModule </text>
</g>
<!-- SharedModule&#45;&gt;CompileHtmlModule  -->
<g id="edge20" class="edge">
<title>SharedModule&#45;&gt;CompileHtmlModule </title>
<path fill="none" stroke="black" stroke-dasharray="5,2" d="M1576.5,-138.8C1752.53,-138.8 2337.79,-138.8 2337.79,-138.8 2337.79,-138.8 2337.79,-168.77 2337.79,-168.77"/>
<polygon fill="black" stroke="black" points="2334.29,-168.77 2337.79,-178.77 2341.29,-168.77 2334.29,-168.77"/>
</g>
<!-- ExternalLinkDirective  -->
<g id="node22" class="node">
<title>ExternalLinkDirective </title>
<polygon fill="#fb8072" stroke="black" points="2311.95,-214.8 2166.05,-214.8 2166.05,-178.8 2311.95,-178.8 2311.95,-214.8"/>
<text text-anchor="middle" x="2239" y="-192.6" font-family="Times,serif" font-size="14.00">ExternalLinkDirective </text>
</g>
<!-- SharedModule&#45;&gt;ExternalLinkDirective  -->
<g id="edge21" class="edge">
<title>SharedModule&#45;&gt;ExternalLinkDirective </title>
<path fill="none" stroke="black" stroke-dasharray="5,2" d="M1576.32,-140.8C1728.91,-140.8 2183.12,-140.8 2183.12,-140.8 2183.12,-140.8 2183.12,-168.77 2183.12,-168.77"/>
<polygon fill="black" stroke="black" points="2179.63,-168.77 2183.12,-178.77 2186.63,-168.77 2179.63,-168.77"/>
</g>
<!-- HeadingComponent  -->
<g id="node23" class="node">
<title>HeadingComponent </title>
<polygon fill="#fb8072" stroke="black" points="2148.26,-214.8 2015.74,-214.8 2015.74,-178.8 2148.26,-178.8 2148.26,-214.8"/>
<text text-anchor="middle" x="2082" y="-192.6" font-family="Times,serif" font-size="14.00">HeadingComponent </text>
</g>
<!-- SharedModule&#45;&gt;HeadingComponent  -->
<g id="edge22" class="edge">
<title>SharedModule&#45;&gt;HeadingComponent </title>
<path fill="none" stroke="black" stroke-dasharray="5,2" d="M1576.42,-143.8C1702.85,-143.8 2028.12,-143.8 2028.12,-143.8 2028.12,-143.8 2028.12,-168.56 2028.12,-168.56"/>
<polygon fill="black" stroke="black" points="2024.63,-168.56 2028.12,-178.56 2031.63,-168.56 2024.63,-168.56"/>
</g>
<!-- JsonViewerComponent  -->
<g id="node24" class="node">
<title>JsonViewerComponent </title>
<polygon fill="#fb8072" stroke="black" points="1997.43,-214.8 1846.57,-214.8 1846.57,-178.8 1997.43,-178.8 1997.43,-214.8"/>
<text text-anchor="middle" x="1922" y="-192.6" font-family="Times,serif" font-size="14.00">JsonViewerComponent </text>
</g>
<!-- SharedModule&#45;&gt;JsonViewerComponent  -->
<g id="edge23" class="edge">
<title>SharedModule&#45;&gt;JsonViewerComponent </title>
<path fill="none" stroke="black" stroke-dasharray="5,2" d="M1576.53,-145.8C1671.55,-145.8 1870.12,-145.8 1870.12,-145.8 1870.12,-145.8 1870.12,-168.68 1870.12,-168.68"/>
<polygon fill="black" stroke="black" points="1866.63,-168.68 1870.12,-178.68 1873.63,-168.68 1866.63,-168.68"/>
</g>
<!-- LicenseComponent  -->
<g id="node25" class="node">
<title>LicenseComponent </title>
<polygon fill="#fb8072" stroke="black" points="1828.36,-214.8 1699.64,-214.8 1699.64,-178.8 1828.36,-178.8 1828.36,-214.8"/>
<text text-anchor="middle" x="1764" y="-192.6" font-family="Times,serif" font-size="14.00">LicenseComponent </text>
</g>
<!-- SharedModule&#45;&gt;LicenseComponent  -->
<g id="edge24" class="edge">
<title>SharedModule&#45;&gt;LicenseComponent </title>
<path fill="none" stroke="black" stroke-dasharray="5,2" d="M1576.65,-147.8C1632.09,-147.8 1714.12,-147.8 1714.12,-147.8 1714.12,-147.8 1714.12,-168.55 1714.12,-168.55"/>
<polygon fill="black" stroke="black" points="1710.63,-168.55 1714.12,-178.55 1717.63,-168.55 1710.63,-168.55"/>
</g>
<!-- ModalComponent  -->
<g id="node26" class="node">
<title>ModalComponent </title>
<polygon fill="#fb8072" stroke="black" points="1681.88,-214.8 1560.12,-214.8 1560.12,-178.8 1681.88,-178.8 1681.88,-214.8"/>
<text text-anchor="middle" x="1621" y="-192.6" font-family="Times,serif" font-size="14.00">ModalComponent </text>
</g>
<!-- SharedModule&#45;&gt;ModalComponent  -->
<g id="edge25" class="edge">
<title>SharedModule&#45;&gt;ModalComponent </title>
<path fill="none" stroke="black" stroke-dasharray="5,2" d="M1568.26,-149.91C1568.26,-149.91 1568.26,-168.79 1568.26,-168.79"/>
<polygon fill="black" stroke="black" points="1564.76,-168.79 1568.26,-178.79 1571.76,-168.79 1564.76,-168.79"/>
</g>
<!-- OpenStreetMapComponent  -->
<g id="node27" class="node">
<title>OpenStreetMapComponent </title>
<polygon fill="#fb8072" stroke="black" points="1542.97,-214.8 1369.03,-214.8 1369.03,-178.8 1542.97,-178.8 1542.97,-214.8"/>
<text text-anchor="middle" x="1456" y="-192.6" font-family="Times,serif" font-size="14.00">OpenStreetMapComponent </text>
</g>
<!-- SharedModule&#45;&gt;OpenStreetMapComponent  -->
<g id="edge26" class="edge">
<title>SharedModule&#45;&gt;OpenStreetMapComponent </title>
<path fill="none" stroke="black" stroke-dasharray="5,2" d="M1510.26,-149.91C1510.26,-149.91 1510.26,-168.79 1510.26,-168.79"/>
<polygon fill="black" stroke="black" points="1506.76,-168.79 1510.26,-178.79 1513.76,-168.79 1506.76,-168.79"/>
</g>
<!-- OrderByPipe  -->
<g id="node28" class="node">
<title>OrderByPipe </title>
<polygon fill="#fb8072" stroke="black" points="1351.88,-214.8 1258.12,-214.8 1258.12,-178.8 1351.88,-178.8 1351.88,-214.8"/>
<text text-anchor="middle" x="1305" y="-192.6" font-family="Times,serif" font-size="14.00">OrderByPipe </text>
</g>
<!-- SharedModule&#45;&gt;OrderByPipe  -->
<g id="edge27" class="edge">
<title>SharedModule&#45;&gt;OrderByPipe </title>
<path fill="none" stroke="black" stroke-dasharray="5,2" d="M1477.76,-147.8C1415.37,-147.8 1315.85,-147.8 1315.85,-147.8 1315.85,-147.8 1315.85,-168.55 1315.85,-168.55"/>
<polygon fill="black" stroke="black" points="1312.35,-168.55 1315.85,-178.55 1319.35,-168.55 1312.35,-168.55"/>
</g>
<!-- RouterLinkButtonGroupComponent  -->
<g id="node29" class="node">
<title>RouterLinkButtonGroupComponent </title>
<polygon fill="#fb8072" stroke="black" points="1240.77,-214.8 1017.23,-214.8 1017.23,-178.8 1240.77,-178.8 1240.77,-214.8"/>
<text text-anchor="middle" x="1129" y="-192.6" font-family="Times,serif" font-size="14.00">RouterLinkButtonGroupComponent </text>
</g>
<!-- SharedModule&#45;&gt;RouterLinkButtonGroupComponent  -->
<g id="edge28" class="edge">
<title>SharedModule&#45;&gt;RouterLinkButtonGroupComponent </title>
<path fill="none" stroke="black" stroke-dasharray="5,2" d="M1477.6,-145.8C1387.66,-145.8 1206.35,-145.8 1206.35,-145.8 1206.35,-145.8 1206.35,-168.68 1206.35,-168.68"/>
<polygon fill="black" stroke="black" points="1202.85,-168.68 1206.35,-178.68 1209.85,-168.68 1202.85,-168.68"/>
</g>
<!-- SharedNgbootstrapModule  -->
<g id="node30" class="node">
<title>SharedNgbootstrapModule </title>
<polygon fill="#fb8072" stroke="black" points="999.64,-214.8 828.36,-214.8 828.36,-178.8 999.64,-178.8 999.64,-214.8"/>
<text text-anchor="middle" x="914" y="-192.6" font-family="Times,serif" font-size="14.00">SharedNgbootstrapModule </text>
</g>
<!-- SharedModule&#45;&gt;SharedNgbootstrapModule  -->
<g id="edge29" class="edge">
<title>SharedModule&#45;&gt;SharedNgbootstrapModule </title>
<path fill="none" stroke="black" stroke-dasharray="5,2" d="M1477.78,-143.8C1341.09,-143.8 966.84,-143.8 966.84,-143.8 966.84,-143.8 966.84,-168.56 966.84,-168.56"/>
<polygon fill="black" stroke="black" points="963.34,-168.56 966.84,-178.56 970.34,-168.56 963.34,-168.56"/>
</g>
<!-- TableComponent  -->
<g id="node31" class="node">
<title>TableComponent </title>
<polygon fill="#fb8072" stroke="black" points="810.2,-214.8 693.8,-214.8 693.8,-178.8 810.2,-178.8 810.2,-214.8"/>
<text text-anchor="middle" x="752" y="-192.6" font-family="Times,serif" font-size="14.00">TableComponent </text>
</g>
<!-- SharedModule&#45;&gt;TableComponent  -->
<g id="edge30" class="edge">
<title>SharedModule&#45;&gt;TableComponent </title>
<path fill="none" stroke="black" stroke-dasharray="5,2" d="M1477.51,-140.8C1312.96,-140.8 794.47,-140.8 794.47,-140.8 794.47,-140.8 794.47,-168.77 794.47,-168.77"/>
<polygon fill="black" stroke="black" points="790.97,-168.77 794.47,-178.77 797.97,-168.77 790.97,-168.77"/>
</g>
<!-- ToastComponent  -->
<g id="node32" class="node">
<title>ToastComponent </title>
<polygon fill="#fb8072" stroke="black" points="675.93,-214.8 560.07,-214.8 560.07,-178.8 675.93,-178.8 675.93,-214.8"/>
<text text-anchor="middle" x="618" y="-192.6" font-family="Times,serif" font-size="14.00">ToastComponent </text>
</g>
<!-- SharedModule&#45;&gt;ToastComponent  -->
<g id="edge31" class="edge">
<title>SharedModule&#45;&gt;ToastComponent </title>
<path fill="none" stroke="black" stroke-dasharray="5,2" d="M1477.65,-138.8C1291.74,-138.8 644.21,-138.8 644.21,-138.8 644.21,-138.8 644.21,-168.77 644.21,-168.77"/>
<polygon fill="black" stroke="black" points="640.71,-168.77 644.21,-178.77 647.71,-168.77 640.71,-168.77"/>
</g>
<!-- TwelveToneSpinnerComponent  -->
<g id="node33" class="node">
<title>TwelveToneSpinnerComponent </title>
<polygon fill="#fb8072" stroke="black" points="541.63,-214.8 342.37,-214.8 342.37,-178.8 541.63,-178.8 541.63,-214.8"/>
<text text-anchor="middle" x="442" y="-192.6" font-family="Times,serif" font-size="14.00">TwelveToneSpinnerComponent </text>
</g>
<!-- SharedModule&#45;&gt;TwelveToneSpinnerComponent  -->
<g id="edge32" class="edge">
<title>SharedModule&#45;&gt;TwelveToneSpinnerComponent </title>
<path fill="none" stroke="black" stroke-dasharray="5,2" d="M1477.69,-136.8C1274.35,-136.8 511.67,-136.8 511.67,-136.8 511.67,-136.8 511.67,-168.8 511.67,-168.8"/>
<polygon fill="black" stroke="black" points="508.17,-168.8 511.67,-178.8 515.17,-168.8 508.17,-168.8"/>
</g>
<!-- ViewHandleButtonGroupComponent  -->
<g id="node34" class="node">
<title>ViewHandleButtonGroupComponent </title>
<polygon fill="#fb8072" stroke="black" points="324.97,-214.8 95.03,-214.8 95.03,-178.8 324.97,-178.8 324.97,-214.8"/>
<text text-anchor="middle" x="210" y="-192.6" font-family="Times,serif" font-size="14.00">ViewHandleButtonGroupComponent </text>
</g>
<!-- SharedModule&#45;&gt;ViewHandleButtonGroupComponent  -->
<g id="edge33" class="edge">
<title>SharedModule&#45;&gt;ViewHandleButtonGroupComponent </title>
<path fill="none" stroke="black" stroke-dasharray="5,2" d="M1477.62,-134.8C1248.08,-134.8 296.46,-134.8 296.46,-134.8 296.46,-134.8 296.46,-168.53 296.46,-168.53"/>
<polygon fill="black" stroke="black" points="292.96,-168.53 296.46,-178.53 299.96,-168.53 292.96,-168.53"/>
</g>
<!-- CodeMirrorModule -->
<g id="node16" class="node">
<title>CodeMirrorModule</title>
<polygon fill="#8dd3c7" stroke="black" points="2836.43,-84.8 2833.43,-88.8 2812.43,-88.8 2809.43,-84.8 2709.57,-84.8 2709.57,-48.8 2836.43,-48.8 2836.43,-84.8"/>
<text text-anchor="middle" x="2773" y="-62.6" font-family="Times,serif" font-size="14.00">CodeMirrorModule</text>
</g>
<!-- CodeMirrorModule&#45;&gt;SharedModule -->
<g id="edge15" class="edge">
<title>CodeMirrorModule&#45;&gt;SharedModule</title>
<path fill="none" stroke="black" d="M2738.07,-84.91C2738.07,-104.14 2738.07,-131.8 2738.07,-131.8 2738.07,-131.8 1586.35,-131.8 1586.35,-131.8"/>
<polygon fill="black" stroke="black" points="1586.35,-128.3 1576.35,-131.8 1586.35,-135.3 1586.35,-128.3"/>
</g>
<!-- CompileHtmlModule -->
<g id="node17" class="node">
<title>CompileHtmlModule</title>
<polygon fill="#8dd3c7" stroke="black" points="2692.05,-84.8 2689.05,-88.8 2668.05,-88.8 2665.05,-84.8 2555.95,-84.8 2555.95,-48.8 2692.05,-48.8 2692.05,-84.8"/>
<text text-anchor="middle" x="2624" y="-62.6" font-family="Times,serif" font-size="14.00">CompileHtmlModule</text>
</g>
<!-- CompileHtmlModule&#45;&gt;SharedModule -->
<g id="edge16" class="edge">
<title>CompileHtmlModule&#45;&gt;SharedModule</title>
<path fill="none" stroke="black" d="M2586.84,-85.02C2586.84,-103.63 2586.84,-129.8 2586.84,-129.8 2586.84,-129.8 1586.34,-129.8 1586.34,-129.8"/>
<polygon fill="black" stroke="black" points="1586.34,-126.3 1576.34,-129.8 1586.34,-133.3 1586.34,-126.3"/>
</g>
<!-- SharedNgbootstrapModule -->
<g id="node18" class="node">
<title>SharedNgbootstrapModule</title>
<polygon fill="#8dd3c7" stroke="black" points="2537.64,-84.8 2534.64,-88.8 2513.64,-88.8 2510.64,-84.8 2370.36,-84.8 2370.36,-48.8 2537.64,-48.8 2537.64,-84.8"/>
<text text-anchor="middle" x="2454" y="-62.6" font-family="Times,serif" font-size="14.00">SharedNgbootstrapModule</text>
</g>
<!-- SharedNgbootstrapModule&#45;&gt;SharedModule -->
<g id="edge17" class="edge">
<title>SharedNgbootstrapModule&#45;&gt;SharedModule</title>
<path fill="none" stroke="black" d="M2420.1,-85.1C2420.1,-103.07 2420.1,-127.8 2420.1,-127.8 2420.1,-127.8 1586.29,-127.8 1586.29,-127.8"/>
<polygon fill="black" stroke="black" points="1586.29,-124.3 1576.29,-127.8 1586.29,-131.3 1586.29,-124.3"/>
</g>
</g>
</svg>
