<?xml version="1.0" encoding="UTF-8" standalone="no"?>
<!DOCTYPE svg PUBLIC "-//W3C//DTD SVG 1.1//EN"
 "http://www.w3.org/Graphics/SVG/1.1/DTD/svg11.dtd">
<!-- Generated by graphviz version 2.47.3 (20210619.1520)
 -->
<!-- Title: dependencies Pages: 1 -->
<svg width="2726pt" height="247pt"
 viewBox="0.00 0.00 2726.00 246.80" xmlns="http://www.w3.org/2000/svg" xmlns:xlink="http://www.w3.org/1999/xlink">
<g id="graph0" class="graph" transform="scale(1 1) rotate(0) translate(4 242.8)">
<title>dependencies</title>
<polygon fill="white" stroke="transparent" points="-4,4 -4,-242.8 2722,-242.8 2722,4 -4,4"/>
<text text-anchor="middle" x="1359" y="-8.2" font-family="sans-serif" font-size="14.00">dependencies</text>
<g id="clust1" class="cluster">
<title>cluster_SharedModule</title>
<polygon fill="none" stroke="black" stroke-dasharray="1,5" points="8,-32.8 8,-230.8 2710,-230.8 2710,-32.8 8,-32.8"/>
</g>
<g id="clust16" class="cluster">
<title>cluster_SharedModule_imports</title>
<polygon fill="none" stroke="black" points="2220,-40.8 2220,-92.8 2702,-92.8 2702,-40.8 2220,-40.8"/>
</g>
<g id="clust17" class="cluster">
<title>cluster_SharedModule_exports</title>
<polygon fill="none" stroke="black" points="87,-170.8 87,-222.8 2627,-222.8 2627,-170.8 87,-170.8"/>
</g>
<g id="clust2" class="cluster">
<title>cluster_SharedModule_declarations</title>
<polygon fill="none" stroke="black" points="16,-40.8 16,-92.8 2212,-92.8 2212,-40.8 16,-40.8"/>
</g>
<!-- AddressComponent -->
<g id="node1" class="node">
<title>AddressComponent</title>
<polygon fill="#ffffb3" stroke="black" points="2203.7,-84.8 2076.3,-84.8 2076.3,-48.8 2203.7,-48.8 2203.7,-84.8"/>
<text text-anchor="middle" x="2140" y="-62.6" font-family="Times,serif" font-size="14.00">AddressComponent</text>
</g>
<!-- SharedModule -->
<g id="node14" class="node">
<title>SharedModule</title>
<polygon fill="#8dd3c7" stroke="black" points="1505.42,-149.8 1502.42,-153.8 1481.42,-153.8 1478.42,-149.8 1406.58,-149.8 1406.58,-113.8 1505.42,-113.8 1505.42,-149.8"/>
<text text-anchor="middle" x="1456" y="-127.6" font-family="Times,serif" font-size="14.00">SharedModule</text>
</g>
<!-- AddressComponent&#45;&gt;SharedModule -->
<g id="edge1" class="edge">
<title>AddressComponent&#45;&gt;SharedModule</title>
<path fill="none" stroke="black" d="M2120.56,-84.84C2120.56,-101.53 2120.56,-123.8 2120.56,-123.8 2120.56,-123.8 1515.41,-123.8 1515.41,-123.8"/>
<polygon fill="black" stroke="black" points="1515.41,-120.3 1505.41,-123.8 1515.41,-127.3 1515.41,-120.3"/>
</g>
<!-- ExternalLinkDirective -->
<g id="node2" class="node">
<title>ExternalLinkDirective</title>
<polygon fill="#ffffb3" stroke="black" points="2057.95,-84.8 1916.05,-84.8 1916.05,-48.8 2057.95,-48.8 2057.95,-84.8"/>
<text text-anchor="middle" x="1987" y="-62.6" font-family="Times,serif" font-size="14.00">ExternalLinkDirective</text>
</g>
<!-- ExternalLinkDirective&#45;&gt;SharedModule -->
<g id="edge2" class="edge">
<title>ExternalLinkDirective&#45;&gt;SharedModule</title>
<path fill="none" stroke="black" d="M1958.58,-84.81C1958.58,-100.85 1958.58,-121.8 1958.58,-121.8 1958.58,-121.8 1515.56,-121.8 1515.56,-121.8"/>
<polygon fill="black" stroke="black" points="1515.56,-118.3 1505.56,-121.8 1515.56,-125.3 1515.56,-118.3"/>
</g>
<!-- HeadingComponent -->
<g id="node3" class="node">
<title>HeadingComponent</title>
<polygon fill="#ffffb3" stroke="black" points="1898.26,-84.8 1769.74,-84.8 1769.74,-48.8 1898.26,-48.8 1898.26,-84.8"/>
<text text-anchor="middle" x="1834" y="-62.6" font-family="Times,serif" font-size="14.00">HeadingComponent</text>
</g>
<!-- HeadingComponent&#45;&gt;SharedModule -->
<g id="edge3" class="edge">
<title>HeadingComponent&#45;&gt;SharedModule</title>
<path fill="none" stroke="black" d="M1810.04,-84.99C1810.04,-99.98 1810.04,-118.8 1810.04,-118.8 1810.04,-118.8 1515.23,-118.8 1515.23,-118.8"/>
<polygon fill="black" stroke="black" points="1515.23,-115.3 1505.23,-118.8 1515.23,-122.3 1515.23,-115.3"/>
</g>
<!-- JsonViewerComponent -->
<g id="node4" class="node">
<title>JsonViewerComponent</title>
<polygon fill="#ffffb3" stroke="black" points="1751.92,-84.8 1604.08,-84.8 1604.08,-48.8 1751.92,-48.8 1751.92,-84.8"/>
<text text-anchor="middle" x="1678" y="-62.6" font-family="Times,serif" font-size="14.00">JsonViewerComponent</text>
</g>
<!-- JsonViewerComponent&#45;&gt;SharedModule -->
<g id="edge4" class="edge">
<title>JsonViewerComponent&#45;&gt;SharedModule</title>
<path fill="none" stroke="black" d="M1642.99,-84.85C1642.99,-99.17 1642.99,-116.8 1642.99,-116.8 1642.99,-116.8 1515.62,-116.8 1515.62,-116.8"/>
<polygon fill="black" stroke="black" points="1515.62,-113.3 1505.62,-116.8 1515.62,-120.3 1515.62,-113.3"/>
</g>
<!-- ModalComponent -->
<g id="node5" class="node">
<title>ModalComponent</title>
<polygon fill="#ffffb3" stroke="black" points="1585.88,-84.8 1468.12,-84.8 1468.12,-48.8 1585.88,-48.8 1585.88,-84.8"/>
<text text-anchor="middle" x="1527" y="-62.6" font-family="Times,serif" font-size="14.00">ModalComponent</text>
</g>
<!-- ModalComponent&#45;&gt;SharedModule -->
<g id="edge5" class="edge">
<title>ModalComponent&#45;&gt;SharedModule</title>
<path fill="none" stroke="black" d="M1486.63,-84.91C1486.63,-84.91 1486.63,-103.79 1486.63,-103.79"/>
<polygon fill="black" stroke="black" points="1483.14,-103.79 1486.63,-113.79 1490.14,-103.79 1483.14,-103.79"/>
</g>
<!-- OpenStreetMapComponent -->
<g id="node6" class="node">
<title>OpenStreetMapComponent</title>
<polygon fill="#ffffb3" stroke="black" points="1449.97,-84.8 1280.03,-84.8 1280.03,-48.8 1449.97,-48.8 1449.97,-84.8"/>
<text text-anchor="middle" x="1365" y="-62.6" font-family="Times,serif" font-size="14.00">OpenStreetMapComponent</text>
</g>
<!-- OpenStreetMapComponent&#45;&gt;SharedModule -->
<g id="edge6" class="edge">
<title>OpenStreetMapComponent&#45;&gt;SharedModule</title>
<path fill="none" stroke="black" d="M1428.39,-84.91C1428.39,-84.91 1428.39,-103.79 1428.39,-103.79"/>
<polygon fill="black" stroke="black" points="1424.89,-103.79 1428.39,-113.79 1431.89,-103.79 1424.89,-103.79"/>
</g>
<!-- OrderByPipe -->
<g id="node7" class="node">
<title>OrderByPipe</title>
<polygon fill="#ffffb3" stroke="black" points="1261.87,-84.8 1172.13,-84.8 1172.13,-48.8 1261.87,-48.8 1261.87,-84.8"/>
<text text-anchor="middle" x="1217" y="-62.6" font-family="Times,serif" font-size="14.00">OrderByPipe</text>
</g>
<!-- OrderByPipe&#45;&gt;SharedModule -->
<g id="edge7" class="edge">
<title>OrderByPipe&#45;&gt;SharedModule</title>
<path fill="none" stroke="black" d="M1249.47,-84.85C1249.47,-99.17 1249.47,-116.8 1249.47,-116.8 1249.47,-116.8 1396.53,-116.8 1396.53,-116.8"/>
<polygon fill="black" stroke="black" points="1396.53,-120.3 1406.53,-116.8 1396.53,-113.3 1396.53,-120.3"/>
</g>
<!-- RouterLinkButtonGroupComponent -->
<g id="node8" class="node">
<title>RouterLinkButtonGroupComponent</title>
<polygon fill="#ffffb3" stroke="black" points="1153.76,-84.8 934.24,-84.8 934.24,-48.8 1153.76,-48.8 1153.76,-84.8"/>
<text text-anchor="middle" x="1044" y="-62.6" font-family="Times,serif" font-size="14.00">RouterLinkButtonGroupComponent</text>
</g>
<!-- RouterLinkButtonGroupComponent&#45;&gt;SharedModule -->
<g id="edge8" class="edge">
<title>RouterLinkButtonGroupComponent&#45;&gt;SharedModule</title>
<path fill="none" stroke="black" d="M1085.62,-84.99C1085.62,-99.98 1085.62,-118.8 1085.62,-118.8 1085.62,-118.8 1396.43,-118.8 1396.43,-118.8"/>
<polygon fill="black" stroke="black" points="1396.43,-122.3 1406.43,-118.8 1396.43,-115.3 1396.43,-122.3"/>
</g>
<!-- TableComponent -->
<g id="node9" class="node">
<title>TableComponent</title>
<polygon fill="#ffffb3" stroke="black" points="916.7,-84.8 803.3,-84.8 803.3,-48.8 916.7,-48.8 916.7,-84.8"/>
<text text-anchor="middle" x="860" y="-62.6" font-family="Times,serif" font-size="14.00">TableComponent</text>
</g>
<!-- TableComponent&#45;&gt;SharedModule -->
<g id="edge9" class="edge">
<title>TableComponent&#45;&gt;SharedModule</title>
<path fill="none" stroke="black" d="M872.52,-84.81C872.52,-100.85 872.52,-121.8 872.52,-121.8 872.52,-121.8 1396.76,-121.8 1396.76,-121.8"/>
<polygon fill="black" stroke="black" points="1396.76,-125.3 1406.76,-121.8 1396.76,-118.3 1396.76,-125.3"/>
</g>
<!-- TablePaginationComponent -->
<g id="node10" class="node">
<title>TablePaginationComponent</title>
<polygon fill="#ffffb3" stroke="black" points="785.59,-84.8 612.41,-84.8 612.41,-48.8 785.59,-48.8 785.59,-84.8"/>
<text text-anchor="middle" x="699" y="-62.6" font-family="Times,serif" font-size="14.00">TablePaginationComponent</text>
</g>
<!-- TablePaginationComponent&#45;&gt;SharedModule -->
<g id="edge10" class="edge">
<title>TablePaginationComponent&#45;&gt;SharedModule</title>
<path fill="none" stroke="black" d="M739.6,-84.84C739.6,-101.53 739.6,-123.8 739.6,-123.8 739.6,-123.8 1396.76,-123.8 1396.76,-123.8"/>
<polygon fill="black" stroke="black" points="1396.76,-127.3 1406.76,-123.8 1396.76,-120.3 1396.76,-127.3"/>
</g>
<!-- ToastComponent -->
<g id="node11" class="node">
<title>ToastComponent</title>
<polygon fill="#ffffb3" stroke="black" points="594.44,-84.8 481.56,-84.8 481.56,-48.8 594.44,-48.8 594.44,-84.8"/>
<text text-anchor="middle" x="538" y="-62.6" font-family="Times,serif" font-size="14.00">ToastComponent</text>
</g>
<!-- ToastComponent&#45;&gt;SharedModule -->
<g id="edge11" class="edge">
<title>ToastComponent&#45;&gt;SharedModule</title>
<path fill="none" stroke="black" d="M577.12,-84.82C577.12,-102.17 577.12,-125.8 577.12,-125.8 577.12,-125.8 1396.55,-125.8 1396.55,-125.8"/>
<polygon fill="black" stroke="black" points="1396.55,-129.3 1406.55,-125.8 1396.55,-122.3 1396.55,-129.3"/>
</g>
<!-- TwelveToneSpinnerComponent -->
<g id="node12" class="node">
<title>TwelveToneSpinnerComponent</title>
<polygon fill="#ffffb3" stroke="black" points="463.63,-84.8 268.37,-84.8 268.37,-48.8 463.63,-48.8 463.63,-84.8"/>
<text text-anchor="middle" x="366" y="-62.6" font-family="Times,serif" font-size="14.00">TwelveToneSpinnerComponent</text>
</g>
<!-- TwelveToneSpinnerComponent&#45;&gt;SharedModule -->
<g id="edge12" class="edge">
<title>TwelveToneSpinnerComponent&#45;&gt;SharedModule</title>
<path fill="none" stroke="black" d="M403.12,-85.07C403.12,-103.36 403.12,-128.8 403.12,-128.8 403.12,-128.8 1396.63,-128.8 1396.63,-128.8"/>
<polygon fill="black" stroke="black" points="1396.63,-132.3 1406.63,-128.8 1396.63,-125.3 1396.63,-132.3"/>
</g>
<!-- ViewHandleButtonGroupComponent -->
<g id="node13" class="node">
<title>ViewHandleButtonGroupComponent</title>
<polygon fill="#ffffb3" stroke="black" points="249.96,-84.8 24.04,-84.8 24.04,-48.8 249.96,-48.8 249.96,-84.8"/>
<text text-anchor="middle" x="137" y="-62.6" font-family="Times,serif" font-size="14.00">ViewHandleButtonGroupComponent</text>
</g>
<!-- ViewHandleButtonGroupComponent&#45;&gt;SharedModule -->
<g id="edge13" class="edge">
<title>ViewHandleButtonGroupComponent&#45;&gt;SharedModule</title>
<path fill="none" stroke="black" d="M172.62,-84.97C172.62,-103.89 172.62,-130.8 172.62,-130.8 172.62,-130.8 1396.48,-130.8 1396.48,-130.8"/>
<polygon fill="black" stroke="black" points="1396.48,-134.3 1406.48,-130.8 1396.48,-127.3 1396.48,-134.3"/>
</g>
<!-- AddressComponent  -->
<g id="node18" class="node">
<title>AddressComponent </title>
<polygon fill="#fb8072" stroke="black" points="2619.2,-214.8 2488.8,-214.8 2488.8,-178.8 2619.2,-178.8 2619.2,-214.8"/>
<text text-anchor="middle" x="2554" y="-192.6" font-family="Times,serif" font-size="14.00">AddressComponent </text>
</g>
<!-- SharedModule&#45;&gt;AddressComponent  -->
<g id="edge17" class="edge">
<title>SharedModule&#45;&gt;AddressComponent </title>
<path fill="none" stroke="black" stroke-dasharray="5,2" d="M1505.51,-133.8C1715.21,-133.8 2519.46,-133.8 2519.46,-133.8 2519.46,-133.8 2519.46,-168.58 2519.46,-168.58"/>
<polygon fill="black" stroke="black" points="2515.96,-168.58 2519.46,-178.58 2522.96,-168.58 2515.96,-168.58"/>
</g>
<!-- CodeMirrorModule  -->
<g id="node19" class="node">
<title>CodeMirrorModule </title>
<polygon fill="#fb8072" stroke="black" points="2470.92,-214.8 2341.08,-214.8 2341.08,-178.8 2470.92,-178.8 2470.92,-214.8"/>
<text text-anchor="middle" x="2406" y="-192.6" font-family="Times,serif" font-size="14.00">CodeMirrorModule </text>
</g>
<!-- SharedModule&#45;&gt;CodeMirrorModule  -->
<g id="edge18" class="edge">
<title>SharedModule&#45;&gt;CodeMirrorModule </title>
<path fill="none" stroke="black" stroke-dasharray="5,2" d="M1505.38,-135.8C1695.34,-135.8 2368.43,-135.8 2368.43,-135.8 2368.43,-135.8 2368.43,-168.5 2368.43,-168.5"/>
<polygon fill="black" stroke="black" points="2364.93,-168.5 2368.43,-178.5 2371.93,-168.5 2364.93,-168.5"/>
</g>
<!-- CompileHtmlModule  -->
<g id="node20" class="node">
<title>CompileHtmlModule </title>
<polygon fill="#fb8072" stroke="black" points="2323.05,-214.8 2182.95,-214.8 2182.95,-178.8 2323.05,-178.8 2323.05,-214.8"/>
<text text-anchor="middle" x="2253" y="-192.6" font-family="Times,serif" font-size="14.00">CompileHtmlModule </text>
</g>
<!-- SharedModule&#45;&gt;CompileHtmlModule  -->
<g id="edge19" class="edge">
<title>SharedModule&#45;&gt;CompileHtmlModule </title>
<path fill="none" stroke="black" stroke-dasharray="5,2" d="M1505.23,-137.8C1670.22,-137.8 2193.29,-137.8 2193.29,-137.8 2193.29,-137.8 2193.29,-168.78 2193.29,-168.78"/>
<polygon fill="black" stroke="black" points="2189.79,-168.78 2193.29,-178.78 2196.79,-168.78 2189.79,-168.78"/>
</g>
<!-- ExternalLinkDirective  -->
<g id="node21" class="node">
<title>ExternalLinkDirective </title>
<polygon fill="#fb8072" stroke="black" points="2164.95,-214.8 2019.05,-214.8 2019.05,-178.8 2164.95,-178.8 2164.95,-214.8"/>
<text text-anchor="middle" x="2092" y="-192.6" font-family="Times,serif" font-size="14.00">ExternalLinkDirective </text>
</g>
<!-- SharedModule&#45;&gt;ExternalLinkDirective  -->
<g id="edge20" class="edge">
<title>SharedModule&#45;&gt;ExternalLinkDirective </title>
<path fill="none" stroke="black" stroke-dasharray="5,2" d="M1505.67,-140.8C1646.57,-140.8 2038.62,-140.8 2038.62,-140.8 2038.62,-140.8 2038.62,-168.77 2038.62,-168.77"/>
<polygon fill="black" stroke="black" points="2035.13,-168.77 2038.62,-178.77 2042.13,-168.77 2035.13,-168.77"/>
</g>
<!-- HeadingComponent  -->
<g id="node22" class="node">
<title>HeadingComponent </title>
<polygon fill="#fb8072" stroke="black" points="2001.26,-214.8 1868.74,-214.8 1868.74,-178.8 2001.26,-178.8 2001.26,-214.8"/>
<text text-anchor="middle" x="1935" y="-192.6" font-family="Times,serif" font-size="14.00">HeadingComponent </text>
</g>
<!-- SharedModule&#45;&gt;HeadingComponent  -->
<g id="edge21" class="edge">
<title>SharedModule&#45;&gt;HeadingComponent </title>
<path fill="none" stroke="black" stroke-dasharray="5,2" d="M1505.47,-142.8C1618.04,-142.8 1883.62,-142.8 1883.62,-142.8 1883.62,-142.8 1883.62,-168.52 1883.62,-168.52"/>
<polygon fill="black" stroke="black" points="1880.13,-168.52 1883.62,-178.52 1887.13,-168.52 1880.13,-168.52"/>
</g>
<!-- JsonViewerComponent  -->
<g id="node23" class="node">
<title>JsonViewerComponent </title>
<polygon fill="#fb8072" stroke="black" points="1850.42,-214.8 1699.58,-214.8 1699.58,-178.8 1850.42,-178.8 1850.42,-214.8"/>
<text text-anchor="middle" x="1775" y="-192.6" font-family="Times,serif" font-size="14.00">JsonViewerComponent </text>
</g>
<!-- SharedModule&#45;&gt;JsonViewerComponent  -->
<g id="edge22" class="edge">
<title>SharedModule&#45;&gt;JsonViewerComponent </title>
<path fill="none" stroke="black" stroke-dasharray="5,2" d="M1505.45,-145.8C1583.29,-145.8 1725.62,-145.8 1725.62,-145.8 1725.62,-145.8 1725.62,-168.68 1725.62,-168.68"/>
<polygon fill="black" stroke="black" points="1722.13,-168.68 1725.62,-178.68 1729.13,-168.68 1722.13,-168.68"/>
</g>
<!-- ModalComponent  -->
<g id="node24" class="node">
<title>ModalComponent </title>
<polygon fill="#fb8072" stroke="black" points="1681.88,-214.8 1560.12,-214.8 1560.12,-178.8 1681.88,-178.8 1681.88,-214.8"/>
<text text-anchor="middle" x="1621" y="-192.6" font-family="Times,serif" font-size="14.00">ModalComponent </text>
</g>
<!-- SharedModule&#45;&gt;ModalComponent  -->
<g id="edge23" class="edge">
<title>SharedModule&#45;&gt;ModalComponent </title>
<path fill="none" stroke="black" stroke-dasharray="5,2" d="M1505.33,-147.8C1537.34,-147.8 1573.12,-147.8 1573.12,-147.8 1573.12,-147.8 1573.12,-168.55 1573.12,-168.55"/>
<polygon fill="black" stroke="black" points="1569.63,-168.55 1573.12,-178.55 1576.63,-168.55 1569.63,-168.55"/>
</g>
<!-- OpenStreetMapComponent  -->
<g id="node25" class="node">
<title>OpenStreetMapComponent </title>
<polygon fill="#fb8072" stroke="black" points="1542.97,-214.8 1369.03,-214.8 1369.03,-178.8 1542.97,-178.8 1542.97,-214.8"/>
<text text-anchor="middle" x="1456" y="-192.6" font-family="Times,serif" font-size="14.00">OpenStreetMapComponent </text>
</g>
<!-- SharedModule&#45;&gt;OpenStreetMapComponent  -->
<g id="edge24" class="edge">
<title>SharedModule&#45;&gt;OpenStreetMapComponent </title>
<path fill="none" stroke="black" stroke-dasharray="5,2" d="M1456,-149.91C1456,-149.91 1456,-168.79 1456,-168.79"/>
<polygon fill="black" stroke="black" points="1452.5,-168.79 1456,-178.79 1459.5,-168.79 1452.5,-168.79"/>
</g>
<!-- OrderByPipe  -->
<g id="node26" class="node">
<title>OrderByPipe </title>
<polygon fill="#fb8072" stroke="black" points="1351.87,-214.8 1258.13,-214.8 1258.13,-178.8 1351.87,-178.8 1351.87,-214.8"/>
<text text-anchor="middle" x="1305" y="-192.6" font-family="Times,serif" font-size="14.00">OrderByPipe </text>
</g>
<!-- SharedModule&#45;&gt;OrderByPipe  -->
<g id="edge25" class="edge">
<title>SharedModule&#45;&gt;OrderByPipe </title>
<path fill="none" stroke="black" stroke-dasharray="5,2" d="M1406.59,-147.8C1366.24,-147.8 1315.85,-147.8 1315.85,-147.8 1315.85,-147.8 1315.85,-168.55 1315.85,-168.55"/>
<polygon fill="black" stroke="black" points="1312.35,-168.55 1315.85,-178.55 1319.35,-168.55 1312.35,-168.55"/>
</g>
<!-- RouterLinkButtonGroupComponent  -->
<g id="node27" class="node">
<title>RouterLinkButtonGroupComponent </title>
<polygon fill="#fb8072" stroke="black" points="1240.76,-214.8 1017.24,-214.8 1017.24,-178.8 1240.76,-178.8 1240.76,-214.8"/>
<text text-anchor="middle" x="1129" y="-192.6" font-family="Times,serif" font-size="14.00">RouterLinkButtonGroupComponent </text>
</g>
<!-- SharedModule&#45;&gt;RouterLinkButtonGroupComponent  -->
<g id="edge26" class="edge">
<title>SharedModule&#45;&gt;RouterLinkButtonGroupComponent </title>
<path fill="none" stroke="black" stroke-dasharray="5,2" d="M1406.68,-145.8C1333.92,-145.8 1206.35,-145.8 1206.35,-145.8 1206.35,-145.8 1206.35,-168.68 1206.35,-168.68"/>
<polygon fill="black" stroke="black" points="1202.85,-168.68 1206.35,-178.68 1209.85,-168.68 1202.85,-168.68"/>
</g>
<!-- SharedNgbootstrapModule  -->
<g id="node28" class="node">
<title>SharedNgbootstrapModule </title>
<polygon fill="#fb8072" stroke="black" points="999.63,-214.8 828.37,-214.8 828.37,-178.8 999.63,-178.8 999.63,-214.8"/>
<text text-anchor="middle" x="914" y="-192.6" font-family="Times,serif" font-size="14.00">SharedNgbootstrapModule </text>
</g>
<!-- SharedModule&#45;&gt;SharedNgbootstrapModule  -->
<g id="edge27" class="edge">
<title>SharedModule&#45;&gt;SharedNgbootstrapModule </title>
<path fill="none" stroke="black" stroke-dasharray="5,2" d="M1406.4,-142.8C1282.05,-142.8 966.84,-142.8 966.84,-142.8 966.84,-142.8 966.84,-168.52 966.84,-168.52"/>
<polygon fill="black" stroke="black" points="963.34,-168.52 966.84,-178.52 970.34,-168.52 963.34,-168.52"/>
</g>
<!-- TableComponent  -->
<g id="node29" class="node">
<title>TableComponent </title>
<polygon fill="#fb8072" stroke="black" points="810.21,-214.8 693.79,-214.8 693.79,-178.8 810.21,-178.8 810.21,-214.8"/>
<text text-anchor="middle" x="752" y="-192.6" font-family="Times,serif" font-size="14.00">TableComponent </text>
</g>
<!-- SharedModule&#45;&gt;TableComponent  -->
<g id="edge28" class="edge">
<title>SharedModule&#45;&gt;TableComponent </title>
<path fill="none" stroke="black" stroke-dasharray="5,2" d="M1406.55,-140.8C1252.97,-140.8 794.47,-140.8 794.47,-140.8 794.47,-140.8 794.47,-168.77 794.47,-168.77"/>
<polygon fill="black" stroke="black" points="790.97,-168.77 794.47,-178.77 797.97,-168.77 790.97,-168.77"/>
</g>
<!-- ToastComponent  -->
<g id="node30" class="node">
<title>ToastComponent </title>
<polygon fill="#fb8072" stroke="black" points="675.93,-214.8 560.07,-214.8 560.07,-178.8 675.93,-178.8 675.93,-214.8"/>
<text text-anchor="middle" x="618" y="-192.6" font-family="Times,serif" font-size="14.00">ToastComponent </text>
</g>
<!-- SharedModule&#45;&gt;ToastComponent  -->
<g id="edge29" class="edge">
<title>SharedModule&#45;&gt;ToastComponent </title>
<path fill="none" stroke="black" stroke-dasharray="5,2" d="M1406.74,-137.8C1230.86,-137.8 644.21,-137.8 644.21,-137.8 644.21,-137.8 644.21,-168.78 644.21,-168.78"/>
<polygon fill="black" stroke="black" points="640.71,-168.78 644.21,-178.78 647.71,-168.78 640.71,-168.78"/>
</g>
<!-- TwelveToneSpinnerComponent  -->
<g id="node31" class="node">
<title>TwelveToneSpinnerComponent </title>
<polygon fill="#fb8072" stroke="black" points="541.63,-214.8 342.37,-214.8 342.37,-178.8 541.63,-178.8 541.63,-214.8"/>
<text text-anchor="middle" x="442" y="-192.6" font-family="Times,serif" font-size="14.00">TwelveToneSpinnerComponent </text>
</g>
<!-- SharedModule&#45;&gt;TwelveToneSpinnerComponent  -->
<g id="edge30" class="edge">
<title>SharedModule&#45;&gt;TwelveToneSpinnerComponent </title>
<path fill="none" stroke="black" stroke-dasharray="5,2" d="M1406.56,-135.8C1212.26,-135.8 511.67,-135.8 511.67,-135.8 511.67,-135.8 511.67,-168.5 511.67,-168.5"/>
<polygon fill="black" stroke="black" points="508.17,-168.5 511.67,-178.5 515.17,-168.5 508.17,-168.5"/>
</g>
<!-- ViewHandleButtonGroupComponent  -->
<g id="node32" class="node">
<title>ViewHandleButtonGroupComponent </title>
<polygon fill="#fb8072" stroke="black" points="324.96,-214.8 95.04,-214.8 95.04,-178.8 324.96,-178.8 324.96,-214.8"/>
<text text-anchor="middle" x="210" y="-192.6" font-family="Times,serif" font-size="14.00">ViewHandleButtonGroupComponent </text>
</g>
<!-- SharedModule&#45;&gt;ViewHandleButtonGroupComponent  -->
<g id="edge31" class="edge">
<title>SharedModule&#45;&gt;ViewHandleButtonGroupComponent </title>
<path fill="none" stroke="black" stroke-dasharray="5,2" d="M1406.55,-133.8C1185.22,-133.8 296.46,-133.8 296.46,-133.8 296.46,-133.8 296.46,-168.58 296.46,-168.58"/>
<polygon fill="black" stroke="black" points="292.96,-168.58 296.46,-178.58 299.96,-168.58 292.96,-168.58"/>
</g>
<!-- CodeMirrorModule -->
<g id="node15" class="node">
<title>CodeMirrorModule</title>
<polygon fill="#8dd3c7" stroke="black" points="2694.42,-84.8 2691.42,-88.8 2670.42,-88.8 2667.42,-84.8 2567.58,-84.8 2567.58,-48.8 2694.42,-48.8 2694.42,-84.8"/>
<text text-anchor="middle" x="2631" y="-62.6" font-family="Times,serif" font-size="14.00">CodeMirrorModule</text>
</g>
<!-- CodeMirrorModule&#45;&gt;SharedModule -->
<g id="edge14" class="edge">
<title>CodeMirrorModule&#45;&gt;SharedModule</title>
<path fill="none" stroke="black" d="M2593.57,-84.97C2593.57,-103.89 2593.57,-130.8 2593.57,-130.8 2593.57,-130.8 1515.25,-130.8 1515.25,-130.8"/>
<polygon fill="black" stroke="black" points="1515.25,-127.3 1505.25,-130.8 1515.25,-134.3 1515.25,-127.3"/>
</g>
<!-- CompileHtmlModule -->
<g id="node16" class="node">
<title>CompileHtmlModule</title>
<polygon fill="#8dd3c7" stroke="black" points="2550.05,-84.8 2547.05,-88.8 2526.05,-88.8 2523.05,-84.8 2413.95,-84.8 2413.95,-48.8 2550.05,-48.8 2550.05,-84.8"/>
<text text-anchor="middle" x="2482" y="-62.6" font-family="Times,serif" font-size="14.00">CompileHtmlModule</text>
</g>
<!-- CompileHtmlModule&#45;&gt;SharedModule -->
<g id="edge15" class="edge">
<title>CompileHtmlModule&#45;&gt;SharedModule</title>
<path fill="none" stroke="black" d="M2442.34,-85.07C2442.34,-103.36 2442.34,-128.8 2442.34,-128.8 2442.34,-128.8 1515.25,-128.8 1515.25,-128.8"/>
<polygon fill="black" stroke="black" points="1515.25,-125.3 1505.25,-128.8 1515.25,-132.3 1515.25,-125.3"/>
</g>
<!-- SharedNgbootstrapModule -->
<g id="node17" class="node">
<title>SharedNgbootstrapModule</title>
<polygon fill="#8dd3c7" stroke="black" points="2395.63,-84.8 2392.63,-88.8 2371.63,-88.8 2368.63,-84.8 2228.37,-84.8 2228.37,-48.8 2395.63,-48.8 2395.63,-84.8"/>
<text text-anchor="middle" x="2312" y="-62.6" font-family="Times,serif" font-size="14.00">SharedNgbootstrapModule</text>
</g>
<!-- SharedNgbootstrapModule&#45;&gt;SharedModule -->
<g id="edge16" class="edge">
<title>SharedNgbootstrapModule&#45;&gt;SharedModule</title>
<path fill="none" stroke="black" d="M2275.61,-84.82C2275.61,-102.17 2275.61,-125.8 2275.61,-125.8 2275.61,-125.8 1515.42,-125.8 1515.42,-125.8"/>
<polygon fill="black" stroke="black" points="1515.42,-122.3 1505.42,-125.8 1515.42,-129.3 1515.42,-122.3"/>
</g>
</g>
</svg>
