<?xml version="1.0" encoding="UTF-8" standalone="no"?>
<!DOCTYPE svg PUBLIC "-//W3C//DTD SVG 1.1//EN"
 "http://www.w3.org/Graphics/SVG/1.1/DTD/svg11.dtd">
<!-- Generated by graphviz version 2.40.1 (20161225.0304)
 -->
<!-- Title: dependencies Pages: 1 -->
<svg width="1916pt" height="284pt"
 viewBox="0.00 0.00 1916.00 284.00" xmlns="http://www.w3.org/2000/svg" xmlns:xlink="http://www.w3.org/1999/xlink">
<g id="graph0" class="graph" transform="scale(1 1) rotate(0) translate(4 280)">
<title>dependencies</title>
<polygon fill="#ffffff" stroke="transparent" points="-4,4 -4,-280 1912,-280 1912,4 -4,4"/>
<text text-anchor="start" x="933.0091" y="-42.4" font-family="sans-serif" font-weight="bold" font-size="14.00" fill="#000000">Legend</text>
<polygon fill="#ffffb3" stroke="transparent" points="720,-10 720,-30 740,-30 740,-10 720,-10"/>
<text text-anchor="start" x="743.629" y="-15.4" font-family="sans-serif" font-size="14.00" fill="#000000"> &#160;Declarations</text>
<polygon fill="#8dd3c7" stroke="transparent" points="833,-10 833,-30 853,-30 853,-10 833,-10"/>
<text text-anchor="start" x="856.7251" y="-15.4" font-family="sans-serif" font-size="14.00" fill="#000000"> &#160;Module</text>
<polygon fill="#80b1d3" stroke="transparent" points="919,-10 919,-30 939,-30 939,-10 919,-10"/>
<text text-anchor="start" x="942.7812" y="-15.4" font-family="sans-serif" font-size="14.00" fill="#000000"> &#160;Bootstrap</text>
<polygon fill="#fdb462" stroke="transparent" points="1016,-10 1016,-30 1036,-30 1036,-10 1016,-10"/>
<text text-anchor="start" x="1039.6732" y="-15.4" font-family="sans-serif" font-size="14.00" fill="#000000"> &#160;Providers</text>
<polygon fill="#fb8072" stroke="transparent" points="1112,-10 1112,-30 1132,-30 1132,-10 1112,-10"/>
<text text-anchor="start" x="1135.7258" y="-15.4" font-family="sans-serif" font-size="14.00" fill="#000000"> &#160;Exports</text>
<g id="clust1" class="cluster">
<title>cluster_SharedModule</title>
<polygon fill="none" stroke="#000000" stroke-dasharray="1,5" points="8,-70 8,-268 1900,-268 1900,-70 8,-70"/>
</g>
<g id="clust2" class="cluster">
<title>cluster_SharedModule_declarations</title>
<polygon fill="none" stroke="#000000" points="381,-78 381,-130 1881,-130 1881,-78 381,-78"/>
</g>
<g id="clust12" class="cluster">
<title>cluster_SharedModule_imports</title>
<polygon fill="none" stroke="#000000" points="35,-78 35,-130 373,-130 373,-78 35,-78"/>
</g>
<g id="clust13" class="cluster">
<title>cluster_SharedModule_exports</title>
<polygon fill="none" stroke="#000000" points="16,-208 16,-260 1892,-260 1892,-208 16,-208"/>
</g>
<!-- AddressComponent -->
<g id="node1" class="node">
<title>AddressComponent</title>
<polygon fill="#ffffb3" stroke="#000000" points="1872.7036,-122 1745.2964,-122 1745.2964,-86 1872.7036,-86 1872.7036,-122"/>
<text text-anchor="middle" x="1809" y="-99.8" font-family="Times,serif" font-size="14.00" fill="#000000">AddressComponent</text>
</g>
<!-- SharedModule -->
<g id="node10" class="node">
<title>SharedModule</title>
<polygon fill="#8dd3c7" stroke="#000000" points="1083.4231,-187 1080.4231,-191 1059.4231,-191 1056.4231,-187 984.5769,-187 984.5769,-151 1083.4231,-151 1083.4231,-187"/>
<text text-anchor="middle" x="1034" y="-164.8" font-family="Times,serif" font-size="14.00" fill="#000000">SharedModule</text>
</g>
<!-- AddressComponent&#45;&gt;SharedModule -->
<g id="edge1" class="edge">
<title>AddressComponent&#45;&gt;SharedModule</title>
<path fill="none" stroke="#000000" d="M1749.5233,-122.1686C1749.5233,-141.0898 1749.5233,-168 1749.5233,-168 1749.5233,-168 1093.4631,-168 1093.4631,-168"/>
<polygon fill="#000000" stroke="#000000" points="1093.4632,-164.5001 1083.4631,-168 1093.4631,-171.5001 1093.4632,-164.5001"/>
</g>
<!-- ExternalLinkDirective -->
<g id="node2" class="node">
<title>ExternalLinkDirective</title>
<polygon fill="#ffffb3" stroke="#000000" points="1726.9496,-122 1585.0504,-122 1585.0504,-86 1726.9496,-86 1726.9496,-122"/>
<text text-anchor="middle" x="1656" y="-99.8" font-family="Times,serif" font-size="14.00" fill="#000000">ExternalLinkDirective</text>
</g>
<!-- ExternalLinkDirective&#45;&gt;SharedModule -->
<g id="edge2" class="edge">
<title>ExternalLinkDirective&#45;&gt;SharedModule</title>
<path fill="none" stroke="#000000" d="M1590.4998,-122.302C1590.4998,-140.2699 1590.4998,-165 1590.4998,-165 1590.4998,-165 1093.3856,-165 1093.3856,-165"/>
<polygon fill="#000000" stroke="#000000" points="1093.3857,-161.5001 1083.3856,-165 1093.3856,-168.5001 1093.3857,-161.5001"/>
</g>
<!-- HeadingComponent -->
<g id="node3" class="node">
<title>HeadingComponent</title>
<polygon fill="#ffffb3" stroke="#000000" points="1567.259,-122 1438.741,-122 1438.741,-86 1567.259,-86 1567.259,-122"/>
<text text-anchor="middle" x="1503" y="-99.8" font-family="Times,serif" font-size="14.00" fill="#000000">HeadingComponent</text>
</g>
<!-- HeadingComponent&#45;&gt;SharedModule -->
<g id="edge3" class="edge">
<title>HeadingComponent&#45;&gt;SharedModule</title>
<path fill="none" stroke="#000000" d="M1524.4598,-122.0352C1524.4598,-138.7344 1524.4598,-161 1524.4598,-161 1524.4598,-161 1093.2728,-161 1093.2728,-161"/>
<polygon fill="#000000" stroke="#000000" points="1093.2728,-157.5001 1083.2728,-161 1093.2727,-164.5001 1093.2728,-157.5001"/>
</g>
<!-- JsonViewerComponent -->
<g id="node4" class="node">
<title>JsonViewerComponent</title>
<polygon fill="#ffffb3" stroke="#000000" points="1420.9158,-122 1273.0842,-122 1273.0842,-86 1420.9158,-86 1420.9158,-122"/>
<text text-anchor="middle" x="1347" y="-99.8" font-family="Times,serif" font-size="14.00" fill="#000000">JsonViewerComponent</text>
</g>
<!-- JsonViewerComponent&#45;&gt;SharedModule -->
<g id="edge4" class="edge">
<title>JsonViewerComponent&#45;&gt;SharedModule</title>
<path fill="none" stroke="#000000" d="M1277.5815,-122.2819C1277.5815,-137.9478 1277.5815,-158 1277.5815,-158 1277.5815,-158 1093.2924,-158 1093.2924,-158"/>
<polygon fill="#000000" stroke="#000000" points="1093.2924,-154.5001 1083.2924,-158 1093.2923,-161.5001 1093.2924,-154.5001"/>
</g>
<!-- ModalComponent -->
<g id="node5" class="node">
<title>ModalComponent</title>
<polygon fill="#ffffb3" stroke="#000000" points="1254.8823,-122 1137.1177,-122 1137.1177,-86 1254.8823,-86 1254.8823,-122"/>
<text text-anchor="middle" x="1196" y="-99.8" font-family="Times,serif" font-size="14.00" fill="#000000">ModalComponent</text>
</g>
<!-- ModalComponent&#45;&gt;SharedModule -->
<g id="edge5" class="edge">
<title>ModalComponent&#45;&gt;SharedModule</title>
<path fill="none" stroke="#000000" d="M1196,-122.1243C1196,-136.7832 1196,-155 1196,-155 1196,-155 1093.4856,-155 1093.4856,-155"/>
<polygon fill="#000000" stroke="#000000" points="1093.4856,-151.5001 1083.4856,-155 1093.4856,-158.5001 1093.4856,-151.5001"/>
</g>
<!-- OpenStreetMapComponent -->
<g id="node6" class="node">
<title>OpenStreetMapComponent</title>
<polygon fill="#ffffb3" stroke="#000000" points="1118.9664,-122 949.0336,-122 949.0336,-86 1118.9664,-86 1118.9664,-122"/>
<text text-anchor="middle" x="1034" y="-99.8" font-family="Times,serif" font-size="14.00" fill="#000000">OpenStreetMapComponent</text>
</g>
<!-- OpenStreetMapComponent&#45;&gt;SharedModule -->
<g id="edge6" class="edge">
<title>OpenStreetMapComponent&#45;&gt;SharedModule</title>
<path fill="none" stroke="#000000" d="M1034,-122.1061C1034,-122.1061 1034,-140.991 1034,-140.991"/>
<polygon fill="#000000" stroke="#000000" points="1030.5001,-140.9909 1034,-150.991 1037.5001,-140.991 1030.5001,-140.9909"/>
</g>
<!-- OrderByPipe -->
<g id="node7" class="node">
<title>OrderByPipe</title>
<polygon fill="#ffffb3" stroke="#000000" points="930.8669,-122 841.1331,-122 841.1331,-86 930.8669,-86 930.8669,-122"/>
<text text-anchor="middle" x="886" y="-99.8" font-family="Times,serif" font-size="14.00" fill="#000000">OrderByPipe</text>
</g>
<!-- OrderByPipe&#45;&gt;SharedModule -->
<g id="edge7" class="edge">
<title>OrderByPipe&#45;&gt;SharedModule</title>
<path fill="none" stroke="#000000" d="M886,-122.1243C886,-136.7832 886,-155 886,-155 886,-155 974.7181,-155 974.7181,-155"/>
<polygon fill="#000000" stroke="#000000" points="974.7182,-158.5001 984.7181,-155 974.7181,-151.5001 974.7182,-158.5001"/>
</g>
<!-- RouterLinkButtonGroupComponent -->
<g id="node8" class="node">
<title>RouterLinkButtonGroupComponent</title>
<polygon fill="#ffffb3" stroke="#000000" points="822.7631,-122 603.2369,-122 603.2369,-86 822.7631,-86 822.7631,-122"/>
<text text-anchor="middle" x="713" y="-99.8" font-family="Times,serif" font-size="14.00" fill="#000000">RouterLinkButtonGroupComponent</text>
</g>
<!-- RouterLinkButtonGroupComponent&#45;&gt;SharedModule -->
<g id="edge8" class="edge">
<title>RouterLinkButtonGroupComponent&#45;&gt;SharedModule</title>
<path fill="none" stroke="#000000" d="M802.5741,-122.2819C802.5741,-137.9478 802.5741,-158 802.5741,-158 802.5741,-158 974.6372,-158 974.6372,-158"/>
<polygon fill="#000000" stroke="#000000" points="974.6372,-161.5001 984.6372,-158 974.6372,-154.5001 974.6372,-161.5001"/>
</g>
<!-- TwelveToneSpinnerComponent -->
<g id="node9" class="node">
<title>TwelveToneSpinnerComponent</title>
<polygon fill="#ffffb3" stroke="#000000" points="584.6274,-122 389.3726,-122 389.3726,-86 584.6274,-86 584.6274,-122"/>
<text text-anchor="middle" x="487" y="-99.8" font-family="Times,serif" font-size="14.00" fill="#000000">TwelveToneSpinnerComponent</text>
</g>
<!-- TwelveToneSpinnerComponent&#45;&gt;SharedModule -->
<g id="edge9" class="edge">
<title>TwelveToneSpinnerComponent&#45;&gt;SharedModule</title>
<path fill="none" stroke="#000000" d="M507.591,-122.0352C507.591,-138.7344 507.591,-161 507.591,-161 507.591,-161 974.4767,-161 974.4767,-161"/>
<polygon fill="#000000" stroke="#000000" points="974.4768,-164.5001 984.4767,-161 974.4767,-157.5001 974.4768,-164.5001"/>
</g>
<!-- AddressComponent  -->
<g id="node13" class="node">
<title>AddressComponent </title>
<polygon fill="#fb8072" stroke="#000000" points="1884.2037,-252 1753.7963,-252 1753.7963,-216 1884.2037,-216 1884.2037,-252"/>
<text text-anchor="middle" x="1819" y="-229.8" font-family="Times,serif" font-size="14.00" fill="#000000">AddressComponent </text>
</g>
<!-- SharedModule&#45;&gt;AddressComponent  -->
<g id="edge12" class="edge">
<title>SharedModule&#45;&gt;AddressComponent </title>
<path fill="none" stroke="#000000" stroke-dasharray="5,2" d="M1083.3288,-171C1254.5964,-171 1813.125,-171 1813.125,-171 1813.125,-171 1813.125,-205.7778 1813.125,-205.7778"/>
<polygon fill="#000000" stroke="#000000" points="1809.6251,-205.7778 1813.125,-215.7778 1816.6251,-205.7778 1809.6251,-205.7778"/>
</g>
<!-- CompileHtmlModule  -->
<g id="node14" class="node">
<title>CompileHtmlModule </title>
<polygon fill="#fb8072" stroke="#000000" points="1736.0512,-252 1595.9488,-252 1595.9488,-216 1736.0512,-216 1736.0512,-252"/>
<text text-anchor="middle" x="1666" y="-229.8" font-family="Times,serif" font-size="14.00" fill="#000000">CompileHtmlModule </text>
</g>
<!-- SharedModule&#45;&gt;CompileHtmlModule  -->
<g id="edge13" class="edge">
<title>SharedModule&#45;&gt;CompileHtmlModule </title>
<path fill="none" stroke="#000000" stroke-dasharray="5,2" d="M1083.2369,-174C1231.1582,-174 1661.4746,-174 1661.4746,-174 1661.4746,-174 1661.4746,-205.998 1661.4746,-205.998"/>
<polygon fill="#000000" stroke="#000000" points="1657.9747,-205.998 1661.4746,-215.998 1664.9747,-205.9981 1657.9747,-205.998"/>
</g>
<!-- ExternalLinkDirective  -->
<g id="node15" class="node">
<title>ExternalLinkDirective </title>
<polygon fill="#fb8072" stroke="#000000" points="1577.9503,-252 1432.0497,-252 1432.0497,-216 1577.9503,-216 1577.9503,-252"/>
<text text-anchor="middle" x="1505" y="-229.8" font-family="Times,serif" font-size="14.00" fill="#000000">ExternalLinkDirective </text>
</g>
<!-- SharedModule&#45;&gt;ExternalLinkDirective  -->
<g id="edge14" class="edge">
<title>SharedModule&#45;&gt;ExternalLinkDirective </title>
<path fill="none" stroke="#000000" stroke-dasharray="5,2" d="M1083.6046,-178C1200.1272,-178 1481.5402,-178 1481.5402,-178 1481.5402,-178 1481.5402,-205.973 1481.5402,-205.973"/>
<polygon fill="#000000" stroke="#000000" points="1478.0403,-205.973 1481.5402,-215.973 1485.0403,-205.973 1478.0403,-205.973"/>
</g>
<!-- HeadingComponent  -->
<g id="node16" class="node">
<title>HeadingComponent </title>
<polygon fill="#fb8072" stroke="#000000" points="1414.2591,-252 1281.7409,-252 1281.7409,-216 1414.2591,-216 1414.2591,-252"/>
<text text-anchor="middle" x="1348" y="-229.8" font-family="Times,serif" font-size="14.00" fill="#000000">HeadingComponent </text>
</g>
<!-- SharedModule&#45;&gt;HeadingComponent  -->
<g id="edge15" class="edge">
<title>SharedModule&#45;&gt;HeadingComponent </title>
<path fill="none" stroke="#000000" stroke-dasharray="5,2" d="M1083.4079,-181C1171.8347,-181 1348,-181 1348,-181 1348,-181 1348,-205.7604 1348,-205.7604"/>
<polygon fill="#000000" stroke="#000000" points="1344.5001,-205.7604 1348,-215.7604 1351.5001,-205.7604 1344.5001,-205.7604"/>
</g>
<!-- JsonViewerComponent  -->
<g id="node17" class="node">
<title>JsonViewerComponent </title>
<polygon fill="#fb8072" stroke="#000000" points="1263.4152,-252 1112.5848,-252 1112.5848,-216 1263.4152,-216 1263.4152,-252"/>
<text text-anchor="middle" x="1188" y="-229.8" font-family="Times,serif" font-size="14.00" fill="#000000">JsonViewerComponent </text>
</g>
<!-- SharedModule&#45;&gt;JsonViewerComponent  -->
<g id="edge16" class="edge">
<title>SharedModule&#45;&gt;JsonViewerComponent </title>
<path fill="none" stroke="#000000" stroke-dasharray="5,2" d="M1083.2134,-184C1105.9619,-184 1128.021,-184 1128.021,-184 1128.021,-184 1128.021,-205.9489 1128.021,-205.9489"/>
<polygon fill="#000000" stroke="#000000" points="1124.5211,-205.9488 1128.021,-215.9489 1131.5211,-205.9489 1124.5211,-205.9488"/>
</g>
<!-- ModalComponent  -->
<g id="node18" class="node">
<title>ModalComponent </title>
<polygon fill="#fb8072" stroke="#000000" points="1094.8828,-252 973.1172,-252 973.1172,-216 1094.8828,-216 1094.8828,-252"/>
<text text-anchor="middle" x="1034" y="-229.8" font-family="Times,serif" font-size="14.00" fill="#000000">ModalComponent </text>
</g>
<!-- SharedModule&#45;&gt;ModalComponent  -->
<g id="edge17" class="edge">
<title>SharedModule&#45;&gt;ModalComponent </title>
<path fill="none" stroke="#000000" stroke-dasharray="5,2" d="M1034,-187.1061C1034,-187.1061 1034,-205.991 1034,-205.991"/>
<polygon fill="#000000" stroke="#000000" points="1030.5001,-205.9909 1034,-215.991 1037.5001,-205.991 1030.5001,-205.9909"/>
</g>
<!-- OpenStreetMapComponent  -->
<g id="node19" class="node">
<title>OpenStreetMapComponent </title>
<polygon fill="#fb8072" stroke="#000000" points="955.967,-252 782.033,-252 782.033,-216 955.967,-216 955.967,-252"/>
<text text-anchor="middle" x="869" y="-229.8" font-family="Times,serif" font-size="14.00" fill="#000000">OpenStreetMapComponent </text>
</g>
<!-- SharedModule&#45;&gt;OpenStreetMapComponent  -->
<g id="edge18" class="edge">
<title>SharedModule&#45;&gt;OpenStreetMapComponent </title>
<path fill="none" stroke="#000000" stroke-dasharray="5,2" d="M984.7846,-184C962.0351,-184 939.9751,-184 939.9751,-184 939.9751,-184 939.9751,-205.9489 939.9751,-205.9489"/>
<polygon fill="#000000" stroke="#000000" points="936.4752,-205.9488 939.9751,-215.9489 943.4752,-205.9489 936.4752,-205.9488"/>
</g>
<!-- OrderByPipe  -->
<g id="node20" class="node">
<title>OrderByPipe </title>
<polygon fill="#fb8072" stroke="#000000" points="764.8675,-252 671.1325,-252 671.1325,-216 764.8675,-216 764.8675,-252"/>
<text text-anchor="middle" x="718" y="-229.8" font-family="Times,serif" font-size="14.00" fill="#000000">OrderByPipe </text>
</g>
<!-- SharedModule&#45;&gt;OrderByPipe  -->
<g id="edge19" class="edge">
<title>SharedModule&#45;&gt;OrderByPipe </title>
<path fill="none" stroke="#000000" stroke-dasharray="5,2" d="M984.625,-181C895.75,-181 718,-181 718,-181 718,-181 718,-205.7604 718,-205.7604"/>
<polygon fill="#000000" stroke="#000000" points="714.5001,-205.7604 718,-215.7604 721.5001,-205.7604 714.5001,-205.7604"/>
</g>
<!-- RouterLinkButtonGroupComponent  -->
<g id="node21" class="node">
<title>RouterLinkButtonGroupComponent </title>
<polygon fill="#fb8072" stroke="#000000" points="653.7632,-252 430.2368,-252 430.2368,-216 653.7632,-216 653.7632,-252"/>
<text text-anchor="middle" x="542" y="-229.8" font-family="Times,serif" font-size="14.00" fill="#000000">RouterLinkButtonGroupComponent </text>
</g>
<!-- SharedModule&#45;&gt;RouterLinkButtonGroupComponent  -->
<g id="edge20" class="edge">
<title>SharedModule&#45;&gt;RouterLinkButtonGroupComponent </title>
<path fill="none" stroke="#000000" stroke-dasharray="5,2" d="M984.6679,-178C876.5682,-178 628.375,-178 628.375,-178 628.375,-178 628.375,-205.973 628.375,-205.973"/>
<polygon fill="#000000" stroke="#000000" points="624.8751,-205.973 628.375,-215.973 631.8751,-205.973 624.8751,-205.973"/>
</g>
<!-- SharedNgbootstrapModule  -->
<g id="node22" class="node">
<title>SharedNgbootstrapModule </title>
<polygon fill="#fb8072" stroke="#000000" points="412.6298,-252 241.3702,-252 241.3702,-216 412.6298,-216 412.6298,-252"/>
<text text-anchor="middle" x="327" y="-229.8" font-family="Times,serif" font-size="14.00" fill="#000000">SharedNgbootstrapModule </text>
</g>
<!-- SharedModule&#45;&gt;SharedNgbootstrapModule  -->
<g id="edge21" class="edge">
<title>SharedModule&#45;&gt;SharedNgbootstrapModule </title>
<path fill="none" stroke="#000000" stroke-dasharray="5,2" d="M984.5835,-174C835.5788,-174 400.8757,-174 400.8757,-174 400.8757,-174 400.8757,-205.998 400.8757,-205.998"/>
<polygon fill="#000000" stroke="#000000" points="397.3758,-205.998 400.8757,-215.998 404.3758,-205.9981 397.3758,-205.998"/>
</g>
<!-- TwelveToneSpinnerComponent  -->
<g id="node23" class="node">
<title>TwelveToneSpinnerComponent </title>
<polygon fill="#fb8072" stroke="#000000" points="223.627,-252 24.373,-252 24.373,-216 223.627,-216 223.627,-252"/>
<text text-anchor="middle" x="124" y="-229.8" font-family="Times,serif" font-size="14.00" fill="#000000">TwelveToneSpinnerComponent </text>
</g>
<!-- SharedModule&#45;&gt;TwelveToneSpinnerComponent  -->
<g id="edge22" class="edge">
<title>SharedModule&#45;&gt;TwelveToneSpinnerComponent </title>
<path fill="none" stroke="#000000" stroke-dasharray="5,2" d="M984.7443,-171C808.1489,-171 217.1892,-171 217.1892,-171 217.1892,-171 217.1892,-205.7778 217.1892,-205.7778"/>
<polygon fill="#000000" stroke="#000000" points="213.6893,-205.7778 217.1892,-215.7778 220.6893,-205.7778 213.6893,-205.7778"/>
</g>
<!-- CompileHtmlModule -->
<g id="node11" class="node">
<title>CompileHtmlModule</title>
<polygon fill="#8dd3c7" stroke="#000000" points="365.0519,-122 362.0519,-126 341.0519,-126 338.0519,-122 228.9481,-122 228.9481,-86 365.0519,-86 365.0519,-122"/>
<text text-anchor="middle" x="297" y="-99.8" font-family="Times,serif" font-size="14.00" fill="#000000">CompileHtmlModule</text>
</g>
<!-- CompileHtmlModule&#45;&gt;SharedModule -->
<g id="edge10" class="edge">
<title>CompileHtmlModule&#45;&gt;SharedModule</title>
<path fill="none" stroke="#000000" d="M303.3554,-122.302C303.3554,-140.2699 303.3554,-165 303.3554,-165 303.3554,-165 974.6404,-165 974.6404,-165"/>
<polygon fill="#000000" stroke="#000000" points="974.6404,-168.5001 984.6404,-165 974.6404,-161.5001 974.6404,-168.5001"/>
</g>
<!-- SharedNgbootstrapModule -->
<g id="node12" class="node">
<title>SharedNgbootstrapModule</title>
<polygon fill="#8dd3c7" stroke="#000000" points="210.6302,-122 207.6302,-126 186.6302,-126 183.6302,-122 43.3698,-122 43.3698,-86 210.6302,-86 210.6302,-122"/>
<text text-anchor="middle" x="127" y="-99.8" font-family="Times,serif" font-size="14.00" fill="#000000">SharedNgbootstrapModule</text>
</g>
<!-- SharedNgbootstrapModule&#45;&gt;SharedModule -->
<g id="edge11" class="edge">
<title>SharedNgbootstrapModule&#45;&gt;SharedModule</title>
<path fill="none" stroke="#000000" d="M127,-122.1686C127,-141.0898 127,-168 127,-168 127,-168 974.5916,-168 974.5916,-168"/>
<polygon fill="#000000" stroke="#000000" points="974.5917,-171.5001 984.5916,-168 974.5916,-164.5001 974.5917,-171.5001"/>
</g>
</g>
</svg>
