<?xml version="1.0" encoding="UTF-8" standalone="no"?>
<!DOCTYPE svg PUBLIC "-//W3C//DTD SVG 1.1//EN"
 "http://www.w3.org/Graphics/SVG/1.1/DTD/svg11.dtd">
<!-- Generated by graphviz version 5.0.0 (20220707.1540)
 -->
<!-- Title: dependencies Pages: 1 -->
<svg width="2726pt" height="247pt"
 viewBox="0.00 0.00 2726.00 246.80" xmlns="http://www.w3.org/2000/svg" xmlns:xlink="http://www.w3.org/1999/xlink">
<g id="graph0" class="graph" transform="scale(1 1) rotate(0) translate(4 242.8)">
<title>dependencies</title>
<polygon fill="white" stroke="transparent" points="-4,4 -4,-242.8 2722,-242.8 2722,4 -4,4"/>
<text text-anchor="middle" x="1359" y="-8.2" font-family="sans-serif" font-size="14.00">dependencies</text>
<g id="clust1" class="cluster">
<title>cluster_SharedModule</title>
<polygon fill="none" stroke="black" stroke-dasharray="1,5" points="8,-32.8 8,-230.8 2710,-230.8 2710,-32.8 8,-32.8"/>
</g>
<g id="clust2" class="cluster">
<title>cluster_SharedModule_declarations</title>
<polygon fill="none" stroke="black" points="506,-40.8 506,-92.8 2702,-92.8 2702,-40.8 506,-40.8"/>
</g>
<g id="clust17" class="cluster">
<title>cluster_SharedModule_exports</title>
<polygon fill="none" stroke="black" points="89,-170.8 89,-222.8 2629,-222.8 2629,-170.8 89,-170.8"/>
</g>
<g id="clust16" class="cluster">
<title>cluster_SharedModule_imports</title>
<polygon fill="none" stroke="black" points="16,-40.8 16,-92.8 498,-92.8 498,-40.8 16,-40.8"/>
</g>
<!-- AddressComponent -->
<g id="node1" class="node">
<title>AddressComponent</title>
<polygon fill="#ffffb3" stroke="black" points="2693.71,-84.8 2566.29,-84.8 2566.29,-48.8 2693.71,-48.8 2693.71,-84.8"/>
<text text-anchor="middle" x="2630" y="-62.6" font-family="Times,serif" font-size="14.00">AddressComponent</text>
</g>
<!-- SharedModule -->
<g id="node14" class="node">
<title>SharedModule</title>
<polygon fill="#8dd3c7" stroke="black" points="1507.43,-149.8 1504.43,-153.8 1483.43,-153.8 1480.43,-149.8 1408.57,-149.8 1408.57,-113.8 1507.43,-113.8 1507.43,-149.8"/>
<text text-anchor="middle" x="1458" y="-127.6" font-family="Times,serif" font-size="14.00">SharedModule</text>
</g>
<!-- AddressComponent&#45;&gt;SharedModule -->
<g id="edge1" class="edge">
<title>AddressComponent&#45;&gt;SharedModule</title>
<path fill="none" stroke="black" d="M2593.88,-84.97C2593.88,-103.89 2593.88,-130.8 2593.88,-130.8 2593.88,-130.8 1517.54,-130.8 1517.54,-130.8"/>
<polygon fill="black" stroke="black" points="1517.54,-127.3 1507.54,-130.8 1517.54,-134.3 1517.54,-127.3"/>
</g>
<!-- ExternalLinkDirective -->
<g id="node2" class="node">
<title>ExternalLinkDirective</title>
<polygon fill="#ffffb3" stroke="black" points="2547.95,-84.8 2406.05,-84.8 2406.05,-48.8 2547.95,-48.8 2547.95,-84.8"/>
<text text-anchor="middle" x="2477" y="-62.6" font-family="Times,serif" font-size="14.00">ExternalLinkDirective</text>
</g>
<!-- ExternalLinkDirective&#45;&gt;SharedModule -->
<g id="edge2" class="edge">
<title>ExternalLinkDirective&#45;&gt;SharedModule</title>
<path fill="none" stroke="black" d="M2439.5,-85.07C2439.5,-103.36 2439.5,-128.8 2439.5,-128.8 2439.5,-128.8 1517.35,-128.8 1517.35,-128.8"/>
<polygon fill="black" stroke="black" points="1517.35,-125.3 1507.35,-128.8 1517.35,-132.3 1517.35,-125.3"/>
</g>
<!-- HeadingComponent -->
<g id="node3" class="node">
<title>HeadingComponent</title>
<polygon fill="#ffffb3" stroke="black" points="2388.26,-84.8 2259.74,-84.8 2259.74,-48.8 2388.26,-48.8 2388.26,-84.8"/>
<text text-anchor="middle" x="2324" y="-62.6" font-family="Times,serif" font-size="14.00">HeadingComponent</text>
</g>
<!-- HeadingComponent&#45;&gt;SharedModule -->
<g id="edge3" class="edge">
<title>HeadingComponent&#45;&gt;SharedModule</title>
<path fill="none" stroke="black" d="M2292.32,-84.82C2292.32,-102.17 2292.32,-125.8 2292.32,-125.8 2292.32,-125.8 1517.38,-125.8 1517.38,-125.8"/>
<polygon fill="black" stroke="black" points="1517.38,-122.3 1507.38,-125.8 1517.38,-129.3 1517.38,-122.3"/>
</g>
<!-- JsonViewerComponent -->
<g id="node4" class="node">
<title>JsonViewerComponent</title>
<polygon fill="#ffffb3" stroke="black" points="2241.93,-84.8 2094.07,-84.8 2094.07,-48.8 2241.93,-48.8 2241.93,-84.8"/>
<text text-anchor="middle" x="2168" y="-62.6" font-family="Times,serif" font-size="14.00">JsonViewerComponent</text>
</g>
<!-- JsonViewerComponent&#45;&gt;SharedModule -->
<g id="edge4" class="edge">
<title>JsonViewerComponent&#45;&gt;SharedModule</title>
<path fill="none" stroke="black" d="M2130.5,-84.84C2130.5,-101.53 2130.5,-123.8 2130.5,-123.8 2130.5,-123.8 1517.45,-123.8 1517.45,-123.8"/>
<polygon fill="black" stroke="black" points="1517.45,-120.3 1507.45,-123.8 1517.45,-127.3 1517.45,-120.3"/>
</g>
<!-- ModalComponent -->
<g id="node5" class="node">
<title>ModalComponent</title>
<polygon fill="#ffffb3" stroke="black" points="2075.88,-84.8 1958.12,-84.8 1958.12,-48.8 2075.88,-48.8 2075.88,-84.8"/>
<text text-anchor="middle" x="2017" y="-62.6" font-family="Times,serif" font-size="14.00">ModalComponent</text>
</g>
<!-- ModalComponent&#45;&gt;SharedModule -->
<g id="edge5" class="edge">
<title>ModalComponent&#45;&gt;SharedModule</title>
<path fill="none" stroke="black" d="M1980.59,-84.81C1980.59,-100.85 1980.59,-121.8 1980.59,-121.8 1980.59,-121.8 1517.64,-121.8 1517.64,-121.8"/>
<polygon fill="black" stroke="black" points="1517.64,-118.3 1507.64,-121.8 1517.64,-125.3 1517.64,-118.3"/>
</g>
<!-- OpenStreetMapComponent -->
<g id="node6" class="node">
<title>OpenStreetMapComponent</title>
<polygon fill="#ffffb3" stroke="black" points="1939.97,-84.8 1770.03,-84.8 1770.03,-48.8 1939.97,-48.8 1939.97,-84.8"/>
<text text-anchor="middle" x="1855" y="-62.6" font-family="Times,serif" font-size="14.00">OpenStreetMapComponent</text>
</g>
<!-- OpenStreetMapComponent&#45;&gt;SharedModule -->
<g id="edge6" class="edge">
<title>OpenStreetMapComponent&#45;&gt;SharedModule</title>
<path fill="none" stroke="black" d="M1811.24,-84.99C1811.24,-99.98 1811.24,-118.8 1811.24,-118.8 1811.24,-118.8 1517.49,-118.8 1517.49,-118.8"/>
<polygon fill="black" stroke="black" points="1517.49,-115.3 1507.49,-118.8 1517.49,-122.3 1517.49,-115.3"/>
</g>
<!-- OrderByPipe -->
<g id="node7" class="node">
<title>OrderByPipe</title>
<polygon fill="#ffffb3" stroke="black" points="1751.88,-84.8 1662.12,-84.8 1662.12,-48.8 1751.88,-48.8 1751.88,-84.8"/>
<text text-anchor="middle" x="1707" y="-62.6" font-family="Times,serif" font-size="14.00">OrderByPipe</text>
</g>
<!-- OrderByPipe&#45;&gt;SharedModule -->
<g id="edge7" class="edge">
<title>OrderByPipe&#45;&gt;SharedModule</title>
<path fill="none" stroke="black" d="M1672.88,-84.85C1672.88,-99.17 1672.88,-116.8 1672.88,-116.8 1672.88,-116.8 1517.3,-116.8 1517.3,-116.8"/>
<polygon fill="black" stroke="black" points="1517.3,-113.3 1507.3,-116.8 1517.3,-120.3 1517.3,-113.3"/>
</g>
<!-- RouterLinkButtonGroupComponent -->
<g id="node8" class="node">
<title>RouterLinkButtonGroupComponent</title>
<polygon fill="#ffffb3" stroke="black" points="1643.77,-84.8 1424.23,-84.8 1424.23,-48.8 1643.77,-48.8 1643.77,-84.8"/>
<text text-anchor="middle" x="1534" y="-62.6" font-family="Times,serif" font-size="14.00">RouterLinkButtonGroupComponent</text>
</g>
<!-- RouterLinkButtonGroupComponent&#45;&gt;SharedModule -->
<g id="edge8" class="edge">
<title>RouterLinkButtonGroupComponent&#45;&gt;SharedModule</title>
<path fill="none" stroke="black" d="M1465.67,-84.91C1465.67,-84.91 1465.67,-103.79 1465.67,-103.79"/>
<polygon fill="black" stroke="black" points="1462.17,-103.79 1465.67,-113.79 1469.17,-103.79 1462.17,-103.79"/>
</g>
<!-- TableComponent -->
<g id="node9" class="node">
<title>TableComponent</title>
<polygon fill="#ffffb3" stroke="black" points="1406.7,-84.8 1293.3,-84.8 1293.3,-48.8 1406.7,-48.8 1406.7,-84.8"/>
<text text-anchor="middle" x="1350" y="-62.6" font-family="Times,serif" font-size="14.00">TableComponent</text>
</g>
<!-- TableComponent&#45;&gt;SharedModule -->
<g id="edge9" class="edge">
<title>TableComponent&#45;&gt;SharedModule</title>
<path fill="none" stroke="black" d="M1406.65,-66.8C1412.55,-66.8 1416.45,-66.8 1416.45,-66.8 1416.45,-66.8 1416.45,-103.69 1416.45,-103.69"/>
<polygon fill="black" stroke="black" points="1412.95,-103.69 1416.45,-113.69 1419.95,-103.69 1412.95,-103.69"/>
</g>
<!-- TablePaginationComponent -->
<g id="node10" class="node">
<title>TablePaginationComponent</title>
<polygon fill="#ffffb3" stroke="black" points="1275.58,-84.8 1102.42,-84.8 1102.42,-48.8 1275.58,-48.8 1275.58,-84.8"/>
<text text-anchor="middle" x="1189" y="-62.6" font-family="Times,serif" font-size="14.00">TablePaginationComponent</text>
</g>
<!-- TablePaginationComponent&#45;&gt;SharedModule -->
<g id="edge10" class="edge">
<title>TablePaginationComponent&#45;&gt;SharedModule</title>
<path fill="none" stroke="black" d="M1267.93,-84.85C1267.93,-99.17 1267.93,-116.8 1267.93,-116.8 1267.93,-116.8 1398.56,-116.8 1398.56,-116.8"/>
<polygon fill="black" stroke="black" points="1398.56,-120.3 1408.56,-116.8 1398.56,-113.3 1398.56,-120.3"/>
</g>
<!-- ToastComponent -->
<g id="node11" class="node">
<title>ToastComponent</title>
<polygon fill="#ffffb3" stroke="black" points="1084.44,-84.8 971.56,-84.8 971.56,-48.8 1084.44,-48.8 1084.44,-84.8"/>
<text text-anchor="middle" x="1028" y="-62.6" font-family="Times,serif" font-size="14.00">ToastComponent</text>
</g>
<!-- ToastComponent&#45;&gt;SharedModule -->
<g id="edge11" class="edge">
<title>ToastComponent&#45;&gt;SharedModule</title>
<path fill="none" stroke="black" d="M1051.79,-84.99C1051.79,-99.98 1051.79,-118.8 1051.79,-118.8 1051.79,-118.8 1398.6,-118.8 1398.6,-118.8"/>
<polygon fill="black" stroke="black" points="1398.6,-122.3 1408.6,-118.8 1398.6,-115.3 1398.6,-122.3"/>
</g>
<!-- TwelveToneSpinnerComponent -->
<g id="node12" class="node">
<title>TwelveToneSpinnerComponent</title>
<polygon fill="#ffffb3" stroke="black" points="953.63,-84.8 758.37,-84.8 758.37,-48.8 953.63,-48.8 953.63,-84.8"/>
<text text-anchor="middle" x="856" y="-62.6" font-family="Times,serif" font-size="14.00">TwelveToneSpinnerComponent</text>
</g>
<!-- TwelveToneSpinnerComponent&#45;&gt;SharedModule -->
<g id="edge12" class="edge">
<title>TwelveToneSpinnerComponent&#45;&gt;SharedModule</title>
<path fill="none" stroke="black" d="M892.12,-84.81C892.12,-100.85 892.12,-121.8 892.12,-121.8 892.12,-121.8 1398.77,-121.8 1398.77,-121.8"/>
<polygon fill="black" stroke="black" points="1398.77,-125.3 1408.77,-121.8 1398.77,-118.3 1398.77,-125.3"/>
</g>
<!-- ViewHandleButtonGroupComponent -->
<g id="node13" class="node">
<title>ViewHandleButtonGroupComponent</title>
<polygon fill="#ffffb3" stroke="black" points="739.97,-84.8 514.03,-84.8 514.03,-48.8 739.97,-48.8 739.97,-84.8"/>
<text text-anchor="middle" x="627" y="-62.6" font-family="Times,serif" font-size="14.00">ViewHandleButtonGroupComponent</text>
</g>
<!-- ViewHandleButtonGroupComponent&#45;&gt;SharedModule -->
<g id="edge13" class="edge">
<title>ViewHandleButtonGroupComponent&#45;&gt;SharedModule</title>
<path fill="none" stroke="black" d="M717.82,-84.84C717.82,-101.53 717.82,-123.8 717.82,-123.8 717.82,-123.8 1398.57,-123.8 1398.57,-123.8"/>
<polygon fill="black" stroke="black" points="1398.57,-127.3 1408.57,-123.8 1398.57,-120.3 1398.57,-127.3"/>
</g>
<!-- AddressComponent  -->
<g id="node18" class="node">
<title>AddressComponent </title>
<polygon fill="#fb8072" stroke="black" points="2621.21,-214.8 2490.79,-214.8 2490.79,-178.8 2621.21,-178.8 2621.21,-214.8"/>
<text text-anchor="middle" x="2556" y="-192.6" font-family="Times,serif" font-size="14.00">AddressComponent </text>
</g>
<!-- SharedModule&#45;&gt;AddressComponent  -->
<g id="edge17" class="edge">
<title>SharedModule&#45;&gt;AddressComponent </title>
<path fill="none" stroke="black" stroke-dasharray="5,2" d="M1507.41,-133.8C1716.69,-133.8 2519.31,-133.8 2519.31,-133.8 2519.31,-133.8 2519.31,-168.58 2519.31,-168.58"/>
<polygon fill="black" stroke="black" points="2515.81,-168.58 2519.31,-178.58 2522.81,-168.58 2515.81,-168.58"/>
</g>
<!-- CodeMirrorModule  -->
<g id="node19" class="node">
<title>CodeMirrorModule </title>
<polygon fill="#fb8072" stroke="black" points="2472.93,-214.8 2343.07,-214.8 2343.07,-178.8 2472.93,-178.8 2472.93,-214.8"/>
<text text-anchor="middle" x="2408" y="-192.6" font-family="Times,serif" font-size="14.00">CodeMirrorModule </text>
</g>
<!-- SharedModule&#45;&gt;CodeMirrorModule  -->
<g id="edge18" class="edge">
<title>SharedModule&#45;&gt;CodeMirrorModule </title>
<path fill="none" stroke="black" stroke-dasharray="5,2" d="M1507.45,-135.8C1696.87,-135.8 2365.71,-135.8 2365.71,-135.8 2365.71,-135.8 2365.71,-168.5 2365.71,-168.5"/>
<polygon fill="black" stroke="black" points="2362.21,-168.5 2365.71,-178.5 2369.21,-168.5 2362.21,-168.5"/>
</g>
<!-- CompileHtmlModule  -->
<g id="node20" class="node">
<title>CompileHtmlModule </title>
<polygon fill="#fb8072" stroke="black" points="2325.05,-214.8 2184.95,-214.8 2184.95,-178.8 2325.05,-178.8 2325.05,-214.8"/>
<text text-anchor="middle" x="2255" y="-192.6" font-family="Times,serif" font-size="14.00">CompileHtmlModule </text>
</g>
<!-- SharedModule&#45;&gt;CompileHtmlModule  -->
<g id="edge19" class="edge">
<title>SharedModule&#45;&gt;CompileHtmlModule </title>
<path fill="none" stroke="black" stroke-dasharray="5,2" d="M1507.27,-137.8C1674.98,-137.8 2213.34,-137.8 2213.34,-137.8 2213.34,-137.8 2213.34,-168.78 2213.34,-168.78"/>
<polygon fill="black" stroke="black" points="2209.84,-168.78 2213.34,-178.78 2216.84,-168.78 2209.84,-168.78"/>
</g>
<!-- ExternalLinkDirective  -->
<g id="node21" class="node">
<title>ExternalLinkDirective </title>
<polygon fill="#fb8072" stroke="black" points="2166.95,-214.8 2021.05,-214.8 2021.05,-178.8 2166.95,-178.8 2166.95,-214.8"/>
<text text-anchor="middle" x="2094" y="-192.6" font-family="Times,serif" font-size="14.00">ExternalLinkDirective </text>
</g>
<!-- SharedModule&#45;&gt;ExternalLinkDirective  -->
<g id="edge20" class="edge">
<title>SharedModule&#45;&gt;ExternalLinkDirective </title>
<path fill="none" stroke="black" stroke-dasharray="5,2" d="M1507.34,-140.8C1649.29,-140.8 2048.61,-140.8 2048.61,-140.8 2048.61,-140.8 2048.61,-168.77 2048.61,-168.77"/>
<polygon fill="black" stroke="black" points="2045.11,-168.77 2048.61,-178.77 2052.11,-168.77 2045.11,-168.77"/>
</g>
<!-- HeadingComponent  -->
<g id="node22" class="node">
<title>HeadingComponent </title>
<polygon fill="#fb8072" stroke="black" points="2003.26,-214.8 1870.74,-214.8 1870.74,-178.8 2003.26,-178.8 2003.26,-214.8"/>
<text text-anchor="middle" x="1937" y="-192.6" font-family="Times,serif" font-size="14.00">HeadingComponent </text>
</g>
<!-- SharedModule&#45;&gt;HeadingComponent  -->
<g id="edge21" class="edge">
<title>SharedModule&#45;&gt;HeadingComponent </title>
<path fill="none" stroke="black" stroke-dasharray="5,2" d="M1507.59,-142.8C1624.09,-142.8 1905.43,-142.8 1905.43,-142.8 1905.43,-142.8 1905.43,-168.52 1905.43,-168.52"/>
<polygon fill="black" stroke="black" points="1901.93,-168.52 1905.43,-178.52 1908.93,-168.52 1901.93,-168.52"/>
</g>
<!-- JsonViewerComponent  -->
<g id="node23" class="node">
<title>JsonViewerComponent </title>
<polygon fill="#fb8072" stroke="black" points="1852.43,-214.8 1701.57,-214.8 1701.57,-178.8 1852.43,-178.8 1852.43,-214.8"/>
<text text-anchor="middle" x="1777" y="-192.6" font-family="Times,serif" font-size="14.00">JsonViewerComponent </text>
</g>
<!-- SharedModule&#45;&gt;JsonViewerComponent  -->
<g id="edge22" class="edge">
<title>SharedModule&#45;&gt;JsonViewerComponent </title>
<path fill="none" stroke="black" stroke-dasharray="5,2" d="M1507.29,-145.8C1584.87,-145.8 1726.74,-145.8 1726.74,-145.8 1726.74,-145.8 1726.74,-168.68 1726.74,-168.68"/>
<polygon fill="black" stroke="black" points="1723.24,-168.68 1726.74,-178.68 1730.24,-168.68 1723.24,-168.68"/>
</g>
<!-- ModalComponent  -->
<g id="node24" class="node">
<title>ModalComponent </title>
<polygon fill="#fb8072" stroke="black" points="1683.88,-214.8 1562.12,-214.8 1562.12,-178.8 1683.88,-178.8 1683.88,-214.8"/>
<text text-anchor="middle" x="1623" y="-192.6" font-family="Times,serif" font-size="14.00">ModalComponent </text>
</g>
<!-- SharedModule&#45;&gt;ModalComponent  -->
<g id="edge23" class="edge">
<title>SharedModule&#45;&gt;ModalComponent </title>
<path fill="none" stroke="black" stroke-dasharray="5,2" d="M1507.53,-147.8C1549.56,-147.8 1603.1,-147.8 1603.1,-147.8 1603.1,-147.8 1603.1,-168.55 1603.1,-168.55"/>
<polygon fill="black" stroke="black" points="1599.6,-168.55 1603.1,-178.55 1606.6,-168.55 1599.6,-168.55"/>
</g>
<!-- OpenStreetMapComponent  -->
<g id="node25" class="node">
<title>OpenStreetMapComponent </title>
<polygon fill="#fb8072" stroke="black" points="1544.97,-214.8 1371.03,-214.8 1371.03,-178.8 1544.97,-178.8 1544.97,-214.8"/>
<text text-anchor="middle" x="1458" y="-192.6" font-family="Times,serif" font-size="14.00">OpenStreetMapComponent </text>
</g>
<!-- SharedModule&#45;&gt;OpenStreetMapComponent  -->
<g id="edge24" class="edge">
<title>SharedModule&#45;&gt;OpenStreetMapComponent </title>
<path fill="none" stroke="black" stroke-dasharray="5,2" d="M1458,-149.91C1458,-149.91 1458,-168.79 1458,-168.79"/>
<polygon fill="black" stroke="black" points="1454.5,-168.79 1458,-178.79 1461.5,-168.79 1454.5,-168.79"/>
</g>
<!-- OrderByPipe  -->
<g id="node26" class="node">
<title>OrderByPipe </title>
<polygon fill="#fb8072" stroke="black" points="1353.88,-214.8 1260.12,-214.8 1260.12,-178.8 1353.88,-178.8 1353.88,-214.8"/>
<text text-anchor="middle" x="1307" y="-192.6" font-family="Times,serif" font-size="14.00">OrderByPipe </text>
</g>
<!-- SharedModule&#45;&gt;OrderByPipe  -->
<g id="edge25" class="edge">
<title>SharedModule&#45;&gt;OrderByPipe </title>
<path fill="none" stroke="black" stroke-dasharray="5,2" d="M1408.7,-147.8C1370.32,-147.8 1323.54,-147.8 1323.54,-147.8 1323.54,-147.8 1323.54,-168.55 1323.54,-168.55"/>
<polygon fill="black" stroke="black" points="1320.04,-168.55 1323.54,-178.55 1327.04,-168.55 1320.04,-168.55"/>
</g>
<!-- RouterLinkButtonGroupComponent  -->
<g id="node27" class="node">
<title>RouterLinkButtonGroupComponent </title>
<polygon fill="#fb8072" stroke="black" points="1242.77,-214.8 1019.23,-214.8 1019.23,-178.8 1242.77,-178.8 1242.77,-214.8"/>
<text text-anchor="middle" x="1131" y="-192.6" font-family="Times,serif" font-size="14.00">RouterLinkButtonGroupComponent </text>
</g>
<!-- SharedModule&#45;&gt;RouterLinkButtonGroupComponent  -->
<g id="edge26" class="edge">
<title>SharedModule&#45;&gt;RouterLinkButtonGroupComponent </title>
<path fill="none" stroke="black" stroke-dasharray="5,2" d="M1408.6,-145.8C1326.9,-145.8 1172.55,-145.8 1172.55,-145.8 1172.55,-145.8 1172.55,-168.68 1172.55,-168.68"/>
<polygon fill="black" stroke="black" points="1169.05,-168.68 1172.55,-178.68 1176.05,-168.68 1169.05,-168.68"/>
</g>
<!-- SharedNgbootstrapModule  -->
<g id="node28" class="node">
<title>SharedNgbootstrapModule </title>
<polygon fill="#fb8072" stroke="black" points="1001.64,-214.8 830.36,-214.8 830.36,-178.8 1001.64,-178.8 1001.64,-214.8"/>
<text text-anchor="middle" x="916" y="-192.6" font-family="Times,serif" font-size="14.00">SharedNgbootstrapModule </text>
</g>
<!-- SharedModule&#45;&gt;SharedNgbootstrapModule  -->
<g id="edge27" class="edge">
<title>SharedModule&#45;&gt;SharedNgbootstrapModule </title>
<path fill="none" stroke="black" stroke-dasharray="5,2" d="M1408.45,-142.8C1287.44,-142.8 986.68,-142.8 986.68,-142.8 986.68,-142.8 986.68,-168.52 986.68,-168.52"/>
<polygon fill="black" stroke="black" points="983.18,-168.52 986.68,-178.52 990.18,-168.52 983.18,-168.52"/>
</g>
<!-- TableComponent  -->
<g id="node29" class="node">
<title>TableComponent </title>
<polygon fill="#fb8072" stroke="black" points="812.2,-214.8 695.8,-214.8 695.8,-178.8 812.2,-178.8 812.2,-214.8"/>
<text text-anchor="middle" x="754" y="-192.6" font-family="Times,serif" font-size="14.00">TableComponent </text>
</g>
<!-- SharedModule&#45;&gt;TableComponent  -->
<g id="edge28" class="edge">
<title>SharedModule&#45;&gt;TableComponent </title>
<path fill="none" stroke="black" stroke-dasharray="5,2" d="M1408.53,-140.8C1253.17,-140.8 785.27,-140.8 785.27,-140.8 785.27,-140.8 785.27,-168.77 785.27,-168.77"/>
<polygon fill="black" stroke="black" points="781.77,-168.77 785.27,-178.77 788.77,-168.77 781.77,-168.77"/>
</g>
<!-- ToastComponent  -->
<g id="node30" class="node">
<title>ToastComponent </title>
<polygon fill="#fb8072" stroke="black" points="677.93,-214.8 562.07,-214.8 562.07,-178.8 677.93,-178.8 677.93,-214.8"/>
<text text-anchor="middle" x="620" y="-192.6" font-family="Times,serif" font-size="14.00">ToastComponent </text>
</g>
<!-- SharedModule&#45;&gt;ToastComponent  -->
<g id="edge29" class="edge">
<title>SharedModule&#45;&gt;ToastComponent </title>
<path fill="none" stroke="black" stroke-dasharray="5,2" d="M1408.71,-137.8C1229.08,-137.8 620,-137.8 620,-137.8 620,-137.8 620,-168.78 620,-168.78"/>
<polygon fill="black" stroke="black" points="616.5,-168.78 620,-178.78 623.5,-168.78 616.5,-168.78"/>
</g>
<!-- TwelveToneSpinnerComponent  -->
<g id="node31" class="node">
<title>TwelveToneSpinnerComponent </title>
<polygon fill="#fb8072" stroke="black" points="543.63,-214.8 344.37,-214.8 344.37,-178.8 543.63,-178.8 543.63,-214.8"/>
<text text-anchor="middle" x="444" y="-192.6" font-family="Times,serif" font-size="14.00">TwelveToneSpinnerComponent </text>
</g>
<!-- SharedModule&#45;&gt;TwelveToneSpinnerComponent  -->
<g id="edge30" class="edge">
<title>SharedModule&#45;&gt;TwelveToneSpinnerComponent </title>
<path fill="none" stroke="black" stroke-dasharray="5,2" d="M1408.7,-135.8C1216.6,-135.8 528.79,-135.8 528.79,-135.8 528.79,-135.8 528.79,-168.5 528.79,-168.5"/>
<polygon fill="black" stroke="black" points="525.29,-168.5 528.79,-178.5 532.29,-168.5 525.29,-168.5"/>
</g>
<!-- ViewHandleButtonGroupComponent  -->
<g id="node32" class="node">
<title>ViewHandleButtonGroupComponent </title>
<polygon fill="#fb8072" stroke="black" points="326.97,-214.8 97.03,-214.8 97.03,-178.8 326.97,-178.8 326.97,-214.8"/>
<text text-anchor="middle" x="212" y="-192.6" font-family="Times,serif" font-size="14.00">ViewHandleButtonGroupComponent </text>
</g>
<!-- SharedModule&#45;&gt;ViewHandleButtonGroupComponent  -->
<g id="edge31" class="edge">
<title>SharedModule&#45;&gt;ViewHandleButtonGroupComponent </title>
<path fill="none" stroke="black" stroke-dasharray="5,2" d="M1408.77,-133.8C1184.24,-133.8 268.23,-133.8 268.23,-133.8 268.23,-133.8 268.23,-168.58 268.23,-168.58"/>
<polygon fill="black" stroke="black" points="264.73,-168.58 268.23,-178.58 271.73,-168.58 264.73,-168.58"/>
</g>
<!-- CodeMirrorModule -->
<g id="node15" class="node">
<title>CodeMirrorModule</title>
<polygon fill="#8dd3c7" stroke="black" points="490.43,-84.8 487.43,-88.8 466.43,-88.8 463.43,-84.8 363.57,-84.8 363.57,-48.8 490.43,-48.8 490.43,-84.8"/>
<text text-anchor="middle" x="427" y="-62.6" font-family="Times,serif" font-size="14.00">CodeMirrorModule</text>
</g>
<!-- CodeMirrorModule&#45;&gt;SharedModule -->
<g id="edge14" class="edge">
<title>CodeMirrorModule&#45;&gt;SharedModule</title>
<path fill="none" stroke="black" d="M427,-84.82C427,-102.17 427,-125.8 427,-125.8 427,-125.8 1398.62,-125.8 1398.62,-125.8"/>
<polygon fill="black" stroke="black" points="1398.62,-129.3 1408.62,-125.8 1398.62,-122.3 1398.62,-129.3"/>
</g>
<!-- CompileHtmlModule -->
<g id="node16" class="node">
<title>CompileHtmlModule</title>
<polygon fill="#8dd3c7" stroke="black" points="346.05,-84.8 343.05,-88.8 322.05,-88.8 319.05,-84.8 209.95,-84.8 209.95,-48.8 346.05,-48.8 346.05,-84.8"/>
<text text-anchor="middle" x="278" y="-62.6" font-family="Times,serif" font-size="14.00">CompileHtmlModule</text>
</g>
<!-- CompileHtmlModule&#45;&gt;SharedModule -->
<g id="edge15" class="edge">
<title>CompileHtmlModule&#45;&gt;SharedModule</title>
<path fill="none" stroke="black" d="M335.59,-85.07C335.59,-103.36 335.59,-128.8 335.59,-128.8 335.59,-128.8 1398.69,-128.8 1398.69,-128.8"/>
<polygon fill="black" stroke="black" points="1398.69,-132.3 1408.69,-128.8 1398.69,-125.3 1398.69,-132.3"/>
</g>
<!-- SharedNgbootstrapModule -->
<g id="node17" class="node">
<title>SharedNgbootstrapModule</title>
<polygon fill="#8dd3c7" stroke="black" points="191.64,-84.8 188.64,-88.8 167.64,-88.8 164.64,-84.8 24.36,-84.8 24.36,-48.8 191.64,-48.8 191.64,-84.8"/>
<text text-anchor="middle" x="108" y="-62.6" font-family="Times,serif" font-size="14.00">SharedNgbootstrapModule</text>
</g>
<!-- SharedNgbootstrapModule&#45;&gt;SharedModule -->
<g id="edge16" class="edge">
<title>SharedNgbootstrapModule&#45;&gt;SharedModule</title>
<path fill="none" stroke="black" d="M144.54,-84.97C144.54,-103.89 144.54,-130.8 144.54,-130.8 144.54,-130.8 1398.51,-130.8 1398.51,-130.8"/>
<polygon fill="black" stroke="black" points="1398.51,-134.3 1408.51,-130.8 1398.51,-127.3 1398.51,-134.3"/>
</g>
</g>
</svg>
