<?xml version="1.0" encoding="UTF-8" standalone="no"?>
<!DOCTYPE svg PUBLIC "-//W3C//DTD SVG 1.1//EN"
 "http://www.w3.org/Graphics/SVG/1.1/DTD/svg11.dtd">
<!-- Generated by graphviz version 2.47.0 (20210316.0004)
 -->
<!-- Title: dependencies Pages: 1 -->
<svg width="2868pt" height="284pt"
 viewBox="0.00 0.00 2868.00 284.00" xmlns="http://www.w3.org/2000/svg" xmlns:xlink="http://www.w3.org/1999/xlink">
<g id="graph0" class="graph" transform="scale(1 1) rotate(0) translate(4 280)">
<title>dependencies</title>
<polygon fill="white" stroke="transparent" points="-4,4 -4,-280 2864,-280 2864,4 -4,4"/>
<text text-anchor="start" x="1409.01" y="-42.4" font-family="Times-12" font-weight="bold" font-size="14.00">Legend</text>
<polygon fill="#ffffb3" stroke="transparent" points="1196,-10 1196,-30 1216,-30 1216,-10 1196,-10"/>
<text text-anchor="start" x="1219.63" y="-15.4" font-family="Times-12" font-size="14.00"> &#160;Declarations</text>
<polygon fill="#8dd3c7" stroke="transparent" points="1309,-10 1309,-30 1329,-30 1329,-10 1309,-10"/>
<text text-anchor="start" x="1332.73" y="-15.4" font-family="Times-12" font-size="14.00"> &#160;Module</text>
<polygon fill="#80b1d3" stroke="transparent" points="1395,-10 1395,-30 1415,-30 1415,-10 1395,-10"/>
<text text-anchor="start" x="1418.78" y="-15.4" font-family="Times-12" font-size="14.00"> &#160;Bootstrap</text>
<polygon fill="#fdb462" stroke="transparent" points="1492,-10 1492,-30 1512,-30 1512,-10 1492,-10"/>
<text text-anchor="start" x="1515.67" y="-15.4" font-family="Times-12" font-size="14.00"> &#160;Providers</text>
<polygon fill="#fb8072" stroke="transparent" points="1588,-10 1588,-30 1608,-30 1608,-10 1588,-10"/>
<text text-anchor="start" x="1611.73" y="-15.4" font-family="Times-12" font-size="14.00"> &#160;Exports</text>
<g id="clust1" class="cluster">
<title>cluster_SharedModule</title>
<polygon fill="none" stroke="black" stroke-dasharray="1,5" points="8,-70 8,-268 2852,-268 2852,-70 8,-70"/>
</g>
<g id="clust18" class="cluster">
<title>cluster_SharedModule_exports</title>
<polygon fill="none" stroke="black" points="87,-208 87,-260 2774,-260 2774,-208 87,-208"/>
</g>
<g id="clust17" class="cluster">
<title>cluster_SharedModule_imports</title>
<polygon fill="none" stroke="black" points="2362,-78 2362,-130 2844,-130 2844,-78 2362,-78"/>
</g>
<g id="clust2" class="cluster">
<title>cluster_SharedModule_declarations</title>
<polygon fill="none" stroke="black" points="16,-78 16,-130 2354,-130 2354,-78 16,-78"/>
</g>
<!-- AddressComponent -->
<g id="node1" class="node">
<title>AddressComponent</title>
<polygon fill="#ffffb3" stroke="black" points="2345.7,-122 2218.3,-122 2218.3,-86 2345.7,-86 2345.7,-122"/>
<text text-anchor="middle" x="2282" y="-99.8" font-family="Times,serif" font-size="14.00">AddressComponent</text>
</g>
<!-- SharedModule -->
<g id="node15" class="node">
<title>SharedModule</title>
<polygon fill="#8dd3c7" stroke="black" points="1576.42,-187 1573.42,-191 1552.42,-191 1549.42,-187 1477.58,-187 1477.58,-151 1576.42,-151 1576.42,-187"/>
<text text-anchor="middle" x="1527" y="-164.8" font-family="Times,serif" font-size="14.00">SharedModule</text>
</g>
<!-- AddressComponent&#45;&gt;SharedModule -->
<g id="edge1" class="edge">
<title>AddressComponent&#45;&gt;SharedModule</title>
<path fill="none" stroke="black" d="M2265.06,-122.02C2265.06,-139.37 2265.06,-163 2265.06,-163 2265.06,-163 1586.28,-163 1586.28,-163"/>
<polygon fill="black" stroke="black" points="1586.28,-159.5 1576.28,-163 1586.28,-166.5 1586.28,-159.5"/>
</g>
<!-- ExternalLinkDirective -->
<g id="node2" class="node">
<title>ExternalLinkDirective</title>
<polygon fill="#ffffb3" stroke="black" points="2199.95,-122 2058.05,-122 2058.05,-86 2199.95,-86 2199.95,-122"/>
<text text-anchor="middle" x="2129" y="-99.8" font-family="Times,serif" font-size="14.00">ExternalLinkDirective</text>
</g>
<!-- ExternalLinkDirective&#45;&gt;SharedModule -->
<g id="edge2" class="edge">
<title>ExternalLinkDirective&#45;&gt;SharedModule</title>
<path fill="none" stroke="black" d="M2103.08,-122.03C2103.08,-138.4 2103.08,-160 2103.08,-160 2103.08,-160 1586.37,-160 1586.37,-160"/>
<polygon fill="black" stroke="black" points="1586.37,-156.5 1576.37,-160 1586.37,-163.5 1586.37,-156.5"/>
</g>
<!-- HeadingComponent -->
<g id="node3" class="node">
<title>HeadingComponent</title>
<polygon fill="#ffffb3" stroke="black" points="2040.26,-122 1911.74,-122 1911.74,-86 2040.26,-86 2040.26,-122"/>
<text text-anchor="middle" x="1976" y="-99.8" font-family="Times,serif" font-size="14.00">HeadingComponent</text>
</g>
<!-- HeadingComponent&#45;&gt;SharedModule -->
<g id="edge3" class="edge">
<title>HeadingComponent&#45;&gt;SharedModule</title>
<path fill="none" stroke="black" d="M1954.54,-122.28C1954.54,-137.95 1954.54,-158 1954.54,-158 1954.54,-158 1586.46,-158 1586.46,-158"/>
<polygon fill="black" stroke="black" points="1586.46,-154.5 1576.46,-158 1586.46,-161.5 1586.46,-154.5"/>
</g>
<!-- JsonViewerComponent -->
<g id="node4" class="node">
<title>JsonViewerComponent</title>
<polygon fill="#ffffb3" stroke="black" points="1893.92,-122 1746.08,-122 1746.08,-86 1893.92,-86 1893.92,-122"/>
<text text-anchor="middle" x="1820" y="-99.8" font-family="Times,serif" font-size="14.00">JsonViewerComponent</text>
</g>
<!-- JsonViewerComponent&#45;&gt;SharedModule -->
<g id="edge4" class="edge">
<title>JsonViewerComponent&#45;&gt;SharedModule</title>
<path fill="none" stroke="black" d="M1787.24,-122.19C1787.24,-137.18 1787.24,-156 1787.24,-156 1787.24,-156 1586.25,-156 1586.25,-156"/>
<polygon fill="black" stroke="black" points="1586.25,-152.5 1576.25,-156 1586.25,-159.5 1586.25,-152.5"/>
</g>
<!-- LicenseComponent -->
<g id="node5" class="node">
<title>LicenseComponent</title>
<polygon fill="#ffffb3" stroke="black" points="1728.36,-122 1603.64,-122 1603.64,-86 1728.36,-86 1728.36,-122"/>
<text text-anchor="middle" x="1666" y="-99.8" font-family="Times,serif" font-size="14.00">LicenseComponent</text>
</g>
<!-- LicenseComponent&#45;&gt;SharedModule -->
<g id="edge5" class="edge">
<title>LicenseComponent&#45;&gt;SharedModule</title>
<path fill="none" stroke="black" d="M1642.63,-122.05C1642.63,-136.37 1642.63,-154 1642.63,-154 1642.63,-154 1586.37,-154 1586.37,-154"/>
<polygon fill="black" stroke="black" points="1586.37,-150.5 1576.37,-154 1586.37,-157.5 1586.37,-150.5"/>
</g>
<!-- ModalComponent -->
<g id="node6" class="node">
<title>ModalComponent</title>
<polygon fill="#ffffb3" stroke="black" points="1585.88,-122 1468.12,-122 1468.12,-86 1585.88,-86 1585.88,-122"/>
<text text-anchor="middle" x="1527" y="-99.8" font-family="Times,serif" font-size="14.00">ModalComponent</text>
</g>
<!-- ModalComponent&#45;&gt;SharedModule -->
<g id="edge6" class="edge">
<title>ModalComponent&#45;&gt;SharedModule</title>
<path fill="none" stroke="black" d="M1527,-122.11C1527,-122.11 1527,-140.99 1527,-140.99"/>
<polygon fill="black" stroke="black" points="1523.5,-140.99 1527,-150.99 1530.5,-140.99 1523.5,-140.99"/>
</g>
<!-- OpenStreetMapComponent -->
<g id="node7" class="node">
<title>OpenStreetMapComponent</title>
<polygon fill="#ffffb3" stroke="black" points="1449.97,-122 1280.03,-122 1280.03,-86 1449.97,-86 1449.97,-122"/>
<text text-anchor="middle" x="1365" y="-99.8" font-family="Times,serif" font-size="14.00">OpenStreetMapComponent</text>
</g>
<!-- OpenStreetMapComponent&#45;&gt;SharedModule -->
<g id="edge7" class="edge">
<title>OpenStreetMapComponent&#45;&gt;SharedModule</title>
<path fill="none" stroke="black" d="M1409.62,-122.05C1409.62,-136.37 1409.62,-154 1409.62,-154 1409.62,-154 1467.56,-154 1467.56,-154"/>
<polygon fill="black" stroke="black" points="1467.56,-157.5 1477.56,-154 1467.56,-150.5 1467.56,-157.5"/>
</g>
<!-- OrderByPipe -->
<g id="node8" class="node">
<title>OrderByPipe</title>
<polygon fill="#ffffb3" stroke="black" points="1261.87,-122 1172.13,-122 1172.13,-86 1261.87,-86 1261.87,-122"/>
<text text-anchor="middle" x="1217" y="-99.8" font-family="Times,serif" font-size="14.00">OrderByPipe</text>
</g>
<!-- OrderByPipe&#45;&gt;SharedModule -->
<g id="edge8" class="edge">
<title>OrderByPipe&#45;&gt;SharedModule</title>
<path fill="none" stroke="black" d="M1249.47,-122.19C1249.47,-137.18 1249.47,-156 1249.47,-156 1249.47,-156 1467.7,-156 1467.7,-156"/>
<polygon fill="black" stroke="black" points="1467.7,-159.5 1477.7,-156 1467.7,-152.5 1467.7,-159.5"/>
</g>
<!-- RouterLinkButtonGroupComponent -->
<g id="node9" class="node">
<title>RouterLinkButtonGroupComponent</title>
<polygon fill="#ffffb3" stroke="black" points="1153.76,-122 934.24,-122 934.24,-86 1153.76,-86 1153.76,-122"/>
<text text-anchor="middle" x="1044" y="-99.8" font-family="Times,serif" font-size="14.00">RouterLinkButtonGroupComponent</text>
</g>
<!-- RouterLinkButtonGroupComponent&#45;&gt;SharedModule -->
<g id="edge9" class="edge">
<title>RouterLinkButtonGroupComponent&#45;&gt;SharedModule</title>
<path fill="none" stroke="black" d="M1085.62,-122.28C1085.62,-137.95 1085.62,-158 1085.62,-158 1085.62,-158 1467.65,-158 1467.65,-158"/>
<polygon fill="black" stroke="black" points="1467.65,-161.5 1477.65,-158 1467.65,-154.5 1467.65,-161.5"/>
</g>
<!-- TableComponent -->
<g id="node10" class="node">
<title>TableComponent</title>
<polygon fill="#ffffb3" stroke="black" points="916.7,-122 803.3,-122 803.3,-86 916.7,-86 916.7,-122"/>
<text text-anchor="middle" x="860" y="-99.8" font-family="Times,serif" font-size="14.00">TableComponent</text>
</g>
<!-- TableComponent&#45;&gt;SharedModule -->
<g id="edge10" class="edge">
<title>TableComponent&#45;&gt;SharedModule</title>
<path fill="none" stroke="black" d="M872.52,-122.03C872.52,-138.4 872.52,-160 872.52,-160 872.52,-160 1467.54,-160 1467.54,-160"/>
<polygon fill="black" stroke="black" points="1467.54,-163.5 1477.54,-160 1467.54,-156.5 1467.54,-163.5"/>
</g>
<!-- TablePaginationComponent -->
<g id="node11" class="node">
<title>TablePaginationComponent</title>
<polygon fill="#ffffb3" stroke="black" points="785.59,-122 612.41,-122 612.41,-86 785.59,-86 785.59,-122"/>
<text text-anchor="middle" x="699" y="-99.8" font-family="Times,serif" font-size="14.00">TablePaginationComponent</text>
</g>
<!-- TablePaginationComponent&#45;&gt;SharedModule -->
<g id="edge11" class="edge">
<title>TablePaginationComponent&#45;&gt;SharedModule</title>
<path fill="none" stroke="black" d="M739.6,-122.02C739.6,-139.37 739.6,-163 739.6,-163 739.6,-163 1467.74,-163 1467.74,-163"/>
<polygon fill="black" stroke="black" points="1467.74,-166.5 1477.74,-163 1467.74,-159.5 1467.74,-166.5"/>
</g>
<!-- ToastComponent -->
<g id="node12" class="node">
<title>ToastComponent</title>
<polygon fill="#ffffb3" stroke="black" points="594.44,-122 481.56,-122 481.56,-86 594.44,-86 594.44,-122"/>
<text text-anchor="middle" x="538" y="-99.8" font-family="Times,serif" font-size="14.00">ToastComponent</text>
</g>
<!-- ToastComponent&#45;&gt;SharedModule -->
<g id="edge12" class="edge">
<title>ToastComponent&#45;&gt;SharedModule</title>
<path fill="none" stroke="black" d="M577.12,-122.3C577.12,-140.27 577.12,-165 577.12,-165 577.12,-165 1467.6,-165 1467.6,-165"/>
<polygon fill="black" stroke="black" points="1467.6,-168.5 1477.6,-165 1467.6,-161.5 1467.6,-168.5"/>
</g>
<!-- TwelveToneSpinnerComponent -->
<g id="node13" class="node">
<title>TwelveToneSpinnerComponent</title>
<polygon fill="#ffffb3" stroke="black" points="463.63,-122 268.37,-122 268.37,-86 463.63,-86 463.63,-122"/>
<text text-anchor="middle" x="366" y="-99.8" font-family="Times,serif" font-size="14.00">TwelveToneSpinnerComponent</text>
</g>
<!-- TwelveToneSpinnerComponent&#45;&gt;SharedModule -->
<g id="edge13" class="edge">
<title>TwelveToneSpinnerComponent&#45;&gt;SharedModule</title>
<path fill="none" stroke="black" d="M403.12,-122.22C403.12,-140.83 403.12,-167 403.12,-167 403.12,-167 1467.62,-167 1467.62,-167"/>
<polygon fill="black" stroke="black" points="1467.62,-170.5 1477.62,-167 1467.62,-163.5 1467.62,-170.5"/>
</g>
<!-- ViewHandleButtonGroupComponent -->
<g id="node14" class="node">
<title>ViewHandleButtonGroupComponent</title>
<polygon fill="#ffffb3" stroke="black" points="249.96,-122 24.04,-122 24.04,-86 249.96,-86 249.96,-122"/>
<text text-anchor="middle" x="137" y="-99.8" font-family="Times,serif" font-size="14.00">ViewHandleButtonGroupComponent</text>
</g>
<!-- ViewHandleButtonGroupComponent&#45;&gt;SharedModule -->
<g id="edge14" class="edge">
<title>ViewHandleButtonGroupComponent&#45;&gt;SharedModule</title>
<path fill="none" stroke="black" d="M172.62,-122.11C172.62,-141.34 172.62,-169 172.62,-169 172.62,-169 1467.59,-169 1467.59,-169"/>
<polygon fill="black" stroke="black" points="1467.59,-172.5 1477.59,-169 1467.59,-165.5 1467.59,-172.5"/>
</g>
<!-- AddressComponent  -->
<g id="node19" class="node">
<title>AddressComponent </title>
<polygon fill="#fb8072" stroke="black" points="2766.2,-252 2635.8,-252 2635.8,-216 2766.2,-216 2766.2,-252"/>
<text text-anchor="middle" x="2701" y="-229.8" font-family="Times,serif" font-size="14.00">AddressComponent </text>
</g>
<!-- SharedModule&#45;&gt;AddressComponent  -->
<g id="edge18" class="edge">
<title>SharedModule&#45;&gt;AddressComponent </title>
<path fill="none" stroke="black" stroke-dasharray="5,2" d="M1576.22,-172C1794.45,-172 2663.96,-172 2663.96,-172 2663.96,-172 2663.96,-205.73 2663.96,-205.73"/>
<polygon fill="black" stroke="black" points="2660.46,-205.73 2663.96,-215.73 2667.46,-205.73 2660.46,-205.73"/>
</g>
<!-- CodeMirrorModule  -->
<g id="node20" class="node">
<title>CodeMirrorModule </title>
<polygon fill="#fb8072" stroke="black" points="2617.92,-252 2488.08,-252 2488.08,-216 2617.92,-216 2617.92,-252"/>
<text text-anchor="middle" x="2553" y="-229.8" font-family="Times,serif" font-size="14.00">CodeMirrorModule </text>
</g>
<!-- SharedModule&#45;&gt;CodeMirrorModule  -->
<g id="edge19" class="edge">
<title>SharedModule&#45;&gt;CodeMirrorModule </title>
<path fill="none" stroke="black" stroke-dasharray="5,2" d="M1576.23,-174C1775.67,-174 2512.93,-174 2512.93,-174 2512.93,-174 2512.93,-206 2512.93,-206"/>
<polygon fill="black" stroke="black" points="2509.43,-206 2512.93,-216 2516.43,-206 2509.43,-206"/>
</g>
<!-- CompileHtmlModule  -->
<g id="node21" class="node">
<title>CompileHtmlModule </title>
<polygon fill="#fb8072" stroke="black" points="2470.05,-252 2329.95,-252 2329.95,-216 2470.05,-216 2470.05,-252"/>
<text text-anchor="middle" x="2400" y="-229.8" font-family="Times,serif" font-size="14.00">CompileHtmlModule </text>
</g>
<!-- SharedModule&#45;&gt;CompileHtmlModule  -->
<g id="edge20" class="edge">
<title>SharedModule&#45;&gt;CompileHtmlModule </title>
<path fill="none" stroke="black" stroke-dasharray="5,2" d="M1576.5,-176C1752.53,-176 2337.79,-176 2337.79,-176 2337.79,-176 2337.79,-205.97 2337.79,-205.97"/>
<polygon fill="black" stroke="black" points="2334.29,-205.97 2337.79,-215.97 2341.29,-205.97 2334.29,-205.97"/>
</g>
<!-- ExternalLinkDirective  -->
<g id="node22" class="node">
<title>ExternalLinkDirective </title>
<polygon fill="#fb8072" stroke="black" points="2311.95,-252 2166.05,-252 2166.05,-216 2311.95,-216 2311.95,-252"/>
<text text-anchor="middle" x="2239" y="-229.8" font-family="Times,serif" font-size="14.00">ExternalLinkDirective </text>
</g>
<!-- SharedModule&#45;&gt;ExternalLinkDirective  -->
<g id="edge21" class="edge">
<title>SharedModule&#45;&gt;ExternalLinkDirective </title>
<path fill="none" stroke="black" stroke-dasharray="5,2" d="M1576.32,-178C1728.91,-178 2183.12,-178 2183.12,-178 2183.12,-178 2183.12,-205.97 2183.12,-205.97"/>
<polygon fill="black" stroke="black" points="2179.63,-205.97 2183.12,-215.97 2186.63,-205.97 2179.63,-205.97"/>
</g>
<!-- HeadingComponent  -->
<g id="node23" class="node">
<title>HeadingComponent </title>
<polygon fill="#fb8072" stroke="black" points="2148.26,-252 2015.74,-252 2015.74,-216 2148.26,-216 2148.26,-252"/>
<text text-anchor="middle" x="2082" y="-229.8" font-family="Times,serif" font-size="14.00">HeadingComponent </text>
</g>
<!-- SharedModule&#45;&gt;HeadingComponent  -->
<g id="edge22" class="edge">
<title>SharedModule&#45;&gt;HeadingComponent </title>
<path fill="none" stroke="black" stroke-dasharray="5,2" d="M1576.42,-181C1702.85,-181 2028.12,-181 2028.12,-181 2028.12,-181 2028.12,-205.76 2028.12,-205.76"/>
<polygon fill="black" stroke="black" points="2024.63,-205.76 2028.12,-215.76 2031.63,-205.76 2024.63,-205.76"/>
</g>
<!-- JsonViewerComponent  -->
<g id="node24" class="node">
<title>JsonViewerComponent </title>
<polygon fill="#fb8072" stroke="black" points="1997.42,-252 1846.58,-252 1846.58,-216 1997.42,-216 1997.42,-252"/>
<text text-anchor="middle" x="1922" y="-229.8" font-family="Times,serif" font-size="14.00">JsonViewerComponent </text>
</g>
<!-- SharedModule&#45;&gt;JsonViewerComponent  -->
<g id="edge23" class="edge">
<title>SharedModule&#45;&gt;JsonViewerComponent </title>
<path fill="none" stroke="black" stroke-dasharray="5,2" d="M1576.53,-183C1671.55,-183 1870.12,-183 1870.12,-183 1870.12,-183 1870.12,-205.88 1870.12,-205.88"/>
<polygon fill="black" stroke="black" points="1866.63,-205.88 1870.12,-215.88 1873.63,-205.88 1866.63,-205.88"/>
</g>
<!-- LicenseComponent  -->
<g id="node25" class="node">
<title>LicenseComponent </title>
<polygon fill="#fb8072" stroke="black" points="1828.36,-252 1699.64,-252 1699.64,-216 1828.36,-216 1828.36,-252"/>
<text text-anchor="middle" x="1764" y="-229.8" font-family="Times,serif" font-size="14.00">LicenseComponent </text>
</g>
<!-- SharedModule&#45;&gt;LicenseComponent  -->
<g id="edge24" class="edge">
<title>SharedModule&#45;&gt;LicenseComponent </title>
<path fill="none" stroke="black" stroke-dasharray="5,2" d="M1576.65,-185C1632.09,-185 1714.12,-185 1714.12,-185 1714.12,-185 1714.12,-205.75 1714.12,-205.75"/>
<polygon fill="black" stroke="black" points="1710.63,-205.75 1714.12,-215.75 1717.63,-205.75 1710.63,-205.75"/>
</g>
<!-- ModalComponent  -->
<g id="node26" class="node">
<title>ModalComponent </title>
<polygon fill="#fb8072" stroke="black" points="1681.88,-252 1560.12,-252 1560.12,-216 1681.88,-216 1681.88,-252"/>
<text text-anchor="middle" x="1621" y="-229.8" font-family="Times,serif" font-size="14.00">ModalComponent </text>
</g>
<!-- SharedModule&#45;&gt;ModalComponent  -->
<g id="edge25" class="edge">
<title>SharedModule&#45;&gt;ModalComponent </title>
<path fill="none" stroke="black" stroke-dasharray="5,2" d="M1568.26,-187.11C1568.26,-187.11 1568.26,-205.99 1568.26,-205.99"/>
<polygon fill="black" stroke="black" points="1564.76,-205.99 1568.26,-215.99 1571.76,-205.99 1564.76,-205.99"/>
</g>
<!-- OpenStreetMapComponent  -->
<g id="node27" class="node">
<title>OpenStreetMapComponent </title>
<polygon fill="#fb8072" stroke="black" points="1542.97,-252 1369.03,-252 1369.03,-216 1542.97,-216 1542.97,-252"/>
<text text-anchor="middle" x="1456" y="-229.8" font-family="Times,serif" font-size="14.00">OpenStreetMapComponent </text>
</g>
<!-- SharedModule&#45;&gt;OpenStreetMapComponent  -->
<g id="edge26" class="edge">
<title>SharedModule&#45;&gt;OpenStreetMapComponent </title>
<path fill="none" stroke="black" stroke-dasharray="5,2" d="M1510.26,-187.11C1510.26,-187.11 1510.26,-205.99 1510.26,-205.99"/>
<polygon fill="black" stroke="black" points="1506.76,-205.99 1510.26,-215.99 1513.76,-205.99 1506.76,-205.99"/>
</g>
<!-- OrderByPipe  -->
<g id="node28" class="node">
<title>OrderByPipe </title>
<polygon fill="#fb8072" stroke="black" points="1351.87,-252 1258.13,-252 1258.13,-216 1351.87,-216 1351.87,-252"/>
<text text-anchor="middle" x="1305" y="-229.8" font-family="Times,serif" font-size="14.00">OrderByPipe </text>
</g>
<!-- SharedModule&#45;&gt;OrderByPipe  -->
<g id="edge27" class="edge">
<title>SharedModule&#45;&gt;OrderByPipe </title>
<path fill="none" stroke="black" stroke-dasharray="5,2" d="M1477.76,-185C1415.37,-185 1315.85,-185 1315.85,-185 1315.85,-185 1315.85,-205.75 1315.85,-205.75"/>
<polygon fill="black" stroke="black" points="1312.35,-205.75 1315.85,-215.75 1319.35,-205.75 1312.35,-205.75"/>
</g>
<!-- RouterLinkButtonGroupComponent  -->
<g id="node29" class="node">
<title>RouterLinkButtonGroupComponent </title>
<polygon fill="#fb8072" stroke="black" points="1240.76,-252 1017.24,-252 1017.24,-216 1240.76,-216 1240.76,-252"/>
<text text-anchor="middle" x="1129" y="-229.8" font-family="Times,serif" font-size="14.00">RouterLinkButtonGroupComponent </text>
</g>
<!-- SharedModule&#45;&gt;RouterLinkButtonGroupComponent  -->
<g id="edge28" class="edge">
<title>SharedModule&#45;&gt;RouterLinkButtonGroupComponent </title>
<path fill="none" stroke="black" stroke-dasharray="5,2" d="M1477.6,-183C1387.66,-183 1206.35,-183 1206.35,-183 1206.35,-183 1206.35,-205.88 1206.35,-205.88"/>
<polygon fill="black" stroke="black" points="1202.85,-205.88 1206.35,-215.88 1209.85,-205.88 1202.85,-205.88"/>
</g>
<!-- SharedNgbootstrapModule  -->
<g id="node30" class="node">
<title>SharedNgbootstrapModule </title>
<polygon fill="#fb8072" stroke="black" points="999.63,-252 828.37,-252 828.37,-216 999.63,-216 999.63,-252"/>
<text text-anchor="middle" x="914" y="-229.8" font-family="Times,serif" font-size="14.00">SharedNgbootstrapModule </text>
</g>
<!-- SharedModule&#45;&gt;SharedNgbootstrapModule  -->
<g id="edge29" class="edge">
<title>SharedModule&#45;&gt;SharedNgbootstrapModule </title>
<path fill="none" stroke="black" stroke-dasharray="5,2" d="M1477.78,-181C1341.09,-181 966.84,-181 966.84,-181 966.84,-181 966.84,-205.76 966.84,-205.76"/>
<polygon fill="black" stroke="black" points="963.34,-205.76 966.84,-215.76 970.34,-205.76 963.34,-205.76"/>
</g>
<!-- TableComponent  -->
<g id="node31" class="node">
<title>TableComponent </title>
<polygon fill="#fb8072" stroke="black" points="810.21,-252 693.79,-252 693.79,-216 810.21,-216 810.21,-252"/>
<text text-anchor="middle" x="752" y="-229.8" font-family="Times,serif" font-size="14.00">TableComponent </text>
</g>
<!-- SharedModule&#45;&gt;TableComponent  -->
<g id="edge30" class="edge">
<title>SharedModule&#45;&gt;TableComponent </title>
<path fill="none" stroke="black" stroke-dasharray="5,2" d="M1477.51,-178C1312.96,-178 794.47,-178 794.47,-178 794.47,-178 794.47,-205.97 794.47,-205.97"/>
<polygon fill="black" stroke="black" points="790.97,-205.97 794.47,-215.97 797.97,-205.97 790.97,-205.97"/>
</g>
<!-- ToastComponent  -->
<g id="node32" class="node">
<title>ToastComponent </title>
<polygon fill="#fb8072" stroke="black" points="675.93,-252 560.07,-252 560.07,-216 675.93,-216 675.93,-252"/>
<text text-anchor="middle" x="618" y="-229.8" font-family="Times,serif" font-size="14.00">ToastComponent </text>
</g>
<!-- SharedModule&#45;&gt;ToastComponent  -->
<g id="edge31" class="edge">
<title>SharedModule&#45;&gt;ToastComponent </title>
<path fill="none" stroke="black" stroke-dasharray="5,2" d="M1477.65,-176C1291.74,-176 644.21,-176 644.21,-176 644.21,-176 644.21,-205.97 644.21,-205.97"/>
<polygon fill="black" stroke="black" points="640.71,-205.97 644.21,-215.97 647.71,-205.97 640.71,-205.97"/>
</g>
<!-- TwelveToneSpinnerComponent  -->
<g id="node33" class="node">
<title>TwelveToneSpinnerComponent </title>
<polygon fill="#fb8072" stroke="black" points="541.63,-252 342.37,-252 342.37,-216 541.63,-216 541.63,-252"/>
<text text-anchor="middle" x="442" y="-229.8" font-family="Times,serif" font-size="14.00">TwelveToneSpinnerComponent </text>
</g>
<!-- SharedModule&#45;&gt;TwelveToneSpinnerComponent  -->
<g id="edge32" class="edge">
<title>SharedModule&#45;&gt;TwelveToneSpinnerComponent </title>
<path fill="none" stroke="black" stroke-dasharray="5,2" d="M1477.69,-174C1274.35,-174 511.67,-174 511.67,-174 511.67,-174 511.67,-206 511.67,-206"/>
<polygon fill="black" stroke="black" points="508.17,-206 511.67,-216 515.17,-206 508.17,-206"/>
</g>
<!-- ViewHandleButtonGroupComponent  -->
<g id="node34" class="node">
<title>ViewHandleButtonGroupComponent </title>
<polygon fill="#fb8072" stroke="black" points="324.96,-252 95.04,-252 95.04,-216 324.96,-216 324.96,-252"/>
<text text-anchor="middle" x="210" y="-229.8" font-family="Times,serif" font-size="14.00">ViewHandleButtonGroupComponent </text>
</g>
<!-- SharedModule&#45;&gt;ViewHandleButtonGroupComponent  -->
<g id="edge33" class="edge">
<title>SharedModule&#45;&gt;ViewHandleButtonGroupComponent </title>
<path fill="none" stroke="black" stroke-dasharray="5,2" d="M1477.62,-172C1248.08,-172 296.46,-172 296.46,-172 296.46,-172 296.46,-205.73 296.46,-205.73"/>
<polygon fill="black" stroke="black" points="292.96,-205.73 296.46,-215.73 299.96,-205.73 292.96,-205.73"/>
</g>
<!-- CodeMirrorModule -->
<g id="node16" class="node">
<title>CodeMirrorModule</title>
<polygon fill="#8dd3c7" stroke="black" points="2836.42,-122 2833.42,-126 2812.42,-126 2809.42,-122 2709.58,-122 2709.58,-86 2836.42,-86 2836.42,-122"/>
<text text-anchor="middle" x="2773" y="-99.8" font-family="Times,serif" font-size="14.00">CodeMirrorModule</text>
</g>
<!-- CodeMirrorModule&#45;&gt;SharedModule -->
<g id="edge15" class="edge">
<title>CodeMirrorModule&#45;&gt;SharedModule</title>
<path fill="none" stroke="black" d="M2738.07,-122.11C2738.07,-141.34 2738.07,-169 2738.07,-169 2738.07,-169 1586.35,-169 1586.35,-169"/>
<polygon fill="black" stroke="black" points="1586.35,-165.5 1576.35,-169 1586.35,-172.5 1586.35,-165.5"/>
</g>
<!-- CompileHtmlModule -->
<g id="node17" class="node">
<title>CompileHtmlModule</title>
<polygon fill="#8dd3c7" stroke="black" points="2692.05,-122 2689.05,-126 2668.05,-126 2665.05,-122 2555.95,-122 2555.95,-86 2692.05,-86 2692.05,-122"/>
<text text-anchor="middle" x="2624" y="-99.8" font-family="Times,serif" font-size="14.00">CompileHtmlModule</text>
</g>
<!-- CompileHtmlModule&#45;&gt;SharedModule -->
<g id="edge16" class="edge">
<title>CompileHtmlModule&#45;&gt;SharedModule</title>
<path fill="none" stroke="black" d="M2586.84,-122.22C2586.84,-140.83 2586.84,-167 2586.84,-167 2586.84,-167 1586.34,-167 1586.34,-167"/>
<polygon fill="black" stroke="black" points="1586.34,-163.5 1576.34,-167 1586.34,-170.5 1586.34,-163.5"/>
</g>
<!-- SharedNgbootstrapModule -->
<g id="node18" class="node">
<title>SharedNgbootstrapModule</title>
<polygon fill="#8dd3c7" stroke="black" points="2537.63,-122 2534.63,-126 2513.63,-126 2510.63,-122 2370.37,-122 2370.37,-86 2537.63,-86 2537.63,-122"/>
<text text-anchor="middle" x="2454" y="-99.8" font-family="Times,serif" font-size="14.00">SharedNgbootstrapModule</text>
</g>
<!-- SharedNgbootstrapModule&#45;&gt;SharedModule -->
<g id="edge17" class="edge">
<title>SharedNgbootstrapModule&#45;&gt;SharedModule</title>
<path fill="none" stroke="black" d="M2420.11,-122.3C2420.11,-140.27 2420.11,-165 2420.11,-165 2420.11,-165 1586.29,-165 1586.29,-165"/>
<polygon fill="black" stroke="black" points="1586.29,-161.5 1576.29,-165 1586.29,-168.5 1586.29,-161.5"/>
</g>
</g>
</svg>
