<?xml version="1.0" encoding="UTF-8" standalone="no"?>
<!DOCTYPE svg PUBLIC "-//W3C//DTD SVG 1.1//EN"
 "http://www.w3.org/Graphics/SVG/1.1/DTD/svg11.dtd">
<!-- Generated by graphviz version 2.47.0 (20210316.0004)
 -->
<!-- Title: dependencies Pages: 1 -->
<svg width="1916pt" height="284pt"
 viewBox="0.00 0.00 1916.00 284.00" xmlns="http://www.w3.org/2000/svg" xmlns:xlink="http://www.w3.org/1999/xlink">
<g id="graph0" class="graph" transform="scale(1 1) rotate(0) translate(4 280)">
<title>dependencies</title>
<polygon fill="white" stroke="transparent" points="-4,4 -4,-280 1912,-280 1912,4 -4,4"/>
<text text-anchor="start" x="933.01" y="-42.4" font-family="sans-serif" font-weight="bold" font-size="14.00">Legend</text>
<polygon fill="#ffffb3" stroke="transparent" points="720,-10 720,-30 740,-30 740,-10 720,-10"/>
<text text-anchor="start" x="743.63" y="-15.4" font-family="sans-serif" font-size="14.00"> &#160;Declarations</text>
<polygon fill="#8dd3c7" stroke="transparent" points="833,-10 833,-30 853,-30 853,-10 833,-10"/>
<text text-anchor="start" x="856.73" y="-15.4" font-family="sans-serif" font-size="14.00"> &#160;Module</text>
<polygon fill="#80b1d3" stroke="transparent" points="919,-10 919,-30 939,-30 939,-10 919,-10"/>
<text text-anchor="start" x="942.78" y="-15.4" font-family="sans-serif" font-size="14.00"> &#160;Bootstrap</text>
<polygon fill="#fdb462" stroke="transparent" points="1016,-10 1016,-30 1036,-30 1036,-10 1016,-10"/>
<text text-anchor="start" x="1039.67" y="-15.4" font-family="sans-serif" font-size="14.00"> &#160;Providers</text>
<polygon fill="#fb8072" stroke="transparent" points="1112,-10 1112,-30 1132,-30 1132,-10 1112,-10"/>
<text text-anchor="start" x="1135.73" y="-15.4" font-family="sans-serif" font-size="14.00"> &#160;Exports</text>
<g id="clust1" class="cluster">
<title>cluster_SharedModule</title>
<polygon fill="none" stroke="black" stroke-dasharray="1,5" points="8,-70 8,-268 1900,-268 1900,-70 8,-70"/>
</g>
<g id="clust12" class="cluster">
<title>cluster_SharedModule_imports</title>
<polygon fill="none" stroke="black" points="1554,-78 1554,-130 1892,-130 1892,-78 1554,-78"/>
</g>
<g id="clust2" class="cluster">
<title>cluster_SharedModule_declarations</title>
<polygon fill="none" stroke="black" points="46,-78 46,-130 1546,-130 1546,-78 46,-78"/>
</g>
<g id="clust13" class="cluster">
<title>cluster_SharedModule_exports</title>
<polygon fill="none" stroke="black" points="16,-208 16,-260 1892,-260 1892,-208 16,-208"/>
</g>
<!-- AddressComponent -->
<g id="node1" class="node">
<title>AddressComponent</title>
<polygon fill="#ffffb3" stroke="black" points="1537.7,-122 1410.3,-122 1410.3,-86 1537.7,-86 1537.7,-122"/>
<text text-anchor="middle" x="1474" y="-99.8" font-family="Times,serif" font-size="14.00">AddressComponent</text>
</g>
<!-- SharedModule -->
<g id="node10" class="node">
<title>SharedModule</title>
<polygon fill="#8dd3c7" stroke="black" points="1072.42,-187 1069.42,-191 1048.42,-191 1045.42,-187 973.58,-187 973.58,-151 1072.42,-151 1072.42,-187"/>
<text text-anchor="middle" x="1023" y="-164.8" font-family="Times,serif" font-size="14.00">SharedModule</text>
</g>
<!-- AddressComponent&#45;&gt;SharedModule -->
<g id="edge1" class="edge">
<title>AddressComponent&#45;&gt;SharedModule</title>
<path fill="none" stroke="black" d="M1423.2,-122.04C1423.2,-138.73 1423.2,-161 1423.2,-161 1423.2,-161 1082.47,-161 1082.47,-161"/>
<polygon fill="black" stroke="black" points="1082.47,-157.5 1072.47,-161 1082.47,-164.5 1082.47,-157.5"/>
</g>
<!-- ExternalLinkDirective -->
<g id="node2" class="node">
<title>ExternalLinkDirective</title>
<polygon fill="#ffffb3" stroke="black" points="1391.95,-122 1250.05,-122 1250.05,-86 1391.95,-86 1391.95,-122"/>
<text text-anchor="middle" x="1321" y="-99.8" font-family="Times,serif" font-size="14.00">ExternalLinkDirective</text>
</g>
<!-- ExternalLinkDirective&#45;&gt;SharedModule -->
<g id="edge2" class="edge">
<title>ExternalLinkDirective&#45;&gt;SharedModule</title>
<path fill="none" stroke="black" d="M1256.74,-122.28C1256.74,-137.95 1256.74,-158 1256.74,-158 1256.74,-158 1082.28,-158 1082.28,-158"/>
<polygon fill="black" stroke="black" points="1082.28,-154.5 1072.28,-158 1082.28,-161.5 1082.28,-154.5"/>
</g>
<!-- HeadingComponent -->
<g id="node3" class="node">
<title>HeadingComponent</title>
<polygon fill="#ffffb3" stroke="black" points="1232.26,-122 1103.74,-122 1103.74,-86 1232.26,-86 1232.26,-122"/>
<text text-anchor="middle" x="1168" y="-99.8" font-family="Times,serif" font-size="14.00">HeadingComponent</text>
</g>
<!-- HeadingComponent&#45;&gt;SharedModule -->
<g id="edge3" class="edge">
<title>HeadingComponent&#45;&gt;SharedModule</title>
<path fill="none" stroke="black" d="M1108.08,-122.12C1108.08,-136.78 1108.08,-155 1108.08,-155 1108.08,-155 1082.49,-155 1082.49,-155"/>
<polygon fill="black" stroke="black" points="1082.49,-151.5 1072.49,-155 1082.49,-158.5 1082.49,-151.5"/>
</g>
<!-- JsonViewerComponent -->
<g id="node4" class="node">
<title>JsonViewerComponent</title>
<polygon fill="#ffffb3" stroke="black" points="1085.92,-122 938.08,-122 938.08,-86 1085.92,-86 1085.92,-122"/>
<text text-anchor="middle" x="1012" y="-99.8" font-family="Times,serif" font-size="14.00">JsonViewerComponent</text>
</g>
<!-- JsonViewerComponent&#45;&gt;SharedModule -->
<g id="edge4" class="edge">
<title>JsonViewerComponent&#45;&gt;SharedModule</title>
<path fill="none" stroke="black" d="M1023,-122.11C1023,-122.11 1023,-140.99 1023,-140.99"/>
<polygon fill="black" stroke="black" points="1019.5,-140.99 1023,-150.99 1026.5,-140.99 1019.5,-140.99"/>
</g>
<!-- ModalComponent -->
<g id="node5" class="node">
<title>ModalComponent</title>
<polygon fill="#ffffb3" stroke="black" points="919.88,-122 802.12,-122 802.12,-86 919.88,-86 919.88,-122"/>
<text text-anchor="middle" x="861" y="-99.8" font-family="Times,serif" font-size="14.00">ModalComponent</text>
</g>
<!-- ModalComponent&#45;&gt;SharedModule -->
<g id="edge5" class="edge">
<title>ModalComponent&#45;&gt;SharedModule</title>
<path fill="none" stroke="black" d="M861,-122.12C861,-136.78 861,-155 861,-155 861,-155 963.51,-155 963.51,-155"/>
<polygon fill="black" stroke="black" points="963.51,-158.5 973.51,-155 963.51,-151.5 963.51,-158.5"/>
</g>
<!-- OpenStreetMapComponent -->
<g id="node6" class="node">
<title>OpenStreetMapComponent</title>
<polygon fill="#ffffb3" stroke="black" points="783.97,-122 614.03,-122 614.03,-86 783.97,-86 783.97,-122"/>
<text text-anchor="middle" x="699" y="-99.8" font-family="Times,serif" font-size="14.00">OpenStreetMapComponent</text>
</g>
<!-- OpenStreetMapComponent&#45;&gt;SharedModule -->
<g id="edge6" class="edge">
<title>OpenStreetMapComponent&#45;&gt;SharedModule</title>
<path fill="none" stroke="black" d="M773.48,-122.28C773.48,-137.95 773.48,-158 773.48,-158 773.48,-158 963.7,-158 963.7,-158"/>
<polygon fill="black" stroke="black" points="963.7,-161.5 973.7,-158 963.7,-154.5 963.7,-161.5"/>
</g>
<!-- OrderByPipe -->
<g id="node7" class="node">
<title>OrderByPipe</title>
<polygon fill="#ffffb3" stroke="black" points="595.87,-122 506.13,-122 506.13,-86 595.87,-86 595.87,-122"/>
<text text-anchor="middle" x="551" y="-99.8" font-family="Times,serif" font-size="14.00">OrderByPipe</text>
</g>
<!-- OrderByPipe&#45;&gt;SharedModule -->
<g id="edge7" class="edge">
<title>OrderByPipe&#45;&gt;SharedModule</title>
<path fill="none" stroke="black" d="M551,-122.04C551,-138.73 551,-161 551,-161 551,-161 963.38,-161 963.38,-161"/>
<polygon fill="black" stroke="black" points="963.38,-164.5 973.38,-161 963.38,-157.5 963.38,-164.5"/>
</g>
<!-- RouterLinkButtonGroupComponent -->
<g id="node8" class="node">
<title>RouterLinkButtonGroupComponent</title>
<polygon fill="#ffffb3" stroke="black" points="487.76,-122 268.24,-122 268.24,-86 487.76,-86 487.76,-122"/>
<text text-anchor="middle" x="378" y="-99.8" font-family="Times,serif" font-size="14.00">RouterLinkButtonGroupComponent</text>
</g>
<!-- RouterLinkButtonGroupComponent&#45;&gt;SharedModule -->
<g id="edge8" class="edge">
<title>RouterLinkButtonGroupComponent&#45;&gt;SharedModule</title>
<path fill="none" stroke="black" d="M459.12,-122.3C459.12,-140.27 459.12,-165 459.12,-165 459.12,-165 963.45,-165 963.45,-165"/>
<polygon fill="black" stroke="black" points="963.45,-168.5 973.45,-165 963.45,-161.5 963.45,-168.5"/>
</g>
<!-- TwelveToneSpinnerComponent -->
<g id="node9" class="node">
<title>TwelveToneSpinnerComponent</title>
<polygon fill="#ffffb3" stroke="black" points="249.63,-122 54.37,-122 54.37,-86 249.63,-86 249.63,-122"/>
<text text-anchor="middle" x="152" y="-99.8" font-family="Times,serif" font-size="14.00">TwelveToneSpinnerComponent</text>
</g>
<!-- TwelveToneSpinnerComponent&#45;&gt;SharedModule -->
<g id="edge9" class="edge">
<title>TwelveToneSpinnerComponent&#45;&gt;SharedModule</title>
<path fill="none" stroke="black" d="M245.62,-122.17C245.62,-141.09 245.62,-168 245.62,-168 245.62,-168 963.78,-168 963.78,-168"/>
<polygon fill="black" stroke="black" points="963.78,-171.5 973.78,-168 963.78,-164.5 963.78,-171.5"/>
</g>
<!-- AddressComponent  -->
<g id="node13" class="node">
<title>AddressComponent </title>
<polygon fill="#fb8072" stroke="black" points="1884.2,-252 1753.8,-252 1753.8,-216 1884.2,-216 1884.2,-252"/>
<text text-anchor="middle" x="1819" y="-229.8" font-family="Times,serif" font-size="14.00">AddressComponent </text>
</g>
<!-- SharedModule&#45;&gt;AddressComponent  -->
<g id="edge12" class="edge">
<title>SharedModule&#45;&gt;AddressComponent </title>
<path fill="none" stroke="black" stroke-dasharray="5,2" d="M1072.31,-171C1242.84,-171 1797.19,-171 1797.19,-171 1797.19,-171 1797.19,-205.78 1797.19,-205.78"/>
<polygon fill="black" stroke="black" points="1793.69,-205.78 1797.19,-215.78 1800.69,-205.78 1793.69,-205.78"/>
</g>
<!-- CompileHtmlModule  -->
<g id="node14" class="node">
<title>CompileHtmlModule </title>
<polygon fill="#fb8072" stroke="black" points="1736.05,-252 1595.95,-252 1595.95,-216 1736.05,-216 1736.05,-252"/>
<text text-anchor="middle" x="1666" y="-229.8" font-family="Times,serif" font-size="14.00">CompileHtmlModule </text>
</g>
<!-- SharedModule&#45;&gt;CompileHtmlModule  -->
<g id="edge13" class="edge">
<title>SharedModule&#45;&gt;CompileHtmlModule </title>
<path fill="none" stroke="black" stroke-dasharray="5,2" d="M1072.41,-174C1222.51,-174 1662.89,-174 1662.89,-174 1662.89,-174 1662.89,-206 1662.89,-206"/>
<polygon fill="black" stroke="black" points="1659.39,-206 1662.89,-216 1666.39,-206 1659.39,-206"/>
</g>
<!-- ExternalLinkDirective  -->
<g id="node15" class="node">
<title>ExternalLinkDirective </title>
<polygon fill="#fb8072" stroke="black" points="1577.95,-252 1432.05,-252 1432.05,-216 1577.95,-216 1577.95,-252"/>
<text text-anchor="middle" x="1505" y="-229.8" font-family="Times,serif" font-size="14.00">ExternalLinkDirective </text>
</g>
<!-- SharedModule&#45;&gt;ExternalLinkDirective  -->
<g id="edge14" class="edge">
<title>SharedModule&#45;&gt;ExternalLinkDirective </title>
<path fill="none" stroke="black" stroke-dasharray="5,2" d="M1072.44,-178C1191.6,-178 1484.94,-178 1484.94,-178 1484.94,-178 1484.94,-205.97 1484.94,-205.97"/>
<polygon fill="black" stroke="black" points="1481.44,-205.97 1484.94,-215.97 1488.44,-205.97 1481.44,-205.97"/>
</g>
<!-- HeadingComponent  -->
<g id="node16" class="node">
<title>HeadingComponent </title>
<polygon fill="#fb8072" stroke="black" points="1414.26,-252 1281.74,-252 1281.74,-216 1414.26,-216 1414.26,-252"/>
<text text-anchor="middle" x="1348" y="-229.8" font-family="Times,serif" font-size="14.00">HeadingComponent </text>
</g>
<!-- SharedModule&#45;&gt;HeadingComponent  -->
<g id="edge15" class="edge">
<title>SharedModule&#45;&gt;HeadingComponent </title>
<path fill="none" stroke="black" stroke-dasharray="5,2" d="M1072.4,-181C1160.8,-181 1336.92,-181 1336.92,-181 1336.92,-181 1336.92,-205.76 1336.92,-205.76"/>
<polygon fill="black" stroke="black" points="1333.42,-205.76 1336.92,-215.76 1340.42,-205.76 1333.42,-205.76"/>
</g>
<!-- JsonViewerComponent  -->
<g id="node17" class="node">
<title>JsonViewerComponent </title>
<polygon fill="#fb8072" stroke="black" points="1263.42,-252 1112.58,-252 1112.58,-216 1263.42,-216 1263.42,-252"/>
<text text-anchor="middle" x="1188" y="-229.8" font-family="Times,serif" font-size="14.00">JsonViewerComponent </text>
</g>
<!-- SharedModule&#45;&gt;JsonViewerComponent  -->
<g id="edge16" class="edge">
<title>SharedModule&#45;&gt;JsonViewerComponent </title>
<path fill="none" stroke="black" stroke-dasharray="5,2" d="M1072.35,-184C1115.89,-184 1172.46,-184 1172.46,-184 1172.46,-184 1172.46,-205.95 1172.46,-205.95"/>
<polygon fill="black" stroke="black" points="1168.96,-205.95 1172.46,-215.95 1175.96,-205.95 1168.96,-205.95"/>
</g>
<!-- ModalComponent  -->
<g id="node18" class="node">
<title>ModalComponent </title>
<polygon fill="#fb8072" stroke="black" points="1094.88,-252 973.12,-252 973.12,-216 1094.88,-216 1094.88,-252"/>
<text text-anchor="middle" x="1034" y="-229.8" font-family="Times,serif" font-size="14.00">ModalComponent </text>
</g>
<!-- SharedModule&#45;&gt;ModalComponent  -->
<g id="edge17" class="edge">
<title>SharedModule&#45;&gt;ModalComponent </title>
<path fill="none" stroke="black" stroke-dasharray="5,2" d="M1023,-187.11C1023,-187.11 1023,-205.99 1023,-205.99"/>
<polygon fill="black" stroke="black" points="1019.5,-205.99 1023,-215.99 1026.5,-205.99 1019.5,-205.99"/>
</g>
<!-- OpenStreetMapComponent  -->
<g id="node19" class="node">
<title>OpenStreetMapComponent </title>
<polygon fill="#fb8072" stroke="black" points="955.97,-252 782.03,-252 782.03,-216 955.97,-216 955.97,-252"/>
<text text-anchor="middle" x="869" y="-229.8" font-family="Times,serif" font-size="14.00">OpenStreetMapComponent </text>
</g>
<!-- SharedModule&#45;&gt;OpenStreetMapComponent  -->
<g id="edge18" class="edge">
<title>SharedModule&#45;&gt;OpenStreetMapComponent </title>
<path fill="none" stroke="black" stroke-dasharray="5,2" d="M973.59,-184C959.08,-184 947.01,-184 947.01,-184 947.01,-184 947.01,-205.95 947.01,-205.95"/>
<polygon fill="black" stroke="black" points="943.51,-205.95 947.01,-215.95 950.51,-205.95 943.51,-205.95"/>
</g>
<!-- OrderByPipe  -->
<g id="node20" class="node">
<title>OrderByPipe </title>
<polygon fill="#fb8072" stroke="black" points="764.87,-252 671.13,-252 671.13,-216 764.87,-216 764.87,-252"/>
<text text-anchor="middle" x="718" y="-229.8" font-family="Times,serif" font-size="14.00">OrderByPipe </text>
</g>
<!-- SharedModule&#45;&gt;OrderByPipe  -->
<g id="edge19" class="edge">
<title>SharedModule&#45;&gt;OrderByPipe </title>
<path fill="none" stroke="black" stroke-dasharray="5,2" d="M973.66,-181C887.34,-181 718,-181 718,-181 718,-181 718,-205.76 718,-205.76"/>
<polygon fill="black" stroke="black" points="714.5,-205.76 718,-215.76 721.5,-205.76 714.5,-205.76"/>
</g>
<!-- RouterLinkButtonGroupComponent  -->
<g id="node21" class="node">
<title>RouterLinkButtonGroupComponent </title>
<polygon fill="#fb8072" stroke="black" points="653.76,-252 430.24,-252 430.24,-216 653.76,-216 653.76,-252"/>
<text text-anchor="middle" x="542" y="-229.8" font-family="Times,serif" font-size="14.00">RouterLinkButtonGroupComponent </text>
</g>
<!-- SharedModule&#45;&gt;RouterLinkButtonGroupComponent  -->
<g id="edge20" class="edge">
<title>SharedModule&#45;&gt;RouterLinkButtonGroupComponent </title>
<path fill="none" stroke="black" stroke-dasharray="5,2" d="M973.71,-178C868.99,-178 633.82,-178 633.82,-178 633.82,-178 633.82,-205.97 633.82,-205.97"/>
<polygon fill="black" stroke="black" points="630.32,-205.97 633.82,-215.97 637.32,-205.97 630.32,-205.97"/>
</g>
<!-- SharedNgbootstrapModule  -->
<g id="node22" class="node">
<title>SharedNgbootstrapModule </title>
<polygon fill="#fb8072" stroke="black" points="412.63,-252 241.37,-252 241.37,-216 412.63,-216 412.63,-252"/>
<text text-anchor="middle" x="327" y="-229.8" font-family="Times,serif" font-size="14.00">SharedNgbootstrapModule </text>
</g>
<!-- SharedModule&#45;&gt;SharedNgbootstrapModule  -->
<g id="edge21" class="edge">
<title>SharedModule&#45;&gt;SharedNgbootstrapModule </title>
<path fill="none" stroke="black" stroke-dasharray="5,2" d="M973.63,-174C816.82,-174 340.34,-174 340.34,-174 340.34,-174 340.34,-206 340.34,-206"/>
<polygon fill="black" stroke="black" points="336.84,-206 340.34,-216 343.84,-206 336.84,-206"/>
</g>
<!-- TwelveToneSpinnerComponent  -->
<g id="node23" class="node">
<title>TwelveToneSpinnerComponent </title>
<polygon fill="#fb8072" stroke="black" points="223.63,-252 24.37,-252 24.37,-216 223.63,-216 223.63,-252"/>
<text text-anchor="middle" x="124" y="-229.8" font-family="Times,serif" font-size="14.00">TwelveToneSpinnerComponent </text>
</g>
<!-- SharedModule&#45;&gt;TwelveToneSpinnerComponent  -->
<g id="edge22" class="edge">
<title>SharedModule&#45;&gt;TwelveToneSpinnerComponent </title>
<path fill="none" stroke="black" stroke-dasharray="5,2" d="M973.57,-171C787.38,-171 138.88,-171 138.88,-171 138.88,-171 138.88,-205.78 138.88,-205.78"/>
<polygon fill="black" stroke="black" points="135.38,-205.78 138.88,-215.78 142.38,-205.78 135.38,-205.78"/>
</g>
<!-- CompileHtmlModule -->
<g id="node11" class="node">
<title>CompileHtmlModule</title>
<polygon fill="#8dd3c7" stroke="black" points="1884.05,-122 1881.05,-126 1860.05,-126 1857.05,-122 1747.95,-122 1747.95,-86 1884.05,-86 1884.05,-122"/>
<text text-anchor="middle" x="1816" y="-99.8" font-family="Times,serif" font-size="14.00">CompileHtmlModule</text>
</g>
<!-- CompileHtmlModule&#45;&gt;SharedModule -->
<g id="edge10" class="edge">
<title>CompileHtmlModule&#45;&gt;SharedModule</title>
<path fill="none" stroke="black" d="M1840.73,-122.17C1840.73,-141.09 1840.73,-168 1840.73,-168 1840.73,-168 1082.31,-168 1082.31,-168"/>
<polygon fill="black" stroke="black" points="1082.31,-164.5 1072.31,-168 1082.31,-171.5 1082.31,-164.5"/>
</g>
<!-- SharedNgbootstrapModule -->
<g id="node12" class="node">
<title>SharedNgbootstrapModule</title>
<polygon fill="#8dd3c7" stroke="black" points="1729.63,-122 1726.63,-126 1705.63,-126 1702.63,-122 1562.37,-122 1562.37,-86 1729.63,-86 1729.63,-122"/>
<text text-anchor="middle" x="1646" y="-99.8" font-family="Times,serif" font-size="14.00">SharedNgbootstrapModule</text>
</g>
<!-- SharedNgbootstrapModule&#45;&gt;SharedModule -->
<g id="edge11" class="edge">
<title>SharedNgbootstrapModule&#45;&gt;SharedModule</title>
<path fill="none" stroke="black" d="M1569.95,-122.3C1569.95,-140.27 1569.95,-165 1569.95,-165 1569.95,-165 1082.5,-165 1082.5,-165"/>
<polygon fill="black" stroke="black" points="1082.5,-161.5 1072.5,-165 1082.5,-168.5 1082.5,-161.5"/>
</g>
</g>
</svg>
