<?xml version="1.0" encoding="UTF-8" standalone="no"?>
<!DOCTYPE svg PUBLIC "-//W3C//DTD SVG 1.1//EN"
 "http://www.w3.org/Graphics/SVG/1.1/DTD/svg11.dtd">
<!-- Generated by graphviz version 2.47.3 (20210619.1520)
 -->
<!-- Title: dependencies Pages: 1 -->
<svg width="1940pt" height="247pt"
 viewBox="0.00 0.00 1940.00 246.80" xmlns="http://www.w3.org/2000/svg" xmlns:xlink="http://www.w3.org/1999/xlink">
<g id="graph0" class="graph" transform="scale(1 1) rotate(0) translate(4 242.8)">
<title>dependencies</title>
<polygon fill="white" stroke="transparent" points="-4,4 -4,-242.8 1936,-242.8 1936,4 -4,4"/>
<text text-anchor="middle" x="966" y="-8.2" font-family="sans-serif" font-size="14.00">dependencies</text>
<g id="clust1" class="cluster">
<title>cluster_SharedModule</title>
<polygon fill="none" stroke="black" stroke-dasharray="1,5" points="8,-32.8 8,-230.8 1924,-230.8 1924,-32.8 8,-32.8"/>
</g>
<g id="clust12" class="cluster">
<title>cluster_SharedModule_imports</title>
<polygon fill="none" stroke="black" points="1578,-40.8 1578,-92.8 1916,-92.8 1916,-40.8 1578,-40.8"/>
</g>
<g id="clust2" class="cluster">
<title>cluster_SharedModule_declarations</title>
<polygon fill="none" stroke="black" points="48,-40.8 48,-92.8 1570,-92.8 1570,-40.8 48,-40.8"/>
</g>
<g id="clust13" class="cluster">
<title>cluster_SharedModule_exports</title>
<polygon fill="none" stroke="black" points="16,-170.8 16,-222.8 1916,-222.8 1916,-170.8 16,-170.8"/>
</g>
<!-- AddressComponent -->
<g id="node1" class="node">
<title>AddressComponent</title>
<polygon fill="#ffffb3" stroke="black" points="1561.7,-84.8 1434.3,-84.8 1434.3,-48.8 1561.7,-48.8 1561.7,-84.8"/>
<text text-anchor="middle" x="1498" y="-62.6" font-family="Times,serif" font-size="14.00">AddressComponent</text>
</g>
<!-- SharedModule -->
<g id="node10" class="node">
<title>SharedModule</title>
<polygon fill="#8dd3c7" stroke="black" points="1096.42,-149.8 1093.42,-153.8 1072.42,-153.8 1069.42,-149.8 997.58,-149.8 997.58,-113.8 1096.42,-113.8 1096.42,-149.8"/>
<text text-anchor="middle" x="1047" y="-127.6" font-family="Times,serif" font-size="14.00">SharedModule</text>
</g>
<!-- AddressComponent&#45;&gt;SharedModule -->
<g id="edge1" class="edge">
<title>AddressComponent&#45;&gt;SharedModule</title>
<path fill="none" stroke="black" d="M1447.2,-84.84C1447.2,-101.53 1447.2,-123.8 1447.2,-123.8 1447.2,-123.8 1106.47,-123.8 1106.47,-123.8"/>
<polygon fill="black" stroke="black" points="1106.47,-120.3 1096.47,-123.8 1106.47,-127.3 1106.47,-120.3"/>
</g>
<!-- ExternalLinkDirective -->
<g id="node2" class="node">
<title>ExternalLinkDirective</title>
<polygon fill="#ffffb3" stroke="black" points="1415.95,-84.8 1274.05,-84.8 1274.05,-48.8 1415.95,-48.8 1415.95,-84.8"/>
<text text-anchor="middle" x="1345" y="-62.6" font-family="Times,serif" font-size="14.00">ExternalLinkDirective</text>
</g>
<!-- ExternalLinkDirective&#45;&gt;SharedModule -->
<g id="edge2" class="edge">
<title>ExternalLinkDirective&#45;&gt;SharedModule</title>
<path fill="none" stroke="black" d="M1280.74,-85.08C1280.74,-100.75 1280.74,-120.8 1280.74,-120.8 1280.74,-120.8 1106.28,-120.8 1106.28,-120.8"/>
<polygon fill="black" stroke="black" points="1106.28,-117.3 1096.28,-120.8 1106.28,-124.3 1106.28,-117.3"/>
</g>
<!-- HeadingComponent -->
<g id="node3" class="node">
<title>HeadingComponent</title>
<polygon fill="#ffffb3" stroke="black" points="1256.26,-84.8 1127.74,-84.8 1127.74,-48.8 1256.26,-48.8 1256.26,-84.8"/>
<text text-anchor="middle" x="1192" y="-62.6" font-family="Times,serif" font-size="14.00">HeadingComponent</text>
</g>
<!-- HeadingComponent&#45;&gt;SharedModule -->
<g id="edge3" class="edge">
<title>HeadingComponent&#45;&gt;SharedModule</title>
<path fill="none" stroke="black" d="M1132.08,-84.92C1132.08,-99.58 1132.08,-117.8 1132.08,-117.8 1132.08,-117.8 1106.49,-117.8 1106.49,-117.8"/>
<polygon fill="black" stroke="black" points="1106.49,-114.3 1096.49,-117.8 1106.49,-121.3 1106.49,-114.3"/>
</g>
<!-- JsonViewerComponent -->
<g id="node4" class="node">
<title>JsonViewerComponent</title>
<polygon fill="#ffffb3" stroke="black" points="1109.92,-84.8 962.08,-84.8 962.08,-48.8 1109.92,-48.8 1109.92,-84.8"/>
<text text-anchor="middle" x="1036" y="-62.6" font-family="Times,serif" font-size="14.00">JsonViewerComponent</text>
</g>
<!-- JsonViewerComponent&#45;&gt;SharedModule -->
<g id="edge4" class="edge">
<title>JsonViewerComponent&#45;&gt;SharedModule</title>
<path fill="none" stroke="black" d="M1047,-84.91C1047,-84.91 1047,-103.79 1047,-103.79"/>
<polygon fill="black" stroke="black" points="1043.5,-103.79 1047,-113.79 1050.5,-103.79 1043.5,-103.79"/>
</g>
<!-- ModalComponent -->
<g id="node5" class="node">
<title>ModalComponent</title>
<polygon fill="#ffffb3" stroke="black" points="943.88,-84.8 826.12,-84.8 826.12,-48.8 943.88,-48.8 943.88,-84.8"/>
<text text-anchor="middle" x="885" y="-62.6" font-family="Times,serif" font-size="14.00">ModalComponent</text>
</g>
<!-- ModalComponent&#45;&gt;SharedModule -->
<g id="edge5" class="edge">
<title>ModalComponent&#45;&gt;SharedModule</title>
<path fill="none" stroke="black" d="M885,-84.92C885,-99.58 885,-117.8 885,-117.8 885,-117.8 987.51,-117.8 987.51,-117.8"/>
<polygon fill="black" stroke="black" points="987.51,-121.3 997.51,-117.8 987.51,-114.3 987.51,-121.3"/>
</g>
<!-- OpenStreetMapComponent -->
<g id="node6" class="node">
<title>OpenStreetMapComponent</title>
<polygon fill="#ffffb3" stroke="black" points="807.97,-84.8 638.03,-84.8 638.03,-48.8 807.97,-48.8 807.97,-84.8"/>
<text text-anchor="middle" x="723" y="-62.6" font-family="Times,serif" font-size="14.00">OpenStreetMapComponent</text>
</g>
<!-- OpenStreetMapComponent&#45;&gt;SharedModule -->
<g id="edge6" class="edge">
<title>OpenStreetMapComponent&#45;&gt;SharedModule</title>
<path fill="none" stroke="black" d="M797.45,-85.08C797.45,-100.75 797.45,-120.8 797.45,-120.8 797.45,-120.8 987.7,-120.8 987.7,-120.8"/>
<polygon fill="black" stroke="black" points="987.7,-124.3 997.7,-120.8 987.7,-117.3 987.7,-124.3"/>
</g>
<!-- RouterLinkButtonGroupComponent -->
<g id="node7" class="node">
<title>RouterLinkButtonGroupComponent</title>
<polygon fill="#ffffb3" stroke="black" points="619.76,-84.8 400.24,-84.8 400.24,-48.8 619.76,-48.8 619.76,-84.8"/>
<text text-anchor="middle" x="510" y="-62.6" font-family="Times,serif" font-size="14.00">RouterLinkButtonGroupComponent</text>
</g>
<!-- RouterLinkButtonGroupComponent&#45;&gt;SharedModule -->
<g id="edge7" class="edge">
<title>RouterLinkButtonGroupComponent&#45;&gt;SharedModule</title>
<path fill="none" stroke="black" d="M592.62,-84.84C592.62,-101.53 592.62,-123.8 592.62,-123.8 592.62,-123.8 987.51,-123.8 987.51,-123.8"/>
<polygon fill="black" stroke="black" points="987.51,-127.3 997.51,-123.8 987.51,-120.3 987.51,-127.3"/>
</g>
<!-- ToastComponent -->
<g id="node8" class="node">
<title>ToastComponent</title>
<polygon fill="#ffffb3" stroke="black" points="382.44,-84.8 269.56,-84.8 269.56,-48.8 382.44,-48.8 382.44,-84.8"/>
<text text-anchor="middle" x="326" y="-62.6" font-family="Times,serif" font-size="14.00">ToastComponent</text>
</g>
<!-- ToastComponent&#45;&gt;SharedModule -->
<g id="edge8" class="edge">
<title>ToastComponent&#45;&gt;SharedModule</title>
<path fill="none" stroke="black" d="M367.2,-85.1C367.2,-103.07 367.2,-127.8 367.2,-127.8 367.2,-127.8 987.56,-127.8 987.56,-127.8"/>
<polygon fill="black" stroke="black" points="987.56,-131.3 997.56,-127.8 987.56,-124.3 987.56,-131.3"/>
</g>
<!-- TwelveToneSpinnerComponent -->
<g id="node9" class="node">
<title>TwelveToneSpinnerComponent</title>
<polygon fill="#ffffb3" stroke="black" points="251.63,-84.8 56.37,-84.8 56.37,-48.8 251.63,-48.8 251.63,-84.8"/>
<text text-anchor="middle" x="154" y="-62.6" font-family="Times,serif" font-size="14.00">TwelveToneSpinnerComponent</text>
</g>
<!-- TwelveToneSpinnerComponent&#45;&gt;SharedModule -->
<g id="edge9" class="edge">
<title>TwelveToneSpinnerComponent&#45;&gt;SharedModule</title>
<path fill="none" stroke="black" d="M246.92,-84.97C246.92,-103.89 246.92,-130.8 246.92,-130.8 246.92,-130.8 987.56,-130.8 987.56,-130.8"/>
<polygon fill="black" stroke="black" points="987.56,-134.3 997.56,-130.8 987.56,-127.3 987.56,-134.3"/>
</g>
<!-- AddressComponent  -->
<g id="node13" class="node">
<title>AddressComponent </title>
<polygon fill="#fb8072" stroke="black" points="1908.2,-214.8 1777.8,-214.8 1777.8,-178.8 1908.2,-178.8 1908.2,-214.8"/>
<text text-anchor="middle" x="1843" y="-192.6" font-family="Times,serif" font-size="14.00">AddressComponent </text>
</g>
<!-- SharedModule&#45;&gt;AddressComponent  -->
<g id="edge12" class="edge">
<title>SharedModule&#45;&gt;AddressComponent </title>
<path fill="none" stroke="black" stroke-dasharray="5,2" d="M1096.31,-133.8C1266.84,-133.8 1821.19,-133.8 1821.19,-133.8 1821.19,-133.8 1821.19,-168.58 1821.19,-168.58"/>
<polygon fill="black" stroke="black" points="1817.69,-168.58 1821.19,-178.58 1824.69,-168.58 1817.69,-168.58"/>
</g>
<!-- CompileHtmlModule  -->
<g id="node14" class="node">
<title>CompileHtmlModule </title>
<polygon fill="#fb8072" stroke="black" points="1760.05,-214.8 1619.95,-214.8 1619.95,-178.8 1760.05,-178.8 1760.05,-214.8"/>
<text text-anchor="middle" x="1690" y="-192.6" font-family="Times,serif" font-size="14.00">CompileHtmlModule </text>
</g>
<!-- SharedModule&#45;&gt;CompileHtmlModule  -->
<g id="edge13" class="edge">
<title>SharedModule&#45;&gt;CompileHtmlModule </title>
<path fill="none" stroke="black" stroke-dasharray="5,2" d="M1096.41,-136.8C1246.51,-136.8 1686.89,-136.8 1686.89,-136.8 1686.89,-136.8 1686.89,-168.8 1686.89,-168.8"/>
<polygon fill="black" stroke="black" points="1683.39,-168.8 1686.89,-178.8 1690.39,-168.8 1683.39,-168.8"/>
</g>
<!-- ExternalLinkDirective  -->
<g id="node15" class="node">
<title>ExternalLinkDirective </title>
<polygon fill="#fb8072" stroke="black" points="1601.95,-214.8 1456.05,-214.8 1456.05,-178.8 1601.95,-178.8 1601.95,-214.8"/>
<text text-anchor="middle" x="1529" y="-192.6" font-family="Times,serif" font-size="14.00">ExternalLinkDirective </text>
</g>
<!-- SharedModule&#45;&gt;ExternalLinkDirective  -->
<g id="edge14" class="edge">
<title>SharedModule&#45;&gt;ExternalLinkDirective </title>
<path fill="none" stroke="black" stroke-dasharray="5,2" d="M1096.44,-140.8C1215.6,-140.8 1508.94,-140.8 1508.94,-140.8 1508.94,-140.8 1508.94,-168.77 1508.94,-168.77"/>
<polygon fill="black" stroke="black" points="1505.44,-168.77 1508.94,-178.77 1512.44,-168.77 1505.44,-168.77"/>
</g>
<!-- HeadingComponent  -->
<g id="node16" class="node">
<title>HeadingComponent </title>
<polygon fill="#fb8072" stroke="black" points="1438.26,-214.8 1305.74,-214.8 1305.74,-178.8 1438.26,-178.8 1438.26,-214.8"/>
<text text-anchor="middle" x="1372" y="-192.6" font-family="Times,serif" font-size="14.00">HeadingComponent </text>
</g>
<!-- SharedModule&#45;&gt;HeadingComponent  -->
<g id="edge15" class="edge">
<title>SharedModule&#45;&gt;HeadingComponent </title>
<path fill="none" stroke="black" stroke-dasharray="5,2" d="M1096.4,-143.8C1184.8,-143.8 1360.92,-143.8 1360.92,-143.8 1360.92,-143.8 1360.92,-168.56 1360.92,-168.56"/>
<polygon fill="black" stroke="black" points="1357.42,-168.56 1360.92,-178.56 1364.42,-168.56 1357.42,-168.56"/>
</g>
<!-- JsonViewerComponent  -->
<g id="node17" class="node">
<title>JsonViewerComponent </title>
<polygon fill="#fb8072" stroke="black" points="1287.42,-214.8 1136.58,-214.8 1136.58,-178.8 1287.42,-178.8 1287.42,-214.8"/>
<text text-anchor="middle" x="1212" y="-192.6" font-family="Times,serif" font-size="14.00">JsonViewerComponent </text>
</g>
<!-- SharedModule&#45;&gt;JsonViewerComponent  -->
<g id="edge16" class="edge">
<title>SharedModule&#45;&gt;JsonViewerComponent </title>
<path fill="none" stroke="black" stroke-dasharray="5,2" d="M1096.35,-146.8C1139.89,-146.8 1196.46,-146.8 1196.46,-146.8 1196.46,-146.8 1196.46,-168.75 1196.46,-168.75"/>
<polygon fill="black" stroke="black" points="1192.96,-168.75 1196.46,-178.75 1199.96,-168.75 1192.96,-168.75"/>
</g>
<!-- ModalComponent  -->
<g id="node18" class="node">
<title>ModalComponent </title>
<polygon fill="#fb8072" stroke="black" points="1118.88,-214.8 997.12,-214.8 997.12,-178.8 1118.88,-178.8 1118.88,-214.8"/>
<text text-anchor="middle" x="1058" y="-192.6" font-family="Times,serif" font-size="14.00">ModalComponent </text>
</g>
<!-- SharedModule&#45;&gt;ModalComponent  -->
<g id="edge17" class="edge">
<title>SharedModule&#45;&gt;ModalComponent </title>
<path fill="none" stroke="black" stroke-dasharray="5,2" d="M1047,-149.91C1047,-149.91 1047,-168.79 1047,-168.79"/>
<polygon fill="black" stroke="black" points="1043.5,-168.79 1047,-178.79 1050.5,-168.79 1043.5,-168.79"/>
</g>
<!-- OpenStreetMapComponent  -->
<g id="node19" class="node">
<title>OpenStreetMapComponent </title>
<polygon fill="#fb8072" stroke="black" points="979.97,-214.8 806.03,-214.8 806.03,-178.8 979.97,-178.8 979.97,-214.8"/>
<text text-anchor="middle" x="893" y="-192.6" font-family="Times,serif" font-size="14.00">OpenStreetMapComponent </text>
</g>
<!-- SharedModule&#45;&gt;OpenStreetMapComponent  -->
<g id="edge18" class="edge">
<title>SharedModule&#45;&gt;OpenStreetMapComponent </title>
<path fill="none" stroke="black" stroke-dasharray="5,2" d="M997.59,-146.8C983.08,-146.8 971.01,-146.8 971.01,-146.8 971.01,-146.8 971.01,-168.75 971.01,-168.75"/>
<polygon fill="black" stroke="black" points="967.51,-168.75 971.01,-178.75 974.51,-168.75 967.51,-168.75"/>
</g>
<!-- RouterLinkButtonGroupComponent  -->
<g id="node20" class="node">
<title>RouterLinkButtonGroupComponent </title>
<polygon fill="#fb8072" stroke="black" points="788.76,-214.8 565.24,-214.8 565.24,-178.8 788.76,-178.8 788.76,-214.8"/>
<text text-anchor="middle" x="677" y="-192.6" font-family="Times,serif" font-size="14.00">RouterLinkButtonGroupComponent </text>
</g>
<!-- SharedModule&#45;&gt;RouterLinkButtonGroupComponent  -->
<g id="edge19" class="edge">
<title>SharedModule&#45;&gt;RouterLinkButtonGroupComponent </title>
<path fill="none" stroke="black" stroke-dasharray="5,2" d="M997.76,-143.8C904.95,-143.8 713.32,-143.8 713.32,-143.8 713.32,-143.8 713.32,-168.56 713.32,-168.56"/>
<polygon fill="black" stroke="black" points="709.82,-168.56 713.32,-178.56 716.82,-168.56 709.82,-168.56"/>
</g>
<!-- SharedNgbootstrapModule  -->
<g id="node21" class="node">
<title>SharedNgbootstrapModule </title>
<polygon fill="#fb8072" stroke="black" points="547.63,-214.8 376.37,-214.8 376.37,-178.8 547.63,-178.8 547.63,-214.8"/>
<text text-anchor="middle" x="462" y="-192.6" font-family="Times,serif" font-size="14.00">SharedNgbootstrapModule </text>
</g>
<!-- SharedModule&#45;&gt;SharedNgbootstrapModule  -->
<g id="edge20" class="edge">
<title>SharedModule&#45;&gt;SharedNgbootstrapModule </title>
<path fill="none" stroke="black" stroke-dasharray="5,2" d="M997.64,-140.8C858.61,-140.8 473.84,-140.8 473.84,-140.8 473.84,-140.8 473.84,-168.77 473.84,-168.77"/>
<polygon fill="black" stroke="black" points="470.34,-168.77 473.84,-178.77 477.34,-168.77 470.34,-168.77"/>
</g>
<!-- ToastComponent  -->
<g id="node22" class="node">
<title>ToastComponent </title>
<polygon fill="#fb8072" stroke="black" points="357.93,-214.8 242.07,-214.8 242.07,-178.8 357.93,-178.8 357.93,-214.8"/>
<text text-anchor="middle" x="300" y="-192.6" font-family="Times,serif" font-size="14.00">ToastComponent </text>
</g>
<!-- SharedModule&#45;&gt;ToastComponent  -->
<g id="edge21" class="edge">
<title>SharedModule&#45;&gt;ToastComponent </title>
<path fill="none" stroke="black" stroke-dasharray="5,2" d="M997.76,-136.8C833.38,-136.8 313.88,-136.8 313.88,-136.8 313.88,-136.8 313.88,-168.8 313.88,-168.8"/>
<polygon fill="black" stroke="black" points="310.38,-168.8 313.88,-178.8 317.38,-168.8 310.38,-168.8"/>
</g>
<!-- TwelveToneSpinnerComponent  -->
<g id="node23" class="node">
<title>TwelveToneSpinnerComponent </title>
<polygon fill="#fb8072" stroke="black" points="223.63,-214.8 24.37,-214.8 24.37,-178.8 223.63,-178.8 223.63,-214.8"/>
<text text-anchor="middle" x="124" y="-192.6" font-family="Times,serif" font-size="14.00">TwelveToneSpinnerComponent </text>
</g>
<!-- SharedModule&#45;&gt;TwelveToneSpinnerComponent  -->
<g id="edge22" class="edge">
<title>SharedModule&#45;&gt;TwelveToneSpinnerComponent </title>
<path fill="none" stroke="black" stroke-dasharray="5,2" d="M997.58,-133.8C808.29,-133.8 139.88,-133.8 139.88,-133.8 139.88,-133.8 139.88,-168.58 139.88,-168.58"/>
<polygon fill="black" stroke="black" points="136.38,-168.58 139.88,-178.58 143.38,-168.58 136.38,-168.58"/>
</g>
<!-- CompileHtmlModule -->
<g id="node11" class="node">
<title>CompileHtmlModule</title>
<polygon fill="#8dd3c7" stroke="black" points="1908.05,-84.8 1905.05,-88.8 1884.05,-88.8 1881.05,-84.8 1771.95,-84.8 1771.95,-48.8 1908.05,-48.8 1908.05,-84.8"/>
<text text-anchor="middle" x="1840" y="-62.6" font-family="Times,serif" font-size="14.00">CompileHtmlModule</text>
</g>
<!-- CompileHtmlModule&#45;&gt;SharedModule -->
<g id="edge10" class="edge">
<title>CompileHtmlModule&#45;&gt;SharedModule</title>
<path fill="none" stroke="black" d="M1864.73,-84.97C1864.73,-103.89 1864.73,-130.8 1864.73,-130.8 1864.73,-130.8 1106.31,-130.8 1106.31,-130.8"/>
<polygon fill="black" stroke="black" points="1106.31,-127.3 1096.31,-130.8 1106.31,-134.3 1106.31,-127.3"/>
</g>
<!-- SharedNgbootstrapModule -->
<g id="node12" class="node">
<title>SharedNgbootstrapModule</title>
<polygon fill="#8dd3c7" stroke="black" points="1753.63,-84.8 1750.63,-88.8 1729.63,-88.8 1726.63,-84.8 1586.37,-84.8 1586.37,-48.8 1753.63,-48.8 1753.63,-84.8"/>
<text text-anchor="middle" x="1670" y="-62.6" font-family="Times,serif" font-size="14.00">SharedNgbootstrapModule</text>
</g>
<!-- SharedNgbootstrapModule&#45;&gt;SharedModule -->
<g id="edge11" class="edge">
<title>SharedNgbootstrapModule&#45;&gt;SharedModule</title>
<path fill="none" stroke="black" d="M1593.95,-85.1C1593.95,-103.07 1593.95,-127.8 1593.95,-127.8 1593.95,-127.8 1106.5,-127.8 1106.5,-127.8"/>
<polygon fill="black" stroke="black" points="1106.5,-124.3 1096.5,-127.8 1106.5,-131.3 1106.5,-124.3"/>
</g>
</g>
</svg>
