<?xml version="1.0" encoding="UTF-8" standalone="no"?>
<!DOCTYPE svg PUBLIC "-//W3C//DTD SVG 1.1//EN"
 "http://www.w3.org/Graphics/SVG/1.1/DTD/svg11.dtd">
<!-- Generated by graphviz version 2.47.0 (20210316.0004)
 -->
<!-- Title: dependencies Pages: 1 -->
<svg width="1940pt" height="284pt"
 viewBox="0.00 0.00 1940.00 284.00" xmlns="http://www.w3.org/2000/svg" xmlns:xlink="http://www.w3.org/1999/xlink">
<g id="graph0" class="graph" transform="scale(1 1) rotate(0) translate(4 280)">
<title>dependencies</title>
<polygon fill="white" stroke="transparent" points="-4,4 -4,-280 1936,-280 1936,4 -4,4"/>
<text text-anchor="start" x="945.01" y="-42.4" font-family="sans-serif" font-weight="bold" font-size="14.00">Legend</text>
<polygon fill="#ffffb3" stroke="transparent" points="732,-10 732,-30 752,-30 752,-10 732,-10"/>
<text text-anchor="start" x="755.63" y="-15.4" font-family="sans-serif" font-size="14.00"> &#160;Declarations</text>
<polygon fill="#8dd3c7" stroke="transparent" points="845,-10 845,-30 865,-30 865,-10 845,-10"/>
<text text-anchor="start" x="868.73" y="-15.4" font-family="sans-serif" font-size="14.00"> &#160;Module</text>
<polygon fill="#80b1d3" stroke="transparent" points="931,-10 931,-30 951,-30 951,-10 931,-10"/>
<text text-anchor="start" x="954.78" y="-15.4" font-family="sans-serif" font-size="14.00"> &#160;Bootstrap</text>
<polygon fill="#fdb462" stroke="transparent" points="1028,-10 1028,-30 1048,-30 1048,-10 1028,-10"/>
<text text-anchor="start" x="1051.67" y="-15.4" font-family="sans-serif" font-size="14.00"> &#160;Providers</text>
<polygon fill="#fb8072" stroke="transparent" points="1124,-10 1124,-30 1144,-30 1144,-10 1124,-10"/>
<text text-anchor="start" x="1147.73" y="-15.4" font-family="sans-serif" font-size="14.00"> &#160;Exports</text>
<g id="clust1" class="cluster">
<title>cluster_SharedModule</title>
<polygon fill="none" stroke="black" stroke-dasharray="1,5" points="8,-70 8,-268 1924,-268 1924,-70 8,-70"/>
</g>
<g id="clust2" class="cluster">
<title>cluster_SharedModule_declarations</title>
<polygon fill="none" stroke="black" points="383,-78 383,-130 1905,-130 1905,-78 383,-78"/>
</g>
<g id="clust13" class="cluster">
<title>cluster_SharedModule_exports</title>
<polygon fill="none" stroke="black" points="16,-208 16,-260 1916,-260 1916,-208 16,-208"/>
</g>
<g id="clust12" class="cluster">
<title>cluster_SharedModule_imports</title>
<polygon fill="none" stroke="black" points="37,-78 37,-130 375,-130 375,-78 37,-78"/>
</g>
<!-- AddressComponent -->
<g id="node1" class="node">
<title>AddressComponent</title>
<polygon fill="#ffffb3" stroke="black" points="1896.7,-122 1769.3,-122 1769.3,-86 1896.7,-86 1896.7,-122"/>
<text text-anchor="middle" x="1833" y="-99.8" font-family="Times,serif" font-size="14.00">AddressComponent</text>
</g>
<!-- SharedModule -->
<g id="node10" class="node">
<title>SharedModule</title>
<polygon fill="#8dd3c7" stroke="black" points="1107.42,-187 1104.42,-191 1083.42,-191 1080.42,-187 1008.58,-187 1008.58,-151 1107.42,-151 1107.42,-187"/>
<text text-anchor="middle" x="1058" y="-164.8" font-family="Times,serif" font-size="14.00">SharedModule</text>
</g>
<!-- AddressComponent&#45;&gt;SharedModule -->
<g id="edge1" class="edge">
<title>AddressComponent&#45;&gt;SharedModule</title>
<path fill="none" stroke="black" d="M1773.52,-122.17C1773.52,-141.09 1773.52,-168 1773.52,-168 1773.52,-168 1117.46,-168 1117.46,-168"/>
<polygon fill="black" stroke="black" points="1117.46,-164.5 1107.46,-168 1117.46,-171.5 1117.46,-164.5"/>
</g>
<!-- ExternalLinkDirective -->
<g id="node2" class="node">
<title>ExternalLinkDirective</title>
<polygon fill="#ffffb3" stroke="black" points="1750.95,-122 1609.05,-122 1609.05,-86 1750.95,-86 1750.95,-122"/>
<text text-anchor="middle" x="1680" y="-99.8" font-family="Times,serif" font-size="14.00">ExternalLinkDirective</text>
</g>
<!-- ExternalLinkDirective&#45;&gt;SharedModule -->
<g id="edge2" class="edge">
<title>ExternalLinkDirective&#45;&gt;SharedModule</title>
<path fill="none" stroke="black" d="M1614.5,-122.3C1614.5,-140.27 1614.5,-165 1614.5,-165 1614.5,-165 1117.39,-165 1117.39,-165"/>
<polygon fill="black" stroke="black" points="1117.39,-161.5 1107.39,-165 1117.39,-168.5 1117.39,-161.5"/>
</g>
<!-- HeadingComponent -->
<g id="node3" class="node">
<title>HeadingComponent</title>
<polygon fill="#ffffb3" stroke="black" points="1591.26,-122 1462.74,-122 1462.74,-86 1591.26,-86 1591.26,-122"/>
<text text-anchor="middle" x="1527" y="-99.8" font-family="Times,serif" font-size="14.00">HeadingComponent</text>
</g>
<!-- HeadingComponent&#45;&gt;SharedModule -->
<g id="edge3" class="edge">
<title>HeadingComponent&#45;&gt;SharedModule</title>
<path fill="none" stroke="black" d="M1548.46,-122.04C1548.46,-138.73 1548.46,-161 1548.46,-161 1548.46,-161 1117.27,-161 1117.27,-161"/>
<polygon fill="black" stroke="black" points="1117.27,-157.5 1107.27,-161 1117.27,-164.5 1117.27,-157.5"/>
</g>
<!-- JsonViewerComponent -->
<g id="node4" class="node">
<title>JsonViewerComponent</title>
<polygon fill="#ffffb3" stroke="black" points="1444.92,-122 1297.08,-122 1297.08,-86 1444.92,-86 1444.92,-122"/>
<text text-anchor="middle" x="1371" y="-99.8" font-family="Times,serif" font-size="14.00">JsonViewerComponent</text>
</g>
<!-- JsonViewerComponent&#45;&gt;SharedModule -->
<g id="edge4" class="edge">
<title>JsonViewerComponent&#45;&gt;SharedModule</title>
<path fill="none" stroke="black" d="M1301.58,-122.28C1301.58,-137.95 1301.58,-158 1301.58,-158 1301.58,-158 1117.29,-158 1117.29,-158"/>
<polygon fill="black" stroke="black" points="1117.29,-154.5 1107.29,-158 1117.29,-161.5 1117.29,-154.5"/>
</g>
<!-- ModalComponent -->
<g id="node5" class="node">
<title>ModalComponent</title>
<polygon fill="#ffffb3" stroke="black" points="1278.88,-122 1161.12,-122 1161.12,-86 1278.88,-86 1278.88,-122"/>
<text text-anchor="middle" x="1220" y="-99.8" font-family="Times,serif" font-size="14.00">ModalComponent</text>
</g>
<!-- ModalComponent&#45;&gt;SharedModule -->
<g id="edge5" class="edge">
<title>ModalComponent&#45;&gt;SharedModule</title>
<path fill="none" stroke="black" d="M1220,-122.12C1220,-136.78 1220,-155 1220,-155 1220,-155 1117.49,-155 1117.49,-155"/>
<polygon fill="black" stroke="black" points="1117.49,-151.5 1107.49,-155 1117.49,-158.5 1117.49,-151.5"/>
</g>
<!-- OpenStreetMapComponent -->
<g id="node6" class="node">
<title>OpenStreetMapComponent</title>
<polygon fill="#ffffb3" stroke="black" points="1142.97,-122 973.03,-122 973.03,-86 1142.97,-86 1142.97,-122"/>
<text text-anchor="middle" x="1058" y="-99.8" font-family="Times,serif" font-size="14.00">OpenStreetMapComponent</text>
</g>
<!-- OpenStreetMapComponent&#45;&gt;SharedModule -->
<g id="edge6" class="edge">
<title>OpenStreetMapComponent&#45;&gt;SharedModule</title>
<path fill="none" stroke="black" d="M1058,-122.11C1058,-122.11 1058,-140.99 1058,-140.99"/>
<polygon fill="black" stroke="black" points="1054.5,-140.99 1058,-150.99 1061.5,-140.99 1054.5,-140.99"/>
</g>
<!-- RouterLinkButtonGroupComponent -->
<g id="node7" class="node">
<title>RouterLinkButtonGroupComponent</title>
<polygon fill="#ffffb3" stroke="black" points="954.76,-122 735.24,-122 735.24,-86 954.76,-86 954.76,-122"/>
<text text-anchor="middle" x="845" y="-99.8" font-family="Times,serif" font-size="14.00">RouterLinkButtonGroupComponent</text>
</g>
<!-- RouterLinkButtonGroupComponent&#45;&gt;SharedModule -->
<g id="edge7" class="edge">
<title>RouterLinkButtonGroupComponent&#45;&gt;SharedModule</title>
<path fill="none" stroke="black" d="M880.57,-122.12C880.57,-136.78 880.57,-155 880.57,-155 880.57,-155 998.58,-155 998.58,-155"/>
<polygon fill="black" stroke="black" points="998.58,-158.5 1008.58,-155 998.58,-151.5 998.58,-158.5"/>
</g>
<!-- ToastComponent -->
<g id="node8" class="node">
<title>ToastComponent</title>
<polygon fill="#ffffb3" stroke="black" points="717.44,-122 604.56,-122 604.56,-86 717.44,-86 717.44,-122"/>
<text text-anchor="middle" x="661" y="-99.8" font-family="Times,serif" font-size="14.00">ToastComponent</text>
</g>
<!-- ToastComponent&#45;&gt;SharedModule -->
<g id="edge8" class="edge">
<title>ToastComponent&#45;&gt;SharedModule</title>
<path fill="none" stroke="black" d="M661,-122.28C661,-137.95 661,-158 661,-158 661,-158 998.52,-158 998.52,-158"/>
<polygon fill="black" stroke="black" points="998.52,-161.5 1008.52,-158 998.52,-154.5 998.52,-161.5"/>
</g>
<!-- TwelveToneSpinnerComponent -->
<g id="node9" class="node">
<title>TwelveToneSpinnerComponent</title>
<polygon fill="#ffffb3" stroke="black" points="586.63,-122 391.37,-122 391.37,-86 586.63,-86 586.63,-122"/>
<text text-anchor="middle" x="489" y="-99.8" font-family="Times,serif" font-size="14.00">TwelveToneSpinnerComponent</text>
</g>
<!-- TwelveToneSpinnerComponent&#45;&gt;SharedModule -->
<g id="edge9" class="edge">
<title>TwelveToneSpinnerComponent&#45;&gt;SharedModule</title>
<path fill="none" stroke="black" d="M576.09,-122.04C576.09,-138.73 576.09,-161 576.09,-161 576.09,-161 998.69,-161 998.69,-161"/>
<polygon fill="black" stroke="black" points="998.69,-164.5 1008.69,-161 998.69,-157.5 998.69,-164.5"/>
</g>
<!-- AddressComponent  -->
<g id="node13" class="node">
<title>AddressComponent </title>
<polygon fill="#fb8072" stroke="black" points="1908.2,-252 1777.8,-252 1777.8,-216 1908.2,-216 1908.2,-252"/>
<text text-anchor="middle" x="1843" y="-229.8" font-family="Times,serif" font-size="14.00">AddressComponent </text>
</g>
<!-- SharedModule&#45;&gt;AddressComponent  -->
<g id="edge12" class="edge">
<title>SharedModule&#45;&gt;AddressComponent </title>
<path fill="none" stroke="black" stroke-dasharray="5,2" d="M1107.33,-171C1278.6,-171 1837.12,-171 1837.12,-171 1837.12,-171 1837.12,-205.78 1837.12,-205.78"/>
<polygon fill="black" stroke="black" points="1833.63,-205.78 1837.12,-215.78 1840.63,-205.78 1833.63,-205.78"/>
</g>
<!-- CompileHtmlModule  -->
<g id="node14" class="node">
<title>CompileHtmlModule </title>
<polygon fill="#fb8072" stroke="black" points="1760.05,-252 1619.95,-252 1619.95,-216 1760.05,-216 1760.05,-252"/>
<text text-anchor="middle" x="1690" y="-229.8" font-family="Times,serif" font-size="14.00">CompileHtmlModule </text>
</g>
<!-- SharedModule&#45;&gt;CompileHtmlModule  -->
<g id="edge13" class="edge">
<title>SharedModule&#45;&gt;CompileHtmlModule </title>
<path fill="none" stroke="black" stroke-dasharray="5,2" d="M1107.24,-174C1255.16,-174 1685.47,-174 1685.47,-174 1685.47,-174 1685.47,-206 1685.47,-206"/>
<polygon fill="black" stroke="black" points="1681.97,-206 1685.47,-216 1688.97,-206 1681.97,-206"/>
</g>
<!-- ExternalLinkDirective  -->
<g id="node15" class="node">
<title>ExternalLinkDirective </title>
<polygon fill="#fb8072" stroke="black" points="1601.95,-252 1456.05,-252 1456.05,-216 1601.95,-216 1601.95,-252"/>
<text text-anchor="middle" x="1529" y="-229.8" font-family="Times,serif" font-size="14.00">ExternalLinkDirective </text>
</g>
<!-- SharedModule&#45;&gt;ExternalLinkDirective  -->
<g id="edge14" class="edge">
<title>SharedModule&#45;&gt;ExternalLinkDirective </title>
<path fill="none" stroke="black" stroke-dasharray="5,2" d="M1107.6,-178C1224.13,-178 1505.54,-178 1505.54,-178 1505.54,-178 1505.54,-205.97 1505.54,-205.97"/>
<polygon fill="black" stroke="black" points="1502.04,-205.97 1505.54,-215.97 1509.04,-205.97 1502.04,-205.97"/>
</g>
<!-- HeadingComponent  -->
<g id="node16" class="node">
<title>HeadingComponent </title>
<polygon fill="#fb8072" stroke="black" points="1438.26,-252 1305.74,-252 1305.74,-216 1438.26,-216 1438.26,-252"/>
<text text-anchor="middle" x="1372" y="-229.8" font-family="Times,serif" font-size="14.00">HeadingComponent </text>
</g>
<!-- SharedModule&#45;&gt;HeadingComponent  -->
<g id="edge15" class="edge">
<title>SharedModule&#45;&gt;HeadingComponent </title>
<path fill="none" stroke="black" stroke-dasharray="5,2" d="M1107.41,-181C1195.83,-181 1372,-181 1372,-181 1372,-181 1372,-205.76 1372,-205.76"/>
<polygon fill="black" stroke="black" points="1368.5,-205.76 1372,-215.76 1375.5,-205.76 1368.5,-205.76"/>
</g>
<!-- JsonViewerComponent  -->
<g id="node17" class="node">
<title>JsonViewerComponent </title>
<polygon fill="#fb8072" stroke="black" points="1287.42,-252 1136.58,-252 1136.58,-216 1287.42,-216 1287.42,-252"/>
<text text-anchor="middle" x="1212" y="-229.8" font-family="Times,serif" font-size="14.00">JsonViewerComponent </text>
</g>
<!-- SharedModule&#45;&gt;JsonViewerComponent  -->
<g id="edge16" class="edge">
<title>SharedModule&#45;&gt;JsonViewerComponent </title>
<path fill="none" stroke="black" stroke-dasharray="5,2" d="M1107.21,-184C1129.96,-184 1152.02,-184 1152.02,-184 1152.02,-184 1152.02,-205.95 1152.02,-205.95"/>
<polygon fill="black" stroke="black" points="1148.52,-205.95 1152.02,-215.95 1155.52,-205.95 1148.52,-205.95"/>
</g>
<!-- ModalComponent  -->
<g id="node18" class="node">
<title>ModalComponent </title>
<polygon fill="#fb8072" stroke="black" points="1118.88,-252 997.12,-252 997.12,-216 1118.88,-216 1118.88,-252"/>
<text text-anchor="middle" x="1058" y="-229.8" font-family="Times,serif" font-size="14.00">ModalComponent </text>
</g>
<!-- SharedModule&#45;&gt;ModalComponent  -->
<g id="edge17" class="edge">
<title>SharedModule&#45;&gt;ModalComponent </title>
<path fill="none" stroke="black" stroke-dasharray="5,2" d="M1058,-187.11C1058,-187.11 1058,-205.99 1058,-205.99"/>
<polygon fill="black" stroke="black" points="1054.5,-205.99 1058,-215.99 1061.5,-205.99 1054.5,-205.99"/>
</g>
<!-- OpenStreetMapComponent  -->
<g id="node19" class="node">
<title>OpenStreetMapComponent </title>
<polygon fill="#fb8072" stroke="black" points="979.97,-252 806.03,-252 806.03,-216 979.97,-216 979.97,-252"/>
<text text-anchor="middle" x="893" y="-229.8" font-family="Times,serif" font-size="14.00">OpenStreetMapComponent </text>
</g>
<!-- SharedModule&#45;&gt;OpenStreetMapComponent  -->
<g id="edge18" class="edge">
<title>SharedModule&#45;&gt;OpenStreetMapComponent </title>
<path fill="none" stroke="black" stroke-dasharray="5,2" d="M1008.77,-184C986.02,-184 963.95,-184 963.95,-184 963.95,-184 963.95,-205.95 963.95,-205.95"/>
<polygon fill="black" stroke="black" points="960.45,-205.95 963.95,-215.95 967.45,-205.95 960.45,-205.95"/>
</g>
<!-- RouterLinkButtonGroupComponent  -->
<g id="node20" class="node">
<title>RouterLinkButtonGroupComponent </title>
<polygon fill="#fb8072" stroke="black" points="788.76,-252 565.24,-252 565.24,-216 788.76,-216 788.76,-252"/>
<text text-anchor="middle" x="677" y="-229.8" font-family="Times,serif" font-size="14.00">RouterLinkButtonGroupComponent </text>
</g>
<!-- SharedModule&#45;&gt;RouterLinkButtonGroupComponent  -->
<g id="edge19" class="edge">
<title>SharedModule&#45;&gt;RouterLinkButtonGroupComponent </title>
<path fill="none" stroke="black" stroke-dasharray="5,2" d="M1008.77,-181C924.56,-181 761.88,-181 761.88,-181 761.88,-181 761.88,-205.76 761.88,-205.76"/>
<polygon fill="black" stroke="black" points="758.38,-205.76 761.88,-215.76 765.38,-205.76 758.38,-205.76"/>
</g>
<!-- SharedNgbootstrapModule  -->
<g id="node21" class="node">
<title>SharedNgbootstrapModule </title>
<polygon fill="#fb8072" stroke="black" points="547.63,-252 376.37,-252 376.37,-216 547.63,-216 547.63,-252"/>
<text text-anchor="middle" x="462" y="-229.8" font-family="Times,serif" font-size="14.00">SharedNgbootstrapModule </text>
</g>
<!-- SharedModule&#45;&gt;SharedNgbootstrapModule  -->
<g id="edge20" class="edge">
<title>SharedModule&#45;&gt;SharedNgbootstrapModule </title>
<path fill="none" stroke="black" stroke-dasharray="5,2" d="M1008.57,-178C866.88,-178 469.38,-178 469.38,-178 469.38,-178 469.38,-205.97 469.38,-205.97"/>
<polygon fill="black" stroke="black" points="465.88,-205.97 469.38,-215.97 472.88,-205.97 465.88,-205.97"/>
</g>
<!-- ToastComponent  -->
<g id="node22" class="node">
<title>ToastComponent </title>
<polygon fill="#fb8072" stroke="black" points="357.93,-252 242.07,-252 242.07,-216 357.93,-216 357.93,-252"/>
<text text-anchor="middle" x="300" y="-229.8" font-family="Times,serif" font-size="14.00">ToastComponent </text>
</g>
<!-- SharedModule&#45;&gt;ToastComponent  -->
<g id="edge21" class="edge">
<title>SharedModule&#45;&gt;ToastComponent </title>
<path fill="none" stroke="black" stroke-dasharray="5,2" d="M1008.56,-174C840.26,-174 300,-174 300,-174 300,-174 300,-206 300,-206"/>
<polygon fill="black" stroke="black" points="296.5,-206 300,-216 303.5,-206 296.5,-206"/>
</g>
<!-- TwelveToneSpinnerComponent  -->
<g id="node23" class="node">
<title>TwelveToneSpinnerComponent </title>
<polygon fill="#fb8072" stroke="black" points="223.63,-252 24.37,-252 24.37,-216 223.63,-216 223.63,-252"/>
<text text-anchor="middle" x="124" y="-229.8" font-family="Times,serif" font-size="14.00">TwelveToneSpinnerComponent </text>
</g>
<!-- SharedModule&#45;&gt;TwelveToneSpinnerComponent  -->
<g id="edge22" class="edge">
<title>SharedModule&#45;&gt;TwelveToneSpinnerComponent </title>
<path fill="none" stroke="black" stroke-dasharray="5,2" d="M1008.6,-171C828.58,-171 218.19,-171 218.19,-171 218.19,-171 218.19,-205.78 218.19,-205.78"/>
<polygon fill="black" stroke="black" points="214.69,-205.78 218.19,-215.78 221.69,-205.78 214.69,-205.78"/>
</g>
<!-- CompileHtmlModule -->
<g id="node11" class="node">
<title>CompileHtmlModule</title>
<polygon fill="#8dd3c7" stroke="black" points="367.05,-122 364.05,-126 343.05,-126 340.05,-122 230.95,-122 230.95,-86 367.05,-86 367.05,-122"/>
<text text-anchor="middle" x="299" y="-99.8" font-family="Times,serif" font-size="14.00">CompileHtmlModule</text>
</g>
<!-- CompileHtmlModule&#45;&gt;SharedModule -->
<g id="edge10" class="edge">
<title>CompileHtmlModule&#45;&gt;SharedModule</title>
<path fill="none" stroke="black" d="M362.62,-122.3C362.62,-140.27 362.62,-165 362.62,-165 362.62,-165 998.55,-165 998.55,-165"/>
<polygon fill="black" stroke="black" points="998.55,-168.5 1008.55,-165 998.55,-161.5 998.55,-168.5"/>
</g>
<!-- SharedNgbootstrapModule -->
<g id="node12" class="node">
<title>SharedNgbootstrapModule</title>
<polygon fill="#8dd3c7" stroke="black" points="212.63,-122 209.63,-126 188.63,-126 185.63,-122 45.37,-122 45.37,-86 212.63,-86 212.63,-122"/>
<text text-anchor="middle" x="129" y="-99.8" font-family="Times,serif" font-size="14.00">SharedNgbootstrapModule</text>
</g>
<!-- SharedNgbootstrapModule&#45;&gt;SharedModule -->
<g id="edge11" class="edge">
<title>SharedNgbootstrapModule&#45;&gt;SharedModule</title>
<path fill="none" stroke="black" d="M129,-122.17C129,-141.09 129,-168 129,-168 129,-168 998.71,-168 998.71,-168"/>
<polygon fill="black" stroke="black" points="998.71,-171.5 1008.71,-168 998.71,-164.5 998.71,-171.5"/>
</g>
</g>
</svg>
