<?xml version="1.0" encoding="UTF-8" standalone="no"?>
<!DOCTYPE svg PUBLIC "-//W3C//DTD SVG 1.1//EN"
 "http://www.w3.org/Graphics/SVG/1.1/DTD/svg11.dtd">
<!-- Generated by graphviz version 2.47.3 (20210619.1520)
 -->
<!-- Title: dependencies Pages: 1 -->
<svg width="2230pt" height="247pt"
 viewBox="0.00 0.00 2230.00 246.80" xmlns="http://www.w3.org/2000/svg" xmlns:xlink="http://www.w3.org/1999/xlink">
<g id="graph0" class="graph" transform="scale(1 1) rotate(0) translate(4 242.8)">
<title>dependencies</title>
<polygon fill="white" stroke="transparent" points="-4,4 -4,-242.8 2226,-242.8 2226,4 -4,4"/>
<text text-anchor="middle" x="1111" y="-8.2" font-family="sans-serif" font-size="14.00">dependencies</text>
<g id="clust1" class="cluster">
<title>cluster_SharedModule</title>
<polygon fill="none" stroke="black" stroke-dasharray="1,5" points="8,-32.8 8,-230.8 2214,-230.8 2214,-32.8 8,-32.8"/>
</g>
<g id="clust15" class="cluster">
<title>cluster_SharedModule_exports</title>
<polygon fill="none" stroke="black" points="90,-170.8 90,-222.8 2124,-222.8 2124,-170.8 90,-170.8"/>
</g>
<g id="clust14" class="cluster">
<title>cluster_SharedModule_imports</title>
<polygon fill="none" stroke="black" points="1868,-40.8 1868,-92.8 2206,-92.8 2206,-40.8 1868,-40.8"/>
</g>
<g id="clust2" class="cluster">
<title>cluster_SharedModule_declarations</title>
<polygon fill="none" stroke="black" points="16,-40.8 16,-92.8 1860,-92.8 1860,-40.8 16,-40.8"/>
</g>
<!-- AddressComponent -->
<g id="node1" class="node">
<title>AddressComponent</title>
<polygon fill="#ffffb3" stroke="black" points="1851.7,-84.8 1724.3,-84.8 1724.3,-48.8 1851.7,-48.8 1851.7,-84.8"/>
<text text-anchor="middle" x="1788" y="-62.6" font-family="Times,serif" font-size="14.00">AddressComponent</text>
</g>
<!-- SharedModule -->
<g id="node12" class="node">
<title>SharedModule</title>
<polygon fill="#8dd3c7" stroke="black" points="1224.42,-149.8 1221.42,-153.8 1200.42,-153.8 1197.42,-149.8 1125.58,-149.8 1125.58,-113.8 1224.42,-113.8 1224.42,-149.8"/>
<text text-anchor="middle" x="1175" y="-127.6" font-family="Times,serif" font-size="14.00">SharedModule</text>
</g>
<!-- AddressComponent&#45;&gt;SharedModule -->
<g id="edge1" class="edge">
<title>AddressComponent&#45;&gt;SharedModule</title>
<path fill="none" stroke="black" d="M1767.06,-84.82C1767.06,-102.17 1767.06,-125.8 1767.06,-125.8 1767.06,-125.8 1234.46,-125.8 1234.46,-125.8"/>
<polygon fill="black" stroke="black" points="1234.46,-122.3 1224.46,-125.8 1234.46,-129.3 1234.46,-122.3"/>
</g>
<!-- ExternalLinkDirective -->
<g id="node2" class="node">
<title>ExternalLinkDirective</title>
<polygon fill="#ffffb3" stroke="black" points="1705.95,-84.8 1564.05,-84.8 1564.05,-48.8 1705.95,-48.8 1705.95,-84.8"/>
<text text-anchor="middle" x="1635" y="-62.6" font-family="Times,serif" font-size="14.00">ExternalLinkDirective</text>
</g>
<!-- ExternalLinkDirective&#45;&gt;SharedModule -->
<g id="edge2" class="edge">
<title>ExternalLinkDirective&#45;&gt;SharedModule</title>
<path fill="none" stroke="black" d="M1605.08,-84.83C1605.08,-101.2 1605.08,-122.8 1605.08,-122.8 1605.08,-122.8 1234.34,-122.8 1234.34,-122.8"/>
<polygon fill="black" stroke="black" points="1234.34,-119.3 1224.34,-122.8 1234.34,-126.3 1234.34,-119.3"/>
</g>
<!-- HeadingComponent -->
<g id="node3" class="node">
<title>HeadingComponent</title>
<polygon fill="#ffffb3" stroke="black" points="1546.26,-84.8 1417.74,-84.8 1417.74,-48.8 1546.26,-48.8 1546.26,-84.8"/>
<text text-anchor="middle" x="1482" y="-62.6" font-family="Times,serif" font-size="14.00">HeadingComponent</text>
</g>
<!-- HeadingComponent&#45;&gt;SharedModule -->
<g id="edge3" class="edge">
<title>HeadingComponent&#45;&gt;SharedModule</title>
<path fill="none" stroke="black" d="M1456.54,-85.04C1456.54,-100.37 1456.54,-119.8 1456.54,-119.8 1456.54,-119.8 1234.36,-119.8 1234.36,-119.8"/>
<polygon fill="black" stroke="black" points="1234.36,-116.3 1224.36,-119.8 1234.36,-123.3 1234.36,-116.3"/>
</g>
<!-- JsonViewerComponent -->
<g id="node4" class="node">
<title>JsonViewerComponent</title>
<polygon fill="#ffffb3" stroke="black" points="1399.92,-84.8 1252.08,-84.8 1252.08,-48.8 1399.92,-48.8 1399.92,-84.8"/>
<text text-anchor="middle" x="1326" y="-62.6" font-family="Times,serif" font-size="14.00">JsonViewerComponent</text>
</g>
<!-- JsonViewerComponent&#45;&gt;SharedModule -->
<g id="edge4" class="edge">
<title>JsonViewerComponent&#45;&gt;SharedModule</title>
<path fill="none" stroke="black" d="M1289.49,-84.85C1289.49,-99.17 1289.49,-116.8 1289.49,-116.8 1289.49,-116.8 1234.22,-116.8 1234.22,-116.8"/>
<polygon fill="black" stroke="black" points="1234.22,-113.3 1224.22,-116.8 1234.22,-120.3 1234.22,-113.3"/>
</g>
<!-- ModalComponent -->
<g id="node5" class="node">
<title>ModalComponent</title>
<polygon fill="#ffffb3" stroke="black" points="1233.88,-84.8 1116.12,-84.8 1116.12,-48.8 1233.88,-48.8 1233.88,-84.8"/>
<text text-anchor="middle" x="1175" y="-62.6" font-family="Times,serif" font-size="14.00">ModalComponent</text>
</g>
<!-- ModalComponent&#45;&gt;SharedModule -->
<g id="edge5" class="edge">
<title>ModalComponent&#45;&gt;SharedModule</title>
<path fill="none" stroke="black" d="M1175,-84.91C1175,-84.91 1175,-103.79 1175,-103.79"/>
<polygon fill="black" stroke="black" points="1171.5,-103.79 1175,-113.79 1178.5,-103.79 1171.5,-103.79"/>
</g>
<!-- OpenStreetMapComponent -->
<g id="node6" class="node">
<title>OpenStreetMapComponent</title>
<polygon fill="#ffffb3" stroke="black" points="1097.97,-84.8 928.03,-84.8 928.03,-48.8 1097.97,-48.8 1097.97,-84.8"/>
<text text-anchor="middle" x="1013" y="-62.6" font-family="Times,serif" font-size="14.00">OpenStreetMapComponent</text>
</g>
<!-- OpenStreetMapComponent&#45;&gt;SharedModule -->
<g id="edge6" class="edge">
<title>OpenStreetMapComponent&#45;&gt;SharedModule</title>
<path fill="none" stroke="black" d="M1056.12,-84.85C1056.12,-99.17 1056.12,-116.8 1056.12,-116.8 1056.12,-116.8 1115.62,-116.8 1115.62,-116.8"/>
<polygon fill="black" stroke="black" points="1115.62,-120.3 1125.62,-116.8 1115.62,-113.3 1115.62,-120.3"/>
</g>
<!-- RouterLinkButtonGroupComponent -->
<g id="node7" class="node">
<title>RouterLinkButtonGroupComponent</title>
<polygon fill="#ffffb3" stroke="black" points="909.76,-84.8 690.24,-84.8 690.24,-48.8 909.76,-48.8 909.76,-84.8"/>
<text text-anchor="middle" x="800" y="-62.6" font-family="Times,serif" font-size="14.00">RouterLinkButtonGroupComponent</text>
</g>
<!-- RouterLinkButtonGroupComponent&#45;&gt;SharedModule -->
<g id="edge7" class="edge">
<title>RouterLinkButtonGroupComponent&#45;&gt;SharedModule</title>
<path fill="none" stroke="black" d="M841.62,-85.04C841.62,-100.37 841.62,-119.8 841.62,-119.8 841.62,-119.8 1115.45,-119.8 1115.45,-119.8"/>
<polygon fill="black" stroke="black" points="1115.45,-123.3 1125.45,-119.8 1115.45,-116.3 1115.45,-123.3"/>
</g>
<!-- TableComponent -->
<g id="node8" class="node">
<title>TableComponent</title>
<polygon fill="#ffffb3" stroke="black" points="672.7,-84.8 559.3,-84.8 559.3,-48.8 672.7,-48.8 672.7,-84.8"/>
<text text-anchor="middle" x="616" y="-62.6" font-family="Times,serif" font-size="14.00">TableComponent</text>
</g>
<!-- TableComponent&#45;&gt;SharedModule -->
<g id="edge8" class="edge">
<title>TableComponent&#45;&gt;SharedModule</title>
<path fill="none" stroke="black" d="M628.52,-84.83C628.52,-101.2 628.52,-122.8 628.52,-122.8 628.52,-122.8 1115.54,-122.8 1115.54,-122.8"/>
<polygon fill="black" stroke="black" points="1115.54,-126.3 1125.54,-122.8 1115.54,-119.3 1115.54,-126.3"/>
</g>
<!-- TablePaginationComponent -->
<g id="node9" class="node">
<title>TablePaginationComponent</title>
<polygon fill="#ffffb3" stroke="black" points="541.59,-84.8 368.41,-84.8 368.41,-48.8 541.59,-48.8 541.59,-84.8"/>
<text text-anchor="middle" x="455" y="-62.6" font-family="Times,serif" font-size="14.00">TablePaginationComponent</text>
</g>
<!-- TablePaginationComponent&#45;&gt;SharedModule -->
<g id="edge9" class="edge">
<title>TablePaginationComponent&#45;&gt;SharedModule</title>
<path fill="none" stroke="black" d="M495.6,-84.82C495.6,-102.17 495.6,-125.8 495.6,-125.8 495.6,-125.8 1115.59,-125.8 1115.59,-125.8"/>
<polygon fill="black" stroke="black" points="1115.59,-129.3 1125.59,-125.8 1115.59,-122.3 1115.59,-129.3"/>
</g>
<!-- ToastComponent -->
<g id="node10" class="node">
<title>ToastComponent</title>
<polygon fill="#ffffb3" stroke="black" points="350.44,-84.8 237.56,-84.8 237.56,-48.8 350.44,-48.8 350.44,-84.8"/>
<text text-anchor="middle" x="294" y="-62.6" font-family="Times,serif" font-size="14.00">ToastComponent</text>
</g>
<!-- ToastComponent&#45;&gt;SharedModule -->
<g id="edge10" class="edge">
<title>ToastComponent&#45;&gt;SharedModule</title>
<path fill="none" stroke="black" d="M333.12,-85.07C333.12,-103.36 333.12,-128.8 333.12,-128.8 333.12,-128.8 1115.48,-128.8 1115.48,-128.8"/>
<polygon fill="black" stroke="black" points="1115.48,-132.3 1125.48,-128.8 1115.48,-125.3 1115.48,-132.3"/>
</g>
<!-- TwelveToneSpinnerComponent -->
<g id="node11" class="node">
<title>TwelveToneSpinnerComponent</title>
<polygon fill="#ffffb3" stroke="black" points="219.63,-84.8 24.37,-84.8 24.37,-48.8 219.63,-48.8 219.63,-84.8"/>
<text text-anchor="middle" x="122" y="-62.6" font-family="Times,serif" font-size="14.00">TwelveToneSpinnerComponent</text>
</g>
<!-- TwelveToneSpinnerComponent&#45;&gt;SharedModule -->
<g id="edge11" class="edge">
<title>TwelveToneSpinnerComponent&#45;&gt;SharedModule</title>
<path fill="none" stroke="black" d="M159.12,-84.91C159.12,-104.14 159.12,-131.8 159.12,-131.8 159.12,-131.8 1115.66,-131.8 1115.66,-131.8"/>
<polygon fill="black" stroke="black" points="1115.66,-135.3 1125.66,-131.8 1115.66,-128.3 1115.66,-135.3"/>
</g>
<!-- AddressComponent  -->
<g id="node15" class="node">
<title>AddressComponent </title>
<polygon fill="#fb8072" stroke="black" points="2116.2,-214.8 1985.8,-214.8 1985.8,-178.8 2116.2,-178.8 2116.2,-214.8"/>
<text text-anchor="middle" x="2051" y="-192.6" font-family="Times,serif" font-size="14.00">AddressComponent </text>
</g>
<!-- SharedModule&#45;&gt;AddressComponent  -->
<g id="edge14" class="edge">
<title>SharedModule&#45;&gt;AddressComponent </title>
<path fill="none" stroke="black" stroke-dasharray="5,2" d="M1224.39,-134.8C1404.4,-134.8 2014.73,-134.8 2014.73,-134.8 2014.73,-134.8 2014.73,-168.53 2014.73,-168.53"/>
<polygon fill="black" stroke="black" points="2011.23,-168.53 2014.73,-178.53 2018.23,-168.53 2011.23,-168.53"/>
</g>
<!-- CompileHtmlModule  -->
<g id="node16" class="node">
<title>CompileHtmlModule </title>
<polygon fill="#fb8072" stroke="black" points="1968.05,-214.8 1827.95,-214.8 1827.95,-178.8 1968.05,-178.8 1968.05,-214.8"/>
<text text-anchor="middle" x="1898" y="-192.6" font-family="Times,serif" font-size="14.00">CompileHtmlModule </text>
</g>
<!-- SharedModule&#45;&gt;CompileHtmlModule  -->
<g id="edge15" class="edge">
<title>SharedModule&#45;&gt;CompileHtmlModule </title>
<path fill="none" stroke="black" stroke-dasharray="5,2" d="M1224.42,-137.8C1378.49,-137.8 1839.79,-137.8 1839.79,-137.8 1839.79,-137.8 1839.79,-168.78 1839.79,-168.78"/>
<polygon fill="black" stroke="black" points="1836.29,-168.78 1839.79,-178.78 1843.29,-168.78 1836.29,-168.78"/>
</g>
<!-- ExternalLinkDirective  -->
<g id="node17" class="node">
<title>ExternalLinkDirective </title>
<polygon fill="#fb8072" stroke="black" points="1809.95,-214.8 1664.05,-214.8 1664.05,-178.8 1809.95,-178.8 1809.95,-214.8"/>
<text text-anchor="middle" x="1737" y="-192.6" font-family="Times,serif" font-size="14.00">ExternalLinkDirective </text>
</g>
<!-- SharedModule&#45;&gt;ExternalLinkDirective  -->
<g id="edge16" class="edge">
<title>SharedModule&#45;&gt;ExternalLinkDirective </title>
<path fill="none" stroke="black" stroke-dasharray="5,2" d="M1224.38,-140.8C1352.4,-140.8 1685.12,-140.8 1685.12,-140.8 1685.12,-140.8 1685.12,-168.77 1685.12,-168.77"/>
<polygon fill="black" stroke="black" points="1681.63,-168.77 1685.12,-178.77 1688.63,-168.77 1681.63,-168.77"/>
</g>
<!-- HeadingComponent  -->
<g id="node18" class="node">
<title>HeadingComponent </title>
<polygon fill="#fb8072" stroke="black" points="1646.26,-214.8 1513.74,-214.8 1513.74,-178.8 1646.26,-178.8 1646.26,-214.8"/>
<text text-anchor="middle" x="1580" y="-192.6" font-family="Times,serif" font-size="14.00">HeadingComponent </text>
</g>
<!-- SharedModule&#45;&gt;HeadingComponent  -->
<g id="edge17" class="edge">
<title>SharedModule&#45;&gt;HeadingComponent </title>
<path fill="none" stroke="black" stroke-dasharray="5,2" d="M1224.38,-143.8C1321.96,-143.8 1530.12,-143.8 1530.12,-143.8 1530.12,-143.8 1530.12,-168.56 1530.12,-168.56"/>
<polygon fill="black" stroke="black" points="1526.63,-168.56 1530.12,-178.56 1533.63,-168.56 1526.63,-168.56"/>
</g>
<!-- JsonViewerComponent  -->
<g id="node19" class="node">
<title>JsonViewerComponent </title>
<polygon fill="#fb8072" stroke="black" points="1495.42,-214.8 1344.58,-214.8 1344.58,-178.8 1495.42,-178.8 1495.42,-214.8"/>
<text text-anchor="middle" x="1420" y="-192.6" font-family="Times,serif" font-size="14.00">JsonViewerComponent </text>
</g>
<!-- SharedModule&#45;&gt;JsonViewerComponent  -->
<g id="edge18" class="edge">
<title>SharedModule&#45;&gt;JsonViewerComponent </title>
<path fill="none" stroke="black" stroke-dasharray="5,2" d="M1224.23,-146.8C1282.62,-146.8 1372.12,-146.8 1372.12,-146.8 1372.12,-146.8 1372.12,-168.75 1372.12,-168.75"/>
<polygon fill="black" stroke="black" points="1368.63,-168.75 1372.12,-178.75 1375.63,-168.75 1368.63,-168.75"/>
</g>
<!-- ModalComponent  -->
<g id="node20" class="node">
<title>ModalComponent </title>
<polygon fill="#fb8072" stroke="black" points="1326.88,-214.8 1205.12,-214.8 1205.12,-178.8 1326.88,-178.8 1326.88,-214.8"/>
<text text-anchor="middle" x="1266" y="-192.6" font-family="Times,serif" font-size="14.00">ModalComponent </text>
</g>
<!-- SharedModule&#45;&gt;ModalComponent  -->
<g id="edge19" class="edge">
<title>SharedModule&#45;&gt;ModalComponent </title>
<path fill="none" stroke="black" stroke-dasharray="5,2" d="M1214.76,-149.91C1214.76,-149.91 1214.76,-168.79 1214.76,-168.79"/>
<polygon fill="black" stroke="black" points="1211.26,-168.79 1214.76,-178.79 1218.26,-168.79 1211.26,-168.79"/>
</g>
<!-- OpenStreetMapComponent  -->
<g id="node21" class="node">
<title>OpenStreetMapComponent </title>
<polygon fill="#fb8072" stroke="black" points="1187.97,-214.8 1014.03,-214.8 1014.03,-178.8 1187.97,-178.8 1187.97,-214.8"/>
<text text-anchor="middle" x="1101" y="-192.6" font-family="Times,serif" font-size="14.00">OpenStreetMapComponent </text>
</g>
<!-- SharedModule&#45;&gt;OpenStreetMapComponent  -->
<g id="edge20" class="edge">
<title>SharedModule&#45;&gt;OpenStreetMapComponent </title>
<path fill="none" stroke="black" stroke-dasharray="5,2" d="M1156.76,-149.91C1156.76,-149.91 1156.76,-168.79 1156.76,-168.79"/>
<polygon fill="black" stroke="black" points="1153.26,-168.79 1156.76,-178.79 1160.26,-168.79 1153.26,-168.79"/>
</g>
<!-- RouterLinkButtonGroupComponent  -->
<g id="node22" class="node">
<title>RouterLinkButtonGroupComponent </title>
<polygon fill="#fb8072" stroke="black" points="996.76,-214.8 773.24,-214.8 773.24,-178.8 996.76,-178.8 996.76,-214.8"/>
<text text-anchor="middle" x="885" y="-192.6" font-family="Times,serif" font-size="14.00">RouterLinkButtonGroupComponent </text>
</g>
<!-- SharedModule&#45;&gt;RouterLinkButtonGroupComponent  -->
<g id="edge21" class="edge">
<title>SharedModule&#45;&gt;RouterLinkButtonGroupComponent </title>
<path fill="none" stroke="black" stroke-dasharray="5,2" d="M1125.67,-146.8C1062.85,-146.8 962.32,-146.8 962.32,-146.8 962.32,-146.8 962.32,-168.75 962.32,-168.75"/>
<polygon fill="black" stroke="black" points="958.82,-168.75 962.32,-178.75 965.82,-168.75 958.82,-168.75"/>
</g>
<!-- SharedNgbootstrapModule  -->
<g id="node23" class="node">
<title>SharedNgbootstrapModule </title>
<polygon fill="#fb8072" stroke="black" points="755.63,-214.8 584.37,-214.8 584.37,-178.8 755.63,-178.8 755.63,-214.8"/>
<text text-anchor="middle" x="670" y="-192.6" font-family="Times,serif" font-size="14.00">SharedNgbootstrapModule </text>
</g>
<!-- SharedModule&#45;&gt;SharedNgbootstrapModule  -->
<g id="edge22" class="edge">
<title>SharedModule&#45;&gt;SharedNgbootstrapModule </title>
<path fill="none" stroke="black" stroke-dasharray="5,2" d="M1125.75,-143.8C1008.56,-143.8 722.84,-143.8 722.84,-143.8 722.84,-143.8 722.84,-168.56 722.84,-168.56"/>
<polygon fill="black" stroke="black" points="719.34,-168.56 722.84,-178.56 726.34,-168.56 719.34,-168.56"/>
</g>
<!-- TableComponent  -->
<g id="node24" class="node">
<title>TableComponent </title>
<polygon fill="#fb8072" stroke="black" points="566.21,-214.8 449.79,-214.8 449.79,-178.8 566.21,-178.8 566.21,-214.8"/>
<text text-anchor="middle" x="508" y="-192.6" font-family="Times,serif" font-size="14.00">TableComponent </text>
</g>
<!-- SharedModule&#45;&gt;TableComponent  -->
<g id="edge23" class="edge">
<title>SharedModule&#45;&gt;TableComponent </title>
<path fill="none" stroke="black" stroke-dasharray="5,2" d="M1125.73,-140.8C978.26,-140.8 550.47,-140.8 550.47,-140.8 550.47,-140.8 550.47,-168.77 550.47,-168.77"/>
<polygon fill="black" stroke="black" points="546.97,-168.77 550.47,-178.77 553.97,-168.77 546.97,-168.77"/>
</g>
<!-- ToastComponent  -->
<g id="node25" class="node">
<title>ToastComponent </title>
<polygon fill="#fb8072" stroke="black" points="431.93,-214.8 316.07,-214.8 316.07,-178.8 431.93,-178.8 431.93,-214.8"/>
<text text-anchor="middle" x="374" y="-192.6" font-family="Times,serif" font-size="14.00">ToastComponent </text>
</g>
<!-- SharedModule&#45;&gt;ToastComponent  -->
<g id="edge24" class="edge">
<title>SharedModule&#45;&gt;ToastComponent </title>
<path fill="none" stroke="black" stroke-dasharray="5,2" d="M1125.65,-137.8C954.99,-137.8 400.21,-137.8 400.21,-137.8 400.21,-137.8 400.21,-168.78 400.21,-168.78"/>
<polygon fill="black" stroke="black" points="396.71,-168.78 400.21,-178.78 403.71,-168.78 396.71,-168.78"/>
</g>
<!-- TwelveToneSpinnerComponent  -->
<g id="node26" class="node">
<title>TwelveToneSpinnerComponent </title>
<polygon fill="#fb8072" stroke="black" points="297.63,-214.8 98.37,-214.8 98.37,-178.8 297.63,-178.8 297.63,-214.8"/>
<text text-anchor="middle" x="198" y="-192.6" font-family="Times,serif" font-size="14.00">TwelveToneSpinnerComponent </text>
</g>
<!-- SharedModule&#45;&gt;TwelveToneSpinnerComponent  -->
<g id="edge25" class="edge">
<title>SharedModule&#45;&gt;TwelveToneSpinnerComponent </title>
<path fill="none" stroke="black" stroke-dasharray="5,2" d="M1125.57,-134.8C936.23,-134.8 267.67,-134.8 267.67,-134.8 267.67,-134.8 267.67,-168.53 267.67,-168.53"/>
<polygon fill="black" stroke="black" points="264.17,-168.53 267.67,-178.53 271.17,-168.53 264.17,-168.53"/>
</g>
<!-- CompileHtmlModule -->
<g id="node13" class="node">
<title>CompileHtmlModule</title>
<polygon fill="#8dd3c7" stroke="black" points="2198.05,-84.8 2195.05,-88.8 2174.05,-88.8 2171.05,-84.8 2061.95,-84.8 2061.95,-48.8 2198.05,-48.8 2198.05,-84.8"/>
<text text-anchor="middle" x="2130" y="-62.6" font-family="Times,serif" font-size="14.00">CompileHtmlModule</text>
</g>
<!-- CompileHtmlModule&#45;&gt;SharedModule -->
<g id="edge12" class="edge">
<title>CompileHtmlModule&#45;&gt;SharedModule</title>
<path fill="none" stroke="black" d="M2089.04,-84.91C2089.04,-104.14 2089.04,-131.8 2089.04,-131.8 2089.04,-131.8 1234.47,-131.8 1234.47,-131.8"/>
<polygon fill="black" stroke="black" points="1234.47,-128.3 1224.47,-131.8 1234.47,-135.3 1234.47,-128.3"/>
</g>
<!-- SharedNgbootstrapModule -->
<g id="node14" class="node">
<title>SharedNgbootstrapModule</title>
<polygon fill="#8dd3c7" stroke="black" points="2043.63,-84.8 2040.63,-88.8 2019.63,-88.8 2016.63,-84.8 1876.37,-84.8 1876.37,-48.8 2043.63,-48.8 2043.63,-84.8"/>
<text text-anchor="middle" x="1960" y="-62.6" font-family="Times,serif" font-size="14.00">SharedNgbootstrapModule</text>
</g>
<!-- SharedNgbootstrapModule&#45;&gt;SharedModule -->
<g id="edge13" class="edge">
<title>SharedNgbootstrapModule&#45;&gt;SharedModule</title>
<path fill="none" stroke="black" d="M1922.11,-85.07C1922.11,-103.36 1922.11,-128.8 1922.11,-128.8 1922.11,-128.8 1234.31,-128.8 1234.31,-128.8"/>
<polygon fill="black" stroke="black" points="1234.31,-125.3 1224.31,-128.8 1234.31,-132.3 1234.31,-125.3"/>
</g>
</g>
</svg>
