<?xml version="1.0" encoding="UTF-8" standalone="no"?>
<!DOCTYPE svg PUBLIC "-//W3C//DTD SVG 1.1//EN"
 "http://www.w3.org/Graphics/SVG/1.1/DTD/svg11.dtd">
<!-- Generated by graphviz version 2.47.0 (20210316.0004)
 -->
<!-- Title: dependencies Pages: 1 -->
<svg width="611pt" height="211pt"
 viewBox="0.00 0.00 611.00 211.00" xmlns="http://www.w3.org/2000/svg" xmlns:xlink="http://www.w3.org/1999/xlink">
<g id="graph0" class="graph" transform="scale(1 1) rotate(0) translate(4 207)">
<title>dependencies</title>
<polygon fill="white" stroke="transparent" points="-4,4 -4,-207 607,-207 607,4 -4,4"/>
<text text-anchor="start" x="280.51" y="-42.4" font-family="sans-serif" font-weight="bold" font-size="14.00">Legend</text>
<polygon fill="#ffffb3" stroke="transparent" points="67.5,-10 67.5,-30 87.5,-30 87.5,-10 67.5,-10"/>
<text text-anchor="start" x="91.13" y="-15.4" font-family="sans-serif" font-size="14.00"> &#160;Declarations</text>
<polygon fill="#8dd3c7" stroke="transparent" points="180.5,-10 180.5,-30 200.5,-30 200.5,-10 180.5,-10"/>
<text text-anchor="start" x="204.23" y="-15.4" font-family="sans-serif" font-size="14.00"> &#160;Module</text>
<polygon fill="#80b1d3" stroke="transparent" points="266.5,-10 266.5,-30 286.5,-30 286.5,-10 266.5,-10"/>
<text text-anchor="start" x="290.28" y="-15.4" font-family="sans-serif" font-size="14.00"> &#160;Bootstrap</text>
<polygon fill="#fdb462" stroke="transparent" points="363.5,-10 363.5,-30 383.5,-30 383.5,-10 363.5,-10"/>
<text text-anchor="start" x="387.17" y="-15.4" font-family="sans-serif" font-size="14.00"> &#160;Providers</text>
<polygon fill="#fb8072" stroke="transparent" points="459.5,-10 459.5,-30 479.5,-30 479.5,-10 459.5,-10"/>
<text text-anchor="start" x="483.23" y="-15.4" font-family="sans-serif" font-size="14.00"> &#160;Exports</text>
<g id="clust1" class="cluster">
<title>cluster_PageNotFoundViewModule</title>
<polygon fill="none" stroke="black" stroke-dasharray="1,5" points="8,-70 8,-195 595,-195 595,-70 8,-70"/>
</g>
<g id="clust2" class="cluster">
<title>cluster_PageNotFoundViewModule_declarations</title>
<polygon fill="none" stroke="black" points="375,-78 375,-130 587,-130 587,-78 375,-78"/>
</g>
<g id="clust4" class="cluster">
<title>cluster_PageNotFoundViewModule_imports</title>
<polygon fill="none" stroke="black" points="16,-78 16,-130 367,-130 367,-78 16,-78"/>
</g>
<!-- PageNotFoundViewComponent -->
<g id="node1" class="node">
<title>PageNotFoundViewComponent</title>
<polygon fill="#ffffb3" stroke="black" points="578.64,-122 383.36,-122 383.36,-86 578.64,-86 578.64,-122"/>
<text text-anchor="middle" x="481" y="-99.8" font-family="Times,serif" font-size="14.00">PageNotFoundViewComponent</text>
</g>
<!-- PageNotFoundViewModule -->
<g id="node2" class="node">
<title>PageNotFoundViewModule</title>
<polygon fill="#8dd3c7" stroke="black" points="336.86,-187 333.86,-191 312.86,-191 309.86,-187 163.14,-187 163.14,-151 336.86,-151 336.86,-187"/>
<text text-anchor="middle" x="250" y="-164.8" font-family="Times,serif" font-size="14.00">PageNotFoundViewModule</text>
</g>
<!-- PageNotFoundViewComponent&#45;&gt;PageNotFoundViewModule -->
<g id="edge1" class="edge">
<title>PageNotFoundViewComponent&#45;&gt;PageNotFoundViewModule</title>
<path fill="none" stroke="black" d="M481,-122.11C481,-141.34 481,-169 481,-169 481,-169 347,-169 347,-169"/>
<polygon fill="black" stroke="black" points="347,-165.5 337,-169 347,-172.5 347,-165.5"/>
</g>
<!-- PageNotFoundViewRoutingModule -->
<g id="node3" class="node">
<title>PageNotFoundViewRoutingModule</title>
<polygon fill="#8dd3c7" stroke="black" points="359.48,-122 356.48,-126 335.48,-126 332.48,-122 140.52,-122 140.52,-86 359.48,-86 359.48,-122"/>
<text text-anchor="middle" x="250" y="-99.8" font-family="Times,serif" font-size="14.00">PageNotFoundViewRoutingModule</text>
</g>
<!-- PageNotFoundViewRoutingModule&#45;&gt;PageNotFoundViewModule -->
<g id="edge2" class="edge">
<title>PageNotFoundViewRoutingModule&#45;&gt;PageNotFoundViewModule</title>
<path fill="none" stroke="black" d="M250,-122.11C250,-122.11 250,-140.99 250,-140.99"/>
<polygon fill="black" stroke="black" points="246.5,-140.99 250,-150.99 253.5,-140.99 246.5,-140.99"/>
</g>
<!-- SharedModule -->
<g id="node4" class="node">
<title>SharedModule</title>
<polygon fill="#8dd3c7" stroke="black" points="122.42,-122 119.42,-126 98.42,-126 95.42,-122 23.58,-122 23.58,-86 122.42,-86 122.42,-122"/>
<text text-anchor="middle" x="73" y="-99.8" font-family="Times,serif" font-size="14.00">SharedModule</text>
</g>
<!-- SharedModule&#45;&gt;PageNotFoundViewModule -->
<g id="edge3" class="edge">
<title>SharedModule&#45;&gt;PageNotFoundViewModule</title>
<path fill="none" stroke="black" d="M73,-122.11C73,-141.34 73,-169 73,-169 73,-169 153.06,-169 153.06,-169"/>
<polygon fill="black" stroke="black" points="153.06,-172.5 163.06,-169 153.06,-165.5 153.06,-172.5"/>
</g>
</g>
</svg>
