<?xml version="1.0" encoding="UTF-8" standalone="no"?>
<!DOCTYPE svg PUBLIC "-//W3C//DTD SVG 1.1//EN"
 "http://www.w3.org/Graphics/SVG/1.1/DTD/svg11.dtd">
<!-- Generated by graphviz version 5.0.0 (20220707.1540)
 -->
<!-- Title: dependencies Pages: 1 -->
<svg width="611pt" height="174pt"
 viewBox="0.00 0.00 611.00 173.80" xmlns="http://www.w3.org/2000/svg" xmlns:xlink="http://www.w3.org/1999/xlink">
<g id="graph0" class="graph" transform="scale(1 1) rotate(0) translate(4 169.8)">
<title>dependencies</title>
<polygon fill="white" stroke="transparent" points="-4,4 -4,-169.8 607,-169.8 607,4 -4,4"/>
<text text-anchor="middle" x="301.5" y="-8.2" font-family="sans-serif" font-size="14.00">dependencies</text>
<g id="clust1" class="cluster">
<title>cluster_PageNotFoundViewModule</title>
<polygon fill="none" stroke="black" stroke-dasharray="1,5" points="8,-32.8 8,-157.8 595,-157.8 595,-32.8 8,-32.8"/>
</g>
<g id="clust4" class="cluster">
<title>cluster_PageNotFoundViewModule_imports</title>
<polygon fill="none" stroke="black" points="236,-40.8 236,-92.8 587,-92.8 587,-40.8 236,-40.8"/>
</g>
<g id="clust2" class="cluster">
<title>cluster_PageNotFoundViewModule_declarations</title>
<polygon fill="none" stroke="black" points="16,-40.8 16,-92.8 228,-92.8 228,-40.8 16,-40.8"/>
</g>
<!-- PageNotFoundViewComponent -->
<g id="node1" class="node">
<title>PageNotFoundViewComponent</title>
<polygon fill="#ffffb3" stroke="black" points="219.66,-84.8 24.34,-84.8 24.34,-48.8 219.66,-48.8 219.66,-84.8"/>
<text text-anchor="middle" x="122" y="-62.6" font-family="Times,serif" font-size="14.00">PageNotFoundViewComponent</text>
</g>
<!-- PageNotFoundViewModule -->
<g id="node2" class="node">
<title>PageNotFoundViewModule</title>
<polygon fill="#8dd3c7" stroke="black" points="379.88,-149.8 376.88,-153.8 355.88,-153.8 352.88,-149.8 206.12,-149.8 206.12,-113.8 379.88,-113.8 379.88,-149.8"/>
<text text-anchor="middle" x="293" y="-127.6" font-family="Times,serif" font-size="14.00">PageNotFoundViewModule</text>
</g>
<!-- PageNotFoundViewComponent&#45;&gt;PageNotFoundViewModule -->
<g id="edge1" class="edge">
<title>PageNotFoundViewComponent&#45;&gt;PageNotFoundViewModule</title>
<path fill="none" stroke="black" d="M212.94,-84.91C212.94,-84.91 212.94,-103.79 212.94,-103.79"/>
<polygon fill="black" stroke="black" points="209.44,-103.79 212.94,-113.79 216.44,-103.79 209.44,-103.79"/>
</g>
<!-- PageNotFoundViewRoutingModule -->
<g id="node3" class="node">
<title>PageNotFoundViewRoutingModule</title>
<polygon fill="#8dd3c7" stroke="black" points="579.49,-84.8 576.49,-88.8 555.49,-88.8 552.49,-84.8 360.51,-84.8 360.51,-48.8 579.49,-48.8 579.49,-84.8"/>
<text text-anchor="middle" x="470" y="-62.6" font-family="Times,serif" font-size="14.00">PageNotFoundViewRoutingModule</text>
</g>
<!-- PageNotFoundViewRoutingModule&#45;&gt;PageNotFoundViewModule -->
<g id="edge2" class="edge">
<title>PageNotFoundViewRoutingModule&#45;&gt;PageNotFoundViewModule</title>
<path fill="none" stroke="black" d="M370.22,-84.91C370.22,-84.91 370.22,-103.79 370.22,-103.79"/>
<polygon fill="black" stroke="black" points="366.72,-103.79 370.22,-113.79 373.72,-103.79 366.72,-103.79"/>
</g>
<!-- SharedModule -->
<g id="node4" class="node">
<title>SharedModule</title>
<polygon fill="#8dd3c7" stroke="black" points="342.43,-84.8 339.43,-88.8 318.43,-88.8 315.43,-84.8 243.57,-84.8 243.57,-48.8 342.43,-48.8 342.43,-84.8"/>
<text text-anchor="middle" x="293" y="-62.6" font-family="Times,serif" font-size="14.00">SharedModule</text>
</g>
<!-- SharedModule&#45;&gt;PageNotFoundViewModule -->
<g id="edge3" class="edge">
<title>SharedModule&#45;&gt;PageNotFoundViewModule</title>
<path fill="none" stroke="black" d="M293,-84.91C293,-84.91 293,-103.79 293,-103.79"/>
<polygon fill="black" stroke="black" points="289.5,-103.79 293,-113.79 296.5,-103.79 289.5,-103.79"/>
</g>
</g>
</svg>
