<?xml version="1.0" encoding="UTF-8" standalone="no"?>
<!DOCTYPE svg PUBLIC "-//W3C//DTD SVG 1.1//EN"
 "http://www.w3.org/Graphics/SVG/1.1/DTD/svg11.dtd">
<!-- Generated by graphviz version 2.40.1 (20161225.0304)
 -->
<!-- Title: dependencies Pages: 1 -->
<svg width="611pt" height="211pt"
 viewBox="0.00 0.00 611.00 211.00" xmlns="http://www.w3.org/2000/svg" xmlns:xlink="http://www.w3.org/1999/xlink">
<g id="graph0" class="graph" transform="scale(1 1) rotate(0) translate(4 207)">
<title>dependencies</title>
<polygon fill="#ffffff" stroke="transparent" points="-4,4 -4,-207 607,-207 607,4 -4,4"/>
<text text-anchor="start" x="280.5091" y="-42.4" font-family="sans-serif" font-weight="bold" font-size="14.00" fill="#000000">Legend</text>
<polygon fill="#ffffb3" stroke="transparent" points="67.5,-10 67.5,-30 87.5,-30 87.5,-10 67.5,-10"/>
<text text-anchor="start" x="91.129" y="-15.4" font-family="sans-serif" font-size="14.00" fill="#000000"> &#160;Declarations</text>
<polygon fill="#8dd3c7" stroke="transparent" points="180.5,-10 180.5,-30 200.5,-30 200.5,-10 180.5,-10"/>
<text text-anchor="start" x="204.2251" y="-15.4" font-family="sans-serif" font-size="14.00" fill="#000000"> &#160;Module</text>
<polygon fill="#80b1d3" stroke="transparent" points="266.5,-10 266.5,-30 286.5,-30 286.5,-10 266.5,-10"/>
<text text-anchor="start" x="290.2812" y="-15.4" font-family="sans-serif" font-size="14.00" fill="#000000"> &#160;Bootstrap</text>
<polygon fill="#fdb462" stroke="transparent" points="363.5,-10 363.5,-30 383.5,-30 383.5,-10 363.5,-10"/>
<text text-anchor="start" x="387.1732" y="-15.4" font-family="sans-serif" font-size="14.00" fill="#000000"> &#160;Providers</text>
<polygon fill="#fb8072" stroke="transparent" points="459.5,-10 459.5,-30 479.5,-30 479.5,-10 459.5,-10"/>
<text text-anchor="start" x="483.2258" y="-15.4" font-family="sans-serif" font-size="14.00" fill="#000000"> &#160;Exports</text>
<g id="clust1" class="cluster">
<title>cluster_PageNotFoundViewModule</title>
<polygon fill="none" stroke="#000000" stroke-dasharray="1,5" points="8,-70 8,-195 595,-195 595,-70 8,-70"/>
</g>
<g id="clust2" class="cluster">
<title>cluster_PageNotFoundViewModule_declarations</title>
<polygon fill="none" stroke="#000000" points="375,-78 375,-130 587,-130 587,-78 375,-78"/>
</g>
<g id="clust4" class="cluster">
<title>cluster_PageNotFoundViewModule_imports</title>
<polygon fill="none" stroke="#000000" points="16,-78 16,-130 367,-130 367,-78 16,-78"/>
</g>
<!-- PageNotFoundViewComponent -->
<g id="node1" class="node">
<title>PageNotFoundViewComponent</title>
<polygon fill="#ffffb3" stroke="#000000" points="578.6427,-122 383.3573,-122 383.3573,-86 578.6427,-86 578.6427,-122"/>
<text text-anchor="middle" x="481" y="-99.8" font-family="Times,serif" font-size="14.00" fill="#000000">PageNotFoundViewComponent</text>
</g>
<!-- PageNotFoundViewModule -->
<g id="node2" class="node">
<title>PageNotFoundViewModule</title>
<polygon fill="#8dd3c7" stroke="#000000" points="336.8599,-187 333.8599,-191 312.8599,-191 309.8599,-187 163.1401,-187 163.1401,-151 336.8599,-151 336.8599,-187"/>
<text text-anchor="middle" x="250" y="-164.8" font-family="Times,serif" font-size="14.00" fill="#000000">PageNotFoundViewModule</text>
</g>
<!-- PageNotFoundViewComponent&#45;&gt;PageNotFoundViewModule -->
<g id="edge1" class="edge">
<title>PageNotFoundViewComponent&#45;&gt;PageNotFoundViewModule</title>
<path fill="none" stroke="#000000" d="M481,-122.1061C481,-141.3391 481,-169 481,-169 481,-169 347.002,-169 347.002,-169"/>
<polygon fill="#000000" stroke="#000000" points="347.0021,-165.5001 337.002,-169 347.002,-172.5001 347.0021,-165.5001"/>
</g>
<!-- PageNotFoundViewRoutingModule -->
<g id="node3" class="node">
<title>PageNotFoundViewRoutingModule</title>
<polygon fill="#8dd3c7" stroke="#000000" points="359.4776,-122 356.4776,-126 335.4776,-126 332.4776,-122 140.5224,-122 140.5224,-86 359.4776,-86 359.4776,-122"/>
<text text-anchor="middle" x="250" y="-99.8" font-family="Times,serif" font-size="14.00" fill="#000000">PageNotFoundViewRoutingModule</text>
</g>
<!-- PageNotFoundViewRoutingModule&#45;&gt;PageNotFoundViewModule -->
<g id="edge2" class="edge">
<title>PageNotFoundViewRoutingModule&#45;&gt;PageNotFoundViewModule</title>
<path fill="none" stroke="#000000" d="M250,-122.1061C250,-122.1061 250,-140.991 250,-140.991"/>
<polygon fill="#000000" stroke="#000000" points="246.5001,-140.9909 250,-150.991 253.5001,-140.991 246.5001,-140.9909"/>
</g>
<!-- SharedModule -->
<g id="node4" class="node">
<title>SharedModule</title>
<polygon fill="#8dd3c7" stroke="#000000" points="122.4231,-122 119.4231,-126 98.4231,-126 95.4231,-122 23.5769,-122 23.5769,-86 122.4231,-86 122.4231,-122"/>
<text text-anchor="middle" x="73" y="-99.8" font-family="Times,serif" font-size="14.00" fill="#000000">SharedModule</text>
</g>
<!-- SharedModule&#45;&gt;PageNotFoundViewModule -->
<g id="edge3" class="edge">
<title>SharedModule&#45;&gt;PageNotFoundViewModule</title>
<path fill="none" stroke="#000000" d="M73,-122.1061C73,-141.3391 73,-169 73,-169 73,-169 153.0556,-169 153.0556,-169"/>
<polygon fill="#000000" stroke="#000000" points="153.0556,-172.5001 163.0556,-169 153.0556,-165.5001 153.0556,-172.5001"/>
</g>
</g>
</svg>
