<?xml version="1.0" encoding="UTF-8" standalone="no"?>
<!DOCTYPE svg PUBLIC "-//W3C//DTD SVG 1.1//EN"
 "http://www.w3.org/Graphics/SVG/1.1/DTD/svg11.dtd">
<!-- Generated by graphviz version 5.0.0 (20220707.1540)
 -->
<!-- Title: dependencies Pages: 1 -->
<svg width="611pt" height="174pt"
 viewBox="0.00 0.00 611.00 173.80" xmlns="http://www.w3.org/2000/svg" xmlns:xlink="http://www.w3.org/1999/xlink">
<g id="graph0" class="graph" transform="scale(1 1) rotate(0) translate(4 169.8)">
<title>dependencies</title>
<polygon fill="white" stroke="transparent" points="-4,4 -4,-169.8 607,-169.8 607,4 -4,4"/>
<text text-anchor="middle" x="301.5" y="-8.2" font-family="sans-serif" font-size="14.00">dependencies</text>
<g id="clust1" class="cluster">
<title>cluster_PageNotFoundViewModule</title>
<polygon fill="none" stroke="black" stroke-dasharray="1,5" points="8,-32.8 8,-157.8 595,-157.8 595,-32.8 8,-32.8"/>
</g>
<g id="clust2" class="cluster">
<title>cluster_PageNotFoundViewModule_declarations</title>
<polygon fill="none" stroke="black" points="375,-40.8 375,-92.8 587,-92.8 587,-40.8 375,-40.8"/>
</g>
<g id="clust4" class="cluster">
<title>cluster_PageNotFoundViewModule_imports</title>
<polygon fill="none" stroke="black" points="16,-40.8 16,-92.8 367,-92.8 367,-40.8 16,-40.8"/>
</g>
<!-- PageNotFoundViewComponent -->
<g id="node1" class="node">
<title>PageNotFoundViewComponent</title>
<polygon fill="#ffffb3" stroke="black" points="578.66,-84.8 383.34,-84.8 383.34,-48.8 578.66,-48.8 578.66,-84.8"/>
<text text-anchor="middle" x="481" y="-62.6" font-family="Times,serif" font-size="14.00">PageNotFoundViewComponent</text>
</g>
<!-- PageNotFoundViewModule -->
<g id="node2" class="node">
<title>PageNotFoundViewModule</title>
<polygon fill="#8dd3c7" stroke="black" points="336.88,-149.8 333.88,-153.8 312.88,-153.8 309.88,-149.8 163.12,-149.8 163.12,-113.8 336.88,-113.8 336.88,-149.8"/>
<text text-anchor="middle" x="250" y="-127.6" font-family="Times,serif" font-size="14.00">PageNotFoundViewModule</text>
</g>
<!-- PageNotFoundViewComponent&#45;&gt;PageNotFoundViewModule -->
<g id="edge1" class="edge">
<title>PageNotFoundViewComponent&#45;&gt;PageNotFoundViewModule</title>
<path fill="none" stroke="black" d="M481,-84.91C481,-104.14 481,-131.8 481,-131.8 481,-131.8 347,-131.8 347,-131.8"/>
<polygon fill="black" stroke="black" points="347,-128.3 337,-131.8 347,-135.3 347,-128.3"/>
</g>
<!-- PageNotFoundViewRoutingModule -->
<g id="node3" class="node">
<title>PageNotFoundViewRoutingModule</title>
<polygon fill="#8dd3c7" stroke="black" points="359.49,-84.8 356.49,-88.8 335.49,-88.8 332.49,-84.8 140.51,-84.8 140.51,-48.8 359.49,-48.8 359.49,-84.8"/>
<text text-anchor="middle" x="250" y="-62.6" font-family="Times,serif" font-size="14.00">PageNotFoundViewRoutingModule</text>
</g>
<!-- PageNotFoundViewRoutingModule&#45;&gt;PageNotFoundViewModule -->
<g id="edge2" class="edge">
<title>PageNotFoundViewRoutingModule&#45;&gt;PageNotFoundViewModule</title>
<path fill="none" stroke="black" d="M250,-84.91C250,-84.91 250,-103.79 250,-103.79"/>
<polygon fill="black" stroke="black" points="246.5,-103.79 250,-113.79 253.5,-103.79 246.5,-103.79"/>
</g>
<!-- SharedModule -->
<g id="node4" class="node">
<title>SharedModule</title>
<polygon fill="#8dd3c7" stroke="black" points="122.43,-84.8 119.43,-88.8 98.43,-88.8 95.43,-84.8 23.57,-84.8 23.57,-48.8 122.43,-48.8 122.43,-84.8"/>
<text text-anchor="middle" x="73" y="-62.6" font-family="Times,serif" font-size="14.00">SharedModule</text>
</g>
<!-- SharedModule&#45;&gt;PageNotFoundViewModule -->
<g id="edge3" class="edge">
<title>SharedModule&#45;&gt;PageNotFoundViewModule</title>
<path fill="none" stroke="black" d="M73,-84.91C73,-104.14 73,-131.8 73,-131.8 73,-131.8 153.06,-131.8 153.06,-131.8"/>
<polygon fill="black" stroke="black" points="153.06,-135.3 163.06,-131.8 153.06,-128.3 153.06,-135.3"/>
</g>
</g>
</svg>
