<?xml version="1.0" encoding="UTF-8" standalone="no"?>
<!DOCTYPE svg PUBLIC "-//W3C//DTD SVG 1.1//EN"
 "http://www.w3.org/Graphics/SVG/1.1/DTD/svg11.dtd">
<!-- Generated by graphviz version 2.47.0 (20210316.0004)
 -->
<!-- Title: dependencies Pages: 1 -->
<svg width="1170pt" height="211pt"
 viewBox="0.00 0.00 1170.00 211.00" xmlns="http://www.w3.org/2000/svg" xmlns:xlink="http://www.w3.org/1999/xlink">
<g id="graph0" class="graph" transform="scale(1 1) rotate(0) translate(4 207)">
<title>dependencies</title>
<polygon fill="white" stroke="transparent" points="-4,4 -4,-207 1166,-207 1166,4 -4,4"/>
<text text-anchor="start" x="560.01" y="-42.4" font-family="sans-serif" font-weight="bold" font-size="14.00">Legend</text>
<polygon fill="#ffffb3" stroke="transparent" points="347,-10 347,-30 367,-30 367,-10 347,-10"/>
<text text-anchor="start" x="370.63" y="-15.4" font-family="sans-serif" font-size="14.00"> &#160;Declarations</text>
<polygon fill="#8dd3c7" stroke="transparent" points="460,-10 460,-30 480,-30 480,-10 460,-10"/>
<text text-anchor="start" x="483.73" y="-15.4" font-family="sans-serif" font-size="14.00"> &#160;Module</text>
<polygon fill="#80b1d3" stroke="transparent" points="546,-10 546,-30 566,-30 566,-10 546,-10"/>
<text text-anchor="start" x="569.78" y="-15.4" font-family="sans-serif" font-size="14.00"> &#160;Bootstrap</text>
<polygon fill="#fdb462" stroke="transparent" points="643,-10 643,-30 663,-30 663,-10 643,-10"/>
<text text-anchor="start" x="666.67" y="-15.4" font-family="sans-serif" font-size="14.00"> &#160;Providers</text>
<polygon fill="#fb8072" stroke="transparent" points="739,-10 739,-30 759,-30 759,-10 739,-10"/>
<text text-anchor="start" x="762.73" y="-15.4" font-family="sans-serif" font-size="14.00"> &#160;Exports</text>
<g id="clust1" class="cluster">
<title>cluster_SideInfoModule</title>
<polygon fill="none" stroke="black" stroke-dasharray="1,5" points="8,-70 8,-195 1154,-195 1154,-70 8,-70"/>
</g>
<g id="clust2" class="cluster">
<title>cluster_SideInfoModule_declarations</title>
<polygon fill="none" stroke="black" points="309,-78 309,-130 1146,-130 1146,-78 309,-78"/>
</g>
<g id="clust8" class="cluster">
<title>cluster_SideInfoModule_imports</title>
<polygon fill="none" stroke="black" points="16,-78 16,-130 301,-130 301,-78 16,-78"/>
</g>
<!-- ContactInfoComponent -->
<g id="node1" class="node">
<title>ContactInfoComponent</title>
<polygon fill="#ffffb3" stroke="black" points="1138.2,-122 989.8,-122 989.8,-86 1138.2,-86 1138.2,-122"/>
<text text-anchor="middle" x="1064" y="-99.8" font-family="Times,serif" font-size="14.00">ContactInfoComponent</text>
</g>
<!-- SideInfoModule -->
<g id="node6" class="node">
<title>SideInfoModule</title>
<polygon fill="#8dd3c7" stroke="black" points="615.76,-187 612.76,-191 591.76,-191 588.76,-187 508.24,-187 508.24,-151 615.76,-151 615.76,-187"/>
<text text-anchor="middle" x="562" y="-164.8" font-family="Times,serif" font-size="14.00">SideInfoModule</text>
</g>
<!-- ContactInfoComponent&#45;&gt;SideInfoModule -->
<g id="edge1" class="edge">
<title>ContactInfoComponent&#45;&gt;SideInfoModule</title>
<path fill="none" stroke="black" d="M1064,-122.29C1064,-144.21 1064,-178 1064,-178 1064,-178 626.2,-178 626.2,-178"/>
<polygon fill="black" stroke="black" points="626.2,-174.5 616.2,-178 626.2,-181.5 626.2,-174.5"/>
</g>
<!-- EditionInfoComponent -->
<g id="node2" class="node">
<title>EditionInfoComponent</title>
<polygon fill="#ffffb3" stroke="black" points="971.88,-122 826.12,-122 826.12,-86 971.88,-86 971.88,-122"/>
<text text-anchor="middle" x="899" y="-99.8" font-family="Times,serif" font-size="14.00">EditionInfoComponent</text>
</g>
<!-- EditionInfoComponent&#45;&gt;SideInfoModule -->
<g id="edge2" class="edge">
<title>EditionInfoComponent&#45;&gt;SideInfoModule</title>
<path fill="none" stroke="black" d="M899,-122.11C899,-141.34 899,-169 899,-169 899,-169 625.77,-169 625.77,-169"/>
<polygon fill="black" stroke="black" points="625.77,-165.5 615.77,-169 625.77,-172.5 625.77,-165.5"/>
</g>
<!-- ResourceInfoComponent -->
<g id="node3" class="node">
<title>ResourceInfoComponent</title>
<polygon fill="#ffffb3" stroke="black" points="808.24,-122 651.76,-122 651.76,-86 808.24,-86 808.24,-122"/>
<text text-anchor="middle" x="730" y="-99.8" font-family="Times,serif" font-size="14.00">ResourceInfoComponent</text>
</g>
<!-- ResourceInfoComponent&#45;&gt;SideInfoModule -->
<g id="edge3" class="edge">
<title>ResourceInfoComponent&#45;&gt;SideInfoModule</title>
<path fill="none" stroke="black" d="M730,-122.03C730,-138.4 730,-160 730,-160 730,-160 626.08,-160 626.08,-160"/>
<polygon fill="black" stroke="black" points="626.08,-156.5 616.08,-160 626.08,-163.5 626.08,-156.5"/>
</g>
<!-- SearchInfoComponent -->
<g id="node4" class="node">
<title>SearchInfoComponent</title>
<polygon fill="#ffffb3" stroke="black" points="633.24,-122 490.76,-122 490.76,-86 633.24,-86 633.24,-122"/>
<text text-anchor="middle" x="562" y="-99.8" font-family="Times,serif" font-size="14.00">SearchInfoComponent</text>
</g>
<!-- SearchInfoComponent&#45;&gt;SideInfoModule -->
<g id="edge4" class="edge">
<title>SearchInfoComponent&#45;&gt;SideInfoModule</title>
<path fill="none" stroke="black" d="M562,-122.11C562,-122.11 562,-140.99 562,-140.99"/>
<polygon fill="black" stroke="black" points="558.5,-140.99 562,-150.99 565.5,-140.99 558.5,-140.99"/>
</g>
<!-- StructureInfoComponent -->
<g id="node5" class="node">
<title>StructureInfoComponent</title>
<polygon fill="#ffffb3" stroke="black" points="472.97,-122 317.03,-122 317.03,-86 472.97,-86 472.97,-122"/>
<text text-anchor="middle" x="395" y="-99.8" font-family="Times,serif" font-size="14.00">StructureInfoComponent</text>
</g>
<!-- StructureInfoComponent&#45;&gt;SideInfoModule -->
<g id="edge5" class="edge">
<title>StructureInfoComponent&#45;&gt;SideInfoModule</title>
<path fill="none" stroke="black" d="M395,-122.03C395,-138.4 395,-160 395,-160 395,-160 498.24,-160 498.24,-160"/>
<polygon fill="black" stroke="black" points="498.24,-163.5 508.24,-160 498.24,-156.5 498.24,-163.5"/>
</g>
<!-- SharedModule -->
<g id="node7" class="node">
<title>SharedModule</title>
<polygon fill="#8dd3c7" stroke="black" points="293.42,-122 290.42,-126 269.42,-126 266.42,-122 194.58,-122 194.58,-86 293.42,-86 293.42,-122"/>
<text text-anchor="middle" x="244" y="-99.8" font-family="Times,serif" font-size="14.00">SharedModule</text>
</g>
<!-- SharedModule&#45;&gt;SideInfoModule -->
<g id="edge6" class="edge">
<title>SharedModule&#45;&gt;SideInfoModule</title>
<path fill="none" stroke="black" d="M244,-122.11C244,-141.34 244,-169 244,-169 244,-169 498.06,-169 498.06,-169"/>
<polygon fill="black" stroke="black" points="498.06,-172.5 508.06,-169 498.06,-165.5 498.06,-172.5"/>
</g>
<!-- SideInfoRoutingModule -->
<g id="node8" class="node">
<title>SideInfoRoutingModule</title>
<polygon fill="#8dd3c7" stroke="black" points="176.38,-122 173.38,-126 152.38,-126 149.38,-122 23.62,-122 23.62,-86 176.38,-86 176.38,-122"/>
<text text-anchor="middle" x="100" y="-99.8" font-family="Times,serif" font-size="14.00">SideInfoRoutingModule</text>
</g>
<!-- SideInfoRoutingModule&#45;&gt;SideInfoModule -->
<g id="edge7" class="edge">
<title>SideInfoRoutingModule&#45;&gt;SideInfoModule</title>
<path fill="none" stroke="black" d="M100,-122.29C100,-144.21 100,-178 100,-178 100,-178 498.1,-178 498.1,-178"/>
<polygon fill="black" stroke="black" points="498.1,-181.5 508.1,-178 498.1,-174.5 498.1,-181.5"/>
</g>
</g>
</svg>
