<?xml version="1.0" encoding="UTF-8" standalone="no"?>
<!DOCTYPE svg PUBLIC "-//W3C//DTD SVG 1.1//EN"
 "http://www.w3.org/Graphics/SVG/1.1/DTD/svg11.dtd">
<!-- Generated by graphviz version 2.40.1 (20161225.0304)
 -->
<!-- Title: dependencies Pages: 1 -->
<svg width="1170pt" height="211pt"
 viewBox="0.00 0.00 1170.00 211.00" xmlns="http://www.w3.org/2000/svg" xmlns:xlink="http://www.w3.org/1999/xlink">
<g id="graph0" class="graph" transform="scale(1 1) rotate(0) translate(4 207)">
<title>dependencies</title>
<polygon fill="#ffffff" stroke="transparent" points="-4,4 -4,-207 1166,-207 1166,4 -4,4"/>
<text text-anchor="start" x="560.0091" y="-42.4" font-family="sans-serif" font-weight="bold" font-size="14.00" fill="#000000">Legend</text>
<polygon fill="#ffffb3" stroke="transparent" points="347,-10 347,-30 367,-30 367,-10 347,-10"/>
<text text-anchor="start" x="370.629" y="-15.4" font-family="sans-serif" font-size="14.00" fill="#000000"> &#160;Declarations</text>
<polygon fill="#8dd3c7" stroke="transparent" points="460,-10 460,-30 480,-30 480,-10 460,-10"/>
<text text-anchor="start" x="483.7251" y="-15.4" font-family="sans-serif" font-size="14.00" fill="#000000"> &#160;Module</text>
<polygon fill="#80b1d3" stroke="transparent" points="546,-10 546,-30 566,-30 566,-10 546,-10"/>
<text text-anchor="start" x="569.7812" y="-15.4" font-family="sans-serif" font-size="14.00" fill="#000000"> &#160;Bootstrap</text>
<polygon fill="#fdb462" stroke="transparent" points="643,-10 643,-30 663,-30 663,-10 643,-10"/>
<text text-anchor="start" x="666.6732" y="-15.4" font-family="sans-serif" font-size="14.00" fill="#000000"> &#160;Providers</text>
<polygon fill="#fb8072" stroke="transparent" points="739,-10 739,-30 759,-30 759,-10 739,-10"/>
<text text-anchor="start" x="762.7258" y="-15.4" font-family="sans-serif" font-size="14.00" fill="#000000"> &#160;Exports</text>
<g id="clust1" class="cluster">
<title>cluster_SideInfoModule</title>
<polygon fill="none" stroke="#000000" stroke-dasharray="1,5" points="8,-70 8,-195 1154,-195 1154,-70 8,-70"/>
</g>
<g id="clust2" class="cluster">
<title>cluster_SideInfoModule_declarations</title>
<polygon fill="none" stroke="#000000" points="309,-78 309,-130 1146,-130 1146,-78 309,-78"/>
</g>
<g id="clust8" class="cluster">
<title>cluster_SideInfoModule_imports</title>
<polygon fill="none" stroke="#000000" points="16,-78 16,-130 301,-130 301,-78 16,-78"/>
</g>
<!-- ContactInfoComponent -->
<g id="node1" class="node">
<title>ContactInfoComponent</title>
<polygon fill="#ffffb3" stroke="#000000" points="1138.2007,-122 989.7993,-122 989.7993,-86 1138.2007,-86 1138.2007,-122"/>
<text text-anchor="middle" x="1064" y="-99.8" font-family="Times,serif" font-size="14.00" fill="#000000">ContactInfoComponent</text>
</g>
<!-- SideInfoModule -->
<g id="node6" class="node">
<title>SideInfoModule</title>
<polygon fill="#8dd3c7" stroke="#000000" points="615.7591,-187 612.7591,-191 591.7591,-191 588.7591,-187 508.2409,-187 508.2409,-151 615.7591,-151 615.7591,-187"/>
<text text-anchor="middle" x="562" y="-164.8" font-family="Times,serif" font-size="14.00" fill="#000000">SideInfoModule</text>
</g>
<!-- ContactInfoComponent&#45;&gt;SideInfoModule -->
<g id="edge1" class="edge">
<title>ContactInfoComponent&#45;&gt;SideInfoModule</title>
<path fill="none" stroke="#000000" d="M1064,-122.2921C1064,-144.2057 1064,-178 1064,-178 1064,-178 626.1998,-178 626.1998,-178"/>
<polygon fill="#000000" stroke="#000000" points="626.1998,-174.5001 616.1998,-178 626.1997,-181.5001 626.1998,-174.5001"/>
</g>
<!-- EditionInfoComponent -->
<g id="node2" class="node">
<title>EditionInfoComponent</title>
<polygon fill="#ffffb3" stroke="#000000" points="971.8781,-122 826.1219,-122 826.1219,-86 971.8781,-86 971.8781,-122"/>
<text text-anchor="middle" x="899" y="-99.8" font-family="Times,serif" font-size="14.00" fill="#000000">EditionInfoComponent</text>
</g>
<!-- EditionInfoComponent&#45;&gt;SideInfoModule -->
<g id="edge2" class="edge">
<title>EditionInfoComponent&#45;&gt;SideInfoModule</title>
<path fill="none" stroke="#000000" d="M899,-122.1061C899,-141.3391 899,-169 899,-169 899,-169 625.7713,-169 625.7713,-169"/>
<polygon fill="#000000" stroke="#000000" points="625.7713,-165.5001 615.7713,-169 625.7713,-172.5001 625.7713,-165.5001"/>
</g>
<!-- ResourceInfoComponent -->
<g id="node3" class="node">
<title>ResourceInfoComponent</title>
<polygon fill="#ffffb3" stroke="#000000" points="808.2394,-122 651.7606,-122 651.7606,-86 808.2394,-86 808.2394,-122"/>
<text text-anchor="middle" x="730" y="-99.8" font-family="Times,serif" font-size="14.00" fill="#000000">ResourceInfoComponent</text>
</g>
<!-- ResourceInfoComponent&#45;&gt;SideInfoModule -->
<g id="edge3" class="edge">
<title>ResourceInfoComponent&#45;&gt;SideInfoModule</title>
<path fill="none" stroke="#000000" d="M730,-122.027C730,-138.3976 730,-160 730,-160 730,-160 626.081,-160 626.081,-160"/>
<polygon fill="#000000" stroke="#000000" points="626.081,-156.5001 616.081,-160 626.081,-163.5001 626.081,-156.5001"/>
</g>
<!-- SearchInfoComponent -->
<g id="node4" class="node">
<title>SearchInfoComponent</title>
<polygon fill="#ffffb3" stroke="#000000" points="633.2408,-122 490.7592,-122 490.7592,-86 633.2408,-86 633.2408,-122"/>
<text text-anchor="middle" x="562" y="-99.8" font-family="Times,serif" font-size="14.00" fill="#000000">SearchInfoComponent</text>
</g>
<!-- SearchInfoComponent&#45;&gt;SideInfoModule -->
<g id="edge4" class="edge">
<title>SearchInfoComponent&#45;&gt;SideInfoModule</title>
<path fill="none" stroke="#000000" d="M562,-122.1061C562,-122.1061 562,-140.991 562,-140.991"/>
<polygon fill="#000000" stroke="#000000" points="558.5001,-140.9909 562,-150.991 565.5001,-140.991 558.5001,-140.9909"/>
</g>
<!-- StructureInfoComponent -->
<g id="node5" class="node">
<title>StructureInfoComponent</title>
<polygon fill="#ffffb3" stroke="#000000" points="472.9678,-122 317.0322,-122 317.0322,-86 472.9678,-86 472.9678,-122"/>
<text text-anchor="middle" x="395" y="-99.8" font-family="Times,serif" font-size="14.00" fill="#000000">StructureInfoComponent</text>
</g>
<!-- StructureInfoComponent&#45;&gt;SideInfoModule -->
<g id="edge5" class="edge">
<title>StructureInfoComponent&#45;&gt;SideInfoModule</title>
<path fill="none" stroke="#000000" d="M395,-122.027C395,-138.3976 395,-160 395,-160 395,-160 498.2409,-160 498.2409,-160"/>
<polygon fill="#000000" stroke="#000000" points="498.2409,-163.5001 508.2409,-160 498.2409,-156.5001 498.2409,-163.5001"/>
</g>
<!-- SharedModule -->
<g id="node7" class="node">
<title>SharedModule</title>
<polygon fill="#8dd3c7" stroke="#000000" points="293.4231,-122 290.4231,-126 269.4231,-126 266.4231,-122 194.5769,-122 194.5769,-86 293.4231,-86 293.4231,-122"/>
<text text-anchor="middle" x="244" y="-99.8" font-family="Times,serif" font-size="14.00" fill="#000000">SharedModule</text>
</g>
<!-- SharedModule&#45;&gt;SideInfoModule -->
<g id="edge6" class="edge">
<title>SharedModule&#45;&gt;SideInfoModule</title>
<path fill="none" stroke="#000000" d="M244,-122.1061C244,-141.3391 244,-169 244,-169 244,-169 498.0556,-169 498.0556,-169"/>
<polygon fill="#000000" stroke="#000000" points="498.0557,-172.5001 508.0556,-169 498.0556,-165.5001 498.0557,-172.5001"/>
</g>
<!-- SideInfoRoutingModule -->
<g id="node8" class="node">
<title>SideInfoRoutingModule</title>
<polygon fill="#8dd3c7" stroke="#000000" points="176.3766,-122 173.3766,-126 152.3766,-126 149.3766,-122 23.6234,-122 23.6234,-86 176.3766,-86 176.3766,-122"/>
<text text-anchor="middle" x="100" y="-99.8" font-family="Times,serif" font-size="14.00" fill="#000000">SideInfoRoutingModule</text>
</g>
<!-- SideInfoRoutingModule&#45;&gt;SideInfoModule -->
<g id="edge7" class="edge">
<title>SideInfoRoutingModule&#45;&gt;SideInfoModule</title>
<path fill="none" stroke="#000000" d="M100,-122.2921C100,-144.2057 100,-178 100,-178 100,-178 498.0985,-178 498.0985,-178"/>
<polygon fill="#000000" stroke="#000000" points="498.0986,-181.5001 508.0985,-178 498.0985,-174.5001 498.0986,-181.5001"/>
</g>
</g>
</svg>
