<?xml version="1.0" encoding="UTF-8" standalone="no"?>
<!DOCTYPE svg PUBLIC "-//W3C//DTD SVG 1.1//EN"
 "http://www.w3.org/Graphics/SVG/1.1/DTD/svg11.dtd">
<!-- Generated by graphviz version 5.0.0 (20220707.1540)
 -->
<!-- Title: dependencies Pages: 1 -->
<svg width="1170pt" height="174pt"
 viewBox="0.00 0.00 1170.00 173.80" xmlns="http://www.w3.org/2000/svg" xmlns:xlink="http://www.w3.org/1999/xlink">
<g id="graph0" class="graph" transform="scale(1 1) rotate(0) translate(4 169.8)">
<title>dependencies</title>
<polygon fill="white" stroke="transparent" points="-4,4 -4,-169.8 1166,-169.8 1166,4 -4,4"/>
<text text-anchor="middle" x="581" y="-8.2" font-family="sans-serif" font-size="14.00">dependencies</text>
<g id="clust1" class="cluster">
<title>cluster_SideInfoModule</title>
<polygon fill="none" stroke="black" stroke-dasharray="1,5" points="8,-32.8 8,-157.8 1154,-157.8 1154,-32.8 8,-32.8"/>
</g>
<g id="clust8" class="cluster">
<title>cluster_SideInfoModule_imports</title>
<polygon fill="none" stroke="black" points="861,-40.8 861,-92.8 1146,-92.8 1146,-40.8 861,-40.8"/>
</g>
<g id="clust2" class="cluster">
<title>cluster_SideInfoModule_declarations</title>
<polygon fill="none" stroke="black" points="16,-40.8 16,-92.8 853,-92.8 853,-40.8 16,-40.8"/>
</g>
<!-- ContactInfoComponent -->
<g id="node1" class="node">
<title>ContactInfoComponent</title>
<polygon fill="#ffffb3" stroke="black" points="845.2,-84.8 696.8,-84.8 696.8,-48.8 845.2,-48.8 845.2,-84.8"/>
<text text-anchor="middle" x="771" y="-62.6" font-family="Times,serif" font-size="14.00">ContactInfoComponent</text>
</g>
<!-- SideInfoModule -->
<g id="node6" class="node">
<title>SideInfoModule</title>
<polygon fill="#8dd3c7" stroke="black" points="659.77,-149.8 656.77,-153.8 635.77,-153.8 632.77,-149.8 552.23,-149.8 552.23,-113.8 659.77,-113.8 659.77,-149.8"/>
<text text-anchor="middle" x="606" y="-127.6" font-family="Times,serif" font-size="14.00">SideInfoModule</text>
</g>
<!-- ContactInfoComponent&#45;&gt;SideInfoModule -->
<g id="edge1" class="edge">
<title>ContactInfoComponent&#45;&gt;SideInfoModule</title>
<path fill="none" stroke="black" d="M771,-84.83C771,-101.2 771,-122.8 771,-122.8 771,-122.8 670.03,-122.8 670.03,-122.8"/>
<polygon fill="black" stroke="black" points="670.03,-119.3 660.03,-122.8 670.03,-126.3 670.03,-119.3"/>
</g>
<!-- EditionInfoComponent -->
<g id="node2" class="node">
<title>EditionInfoComponent</title>
<polygon fill="#ffffb3" stroke="black" points="678.88,-84.8 533.12,-84.8 533.12,-48.8 678.88,-48.8 678.88,-84.8"/>
<text text-anchor="middle" x="606" y="-62.6" font-family="Times,serif" font-size="14.00">EditionInfoComponent</text>
</g>
<!-- EditionInfoComponent&#45;&gt;SideInfoModule -->
<g id="edge2" class="edge">
<title>EditionInfoComponent&#45;&gt;SideInfoModule</title>
<path fill="none" stroke="black" d="M606,-84.91C606,-84.91 606,-103.79 606,-103.79"/>
<polygon fill="black" stroke="black" points="602.5,-103.79 606,-113.79 609.5,-103.79 602.5,-103.79"/>
</g>
<!-- ResourceInfoComponent -->
<g id="node3" class="node">
<title>ResourceInfoComponent</title>
<polygon fill="#ffffb3" stroke="black" points="515.25,-84.8 358.75,-84.8 358.75,-48.8 515.25,-48.8 515.25,-84.8"/>
<text text-anchor="middle" x="437" y="-62.6" font-family="Times,serif" font-size="14.00">ResourceInfoComponent</text>
</g>
<!-- ResourceInfoComponent&#45;&gt;SideInfoModule -->
<g id="edge3" class="edge">
<title>ResourceInfoComponent&#45;&gt;SideInfoModule</title>
<path fill="none" stroke="black" d="M437,-84.83C437,-101.2 437,-122.8 437,-122.8 437,-122.8 542.06,-122.8 542.06,-122.8"/>
<polygon fill="black" stroke="black" points="542.06,-126.3 552.06,-122.8 542.06,-119.3 542.06,-126.3"/>
</g>
<!-- SearchInfoComponent -->
<g id="node4" class="node">
<title>SearchInfoComponent</title>
<polygon fill="#ffffb3" stroke="black" points="340.25,-84.8 197.75,-84.8 197.75,-48.8 340.25,-48.8 340.25,-84.8"/>
<text text-anchor="middle" x="269" y="-62.6" font-family="Times,serif" font-size="14.00">SearchInfoComponent</text>
</g>
<!-- SearchInfoComponent&#45;&gt;SideInfoModule -->
<g id="edge4" class="edge">
<title>SearchInfoComponent&#45;&gt;SideInfoModule</title>
<path fill="none" stroke="black" d="M269,-84.91C269,-104.14 269,-131.8 269,-131.8 269,-131.8 542.23,-131.8 542.23,-131.8"/>
<polygon fill="black" stroke="black" points="542.23,-135.3 552.23,-131.8 542.23,-128.3 542.23,-135.3"/>
</g>
<!-- StructureInfoComponent -->
<g id="node5" class="node">
<title>StructureInfoComponent</title>
<polygon fill="#ffffb3" stroke="black" points="179.97,-84.8 24.03,-84.8 24.03,-48.8 179.97,-48.8 179.97,-84.8"/>
<text text-anchor="middle" x="102" y="-62.6" font-family="Times,serif" font-size="14.00">StructureInfoComponent</text>
</g>
<!-- StructureInfoComponent&#45;&gt;SideInfoModule -->
<g id="edge5" class="edge">
<title>StructureInfoComponent&#45;&gt;SideInfoModule</title>
<path fill="none" stroke="black" d="M102,-85.09C102,-107.01 102,-140.8 102,-140.8 102,-140.8 542.06,-140.8 542.06,-140.8"/>
<polygon fill="black" stroke="black" points="542.06,-144.3 552.06,-140.8 542.06,-137.3 542.06,-144.3"/>
</g>
<!-- SharedModule -->
<g id="node7" class="node">
<title>SharedModule</title>
<polygon fill="#8dd3c7" stroke="black" points="1138.43,-84.8 1135.43,-88.8 1114.43,-88.8 1111.43,-84.8 1039.57,-84.8 1039.57,-48.8 1138.43,-48.8 1138.43,-84.8"/>
<text text-anchor="middle" x="1089" y="-62.6" font-family="Times,serif" font-size="14.00">SharedModule</text>
</g>
<!-- SharedModule&#45;&gt;SideInfoModule -->
<g id="edge6" class="edge">
<title>SharedModule&#45;&gt;SideInfoModule</title>
<path fill="none" stroke="black" d="M1089,-85.09C1089,-107.01 1089,-140.8 1089,-140.8 1089,-140.8 670,-140.8 670,-140.8"/>
<polygon fill="black" stroke="black" points="670,-137.3 660,-140.8 670,-144.3 670,-137.3"/>
</g>
<!-- SideInfoRoutingModule -->
<g id="node8" class="node">
<title>SideInfoRoutingModule</title>
<polygon fill="#8dd3c7" stroke="black" points="1021.38,-84.8 1018.38,-88.8 997.38,-88.8 994.38,-84.8 868.62,-84.8 868.62,-48.8 1021.38,-48.8 1021.38,-84.8"/>
<text text-anchor="middle" x="945" y="-62.6" font-family="Times,serif" font-size="14.00">SideInfoRoutingModule</text>
</g>
<!-- SideInfoRoutingModule&#45;&gt;SideInfoModule -->
<g id="edge7" class="edge">
<title>SideInfoRoutingModule&#45;&gt;SideInfoModule</title>
<path fill="none" stroke="black" d="M945,-84.91C945,-104.14 945,-131.8 945,-131.8 945,-131.8 670.09,-131.8 670.09,-131.8"/>
<polygon fill="black" stroke="black" points="670.09,-128.3 660.09,-131.8 670.09,-135.3 670.09,-128.3"/>
</g>
</g>
</svg>
