<?xml version="1.0" encoding="UTF-8" standalone="no"?>
<!DOCTYPE svg PUBLIC "-//W3C//DTD SVG 1.1//EN"
 "http://www.w3.org/Graphics/SVG/1.1/DTD/svg11.dtd">
<!-- Generated by graphviz version 2.47.3 (20210619.1520)
 -->
<!-- Title: dependencies Pages: 1 -->
<svg width="1170pt" height="174pt"
 viewBox="0.00 0.00 1170.00 173.80" xmlns="http://www.w3.org/2000/svg" xmlns:xlink="http://www.w3.org/1999/xlink">
<g id="graph0" class="graph" transform="scale(1 1) rotate(0) translate(4 169.8)">
<title>dependencies</title>
<polygon fill="white" stroke="transparent" points="-4,4 -4,-169.8 1166,-169.8 1166,4 -4,4"/>
<text text-anchor="middle" x="581" y="-8.2" font-family="sans-serif" font-size="14.00">dependencies</text>
<g id="clust1" class="cluster">
<title>cluster_SideInfoModule</title>
<polygon fill="none" stroke="black" stroke-dasharray="1,5" points="8,-32.8 8,-157.8 1154,-157.8 1154,-32.8 8,-32.8"/>
</g>
<g id="clust2" class="cluster">
<title>cluster_SideInfoModule_declarations</title>
<polygon fill="none" stroke="black" points="309,-40.8 309,-92.8 1146,-92.8 1146,-40.8 309,-40.8"/>
</g>
<g id="clust8" class="cluster">
<title>cluster_SideInfoModule_imports</title>
<polygon fill="none" stroke="black" points="16,-40.8 16,-92.8 301,-92.8 301,-40.8 16,-40.8"/>
</g>
<!-- ContactInfoComponent -->
<g id="node1" class="node">
<title>ContactInfoComponent</title>
<polygon fill="#ffffb3" stroke="black" points="1138.2,-84.8 989.8,-84.8 989.8,-48.8 1138.2,-48.8 1138.2,-84.8"/>
<text text-anchor="middle" x="1064" y="-62.6" font-family="Times,serif" font-size="14.00">ContactInfoComponent</text>
</g>
<!-- SideInfoModule -->
<g id="node6" class="node">
<title>SideInfoModule</title>
<polygon fill="#8dd3c7" stroke="black" points="615.76,-149.8 612.76,-153.8 591.76,-153.8 588.76,-149.8 508.24,-149.8 508.24,-113.8 615.76,-113.8 615.76,-149.8"/>
<text text-anchor="middle" x="562" y="-127.6" font-family="Times,serif" font-size="14.00">SideInfoModule</text>
</g>
<!-- ContactInfoComponent&#45;&gt;SideInfoModule -->
<g id="edge1" class="edge">
<title>ContactInfoComponent&#45;&gt;SideInfoModule</title>
<path fill="none" stroke="black" d="M1064,-85.09C1064,-107.01 1064,-140.8 1064,-140.8 1064,-140.8 626.2,-140.8 626.2,-140.8"/>
<polygon fill="black" stroke="black" points="626.2,-137.3 616.2,-140.8 626.2,-144.3 626.2,-137.3"/>
</g>
<!-- EditionInfoComponent -->
<g id="node2" class="node">
<title>EditionInfoComponent</title>
<polygon fill="#ffffb3" stroke="black" points="971.88,-84.8 826.12,-84.8 826.12,-48.8 971.88,-48.8 971.88,-84.8"/>
<text text-anchor="middle" x="899" y="-62.6" font-family="Times,serif" font-size="14.00">EditionInfoComponent</text>
</g>
<!-- EditionInfoComponent&#45;&gt;SideInfoModule -->
<g id="edge2" class="edge">
<title>EditionInfoComponent&#45;&gt;SideInfoModule</title>
<path fill="none" stroke="black" d="M899,-84.91C899,-104.14 899,-131.8 899,-131.8 899,-131.8 625.77,-131.8 625.77,-131.8"/>
<polygon fill="black" stroke="black" points="625.77,-128.3 615.77,-131.8 625.77,-135.3 625.77,-128.3"/>
</g>
<!-- ResourceInfoComponent -->
<g id="node3" class="node">
<title>ResourceInfoComponent</title>
<polygon fill="#ffffb3" stroke="black" points="808.24,-84.8 651.76,-84.8 651.76,-48.8 808.24,-48.8 808.24,-84.8"/>
<text text-anchor="middle" x="730" y="-62.6" font-family="Times,serif" font-size="14.00">ResourceInfoComponent</text>
</g>
<!-- ResourceInfoComponent&#45;&gt;SideInfoModule -->
<g id="edge3" class="edge">
<title>ResourceInfoComponent&#45;&gt;SideInfoModule</title>
<path fill="none" stroke="black" d="M730,-84.83C730,-101.2 730,-122.8 730,-122.8 730,-122.8 626.08,-122.8 626.08,-122.8"/>
<polygon fill="black" stroke="black" points="626.08,-119.3 616.08,-122.8 626.08,-126.3 626.08,-119.3"/>
</g>
<!-- SearchInfoComponent -->
<g id="node4" class="node">
<title>SearchInfoComponent</title>
<polygon fill="#ffffb3" stroke="black" points="633.24,-84.8 490.76,-84.8 490.76,-48.8 633.24,-48.8 633.24,-84.8"/>
<text text-anchor="middle" x="562" y="-62.6" font-family="Times,serif" font-size="14.00">SearchInfoComponent</text>
</g>
<!-- SearchInfoComponent&#45;&gt;SideInfoModule -->
<g id="edge4" class="edge">
<title>SearchInfoComponent&#45;&gt;SideInfoModule</title>
<path fill="none" stroke="black" d="M562,-84.91C562,-84.91 562,-103.79 562,-103.79"/>
<polygon fill="black" stroke="black" points="558.5,-103.79 562,-113.79 565.5,-103.79 558.5,-103.79"/>
</g>
<!-- StructureInfoComponent -->
<g id="node5" class="node">
<title>StructureInfoComponent</title>
<polygon fill="#ffffb3" stroke="black" points="472.97,-84.8 317.03,-84.8 317.03,-48.8 472.97,-48.8 472.97,-84.8"/>
<text text-anchor="middle" x="395" y="-62.6" font-family="Times,serif" font-size="14.00">StructureInfoComponent</text>
</g>
<!-- StructureInfoComponent&#45;&gt;SideInfoModule -->
<g id="edge5" class="edge">
<title>StructureInfoComponent&#45;&gt;SideInfoModule</title>
<path fill="none" stroke="black" d="M395,-84.83C395,-101.2 395,-122.8 395,-122.8 395,-122.8 498.24,-122.8 498.24,-122.8"/>
<polygon fill="black" stroke="black" points="498.24,-126.3 508.24,-122.8 498.24,-119.3 498.24,-126.3"/>
</g>
<!-- SharedModule -->
<g id="node7" class="node">
<title>SharedModule</title>
<polygon fill="#8dd3c7" stroke="black" points="293.42,-84.8 290.42,-88.8 269.42,-88.8 266.42,-84.8 194.58,-84.8 194.58,-48.8 293.42,-48.8 293.42,-84.8"/>
<text text-anchor="middle" x="244" y="-62.6" font-family="Times,serif" font-size="14.00">SharedModule</text>
</g>
<!-- SharedModule&#45;&gt;SideInfoModule -->
<g id="edge6" class="edge">
<title>SharedModule&#45;&gt;SideInfoModule</title>
<path fill="none" stroke="black" d="M244,-84.91C244,-104.14 244,-131.8 244,-131.8 244,-131.8 498.06,-131.8 498.06,-131.8"/>
<polygon fill="black" stroke="black" points="498.06,-135.3 508.06,-131.8 498.06,-128.3 498.06,-135.3"/>
</g>
<!-- SideInfoRoutingModule -->
<g id="node8" class="node">
<title>SideInfoRoutingModule</title>
<polygon fill="#8dd3c7" stroke="black" points="176.38,-84.8 173.38,-88.8 152.38,-88.8 149.38,-84.8 23.62,-84.8 23.62,-48.8 176.38,-48.8 176.38,-84.8"/>
<text text-anchor="middle" x="100" y="-62.6" font-family="Times,serif" font-size="14.00">SideInfoRoutingModule</text>
</g>
<!-- SideInfoRoutingModule&#45;&gt;SideInfoModule -->
<g id="edge7" class="edge">
<title>SideInfoRoutingModule&#45;&gt;SideInfoModule</title>
<path fill="none" stroke="black" d="M100,-85.09C100,-107.01 100,-140.8 100,-140.8 100,-140.8 498.1,-140.8 498.1,-140.8"/>
<polygon fill="black" stroke="black" points="498.1,-144.3 508.1,-140.8 498.1,-137.3 498.1,-144.3"/>
</g>
</g>
</svg>
