<?xml version="1.0" encoding="UTF-8" standalone="no"?>
<!DOCTYPE svg PUBLIC "-//W3C//DTD SVG 1.1//EN"
 "http://www.w3.org/Graphics/SVG/1.1/DTD/svg11.dtd">
<!-- Generated by graphviz version 2.47.0 (20210316.0004)
 -->
<!-- Title: dependencies Pages: 1 -->
<svg width="1170pt" height="211pt"
 viewBox="0.00 0.00 1170.00 211.00" xmlns="http://www.w3.org/2000/svg" xmlns:xlink="http://www.w3.org/1999/xlink">
<g id="graph0" class="graph" transform="scale(1 1) rotate(0) translate(4 207)">
<title>dependencies</title>
<polygon fill="white" stroke="transparent" points="-4,4 -4,-207 1166,-207 1166,4 -4,4"/>
<text text-anchor="start" x="560.01" y="-42.4" font-family="sans-serif" font-weight="bold" font-size="14.00">Legend</text>
<polygon fill="#ffffb3" stroke="transparent" points="347,-10 347,-30 367,-30 367,-10 347,-10"/>
<text text-anchor="start" x="370.63" y="-15.4" font-family="sans-serif" font-size="14.00"> &#160;Declarations</text>
<polygon fill="#8dd3c7" stroke="transparent" points="460,-10 460,-30 480,-30 480,-10 460,-10"/>
<text text-anchor="start" x="483.73" y="-15.4" font-family="sans-serif" font-size="14.00"> &#160;Module</text>
<polygon fill="#80b1d3" stroke="transparent" points="546,-10 546,-30 566,-30 566,-10 546,-10"/>
<text text-anchor="start" x="569.78" y="-15.4" font-family="sans-serif" font-size="14.00"> &#160;Bootstrap</text>
<polygon fill="#fdb462" stroke="transparent" points="643,-10 643,-30 663,-30 663,-10 643,-10"/>
<text text-anchor="start" x="666.67" y="-15.4" font-family="sans-serif" font-size="14.00"> &#160;Providers</text>
<polygon fill="#fb8072" stroke="transparent" points="739,-10 739,-30 759,-30 759,-10 739,-10"/>
<text text-anchor="start" x="762.73" y="-15.4" font-family="sans-serif" font-size="14.00"> &#160;Exports</text>
<g id="clust1" class="cluster">
<title>cluster_SideInfoModule</title>
<polygon fill="none" stroke="black" stroke-dasharray="1,5" points="8,-70 8,-195 1154,-195 1154,-70 8,-70"/>
</g>
<g id="clust8" class="cluster">
<title>cluster_SideInfoModule_imports</title>
<polygon fill="none" stroke="black" points="861,-78 861,-130 1146,-130 1146,-78 861,-78"/>
</g>
<g id="clust2" class="cluster">
<title>cluster_SideInfoModule_declarations</title>
<polygon fill="none" stroke="black" points="16,-78 16,-130 853,-130 853,-78 16,-78"/>
</g>
<!-- ContactInfoComponent -->
<g id="node1" class="node">
<title>ContactInfoComponent</title>
<polygon fill="#ffffb3" stroke="black" points="845.2,-122 696.8,-122 696.8,-86 845.2,-86 845.2,-122"/>
<text text-anchor="middle" x="771" y="-99.8" font-family="Times,serif" font-size="14.00">ContactInfoComponent</text>
</g>
<!-- SideInfoModule -->
<g id="node6" class="node">
<title>SideInfoModule</title>
<polygon fill="#8dd3c7" stroke="black" points="659.76,-187 656.76,-191 635.76,-191 632.76,-187 552.24,-187 552.24,-151 659.76,-151 659.76,-187"/>
<text text-anchor="middle" x="606" y="-164.8" font-family="Times,serif" font-size="14.00">SideInfoModule</text>
</g>
<!-- ContactInfoComponent&#45;&gt;SideInfoModule -->
<g id="edge1" class="edge">
<title>ContactInfoComponent&#45;&gt;SideInfoModule</title>
<path fill="none" stroke="black" d="M771,-122.03C771,-138.4 771,-160 771,-160 771,-160 670.03,-160 670.03,-160"/>
<polygon fill="black" stroke="black" points="670.03,-156.5 660.03,-160 670.03,-163.5 670.03,-156.5"/>
</g>
<!-- EditionInfoComponent -->
<g id="node2" class="node">
<title>EditionInfoComponent</title>
<polygon fill="#ffffb3" stroke="black" points="678.88,-122 533.12,-122 533.12,-86 678.88,-86 678.88,-122"/>
<text text-anchor="middle" x="606" y="-99.8" font-family="Times,serif" font-size="14.00">EditionInfoComponent</text>
</g>
<!-- EditionInfoComponent&#45;&gt;SideInfoModule -->
<g id="edge2" class="edge">
<title>EditionInfoComponent&#45;&gt;SideInfoModule</title>
<path fill="none" stroke="black" d="M606,-122.11C606,-122.11 606,-140.99 606,-140.99"/>
<polygon fill="black" stroke="black" points="602.5,-140.99 606,-150.99 609.5,-140.99 602.5,-140.99"/>
</g>
<!-- ResourceInfoComponent -->
<g id="node3" class="node">
<title>ResourceInfoComponent</title>
<polygon fill="#ffffb3" stroke="black" points="515.24,-122 358.76,-122 358.76,-86 515.24,-86 515.24,-122"/>
<text text-anchor="middle" x="437" y="-99.8" font-family="Times,serif" font-size="14.00">ResourceInfoComponent</text>
</g>
<!-- ResourceInfoComponent&#45;&gt;SideInfoModule -->
<g id="edge3" class="edge">
<title>ResourceInfoComponent&#45;&gt;SideInfoModule</title>
<path fill="none" stroke="black" d="M437,-122.03C437,-138.4 437,-160 437,-160 437,-160 542.06,-160 542.06,-160"/>
<polygon fill="black" stroke="black" points="542.06,-163.5 552.06,-160 542.06,-156.5 542.06,-163.5"/>
</g>
<!-- SearchInfoComponent -->
<g id="node4" class="node">
<title>SearchInfoComponent</title>
<polygon fill="#ffffb3" stroke="black" points="340.24,-122 197.76,-122 197.76,-86 340.24,-86 340.24,-122"/>
<text text-anchor="middle" x="269" y="-99.8" font-family="Times,serif" font-size="14.00">SearchInfoComponent</text>
</g>
<!-- SearchInfoComponent&#45;&gt;SideInfoModule -->
<g id="edge4" class="edge">
<title>SearchInfoComponent&#45;&gt;SideInfoModule</title>
<path fill="none" stroke="black" d="M269,-122.11C269,-141.34 269,-169 269,-169 269,-169 542.23,-169 542.23,-169"/>
<polygon fill="black" stroke="black" points="542.23,-172.5 552.23,-169 542.23,-165.5 542.23,-172.5"/>
</g>
<!-- StructureInfoComponent -->
<g id="node5" class="node">
<title>StructureInfoComponent</title>
<polygon fill="#ffffb3" stroke="black" points="179.97,-122 24.03,-122 24.03,-86 179.97,-86 179.97,-122"/>
<text text-anchor="middle" x="102" y="-99.8" font-family="Times,serif" font-size="14.00">StructureInfoComponent</text>
</g>
<!-- StructureInfoComponent&#45;&gt;SideInfoModule -->
<g id="edge5" class="edge">
<title>StructureInfoComponent&#45;&gt;SideInfoModule</title>
<path fill="none" stroke="black" d="M102,-122.29C102,-144.21 102,-178 102,-178 102,-178 542.06,-178 542.06,-178"/>
<polygon fill="black" stroke="black" points="542.06,-181.5 552.06,-178 542.06,-174.5 542.06,-181.5"/>
</g>
<!-- SharedModule -->
<g id="node7" class="node">
<title>SharedModule</title>
<polygon fill="#8dd3c7" stroke="black" points="1138.42,-122 1135.42,-126 1114.42,-126 1111.42,-122 1039.58,-122 1039.58,-86 1138.42,-86 1138.42,-122"/>
<text text-anchor="middle" x="1089" y="-99.8" font-family="Times,serif" font-size="14.00">SharedModule</text>
</g>
<!-- SharedModule&#45;&gt;SideInfoModule -->
<g id="edge6" class="edge">
<title>SharedModule&#45;&gt;SideInfoModule</title>
<path fill="none" stroke="black" d="M1089,-122.29C1089,-144.21 1089,-178 1089,-178 1089,-178 670,-178 670,-178"/>
<polygon fill="black" stroke="black" points="670,-174.5 660,-178 670,-181.5 670,-174.5"/>
</g>
<!-- SideInfoRoutingModule -->
<g id="node8" class="node">
<title>SideInfoRoutingModule</title>
<polygon fill="#8dd3c7" stroke="black" points="1021.38,-122 1018.38,-126 997.38,-126 994.38,-122 868.62,-122 868.62,-86 1021.38,-86 1021.38,-122"/>
<text text-anchor="middle" x="945" y="-99.8" font-family="Times,serif" font-size="14.00">SideInfoRoutingModule</text>
</g>
<!-- SideInfoRoutingModule&#45;&gt;SideInfoModule -->
<g id="edge7" class="edge">
<title>SideInfoRoutingModule&#45;&gt;SideInfoModule</title>
<path fill="none" stroke="black" d="M945,-122.11C945,-141.34 945,-169 945,-169 945,-169 670.09,-169 670.09,-169"/>
<polygon fill="black" stroke="black" points="670.09,-165.5 660.09,-169 670.09,-172.5 670.09,-165.5"/>
</g>
</g>
</svg>
