<?xml version="1.0" encoding="UTF-8" standalone="no"?>
<!DOCTYPE svg PUBLIC "-//W3C//DTD SVG 1.1//EN"
 "http://www.w3.org/Graphics/SVG/1.1/DTD/svg11.dtd">
<!-- Generated by graphviz version 2.47.0 (20210316.0004)
 -->
<!-- Title: dependencies Pages: 1 -->
<svg width="504pt" height="284pt"
 viewBox="0.00 0.00 504.00 284.00" xmlns="http://www.w3.org/2000/svg" xmlns:xlink="http://www.w3.org/1999/xlink">
<g id="graph0" class="graph" transform="scale(1 1) rotate(0) translate(4 280)">
<title>dependencies</title>
<polygon fill="white" stroke="transparent" points="-4,4 -4,-280 500,-280 500,4 -4,4"/>
<text text-anchor="start" x="227.01" y="-42.4" font-family="Times-12" font-weight="bold" font-size="14.00">Legend</text>
<polygon fill="#ffffb3" stroke="transparent" points="14,-10 14,-30 34,-30 34,-10 14,-10"/>
<text text-anchor="start" x="37.63" y="-15.4" font-family="Times-12" font-size="14.00"> &#160;Declarations</text>
<polygon fill="#8dd3c7" stroke="transparent" points="127,-10 127,-30 147,-30 147,-10 127,-10"/>
<text text-anchor="start" x="150.73" y="-15.4" font-family="Times-12" font-size="14.00"> &#160;Module</text>
<polygon fill="#80b1d3" stroke="transparent" points="213,-10 213,-30 233,-30 233,-10 213,-10"/>
<text text-anchor="start" x="236.78" y="-15.4" font-family="Times-12" font-size="14.00"> &#160;Bootstrap</text>
<polygon fill="#fdb462" stroke="transparent" points="310,-10 310,-30 330,-30 330,-10 310,-10"/>
<text text-anchor="start" x="333.67" y="-15.4" font-family="Times-12" font-size="14.00"> &#160;Providers</text>
<polygon fill="#fb8072" stroke="transparent" points="406,-10 406,-30 426,-30 426,-10 406,-10"/>
<text text-anchor="start" x="429.73" y="-15.4" font-family="Times-12" font-size="14.00"> &#160;Exports</text>
<g id="clust1" class="cluster">
<title>cluster_EditionTkaDescriptionModule</title>
<polygon fill="none" stroke="black" stroke-dasharray="1,5" points="66,-70 66,-268 430,-268 430,-70 66,-70"/>
</g>
<g id="clust2" class="cluster">
<title>cluster_EditionTkaDescriptionModule_declarations</title>
<polygon fill="none" stroke="black" points="196,-78 196,-130 422,-130 422,-78 196,-78"/>
</g>
<g id="clust5" class="cluster">
<title>cluster_EditionTkaDescriptionModule_exports</title>
<polygon fill="none" stroke="black" points="133,-208 133,-260 363,-260 363,-208 133,-208"/>
</g>
<g id="clust4" class="cluster">
<title>cluster_EditionTkaDescriptionModule_imports</title>
<polygon fill="none" stroke="black" points="74,-78 74,-130 188,-130 188,-78 74,-78"/>
</g>
<!-- EditionTkaDescriptionComponent -->
<g id="node1" class="node">
<title>EditionTkaDescriptionComponent</title>
<polygon fill="#ffffb3" stroke="black" points="413.64,-122 204.36,-122 204.36,-86 413.64,-86 413.64,-122"/>
<text text-anchor="middle" x="309" y="-99.8" font-family="Times,serif" font-size="14.00">EditionTkaDescriptionComponent</text>
</g>
<!-- EditionTkaDescriptionModule -->
<g id="node2" class="node">
<title>EditionTkaDescriptionModule</title>
<polygon fill="#8dd3c7" stroke="black" points="341.85,-187 338.85,-191 317.85,-191 314.85,-187 154.15,-187 154.15,-151 341.85,-151 341.85,-187"/>
<text text-anchor="middle" x="248" y="-164.8" font-family="Times,serif" font-size="14.00">EditionTkaDescriptionModule</text>
</g>
<!-- EditionTkaDescriptionComponent&#45;&gt;EditionTkaDescriptionModule -->
<g id="edge1" class="edge">
<title>EditionTkaDescriptionComponent&#45;&gt;EditionTkaDescriptionModule</title>
<path fill="none" stroke="black" d="M273.05,-122.11C273.05,-122.11 273.05,-140.99 273.05,-140.99"/>
<polygon fill="black" stroke="black" points="269.55,-140.99 273.05,-150.99 276.55,-140.99 269.55,-140.99"/>
</g>
<!-- EditionTkaDescriptionComponent  -->
<g id="node4" class="node">
<title>EditionTkaDescriptionComponent </title>
<polygon fill="#fb8072" stroke="black" points="354.64,-252 141.36,-252 141.36,-216 354.64,-216 354.64,-252"/>
<text text-anchor="middle" x="248" y="-229.8" font-family="Times,serif" font-size="14.00">EditionTkaDescriptionComponent </text>
</g>
<!-- EditionTkaDescriptionModule&#45;&gt;EditionTkaDescriptionComponent  -->
<g id="edge3" class="edge">
<title>EditionTkaDescriptionModule&#45;&gt;EditionTkaDescriptionComponent </title>
<path fill="none" stroke="black" stroke-dasharray="5,2" d="M248,-187.11C248,-187.11 248,-205.99 248,-205.99"/>
<polygon fill="black" stroke="black" points="244.5,-205.99 248,-215.99 251.5,-205.99 244.5,-205.99"/>
</g>
<!-- SharedModule -->
<g id="node3" class="node">
<title>SharedModule</title>
<polygon fill="#8dd3c7" stroke="black" points="180.42,-122 177.42,-126 156.42,-126 153.42,-122 81.58,-122 81.58,-86 180.42,-86 180.42,-122"/>
<text text-anchor="middle" x="131" y="-99.8" font-family="Times,serif" font-size="14.00">SharedModule</text>
</g>
<!-- SharedModule&#45;&gt;EditionTkaDescriptionModule -->
<g id="edge2" class="edge">
<title>SharedModule&#45;&gt;EditionTkaDescriptionModule</title>
<path fill="none" stroke="black" d="M167.14,-122.11C167.14,-122.11 167.14,-140.99 167.14,-140.99"/>
<polygon fill="black" stroke="black" points="163.64,-140.99 167.14,-150.99 170.64,-140.99 163.64,-140.99"/>
</g>
</g>
</svg>
