<?xml version="1.0" encoding="UTF-8" standalone="no"?>
<!DOCTYPE svg PUBLIC "-//W3C//DTD SVG 1.1//EN"
 "http://www.w3.org/Graphics/SVG/1.1/DTD/svg11.dtd">
<!-- Generated by graphviz version 2.47.0 (20210316.0004)
 -->
<!-- Title: dependencies Pages: 1 -->
<svg width="1247pt" height="211pt"
 viewBox="0.00 0.00 1247.00 211.00" xmlns="http://www.w3.org/2000/svg" xmlns:xlink="http://www.w3.org/1999/xlink">
<g id="graph0" class="graph" transform="scale(1 1) rotate(0) translate(4 207)">
<title>dependencies</title>
<polygon fill="white" stroke="transparent" points="-4,4 -4,-207 1243,-207 1243,4 -4,4"/>
<text text-anchor="start" x="598.51" y="-42.4" font-family="sans-serif" font-weight="bold" font-size="14.00">Legend</text>
<polygon fill="#ffffb3" stroke="transparent" points="385.5,-10 385.5,-30 405.5,-30 405.5,-10 385.5,-10"/>
<text text-anchor="start" x="409.13" y="-15.4" font-family="sans-serif" font-size="14.00"> &#160;Declarations</text>
<polygon fill="#8dd3c7" stroke="transparent" points="498.5,-10 498.5,-30 518.5,-30 518.5,-10 498.5,-10"/>
<text text-anchor="start" x="522.23" y="-15.4" font-family="sans-serif" font-size="14.00"> &#160;Module</text>
<polygon fill="#80b1d3" stroke="transparent" points="584.5,-10 584.5,-30 604.5,-30 604.5,-10 584.5,-10"/>
<text text-anchor="start" x="608.28" y="-15.4" font-family="sans-serif" font-size="14.00"> &#160;Bootstrap</text>
<polygon fill="#fdb462" stroke="transparent" points="681.5,-10 681.5,-30 701.5,-30 701.5,-10 681.5,-10"/>
<text text-anchor="start" x="705.17" y="-15.4" font-family="sans-serif" font-size="14.00"> &#160;Providers</text>
<polygon fill="#fb8072" stroke="transparent" points="777.5,-10 777.5,-30 797.5,-30 797.5,-10 777.5,-10"/>
<text text-anchor="start" x="801.23" y="-15.4" font-family="sans-serif" font-size="14.00"> &#160;Exports</text>
<g id="clust1" class="cluster">
<title>cluster_EditionViewModule</title>
<polygon fill="none" stroke="black" stroke-dasharray="1,5" points="8,-70 8,-195 1231,-195 1231,-70 8,-70"/>
</g>
<g id="clust2" class="cluster">
<title>cluster_EditionViewModule_declarations</title>
<polygon fill="none" stroke="black" points="332,-78 332,-130 1223,-130 1223,-78 332,-78"/>
</g>
<g id="clust8" class="cluster">
<title>cluster_EditionViewModule_imports</title>
<polygon fill="none" stroke="black" points="16,-78 16,-130 324,-130 324,-78 16,-78"/>
</g>
<!-- EditionOverviewComponent -->
<g id="node1" class="node">
<title>EditionOverviewComponent</title>
<polygon fill="#ffffb3" stroke="black" points="1214.75,-122 1037.25,-122 1037.25,-86 1214.75,-86 1214.75,-122"/>
<text text-anchor="middle" x="1126" y="-99.8" font-family="Times,serif" font-size="14.00">EditionOverviewComponent</text>
</g>
<!-- EditionViewModule -->
<g id="node6" class="node">
<title>EditionViewModule</title>
<polygon fill="#8dd3c7" stroke="black" points="651.59,-187 648.59,-191 627.59,-191 624.59,-187 520.41,-187 520.41,-151 651.59,-151 651.59,-187"/>
<text text-anchor="middle" x="586" y="-164.8" font-family="Times,serif" font-size="14.00">EditionViewModule</text>
</g>
<!-- EditionOverviewComponent&#45;&gt;EditionViewModule -->
<g id="edge1" class="edge">
<title>EditionOverviewComponent&#45;&gt;EditionViewModule</title>
<path fill="none" stroke="black" d="M1126,-122.29C1126,-144.21 1126,-178 1126,-178 1126,-178 661.67,-178 661.67,-178"/>
<polygon fill="black" stroke="black" points="661.67,-174.5 651.67,-178 661.67,-181.5 661.67,-174.5"/>
</g>
<!-- EditionSectionComponent -->
<g id="node2" class="node">
<title>EditionSectionComponent</title>
<polygon fill="#ffffb3" stroke="black" points="1019.05,-122 854.95,-122 854.95,-86 1019.05,-86 1019.05,-122"/>
<text text-anchor="middle" x="937" y="-99.8" font-family="Times,serif" font-size="14.00">EditionSectionComponent</text>
</g>
<!-- EditionSectionComponent&#45;&gt;EditionViewModule -->
<g id="edge2" class="edge">
<title>EditionSectionComponent&#45;&gt;EditionViewModule</title>
<path fill="none" stroke="black" d="M937,-122.11C937,-141.34 937,-169 937,-169 937,-169 661.61,-169 661.61,-169"/>
<polygon fill="black" stroke="black" points="661.61,-165.5 651.61,-169 661.61,-172.5 661.61,-165.5"/>
</g>
<!-- EditionSeriesComponent -->
<g id="node3" class="node">
<title>EditionSeriesComponent</title>
<polygon fill="#ffffb3" stroke="black" points="836.26,-122 679.74,-122 679.74,-86 836.26,-86 836.26,-122"/>
<text text-anchor="middle" x="758" y="-99.8" font-family="Times,serif" font-size="14.00">EditionSeriesComponent</text>
</g>
<!-- EditionSeriesComponent&#45;&gt;EditionViewModule -->
<g id="edge3" class="edge">
<title>EditionSeriesComponent&#45;&gt;EditionViewModule</title>
<path fill="none" stroke="black" d="M758,-122.03C758,-138.4 758,-160 758,-160 758,-160 662.01,-160 662.01,-160"/>
<polygon fill="black" stroke="black" points="662.01,-156.5 652.01,-160 662.01,-163.5 662.01,-156.5"/>
</g>
<!-- EditionTypeComponent -->
<g id="node4" class="node">
<title>EditionTypeComponent</title>
<polygon fill="#ffffb3" stroke="black" points="661.82,-122 510.18,-122 510.18,-86 661.82,-86 661.82,-122"/>
<text text-anchor="middle" x="586" y="-99.8" font-family="Times,serif" font-size="14.00">EditionTypeComponent</text>
</g>
<!-- EditionTypeComponent&#45;&gt;EditionViewModule -->
<g id="edge4" class="edge">
<title>EditionTypeComponent&#45;&gt;EditionViewModule</title>
<path fill="none" stroke="black" d="M586,-122.11C586,-122.11 586,-140.99 586,-140.99"/>
<polygon fill="black" stroke="black" points="582.5,-140.99 586,-150.99 589.5,-140.99 582.5,-140.99"/>
</g>
<!-- EditionViewComponent -->
<g id="node5" class="node">
<title>EditionViewComponent</title>
<polygon fill="#ffffb3" stroke="black" points="492.38,-122 339.62,-122 339.62,-86 492.38,-86 492.38,-122"/>
<text text-anchor="middle" x="416" y="-99.8" font-family="Times,serif" font-size="14.00">EditionViewComponent</text>
</g>
<!-- EditionViewComponent&#45;&gt;EditionViewModule -->
<g id="edge5" class="edge">
<title>EditionViewComponent&#45;&gt;EditionViewModule</title>
<path fill="none" stroke="black" d="M416,-122.03C416,-138.4 416,-160 416,-160 416,-160 510.27,-160 510.27,-160"/>
<polygon fill="black" stroke="black" points="510.27,-163.5 520.27,-160 510.27,-156.5 510.27,-163.5"/>
</g>
<!-- EditionViewRoutingModule -->
<g id="node7" class="node">
<title>EditionViewRoutingModule</title>
<polygon fill="#8dd3c7" stroke="black" points="316.21,-122 313.21,-126 292.21,-126 289.21,-122 139.79,-122 139.79,-86 316.21,-86 316.21,-122"/>
<text text-anchor="middle" x="228" y="-99.8" font-family="Times,serif" font-size="14.00">EditionViewRoutingModule</text>
</g>
<!-- EditionViewRoutingModule&#45;&gt;EditionViewModule -->
<g id="edge6" class="edge">
<title>EditionViewRoutingModule&#45;&gt;EditionViewModule</title>
<path fill="none" stroke="black" d="M228,-122.11C228,-141.34 228,-169 228,-169 228,-169 510.34,-169 510.34,-169"/>
<polygon fill="black" stroke="black" points="510.34,-172.5 520.34,-169 510.34,-165.5 510.34,-172.5"/>
</g>
<!-- SharedModule -->
<g id="node8" class="node">
<title>SharedModule</title>
<polygon fill="#8dd3c7" stroke="black" points="122.42,-122 119.42,-126 98.42,-126 95.42,-122 23.58,-122 23.58,-86 122.42,-86 122.42,-122"/>
<text text-anchor="middle" x="73" y="-99.8" font-family="Times,serif" font-size="14.00">SharedModule</text>
</g>
<!-- SharedModule&#45;&gt;EditionViewModule -->
<g id="edge7" class="edge">
<title>SharedModule&#45;&gt;EditionViewModule</title>
<path fill="none" stroke="black" d="M73,-122.29C73,-144.21 73,-178 73,-178 73,-178 510.25,-178 510.25,-178"/>
<polygon fill="black" stroke="black" points="510.25,-181.5 520.25,-178 510.25,-174.5 510.25,-181.5"/>
</g>
</g>
</svg>
