<?xml version="1.0" encoding="UTF-8" standalone="no"?>
<!DOCTYPE svg PUBLIC "-//W3C//DTD SVG 1.1//EN"
 "http://www.w3.org/Graphics/SVG/1.1/DTD/svg11.dtd">
<!-- Generated by graphviz version 2.47.3 (20210619.1520)
 -->
<!-- Title: dependencies Pages: 1 -->
<svg width="1247pt" height="174pt"
 viewBox="0.00 0.00 1247.00 173.80" xmlns="http://www.w3.org/2000/svg" xmlns:xlink="http://www.w3.org/1999/xlink">
<g id="graph0" class="graph" transform="scale(1 1) rotate(0) translate(4 169.8)">
<title>dependencies</title>
<polygon fill="white" stroke="transparent" points="-4,4 -4,-169.8 1243,-169.8 1243,4 -4,4"/>
<text text-anchor="middle" x="619.5" y="-8.2" font-family="sans-serif" font-size="14.00">dependencies</text>
<g id="clust1" class="cluster">
<title>cluster_EditionViewModule</title>
<polygon fill="none" stroke="black" stroke-dasharray="1,5" points="8,-32.8 8,-157.8 1231,-157.8 1231,-32.8 8,-32.8"/>
</g>
<g id="clust2" class="cluster">
<title>cluster_EditionViewModule_declarations</title>
<polygon fill="none" stroke="black" points="332,-40.8 332,-92.8 1223,-92.8 1223,-40.8 332,-40.8"/>
</g>
<g id="clust8" class="cluster">
<title>cluster_EditionViewModule_imports</title>
<polygon fill="none" stroke="black" points="16,-40.8 16,-92.8 324,-92.8 324,-40.8 16,-40.8"/>
</g>
<!-- EditionOverviewComponent -->
<g id="node1" class="node">
<title>EditionOverviewComponent</title>
<polygon fill="#ffffb3" stroke="black" points="1214.75,-84.8 1037.25,-84.8 1037.25,-48.8 1214.75,-48.8 1214.75,-84.8"/>
<text text-anchor="middle" x="1126" y="-62.6" font-family="Times,serif" font-size="14.00">EditionOverviewComponent</text>
</g>
<!-- EditionViewModule -->
<g id="node6" class="node">
<title>EditionViewModule</title>
<polygon fill="#8dd3c7" stroke="black" points="651.59,-149.8 648.59,-153.8 627.59,-153.8 624.59,-149.8 520.41,-149.8 520.41,-113.8 651.59,-113.8 651.59,-149.8"/>
<text text-anchor="middle" x="586" y="-127.6" font-family="Times,serif" font-size="14.00">EditionViewModule</text>
</g>
<!-- EditionOverviewComponent&#45;&gt;EditionViewModule -->
<g id="edge1" class="edge">
<title>EditionOverviewComponent&#45;&gt;EditionViewModule</title>
<path fill="none" stroke="black" d="M1126,-85.09C1126,-107.01 1126,-140.8 1126,-140.8 1126,-140.8 661.67,-140.8 661.67,-140.8"/>
<polygon fill="black" stroke="black" points="661.67,-137.3 651.67,-140.8 661.67,-144.3 661.67,-137.3"/>
</g>
<!-- EditionSectionComponent -->
<g id="node2" class="node">
<title>EditionSectionComponent</title>
<polygon fill="#ffffb3" stroke="black" points="1019.05,-84.8 854.95,-84.8 854.95,-48.8 1019.05,-48.8 1019.05,-84.8"/>
<text text-anchor="middle" x="937" y="-62.6" font-family="Times,serif" font-size="14.00">EditionSectionComponent</text>
</g>
<!-- EditionSectionComponent&#45;&gt;EditionViewModule -->
<g id="edge2" class="edge">
<title>EditionSectionComponent&#45;&gt;EditionViewModule</title>
<path fill="none" stroke="black" d="M937,-84.91C937,-104.14 937,-131.8 937,-131.8 937,-131.8 661.61,-131.8 661.61,-131.8"/>
<polygon fill="black" stroke="black" points="661.61,-128.3 651.61,-131.8 661.61,-135.3 661.61,-128.3"/>
</g>
<!-- EditionSeriesComponent -->
<g id="node3" class="node">
<title>EditionSeriesComponent</title>
<polygon fill="#ffffb3" stroke="black" points="836.26,-84.8 679.74,-84.8 679.74,-48.8 836.26,-48.8 836.26,-84.8"/>
<text text-anchor="middle" x="758" y="-62.6" font-family="Times,serif" font-size="14.00">EditionSeriesComponent</text>
</g>
<!-- EditionSeriesComponent&#45;&gt;EditionViewModule -->
<g id="edge3" class="edge">
<title>EditionSeriesComponent&#45;&gt;EditionViewModule</title>
<path fill="none" stroke="black" d="M758,-84.83C758,-101.2 758,-122.8 758,-122.8 758,-122.8 662.01,-122.8 662.01,-122.8"/>
<polygon fill="black" stroke="black" points="662.01,-119.3 652.01,-122.8 662.01,-126.3 662.01,-119.3"/>
</g>
<!-- EditionTypeComponent -->
<g id="node4" class="node">
<title>EditionTypeComponent</title>
<polygon fill="#ffffb3" stroke="black" points="661.82,-84.8 510.18,-84.8 510.18,-48.8 661.82,-48.8 661.82,-84.8"/>
<text text-anchor="middle" x="586" y="-62.6" font-family="Times,serif" font-size="14.00">EditionTypeComponent</text>
</g>
<!-- EditionTypeComponent&#45;&gt;EditionViewModule -->
<g id="edge4" class="edge">
<title>EditionTypeComponent&#45;&gt;EditionViewModule</title>
<path fill="none" stroke="black" d="M586,-84.91C586,-84.91 586,-103.79 586,-103.79"/>
<polygon fill="black" stroke="black" points="582.5,-103.79 586,-113.79 589.5,-103.79 582.5,-103.79"/>
</g>
<!-- EditionViewComponent -->
<g id="node5" class="node">
<title>EditionViewComponent</title>
<polygon fill="#ffffb3" stroke="black" points="492.38,-84.8 339.62,-84.8 339.62,-48.8 492.38,-48.8 492.38,-84.8"/>
<text text-anchor="middle" x="416" y="-62.6" font-family="Times,serif" font-size="14.00">EditionViewComponent</text>
</g>
<!-- EditionViewComponent&#45;&gt;EditionViewModule -->
<g id="edge5" class="edge">
<title>EditionViewComponent&#45;&gt;EditionViewModule</title>
<path fill="none" stroke="black" d="M416,-84.83C416,-101.2 416,-122.8 416,-122.8 416,-122.8 510.27,-122.8 510.27,-122.8"/>
<polygon fill="black" stroke="black" points="510.27,-126.3 520.27,-122.8 510.27,-119.3 510.27,-126.3"/>
</g>
<!-- EditionViewRoutingModule -->
<g id="node7" class="node">
<title>EditionViewRoutingModule</title>
<polygon fill="#8dd3c7" stroke="black" points="316.21,-84.8 313.21,-88.8 292.21,-88.8 289.21,-84.8 139.79,-84.8 139.79,-48.8 316.21,-48.8 316.21,-84.8"/>
<text text-anchor="middle" x="228" y="-62.6" font-family="Times,serif" font-size="14.00">EditionViewRoutingModule</text>
</g>
<!-- EditionViewRoutingModule&#45;&gt;EditionViewModule -->
<g id="edge6" class="edge">
<title>EditionViewRoutingModule&#45;&gt;EditionViewModule</title>
<path fill="none" stroke="black" d="M228,-84.91C228,-104.14 228,-131.8 228,-131.8 228,-131.8 510.34,-131.8 510.34,-131.8"/>
<polygon fill="black" stroke="black" points="510.34,-135.3 520.34,-131.8 510.34,-128.3 510.34,-135.3"/>
</g>
<!-- SharedModule -->
<g id="node8" class="node">
<title>SharedModule</title>
<polygon fill="#8dd3c7" stroke="black" points="122.42,-84.8 119.42,-88.8 98.42,-88.8 95.42,-84.8 23.58,-84.8 23.58,-48.8 122.42,-48.8 122.42,-84.8"/>
<text text-anchor="middle" x="73" y="-62.6" font-family="Times,serif" font-size="14.00">SharedModule</text>
</g>
<!-- SharedModule&#45;&gt;EditionViewModule -->
<g id="edge7" class="edge">
<title>SharedModule&#45;&gt;EditionViewModule</title>
<path fill="none" stroke="black" d="M73,-85.09C73,-107.01 73,-140.8 73,-140.8 73,-140.8 510.25,-140.8 510.25,-140.8"/>
<polygon fill="black" stroke="black" points="510.25,-144.3 520.25,-140.8 510.25,-137.3 510.25,-144.3"/>
</g>
</g>
</svg>
