<?xml version="1.0" encoding="UTF-8" standalone="no"?>
<!DOCTYPE svg PUBLIC "-//W3C//DTD SVG 1.1//EN"
 "http://www.w3.org/Graphics/SVG/1.1/DTD/svg11.dtd">
<!-- Generated by graphviz version 2.47.0 (20210316.0004)
 -->
<!-- Title: dependencies Pages: 1 -->
<svg width="1850pt" height="211pt"
 viewBox="0.00 0.00 1850.00 211.00" xmlns="http://www.w3.org/2000/svg" xmlns:xlink="http://www.w3.org/1999/xlink">
<g id="graph0" class="graph" transform="scale(1 1) rotate(0) translate(4 207)">
<title>dependencies</title>
<polygon fill="white" stroke="transparent" points="-4,4 -4,-207 1846,-207 1846,4 -4,4"/>
<text text-anchor="start" x="900.01" y="-42.4" font-family="Times-12" font-weight="bold" font-size="14.00">Legend</text>
<polygon fill="#ffffb3" stroke="transparent" points="687,-10 687,-30 707,-30 707,-10 687,-10"/>
<text text-anchor="start" x="710.63" y="-15.4" font-family="Times-12" font-size="14.00"> &#160;Declarations</text>
<polygon fill="#8dd3c7" stroke="transparent" points="800,-10 800,-30 820,-30 820,-10 800,-10"/>
<text text-anchor="start" x="823.73" y="-15.4" font-family="Times-12" font-size="14.00"> &#160;Module</text>
<polygon fill="#80b1d3" stroke="transparent" points="886,-10 886,-30 906,-30 906,-10 886,-10"/>
<text text-anchor="start" x="909.78" y="-15.4" font-family="Times-12" font-size="14.00"> &#160;Bootstrap</text>
<polygon fill="#fdb462" stroke="transparent" points="983,-10 983,-30 1003,-30 1003,-10 983,-10"/>
<text text-anchor="start" x="1006.67" y="-15.4" font-family="Times-12" font-size="14.00"> &#160;Providers</text>
<polygon fill="#fb8072" stroke="transparent" points="1079,-10 1079,-30 1099,-30 1099,-10 1079,-10"/>
<text text-anchor="start" x="1102.73" y="-15.4" font-family="Times-12" font-size="14.00"> &#160;Exports</text>
<g id="clust1" class="cluster">
<title>cluster_EditionViewModule</title>
<polygon fill="none" stroke="black" stroke-dasharray="1,5" points="8,-70 8,-195 1834,-195 1834,-70 8,-70"/>
</g>
<g id="clust2" class="cluster">
<title>cluster_EditionViewModule_declarations</title>
<polygon fill="none" stroke="black" points="332,-78 332,-130 1826,-130 1826,-78 332,-78"/>
</g>
<g id="clust11" class="cluster">
<title>cluster_EditionViewModule_imports</title>
<polygon fill="none" stroke="black" points="16,-78 16,-130 324,-130 324,-78 16,-78"/>
</g>
<!-- EditionComplexComponent -->
<g id="node1" class="node">
<title>EditionComplexComponent</title>
<polygon fill="#ffffb3" stroke="black" points="1817.89,-122 1644.11,-122 1644.11,-86 1817.89,-86 1817.89,-122"/>
<text text-anchor="middle" x="1731" y="-99.8" font-family="Times,serif" font-size="14.00">EditionComplexComponent</text>
</g>
<!-- EditionViewModule -->
<g id="node9" class="node">
<title>EditionViewModule</title>
<polygon fill="#8dd3c7" stroke="black" points="953.59,-187 950.59,-191 929.59,-191 926.59,-187 822.41,-187 822.41,-151 953.59,-151 953.59,-187"/>
<text text-anchor="middle" x="888" y="-164.8" font-family="Times,serif" font-size="14.00">EditionViewModule</text>
</g>
<!-- EditionComplexComponent&#45;&gt;EditionViewModule -->
<g id="edge1" class="edge">
<title>EditionComplexComponent&#45;&gt;EditionViewModule</title>
<path fill="none" stroke="black" d="M1731,-122.01C1731,-144.49 1731,-180 1731,-180 1731,-180 963.8,-180 963.8,-180"/>
<polygon fill="black" stroke="black" points="963.8,-176.5 953.8,-180 963.8,-183.5 963.8,-176.5"/>
</g>
<!-- EditionDetailNavComponent -->
<g id="node2" class="node">
<title>EditionDetailNavComponent</title>
<polygon fill="#ffffb3" stroke="black" points="1626.09,-122 1445.91,-122 1445.91,-86 1626.09,-86 1626.09,-122"/>
<text text-anchor="middle" x="1536" y="-99.8" font-family="Times,serif" font-size="14.00">EditionDetailNavComponent</text>
</g>
<!-- EditionDetailNavComponent&#45;&gt;EditionViewModule -->
<g id="edge2" class="edge">
<title>EditionDetailNavComponent&#45;&gt;EditionViewModule</title>
<path fill="none" stroke="black" d="M1536,-122.13C1536,-142.57 1536,-173 1536,-173 1536,-173 963.7,-173 963.7,-173"/>
<polygon fill="black" stroke="black" points="963.7,-169.5 953.7,-173 963.7,-176.5 963.7,-169.5"/>
</g>
<!-- EditionInfoComponent -->
<g id="node3" class="node">
<title>EditionInfoComponent</title>
<polygon fill="#ffffb3" stroke="black" points="1427.88,-122 1282.12,-122 1282.12,-86 1427.88,-86 1427.88,-122"/>
<text text-anchor="middle" x="1355" y="-99.8" font-family="Times,serif" font-size="14.00">EditionInfoComponent</text>
</g>
<!-- EditionInfoComponent&#45;&gt;EditionViewModule -->
<g id="edge3" class="edge">
<title>EditionInfoComponent&#45;&gt;EditionViewModule</title>
<path fill="none" stroke="black" d="M1355,-122.27C1355,-140.56 1355,-166 1355,-166 1355,-166 963.92,-166 963.92,-166"/>
<polygon fill="black" stroke="black" points="963.92,-162.5 953.92,-166 963.92,-169.5 963.92,-162.5"/>
</g>
<!-- EditionJumbotronComponent -->
<g id="node4" class="node">
<title>EditionJumbotronComponent</title>
<polygon fill="#ffffb3" stroke="black" points="1264.44,-122 1081.56,-122 1081.56,-86 1264.44,-86 1264.44,-122"/>
<text text-anchor="middle" x="1173" y="-99.8" font-family="Times,serif" font-size="14.00">EditionJumbotronComponent</text>
</g>
<!-- EditionJumbotronComponent&#45;&gt;EditionViewModule -->
<g id="edge4" class="edge">
<title>EditionJumbotronComponent&#45;&gt;EditionViewModule</title>
<path fill="none" stroke="black" d="M1173,-122.01C1173,-138.05 1173,-159 1173,-159 1173,-159 963.74,-159 963.74,-159"/>
<polygon fill="black" stroke="black" points="963.74,-155.5 953.74,-159 963.74,-162.5 963.74,-155.5"/>
</g>
<!-- EditionSectionsComponent -->
<g id="node5" class="node">
<title>EditionSectionsComponent</title>
<polygon fill="#ffffb3" stroke="black" points="1063.99,-122 894.01,-122 894.01,-86 1063.99,-86 1063.99,-122"/>
<text text-anchor="middle" x="979" y="-99.8" font-family="Times,serif" font-size="14.00">EditionSectionsComponent</text>
</g>
<!-- EditionSectionsComponent&#45;&gt;EditionViewModule -->
<g id="edge5" class="edge">
<title>EditionSectionsComponent&#45;&gt;EditionViewModule</title>
<path fill="none" stroke="black" d="M923.77,-122.11C923.77,-122.11 923.77,-140.99 923.77,-140.99"/>
<polygon fill="black" stroke="black" points="920.27,-140.99 923.77,-150.99 927.27,-140.99 920.27,-140.99"/>
</g>
<!-- EditionSeriesComponent -->
<g id="node6" class="node">
<title>EditionSeriesComponent</title>
<polygon fill="#ffffb3" stroke="black" points="876.26,-122 719.74,-122 719.74,-86 876.26,-86 876.26,-122"/>
<text text-anchor="middle" x="798" y="-99.8" font-family="Times,serif" font-size="14.00">EditionSeriesComponent</text>
</g>
<!-- EditionSeriesComponent&#45;&gt;EditionViewModule -->
<g id="edge6" class="edge">
<title>EditionSeriesComponent&#45;&gt;EditionViewModule</title>
<path fill="none" stroke="black" d="M849.42,-122.11C849.42,-122.11 849.42,-140.99 849.42,-140.99"/>
<polygon fill="black" stroke="black" points="845.92,-140.99 849.42,-150.99 852.92,-140.99 845.92,-140.99"/>
</g>
<!-- EditionSeriesDetailComponent -->
<g id="node7" class="node">
<title>EditionSeriesDetailComponent</title>
<polygon fill="#ffffb3" stroke="black" points="701.47,-122 510.53,-122 510.53,-86 701.47,-86 701.47,-122"/>
<text text-anchor="middle" x="606" y="-99.8" font-family="Times,serif" font-size="14.00">EditionSeriesDetailComponent</text>
</g>
<!-- EditionSeriesDetailComponent&#45;&gt;EditionViewModule -->
<g id="edge7" class="edge">
<title>EditionSeriesDetailComponent&#45;&gt;EditionViewModule</title>
<path fill="none" stroke="black" d="M606,-122.01C606,-138.05 606,-159 606,-159 606,-159 812.24,-159 812.24,-159"/>
<polygon fill="black" stroke="black" points="812.24,-162.5 822.24,-159 812.24,-155.5 812.24,-162.5"/>
</g>
<!-- EditionViewComponent -->
<g id="node8" class="node">
<title>EditionViewComponent</title>
<polygon fill="#ffffb3" stroke="black" points="492.38,-122 339.62,-122 339.62,-86 492.38,-86 492.38,-122"/>
<text text-anchor="middle" x="416" y="-99.8" font-family="Times,serif" font-size="14.00">EditionViewComponent</text>
</g>
<!-- EditionViewComponent&#45;&gt;EditionViewModule -->
<g id="edge8" class="edge">
<title>EditionViewComponent&#45;&gt;EditionViewModule</title>
<path fill="none" stroke="black" d="M416,-122.27C416,-140.56 416,-166 416,-166 416,-166 812.37,-166 812.37,-166"/>
<polygon fill="black" stroke="black" points="812.37,-169.5 822.37,-166 812.37,-162.5 812.37,-169.5"/>
</g>
<!-- EditionViewRoutingModule -->
<g id="node10" class="node">
<title>EditionViewRoutingModule</title>
<polygon fill="#8dd3c7" stroke="black" points="316.21,-122 313.21,-126 292.21,-126 289.21,-122 139.79,-122 139.79,-86 316.21,-86 316.21,-122"/>
<text text-anchor="middle" x="228" y="-99.8" font-family="Times,serif" font-size="14.00">EditionViewRoutingModule</text>
</g>
<!-- EditionViewRoutingModule&#45;&gt;EditionViewModule -->
<g id="edge9" class="edge">
<title>EditionViewRoutingModule&#45;&gt;EditionViewModule</title>
<path fill="none" stroke="black" d="M228,-122.13C228,-142.57 228,-173 228,-173 228,-173 812.3,-173 812.3,-173"/>
<polygon fill="black" stroke="black" points="812.3,-176.5 822.3,-173 812.3,-169.5 812.3,-176.5"/>
</g>
<!-- SharedModule -->
<g id="node11" class="node">
<title>SharedModule</title>
<polygon fill="#8dd3c7" stroke="black" points="122.42,-122 119.42,-126 98.42,-126 95.42,-122 23.58,-122 23.58,-86 122.42,-86 122.42,-122"/>
<text text-anchor="middle" x="73" y="-99.8" font-family="Times,serif" font-size="14.00">SharedModule</text>
</g>
<!-- SharedModule&#45;&gt;EditionViewModule -->
<g id="edge10" class="edge">
<title>SharedModule&#45;&gt;EditionViewModule</title>
<path fill="none" stroke="black" d="M73,-122.01C73,-144.49 73,-180 73,-180 73,-180 812.34,-180 812.34,-180"/>
<polygon fill="black" stroke="black" points="812.34,-183.5 822.34,-180 812.34,-176.5 812.34,-183.5"/>
</g>
</g>
</svg>
