<?xml version="1.0" encoding="UTF-8" standalone="no"?>
<!DOCTYPE svg PUBLIC "-//W3C//DTD SVG 1.1//EN"
 "http://www.w3.org/Graphics/SVG/1.1/DTD/svg11.dtd">
<!-- Generated by graphviz version 2.40.1 (20161225.0304)
 -->
<!-- Title: dependencies Pages: 1 -->
<svg width="2172pt" height="211pt"
 viewBox="0.00 0.00 2172.00 211.00" xmlns="http://www.w3.org/2000/svg" xmlns:xlink="http://www.w3.org/1999/xlink">
<g id="graph0" class="graph" transform="scale(1 1) rotate(0) translate(4 207)">
<title>dependencies</title>
<polygon fill="#ffffff" stroke="transparent" points="-4,4 -4,-207 2168,-207 2168,4 -4,4"/>
<text text-anchor="start" x="1061.0091" y="-42.4" font-family="sans-serif" font-weight="bold" font-size="14.00" fill="#000000">Legend</text>
<polygon fill="#ffffb3" stroke="transparent" points="848,-10 848,-30 868,-30 868,-10 848,-10"/>
<text text-anchor="start" x="871.629" y="-15.4" font-family="sans-serif" font-size="14.00" fill="#000000"> &#160;Declarations</text>
<polygon fill="#8dd3c7" stroke="transparent" points="961,-10 961,-30 981,-30 981,-10 961,-10"/>
<text text-anchor="start" x="984.7251" y="-15.4" font-family="sans-serif" font-size="14.00" fill="#000000"> &#160;Module</text>
<polygon fill="#80b1d3" stroke="transparent" points="1047,-10 1047,-30 1067,-30 1067,-10 1047,-10"/>
<text text-anchor="start" x="1070.7812" y="-15.4" font-family="sans-serif" font-size="14.00" fill="#000000"> &#160;Bootstrap</text>
<polygon fill="#fdb462" stroke="transparent" points="1144,-10 1144,-30 1164,-30 1164,-10 1144,-10"/>
<text text-anchor="start" x="1167.6732" y="-15.4" font-family="sans-serif" font-size="14.00" fill="#000000"> &#160;Providers</text>
<polygon fill="#fb8072" stroke="transparent" points="1240,-10 1240,-30 1260,-30 1260,-10 1240,-10"/>
<text text-anchor="start" x="1263.7258" y="-15.4" font-family="sans-serif" font-size="14.00" fill="#000000"> &#160;Exports</text>
<g id="clust1" class="cluster">
<title>cluster_EditionViewModule</title>
<polygon fill="none" stroke="#000000" stroke-dasharray="1,5" points="8,-70 8,-195 2156,-195 2156,-70 8,-70"/>
</g>
<g id="clust2" class="cluster">
<title>cluster_EditionViewModule_declarations</title>
<polygon fill="none" stroke="#000000" points="601,-78 601,-130 2148,-130 2148,-78 601,-78"/>
</g>
<g id="clust12" class="cluster">
<title>cluster_EditionViewModule_imports</title>
<polygon fill="none" stroke="#000000" points="16,-78 16,-130 593,-130 593,-78 16,-78"/>
</g>
<!-- EditionDetailComponent -->
<g id="node1" class="node">
<title>EditionDetailComponent</title>
<polygon fill="#ffffb3" stroke="#000000" points="2140.2646,-122 1983.7354,-122 1983.7354,-86 2140.2646,-86 2140.2646,-122"/>
<text text-anchor="middle" x="2062" y="-99.8" font-family="Times,serif" font-size="14.00" fill="#000000">EditionDetailComponent</text>
</g>
<!-- EditionViewModule -->
<g id="node10" class="node">
<title>EditionViewModule</title>
<polygon fill="#8dd3c7" stroke="#000000" points="1058.5926,-187 1055.5926,-191 1034.5926,-191 1031.5926,-187 927.4074,-187 927.4074,-151 1058.5926,-151 1058.5926,-187"/>
<text text-anchor="middle" x="993" y="-164.8" font-family="Times,serif" font-size="14.00" fill="#000000">EditionViewModule</text>
</g>
<!-- EditionDetailComponent&#45;&gt;EditionViewModule -->
<g id="edge1" class="edge">
<title>EditionDetailComponent&#45;&gt;EditionViewModule</title>
<path fill="none" stroke="#000000" d="M2062,-122.0908C2062,-145.1328 2062,-182 2062,-182 2062,-182 1068.6622,-182 1068.6622,-182"/>
<polygon fill="#000000" stroke="#000000" points="1068.6623,-178.5001 1058.6622,-182 1068.6622,-185.5001 1068.6623,-178.5001"/>
</g>
<!-- EditionGraphComponent -->
<g id="node2" class="node">
<title>EditionGraphComponent</title>
<polygon fill="#ffffb3" stroke="#000000" points="1965.5393,-122 1808.4607,-122 1808.4607,-86 1965.5393,-86 1965.5393,-122"/>
<text text-anchor="middle" x="1887" y="-99.8" font-family="Times,serif" font-size="14.00" fill="#000000">EditionGraphComponent</text>
</g>
<!-- EditionGraphComponent&#45;&gt;EditionViewModule -->
<g id="edge2" class="edge">
<title>EditionGraphComponent&#45;&gt;EditionViewModule</title>
<path fill="none" stroke="#000000" d="M1887,-122.0449C1887,-143.6623 1887,-177 1887,-177 1887,-177 1068.738,-177 1068.738,-177"/>
<polygon fill="#000000" stroke="#000000" points="1068.738,-173.5001 1058.738,-177 1068.7379,-180.5001 1068.738,-173.5001"/>
</g>
<!-- EditionIntroComponent -->
<g id="node3" class="node">
<title>EditionIntroComponent</title>
<polygon fill="#ffffb3" stroke="#000000" points="1789.7688,-122 1640.2312,-122 1640.2312,-86 1789.7688,-86 1789.7688,-122"/>
<text text-anchor="middle" x="1715" y="-99.8" font-family="Times,serif" font-size="14.00" fill="#000000">EditionIntroComponent</text>
</g>
<!-- EditionIntroComponent&#45;&gt;EditionViewModule -->
<g id="edge3" class="edge">
<title>EditionIntroComponent&#45;&gt;EditionViewModule</title>
<path fill="none" stroke="#000000" d="M1715,-122.2228C1715,-142.3652 1715,-172 1715,-172 1715,-172 1068.6661,-172 1068.6661,-172"/>
<polygon fill="#000000" stroke="#000000" points="1068.6661,-168.5001 1058.6661,-172 1068.666,-175.5001 1068.6661,-168.5001"/>
</g>
<!-- EditionOverviewComponent -->
<g id="node4" class="node">
<title>EditionOverviewComponent</title>
<polygon fill="#ffffb3" stroke="#000000" points="1621.7506,-122 1444.2494,-122 1444.2494,-86 1621.7506,-86 1621.7506,-122"/>
<text text-anchor="middle" x="1533" y="-99.8" font-family="Times,serif" font-size="14.00" fill="#000000">EditionOverviewComponent</text>
</g>
<!-- EditionOverviewComponent&#45;&gt;EditionViewModule -->
<g id="edge4" class="edge">
<title>EditionOverviewComponent&#45;&gt;EditionViewModule</title>
<path fill="none" stroke="#000000" d="M1533,-122.2222C1533,-140.8285 1533,-167 1533,-167 1533,-167 1068.6747,-167 1068.6747,-167"/>
<polygon fill="#000000" stroke="#000000" points="1068.6748,-163.5001 1058.6747,-167 1068.6747,-170.5001 1068.6748,-163.5001"/>
</g>
<!-- EditionSectionComponent -->
<g id="node5" class="node">
<title>EditionSectionComponent</title>
<polygon fill="#ffffb3" stroke="#000000" points="1426.0504,-122 1261.9496,-122 1261.9496,-86 1426.0504,-86 1426.0504,-122"/>
<text text-anchor="middle" x="1344" y="-99.8" font-family="Times,serif" font-size="14.00" fill="#000000">EditionSectionComponent</text>
</g>
<!-- EditionSectionComponent&#45;&gt;EditionViewModule -->
<g id="edge5" class="edge">
<title>EditionSectionComponent&#45;&gt;EditionViewModule</title>
<path fill="none" stroke="#000000" d="M1344,-122.0336C1344,-139.0597 1344,-162 1344,-162 1344,-162 1068.6087,-162 1068.6087,-162"/>
<polygon fill="#000000" stroke="#000000" points="1068.6087,-158.5001 1058.6087,-162 1068.6086,-165.5001 1068.6087,-158.5001"/>
</g>
<!-- EditionSeriesComponent -->
<g id="node6" class="node">
<title>EditionSeriesComponent</title>
<polygon fill="#ffffb3" stroke="#000000" points="1243.2646,-122 1086.7354,-122 1086.7354,-86 1243.2646,-86 1243.2646,-122"/>
<text text-anchor="middle" x="1165" y="-99.8" font-family="Times,serif" font-size="14.00" fill="#000000">EditionSeriesComponent</text>
</g>
<!-- EditionSeriesComponent&#45;&gt;EditionViewModule -->
<g id="edge6" class="edge">
<title>EditionSeriesComponent&#45;&gt;EditionViewModule</title>
<path fill="none" stroke="#000000" d="M1165,-122.2396C1165,-137.5706 1165,-157 1165,-157 1165,-157 1069.0078,-157 1069.0078,-157"/>
<polygon fill="#000000" stroke="#000000" points="1069.0078,-153.5001 1059.0078,-157 1069.0077,-160.5001 1069.0078,-153.5001"/>
</g>
<!-- EditionTypeComponent -->
<g id="node7" class="node">
<title>EditionTypeComponent</title>
<polygon fill="#ffffb3" stroke="#000000" points="1068.8243,-122 917.1757,-122 917.1757,-86 1068.8243,-86 1068.8243,-122"/>
<text text-anchor="middle" x="993" y="-99.8" font-family="Times,serif" font-size="14.00" fill="#000000">EditionTypeComponent</text>
</g>
<!-- EditionTypeComponent&#45;&gt;EditionViewModule -->
<g id="edge7" class="edge">
<title>EditionTypeComponent&#45;&gt;EditionViewModule</title>
<path fill="none" stroke="#000000" d="M993,-122.1061C993,-122.1061 993,-140.991 993,-140.991"/>
<polygon fill="#000000" stroke="#000000" points="989.5001,-140.9909 993,-150.991 996.5001,-140.991 989.5001,-140.9909"/>
</g>
<!-- EditionViewComponent -->
<g id="node8" class="node">
<title>EditionViewComponent</title>
<polygon fill="#ffffb3" stroke="#000000" points="899.3753,-122 746.6247,-122 746.6247,-86 899.3753,-86 899.3753,-122"/>
<text text-anchor="middle" x="823" y="-99.8" font-family="Times,serif" font-size="14.00" fill="#000000">EditionViewComponent</text>
</g>
<!-- EditionViewComponent&#45;&gt;EditionViewModule -->
<g id="edge8" class="edge">
<title>EditionViewComponent&#45;&gt;EditionViewModule</title>
<path fill="none" stroke="#000000" d="M823,-122.2396C823,-137.5706 823,-157 823,-157 823,-157 917.2736,-157 917.2736,-157"/>
<polygon fill="#000000" stroke="#000000" points="917.2736,-160.5001 927.2736,-157 917.2735,-153.5001 917.2736,-160.5001"/>
</g>
<!-- ReportComponent -->
<g id="node9" class="node">
<title>ReportComponent</title>
<polygon fill="#ffffb3" stroke="#000000" points="728.9356,-122 609.0644,-122 609.0644,-86 728.9356,-86 728.9356,-122"/>
<text text-anchor="middle" x="669" y="-99.8" font-family="Times,serif" font-size="14.00" fill="#000000">ReportComponent</text>
</g>
<!-- ReportComponent&#45;&gt;EditionViewModule -->
<g id="edge9" class="edge">
<title>ReportComponent&#45;&gt;EditionViewModule</title>
<path fill="none" stroke="#000000" d="M669,-122.0336C669,-139.0597 669,-162 669,-162 669,-162 917.4338,-162 917.4338,-162"/>
<polygon fill="#000000" stroke="#000000" points="917.4338,-165.5001 927.4338,-162 917.4337,-158.5001 917.4338,-165.5001"/>
</g>
<!-- EditionDetailModule -->
<g id="node11" class="node">
<title>EditionDetailModule</title>
<polygon fill="#8dd3c7" stroke="#000000" points="585.4818,-122 582.4818,-126 561.4818,-126 558.4818,-122 450.5182,-122 450.5182,-86 585.4818,-86 585.4818,-122"/>
<text text-anchor="middle" x="518" y="-99.8" font-family="Times,serif" font-size="14.00" fill="#000000">EditionDetailModule</text>
</g>
<!-- EditionDetailModule&#45;&gt;EditionViewModule -->
<g id="edge10" class="edge">
<title>EditionDetailModule&#45;&gt;EditionViewModule</title>
<path fill="none" stroke="#000000" d="M518,-122.2222C518,-140.8285 518,-167 518,-167 518,-167 917.452,-167 917.452,-167"/>
<polygon fill="#000000" stroke="#000000" points="917.452,-170.5001 927.452,-167 917.452,-163.5001 917.452,-170.5001"/>
</g>
<!-- EditionViewRoutingModule -->
<g id="node12" class="node">
<title>EditionViewRoutingModule</title>
<polygon fill="#8dd3c7" stroke="#000000" points="432.2105,-122 429.2105,-126 408.2105,-126 405.2105,-122 255.7895,-122 255.7895,-86 432.2105,-86 432.2105,-122"/>
<text text-anchor="middle" x="344" y="-99.8" font-family="Times,serif" font-size="14.00" fill="#000000">EditionViewRoutingModule</text>
</g>
<!-- EditionViewRoutingModule&#45;&gt;EditionViewModule -->
<g id="edge11" class="edge">
<title>EditionViewRoutingModule&#45;&gt;EditionViewModule</title>
<path fill="none" stroke="#000000" d="M344,-122.2228C344,-142.3652 344,-172 344,-172 344,-172 917.1989,-172 917.1989,-172"/>
<polygon fill="#000000" stroke="#000000" points="917.1989,-175.5001 927.1989,-172 917.1988,-168.5001 917.1989,-175.5001"/>
</g>
<!-- ReportModule -->
<g id="node13" class="node">
<title>ReportModule</title>
<polygon fill="#8dd3c7" stroke="#000000" points="237.6528,-122 234.6528,-126 213.6528,-126 210.6528,-122 140.3472,-122 140.3472,-86 237.6528,-86 237.6528,-122"/>
<text text-anchor="middle" x="189" y="-99.8" font-family="Times,serif" font-size="14.00" fill="#000000">ReportModule</text>
</g>
<!-- ReportModule&#45;&gt;EditionViewModule -->
<g id="edge12" class="edge">
<title>ReportModule&#45;&gt;EditionViewModule</title>
<path fill="none" stroke="#000000" d="M189,-122.0449C189,-143.6623 189,-177 189,-177 189,-177 917.2053,-177 917.2053,-177"/>
<polygon fill="#000000" stroke="#000000" points="917.2053,-180.5001 927.2053,-177 917.2053,-173.5001 917.2053,-180.5001"/>
</g>
<!-- SharedModule -->
<g id="node14" class="node">
<title>SharedModule</title>
<polygon fill="#8dd3c7" stroke="#000000" points="122.4231,-122 119.4231,-126 98.4231,-126 95.4231,-122 23.5769,-122 23.5769,-86 122.4231,-86 122.4231,-122"/>
<text text-anchor="middle" x="73" y="-99.8" font-family="Times,serif" font-size="14.00" fill="#000000">SharedModule</text>
</g>
<!-- SharedModule&#45;&gt;EditionViewModule -->
<g id="edge13" class="edge">
<title>SharedModule&#45;&gt;EditionViewModule</title>
<path fill="none" stroke="#000000" d="M73,-122.0908C73,-145.1328 73,-182 73,-182 73,-182 917.2051,-182 917.2051,-182"/>
<polygon fill="#000000" stroke="#000000" points="917.2051,-185.5001 927.2051,-182 917.205,-178.5001 917.2051,-185.5001"/>
</g>
</g>
</svg>
