<?xml version="1.0" encoding="UTF-8" standalone="no"?>
<!DOCTYPE svg PUBLIC "-//W3C//DTD SVG 1.1//EN"
 "http://www.w3.org/Graphics/SVG/1.1/DTD/svg11.dtd">
<!-- Generated by graphviz version 2.47.3 (20210619.1520)
 -->
<!-- Title: dependencies Pages: 1 -->
<svg width="2076pt" height="174pt"
 viewBox="0.00 0.00 2076.00 173.80" xmlns="http://www.w3.org/2000/svg" xmlns:xlink="http://www.w3.org/1999/xlink">
<g id="graph0" class="graph" transform="scale(1 1) rotate(0) translate(4 169.8)">
<title>dependencies</title>
<polygon fill="white" stroke="transparent" points="-4,4 -4,-169.8 2072,-169.8 2072,4 -4,4"/>
<text text-anchor="middle" x="1034" y="-8.2" font-family="sans-serif" font-size="14.00">dependencies</text>
<g id="clust1" class="cluster">
<title>cluster_EditionViewModule</title>
<polygon fill="none" stroke="black" stroke-dasharray="1,5" points="8,-32.8 8,-157.8 2060,-157.8 2060,-32.8 8,-32.8"/>
</g>
<g id="clust2" class="cluster">
<title>cluster_EditionViewModule_declarations</title>
<polygon fill="none" stroke="black" points="332,-40.8 332,-92.8 2052,-92.8 2052,-40.8 332,-40.8"/>
</g>
<g id="clust12" class="cluster">
<title>cluster_EditionViewModule_imports</title>
<polygon fill="none" stroke="black" points="16,-40.8 16,-92.8 324,-92.8 324,-40.8 16,-40.8"/>
</g>
<!-- EditionComplexComponent -->
<g id="node1" class="node">
<title>EditionComplexComponent</title>
<polygon fill="#ffffb3" stroke="black" points="2043.89,-84.8 1870.11,-84.8 1870.11,-48.8 2043.89,-48.8 2043.89,-84.8"/>
<text text-anchor="middle" x="1957" y="-62.6" font-family="Times,serif" font-size="14.00">EditionComplexComponent</text>
</g>
<!-- EditionViewModule -->
<g id="node10" class="node">
<title>EditionViewModule</title>
<polygon fill="#8dd3c7" stroke="black" points="1032.59,-149.8 1029.59,-153.8 1008.59,-153.8 1005.59,-149.8 901.41,-149.8 901.41,-113.8 1032.59,-113.8 1032.59,-149.8"/>
<text text-anchor="middle" x="967" y="-127.6" font-family="Times,serif" font-size="14.00">EditionViewModule</text>
</g>
<!-- EditionComplexComponent&#45;&gt;EditionViewModule -->
<g id="edge1" class="edge">
<title>EditionComplexComponent&#45;&gt;EditionViewModule</title>
<path fill="none" stroke="black" d="M1957,-84.89C1957,-107.93 1957,-144.8 1957,-144.8 1957,-144.8 1042.72,-144.8 1042.72,-144.8"/>
<polygon fill="black" stroke="black" points="1042.72,-141.3 1032.72,-144.8 1042.72,-148.3 1042.72,-141.3"/>
</g>
<!-- EditionDetailNavComponent -->
<g id="node2" class="node">
<title>EditionDetailNavComponent</title>
<polygon fill="#ffffb3" stroke="black" points="1852.09,-84.8 1671.91,-84.8 1671.91,-48.8 1852.09,-48.8 1852.09,-84.8"/>
<text text-anchor="middle" x="1762" y="-62.6" font-family="Times,serif" font-size="14.00">EditionDetailNavComponent</text>
</g>
<!-- EditionDetailNavComponent&#45;&gt;EditionViewModule -->
<g id="edge2" class="edge">
<title>EditionDetailNavComponent&#45;&gt;EditionViewModule</title>
<path fill="none" stroke="black" d="M1762,-85.08C1762,-106.12 1762,-137.8 1762,-137.8 1762,-137.8 1042.73,-137.8 1042.73,-137.8"/>
<polygon fill="black" stroke="black" points="1042.73,-134.3 1032.73,-137.8 1042.73,-141.3 1042.73,-134.3"/>
</g>
<!-- EditionRowTablesComponent -->
<g id="node3" class="node">
<title>EditionRowTablesComponent</title>
<polygon fill="#ffffb3" stroke="black" points="1654.32,-84.8 1467.68,-84.8 1467.68,-48.8 1654.32,-48.8 1654.32,-84.8"/>
<text text-anchor="middle" x="1561" y="-62.6" font-family="Times,serif" font-size="14.00">EditionRowTablesComponent</text>
</g>
<!-- EditionRowTablesComponent&#45;&gt;EditionViewModule -->
<g id="edge3" class="edge">
<title>EditionRowTablesComponent&#45;&gt;EditionViewModule</title>
<path fill="none" stroke="black" d="M1561,-84.91C1561,-104.14 1561,-131.8 1561,-131.8 1561,-131.8 1042.55,-131.8 1042.55,-131.8"/>
<polygon fill="black" stroke="black" points="1042.55,-128.3 1032.55,-131.8 1042.55,-135.3 1042.55,-128.3"/>
</g>
<!-- EditionSectionDetailComponent -->
<g id="node4" class="node">
<title>EditionSectionDetailComponent</title>
<polygon fill="#ffffb3" stroke="black" points="1449.26,-84.8 1250.74,-84.8 1250.74,-48.8 1449.26,-48.8 1449.26,-84.8"/>
<text text-anchor="middle" x="1350" y="-62.6" font-family="Times,serif" font-size="14.00">EditionSectionDetailComponent</text>
</g>
<!-- EditionSectionDetailComponent&#45;&gt;EditionViewModule -->
<g id="edge4" class="edge">
<title>EditionSectionDetailComponent&#45;&gt;EditionViewModule</title>
<path fill="none" stroke="black" d="M1350,-84.82C1350,-102.17 1350,-125.8 1350,-125.8 1350,-125.8 1042.84,-125.8 1042.84,-125.8"/>
<polygon fill="black" stroke="black" points="1042.84,-122.3 1032.84,-125.8 1042.84,-129.3 1042.84,-122.3"/>
</g>
<!-- EditionSectionsComponent -->
<g id="node5" class="node">
<title>EditionSectionsComponent</title>
<polygon fill="#ffffb3" stroke="black" points="1232.99,-84.8 1063.01,-84.8 1063.01,-48.8 1232.99,-48.8 1232.99,-84.8"/>
<text text-anchor="middle" x="1148" y="-62.6" font-family="Times,serif" font-size="14.00">EditionSectionsComponent</text>
</g>
<!-- EditionSectionsComponent&#45;&gt;EditionViewModule -->
<g id="edge5" class="edge">
<title>EditionSectionsComponent&#45;&gt;EditionViewModule</title>
<path fill="none" stroke="black" d="M1148,-85.04C1148,-100.37 1148,-119.8 1148,-119.8 1148,-119.8 1042.6,-119.8 1042.6,-119.8"/>
<polygon fill="black" stroke="black" points="1042.6,-116.3 1032.6,-119.8 1042.6,-123.3 1042.6,-116.3"/>
</g>
<!-- EditionSeriesComponent -->
<g id="node6" class="node">
<title>EditionSeriesComponent</title>
<polygon fill="#ffffb3" stroke="black" points="1045.26,-84.8 888.74,-84.8 888.74,-48.8 1045.26,-48.8 1045.26,-84.8"/>
<text text-anchor="middle" x="967" y="-62.6" font-family="Times,serif" font-size="14.00">EditionSeriesComponent</text>
</g>
<!-- EditionSeriesComponent&#45;&gt;EditionViewModule -->
<g id="edge6" class="edge">
<title>EditionSeriesComponent&#45;&gt;EditionViewModule</title>
<path fill="none" stroke="black" d="M967,-84.91C967,-84.91 967,-103.79 967,-103.79"/>
<polygon fill="black" stroke="black" points="963.5,-103.79 967,-113.79 970.5,-103.79 963.5,-103.79"/>
</g>
<!-- EditionSeriesDetailComponent -->
<g id="node7" class="node">
<title>EditionSeriesDetailComponent</title>
<polygon fill="#ffffb3" stroke="black" points="870.47,-84.8 679.53,-84.8 679.53,-48.8 870.47,-48.8 870.47,-84.8"/>
<text text-anchor="middle" x="775" y="-62.6" font-family="Times,serif" font-size="14.00">EditionSeriesDetailComponent</text>
</g>
<!-- EditionSeriesDetailComponent&#45;&gt;EditionViewModule -->
<g id="edge7" class="edge">
<title>EditionSeriesDetailComponent&#45;&gt;EditionViewModule</title>
<path fill="none" stroke="black" d="M775,-85.04C775,-100.37 775,-119.8 775,-119.8 775,-119.8 891.19,-119.8 891.19,-119.8"/>
<polygon fill="black" stroke="black" points="891.19,-123.3 901.19,-119.8 891.19,-116.3 891.19,-123.3"/>
</g>
<!-- EditionTypeComponent -->
<g id="node8" class="node">
<title>EditionTypeComponent</title>
<polygon fill="#ffffb3" stroke="black" points="661.82,-84.8 510.18,-84.8 510.18,-48.8 661.82,-48.8 661.82,-84.8"/>
<text text-anchor="middle" x="586" y="-62.6" font-family="Times,serif" font-size="14.00">EditionTypeComponent</text>
</g>
<!-- EditionTypeComponent&#45;&gt;EditionViewModule -->
<g id="edge8" class="edge">
<title>EditionTypeComponent&#45;&gt;EditionViewModule</title>
<path fill="none" stroke="black" d="M586,-84.82C586,-102.17 586,-125.8 586,-125.8 586,-125.8 891.07,-125.8 891.07,-125.8"/>
<polygon fill="black" stroke="black" points="891.07,-129.3 901.07,-125.8 891.07,-122.3 891.07,-129.3"/>
</g>
<!-- EditionViewComponent -->
<g id="node9" class="node">
<title>EditionViewComponent</title>
<polygon fill="#ffffb3" stroke="black" points="492.38,-84.8 339.62,-84.8 339.62,-48.8 492.38,-48.8 492.38,-84.8"/>
<text text-anchor="middle" x="416" y="-62.6" font-family="Times,serif" font-size="14.00">EditionViewComponent</text>
</g>
<!-- EditionViewComponent&#45;&gt;EditionViewModule -->
<g id="edge9" class="edge">
<title>EditionViewComponent&#45;&gt;EditionViewModule</title>
<path fill="none" stroke="black" d="M416,-84.91C416,-104.14 416,-131.8 416,-131.8 416,-131.8 891.36,-131.8 891.36,-131.8"/>
<polygon fill="black" stroke="black" points="891.36,-135.3 901.36,-131.8 891.36,-128.3 891.36,-135.3"/>
</g>
<!-- EditionViewRoutingModule -->
<g id="node11" class="node">
<title>EditionViewRoutingModule</title>
<polygon fill="#8dd3c7" stroke="black" points="316.21,-84.8 313.21,-88.8 292.21,-88.8 289.21,-84.8 139.79,-84.8 139.79,-48.8 316.21,-48.8 316.21,-84.8"/>
<text text-anchor="middle" x="228" y="-62.6" font-family="Times,serif" font-size="14.00">EditionViewRoutingModule</text>
</g>
<!-- EditionViewRoutingModule&#45;&gt;EditionViewModule -->
<g id="edge10" class="edge">
<title>EditionViewRoutingModule&#45;&gt;EditionViewModule</title>
<path fill="none" stroke="black" d="M228,-85.08C228,-106.12 228,-137.8 228,-137.8 228,-137.8 891.42,-137.8 891.42,-137.8"/>
<polygon fill="black" stroke="black" points="891.42,-141.3 901.42,-137.8 891.42,-134.3 891.42,-141.3"/>
</g>
<!-- SharedModule -->
<g id="node12" class="node">
<title>SharedModule</title>
<polygon fill="#8dd3c7" stroke="black" points="122.42,-84.8 119.42,-88.8 98.42,-88.8 95.42,-84.8 23.58,-84.8 23.58,-48.8 122.42,-48.8 122.42,-84.8"/>
<text text-anchor="middle" x="73" y="-62.6" font-family="Times,serif" font-size="14.00">SharedModule</text>
</g>
<!-- SharedModule&#45;&gt;EditionViewModule -->
<g id="edge11" class="edge">
<title>SharedModule&#45;&gt;EditionViewModule</title>
<path fill="none" stroke="black" d="M73,-84.89C73,-107.93 73,-144.8 73,-144.8 73,-144.8 891.26,-144.8 891.26,-144.8"/>
<polygon fill="black" stroke="black" points="891.26,-148.3 901.26,-144.8 891.26,-141.3 891.26,-148.3"/>
</g>
</g>
</svg>
