<?xml version="1.0" encoding="UTF-8" standalone="no"?>
<!DOCTYPE svg PUBLIC "-//W3C//DTD SVG 1.1//EN"
 "http://www.w3.org/Graphics/SVG/1.1/DTD/svg11.dtd">
<!-- Generated by graphviz version 2.47.0 (20210316.0004)
 -->
<!-- Title: dependencies Pages: 1 -->
<svg width="1247pt" height="211pt"
 viewBox="0.00 0.00 1247.00 211.00" xmlns="http://www.w3.org/2000/svg" xmlns:xlink="http://www.w3.org/1999/xlink">
<g id="graph0" class="graph" transform="scale(1 1) rotate(0) translate(4 207)">
<title>dependencies</title>
<polygon fill="white" stroke="transparent" points="-4,4 -4,-207 1243,-207 1243,4 -4,4"/>
<text text-anchor="start" x="598.51" y="-42.4" font-family="sans-serif" font-weight="bold" font-size="14.00">Legend</text>
<polygon fill="#ffffb3" stroke="transparent" points="385.5,-10 385.5,-30 405.5,-30 405.5,-10 385.5,-10"/>
<text text-anchor="start" x="409.13" y="-15.4" font-family="sans-serif" font-size="14.00"> &#160;Declarations</text>
<polygon fill="#8dd3c7" stroke="transparent" points="498.5,-10 498.5,-30 518.5,-30 518.5,-10 498.5,-10"/>
<text text-anchor="start" x="522.23" y="-15.4" font-family="sans-serif" font-size="14.00"> &#160;Module</text>
<polygon fill="#80b1d3" stroke="transparent" points="584.5,-10 584.5,-30 604.5,-30 604.5,-10 584.5,-10"/>
<text text-anchor="start" x="608.28" y="-15.4" font-family="sans-serif" font-size="14.00"> &#160;Bootstrap</text>
<polygon fill="#fdb462" stroke="transparent" points="681.5,-10 681.5,-30 701.5,-30 701.5,-10 681.5,-10"/>
<text text-anchor="start" x="705.17" y="-15.4" font-family="sans-serif" font-size="14.00"> &#160;Providers</text>
<polygon fill="#fb8072" stroke="transparent" points="777.5,-10 777.5,-30 797.5,-30 797.5,-10 777.5,-10"/>
<text text-anchor="start" x="801.23" y="-15.4" font-family="sans-serif" font-size="14.00"> &#160;Exports</text>
<g id="clust1" class="cluster">
<title>cluster_EditionViewModule</title>
<polygon fill="none" stroke="black" stroke-dasharray="1,5" points="8,-70 8,-195 1231,-195 1231,-70 8,-70"/>
</g>
<g id="clust8" class="cluster">
<title>cluster_EditionViewModule_imports</title>
<polygon fill="none" stroke="black" points="915,-78 915,-130 1223,-130 1223,-78 915,-78"/>
</g>
<g id="clust2" class="cluster">
<title>cluster_EditionViewModule_declarations</title>
<polygon fill="none" stroke="black" points="16,-78 16,-130 907,-130 907,-78 16,-78"/>
</g>
<!-- EditionOverviewComponent -->
<g id="node1" class="node">
<title>EditionOverviewComponent</title>
<polygon fill="#ffffb3" stroke="black" points="898.75,-122 721.25,-122 721.25,-86 898.75,-86 898.75,-122"/>
<text text-anchor="middle" x="810" y="-99.8" font-family="Times,serif" font-size="14.00">EditionOverviewComponent</text>
</g>
<!-- EditionViewModule -->
<g id="node6" class="node">
<title>EditionViewModule</title>
<polygon fill="#8dd3c7" stroke="black" points="686.59,-187 683.59,-191 662.59,-191 659.59,-187 555.41,-187 555.41,-151 686.59,-151 686.59,-187"/>
<text text-anchor="middle" x="621" y="-164.8" font-family="Times,serif" font-size="14.00">EditionViewModule</text>
</g>
<!-- EditionOverviewComponent&#45;&gt;EditionViewModule -->
<g id="edge1" class="edge">
<title>EditionOverviewComponent&#45;&gt;EditionViewModule</title>
<path fill="none" stroke="black" d="M810,-122.03C810,-138.4 810,-160 810,-160 810,-160 696.57,-160 696.57,-160"/>
<polygon fill="black" stroke="black" points="696.57,-156.5 686.57,-160 696.57,-163.5 696.57,-156.5"/>
</g>
<!-- EditionSectionComponent -->
<g id="node2" class="node">
<title>EditionSectionComponent</title>
<polygon fill="#ffffb3" stroke="black" points="703.05,-122 538.95,-122 538.95,-86 703.05,-86 703.05,-122"/>
<text text-anchor="middle" x="621" y="-99.8" font-family="Times,serif" font-size="14.00">EditionSectionComponent</text>
</g>
<!-- EditionSectionComponent&#45;&gt;EditionViewModule -->
<g id="edge2" class="edge">
<title>EditionSectionComponent&#45;&gt;EditionViewModule</title>
<path fill="none" stroke="black" d="M621,-122.11C621,-122.11 621,-140.99 621,-140.99"/>
<polygon fill="black" stroke="black" points="617.5,-140.99 621,-150.99 624.5,-140.99 617.5,-140.99"/>
</g>
<!-- EditionSeriesComponent -->
<g id="node3" class="node">
<title>EditionSeriesComponent</title>
<polygon fill="#ffffb3" stroke="black" points="520.26,-122 363.74,-122 363.74,-86 520.26,-86 520.26,-122"/>
<text text-anchor="middle" x="442" y="-99.8" font-family="Times,serif" font-size="14.00">EditionSeriesComponent</text>
</g>
<!-- EditionSeriesComponent&#45;&gt;EditionViewModule -->
<g id="edge3" class="edge">
<title>EditionSeriesComponent&#45;&gt;EditionViewModule</title>
<path fill="none" stroke="black" d="M442,-122.03C442,-138.4 442,-160 442,-160 442,-160 545.36,-160 545.36,-160"/>
<polygon fill="black" stroke="black" points="545.36,-163.5 555.36,-160 545.36,-156.5 545.36,-163.5"/>
</g>
<!-- EditionTypeComponent -->
<g id="node4" class="node">
<title>EditionTypeComponent</title>
<polygon fill="#ffffb3" stroke="black" points="345.82,-122 194.18,-122 194.18,-86 345.82,-86 345.82,-122"/>
<text text-anchor="middle" x="270" y="-99.8" font-family="Times,serif" font-size="14.00">EditionTypeComponent</text>
</g>
<!-- EditionTypeComponent&#45;&gt;EditionViewModule -->
<g id="edge4" class="edge">
<title>EditionTypeComponent&#45;&gt;EditionViewModule</title>
<path fill="none" stroke="black" d="M270,-122.11C270,-141.34 270,-169 270,-169 270,-169 545.39,-169 545.39,-169"/>
<polygon fill="black" stroke="black" points="545.39,-172.5 555.39,-169 545.39,-165.5 545.39,-172.5"/>
</g>
<!-- EditionViewComponent -->
<g id="node5" class="node">
<title>EditionViewComponent</title>
<polygon fill="#ffffb3" stroke="black" points="176.38,-122 23.62,-122 23.62,-86 176.38,-86 176.38,-122"/>
<text text-anchor="middle" x="100" y="-99.8" font-family="Times,serif" font-size="14.00">EditionViewComponent</text>
</g>
<!-- EditionViewComponent&#45;&gt;EditionViewModule -->
<g id="edge5" class="edge">
<title>EditionViewComponent&#45;&gt;EditionViewModule</title>
<path fill="none" stroke="black" d="M100,-122.29C100,-144.21 100,-178 100,-178 100,-178 545.28,-178 545.28,-178"/>
<polygon fill="black" stroke="black" points="545.28,-181.5 555.28,-178 545.28,-174.5 545.28,-181.5"/>
</g>
<!-- EditionViewRoutingModule -->
<g id="node7" class="node">
<title>EditionViewRoutingModule</title>
<polygon fill="#8dd3c7" stroke="black" points="1215.21,-122 1212.21,-126 1191.21,-126 1188.21,-122 1038.79,-122 1038.79,-86 1215.21,-86 1215.21,-122"/>
<text text-anchor="middle" x="1127" y="-99.8" font-family="Times,serif" font-size="14.00">EditionViewRoutingModule</text>
</g>
<!-- EditionViewRoutingModule&#45;&gt;EditionViewModule -->
<g id="edge6" class="edge">
<title>EditionViewRoutingModule&#45;&gt;EditionViewModule</title>
<path fill="none" stroke="black" d="M1127,-122.29C1127,-144.21 1127,-178 1127,-178 1127,-178 696.63,-178 696.63,-178"/>
<polygon fill="black" stroke="black" points="696.63,-174.5 686.63,-178 696.63,-181.5 696.63,-174.5"/>
</g>
<!-- SharedModule -->
<g id="node8" class="node">
<title>SharedModule</title>
<polygon fill="#8dd3c7" stroke="black" points="1021.42,-122 1018.42,-126 997.42,-126 994.42,-122 922.58,-122 922.58,-86 1021.42,-86 1021.42,-122"/>
<text text-anchor="middle" x="972" y="-99.8" font-family="Times,serif" font-size="14.00">SharedModule</text>
</g>
<!-- SharedModule&#45;&gt;EditionViewModule -->
<g id="edge7" class="edge">
<title>SharedModule&#45;&gt;EditionViewModule</title>
<path fill="none" stroke="black" d="M972,-122.11C972,-141.34 972,-169 972,-169 972,-169 696.61,-169 696.61,-169"/>
<polygon fill="black" stroke="black" points="696.61,-165.5 686.61,-169 696.61,-172.5 696.61,-165.5"/>
</g>
</g>
</svg>
