<?xml version="1.0" encoding="UTF-8" standalone="no"?>
<!DOCTYPE svg PUBLIC "-//W3C//DTD SVG 1.1//EN"
 "http://www.w3.org/Graphics/SVG/1.1/DTD/svg11.dtd">
<!-- Generated by graphviz version 2.40.1 (20161225.0304)
 -->
<!-- Title: dependencies Pages: 1 -->
<svg width="1247pt" height="211pt"
 viewBox="0.00 0.00 1247.00 211.00" xmlns="http://www.w3.org/2000/svg" xmlns:xlink="http://www.w3.org/1999/xlink">
<g id="graph0" class="graph" transform="scale(1 1) rotate(0) translate(4 207)">
<title>dependencies</title>
<polygon fill="#ffffff" stroke="transparent" points="-4,4 -4,-207 1243,-207 1243,4 -4,4"/>
<text text-anchor="start" x="598.5091" y="-42.4" font-family="sans-serif" font-weight="bold" font-size="14.00" fill="#000000">Legend</text>
<polygon fill="#ffffb3" stroke="transparent" points="385.5,-10 385.5,-30 405.5,-30 405.5,-10 385.5,-10"/>
<text text-anchor="start" x="409.129" y="-15.4" font-family="sans-serif" font-size="14.00" fill="#000000"> &#160;Declarations</text>
<polygon fill="#8dd3c7" stroke="transparent" points="498.5,-10 498.5,-30 518.5,-30 518.5,-10 498.5,-10"/>
<text text-anchor="start" x="522.2251" y="-15.4" font-family="sans-serif" font-size="14.00" fill="#000000"> &#160;Module</text>
<polygon fill="#80b1d3" stroke="transparent" points="584.5,-10 584.5,-30 604.5,-30 604.5,-10 584.5,-10"/>
<text text-anchor="start" x="608.2812" y="-15.4" font-family="sans-serif" font-size="14.00" fill="#000000"> &#160;Bootstrap</text>
<polygon fill="#fdb462" stroke="transparent" points="681.5,-10 681.5,-30 701.5,-30 701.5,-10 681.5,-10"/>
<text text-anchor="start" x="705.1732" y="-15.4" font-family="sans-serif" font-size="14.00" fill="#000000"> &#160;Providers</text>
<polygon fill="#fb8072" stroke="transparent" points="777.5,-10 777.5,-30 797.5,-30 797.5,-10 777.5,-10"/>
<text text-anchor="start" x="801.2258" y="-15.4" font-family="sans-serif" font-size="14.00" fill="#000000"> &#160;Exports</text>
<g id="clust1" class="cluster">
<title>cluster_EditionViewModule</title>
<polygon fill="none" stroke="#000000" stroke-dasharray="1,5" points="8,-70 8,-195 1231,-195 1231,-70 8,-70"/>
</g>
<g id="clust2" class="cluster">
<title>cluster_EditionViewModule_declarations</title>
<polygon fill="none" stroke="#000000" points="332,-78 332,-130 1223,-130 1223,-78 332,-78"/>
</g>
<g id="clust8" class="cluster">
<title>cluster_EditionViewModule_imports</title>
<polygon fill="none" stroke="#000000" points="16,-78 16,-130 324,-130 324,-78 16,-78"/>
</g>
<!-- EditionOverviewComponent -->
<g id="node1" class="node">
<title>EditionOverviewComponent</title>
<polygon fill="#ffffb3" stroke="#000000" points="1214.7506,-122 1037.2494,-122 1037.2494,-86 1214.7506,-86 1214.7506,-122"/>
<text text-anchor="middle" x="1126" y="-99.8" font-family="Times,serif" font-size="14.00" fill="#000000">EditionOverviewComponent</text>
</g>
<!-- EditionViewModule -->
<g id="node6" class="node">
<title>EditionViewModule</title>
<polygon fill="#8dd3c7" stroke="#000000" points="651.5926,-187 648.5926,-191 627.5926,-191 624.5926,-187 520.4074,-187 520.4074,-151 651.5926,-151 651.5926,-187"/>
<text text-anchor="middle" x="586" y="-164.8" font-family="Times,serif" font-size="14.00" fill="#000000">EditionViewModule</text>
</g>
<!-- EditionOverviewComponent&#45;&gt;EditionViewModule -->
<g id="edge1" class="edge">
<title>EditionOverviewComponent&#45;&gt;EditionViewModule</title>
<path fill="none" stroke="#000000" d="M1126,-122.2921C1126,-144.2057 1126,-178 1126,-178 1126,-178 661.6747,-178 661.6747,-178"/>
<polygon fill="#000000" stroke="#000000" points="661.6748,-174.5001 651.6747,-178 661.6747,-181.5001 661.6748,-174.5001"/>
</g>
<!-- EditionSectionComponent -->
<g id="node2" class="node">
<title>EditionSectionComponent</title>
<polygon fill="#ffffb3" stroke="#000000" points="1019.0504,-122 854.9496,-122 854.9496,-86 1019.0504,-86 1019.0504,-122"/>
<text text-anchor="middle" x="937" y="-99.8" font-family="Times,serif" font-size="14.00" fill="#000000">EditionSectionComponent</text>
</g>
<!-- EditionSectionComponent&#45;&gt;EditionViewModule -->
<g id="edge2" class="edge">
<title>EditionSectionComponent&#45;&gt;EditionViewModule</title>
<path fill="none" stroke="#000000" d="M937,-122.1061C937,-141.3391 937,-169 937,-169 937,-169 661.6087,-169 661.6087,-169"/>
<polygon fill="#000000" stroke="#000000" points="661.6087,-165.5001 651.6087,-169 661.6086,-172.5001 661.6087,-165.5001"/>
</g>
<!-- EditionSeriesComponent -->
<g id="node3" class="node">
<title>EditionSeriesComponent</title>
<polygon fill="#ffffb3" stroke="#000000" points="836.2646,-122 679.7354,-122 679.7354,-86 836.2646,-86 836.2646,-122"/>
<text text-anchor="middle" x="758" y="-99.8" font-family="Times,serif" font-size="14.00" fill="#000000">EditionSeriesComponent</text>
</g>
<!-- EditionSeriesComponent&#45;&gt;EditionViewModule -->
<g id="edge3" class="edge">
<title>EditionSeriesComponent&#45;&gt;EditionViewModule</title>
<path fill="none" stroke="#000000" d="M758,-122.027C758,-138.3976 758,-160 758,-160 758,-160 662.0078,-160 662.0078,-160"/>
<polygon fill="#000000" stroke="#000000" points="662.0078,-156.5001 652.0078,-160 662.0077,-163.5001 662.0078,-156.5001"/>
</g>
<!-- EditionTypeComponent -->
<g id="node4" class="node">
<title>EditionTypeComponent</title>
<polygon fill="#ffffb3" stroke="#000000" points="661.8243,-122 510.1757,-122 510.1757,-86 661.8243,-86 661.8243,-122"/>
<text text-anchor="middle" x="586" y="-99.8" font-family="Times,serif" font-size="14.00" fill="#000000">EditionTypeComponent</text>
</g>
<!-- EditionTypeComponent&#45;&gt;EditionViewModule -->
<g id="edge4" class="edge">
<title>EditionTypeComponent&#45;&gt;EditionViewModule</title>
<path fill="none" stroke="#000000" d="M586,-122.1061C586,-122.1061 586,-140.991 586,-140.991"/>
<polygon fill="#000000" stroke="#000000" points="582.5001,-140.9909 586,-150.991 589.5001,-140.991 582.5001,-140.9909"/>
</g>
<!-- EditionViewComponent -->
<g id="node5" class="node">
<title>EditionViewComponent</title>
<polygon fill="#ffffb3" stroke="#000000" points="492.3753,-122 339.6247,-122 339.6247,-86 492.3753,-86 492.3753,-122"/>
<text text-anchor="middle" x="416" y="-99.8" font-family="Times,serif" font-size="14.00" fill="#000000">EditionViewComponent</text>
</g>
<!-- EditionViewComponent&#45;&gt;EditionViewModule -->
<g id="edge5" class="edge">
<title>EditionViewComponent&#45;&gt;EditionViewModule</title>
<path fill="none" stroke="#000000" d="M416,-122.027C416,-138.3976 416,-160 416,-160 416,-160 510.2736,-160 510.2736,-160"/>
<polygon fill="#000000" stroke="#000000" points="510.2736,-163.5001 520.2736,-160 510.2735,-156.5001 510.2736,-163.5001"/>
</g>
<!-- EditionViewRoutingModule -->
<g id="node7" class="node">
<title>EditionViewRoutingModule</title>
<polygon fill="#8dd3c7" stroke="#000000" points="316.2105,-122 313.2105,-126 292.2105,-126 289.2105,-122 139.7895,-122 139.7895,-86 316.2105,-86 316.2105,-122"/>
<text text-anchor="middle" x="228" y="-99.8" font-family="Times,serif" font-size="14.00" fill="#000000">EditionViewRoutingModule</text>
</g>
<!-- EditionViewRoutingModule&#45;&gt;EditionViewModule -->
<g id="edge6" class="edge">
<title>EditionViewRoutingModule&#45;&gt;EditionViewModule</title>
<path fill="none" stroke="#000000" d="M228,-122.1061C228,-141.3391 228,-169 228,-169 228,-169 510.3373,-169 510.3373,-169"/>
<polygon fill="#000000" stroke="#000000" points="510.3373,-172.5001 520.3373,-169 510.3372,-165.5001 510.3373,-172.5001"/>
</g>
<!-- SharedModule -->
<g id="node8" class="node">
<title>SharedModule</title>
<polygon fill="#8dd3c7" stroke="#000000" points="122.4231,-122 119.4231,-126 98.4231,-126 95.4231,-122 23.5769,-122 23.5769,-86 122.4231,-86 122.4231,-122"/>
<text text-anchor="middle" x="73" y="-99.8" font-family="Times,serif" font-size="14.00" fill="#000000">SharedModule</text>
</g>
<!-- SharedModule&#45;&gt;EditionViewModule -->
<g id="edge7" class="edge">
<title>SharedModule&#45;&gt;EditionViewModule</title>
<path fill="none" stroke="#000000" d="M73,-122.2921C73,-144.2057 73,-178 73,-178 73,-178 510.246,-178 510.246,-178"/>
<polygon fill="#000000" stroke="#000000" points="510.246,-181.5001 520.246,-178 510.2459,-174.5001 510.246,-181.5001"/>
</g>
</g>
</svg>
