<?xml version="1.0" encoding="UTF-8" standalone="no"?>
<!DOCTYPE svg PUBLIC "-//W3C//DTD SVG 1.1//EN"
 "http://www.w3.org/Graphics/SVG/1.1/DTD/svg11.dtd">
<!-- Generated by graphviz version 5.0.0 (20220707.1540)
 -->
<!-- Title: dependencies Pages: 1 -->
<svg width="2291pt" height="174pt"
 viewBox="0.00 0.00 2291.00 173.80" xmlns="http://www.w3.org/2000/svg" xmlns:xlink="http://www.w3.org/1999/xlink">
<g id="graph0" class="graph" transform="scale(1 1) rotate(0) translate(4 169.8)">
<title>dependencies</title>
<polygon fill="white" stroke="transparent" points="-4,4 -4,-169.8 2287,-169.8 2287,4 -4,4"/>
<text text-anchor="middle" x="1141.5" y="-8.2" font-family="sans-serif" font-size="14.00">dependencies</text>
<g id="clust1" class="cluster">
<title>cluster_EditionViewModule</title>
<polygon fill="none" stroke="black" stroke-dasharray="1,5" points="8,-32.8 8,-157.8 2275,-157.8 2275,-32.8 8,-32.8"/>
</g>
<g id="clust2" class="cluster">
<title>cluster_EditionViewModule_declarations</title>
<polygon fill="none" stroke="black" points="332,-40.8 332,-92.8 2267,-92.8 2267,-40.8 332,-40.8"/>
</g>
<g id="clust13" class="cluster">
<title>cluster_EditionViewModule_imports</title>
<polygon fill="none" stroke="black" points="16,-40.8 16,-92.8 324,-92.8 324,-40.8 16,-40.8"/>
</g>
<!-- EditionComplexCardComponent -->
<g id="node1" class="node">
<title>EditionComplexCardComponent</title>
<polygon fill="#ffffb3" stroke="black" points="2258.6,-84.8 2057.4,-84.8 2057.4,-48.8 2258.6,-48.8 2258.6,-84.8"/>
<text text-anchor="middle" x="2158" y="-62.6" font-family="Times,serif" font-size="14.00">EditionComplexCardComponent</text>
</g>
<!-- EditionViewModule -->
<g id="node11" class="node">
<title>EditionViewModule</title>
<polygon fill="#8dd3c7" stroke="black" points="1122.6,-149.8 1119.6,-153.8 1098.6,-153.8 1095.6,-149.8 991.4,-149.8 991.4,-113.8 1122.6,-113.8 1122.6,-149.8"/>
<text text-anchor="middle" x="1057" y="-127.6" font-family="Times,serif" font-size="14.00">EditionViewModule</text>
</g>
<!-- EditionComplexCardComponent&#45;&gt;EditionViewModule -->
<g id="edge1" class="edge">
<title>EditionComplexCardComponent&#45;&gt;EditionViewModule</title>
<path fill="none" stroke="black" d="M2158,-84.89C2158,-107.93 2158,-144.8 2158,-144.8 2158,-144.8 1132.58,-144.8 1132.58,-144.8"/>
<polygon fill="black" stroke="black" points="1132.58,-141.3 1122.58,-144.8 1132.58,-148.3 1132.58,-141.3"/>
</g>
<!-- EditionComplexComponent -->
<g id="node2" class="node">
<title>EditionComplexComponent</title>
<polygon fill="#ffffb3" stroke="black" points="2039.88,-84.8 1866.12,-84.8 1866.12,-48.8 2039.88,-48.8 2039.88,-84.8"/>
<text text-anchor="middle" x="1953" y="-62.6" font-family="Times,serif" font-size="14.00">EditionComplexComponent</text>
</g>
<!-- EditionComplexComponent&#45;&gt;EditionViewModule -->
<g id="edge2" class="edge">
<title>EditionComplexComponent&#45;&gt;EditionViewModule</title>
<path fill="none" stroke="black" d="M1953,-85.08C1953,-106.12 1953,-137.8 1953,-137.8 1953,-137.8 1132.89,-137.8 1132.89,-137.8"/>
<polygon fill="black" stroke="black" points="1132.89,-134.3 1122.89,-137.8 1132.88,-141.3 1132.89,-134.3"/>
</g>
<!-- EditionDetailNavComponent -->
<g id="node3" class="node">
<title>EditionDetailNavComponent</title>
<polygon fill="#ffffb3" stroke="black" points="1848.08,-84.8 1667.92,-84.8 1667.92,-48.8 1848.08,-48.8 1848.08,-84.8"/>
<text text-anchor="middle" x="1758" y="-62.6" font-family="Times,serif" font-size="14.00">EditionDetailNavComponent</text>
</g>
<!-- EditionDetailNavComponent&#45;&gt;EditionViewModule -->
<g id="edge3" class="edge">
<title>EditionDetailNavComponent&#45;&gt;EditionViewModule</title>
<path fill="none" stroke="black" d="M1758,-84.91C1758,-104.14 1758,-131.8 1758,-131.8 1758,-131.8 1132.63,-131.8 1132.63,-131.8"/>
<polygon fill="black" stroke="black" points="1132.63,-128.3 1122.63,-131.8 1132.63,-135.3 1132.63,-128.3"/>
</g>
<!-- EditionJumbotronComponent -->
<g id="node4" class="node">
<title>EditionJumbotronComponent</title>
<polygon fill="#ffffb3" stroke="black" points="1650.44,-84.8 1467.56,-84.8 1467.56,-48.8 1650.44,-48.8 1650.44,-84.8"/>
<text text-anchor="middle" x="1559" y="-62.6" font-family="Times,serif" font-size="14.00">EditionJumbotronComponent</text>
</g>
<!-- EditionJumbotronComponent&#45;&gt;EditionViewModule -->
<g id="edge4" class="edge">
<title>EditionJumbotronComponent&#45;&gt;EditionViewModule</title>
<path fill="none" stroke="black" d="M1559,-84.82C1559,-102.17 1559,-125.8 1559,-125.8 1559,-125.8 1132.63,-125.8 1132.63,-125.8"/>
<polygon fill="black" stroke="black" points="1132.63,-122.3 1122.63,-125.8 1132.63,-129.3 1132.63,-122.3"/>
</g>
<!-- EditionSectionDetailComponent -->
<g id="node5" class="node">
<title>EditionSectionDetailComponent</title>
<polygon fill="#ffffb3" stroke="black" points="1449.25,-84.8 1250.75,-84.8 1250.75,-48.8 1449.25,-48.8 1449.25,-84.8"/>
<text text-anchor="middle" x="1350" y="-62.6" font-family="Times,serif" font-size="14.00">EditionSectionDetailComponent</text>
</g>
<!-- EditionSectionDetailComponent&#45;&gt;EditionViewModule -->
<g id="edge5" class="edge">
<title>EditionSectionDetailComponent&#45;&gt;EditionViewModule</title>
<path fill="none" stroke="black" d="M1350,-85.04C1350,-100.37 1350,-119.8 1350,-119.8 1350,-119.8 1132.75,-119.8 1132.75,-119.8"/>
<polygon fill="black" stroke="black" points="1132.75,-116.3 1122.75,-119.8 1132.75,-123.3 1132.75,-116.3"/>
</g>
<!-- EditionSectionsComponent -->
<g id="node6" class="node">
<title>EditionSectionsComponent</title>
<polygon fill="#ffffb3" stroke="black" points="1232.99,-84.8 1063.01,-84.8 1063.01,-48.8 1232.99,-48.8 1232.99,-84.8"/>
<text text-anchor="middle" x="1148" y="-62.6" font-family="Times,serif" font-size="14.00">EditionSectionsComponent</text>
</g>
<!-- EditionSectionsComponent&#45;&gt;EditionViewModule -->
<g id="edge6" class="edge">
<title>EditionSectionsComponent&#45;&gt;EditionViewModule</title>
<path fill="none" stroke="black" d="M1092.78,-84.91C1092.78,-84.91 1092.78,-103.79 1092.78,-103.79"/>
<polygon fill="black" stroke="black" points="1089.28,-103.79 1092.78,-113.79 1096.28,-103.79 1089.28,-103.79"/>
</g>
<!-- EditionSeriesComponent -->
<g id="node7" class="node">
<title>EditionSeriesComponent</title>
<polygon fill="#ffffb3" stroke="black" points="1045.27,-84.8 888.73,-84.8 888.73,-48.8 1045.27,-48.8 1045.27,-84.8"/>
<text text-anchor="middle" x="967" y="-62.6" font-family="Times,serif" font-size="14.00">EditionSeriesComponent</text>
</g>
<!-- EditionSeriesComponent&#45;&gt;EditionViewModule -->
<g id="edge7" class="edge">
<title>EditionSeriesComponent&#45;&gt;EditionViewModule</title>
<path fill="none" stroke="black" d="M1018.42,-84.91C1018.42,-84.91 1018.42,-103.79 1018.42,-103.79"/>
<polygon fill="black" stroke="black" points="1014.92,-103.79 1018.42,-113.79 1021.92,-103.79 1014.92,-103.79"/>
</g>
<!-- EditionSeriesDetailComponent -->
<g id="node8" class="node">
<title>EditionSeriesDetailComponent</title>
<polygon fill="#ffffb3" stroke="black" points="870.47,-84.8 679.53,-84.8 679.53,-48.8 870.47,-48.8 870.47,-84.8"/>
<text text-anchor="middle" x="775" y="-62.6" font-family="Times,serif" font-size="14.00">EditionSeriesDetailComponent</text>
</g>
<!-- EditionSeriesDetailComponent&#45;&gt;EditionViewModule -->
<g id="edge8" class="edge">
<title>EditionSeriesDetailComponent&#45;&gt;EditionViewModule</title>
<path fill="none" stroke="black" d="M775,-85.04C775,-100.37 775,-119.8 775,-119.8 775,-119.8 981.24,-119.8 981.24,-119.8"/>
<polygon fill="black" stroke="black" points="981.24,-123.3 991.24,-119.8 981.24,-116.3 981.24,-123.3"/>
</g>
<!-- EditionTypeComponent -->
<g id="node9" class="node">
<title>EditionTypeComponent</title>
<polygon fill="#ffffb3" stroke="black" points="661.82,-84.8 510.18,-84.8 510.18,-48.8 661.82,-48.8 661.82,-84.8"/>
<text text-anchor="middle" x="586" y="-62.6" font-family="Times,serif" font-size="14.00">EditionTypeComponent</text>
</g>
<!-- EditionTypeComponent&#45;&gt;EditionViewModule -->
<g id="edge9" class="edge">
<title>EditionTypeComponent&#45;&gt;EditionViewModule</title>
<path fill="none" stroke="black" d="M586,-84.82C586,-102.17 586,-125.8 586,-125.8 586,-125.8 981.01,-125.8 981.01,-125.8"/>
<polygon fill="black" stroke="black" points="981.01,-129.3 991.01,-125.8 981.01,-122.3 981.01,-129.3"/>
</g>
<!-- EditionViewComponent -->
<g id="node10" class="node">
<title>EditionViewComponent</title>
<polygon fill="#ffffb3" stroke="black" points="492.38,-84.8 339.62,-84.8 339.62,-48.8 492.38,-48.8 492.38,-84.8"/>
<text text-anchor="middle" x="416" y="-62.6" font-family="Times,serif" font-size="14.00">EditionViewComponent</text>
</g>
<!-- EditionViewComponent&#45;&gt;EditionViewModule -->
<g id="edge10" class="edge">
<title>EditionViewComponent&#45;&gt;EditionViewModule</title>
<path fill="none" stroke="black" d="M416,-84.91C416,-104.14 416,-131.8 416,-131.8 416,-131.8 981.41,-131.8 981.41,-131.8"/>
<polygon fill="black" stroke="black" points="981.41,-135.3 991.41,-131.8 981.41,-128.3 981.41,-135.3"/>
</g>
<!-- EditionViewRoutingModule -->
<g id="node12" class="node">
<title>EditionViewRoutingModule</title>
<polygon fill="#8dd3c7" stroke="black" points="316.21,-84.8 313.21,-88.8 292.21,-88.8 289.21,-84.8 139.79,-84.8 139.79,-48.8 316.21,-48.8 316.21,-84.8"/>
<text text-anchor="middle" x="228" y="-62.6" font-family="Times,serif" font-size="14.00">EditionViewRoutingModule</text>
</g>
<!-- EditionViewRoutingModule&#45;&gt;EditionViewModule -->
<g id="edge11" class="edge">
<title>EditionViewRoutingModule&#45;&gt;EditionViewModule</title>
<path fill="none" stroke="black" d="M228,-85.08C228,-106.12 228,-137.8 228,-137.8 228,-137.8 981.26,-137.8 981.26,-137.8"/>
<polygon fill="black" stroke="black" points="981.26,-141.3 991.26,-137.8 981.26,-134.3 981.26,-141.3"/>
</g>
<!-- SharedModule -->
<g id="node13" class="node">
<title>SharedModule</title>
<polygon fill="#8dd3c7" stroke="black" points="122.43,-84.8 119.43,-88.8 98.43,-88.8 95.43,-84.8 23.57,-84.8 23.57,-48.8 122.43,-48.8 122.43,-84.8"/>
<text text-anchor="middle" x="73" y="-62.6" font-family="Times,serif" font-size="14.00">SharedModule</text>
</g>
<!-- SharedModule&#45;&gt;EditionViewModule -->
<g id="edge12" class="edge">
<title>SharedModule&#45;&gt;EditionViewModule</title>
<path fill="none" stroke="black" d="M73,-84.89C73,-107.93 73,-144.8 73,-144.8 73,-144.8 981.29,-144.8 981.29,-144.8"/>
<polygon fill="black" stroke="black" points="981.29,-148.3 991.29,-144.8 981.29,-141.3 981.29,-148.3"/>
</g>
</g>
</svg>
