<?xml version="1.0" encoding="UTF-8" standalone="no"?>
<!DOCTYPE svg PUBLIC "-//W3C//DTD SVG 1.1//EN"
 "http://www.w3.org/Graphics/SVG/1.1/DTD/svg11.dtd">
<!-- Generated by graphviz version 2.40.1 (20161225.0304)
 -->
<!-- Title: dependencies Pages: 1 -->
<svg width="2471pt" height="211pt"
 viewBox="0.00 0.00 2471.00 211.00" xmlns="http://www.w3.org/2000/svg" xmlns:xlink="http://www.w3.org/1999/xlink">
<g id="graph0" class="graph" transform="scale(1 1) rotate(0) translate(4 207)">
<title>dependencies</title>
<polygon fill="#ffffff" stroke="transparent" points="-4,4 -4,-207 2467,-207 2467,4 -4,4"/>
<text text-anchor="start" x="1210.5091" y="-42.4" font-family="sans-serif" font-weight="bold" font-size="14.00" fill="#000000">Legend</text>
<polygon fill="#ffffb3" stroke="transparent" points="997.5,-10 997.5,-30 1017.5,-30 1017.5,-10 997.5,-10"/>
<text text-anchor="start" x="1021.129" y="-15.4" font-family="sans-serif" font-size="14.00" fill="#000000"> &#160;Declarations</text>
<polygon fill="#8dd3c7" stroke="transparent" points="1110.5,-10 1110.5,-30 1130.5,-30 1130.5,-10 1110.5,-10"/>
<text text-anchor="start" x="1134.2251" y="-15.4" font-family="sans-serif" font-size="14.00" fill="#000000"> &#160;Module</text>
<polygon fill="#80b1d3" stroke="transparent" points="1196.5,-10 1196.5,-30 1216.5,-30 1216.5,-10 1196.5,-10"/>
<text text-anchor="start" x="1220.2812" y="-15.4" font-family="sans-serif" font-size="14.00" fill="#000000"> &#160;Bootstrap</text>
<polygon fill="#fdb462" stroke="transparent" points="1293.5,-10 1293.5,-30 1313.5,-30 1313.5,-10 1293.5,-10"/>
<text text-anchor="start" x="1317.1732" y="-15.4" font-family="sans-serif" font-size="14.00" fill="#000000"> &#160;Providers</text>
<polygon fill="#fb8072" stroke="transparent" points="1389.5,-10 1389.5,-30 1409.5,-30 1409.5,-10 1389.5,-10"/>
<text text-anchor="start" x="1413.2258" y="-15.4" font-family="sans-serif" font-size="14.00" fill="#000000"> &#160;Exports</text>
<g id="clust1" class="cluster">
<title>cluster_EditionViewModule</title>
<polygon fill="none" stroke="#000000" stroke-dasharray="1,5" points="8,-70 8,-195 2455,-195 2455,-70 8,-70"/>
</g>
<g id="clust2" class="cluster">
<title>cluster_EditionViewModule_declarations</title>
<polygon fill="none" stroke="#000000" points="900,-78 900,-130 2447,-130 2447,-78 900,-78"/>
</g>
<g id="clust12" class="cluster">
<title>cluster_EditionViewModule_imports</title>
<polygon fill="none" stroke="#000000" points="16,-78 16,-130 892,-130 892,-78 16,-78"/>
</g>
<!-- EditionDetailComponent -->
<g id="node1" class="node">
<title>EditionDetailComponent</title>
<polygon fill="#ffffb3" stroke="#000000" points="2439.2646,-122 2282.7354,-122 2282.7354,-86 2439.2646,-86 2439.2646,-122"/>
<text text-anchor="middle" x="2361" y="-99.8" font-family="Times,serif" font-size="14.00" fill="#000000">EditionDetailComponent</text>
</g>
<!-- EditionViewModule -->
<g id="node10" class="node">
<title>EditionViewModule</title>
<polygon fill="#8dd3c7" stroke="#000000" points="1187.5926,-187 1184.5926,-191 1163.5926,-191 1160.5926,-187 1056.4074,-187 1056.4074,-151 1187.5926,-151 1187.5926,-187"/>
<text text-anchor="middle" x="1122" y="-164.8" font-family="Times,serif" font-size="14.00" fill="#000000">EditionViewModule</text>
</g>
<!-- EditionDetailComponent&#45;&gt;EditionViewModule -->
<g id="edge1" class="edge">
<title>EditionDetailComponent&#45;&gt;EditionViewModule</title>
<path fill="none" stroke="#000000" d="M2361,-122.3228C2361,-145.6602 2361,-183 2361,-183 2361,-183 1197.7392,-183 1197.7392,-183"/>
<polygon fill="#000000" stroke="#000000" points="1197.7393,-179.5001 1187.7392,-183 1197.7392,-186.5001 1197.7393,-179.5001"/>
</g>
<!-- EditionGraphComponent -->
<g id="node2" class="node">
<title>EditionGraphComponent</title>
<polygon fill="#ffffb3" stroke="#000000" points="2264.5393,-122 2107.4607,-122 2107.4607,-86 2264.5393,-86 2264.5393,-122"/>
<text text-anchor="middle" x="2186" y="-99.8" font-family="Times,serif" font-size="14.00" fill="#000000">EditionGraphComponent</text>
</g>
<!-- EditionGraphComponent&#45;&gt;EditionViewModule -->
<g id="edge2" class="edge">
<title>EditionGraphComponent&#45;&gt;EditionViewModule</title>
<path fill="none" stroke="#000000" d="M2186,-122.2921C2186,-144.2057 2186,-178 2186,-178 2186,-178 1197.755,-178 1197.755,-178"/>
<polygon fill="#000000" stroke="#000000" points="1197.755,-174.5001 1187.755,-178 1197.755,-181.5001 1197.755,-174.5001"/>
</g>
<!-- EditionIntroComponent -->
<g id="node3" class="node">
<title>EditionIntroComponent</title>
<polygon fill="#ffffb3" stroke="#000000" points="2088.7688,-122 1939.2312,-122 1939.2312,-86 2088.7688,-86 2088.7688,-122"/>
<text text-anchor="middle" x="2014" y="-99.8" font-family="Times,serif" font-size="14.00" fill="#000000">EditionIntroComponent</text>
</g>
<!-- EditionIntroComponent&#45;&gt;EditionViewModule -->
<g id="edge3" class="edge">
<title>EditionIntroComponent&#45;&gt;EditionViewModule</title>
<path fill="none" stroke="#000000" d="M2014,-122.0267C2014,-142.7672 2014,-174 2014,-174 2014,-174 1197.5909,-174 1197.5909,-174"/>
<polygon fill="#000000" stroke="#000000" points="1197.5909,-170.5001 1187.5909,-174 1197.5909,-177.5001 1197.5909,-170.5001"/>
</g>
<!-- EditionOverviewComponent -->
<g id="node4" class="node">
<title>EditionOverviewComponent</title>
<polygon fill="#ffffb3" stroke="#000000" points="1920.7506,-122 1743.2494,-122 1743.2494,-86 1920.7506,-86 1920.7506,-122"/>
<text text-anchor="middle" x="1832" y="-99.8" font-family="Times,serif" font-size="14.00" fill="#000000">EditionOverviewComponent</text>
</g>
<!-- EditionOverviewComponent&#45;&gt;EditionViewModule -->
<g id="edge4" class="edge">
<title>EditionOverviewComponent&#45;&gt;EditionViewModule</title>
<path fill="none" stroke="#000000" d="M1832,-122.1061C1832,-141.3391 1832,-169 1832,-169 1832,-169 1197.8397,-169 1197.8397,-169"/>
<polygon fill="#000000" stroke="#000000" points="1197.8397,-165.5001 1187.8397,-169 1197.8396,-172.5001 1197.8397,-165.5001"/>
</g>
<!-- EditionSectionComponent -->
<g id="node5" class="node">
<title>EditionSectionComponent</title>
<polygon fill="#ffffb3" stroke="#000000" points="1725.0504,-122 1560.9496,-122 1560.9496,-86 1725.0504,-86 1725.0504,-122"/>
<text text-anchor="middle" x="1643" y="-99.8" font-family="Times,serif" font-size="14.00" fill="#000000">EditionSectionComponent</text>
</g>
<!-- EditionSectionComponent&#45;&gt;EditionViewModule -->
<g id="edge5" class="edge">
<title>EditionSectionComponent&#45;&gt;EditionViewModule</title>
<path fill="none" stroke="#000000" d="M1643,-122.302C1643,-140.2699 1643,-165 1643,-165 1643,-165 1197.721,-165 1197.721,-165"/>
<polygon fill="#000000" stroke="#000000" points="1197.7211,-161.5001 1187.721,-165 1197.721,-168.5001 1197.7211,-161.5001"/>
</g>
<!-- EditionSeriesComponent -->
<g id="node6" class="node">
<title>EditionSeriesComponent</title>
<polygon fill="#ffffb3" stroke="#000000" points="1542.2646,-122 1385.7354,-122 1385.7354,-86 1542.2646,-86 1542.2646,-122"/>
<text text-anchor="middle" x="1464" y="-99.8" font-family="Times,serif" font-size="14.00" fill="#000000">EditionSeriesComponent</text>
</g>
<!-- EditionSeriesComponent&#45;&gt;EditionViewModule -->
<g id="edge6" class="edge">
<title>EditionSeriesComponent&#45;&gt;EditionViewModule</title>
<path fill="none" stroke="#000000" d="M1464,-122.027C1464,-138.3976 1464,-160 1464,-160 1464,-160 1197.941,-160 1197.941,-160"/>
<polygon fill="#000000" stroke="#000000" points="1197.9411,-156.5001 1187.941,-160 1197.941,-163.5001 1197.9411,-156.5001"/>
</g>
<!-- EditionTypeComponent -->
<g id="node7" class="node">
<title>EditionTypeComponent</title>
<polygon fill="#ffffb3" stroke="#000000" points="1367.8243,-122 1216.1757,-122 1216.1757,-86 1367.8243,-86 1367.8243,-122"/>
<text text-anchor="middle" x="1292" y="-99.8" font-family="Times,serif" font-size="14.00" fill="#000000">EditionTypeComponent</text>
</g>
<!-- EditionTypeComponent&#45;&gt;EditionViewModule -->
<g id="edge7" class="edge">
<title>EditionTypeComponent&#45;&gt;EditionViewModule</title>
<path fill="none" stroke="#000000" d="M1292,-122.1871C1292,-137.1824 1292,-156 1292,-156 1292,-156 1197.7264,-156 1197.7264,-156"/>
<polygon fill="#000000" stroke="#000000" points="1197.7265,-152.5001 1187.7264,-156 1197.7264,-159.5001 1197.7265,-152.5001"/>
</g>
<!-- EditionViewComponent -->
<g id="node8" class="node">
<title>EditionViewComponent</title>
<polygon fill="#ffffb3" stroke="#000000" points="1198.3753,-122 1045.6247,-122 1045.6247,-86 1198.3753,-86 1198.3753,-122"/>
<text text-anchor="middle" x="1122" y="-99.8" font-family="Times,serif" font-size="14.00" fill="#000000">EditionViewComponent</text>
</g>
<!-- EditionViewComponent&#45;&gt;EditionViewModule -->
<g id="edge8" class="edge">
<title>EditionViewComponent&#45;&gt;EditionViewModule</title>
<path fill="none" stroke="#000000" d="M1122,-122.1061C1122,-122.1061 1122,-140.991 1122,-140.991"/>
<polygon fill="#000000" stroke="#000000" points="1118.5001,-140.9909 1122,-150.991 1125.5001,-140.991 1118.5001,-140.9909"/>
</g>
<!-- ReportComponent -->
<g id="node9" class="node">
<title>ReportComponent</title>
<polygon fill="#ffffb3" stroke="#000000" points="1027.9356,-122 908.0644,-122 908.0644,-86 1027.9356,-86 1027.9356,-122"/>
<text text-anchor="middle" x="968" y="-99.8" font-family="Times,serif" font-size="14.00" fill="#000000">ReportComponent</text>
</g>
<!-- ReportComponent&#45;&gt;EditionViewModule -->
<g id="edge9" class="edge">
<title>ReportComponent&#45;&gt;EditionViewModule</title>
<path fill="none" stroke="#000000" d="M968,-122.1871C968,-137.1824 968,-156 968,-156 968,-156 1046.2434,-156 1046.2434,-156"/>
<polygon fill="#000000" stroke="#000000" points="1046.2435,-159.5001 1056.2434,-156 1046.2434,-152.5001 1046.2435,-159.5001"/>
</g>
<!-- EditionDetailModule -->
<g id="node11" class="node">
<title>EditionDetailModule</title>
<polygon fill="#8dd3c7" stroke="#000000" points="884.4818,-122 881.4818,-126 860.4818,-126 857.4818,-122 749.5182,-122 749.5182,-86 884.4818,-86 884.4818,-122"/>
<text text-anchor="middle" x="817" y="-99.8" font-family="Times,serif" font-size="14.00" fill="#000000">EditionDetailModule</text>
</g>
<!-- EditionDetailModule&#45;&gt;EditionViewModule -->
<g id="edge10" class="edge">
<title>EditionDetailModule&#45;&gt;EditionViewModule</title>
<path fill="none" stroke="#000000" d="M817,-122.027C817,-138.3976 817,-160 817,-160 817,-160 1046.195,-160 1046.195,-160"/>
<polygon fill="#000000" stroke="#000000" points="1046.1951,-163.5001 1056.195,-160 1046.195,-156.5001 1046.1951,-163.5001"/>
</g>
<!-- EditionGraphModule -->
<g id="node12" class="node">
<title>EditionGraphModule</title>
<polygon fill="#8dd3c7" stroke="#000000" points="731.7562,-122 728.7562,-126 707.7562,-126 704.7562,-122 596.2438,-122 596.2438,-86 731.7562,-86 731.7562,-122"/>
<text text-anchor="middle" x="664" y="-99.8" font-family="Times,serif" font-size="14.00" fill="#000000">EditionGraphModule</text>
</g>
<!-- EditionGraphModule&#45;&gt;EditionViewModule -->
<g id="edge11" class="edge">
<title>EditionGraphModule&#45;&gt;EditionViewModule</title>
<path fill="none" stroke="#000000" d="M664,-122.302C664,-140.2699 664,-165 664,-165 664,-165 1046.3798,-165 1046.3798,-165"/>
<polygon fill="#000000" stroke="#000000" points="1046.3798,-168.5001 1056.3798,-165 1046.3797,-161.5001 1046.3798,-168.5001"/>
</g>
<!-- EditionIntroModule -->
<g id="node13" class="node">
<title>EditionIntroModule</title>
<polygon fill="#8dd3c7" stroke="#000000" points="577.986,-122 574.986,-126 553.986,-126 550.986,-122 450.014,-122 450.014,-86 577.986,-86 577.986,-122"/>
<text text-anchor="middle" x="514" y="-99.8" font-family="Times,serif" font-size="14.00" fill="#000000">EditionIntroModule</text>
</g>
<!-- EditionIntroModule&#45;&gt;EditionViewModule -->
<g id="edge12" class="edge">
<title>EditionIntroModule&#45;&gt;EditionViewModule</title>
<path fill="none" stroke="#000000" d="M514,-122.1061C514,-141.3391 514,-169 514,-169 514,-169 1046.3557,-169 1046.3557,-169"/>
<polygon fill="#000000" stroke="#000000" points="1046.3557,-172.5001 1056.3557,-169 1046.3556,-165.5001 1046.3557,-172.5001"/>
</g>
<!-- EditionViewRoutingModule -->
<g id="node14" class="node">
<title>EditionViewRoutingModule</title>
<polygon fill="#8dd3c7" stroke="#000000" points="432.2105,-122 429.2105,-126 408.2105,-126 405.2105,-122 255.7895,-122 255.7895,-86 432.2105,-86 432.2105,-122"/>
<text text-anchor="middle" x="344" y="-99.8" font-family="Times,serif" font-size="14.00" fill="#000000">EditionViewRoutingModule</text>
</g>
<!-- EditionViewRoutingModule&#45;&gt;EditionViewModule -->
<g id="edge13" class="edge">
<title>EditionViewRoutingModule&#45;&gt;EditionViewModule</title>
<path fill="none" stroke="#000000" d="M344,-122.0267C344,-142.7672 344,-174 344,-174 344,-174 1046.3387,-174 1046.3387,-174"/>
<polygon fill="#000000" stroke="#000000" points="1046.3387,-177.5001 1056.3387,-174 1046.3386,-170.5001 1046.3387,-177.5001"/>
</g>
<!-- ReportModule -->
<g id="node15" class="node">
<title>ReportModule</title>
<polygon fill="#8dd3c7" stroke="#000000" points="237.6528,-122 234.6528,-126 213.6528,-126 210.6528,-122 140.3472,-122 140.3472,-86 237.6528,-86 237.6528,-122"/>
<text text-anchor="middle" x="189" y="-99.8" font-family="Times,serif" font-size="14.00" fill="#000000">ReportModule</text>
</g>
<!-- ReportModule&#45;&gt;EditionViewModule -->
<g id="edge14" class="edge">
<title>ReportModule&#45;&gt;EditionViewModule</title>
<path fill="none" stroke="#000000" d="M189,-122.2921C189,-144.2057 189,-178 189,-178 189,-178 1046.3933,-178 1046.3933,-178"/>
<polygon fill="#000000" stroke="#000000" points="1046.3933,-181.5001 1056.3933,-178 1046.3932,-174.5001 1046.3933,-181.5001"/>
</g>
<!-- SharedModule -->
<g id="node16" class="node">
<title>SharedModule</title>
<polygon fill="#8dd3c7" stroke="#000000" points="122.4231,-122 119.4231,-126 98.4231,-126 95.4231,-122 23.5769,-122 23.5769,-86 122.4231,-86 122.4231,-122"/>
<text text-anchor="middle" x="73" y="-99.8" font-family="Times,serif" font-size="14.00" fill="#000000">SharedModule</text>
</g>
<!-- SharedModule&#45;&gt;EditionViewModule -->
<g id="edge15" class="edge">
<title>SharedModule&#45;&gt;EditionViewModule</title>
<path fill="none" stroke="#000000" d="M73,-122.3228C73,-145.6602 73,-183 73,-183 73,-183 1046.3804,-183 1046.3804,-183"/>
<polygon fill="#000000" stroke="#000000" points="1046.3804,-186.5001 1056.3804,-183 1046.3803,-179.5001 1046.3804,-186.5001"/>
</g>
</g>
</svg>
