<?xml version="1.0" encoding="UTF-8" standalone="no"?>
<!DOCTYPE svg PUBLIC "-//W3C//DTD SVG 1.1//EN"
 "http://www.w3.org/Graphics/SVG/1.1/DTD/svg11.dtd">
<!-- Generated by graphviz version 2.47.3 (20210619.1520)
 -->
<!-- Title: dependencies Pages: 1 -->
<svg width="2072pt" height="174pt"
 viewBox="0.00 0.00 2072.00 173.80" xmlns="http://www.w3.org/2000/svg" xmlns:xlink="http://www.w3.org/1999/xlink">
<g id="graph0" class="graph" transform="scale(1 1) rotate(0) translate(4 169.8)">
<title>dependencies</title>
<polygon fill="white" stroke="transparent" points="-4,4 -4,-169.8 2068,-169.8 2068,4 -4,4"/>
<text text-anchor="middle" x="1032" y="-8.2" font-family="sans-serif" font-size="14.00">dependencies</text>
<g id="clust1" class="cluster">
<title>cluster_EditionViewModule</title>
<polygon fill="none" stroke="black" stroke-dasharray="1,5" points="8,-32.8 8,-157.8 2056,-157.8 2056,-32.8 8,-32.8"/>
</g>
<g id="clust12" class="cluster">
<title>cluster_EditionViewModule_imports</title>
<polygon fill="none" stroke="black" points="1740,-40.8 1740,-92.8 2048,-92.8 2048,-40.8 1740,-40.8"/>
</g>
<g id="clust2" class="cluster">
<title>cluster_EditionViewModule_declarations</title>
<polygon fill="none" stroke="black" points="16,-40.8 16,-92.8 1732,-92.8 1732,-40.8 16,-40.8"/>
</g>
<!-- EditionComplexComponent -->
<g id="node1" class="node">
<title>EditionComplexComponent</title>
<polygon fill="#ffffb3" stroke="black" points="1723.89,-84.8 1550.11,-84.8 1550.11,-48.8 1723.89,-48.8 1723.89,-84.8"/>
<text text-anchor="middle" x="1637" y="-62.6" font-family="Times,serif" font-size="14.00">EditionComplexComponent</text>
</g>
<!-- EditionViewModule -->
<g id="node10" class="node">
<title>EditionViewModule</title>
<polygon fill="#8dd3c7" stroke="black" points="1099.59,-149.8 1096.59,-153.8 1075.59,-153.8 1072.59,-149.8 968.41,-149.8 968.41,-113.8 1099.59,-113.8 1099.59,-149.8"/>
<text text-anchor="middle" x="1034" y="-127.6" font-family="Times,serif" font-size="14.00">EditionViewModule</text>
</g>
<!-- EditionComplexComponent&#45;&gt;EditionViewModule -->
<g id="edge1" class="edge">
<title>EditionComplexComponent&#45;&gt;EditionViewModule</title>
<path fill="none" stroke="black" d="M1637,-84.91C1637,-104.14 1637,-131.8 1637,-131.8 1637,-131.8 1109.68,-131.8 1109.68,-131.8"/>
<polygon fill="black" stroke="black" points="1109.68,-128.3 1099.68,-131.8 1109.68,-135.3 1109.68,-128.3"/>
</g>
<!-- EditionDetailNavComponent -->
<g id="node2" class="node">
<title>EditionDetailNavComponent</title>
<polygon fill="#ffffb3" stroke="black" points="1532.09,-84.8 1351.91,-84.8 1351.91,-48.8 1532.09,-48.8 1532.09,-84.8"/>
<text text-anchor="middle" x="1442" y="-62.6" font-family="Times,serif" font-size="14.00">EditionDetailNavComponent</text>
</g>
<!-- EditionDetailNavComponent&#45;&gt;EditionViewModule -->
<g id="edge2" class="edge">
<title>EditionDetailNavComponent&#45;&gt;EditionViewModule</title>
<path fill="none" stroke="black" d="M1442,-84.82C1442,-102.17 1442,-125.8 1442,-125.8 1442,-125.8 1109.55,-125.8 1109.55,-125.8"/>
<polygon fill="black" stroke="black" points="1109.55,-122.3 1099.55,-125.8 1109.55,-129.3 1109.55,-122.3"/>
</g>
<!-- EditionJumbotronComponent -->
<g id="node3" class="node">
<title>EditionJumbotronComponent</title>
<polygon fill="#ffffb3" stroke="black" points="1334.44,-84.8 1151.56,-84.8 1151.56,-48.8 1334.44,-48.8 1334.44,-84.8"/>
<text text-anchor="middle" x="1243" y="-62.6" font-family="Times,serif" font-size="14.00">EditionJumbotronComponent</text>
</g>
<!-- EditionJumbotronComponent&#45;&gt;EditionViewModule -->
<g id="edge3" class="edge">
<title>EditionJumbotronComponent&#45;&gt;EditionViewModule</title>
<path fill="none" stroke="black" d="M1243,-85.04C1243,-100.37 1243,-119.8 1243,-119.8 1243,-119.8 1109.56,-119.8 1109.56,-119.8"/>
<polygon fill="black" stroke="black" points="1109.56,-116.3 1099.56,-119.8 1109.56,-123.3 1109.56,-116.3"/>
</g>
<!-- EditionSectionDetailComponent -->
<g id="node4" class="node">
<title>EditionSectionDetailComponent</title>
<polygon fill="#ffffb3" stroke="black" points="1133.26,-84.8 934.74,-84.8 934.74,-48.8 1133.26,-48.8 1133.26,-84.8"/>
<text text-anchor="middle" x="1034" y="-62.6" font-family="Times,serif" font-size="14.00">EditionSectionDetailComponent</text>
</g>
<!-- EditionSectionDetailComponent&#45;&gt;EditionViewModule -->
<g id="edge4" class="edge">
<title>EditionSectionDetailComponent&#45;&gt;EditionViewModule</title>
<path fill="none" stroke="black" d="M1034,-84.91C1034,-84.91 1034,-103.79 1034,-103.79"/>
<polygon fill="black" stroke="black" points="1030.5,-103.79 1034,-113.79 1037.5,-103.79 1030.5,-103.79"/>
</g>
<!-- EditionSectionsComponent -->
<g id="node5" class="node">
<title>EditionSectionsComponent</title>
<polygon fill="#ffffb3" stroke="black" points="916.99,-84.8 747.01,-84.8 747.01,-48.8 916.99,-48.8 916.99,-84.8"/>
<text text-anchor="middle" x="832" y="-62.6" font-family="Times,serif" font-size="14.00">EditionSectionsComponent</text>
</g>
<!-- EditionSectionsComponent&#45;&gt;EditionViewModule -->
<g id="edge5" class="edge">
<title>EditionSectionsComponent&#45;&gt;EditionViewModule</title>
<path fill="none" stroke="black" d="M832,-85.04C832,-100.37 832,-119.8 832,-119.8 832,-119.8 958.42,-119.8 958.42,-119.8"/>
<polygon fill="black" stroke="black" points="958.42,-123.3 968.42,-119.8 958.42,-116.3 958.42,-123.3"/>
</g>
<!-- EditionSeriesComponent -->
<g id="node6" class="node">
<title>EditionSeriesComponent</title>
<polygon fill="#ffffb3" stroke="black" points="729.26,-84.8 572.74,-84.8 572.74,-48.8 729.26,-48.8 729.26,-84.8"/>
<text text-anchor="middle" x="651" y="-62.6" font-family="Times,serif" font-size="14.00">EditionSeriesComponent</text>
</g>
<!-- EditionSeriesComponent&#45;&gt;EditionViewModule -->
<g id="edge6" class="edge">
<title>EditionSeriesComponent&#45;&gt;EditionViewModule</title>
<path fill="none" stroke="black" d="M651,-84.82C651,-102.17 651,-125.8 651,-125.8 651,-125.8 958.16,-125.8 958.16,-125.8"/>
<polygon fill="black" stroke="black" points="958.16,-129.3 968.16,-125.8 958.16,-122.3 958.16,-129.3"/>
</g>
<!-- EditionSeriesDetailComponent -->
<g id="node7" class="node">
<title>EditionSeriesDetailComponent</title>
<polygon fill="#ffffb3" stroke="black" points="554.47,-84.8 363.53,-84.8 363.53,-48.8 554.47,-48.8 554.47,-84.8"/>
<text text-anchor="middle" x="459" y="-62.6" font-family="Times,serif" font-size="14.00">EditionSeriesDetailComponent</text>
</g>
<!-- EditionSeriesDetailComponent&#45;&gt;EditionViewModule -->
<g id="edge7" class="edge">
<title>EditionSeriesDetailComponent&#45;&gt;EditionViewModule</title>
<path fill="none" stroke="black" d="M459,-84.91C459,-104.14 459,-131.8 459,-131.8 459,-131.8 958.32,-131.8 958.32,-131.8"/>
<polygon fill="black" stroke="black" points="958.32,-135.3 968.32,-131.8 958.32,-128.3 958.32,-135.3"/>
</g>
<!-- EditionTypeComponent -->
<g id="node8" class="node">
<title>EditionTypeComponent</title>
<polygon fill="#ffffb3" stroke="black" points="345.82,-84.8 194.18,-84.8 194.18,-48.8 345.82,-48.8 345.82,-84.8"/>
<text text-anchor="middle" x="270" y="-62.6" font-family="Times,serif" font-size="14.00">EditionTypeComponent</text>
</g>
<!-- EditionTypeComponent&#45;&gt;EditionViewModule -->
<g id="edge8" class="edge">
<title>EditionTypeComponent&#45;&gt;EditionViewModule</title>
<path fill="none" stroke="black" d="M270,-85.08C270,-106.12 270,-137.8 270,-137.8 270,-137.8 958.2,-137.8 958.2,-137.8"/>
<polygon fill="black" stroke="black" points="958.2,-141.3 968.2,-137.8 958.2,-134.3 958.2,-141.3"/>
</g>
<!-- EditionViewComponent -->
<g id="node9" class="node">
<title>EditionViewComponent</title>
<polygon fill="#ffffb3" stroke="black" points="176.38,-84.8 23.62,-84.8 23.62,-48.8 176.38,-48.8 176.38,-84.8"/>
<text text-anchor="middle" x="100" y="-62.6" font-family="Times,serif" font-size="14.00">EditionViewComponent</text>
</g>
<!-- EditionViewComponent&#45;&gt;EditionViewModule -->
<g id="edge9" class="edge">
<title>EditionViewComponent&#45;&gt;EditionViewModule</title>
<path fill="none" stroke="black" d="M100,-84.89C100,-107.93 100,-144.8 100,-144.8 100,-144.8 958.32,-144.8 958.32,-144.8"/>
<polygon fill="black" stroke="black" points="958.32,-148.3 968.32,-144.8 958.32,-141.3 958.32,-148.3"/>
</g>
<!-- EditionViewRoutingModule -->
<g id="node11" class="node">
<title>EditionViewRoutingModule</title>
<polygon fill="#8dd3c7" stroke="black" points="2040.21,-84.8 2037.21,-88.8 2016.21,-88.8 2013.21,-84.8 1863.79,-84.8 1863.79,-48.8 2040.21,-48.8 2040.21,-84.8"/>
<text text-anchor="middle" x="1952" y="-62.6" font-family="Times,serif" font-size="14.00">EditionViewRoutingModule</text>
</g>
<!-- EditionViewRoutingModule&#45;&gt;EditionViewModule -->
<g id="edge10" class="edge">
<title>EditionViewRoutingModule&#45;&gt;EditionViewModule</title>
<path fill="none" stroke="black" d="M1952,-84.89C1952,-107.93 1952,-144.8 1952,-144.8 1952,-144.8 1109.65,-144.8 1109.65,-144.8"/>
<polygon fill="black" stroke="black" points="1109.65,-141.3 1099.65,-144.8 1109.65,-148.3 1109.65,-141.3"/>
</g>
<!-- SharedModule -->
<g id="node12" class="node">
<title>SharedModule</title>
<polygon fill="#8dd3c7" stroke="black" points="1846.42,-84.8 1843.42,-88.8 1822.42,-88.8 1819.42,-84.8 1747.58,-84.8 1747.58,-48.8 1846.42,-48.8 1846.42,-84.8"/>
<text text-anchor="middle" x="1797" y="-62.6" font-family="Times,serif" font-size="14.00">SharedModule</text>
</g>
<!-- SharedModule&#45;&gt;EditionViewModule -->
<g id="edge11" class="edge">
<title>SharedModule&#45;&gt;EditionViewModule</title>
<path fill="none" stroke="black" d="M1797,-85.08C1797,-106.12 1797,-137.8 1797,-137.8 1797,-137.8 1109.71,-137.8 1109.71,-137.8"/>
<polygon fill="black" stroke="black" points="1109.71,-134.3 1099.71,-137.8 1109.71,-141.3 1109.71,-134.3"/>
</g>
</g>
</svg>
