<?xml version="1.0" encoding="UTF-8" standalone="no"?>
<!DOCTYPE svg PUBLIC "-//W3C//DTD SVG 1.1//EN"
 "http://www.w3.org/Graphics/SVG/1.1/DTD/svg11.dtd">
<!-- Generated by graphviz version 2.47.0 (20210316.0004)
 -->
<!-- Title: dependencies Pages: 1 -->
<svg width="907pt" height="211pt"
 viewBox="0.00 0.00 907.00 211.00" xmlns="http://www.w3.org/2000/svg" xmlns:xlink="http://www.w3.org/1999/xlink">
<g id="graph0" class="graph" transform="scale(1 1) rotate(0) translate(4 207)">
<title>dependencies</title>
<polygon fill="white" stroke="transparent" points="-4,4 -4,-207 903,-207 903,4 -4,4"/>
<text text-anchor="start" x="428.51" y="-42.4" font-family="Times-12" font-weight="bold" font-size="14.00">Legend</text>
<polygon fill="#ffffb3" stroke="transparent" points="215.5,-10 215.5,-30 235.5,-30 235.5,-10 215.5,-10"/>
<text text-anchor="start" x="239.13" y="-15.4" font-family="Times-12" font-size="14.00"> &#160;Declarations</text>
<polygon fill="#8dd3c7" stroke="transparent" points="328.5,-10 328.5,-30 348.5,-30 348.5,-10 328.5,-10"/>
<text text-anchor="start" x="352.23" y="-15.4" font-family="Times-12" font-size="14.00"> &#160;Module</text>
<polygon fill="#80b1d3" stroke="transparent" points="414.5,-10 414.5,-30 434.5,-30 434.5,-10 414.5,-10"/>
<text text-anchor="start" x="438.28" y="-15.4" font-family="Times-12" font-size="14.00"> &#160;Bootstrap</text>
<polygon fill="#fdb462" stroke="transparent" points="511.5,-10 511.5,-30 531.5,-30 531.5,-10 511.5,-10"/>
<text text-anchor="start" x="535.17" y="-15.4" font-family="Times-12" font-size="14.00"> &#160;Providers</text>
<polygon fill="#fb8072" stroke="transparent" points="607.5,-10 607.5,-30 627.5,-30 627.5,-10 607.5,-10"/>
<text text-anchor="start" x="631.23" y="-15.4" font-family="Times-12" font-size="14.00"> &#160;Exports</text>
<g id="clust1" class="cluster">
<title>cluster_EditionGraphModule</title>
<polygon fill="none" stroke="black" stroke-dasharray="1,5" points="8,-70 8,-195 891,-195 891,-70 8,-70"/>
</g>
<g id="clust2" class="cluster">
<title>cluster_EditionGraphModule_declarations</title>
<polygon fill="none" stroke="black" points="709,-78 709,-130 883,-130 883,-78 709,-78"/>
</g>
<g id="clust4" class="cluster">
<title>cluster_EditionGraphModule_imports</title>
<polygon fill="none" stroke="black" points="16,-78 16,-130 701,-130 701,-78 16,-78"/>
</g>
<!-- EditionGraphComponent -->
<g id="node1" class="node">
<title>EditionGraphComponent</title>
<polygon fill="#ffffb3" stroke="black" points="874.54,-122 717.46,-122 717.46,-86 874.54,-86 874.54,-122"/>
<text text-anchor="middle" x="796" y="-99.8" font-family="Times,serif" font-size="14.00">EditionGraphComponent</text>
</g>
<!-- EditionGraphModule -->
<g id="node2" class="node">
<title>EditionGraphModule</title>
<polygon fill="#8dd3c7" stroke="black" points="467.76,-187 464.76,-191 443.76,-191 440.76,-187 332.24,-187 332.24,-151 467.76,-151 467.76,-187"/>
<text text-anchor="middle" x="400" y="-164.8" font-family="Times,serif" font-size="14.00">EditionGraphModule</text>
</g>
<!-- EditionGraphComponent&#45;&gt;EditionGraphModule -->
<g id="edge1" class="edge">
<title>EditionGraphComponent&#45;&gt;EditionGraphModule</title>
<path fill="none" stroke="black" d="M796,-122.28C796,-143.32 796,-175 796,-175 796,-175 478.07,-175 478.07,-175"/>
<polygon fill="black" stroke="black" points="478.07,-171.5 468.07,-175 478.07,-178.5 478.07,-171.5"/>
</g>
<!-- ButtonUsageHintsComponent -->
<g id="node3" class="node">
<title>ButtonUsageHintsComponent</title>
<polygon fill="#8dd3c7" stroke="black" points="693.26,-122 690.26,-126 669.26,-126 666.26,-122 508.74,-122 508.74,-86 693.26,-86 693.26,-122"/>
<text text-anchor="middle" x="601" y="-99.8" font-family="Times,serif" font-size="14.00">ButtonUsageHintsComponent</text>
</g>
<!-- ButtonUsageHintsComponent&#45;&gt;EditionGraphModule -->
<g id="edge2" class="edge">
<title>ButtonUsageHintsComponent&#45;&gt;EditionGraphModule</title>
<path fill="none" stroke="black" d="M601,-122.02C601,-139.37 601,-163 601,-163 601,-163 477.77,-163 477.77,-163"/>
<polygon fill="black" stroke="black" points="477.77,-159.5 467.77,-163 477.77,-166.5 477.77,-159.5"/>
</g>
<!-- EditionGraphRoutingModule -->
<g id="node4" class="node">
<title>EditionGraphRoutingModule</title>
<polygon fill="#8dd3c7" stroke="black" points="490.37,-122 487.37,-126 466.37,-126 463.37,-122 309.63,-122 309.63,-86 490.37,-86 490.37,-122"/>
<text text-anchor="middle" x="400" y="-99.8" font-family="Times,serif" font-size="14.00">EditionGraphRoutingModule</text>
</g>
<!-- EditionGraphRoutingModule&#45;&gt;EditionGraphModule -->
<g id="edge3" class="edge">
<title>EditionGraphRoutingModule&#45;&gt;EditionGraphModule</title>
<path fill="none" stroke="black" d="M400,-122.11C400,-122.11 400,-140.99 400,-140.99"/>
<polygon fill="black" stroke="black" points="396.5,-140.99 400,-150.99 403.5,-140.99 396.5,-140.99"/>
</g>
<!-- GraphVisualizerModule -->
<g id="node5" class="node">
<title>GraphVisualizerModule</title>
<polygon fill="#8dd3c7" stroke="black" points="292.06,-122 289.06,-126 268.06,-126 265.06,-122 139.94,-122 139.94,-86 292.06,-86 292.06,-122"/>
<text text-anchor="middle" x="216" y="-99.8" font-family="Times,serif" font-size="14.00">GraphVisualizerModule</text>
</g>
<!-- GraphVisualizerModule&#45;&gt;EditionGraphModule -->
<g id="edge4" class="edge">
<title>GraphVisualizerModule&#45;&gt;EditionGraphModule</title>
<path fill="none" stroke="black" d="M216,-122.02C216,-139.37 216,-163 216,-163 216,-163 322.01,-163 322.01,-163"/>
<polygon fill="black" stroke="black" points="322.01,-166.5 332.01,-163 322.01,-159.5 322.01,-166.5"/>
</g>
<!-- SharedModule -->
<g id="node6" class="node">
<title>SharedModule</title>
<polygon fill="#8dd3c7" stroke="black" points="122.42,-122 119.42,-126 98.42,-126 95.42,-122 23.58,-122 23.58,-86 122.42,-86 122.42,-122"/>
<text text-anchor="middle" x="73" y="-99.8" font-family="Times,serif" font-size="14.00">SharedModule</text>
</g>
<!-- SharedModule&#45;&gt;EditionGraphModule -->
<g id="edge5" class="edge">
<title>SharedModule&#45;&gt;EditionGraphModule</title>
<path fill="none" stroke="black" d="M73,-122.28C73,-143.32 73,-175 73,-175 73,-175 321.85,-175 321.85,-175"/>
<polygon fill="black" stroke="black" points="321.85,-178.5 331.85,-175 321.85,-171.5 321.85,-178.5"/>
</g>
</g>
</svg>
