<?xml version="1.0" encoding="UTF-8" standalone="no"?>
<!DOCTYPE svg PUBLIC "-//W3C//DTD SVG 1.1//EN"
 "http://www.w3.org/Graphics/SVG/1.1/DTD/svg11.dtd">
<!-- Generated by graphviz version 2.47.0 (20210316.0004)
 -->
<!-- Title: dependencies Pages: 1 -->
<svg width="530pt" height="284pt"
 viewBox="0.00 0.00 530.00 284.00" xmlns="http://www.w3.org/2000/svg" xmlns:xlink="http://www.w3.org/1999/xlink">
<g id="graph0" class="graph" transform="scale(1 1) rotate(0) translate(4 280)">
<title>dependencies</title>
<polygon fill="white" stroke="transparent" points="-4,4 -4,-280 526,-280 526,4 -4,4"/>
<text text-anchor="start" x="240.01" y="-42.4" font-family="Times-12" font-weight="bold" font-size="14.00">Legend</text>
<polygon fill="#ffffb3" stroke="transparent" points="27,-10 27,-30 47,-30 47,-10 27,-10"/>
<text text-anchor="start" x="50.63" y="-15.4" font-family="Times-12" font-size="14.00"> &#160;Declarations</text>
<polygon fill="#8dd3c7" stroke="transparent" points="140,-10 140,-30 160,-30 160,-10 140,-10"/>
<text text-anchor="start" x="163.73" y="-15.4" font-family="Times-12" font-size="14.00"> &#160;Module</text>
<polygon fill="#80b1d3" stroke="transparent" points="226,-10 226,-30 246,-30 246,-10 226,-10"/>
<text text-anchor="start" x="249.78" y="-15.4" font-family="Times-12" font-size="14.00"> &#160;Bootstrap</text>
<polygon fill="#fdb462" stroke="transparent" points="323,-10 323,-30 343,-30 343,-10 323,-10"/>
<text text-anchor="start" x="346.67" y="-15.4" font-family="Times-12" font-size="14.00"> &#160;Providers</text>
<polygon fill="#fb8072" stroke="transparent" points="419,-10 419,-30 439,-30 439,-10 419,-10"/>
<text text-anchor="start" x="442.73" y="-15.4" font-family="Times-12" font-size="14.00"> &#160;Exports</text>
<g id="clust1" class="cluster">
<title>cluster_EditionSvgSheetFooterModule</title>
<polygon fill="none" stroke="black" stroke-dasharray="1,5" points="8,-70 8,-268 514,-268 514,-70 8,-70"/>
</g>
<g id="clust5" class="cluster">
<title>cluster_EditionSvgSheetFooterModule_exports</title>
<polygon fill="none" stroke="black" points="193,-208 193,-260 425,-260 425,-208 193,-208"/>
</g>
<g id="clust4" class="cluster">
<title>cluster_EditionSvgSheetFooterModule_imports</title>
<polygon fill="none" stroke="black" points="252,-78 252,-130 506,-130 506,-78 252,-78"/>
</g>
<g id="clust2" class="cluster">
<title>cluster_EditionSvgSheetFooterModule_declarations</title>
<polygon fill="none" stroke="black" points="16,-78 16,-130 244,-130 244,-78 16,-78"/>
</g>
<!-- EditionSvgSheetFooterComponent -->
<g id="node1" class="node">
<title>EditionSvgSheetFooterComponent</title>
<polygon fill="#ffffb3" stroke="black" points="235.99,-122 24.01,-122 24.01,-86 235.99,-86 235.99,-122"/>
<text text-anchor="middle" x="130" y="-99.8" font-family="Times,serif" font-size="14.00">EditionSvgSheetFooterComponent</text>
</g>
<!-- EditionSvgSheetFooterModule -->
<g id="node2" class="node">
<title>EditionSvgSheetFooterModule</title>
<polygon fill="#8dd3c7" stroke="black" points="404.21,-187 401.21,-191 380.21,-191 377.21,-187 213.79,-187 213.79,-151 404.21,-151 404.21,-187"/>
<text text-anchor="middle" x="309" y="-164.8" font-family="Times,serif" font-size="14.00">EditionSvgSheetFooterModule</text>
</g>
<!-- EditionSvgSheetFooterComponent&#45;&gt;EditionSvgSheetFooterModule -->
<g id="edge1" class="edge">
<title>EditionSvgSheetFooterComponent&#45;&gt;EditionSvgSheetFooterModule</title>
<path fill="none" stroke="black" d="M224.95,-122.11C224.95,-122.11 224.95,-140.99 224.95,-140.99"/>
<polygon fill="black" stroke="black" points="221.45,-140.99 224.95,-150.99 228.45,-140.99 221.45,-140.99"/>
</g>
<!-- EditionSvgSheetFooterComponent  -->
<g id="node5" class="node">
<title>EditionSvgSheetFooterComponent </title>
<polygon fill="#fb8072" stroke="black" points="416.99,-252 201.01,-252 201.01,-216 416.99,-216 416.99,-252"/>
<text text-anchor="middle" x="309" y="-229.8" font-family="Times,serif" font-size="14.00">EditionSvgSheetFooterComponent </text>
</g>
<!-- EditionSvgSheetFooterModule&#45;&gt;EditionSvgSheetFooterComponent  -->
<g id="edge4" class="edge">
<title>EditionSvgSheetFooterModule&#45;&gt;EditionSvgSheetFooterComponent </title>
<path fill="none" stroke="black" stroke-dasharray="5,2" d="M309,-187.11C309,-187.11 309,-205.99 309,-205.99"/>
<polygon fill="black" stroke="black" points="305.5,-205.99 309,-215.99 312.5,-205.99 305.5,-205.99"/>
</g>
<!-- EditionTkaModule -->
<g id="node3" class="node">
<title>EditionTkaModule</title>
<polygon fill="#8dd3c7" stroke="black" points="498.04,-122 495.04,-126 474.04,-126 471.04,-122 375.96,-122 375.96,-86 498.04,-86 498.04,-122"/>
<text text-anchor="middle" x="437" y="-99.8" font-family="Times,serif" font-size="14.00">EditionTkaModule</text>
</g>
<!-- EditionTkaModule&#45;&gt;EditionSvgSheetFooterModule -->
<g id="edge2" class="edge">
<title>EditionTkaModule&#45;&gt;EditionSvgSheetFooterModule</title>
<path fill="none" stroke="black" d="M389.92,-122.11C389.92,-122.11 389.92,-140.99 389.92,-140.99"/>
<polygon fill="black" stroke="black" points="386.42,-140.99 389.92,-150.99 393.42,-140.99 386.42,-140.99"/>
</g>
<!-- SharedModule -->
<g id="node4" class="node">
<title>SharedModule</title>
<polygon fill="#8dd3c7" stroke="black" points="358.42,-122 355.42,-126 334.42,-126 331.42,-122 259.58,-122 259.58,-86 358.42,-86 358.42,-122"/>
<text text-anchor="middle" x="309" y="-99.8" font-family="Times,serif" font-size="14.00">SharedModule</text>
</g>
<!-- SharedModule&#45;&gt;EditionSvgSheetFooterModule -->
<g id="edge3" class="edge">
<title>SharedModule&#45;&gt;EditionSvgSheetFooterModule</title>
<path fill="none" stroke="black" d="M309,-122.11C309,-122.11 309,-140.99 309,-140.99"/>
<polygon fill="black" stroke="black" points="305.5,-140.99 309,-150.99 312.5,-140.99 305.5,-140.99"/>
</g>
</g>
</svg>
