<?xml version="1.0" encoding="UTF-8" standalone="no"?>
<!DOCTYPE svg PUBLIC "-//W3C//DTD SVG 1.1//EN"
 "http://www.w3.org/Graphics/SVG/1.1/DTD/svg11.dtd">
<!-- Generated by graphviz version 2.47.0 (20210316.0004)
 -->
<!-- Title: dependencies Pages: 1 -->
<svg width="866pt" height="284pt"
 viewBox="0.00 0.00 866.00 284.00" xmlns="http://www.w3.org/2000/svg" xmlns:xlink="http://www.w3.org/1999/xlink">
<g id="graph0" class="graph" transform="scale(1 1) rotate(0) translate(4 280)">
<title>dependencies</title>
<polygon fill="white" stroke="transparent" points="-4,4 -4,-280 862,-280 862,4 -4,4"/>
<text text-anchor="start" x="408.01" y="-42.4" font-family="sans-serif" font-weight="bold" font-size="14.00">Legend</text>
<polygon fill="#ffffb3" stroke="transparent" points="195,-10 195,-30 215,-30 215,-10 195,-10"/>
<text text-anchor="start" x="218.63" y="-15.4" font-family="sans-serif" font-size="14.00"> &#160;Declarations</text>
<polygon fill="#8dd3c7" stroke="transparent" points="308,-10 308,-30 328,-30 328,-10 308,-10"/>
<text text-anchor="start" x="331.73" y="-15.4" font-family="sans-serif" font-size="14.00"> &#160;Module</text>
<polygon fill="#80b1d3" stroke="transparent" points="394,-10 394,-30 414,-30 414,-10 394,-10"/>
<text text-anchor="start" x="417.78" y="-15.4" font-family="sans-serif" font-size="14.00"> &#160;Bootstrap</text>
<polygon fill="#fdb462" stroke="transparent" points="491,-10 491,-30 511,-30 511,-10 491,-10"/>
<text text-anchor="start" x="514.67" y="-15.4" font-family="sans-serif" font-size="14.00"> &#160;Providers</text>
<polygon fill="#fb8072" stroke="transparent" points="587,-10 587,-30 607,-30 607,-10 587,-10"/>
<text text-anchor="start" x="610.73" y="-15.4" font-family="sans-serif" font-size="14.00"> &#160;Exports</text>
<g id="clust1" class="cluster">
<title>cluster_SourcesModule</title>
<polygon fill="none" stroke="black" stroke-dasharray="1,5" points="8,-70 8,-268 850,-268 850,-70 8,-70"/>
</g>
<g id="clust2" class="cluster">
<title>cluster_SourcesModule_declarations</title>
<polygon fill="none" stroke="black" points="138,-78 138,-130 842,-130 842,-78 138,-78"/>
</g>
<g id="clust8" class="cluster">
<title>cluster_SourcesModule_exports</title>
<polygon fill="none" stroke="black" points="288,-208 288,-260 434,-260 434,-208 288,-208"/>
</g>
<g id="clust7" class="cluster">
<title>cluster_SourcesModule_imports</title>
<polygon fill="none" stroke="black" points="16,-78 16,-130 130,-130 130,-78 16,-78"/>
</g>
<!-- SourceDescriptionComponent -->
<g id="node1" class="node">
<title>SourceDescriptionComponent</title>
<polygon fill="#ffffb3" stroke="black" points="833.52,-122 648.48,-122 648.48,-86 833.52,-86 833.52,-122"/>
<text text-anchor="middle" x="741" y="-99.8" font-family="Times,serif" font-size="14.00">SourceDescriptionComponent</text>
</g>
<!-- SourcesModule -->
<g id="node5" class="node">
<title>SourcesModule</title>
<polygon fill="#8dd3c7" stroke="black" points="412.87,-187 409.87,-191 388.87,-191 385.87,-187 309.13,-187 309.13,-151 412.87,-151 412.87,-187"/>
<text text-anchor="middle" x="361" y="-164.8" font-family="Times,serif" font-size="14.00">SourcesModule</text>
</g>
<!-- SourceDescriptionComponent&#45;&gt;SourcesModule -->
<g id="edge1" class="edge">
<title>SourceDescriptionComponent&#45;&gt;SourcesModule</title>
<path fill="none" stroke="black" d="M741,-122.28C741,-143.32 741,-175 741,-175 741,-175 423.04,-175 423.04,-175"/>
<polygon fill="black" stroke="black" points="423.04,-171.5 413.04,-175 423.04,-178.5 423.04,-171.5"/>
</g>
<!-- SourceEvaluationComponent -->
<g id="node2" class="node">
<title>SourceEvaluationComponent</title>
<polygon fill="#ffffb3" stroke="black" points="630.36,-122 449.64,-122 449.64,-86 630.36,-86 630.36,-122"/>
<text text-anchor="middle" x="540" y="-99.8" font-family="Times,serif" font-size="14.00">SourceEvaluationComponent</text>
</g>
<!-- SourceEvaluationComponent&#45;&gt;SourcesModule -->
<g id="edge2" class="edge">
<title>SourceEvaluationComponent&#45;&gt;SourcesModule</title>
<path fill="none" stroke="black" d="M540,-122.02C540,-139.37 540,-163 540,-163 540,-163 423.26,-163 423.26,-163"/>
<polygon fill="black" stroke="black" points="423.26,-159.5 413.26,-163 423.26,-166.5 423.26,-159.5"/>
</g>
<!-- SourceListComponent -->
<g id="node3" class="node">
<title>SourceListComponent</title>
<polygon fill="#ffffb3" stroke="black" points="431.98,-122 290.02,-122 290.02,-86 431.98,-86 431.98,-122"/>
<text text-anchor="middle" x="361" y="-99.8" font-family="Times,serif" font-size="14.00">SourceListComponent</text>
</g>
<!-- SourceListComponent&#45;&gt;SourcesModule -->
<g id="edge3" class="edge">
<title>SourceListComponent&#45;&gt;SourcesModule</title>
<path fill="none" stroke="black" d="M361,-122.11C361,-122.11 361,-140.99 361,-140.99"/>
<polygon fill="black" stroke="black" points="357.5,-140.99 361,-150.99 364.5,-140.99 357.5,-140.99"/>
</g>
<!-- SourcesComponent -->
<g id="node4" class="node">
<title>SourcesComponent</title>
<polygon fill="#ffffb3" stroke="black" points="271.65,-122 146.35,-122 146.35,-86 271.65,-86 271.65,-122"/>
<text text-anchor="middle" x="209" y="-99.8" font-family="Times,serif" font-size="14.00">SourcesComponent</text>
</g>
<!-- SourcesComponent&#45;&gt;SourcesModule -->
<g id="edge4" class="edge">
<title>SourcesComponent&#45;&gt;SourcesModule</title>
<path fill="none" stroke="black" d="M209,-122.02C209,-139.37 209,-163 209,-163 209,-163 299.12,-163 299.12,-163"/>
<polygon fill="black" stroke="black" points="299.12,-166.5 309.12,-163 299.12,-159.5 299.12,-166.5"/>
</g>
<!-- SourcesComponent  -->
<g id="node7" class="node">
<title>SourcesComponent </title>
<polygon fill="#fb8072" stroke="black" points="425.65,-252 296.35,-252 296.35,-216 425.65,-216 425.65,-252"/>
<text text-anchor="middle" x="361" y="-229.8" font-family="Times,serif" font-size="14.00">SourcesComponent </text>
</g>
<!-- SourcesModule&#45;&gt;SourcesComponent  -->
<g id="edge6" class="edge">
<title>SourcesModule&#45;&gt;SourcesComponent </title>
<path fill="none" stroke="black" stroke-dasharray="5,2" d="M361,-187.11C361,-187.11 361,-205.99 361,-205.99"/>
<polygon fill="black" stroke="black" points="357.5,-205.99 361,-215.99 364.5,-205.99 357.5,-205.99"/>
</g>
<!-- SharedModule -->
<g id="node6" class="node">
<title>SharedModule</title>
<polygon fill="#8dd3c7" stroke="black" points="122.42,-122 119.42,-126 98.42,-126 95.42,-122 23.58,-122 23.58,-86 122.42,-86 122.42,-122"/>
<text text-anchor="middle" x="73" y="-99.8" font-family="Times,serif" font-size="14.00">SharedModule</text>
</g>
<!-- SharedModule&#45;&gt;SourcesModule -->
<g id="edge5" class="edge">
<title>SharedModule&#45;&gt;SourcesModule</title>
<path fill="none" stroke="black" d="M73,-122.28C73,-143.32 73,-175 73,-175 73,-175 298.85,-175 298.85,-175"/>
<polygon fill="black" stroke="black" points="298.85,-178.5 308.85,-175 298.85,-171.5 298.85,-178.5"/>
</g>
</g>
</svg>
