<?xml version="1.0" encoding="UTF-8" standalone="no"?>
<!DOCTYPE svg PUBLIC "-//W3C//DTD SVG 1.1//EN"
 "http://www.w3.org/Graphics/SVG/1.1/DTD/svg11.dtd">
<!-- Generated by graphviz version 2.47.3 (20210619.1520)
 -->
<!-- Title: dependencies Pages: 1 -->
<svg width="866pt" height="247pt"
 viewBox="0.00 0.00 866.00 246.80" xmlns="http://www.w3.org/2000/svg" xmlns:xlink="http://www.w3.org/1999/xlink">
<g id="graph0" class="graph" transform="scale(1 1) rotate(0) translate(4 242.8)">
<title>dependencies</title>
<polygon fill="white" stroke="transparent" points="-4,4 -4,-242.8 862,-242.8 862,4 -4,4"/>
<text text-anchor="middle" x="429" y="-8.2" font-family="sans-serif" font-size="14.00">dependencies</text>
<g id="clust1" class="cluster">
<title>cluster_SourcesModule</title>
<polygon fill="none" stroke="black" stroke-dasharray="1,5" points="8,-32.8 8,-230.8 850,-230.8 850,-32.8 8,-32.8"/>
</g>
<g id="clust2" class="cluster">
<title>cluster_SourcesModule_declarations</title>
<polygon fill="none" stroke="black" points="138,-40.8 138,-92.8 842,-92.8 842,-40.8 138,-40.8"/>
</g>
<g id="clust8" class="cluster">
<title>cluster_SourcesModule_exports</title>
<polygon fill="none" stroke="black" points="288,-170.8 288,-222.8 434,-222.8 434,-170.8 288,-170.8"/>
</g>
<g id="clust7" class="cluster">
<title>cluster_SourcesModule_imports</title>
<polygon fill="none" stroke="black" points="16,-40.8 16,-92.8 130,-92.8 130,-40.8 16,-40.8"/>
</g>
<!-- SourceDescriptionComponent -->
<g id="node1" class="node">
<title>SourceDescriptionComponent</title>
<polygon fill="#ffffb3" stroke="black" points="833.52,-84.8 648.48,-84.8 648.48,-48.8 833.52,-48.8 833.52,-84.8"/>
<text text-anchor="middle" x="741" y="-62.6" font-family="Times,serif" font-size="14.00">SourceDescriptionComponent</text>
</g>
<!-- SourcesModule -->
<g id="node5" class="node">
<title>SourcesModule</title>
<polygon fill="#8dd3c7" stroke="black" points="412.87,-149.8 409.87,-153.8 388.87,-153.8 385.87,-149.8 309.13,-149.8 309.13,-113.8 412.87,-113.8 412.87,-149.8"/>
<text text-anchor="middle" x="361" y="-127.6" font-family="Times,serif" font-size="14.00">SourcesModule</text>
</g>
<!-- SourceDescriptionComponent&#45;&gt;SourcesModule -->
<g id="edge1" class="edge">
<title>SourceDescriptionComponent&#45;&gt;SourcesModule</title>
<path fill="none" stroke="black" d="M741,-85.08C741,-106.12 741,-137.8 741,-137.8 741,-137.8 423.04,-137.8 423.04,-137.8"/>
<polygon fill="black" stroke="black" points="423.04,-134.3 413.04,-137.8 423.04,-141.3 423.04,-134.3"/>
</g>
<!-- SourceEvaluationComponent -->
<g id="node2" class="node">
<title>SourceEvaluationComponent</title>
<polygon fill="#ffffb3" stroke="black" points="630.36,-84.8 449.64,-84.8 449.64,-48.8 630.36,-48.8 630.36,-84.8"/>
<text text-anchor="middle" x="540" y="-62.6" font-family="Times,serif" font-size="14.00">SourceEvaluationComponent</text>
</g>
<!-- SourceEvaluationComponent&#45;&gt;SourcesModule -->
<g id="edge2" class="edge">
<title>SourceEvaluationComponent&#45;&gt;SourcesModule</title>
<path fill="none" stroke="black" d="M540,-84.82C540,-102.17 540,-125.8 540,-125.8 540,-125.8 423.26,-125.8 423.26,-125.8"/>
<polygon fill="black" stroke="black" points="423.26,-122.3 413.26,-125.8 423.26,-129.3 423.26,-122.3"/>
</g>
<!-- SourceListComponent -->
<g id="node3" class="node">
<title>SourceListComponent</title>
<polygon fill="#ffffb3" stroke="black" points="431.98,-84.8 290.02,-84.8 290.02,-48.8 431.98,-48.8 431.98,-84.8"/>
<text text-anchor="middle" x="361" y="-62.6" font-family="Times,serif" font-size="14.00">SourceListComponent</text>
</g>
<!-- SourceListComponent&#45;&gt;SourcesModule -->
<g id="edge3" class="edge">
<title>SourceListComponent&#45;&gt;SourcesModule</title>
<path fill="none" stroke="black" d="M361,-84.91C361,-84.91 361,-103.79 361,-103.79"/>
<polygon fill="black" stroke="black" points="357.5,-103.79 361,-113.79 364.5,-103.79 357.5,-103.79"/>
</g>
<!-- SourcesComponent -->
<g id="node4" class="node">
<title>SourcesComponent</title>
<polygon fill="#ffffb3" stroke="black" points="271.65,-84.8 146.35,-84.8 146.35,-48.8 271.65,-48.8 271.65,-84.8"/>
<text text-anchor="middle" x="209" y="-62.6" font-family="Times,serif" font-size="14.00">SourcesComponent</text>
</g>
<!-- SourcesComponent&#45;&gt;SourcesModule -->
<g id="edge4" class="edge">
<title>SourcesComponent&#45;&gt;SourcesModule</title>
<path fill="none" stroke="black" d="M209,-84.82C209,-102.17 209,-125.8 209,-125.8 209,-125.8 299.12,-125.8 299.12,-125.8"/>
<polygon fill="black" stroke="black" points="299.12,-129.3 309.12,-125.8 299.12,-122.3 299.12,-129.3"/>
</g>
<!-- SourcesComponent  -->
<g id="node7" class="node">
<title>SourcesComponent </title>
<polygon fill="#fb8072" stroke="black" points="425.65,-214.8 296.35,-214.8 296.35,-178.8 425.65,-178.8 425.65,-214.8"/>
<text text-anchor="middle" x="361" y="-192.6" font-family="Times,serif" font-size="14.00">SourcesComponent </text>
</g>
<!-- SourcesModule&#45;&gt;SourcesComponent  -->
<g id="edge6" class="edge">
<title>SourcesModule&#45;&gt;SourcesComponent </title>
<path fill="none" stroke="black" stroke-dasharray="5,2" d="M361,-149.91C361,-149.91 361,-168.79 361,-168.79"/>
<polygon fill="black" stroke="black" points="357.5,-168.79 361,-178.79 364.5,-168.79 357.5,-168.79"/>
</g>
<!-- SharedModule -->
<g id="node6" class="node">
<title>SharedModule</title>
<polygon fill="#8dd3c7" stroke="black" points="122.42,-84.8 119.42,-88.8 98.42,-88.8 95.42,-84.8 23.58,-84.8 23.58,-48.8 122.42,-48.8 122.42,-84.8"/>
<text text-anchor="middle" x="73" y="-62.6" font-family="Times,serif" font-size="14.00">SharedModule</text>
</g>
<!-- SharedModule&#45;&gt;SourcesModule -->
<g id="edge5" class="edge">
<title>SharedModule&#45;&gt;SourcesModule</title>
<path fill="none" stroke="black" d="M73,-85.08C73,-106.12 73,-137.8 73,-137.8 73,-137.8 298.85,-137.8 298.85,-137.8"/>
<polygon fill="black" stroke="black" points="298.85,-141.3 308.85,-137.8 298.85,-134.3 298.85,-141.3"/>
</g>
</g>
</svg>
