<?xml version="1.0" encoding="UTF-8" standalone="no"?>
<!DOCTYPE svg PUBLIC "-//W3C//DTD SVG 1.1//EN"
 "http://www.w3.org/Graphics/SVG/1.1/DTD/svg11.dtd">
<!-- Generated by graphviz version 2.40.1 (20161225.0304)
 -->
<!-- Title: dependencies Pages: 1 -->
<svg width="866pt" height="284pt"
 viewBox="0.00 0.00 866.00 284.00" xmlns="http://www.w3.org/2000/svg" xmlns:xlink="http://www.w3.org/1999/xlink">
<g id="graph0" class="graph" transform="scale(1 1) rotate(0) translate(4 280)">
<title>dependencies</title>
<polygon fill="#ffffff" stroke="transparent" points="-4,4 -4,-280 862,-280 862,4 -4,4"/>
<text text-anchor="start" x="408.0091" y="-42.4" font-family="sans-serif" font-weight="bold" font-size="14.00" fill="#000000">Legend</text>
<polygon fill="#ffffb3" stroke="transparent" points="195,-10 195,-30 215,-30 215,-10 195,-10"/>
<text text-anchor="start" x="218.629" y="-15.4" font-family="sans-serif" font-size="14.00" fill="#000000"> &#160;Declarations</text>
<polygon fill="#8dd3c7" stroke="transparent" points="308,-10 308,-30 328,-30 328,-10 308,-10"/>
<text text-anchor="start" x="331.7251" y="-15.4" font-family="sans-serif" font-size="14.00" fill="#000000"> &#160;Module</text>
<polygon fill="#80b1d3" stroke="transparent" points="394,-10 394,-30 414,-30 414,-10 394,-10"/>
<text text-anchor="start" x="417.7812" y="-15.4" font-family="sans-serif" font-size="14.00" fill="#000000"> &#160;Bootstrap</text>
<polygon fill="#fdb462" stroke="transparent" points="491,-10 491,-30 511,-30 511,-10 491,-10"/>
<text text-anchor="start" x="514.6732" y="-15.4" font-family="sans-serif" font-size="14.00" fill="#000000"> &#160;Providers</text>
<polygon fill="#fb8072" stroke="transparent" points="587,-10 587,-30 607,-30 607,-10 587,-10"/>
<text text-anchor="start" x="610.7258" y="-15.4" font-family="sans-serif" font-size="14.00" fill="#000000"> &#160;Exports</text>
<g id="clust1" class="cluster">
<title>cluster_SourcesModule</title>
<polygon fill="none" stroke="#000000" stroke-dasharray="1,5" points="8,-70 8,-268 850,-268 850,-70 8,-70"/>
</g>
<g id="clust2" class="cluster">
<title>cluster_SourcesModule_declarations</title>
<polygon fill="none" stroke="#000000" points="138,-78 138,-130 842,-130 842,-78 138,-78"/>
</g>
<g id="clust7" class="cluster">
<title>cluster_SourcesModule_imports</title>
<polygon fill="none" stroke="#000000" points="16,-78 16,-130 130,-130 130,-78 16,-78"/>
</g>
<g id="clust8" class="cluster">
<title>cluster_SourcesModule_exports</title>
<polygon fill="none" stroke="#000000" points="288,-208 288,-260 434,-260 434,-208 288,-208"/>
</g>
<!-- SourceDescriptionComponent -->
<g id="node1" class="node">
<title>SourceDescriptionComponent</title>
<polygon fill="#ffffb3" stroke="#000000" points="833.5182,-122 648.4818,-122 648.4818,-86 833.5182,-86 833.5182,-122"/>
<text text-anchor="middle" x="741" y="-99.8" font-family="Times,serif" font-size="14.00" fill="#000000">SourceDescriptionComponent</text>
</g>
<!-- SourcesModule -->
<g id="node5" class="node">
<title>SourcesModule</title>
<polygon fill="#8dd3c7" stroke="#000000" points="412.8669,-187 409.8669,-191 388.8669,-191 385.8669,-187 309.1331,-187 309.1331,-151 412.8669,-151 412.8669,-187"/>
<text text-anchor="middle" x="361" y="-164.8" font-family="Times,serif" font-size="14.00" fill="#000000">SourcesModule</text>
</g>
<!-- SourceDescriptionComponent&#45;&gt;SourcesModule -->
<g id="edge1" class="edge">
<title>SourceDescriptionComponent&#45;&gt;SourcesModule</title>
<path fill="none" stroke="#000000" d="M741,-122.2843C741,-143.3211 741,-175 741,-175 741,-175 423.0406,-175 423.0406,-175"/>
<polygon fill="#000000" stroke="#000000" points="423.0406,-171.5001 413.0406,-175 423.0406,-178.5001 423.0406,-171.5001"/>
</g>
<!-- SourceEvaluationComponent -->
<g id="node2" class="node">
<title>SourceEvaluationComponent</title>
<polygon fill="#ffffb3" stroke="#000000" points="630.3585,-122 449.6415,-122 449.6415,-86 630.3585,-86 630.3585,-122"/>
<text text-anchor="middle" x="540" y="-99.8" font-family="Times,serif" font-size="14.00" fill="#000000">SourceEvaluationComponent</text>
</g>
<!-- SourceEvaluationComponent&#45;&gt;SourcesModule -->
<g id="edge2" class="edge">
<title>SourceEvaluationComponent&#45;&gt;SourcesModule</title>
<path fill="none" stroke="#000000" d="M540,-122.0225C540,-139.3734 540,-163 540,-163 540,-163 423.2554,-163 423.2554,-163"/>
<polygon fill="#000000" stroke="#000000" points="423.2554,-159.5001 413.2554,-163 423.2554,-166.5001 423.2554,-159.5001"/>
</g>
<!-- SourceListComponent -->
<g id="node3" class="node">
<title>SourceListComponent</title>
<polygon fill="#ffffb3" stroke="#000000" points="431.9832,-122 290.0168,-122 290.0168,-86 431.9832,-86 431.9832,-122"/>
<text text-anchor="middle" x="361" y="-99.8" font-family="Times,serif" font-size="14.00" fill="#000000">SourceListComponent</text>
</g>
<!-- SourceListComponent&#45;&gt;SourcesModule -->
<g id="edge3" class="edge">
<title>SourceListComponent&#45;&gt;SourcesModule</title>
<path fill="none" stroke="#000000" d="M361,-122.1061C361,-122.1061 361,-140.991 361,-140.991"/>
<polygon fill="#000000" stroke="#000000" points="357.5001,-140.9909 361,-150.991 364.5001,-140.991 357.5001,-140.9909"/>
</g>
<!-- SourcesComponent -->
<g id="node4" class="node">
<title>SourcesComponent</title>
<polygon fill="#ffffb3" stroke="#000000" points="271.6499,-122 146.3501,-122 146.3501,-86 271.6499,-86 271.6499,-122"/>
<text text-anchor="middle" x="209" y="-99.8" font-family="Times,serif" font-size="14.00" fill="#000000">SourcesComponent</text>
</g>
<!-- SourcesComponent&#45;&gt;SourcesModule -->
<g id="edge4" class="edge">
<title>SourcesComponent&#45;&gt;SourcesModule</title>
<path fill="none" stroke="#000000" d="M209,-122.0225C209,-139.3734 209,-163 209,-163 209,-163 299.1154,-163 299.1154,-163"/>
<polygon fill="#000000" stroke="#000000" points="299.1154,-166.5001 309.1154,-163 299.1153,-159.5001 299.1154,-166.5001"/>
</g>
<!-- SourcesComponent  -->
<g id="node7" class="node">
<title>SourcesComponent </title>
<polygon fill="#fb8072" stroke="#000000" points="425.6495,-252 296.3505,-252 296.3505,-216 425.6495,-216 425.6495,-252"/>
<text text-anchor="middle" x="361" y="-229.8" font-family="Times,serif" font-size="14.00" fill="#000000">SourcesComponent </text>
</g>
<!-- SourcesModule&#45;&gt;SourcesComponent  -->
<g id="edge6" class="edge">
<title>SourcesModule&#45;&gt;SourcesComponent </title>
<path fill="none" stroke="#000000" stroke-dasharray="5,2" d="M361,-187.1061C361,-187.1061 361,-205.991 361,-205.991"/>
<polygon fill="#000000" stroke="#000000" points="357.5001,-205.9909 361,-215.991 364.5001,-205.991 357.5001,-205.9909"/>
</g>
<!-- SharedModule -->
<g id="node6" class="node">
<title>SharedModule</title>
<polygon fill="#8dd3c7" stroke="#000000" points="122.4231,-122 119.4231,-126 98.4231,-126 95.4231,-122 23.5769,-122 23.5769,-86 122.4231,-86 122.4231,-122"/>
<text text-anchor="middle" x="73" y="-99.8" font-family="Times,serif" font-size="14.00" fill="#000000">SharedModule</text>
</g>
<!-- SharedModule&#45;&gt;SourcesModule -->
<g id="edge5" class="edge">
<title>SharedModule&#45;&gt;SourcesModule</title>
<path fill="none" stroke="#000000" d="M73,-122.2843C73,-143.3211 73,-175 73,-175 73,-175 298.8454,-175 298.8454,-175"/>
<polygon fill="#000000" stroke="#000000" points="298.8454,-178.5001 308.8454,-175 298.8453,-171.5001 298.8454,-178.5001"/>
</g>
</g>
</svg>
