<?xml version="1.0" encoding="UTF-8"?>
<svg xmlns="http://www.w3.org/2000/svg" xml:space="preserve" id="svg297" width="1114.08" height="468.738" x="0" y="0" version="1.1" viewBox="0 0 1114.08 468.738">
  <font id="font20" horiz-adv-x="1000" horiz-origin-x="0" horiz-origin-y="0" vert-adv-y="90" vert-origin-x="45" vert-origin-y="90">
    <font-face id="font-face2" font-family="'Maestro'" underline-position="-78" underline-thickness="9" units-per-em="1000">
      <font-face-src>
        <font-face-name name="Maestro"/>
      </font-face-src>
    </font-face>
    <glyph id="glyph6" d="M72 62V-87l98 32V94M43 156v163h29V166l98 32v146h29V207l39 13V116l-39-13V-45l39 12v-103l-39-13v-163h-29v154l-98-32v-148H43v138L0-214v104l43 14V53L0 39v103z" horiz-adv-x="236" unicode="#"/>
    <glyph id="glyph8" d="M466-252c-19-3-38-5-59-6s-42 0-62 2c-20 1-38 4-55 7s-31 7-42 12c-51 25-93 51-124 79-32 27-57 56-74 86S21-11 14 21C7 52 2 84 0 116c-3 35 1 69 10 104s21 68 37 100c15 31 33 60 54 87 20 27 40 50 61 70 24 23 49 45 76 68 26 22 55 45 86 68-1 9-1 16-2 23s-3 14-4 21-3 14-4 23c-2 9-3 19-4 32 0 5-1 15-2 30-1 14-2 31-2 52-1 20 0 43 1 69s5 53 10 81c3 17 11 38 22 64 11 25 24 50 39 74s30 45 47 62 32 26 47 26c7 0 15-4 24-13s17-21 26-36c8-15 16-32 24-51s15-39 21-59 11-40 15-59c3-19 5-36 6-51 1-35-1-65-4-91-3-27-8-50-15-71s-14-41-23-58c-9-18-19-36-29-54-11-18-21-34-32-47-11-14-23-28-34-42-12-15-24-27-37-36-13-10-26-21-39-32 6-34 11-65 16-92 2-12 4-24 6-35s4-22 5-31c1-10 3-18 4-24 1-7 2-11 2-12 16 2 33 2 50 1 17-2 33-5 49-8 15-3 29-8 42-13 12-5 22-10 29-15 36-27 62-57 77-91 15-35 23-70 26-106 2-28 0-56-7-84-7-29-18-56-33-81-16-26-36-50-61-71s-55-39-89-53c4-27 8-53 11-76 3-20 6-39 9-58s5-33 6-40c6-40 8-73 7-98-1-26-6-47-15-63-7-13-16-26-25-39-10-13-22-24-35-34s-29-18-46-25c-18-7-38-11-61-12-17-1-38 0-62 5-24 4-47 12-69 23s-41 25-57 44-25 42-27 69c-1 16 0 32 3 49 3 16 9 31 18 44 8 13 19 23 33 32 13 9 30 14 50 15 12 1 24-1 37-5 12-5 23-11 34-19s19-18 26-30 11-25 12-39c2-25-6-48-23-71s-47-41-88-52c7-9 19-18 38-26 19-9 42-13 70-13 29 0 58 9 85 26s47 39 62 65c9 17 14 40 14 68 0 27-2 55-5 83-1 5-3 16-6 35-3 18-6 37-9 57-3 23-7 49-12 78m21 1267c-26 0-49-12-68-36-20-25-36-56-48-93-13-37-21-78-25-123s-3-88 3-129c22 17 45 37 69 61 24 23 46 48 66 75 19 27 35 54 48 81 12 27 17 53 15 78-1 8-2 17-4 27s-5 19-10 28-11 16-18 22-17 9-28 9m-2-1226c29 10 51 23 67 39s28 33 36 52c7 19 12 37 13 56s1 35 0 50c-1 12-4 27-8 45-5 18-13 35-25 52s-29 31-51 42-51 15-88 13m-26-2c-27-1-50-7-67-16-18-10-32-22-42-35-11-14-18-29-21-44-4-15-6-29-5-41s3-24 8-37 11-24 19-35c7-11 16-21 25-30s18-16 27-21l-3-3-4-4c-1-1-2-3-3-4-21 10-39 22-54 36-16 13-26 23-31 29-7 10-14 19-19 27s-10 17-13 26-6 18-8 29c-3 11-4 23-5 38-1 14 0 29 3 45 3 15 9 31 17 47 7 16 17 32 30 47 12 15 26 29 43 42 9 7 17 12 24 16s13 8 19 11 12 5 19 7c6 1 13 3 20 5l-30 181c-8-5-21-14-39-28s-38-31-59-50-42-40-63-62c-21-23-39-44-52-65-24-38-43-73-56-105S65 75 68 38c3-42 16-81 39-117 23-37 52-67 88-92s77-42 123-51c46-10 94-9 143 3-11 66-20 125-29 177-4 22-8 44-11 65s-6 40-9 57-6 30-7 41c-1 10-2 15-2 15" horiz-adv-x="709" unicode="&amp;"/>
    <glyph id="glyph10" d="M31 20c0 14 5 26 15 36 10 9 22 14 37 14s27-5 37-14c10-10 15-22 15-36s-5-26-15-36-22-15-37-15-27 5-37 15S31 6 31 20" horiz-adv-x="155" unicode="."/>
    <glyph id="glyph12" d="M502-262c-6-11-12-22-17-31l-18-27c-6-9-12-17-19-25-7-9-14-18-23-28s-17-19-24-27l-23-23c-8-7-16-14-25-21s-18-15-29-23c-13-10-26-19-37-26-12-7-24-14-35-20-12-6-24-11-37-16s-27-11-42-17-32-11-50-16c-19-5-36-10-53-13-19-4-39-8-58-11l-7 15c31 11 63 23 94 37 26 12 54 27 83 44s54 36 75 58c54 57 95 121 123 190S421-95 420-7c0 20-2 43-6 69-5 26-12 51-23 74s-27 43-46 60c-20 17-46 25-77 25-18 0-37-4-57-11-21-7-39-17-56-29-17-13-30-27-41-44s-15-36-13-55c1-3 3-3 7-2 3 1 9 2 16 4s15 4 26 6c10 2 22 3 36 2 15-1 27-5 38-13 11-9 19-19 26-32s11-26 13-41 1-30-2-44c-5-22-15-39-29-52-15-13-35-20-60-20-16 0-31 3-46 9-15 5-29 13-40 24-11 10-20 23-27 38S48-7 48 12c-1 29 3 54 10 76s15 41 26 57c10 16 21 29 33 40 11 10 22 18 32 24 25 15 50 26 75 32 25 5 49 8 72 9 25 0 51-4 77-12 25-9 49-21 72-36 23-16 43-35 61-56 18-22 32-46 41-73 11-30 17-62 18-95 0-34-4-71-13-110-3-13-6-25-9-36s-7-21-11-31-8-20-13-30-11-21-17-33m101 385c-1 15 4 28 15 39 11 10 24 15 39 15 15 1 29-4 40-14s16-23 16-38c1-15-4-28-15-39s-24-17-39-17c-15-1-28 4-39 15s-17 24-17 39m0-252c0 15 5 28 16 38s24 15 39 16c15 0 29-5 40-14 11-10 16-23 16-38 1-15-4-28-15-39s-24-17-39-17c-15-1-28 4-39 15s-17 24-18 39" horiz-adv-x="723" unicode="?"/>
    <glyph id="glyph14" d="M257-217c-17 7-33 13-46 16s-25 4-36 4c-21 0-39-6-54-19s-23-31-23-54c0-7 3-16 8-25s10-18 17-26c7-9 16-19 26-28l-12-10c-22 13-42 28-60 44-15 13-30 29-43 46-14 17-22 34-25 53-2 11-1 23 2 34s8 22 15 31 16 16 27 22c11 5 23 9 37 10h19c7-1 15-1 22-2s13-2 20-3c6-1 11-2 15-3C118-80 82-42 58-11 33 20 23 40 27 49c5 6 12 15 22 28 9 12 19 26 28 43s18 34 25 53 11 37 11 55c0 11-4 26-11 43s-15 33-24 49c-11 18-22 37-35 57l14 10 182-229c-17-20-31-40-43-61-11-17-21-36-30-56-9-21-13-40-13-58 0-13 2-25 6-36 3-12 8-23 13-33 5-11 11-20 18-29s13-17 18-24c3-4 7-9 13-15 6-7 12-13 17-19 5-7 10-13 15-18 4-5 6-9 6-10z" horiz-adv-x="287" unicode="Œ"/>
    <glyph id="glyph16" d="M8-1c7 18 17 35 31 50 13 15 29 29 47 41 18 11 37 20 58 27 21 6 42 9 63 9s40-3 56-10 29-17 38-28c9-12 15-26 18-41 2-16 0-33-7-51s-17-35-31-50c-14-16-30-30-48-41-18-12-37-21-58-27-21-7-42-10-63-10s-40 4-55 11c-16 7-29 16-38 28C9-81 3-67 1-51-1-36 1-19 8-1" horiz-adv-x="319" unicode="œ"/>
    <glyph id="glyph18" d="M320 89c4-7 7-15 8-24s1-18 0-27-3-18-5-26-4-14-6-19c-9-25-23-48-42-67s-36-33-51-40c-33-17-72-23-117-19-7 1-14 2-23 3s-18 4-27 7-18 8-26 13c-9 5-15 12-20 20-5 9-8 18-9 27S1-46 2-37c1 8 2 16 4 23s4 13 6 18c9 25 23 46 40 63s34 30 49 39 34 16 57 21c22 5 47 6 75 3 5-1 12-1 20-2s16-3 25-6c8-3 16-7 24-12 7-5 13-12 18-21m-23-17c-5 8-12 13-19 16-8 3-16 4-25 3s-19-3-28-6-18-7-26-11c-11-5-21-11-30-16s-19-11-29-16c-19-11-39-23-59-36-7-5-15-10-22-16-8-6-15-13-20-20s-9-15-10-23c-2-9-1-17 4-25s11-13 19-16 17-3 26-2 18 3 27 6 18 7 26 11c11 5 22 11 32 16 9 5 19 11 29 16s20 11 29 16 18 12 29 19c7 5 14 10 22 16 7 6 14 13 19 20s9 15 11 24c1 8 0 16-5 24" horiz-adv-x="328" unicode="˙"/>
  </font>
  <font id="font70" horiz-adv-x="2048" horiz-origin-x="0" horiz-origin-y="0" vert-adv-y="90" vert-origin-x="45" vert-origin-y="90">
    <font-face id="font-face22" font-family="'Times New Roman'" underline-position="-223" underline-thickness="100" units-per-em="2048">
      <font-face-src>
        <font-face-name name="Times New Roman"/>
      </font-face-src>
    </font-face>
    <glyph id="glyph26" horiz-adv-x="512"/>
    <glyph id="glyph28" d="M256 194c31 0 58-11 79-32 21-22 32-48 32-79s-11-57-32-78c-22-22-48-33-79-33s-57 11-78 33c-22 21-33 47-33 78s11 58 33 79c21 21 47 32 78 32" horiz-adv-x="512" unicode="."/>
    <glyph id="glyph30" d="M74 670c0 155 23 288 70 400 47 111 109 194 186 249 60 43 122 65 186 65 104 0 197-53 280-159 103-131 155-309 155-534 0-157-23-291-68-401S780 100 710 51C639 1 571-24 506-24c-129 0-237 76-323 229C110 334 74 489 74 670m196-25c0-187 23-339 69-457 38-99 95-149 170-149 36 0 73 16 112 49 39 32 68 86 88 162 31 115 46 276 46 485 0 155-16 284-48 387-24 77-55 131-93 163-27 22-60 33-99 33-45 0-86-20-121-61-48-55-81-142-98-261s-26-236-26-351" horiz-adv-x="1024" unicode="0"/>
    <glyph id="glyph32" d="m240 1223 330 161h33V239c0-76 3-123 10-142 6-19 19-33 39-43s61-16 122-17V0H264v37c64 1 105 7 124 17 19 9 32 22 39 39 7 16 11 65 11 146v732c0 99-3 162-10 190-5 21-13 37-25 47-13 10-28 15-45 15-25 0-59-10-103-31z" horiz-adv-x="1024" unicode="1"/>
    <glyph id="glyph34" d="M104 1098c39 91 88 162 147 212 59 49 132 74 220 74 109 0 192-35 250-106 44-53 66-109 66-169 0-99-62-201-186-306 83-33 146-79 189-140s64-132 64-214c0-117-37-219-112-305C645 32 504-24 319-24c-91 0-153 11-186 34S83 57 83 83c0 19 8 36 24 51 15 15 34 22 56 22 17 0 34-3 51-8 11-3 37-15 77-36s68-34 83-38c25-7 51-11 79-11 68 0 127 26 178 79 50 53 75 115 75 187 0 53-12 104-35 154-17 37-36 66-57 85-29 27-68 51-118 73-50 21-101 32-153 32h-32v30c53 7 106 26 159 57s91 69 115 113 36 92 36 145c0 69-21 124-64 167-43 42-97 63-161 63-103 0-190-55-259-166z" horiz-adv-x="1024" unicode="3"/>
    <glyph id="glyph36" d="m889 1356-78-170H403l-89-182c177-26 317-92 420-197 89-91 133-197 133-320 0-71-14-137-43-198s-66-112-110-155-93-77-147-103C490-6 412-24 331-24S191-10 154 18c-37 27-56 58-56 91 0 19 8 35 23 50 15 14 35 21 58 21 17 0 33-3 46-8s35-19 66-41c50-35 101-52 152-52 78 0 147 30 206 89s88 130 88 215c0 82-26 159-79 230S533 738 440 777c-73 30-172 47-297 52l260 527z" horiz-adv-x="1024" unicode="5"/>
    <glyph id="glyph38" d="M918 1384v-37c-88-9-160-26-215-52-56-27-111-67-165-121-55-54-100-114-135-180-36-67-66-146-90-237 96 66 192 99 289 99 93 0 173-37 241-112s102-171 102-288c0-113-34-217-103-310C759 33 650-24 514-24c-93 0-171 31-236 92C151 187 88 342 88 532c0 121 24 237 73 346s118 206 209 291c90 85 176 142 259 171s160 44 231 44M296 684c-12-90-18-163-18-218 0-64 12-133 36-208 23-75 58-135 105-179 34-31 75-47 124-47 58 0 110 27 156 82 45 55 68 133 68 234 0 114-23 213-68 296S589 769 506 769c-25 0-52-5-81-16s-72-34-129-69" horiz-adv-x="1024" unicode="6"/>
    <glyph id="glyph40" d="M393 683c-107 88-176 159-207 212s-47 109-47 166c0 88 34 164 102 228 68 63 158 95 271 95 109 0 197-30 264-89s100-127 100-203c0-51-18-102-54-155S711 822 597 751c117-91 195-162 233-214 51-68 76-140 76-215 0-95-36-177-109-244C724 10 629-24 511-24 382-24 282 16 210 97c-57 65-86 135-86 212 0 60 20 120 61 179 40 59 109 124 208 195m157 107c80 72 131 129 152 171 21 41 32 88 32 141 0 70-20 125-59 165-39 39-93 59-161 59s-123-20-166-59-64-85-64-138c0-35 9-69 27-104 17-35 42-68 75-99m54-281c-55-47-96-97-123-152s-40-115-40-179c0-86 24-155 71-206 47-52 106-78 179-78 72 0 130 20 173 61s65 90 65 148c0 48-13 91-38 129-47 71-143 163-287 277" horiz-adv-x="1024" unicode="8"/>
    <glyph id="glyph42" d="M108-28V9c87 1 167 22 242 61s147 107 217 204c69 97 118 204 145 321-105-67-199-101-284-101-95 0-177 37-245 111-68 73-102 171-102 293 0 119 34 224 102 317 82 113 189 169 321 169 111 0 207-46 286-138 97-114 146-255 146-422 0-151-37-291-111-421-74-131-177-239-309-325C409 7 292-28 165-28m563 697c12 87 18 156 18 208 0 65-11 135-33 210s-53 132-93 172c-41 40-87 60-138 60-59 0-111-27-156-80s-67-133-67-238c0-141 30-251 89-330 43-57 97-86 160-86 31 0 67 7 109 22s79 35 111 62" horiz-adv-x="1024" unicode="9"/>
    <glyph id="glyph44" d="M838 0 314 1141V235c0-83 9-135 27-156 25-28 64-42 117-42h48V0H34v37h48c57 0 98 17 122 52 15 21 22 70 22 146v886c0 60-7 103-20 130-9 19-26 36-51 49s-66 19-121 19v37h384L910 295l484 1061h384v-37h-47c-58 0-99-17-123-52-15-21-22-70-22-146V235c0-83 9-135 28-156 25-28 64-42 117-42h47V0h-576v37h48c58 0 99 17 122 52 15 21 22 70 22 146v906L871 0z" horiz-adv-x="1821" unicode="M"/>
    <glyph id="glyph46" d="M1384 0h-362L563 634c-34-1-62-2-83-2-9 0-18 0-28 1-10 0-20 0-31 1V240c0-85 9-138 28-159 25-29 63-44 114-44h53V0H35v37h51c57 0 98 19 123 56 14 21 21 70 21 147v876c0 85-9 138-28 159-26 29-65 44-116 44H35v37h494c144 0 250-10 319-31 68-21 126-60 174-116 47-57 71-124 71-202 0-83-27-156-81-217-55-61-139-105-253-130l280-389c64-89 119-149 165-178s106-48 180-56M421 697h33c9-1 17-1 23-1 129 0 227 28 293 84 65 56 98 127 98 214 0 85-26 154-79 207s-124 79-211 79c-39 0-91-6-157-19z" horiz-adv-x="1366" unicode="R"/>
    <glyph id="glyph48" d="m1185 1356 15-318h-38c-7 56-17 96-30 120-21 39-48 67-82 86-35 18-80 27-136 27H723V235c0-83 9-135 27-156 25-28 64-42 117-42h47V0H339v37h48c57 0 98 17 122 52 15 21 22 70 22 146v1036H368c-63 0-108-5-135-14-35-13-64-37-89-73s-39-85-44-146H62l16 318z" horiz-adv-x="1251" unicode="T"/>
    <glyph id="glyph50" d="M842 348c-25-121-73-213-145-278S545-28 458-28c-104 0-195 44-272 131S70 308 70 457c0 144 43 261 129 351 85 90 188 135 308 135 90 0 164-24 222-71 58-48 87-98 87-149 0-25-8-46-24-61-17-16-40-24-69-24-39 0-69 13-89 38-11 14-19 41-22 80-4 39-18 69-41 90-23 20-56 30-97 30-67 0-120-25-161-74-54-65-81-152-81-259 0-109 27-206 81-289 53-84 126-126 217-126 65 0 124 22 176 67 37 31 72 86 107 167z" horiz-adv-x="909" unicode="c"/>
    <glyph id="glyph52" d="M218 571c-1-136 32-243 99-320s145-116 235-116c60 0 112 17 157 50 44 33 81 89 111 169l31-20c-14-91-55-174-122-249S577-28 476-28c-110 0-204 43-282 129-79 85-118 200-118 345 0 157 40 279 121 367 80 87 181 131 302 131 103 0 187-34 253-101 66-68 99-159 99-272m-633 58h424c-3 59-10 100-21 124-17 37-41 67-74 88s-68 32-104 32c-55 0-105-21-148-64-44-43-70-103-77-180" horiz-adv-x="909" unicode="e"/>
    <glyph id="glyph54" d="M422 844V242c0-85 9-139 28-162 25-29 58-44 99-44h83V0H85v36h41c27 0 51 7 73 20s37 31 46 54c8 23 12 67 12 132v602H79v72h178v60c0 91 15 169 44 232s74 115 135 154c60 39 128 58 203 58 70 0 134-23 193-68 39-30 58-64 58-101 0-20-9-39-26-56-17-18-36-27-56-27-15 0-31 6-48 17s-38 34-63 71c-25 36-47 60-68 73s-44 19-69 19c-31 0-57-8-78-24-21-17-37-42-46-76-9-35-14-123-14-266v-66h236v-72z" horiz-adv-x="682" unicode="f"/>
    <glyph id="glyph56" d="M333 1422V752c74 81 133 134 176 157s87 34 130 34c52 0 97-14 134-43s65-74 83-135c13-43 19-121 19-234V207c0-58 5-98 14-119 7-16 18-29 34-38s45-14 88-14V0H561v36h21c43 0 72 7 89 20s28 32 35 57c2 11 3 42 3 94v324c0 100-5 166-15 197-11 31-27 55-50 71-23 15-50 23-82 23-33 0-67-9-102-26s-78-52-127-105V207c0-63 4-102 11-117s20-28 39-38c19-11 51-16 98-16V0H27v36c41 0 73 6 96 19 13 7 24 19 32 38s12 57 12 114v829c0 105-2 169-7 193s-13 40-23 49c-11 9-25 13-42 13-14 0-37-5-68-16l-14 35 274 112z" horiz-adv-x="1024" unicode="h"/>
    <glyph id="glyph58" d="M297 1422c28 0 52-10 72-29 19-20 29-44 29-72s-10-52-29-72c-20-20-44-30-72-30s-52 10-72 30-30 44-30 72 10 52 30 72c19 19 43 29 72 29m83-479V207c0-57 4-95 13-114 8-19 20-34 37-43 16-9 46-14 89-14V0H74v36c45 0 75 4 90 13s28 23 37 43 13 58 13 115v353c0 99-3 164-9 193-5 21-12 36-22 45-10 8-24 12-41 12-19 0-41-5-68-15l-14 36 276 112z" horiz-adv-x="569" unicode="i"/>
    <glyph id="glyph60" d="M331 749c107 129 210 194 307 194 50 0 93-12 129-37s65-67 86-124c15-40 22-101 22-184V207c0-58 5-97 14-118 7-17 19-30 36-39 16-9 46-14 90-14V0H562v36h19c43 0 73 7 90 20s28 32 35 57c3 10 4 41 4 94v375c0 83-11 144-32 182-22 37-59 56-110 56-79 0-158-43-237-130V207c0-62 4-100 11-115 9-19 22-33 39-42 16-9 49-14 99-14V0H27v36h20c47 0 78 12 95 36 16 23 24 68 24 135v340c0 110-2 177-7 201s-13 40-23 49c-11 9-25 13-42 13-19 0-41-5-67-15l-15 36 276 112h43z" horiz-adv-x="1024" unicode="n"/>
    <glyph id="glyph62" d="M332 943V737c77 137 155 206 236 206 37 0 67-11 91-33 24-23 36-49 36-78 0-26-9-48-26-66s-38-27-62-27c-23 0-49 12-78 35s-51 34-65 34c-12 0-25-7-39-20-30-27-61-72-93-135V214c0-51 6-89 19-115 9-18 24-33 46-45s54-18 95-18V0H23v36c47 0 81 7 104 22 17 11 28 28 35 51 3 11 5 44 5 97v355c0 107-2 170-6 191-5 20-13 35-24 44-12 9-27 14-44 14-21 0-44-5-70-15l-10 36 277 112z" horiz-adv-x="682" unicode="r"/>
    <glyph id="glyph64" d="M656 943V631h-33c-25 98-58 165-97 200-40 35-91 53-152 53-47 0-84-12-113-37s-43-52-43-82c0-37 11-69 32-96s63-56 126-87l146-71c135-66 203-153 203-261 0-83-31-150-94-201S497-28 419-28c-56 0-120 10-192 30-22 7-40 10-54 10-15 0-27-9-36-26h-33v327h33c19-93 54-164 107-211s112-71 177-71c46 0 84 14 113 41s43 59 43 97c0 46-16 85-48 116-33 31-97 71-194 119s-160 91-190 130c-30 38-45 86-45 144 0 75 26 138 78 189 51 51 118 76 200 76 36 0 80-8 131-23 34-10 57-15 68-15s19 2 25 7 13 15 21 31z" horiz-adv-x="797" unicode="s"/>
    <glyph id="glyph66" d="M330 1217V916h214v-70H330V252c0-59 9-99 26-120s38-31 65-31c22 0 43 7 64 21 21 13 37 33 48 60h39c-23-65-56-114-99-147s-87-50-132-50c-31 0-61 9-90 26s-51 41-65 73c-14 31-21 80-21 146v616H20v33c37 15 74 40 113 75 38 35 72 76 102 124 15 25 37 72 64 139z" horiz-adv-x="569" unicode="t"/>
    <glyph id="glyph68" d="M1041 453H-18v73h1059z" horiz-adv-x="1024" unicode="–"/>
  </font>
  <font id="font108" horiz-adv-x="2048" horiz-origin-x="0" horiz-origin-y="0" vert-adv-y="90" vert-origin-x="45" vert-origin-y="90">
    <font-face id="font-face72" font-family="'Times New Roman'" font-style="italic" underline-position="-223" underline-thickness="100" units-per-em="2048">
      <font-face-src>
        <font-face-name name="Times New Roman Kursiv"/>
      </font-face-src>
    </font-face>
    <glyph id="glyph76" horiz-adv-x="512"/>
    <glyph id="glyph78" d="M170 179c29 0 53-10 73-29 19-20 29-44 29-72s-10-52-30-71c-20-20-44-30-72-30S118-13 99 7C79 26 69 50 69 78s10 52 30 72c19 19 43 29 71 29" horiz-adv-x="512" unicode="."/>
    <glyph id="glyph80" d="M781 1422 19-31h-88l767 1453z" horiz-adv-x="569" unicode="/"/>
    <glyph id="glyph82" d="M708 1384c85 0 157-36 216-107 58-71 87-184 87-338 0-132-22-267-65-404S842 279 763 178C700 99 635 41 566 6c-40-20-86-30-139-30-87 0-159 36-217 107-59 71-88 184-88 339 0 153 29 306 88 460 69 180 156 317 263 410 70 61 148 92 235 92m1-52c-39 0-78-15-117-45-40-31-81-94-123-190-43-96-83-220-122-371-50-198-75-367-75-506 0-69 15-121 45-155 30-35 66-52 109-52 41 0 75 13 104 40 77 72 142 195 197 369 89 285 133 516 133 694 0 74-15 129-45 164s-65 52-106 52" horiz-adv-x="1024" unicode="0"/>
    <glyph id="glyph84" d="M855 1384 533 263c-19-66-28-114-28-143 0-25 9-43 26-56s56-22 119-27L640 0H125l14 37c55 1 91 6 108 13 28 12 49 28 63 48 22 31 44 86 67 165l232 805c14 49 22 77 23 84 2 13 3 26 3 39 0 23-6 42-19 55s-30 20-52 20c-17 0-44-4-81-12l-13 36 337 94z" horiz-adv-x="1024" unicode="1"/>
    <glyph id="glyph86" d="M707 0H32v37c344 301 571 538 682 709 51 79 77 163 77 250 0 69-21 126-64 170-43 43-98 65-166 65-94 0-171-45-232-135l-35 16c34 86 84 153 149 201 65 47 136 71 212 71 86 0 158-29 217-88s88-131 88-215c0-59-10-113-31-163-32-78-91-165-177-262-131-148-305-318-523-511h340c55 0 100 11 135 34s61 53 76 91h40z" horiz-adv-x="1024" unicode="2"/>
    <glyph id="glyph88" d="M313 741v29c161 25 282 73 361 144 57 51 86 111 86 181 0 53-17 96-50 131-33 34-74 51-121 51-75 0-141-46-199-139l-37 11c35 77 79 136 134 176 54 39 113 59 178 59 79 0 142-23 191-70s73-107 73-179c0-61-23-120-68-177-46-57-125-107-236-152 69-29 122-70 157-123 35-54 53-119 53-194 0-83-24-167-72-250-48-84-114-149-197-194-84-46-172-69-264-69-84 0-148 15-191 44-29 20-43 43-43 70 0 23 9 43 26 60s37 25 62 25c17 0 35-3 52-8 11-3 37-17 79-40 41-23 74-39 97-46 23-8 47-12 72-12 60 0 110 35 149 105 39 69 58 143 58 222 0 64-13 121-39 171-27 50-68 91-125 122s-119 48-186 52" horiz-adv-x="1024" unicode="3"/>
    <glyph id="glyph90" d="M997 1356 738 464h162l-36-124H700L595-24H448l106 364H64l42 140 815 876m-146-258L192 464h401z" horiz-adv-x="1024" unicode="4"/>
    <glyph id="glyph92" d="M397 1356h675v-34L312-24l-80 37 665 1184H575c-89 0-149-8-181-23-33-16-70-54-113-115h-41z" horiz-adv-x="1024" unicode="7"/>
    <glyph id="glyph94" d="M691 759c64-69 111-134 141-195 29-61 44-121 44-182 0-109-41-203-124-284S567-24 446-24C337-24 249 9 181 75 112 141 78 218 78 306c0 75 28 149 84 222 55 73 160 143 315 210-59 73-99 133-120 180s-32 94-32 141c0 89 33 165 100 229 66 64 149 96 250 96 96 0 174-28 235-83s91-120 91-194c0-73-24-140-73-200S800 798 691 759m-39 42c72 25 128 65 168 121 39 56 59 120 59 193 0 68-19 122-57 161-39 39-89 58-151 58-59 0-107-19-144-56s-55-86-55-145c0-45 10-86 29-124 28-56 78-125 151-208M514 697c-99-41-174-101-225-179-51-79-77-163-77-253 0-73 23-131 68-175 45-45 104-67 177-67 76 0 140 27 192 80s78 117 78 191c0 56-15 115-45 177-31 61-87 137-168 226" horiz-adv-x="1024" unicode="8"/>
    <glyph id="glyph96" d="M59-24V8c69 15 128 36 179 64 90 49 171 110 243 183 71 73 135 157 191 253-41-20-72-33-95-39s-48-9-76-9c-101 0-178 34-231 103s-80 149-80 240c0 159 52 296 156 410 103 114 213 171 330 171 106 0 187-40 244-119 57-80 85-173 85-280 0-135-31-269-94-401S763 338 656 243 436 77 318 31C248 4 162-15 59-24m663 615c94 191 141 361 141 511 0 73-18 129-53 169-36 40-78 60-125 60-79 0-150-55-215-165s-98-241-98-392c0-80 19-140 56-181s83-62 139-62c25 0 49 4 70 12 21 7 50 23 85 48" horiz-adv-x="1024" unicode="9"/>
    <glyph id="glyph98" d="M435 906c28 0 52-10 72-29 20-20 30-44 30-72s-10-52-30-72-44-30-72-30-52 10-72 30-30 44-30 72 10 52 30 72c20 19 44 29 72 29M223 182c28 0 52-10 71-29 19-20 29-44 29-72 0-27-10-51-29-70-20-20-44-30-71-30-28 0-52 10-71 30-20 19-30 43-30 70 0 28 10 52 30 72 19 19 43 29 71 29" horiz-adv-x="682" unicode=":"/>
    <glyph id="glyph100" d="m303 1319 14 37h484c81 0 154-13 218-38 63-25 111-61 143-106 31-45 47-93 47-144 0-78-28-148-84-211-57-63-149-110-276-140 82-31 142-71 181-122s58-106 58-167c0-67-17-132-52-193S957 126 903 92c-55-34-120-59-197-75C651 6 566 0 450 0H-47l13 37c52 1 87 6 106 15 27 11 46 26 57 45 16 25 37 83 64 174l243 821c21 69 31 118 31 146 0 25-9 44-27 59-19 14-54 21-105 21-11 0-22 0-32 1m203-563c43-1 75-2 94-2 139 0 242 30 310 91 67 60 101 135 101 226 0 69-21 122-62 161-41 38-107 57-198 57-24 0-55-4-92-12M309 88c72-9 128-14 169-14 104 0 196 31 277 94 80 63 120 148 120 255 0 82-25 146-74 192-50 46-130 69-241 69-21 0-47-1-78-3z" horiz-adv-x="1251" unicode="B"/>
    <glyph id="glyph102" d="M609 1422 267 232c-17-59-25-96-25-109 0-10 3-18 10-25 6-7 14-10 23-10 13 0 26 6 41 17 35 27 71 70 109 127l30-31C392 112 333 49 280 14c-39-25-77-38-112-38-25 0-46 9-63 26S79 39 79 62c0 24 11 73 32 148l271 938c22 77 33 121 33 132 0 16-6 29-19 40-13 10-32 15-59 15-15 0-39-2-70-7v37z" horiz-adv-x="569" unicode="l"/>
    <glyph id="glyph104" d="m107 849 345 56-144-486c117 199 223 339 318 418 54 45 98 68 132 68 22 0 39-6 52-19s19-32 19-57c0-44-11-86-34-126-16-30-39-45-69-45-15 0-28 5-39 15s-18 25-21 46c-1 13-4 21-9 25-5 5-12 8-19 8-11 0-22-3-32-8-17-9-44-35-79-78-55-65-115-150-180-254-28-44-52-94-72-149-28-76-44-122-48-137L195 0H42l185 621c21 72 32 123 32 154 0 12-5 22-15 30-13 11-31 16-53 16-14 0-40-3-77-9z" horiz-adv-x="797" unicode="r"/>
    <glyph id="glyph106" d="M1041 453H-18v73h1059z" horiz-adv-x="1024" unicode="–"/>
  </font>
</svg>
