<?xml version="1.0" encoding="UTF-8" standalone="no"?>
<!DOCTYPE svg PUBLIC "-//W3C//DTD SVG 1.1//EN"
 "http://www.w3.org/Graphics/SVG/1.1/DTD/svg11.dtd">
<!-- Generated by graphviz version 2.47.0 (20210316.0004)
 -->
<!-- Title: dependencies Pages: 1 -->
<svg width="800pt" height="211pt"
 viewBox="0.00 0.00 800.00 211.00" xmlns="http://www.w3.org/2000/svg" xmlns:xlink="http://www.w3.org/1999/xlink">
<g id="graph0" class="graph" transform="scale(1 1) rotate(0) translate(4 207)">
<title>dependencies</title>
<polygon fill="white" stroke="transparent" points="-4,4 -4,-207 796,-207 796,4 -4,4"/>
<text text-anchor="start" x="375.01" y="-42.4" font-family="sans-serif" font-weight="bold" font-size="14.00">Legend</text>
<polygon fill="#ffffb3" stroke="transparent" points="162,-10 162,-30 182,-30 182,-10 162,-10"/>
<text text-anchor="start" x="185.63" y="-15.4" font-family="sans-serif" font-size="14.00"> &#160;Declarations</text>
<polygon fill="#8dd3c7" stroke="transparent" points="275,-10 275,-30 295,-30 295,-10 275,-10"/>
<text text-anchor="start" x="298.73" y="-15.4" font-family="sans-serif" font-size="14.00"> &#160;Module</text>
<polygon fill="#80b1d3" stroke="transparent" points="361,-10 361,-30 381,-30 381,-10 361,-10"/>
<text text-anchor="start" x="384.78" y="-15.4" font-family="sans-serif" font-size="14.00"> &#160;Bootstrap</text>
<polygon fill="#fdb462" stroke="transparent" points="458,-10 458,-30 478,-30 478,-10 458,-10"/>
<text text-anchor="start" x="481.67" y="-15.4" font-family="sans-serif" font-size="14.00"> &#160;Providers</text>
<polygon fill="#fb8072" stroke="transparent" points="554,-10 554,-30 574,-30 574,-10 554,-10"/>
<text text-anchor="start" x="577.73" y="-15.4" font-family="sans-serif" font-size="14.00"> &#160;Exports</text>
<g id="clust1" class="cluster">
<title>cluster_EditionReportModule</title>
<polygon fill="none" stroke="black" stroke-dasharray="1,5" points="8,-70 8,-195 784,-195 784,-70 8,-70"/>
</g>
<g id="clust2" class="cluster">
<title>cluster_EditionReportModule_declarations</title>
<polygon fill="none" stroke="black" points="600,-78 600,-130 776,-130 776,-78 600,-78"/>
</g>
<g id="clust4" class="cluster">
<title>cluster_EditionReportModule_imports</title>
<polygon fill="none" stroke="black" points="16,-78 16,-130 592,-130 592,-78 16,-78"/>
</g>
<!-- EditionReportComponent -->
<g id="node1" class="node">
<title>EditionReportComponent</title>
<polygon fill="#ffffb3" stroke="black" points="768.16,-122 607.84,-122 607.84,-86 768.16,-86 768.16,-122"/>
<text text-anchor="middle" x="688" y="-99.8" font-family="Times,serif" font-size="14.00">EditionReportComponent</text>
</g>
<!-- EditionReportModule -->
<g id="node2" class="node">
<title>EditionReportModule</title>
<polygon fill="#8dd3c7" stroke="black" points="402.38,-187 399.38,-191 378.38,-191 375.38,-187 263.62,-187 263.62,-151 402.38,-151 402.38,-187"/>
<text text-anchor="middle" x="333" y="-164.8" font-family="Times,serif" font-size="14.00">EditionReportModule</text>
</g>
<!-- EditionReportComponent&#45;&gt;EditionReportModule -->
<g id="edge1" class="edge">
<title>EditionReportComponent&#45;&gt;EditionReportModule</title>
<path fill="none" stroke="black" d="M688,-122.11C688,-141.34 688,-169 688,-169 688,-169 412.71,-169 412.71,-169"/>
<polygon fill="black" stroke="black" points="412.71,-165.5 402.71,-169 412.71,-172.5 412.71,-165.5"/>
</g>
<!-- EditionReportRoutingModule -->
<g id="node3" class="node">
<title>EditionReportRoutingModule</title>
<polygon fill="#8dd3c7" stroke="black" points="583.99,-122 580.99,-126 559.99,-126 556.99,-122 400.01,-122 400.01,-86 583.99,-86 583.99,-122"/>
<text text-anchor="middle" x="492" y="-99.8" font-family="Times,serif" font-size="14.00">EditionReportRoutingModule</text>
</g>
<!-- EditionReportRoutingModule&#45;&gt;EditionReportModule -->
<g id="edge2" class="edge">
<title>EditionReportRoutingModule&#45;&gt;EditionReportModule</title>
<path fill="none" stroke="black" d="M399.71,-104C394.36,-104 391.11,-104 391.11,-104 391.11,-104 391.11,-140.89 391.11,-140.89"/>
<polygon fill="black" stroke="black" points="387.61,-140.89 391.11,-150.89 394.61,-140.89 387.61,-140.89"/>
</g>
<!-- SharedModule -->
<g id="node4" class="node">
<title>SharedModule</title>
<polygon fill="#8dd3c7" stroke="black" points="382.42,-122 379.42,-126 358.42,-126 355.42,-122 283.58,-122 283.58,-86 382.42,-86 382.42,-122"/>
<text text-anchor="middle" x="333" y="-99.8" font-family="Times,serif" font-size="14.00">SharedModule</text>
</g>
<!-- SharedModule&#45;&gt;EditionReportModule -->
<g id="edge3" class="edge">
<title>SharedModule&#45;&gt;EditionReportModule</title>
<path fill="none" stroke="black" d="M333,-122.11C333,-122.11 333,-140.99 333,-140.99"/>
<polygon fill="black" stroke="black" points="329.5,-140.99 333,-150.99 336.5,-140.99 329.5,-140.99"/>
</g>
<!-- SourcesModule -->
<g id="node5" class="node">
<title>SourcesModule</title>
<polygon fill="#8dd3c7" stroke="black" points="265.87,-122 262.87,-126 241.87,-126 238.87,-122 162.13,-122 162.13,-86 265.87,-86 265.87,-122"/>
<text text-anchor="middle" x="214" y="-99.8" font-family="Times,serif" font-size="14.00">SourcesModule</text>
</g>
<!-- SourcesModule&#45;&gt;EditionReportModule -->
<g id="edge4" class="edge">
<title>SourcesModule&#45;&gt;EditionReportModule</title>
<path fill="none" stroke="black" d="M265.88,-104C271.29,-104 274.86,-104 274.86,-104 274.86,-104 274.86,-140.89 274.86,-140.89"/>
<polygon fill="black" stroke="black" points="271.36,-140.89 274.86,-150.89 278.36,-140.89 271.36,-140.89"/>
</g>
<!-- TextcriticsModule -->
<g id="node6" class="node">
<title>TextcriticsModule</title>
<polygon fill="#8dd3c7" stroke="black" points="143.91,-122 140.91,-126 119.91,-126 116.91,-122 24.09,-122 24.09,-86 143.91,-86 143.91,-122"/>
<text text-anchor="middle" x="84" y="-99.8" font-family="Times,serif" font-size="14.00">TextcriticsModule</text>
</g>
<!-- TextcriticsModule&#45;&gt;EditionReportModule -->
<g id="edge5" class="edge">
<title>TextcriticsModule&#45;&gt;EditionReportModule</title>
<path fill="none" stroke="black" d="M84,-122.11C84,-141.34 84,-169 84,-169 84,-169 253.31,-169 253.31,-169"/>
<polygon fill="black" stroke="black" points="253.31,-172.5 263.31,-169 253.31,-165.5 253.31,-172.5"/>
</g>
</g>
</svg>
