<?xml version="1.0" encoding="UTF-8" standalone="no"?>
<!DOCTYPE svg PUBLIC "-//W3C//DTD SVG 1.1//EN"
 "http://www.w3.org/Graphics/SVG/1.1/DTD/svg11.dtd">
<!-- Generated by graphviz version 2.47.0 (20210316.0004)
 -->
<!-- Title: dependencies Pages: 1 -->
<svg width="1660pt" height="211pt"
 viewBox="0.00 0.00 1660.00 211.00" xmlns="http://www.w3.org/2000/svg" xmlns:xlink="http://www.w3.org/1999/xlink">
<g id="graph0" class="graph" transform="scale(1 1) rotate(0) translate(4 207)">
<title>dependencies</title>
<polygon fill="white" stroke="transparent" points="-4,4 -4,-207 1656,-207 1656,4 -4,4"/>
<text text-anchor="start" x="805.01" y="-42.4" font-family="Times-12" font-weight="bold" font-size="14.00">Legend</text>
<polygon fill="#ffffb3" stroke="transparent" points="592,-10 592,-30 612,-30 612,-10 592,-10"/>
<text text-anchor="start" x="615.63" y="-15.4" font-family="Times-12" font-size="14.00"> &#160;Declarations</text>
<polygon fill="#8dd3c7" stroke="transparent" points="705,-10 705,-30 725,-30 725,-10 705,-10"/>
<text text-anchor="start" x="728.73" y="-15.4" font-family="Times-12" font-size="14.00"> &#160;Module</text>
<polygon fill="#80b1d3" stroke="transparent" points="791,-10 791,-30 811,-30 811,-10 791,-10"/>
<text text-anchor="start" x="814.78" y="-15.4" font-family="Times-12" font-size="14.00"> &#160;Bootstrap</text>
<polygon fill="#fdb462" stroke="transparent" points="888,-10 888,-30 908,-30 908,-10 888,-10"/>
<text text-anchor="start" x="911.67" y="-15.4" font-family="Times-12" font-size="14.00"> &#160;Providers</text>
<polygon fill="#fb8072" stroke="transparent" points="984,-10 984,-30 1004,-30 1004,-10 984,-10"/>
<text text-anchor="start" x="1007.73" y="-15.4" font-family="Times-12" font-size="14.00"> &#160;Exports</text>
<g id="clust1" class="cluster">
<title>cluster_EditionReportModule</title>
<polygon fill="none" stroke="black" stroke-dasharray="1,5" points="8,-70 8,-195 1644,-195 1644,-70 8,-70"/>
</g>
<g id="clust2" class="cluster">
<title>cluster_EditionReportModule_declarations</title>
<polygon fill="none" stroke="black" points="718,-78 718,-130 1636,-130 1636,-78 718,-78"/>
</g>
<g id="clust8" class="cluster">
<title>cluster_EditionReportModule_imports</title>
<polygon fill="none" stroke="black" points="16,-78 16,-130 710,-130 710,-78 16,-78"/>
</g>
<!-- EditionReportComponent -->
<g id="node1" class="node">
<title>EditionReportComponent</title>
<polygon fill="#ffffb3" stroke="black" points="1628.16,-122 1467.84,-122 1467.84,-86 1628.16,-86 1628.16,-122"/>
<text text-anchor="middle" x="1548" y="-99.8" font-family="Times,serif" font-size="14.00">EditionReportComponent</text>
</g>
<!-- EditionReportModule -->
<g id="node6" class="node">
<title>EditionReportModule</title>
<polygon fill="#8dd3c7" stroke="black" points="876.38,-187 873.38,-191 852.38,-191 849.38,-187 737.62,-187 737.62,-151 876.38,-151 876.38,-187"/>
<text text-anchor="middle" x="807" y="-164.8" font-family="Times,serif" font-size="14.00">EditionReportModule</text>
</g>
<!-- EditionReportComponent&#45;&gt;EditionReportModule -->
<g id="edge1" class="edge">
<title>EditionReportComponent&#45;&gt;EditionReportModule</title>
<path fill="none" stroke="black" d="M1548,-122.01C1548,-144.49 1548,-180 1548,-180 1548,-180 886.38,-180 886.38,-180"/>
<polygon fill="black" stroke="black" points="886.38,-176.5 876.38,-180 886.38,-183.5 886.38,-176.5"/>
</g>
<!-- SourceDescriptionComponent -->
<g id="node2" class="node">
<title>SourceDescriptionComponent</title>
<polygon fill="#ffffb3" stroke="black" points="1449.52,-122 1264.48,-122 1264.48,-86 1449.52,-86 1449.52,-122"/>
<text text-anchor="middle" x="1357" y="-99.8" font-family="Times,serif" font-size="14.00">SourceDescriptionComponent</text>
</g>
<!-- SourceDescriptionComponent&#45;&gt;EditionReportModule -->
<g id="edge2" class="edge">
<title>SourceDescriptionComponent&#45;&gt;EditionReportModule</title>
<path fill="none" stroke="black" d="M1357,-122.13C1357,-142.57 1357,-173 1357,-173 1357,-173 886.38,-173 886.38,-173"/>
<polygon fill="black" stroke="black" points="886.38,-169.5 876.38,-173 886.38,-176.5 886.38,-169.5"/>
</g>
<!-- SourceEvaluationComponent -->
<g id="node3" class="node">
<title>SourceEvaluationComponent</title>
<polygon fill="#ffffb3" stroke="black" points="1246.36,-122 1065.64,-122 1065.64,-86 1246.36,-86 1246.36,-122"/>
<text text-anchor="middle" x="1156" y="-99.8" font-family="Times,serif" font-size="14.00">SourceEvaluationComponent</text>
</g>
<!-- SourceEvaluationComponent&#45;&gt;EditionReportModule -->
<g id="edge3" class="edge">
<title>SourceEvaluationComponent&#45;&gt;EditionReportModule</title>
<path fill="none" stroke="black" d="M1156,-122.27C1156,-140.56 1156,-166 1156,-166 1156,-166 886.79,-166 886.79,-166"/>
<polygon fill="black" stroke="black" points="886.79,-162.5 876.79,-166 886.79,-169.5 886.79,-162.5"/>
</g>
<!-- SourceListComponent -->
<g id="node4" class="node">
<title>SourceListComponent</title>
<polygon fill="#ffffb3" stroke="black" points="1047.98,-122 906.02,-122 906.02,-86 1047.98,-86 1047.98,-122"/>
<text text-anchor="middle" x="977" y="-99.8" font-family="Times,serif" font-size="14.00">SourceListComponent</text>
</g>
<!-- SourceListComponent&#45;&gt;EditionReportModule -->
<g id="edge4" class="edge">
<title>SourceListComponent&#45;&gt;EditionReportModule</title>
<path fill="none" stroke="black" d="M977,-122.01C977,-138.05 977,-159 977,-159 977,-159 886.64,-159 886.64,-159"/>
<polygon fill="black" stroke="black" points="886.64,-155.5 876.64,-159 886.64,-162.5 886.64,-155.5"/>
</g>
<!-- TextcriticsListComponent -->
<g id="node5" class="node">
<title>TextcriticsListComponent</title>
<polygon fill="#ffffb3" stroke="black" points="888.47,-122 725.53,-122 725.53,-86 888.47,-86 888.47,-122"/>
<text text-anchor="middle" x="807" y="-99.8" font-family="Times,serif" font-size="14.00">TextcriticsListComponent</text>
</g>
<!-- TextcriticsListComponent&#45;&gt;EditionReportModule -->
<g id="edge5" class="edge">
<title>TextcriticsListComponent&#45;&gt;EditionReportModule</title>
<path fill="none" stroke="black" d="M807,-122.11C807,-122.11 807,-140.99 807,-140.99"/>
<polygon fill="black" stroke="black" points="803.5,-140.99 807,-150.99 810.5,-140.99 803.5,-140.99"/>
</g>
<!-- EditionReportRoutingModule -->
<g id="node7" class="node">
<title>EditionReportRoutingModule</title>
<polygon fill="#8dd3c7" stroke="black" points="701.99,-122 698.99,-126 677.99,-126 674.99,-122 518.01,-122 518.01,-86 701.99,-86 701.99,-122"/>
<text text-anchor="middle" x="610" y="-99.8" font-family="Times,serif" font-size="14.00">EditionReportRoutingModule</text>
</g>
<!-- EditionReportRoutingModule&#45;&gt;EditionReportModule -->
<g id="edge6" class="edge">
<title>EditionReportRoutingModule&#45;&gt;EditionReportModule</title>
<path fill="none" stroke="black" d="M610,-122.01C610,-138.05 610,-159 610,-159 610,-159 727.55,-159 727.55,-159"/>
<polygon fill="black" stroke="black" points="727.55,-162.5 737.55,-159 727.55,-155.5 727.55,-162.5"/>
</g>
<!-- EditionTkaDescriptionModule -->
<g id="node8" class="node">
<title>EditionTkaDescriptionModule</title>
<polygon fill="#8dd3c7" stroke="black" points="499.85,-122 496.85,-126 475.85,-126 472.85,-122 312.15,-122 312.15,-86 499.85,-86 499.85,-122"/>
<text text-anchor="middle" x="406" y="-99.8" font-family="Times,serif" font-size="14.00">EditionTkaDescriptionModule</text>
</g>
<!-- EditionTkaDescriptionModule&#45;&gt;EditionReportModule -->
<g id="edge7" class="edge">
<title>EditionTkaDescriptionModule&#45;&gt;EditionReportModule</title>
<path fill="none" stroke="black" d="M406,-122.27C406,-140.56 406,-166 406,-166 406,-166 727.61,-166 727.61,-166"/>
<polygon fill="black" stroke="black" points="727.61,-169.5 737.61,-166 727.61,-162.5 727.61,-169.5"/>
</g>
<!-- EditionTkaTableModule -->
<g id="node9" class="node">
<title>EditionTkaTableModule</title>
<polygon fill="#8dd3c7" stroke="black" points="294.41,-122 291.41,-126 270.41,-126 267.41,-122 139.59,-122 139.59,-86 294.41,-86 294.41,-122"/>
<text text-anchor="middle" x="217" y="-99.8" font-family="Times,serif" font-size="14.00">EditionTkaTableModule</text>
</g>
<!-- EditionTkaTableModule&#45;&gt;EditionReportModule -->
<g id="edge8" class="edge">
<title>EditionTkaTableModule&#45;&gt;EditionReportModule</title>
<path fill="none" stroke="black" d="M217,-122.13C217,-142.57 217,-173 217,-173 217,-173 727.58,-173 727.58,-173"/>
<polygon fill="black" stroke="black" points="727.58,-176.5 737.58,-173 727.58,-169.5 727.58,-176.5"/>
</g>
<!-- SharedModule -->
<g id="node10" class="node">
<title>SharedModule</title>
<polygon fill="#8dd3c7" stroke="black" points="122.42,-122 119.42,-126 98.42,-126 95.42,-122 23.58,-122 23.58,-86 122.42,-86 122.42,-122"/>
<text text-anchor="middle" x="73" y="-99.8" font-family="Times,serif" font-size="14.00">SharedModule</text>
</g>
<!-- SharedModule&#45;&gt;EditionReportModule -->
<g id="edge9" class="edge">
<title>SharedModule&#45;&gt;EditionReportModule</title>
<path fill="none" stroke="black" d="M73,-122.01C73,-144.49 73,-180 73,-180 73,-180 727.62,-180 727.62,-180"/>
<polygon fill="black" stroke="black" points="727.62,-183.5 737.62,-180 727.62,-176.5 727.62,-183.5"/>
</g>
</g>
</svg>
