<?xml version="1.0" encoding="UTF-8" standalone="no"?>
<!DOCTYPE svg PUBLIC "-//W3C//DTD SVG 1.1//EN"
 "http://www.w3.org/Graphics/SVG/1.1/DTD/svg11.dtd">
<!-- Generated by graphviz version 2.47.0 (20210316.0004)
 -->
<!-- Title: dependencies Pages: 1 -->
<svg width="800pt" height="211pt"
 viewBox="0.00 0.00 800.00 211.00" xmlns="http://www.w3.org/2000/svg" xmlns:xlink="http://www.w3.org/1999/xlink">
<g id="graph0" class="graph" transform="scale(1 1) rotate(0) translate(4 207)">
<title>dependencies</title>
<polygon fill="white" stroke="transparent" points="-4,4 -4,-207 796,-207 796,4 -4,4"/>
<text text-anchor="start" x="375.01" y="-42.4" font-family="sans-serif" font-weight="bold" font-size="14.00">Legend</text>
<polygon fill="#ffffb3" stroke="transparent" points="162,-10 162,-30 182,-30 182,-10 162,-10"/>
<text text-anchor="start" x="185.63" y="-15.4" font-family="sans-serif" font-size="14.00"> &#160;Declarations</text>
<polygon fill="#8dd3c7" stroke="transparent" points="275,-10 275,-30 295,-30 295,-10 275,-10"/>
<text text-anchor="start" x="298.73" y="-15.4" font-family="sans-serif" font-size="14.00"> &#160;Module</text>
<polygon fill="#80b1d3" stroke="transparent" points="361,-10 361,-30 381,-30 381,-10 361,-10"/>
<text text-anchor="start" x="384.78" y="-15.4" font-family="sans-serif" font-size="14.00"> &#160;Bootstrap</text>
<polygon fill="#fdb462" stroke="transparent" points="458,-10 458,-30 478,-30 478,-10 458,-10"/>
<text text-anchor="start" x="481.67" y="-15.4" font-family="sans-serif" font-size="14.00"> &#160;Providers</text>
<polygon fill="#fb8072" stroke="transparent" points="554,-10 554,-30 574,-30 574,-10 554,-10"/>
<text text-anchor="start" x="577.73" y="-15.4" font-family="sans-serif" font-size="14.00"> &#160;Exports</text>
<g id="clust1" class="cluster">
<title>cluster_EditionReportModule</title>
<polygon fill="none" stroke="black" stroke-dasharray="1,5" points="8,-70 8,-195 784,-195 784,-70 8,-70"/>
</g>
<g id="clust4" class="cluster">
<title>cluster_EditionReportModule_imports</title>
<polygon fill="none" stroke="black" points="200,-78 200,-130 776,-130 776,-78 200,-78"/>
</g>
<g id="clust2" class="cluster">
<title>cluster_EditionReportModule_declarations</title>
<polygon fill="none" stroke="black" points="16,-78 16,-130 192,-130 192,-78 16,-78"/>
</g>
<!-- EditionReportComponent -->
<g id="node1" class="node">
<title>EditionReportComponent</title>
<polygon fill="#ffffb3" stroke="black" points="184.16,-122 23.84,-122 23.84,-86 184.16,-86 184.16,-122"/>
<text text-anchor="middle" x="104" y="-99.8" font-family="Times,serif" font-size="14.00">EditionReportComponent</text>
</g>
<!-- EditionReportModule -->
<g id="node2" class="node">
<title>EditionReportModule</title>
<polygon fill="#8dd3c7" stroke="black" points="467.38,-187 464.38,-191 443.38,-191 440.38,-187 328.62,-187 328.62,-151 467.38,-151 467.38,-187"/>
<text text-anchor="middle" x="398" y="-164.8" font-family="Times,serif" font-size="14.00">EditionReportModule</text>
</g>
<!-- EditionReportComponent&#45;&gt;EditionReportModule -->
<g id="edge1" class="edge">
<title>EditionReportComponent&#45;&gt;EditionReportModule</title>
<path fill="none" stroke="black" d="M104,-122.11C104,-141.34 104,-169 104,-169 104,-169 318.33,-169 318.33,-169"/>
<polygon fill="black" stroke="black" points="318.33,-172.5 328.33,-169 318.33,-165.5 318.33,-172.5"/>
</g>
<!-- EditionReportRoutingModule -->
<g id="node3" class="node">
<title>EditionReportRoutingModule</title>
<polygon fill="#8dd3c7" stroke="black" points="767.99,-122 764.99,-126 743.99,-126 740.99,-122 584.01,-122 584.01,-86 767.99,-86 767.99,-122"/>
<text text-anchor="middle" x="676" y="-99.8" font-family="Times,serif" font-size="14.00">EditionReportRoutingModule</text>
</g>
<!-- EditionReportRoutingModule&#45;&gt;EditionReportModule -->
<g id="edge2" class="edge">
<title>EditionReportRoutingModule&#45;&gt;EditionReportModule</title>
<path fill="none" stroke="black" d="M676,-122.11C676,-141.34 676,-169 676,-169 676,-169 477.43,-169 477.43,-169"/>
<polygon fill="black" stroke="black" points="477.43,-165.5 467.43,-169 477.43,-172.5 477.43,-165.5"/>
</g>
<!-- SharedModule -->
<g id="node4" class="node">
<title>SharedModule</title>
<polygon fill="#8dd3c7" stroke="black" points="566.42,-122 563.42,-126 542.42,-126 539.42,-122 467.58,-122 467.58,-86 566.42,-86 566.42,-122"/>
<text text-anchor="middle" x="517" y="-99.8" font-family="Times,serif" font-size="14.00">SharedModule</text>
</g>
<!-- SharedModule&#45;&gt;EditionReportModule -->
<g id="edge3" class="edge">
<title>SharedModule&#45;&gt;EditionReportModule</title>
<path fill="none" stroke="black" d="M467.29,-104C462.11,-104 458.69,-104 458.69,-104 458.69,-104 458.69,-140.89 458.69,-140.89"/>
<polygon fill="black" stroke="black" points="455.19,-140.89 458.69,-150.89 462.19,-140.89 455.19,-140.89"/>
</g>
<!-- SourcesModule -->
<g id="node5" class="node">
<title>SourcesModule</title>
<polygon fill="#8dd3c7" stroke="black" points="449.87,-122 446.87,-126 425.87,-126 422.87,-122 346.13,-122 346.13,-86 449.87,-86 449.87,-122"/>
<text text-anchor="middle" x="398" y="-99.8" font-family="Times,serif" font-size="14.00">SourcesModule</text>
</g>
<!-- SourcesModule&#45;&gt;EditionReportModule -->
<g id="edge4" class="edge">
<title>SourcesModule&#45;&gt;EditionReportModule</title>
<path fill="none" stroke="black" d="M398,-122.11C398,-122.11 398,-140.99 398,-140.99"/>
<polygon fill="black" stroke="black" points="394.5,-140.99 398,-150.99 401.5,-140.99 394.5,-140.99"/>
</g>
<!-- TextcriticsModule -->
<g id="node6" class="node">
<title>TextcriticsModule</title>
<polygon fill="#8dd3c7" stroke="black" points="327.91,-122 324.91,-126 303.91,-126 300.91,-122 208.09,-122 208.09,-86 327.91,-86 327.91,-122"/>
<text text-anchor="middle" x="268" y="-99.8" font-family="Times,serif" font-size="14.00">TextcriticsModule</text>
</g>
<!-- TextcriticsModule&#45;&gt;EditionReportModule -->
<g id="edge5" class="edge">
<title>TextcriticsModule&#45;&gt;EditionReportModule</title>
<path fill="none" stroke="black" d="M327.97,-104C333.63,-104 337.31,-104 337.31,-104 337.31,-104 337.31,-140.89 337.31,-140.89"/>
<polygon fill="black" stroke="black" points="333.81,-140.89 337.31,-150.89 340.81,-140.89 333.81,-140.89"/>
</g>
</g>
</svg>
