<?xml version="1.0" encoding="UTF-8" standalone="no"?>
<!DOCTYPE svg PUBLIC "-//W3C//DTD SVG 1.1//EN"
 "http://www.w3.org/Graphics/SVG/1.1/DTD/svg11.dtd">
<!-- Generated by graphviz version 2.47.0 (20210316.0004)
 -->
<!-- Title: dependencies Pages: 1 -->
<svg width="1454pt" height="211pt"
 viewBox="0.00 0.00 1454.00 211.00" xmlns="http://www.w3.org/2000/svg" xmlns:xlink="http://www.w3.org/1999/xlink">
<g id="graph0" class="graph" transform="scale(1 1) rotate(0) translate(4 207)">
<title>dependencies</title>
<polygon fill="white" stroke="transparent" points="-4,4 -4,-207 1450,-207 1450,4 -4,4"/>
<text text-anchor="start" x="702.01" y="-42.4" font-family="Times-12" font-weight="bold" font-size="14.00">Legend</text>
<polygon fill="#ffffb3" stroke="transparent" points="489,-10 489,-30 509,-30 509,-10 489,-10"/>
<text text-anchor="start" x="512.63" y="-15.4" font-family="Times-12" font-size="14.00"> &#160;Declarations</text>
<polygon fill="#8dd3c7" stroke="transparent" points="602,-10 602,-30 622,-30 622,-10 602,-10"/>
<text text-anchor="start" x="625.73" y="-15.4" font-family="Times-12" font-size="14.00"> &#160;Module</text>
<polygon fill="#80b1d3" stroke="transparent" points="688,-10 688,-30 708,-30 708,-10 688,-10"/>
<text text-anchor="start" x="711.78" y="-15.4" font-family="Times-12" font-size="14.00"> &#160;Bootstrap</text>
<polygon fill="#fdb462" stroke="transparent" points="785,-10 785,-30 805,-30 805,-10 785,-10"/>
<text text-anchor="start" x="808.67" y="-15.4" font-family="Times-12" font-size="14.00"> &#160;Providers</text>
<polygon fill="#fb8072" stroke="transparent" points="881,-10 881,-30 901,-30 901,-10 881,-10"/>
<text text-anchor="start" x="904.73" y="-15.4" font-family="Times-12" font-size="14.00"> &#160;Exports</text>
<g id="clust1" class="cluster">
<title>cluster_EditionReportModule</title>
<polygon fill="none" stroke="black" stroke-dasharray="1,5" points="8,-70 8,-195 1438,-195 1438,-70 8,-70"/>
</g>
<g id="clust2" class="cluster">
<title>cluster_EditionReportModule_declarations</title>
<polygon fill="none" stroke="black" points="512,-78 512,-130 1430,-130 1430,-78 512,-78"/>
</g>
<g id="clust8" class="cluster">
<title>cluster_EditionReportModule_imports</title>
<polygon fill="none" stroke="black" points="16,-78 16,-130 504,-130 504,-78 16,-78"/>
</g>
<!-- EditionReportComponent -->
<g id="node1" class="node">
<title>EditionReportComponent</title>
<polygon fill="#ffffb3" stroke="black" points="1422.16,-122 1261.84,-122 1261.84,-86 1422.16,-86 1422.16,-122"/>
<text text-anchor="middle" x="1342" y="-99.8" font-family="Times,serif" font-size="14.00">EditionReportComponent</text>
</g>
<!-- EditionReportModule -->
<g id="node6" class="node">
<title>EditionReportModule</title>
<polygon fill="#8dd3c7" stroke="black" points="755.38,-187 752.38,-191 731.38,-191 728.38,-187 616.62,-187 616.62,-151 755.38,-151 755.38,-187"/>
<text text-anchor="middle" x="686" y="-164.8" font-family="Times,serif" font-size="14.00">EditionReportModule</text>
</g>
<!-- EditionReportComponent&#45;&gt;EditionReportModule -->
<g id="edge1" class="edge">
<title>EditionReportComponent&#45;&gt;EditionReportModule</title>
<path fill="none" stroke="black" d="M1342,-122.29C1342,-144.21 1342,-178 1342,-178 1342,-178 765.58,-178 765.58,-178"/>
<polygon fill="black" stroke="black" points="765.58,-174.5 755.58,-178 765.58,-181.5 765.58,-174.5"/>
</g>
<!-- SourceDescriptionComponent -->
<g id="node2" class="node">
<title>SourceDescriptionComponent</title>
<polygon fill="#ffffb3" stroke="black" points="1243.52,-122 1058.48,-122 1058.48,-86 1243.52,-86 1243.52,-122"/>
<text text-anchor="middle" x="1151" y="-99.8" font-family="Times,serif" font-size="14.00">SourceDescriptionComponent</text>
</g>
<!-- SourceDescriptionComponent&#45;&gt;EditionReportModule -->
<g id="edge2" class="edge">
<title>SourceDescriptionComponent&#45;&gt;EditionReportModule</title>
<path fill="none" stroke="black" d="M1151,-122.11C1151,-141.34 1151,-169 1151,-169 1151,-169 765.62,-169 765.62,-169"/>
<polygon fill="black" stroke="black" points="765.62,-165.5 755.62,-169 765.62,-172.5 765.62,-165.5"/>
</g>
<!-- SourceEvaluationComponent -->
<g id="node3" class="node">
<title>SourceEvaluationComponent</title>
<polygon fill="#ffffb3" stroke="black" points="1040.36,-122 859.64,-122 859.64,-86 1040.36,-86 1040.36,-122"/>
<text text-anchor="middle" x="950" y="-99.8" font-family="Times,serif" font-size="14.00">SourceEvaluationComponent</text>
</g>
<!-- SourceEvaluationComponent&#45;&gt;EditionReportModule -->
<g id="edge3" class="edge">
<title>SourceEvaluationComponent&#45;&gt;EditionReportModule</title>
<path fill="none" stroke="black" d="M950,-122.03C950,-138.4 950,-160 950,-160 950,-160 765.71,-160 765.71,-160"/>
<polygon fill="black" stroke="black" points="765.71,-156.5 755.71,-160 765.71,-163.5 765.71,-156.5"/>
</g>
<!-- SourceListComponent -->
<g id="node4" class="node">
<title>SourceListComponent</title>
<polygon fill="#ffffb3" stroke="black" points="841.98,-122 700.02,-122 700.02,-86 841.98,-86 841.98,-122"/>
<text text-anchor="middle" x="771" y="-99.8" font-family="Times,serif" font-size="14.00">SourceListComponent</text>
</g>
<!-- SourceListComponent&#45;&gt;EditionReportModule -->
<g id="edge4" class="edge">
<title>SourceListComponent&#45;&gt;EditionReportModule</title>
<path fill="none" stroke="black" d="M727.72,-122.11C727.72,-122.11 727.72,-140.99 727.72,-140.99"/>
<polygon fill="black" stroke="black" points="724.22,-140.99 727.72,-150.99 731.22,-140.99 724.22,-140.99"/>
</g>
<!-- TextcriticsListComponent -->
<g id="node5" class="node">
<title>TextcriticsListComponent</title>
<polygon fill="#ffffb3" stroke="black" points="682.47,-122 519.53,-122 519.53,-86 682.47,-86 682.47,-122"/>
<text text-anchor="middle" x="601" y="-99.8" font-family="Times,serif" font-size="14.00">TextcriticsListComponent</text>
</g>
<!-- TextcriticsListComponent&#45;&gt;EditionReportModule -->
<g id="edge5" class="edge">
<title>TextcriticsListComponent&#45;&gt;EditionReportModule</title>
<path fill="none" stroke="black" d="M649.52,-122.11C649.52,-122.11 649.52,-140.99 649.52,-140.99"/>
<polygon fill="black" stroke="black" points="646.02,-140.99 649.52,-150.99 653.02,-140.99 646.02,-140.99"/>
</g>
<!-- EditionReportRoutingModule -->
<g id="node7" class="node">
<title>EditionReportRoutingModule</title>
<polygon fill="#8dd3c7" stroke="black" points="495.99,-122 492.99,-126 471.99,-126 468.99,-122 312.01,-122 312.01,-86 495.99,-86 495.99,-122"/>
<text text-anchor="middle" x="404" y="-99.8" font-family="Times,serif" font-size="14.00">EditionReportRoutingModule</text>
</g>
<!-- EditionReportRoutingModule&#45;&gt;EditionReportModule -->
<g id="edge6" class="edge">
<title>EditionReportRoutingModule&#45;&gt;EditionReportModule</title>
<path fill="none" stroke="black" d="M404,-122.03C404,-138.4 404,-160 404,-160 404,-160 606.29,-160 606.29,-160"/>
<polygon fill="black" stroke="black" points="606.29,-163.5 616.29,-160 606.29,-156.5 606.29,-163.5"/>
</g>
<!-- EditionTkaTableModule -->
<g id="node8" class="node">
<title>EditionTkaTableModule</title>
<polygon fill="#8dd3c7" stroke="black" points="294.41,-122 291.41,-126 270.41,-126 267.41,-122 139.59,-122 139.59,-86 294.41,-86 294.41,-122"/>
<text text-anchor="middle" x="217" y="-99.8" font-family="Times,serif" font-size="14.00">EditionTkaTableModule</text>
</g>
<!-- EditionTkaTableModule&#45;&gt;EditionReportModule -->
<g id="edge7" class="edge">
<title>EditionTkaTableModule&#45;&gt;EditionReportModule</title>
<path fill="none" stroke="black" d="M217,-122.11C217,-141.34 217,-169 217,-169 217,-169 606.55,-169 606.55,-169"/>
<polygon fill="black" stroke="black" points="606.55,-172.5 616.55,-169 606.55,-165.5 606.55,-172.5"/>
</g>
<!-- SharedModule -->
<g id="node9" class="node">
<title>SharedModule</title>
<polygon fill="#8dd3c7" stroke="black" points="122.42,-122 119.42,-126 98.42,-126 95.42,-122 23.58,-122 23.58,-86 122.42,-86 122.42,-122"/>
<text text-anchor="middle" x="73" y="-99.8" font-family="Times,serif" font-size="14.00">SharedModule</text>
</g>
<!-- SharedModule&#45;&gt;EditionReportModule -->
<g id="edge8" class="edge">
<title>SharedModule&#45;&gt;EditionReportModule</title>
<path fill="none" stroke="black" d="M73,-122.29C73,-144.21 73,-178 73,-178 73,-178 606.58,-178 606.58,-178"/>
<polygon fill="black" stroke="black" points="606.58,-181.5 616.58,-178 606.58,-174.5 606.58,-181.5"/>
</g>
</g>
</svg>
