<?xml version="1.0" encoding="UTF-8" standalone="no"?>
<!DOCTYPE svg PUBLIC "-//W3C//DTD SVG 1.1//EN"
 "http://www.w3.org/Graphics/SVG/1.1/DTD/svg11.dtd">
<!-- Generated by graphviz version 5.0.0 (20220707.1540)
 -->
<!-- Title: dependencies Pages: 1 -->
<svg width="1454pt" height="174pt"
 viewBox="0.00 0.00 1454.00 173.80" xmlns="http://www.w3.org/2000/svg" xmlns:xlink="http://www.w3.org/1999/xlink">
<g id="graph0" class="graph" transform="scale(1 1) rotate(0) translate(4 169.8)">
<title>dependencies</title>
<polygon fill="white" stroke="transparent" points="-4,4 -4,-169.8 1450,-169.8 1450,4 -4,4"/>
<text text-anchor="middle" x="723" y="-8.2" font-family="sans-serif" font-size="14.00">dependencies</text>
<g id="clust1" class="cluster">
<title>cluster_EditionReportModule</title>
<polygon fill="none" stroke="black" stroke-dasharray="1,5" points="8,-32.8 8,-157.8 1438,-157.8 1438,-32.8 8,-32.8"/>
</g>
<g id="clust2" class="cluster">
<title>cluster_EditionReportModule_declarations</title>
<polygon fill="none" stroke="black" points="512,-40.8 512,-92.8 1430,-92.8 1430,-40.8 512,-40.8"/>
</g>
<g id="clust8" class="cluster">
<title>cluster_EditionReportModule_imports</title>
<polygon fill="none" stroke="black" points="16,-40.8 16,-92.8 504,-92.8 504,-40.8 16,-40.8"/>
</g>
<!-- EditionReportComponent -->
<g id="node1" class="node">
<title>EditionReportComponent</title>
<polygon fill="#ffffb3" stroke="black" points="1422.16,-84.8 1261.84,-84.8 1261.84,-48.8 1422.16,-48.8 1422.16,-84.8"/>
<text text-anchor="middle" x="1342" y="-62.6" font-family="Times,serif" font-size="14.00">EditionReportComponent</text>
</g>
<!-- EditionReportModule -->
<g id="node6" class="node">
<title>EditionReportModule</title>
<polygon fill="#8dd3c7" stroke="black" points="755.38,-149.8 752.38,-153.8 731.38,-153.8 728.38,-149.8 616.62,-149.8 616.62,-113.8 755.38,-113.8 755.38,-149.8"/>
<text text-anchor="middle" x="686" y="-127.6" font-family="Times,serif" font-size="14.00">EditionReportModule</text>
</g>
<!-- EditionReportComponent&#45;&gt;EditionReportModule -->
<g id="edge1" class="edge">
<title>EditionReportComponent&#45;&gt;EditionReportModule</title>
<path fill="none" stroke="black" d="M1342,-85.09C1342,-107.01 1342,-140.8 1342,-140.8 1342,-140.8 765.58,-140.8 765.58,-140.8"/>
<polygon fill="black" stroke="black" points="765.58,-137.3 755.58,-140.8 765.58,-144.3 765.58,-137.3"/>
</g>
<!-- SourceDescriptionComponent -->
<g id="node2" class="node">
<title>SourceDescriptionComponent</title>
<polygon fill="#ffffb3" stroke="black" points="1243.53,-84.8 1058.47,-84.8 1058.47,-48.8 1243.53,-48.8 1243.53,-84.8"/>
<text text-anchor="middle" x="1151" y="-62.6" font-family="Times,serif" font-size="14.00">SourceDescriptionComponent</text>
</g>
<!-- SourceDescriptionComponent&#45;&gt;EditionReportModule -->
<g id="edge2" class="edge">
<title>SourceDescriptionComponent&#45;&gt;EditionReportModule</title>
<path fill="none" stroke="black" d="M1151,-84.91C1151,-104.14 1151,-131.8 1151,-131.8 1151,-131.8 765.62,-131.8 765.62,-131.8"/>
<polygon fill="black" stroke="black" points="765.62,-128.3 755.62,-131.8 765.62,-135.3 765.62,-128.3"/>
</g>
<!-- SourceEvaluationComponent -->
<g id="node3" class="node">
<title>SourceEvaluationComponent</title>
<polygon fill="#ffffb3" stroke="black" points="1040.36,-84.8 859.64,-84.8 859.64,-48.8 1040.36,-48.8 1040.36,-84.8"/>
<text text-anchor="middle" x="950" y="-62.6" font-family="Times,serif" font-size="14.00">SourceEvaluationComponent</text>
</g>
<!-- SourceEvaluationComponent&#45;&gt;EditionReportModule -->
<g id="edge3" class="edge">
<title>SourceEvaluationComponent&#45;&gt;EditionReportModule</title>
<path fill="none" stroke="black" d="M950,-84.83C950,-101.2 950,-122.8 950,-122.8 950,-122.8 765.71,-122.8 765.71,-122.8"/>
<polygon fill="black" stroke="black" points="765.71,-119.3 755.71,-122.8 765.71,-126.3 765.71,-119.3"/>
</g>
<!-- SourceListComponent -->
<g id="node4" class="node">
<title>SourceListComponent</title>
<polygon fill="#ffffb3" stroke="black" points="841.99,-84.8 700.01,-84.8 700.01,-48.8 841.99,-48.8 841.99,-84.8"/>
<text text-anchor="middle" x="771" y="-62.6" font-family="Times,serif" font-size="14.00">SourceListComponent</text>
</g>
<!-- SourceListComponent&#45;&gt;EditionReportModule -->
<g id="edge4" class="edge">
<title>SourceListComponent&#45;&gt;EditionReportModule</title>
<path fill="none" stroke="black" d="M727.72,-84.91C727.72,-84.91 727.72,-103.79 727.72,-103.79"/>
<polygon fill="black" stroke="black" points="724.22,-103.79 727.72,-113.79 731.22,-103.79 724.22,-103.79"/>
</g>
<!-- TextcriticsListComponent -->
<g id="node5" class="node">
<title>TextcriticsListComponent</title>
<polygon fill="#ffffb3" stroke="black" points="682.47,-84.8 519.53,-84.8 519.53,-48.8 682.47,-48.8 682.47,-84.8"/>
<text text-anchor="middle" x="601" y="-62.6" font-family="Times,serif" font-size="14.00">TextcriticsListComponent</text>
</g>
<!-- TextcriticsListComponent&#45;&gt;EditionReportModule -->
<g id="edge5" class="edge">
<title>TextcriticsListComponent&#45;&gt;EditionReportModule</title>
<path fill="none" stroke="black" d="M649.52,-84.91C649.52,-84.91 649.52,-103.79 649.52,-103.79"/>
<polygon fill="black" stroke="black" points="646.02,-103.79 649.52,-113.79 653.02,-103.79 646.02,-103.79"/>
</g>
<!-- EditionReportRoutingModule -->
<g id="node7" class="node">
<title>EditionReportRoutingModule</title>
<polygon fill="#8dd3c7" stroke="black" points="495.99,-84.8 492.99,-88.8 471.99,-88.8 468.99,-84.8 312.01,-84.8 312.01,-48.8 495.99,-48.8 495.99,-84.8"/>
<text text-anchor="middle" x="404" y="-62.6" font-family="Times,serif" font-size="14.00">EditionReportRoutingModule</text>
</g>
<!-- EditionReportRoutingModule&#45;&gt;EditionReportModule -->
<g id="edge6" class="edge">
<title>EditionReportRoutingModule&#45;&gt;EditionReportModule</title>
<path fill="none" stroke="black" d="M404,-84.83C404,-101.2 404,-122.8 404,-122.8 404,-122.8 606.29,-122.8 606.29,-122.8"/>
<polygon fill="black" stroke="black" points="606.29,-126.3 616.29,-122.8 606.29,-119.3 606.29,-126.3"/>
</g>
<!-- EditionTkaTableModule -->
<g id="node8" class="node">
<title>EditionTkaTableModule</title>
<polygon fill="#8dd3c7" stroke="black" points="294.41,-84.8 291.41,-88.8 270.41,-88.8 267.41,-84.8 139.59,-84.8 139.59,-48.8 294.41,-48.8 294.41,-84.8"/>
<text text-anchor="middle" x="217" y="-62.6" font-family="Times,serif" font-size="14.00">EditionTkaTableModule</text>
</g>
<!-- EditionTkaTableModule&#45;&gt;EditionReportModule -->
<g id="edge7" class="edge">
<title>EditionTkaTableModule&#45;&gt;EditionReportModule</title>
<path fill="none" stroke="black" d="M217,-84.91C217,-104.14 217,-131.8 217,-131.8 217,-131.8 606.55,-131.8 606.55,-131.8"/>
<polygon fill="black" stroke="black" points="606.55,-135.3 616.55,-131.8 606.55,-128.3 606.55,-135.3"/>
</g>
<!-- SharedModule -->
<g id="node9" class="node">
<title>SharedModule</title>
<polygon fill="#8dd3c7" stroke="black" points="122.43,-84.8 119.43,-88.8 98.43,-88.8 95.43,-84.8 23.57,-84.8 23.57,-48.8 122.43,-48.8 122.43,-84.8"/>
<text text-anchor="middle" x="73" y="-62.6" font-family="Times,serif" font-size="14.00">SharedModule</text>
</g>
<!-- SharedModule&#45;&gt;EditionReportModule -->
<g id="edge8" class="edge">
<title>SharedModule&#45;&gt;EditionReportModule</title>
<path fill="none" stroke="black" d="M73,-85.09C73,-107.01 73,-140.8 73,-140.8 73,-140.8 606.58,-140.8 606.58,-140.8"/>
<polygon fill="black" stroke="black" points="606.58,-144.3 616.58,-140.8 606.58,-137.3 606.58,-144.3"/>
</g>
</g>
</svg>
