<?xml version="1.0" encoding="UTF-8" standalone="no"?>
<!DOCTYPE svg PUBLIC "-//W3C//DTD SVG 1.1//EN"
 "http://www.w3.org/Graphics/SVG/1.1/DTD/svg11.dtd">
<!-- Generated by graphviz version 2.47.3 (20210619.1520)
 -->
<!-- Title: dependencies Pages: 1 -->
<svg width="800pt" height="174pt"
 viewBox="0.00 0.00 800.00 173.80" xmlns="http://www.w3.org/2000/svg" xmlns:xlink="http://www.w3.org/1999/xlink">
<g id="graph0" class="graph" transform="scale(1 1) rotate(0) translate(4 169.8)">
<title>dependencies</title>
<polygon fill="white" stroke="transparent" points="-4,4 -4,-169.8 796,-169.8 796,4 -4,4"/>
<text text-anchor="middle" x="396" y="-8.2" font-family="sans-serif" font-size="14.00">dependencies</text>
<g id="clust1" class="cluster">
<title>cluster_EditionReportModule</title>
<polygon fill="none" stroke="black" stroke-dasharray="1,5" points="8,-32.8 8,-157.8 784,-157.8 784,-32.8 8,-32.8"/>
</g>
<g id="clust4" class="cluster">
<title>cluster_EditionReportModule_imports</title>
<polygon fill="none" stroke="black" points="200,-40.8 200,-92.8 776,-92.8 776,-40.8 200,-40.8"/>
</g>
<g id="clust2" class="cluster">
<title>cluster_EditionReportModule_declarations</title>
<polygon fill="none" stroke="black" points="16,-40.8 16,-92.8 192,-92.8 192,-40.8 16,-40.8"/>
</g>
<!-- EditionReportComponent -->
<g id="node1" class="node">
<title>EditionReportComponent</title>
<polygon fill="#ffffb3" stroke="black" points="184.16,-84.8 23.84,-84.8 23.84,-48.8 184.16,-48.8 184.16,-84.8"/>
<text text-anchor="middle" x="104" y="-62.6" font-family="Times,serif" font-size="14.00">EditionReportComponent</text>
</g>
<!-- EditionReportModule -->
<g id="node2" class="node">
<title>EditionReportModule</title>
<polygon fill="#8dd3c7" stroke="black" points="467.38,-149.8 464.38,-153.8 443.38,-153.8 440.38,-149.8 328.62,-149.8 328.62,-113.8 467.38,-113.8 467.38,-149.8"/>
<text text-anchor="middle" x="398" y="-127.6" font-family="Times,serif" font-size="14.00">EditionReportModule</text>
</g>
<!-- EditionReportComponent&#45;&gt;EditionReportModule -->
<g id="edge1" class="edge">
<title>EditionReportComponent&#45;&gt;EditionReportModule</title>
<path fill="none" stroke="black" d="M104,-84.91C104,-104.14 104,-131.8 104,-131.8 104,-131.8 318.33,-131.8 318.33,-131.8"/>
<polygon fill="black" stroke="black" points="318.33,-135.3 328.33,-131.8 318.33,-128.3 318.33,-135.3"/>
</g>
<!-- EditionReportRoutingModule -->
<g id="node3" class="node">
<title>EditionReportRoutingModule</title>
<polygon fill="#8dd3c7" stroke="black" points="767.99,-84.8 764.99,-88.8 743.99,-88.8 740.99,-84.8 584.01,-84.8 584.01,-48.8 767.99,-48.8 767.99,-84.8"/>
<text text-anchor="middle" x="676" y="-62.6" font-family="Times,serif" font-size="14.00">EditionReportRoutingModule</text>
</g>
<!-- EditionReportRoutingModule&#45;&gt;EditionReportModule -->
<g id="edge2" class="edge">
<title>EditionReportRoutingModule&#45;&gt;EditionReportModule</title>
<path fill="none" stroke="black" d="M676,-84.91C676,-104.14 676,-131.8 676,-131.8 676,-131.8 477.43,-131.8 477.43,-131.8"/>
<polygon fill="black" stroke="black" points="477.43,-128.3 467.43,-131.8 477.43,-135.3 477.43,-128.3"/>
</g>
<!-- SharedModule -->
<g id="node4" class="node">
<title>SharedModule</title>
<polygon fill="#8dd3c7" stroke="black" points="566.42,-84.8 563.42,-88.8 542.42,-88.8 539.42,-84.8 467.58,-84.8 467.58,-48.8 566.42,-48.8 566.42,-84.8"/>
<text text-anchor="middle" x="517" y="-62.6" font-family="Times,serif" font-size="14.00">SharedModule</text>
</g>
<!-- SharedModule&#45;&gt;EditionReportModule -->
<g id="edge3" class="edge">
<title>SharedModule&#45;&gt;EditionReportModule</title>
<path fill="none" stroke="black" d="M467.29,-66.8C462.11,-66.8 458.69,-66.8 458.69,-66.8 458.69,-66.8 458.69,-103.69 458.69,-103.69"/>
<polygon fill="black" stroke="black" points="455.19,-103.69 458.69,-113.69 462.19,-103.69 455.19,-103.69"/>
</g>
<!-- SourcesModule -->
<g id="node5" class="node">
<title>SourcesModule</title>
<polygon fill="#8dd3c7" stroke="black" points="449.87,-84.8 446.87,-88.8 425.87,-88.8 422.87,-84.8 346.13,-84.8 346.13,-48.8 449.87,-48.8 449.87,-84.8"/>
<text text-anchor="middle" x="398" y="-62.6" font-family="Times,serif" font-size="14.00">SourcesModule</text>
</g>
<!-- SourcesModule&#45;&gt;EditionReportModule -->
<g id="edge4" class="edge">
<title>SourcesModule&#45;&gt;EditionReportModule</title>
<path fill="none" stroke="black" d="M398,-84.91C398,-84.91 398,-103.79 398,-103.79"/>
<polygon fill="black" stroke="black" points="394.5,-103.79 398,-113.79 401.5,-103.79 394.5,-103.79"/>
</g>
<!-- TextcriticsModule -->
<g id="node6" class="node">
<title>TextcriticsModule</title>
<polygon fill="#8dd3c7" stroke="black" points="327.91,-84.8 324.91,-88.8 303.91,-88.8 300.91,-84.8 208.09,-84.8 208.09,-48.8 327.91,-48.8 327.91,-84.8"/>
<text text-anchor="middle" x="268" y="-62.6" font-family="Times,serif" font-size="14.00">TextcriticsModule</text>
</g>
<!-- TextcriticsModule&#45;&gt;EditionReportModule -->
<g id="edge5" class="edge">
<title>TextcriticsModule&#45;&gt;EditionReportModule</title>
<path fill="none" stroke="black" d="M327.97,-66.8C333.63,-66.8 337.31,-66.8 337.31,-66.8 337.31,-66.8 337.31,-103.69 337.31,-103.69"/>
<polygon fill="black" stroke="black" points="333.81,-103.69 337.31,-113.69 340.81,-103.69 333.81,-103.69"/>
</g>
</g>
</svg>
