<?xml version="1.0" encoding="UTF-8" standalone="no"?>
<!DOCTYPE svg PUBLIC "-//W3C//DTD SVG 1.1//EN"
 "http://www.w3.org/Graphics/SVG/1.1/DTD/svg11.dtd">
<!-- Generated by graphviz version 2.40.1 (20161225.0304)
 -->
<!-- Title: dependencies Pages: 1 -->
<svg width="800pt" height="211pt"
 viewBox="0.00 0.00 800.00 211.00" xmlns="http://www.w3.org/2000/svg" xmlns:xlink="http://www.w3.org/1999/xlink">
<g id="graph0" class="graph" transform="scale(1 1) rotate(0) translate(4 207)">
<title>dependencies</title>
<polygon fill="#ffffff" stroke="transparent" points="-4,4 -4,-207 796,-207 796,4 -4,4"/>
<text text-anchor="start" x="375.0091" y="-42.4" font-family="sans-serif" font-weight="bold" font-size="14.00" fill="#000000">Legend</text>
<polygon fill="#ffffb3" stroke="transparent" points="162,-10 162,-30 182,-30 182,-10 162,-10"/>
<text text-anchor="start" x="185.629" y="-15.4" font-family="sans-serif" font-size="14.00" fill="#000000"> &#160;Declarations</text>
<polygon fill="#8dd3c7" stroke="transparent" points="275,-10 275,-30 295,-30 295,-10 275,-10"/>
<text text-anchor="start" x="298.7251" y="-15.4" font-family="sans-serif" font-size="14.00" fill="#000000"> &#160;Module</text>
<polygon fill="#80b1d3" stroke="transparent" points="361,-10 361,-30 381,-30 381,-10 361,-10"/>
<text text-anchor="start" x="384.7812" y="-15.4" font-family="sans-serif" font-size="14.00" fill="#000000"> &#160;Bootstrap</text>
<polygon fill="#fdb462" stroke="transparent" points="458,-10 458,-30 478,-30 478,-10 458,-10"/>
<text text-anchor="start" x="481.6732" y="-15.4" font-family="sans-serif" font-size="14.00" fill="#000000"> &#160;Providers</text>
<polygon fill="#fb8072" stroke="transparent" points="554,-10 554,-30 574,-30 574,-10 554,-10"/>
<text text-anchor="start" x="577.7258" y="-15.4" font-family="sans-serif" font-size="14.00" fill="#000000"> &#160;Exports</text>
<g id="clust1" class="cluster">
<title>cluster_EditionReportModule</title>
<polygon fill="none" stroke="#000000" stroke-dasharray="1,5" points="8,-70 8,-195 784,-195 784,-70 8,-70"/>
</g>
<g id="clust2" class="cluster">
<title>cluster_EditionReportModule_declarations</title>
<polygon fill="none" stroke="#000000" points="600,-78 600,-130 776,-130 776,-78 600,-78"/>
</g>
<g id="clust4" class="cluster">
<title>cluster_EditionReportModule_imports</title>
<polygon fill="none" stroke="#000000" points="16,-78 16,-130 592,-130 592,-78 16,-78"/>
</g>
<!-- EditionReportComponent -->
<g id="node1" class="node">
<title>EditionReportComponent</title>
<polygon fill="#ffffb3" stroke="#000000" points="768.1596,-122 607.8404,-122 607.8404,-86 768.1596,-86 768.1596,-122"/>
<text text-anchor="middle" x="688" y="-99.8" font-family="Times,serif" font-size="14.00" fill="#000000">EditionReportComponent</text>
</g>
<!-- EditionReportModule -->
<g id="node2" class="node">
<title>EditionReportModule</title>
<polygon fill="#8dd3c7" stroke="#000000" points="402.3767,-187 399.3767,-191 378.3767,-191 375.3767,-187 263.6233,-187 263.6233,-151 402.3767,-151 402.3767,-187"/>
<text text-anchor="middle" x="333" y="-164.8" font-family="Times,serif" font-size="14.00" fill="#000000">EditionReportModule</text>
</g>
<!-- EditionReportComponent&#45;&gt;EditionReportModule -->
<g id="edge1" class="edge">
<title>EditionReportComponent&#45;&gt;EditionReportModule</title>
<path fill="none" stroke="#000000" d="M688,-122.1061C688,-141.3391 688,-169 688,-169 688,-169 412.713,-169 412.713,-169"/>
<polygon fill="#000000" stroke="#000000" points="412.713,-165.5001 402.713,-169 412.713,-172.5001 412.713,-165.5001"/>
</g>
<!-- EditionReportRoutingModule -->
<g id="node3" class="node">
<title>EditionReportRoutingModule</title>
<polygon fill="#8dd3c7" stroke="#000000" points="583.9944,-122 580.9944,-126 559.9944,-126 556.9944,-122 400.0056,-122 400.0056,-86 583.9944,-86 583.9944,-122"/>
<text text-anchor="middle" x="492" y="-99.8" font-family="Times,serif" font-size="14.00" fill="#000000">EditionReportRoutingModule</text>
</g>
<!-- EditionReportRoutingModule&#45;&gt;EditionReportModule -->
<g id="edge2" class="edge">
<title>EditionReportRoutingModule&#45;&gt;EditionReportModule</title>
<path fill="none" stroke="#000000" d="M399.709,-104C394.3645,-104 391.107,-104 391.107,-104 391.107,-104 391.107,-140.8939 391.107,-140.8939"/>
<polygon fill="#000000" stroke="#000000" points="387.607,-140.8938 391.107,-150.8939 394.607,-140.8939 387.607,-140.8938"/>
</g>
<!-- SharedModule -->
<g id="node4" class="node">
<title>SharedModule</title>
<polygon fill="#8dd3c7" stroke="#000000" points="382.4231,-122 379.4231,-126 358.4231,-126 355.4231,-122 283.5769,-122 283.5769,-86 382.4231,-86 382.4231,-122"/>
<text text-anchor="middle" x="333" y="-99.8" font-family="Times,serif" font-size="14.00" fill="#000000">SharedModule</text>
</g>
<!-- SharedModule&#45;&gt;EditionReportModule -->
<g id="edge3" class="edge">
<title>SharedModule&#45;&gt;EditionReportModule</title>
<path fill="none" stroke="#000000" d="M333,-122.1061C333,-122.1061 333,-140.991 333,-140.991"/>
<polygon fill="#000000" stroke="#000000" points="329.5001,-140.9909 333,-150.991 336.5001,-140.991 329.5001,-140.9909"/>
</g>
<!-- SourcesModule -->
<g id="node5" class="node">
<title>SourcesModule</title>
<polygon fill="#8dd3c7" stroke="#000000" points="265.8669,-122 262.8669,-126 241.8669,-126 238.8669,-122 162.1331,-122 162.1331,-86 265.8669,-86 265.8669,-122"/>
<text text-anchor="middle" x="214" y="-99.8" font-family="Times,serif" font-size="14.00" fill="#000000">SourcesModule</text>
</g>
<!-- SourcesModule&#45;&gt;EditionReportModule -->
<g id="edge4" class="edge">
<title>SourcesModule&#45;&gt;EditionReportModule</title>
<path fill="none" stroke="#000000" d="M265.8809,-104C271.2914,-104 274.8612,-104 274.8612,-104 274.8612,-104 274.8612,-140.8939 274.8612,-140.8939"/>
<polygon fill="#000000" stroke="#000000" points="271.3612,-140.8938 274.8612,-150.8939 278.3612,-140.8939 271.3612,-140.8938"/>
</g>
<!-- TextcriticsModule -->
<g id="node6" class="node">
<title>TextcriticsModule</title>
<polygon fill="#8dd3c7" stroke="#000000" points="143.9145,-122 140.9145,-126 119.9145,-126 116.9145,-122 24.0855,-122 24.0855,-86 143.9145,-86 143.9145,-122"/>
<text text-anchor="middle" x="84" y="-99.8" font-family="Times,serif" font-size="14.00" fill="#000000">TextcriticsModule</text>
</g>
<!-- TextcriticsModule&#45;&gt;EditionReportModule -->
<g id="edge5" class="edge">
<title>TextcriticsModule&#45;&gt;EditionReportModule</title>
<path fill="none" stroke="#000000" d="M84,-122.1061C84,-141.3391 84,-169 84,-169 84,-169 253.3085,-169 253.3085,-169"/>
<polygon fill="#000000" stroke="#000000" points="253.3086,-172.5001 263.3085,-169 253.3085,-165.5001 253.3086,-172.5001"/>
</g>
</g>
</svg>
