<?xml version="1.0" encoding="UTF-8" standalone="no"?>
<!DOCTYPE svg PUBLIC "-//W3C//DTD SVG 1.1//EN"
 "http://www.w3.org/Graphics/SVG/1.1/DTD/svg11.dtd">
<!-- Generated by graphviz version 2.47.0 (20210316.0004)
 -->
<!-- Title: dependencies Pages: 1 -->
<svg width="582pt" height="284pt"
 viewBox="0.00 0.00 582.00 284.00" xmlns="http://www.w3.org/2000/svg" xmlns:xlink="http://www.w3.org/1999/xlink">
<g id="graph0" class="graph" transform="scale(1 1) rotate(0) translate(4 280)">
<title>dependencies</title>
<polygon fill="white" stroke="transparent" points="-4,4 -4,-280 578,-280 578,4 -4,4"/>
<text text-anchor="start" x="266.01" y="-42.4" font-family="Times-12" font-weight="bold" font-size="14.00">Legend</text>
<polygon fill="#ffffb3" stroke="transparent" points="53,-10 53,-30 73,-30 73,-10 53,-10"/>
<text text-anchor="start" x="76.63" y="-15.4" font-family="Times-12" font-size="14.00"> &#160;Declarations</text>
<polygon fill="#8dd3c7" stroke="transparent" points="166,-10 166,-30 186,-30 186,-10 166,-10"/>
<text text-anchor="start" x="189.73" y="-15.4" font-family="Times-12" font-size="14.00"> &#160;Module</text>
<polygon fill="#80b1d3" stroke="transparent" points="252,-10 252,-30 272,-30 272,-10 252,-10"/>
<text text-anchor="start" x="275.78" y="-15.4" font-family="Times-12" font-size="14.00"> &#160;Bootstrap</text>
<polygon fill="#fdb462" stroke="transparent" points="349,-10 349,-30 369,-30 369,-10 349,-10"/>
<text text-anchor="start" x="372.67" y="-15.4" font-family="Times-12" font-size="14.00"> &#160;Providers</text>
<polygon fill="#fb8072" stroke="transparent" points="445,-10 445,-30 465,-30 465,-10 445,-10"/>
<text text-anchor="start" x="468.73" y="-15.4" font-family="Times-12" font-size="14.00"> &#160;Exports</text>
<g id="clust1" class="cluster">
<title>cluster_EditionTkaModule</title>
<polygon fill="none" stroke="black" stroke-dasharray="1,5" points="8,-70 8,-268 566,-268 566,-70 8,-70"/>
</g>
<g id="clust2" class="cluster">
<title>cluster_EditionTkaModule_declarations</title>
<polygon fill="none" stroke="black" points="138,-78 138,-130 558,-130 558,-78 138,-78"/>
</g>
<g id="clust5" class="cluster">
<title>cluster_EditionTkaModule_imports</title>
<polygon fill="none" stroke="black" points="16,-78 16,-130 130,-130 130,-78 16,-78"/>
</g>
<g id="clust6" class="cluster">
<title>cluster_EditionTkaModule_exports</title>
<polygon fill="none" stroke="black" points="74,-208 74,-260 501,-260 501,-208 74,-208"/>
</g>
<!-- EditionTkaDescriptionComponent -->
<g id="node1" class="node">
<title>EditionTkaDescriptionComponent</title>
<polygon fill="#ffffb3" stroke="black" points="549.64,-122 340.36,-122 340.36,-86 549.64,-86 549.64,-122"/>
<text text-anchor="middle" x="445" y="-99.8" font-family="Times,serif" font-size="14.00">EditionTkaDescriptionComponent</text>
</g>
<!-- EditionTkaModule -->
<g id="node3" class="node">
<title>EditionTkaModule</title>
<polygon fill="#8dd3c7" stroke="black" points="295.04,-187 292.04,-191 271.04,-191 268.04,-187 172.96,-187 172.96,-151 295.04,-151 295.04,-187"/>
<text text-anchor="middle" x="234" y="-164.8" font-family="Times,serif" font-size="14.00">EditionTkaModule</text>
</g>
<!-- EditionTkaDescriptionComponent&#45;&gt;EditionTkaModule -->
<g id="edge1" class="edge">
<title>EditionTkaDescriptionComponent&#45;&gt;EditionTkaModule</title>
<path fill="none" stroke="black" d="M416.38,-122.11C416.38,-141.34 416.38,-169 416.38,-169 416.38,-169 305.24,-169 305.24,-169"/>
<polygon fill="black" stroke="black" points="305.24,-165.5 295.24,-169 305.24,-172.5 305.24,-165.5"/>
</g>
<!-- EditionTkaTableComponent -->
<g id="node2" class="node">
<title>EditionTkaTableComponent</title>
<polygon fill="#ffffb3" stroke="black" points="322.2,-122 145.8,-122 145.8,-86 322.2,-86 322.2,-122"/>
<text text-anchor="middle" x="234" y="-99.8" font-family="Times,serif" font-size="14.00">EditionTkaTableComponent</text>
</g>
<!-- EditionTkaTableComponent&#45;&gt;EditionTkaModule -->
<g id="edge2" class="edge">
<title>EditionTkaTableComponent&#45;&gt;EditionTkaModule</title>
<path fill="none" stroke="black" d="M234,-122.11C234,-122.11 234,-140.99 234,-140.99"/>
<polygon fill="black" stroke="black" points="230.5,-140.99 234,-150.99 237.5,-140.99 230.5,-140.99"/>
</g>
<!-- EditionTkaDescriptionComponent  -->
<g id="node5" class="node">
<title>EditionTkaDescriptionComponent </title>
<polygon fill="#fb8072" stroke="black" points="492.64,-252 279.36,-252 279.36,-216 492.64,-216 492.64,-252"/>
<text text-anchor="middle" x="386" y="-229.8" font-family="Times,serif" font-size="14.00">EditionTkaDescriptionComponent </text>
</g>
<!-- EditionTkaModule&#45;&gt;EditionTkaDescriptionComponent  -->
<g id="edge4" class="edge">
<title>EditionTkaModule&#45;&gt;EditionTkaDescriptionComponent </title>
<path fill="none" stroke="black" stroke-dasharray="5,2" d="M287.35,-187.11C287.35,-187.11 287.35,-205.99 287.35,-205.99"/>
<polygon fill="black" stroke="black" points="283.85,-205.99 287.35,-215.99 290.85,-205.99 283.85,-205.99"/>
</g>
<!-- EditionTkaTableComponent  -->
<g id="node6" class="node">
<title>EditionTkaTableComponent </title>
<polygon fill="#fb8072" stroke="black" points="261.7,-252 82.3,-252 82.3,-216 261.7,-216 261.7,-252"/>
<text text-anchor="middle" x="172" y="-229.8" font-family="Times,serif" font-size="14.00">EditionTkaTableComponent </text>
</g>
<!-- EditionTkaModule&#45;&gt;EditionTkaTableComponent  -->
<g id="edge5" class="edge">
<title>EditionTkaModule&#45;&gt;EditionTkaTableComponent </title>
<path fill="none" stroke="black" stroke-dasharray="5,2" d="M217.29,-187.11C217.29,-187.11 217.29,-205.99 217.29,-205.99"/>
<polygon fill="black" stroke="black" points="213.79,-205.99 217.29,-215.99 220.79,-205.99 213.79,-205.99"/>
</g>
<!-- SharedModule -->
<g id="node4" class="node">
<title>SharedModule</title>
<polygon fill="#8dd3c7" stroke="black" points="122.42,-122 119.42,-126 98.42,-126 95.42,-122 23.58,-122 23.58,-86 122.42,-86 122.42,-122"/>
<text text-anchor="middle" x="73" y="-99.8" font-family="Times,serif" font-size="14.00">SharedModule</text>
</g>
<!-- SharedModule&#45;&gt;EditionTkaModule -->
<g id="edge3" class="edge">
<title>SharedModule&#45;&gt;EditionTkaModule</title>
<path fill="none" stroke="black" d="M102.18,-122.11C102.18,-141.34 102.18,-169 102.18,-169 102.18,-169 162.72,-169 162.72,-169"/>
<polygon fill="black" stroke="black" points="162.72,-172.5 172.72,-169 162.72,-165.5 162.72,-172.5"/>
</g>
</g>
</svg>
