<?xml version="1.0" encoding="UTF-8" standalone="no"?>
<svg
   xmlns:dc="http://purl.org/dc/elements/1.1/"
   xmlns:cc="http://creativecommons.org/ns#"
   xmlns:rdf="http://www.w3.org/1999/02/22-rdf-syntax-ns#"
   xmlns:svg="http://www.w3.org/2000/svg"
   xmlns="http://www.w3.org/2000/svg"
   xmlns:sodipodi="http://sodipodi.sourceforge.net/DTD/sodipodi-0.dtd"
   xmlns:inkscape="http://www.inkscape.org/namespaces/inkscape"
   id="Ebene_1"
   data-name="Ebene 1"
   viewBox="0 0 1153.2065 508.04485"
   version="1.1"
   sodipodi:docname="M317_Sk1_1von1_220714_path.svg"
   inkscape:version="0.92.4 (5da689c313, 2019-01-14)"
   width="305.11923mm"
   height="134.4202mm">
  <metadata
     id="metadata177">
    <rdf:RDF>
      <cc:Work
         rdf:about="">
        <dc:format>image/svg+xml</dc:format>
        <dc:type
           rdf:resource="http://purl.org/dc/dcmitype/StillImage" />
        <dc:title>Zeichenfläche 1</dc:title>
      </cc:Work>
    </rdf:RDF>
  </metadata>
  <sodipodi:namedview
     pagecolor="#ffffff"
     bordercolor="#666666"
     borderopacity="1"
     objecttolerance="10"
     gridtolerance="10"
     guidetolerance="10"
     inkscape:pageopacity="0"
     inkscape:pageshadow="2"
     inkscape:window-width="1920"
     inkscape:window-height="986"
     id="namedview175"
     showgrid="false"
     inkscape:zoom="1.5865546"
     inkscape:cx="864.6964"
     inkscape:cy="187.35567"
     inkscape:window-x="-11"
     inkscape:window-y="-11"
     inkscape:window-maximized="1"
     inkscape:current-layer="Ebene_1"
     inkscape:document-units="mm"
     units="mm"
     fit-margin-left="25"
     fit-margin-top="20"
     fit-margin-right="40"
     fit-margin-bottom="40"
     inkscape:document-rotation="0"
     inkscape:showpageshadow="2"
     inkscape:pagecheckerboard="0"
     inkscape:deskcolor="#d1d1d1" />
  <defs
     id="defs4">
    <style
       id="style2">
            .cls-1,
            .cls-12,
            .cls-13,
            .cls-3,
            .cls-6,
            .cls-9 {
                isolation: isolate;
            }
            .cls-1 {
                font-size: 13.5px;
            }
            .cls-1,
            .cls-13 {
                font-family: Maestro, Maestro;
            }
            .cls-14,
            .cls-15,
            .cls-2,
            .cls-8 {
                fill: none;
            }
            .cls-11,
            .cls-14,
            .cls-15,
            .cls-2,
            .cls-8 {
                stroke: #000;
            }
            .cls-11,
            .cls-2 {
                stroke-width: 0.4px;
            }
            .cls-3,
            .cls-6,
            .cls-7 {
                font-size: 6.75px;
            }
            .cls-3,
            .cls-9 {
                font-family: TimesNewRomanPSMT, Times New Roman;
            }
            .cls-4 {
                letter-spacing: -0.02em;
            }
            .cls-5 {
                letter-spacing: 0em;
            }
            .cls-6,
            .cls-7 {
                font-family: Arial-ItalicMT, Arial;
                font-style: italic;
            }
            .cls-7 {
                letter-spacing: 0em;
            }
            .cls-8 {
                stroke-width: 0.49px;
            }
            .cls-9 {
                font-size: 14px;
            }
            .cls-10 {
                letter-spacing: -0.04em;
            }
            .cls-11 {
                fill: #fff;
                stroke-miterlimit: 10;
            }
            .cls-12 {
                font-size: 12px;
                font-family: Arial-BoldMT, Arial;
                font-weight: 700;
            }
            .cls-13 {
                font-size: 10.13px;
            }
            .cls-14 {
                stroke-width: 0.39px;
            }
            .cls-15 {
                stroke-width: 0.4px;
            }
        </style>
  </defs>
  <title
     id="title6">Zeichenfläche 1</title>
  <g
     aria-label="&amp;"
     id="text8"
     style="font-size: 13.5px; font-family: Maestro, Maestro; isolation: isolate"
     class="cls-1">
    <path
       d="m 161.22647,251.70531 q -0.378,0.0675 -0.81,0.081 -0.4185,0.0135 -0.8235,-0.027 -0.405,-0.027 -0.756,-0.0945 -0.3375,-0.054 -0.5535,-0.162 -1.0395,-0.4995 -1.6875,-1.0665 -0.6345,-0.5535 -0.9855,-1.161 -0.351,-0.6075 -0.4995,-1.242 -0.135,-0.648 -0.1755,-1.296 -0.054,-0.702 0.1215,-1.404 0.189,-0.702 0.4995,-1.3365 0.324,-0.648 0.729,-1.188 0.4185,-0.54 0.837,-0.945 0.486,-0.459 1.0125,-0.9045 0.54,-0.459 1.1745,-0.9315 -0.0135,-0.1755 -0.0405,-0.3105 -0.0135,-0.135 -0.0405,-0.27 -0.027,-0.1485 -0.0675,-0.324 -0.027,-0.1755 -0.0405,-0.432 0,-0.108 -0.027,-0.3915 -0.027,-0.297 -0.0405,-0.702 0,-0.4185 0.027,-0.945 0.027,-0.5265 0.135,-1.0935 0.0675,-0.3375 0.2835,-0.8505 0.2295,-0.5265 0.5265,-1.0125 0.3105,-0.486 0.648,-0.837 0.3375,-0.351 0.6345,-0.351 0.1485,0 0.324,0.189 0.1755,0.1755 0.3375,0.486 0.1755,0.297 0.3375,0.6885 0.162,0.378 0.2835,0.783 0.1215,0.405 0.189,0.7965 0.081,0.3915 0.0945,0.6885 0.0135,0.702 -0.054,1.242 -0.0675,0.5265 -0.2025,0.9585 -0.135,0.4185 -0.324,0.783 -0.1755,0.351 -0.378,0.7155 -0.216,0.3645 -0.4455,0.648 -0.216,0.27 -0.4455,0.5535 -0.243,0.297 -0.513,0.4995 -0.2565,0.189 -0.513,0.4185 0.1215,0.6885 0.216,1.242 0.0405,0.243 0.081,0.4725 0.0405,0.2295 0.0675,0.432 0.027,0.189 0.054,0.324 0.027,0.1215 0.027,0.1485 0.324,-0.0405 0.6615,0 0.351,0.027 0.6615,0.0945 0.324,0.0675 0.567,0.1755 0.2565,0.108 0.405,0.2025 0.729,0.54 1.026,1.242 0.3105,0.6885 0.3645,1.4175 0.0405,0.567 -0.0945,1.134 -0.135,0.5805 -0.459,1.0935 -0.3105,0.5265 -0.8235,0.9585 -0.4995,0.432 -1.188,0.7155 0.081,0.5535 0.1485,1.026 0.0675,0.405 0.1215,0.783 0.054,0.3915 0.081,0.54 0.1215,0.81 0.0945,1.323 -0.027,0.5265 -0.2025,0.8505 -0.1485,0.27 -0.351,0.5265 -0.189,0.2565 -0.459,0.459 -0.27,0.2025 -0.6345,0.3375 -0.351,0.135 -0.81,0.162 -0.351,0.027 -0.837,-0.0675 -0.486,-0.081 -0.9315,-0.3105 -0.4455,-0.216 -0.7695,-0.594 -0.324,-0.378 -0.3645,-0.9315 -0.027,-0.324 0.0405,-0.6615 0.0675,-0.324 0.2295,-0.594 0.1755,-0.2565 0.4455,-0.432 0.2835,-0.1755 0.6885,-0.2025 0.243,-0.0135 0.486,0.0675 0.2565,0.0945 0.4725,0.2565 0.216,0.162 0.351,0.405 0.135,0.243 0.162,0.5265 0.0405,0.4995 -0.3105,0.9585 -0.351,0.4725 -1.188,0.702 0.135,0.189 0.513,0.351 0.378,0.1755 0.945,0.1755 0.594,0 1.134,-0.351 0.5535,-0.351 0.8505,-0.8775 0.189,-0.351 0.189,-0.918 0,-0.5535 -0.0675,-1.1205 -0.027,-0.0945 -0.081,-0.4725 -0.054,-0.3645 -0.1215,-0.7695 -0.0675,-0.4725 -0.162,-1.053 z m 0.2835,-17.1045 q -0.5265,0 -0.9315,0.4995 -0.3915,0.486 -0.648,1.242 -0.243,0.756 -0.324,1.6605 -0.081,0.9045 0.0405,1.7415 0.4455,-0.3375 0.9315,-0.81 0.486,-0.486 0.8775,-1.026 0.405,-0.54 0.648,-1.0935 0.2565,-0.5535 0.216,-1.053 -0.0135,-0.162 -0.054,-0.3645 -0.0405,-0.2025 -0.135,-0.378 -0.0945,-0.1755 -0.243,-0.297 -0.1485,-0.1215 -0.378,-0.1215 z m -0.027,16.551 q 0.5805,-0.2025 0.9045,-0.5265 0.324,-0.324 0.4725,-0.702 0.162,-0.378 0.1755,-0.756 0.027,-0.378 0.0135,-0.675 -0.027,-0.243 -0.1215,-0.6075 -0.081,-0.3645 -0.324,-0.702 -0.243,-0.3375 -0.6885,-0.5535 -0.4455,-0.2295 -1.188,-0.189 z m -1.107,-4.6845 q -0.5535,0.027 -0.918,0.2295 -0.351,0.189 -0.567,0.4725 -0.2025,0.27 -0.2835,0.5805 -0.0675,0.3105 -0.054,0.5535 0.0135,0.243 0.108,0.4995 0.0945,0.2565 0.243,0.4725 0.162,0.2295 0.3375,0.405 0.189,0.189 0.378,0.2835 -0.027,0.027 -0.054,0.0405 -0.0135,0.027 -0.0405,0.054 -0.027,0.027 -0.0405,0.054 -0.4185,-0.2025 -0.7425,-0.486 -0.3105,-0.27 -0.405,-0.3915 -0.1485,-0.2025 -0.2565,-0.3645 -0.108,-0.162 -0.1755,-0.351 -0.0675,-0.1755 -0.1215,-0.3915 -0.0405,-0.216 -0.054,-0.513 -0.027,-0.2835 0.0405,-0.594 0.0675,-0.324 0.216,-0.648 0.162,-0.324 0.405,-0.621 0.2565,-0.3105 0.594,-0.5805 0.1755,-0.135 0.3105,-0.216 0.1485,-0.081 0.27,-0.135 0.1215,-0.0675 0.243,-0.0945 0.135,-0.0405 0.2835,-0.081 l -0.405,-2.4435 q -0.162,0.0945 -0.5265,0.378 -0.3645,0.2835 -0.7965,0.675 -0.432,0.3915 -0.864,0.8505 -0.4185,0.4455 -0.6885,0.864 -0.486,0.7695 -0.756,1.4175 -0.27,0.648 -0.2025,1.404 0.054,0.8505 0.513,1.5795 0.4725,0.7425 1.2015,1.242 0.729,0.4995 1.6605,0.6885 0.9315,0.2025 1.9305,-0.0405 -0.216,-1.3365 -0.3915,-2.3895 -0.081,-0.4455 -0.1485,-0.8775 -0.0675,-0.432 -0.135,-0.7695 -0.054,-0.3375 -0.081,-0.54 -0.027,-0.216 -0.027,-0.216 z"
       id="path15002" />
  </g>
  <g
     aria-label="&amp;"
     id="text10"
     style="font-size: 13.5px; font-family: Maestro, Maestro; isolation: isolate"
     class="cls-1">
    <path
       d="m 161.22647,292.20531 q -0.378,0.0675 -0.81,0.081 -0.4185,0.0135 -0.8235,-0.027 -0.405,-0.027 -0.756,-0.0945 -0.3375,-0.054 -0.5535,-0.162 -1.0395,-0.4995 -1.6875,-1.0665 -0.6345,-0.5535 -0.9855,-1.161 -0.351,-0.6075 -0.4995,-1.242 -0.135,-0.648 -0.1755,-1.296 -0.054,-0.702 0.1215,-1.404 0.189,-0.702 0.4995,-1.3365 0.324,-0.648 0.729,-1.188 0.4185,-0.54 0.837,-0.945 0.486,-0.459 1.0125,-0.9045 0.54,-0.459 1.1745,-0.9315 -0.0135,-0.1755 -0.0405,-0.3105 -0.0135,-0.135 -0.0405,-0.27 -0.027,-0.1485 -0.0675,-0.324 -0.027,-0.1755 -0.0405,-0.432 0,-0.108 -0.027,-0.3915 -0.027,-0.297 -0.0405,-0.702 0,-0.4185 0.027,-0.945 0.027,-0.5265 0.135,-1.0935 0.0675,-0.3375 0.2835,-0.8505 0.2295,-0.5265 0.5265,-1.0125 0.3105,-0.486 0.648,-0.837 0.3375,-0.351 0.6345,-0.351 0.1485,0 0.324,0.189 0.1755,0.1755 0.3375,0.486 0.1755,0.297 0.3375,0.6885 0.162,0.378 0.2835,0.783 0.1215,0.405 0.189,0.7965 0.081,0.3915 0.0945,0.6885 0.0135,0.702 -0.054,1.242 -0.0675,0.5265 -0.2025,0.9585 -0.135,0.4185 -0.324,0.783 -0.1755,0.351 -0.378,0.7155 -0.216,0.3645 -0.4455,0.648 -0.216,0.27 -0.4455,0.5535 -0.243,0.297 -0.513,0.4995 -0.2565,0.189 -0.513,0.4185 0.1215,0.6885 0.216,1.242 0.0405,0.243 0.081,0.4725 0.0405,0.2295 0.0675,0.432 0.027,0.189 0.054,0.324 0.027,0.1215 0.027,0.1485 0.324,-0.0405 0.6615,0 0.351,0.027 0.6615,0.0945 0.324,0.0675 0.567,0.1755 0.2565,0.108 0.405,0.2025 0.729,0.54 1.026,1.242 0.3105,0.6885 0.3645,1.4175 0.0405,0.567 -0.0945,1.134 -0.135,0.5805 -0.459,1.0935 -0.3105,0.5265 -0.8235,0.9585 -0.4995,0.432 -1.188,0.7155 0.081,0.5535 0.1485,1.026 0.0675,0.405 0.1215,0.783 0.054,0.3915 0.081,0.54 0.1215,0.81 0.0945,1.323 -0.027,0.5265 -0.2025,0.8505 -0.1485,0.27 -0.351,0.5265 -0.189,0.2565 -0.459,0.459 -0.27,0.2025 -0.6345,0.3375 -0.351,0.135 -0.81,0.162 -0.351,0.027 -0.837,-0.0675 -0.486,-0.081 -0.9315,-0.3105 -0.4455,-0.216 -0.7695,-0.594 -0.324,-0.378 -0.3645,-0.9315 -0.027,-0.324 0.0405,-0.6615 0.0675,-0.324 0.2295,-0.594 0.1755,-0.2565 0.4455,-0.432 0.2835,-0.1755 0.6885,-0.2025 0.243,-0.0135 0.486,0.0675 0.2565,0.0945 0.4725,0.2565 0.216,0.162 0.351,0.405 0.135,0.243 0.162,0.5265 0.0405,0.4995 -0.3105,0.9585 -0.351,0.4725 -1.188,0.702 0.135,0.189 0.513,0.351 0.378,0.1755 0.945,0.1755 0.594,0 1.134,-0.351 0.5535,-0.351 0.8505,-0.8775 0.189,-0.351 0.189,-0.918 0,-0.5535 -0.0675,-1.1205 -0.027,-0.0945 -0.081,-0.4725 -0.054,-0.3645 -0.1215,-0.7695 -0.0675,-0.4725 -0.162,-1.053 z m 0.2835,-17.1045 q -0.5265,0 -0.9315,0.4995 -0.3915,0.486 -0.648,1.242 -0.243,0.756 -0.324,1.6605 -0.081,0.9045 0.0405,1.7415 0.4455,-0.3375 0.9315,-0.81 0.486,-0.486 0.8775,-1.026 0.405,-0.54 0.648,-1.0935 0.2565,-0.5535 0.216,-1.053 -0.0135,-0.162 -0.054,-0.3645 -0.0405,-0.2025 -0.135,-0.378 -0.0945,-0.1755 -0.243,-0.297 -0.1485,-0.1215 -0.378,-0.1215 z m -0.027,16.551 q 0.5805,-0.2025 0.9045,-0.5265 0.324,-0.324 0.4725,-0.702 0.162,-0.378 0.1755,-0.756 0.027,-0.378 0.0135,-0.675 -0.027,-0.243 -0.1215,-0.6075 -0.081,-0.3645 -0.324,-0.702 -0.243,-0.3375 -0.6885,-0.5535 -0.4455,-0.2295 -1.188,-0.189 z m -1.107,-4.6845 q -0.5535,0.027 -0.918,0.2295 -0.351,0.189 -0.567,0.4725 -0.2025,0.27 -0.2835,0.5805 -0.0675,0.3105 -0.054,0.5535 0.0135,0.243 0.108,0.4995 0.0945,0.2565 0.243,0.4725 0.162,0.2295 0.3375,0.405 0.189,0.189 0.378,0.2835 -0.027,0.027 -0.054,0.0405 -0.0135,0.027 -0.0405,0.054 -0.027,0.027 -0.0405,0.054 -0.4185,-0.2025 -0.7425,-0.486 -0.3105,-0.27 -0.405,-0.3915 -0.1485,-0.2025 -0.2565,-0.3645 -0.108,-0.162 -0.1755,-0.351 -0.0675,-0.1755 -0.1215,-0.3915 -0.0405,-0.216 -0.054,-0.513 -0.027,-0.2835 0.0405,-0.594 0.0675,-0.324 0.216,-0.648 0.162,-0.324 0.405,-0.621 0.2565,-0.3105 0.594,-0.5805 0.1755,-0.135 0.3105,-0.216 0.1485,-0.081 0.27,-0.135 0.1215,-0.0675 0.243,-0.0945 0.135,-0.0405 0.2835,-0.081 l -0.405,-2.4435 q -0.162,0.0945 -0.5265,0.378 -0.3645,0.2835 -0.7965,0.675 -0.432,0.3915 -0.864,0.8505 -0.4185,0.4455 -0.6885,0.864 -0.486,0.7695 -0.756,1.4175 -0.27,0.648 -0.2025,1.404 0.054,0.8505 0.513,1.5795 0.4725,0.7425 1.2015,1.242 0.729,0.4995 1.6605,0.6885 0.9315,0.2025 1.9305,-0.0405 -0.216,-1.3365 -0.3915,-2.3895 -0.081,-0.4455 -0.1485,-0.8775 -0.0675,-0.432 -0.135,-0.7695 -0.054,-0.3375 -0.081,-0.54 -0.027,-0.216 -0.027,-0.216 z"
       id="path14999" />
  </g>
  <g
     aria-label="?"
     id="text12"
     style="font-size: 13.5px; font-family: Maestro, Maestro; isolation: isolate"
     class="cls-1">
    <path
       d="m 161.71247,326.09031 q -0.1215,0.2295 -0.243,0.4185 -0.108,0.189 -0.2295,0.3645 -0.1215,0.1755 -0.2565,0.3375 -0.135,0.1755 -0.3105,0.378 -0.1755,0.2025 -0.3375,0.3645 -0.1485,0.162 -0.3105,0.3105 -0.1485,0.1485 -0.324,0.2835 -0.1755,0.1485 -0.3915,0.3105 -0.27,0.2025 -0.513,0.351 -0.2295,0.1485 -0.4725,0.27 -0.2295,0.1215 -0.486,0.216 -0.2565,0.108 -0.567,0.2295 -0.3105,0.1215 -0.6885,0.216 -0.3645,0.108 -0.702,0.1755 -0.3915,0.081 -0.783,0.1485 l -0.0945,-0.2025 q 0.6345,-0.216 1.269,-0.4995 0.5265,-0.243 1.107,-0.594 0.594,-0.3375 1.026,-0.783 1.0935,-1.161 1.6605,-2.565 0.567,-1.3905 0.54,-3.1725 0,-0.405 -0.0945,-0.9315 -0.081,-0.5265 -0.3105,-0.999 -0.216,-0.4725 -0.621,-0.81 -0.3915,-0.3375 -1.026,-0.3375 -0.3645,0 -0.783,0.1485 -0.405,0.1485 -0.7425,0.405 -0.3375,0.243 -0.5535,0.594 -0.216,0.3375 -0.1755,0.729 0.0135,0.054 0.081,0.0405 0.081,-0.027 0.216,-0.0675 0.1485,-0.0405 0.351,-0.081 0.216,-0.0405 0.4995,-0.027 0.297,0.0135 0.513,0.189 0.216,0.162 0.351,0.4185 0.135,0.2565 0.1755,0.567 0.0405,0.297 -0.027,0.5805 -0.108,0.4455 -0.405,0.702 -0.2835,0.27 -0.7965,0.27 -0.324,0 -0.6345,-0.1215 -0.297,-0.108 -0.5265,-0.324 -0.2295,-0.2025 -0.378,-0.513 -0.135,-0.297 -0.135,-0.6885 -0.0135,-0.5805 0.1215,-1.026 0.1485,-0.4455 0.351,-0.7695 0.216,-0.324 0.4455,-0.5265 0.243,-0.216 0.4455,-0.3375 0.4995,-0.3105 1.0125,-0.4185 0.513,-0.1215 0.972,-0.135 0.513,0 1.026,0.1755 0.5265,0.162 0.9855,0.486 0.459,0.3105 0.8235,0.756 0.3645,0.432 0.5535,0.972 0.2295,0.6075 0.2295,1.2825 0.0135,0.6885 -0.162,1.485 -0.054,0.27 -0.1215,0.486 -0.0675,0.216 -0.1485,0.4185 -0.081,0.2025 -0.189,0.405 -0.0945,0.2025 -0.216,0.4455 z m 1.3635,-5.1975 q -0.0135,-0.3105 0.2025,-0.513 0.216,-0.216 0.5265,-0.216 0.3105,-0.0135 0.5265,0.189 0.2295,0.2025 0.2295,0.513 0.0135,0.3105 -0.2025,0.54 -0.216,0.216 -0.5265,0.216 -0.3105,0.0135 -0.54,-0.2025 -0.216,-0.216 -0.216,-0.5265 z m 0,3.402 q 0,-0.3105 0.216,-0.513 0.216,-0.2025 0.5265,-0.216 0.3105,0 0.5265,0.189 0.2295,0.2025 0.2295,0.513 0.0135,0.3105 -0.2025,0.5265 -0.216,0.2295 -0.5265,0.2295 -0.3105,0.0135 -0.54,-0.2025 -0.216,-0.216 -0.2295,-0.5265 z"
       id="path14996" />
  </g>
  <path
     id="line14"
     style="fill: none; stroke: #000000; stroke-width: 0.4px"
     class="cls-2"
     d="M 151.52548,197.66331 H 1002.0255" />
  <path
     id="line16"
     style="fill: none; stroke: #000000; stroke-width: 0.4px"
     class="cls-2"
     d="M 151.52548,201.06332 H 1002.0255" />
  <path
     id="line18"
     style="fill: none; stroke: #000000; stroke-width: 0.4px"
     class="cls-2"
     d="M 151.52548,204.46332 H 1002.0255" />
  <path
     id="line20"
     style="fill: none; stroke: #000000; stroke-width: 0.4px"
     class="cls-2"
     d="M 151.52548,207.76332 H 1002.0255" />
  <path
     id="line22"
     style="fill: none; stroke: #000000; stroke-width: 0.4px"
     class="cls-2"
     d="M 151.52548,211.16331 H 1002.0255" />
  <path
     id="line24"
     style="fill: none; stroke: #000000; stroke-width: 0.4px"
     class="cls-2"
     d="M 151.52548,238.16331 H 1002.0255" />
  <path
     id="line26"
     style="fill: none; stroke: #000000; stroke-width: 0.4px"
     class="cls-2"
     d="M 151.52548,241.56332 H 1002.0255" />
  <path
     id="line28"
     style="fill: none; stroke: #000000; stroke-width: 0.4px"
     class="cls-2"
     d="M 151.52548,244.96332 H 1002.0255" />
  <path
     id="line30"
     style="fill: none; stroke: #000000; stroke-width: 0.4px"
     class="cls-2"
     d="M 151.52548,248.26332 H 1002.0255" />
  <path
     id="line32"
     style="fill: none; stroke: #000000; stroke-width: 0.4px"
     class="cls-2"
     d="M 151.52548,251.66331 H 1002.0255" />
  <path
     id="line34"
     style="fill: none; stroke: #000000; stroke-width: 0.4px"
     class="cls-2"
     d="M 151.52548,278.6633 H 1002.0255" />
  <path
     id="line36"
     style="fill: none; stroke: #000000; stroke-width: 0.4px"
     class="cls-2"
     d="M 151.52548,282.06332 H 1002.0255" />
  <path
     id="line38"
     style="fill: none; stroke: #000000; stroke-width: 0.4px"
     class="cls-2"
     d="M 151.52548,285.46332 H 1002.0255" />
  <path
     id="line40"
     style="fill: none; stroke: #000000; stroke-width: 0.4px"
     class="cls-2"
     d="M 151.52548,288.76331 H 1002.0255" />
  <path
     id="line42"
     style="fill: none; stroke: #000000; stroke-width: 0.4px"
     class="cls-2"
     d="M 151.52548,292.1633 H 1002.0255" />
  <path
     id="line44"
     style="fill: none; stroke: #000000; stroke-width: 0.4px"
     class="cls-2"
     d="M 151.52548,319.1633 H 1002.0255" />
  <path
     id="line46"
     style="fill: none; stroke: #000000; stroke-width: 0.4px"
     class="cls-2"
     d="M 151.52548,322.56332 H 1002.0255" />
  <path
     id="line48"
     style="fill: none; stroke: #000000; stroke-width: 0.4px"
     class="cls-2"
     d="M 151.52548,325.96332 H 1002.0255" />
  <path
     id="line50"
     style="fill: none; stroke: #000000; stroke-width: 0.4px"
     class="cls-2"
     d="M 151.52548,329.26331 H 1002.0255" />
  <path
     id="line52"
     style="fill: none; stroke: #000000; stroke-width: 0.4px"
     class="cls-2"
     d="M 151.52548,332.66333 H 1002.0255" />
  <path
     d="m 149.82548,278.66332 c -7.2,11.5 3.1,21.9 -3.7,27 h 0.3 c 8.2,-6.8 -1.9,-15.5 3.4,-26.7 z"
     id="path54"
     inkscape:connector-curvature="0" />
  <path
     d="m 149.82548,332.66332 c -7.2,-11.5 3.1,-21.9 -3.7,-27 h 0.3 c 8.2,6.8 -1.9,15.5 3.4,26.7 z"
     id="path56"
     inkscape:connector-curvature="0" />
  <path
     id="line58"
     style="fill: none; stroke: #000000; stroke-width: 0.4px"
     class="cls-2"
     d="m 152.92548,333.96332 10.69999,-20.4" />
  <g
     aria-label="4.VII. 34"
     transform="rotate(-12.5)"
     id="text64"
     style="font-size: 6.75px; font-family: TimesNewRomanPSMT, 'Times New Roman'; isolation: isolate"
     class="cls-3">
    <path
       d="m 100.4178,210.85715 v 0.46801 h -0.599853 v 1.17994 h -0.543823 v -1.17994 h -1.891846 v -0.42187 l 2.073121,-2.95972 h 0.362548 v 2.91358 z m -1.143676,0 v -2.21814 l -1.568848,2.21814 z"
       id="path14958" />
    <path
       d="m 101.49556,211.86569 q 0.15491,0 0.26038,0.10877 0.10546,0.10547 0.10546,0.25708 0,0.15161 -0.10876,0.26037 -0.10547,0.10547 -0.25708,0.10547 -0.15161,0 -0.26038,-0.10547 -0.10547,-0.10876 -0.10547,-0.26037 0,-0.15491 0.10547,-0.26038 0.10877,-0.10547 0.26038,-0.10547 z"
       id="path14960" />
    <path
       d="m 108.69904,208.03586 v 0.12195 q -0.2373,0.0428 -0.35925,0.15161 -0.17468,0.1615 -0.30981,0.49438 l -1.55896,3.80347 h -0.12195 l -1.67432,-3.85291 q -0.12854,-0.29663 -0.18127,-0.36254 -0.0824,-0.10218 -0.20435,-0.15821 -0.11865,-0.0593 -0.323,-0.0758 v -0.12195 h 1.82593 v 0.12195 q -0.30981,0.0297 -0.4021,0.10547 -0.0923,0.0758 -0.0923,0.19445 0,0.1648 0.15161,0.51416 l 1.13708,2.62024 1.05469,-2.58728 q 0.15491,-0.38232 0.15491,-0.53064 0,-0.0956 -0.0956,-0.18127 -0.0956,-0.089 -0.323,-0.12525 -0.0165,-0.003 -0.056,-0.01 v -0.12195 z"
       style="letter-spacing: 0em"
       id="path14962" />
    <path
       d="m 110.86445,212.38315 v 0.12195 h -1.91492 v -0.12195 h 0.1582 q 0.27686,0 0.4021,-0.1615 0.0791,-0.10547 0.0791,-0.50757 v -2.88721 q 0,-0.33947 -0.0428,-0.44824 -0.033,-0.0824 -0.13513,-0.14172 -0.14502,-0.0791 -0.30323,-0.0791 h -0.1582 v -0.12195 h 1.91492 v 0.12195 h -0.1615 q -0.27356,0 -0.3988,0.1615 -0.0824,0.10546 -0.0824,0.50756 v 2.88721 q 0,0.33948 0.0429,0.44824 0.0329,0.0824 0.13842,0.14173 0.14173,0.0791 0.29993,0.0791 z"
       style="letter-spacing: 0em"
       id="path14964" />
    <path
       d="m 113.11225,212.38315 v 0.12195 h -1.91492 v -0.12195 h 0.15821 q 0.27685,0 0.4021,-0.1615 0.0791,-0.10547 0.0791,-0.50757 v -2.88721 q 0,-0.33947 -0.0429,-0.44824 -0.033,-0.0824 -0.13513,-0.14172 -0.14502,-0.0791 -0.30322,-0.0791 h -0.15821 v -0.12195 h 1.91492 v 0.12195 h -0.1615 q -0.27356,0 -0.3988,0.1615 -0.0824,0.10546 -0.0824,0.50756 v 2.88721 q 0,0.33948 0.0429,0.44824 0.033,0.0824 0.13843,0.14173 0.14172,0.0791 0.29992,0.0791 z"
       style="letter-spacing: 0em"
       id="path14966" />
    <path
       d="m 114.1208,211.86569 q 0.1549,0 0.26037,0.10877 0.10547,0.10547 0.10547,0.25708 0,0.15161 -0.10876,0.26037 -0.10547,0.10547 -0.25708,0.10547 -0.15162,0 -0.26038,-0.10547 -0.10547,-0.10876 -0.10547,-0.26037 0,-0.15491 0.10547,-0.26038 0.10876,-0.10547 0.26038,-0.10547 z"
       style="letter-spacing: 0em"
       id="path14968" />
    <path
       d="m 116.99482,208.8862 q 0.19116,-0.45154 0.4812,-0.69543 0.29334,-0.2472 0.72839,-0.2472 0.53724,0 0.82398,0.34937 0.21753,0.26037 0.21753,0.55701 0,0.48779 -0.61304,1.00854 0.41199,0.1615 0.62293,0.46143 0.21093,0.29992 0.21093,0.70532 0,0.58008 -0.36914,1.00525 -0.4812,0.55371 -1.39416,0.55371 -0.45154,0 -0.61634,-0.11206 -0.16149,-0.11206 -0.16149,-0.2406 0,-0.0956 0.0758,-0.16809 0.0791,-0.0725 0.18787,-0.0725 0.0824,0 0.16809,0.0264 0.056,0.0165 0.25378,0.12195 0.19776,0.10217 0.27356,0.12195 0.12195,0.0362 0.26038,0.0362 0.33618,0 0.58337,-0.26037 0.25049,-0.26038 0.25049,-0.61633 0,-0.26038 -0.11536,-0.50757 -0.0857,-0.18457 -0.18786,-0.28015 -0.14173,-0.13184 -0.38892,-0.23731 -0.24719,-0.10876 -0.50427,-0.10876 h -0.10547 v -0.0989 q 0.26038,-0.033 0.52075,-0.18787 0.26367,-0.1549 0.38233,-0.37243 0.11865,-0.21753 0.11865,-0.47791 0,-0.33948 -0.21423,-0.54712 -0.21094,-0.21093 -0.52735,-0.21093 -0.51086,0 -0.85364,0.54711 z"
       style="letter-spacing: 0em"
       id="path14970" />
    <path
       d="m 123.16804,210.85715 v 0.46801 h -0.59986 v 1.17994 h -0.54382 v -1.17994 h -1.89185 v -0.42187 l 2.07313,-2.95972 h 0.36254 v 2.91358 z m -1.14368,0 v -2.21814 l -1.56885,2.21814 z"
       style="letter-spacing: 0em"
       id="path14972" />
  </g>
  <g
     aria-label="A Bl. 38v"
     id="text66"
     style="             font-style: italic;             font-size: 6.75px;             font-family: Arial-ItalicMT, Arial;             isolation: isolate;             fill: #7d7d7d;         "
     class="cls-6 supplied foliation">
    <path
       d="m 97.635773,140.01857 h -1.914917 l -0.580078,1.06787 h -1.021729 l 2.7323,-4.83179 h 1.104126 l 0.784424,4.83179 h -0.942627 z m -0.121949,-0.8042 -0.280151,-1.94458 -1.166748,1.94458 z"
       style="font-weight: bold; -inkscape-font-specification: 'Arial-ItalicMT, Arial, Bold Italic'"
       id="path14943" />
    <path
       d="m 101.23819,141.08644 1.01184,-4.83179 h 1.49634 q 0.40869,0 0.60644,0.033 0.323,0.056 0.54383,0.19776 0.22412,0.13842 0.34607,0.38232 0.12194,0.2406 0.12194,0.53394 0,0.3988 -0.22082,0.70202 -0.21753,0.30323 -0.66907,0.46143 0.39221,0.12854 0.58667,0.38891 0.19446,0.25708 0.19446,0.60315 0,0.39881 -0.23071,0.76465 -0.22742,0.36585 -0.60645,0.5669 -0.37573,0.19775 -0.84045,0.19775 z m 1.22607,-2.76855 h 0.97889 q 0.70202,0 1.00854,-0.22412 0.30982,-0.22413 0.30982,-0.65259 0,-0.20435 -0.0956,-0.35266 -0.0956,-0.14832 -0.25708,-0.21424 -0.1582,-0.0692 -0.59985,-0.0692 h -1.02832 z m -0.46472,2.22143 h 1.10083 q 0.43836,0 0.58997,-0.0297 0.30652,-0.0527 0.49768,-0.17798 0.19116,-0.12854 0.29993,-0.33618 0.10876,-0.20764 0.10876,-0.43506 0,-0.33948 -0.21423,-0.51416 -0.21094,-0.17798 -0.8075,-0.17798 h -1.22607 z"
       id="path14945" />
    <path
       d="m 105.62503,141.08644 1.00855,-4.83179 h 0.59655 l -1.00854,4.83179 z"
       id="path14947" />
    <path
       d="m 107.3356,141.08644 0.14173,-0.67566 h 0.67565 l -0.14501,0.67566 z"
       id="path14949" />
    <path
       d="m 111.06656,139.82082 0.58008,-0.0725 q 0.0659,0.50756 0.29004,0.72839 0.22741,0.21753 0.59326,0.21753 0.44165,0 0.76135,-0.31641 0.323,-0.3164 0.323,-0.72509 0,-0.35596 -0.2406,-0.58667 -0.2406,-0.23401 -0.646,-0.23401 -0.0461,0 -0.19116,0.0132 l 0.10217,-0.49768 q 0.0857,0.0132 0.1648,0.0132 0.51086,0 0.78442,-0.24719 0.27686,-0.25049 0.27686,-0.61304 0,-0.33288 -0.22742,-0.5603 -0.22412,-0.22742 -0.55042,-0.22742 -0.3197,0 -0.57678,0.23401 -0.25378,0.23072 -0.32629,0.65589 l -0.58667,-0.11866 q 0.14502,-0.59655 0.55701,-0.92285 0.41198,-0.32629 0.97558,-0.32629 0.59326,0 0.95911,0.35925 0.36914,0.35925 0.36914,0.8833 0,0.38233 -0.20105,0.66907 -0.19776,0.28345 -0.59656,0.47131 0.28345,0.16809 0.42188,0.4054 0.14172,0.2373 0.14172,0.54382 0,0.64929 -0.48779,1.1272 -0.4845,0.47461 -1.16016,0.47461 -0.65588,0 -1.06128,-0.36585 -0.4021,-0.36914 -0.44824,-0.98217 z"
       id="path14951" />
    <path
       d="m 115.97415,138.42995 q -0.27026,-0.14832 -0.40539,-0.37903 -0.13514,-0.23401 -0.13514,-0.50098 0,-0.43835 0.31641,-0.81079 0.42188,-0.50427 1.14368,-0.50427 0.63611,0 1.00195,0.34277 0.36585,0.33948 0.36585,0.83386 0,0.35267 -0.19776,0.63611 -0.19775,0.28345 -0.61963,0.45154 0.29004,0.18128 0.41529,0.38562 0.16149,0.26697 0.16149,0.62293 0,0.64929 -0.46142,1.15686 -0.45813,0.50756 -1.22278,0.50756 -0.60974,0 -0.99536,-0.37573 -0.38562,-0.37573 -0.38562,-0.93933 0,-0.53064 0.27356,-0.90967 0.27356,-0.38232 0.74487,-0.51745 z m 0.0461,-0.85364 q 0,0.30981 0.19776,0.50098 0.20105,0.18786 0.55041,0.18786 0.40869,0 0.66248,-0.24719 0.25708,-0.25049 0.25708,-0.61304 0,-0.30652 -0.20105,-0.49768 -0.19775,-0.19446 -0.54712,-0.19446 -0.26367,0 -0.4845,0.12195 -0.22082,0.12195 -0.32959,0.33289 -0.10547,0.20764 -0.10547,0.40869 z m -0.46472,2.3302 q 0,0.20105 0.0956,0.38562 0.0989,0.18457 0.29663,0.29333 0.19776,0.10877 0.45154,0.10877 0.4845,0 0.78443,-0.45483 0.2373,-0.35596 0.2373,-0.76795 0,-0.33618 -0.22082,-0.55041 -0.21753,-0.21424 -0.57349,-0.21424 -0.44824,0 -0.76135,0.33289 -0.30982,0.33288 -0.30982,0.86682 z"
       id="path14953" />
    <path
       d="m 118.9253,138.38644 -0.37277,-2.27516 h 0.37705 l 0.19496,1.25327 q 0.0321,0.20566 0.0793,0.67055 0.1114,-0.24209 0.28493,-0.55487 l 0.76053,-1.36895 h 0.40919 l -1.30254,2.27516 z"
       style="font-size: 65%; baseline-shift: super"
       id="path14955" />
  </g>
  <g
     aria-label="1"
     id="text70"
     style="             font-style: italic;             font-size: 6.75px;             font-family: Arial-ItalicMT, Arial;             isolation: isolate;             fill: #7d7d7d;         "
     class="cls-6 supplied staffN">
    <path
       d="m 95.11441,207.80331 0.764649,-3.64856 q -0.494385,0.38892 -1.390869,0.62293 l 0.11206,-0.54053 q 0.444947,-0.17798 0.876709,-0.46472 0.435059,-0.28674 0.652588,-0.50098 0.131836,-0.13183 0.250488,-0.3197 h 0.34607 l -1.011841,4.85156 z"
       id="path14940" />
  </g>
  <g
     aria-label="2"
     id="text72"
     style="             font-style: italic;             font-size: 6.75px;             font-family: Arial-ItalicMT, Arial;             isolation: isolate;             fill: #7d7d7d;         "
     class="cls-6 supplied staffN">
    <path
       d="m 94.48819,248.30331 q 0.09229,-0.43176 0.253784,-0.7218 0.164795,-0.29333 0.435058,-0.55371 0.270264,-0.26367 1.041504,-0.88 0.468018,-0.37244 0.639405,-0.55042 0.247192,-0.25708 0.359253,-0.50427 0.0758,-0.16809 0.0758,-0.36585 0,-0.33288 -0.237304,-0.56359 -0.234009,-0.23401 -0.576783,-0.23401 -0.339477,0 -0.593261,0.2373 -0.253785,0.23401 -0.362549,0.75476 l -0.583374,-0.0857 q 0.08569,-0.6427 0.49768,-1.01184 0.415284,-0.37244 1.031617,-0.37244 0.411987,0 0.744873,0.17139 0.336181,0.17139 0.504272,0.4812 0.168091,0.30981 0.168091,0.6394 0,0.48121 -0.342773,0.92615 -0.210938,0.27686 -1.239258,1.09094 -0.441651,0.34937 -0.65918,0.57349 -0.214233,0.22412 -0.322998,0.42188 h 2.162109 l -0.115356,0.54711 z"
       id="path14937" />
  </g>
  <g
     aria-label="3"
     id="text74"
     style="             font-style: italic;             font-size: 6.75px;             font-family: Arial-ItalicMT, Arial;             isolation: isolate;             fill: #7d7d7d;         "
     class="cls-6 supplied staffN">
    <path
       d="m 94.48819,287.53769 0.580078,-0.0725 q 0.06592,0.50757 0.290039,0.72839 0.227417,0.21753 0.593262,0.21753 0.44165,0 0.761352,-0.3164 0.322998,-0.31641 0.322998,-0.7251 0,-0.35596 -0.2406,-0.58667 -0.240601,-0.23401 -0.645996,-0.23401 -0.04614,0 -0.191163,0.0132 l 0.102173,-0.49768 q 0.08569,0.0132 0.164795,0.0132 0.510864,0 0.784424,-0.2472 0.276855,-0.25048 0.276855,-0.61303 0,-0.33289 -0.227417,-0.56031 -0.224121,-0.22741 -0.550415,-0.22741 -0.319702,0 -0.576782,0.23401 -0.253784,0.23071 -0.326294,0.65588 l -0.58667,-0.11865 q 0.14502,-0.59656 0.557007,-0.92285 0.411987,-0.3263 0.975586,-0.3263 0.593262,0 0.959107,0.35925 0.36914,0.35926 0.36914,0.88331 0,0.38232 -0.20105,0.66906 -0.197754,0.28345 -0.596557,0.47132 0.283447,0.16809 0.421875,0.40539 0.141723,0.23731 0.141723,0.54383 0,0.64929 -0.487793,1.12719 -0.484497,0.47461 -1.160156,0.47461 -0.655884,0 -1.061279,-0.36584 -0.4021,-0.36914 -0.448242,-0.98218 z"
       id="path14934" />
  </g>
  <g
     aria-label="4"
     id="text76"
     style="             font-style: italic;             font-size: 6.75px;             font-family: Arial-ItalicMT, Arial;             isolation: isolate;             fill: #7d7d7d;         "
     class="cls-6 supplied staffN">
    <path
       d="m 96.198761,329.30331 0.260376,-1.23266 H 94.48819 l 0.125244,-0.58997 2.705932,-3.00915 h 0.487793 l -0.6427,3.07177 h 0.678955 l -0.108764,0.52735 h -0.678955 l -0.260376,1.23266 z m 0.369141,-1.76001 0.421875,-2.01709 -1.799561,2.01709 z"
       id="path14931" />
  </g>
  <path
     class="cls-8"
     d="m 151.42548,197.66332 0.1,134.9"
     id="path78"
     inkscape:connector-curvature="0"
     style="fill: none; stroke: #000000; stroke-width: 0.49000001px" />
  <g
     aria-label="„Wie bin ich froh!“"
     id="text84"
     style="font-size: 14px; font-family: TimesNewRomanPSMT, 'Times New Roman'; isolation: isolate"
     class="cls-9">
    <path
       d="m 202.97162,180.57347 v -0.28711 q 0.69043,-0.38965 0.90234,-0.71094 0.21875,-0.31445 0.21875,-0.73144 0,-0.19141 -0.0684,-0.28711 -0.0752,-0.0957 -0.16406,-0.0957 -0.0684,0 -0.21875,0.0547 -0.15039,0.0547 -0.30078,0.0547 -0.28711,0 -0.49219,-0.20508 -0.20508,-0.20507 -0.20508,-0.49902 0,-0.32813 0.25977,-0.57422 0.2666,-0.24609 0.64258,-0.24609 0.45117,0 0.81347,0.38965 0.36914,0.38964 0.36914,0.98437 0,0.71777 -0.46484,1.3125 -0.45801,0.59473 -1.29199,0.84082 z m 3.26074,0 v -0.28711 q 0.59473,-0.30762 0.85449,-0.65625 0.2666,-0.3418 0.2666,-0.74512 0,-0.23925 -0.0684,-0.33496 -0.0684,-0.0889 -0.1504,-0.0889 -0.0889,0 -0.23925,0.0547 -0.15723,0.0547 -0.27344,0.0547 -0.28027,0 -0.49219,-0.21191 -0.20508,-0.21192 -0.20508,-0.50586 0,-0.32813 0.25293,-0.56738 0.25293,-0.23926 0.62207,-0.23926 0.46485,0 0.83399,0.40332 0.36914,0.39648 0.36914,0.97754 0,0.68359 -0.45801,1.27148 -0.45117,0.59473 -1.3125,0.875 z"
       id="path14898" />
    <path
       d="m 221.49997,169.14378 v 0.25293 q -0.36231,0 -0.58789,0.12989 -0.22559,0.12988 -0.43067,0.48535 -0.13671,0.23926 -0.43066,1.1416 l -2.58398,7.47168 h -0.27344 l -2.11231,-5.92676 -2.09863,5.92676 h -0.24609 l -2.75489,-7.69727 q -0.30761,-0.86132 -0.38964,-1.01855 -0.13672,-0.25977 -0.37598,-0.38281 -0.23242,-0.12989 -0.63574,-0.12989 v -0.25293 h 3.43164 v 0.25293 h -0.16406 q -0.36231,0 -0.55372,0.16407 -0.1914,0.16406 -0.1914,0.39648 0,0.23926 0.30078,1.10059 l 1.8252,5.20214 1.53808,-4.42285 -0.27344,-0.77929 -0.21875,-0.62207 q -0.14355,-0.3418 -0.32129,-0.60157 -0.0889,-0.12988 -0.21875,-0.21875 -0.17089,-0.12304 -0.34179,-0.17773 -0.12989,-0.041 -0.41016,-0.041 v -0.25293 h 3.60938 v 0.25293 h -0.2461 q -0.38281,0 -0.56054,0.16407 -0.17774,0.16406 -0.17774,0.44433 0,0.34863 0.30762,1.2168 l 1.77734,5.03808 1.76367,-5.10644 q 0.30079,-0.84766 0.30079,-1.17578 0,-0.15723 -0.10254,-0.29395 -0.0957,-0.13672 -0.2461,-0.1914 -0.25976,-0.0957 -0.67676,-0.0957 v -0.25293 z"
       style="letter-spacing: -0.04em"
       id="path14900" />
    <path
       d="m 223.08575,168.69261 q 0.28711,0 0.48536,0.20508 0.20507,0.19824 0.20507,0.48535 0,0.28711 -0.20507,0.49219 -0.19825,0.20508 -0.48536,0.20508 -0.2871,0 -0.49218,-0.20508 -0.20508,-0.20508 -0.20508,-0.49219 0,-0.28711 0.19824,-0.48535 0.20508,-0.20508 0.49902,-0.20508 z m 0.56739,3.27442 v 5.03125 q 0,0.58789 0.082,0.78613 0.0889,0.1914 0.25293,0.28711 0.1709,0.0957 0.61523,0.0957 v 0.24609 h -3.04199 v -0.24609 q 0.45801,0 0.61523,-0.0889 0.15723,-0.0889 0.2461,-0.29394 0.0957,-0.20508 0.0957,-0.78613 v -2.41309 q 0,-1.01855 -0.0615,-1.31934 -0.0479,-0.21875 -0.15039,-0.30078 -0.10254,-0.0889 -0.28028,-0.0889 -0.1914,0 -0.46484,0.10253 l -0.0957,-0.24609 1.88672,-0.76562 z"
       id="path14902" />
    <path
       d="m 226.43536,174.50999 q -0.007,1.39454 0.67676,2.1875 0.6836,0.79297 1.60645,0.79297 0.61523,0 1.0664,-0.33496 0.45801,-0.34179 0.76563,-1.16211 l 0.21191,0.13672 q -0.14355,0.93653 -0.83398,1.70899 -0.69043,0.76562 -1.72949,0.76562 -1.12793,0 -1.93457,-0.875 -0.79981,-0.88183 -0.79981,-2.36523 0,-1.60645 0.82031,-2.50196 0.82715,-0.90234 2.07129,-0.90234 1.05274,0 1.72949,0.69727 0.67676,0.69043 0.67676,1.85253 z m 0,-0.39648 h 2.89844 q -0.0342,-0.60156 -0.14355,-0.84766 -0.1709,-0.38281 -0.5127,-0.60156 -0.33496,-0.21875 -0.7041,-0.21875 -0.56738,0 -1.01855,0.44434 -0.44434,0.4375 -0.51954,1.22363 z"
       id="path14904" />
    <path
       d="m 236.81232,173.23167 q 0.90918,-1.26464 1.96191,-1.26464 0.96387,0 1.68164,0.82714 0.71778,0.82032 0.71778,2.24903 0,1.66797 -1.10743,2.68652 -0.95019,0.875 -2.11914,0.875 -0.54687,0 -1.11426,-0.19824 -0.56054,-0.19824 -1.14843,-0.59473 v -6.4873 q 0,-1.06641 -0.0547,-1.3125 -0.0479,-0.2461 -0.15723,-0.33496 -0.10937,-0.0889 -0.27343,-0.0889 -0.19141,0 -0.47852,0.10937 l -0.0957,-0.23925 1.87988,-0.76563 h 0.30762 z m 0,0.4375 v 3.7461 q 0.34863,0.34179 0.71777,0.51953 0.37598,0.1709 0.76563,0.1709 0.62207,0 1.15527,-0.6836 0.54004,-0.68359 0.54004,-1.98925 0,-1.20313 -0.54004,-1.84571 -0.5332,-0.64941 -1.2168,-0.64941 -0.3623,0 -0.72461,0.18457 -0.27343,0.13672 -0.69726,0.54687 z"
       id="path14906" />
    <path
       d="m 243.68927,168.69261 q 0.28711,0 0.48535,0.20508 0.20508,0.19824 0.20508,0.48535 0,0.28711 -0.20508,0.49219 -0.19824,0.20508 -0.48535,0.20508 -0.28711,0 -0.49219,-0.20508 -0.20508,-0.20508 -0.20508,-0.49219 0,-0.28711 0.19825,-0.48535 0.20507,-0.20508 0.49902,-0.20508 z m 0.56738,3.27442 v 5.03125 q 0,0.58789 0.082,0.78613 0.0889,0.1914 0.25293,0.28711 0.1709,0.0957 0.61524,0.0957 v 0.24609 h -3.04199 v -0.24609 q 0.458,0 0.61523,-0.0889 0.15723,-0.0889 0.24609,-0.29394 0.0957,-0.20508 0.0957,-0.78613 v -2.41309 q 0,-1.01855 -0.0615,-1.31934 -0.0479,-0.21875 -0.15039,-0.30078 -0.10254,-0.0889 -0.28027,-0.0889 -0.19141,0 -0.46484,0.10253 l -0.0957,-0.24609 1.88672,-0.76562 z"
       id="path14908" />
    <path
       d="m 247.81134,173.2932 q 1.10059,-1.32617 2.09863,-1.32617 0.5127,0 0.88184,0.25976 0.36914,0.25293 0.58789,0.84082 0.15039,0.41016 0.15039,1.25781 v 2.67286 q 0,0.59472 0.0957,0.80664 0.0752,0.17089 0.23926,0.2666 0.1709,0.0957 0.62207,0.0957 v 0.24609 h -3.09668 v -0.24609 h 0.12988 q 0.4375,0 0.6084,-0.12988 0.17774,-0.13672 0.2461,-0.39649 0.0273,-0.10254 0.0273,-0.64257 v -2.56348 q 0,-0.85449 -0.22559,-1.23731 -0.21875,-0.38964 -0.74511,-0.38964 -0.81348,0 -1.62012,0.88867 v 3.30176 q 0,0.63574 0.0752,0.78613 0.0957,0.19824 0.25976,0.29394 0.1709,0.0889 0.6836,0.0889 v 0.24609 h -3.09668 v -0.24609 h 0.13671 q 0.47852,0 0.64258,-0.23926 0.1709,-0.24609 0.1709,-0.92968 v -2.32422 q 0,-1.12793 -0.0547,-1.37403 -0.0478,-0.24609 -0.15722,-0.33496 -0.10254,-0.0889 -0.28028,-0.0889 -0.1914,0 -0.458,0.10253 l -0.10254,-0.24609 1.88672,-0.76562 h 0.29394 z"
       id="path14910" />
    <path
       d="m 258.07892,168.69261 q 0.28711,0 0.48535,0.20508 0.20508,0.19824 0.20508,0.48535 0,0.28711 -0.20508,0.49219 -0.19824,0.20508 -0.48535,0.20508 -0.28711,0 -0.49219,-0.20508 -0.20508,-0.20508 -0.20508,-0.49219 0,-0.28711 0.19825,-0.48535 0.20507,-0.20508 0.49902,-0.20508 z m 0.56738,3.27442 v 5.03125 q 0,0.58789 0.082,0.78613 0.0889,0.1914 0.25293,0.28711 0.1709,0.0957 0.61524,0.0957 v 0.24609 h -3.042 v -0.24609 q 0.45801,0 0.61524,-0.0889 0.15723,-0.0889 0.24609,-0.29394 0.0957,-0.20508 0.0957,-0.78613 v -2.41309 q 0,-1.01855 -0.0615,-1.31934 -0.0479,-0.21875 -0.15039,-0.30078 -0.10254,-0.0889 -0.28027,-0.0889 -0.19141,0 -0.46485,0.10253 l -0.0957,-0.24609 1.88672,-0.76562 z"
       id="path14912" />
    <path
       d="m 265.69415,176.03441 q -0.25293,1.2373 -0.99121,1.90723 -0.73828,0.66308 -1.63379,0.66308 -1.0664,0 -1.85937,-0.89551 -0.79297,-0.8955 -0.79297,-2.41992 0,-1.47656 0.875,-2.39941 0.88184,-0.92285 2.1123,-0.92285 0.92286,0 1.51758,0.49218 0.59473,0.48535 0.59473,1.01172 0,0.25977 -0.1709,0.42383 -0.16406,0.15723 -0.46484,0.15723 -0.40332,0 -0.6084,-0.25977 -0.11621,-0.14355 -0.15723,-0.54687 -0.0342,-0.40332 -0.27344,-0.61524 -0.23925,-0.20508 -0.66308,-0.20508 -0.6836,0 -1.10059,0.50586 -0.55371,0.66992 -0.55371,1.77051 0,1.12109 0.54688,1.98242 0.55371,0.85449 1.49023,0.85449 0.66992,0 1.20313,-0.458 0.37597,-0.31446 0.73144,-1.1416 z"
       id="path14914" />
    <path
       d="m 268.42853,168.69261 v 4.58008 q 0.75879,-0.83398 1.20312,-1.06641 0.44434,-0.23925 0.88867,-0.23925 0.53321,0 0.91602,0.29394 0.38281,0.29395 0.56738,0.92285 0.12989,0.4375 0.12989,1.59961 v 2.21485 q 0,0.59472 0.0957,0.81347 0.0684,0.16406 0.23242,0.25977 0.16406,0.0957 0.60156,0.0957 v 0.24609 h -3.07617 v -0.24609 h 0.14356 q 0.4375,0 0.60839,-0.12988 0.1709,-0.13672 0.23926,-0.39649 0.0205,-0.10937 0.0205,-0.64257 v -2.21485 q 0,-1.02539 -0.10937,-1.34668 -0.10254,-0.32129 -0.33497,-0.47851 -0.23242,-0.16407 -0.56054,-0.16407 -0.33496,0 -0.69727,0.17774 -0.3623,0.17773 -0.86816,0.71777 v 3.3086 q 0,0.64257 0.0684,0.7998 0.0752,0.15723 0.2666,0.2666 0.19824,0.10254 0.67676,0.10254 v 0.24609 h -3.10352 v -0.24609 q 0.41699,0 0.65625,-0.12988 0.13672,-0.0684 0.21875,-0.25977 0.082,-0.1914 0.082,-0.77929 v -5.667 q 0,-1.07324 -0.0547,-1.31933 -0.0479,-0.2461 -0.15722,-0.33496 -0.10254,-0.0889 -0.28028,-0.0889 -0.14355,0 -0.46484,0.10937 l -0.0957,-0.23925 1.87304,-0.76563 z"
       id="path14916" />
    <path
       d="m 279.53693,172.64378 v 4.11524 q 0,0.875 0.1914,1.10742 0.25293,0.30078 0.67676,0.30078 h 0.56738 v 0.24609 h -3.73925 v -0.24609 h 0.28027 q 0.27344,0 0.49902,-0.13672 0.22559,-0.13672 0.30762,-0.36914 0.0889,-0.23242 0.0889,-0.90234 v -4.11524 h -1.2168 v -0.49218 h 1.2168 v -0.41016 q 0,-0.93652 0.30078,-1.58594 0.30078,-0.64941 0.91601,-1.0459 0.62207,-0.40332 1.39453,-0.40332 0.71778,0 1.31934,0.46485 0.39649,0.30761 0.39649,0.69043 0,0.20508 -0.17774,0.38965 -0.17773,0.17773 -0.38281,0.17773 -0.15723,0 -0.33496,-0.10938 -0.1709,-0.11621 -0.42383,-0.48535 -0.25293,-0.37597 -0.46484,-0.50586 -0.21192,-0.12988 -0.47168,-0.12988 -0.31446,0 -0.53321,0.1709 -0.21875,0.16406 -0.31445,0.51953 -0.0957,0.34863 -0.0957,1.81152 v 0.45118 h 1.61328 v 0.49218 z"
       id="path14918" />
    <path
       d="m 283.5838,171.96703 v 1.4082 q 0.78613,-1.4082 1.61328,-1.4082 0.37598,0 0.62207,0.23242 0.2461,0.22558 0.2461,0.52636 0,0.26661 -0.17774,0.45118 -0.17773,0.18457 -0.42383,0.18457 -0.23925,0 -0.54003,-0.23242 -0.29395,-0.23926 -0.4375,-0.23926 -0.12305,0 -0.26661,0.13672 -0.30761,0.28027 -0.63574,0.92285 v 3.00097 q 0,0.51954 0.12988,0.78614 0.0889,0.18457 0.31446,0.30761 0.22558,0.12305 0.64941,0.12305 v 0.24609 h -3.20605 v -0.24609 q 0.47851,0 0.71093,-0.15039 0.1709,-0.10937 0.23926,-0.34863 0.0342,-0.11621 0.0342,-0.66309 v -2.42676 q 0,-1.09375 -0.0478,-1.29882 -0.041,-0.21192 -0.16406,-0.30762 -0.11621,-0.0957 -0.29395,-0.0957 -0.21191,0 -0.47851,0.10253 l -0.0684,-0.24609 1.89355,-0.76562 z"
       id="path14920" />
    <path
       d="m 289.47638,171.96703 q 1.42187,0 2.2832,1.08007 0.73145,0.92286 0.73145,2.11914 0,0.84082 -0.40332,1.70215 -0.40332,0.86133 -1.11426,1.29883 -0.7041,0.4375 -1.57227,0.4375 -1.41503,0 -2.24902,-1.12793 -0.7041,-0.95019 -0.7041,-2.13281 0,-0.86133 0.42383,-1.70899 0.43066,-0.85449 1.12793,-1.25781 0.69726,-0.41015 1.47656,-0.41015 z m -0.21191,0.44433 q -0.36231,0 -0.73145,0.21875 -0.3623,0.21192 -0.58789,0.75195 -0.22559,0.54004 -0.22559,1.3877 0,1.36719 0.54004,2.3584 0.54688,0.99121 1.43555,0.99121 0.66309,0 1.09375,-0.54688 0.43066,-0.54687 0.43066,-1.87988 0,-1.66797 -0.71777,-2.625 -0.48535,-0.65625 -1.2373,-0.65625 z"
       id="path14922" />
    <path
       d="m 295.25275,168.69261 v 4.58008 q 0.75879,-0.83398 1.20312,-1.06641 0.44434,-0.23925 0.88867,-0.23925 0.53321,0 0.91602,0.29394 0.38281,0.29395 0.56738,0.92285 0.12988,0.4375 0.12988,1.59961 v 2.21485 q 0,0.59472 0.0957,0.81347 0.0684,0.16406 0.23242,0.25977 0.16406,0.0957 0.60156,0.0957 v 0.24609 h -3.07617 v -0.24609 h 0.14356 q 0.4375,0 0.60839,-0.12988 0.1709,-0.13672 0.23926,-0.39649 0.0205,-0.10937 0.0205,-0.64257 v -2.21485 q 0,-1.02539 -0.10938,-1.34668 -0.10253,-0.32129 -0.33496,-0.47851 -0.23242,-0.16407 -0.56054,-0.16407 -0.33496,0 -0.69727,0.17774 -0.3623,0.17773 -0.86816,0.71777 v 3.3086 q 0,0.64257 0.0684,0.7998 0.0752,0.15723 0.2666,0.2666 0.19824,0.10254 0.67676,0.10254 v 0.24609 h -3.10352 v -0.24609 q 0.41699,0 0.65625,-0.12988 0.13672,-0.0684 0.21875,-0.25977 0.082,-0.1914 0.082,-0.77929 v -5.667 q 0,-1.07324 -0.0547,-1.31933 -0.0478,-0.2461 -0.15722,-0.33496 -0.10254,-0.0889 -0.28028,-0.0889 -0.14355,0 -0.46484,0.10937 l -0.0957,-0.23925 1.87304,-0.76563 z"
       id="path14924" />
    <path
       d="m 302.43732,175.95921 h -0.25977 l -0.60156,-5.53711 q -0.041,-0.3623 -0.041,-0.54004 0,-0.43066 0.22559,-0.69042 0.23242,-0.25977 0.55371,-0.25977 0.32129,0 0.54004,0.25977 0.22559,0.25976 0.22559,0.77246 0,0.16406 -0.0274,0.458 z m -0.13672,1.13477 q 0.31445,0 0.5332,0.22558 0.22559,0.21875 0.22559,0.52637 0,0.31446 -0.22559,0.54004 -0.21875,0.21875 -0.5332,0.21875 -0.31445,0 -0.54004,-0.21875 -0.21875,-0.22558 -0.21875,-0.54004 0,-0.30762 0.21875,-0.52637 0.22559,-0.22558 0.54004,-0.22558 z"
       id="path14926" />
    <path
       d="m 306.867,168.93187 v 0.28027 q -0.60156,0.31446 -0.86132,0.65625 -0.25977,0.3418 -0.25977,0.74512 0,0.23926 0.0684,0.32813 0.0615,0.0957 0.15039,0.0957 0.0889,0 0.23926,-0.0479 0.15039,-0.0547 0.27344,-0.0547 0.28027,0 0.48535,0.21191 0.21191,0.20508 0.21191,0.50586 0,0.32813 -0.25293,0.56739 -0.25293,0.23242 -0.6289,0.23242 -0.45801,0 -0.82715,-0.39649 -0.36914,-0.39648 -0.36914,-0.97754 0,-0.68359 0.45117,-1.27148 0.45801,-0.59473 1.31933,-0.875 z m 3.26075,0.0205 v 0.25976 q -0.69043,0.39649 -0.90918,0.71094 -0.21875,0.31445 -0.21875,0.73828 0,0.19141 0.0752,0.28711 0.0752,0.0957 0.15723,0.0957 0.0752,0 0.22558,-0.0547 0.1504,-0.0547 0.30079,-0.0547 0.28027,0 0.48535,0.20508 0.21191,0.19824 0.21191,0.49218 0,0.33497 -0.2666,0.58106 -0.25977,0.24609 -0.64258,0.24609 -0.45117,0 -0.81347,-0.38965 -0.36231,-0.38964 -0.36231,-0.9707 0,-0.71777 0.45801,-1.30566 0.45801,-0.59473 1.29883,-0.84082 z"
       id="path14928" />
  </g>
  <g
     aria-label="M 317 Sk1"
     id="text88"
     style="font-weight: 700; font-size: 12px; font-family: Arial-BoldMT, Arial; isolation: isolate"
     class="cls-12">
    <path
       d="m 94.48819,84.326881 v -8.589843 h 2.595703 l 1.558594,5.859375 1.541013,-5.859375 h 2.60156 v 8.589843 h -1.61132 v -6.761718 l -1.705082,6.761718 h -1.669921 l -1.699219,-6.761718 v 6.761718 z"
       id="path14882" />
    <path
       d="m 107.41983,82.047585 1.59375,-0.19336 q 0.0762,0.609375 0.41016,0.931641 0.33398,0.322265 0.80859,0.322265 0.50977,0 0.85547,-0.386718 0.35156,-0.386719 0.35156,-1.042969 0,-0.621094 -0.33398,-0.984375 -0.33399,-0.363281 -0.81446,-0.363281 -0.3164,0 -0.75586,0.123047 l 0.18165,-1.341797 q 0.66796,0.01758 1.01953,-0.28711 0.35156,-0.310547 0.35156,-0.820312 0,-0.433594 -0.25781,-0.691406 -0.25782,-0.257813 -0.68555,-0.257813 -0.42188,0 -0.7207,0.292969 -0.29883,0.292969 -0.36328,0.855469 l -1.51758,-0.257813 q 0.1582,-0.779297 0.47461,-1.242187 0.32226,-0.46875 0.89062,-0.732422 0.57422,-0.269532 1.2832,-0.269532 1.2129,0 1.94532,0.773438 0.60351,0.632812 0.60351,1.429687 0,1.13086 -1.23633,1.804688 0.73829,0.158203 1.17774,0.708984 0.44531,0.550782 0.44531,1.330078 0,1.13086 -0.82617,1.927735 -0.82617,0.796875 -2.05664,0.796875 -1.16602,0 -1.93359,-0.667969 -0.76758,-0.673828 -0.89063,-1.757812 z"
       id="path14884" />
    <path
       d="m 118.36514,84.326881 h -1.64648 v -6.205078 q -0.90235,0.84375 -2.12695,1.248047 v -1.49414 q 0.64453,-0.210938 1.40039,-0.796875 0.75586,-0.591797 1.03711,-1.376954 h 1.33593 z"
       id="path14886" />
    <path
       d="m 120.82608,77.383522 v -1.529297 h 5.63086 v 1.195313 q -0.69727,0.685547 -1.41797,1.96875 -0.7207,1.283203 -1.10156,2.730468 -0.375,1.441407 -0.36914,2.578125 h -1.58789 q 0.041,-1.78125 0.73242,-3.632812 0.69726,-1.851563 1.85742,-3.310547 z"
       id="path14888" />
    <path
       d="m 130.75772,81.53196 1.6875,-0.164063 q 0.15234,0.849609 0.61524,1.248047 0.46875,0.398437 1.25976,0.398437 0.83789,0 1.25977,-0.351562 0.42773,-0.357422 0.42773,-0.832031 0,-0.304688 -0.18164,-0.515625 -0.17578,-0.216797 -0.62109,-0.375 -0.30469,-0.105469 -1.38868,-0.375 -1.39453,-0.345703 -1.95703,-0.84961 -0.79101,-0.708984 -0.79101,-1.728515 0,-0.65625 0.36914,-1.22461 0.375,-0.574218 1.07226,-0.873047 0.70313,-0.298828 1.69336,-0.298828 1.61719,0 2.43164,0.708985 0.82032,0.708984 0.86133,1.892578 l -1.73437,0.07617 q -0.11133,-0.66211 -0.48047,-0.949219 -0.36328,-0.292969 -1.0957,-0.292969 -0.75586,0 -1.1836,0.310547 -0.27539,0.199219 -0.27539,0.533203 0,0.304688 0.25781,0.521485 0.32813,0.27539 1.59375,0.574218 1.26563,0.298828 1.86914,0.621094 0.60938,0.316406 0.94922,0.873047 0.34571,0.550781 0.34571,1.365234 0,0.738282 -0.41016,1.382813 -0.41016,0.644531 -1.16016,0.960937 -0.75,0.310547 -1.86914,0.310547 -1.6289,0 -2.50195,-0.75 -0.87305,-0.755859 -1.04297,-2.197265 z"
       id="path14890" />
    <path
       d="m 139.13077,84.326881 v -8.589843 h 1.64648 v 4.558593 l 1.92774,-2.191406 h 2.02734 l -2.12695,2.273438 2.27929,3.949218 h -1.77539 l -1.56445,-2.794921 -0.76758,0.802734 v 1.992187 z"
       id="path14892" />
    <path
       d="m 149.72452,84.326881 h -1.64649 v -6.205078 q -0.90234,0.84375 -2.12695,1.248047 v -1.49414 q 0.64453,-0.210938 1.40039,-0.796875 0.75586,-0.591797 1.03711,-1.376954 h 1.33594 z"
       id="path14894" />
  </g>
  <g
     aria-label="3"
     id="text98"
     style="font-size: 13.5px; font-family: Maestro, Maestro; isolation: isolate"
     class="cls-1">
    <path
       d="m 171.16097,242.88981 q 0,0.513 -0.2835,0.891 -0.27,0.378 -0.675,0.621 -0.405,0.243 -0.864,0.351 -0.459,0.1215 -0.8235,0.1215 -0.513,0 -0.9585,-0.1215 -0.432,-0.1215 -0.756,-0.351 -0.324,-0.2295 -0.513,-0.567 -0.1755,-0.324 -0.1755,-0.7425 0,-0.1755 0.081,-0.351 0.081,-0.1755 0.2025,-0.3105 0.135,-0.135 0.297,-0.2295 0.1755,-0.081 0.3645,-0.081 0.378,0 0.702,0.216 0.324,0.216 0.324,0.648 0,0.2565 -0.081,0.4185 -0.081,0.162 -0.1755,0.2835 -0.0945,0.1215 -0.1755,0.243 -0.0675,0.135 -0.054,0.3105 0,0.0405 0.0675,0.0945 0.0675,0.0675 0.1485,0.1215 0.0945,0.054 0.1755,0.081 0.0945,0.0405 0.1485,0.0405 0.3375,0 0.5805,-0.1755 0.2565,-0.162 0.4185,-0.4185 0.1755,-0.2565 0.2565,-0.54 0.081,-0.2835 0.081,-0.513 0,-0.432 -0.189,-0.6615 -0.1755,-0.216 -0.459,-0.324 -0.27,-0.0945 -0.621,-0.135 -0.3375,-0.027 -0.6615,-0.0945 0,-0.0135 0,-0.0675 0,-0.054 0,-0.1215 0.0135,-0.0675 0.0135,-0.108 0,-0.054 0,-0.054 0.324,-0.0405 0.6345,-0.1215 0.3105,-0.081 0.5535,-0.243 0.243,-0.162 0.378,-0.4185 0.1485,-0.2565 0.1485,-0.6345 0,-0.5265 -0.189,-0.7965 -0.1755,-0.2835 -0.405,-0.3915 -0.2295,-0.1215 -0.4455,-0.1215 -0.2025,-0.0135 -0.27,-0.0135 -0.0405,0 -0.108,0.0405 -0.054,0.027 -0.1215,0.081 -0.0675,0.0405 -0.108,0.108 -0.0405,0.054 -0.0405,0.108 0.0135,0.108 0.081,0.2025 0.081,0.0945 0.1755,0.2025 0.108,0.0945 0.2025,0.2295 0.108,0.1215 0.1755,0.324 0.0675,0.189 0,0.3915 -0.0675,0.189 -0.216,0.351 -0.1485,0.1485 -0.351,0.243 -0.189,0.0945 -0.378,0.0945 -0.2295,0 -0.4185,-0.108 -0.189,-0.108 -0.324,-0.2565 -0.135,-0.162 -0.216,-0.3375 -0.081,-0.1755 -0.081,-0.297 0,-0.297 0.1215,-0.6075 0.135,-0.3105 0.4455,-0.567 0.324,-0.2565 0.837,-0.4185 0.5265,-0.1755 1.323,-0.1755 0.3375,0 0.6885,0.1215 0.351,0.108 0.621,0.324 0.27,0.216 0.4455,0.513 0.1755,0.297 0.1755,0.675 0,0.4995 -0.243,0.783 -0.243,0.2835 -0.54,0.4455 -0.2835,0.162 -0.5265,0.243 -0.243,0.0675 -0.243,0.135 0.297,0.027 0.6075,0.108 0.324,0.081 0.594,0.243 0.27,0.162 0.4455,0.4185 0.1755,0.2565 0.1755,0.648 z"
       id="path14875" />
  </g>
  <g
     aria-label="4"
     id="text100"
     style="font-size: 13.5px; font-family: Maestro, Maestro; isolation: isolate"
     class="cls-1">
    <path
       d="m 170.04097,249.78831 v 0.891 q 0,0.2025 0.0945,0.3105 0.0945,0.108 0.216,0.162 0.1485,0.054 0.324,0.054 v 0.351 h -2.9295 v -0.351 q 0.1755,0 0.324,-0.054 0.1215,-0.0405 0.216,-0.1485 0.108,-0.0945 0.108,-0.297 v -0.918 h -2.4975 l -0.243,-0.2565 q 0.405,-0.5535 0.6885,-0.972 0.2835,-0.405 0.4725,-0.756 0.2025,-0.351 0.324,-0.648 0.1215,-0.3105 0.216,-0.6345 0.0945,-0.324 0.162,-0.702 0.081,-0.3915 0.1755,-0.891 h 2.3355 q -0.2025,0.3915 -0.6345,0.9315 -0.4185,0.5265 -0.945,1.134 -0.5265,0.594 -1.0935,1.2285 -0.567,0.621 -1.053,1.188 h 2.0925 v -1.6605 l 1.647,-1.809 v 3.4695 h 0.972 v 0.378 z"
       id="path14872" />
  </g>
  <g
     id="g6407"
     class="link-box">
    <path
       id="rect86"
       style="fill: #ffffff; stroke: #7d7d7d; stroke-width: 0.4px; stroke-miterlimit: 10"
       class="cls-11"
       d="m 172.62547,188.86331 h 237.30001 v 30.2 H 172.62547 Z" />
    <g
       aria-label="Sk2"
       id="text110"
       style="                 font-weight: 700;                 font-size: 12px;                 font-family: Arial-BoldMT, Arial;                 isolation: isolate;                 fill: #7d7d7d;             "
       class="cls-12">
      <path
         d="m 281.10947,205.46039 1.6875,-0.16406 q 0.15234,0.84961 0.61523,1.24804 0.46875,0.39844 1.25977,0.39844 0.83789,0 1.25976,-0.35156 0.42774,-0.35742 0.42774,-0.83203 0,-0.30469 -0.18164,-0.51563 -0.17579,-0.2168 -0.6211,-0.375 -0.30469,-0.10547 -1.38867,-0.375 -1.39453,-0.3457 -1.95703,-0.84961 -0.79102,-0.70898 -0.79102,-1.72851 0,-0.65625 0.36914,-1.22461 0.375,-0.57422 1.07227,-0.87305 0.70312,-0.29883 1.69336,-0.29883 1.61719,0 2.43164,0.70899 0.82031,0.70898 0.86133,1.89257 l -1.73438,0.0762 q -0.11133,-0.66211 -0.48047,-0.94922 -0.36328,-0.29297 -1.0957,-0.29297 -0.75586,0 -1.18359,0.31055 -0.27539,0.19921 -0.27539,0.5332 0,0.30469 0.25781,0.52148 0.32812,0.27539 1.59375,0.57422 1.26562,0.29883 1.86914,0.6211 0.60937,0.3164 0.94922,0.87304 0.3457,0.55078 0.3457,1.36524 0,0.73828 -0.41015,1.38281 -0.41016,0.64453 -1.16016,0.96094 -0.75,0.31054 -1.86914,0.31054 -1.62891,0 -2.50195,-0.75 -0.87305,-0.75586 -1.04297,-2.19726 z"
         id="path14861" />
      <path
         d="m 289.48251,208.25531 v -8.58984 h 1.64649 v 4.55859 l 1.92773,-2.19141 h 2.02735 l -2.12696,2.27344 2.2793,3.94922 h -1.77539 l -1.56445,-2.79492 -0.76758,0.80273 v 1.99219 z"
         id="path14863" />
      <path
         d="m 301.42392,206.72601 v 1.5293 h -5.77148 q 0.0937,-0.86719 0.5625,-1.64062 0.46875,-0.7793 1.85156,-2.0625 1.11328,-1.03711 1.36523,-1.40625 0.33985,-0.50977 0.33985,-1.00782 0,-0.55078 -0.29883,-0.84375 -0.29297,-0.29883 -0.81446,-0.29883 -0.51562,0 -0.82031,0.31055 -0.30469,0.31055 -0.35156,1.03125 l -1.64063,-0.16406 q 0.14649,-1.35938 0.91993,-1.95117 0.77343,-0.5918 1.93359,-0.5918 1.27148,0 1.99805,0.68555 0.72656,0.68554 0.72656,1.70508 0,0.58007 -0.21094,1.10742 -0.20508,0.52148 -0.65625,1.0957 -0.29883,0.38086 -1.07812,1.0957 -0.7793,0.71485 -0.99024,0.94922 -0.20508,0.23438 -0.33398,0.45703 z"
         id="path14865" />
    </g>
  </g>
  <g
     id="g6443"
     class="link-box">
    <path
       id="polygon92"
       style="fill: #ffffff; stroke: #7d7d7d; stroke-width: 0.4px; stroke-miterlimit: 10"
       class="cls-11"
       transform="translate(66.625483,70.963318)"
       d="m 803.5,190.4 h 130.1 v -31 H 804.5 v -41.5 h -266 v 30.2 h 170 v 83.3 h 95 z" />
    <g
       aria-label="Sk2.1"
       id="text112"
       style="                 font-weight: 700;                 font-size: 12px;                 font-family: Arial-BoldMT, Arial;                 isolation: isolate;                 fill: #7d7d7d;             "
       class="cls-12">
      <path
         d="m 788.17938,247.06039 1.6875,-0.16406 q 0.15235,0.84961 0.61524,1.24805 0.46875,0.39844 1.25976,0.39844 0.83789,0 1.25977,-0.35157 0.42773,-0.35742 0.42773,-0.83203 0,-0.30469 -0.18164,-0.51562 -0.17578,-0.2168 -0.62109,-0.375 -0.30469,-0.10547 -1.38867,-0.375 -1.39454,-0.34571 -1.95704,-0.84961 -0.79101,-0.70899 -0.79101,-1.72852 0,-0.65625 0.36914,-1.22461 0.375,-0.57422 1.07227,-0.87304 0.70312,-0.29883 1.69335,-0.29883 1.61719,0 2.43165,0.70898 0.82031,0.70899 0.86132,1.89258 l -1.73437,0.0762 q -0.11133,-0.66211 -0.48047,-0.94922 -0.36328,-0.29297 -1.0957,-0.29297 -0.75586,0 -1.1836,0.31055 -0.27539,0.19922 -0.27539,0.5332 0,0.30469 0.25781,0.52149 0.32813,0.27539 1.59375,0.57422 1.26563,0.29883 1.86915,0.62109 0.60937,0.31641 0.94921,0.87305 0.34571,0.55078 0.34571,1.36523 0,0.73828 -0.41016,1.38282 -0.41016,0.64453 -1.16016,0.96093 -0.75,0.31055 -1.86914,0.31055 -1.6289,0 -2.50195,-0.75 -0.87305,-0.75586 -1.04297,-2.19727 z"
         id="path14850" />
      <path
         d="m 796.55243,249.85532 v -8.58985 h 1.64648 v 4.5586 l 1.92774,-2.19141 h 2.02734 l -2.12695,2.27344 2.2793,3.94922 h -1.7754 l -1.56445,-2.79493 -0.76758,0.80274 v 1.99219 z"
         id="path14852" />
      <path
         d="m 808.49384,248.32602 v 1.5293 h -5.77149 q 0.0937,-0.86719 0.5625,-1.64063 0.46875,-0.7793 1.85156,-2.0625 1.11328,-1.03711 1.36524,-1.40625 0.33984,-0.50976 0.33984,-1.00781 0,-0.55078 -0.29883,-0.84375 -0.29297,-0.29883 -0.81445,-0.29883 -0.51562,0 -0.82031,0.31055 -0.30469,0.31054 -0.35156,1.03125 l -1.64063,-0.16407 q 0.14648,-1.35937 0.91992,-1.95117 0.77344,-0.59179 1.9336,-0.59179 1.27148,0 1.99804,0.68554 0.72657,0.68555 0.72657,1.70508 0,0.58008 -0.21094,1.10742 -0.20508,0.52149 -0.65625,1.09571 -0.29883,0.38086 -1.07813,1.0957 -0.77929,0.71484 -0.99023,0.94922 -0.20508,0.23437 -0.33399,0.45703 z"
         id="path14854" />
      <path
         d="m 809.95868,249.85532 v -1.64649 h 1.64648 v 1.64649 z"
         id="path14856" />
      <path
         d="m 817.15399,249.85532 h -1.64648 v -6.20508 q -0.90235,0.84375 -2.12696,1.24804 v -1.49414 q 0.64454,-0.21093 1.40039,-0.79687 0.75586,-0.5918 1.03711,-1.37695 h 1.33594 z"
         id="path14858" />
    </g>
  </g>
  <g
     id="g6490"
     class="link-box">
    <path
       id="rect90"
       style="fill: #ffffff; stroke: #7d7d7d; stroke-width: 0.4px; stroke-miterlimit: 10"
       class="cls-11"
       d="m 873.62549,188.86331 h 126.60001 v 30.2 H 873.62549 Z" />
    <g
       aria-label="Sk2.1.1"
       id="text114"
       style="                 font-weight: 700;                 font-size: 12px;                 font-family: Arial-BoldMT, Arial;                 isolation: isolate;                 fill: #7d7d7d;             "
       class="cls-12">
      <path
         d="m 917.42548,205.46039 1.6875,-0.16406 q 0.15234,0.84961 0.61523,1.24804 0.46875,0.39844 1.25977,0.39844 0.83789,0 1.25976,-0.35156 0.42774,-0.35742 0.42774,-0.83203 0,-0.30469 -0.18164,-0.51563 -0.17579,-0.2168 -0.6211,-0.375 -0.30469,-0.10547 -1.38867,-0.375 -1.39453,-0.3457 -1.95703,-0.84961 -0.79102,-0.70898 -0.79102,-1.72851 0,-0.65625 0.36914,-1.22461 0.375,-0.57422 1.07227,-0.87305 0.70312,-0.29883 1.69336,-0.29883 1.61719,0 2.43164,0.70899 0.82031,0.70898 0.86133,1.89257 l -1.73438,0.0762 q -0.11133,-0.66211 -0.48047,-0.94922 -0.36328,-0.29297 -1.0957,-0.29297 -0.75586,0 -1.18359,0.31055 -0.27539,0.19921 -0.27539,0.5332 0,0.30469 0.25781,0.52148 0.32812,0.27539 1.59375,0.57422 1.26562,0.29883 1.86914,0.6211 0.60937,0.3164 0.94922,0.87304 0.3457,0.55078 0.3457,1.36524 0,0.73828 -0.41016,1.38281 -0.41015,0.64453 -1.16015,0.96094 -0.75,0.31054 -1.86914,0.31054 -1.62891,0 -2.50196,-0.75 -0.87304,-0.75586 -1.04296,-2.19726 z"
         id="path14835" />
      <path
         d="m 925.79852,208.25531 v -8.58984 h 1.64649 v 4.55859 l 1.92773,-2.19141 h 2.02735 l -2.12696,2.27344 2.2793,3.94922 h -1.77539 l -1.56445,-2.79492 -0.76758,0.80273 v 1.99219 z"
         id="path14837" />
      <path
         d="m 937.73993,206.72601 v 1.5293 h -5.77149 q 0.0937,-0.86719 0.5625,-1.64062 0.46875,-0.7793 1.85157,-2.0625 1.11328,-1.03711 1.36523,-1.40625 0.33985,-0.50977 0.33985,-1.00782 0,-0.55078 -0.29883,-0.84375 -0.29297,-0.29883 -0.81446,-0.29883 -0.51562,0 -0.82031,0.31055 -0.30469,0.31055 -0.35156,1.03125 l -1.64063,-0.16406 q 0.14649,-1.35938 0.91993,-1.95117 0.77343,-0.5918 1.93359,-0.5918 1.27148,0 1.99805,0.68555 0.72656,0.68554 0.72656,1.70508 0,0.58007 -0.21094,1.10742 -0.20508,0.52148 -0.65625,1.0957 -0.29883,0.38086 -1.07812,1.0957 -0.7793,0.71485 -0.99024,0.94922 -0.20508,0.23438 -0.33398,0.45703 z"
         id="path14839" />
      <path
         d="m 939.20477,208.25531 v -1.64648 h 1.64649 v 1.64648 z"
         id="path14841" />
      <path
         d="m 946.40009,208.25531 h -1.64649 v -6.20508 q -0.90234,0.84375 -2.12695,1.24805 v -1.49414 q 0.64453,-0.21094 1.40039,-0.79688 0.75586,-0.59179 1.03711,-1.37695 h 1.33594 z"
         id="path14843" />
      <path
         d="m 949.21259,208.25531 v -1.64648 h 1.64648 v 1.64648 z"
         id="path14845" />
      <path
         d="m 956.4079,208.25531 h -1.64649 v -6.20508 q -0.90234,0.84375 -2.12695,1.24805 v -1.49414 q 0.64453,-0.21094 1.40039,-0.79688 0.75586,-0.59179 1.03711,-1.37695 h 1.33594 z"
         id="path14847" />
    </g>
  </g>
  <g
     id="g6479"
     class="link-box">
    <path
       id="rect96"
       style="fill:#ffffff;stroke:#7d7d7d;stroke-width:0.40000001px;stroke-miterlimit:10"
       class="cls-11"
       d="m 886.62549,296.86331 h 75 v 20.6 h -75 z"
       inkscape:connector-curvature="0" />
    <g
       aria-label="Sk2.1.3"
       id="text116"
       style="font-weight:700;font-size:12px;font-family:Arial-BoldMT, Arial;isolation:isolate;fill:#7d7d7d"
       class="cls-12">
      <path
         d="m 903.90771,308.66037 1.6875,-0.16406 q 0.15235,0.84961 0.61524,1.24804 0.46875,0.39844 1.25976,0.39844 0.8379,0 1.25977,-0.35156 0.42773,-0.35742 0.42773,-0.83203 0,-0.30469 -0.18164,-0.51563 -0.17578,-0.21679 -0.62109,-0.375 -0.30469,-0.10547 -1.38867,-0.375 -1.39453,-0.3457 -1.95703,-0.84961 -0.79102,-0.70898 -0.79102,-1.72851 0,-0.65625 0.36914,-1.22461 0.375,-0.57422 1.07227,-0.87305 0.70312,-0.29883 1.69336,-0.29883 1.61718,0 2.43164,0.70899 0.82031,0.70898 0.86133,1.89258 l -1.73438,0.0762 q -0.11133,-0.66211 -0.48047,-0.94922 -0.36328,-0.29297 -1.0957,-0.29297 -0.75586,0 -1.18359,0.31055 -0.2754,0.19922 -0.2754,0.5332 0,0.30469 0.25782,0.52148 0.32812,0.2754 1.59375,0.57422 1.26562,0.29883 1.86914,0.6211 0.60937,0.3164 0.94922,0.87304 0.3457,0.55079 0.3457,1.36524 0,0.73828 -0.41016,1.38281 -0.41015,0.64453 -1.16015,0.96094 -0.75,0.31055 -1.86914,0.31055 -1.62891,0 -2.50196,-0.75 -0.87304,-0.75586 -1.04297,-2.19727 z"
         id="path14820"
         inkscape:connector-curvature="0" />
      <path
         d="m 912.28076,311.45529 v -8.58984 h 1.64649 v 4.55859 l 1.92773,-2.1914 h 2.02734 l -2.12695,2.27343 2.2793,3.94922 h -1.77539 l -1.56446,-2.79492 -0.76757,0.80273 v 1.99219 z"
         id="path14822"
         inkscape:connector-curvature="0" />
      <path
         d="m 924.22217,309.92599 v 1.5293 h -5.77149 q 0.0937,-0.86719 0.5625,-1.64062 0.46875,-0.7793 1.85157,-2.0625 1.11328,-1.03711 1.36523,-1.40625 0.33984,-0.50977 0.33984,-1.00782 0,-0.55078 -0.29882,-0.84375 -0.29297,-0.29882 -0.81446,-0.29882 -0.51562,0 -0.82031,0.31054 -0.30469,0.31055 -0.35156,1.03125 l -1.64063,-0.16406 q 0.14649,-1.35937 0.91992,-1.95117 0.77344,-0.5918 1.9336,-0.5918 1.27148,0 1.99805,0.68555 0.72656,0.68555 0.72656,1.70508 0,0.58007 -0.21094,1.10742 -0.20508,0.52148 -0.65625,1.0957 -0.29883,0.38086 -1.07812,1.0957 -0.7793,0.71485 -0.99024,0.94922 -0.20508,0.23438 -0.33398,0.45703 z"
         id="path14824"
         inkscape:connector-curvature="0" />
      <path
         d="m 925.68701,311.45529 v -1.64648 h 1.64649 v 1.64648 z"
         id="path14826"
         inkscape:connector-curvature="0" />
      <path
         d="m 932.88232,311.45529 h -1.64648 v -6.20508 q -0.90234,0.84375 -2.12695,1.24805 v -1.49414 q 0.64453,-0.21094 1.40039,-0.79688 0.75586,-0.59179 1.03711,-1.37695 h 1.33593 z"
         id="path14828"
         inkscape:connector-curvature="0" />
      <path
         d="m 935.69482,311.45529 v -1.64648 h 1.64649 v 1.64648 z"
         id="path14830"
         inkscape:connector-curvature="0" />
      <path
         d="m 938.61865,309.17599 1.59375,-0.19335 q 0.0762,0.60937 0.41016,0.93164 0.33398,0.32226 0.80859,0.32226 0.50977,0 0.85547,-0.38672 0.35156,-0.38672 0.35156,-1.04297 0,-0.62109 -0.33398,-0.98437 -0.33399,-0.36328 -0.81445,-0.36328 -0.31641,0 -0.75586,0.12304 l 0.18164,-1.34179 q 0.66797,0.0176 1.01953,-0.28711 0.35156,-0.31055 0.35156,-0.82031 0,-0.4336 -0.25781,-0.69141 -0.25781,-0.25781 -0.68555,-0.25781 -0.42187,0 -0.7207,0.29297 -0.29883,0.29296 -0.36328,0.85546 l -1.51758,-0.25781 q 0.1582,-0.77929 0.47461,-1.24219 0.32226,-0.46875 0.89062,-0.73242 0.57422,-0.26953 1.28321,-0.26953 1.21289,0 1.94531,0.77344 0.60351,0.63281 0.60351,1.42969 0,1.13086 -1.23632,1.80468 0.73828,0.15821 1.17773,0.70899 0.44531,0.55078 0.44531,1.33008 0,1.13086 -0.82617,1.92773 -0.82617,0.79688 -2.05664,0.79688 -1.16601,0 -1.93359,-0.66797 -0.76758,-0.67383 -0.89063,-1.75782 z"
         id="path14832"
         inkscape:connector-curvature="0" />
    </g>
  </g>
  <g
     id="g6454"
     class="link-box">
    <path
       id="rect94"
       style="fill: #ffffff; stroke: #7d7d7d; stroke-width: 0.4px; stroke-miterlimit: 10"
       class="cls-11"
       d="m 619.3255,230.46332 h 141.3 v 30.2 h -141.3 z" />
    <g
       aria-label="Sk2.1.2"
       id="text118"
       style="                 font-weight: 700;                 font-size: 12px;                 font-family: Arial-BoldMT, Arial;                 isolation: isolate;                 fill: #7d7d7d;             "
       class="cls-12">
      <path
         d="m 669.8017,247.06039 1.6875,-0.16406 q 0.15234,0.84961 0.61523,1.24805 0.46875,0.39844 1.25977,0.39844 0.83789,0 1.25976,-0.35157 0.42774,-0.35742 0.42774,-0.83203 0,-0.30469 -0.18164,-0.51562 -0.17579,-0.2168 -0.6211,-0.375 -0.30469,-0.10547 -1.38867,-0.375 -1.39453,-0.34571 -1.95703,-0.84961 -0.79102,-0.70899 -0.79102,-1.72852 0,-0.65625 0.36914,-1.22461 0.375,-0.57422 1.07227,-0.87304 0.70312,-0.29883 1.69336,-0.29883 1.61719,0 2.43164,0.70898 0.82031,0.70899 0.86133,1.89258 l -1.73438,0.0762 q -0.11133,-0.66211 -0.48047,-0.94922 -0.36328,-0.29297 -1.0957,-0.29297 -0.75586,0 -1.18359,0.31055 -0.27539,0.19922 -0.27539,0.5332 0,0.30469 0.25781,0.52149 0.32812,0.27539 1.59375,0.57422 1.26562,0.29883 1.86914,0.62109 0.60937,0.31641 0.94922,0.87305 0.3457,0.55078 0.3457,1.36523 0,0.73828 -0.41015,1.38282 -0.41016,0.64453 -1.16016,0.96093 -0.75,0.31055 -1.86914,0.31055 -1.62891,0 -2.50195,-0.75 -0.87305,-0.75586 -1.04297,-2.19727 z"
         id="path14805" />
      <path
         d="m 678.17474,249.85532 v -8.58985 h 1.64649 v 4.5586 l 1.92773,-2.19141 h 2.02735 l -2.12696,2.27344 2.2793,3.94922 h -1.77539 l -1.56445,-2.79493 -0.76758,0.80274 v 1.99219 z"
         id="path14807" />
      <path
         d="m 690.11615,248.32602 v 1.5293 h -5.77148 q 0.0937,-0.86719 0.5625,-1.64063 0.46875,-0.7793 1.85156,-2.0625 1.11328,-1.03711 1.36523,-1.40625 0.33985,-0.50976 0.33985,-1.00781 0,-0.55078 -0.29883,-0.84375 -0.29297,-0.29883 -0.81446,-0.29883 -0.51562,0 -0.82031,0.31055 -0.30469,0.31054 -0.35156,1.03125 l -1.64063,-0.16407 q 0.14649,-1.35937 0.91993,-1.95117 0.77343,-0.59179 1.93359,-0.59179 1.27148,0 1.99805,0.68554 0.72656,0.68555 0.72656,1.70508 0,0.58008 -0.21094,1.10742 -0.20508,0.52149 -0.65625,1.09571 -0.29883,0.38086 -1.07812,1.0957 -0.7793,0.71484 -0.99024,0.94922 -0.20508,0.23437 -0.33398,0.45703 z"
         id="path14809" />
      <path
         d="m 691.58099,249.85532 v -1.64649 h 1.64649 v 1.64649 z"
         id="path14811" />
      <path
         d="m 698.77631,249.85532 h -1.64649 v -6.20508 q -0.90234,0.84375 -2.12695,1.24804 v -1.49414 q 0.64453,-0.21093 1.40039,-0.79687 0.75586,-0.5918 1.03711,-1.37695 h 1.33594 z"
         id="path14813" />
      <path
         d="m 701.58881,249.85532 v -1.64649 h 1.64648 v 1.64649 z"
         id="path14815" />
      <path
         d="m 710.13177,248.32602 v 1.5293 h -5.77148 q 0.0937,-0.86719 0.5625,-1.64063 0.46875,-0.7793 1.85156,-2.0625 1.11328,-1.03711 1.36524,-1.40625 0.33984,-0.50976 0.33984,-1.00781 0,-0.55078 -0.29883,-0.84375 -0.29297,-0.29883 -0.81445,-0.29883 -0.51563,0 -0.82031,0.31055 -0.30469,0.31054 -0.35157,1.03125 l -1.64062,-0.16407 q 0.14648,-1.35937 0.91992,-1.95117 0.77344,-0.59179 1.9336,-0.59179 1.27148,0 1.99804,0.68554 0.72656,0.68555 0.72656,1.70508 0,0.58008 -0.21093,1.10742 -0.20508,0.52149 -0.65625,1.09571 -0.29883,0.38086 -1.07813,1.0957 -0.77929,0.71484 -0.99023,0.94922 -0.20508,0.23437 -0.33399,0.45703 z"
         id="path14817" />
    </g>
  </g>
  <g
     id="g6468"
     class="link-box">
    <path
       id="rect106"
       style="fill: #ffffff; stroke: #7d7d7d; stroke-width: 0.4px; stroke-miterlimit: 10"
       class="cls-11"
       d="m 735.62549,310.86331 h 40.2 v 30.2 h -40.2 z" />
    <g
       aria-label="Sk2.1."
       id="text120"
       style="                 font-weight: 700;                 font-size: 12px;                 font-family: Arial-BoldMT, Arial;                 isolation: isolate;                 fill: #7d7d7d;             "
       class="cls-12">
      <path
         d="m 738.99695,319.75839 1.6875,-0.16406 q 0.15234,0.84961 0.61523,1.24805 0.46875,0.39843 1.25977,0.39843 0.83789,0 1.25976,-0.35156 0.42774,-0.35742 0.42774,-0.83203 0,-0.30469 -0.18164,-0.51562 -0.17578,-0.2168 -0.6211,-0.375 -0.30468,-0.10547 -1.38867,-0.375 -1.39453,-0.34571 -1.95703,-0.84961 -0.79101,-0.70899 -0.79101,-1.72852 0,-0.65625 0.36914,-1.22461 0.375,-0.57422 1.07226,-0.87305 0.70313,-0.29882 1.69336,-0.29882 1.61719,0 2.43164,0.70898 0.82031,0.70898 0.86133,1.89258 l -1.73438,0.0762 q -0.11132,-0.66211 -0.48046,-0.94922 -0.36329,-0.29297 -1.09571,-0.29297 -0.75586,0 -1.18359,0.31055 -0.27539,0.19922 -0.27539,0.5332 0,0.30469 0.25781,0.52149 0.32813,0.27539 1.59375,0.57422 1.26563,0.29882 1.86914,0.62109 0.60938,0.31641 0.94922,0.87305 0.3457,0.55078 0.3457,1.36523 0,0.73828 -0.41015,1.38281 -0.41016,0.64453 -1.16016,0.96094 -0.75,0.31055 -1.86914,0.31055 -1.62891,0 -2.50195,-0.75 -0.87305,-0.75586 -1.04297,-2.19727 z"
         id="path14792" />
      <path
         d="m 747.37,322.55331 v -8.58984 h 1.64648 v 4.55859 l 1.92773,-2.1914 h 2.02735 l -2.12696,2.27344 2.2793,3.94921 h -1.77539 l -1.56445,-2.79492 -0.76758,0.80274 v 1.99218 z"
         id="path14794" />
      <path
         d="m 759.3114,321.02402 v 1.52929 h -5.77148 q 0.0937,-0.86718 0.5625,-1.64062 0.46875,-0.7793 1.85156,-2.0625 1.11328,-1.03711 1.36523,-1.40625 0.33985,-0.50977 0.33985,-1.00781 0,-0.55078 -0.29883,-0.84375 -0.29297,-0.29883 -0.81445,-0.29883 -0.51563,0 -0.82032,0.31055 -0.30468,0.31054 -0.35156,1.03125 l -1.64062,-0.16407 q 0.14648,-1.35937 0.91992,-1.95117 0.77344,-0.5918 1.93359,-0.5918 1.27149,0 1.99805,0.68555 0.72656,0.68555 0.72656,1.70508 0,0.58008 -0.21094,1.10742 -0.20507,0.52149 -0.65625,1.0957 -0.29882,0.38086 -1.07812,1.09571 -0.7793,0.71484 -0.99024,0.94922 -0.20507,0.23437 -0.33398,0.45703 z"
         id="path14796" />
      <path
         d="m 760.77625,322.55331 v -1.64648 h 1.64648 v 1.64648 z"
         id="path14798" />
      <path
         d="m 767.97156,322.55331 h -1.64649 v -6.20507 q -0.90234,0.84375 -2.12695,1.24804 v -1.49414 q 0.64453,-0.21094 1.40039,-0.79687 0.75586,-0.5918 1.03711,-1.37696 h 1.33594 z"
         id="path14800" />
      <path
         d="m 770.78406,322.55331 v -1.64648 h 1.64648 v 1.64648 z"
         id="path14802" />
    </g>
    <g
       aria-label="2.1"
       id="text122"
       style="                 font-weight: 700;                 font-size: 12px;                 font-family: Arial-BoldMT, Arial;                 isolation: isolate;                 fill: #7d7d7d;             "
       class="cls-12">
      <path
         d="m 744.76843,335.42401 v 1.5293 h -5.77148 q 0.0937,-0.86719 0.5625,-1.64063 0.46875,-0.77929 1.85156,-2.0625 1.11328,-1.03711 1.36524,-1.40625 0.33984,-0.50976 0.33984,-1.00781 0,-0.55078 -0.29883,-0.84375 -0.29297,-0.29883 -0.81445,-0.29883 -0.51563,0 -0.82031,0.31055 -0.30469,0.31055 -0.35157,1.03125 l -1.64062,-0.16406 q 0.14648,-1.35938 0.91992,-1.95118 0.77344,-0.59179 1.93359,-0.59179 1.27149,0 1.99805,0.68554 0.72656,0.68555 0.72656,1.70508 0,0.58008 -0.21093,1.10742 -0.20508,0.52149 -0.65625,1.09571 -0.29883,0.38086 -1.07813,1.0957 -0.7793,0.71484 -0.99023,0.94922 -0.20508,0.23437 -0.33399,0.45703 z"
         id="path14785" />
      <path
         d="m 746.23328,336.95331 v -1.64649 h 1.64648 v 1.64649 z"
         id="path14787" />
      <path
         d="m 753.42859,336.95331 h -1.64649 v -6.20508 q -0.90234,0.84375 -2.12695,1.24805 v -1.49414 q 0.64453,-0.21094 1.40039,-0.79688 0.75586,-0.5918 1.03711,-1.37695 h 1.33594 z"
         id="path14789" />
    </g>
  </g>
  <g
     id="g6414"
     class="link-box">
    <path
       id="rect102"
       style="fill: #ffffff; stroke: #7d7d7d; stroke-width: 0.4px; stroke-miterlimit: 10"
       class="cls-11"
       d="M 236.92549,270.36331 H 605.1255 v 30.2 H 236.92549 Z" />
    <g
       aria-label="Sk3"
       id="text124"
       style="                 font-weight: 700;                 font-size: 12px;                 font-family: Arial-BoldMT, Arial;                 isolation: isolate;                 fill: #7d7d7d;             "
       class="cls-12">
      <path
         d="m 410.81555,286.96039 1.6875,-0.16406 q 0.15235,0.84961 0.61524,1.24804 0.46875,0.39844 1.25976,0.39844 0.83789,0 1.25977,-0.35156 0.42773,-0.35742 0.42773,-0.83203 0,-0.30469 -0.18164,-0.51563 -0.17578,-0.2168 -0.62109,-0.375 -0.30469,-0.10547 -1.38867,-0.375 -1.39454,-0.3457 -1.95704,-0.84961 -0.79101,-0.70898 -0.79101,-1.72851 0,-0.65625 0.36914,-1.22461 0.375,-0.57422 1.07226,-0.87305 0.70313,-0.29883 1.69336,-0.29883 1.61719,0 2.43164,0.70899 0.82032,0.70898 0.86133,1.89257 l -1.73437,0.0762 q -0.11133,-0.66211 -0.48047,-0.94922 -0.36328,-0.29297 -1.0957,-0.29297 -0.75586,0 -1.1836,0.31055 -0.27539,0.19921 -0.27539,0.5332 0,0.30469 0.25781,0.52148 0.32813,0.27539 1.59375,0.57422 1.26563,0.29883 1.86914,0.6211 0.60938,0.3164 0.94922,0.87304 0.34571,0.55078 0.34571,1.36524 0,0.73828 -0.41016,1.38281 -0.41016,0.64453 -1.16016,0.96094 -0.75,0.31054 -1.86914,0.31054 -1.6289,0 -2.50195,-0.75 -0.87305,-0.75586 -1.04297,-2.19726 z"
         id="path14778" />
      <path
         d="m 419.1886,289.75531 v -8.58984 h 1.64648 v 4.55859 l 1.92774,-2.19141 h 2.02734 l -2.12695,2.27344 2.27929,3.94922 h -1.77539 l -1.56445,-2.79492 -0.76758,0.80273 v 1.99219 z"
         id="path14780" />
      <path
         d="m 425.51086,287.47601 1.59375,-0.19336 q 0.0762,0.60938 0.41016,0.93164 0.33398,0.32227 0.80859,0.32227 0.50977,0 0.85547,-0.38672 0.35157,-0.38672 0.35157,-1.04297 0,-0.62109 -0.33399,-0.98437 -0.33398,-0.36328 -0.81445,-0.36328 -0.31641,0 -0.75586,0.12304 l 0.18164,-1.34179 q 0.66797,0.0176 1.01953,-0.28711 0.35156,-0.31055 0.35156,-0.82032 0,-0.43359 -0.25781,-0.6914 -0.25781,-0.25781 -0.68555,-0.25781 -0.42187,0 -0.7207,0.29296 -0.29883,0.29297 -0.36328,0.85547 l -1.51758,-0.25781 q 0.1582,-0.7793 0.47461,-1.24219 0.32227,-0.46875 0.89063,-0.73242 0.57421,-0.26953 1.2832,-0.26953 1.21289,0 1.94531,0.77344 0.60352,0.63281 0.60352,1.42969 0,1.13085 -1.23633,1.80468 0.73828,0.15821 1.17773,0.70899 0.44532,0.55078 0.44532,1.33008 0,1.13085 -0.82618,1.92773 -0.82617,0.79687 -2.05664,0.79687 -1.16601,0 -1.93359,-0.66796 -0.76758,-0.67383 -0.89063,-1.75782 z"
         id="path14782" />
    </g>
  </g>
  <g
     id="g6425"
     class="link-box">
    <path
       id="rect104"
       style="fill: #ffffff; stroke: #7d7d7d; stroke-width: 0.4px; stroke-miterlimit: 10"
       class="cls-11"
       d="m 179.42548,310.86331 h 199 v 30.2 h -199 z" />
    <g
       aria-label="Sk3.1.2"
       id="text126"
       style="                 font-weight: 700;                 font-size: 12px;                 font-family: Arial-BoldMT, Arial;                 isolation: isolate;                 fill: #7d7d7d;             "
       class="cls-12">
      <path
         d="m 258.75168,327.46039 1.6875,-0.16406 q 0.15234,0.84961 0.61523,1.24804 0.46875,0.39844 1.25977,0.39844 0.83789,0 1.25976,-0.35156 0.42774,-0.35742 0.42774,-0.83203 0,-0.30469 -0.18164,-0.51563 -0.17578,-0.2168 -0.6211,-0.375 -0.30468,-0.10547 -1.38867,-0.375 -1.39453,-0.3457 -1.95703,-0.84961 -0.79101,-0.70898 -0.79101,-1.72851 0,-0.65625 0.36914,-1.22461 0.375,-0.57422 1.07226,-0.87305 0.70313,-0.29883 1.69336,-0.29883 1.61719,0 2.43164,0.70899 0.82031,0.70898 0.86133,1.89257 l -1.73438,0.0762 q -0.11132,-0.66211 -0.48046,-0.94922 -0.36329,-0.29297 -1.09571,-0.29297 -0.75586,0 -1.18359,0.31055 -0.27539,0.19921 -0.27539,0.5332 0,0.30469 0.25781,0.52148 0.32813,0.27539 1.59375,0.57422 1.26563,0.29883 1.86914,0.6211 0.60938,0.3164 0.94922,0.87304 0.3457,0.55078 0.3457,1.36524 0,0.73828 -0.41015,1.38281 -0.41016,0.64453 -1.16016,0.96094 -0.75,0.31054 -1.86914,0.31054 -1.62891,0 -2.50195,-0.75 -0.87305,-0.75586 -1.04297,-2.19726 z"
         id="path14763" />
      <path
         d="m 267.12473,330.25531 v -8.58984 h 1.64648 v 4.55859 l 1.92773,-2.19141 h 2.02735 l -2.12696,2.27344 2.2793,3.94922 h -1.77539 l -1.56445,-2.79492 -0.76758,0.80273 v 1.99219 z"
         id="path14765" />
      <path
         d="m 273.44699,327.97601 1.59375,-0.19336 q 0.0762,0.60938 0.41016,0.93164 0.33398,0.32227 0.80859,0.32227 0.50977,0 0.85547,-0.38672 0.35156,-0.38672 0.35156,-1.04297 0,-0.62109 -0.33398,-0.98437 -0.33399,-0.36328 -0.81446,-0.36328 -0.3164,0 -0.75585,0.12304 l 0.18164,-1.34179 q 0.66796,0.0176 1.01953,-0.28711 0.35156,-0.31055 0.35156,-0.82032 0,-0.43359 -0.25781,-0.6914 -0.25782,-0.25781 -0.68555,-0.25781 -0.42187,0 -0.7207,0.29296 -0.29883,0.29297 -0.36328,0.85547 l -1.51758,-0.25781 q 0.1582,-0.7793 0.47461,-1.24219 0.32226,-0.46875 0.89062,-0.73242 0.57422,-0.26953 1.28321,-0.26953 1.21289,0 1.94531,0.77344 0.60351,0.63281 0.60351,1.42969 0,1.13085 -1.23632,1.80468 0.73828,0.15821 1.17773,0.70899 0.44531,0.55078 0.44531,1.33008 0,1.13085 -0.82617,1.92773 -0.82617,0.79687 -2.05664,0.79687 -1.16602,0 -1.93359,-0.66796 -0.76758,-0.67383 -0.89063,-1.75782 z"
         id="path14767" />
      <path
         d="m 280.53098,330.25531 v -1.64648 h 1.64648 v 1.64648 z"
         id="path14769" />
      <path
         d="m 287.72629,330.25531 h -1.64649 v -6.20508 q -0.90234,0.84375 -2.12695,1.24805 v -1.49414 q 0.64453,-0.21094 1.40039,-0.79688 0.75586,-0.59179 1.03711,-1.37695 h 1.33594 z"
         id="path14771" />
      <path
         d="m 290.53879,330.25531 v -1.64648 h 1.64648 v 1.64648 z"
         id="path14773" />
      <path
         d="m 299.08176,328.72601 v 1.5293 h -5.77149 q 0.0937,-0.86719 0.5625,-1.64062 0.46875,-0.7793 1.85156,-2.0625 1.11329,-1.03711 1.36524,-1.40625 0.33984,-0.50977 0.33984,-1.00782 0,-0.55078 -0.29883,-0.84375 -0.29296,-0.29883 -0.81445,-0.29883 -0.51562,0 -0.82031,0.31055 -0.30469,0.31055 -0.35156,1.03125 l -1.64063,-0.16406 q 0.14649,-1.35938 0.91992,-1.95117 0.77344,-0.5918 1.9336,-0.5918 1.27148,0 1.99804,0.68555 0.72657,0.68554 0.72657,1.70508 0,0.58007 -0.21094,1.10742 -0.20508,0.52148 -0.65625,1.0957 -0.29883,0.38086 -1.07813,1.0957 -0.77929,0.71485 -0.99023,0.94922 -0.20508,0.23438 -0.33398,0.45703 z"
         id="path14775" />
    </g>
  </g>
  <g
     id="g6434"
     class="link-box">
    <path
       id="polyline108"
       style="fill: #ffffff; stroke: #7d7d7d; stroke-width: 0.4px; stroke-miterlimit: 10"
       class="cls-11"
       transform="translate(66.625483,70.963318)"
       d="m 317.6,285.9 -0.1,-46 H 575 v -40.5 h 85 v 70.7 H 475 v 14.8" />
    <g
       aria-label="Sk3.1"
       id="text128"
       style="                 font-weight: 700;                 font-size: 12px;                 font-family: Arial-BoldMT, Arial;                 isolation: isolate;                 fill: #7d7d7d;             "
       class="cls-12">
      <path
         d="m 540.87921,327.46039 1.6875,-0.16406 q 0.15235,0.84961 0.61524,1.24804 0.46875,0.39844 1.25976,0.39844 0.83789,0 1.25977,-0.35156 0.42773,-0.35742 0.42773,-0.83203 0,-0.30469 -0.18164,-0.51563 -0.17578,-0.2168 -0.62109,-0.375 -0.30469,-0.10547 -1.38867,-0.375 -1.39454,-0.3457 -1.95704,-0.84961 -0.79101,-0.70898 -0.79101,-1.72851 0,-0.65625 0.36914,-1.22461 0.375,-0.57422 1.07226,-0.87305 0.70313,-0.29883 1.69336,-0.29883 1.61719,0 2.43164,0.70899 0.82032,0.70898 0.86133,1.89257 l -1.73437,0.0762 q -0.11133,-0.66211 -0.48047,-0.94922 -0.36328,-0.29297 -1.0957,-0.29297 -0.75586,0 -1.1836,0.31055 -0.27539,0.19921 -0.27539,0.5332 0,0.30469 0.25781,0.52148 0.32813,0.27539 1.59375,0.57422 1.26563,0.29883 1.86914,0.6211 0.60938,0.3164 0.94922,0.87304 0.34571,0.55078 0.34571,1.36524 0,0.73828 -0.41016,1.38281 -0.41016,0.64453 -1.16016,0.96094 -0.75,0.31054 -1.86914,0.31054 -1.6289,0 -2.50195,-0.75 -0.87305,-0.75586 -1.04297,-2.19726 z"
         id="path14752" />
      <path
         d="m 549.25226,330.25531 v -8.58984 h 1.64648 v 4.55859 l 1.92774,-2.19141 h 2.02734 l -2.12695,2.27344 2.27929,3.94922 h -1.77539 l -1.56445,-2.79492 -0.76758,0.80273 v 1.99219 z"
         id="path14754" />
      <path
         d="m 555.57452,327.97601 1.59375,-0.19336 q 0.0762,0.60938 0.41016,0.93164 0.33398,0.32227 0.80859,0.32227 0.50977,0 0.85547,-0.38672 0.35157,-0.38672 0.35157,-1.04297 0,-0.62109 -0.33399,-0.98437 -0.33398,-0.36328 -0.81445,-0.36328 -0.31641,0 -0.75586,0.12304 l 0.18164,-1.34179 q 0.66797,0.0176 1.01953,-0.28711 0.35156,-0.31055 0.35156,-0.82032 0,-0.43359 -0.25781,-0.6914 -0.25781,-0.25781 -0.68555,-0.25781 -0.42187,0 -0.7207,0.29296 -0.29883,0.29297 -0.36328,0.85547 l -1.51758,-0.25781 q 0.1582,-0.7793 0.47461,-1.24219 0.32227,-0.46875 0.89063,-0.73242 0.57421,-0.26953 1.2832,-0.26953 1.21289,0 1.94531,0.77344 0.60352,0.63281 0.60352,1.42969 0,1.13085 -1.23633,1.80468 0.73828,0.15821 1.17773,0.70899 0.44532,0.55078 0.44532,1.33008 0,1.13085 -0.82618,1.92773 -0.82617,0.79687 -2.05664,0.79687 -1.16601,0 -1.93359,-0.66796 -0.76758,-0.67383 -0.89063,-1.75782 z"
         id="path14756" />
      <path
         d="m 562.65851,330.25531 v -1.64648 h 1.64648 v 1.64648 z"
         id="path14758" />
      <path
         d="m 569.85382,330.25531 h -1.64648 v -6.20508 q -0.90235,0.84375 -2.12696,1.24805 v -1.49414 q 0.64453,-0.21094 1.40039,-0.79688 0.75586,-0.59179 1.03711,-1.37695 h 1.33594 z"
         id="path14760" />
    </g>
  </g>
  <g
     aria-label="‰"
     id="text132"
     style="font-size: 13.5px; font-family: Maestro, Maestro; isolation: isolate"
     class="cls-1">
    <path
       d="m 434.57747,201.55782 q 0.3645,-0.0945 0.6075,0.0405 0.243,0.135 0.3645,0.378 0.135,0.243 0.162,0.54 0.027,0.2835 -0.0405,0.486 0.216,-0.027 0.3915,-0.081 0.1755,-0.054 0.3645,-0.243 0.1755,-0.1755 0.2835,-0.324 0.1215,-0.1485 0.2835,-0.3375 l 0.189,0.108 -1.4985,5.6565 h -0.54 q 0.135,-0.4455 0.2835,-0.8775 0.1215,-0.351 0.243,-0.7425 0.1215,-0.378 0.216,-0.6075 0.216,-0.594 0.351,-1.0665 0.1485,-0.459 0.2295,-0.783 0.0945,-0.378 0.1485,-0.6615 -0.1215,0.0945 -0.3375,0.243 -0.2025,0.135 -0.4455,0.27 -0.243,0.135 -0.4995,0.243 -0.2565,0.0945 -0.4995,0.108 -0.5265,0.027 -0.8505,-0.2835 -0.3105,-0.3105 -0.3645,-0.7155 -0.054,-0.4185 0.1755,-0.81 0.2295,-0.405 0.783,-0.54 z"
       id="path14749" />
  </g>
  <path
     id="line134"
     style="fill: none; stroke: #000000; stroke-width: 0.4px"
     class="cls-2"
     d="m 453.92548,210.66331 v -11.3" />
  <g
     aria-label="œ"
     id="text136"
     style="font-size: 13.5px; font-family: Maestro, Maestro; isolation: isolate"
     class="cls-1">
    <path
       d="m 449.95349,211.19682 q 0.135,-0.3645 0.405,-0.675 0.2835,-0.3105 0.648,-0.54 0.3645,-0.243 0.783,-0.3645 0.4185,-0.135 0.8505,-0.135 0.432,0 0.756,0.1485 0.324,0.135 0.513,0.378 0.189,0.2295 0.2295,0.5535 0.054,0.3105 -0.081,0.675 -0.135,0.3645 -0.4185,0.675 -0.2835,0.324 -0.648,0.5535 -0.3645,0.243 -0.7965,0.3645 -0.4185,0.135 -0.837,0.135 -0.432,0 -0.756,-0.1485 -0.3105,-0.135 -0.513,-0.378 -0.189,-0.243 -0.2295,-0.567 -0.0405,-0.3105 0.0945,-0.675 z"
       id="path14745" />
  </g>
  <g
     aria-label="n"
     id="text138"
     style="font-size: 13.5px; font-family: Maestro, Maestro; isolation: isolate"
     class="cls-1">
    <path
       d="m 446.36947,210.34632 v 2.1195 l 1.539,-0.405 v -2.1195 z m 1.89,-1.809 v 7.7085 h -0.351 v -2.889 l -1.8765,0.486 v -7.803 h 0.3375 v 3.0105 z"
       id="path14742" />
  </g>
  <path
     id="line140"
     style="fill: none; stroke: #000000; stroke-width: 0.4px"
     class="cls-2"
     d="m 488.42548,207.26332 v -11.3" />
  <g
     aria-label="œ"
     id="text142"
     style="font-size: 13.5px; font-family: Maestro, Maestro; isolation: isolate"
     class="cls-1">
    <path
       d="m 484.40347,207.81681 q 0.135,-0.3645 0.405,-0.675 0.2835,-0.3105 0.648,-0.54 0.3645,-0.243 0.783,-0.3645 0.4185,-0.135 0.8505,-0.135 0.432,0 0.756,0.1485 0.324,0.135 0.513,0.378 0.189,0.2295 0.2295,0.5535 0.054,0.3105 -0.081,0.675 -0.135,0.3645 -0.4185,0.675 -0.2835,0.324 -0.648,0.5535 -0.3645,0.243 -0.7965,0.3645 -0.4185,0.135 -0.837,0.135 -0.432,0 -0.756,-0.1485 -0.3105,-0.135 -0.513,-0.378 -0.189,-0.243 -0.2295,-0.567 -0.0405,-0.3105 0.0945,-0.675 z"
       id="path14738" />
  </g>
  <g
     aria-label="n"
     id="text144"
     style="font-size: 13.5px; font-family: Maestro, Maestro; isolation: isolate"
     class="cls-1">
    <path
       d="m 480.82949,206.96631 v 2.1195 l 1.539,-0.405 v -2.1195 z m 1.89,-1.809 v 7.7085 h -0.351 v -2.889 l -1.8765,0.486 v -7.803 h 0.3375 v 3.0105 z"
       id="path14735" />
  </g>
  <g
     aria-label="J"
     id="text146"
     style="font-size: 13.5px; font-family: Maestro, Maestro; isolation: isolate"
     class="cls-1">
    <path
       d="m 522.53549,204.38781 q -0.0675,0.54 -0.27,1.1475 -0.2025,0.6075 -0.621,1.3095 -0.432,0.729 -0.8775,1.3905 -0.4455,0.675 -0.837,1.242 -0.3375,0.4725 -0.6345,1.0665 -0.2835,0.6075 -0.2835,1.1745 h -0.2565 v -3.591 h 0.2565 q 0.2025,-0.027 0.432,-0.0945 0.189,-0.054 0.432,-0.162 0.2565,-0.0945 0.513,-0.27 0.1755,-0.1215 0.3915,-0.3375 0.2295,-0.216 0.459,-0.5265 0.2295,-0.324 0.4455,-0.7425 0.2295,-0.4185 0.405,-0.9315 0.189,-0.567 0.2295,-0.999 0.0405,-0.432 0.027,-0.9855 0,-0.297 -0.0675,-0.621 -0.054,-0.3375 -0.1485,-0.648 -0.0945,-0.324 -0.2025,-0.6075 -0.108,-0.297 -0.2295,-0.513 l 0.1485,-0.0945 q 0.189,0.2835 0.3375,0.6885 0.162,0.3915 0.2565,0.8775 0.108,0.486 0.135,1.053 0.0405,0.567 -0.0405,1.1745 z"
       id="path14732" />
  </g>
  <path
     id="line148"
     style="fill: none; stroke: #000000; stroke-width: 0.4px"
     class="cls-2"
     d="m 518.92548,199.96332 v 11.19999" />
  <g
     aria-label="œ"
     id="text150"
     style="font-size: 13.5px; font-family: Maestro, Maestro; isolation: isolate"
     class="cls-1">
    <path
       d="m 518.86349,199.38682 q 0.135,-0.3645 0.405,-0.675 0.2835,-0.3105 0.648,-0.54 0.3645,-0.243 0.783,-0.3645 0.4185,-0.135 0.8505,-0.135 0.432,0 0.756,0.1485 0.324,0.135 0.513,0.378 0.189,0.2295 0.2295,0.5535 0.054,0.3105 -0.081,0.675 -0.135,0.3645 -0.4185,0.675 -0.2835,0.324 -0.648,0.5535 -0.3645,0.243 -0.7965,0.3645 -0.4185,0.135 -0.837,0.135 -0.432,0 -0.756,-0.1485 -0.3105,-0.135 -0.513,-0.378 -0.189,-0.243 -0.2295,-0.567 -0.0405,-0.3105 0.0945,-0.675 z"
       id="path14728" />
  </g>
  <g
     aria-label="b"
     id="text152"
     style="font-size: 13.5px; font-family: Maestro, Maestro; isolation: isolate"
     class="cls-1">
    <path
       d="m 515.16649,194.59432 v 2.3895 0.864 q 0.189,-0.1755 0.351,-0.2835 0.162,-0.108 0.3105,-0.162 0.1485,-0.0675 0.3105,-0.0945 0.1755,-0.027 0.3915,-0.027 0.2565,0 0.459,0.108 0.2025,0.108 0.351,0.2835 0.1485,0.1755 0.2295,0.3915 0.081,0.216 0.081,0.4185 0.0135,0.216 -0.0405,0.432 -0.054,0.2025 -0.135,0.378 -0.0945,0.2295 -0.297,0.405 -0.2025,0.1755 -0.3645,0.3375 -0.054,0.054 -0.2295,0.189 -0.1755,0.135 -0.405,0.297 -0.216,0.162 -0.459,0.324 -0.243,0.1755 -0.4455,0.3105 -0.2025,0.1485 -0.3375,0.243 -0.1215,0.108 -0.1215,0.108 v -7.9785 h 0.351 z m 1.0935,3.5505 q -0.0675,-0.081 -0.189,-0.135 -0.108,-0.054 -0.243,-0.054 -0.135,0 -0.27,0.081 -0.135,0.081 -0.243,0.2835 -0.135,0.2565 -0.1485,0.648 0,0.378 0,0.6885 v 1.161 q 0,0 0.081,-0.0675 0.081,-0.054 0.189,-0.162 0.1215,-0.0945 0.243,-0.216 0.135,-0.1215 0.243,-0.216 0.189,-0.1755 0.324,-0.378 0.135,-0.2025 0.2025,-0.513 0.081,-0.3105 0.0405,-0.6075 -0.0405,-0.297 -0.2295,-0.513 z"
       id="path14725" />
  </g>
  <path
     class="cls-8"
     d="m 539.12548,197.66332 v 13.5"
     id="path154"
     inkscape:connector-curvature="0"
     style="fill: none; stroke: #000000; stroke-width: 0.49000001px" />
  <path
     id="line156"
     style="fill: none; stroke: #000000; stroke-width: 0.4px"
     class="cls-2"
     d="m 549.02551,198.26332 v 11.2" />
  <g
     aria-label="œ"
     id="text158"
     style="font-size: 13.5px; font-family: Maestro, Maestro; isolation: isolate"
     class="cls-1">
    <path
       d="m 548.95352,197.69682 q 0.135,-0.3645 0.405,-0.675 0.2835,-0.3105 0.648,-0.54 0.3645,-0.243 0.783,-0.3645 0.4185,-0.135 0.8505,-0.135 0.432,0 0.756,0.1485 0.324,0.135 0.513,0.378 0.189,0.2295 0.2295,0.5535 0.054,0.3105 -0.081,0.675 -0.135,0.3645 -0.4185,0.675 -0.2835,0.324 -0.648,0.5535 -0.3645,0.243 -0.7965,0.3645 -0.4185,0.135 -0.837,0.135 -0.432,0 -0.756,-0.1485 -0.3105,-0.135 -0.513,-0.378 -0.189,-0.243 -0.2295,-0.567 -0.0405,-0.3105 0.0945,-0.675 z"
       id="path14721" />
  </g>
  <g
     aria-label="#"
     id="text160"
     style="font-size: 13.5px; font-family: Maestro, Maestro; isolation: isolate"
     class="cls-1">
    <path
       d="m 545.45747,196.84632 v 2.0115 l 1.323,-0.432 v -2.0115 z m -0.3915,-1.269 v -2.2005 h 0.3915 v 2.0655 l 1.323,-0.432 v -1.971 h 0.3915 v 1.8495 l 0.5265,-0.1755 v 1.404 l -0.5265,0.1755 v 1.998 l 0.5265,-0.162 v 1.3905 l -0.5265,0.1755 v 2.2005 h -0.3915 v -2.079 l -1.323,0.432 v 1.998 h -0.3915 v -1.863 l -0.5805,0.189 v -1.404 l 0.5805,-0.189 v -2.0115 l -0.5805,0.189 v -1.3905 z"
       id="path14718" />
  </g>
  <g
     id="g6494"
     class="tkk">
    <path
       class="cls-14"
       d="m 596.32548,191.06332 h 3.7"
       id="path162"
       inkscape:connector-curvature="0"
       style="fill: none; stroke: #000000; stroke-width: 0.38999999px" />
    <path
       class="cls-14"
       d="m 600.02548,191.06332 v 23.2"
       id="path164"
       inkscape:connector-curvature="0"
       style="fill: none; stroke: #000000; stroke-width: 0.38999999px" />
  </g>
  <g
     id="g989"
     class="supplied clef">
    <g
       aria-label="&amp;"
       id="text130"
       style="font-size: 10.13px; font-family: Maestro, Maestro; isolation: isolate; fill: #7d7d7d"
       class="cls-13">
      <path
         d="m 424.56607,210.35607 q -0.28364,0.0507 -0.6078,0.0608 -0.31403,0.0101 -0.61793,-0.0203 -0.3039,-0.0203 -0.56728,-0.0709 -0.25325,-0.0405 -0.41533,-0.12156 -0.78001,-0.37481 -1.26625,-0.80027 -0.47611,-0.41533 -0.73949,-0.87118 -0.26338,-0.45585 -0.37481,-0.93196 -0.1013,-0.48624 -0.13169,-0.97248 -0.0405,-0.52676 0.0912,-1.05352 0.14182,-0.52676 0.37481,-1.00287 0.24312,-0.48624 0.54702,-0.89144 0.31403,-0.4052 0.62806,-0.7091 0.36468,-0.34442 0.75975,-0.67871 0.4052,-0.34442 0.88131,-0.69897 -0.0101,-0.13169 -0.0304,-0.23299 -0.0101,-0.1013 -0.0304,-0.2026 -0.0203,-0.11143 -0.0506,-0.24312 -0.0203,-0.13169 -0.0304,-0.32416 0,-0.081 -0.0203,-0.29377 -0.0203,-0.22286 -0.0304,-0.52676 0,-0.31403 0.0203,-0.7091 0.0203,-0.39507 0.1013,-0.82053 0.0507,-0.25325 0.21273,-0.63819 0.17221,-0.39507 0.39507,-0.75975 0.23299,-0.36468 0.48624,-0.62806 0.25325,-0.26338 0.47611,-0.26338 0.11143,0 0.24312,0.14182 0.13169,0.13169 0.25325,0.36468 0.13169,0.22286 0.25325,0.51663 0.12156,0.28364 0.21273,0.58754 0.0912,0.3039 0.14182,0.59767 0.0608,0.29377 0.0709,0.51663 0.0101,0.52676 -0.0405,0.93196 -0.0507,0.39507 -0.15195,0.71923 -0.1013,0.31403 -0.24312,0.58754 -0.13169,0.26338 -0.28364,0.53689 -0.16208,0.27351 -0.33429,0.48624 -0.16208,0.2026 -0.33429,0.41533 -0.18234,0.22286 -0.38494,0.37481 -0.19247,0.14182 -0.38494,0.31403 0.0912,0.51663 0.16208,0.93196 0.0304,0.18234 0.0608,0.35455 0.0304,0.17221 0.0507,0.32416 0.0203,0.14182 0.0405,0.24312 0.0203,0.0912 0.0203,0.11143 0.24312,-0.0304 0.49637,0 0.26338,0.0203 0.49637,0.0709 0.24312,0.0506 0.42546,0.13169 0.19247,0.081 0.3039,0.15195 0.54702,0.4052 0.76988,0.93196 0.23299,0.51663 0.27351,1.06365 0.0304,0.42546 -0.0709,0.85092 -0.1013,0.43559 -0.34442,0.82053 -0.23299,0.39507 -0.61793,0.71923 -0.37481,0.32416 -0.89144,0.53689 0.0608,0.41533 0.11143,0.76988 0.0507,0.3039 0.0912,0.58754 0.0405,0.29377 0.0608,0.4052 0.0912,0.6078 0.0709,0.99274 -0.0203,0.39507 -0.15195,0.63819 -0.11143,0.2026 -0.26338,0.39507 -0.14182,0.19247 -0.34442,0.34442 -0.2026,0.15195 -0.47611,0.25325 -0.26338,0.1013 -0.6078,0.12156 -0.26338,0.0203 -0.62806,-0.0507 -0.36468,-0.0608 -0.69897,-0.23299 -0.33429,-0.16208 -0.57741,-0.44572 -0.24312,-0.28364 -0.27351,-0.69897 -0.0203,-0.24312 0.0304,-0.49637 0.0506,-0.24312 0.17221,-0.44572 0.13169,-0.19247 0.33429,-0.32416 0.21273,-0.13169 0.51663,-0.15195 0.18234,-0.0101 0.36468,0.0506 0.19247,0.0709 0.35455,0.19247 0.16208,0.12156 0.26338,0.3039 0.1013,0.18234 0.12156,0.39507 0.0304,0.37481 -0.23299,0.71923 -0.26338,0.35455 -0.89144,0.52676 0.1013,0.14182 0.38494,0.26338 0.28364,0.13169 0.7091,0.13169 0.44572,0 0.85092,-0.26338 0.41533,-0.26338 0.63819,-0.65845 0.14182,-0.26338 0.14182,-0.68884 0,-0.41533 -0.0506,-0.84079 -0.0203,-0.0709 -0.0608,-0.35455 -0.0405,-0.27351 -0.0912,-0.57741 -0.0507,-0.35455 -0.12156,-0.79014 z m 0.21273,-12.83471 q -0.39507,0 -0.69897,0.37481 -0.29377,0.36468 -0.48624,0.93196 -0.18234,0.56728 -0.24312,1.24599 -0.0608,0.67871 0.0304,1.30677 0.33429,-0.25325 0.69897,-0.6078 0.36468,-0.36468 0.65845,-0.76988 0.3039,-0.4052 0.48624,-0.82053 0.19247,-0.41533 0.16208,-0.79014 -0.0101,-0.12156 -0.0405,-0.27351 -0.0304,-0.15195 -0.1013,-0.28364 -0.0709,-0.13169 -0.18234,-0.22286 -0.11143,-0.0912 -0.28364,-0.0912 z m -0.0203,12.41938 q 0.43559,-0.15195 0.67871,-0.39507 0.24312,-0.24312 0.35455,-0.52676 0.12156,-0.28364 0.13169,-0.56728 0.0203,-0.28364 0.0101,-0.5065 -0.0203,-0.18234 -0.0912,-0.45585 -0.0608,-0.27351 -0.24312,-0.52676 -0.18234,-0.25325 -0.51663,-0.41533 -0.33429,-0.17221 -0.89144,-0.14182 z m -0.83066,-3.51511 q -0.41533,0.0203 -0.68884,0.17221 -0.26338,0.14182 -0.42546,0.35455 -0.15195,0.2026 -0.21273,0.43559 -0.0506,0.23299 -0.0405,0.41533 0.0101,0.18234 0.081,0.37481 0.0709,0.19247 0.18234,0.35455 0.12156,0.17221 0.25325,0.3039 0.14182,0.14182 0.28364,0.21273 -0.0203,0.0203 -0.0405,0.0304 -0.0101,0.0203 -0.0304,0.0405 -0.0203,0.0203 -0.0304,0.0405 -0.31403,-0.15195 -0.55715,-0.36468 -0.23299,-0.2026 -0.3039,-0.29377 -0.11143,-0.15195 -0.19247,-0.27351 -0.081,-0.12156 -0.13169,-0.26338 -0.0507,-0.13169 -0.0912,-0.29377 -0.0304,-0.16208 -0.0405,-0.38494 -0.0203,-0.21273 0.0304,-0.44572 0.0507,-0.24312 0.16208,-0.48624 0.12156,-0.24312 0.3039,-0.46598 0.19247,-0.23299 0.44572,-0.43559 0.13169,-0.1013 0.23299,-0.16208 0.11143,-0.0608 0.2026,-0.1013 0.0912,-0.0507 0.18234,-0.0709 0.1013,-0.0304 0.21273,-0.0608 l -0.3039,-1.83353 q -0.12156,0.0709 -0.39507,0.28364 -0.27351,0.21273 -0.59767,0.5065 -0.32416,0.29377 -0.64832,0.63819 -0.31403,0.33429 -0.51663,0.64832 -0.36468,0.57741 -0.56728,1.06365 -0.2026,0.48624 -0.15195,1.05352 0.0405,0.63819 0.38494,1.18521 0.35455,0.55715 0.90157,0.93196 0.54702,0.37481 1.24599,0.51663 0.69897,0.15195 1.44859,-0.0304 -0.16208,-1.00287 -0.29377,-1.79301 -0.0608,-0.33429 -0.11143,-0.65845 -0.0507,-0.32416 -0.1013,-0.57741 -0.0405,-0.25325 -0.0608,-0.4052 -0.0203,-0.16208 -0.0203,-0.16208 z"
         id="path14715" />
    </g>
    <path
       style="fill: none; stroke: #7d7d7d; stroke-width: 0.40000001px; stroke-opacity: 1"
       inkscape:connector-curvature="0"
       id="path166"
       d="m 420.32548,195.96332 h -1.4 v 19.1 h 1.4"
       class="cls-15" />
    <path
       style="fill: none; stroke: #7d7d7d; stroke-width: 0.40000001px; stroke-opacity: 1"
       inkscape:connector-curvature="0"
       id="path168"
       d="m 426.42548,195.96332 h 1.4 v 19.1 h -1.4"
       class="cls-15" />
  </g>
  <g
     aria-label="1"
     id="text170"
     style="             font-style: italic;             font-size: 6.75px;             font-family: Arial-ItalicMT, Arial;             isolation: isolate;             fill: #7d7d7d;         "
     class="cls-6 supplied measureN">
    <path
       d="m 428.76035,141.17213 0.76464,-3.64856 q -0.49438,0.38892 -1.39087,0.62293 l 0.11207,-0.54053 q 0.44494,-0.17798 0.8767,-0.46472 0.43506,-0.28674 0.65259,-0.50098 0.13184,-0.13183 0.25049,-0.3197 h 0.34607 l -1.01184,4.85156 z"
       id="path14712" />
  </g>
  <g
     aria-label="2"
     id="text172"
     style="             font-style: italic;             font-size: 6.75px;             font-family: Arial-ItalicMT, Arial;             isolation: isolate;             fill: #7d7d7d;         "
     class="cls-6 supplied measureN">
    <path
       d="m 538.85101,141.17213 q 0.0923,-0.43176 0.25379,-0.7218 0.16479,-0.29333 0.43506,-0.55371 0.27026,-0.26367 1.0415,-0.88 0.46802,-0.37244 0.6394,-0.55042 0.2472,-0.25708 0.35926,-0.50427 0.0758,-0.16809 0.0758,-0.36585 0,-0.33288 -0.2373,-0.56359 -0.23401,-0.23401 -0.57678,-0.23401 -0.33948,0 -0.59327,0.2373 -0.25378,0.23401 -0.36254,0.75476 l -0.58338,-0.0857 q 0.0857,-0.6427 0.49768,-1.01184 0.41529,-0.37244 1.03162,-0.37244 0.41199,0 0.74487,0.17139 0.33618,0.17139 0.50427,0.4812 0.16809,0.30981 0.16809,0.6394 0,0.48121 -0.34277,0.92615 -0.21094,0.27686 -1.23926,1.09094 -0.44165,0.34937 -0.65918,0.57349 -0.21423,0.22412 -0.32299,0.42188 h 2.1621 l -0.11535,0.54711 z"
       id="path14709" />
  </g>
</svg>
