<?xml version="1.0" encoding="UTF-8" standalone="no"?>
<svg
   id="Ebene_1"
   data-name="Ebene 1"
   viewBox="0 0 1152.8622 419.24447"
   version="1.1"
   sodipodi:docname="M317_Sk3_1_1_1von1_220715_path.svg"
   inkscape:version="1.2.2 (b0a8486541, 2022-12-01)"
   width="305.02814mm"
   height="110.92509mm"
   xmlns:inkscape="http://www.inkscape.org/namespaces/inkscape"
   xmlns:sodipodi="http://sodipodi.sourceforge.net/DTD/sodipodi-0.dtd"
   xmlns="http://www.w3.org/2000/svg"
   xmlns:svg="http://www.w3.org/2000/svg"
   xmlns:rdf="http://www.w3.org/1999/02/22-rdf-syntax-ns#"
   xmlns:cc="http://creativecommons.org/ns#"
   xmlns:dc="http://purl.org/dc/elements/1.1/">
  <metadata
     id="metadata141">
    <rdf:RDF>
      <cc:Work
         rdf:about="">
        <dc:format>image/svg+xml</dc:format>
        <dc:type
           rdf:resource="http://purl.org/dc/dcmitype/StillImage" />
      </cc:Work>
    </rdf:RDF>
  </metadata>
  <sodipodi:namedview
     pagecolor="#ffffff"
     bordercolor="#666666"
     borderopacity="1"
     objecttolerance="10"
     gridtolerance="10"
     guidetolerance="10"
     inkscape:pageopacity="0"
     inkscape:pageshadow="2"
     inkscape:window-width="2880"
     inkscape:window-height="1514"
     id="namedview139"
     showgrid="false"
     inkscape:zoom="2.947377"
     inkscape:cx="521.14134"
     inkscape:cy="246.32071"
     inkscape:window-x="2869"
     inkscape:window-y="-11"
     inkscape:window-maximized="1"
     inkscape:current-layer="Ebene_1"
     inkscape:document-units="mm"
     units="mm"
     fit-margin-left="25"
     fit-margin-top="20"
     fit-margin-right="40"
     fit-margin-bottom="40"
     inkscape:showpageshadow="2"
     inkscape:pagecheckerboard="0"
     inkscape:deskcolor="#d1d1d1" />
  <defs
     id="defs4">
    <style
       id="style2">.cls-1,.cls-11,.cls-12,.cls-6,.cls-9{fill:none;}.cls-1,.cls-10,.cls-12,.cls-6,.cls-9{stroke:#000;}.cls-1,.cls-10,.cls-12{stroke-width:0.4px;}.cls-13,.cls-2,.cls-4,.cls-5,.cls-7,.cls-8{isolation:isolate;}.cls-2,.cls-3,.cls-7{font-size:6.75px;}.cls-2,.cls-3{font-family:Arial-ItalicMT, Arial;font-style:italic;}.cls-3{letter-spacing:0em;}.cls-4{font-size:10.13px;}.cls-13,.cls-4,.cls-5{font-family:Maestro, Maestro;}.cls-5{font-size:13.5px;}.cls-6{stroke-width:0.56px;}.cls-7{font-family:TimesNewRomanPSMT, Times New Roman;}.cls-8{font-size:12px;font-family:Arial-BoldMT, Arial;font-weight:700;}.cls-9{stroke-width:0.4px;}.cls-10{fill:#fff;}.cls-10,.cls-12{stroke-miterlimit:10;}.cls-13{font-size:10px;}</style>
  </defs>
  <path
     id="line8"
     style="fill:none;stroke:#000000;stroke-width:0.4px"
     class="cls-1"
     d="m 634.28113,238.16333 v 13.5" />
  <path
     id="line10"
     style="fill:none;stroke:#000000;stroke-width:0.4px"
     class="cls-1"
     d="M 151.18111,197.66333 H 1001.6812" />
  <path
     id="line12"
     style="fill:none;stroke:#000000;stroke-width:0.4px"
     class="cls-1"
     d="M 151.18111,201.06334 H 1001.6812" />
  <path
     id="line14"
     style="fill:none;stroke:#000000;stroke-width:0.4px"
     class="cls-1"
     d="M 151.18111,204.46333 H 1001.6812" />
  <path
     id="line16"
     style="fill:none;stroke:#000000;stroke-width:0.4px"
     class="cls-1"
     d="M 151.18111,207.76334 H 1001.6812" />
  <path
     id="line18"
     style="fill:none;stroke:#000000;stroke-width:0.4px"
     class="cls-1"
     d="M 151.18111,211.16333 H 1001.6812" />
  <path
     id="line20"
     style="fill:none;stroke:#000000;stroke-width:0.4px"
     class="cls-1"
     d="M 151.18111,238.16333 H 1001.6812" />
  <path
     id="line22"
     style="fill:none;stroke:#000000;stroke-width:0.4px"
     class="cls-1"
     d="M 151.18111,241.56334 H 1001.6812" />
  <path
     id="line24"
     style="fill:none;stroke:#000000;stroke-width:0.4px"
     class="cls-1"
     d="M 151.18111,244.96333 H 1001.6812" />
  <path
     id="line26"
     style="fill:none;stroke:#000000;stroke-width:0.4px"
     class="cls-1"
     d="M 151.18111,248.26334 H 1001.6812" />
  <path
     id="line28"
     style="fill:none;stroke:#000000;stroke-width:0.4px"
     class="cls-1"
     d="M 151.18111,251.66333 H 1001.6812" />
  <g
     aria-label="A Bl. 38v"
     id="text30"
     style="font-style:italic;font-size:6.75px;font-family:Arial-ItalicMT, Arial;isolation:isolate;fill:#7d7d7d"
     class="cls-2">
    <path
       d="m 97.635773,140.01857 h -1.914917 l -0.580078,1.06787 h -1.021729 l 2.7323,-4.83179 h 1.104126 l 0.784424,4.83179 h -0.942627 z m -0.121949,-0.8042 -0.280151,-1.94458 -1.166748,1.94458 z"
       style="font-weight:bold;-inkscape-font-specification:'Arial-ItalicMT, Arial, Bold Italic'"
       id="path21117" />
    <path
       d="m 101.23819,141.08644 1.01184,-4.83179 h 1.49634 q 0.40869,0 0.60644,0.033 0.323,0.056 0.54383,0.19776 0.22412,0.13842 0.34607,0.38232 0.12194,0.2406 0.12194,0.53394 0,0.3988 -0.22082,0.70202 -0.21753,0.30323 -0.66907,0.46143 0.39221,0.12854 0.58667,0.38891 0.19446,0.25708 0.19446,0.60315 0,0.39881 -0.23071,0.76465 -0.22742,0.36585 -0.60645,0.5669 -0.37573,0.19775 -0.84045,0.19775 z m 1.22607,-2.76855 h 0.97889 q 0.70202,0 1.00854,-0.22412 0.30982,-0.22413 0.30982,-0.65259 0,-0.20435 -0.0956,-0.35266 -0.0956,-0.14832 -0.25708,-0.21424 -0.1582,-0.0692 -0.59985,-0.0692 h -1.02832 z m -0.46472,2.22143 h 1.10083 q 0.43836,0 0.58997,-0.0297 0.30652,-0.0527 0.49768,-0.17798 0.19116,-0.12854 0.29993,-0.33618 0.10876,-0.20764 0.10876,-0.43506 0,-0.33948 -0.21423,-0.51416 -0.21094,-0.17798 -0.8075,-0.17798 h -1.22607 z"
       id="path21119" />
    <path
       d="m 105.62503,141.08644 1.00855,-4.83179 h 0.59655 l -1.00854,4.83179 z"
       id="path21121" />
    <path
       d="m 107.3356,141.08644 0.14173,-0.67566 h 0.67565 l -0.14501,0.67566 z"
       id="path21123" />
    <path
       d="m 111.06656,139.82082 0.58008,-0.0725 q 0.0659,0.50756 0.29004,0.72839 0.22741,0.21753 0.59326,0.21753 0.44165,0 0.76135,-0.31641 0.323,-0.3164 0.323,-0.72509 0,-0.35596 -0.2406,-0.58667 -0.2406,-0.23401 -0.646,-0.23401 -0.0461,0 -0.19116,0.0132 l 0.10217,-0.49768 q 0.0857,0.0132 0.1648,0.0132 0.51086,0 0.78442,-0.24719 0.27686,-0.25049 0.27686,-0.61304 0,-0.33288 -0.22742,-0.5603 -0.22412,-0.22742 -0.55042,-0.22742 -0.3197,0 -0.57678,0.23401 -0.25378,0.23072 -0.32629,0.65589 l -0.58667,-0.11866 q 0.14502,-0.59655 0.55701,-0.92285 0.41198,-0.32629 0.97558,-0.32629 0.59326,0 0.95911,0.35925 0.36914,0.35925 0.36914,0.8833 0,0.38233 -0.20105,0.66907 -0.19776,0.28345 -0.59656,0.47131 0.28345,0.16809 0.42188,0.4054 0.14172,0.2373 0.14172,0.54382 0,0.64929 -0.48779,1.1272 -0.4845,0.47461 -1.16016,0.47461 -0.65588,0 -1.06128,-0.36585 -0.4021,-0.36914 -0.44824,-0.98217 z"
       id="path21125" />
    <path
       d="m 115.97415,138.42995 q -0.27026,-0.14832 -0.40539,-0.37903 -0.13514,-0.23401 -0.13514,-0.50098 0,-0.43835 0.31641,-0.81079 0.42188,-0.50427 1.14368,-0.50427 0.63611,0 1.00195,0.34277 0.36585,0.33948 0.36585,0.83386 0,0.35267 -0.19776,0.63611 -0.19775,0.28345 -0.61963,0.45154 0.29004,0.18128 0.41529,0.38562 0.16149,0.26697 0.16149,0.62293 0,0.64929 -0.46142,1.15686 -0.45813,0.50756 -1.22278,0.50756 -0.60974,0 -0.99536,-0.37573 -0.38562,-0.37573 -0.38562,-0.93933 0,-0.53064 0.27356,-0.90967 0.27356,-0.38232 0.74487,-0.51745 z m 0.0461,-0.85364 q 0,0.30981 0.19776,0.50098 0.20105,0.18786 0.55041,0.18786 0.40869,0 0.66248,-0.24719 0.25708,-0.25049 0.25708,-0.61304 0,-0.30652 -0.20105,-0.49768 -0.19775,-0.19446 -0.54712,-0.19446 -0.26367,0 -0.4845,0.12195 -0.22082,0.12195 -0.32959,0.33289 -0.10547,0.20764 -0.10547,0.40869 z m -0.46472,2.3302 q 0,0.20105 0.0956,0.38562 0.0989,0.18457 0.29663,0.29333 0.19776,0.10877 0.45154,0.10877 0.4845,0 0.78443,-0.45483 0.2373,-0.35596 0.2373,-0.76795 0,-0.33618 -0.22082,-0.55041 -0.21753,-0.21424 -0.57349,-0.21424 -0.44824,0 -0.76135,0.33289 -0.30982,0.33288 -0.30982,0.86682 z"
       id="path21127" />
    <path
       d="m 118.9253,138.38644 -0.37277,-2.27516 h 0.37705 l 0.19496,1.25327 q 0.0321,0.20566 0.0793,0.67055 0.1114,-0.24209 0.28493,-0.55487 l 0.76053,-1.36895 h 0.40919 l -1.30254,2.27516 z"
       style="font-size:65%;baseline-shift:super"
       id="path21129" />
  </g>
  <g
     aria-label="5"
     id="text34"
     style="font-style:italic;font-size:6.75px;font-family:Arial-ItalicMT, Arial;isolation:isolate;fill:#7d7d7d"
     class="cls-2">
    <path
       d="m 94.491486,206.42235 0.606445,-0.0593 q -0.0066,0.12854 -0.0066,0.15491 0,0.21753 0.108765,0.43835 0.11206,0.22083 0.299927,0.33948 0.191162,0.11536 0.402099,0.11536 0.276856,0 0.563599,-0.19116 0.286743,-0.19117 0.464721,-0.55701 0.177979,-0.36585 0.177979,-0.7251 0,-0.40539 -0.240601,-0.64929 -0.237304,-0.2439 -0.62622,-0.2439 -0.260376,0 -0.494385,0.12525 -0.230713,0.12524 -0.431763,0.37573 l -0.520752,-0.0363 0.728394,-2.47192 h 2.359863 l -0.115356,0.54712 h -1.835816 l -0.362549,1.22937 q 0.204346,-0.14832 0.418579,-0.22083 0.21753,-0.0758 0.444947,-0.0758 0.553711,0 0.909668,0.36584 0.355957,0.36585 0.355957,1.00196 0,0.557 -0.243897,1.02832 -0.243896,0.46801 -0.672363,0.7218 -0.425171,0.25049 -0.919556,0.25049 -0.415283,0 -0.734985,-0.18787 -0.319702,-0.18787 -0.481201,-0.51746 -0.158203,-0.32959 -0.158203,-0.65918 0,-0.0329 0.0033,-0.0989 z"
       id="path21114" />
  </g>
  <g
     aria-label="6"
     id="text36"
     style="font-style:italic;font-size:6.75px;font-family:Arial-ItalicMT, Arial;isolation:isolate;fill:#7d7d7d"
     class="cls-2">
    <path
       d="m 95.282501,245.50182 q 0.250489,-0.20765 0.497681,-0.30982 0.250488,-0.10547 0.494385,-0.10547 0.550415,0 0.909668,0.37574 0.359253,0.37573 0.359253,1.01184 0,0.82067 -0.533936,1.40734 -0.461426,0.50428 -1.120605,0.50428 -0.599854,0 -1.001954,-0.43836 -0.398803,-0.44165 -0.398803,-1.25573 0,-0.7284 0.25708,-1.50623 0.197754,-0.59656 0.487793,-0.98218 0.293335,-0.38891 0.619629,-0.57019 0.329589,-0.18127 0.741577,-0.18127 0.494385,0 0.807495,0.30981 0.31311,0.30652 0.355957,0.88001 l -0.553711,0.0527 q -0.04614,-0.39221 -0.224121,-0.56689 -0.174683,-0.17469 -0.428467,-0.17469 -0.266968,0 -0.537231,0.20765 -0.270264,0.20764 -0.464722,0.61633 -0.194458,0.40539 -0.266968,0.7251 z m -0.207641,1.4436 q 0,0.40869 0.253784,0.68884 0.253784,0.27686 0.573486,0.27686 0.224121,0 0.47461,-0.16809 0.250488,-0.17139 0.42517,-0.51746 0.174683,-0.34607 0.174683,-0.68884 0,-0.44165 -0.243896,-0.70532 -0.240601,-0.26697 -0.583374,-0.26697 -0.395508,0 -0.734986,0.38891 -0.339477,0.38562 -0.339477,0.99207 z"
       id="path21111" />
  </g>
  <g
     aria-label="œ"
     id="text42"
     style="font-size:13.5px;font-family:Maestro, Maestro;isolation:isolate"
     class="cls-5">
    <path
       d="m 554.07913,204.44683 q 0.135,-0.3645 0.405,-0.675 0.2835,-0.3105 0.648,-0.54 0.3645,-0.243 0.783,-0.3645 0.4185,-0.135 0.8505,-0.135 0.432,0 0.756,0.1485 0.324,0.135 0.513,0.378 0.189,0.2295 0.2295,0.5535 0.054,0.3105 -0.081,0.675 -0.135,0.3645 -0.4185,0.675 -0.2835,0.324 -0.648,0.5535 -0.3645,0.243 -0.7965,0.3645 -0.4185,0.135 -0.837,0.135 -0.432,0 -0.756,-0.1485 -0.3105,-0.135 -0.513,-0.378 -0.189,-0.243 -0.2295,-0.567 -0.0405,-0.3105 0.0945,-0.675 z"
       id="path21108" />
  </g>
  <g
     aria-label="n"
     id="text44"
     style="font-size:13.5px;font-family:Maestro, Maestro;isolation:isolate"
     class="cls-5">
    <path
       d="m 550.49514,203.59633 v 2.1195 l 1.539,-0.405 v -2.1195 z m 1.89,-1.809 v 7.7085 h -0.351 v -2.889 l -1.8765,0.486 v -7.803 h 0.3375 v 3.0105 z"
       id="path21105" />
  </g>
  <path
     id="line46"
     style="fill:none;stroke:#000000;stroke-width:0.4px"
     class="cls-1"
     d="m 558.08112,203.86333 v -10.4" />
  <g
     aria-label="œ"
     id="text48"
     style="font-size:13.5px;font-family:Maestro, Maestro;isolation:isolate"
     class="cls-5">
    <path
       d="m 567.43912,204.44683 q 0.135,-0.3645 0.405,-0.675 0.2835,-0.3105 0.648,-0.54 0.3645,-0.243 0.783,-0.3645 0.4185,-0.135 0.8505,-0.135 0.432,0 0.756,0.1485 0.324,0.135 0.513,0.378 0.189,0.2295 0.2295,0.5535 0.054,0.3105 -0.081,0.675 -0.135,0.3645 -0.4185,0.675 -0.2835,0.324 -0.648,0.5535 -0.3645,0.243 -0.7965,0.3645 -0.4185,0.135 -0.837,0.135 -0.432,0 -0.756,-0.1485 -0.3105,-0.135 -0.513,-0.378 -0.189,-0.243 -0.2295,-0.567 -0.0405,-0.3105 0.0945,-0.675 z"
       id="path21101" />
  </g>
  <g
     aria-label="b"
     id="text50"
     style="font-size:13.5px;font-family:Maestro, Maestro;isolation:isolate"
     class="cls-5">
    <path
       d="m 563.74211,199.65433 v 2.3895 0.864 q 0.189,-0.1755 0.351,-0.2835 0.162,-0.108 0.3105,-0.162 0.1485,-0.0675 0.3105,-0.0945 0.1755,-0.027 0.3915,-0.027 0.2565,0 0.459,0.108 0.2025,0.108 0.351,0.2835 0.1485,0.1755 0.2295,0.3915 0.081,0.216 0.081,0.4185 0.0135,0.216 -0.0405,0.432 -0.054,0.2025 -0.135,0.378 -0.0945,0.2295 -0.297,0.405 -0.2025,0.1755 -0.3645,0.3375 -0.054,0.054 -0.2295,0.189 -0.1755,0.135 -0.405,0.297 -0.216,0.162 -0.459,0.324 -0.243,0.1755 -0.4455,0.3105 -0.2025,0.1485 -0.3375,0.243 -0.1215,0.108 -0.1215,0.108 v -7.9785 h 0.351 z m 1.0935,3.5505 q -0.0675,-0.081 -0.189,-0.135 -0.108,-0.054 -0.243,-0.054 -0.135,0 -0.27,0.081 -0.135,0.081 -0.243,0.2835 -0.135,0.2565 -0.1485,0.648 0,0.378 0,0.6885 v 1.161 q 0,0 0.081,-0.0675 0.081,-0.054 0.189,-0.162 0.1215,-0.0945 0.243,-0.216 0.135,-0.1215 0.243,-0.216 0.189,-0.1755 0.324,-0.378 0.135,-0.2025 0.2025,-0.513 0.081,-0.3105 0.0405,-0.6075 -0.0405,-0.297 -0.2295,-0.513 z"
       id="path21098" />
  </g>
  <path
     id="line52"
     style="fill:none;stroke:#000000;stroke-width:0.4px"
     class="cls-1"
     d="m 571.48114,203.86333 v -10.4" />
  <path
     d="m 557.88111,192.66334 h 13.8 v 1.7 h -13.8 z"
     id="path54"
     inkscape:connector-curvature="0" />
  <g
     aria-label="œ"
     id="text56"
     style="font-size:13.5px;font-family:Maestro, Maestro;isolation:isolate"
     class="cls-5">
    <path
       d="m 580.7991,202.75683 q 0.135,-0.3645 0.405,-0.675 0.2835,-0.3105 0.648,-0.54 0.3645,-0.243 0.783,-0.3645 0.4185,-0.135 0.8505,-0.135 0.432,0 0.756,0.1485 0.324,0.135 0.513,0.378 0.189,0.2295 0.2295,0.5535 0.054,0.3105 -0.081,0.675 -0.135,0.3645 -0.4185,0.675 -0.2835,0.324 -0.648,0.5535 -0.3645,0.243 -0.7965,0.3645 -0.4185,0.135 -0.837,0.135 -0.432,0 -0.756,-0.1485 -0.3105,-0.135 -0.513,-0.378 -0.189,-0.243 -0.2295,-0.567 -0.0405,-0.3105 0.0945,-0.675 z"
       id="path21094" />
  </g>
  <g
     aria-label="n"
     id="text58"
     style="font-size:13.5px;font-family:Maestro, Maestro;isolation:isolate"
     class="cls-5">
    <path
       d="m 577.21511,201.90633 v 2.1195 l 1.539,-0.405 v -2.1195 z m 1.89,-1.809 v 7.7085 h -0.351 v -2.889 l -1.8765,0.486 v -7.803 h 0.3375 v 3.0105 z"
       id="path21091" />
  </g>
  <path
     id="line60"
     style="fill:none;stroke:#000000;stroke-width:0.56px"
     class="cls-6"
     d="m 553.08112,255.06334 h 6.09997" />
  <g
     aria-label="œ"
     id="text62"
     style="font-size:13.5px;font-family:Maestro, Maestro;isolation:isolate"
     class="cls-5">
    <path
       d="m 554.07913,256.75685 q 0.135,-0.3645 0.405,-0.675 0.2835,-0.3105 0.648,-0.54 0.3645,-0.243 0.783,-0.3645 0.4185,-0.135 0.8505,-0.135 0.432,0 0.756,0.1485 0.324,0.135 0.513,0.378 0.189,0.2295 0.2295,0.5535 0.054,0.3105 -0.081,0.675 -0.135,0.3645 -0.4185,0.675 -0.2835,0.324 -0.648,0.5535 -0.3645,0.243 -0.7965,0.3645 -0.4185,0.135 -0.837,0.135 -0.432,0 -0.756,-0.1485 -0.3105,-0.135 -0.513,-0.378 -0.189,-0.243 -0.2295,-0.567 -0.0405,-0.3105 0.0945,-0.675 z"
       id="path21087" />
  </g>
  <g
     aria-label="n"
     id="text64"
     style="font-size:13.5px;font-family:Maestro, Maestro;isolation:isolate"
     class="cls-5">
    <path
       d="m 550.49514,255.90635 v 2.1195 l 1.539,-0.405 v -2.1195 z m 1.89,-1.809 v 7.7085 h -0.351 v -2.889 l -1.8765,0.486 v -7.803 h 0.3375 v 3.0105 z"
       id="path21084" />
  </g>
  <path
     id="line66"
     style="fill:none;stroke:#000000;stroke-width:0.4px"
     class="cls-1"
     d="m 558.08112,256.16333 v -20.5" />
  <g
     aria-label="œ"
     id="text68"
     style="font-size:13.5px;font-family:Maestro, Maestro;isolation:isolate"
     class="cls-5">
    <path
       d="m 567.43912,244.94683 q 0.135,-0.3645 0.405,-0.675 0.2835,-0.3105 0.648,-0.54 0.3645,-0.243 0.783,-0.3645 0.4185,-0.135 0.8505,-0.135 0.432,0 0.756,0.1485 0.324,0.135 0.513,0.378 0.189,0.2295 0.2295,0.5535 0.054,0.3105 -0.081,0.675 -0.135,0.3645 -0.4185,0.675 -0.2835,0.324 -0.648,0.5535 -0.3645,0.243 -0.7965,0.3645 -0.4185,0.135 -0.837,0.135 -0.432,0 -0.756,-0.1485 -0.3105,-0.135 -0.513,-0.378 -0.189,-0.243 -0.2295,-0.567 -0.0405,-0.3105 0.0945,-0.675 z"
       id="path21080" />
  </g>
  <g
     aria-label="b"
     id="text70"
     style="font-size:13.5px;font-family:Maestro, Maestro;isolation:isolate"
     class="cls-5">
    <path
       d="m 563.74211,240.15433 v 2.3895 0.864 q 0.189,-0.1755 0.351,-0.2835 0.162,-0.108 0.3105,-0.162 0.1485,-0.0675 0.3105,-0.0945 0.1755,-0.027 0.3915,-0.027 0.2565,0 0.459,0.108 0.2025,0.108 0.351,0.2835 0.1485,0.1755 0.2295,0.3915 0.081,0.216 0.081,0.4185 0.0135,0.216 -0.0405,0.432 -0.054,0.2025 -0.135,0.378 -0.0945,0.2295 -0.297,0.405 -0.2025,0.1755 -0.3645,0.3375 -0.054,0.054 -0.2295,0.189 -0.1755,0.135 -0.405,0.297 -0.216,0.162 -0.459,0.324 -0.243,0.1755 -0.4455,0.3105 -0.2025,0.1485 -0.3375,0.243 -0.1215,0.108 -0.1215,0.108 v -7.9785 h 0.351 z m 1.0935,3.5505 q -0.0675,-0.081 -0.189,-0.135 -0.108,-0.054 -0.243,-0.054 -0.135,0 -0.27,0.081 -0.135,0.081 -0.243,0.2835 -0.135,0.2565 -0.1485,0.648 0,0.378 0,0.6885 v 1.161 q 0,0 0.081,-0.0675 0.081,-0.054 0.189,-0.162 0.1215,-0.0945 0.243,-0.216 0.135,-0.1215 0.243,-0.216 0.189,-0.1755 0.324,-0.378 0.135,-0.2025 0.2025,-0.513 0.081,-0.3105 0.0405,-0.6075 -0.0405,-0.297 -0.2295,-0.513 z"
       id="path21077" />
  </g>
  <path
     id="line72"
     style="fill:none;stroke:#000000;stroke-width:0.4px"
     class="cls-1"
     d="m 571.48114,244.36333 v -10.4" />
  <path
     d="m 557.88111,234.76334 13.8,-1.7 v 1.7 l -13.8,1.7 z"
     id="path74"
     inkscape:connector-curvature="0" />
  <g
     aria-label="."
     id="text76"
     style="font-size:13.5px;font-family:Maestro, Maestro;isolation:isolate"
     class="cls-5">
    <path
       d="m 586.58964,233.13334 q 0,-0.2835 0.2025,-0.4725 0.2025,-0.2025 0.4995,-0.2025 0.297,0 0.4995,0.2025 0.2025,0.189 0.2025,0.4725 0,0.2835 -0.2025,0.486 -0.2025,0.2025 -0.4995,0.2025 -0.297,0 -0.4995,-0.2025 -0.2025,-0.2025 -0.2025,-0.486 z"
       id="path21073" />
  </g>
  <path
     id="line78"
     style="fill:none;stroke:#000000;stroke-width:0.4px"
     class="cls-1"
     d="m 580.8811,235.36333 v 11.3" />
  <path
     id="line80"
     style="fill:none;stroke:#000000;stroke-width:0.56px"
     class="cls-6"
     d="m 579.8811,234.76334 h 6" />
  <g
     aria-label="œ"
     id="text82"
     style="font-size:13.5px;font-family:Maestro, Maestro;isolation:isolate"
     class="cls-5">
    <path
       d="m 580.7991,234.81683 q 0.135,-0.3645 0.405,-0.675 0.2835,-0.3105 0.648,-0.54 0.3645,-0.243 0.783,-0.3645 0.4185,-0.135 0.8505,-0.135 0.432,0 0.756,0.1485 0.324,0.135 0.513,0.378 0.189,0.2295 0.2295,0.5535 0.054,0.3105 -0.081,0.675 -0.135,0.3645 -0.4185,0.675 -0.2835,0.324 -0.648,0.5535 -0.3645,0.243 -0.7965,0.3645 -0.4185,0.135 -0.837,0.135 -0.432,0 -0.756,-0.1485 -0.3105,-0.135 -0.513,-0.378 -0.189,-0.243 -0.2295,-0.567 -0.0405,-0.3105 0.0945,-0.675 z"
       id="path21068" />
  </g>
  <g
     aria-label="n"
     id="text84"
     style="font-size:13.5px;font-family:Maestro, Maestro;isolation:isolate"
     class="cls-5">
    <path
       d="m 577.21511,233.96633 v 2.1195 l 1.539,-0.405 v -2.1195 z m 1.89,-1.809 v 7.7085 h -0.351 v -2.889 l -1.8765,0.486 v -7.803 h 0.3375 v 3.0105 z"
       id="path21065" />
  </g>
  <g
     aria-label="J"
     id="text86"
     style="font-size:13.5px;font-family:Maestro, Maestro;isolation:isolate"
     class="cls-5">
    <path
       d="m 624.54111,248.26783 q -0.0675,0.54 -0.27,1.1475 -0.2025,0.6075 -0.621,1.3095 -0.432,0.729 -0.8775,1.3905 -0.4455,0.675 -0.837,1.242 -0.3375,0.4725 -0.6345,1.0665 -0.2835,0.6075 -0.2835,1.1745 h -0.2565 v -3.591 h 0.2565 q 0.2025,-0.027 0.432,-0.0945 0.189,-0.054 0.432,-0.162 0.2565,-0.0945 0.513,-0.27 0.1755,-0.1215 0.3915,-0.3375 0.2295,-0.216 0.459,-0.5265 0.2295,-0.324 0.4455,-0.7425 0.2295,-0.4185 0.405,-0.9315 0.189,-0.567 0.2295,-0.999 0.0405,-0.432 0.027,-0.9855 0,-0.297 -0.0675,-0.621 -0.054,-0.3375 -0.1485,-0.648 -0.0945,-0.324 -0.2025,-0.6075 -0.108,-0.297 -0.2295,-0.513 l 0.1485,-0.0945 q 0.189,0.2835 0.3375,0.6885 0.162,0.3915 0.2565,0.8775 0.108,0.486 0.135,1.053 0.0405,0.567 -0.0405,1.1745 z"
       id="path21062" />
  </g>
  <path
     id="line88"
     style="fill:none;stroke:#000000;stroke-width:0.4px"
     class="cls-1"
     d="m 620.98114,243.76334 v 11.3" />
  <g
     aria-label="œ"
     id="text90"
     style="font-size:13.5px;font-family:Maestro, Maestro;isolation:isolate"
     class="cls-5">
    <path
       d="m 620.86911,243.25683 q 0.135,-0.3645 0.405,-0.675 0.2835,-0.3105 0.648,-0.54 0.3645,-0.243 0.783,-0.3645 0.4185,-0.135 0.8505,-0.135 0.432,0 0.756,0.1485 0.324,0.135 0.513,0.378 0.189,0.2295 0.2295,0.5535 0.054,0.3105 -0.081,0.675 -0.135,0.3645 -0.4185,0.675 -0.2835,0.324 -0.648,0.5535 -0.3645,0.243 -0.7965,0.3645 -0.4185,0.135 -0.837,0.135 -0.432,0 -0.756,-0.1485 -0.3105,-0.135 -0.513,-0.378 -0.189,-0.243 -0.2295,-0.567 -0.0405,-0.3105 0.0945,-0.675 z"
       id="path21058" />
  </g>
  <g
     aria-label="n"
     id="text92"
     style="font-size:13.5px;font-family:Maestro, Maestro;isolation:isolate"
     class="cls-5">
    <path
       d="m 617.29513,242.40633 v 2.1195 l 1.539,-0.405 v -2.1195 z m 1.89,-1.809 v 7.7085 h -0.351 v -2.889 l -1.8765,0.486 v -7.803 h 0.3375 v 3.0105 z"
       id="path21055" />
  </g>
  <g
     aria-label="4"
     id="text94"
     style="font-style:italic;font-size:6.75px;font-family:Arial-ItalicMT, Arial;isolation:isolate;fill:#7d7d7d"
     class="cls-2">
    <path
       d="m 585.79822,141.17213 0.26037,-1.23266 h -1.97094 l 0.12524,-0.58997 2.70593,-3.00915 h 0.4878 l -0.6427,3.07177 h 0.67895 l -0.10876,0.52735 h -0.67896 l -0.26037,1.23266 z m 0.36914,-1.76001 0.42187,-2.01709 -1.79956,2.01709 z"
       id="path21052" />
  </g>
  <g
     aria-label="oder"
     id="text96"
     style="font-size:6.75px;font-family:TimesNewRomanPSMT, 'Times New Roman';isolation:isolate"
     class="cls-7">
    <path
       d="m 555.51862,218.62531 q 0.68554,0 1.10083,0.52075 0.35266,0.44494 0.35266,1.02173 0,0.40539 -0.19446,0.82067 -0.19446,0.41529 -0.53723,0.62623 -0.33948,0.21093 -0.75806,0.21093 -0.68225,0 -1.08435,-0.54382 -0.33948,-0.45813 -0.33948,-1.02832 0,-0.41528 0.20435,-0.82398 0.20764,-0.41198 0.54382,-0.60644 0.33618,-0.19775 0.71192,-0.19775 z m -0.10218,0.21423 q -0.17468,0 -0.35266,0.10547 -0.17468,0.10217 -0.28345,0.36255 -0.10876,0.26037 -0.10876,0.66906 0,0.65918 0.26038,1.13709 0.26367,0.4779 0.69213,0.4779 0.31971,0 0.52735,-0.26367 0.20764,-0.26367 0.20764,-0.90637 0,-0.8042 -0.34607,-1.26563 -0.23401,-0.3164 -0.59656,-0.3164 z"
       id="path21043" />
    <path
       d="m 559.5495,221.39386 q -0.22083,0.23071 -0.43176,0.33289 -0.21094,0.0989 -0.45484,0.0989 -0.49438,0 -0.86352,-0.41198 -0.36914,-0.41529 -0.36914,-1.06458 0,-0.64929 0.40869,-1.18652 0.40869,-0.54053 1.05139,-0.54053 0.3988,0 0.65918,0.25378 v -0.557 q 0,-0.51746 -0.0264,-0.63611 -0.0231,-0.11865 -0.0758,-0.1615 -0.0527,-0.0428 -0.13184,-0.0428 -0.0857,0 -0.22742,0.0527 l -0.0428,-0.11536 0.89978,-0.36914 h 0.14831 v 3.49036 q 0,0.53064 0.0231,0.64929 0.0264,0.11535 0.0791,0.1615 0.056,0.0461 0.12854,0.0461 0.089,0 0.2373,-0.056 l 0.0363,0.11536 -0.89649,0.37243 h -0.15161 z m 0,-0.23071 v -1.55567 q -0.0198,-0.22412 -0.11865,-0.40869 -0.0989,-0.18457 -0.26367,-0.27685 -0.1615,-0.0956 -0.31641,-0.0956 -0.29004,0 -0.51746,0.26038 -0.29992,0.34277 -0.29992,1.00195 0,0.66578 0.29004,1.02173 0.29003,0.35266 0.64599,0.35266 0.29993,0 0.58008,-0.29992 z"
       id="path21045" />
    <path
       d="m 561.29962,219.85138 q -0.003,0.67236 0.3263,1.05469 0.32959,0.38232 0.77453,0.38232 0.29663,0 0.51416,-0.1615 0.22083,-0.16479 0.36914,-0.5603 l 0.10218,0.0659 q -0.0692,0.45154 -0.4021,0.82397 -0.33289,0.36914 -0.83387,0.36914 -0.54382,0 -0.93274,-0.42187 -0.38562,-0.42517 -0.38562,-1.14038 0,-0.77454 0.39551,-1.2063 0.39881,-0.43506 0.99866,-0.43506 0.50757,0 0.83386,0.33618 0.3263,0.33289 0.3263,0.89319 z m 0,-0.19116 h 1.39746 q -0.0165,-0.29004 -0.0692,-0.40869 -0.0824,-0.18457 -0.24719,-0.29004 -0.1615,-0.10547 -0.33948,-0.10547 -0.27356,0 -0.49109,0.21423 -0.21423,0.21094 -0.25049,0.58997 z"
       id="path21047" />
    <path
       d="m 564.67133,218.62531 v 0.67895 q 0.37902,-0.67895 0.77783,-0.67895 0.18127,0 0.29992,0.11206 0.11866,0.10876 0.11866,0.25378 0,0.12854 -0.0857,0.21753 -0.0857,0.089 -0.20434,0.089 -0.11536,0 -0.26038,-0.11206 -0.14172,-0.11536 -0.21094,-0.11536 -0.0593,0 -0.12854,0.0659 -0.14831,0.13513 -0.30651,0.44495 v 1.4469 q 0,0.25048 0.0626,0.37902 0.0428,0.089 0.15161,0.14832 0.10876,0.0593 0.31311,0.0593 v 0.11865 h -1.54578 v -0.11865 q 0.23072,0 0.34278,-0.0725 0.0824,-0.0527 0.11535,-0.1681 0.0165,-0.056 0.0165,-0.3197 v -1.17004 q 0,-0.52735 -0.0231,-0.62622 -0.0198,-0.10218 -0.0791,-0.14832 -0.056,-0.0461 -0.14172,-0.0461 -0.10218,0 -0.23072,0.0494 l -0.033,-0.11865 0.91297,-0.36914 z"
       id="path21049" />
  </g>
  <g
     aria-label="#"
     id="text102"
     style="font-size:13.5px;font-family:Maestro, Maestro;isolation:isolate"
     class="cls-5">
    <path
       d="m 640.02309,235.65633 v 2.0115 l 1.323,-0.432 v -2.0115 z m -0.3915,-1.269 v -2.2005 h 0.3915 v 2.0655 l 1.323,-0.432 v -1.971 h 0.3915 v 1.8495 l 0.5265,-0.1755 v 1.404 l -0.5265,0.1755 v 1.998 l 0.5265,-0.162 v 1.3905 l -0.5265,0.1755 v 2.2005 h -0.3915 v -2.079 l -1.323,0.432 v 1.998 h -0.3915 v -1.863 l -0.5805,0.189 v -1.404 l 0.5805,-0.189 v -2.0115 l -0.5805,0.189 v -1.3905 z"
       id="path21036" />
  </g>
  <g
     aria-label="5"
     id="text104"
     style="font-style:italic;font-size:6.75px;font-family:Arial-ItalicMT, Arial;isolation:isolate;fill:#7d7d7d"
     class="cls-2">
    <path
       d="m 634.59241,139.70876 0.60644,-0.0593 q -0.007,0.12854 -0.007,0.15491 0,0.21753 0.10877,0.43835 0.11206,0.22083 0.29992,0.33948 0.19116,0.11536 0.4021,0.11536 0.27686,0 0.5636,-0.19117 0.28674,-0.19116 0.46472,-0.557 0.17798,-0.36585 0.17798,-0.7251 0,-0.4054 -0.2406,-0.64929 -0.2373,-0.2439 -0.62622,-0.2439 -0.26038,0 -0.49439,0.12524 -0.23071,0.12525 -0.43176,0.37574 l -0.52075,-0.0363 0.72839,-2.47192 h 2.35987 l -0.11536,0.54712 h -1.83582 l -0.36254,1.22937 q 0.20434,-0.14832 0.41858,-0.22083 0.21752,-0.0758 0.44494,-0.0758 0.55371,0 0.90967,0.36584 0.35596,0.36585 0.35596,1.00195 0,0.55701 -0.2439,1.02832 -0.2439,0.46802 -0.67236,0.72181 -0.42517,0.25048 -0.91956,0.25048 -0.41528,0 -0.73498,-0.18786 -0.31971,-0.18787 -0.48121,-0.51746 -0.1582,-0.32959 -0.1582,-0.65918 0,-0.033 0.003,-0.0989 z"
       id="path21033" />
  </g>
  <g
     aria-label="M 317 Sk3.1.1"
     id="text106"
     style="font-weight:700;font-size:12px;font-family:Arial-BoldMT, Arial;isolation:isolate"
     class="cls-8">
    <path
       d="m 94.48819,84.326881 v -8.589843 h 2.595703 l 1.558594,5.859375 1.541013,-5.859375 h 2.60156 v 8.589843 h -1.61132 v -6.761718 l -1.705082,6.761718 h -1.669921 l -1.699219,-6.761718 v 6.761718 z"
       id="path21010" />
    <path
       d="m 107.41983,82.047585 1.59375,-0.19336 q 0.0762,0.609375 0.41016,0.931641 0.33398,0.322265 0.80859,0.322265 0.50977,0 0.85547,-0.386718 0.35156,-0.386719 0.35156,-1.042969 0,-0.621094 -0.33398,-0.984375 -0.33399,-0.363281 -0.81446,-0.363281 -0.3164,0 -0.75586,0.123047 l 0.18165,-1.341797 q 0.66796,0.01758 1.01953,-0.28711 0.35156,-0.310547 0.35156,-0.820312 0,-0.433594 -0.25781,-0.691406 -0.25782,-0.257813 -0.68555,-0.257813 -0.42188,0 -0.7207,0.292969 -0.29883,0.292969 -0.36328,0.855469 l -1.51758,-0.257813 q 0.1582,-0.779297 0.47461,-1.242187 0.32226,-0.46875 0.89062,-0.732422 0.57422,-0.269532 1.2832,-0.269532 1.2129,0 1.94532,0.773438 0.60351,0.632812 0.60351,1.429687 0,1.13086 -1.23633,1.804688 0.73829,0.158203 1.17774,0.708984 0.44531,0.550782 0.44531,1.330078 0,1.13086 -0.82617,1.927735 -0.82617,0.796875 -2.05664,0.796875 -1.16602,0 -1.93359,-0.667969 -0.76758,-0.673828 -0.89063,-1.757812 z"
       id="path21012" />
    <path
       d="m 118.36514,84.326881 h -1.64648 v -6.205078 q -0.90235,0.84375 -2.12695,1.248047 v -1.49414 q 0.64453,-0.210938 1.40039,-0.796875 0.75586,-0.591797 1.03711,-1.376954 h 1.33593 z"
       id="path21014" />
    <path
       d="m 120.82608,77.383522 v -1.529297 h 5.63086 v 1.195313 q -0.69727,0.685547 -1.41797,1.96875 -0.7207,1.283203 -1.10156,2.730468 -0.375,1.441407 -0.36914,2.578125 h -1.58789 q 0.041,-1.78125 0.73242,-3.632812 0.69726,-1.851563 1.85742,-3.310547 z"
       id="path21016" />
    <path
       d="m 130.75772,81.53196 1.6875,-0.164063 q 0.15234,0.849609 0.61524,1.248047 0.46875,0.398437 1.25976,0.398437 0.83789,0 1.25977,-0.351562 0.42773,-0.357422 0.42773,-0.832031 0,-0.304688 -0.18164,-0.515625 -0.17578,-0.216797 -0.62109,-0.375 -0.30469,-0.105469 -1.38868,-0.375 -1.39453,-0.345703 -1.95703,-0.84961 -0.79101,-0.708984 -0.79101,-1.728515 0,-0.65625 0.36914,-1.22461 0.375,-0.574218 1.07226,-0.873047 0.70313,-0.298828 1.69336,-0.298828 1.61719,0 2.43164,0.708985 0.82032,0.708984 0.86133,1.892578 l -1.73437,0.07617 q -0.11133,-0.66211 -0.48047,-0.949219 -0.36328,-0.292969 -1.0957,-0.292969 -0.75586,0 -1.1836,0.310547 -0.27539,0.199219 -0.27539,0.533203 0,0.304688 0.25781,0.521485 0.32813,0.27539 1.59375,0.574218 1.26563,0.298828 1.86914,0.621094 0.60938,0.316406 0.94922,0.873047 0.34571,0.550781 0.34571,1.365234 0,0.738282 -0.41016,1.382813 -0.41016,0.644531 -1.16016,0.960937 -0.75,0.310547 -1.86914,0.310547 -1.6289,0 -2.50195,-0.75 -0.87305,-0.755859 -1.04297,-2.197265 z"
       id="path21018" />
    <path
       d="m 139.13077,84.326881 v -8.589843 h 1.64648 v 4.558593 l 1.92774,-2.191406 h 2.02734 l -2.12695,2.273438 2.27929,3.949218 h -1.77539 l -1.56445,-2.794921 -0.76758,0.802734 v 1.992187 z"
       id="path21020" />
    <path
       d="m 145.45303,82.047585 1.59375,-0.19336 q 0.0762,0.609375 0.41016,0.931641 0.33398,0.322265 0.80859,0.322265 0.50977,0 0.85547,-0.386718 0.35156,-0.386719 0.35156,-1.042969 0,-0.621094 -0.33398,-0.984375 -0.33398,-0.363281 -0.81445,-0.363281 -0.31641,0 -0.75586,0.123047 l 0.18164,-1.341797 q 0.66797,0.01758 1.01953,-0.28711 0.35156,-0.310547 0.35156,-0.820312 0,-0.433594 -0.25781,-0.691406 -0.25781,-0.257813 -0.68555,-0.257813 -0.42187,0 -0.7207,0.292969 -0.29883,0.292969 -0.36328,0.855469 l -1.51758,-0.257813 q 0.1582,-0.779297 0.47461,-1.242187 0.32227,-0.46875 0.89062,-0.732422 0.57422,-0.269532 1.28321,-0.269532 1.21289,0 1.94531,0.773438 0.60352,0.632812 0.60352,1.429687 0,1.13086 -1.23633,1.804688 0.73828,0.158203 1.17773,0.708984 0.44531,0.550782 0.44531,1.330078 0,1.13086 -0.82617,1.927735 -0.82617,0.796875 -2.05664,0.796875 -1.16601,0 -1.93359,-0.667969 -0.76758,-0.673828 -0.89063,-1.757812 z"
       id="path21022" />
    <path
       d="m 152.53702,84.326881 v -1.646484 h 1.64648 v 1.646484 z"
       id="path21024" />
    <path
       d="m 159.73233,84.326881 h -1.64648 v -6.205078 q -0.90235,0.84375 -2.12696,1.248047 v -1.49414 q 0.64453,-0.210938 1.40039,-0.796875 0.75586,-0.591797 1.03711,-1.376954 h 1.33594 z"
       id="path21026" />
    <path
       d="m 162.54483,84.326881 v -1.646484 h 1.64648 v 1.646484 z"
       id="path21028" />
    <path
       d="m 169.74014,84.326881 h -1.64648 v -6.205078 q -0.90235,0.84375 -2.12695,1.248047 v -1.49414 q 0.64453,-0.210938 1.40039,-0.796875 0.75586,-0.591797 1.03711,-1.376954 h 1.33593 z"
       id="path21030" />
  </g>
  <g
     id="g441"
     class="link-box">
    <path
       id="polyline116"
       style="fill:#ffffff;stroke:#7d7d7d;stroke-width:0.4px;stroke-miterlimit:10"
       class="cls-10"
       transform="translate(66.281101,70.963337)"
       d="m 326.3,97.56 v 50.84 h 128 v -39.3 h 199 v -8.7" />
    <g
       aria-label="Sk3.1"
       id="text118"
       style="font-weight:700;font-size:12px;font-family:Arial-BoldMT, Arial;isolation:isolate;fill:#7d7d7d"
       class="cls-8">
      <path
         d="m 441.21152,195.54041 1.6875,-0.16407 q 0.15234,0.84961 0.61523,1.24805 0.46875,0.39844 1.25977,0.39844 0.83789,0 1.25976,-0.35157 0.42774,-0.35742 0.42774,-0.83203 0,-0.30468 -0.18164,-0.51562 -0.17578,-0.2168 -0.6211,-0.375 -0.30468,-0.10547 -1.38867,-0.375 -1.39453,-0.3457 -1.95703,-0.84961 -0.79102,-0.70899 -0.79102,-1.72852 0,-0.65625 0.36914,-1.22461 0.375,-0.57421 1.07227,-0.87304 0.70313,-0.29883 1.69336,-0.29883 1.61719,0 2.43164,0.70898 0.82031,0.70899 0.86133,1.89258 l -1.73438,0.0762 q -0.11132,-0.66211 -0.48047,-0.94922 -0.36328,-0.29296 -1.0957,-0.29296 -0.75586,0 -1.18359,0.31054 -0.27539,0.19922 -0.27539,0.53321 0,0.30468 0.25781,0.52148 0.32812,0.27539 1.59375,0.57422 1.26562,0.29883 1.86914,0.62109 0.60938,0.31641 0.94922,0.87305 0.3457,0.55078 0.3457,1.36523 0,0.73829 -0.41015,1.38282 -0.41016,0.64453 -1.16016,0.96093 -0.75,0.31055 -1.86914,0.31055 -1.62891,0 -2.50195,-0.75 -0.87305,-0.75586 -1.04297,-2.19726 z"
         id="path20998" />
      <path
         d="m 449.58456,198.33533 v -8.58985 h 1.64649 v 4.5586 l 1.92773,-2.19141 h 2.02735 l -2.12696,2.27344 2.2793,3.94922 h -1.77539 l -1.56445,-2.79492 -0.76758,0.80273 v 1.99219 z"
         id="path21000" />
      <path
         d="m 455.90683,196.05603 1.59375,-0.19336 q 0.0762,0.60938 0.41016,0.93164 0.33398,0.32227 0.80859,0.32227 0.50977,0 0.85547,-0.38672 0.35156,-0.38672 0.35156,-1.04297 0,-0.62109 -0.33398,-0.98438 -0.33399,-0.36328 -0.81446,-0.36328 -0.3164,0 -0.75586,0.12305 l 0.18164,-1.3418 q 0.66797,0.0176 1.01954,-0.28711 0.35156,-0.31054 0.35156,-0.82031 0,-0.43359 -0.25781,-0.6914 -0.25782,-0.25782 -0.68555,-0.25782 -0.42188,0 -0.7207,0.29297 -0.29883,0.29297 -0.36329,0.85547 l -1.51757,-0.25781 q 0.1582,-0.7793 0.47461,-1.24219 0.32226,-0.46875 0.89062,-0.73242 0.57422,-0.26953 1.2832,-0.26953 1.21289,0 1.94532,0.77343 0.60351,0.63282 0.60351,1.42969 0,1.13086 -1.23633,1.80469 0.73829,0.1582 1.17774,0.70898 0.44531,0.55079 0.44531,1.33008 0,1.13086 -0.82617,1.92774 -0.82617,0.79687 -2.05664,0.79687 -1.16602,0 -1.9336,-0.66797 -0.76757,-0.67383 -0.89062,-1.75781 z"
         id="path21002" />
      <path
         d="m 462.99081,198.33533 v -1.64649 h 1.64649 v 1.64649 z"
         id="path21004" />
      <path
         d="m 470.18613,198.33533 h -1.64649 v -6.20508 q -0.90234,0.84375 -2.12695,1.24805 v -1.49414 q 0.64453,-0.21094 1.40039,-0.79688 0.75586,-0.5918 1.03711,-1.37695 h 1.33594 z"
         id="path21006" />
    </g>
  </g>
  <path
     id="line120"
     style="fill:none"
     class="cls-11"
     d="m 582.8811,195.76334 -13.29998,-13.7" />
  <path
     id="line122"
     style="fill:none;stroke:#000000;stroke-width:0.4px;stroke-miterlimit:10"
     class="cls-12"
     d="m 582.8811,195.76334 -11.59997,-12" />
  <path
     d="m 569.58111,182.06334 a 13,13 0 0 0 3.7,1.1 l -1.8,0.8 -0.9,1.8 a 10.23,10.23 0 0 0 -1,-3.7 z"
     id="path124"
     inkscape:connector-curvature="0" />
  <g
     id="g432"
     class="link-box">
    <path
       id="polyline126"
       style="fill:#ffffff;stroke:#7d7d7d;stroke-width:0.4px;stroke-miterlimit:10"
       class="cls-10"
       transform="translate(66.281101,70.963337)"
       d="M 90.7,197.1 V 117.9 H 284 v 40.8 l 169.7,0.4 v 38" />
    <g
       aria-label="Sk3.1.3"
       id="text128"
       style="font-weight:700;font-size:12px;font-family:Arial-BoldMT, Arial;isolation:isolate;fill:#7d7d7d"
       class="cls-8">
      <path
         d="m 318.26334,246.9104 1.6875,-0.16406 q 0.15234,0.84961 0.61523,1.24804 0.46875,0.39844 1.25977,0.39844 0.83789,0 1.25976,-0.35156 0.42774,-0.35742 0.42774,-0.83203 0,-0.30469 -0.18164,-0.51563 -0.17579,-0.21679 -0.6211,-0.375 -0.30469,-0.10547 -1.38867,-0.375 -1.39453,-0.3457 -1.95703,-0.84961 -0.79102,-0.70898 -0.79102,-1.72851 0,-0.65625 0.36914,-1.22461 0.375,-0.57422 1.07227,-0.87305 0.70312,-0.29883 1.69336,-0.29883 1.61719,0 2.43164,0.70899 0.82031,0.70898 0.86133,1.89258 l -1.73438,0.0762 q -0.11133,-0.66211 -0.48047,-0.94922 -0.36328,-0.29297 -1.0957,-0.29297 -0.75586,0 -1.18359,0.31055 -0.27539,0.19922 -0.27539,0.5332 0,0.30469 0.25781,0.52149 0.32812,0.27539 1.59375,0.57421 1.26562,0.29883 1.86914,0.6211 0.60937,0.3164 0.94922,0.87304 0.3457,0.55079 0.3457,1.36524 0,0.73828 -0.41016,1.38281 -0.41015,0.64453 -1.16015,0.96094 -0.75,0.31055 -1.86914,0.31055 -1.62891,0 -2.50196,-0.75 -0.87304,-0.75586 -1.04296,-2.19727 z"
         id="path20980" />
      <path
         d="m 326.63638,249.70532 v -8.58984 h 1.64649 v 4.55859 l 1.92773,-2.1914 h 2.02735 l -2.12696,2.27343 2.2793,3.94922 h -1.77539 l -1.56445,-2.79492 -0.76758,0.80273 v 1.99219 z"
         id="path20982" />
      <path
         d="m 332.95865,247.42603 1.59375,-0.19336 q 0.0762,0.60937 0.41015,0.93164 0.33399,0.32226 0.8086,0.32226 0.50976,0 0.85547,-0.38672 0.35156,-0.38672 0.35156,-1.04297 0,-0.62109 -0.33398,-0.98437 -0.33399,-0.36328 -0.81446,-0.36328 -0.3164,0 -0.75586,0.12305 l 0.18164,-1.3418 q 0.66797,0.0176 1.01953,-0.28711 0.35157,-0.31055 0.35157,-0.82031 0,-0.4336 -0.25782,-0.69141 -0.25781,-0.25781 -0.68554,-0.25781 -0.42188,0 -0.72071,0.29297 -0.29882,0.29297 -0.36328,0.85547 l -1.51757,-0.25782 q 0.1582,-0.77929 0.4746,-1.24218 0.32227,-0.46875 0.89063,-0.73243 0.57422,-0.26953 1.2832,-0.26953 1.21289,0 1.94532,0.77344 0.60351,0.63281 0.60351,1.42969 0,1.13086 -1.23633,1.80468 0.73828,0.15821 1.17774,0.70899 0.44531,0.55078 0.44531,1.33008 0,1.13086 -0.82617,1.92773 -0.82617,0.79688 -2.05664,0.79688 -1.16602,0 -1.9336,-0.66797 -0.76757,-0.67383 -0.89062,-1.75781 z"
         id="path20984" />
      <path
         d="m 340.04263,249.70532 v -1.64648 h 1.64649 v 1.64648 z"
         id="path20986" />
      <path
         d="m 347.23795,249.70532 h -1.64649 v -6.20508 q -0.90234,0.84375 -2.12695,1.24805 v -1.49414 q 0.64453,-0.21094 1.40039,-0.79687 0.75586,-0.5918 1.03711,-1.37696 h 1.33594 z"
         id="path20988" />
      <path
         d="m 350.05045,249.70532 v -1.64648 h 1.64648 v 1.64648 z"
         id="path20990" />
      <path
         d="m 352.97427,247.42603 1.59375,-0.19336 q 0.0762,0.60937 0.41016,0.93164 0.33398,0.32226 0.80859,0.32226 0.50977,0 0.85547,-0.38672 0.35156,-0.38672 0.35156,-1.04297 0,-0.62109 -0.33398,-0.98437 -0.33398,-0.36328 -0.81445,-0.36328 -0.31641,0 -0.75586,0.12305 l 0.18164,-1.3418 q 0.66797,0.0176 1.01953,-0.28711 0.35156,-0.31055 0.35156,-0.82031 0,-0.4336 -0.25781,-0.69141 -0.25781,-0.25781 -0.68555,-0.25781 -0.42187,0 -0.7207,0.29297 -0.29883,0.29297 -0.36328,0.85547 l -1.51758,-0.25782 q 0.1582,-0.77929 0.47461,-1.24218 0.32227,-0.46875 0.89062,-0.73243 0.57422,-0.26953 1.28321,-0.26953 1.21289,0 1.94531,0.77344 0.60352,0.63281 0.60352,1.42969 0,1.13086 -1.23633,1.80468 0.73828,0.15821 1.17773,0.70899 0.44531,0.55078 0.44531,1.33008 0,1.13086 -0.82617,1.92773 -0.82617,0.79688 -2.05664,0.79688 -1.16601,0 -1.93359,-0.66797 -0.76758,-0.67383 -0.89063,-1.75781 z"
         id="path20992" />
    </g>
  </g>
  <g
     id="g454"
     class="link-box">
    <path
       id="rect130"
       style="fill:#ffffff;stroke:#7d7d7d;stroke-width:0.4px;stroke-miterlimit:10"
       class="cls-10"
       d="m 703.58112,230.66333 h 212.5 v 29.5 h -212.5 z" />
    <g
       aria-label="Sk3.1.3.1"
       id="text132"
       style="font-weight:700;font-size:12px;font-family:Arial-BoldMT, Arial;isolation:isolate;fill:#7d7d7d"
       class="cls-8">
      <path
         d="m 785.32721,246.9104 1.6875,-0.16406 q 0.15234,0.84961 0.61523,1.24804 0.46875,0.39844 1.25977,0.39844 0.83789,0 1.25977,-0.35156 0.42773,-0.35742 0.42773,-0.83203 0,-0.30469 -0.18164,-0.51563 -0.17578,-0.21679 -0.62109,-0.375 -0.30469,-0.10547 -1.38868,-0.375 -1.39453,-0.3457 -1.95703,-0.84961 -0.79101,-0.70898 -0.79101,-1.72851 0,-0.65625 0.36914,-1.22461 0.375,-0.57422 1.07226,-0.87305 0.70313,-0.29883 1.69336,-0.29883 1.61719,0 2.43164,0.70899 0.82032,0.70898 0.86133,1.89258 l -1.73437,0.0762 q -0.11133,-0.66211 -0.48047,-0.94922 -0.36328,-0.29297 -1.09571,-0.29297 -0.75586,0 -1.18359,0.31055 -0.27539,0.19922 -0.27539,0.5332 0,0.30469 0.25781,0.52149 0.32813,0.27539 1.59375,0.57421 1.26563,0.29883 1.86914,0.6211 0.60938,0.3164 0.94922,0.87304 0.3457,0.55079 0.3457,1.36524 0,0.73828 -0.41015,1.38281 -0.41016,0.64453 -1.16016,0.96094 -0.75,0.31055 -1.86914,0.31055 -1.6289,0 -2.50195,-0.75 -0.87305,-0.75586 -1.04297,-2.19727 z"
         id="path20960" />
      <path
         d="m 793.70026,249.70532 v -8.58984 h 1.64648 v 4.55859 l 1.92774,-2.1914 h 2.02734 l -2.12695,2.27343 2.27929,3.94922 h -1.77539 l -1.56445,-2.79492 -0.76758,0.80273 v 1.99219 z"
         id="path20962" />
      <path
         d="m 800.02252,247.42603 1.59375,-0.19336 q 0.0762,0.60937 0.41016,0.93164 0.33398,0.32226 0.80859,0.32226 0.50977,0 0.85547,-0.38672 0.35156,-0.38672 0.35156,-1.04297 0,-0.62109 -0.33398,-0.98437 -0.33399,-0.36328 -0.81445,-0.36328 -0.31641,0 -0.75586,0.12305 l 0.18164,-1.3418 q 0.66797,0.0176 1.01953,-0.28711 0.35156,-0.31055 0.35156,-0.82031 0,-0.4336 -0.25781,-0.69141 -0.25781,-0.25781 -0.68555,-0.25781 -0.42187,0 -0.7207,0.29297 -0.29883,0.29297 -0.36328,0.85547 l -1.51758,-0.25782 q 0.1582,-0.77929 0.47461,-1.24218 0.32226,-0.46875 0.89062,-0.73243 0.57422,-0.26953 1.28321,-0.26953 1.21289,0 1.94531,0.77344 0.60351,0.63281 0.60351,1.42969 0,1.13086 -1.23632,1.80468 0.73828,0.15821 1.17773,0.70899 0.44531,0.55078 0.44531,1.33008 0,1.13086 -0.82617,1.92773 -0.82617,0.79688 -2.05664,0.79688 -1.16601,0 -1.93359,-0.66797 -0.76758,-0.67383 -0.89063,-1.75781 z"
         id="path20964" />
      <path
         d="m 807.10651,249.70532 v -1.64648 h 1.64648 v 1.64648 z"
         id="path20966" />
      <path
         d="m 814.30182,249.70532 h -1.64649 v -6.20508 q -0.90234,0.84375 -2.12695,1.24805 v -1.49414 q 0.64453,-0.21094 1.40039,-0.79687 0.75586,-0.5918 1.03711,-1.37696 h 1.33594 z"
         id="path20968" />
      <path
         d="m 817.11432,249.70532 v -1.64648 h 1.64648 v 1.64648 z"
         id="path20970" />
      <path
         d="m 820.03815,247.42603 1.59375,-0.19336 q 0.0762,0.60937 0.41015,0.93164 0.33399,0.32226 0.8086,0.32226 0.50976,0 0.85547,-0.38672 0.35156,-0.38672 0.35156,-1.04297 0,-0.62109 -0.33399,-0.98437 -0.33398,-0.36328 -0.81445,-0.36328 -0.31641,0 -0.75586,0.12305 l 0.18164,-1.3418 q 0.66797,0.0176 1.01953,-0.28711 0.35157,-0.31055 0.35157,-0.82031 0,-0.4336 -0.25782,-0.69141 -0.25781,-0.25781 -0.68554,-0.25781 -0.42188,0 -0.72071,0.29297 -0.29882,0.29297 -0.36328,0.85547 l -1.51758,-0.25782 q 0.15821,-0.77929 0.47461,-1.24218 0.32227,-0.46875 0.89063,-0.73243 0.57422,-0.26953 1.2832,-0.26953 1.21289,0 1.94531,0.77344 0.60352,0.63281 0.60352,1.42969 0,1.13086 -1.23633,1.80468 0.73828,0.15821 1.17774,0.70899 0.44531,0.55078 0.44531,1.33008 0,1.13086 -0.82617,1.92773 -0.82618,0.79688 -2.05664,0.79688 -1.16602,0 -1.9336,-0.66797 -0.76758,-0.67383 -0.89062,-1.75781 z"
         id="path20972" />
      <path
         d="m 827.12213,249.70532 v -1.64648 h 1.64649 v 1.64648 z"
         id="path20974" />
      <path
         d="m 834.31744,249.70532 h -1.64648 v -6.20508 q -0.90234,0.84375 -2.12695,1.24805 v -1.49414 q 0.64453,-0.21094 1.40039,-0.79687 0.75586,-0.5918 1.03711,-1.37696 h 1.33593 z"
         id="path20976" />
    </g>
  </g>
  <g
     id="g312"
     class="tkk">
    <path
       id="line98"
       style="fill:none;stroke:#7d7d7d;stroke-width:0.4;stroke-dasharray:1.6, 1.6"
       class="cls-1"
       d="m 643.93115,237.06334 v 11.2" />
    <g
       aria-label="˙"
       id="text100"
       style="font-size:13.5px;font-family:Maestro, Maestro;isolation:isolate"
       class="cls-5">
      <path
         d="m 652.73113,235.29183 q 0.081,0.1485 0.0945,0.3375 0.027,0.1755 0,0.3645 -0.0135,0.1755 -0.054,0.3375 -0.0405,0.162 -0.081,0.2565 -0.189,0.513 -0.567,0.9045 -0.378,0.3915 -0.6885,0.54 -0.6615,0.3375 -1.5795,0.2565 -0.135,-0.0135 -0.324,-0.0405 -0.1755,-0.027 -0.3645,-0.0945 -0.1755,-0.0675 -0.351,-0.1755 -0.162,-0.108 -0.2565,-0.27 -0.108,-0.1755 -0.135,-0.3645 -0.0135,-0.1755 0,-0.351 0.027,-0.162 0.0675,-0.3105 0.0405,-0.135 0.081,-0.243 0.189,-0.513 0.54,-0.8505 0.351,-0.3375 0.6615,-0.5265 0.3105,-0.1755 0.756,-0.2835 0.459,-0.108 1.026,-0.0405 0.108,0.0135 0.27,0.0405 0.162,0.0135 0.324,0.081 0.1755,0.054 0.324,0.162 0.162,0.0945 0.2565,0.27 z m -0.3105,0.2295 q -0.108,-0.162 -0.27,-0.216 -0.1485,-0.054 -0.3375,-0.0405 -0.1755,0.0135 -0.3645,0.081 -0.189,0.0675 -0.351,0.1485 -0.2295,0.108 -0.4185,0.216 -0.1755,0.108 -0.378,0.216 -0.3915,0.216 -0.7965,0.486 -0.1485,0.0945 -0.3105,0.216 -0.1485,0.1215 -0.2565,0.27 -0.108,0.1485 -0.1485,0.3105 -0.027,0.1755 0.0675,0.3375 0.0945,0.162 0.2565,0.216 0.162,0.054 0.3375,0.027 0.189,-0.0135 0.378,-0.081 0.189,-0.0675 0.351,-0.1485 0.2295,-0.108 0.4185,-0.216 0.2025,-0.108 0.405,-0.216 0.2025,-0.108 0.378,-0.216 0.189,-0.108 0.405,-0.2565 0.135,-0.0945 0.2835,-0.216 0.162,-0.1215 0.27,-0.27 0.108,-0.1485 0.135,-0.3105 0.0405,-0.1755 -0.054,-0.3375 z"
         id="path21039" />
    </g>
    <g
       aria-label="œ"
       id="text134"
       style="font-size:10px;font-family:Maestro, Maestro;isolation:isolate;fill:#7d7d7d"
       class="cls-13">
      <path
         d="m 643.7711,236.75333 q 0.1,-0.27 0.3,-0.5 0.21,-0.23 0.48,-0.4 0.27,-0.18 0.58,-0.27 0.31,-0.1 0.63,-0.1 0.32,0 0.56,0.11 0.24,0.1 0.38,0.28 0.14,0.17 0.17,0.41 0.04,0.23 -0.06,0.5 -0.1,0.27 -0.31,0.5 -0.21,0.24 -0.48,0.41 -0.27,0.18 -0.59,0.27 -0.31,0.1 -0.62,0.1 -0.32,0 -0.56,-0.11 -0.23,-0.1 -0.38,-0.28 -0.14,-0.18 -0.17,-0.42 -0.03,-0.23 0.07,-0.5 z"
         id="path20957" />
    </g>
    <path
       id="line136"
       style="fill:none;stroke:#000000;stroke-width:0.4px"
       class="cls-1"
       d="m 648.58112,237.06334 v 11.2" />
  </g>
  <g
     transform="translate(-244.41889,-10.036663)"
     id="g2149">
    <path
       inkscape:connector-curvature="0"
       style="letter-spacing:0em;fill:none;stroke:#7d7d7d;stroke-width:0.40000001px;stroke-opacity:1"
       id="path2143"
       d="m 784.2,246.4 h -1.4 v 19.1 h 1.4"
       class="cls-17" />
    <path
       inkscape:connector-curvature="0"
       style="letter-spacing:0em;fill:none;stroke:#7d7d7d;stroke-width:0.40000001px;stroke-opacity:1"
       id="path2145"
       d="m 790.4,246.4 h 1.4 v 19.1 h -1.4"
       class="cls-17" />
    <g
       aria-label="&amp;"
       transform="translate(783.52,258.34)"
       id="text2147"
       style="font-style:italic;font-size:10.13px;font-family:Maestro, Maestro;isolation:isolate;fill:#7d7d7d;stroke-width:0.4px;stroke-miterlimit:10"
       class="cls-10">
      <path
         d="M 4.7205801,2.55276 Q 4.4369401,2.60341 4.11278,2.61354 3.79875,2.62367 3.49485,2.59328 3.19095,2.57302 2.92757,2.52237 2.67432,2.48185 2.51224,2.40081 1.73223,2.026 1.24599,1.60054 0.76988001,1.18521 0.50650001,0.72936001 0.24312,0.27351 0.13169,-0.2026 0.03039,-0.68884001 0,-1.17508 -0.04052,-1.70184 0.09117,-2.2286 0.23299,-2.75536 0.46598001,-3.23147 0.70910001,-3.71771 1.013,-4.12291 q 0.31403,-0.4052001 0.62806,-0.7091001 0.36468,-0.34442 0.75975,-0.67871 0.4052,-0.34442 0.88131,-0.69897 -0.01013,-0.13169 -0.03039,-0.23299 -0.01013,-0.1013 -0.03039,-0.2026 -0.02026,-0.11143 -0.05065,-0.24312 -0.02026,-0.13169 -0.03039,-0.32416 0,-0.08104 -0.02026,-0.29377 -0.02026,-0.22286 -0.03039,-0.52676 0,-0.31403 0.02026,-0.7091 0.02026,-0.39507 0.1013,-0.82053 0.05065,-0.25325 0.21273,-0.6381899 0.17221,-0.39507 0.39507,-0.75975 0.23299,-0.36468 0.48624,-0.62806 0.2532501,-0.26338 0.4761101,-0.26338 0.11143,0 0.24312,0.14182 0.13169,0.13169 0.25325,0.36468 0.13169,0.22286 0.25325,0.51663 0.12156,0.28364 0.21273,0.58754 0.09117,0.3038999 0.14182,0.5976699 0.06078,0.29377 0.07091,0.51663 0.01013,0.52676 -0.04052,0.93196 -0.05065,0.39507 -0.15195,0.71923 -0.1013,0.31403 -0.24312,0.58754 -0.13169,0.26338 -0.28364,0.53689 -0.16208,0.27351 -0.33429,0.48624 -0.16208,0.2026 -0.33429,0.41533 -0.1823401,0.22286 -0.3849401,0.37481 -0.19247,0.14182 -0.38494,0.31403 0.09117,0.5166301 0.16208,0.9319601 0.03039,0.18234 0.06078,0.35455 0.03039,0.17221 0.05065,0.32416 0.02026,0.14182 0.04052,0.24312 0.02026,0.09117 0.02026,0.11143 0.24312,-0.03039 0.4963701,0 0.26338,0.02026 0.49637,0.07091 0.24312,0.05065 0.42546,0.13169 0.19247,0.08104 0.3039,0.15195 0.54702,0.4052 0.76988,0.93196 0.23299,0.51662999 0.27351,1.06364999 0.03039,0.42546001 -0.07091,0.85092001 -0.1013,0.43559001 -0.34442,0.82053 -0.23299,0.39507 -0.61793,0.71923 -0.37481,0.32416 -0.89144,0.53689 0.06078,0.41533 0.11143,0.76988 0.05065,0.3039 0.09117,0.58754 0.04052,0.29377 0.06078,0.4052 0.09117,0.6078001 0.07091,0.9927401 -0.02026,0.39507 -0.15195,0.63819 -0.11143,0.2026 -0.26338,0.39507 -0.14182,0.19247 -0.34442,0.34442 -0.2026001,0.15195 -0.4761101,0.25325 -0.26338,0.1013 -0.6078,0.12156 -0.26338,0.02026 -0.62806,-0.05065 -0.36468,-0.06078 -0.69897,-0.23299 -0.33429,-0.16208 -0.57741,-0.44572 -0.24312,-0.28364 -0.27351,-0.69897 -0.02026,-0.24312 0.03039,-0.49637 0.05065,-0.24312 0.17221,-0.44572 Q 1.6208,4.4268101 1.8234,4.29512 2.03613,4.16343 2.34003,4.14317 2.52237,4.13304 2.70471,4.19382 q 0.19247,0.07091 0.35455,0.19247 0.16208,0.1215601 0.26338,0.3039001 0.1013,0.18234 0.12156,0.39507 0.03039,0.37481 -0.23299,0.71923 -0.26338,0.35455 -0.89144,0.52676 0.1013,0.14182 0.38494,0.26338 0.28364,0.13169 0.7091,0.13169 0.44572,0 0.85092,-0.26338 0.4153301,-0.26338 0.6381901,-0.65845 0.14182,-0.26338 0.14182,-0.68884 0,-0.41533 -0.05065,-0.8407901 -0.02026,-0.07091 -0.06078,-0.35455 -0.04052,-0.27351 -0.09117,-0.57741 -0.05065,-0.35455 -0.12156,-0.79014 z m 0.21273,-12.83471 q -0.39507,0 -0.6989701,0.3748099 -0.29377,0.36468 -0.48624,0.93196 -0.18234,0.56728 -0.24312,1.24599 -0.06078,0.67871 0.03039,1.30677 0.33429,-0.25325 0.69897,-0.6078 0.3646801,-0.36468 0.6584501,-0.76988 0.3039,-0.4052 0.48624,-0.82053 0.19247,-0.41533 0.16208,-0.79014 -0.01013,-0.12156 -0.04052,-0.27351 -0.03039,-0.15195 -0.1013,-0.28364 -0.07091,-0.1316899 -0.18234,-0.2228599 -0.11143,-0.09117 -0.28364,-0.09117 z m -0.02026,12.41938 q 0.43559,-0.15195 0.67871,-0.39507 0.24312,-0.24312 0.35455,-0.52676 0.12156,-0.28363999 0.13169,-0.56727999 Q 6.0982601,0.36468 6.0881301,0.14182 6.0678701,-0.04052 5.9969601,-0.31403 5.9361801,-0.58754001 5.7538401,-0.84079001 5.5715001,-1.09404 5.2372101,-1.25612 4.9029201,-1.42833 4.34577,-1.39794 Z M 4.08239,-1.37768 Q 3.66706,-1.35742 3.39355,-1.20547 3.13017,-1.06365 2.96809,-0.85092001 2.81614,-0.64832001 2.75536,-0.41533 2.70471,-0.18234 2.71484,0 2.72497,0.18234 2.79588,0.37481 2.86679,0.56728001 2.97822,0.72936001 3.09978,0.90157001 3.23147,1.03326 3.37329,1.17508 3.51511,1.24599 3.49485,1.26625 3.47459,1.27638 3.46446,1.29664 3.4442,1.3169 3.42394,1.33716 3.41381,1.35742 3.09978,1.20547 2.85666,0.99274001 2.62367,0.79014001 2.55276,0.69897001 2.44133,0.54702001 2.36029,0.42546 2.27925,0.3039 2.2286,0.16208 2.17795,0.03039 2.13743,-0.13169 2.10704,-0.29377 2.09691,-0.51663001 2.07665,-0.72936001 2.1273,-0.96235001 2.17795,-1.20547 2.28938,-1.44859 2.41094,-1.69171 2.59328,-1.91457 2.78575,-2.14756 3.039,-2.35016 q 0.13169,-0.1013 0.23299,-0.16208 0.11143,-0.06078 0.2026,-0.1013 0.09117,-0.05065 0.18234,-0.07091 0.1013,-0.03039 0.21273,-0.06078 l -0.3039,-1.8335301 q -0.12156,0.07091 -0.39507,0.2836401 -0.27351,0.21273 -0.59767,0.5065 -0.32416,0.29377 -0.64832,0.63819 -0.31403,0.33429 -0.51663,0.64832 -0.36468,0.57741 -0.56727999,1.06365 -0.2026,0.48623999 -0.15195,1.05352 Q 0.72936001,0.25325 1.07378,0.80027001 1.42833,1.35742 1.97535,1.73223 2.52237,2.10704 3.22134,2.24886 3.92031,2.40081 4.6699301,2.21847 4.5078501,1.2156 4.37616,0.42546 4.31538,0.09117 4.26473,-0.23299 4.21408,-0.55715001 4.16343,-0.81040001 4.12291,-1.06365 4.10265,-1.2156 4.08239,-1.37768 4.08239,-1.37768 Z"
         style="font-style:normal;-inkscape-font-specification:'Maestro, Maestro'"
         id="path20953" />
    </g>
  </g>
  <g
     id="g970"
     transform="translate(-244.41889,-50.636663)">
    <path
       class="cls-17"
       d="m 784.2,246.4 h -1.4 v 19.1 h 1.4"
       id="path962"
       style="letter-spacing:0em;fill:none;stroke:#7d7d7d;stroke-width:0.40000001px;stroke-opacity:1"
       inkscape:connector-curvature="0" />
    <path
       class="cls-17"
       d="m 790.4,246.4 h 1.4 v 19.1 h -1.4"
       id="path964"
       style="letter-spacing:0em;fill:none;stroke:#7d7d7d;stroke-width:0.40000001px;stroke-opacity:1"
       inkscape:connector-curvature="0" />
    <g
       aria-label="&amp;"
       transform="translate(783.52,258.34)"
       id="text968"
       style="font-style:italic;font-size:10.13px;font-family:Maestro, Maestro;isolation:isolate;fill:#7d7d7d;stroke-width:0.4px;stroke-miterlimit:10"
       class="cls-10">
      <path
         d="M 4.7205801,2.55276 Q 4.4369401,2.60341 4.11278,2.61354 3.79875,2.62367 3.49485,2.59328 3.19095,2.57302 2.92757,2.52237 2.67432,2.48185 2.51224,2.40081 1.73223,2.026 1.24599,1.60054 0.76988001,1.18521 0.50650001,0.72936001 0.24312,0.27351 0.13169,-0.2026 0.03039,-0.68884001 0,-1.17508 -0.04052,-1.70184 0.09117,-2.2286 0.23299,-2.75536 0.46598001,-3.23147 0.70910001,-3.71771 1.013,-4.12291 q 0.31403,-0.4052001 0.62806,-0.7091001 0.36468,-0.34442 0.75975,-0.67871 0.4052,-0.34442 0.88131,-0.69897 -0.01013,-0.13169 -0.03039,-0.23299 -0.01013,-0.1013 -0.03039,-0.2026 -0.02026,-0.11143 -0.05065,-0.24312 -0.02026,-0.13169 -0.03039,-0.32416 0,-0.08104 -0.02026,-0.29377 -0.02026,-0.22286 -0.03039,-0.52676 0,-0.31403 0.02026,-0.7091 0.02026,-0.39507 0.1013,-0.82053 0.05065,-0.25325 0.21273,-0.6381899 0.17221,-0.39507 0.39507,-0.75975 0.23299,-0.36468 0.48624,-0.62806 0.2532501,-0.26338 0.4761101,-0.26338 0.11143,0 0.24312,0.14182 0.13169,0.13169 0.25325,0.36468 0.13169,0.22286 0.25325,0.51663 0.12156,0.28364 0.21273,0.58754 0.09117,0.3038999 0.14182,0.5976699 0.06078,0.29377 0.07091,0.51663 0.01013,0.52676 -0.04052,0.93196 -0.05065,0.39507 -0.15195,0.71923 -0.1013,0.31403 -0.24312,0.58754 -0.13169,0.26338 -0.28364,0.53689 -0.16208,0.27351 -0.33429,0.48624 -0.16208,0.2026 -0.33429,0.41533 -0.1823401,0.22286 -0.3849401,0.37481 -0.19247,0.14182 -0.38494,0.31403 0.09117,0.5166301 0.16208,0.9319601 0.03039,0.18234 0.06078,0.35455 0.03039,0.17221 0.05065,0.32416 0.02026,0.14182 0.04052,0.24312 0.02026,0.09117 0.02026,0.11143 0.24312,-0.03039 0.4963701,0 0.26338,0.02026 0.49637,0.07091 0.24312,0.05065 0.42546,0.13169 0.19247,0.08104 0.3039,0.15195 0.54702,0.4052 0.76988,0.93196 0.23299,0.51662999 0.27351,1.06364999 0.03039,0.42546001 -0.07091,0.85092001 -0.1013,0.43559001 -0.34442,0.82053 -0.23299,0.39507 -0.61793,0.71923 -0.37481,0.32416 -0.89144,0.53689 0.06078,0.41533 0.11143,0.76988 0.05065,0.3039 0.09117,0.58754 0.04052,0.29377 0.06078,0.4052 0.09117,0.6078001 0.07091,0.9927401 -0.02026,0.39507 -0.15195,0.63819 -0.11143,0.2026 -0.26338,0.39507 -0.14182,0.19247 -0.34442,0.34442 -0.2026001,0.15195 -0.4761101,0.25325 -0.26338,0.1013 -0.6078,0.12156 -0.26338,0.02026 -0.62806,-0.05065 -0.36468,-0.06078 -0.69897,-0.23299 -0.33429,-0.16208 -0.57741,-0.44572 -0.24312,-0.28364 -0.27351,-0.69897 -0.02026,-0.24312 0.03039,-0.49637 0.05065,-0.24312 0.17221,-0.44572 Q 1.6208,4.4268101 1.8234,4.29512 2.03613,4.16343 2.34003,4.14317 2.52237,4.13304 2.70471,4.19382 q 0.19247,0.07091 0.35455,0.19247 0.16208,0.1215601 0.26338,0.3039001 0.1013,0.18234 0.12156,0.39507 0.03039,0.37481 -0.23299,0.71923 -0.26338,0.35455 -0.89144,0.52676 0.1013,0.14182 0.38494,0.26338 0.28364,0.13169 0.7091,0.13169 0.44572,0 0.85092,-0.26338 0.4153301,-0.26338 0.6381901,-0.65845 0.14182,-0.26338 0.14182,-0.68884 0,-0.41533 -0.05065,-0.8407901 -0.02026,-0.07091 -0.06078,-0.35455 -0.04052,-0.27351 -0.09117,-0.57741 -0.05065,-0.35455 -0.12156,-0.79014 z m 0.21273,-12.83471 q -0.39507,0 -0.6989701,0.3748099 -0.29377,0.36468 -0.48624,0.93196 -0.18234,0.56728 -0.24312,1.24599 -0.06078,0.67871 0.03039,1.30677 0.33429,-0.25325 0.69897,-0.6078 0.3646801,-0.36468 0.6584501,-0.76988 0.3039,-0.4052 0.48624,-0.82053 0.19247,-0.41533 0.16208,-0.79014 -0.01013,-0.12156 -0.04052,-0.27351 -0.03039,-0.15195 -0.1013,-0.28364 -0.07091,-0.1316899 -0.18234,-0.2228599 -0.11143,-0.09117 -0.28364,-0.09117 z m -0.02026,12.41938 q 0.43559,-0.15195 0.67871,-0.39507 0.24312,-0.24312 0.35455,-0.52676 0.12156,-0.28363999 0.13169,-0.56727999 Q 6.0982601,0.36468 6.0881301,0.14182 6.0678701,-0.04052 5.9969601,-0.31403 5.9361801,-0.58754001 5.7538401,-0.84079001 5.5715001,-1.09404 5.2372101,-1.25612 4.9029201,-1.42833 4.34577,-1.39794 Z M 4.08239,-1.37768 Q 3.66706,-1.35742 3.39355,-1.20547 3.13017,-1.06365 2.96809,-0.85092001 2.81614,-0.64832001 2.75536,-0.41533 2.70471,-0.18234 2.71484,0 2.72497,0.18234 2.79588,0.37481 2.86679,0.56728001 2.97822,0.72936001 3.09978,0.90157001 3.23147,1.03326 3.37329,1.17508 3.51511,1.24599 3.49485,1.26625 3.47459,1.27638 3.46446,1.29664 3.4442,1.3169 3.42394,1.33716 3.41381,1.35742 3.09978,1.20547 2.85666,0.99274001 2.62367,0.79014001 2.55276,0.69897001 2.44133,0.54702001 2.36029,0.42546 2.27925,0.3039 2.2286,0.16208 2.17795,0.03039 2.13743,-0.13169 2.10704,-0.29377 2.09691,-0.51663001 2.07665,-0.72936001 2.1273,-0.96235001 2.17795,-1.20547 2.28938,-1.44859 2.41094,-1.69171 2.59328,-1.91457 2.78575,-2.14756 3.039,-2.35016 q 0.13169,-0.1013 0.23299,-0.16208 0.11143,-0.06078 0.2026,-0.1013 0.09117,-0.05065 0.18234,-0.07091 0.1013,-0.03039 0.21273,-0.06078 l -0.3039,-1.8335301 q -0.12156,0.07091 -0.39507,0.2836401 -0.27351,0.21273 -0.59767,0.5065 -0.32416,0.29377 -0.64832,0.63819 -0.31403,0.33429 -0.51663,0.64832 -0.36468,0.57741 -0.56727999,1.06365 -0.2026,0.48623999 -0.15195,1.05352 Q 0.72936001,0.25325 1.07378,0.80027001 1.42833,1.35742 1.97535,1.73223 2.52237,2.10704 3.22134,2.24886 3.92031,2.40081 4.6699301,2.21847 4.5078501,1.2156 4.37616,0.42546 4.31538,0.09117 4.26473,-0.23299 4.21408,-0.55715001 4.16343,-0.81040001 4.12291,-1.06365 4.10265,-1.2156 4.08239,-1.37768 4.08239,-1.37768 Z"
         style="font-style:normal;-inkscape-font-specification:'Maestro, Maestro'"
         id="path20950" />
    </g>
  </g>
</svg>
