<?xml version="1.0" encoding="UTF-8" standalone="no"?>
<svg xmlns="http://www.w3.org/2000/svg" id="Ebene_1" width="1152.862" height="379.744" data-name="Ebene 1" version="1.1" viewBox="0 0 1152.862 379.744">
  <defs id="defs4">
    <style id="style2">
      .cls-1,.cls-3,.cls-6{isolation:isolate}.cls-1{font-size:13.5px;font-family:Maestro,Maestro}.cls-2{fill:none;stroke:#000;stroke-width:.4px}.cls-3{font-size:6.75px;font-family:Arial-ItalicMT,Arial;font-style:italic}.cls-6{font-size:12px;font-family:Arial-BoldMT,Arial;font-weight:700}
    </style>
  </defs>
  <g id="text8" aria-label="4" class="cls-1" style="font-size:13.5px;font-family:Maestro,Maestro;isolation:isolate">
    <path id="path42943" d="M485.477 209.288v.891q0 .203.094.31.095.109.216.163.149.054.324.054v.35h-2.93v-.35q.176 0 .325-.054.121-.04.216-.149.108-.094.108-.297v-.918h-2.498l-.243-.256q.405-.554.689-.972.283-.405.472-.756.203-.351.324-.648.122-.31.216-.635.095-.324.162-.702.081-.391.176-.89h2.335q-.202.39-.634.93-.419.527-.945 1.135-.527.594-1.094 1.228-.567.621-1.053 1.188h2.093v-1.66l1.647-1.81v3.47h.972v.378z"/>
  </g>
  <g id="text10" aria-label="3" class="cls-1" style="font-size:13.5px;font-family:Maestro,Maestro;isolation:isolate">
    <path id="path42940" d="M486.297 202.39q0 .513-.284.89-.27.379-.675.622t-.864.35q-.459.122-.823.122-.513 0-.959-.121-.432-.122-.756-.351-.324-.23-.513-.567-.175-.324-.175-.743 0-.175.08-.35.082-.176.203-.311.135-.135.297-.23.176-.08.365-.08.378 0 .702.215.324.216.324.648 0 .257-.081.419-.081.162-.176.283-.094.122-.175.243-.068.135-.054.31 0 .041.067.095.068.068.149.122.094.054.175.08.095.041.149.041.337 0 .58-.175.257-.162.419-.419.175-.256.256-.54.081-.283.081-.513 0-.432-.189-.661-.175-.216-.459-.324-.27-.095-.62-.135-.338-.027-.662-.095v-.189q.013-.067.013-.108v-.054q.324-.04.635-.121.31-.081.553-.243.243-.162.378-.419.149-.256.149-.634 0-.527-.19-.797-.175-.283-.404-.391-.23-.122-.446-.122-.202-.013-.27-.013-.04 0-.108.04-.054.027-.121.081-.068.04-.108.108-.04.054-.04.108.013.108.08.203l.176.202q.108.095.202.23.108.121.176.324.067.189 0 .391-.068.19-.216.351-.149.149-.351.243-.19.095-.378.095-.23 0-.419-.108-.189-.108-.324-.257-.135-.162-.216-.337-.08-.176-.08-.297 0-.297.12-.608.136-.31.446-.567.324-.256.837-.418.527-.176 1.323-.176.338 0 .689.122.35.108.62.324.27.216.446.513.176.297.176.675 0 .5-.243.783-.243.283-.54.445-.284.162-.527.243-.243.068-.243.135.297.027.608.108.324.081.594.243.27.162.445.419.176.256.176.648z"/>
  </g>
  <path id="line12" d="M151.181 197.663h850.5" class="cls-2" style="fill:none;stroke:#000;stroke-width:.4px"/>
  <path id="line14" d="M151.181 201.063h850.5" class="cls-2" style="fill:none;stroke:#000;stroke-width:.4px"/>
  <path id="line16" d="M151.181 204.463h850.5" class="cls-2" style="fill:none;stroke:#000;stroke-width:.4px"/>
  <path id="line18" d="M151.181 207.763h850.5" class="cls-2" style="fill:none;stroke:#000;stroke-width:.4px"/>
  <path id="line20" d="M151.181 211.163h850.5" class="cls-2" style="fill:none;stroke:#000;stroke-width:.4px"/>
  <g id="text22" aria-label="A Bl. 39r" class="cls-3" style="font-style:italic;font-size:6.75px;font-family:Arial-ItalicMT,Arial;isolation:isolate;fill:#7d7d7d">
    <path id="path42920" d="M97.636 140.022H95.72l-.58 1.068h-1.022l2.732-4.832h1.104l.785 4.832h-.943zm-.122-.804-.28-1.945-1.167 1.945z" style="font-weight:700;-inkscape-font-specification:&quot;Arial-ItalicMT, Arial, Bold Italic&quot;"/>
    <path id="path42922" d="m101.238 141.09 1.012-4.832h1.496q.41 0 .607.033.323.056.544.198.224.138.346.382.122.24.122.534 0 .399-.221.702-.218.303-.67.461.393.129.587.39.195.256.195.602 0 .4-.23.765-.228.366-.607.567-.376.198-.84.198zm1.226-2.769h.98q.701 0 1.008-.224.31-.224.31-.653 0-.204-.096-.352-.096-.149-.257-.214-.158-.07-.6-.07h-1.028zm-.464 2.222h1.1q.439 0 .59-.03.307-.053.498-.178.191-.129.3-.336.109-.208.109-.435 0-.34-.215-.514-.21-.178-.807-.178h-1.226z"/>
    <path id="path42924" d="m105.625 141.09 1.009-4.832h.596l-1.008 4.832z"/>
    <path id="path42926" d="m107.336 141.09.141-.676h.676l-.145.676z"/>
    <path id="path42928" d="m111.067 139.824.58-.072q.066.507.29.728.227.218.593.218.442 0 .761-.317.323-.316.323-.725 0-.356-.24-.587-.24-.234-.646-.234-.046 0-.191.014l.102-.498q.085.013.164.013.511 0 .785-.247.277-.25.277-.613 0-.333-.228-.56-.224-.228-.55-.228-.32 0-.577.234-.254.23-.326.656l-.587-.119q.145-.596.557-.922.412-.327.976-.327.593 0 .959.36.369.359.369.883 0 .382-.201.669-.198.283-.597.471.284.168.422.406.142.237.142.543 0 .65-.488 1.128-.484.474-1.16.474-.656 0-1.061-.366-.402-.369-.448-.982z"/>
    <path id="path42930" d="m114.906 139.982.56-.056q.057.406.231.577.175.171.416.171.342 0 .636-.296.431-.435.636-1.25-.3.225-.534.32-.23.096-.475.096-.441 0-.79-.297-.462-.385-.462-1.107 0-.817.534-1.4.458-.502 1.124-.502.6 0 .995.445.396.442.396 1.253 0 .787-.264 1.555-.313.903-.847 1.332-.435.35-.98.35-.5 0-.82-.31-.316-.314-.356-.88zm.795-1.911q0 .455.24.725.244.27.577.27.247 0 .491-.168t.419-.501q.174-.336.174-.689 0-.277-.115-.514t-.316-.356q-.198-.122-.403-.122-.197 0-.388.106-.192.105-.356.31-.162.204-.244.47-.08.264-.08.469z"/>
    <path id="path42932" d="m118.351 138.39.476-2.275h.343l-.097.464q.176-.263.343-.39.17-.126.345-.126.116 0 .285.084l-.159.36q-.1-.073-.22-.073-.204 0-.418.227t-.337.816l-.192.913z" style="font-size:65%;baseline-shift:super"/>
  </g>
  <g id="text26" aria-label="13" class="cls-3" style="font-style:italic;font-size:6.75px;font-family:Arial-ItalicMT,Arial;isolation:isolate;fill:#7d7d7d">
    <path id="path42915" d="m95.114 207.803.765-3.648q-.494.389-1.39.623l.111-.54q.445-.179.877-.466.435-.286.653-.5.131-.132.25-.32h.346l-1.012 4.851z"/>
    <path id="path42917" d="m97.613 206.538.58-.073q.066.508.29.729.227.217.593.217.442 0 .761-.316.323-.317.323-.725 0-.356-.24-.587-.24-.234-.646-.234-.046 0-.191.013l.102-.498q.086.014.165.014.51 0 .784-.248.277-.25.277-.613 0-.332-.228-.56-.224-.227-.55-.227-.32 0-.577.234-.253.23-.326.656l-.587-.119q.145-.597.557-.923.412-.326.976-.326.593 0 .959.36.37.358.37.882 0 .383-.202.67-.198.283-.596.47.283.169.421.406.142.237.142.544 0 .65-.488 1.127-.484.475-1.16.475-.656 0-1.061-.366-.402-.37-.448-.982z"/>
  </g>
  <g id="text30" aria-label="‰" class="cls-1" style="font-size:13.5px;font-family:Maestro,Maestro;isolation:isolate">
    <path id="path42912" d="M493.773 201.558q.365-.095.608.04t.364.378q.135.243.162.54.027.284-.04.486.216-.027.391-.08.176-.055.365-.244.175-.175.283-.324.122-.148.284-.337l.189.108-1.499 5.656h-.54q.135-.445.284-.877.121-.351.243-.743.121-.378.216-.607.216-.594.35-1.067.15-.459.23-.783.095-.378.149-.661-.122.094-.338.243-.202.135-.445.27t-.5.243q-.256.094-.5.108-.526.027-.85-.284-.31-.31-.364-.715-.054-.419.175-.81.23-.405.783-.54z"/>
  </g>
  <path id="line32" d="M534.781 205.563v-11.3" class="cls-2" style="fill:none;stroke:#000;stroke-width:.4px"/>
  <g id="text34" aria-label="œ" class="cls-1" style="font-size:13.5px;font-family:Maestro,Maestro;isolation:isolate">
    <path id="path42908" d="M530.73 206.137q.134-.365.404-.675.284-.31.648-.54.365-.243.783-.365.419-.135.85-.135.433 0 .757.149.324.135.513.378.189.23.23.553.053.31-.082.675-.135.365-.418.675-.284.324-.648.554-.365.243-.797.364-.418.135-.837.135-.432 0-.756-.148-.31-.135-.513-.378-.189-.243-.23-.567-.04-.31.095-.675z"/>
  </g>
  <g id="text36" aria-label="M 317 Sk4.2" class="cls-6" style="font-weight:700;font-size:12px;font-family:Arial-BoldMT,Arial;isolation:isolate">
    <path id="path42889" d="M94.488 84.327v-8.59h2.596l1.558 5.86 1.542-5.86h2.601v8.59h-1.611v-6.762l-1.705 6.762h-1.67l-1.7-6.762v6.762z"/>
    <path id="path42891" d="m107.42 82.048 1.594-.194q.076.61.41.932.334.322.808.322.51 0 .856-.387.351-.386.351-1.043 0-.62-.334-.984-.334-.363-.814-.363-.316 0-.756.123l.182-1.342q.668.018 1.02-.287.35-.31.35-.82 0-.434-.257-.692-.258-.258-.686-.258-.421 0-.72.293-.3.293-.364.856l-1.517-.258q.158-.78.474-1.242.323-.469.891-.733.574-.27 1.283-.27 1.213 0 1.946.774.603.633.603 1.43 0 1.13-1.236 1.805.738.158 1.178.709.445.55.445 1.33 0 1.13-.826 1.927-.826.797-2.057.797-1.166 0-1.934-.668-.767-.673-.89-1.757z"/>
    <path id="path42893" d="M118.365 84.327h-1.646v-6.205q-.903.844-2.127 1.248v-1.494q.644-.211 1.4-.797.756-.592 1.037-1.377h1.336z"/>
    <path id="path42895" d="M120.826 77.384v-1.53h5.63v1.196q-.696.685-1.417 1.968-.72 1.283-1.102 2.73-.375 1.442-.369 2.579h-1.588q.041-1.781.733-3.633.697-1.851 1.857-3.31z"/>
    <path id="path42897" d="m130.758 81.532 1.687-.164q.153.85.615 1.248.47.398 1.26.398.838 0 1.26-.351.428-.358.428-.832 0-.305-.182-.516-.176-.217-.621-.375-.305-.105-1.389-.375-1.394-.346-1.957-.85-.79-.708-.79-1.728 0-.656.368-1.225.375-.574 1.073-.873.703-.298 1.693-.298 1.617 0 2.432.709.82.709.861 1.892l-1.734.076q-.112-.662-.48-.949-.364-.293-1.097-.293-.755 0-1.183.31-.276.2-.276.534 0 .305.258.521.328.276 1.594.575 1.266.298 1.87.62.609.317.948.874.346.55.346 1.365 0 .738-.41 1.383-.41.644-1.16.96-.75.311-1.87.311-1.628 0-2.501-.75-.873-.756-1.043-2.197z"/>
    <path id="path42899" d="M139.13 84.327v-8.59h1.647v4.559l1.928-2.192h2.027l-2.127 2.274 2.28 3.949h-1.776l-1.564-2.795-.768.803v1.992z"/>
    <path id="path42901" d="M148.74 84.327v-1.729h-3.515v-1.441l3.726-5.455h1.383v5.45h1.066v1.446h-1.066v1.729zm0-3.176v-2.935l-1.974 2.935z"/>
    <path id="path42903" d="M152.537 84.327V82.68h1.647v1.647z"/>
    <path id="path42905" d="M161.08 82.798v1.529h-5.772q.094-.867.563-1.64.469-.78 1.852-2.063 1.113-1.037 1.365-1.406.34-.51.34-1.008 0-.551-.3-.844-.292-.299-.814-.299-.515 0-.82.31-.305.311-.352 1.032l-1.64-.164q.146-1.36.92-1.951.773-.592 1.933-.592 1.272 0 1.998.685.727.686.727 1.706 0 .58-.21 1.107-.206.521-.657 1.096-.299.38-1.078 1.095-.78.715-.99.95-.206.234-.335.457z"/>
  </g>
  <g id="g371" class="link-box">
    <path id="polyline38" d="M90.3 154.8v-35.5h304v38.3" style="fill:#fff;stroke:#7d7d7d;stroke-width:.4px;stroke-miterlimit:10" transform="translate(66.281 70.963)"/>
    <g id="text48" aria-label="Sk4 T. 13–15" class="cls-6" style="font-weight:700;font-size:12px;font-family:Arial-BoldMT,Arial;isolation:isolate;fill:#7d7d7d">
      <path id="path42867" d="m273.61 210.81 1.688-.164q.152.85.615 1.248.469.399 1.26.399.838 0 1.26-.352.427-.357.427-.832 0-.304-.182-.515-.175-.217-.62-.375-.305-.106-1.39-.375-1.394-.346-1.956-.85-.791-.709-.791-1.729 0-.656.369-1.224.375-.574 1.072-.873.703-.299 1.693-.299 1.618 0 2.432.709.82.709.861 1.893l-1.734.076q-.111-.662-.48-.95-.364-.292-1.096-.292-.756 0-1.184.31-.275.2-.275.533 0 .305.258.522.328.275 1.593.574 1.266.299 1.87.621.609.317.949.873.346.551.346 1.365 0 .739-.41 1.383-.41.645-1.16.961-.75.31-1.87.31-1.629 0-2.502-.75-.873-.755-1.043-2.197z"/>
      <path id="path42869" d="M281.983 213.605v-8.59h1.647v4.56l1.927-2.192h2.028l-2.127 2.273 2.28 3.95h-1.776l-1.565-2.796-.767.803v1.992z"/>
      <path id="path42871" d="M291.593 213.605v-1.728h-3.516v-1.442l3.727-5.455h1.382v5.45h1.067v1.447h-1.067v1.728zm0-3.175v-2.936l-1.975 2.936z"/>
      <path id="path42873" d="M300.673 213.605v-7.136h-2.549v-1.454h6.827v1.454h-2.543v7.136z" style="letter-spacing:-.11em"/>
      <path id="path42875" d="M304.728 213.605v-1.646h1.646v1.646z"/>
      <path id="path42877" d="M315.257 213.605h-1.646V207.4q-.903.844-2.127 1.248v-1.494q.644-.21 1.4-.797.756-.592 1.037-1.377h1.336z"/>
      <path id="path42879" d="m317.66 211.326 1.593-.193q.076.609.41.931.334.323.809.323.51 0 .855-.387.352-.387.352-1.043 0-.621-.334-.984-.334-.364-.814-.364-.317 0-.756.123l.181-1.342q.668.018 1.02-.287.351-.31.351-.82 0-.434-.257-.691-.258-.258-.686-.258-.422 0-.72.293-.3.293-.364.855l-1.517-.258q.158-.779.474-1.242.322-.468.89-.732.575-.27 1.284-.27 1.213 0 1.945.774.604.633.604 1.43 0 1.13-1.237 1.804.739.158 1.178.71.446.55.446 1.33 0 1.13-.827 1.927-.826.797-2.056.797-1.166 0-1.934-.668-.767-.674-.89-1.758z"/>
      <path id="path42881" d="M323.859 211.11v-1.231h6.674v1.23z"/>
      <path id="path42883" d="M335.279 213.605h-1.647V207.4q-.902.844-2.127 1.248v-1.494q.645-.21 1.4-.797.756-.592 1.038-1.377h1.336z"/>
      <path id="path42885" d="m337.763 211.396 1.64-.17q.071.557.417.885.345.322.797.322.515 0 .873-.416.357-.421.357-1.265 0-.791-.357-1.184-.352-.398-.92-.398-.71 0-1.272.627l-1.336-.194.844-4.47h4.354v1.54h-3.106l-.258 1.46q.551-.276 1.125-.276 1.096 0 1.858.797.761.797.761 2.069 0 1.06-.615 1.892-.838 1.137-2.326 1.137-1.19 0-1.94-.639t-.896-1.717z"/>
    </g>
  </g>
  <path id="polyline52" d="M751.6 119.3v32.1h161.5v-31.9" style="fill:#fff" transform="translate(66.281 70.963)"/>
  <g id="g388" class="link-box">
    <g id="g896" transform="translate(66.281 70.963)">
      <path id="polyline50" d="M524.5 103.661V151.4h57.3v-32.098l170.001-.001v32h162V103.3" style="fill:#fff;stroke:#7d7d7d;stroke-width:.4px;stroke-opacity:1"/>
      <path id="rect6871" d="M750.368 149.778h166.02v6.724h-166.02z" style="fill:#fff;fill-opacity:1;stroke:none;stroke-width:.944882;stroke-opacity:1"/>
    </g>
    <g id="text64" aria-label="Sk4 T. 7–12" class="cls-6" style="font-weight:700;font-size:12px;font-family:Arial-BoldMT,Arial;isolation:isolate;fill:#7d7d7d">
      <path id="path42847" d="m753.57 181.378 1.688-.164q.152.85.615 1.248.469.399 1.26.399.838 0 1.26-.352.427-.357.427-.832 0-.304-.182-.515-.175-.217-.62-.375-.305-.106-1.39-.375-1.394-.346-1.956-.85-.791-.709-.791-1.729 0-.656.369-1.224.375-.574 1.072-.873.703-.299 1.693-.299 1.618 0 2.432.709.82.709.861 1.893l-1.734.076q-.111-.662-.48-.95-.364-.292-1.096-.292-.756 0-1.184.31-.275.2-.275.533 0 .305.258.522.328.275 1.593.574 1.266.299 1.87.621.609.317.949.873.345.55.345 1.365 0 .739-.41 1.383-.41.645-1.16.961-.75.31-1.869.31-1.629 0-2.502-.75-.873-.755-1.043-2.197z"/>
      <path id="path42849" d="M761.943 184.173v-8.59h1.647v4.56l1.927-2.192h2.028l-2.127 2.273 2.28 3.95h-1.776l-1.565-2.796-.767.803v1.992z"/>
      <path id="path42851" d="M771.553 184.173v-1.728h-3.516v-1.442l3.726-5.455h1.383v5.45h1.067v1.447h-1.067v1.728zm0-3.175v-2.936l-1.975 2.936z"/>
      <path id="path42853" d="M780.633 184.173v-7.136h-2.549v-1.454h6.826v1.454h-2.543v7.136z" style="letter-spacing:-.11em"/>
      <path id="path42855" d="M784.688 184.173v-1.646h1.646v1.646z"/>
      <path id="path42857" d="M791.004 177.23v-1.53h5.631v1.196q-.697.686-1.418 1.969-.72 1.283-1.101 2.73-.375 1.442-.37 2.578h-1.587q.04-1.78.732-3.632.697-1.852 1.857-3.311z"/>
      <path id="path42859" d="M797.145 181.677v-1.23h6.674v1.23z"/>
      <path id="path42861" d="M808.565 184.173h-1.647v-6.205q-.902.844-2.127 1.248v-1.494q.645-.21 1.4-.797.757-.591 1.038-1.377h1.336z"/>
      <path id="path42863" d="M816.586 182.644v1.53h-5.771q.093-.868.562-1.641.469-.78 1.852-2.063 1.113-1.037 1.365-1.406.34-.51.34-1.008 0-.55-.299-.844-.293-.298-.814-.298-.516 0-.82.31-.305.31-.352 1.031l-1.64-.164q.146-1.36.919-1.95.773-.593 1.934-.593 1.271 0 1.998.686.726.685.726 1.705 0 .58-.21 1.107-.206.522-.657 1.096-.299.381-1.078 1.096-.78.715-.99.949-.205.234-.334.457z"/>
    </g>
  </g>
  <g id="text66" aria-label="13" class="cls-3" style="font-style:italic;font-size:6.75px;font-family:Arial-ItalicMT,Arial;isolation:isolate;fill:#7d7d7d">
    <path id="path42842" d="m478.886 141.09.765-3.649q-.495.39-1.391.623l.112-.54q.445-.178.877-.465.435-.287.652-.501.132-.132.25-.32h.347l-1.012 4.852z"/>
    <path id="path42844" d="m481.384 139.824.58-.072q.066.507.29.728.228.218.594.218.441 0 .761-.317.323-.316.323-.725 0-.356-.24-.587-.241-.234-.647-.234-.046 0-.19.014l.101-.498q.086.013.165.013.511 0 .785-.247.276-.25.276-.613 0-.333-.227-.56-.224-.228-.55-.228-.32 0-.577.234-.254.23-.326.656l-.587-.119q.145-.596.557-.922.412-.327.976-.327.593 0 .959.36.369.359.369.883 0 .382-.201.669-.198.283-.597.471.284.168.422.406.142.237.142.543 0 .65-.488 1.128-.485.474-1.16.474-.656 0-1.061-.366-.403-.369-.449-.982z"/>
  </g>
  <g id="g2149" transform="translate(-327.148 -2.024)">
    <path id="path2143" d="M794.73 197.988h-1.4v19.1h1.4" class="cls-17" style="letter-spacing:0;fill:none;stroke:#7d7d7d;stroke-width:.40000001px;stroke-opacity:1"/>
    <path id="path2145" d="M800.93 197.988h1.4v19.1h-1.4" class="cls-17" style="letter-spacing:0;fill:none;stroke:#7d7d7d;stroke-width:.40000001px;stroke-opacity:1"/>
    <g id="text2147" aria-label="&amp;" style="font-style:italic;font-size:10.13px;font-family:Maestro,Maestro;isolation:isolate;fill:#7d7d7d;stroke-width:.4px;stroke:#000">
      <path id="path42839" d="M798.77 212.48q-.284.051-.608.061-.314.01-.618-.02-.304-.02-.567-.071-.253-.04-.415-.122-.78-.374-1.267-.8-.476-.415-.74-.871-.263-.456-.374-.932-.101-.486-.132-.972-.04-.527.092-1.054.141-.527.374-1.003.243-.486.547-.891.314-.405.628-.71.365-.344.76-.678.405-.345.881-.7-.01-.13-.03-.232-.01-.101-.03-.203-.02-.111-.051-.243-.02-.131-.03-.324 0-.08-.02-.294-.021-.223-.031-.526 0-.314.02-.71.02-.395.101-.82.051-.253.213-.638.172-.395.395-.76.233-.365.487-.628.253-.263.476-.263.111 0 .243.141.131.132.253.365.132.223.253.517.122.283.213.587t.142.598q.06.294.07.516.01.527-.04.932-.05.396-.152.72-.101.314-.243.587-.132.264-.284.537-.162.274-.334.486l-.334.416q-.182.223-.385.374-.193.142-.385.315.091.516.162.931l.06.355q.031.172.052.324.02.142.04.243.02.092.02.112.244-.03.497 0 .263.02.496.07.243.051.426.132.192.081.303.152.548.405.77.932.233.517.274 1.064.03.425-.071.85-.101.436-.344.821-.233.395-.618.72-.375.324-.892.536l.112.77q.05.304.09.588.041.294.062.405.09.608.07.993-.02.395-.151.638-.112.203-.264.395-.142.193-.344.345-.203.151-.476.253-.264.101-.608.121-.264.02-.628-.05-.365-.061-.7-.233-.333-.162-.577-.446-.243-.284-.273-.699-.02-.243.03-.496.051-.243.173-.446.131-.193.334-.324.213-.132.516-.152.183-.01.365.05.193.071.355.193.162.122.263.304t.122.395q.03.375-.233.72-.264.354-.892.526.101.142.385.263.284.132.71.132.445 0 .85-.263.415-.264.638-.659.142-.263.142-.689 0-.415-.05-.84-.02-.071-.061-.355-.04-.273-.092-.577-.05-.355-.121-.79zm.213-12.834q-.395 0-.7.375-.293.364-.486.931-.182.568-.243 1.246-.06.68.03 1.307.335-.253.7-.608.364-.364.658-.77.304-.405.486-.82.193-.415.162-.79-.01-.122-.04-.274-.03-.152-.101-.283-.071-.132-.183-.223-.111-.091-.283-.091zm-.02 12.42q.435-.153.678-.396.243-.243.355-.527.121-.283.131-.567.02-.284.01-.507-.02-.182-.09-.455-.062-.274-.244-.527t-.517-.415q-.334-.173-.891-.142zm-.831-3.516q-.416.02-.69.172-.263.142-.425.355-.152.202-.212.435-.051.233-.04.416.01.182.08.374.071.193.182.355.122.172.254.304.142.142.283.213-.02.02-.04.03-.01.02-.03.04-.02.02-.03.041-.315-.152-.558-.365-.233-.202-.304-.293-.111-.152-.192-.274-.081-.121-.132-.263-.05-.132-.091-.294-.03-.162-.04-.385-.021-.213.03-.446.05-.243.162-.486.121-.243.304-.466.192-.233.445-.436.132-.1.233-.162.112-.06.203-.1.091-.052.182-.072.101-.03.213-.06l-.304-1.834q-.122.07-.395.283-.274.213-.598.507-.324.294-.648.638-.314.334-.517.648-.364.578-.567 1.064-.203.486-.152 1.054.04.638.385 1.185.355.557.902.932t1.246.516q.699.152 1.448-.03-.162-1.003-.294-1.793-.06-.334-.111-.658-.05-.325-.101-.578-.04-.253-.061-.405l-.02-.162z" style="font-style:normal;-inkscape-font-specification:&quot;Maestro, Maestro&quot;;fill:#7d7d7d;fill-opacity:1;stroke:none;stroke-opacity:1"/>
    </g>
  </g>
</svg>
