<?xml version="1.0" encoding="UTF-8" standalone="no"?>
<svg xmlns="http://www.w3.org/2000/svg" xml:space="preserve" id="Ebene_1" width="1152.862" height="421.767" x="0" y="0" version="1.1" viewBox="0 0 1152.862 421.767">
  <style id="style2" type="text/css">
    .st0{fill:none;stroke:#000;stroke-width:.4}.st1{enable-background:new}.st2{stroke-width:.56}.st2,.st4,.st6{fill:none;stroke:#000}.st4{stroke-width:.39}.st6{stroke-width:.4;stroke-miterlimit:10}
  </style>
  <path id="line4" d="M151.381 205.091v54" class="st0" style="fill:none;stroke:#000;stroke-width:.40000001"/>
  <g id="g8" class="st1" style="enable-background:new" transform="translate(66.281 37.89)">
    <path id="path6" d="M95 180.7c-.3 0-.5.1-.8.1h-.8c-.2 0-.5-.1-.7-.1-.2 0-.4-.1-.6-.2-.7-.3-1.3-.7-1.7-1.1-.4-.4-.8-.8-1-1.2-.2-.4-.4-.8-.5-1.2-.1-.4-.2-.9-.2-1.3 0-.5 0-.9.1-1.4.1-.5.3-.9.5-1.3s.5-.8.7-1.2c.3-.4.6-.7.8-.9.3-.3.7-.6 1-.9.3-.3.7-.6 1.2-.9v-.6c0-.1 0-.2-.1-.3v-2.4c0-.4.1-.7.1-1.1 0-.2.1-.5.3-.9.1-.3.3-.7.5-1 .2-.3.4-.6.6-.8.2-.2.4-.4.6-.4.1 0 .2.1.3.2.1.1.2.3.3.5.1.2.2.4.3.7.1.3.2.5.3.8.1.3.1.5.2.8 0 .3.1.5.1.7 0 .5 0 .9-.1 1.2 0 .4-.1.7-.2 1-.1.3-.2.5-.3.8-.1.3-.2.5-.4.7-.1.2-.3.5-.4.6-.1.2-.3.4-.5.6-.2.2-.3.4-.5.5-.2.1-.3.3-.5.4.1.5.2.9.2 1.2 0 .2.1.3.1.5s0 .3.1.4c.1.1 0 .2.1.3v.2h.7c.3 0 .4.1.7.1.2 0 .4.1.6.2.2.1.3.1.4.2.5.4.8.8 1 1.2.2.5.3.9.4 1.4 0 .4 0 .8-.1 1.1-.1.4-.2.7-.5 1.1-.2.3-.5.7-.8 1-.3.3-.7.5-1.2.7.1.4.1.7.1 1 0 .3.1.5.1.8 0 .3.1.4.1.5.1.5.1 1 .1 1.3 0 .3-.1.6-.2.8-.1.2-.2.4-.3.5-.1.2-.3.3-.5.5l-.6.3c-.2.1-.5.1-.8.2-.2 0-.5 0-.8-.1l-.9-.3c-.3-.1-.6-.3-.8-.6-.2-.3-.3-.6-.4-.9v-.7c0-.3.1-.4.2-.6.1-.2.3-.3.4-.4.1-.1.4-.2.7-.2.2 0 .3 0 .5.1s.3.1.5.2c.1.1.3.2.4.4.1.2.1.3.2.5 0 .3-.1.7-.3 1-.2.3-.6.5-1.2.7.1.1.3.2.5.4s.6.2.9.2c.4 0 .8-.1 1.1-.4.4-.2.6-.5.8-.9.1-.2.2-.5.2-.9s0-.7-.1-1.1c0-.1 0-.2-.1-.5 0-.2-.1-.5-.1-.8.1-.2.1-.6 0-1zm-1.7-5c-.2.1-.4.3-.6.5l-.3.6c-.1.2-.1.4-.1.6 0 .2 0 .3.1.5s.1.3.2.5.2.3.3.4c.1.1.2.2.4.3v.1c-.3-.1-.5-.3-.7-.5l-.4-.4c-.1-.1-.2-.3-.3-.4-.1-.1-.1-.2-.2-.3 0-.1-.1-.3-.1-.4 0-.1-.1-.3-.1-.5v-.6c0-.2.1-.4.2-.6.1-.2.2-.4.4-.6l.6-.6c.1-.1.2-.2.3-.2.1-.1.2-.1.3-.1.1 0 .2-.1.2-.1.1 0 .2 0 .3-.1l-.4-2.4c-.1.1-.3.2-.5.4s-.5.4-.8.7c-.3.3-.6.5-.9.8-.3.3-.5.6-.7.9-.3.5-.6 1-.8 1.4-.2.4-.2.9-.2 1.4 0 .6.2 1.1.5 1.6s.7.9 1.2 1.2c.5.3 1 .6 1.7.7.6.1 1.3.1 1.9 0-.1-.9-.3-1.7-.4-2.4-.1-.3-.1-.6-.1-.9 0-.3-.1-.5-.1-.8 0-.2-.1-.5-.1-.8-.3-.1-.6 0-.8.1zm2-12.1c-.4 0-.7.2-.9.5-.3.3-.5.7-.6 1.2-.2.5-.3 1.1-.3 1.7-.1.6 0 1.2 0 1.7.3-.2.6-.5.9-.8.3-.3.6-.7.9-1 .3-.4.5-.7.6-1.1.1-.4.2-.7.2-1.1 0-.1 0-.2-.1-.4s-.1-.3-.1-.4c-.1-.1-.1-.2-.2-.3-.1.1-.2 0-.4 0zm0 16.6c.4-.1.7-.3.9-.5.2-.2.4-.5.5-.7.1-.2.2-.5.2-.8v-.7c0-.2-.1-.4-.1-.6-.1-.2-.2-.5-.3-.7-.2-.2-.4-.4-.7-.6-.3-.2-.7-.2-1.2-.2z"/>
  </g>
  <g id="g12" class="st1" style="enable-background:new" transform="translate(66.281 37.89)">
    <path id="path10" d="M95 221.2c-.3 0-.5.1-.8.1h-.8c-.2 0-.5-.1-.7-.1-.2 0-.4-.1-.6-.2-.7-.3-1.3-.7-1.7-1.1-.4-.4-.8-.8-1-1.2-.2-.4-.4-.8-.5-1.2-.1-.4-.2-.9-.2-1.3 0-.5 0-.9.1-1.4.1-.5.3-.9.5-1.3s.5-.8.7-1.2c.3-.4.6-.7.8-.9.3-.3.7-.6 1-.9.3-.3.7-.6 1.2-.9v-.6c0-.1 0-.2-.1-.3v-2.4c0-.4.1-.7.1-1.1 0-.2.1-.5.3-.9.1-.3.3-.7.5-1 .2-.3.4-.6.6-.8.2-.2.4-.4.6-.4.1 0 .2.1.3.2.1.1.2.3.3.5.1.2.2.4.3.7.1.3.2.5.3.8.1.3.1.5.2.8 0 .3.1.5.1.7 0 .5 0 .9-.1 1.2 0 .4-.1.7-.2 1-.1.3-.2.5-.3.8-.1.3-.2.5-.4.7-.1.2-.3.5-.4.6-.1.2-.3.4-.5.6-.2.2-.3.4-.5.5-.2.1-.3.3-.5.4.1.5.2.9.2 1.2 0 .2.1.3.1.5s0 .3.1.4c.1.1 0 .2.1.3v.2h.7c.3 0 .4.1.7.1.2 0 .4.1.6.2.2.1.3.1.4.2.5.4.8.8 1 1.2.2.5.3.9.4 1.4 0 .4 0 .8-.1 1.1-.1.4-.2.7-.5 1.1-.2.3-.5.7-.8 1-.3.3-.7.5-1.2.7.1.4.1.7.1 1 0 .3.1.5.1.8 0 .3.1.4.1.5.1.5.1 1 .1 1.3 0 .3-.1.6-.2.8-.1.2-.2.4-.3.5-.1.2-.3.3-.5.5l-.6.3c-.2.1-.5.1-.8.2-.2 0-.5 0-.8-.1l-.9-.3c-.3-.1-.6-.3-.8-.6-.2-.3-.3-.6-.4-.9v-.7c0-.3.1-.4.2-.6.1-.2.3-.3.4-.4.1-.1.4-.2.7-.2.2 0 .3 0 .5.1s.3.1.5.2c.1.1.3.2.4.4.1.2.1.3.2.5 0 .3-.1.7-.3 1-.2.3-.6.5-1.2.7.1.1.3.2.5.4s.6.2.9.2c.4 0 .8-.1 1.1-.4.4-.2.6-.5.8-.9.1-.2.2-.5.2-.9s0-.7-.1-1.1c0-.1 0-.2-.1-.5 0-.2-.1-.5-.1-.8.1-.2.1-.6 0-1zm-1.7-5c-.2.1-.4.3-.6.5l-.3.6c-.1.2-.1.4-.1.6 0 .2 0 .3.1.5s.1.3.2.5.2.3.3.4c.1.1.2.2.4.3v.1c-.3-.1-.5-.3-.7-.5l-.4-.4c-.1-.1-.2-.3-.3-.4-.1-.1-.1-.2-.2-.3 0-.1-.1-.3-.1-.4 0-.1-.1-.3-.1-.5v-.6c0-.2.1-.4.2-.6.1-.2.2-.4.4-.6l.6-.6c.1-.1.2-.2.3-.2.1-.1.2-.1.3-.1.1 0 .2-.1.2-.1.1 0 .2 0 .3-.1l-.4-2.4c-.1.1-.3.2-.5.4s-.5.4-.8.7c-.3.3-.6.5-.9.8-.3.3-.5.6-.7.9-.3.5-.6 1-.8 1.4-.2.4-.2.9-.2 1.4 0 .6.2 1.1.5 1.6s.7.9 1.2 1.2c.5.3 1 .6 1.7.7.6.1 1.3.1 1.9 0-.1-.9-.3-1.7-.4-2.4-.1-.3-.1-.6-.1-.9 0-.3-.1-.5-.1-.8 0-.2-.1-.5-.1-.8-.3-.1-.6 0-.8.1zm2-12.1c-.4 0-.7.2-.9.5-.3.3-.5.7-.6 1.2-.2.5-.3 1.1-.3 1.7-.1.6 0 1.2 0 1.7.3-.2.6-.5.9-.8.3-.3.6-.7.9-1 .3-.4.5-.7.6-1.1.1-.4.2-.7.2-1.1 0-.1 0-.2-.1-.4s-.1-.3-.1-.4c-.1-.1-.1-.2-.2-.3-.1.1-.2 0-.4 0zm0 16.6c.4-.1.7-.3.9-.5.2-.2.4-.5.5-.7.1-.2.2-.5.2-.8v-.7c0-.2-.1-.4-.1-.6-.1-.2-.2-.5-.3-.7-.2-.2-.4-.4-.7-.6-.3-.2-.8-.1-1.3-.1Z"/>
  </g>
  <path id="line14" d="M364.181 205.091v13.5" class="st0" style="fill:none;stroke:#000;stroke-width:.40000001"/>
  <path id="line16" d="M364.181 245.591v13.5" class="st0" style="fill:none;stroke:#000;stroke-width:.40000001"/>
  <path id="line18" d="M521.281 205.091v13.5" class="st0" style="fill:none;stroke:#000;stroke-width:.40000001"/>
  <path id="line20" d="M521.281 245.591v13.5" class="st0" style="fill:none;stroke:#000;stroke-width:.40000001"/>
  <path id="line22" d="M151.181 164.591h850.5" class="st0" style="fill:none;stroke:#000;stroke-width:.40000001"/>
  <path id="line24" d="M151.181 167.991h850.5" class="st0" style="fill:none;stroke:#000;stroke-width:.40000001"/>
  <path id="line26" d="M151.181 171.391h850.5" class="st0" style="fill:none;stroke:#000;stroke-width:.40000001"/>
  <path id="line28" d="M151.181 174.691h850.5" class="st0" style="fill:none;stroke:#000;stroke-width:.40000001"/>
  <path id="line30" d="M151.181 178.091h850.5" class="st0" style="fill:none;stroke:#000;stroke-width:.40000001"/>
  <path id="line32" d="M151.181 205.091h850.5" class="st0" style="fill:none;stroke:#000;stroke-width:.40000001"/>
  <path id="line34" d="M151.181 208.491h850.5" class="st0" style="fill:none;stroke:#000;stroke-width:.40000001"/>
  <path id="line36" d="M151.181 211.891h850.5" class="st0" style="fill:none;stroke:#000;stroke-width:.40000001"/>
  <path id="line38" d="M151.181 215.191h850.5" class="st0" style="fill:none;stroke:#000;stroke-width:.40000001"/>
  <path id="line40" d="M151.181 218.591h850.5" class="st0" style="fill:none;stroke:#000;stroke-width:.40000001"/>
  <path id="line42" d="M151.181 245.591h850.5" class="st0" style="fill:none;stroke:#000;stroke-width:.40000001"/>
  <path id="line44" d="M151.181 248.991h850.5" class="st0" style="fill:none;stroke:#000;stroke-width:.40000001"/>
  <path id="line46" d="M151.181 252.391h850.5" class="st0" style="fill:none;stroke:#000;stroke-width:.40000001"/>
  <path id="line48" d="M151.181 255.691h850.5" class="st0" style="fill:none;stroke:#000;stroke-width:.40000001"/>
  <path id="line50" d="M151.181 259.091h850.5" class="st0" style="fill:none;stroke:#000;stroke-width:.40000001"/>
  <g id="g54" class="st1" style="enable-background:new" transform="translate(66.281 37.89)">
    <path id="path52" d="M110.6 177.4c.1-.2.2-.5.4-.7.2-.2.4-.4.6-.5.2-.2.5-.3.8-.4.3-.1.6-.1.9-.1.3 0 .5 0 .8.1.2.1.4.2.5.4.1.2.2.3.2.6 0 .2 0 .4-.1.7-.1.3-.2.5-.4.7l-.6.6c-.2.2-.5.3-.8.4-.3.1-.6.1-.8.1-.3 0-.5 0-.7-.1-.2-.1-.4-.2-.5-.4-.1-.2-.2-.3-.2-.6-.2-.4-.2-.6-.1-.8z"/>
  </g>
  <g id="g58" class="st1" style="enable-background:new" transform="translate(66.281 37.89)">
    <path id="path56" d="M108.9 174.7v7.7h-.4v-2.9l-1.9.5v-7.8h.3v3zm-1.8 1.8v2.1l1.5-.4v-2.1z"/>
  </g>
  <g id="g62" class="st1" style="enable-background:new" transform="translate(66.281 37.89)">
    <path id="path60" d="M122.6 180.7c.1-.2.2-.5.4-.7.2-.2.4-.4.6-.5.2-.2.5-.3.8-.4.3-.1.6-.1.9-.1.3 0 .5 0 .8.1.2.1.4.2.5.4.1.2.2.3.2.6 0 .2 0 .4-.1.7-.1.3-.2.5-.4.7l-.6.6c-.2.2-.5.3-.8.4-.3.1-.6.1-.8.1-.3 0-.5 0-.7-.1-.2-.1-.4-.2-.5-.4-.1-.2-.2-.3-.2-.6-.2-.3-.2-.5-.1-.8z"/>
  </g>
  <g id="g66" class="st1" style="enable-background:new" transform="translate(66.281 37.89)">
    <path id="path64" d="M120.9 178.1v7.7h-.4v-2.9l-1.9.5v-7.8h.3v3zm-1.9 1.8v2.1l1.5-.4v-2.1z"/>
  </g>
  <g id="g70" class="st1" style="enable-background:new" transform="translate(66.281 37.89)">
    <path id="path68" d="M138.6 180.7c.1-.2.2-.5.4-.7.2-.2.4-.4.6-.5.2-.2.5-.3.8-.4.3-.1.6-.1.9-.1.3 0 .5 0 .8.1.2.1.4.2.5.4.1.2.2.3.2.6 0 .2 0 .4-.1.7-.1.3-.2.5-.4.7l-.6.6c-.2.2-.5.3-.8.4-.3.1-.6.1-.8.1-.3 0-.5 0-.7-.1-.2-.1-.4-.2-.5-.4-.1-.2-.2-.3-.2-.6-.2-.3-.2-.5-.1-.8z"/>
  </g>
  <g id="g74" class="st1" style="enable-background:new" transform="translate(66.281 37.89)">
    <path id="path72" d="M134.9 175.9v3.3c.1-.1.2-.2.4-.3.1-.1.2-.1.3-.2.1 0 .2-.1.3-.1h.4c.2 0 .3 0 .5.1.1.1.3.2.4.3.1.1.2.2.2.4.1.1.1.3.1.4v.4c0 .1-.1.3-.1.4-.1.2-.2.3-.3.4-.1.1-.3.2-.4.3l-.2.2c-.1.1-.2.2-.4.3-.2.1-.3.2-.5.3-.2.1-.3.2-.4.3-.1.1-.3.2-.5.3v-8h.4v1.2zm1.1 3.6c0-.1-.1-.1-.2-.1s-.2-.1-.2-.1c-.1 0-.2 0-.3.1-.1.1-.2.1-.2.3-.1.2-.1.4-.1.6v1.9c.1-.1.2-.2.3-.2.1-.1.2-.1.2-.2s.2-.2.2-.2c.1-.1.2-.2.3-.4.1-.1.2-.3.2-.5.1-.2.1-.4 0-.6 0-.3 0-.5-.2-.6z"/>
  </g>
  <g id="g78" class="st1" style="enable-background:new" transform="translate(66.281 37.89)">
    <path id="path76" d="M154.5 179c.1-.2.2-.5.4-.7.2-.2.4-.4.6-.5.2-.2.5-.3.8-.4.3-.1.6-.1.9-.1.3 0 .5 0 .8.1.2.1.4.2.5.4.1.2.2.3.2.6 0 .2 0 .4-.1.7-.1.3-.2.5-.4.7l-.6.6c-.2.2-.5.3-.8.4-.3.1-.6.1-.8.1-.3 0-.5 0-.7-.1-.2-.1-.4-.2-.5-.4-.1-.2-.2-.3-.2-.6-.2-.3-.2-.5-.1-.8z"/>
  </g>
  <g id="g82" class="st1" style="enable-background:new" transform="translate(66.281 37.89)">
    <path id="path80" d="M150.6 176.9v-2.2h.4v2.1l1.3-.4v-2h.4v1.8l.5-.2v1.4l-.5.2v2l.5-.2v1.4l-.5.2v2.2h-.4v-2.1l-1.3.4v2h-.4v-1.9l-.6.2v-1.4l.6-.2v-2l-.6.2V177Zm.4 1.3v2l1.3-.4v-2z"/>
  </g>
  <path id="line84" d="M235.781 221.991h6" class="st2" style="fill:none;stroke:#000;stroke-width:.56"/>
  <g id="g88" class="st1" style="enable-background:new" transform="translate(66.281 37.89)">
    <path id="path86" d="M170.4 184.1c.1-.2.2-.5.4-.7.2-.2.4-.4.6-.5.2-.2.5-.3.8-.4.3-.1.6-.1.9-.1.3 0 .5 0 .8.1.2.1.4.2.5.4.1.2.2.3.2.6 0 .2 0 .4-.1.7-.1.3-.2.5-.4.7l-.6.6c-.2.2-.5.3-.8.4-.3.1-.6.1-.8.1-.3 0-.5 0-.7-.1-.2-.1-.4-.2-.5-.4-.1-.2-.2-.3-.2-.6-.2-.3-.2-.6-.1-.8z"/>
  </g>
  <g id="g92" class="st1" style="enable-background:new" transform="translate(66.281 37.89)">
    <path id="path90" d="M166.5 182v-2.2h.4v2.1l1.3-.4v-2h.4v1.8l.5-.2v1.4l-.5.2v2l.5-.2v1.4l-.5.2v2.2h-.4v-2.1l-1.3.4v2h-.4v-1.9l-.6.2v-1.4l.6-.2v-2l-.6.2v-1.4zm.4 1.3v2l1.3-.4v-2z"/>
  </g>
  <g id="g96" class="st1" style="enable-background:new" transform="translate(66.281 37.89)">
    <path id="path94" d="M186.3 179c.1-.2.2-.5.4-.7.2-.2.4-.4.6-.5.2-.2.5-.3.8-.4.3-.1.6-.1.9-.1.3 0 .5 0 .8.1.2.1.4.2.5.4.1.2.2.3.2.6 0 .2 0 .4-.1.7-.1.3-.2.5-.4.7l-.6.6c-.2.2-.5.3-.8.4-.3.1-.6.1-.8.1-.3 0-.5 0-.7-.1-.2-.1-.4-.2-.5-.4-.1-.2-.2-.3-.2-.6-.2-.3-.2-.5-.1-.8z"/>
  </g>
  <g id="g100" class="st1" style="enable-background:new" transform="translate(66.281 37.89)">
    <path id="path98" d="M184.6 176.4v7.7h-.4v-2.9l-1.9.5v-7.8h.3v3zm-1.9 1.8v2.1l1.5-.4v-2.1z"/>
  </g>
  <g id="g104" class="st1 tkk" style="enable-background:new" transform="translate(66.281 37.89)">
    <path id="path102" d="M202.3 182.4c.1-.2.2-.5.4-.7.2-.2.4-.4.6-.5.2-.2.5-.3.8-.4.3-.1.6-.1.9-.1.3 0 .5 0 .8.1.2.1.4.2.5.4.1.2.2.3.2.6 0 .2 0 .4-.1.7-.1.3-.2.5-.4.7l-.6.6c-.2.2-.5.3-.8.4-.3.1-.6.1-.8.1-.3 0-.5 0-.7-.1-.2-.1-.4-.2-.5-.4-.1-.2-.2-.3-.2-.6-.2-.3-.2-.5-.1-.8z"/>
  </g>
  <path id="line106" d="M283.581 221.991h6" class="st2" style="fill:none;stroke:#000;stroke-width:.56"/>
  <g id="g110" class="st1" style="enable-background:new" transform="translate(66.281 37.89)">
    <path id="path108" d="M218.2 185.8c.1-.2.2-.5.4-.7.2-.2.4-.4.6-.5.2-.2.5-.3.8-.4.3-.1.6-.1.9-.1.3 0 .5 0 .8.1.2.1.4.2.5.4.1.2.2.3.2.6 0 .2 0 .4-.1.7-.1.3-.2.5-.4.7l-.6.6c-.2.2-.5.3-.8.4-.3.1-.6.1-.8.1-.3 0-.5 0-.7-.1-.2-.1-.4-.2-.5-.4-.1-.2-.2-.3-.2-.6-.2-.3-.2-.6-.1-.8z"/>
  </g>
  <g id="g114" class="st1" style="enable-background:new" transform="translate(66.281 37.89)">
    <path id="path112" d="M216.5 183.1v7.7h-.4V188l-1.9.5v-7.8h.3v3zm-1.9 1.8v2.1l1.5-.4v-2.1z"/>
  </g>
  <path id="line116" d="M299.481 221.991h6" class="st2" style="fill:none;stroke:#000;stroke-width:.56"/>
  <g id="g120" class="st1" style="enable-background:new" transform="translate(66.281 37.89)">
    <path id="path118" d="M234.1 185.8c.1-.2.2-.5.4-.7.2-.2.4-.4.6-.5.2-.2.5-.3.8-.4.3-.1.6-.1.9-.1.3 0 .5 0 .8.1.2.1.4.2.5.4.1.2.2.3.2.6 0 .2 0 .4-.1.7-.1.3-.2.5-.4.7l-.6.6c-.2.2-.5.3-.8.4-.3.1-.6.1-.8.1-.3 0-.5 0-.7-.1-.2-.1-.4-.2-.5-.4-.1-.2-.2-.3-.2-.6-.2-.3-.2-.6-.1-.8z"/>
  </g>
  <g id="g124" class="st1" style="enable-background:new" transform="translate(66.281 37.89)">
    <path id="path122" d="M230.4 181v3.3c.1-.1.2-.2.4-.3.1-.1.2-.1.3-.2.1 0 .2-.1.3-.1h.4c.2 0 .3 0 .5.1.1.1.3.2.4.3.1.1.2.2.2.4.1.1.1.3.1.4v.4c0 .1-.1.3-.1.4-.1.2-.2.3-.3.4-.1.1-.3.2-.4.3l-.2.2c-.1.1-.2.2-.4.3-.2.1-.3.2-.5.3-.2.1-.3.2-.4.3-.1.1-.3.2-.5.3v-8h.4v1.2zm1.1 3.6c0-.1-.1-.1-.2-.1s-.2-.1-.2-.1c-.1 0-.2 0-.3.1-.1.1-.2.1-.2.3-.1.2-.1.4-.1.6v1.9c.1-.1.2-.2.3-.2.1-.1.2-.1.2-.2s.2-.2.2-.2c.1-.1.2-.2.3-.4.1-.1.2-.3.2-.5.1-.2.1-.4 0-.6 0-.3-.1-.5-.2-.6z"/>
  </g>
  <path id="line160" d="M347.281 225.391h6" class="st2" style="fill:none;stroke:#000;stroke-width:.56"/>
  <path id="line162" d="M347.281 221.991h6" class="st2" style="fill:none;stroke:#000;stroke-width:.56"/>
  <g id="g166" class="st1" style="enable-background:new" transform="translate(66.281 37.89)">
    <path id="path164" d="M281.9 189.2c.1-.2.2-.5.4-.7.2-.2.4-.4.6-.5.2-.2.5-.3.8-.4.3-.1.6-.1.9-.1.3 0 .5 0 .8.1.2.1.4.2.5.4.1.2.2.3.2.6 0 .2 0 .4-.1.7-.1.3-.2.5-.4.7l-.6.6c-.2.2-.5.3-.8.4-.3.1-.6.1-.8.1-.3 0-.5 0-.7-.1-.2-.1-.4-.2-.5-.4-.1-.2-.2-.3-.2-.6-.2-.4-.2-.6-.1-.8z"/>
  </g>
  <g id="g170" class="st1" style="enable-background:new" transform="translate(66.281 37.89)">
    <path id="path168" d="M278 187.1v-2.2h.4v2.1l1.3-.4v-2h.4v1.8l.5-.2v1.4l-.5.2v2l.5-.2v1.4l-.5.2v2.2h-.4v-2.1l-1.3.4v2h-.4v-1.9l-.6.2v-1.4l.6-.2v-2l-.6.2v-1.4zm.4 1.2v2l1.3-.4v-2z"/>
  </g>
  <g id="g174" class="st1" style="enable-background:new" transform="translate(66.281 37.89)">
    <path id="path172" d="M111.2 217.9c.1-.2.2-.5.4-.7.2-.2.4-.4.6-.5.2-.2.5-.3.8-.4.3-.1.6-.1.9-.1.3 0 .5 0 .8.1.2.1.4.2.5.4.1.2.2.3.2.6 0 .2 0 .4-.1.7-.1.3-.2.5-.4.7l-.6.6c-.2.2-.5.3-.8.4-.3.1-.6.1-.8.1-.3 0-.5 0-.7-.1-.2-.1-.4-.2-.5-.4-.1-.2-.2-.3-.2-.6-.2-.4-.2-.6-.1-.8z"/>
  </g>
  <g id="g178" class="st1" style="enable-background:new" transform="translate(66.281 37.89)">
    <path id="path176" d="M109.5 215.2v7.7h-.4V220l-1.9.5v-7.8h.3v3zm-1.9 1.8v2.1l1.5-.4v-2.1z"/>
  </g>
  <g id="g182" class="st1" style="enable-background:new" transform="translate(66.281 37.89)">
    <path id="path180" d="M122.6 214.5c.1-.2.2-.5.4-.7.2-.2.4-.4.6-.5.2-.2.5-.3.8-.4.3-.1.6-.1.9-.1.3 0 .5 0 .8.1.2.1.4.2.5.4.1.2.2.3.2.6 0 .2 0 .4-.1.7-.1.3-.2.5-.4.7l-.6.6c-.2.2-.5.3-.8.4-.3.1-.6.1-.8.1-.3 0-.5 0-.7-.1-.2-.1-.4-.2-.5-.4-.1-.2-.2-.3-.2-.6-.2-.3-.2-.6-.1-.8z"/>
  </g>
  <g id="g186" class="st1" style="enable-background:new" transform="translate(66.281 37.89)">
    <path id="path184" d="M118.9 209.7v3.3c.1-.1.2-.2.4-.3.1-.1.2-.1.3-.2.1 0 .2-.1.3-.1h.4c.2 0 .3 0 .5.1.1.1.3.2.4.3.1.1.2.2.2.4.1.1.1.3.1.4v.4c0 .1-.1.3-.1.4-.1.2-.2.3-.3.4-.1.1-.3.2-.4.3l-.2.2c-.1.1-.2.2-.4.3-.2.1-.3.2-.5.3-.2.1-.3.2-.4.3-.1.1-.3.2-.5.3v-8h.4v1.2zm1.1 3.5c0-.1-.1-.1-.2-.1s-.2-.1-.2-.1c-.1 0-.2 0-.3.1-.1.1-.2.1-.2.3-.1.2-.1.4-.1.6v1.9c.1-.1.2-.2.3-.2.1-.1.2-.1.2-.2s.2-.2.2-.2c.1-.1.2-.2.3-.4.1-.1.2-.3.2-.5.1-.2.1-.4 0-.6 0-.2-.1-.4-.2-.6z"/>
  </g>
  <g id="g190" class="st1" style="enable-background:new" transform="translate(66.281 37.89)">
    <path id="path188" d="M138.6 214.5c.1-.2.2-.5.4-.7.2-.2.4-.4.6-.5.2-.2.5-.3.8-.4.3-.1.6-.1.9-.1.3 0 .5 0 .8.1.2.1.4.2.5.4.1.2.2.3.2.6 0 .2 0 .4-.1.7-.1.3-.2.5-.4.7l-.6.6c-.2.2-.5.3-.8.4-.3.1-.6.1-.8.1-.3 0-.5 0-.7-.1-.2-.1-.4-.2-.5-.4-.1-.2-.2-.3-.2-.6-.2-.3-.2-.6-.1-.8z"/>
  </g>
  <g id="g194" class="st1" style="enable-background:new" transform="translate(66.281 37.89)">
    <path id="path192" d="M136.9 211.8v7.7h-.4v-2.9l-1.9.5v-7.8h.3v3zm-1.9 1.8v2.1l1.5-.4v-2.1z"/>
  </g>
  <g id="g198" class="st1" style="enable-background:new" transform="translate(66.281 37.89)">
    <path id="path196" d="M154.5 217.9c.1-.2.2-.5.4-.7.2-.2.4-.4.6-.5.2-.2.5-.3.8-.4.3-.1.6-.1.9-.1.3 0 .5 0 .8.1.2.1.4.2.5.4.1.2.2.3.2.6 0 .2 0 .4-.1.7-.1.3-.2.5-.4.7l-.6.6c-.2.2-.5.3-.8.4-.3.1-.6.1-.8.1-.3 0-.5 0-.7-.1-.2-.1-.4-.2-.5-.4-.1-.2-.2-.3-.2-.6-.2-.4-.2-.6-.1-.8z"/>
  </g>
  <g id="g202" class="st1" style="enable-background:new" transform="translate(66.281 37.89)">
    <path id="path200" d="M150.6 215.7v-2.2h.4v2.1l1.3-.4v-2h.4v1.8l.5-.2v1.4l-.5.2v2l.5-.2v1.4l-.5.2v2.2h-.4v-2l-1.3.4v2h-.4v-1.9l-.6.2v-1.4l.6-.2v-2l-.6.2v-1.4zm.4 1.3v2l1.3-.4v-2z"/>
  </g>
  <g id="g206" class="st1" style="enable-background:new" transform="translate(66.281 37.89)">
    <path id="path204" d="M170.4 212.8c.1-.2.2-.5.4-.7.2-.2.4-.4.6-.5.2-.2.5-.3.8-.4.3-.1.6-.1.9-.1.3 0 .5 0 .8.1.2.1.4.2.5.4.1.2.2.3.2.6 0 .2 0 .4-.1.7-.1.3-.2.5-.4.7l-.6.6c-.2.2-.5.3-.8.4-.3.1-.6.1-.8.1-.3 0-.5 0-.7-.1-.2-.1-.4-.2-.5-.4-.1-.2-.2-.3-.2-.6-.2-.3-.2-.6-.1-.8z"/>
  </g>
  <g id="g210" class="st1" style="enable-background:new" transform="translate(66.281 37.89)">
    <path id="path208" d="M166.5 210.7v-2.2h.4v2.1l1.3-.4v-2h.4v1.8l.5-.2v1.4l-.5.2v2l.5-.2v1.4l-.5.2v2.2h-.4v-2.1l-1.3.4v2h-.4v-1.9l-.6.2v-1.4l.6-.2v-2l-.6.2v-1.4zm.4 1.2v2l1.3-.4v-2z"/>
  </g>
  <g id="g214" class="st1" style="enable-background:new" transform="translate(66.281 37.89)">
    <path id="path212" d="M186.3 216.2c.1-.2.2-.5.4-.7.2-.2.4-.4.6-.5.2-.2.5-.3.8-.4.3-.1.6-.1.9-.1.3 0 .5 0 .8.1.2.1.4.2.5.4.1.2.2.3.2.6 0 .2 0 .4-.1.7-.1.3-.2.5-.4.7l-.6.6c-.2.2-.5.3-.8.4-.3.1-.6.1-.8.1-.3 0-.5 0-.7-.1-.2-.1-.4-.2-.5-.4-.1-.2-.2-.3-.2-.6-.2-.4-.2-.6-.1-.8z"/>
  </g>
  <g id="g218" class="st1" style="enable-background:new" transform="translate(66.281 37.89)">
    <path id="path216" d="M184.6 213.5v7.7h-.4v-2.9l-1.9.5V211h.3v3zm-1.9 1.8v2.1l1.5-.4v-2.1z"/>
  </g>
  <g id="g222" class="st1" style="enable-background:new" transform="translate(66.281 37.89)">
    <path id="path220" d="M202.3 212.8c.1-.2.2-.5.4-.7.2-.2.4-.4.6-.5.2-.2.5-.3.8-.4.3-.1.6-.1.9-.1.3 0 .5 0 .8.1.2.1.4.2.5.4.1.2.2.3.2.6 0 .2 0 .4-.1.7-.1.3-.2.5-.4.7l-.6.6c-.2.2-.5.3-.8.4-.3.1-.6.1-.8.1-.3 0-.5 0-.7-.1-.2-.1-.4-.2-.5-.4-.1-.2-.2-.3-.2-.6-.2-.3-.2-.6-.1-.8z"/>
  </g>
  <g id="g226" class="st1" style="enable-background:new" transform="translate(66.281 37.89)">
    <path id="path224" d="M200.6 210.1v7.7h-.4V215l-1.9.5v-7.8h.3v3zm-1.9 1.8v2.1l1.5-.4v-2.1z"/>
  </g>
  <g id="g230" class="st1" style="enable-background:new" transform="translate(66.281 37.89)">
    <path id="path228" d="M218.2 209.4c.1-.2.2-.5.4-.7.2-.2.4-.4.6-.5.2-.2.5-.3.8-.4.3-.1.6-.1.9-.1.3 0 .5 0 .8.1.2.1.4.2.5.4.1.2.2.3.2.6 0 .2 0 .4-.1.7-.1.3-.2.5-.4.7l-.6.6c-.2.2-.5.3-.8.4-.3.1-.6.1-.8.1-.3 0-.5 0-.7-.1-.2-.1-.4-.2-.5-.4-.1-.2-.2-.3-.2-.6-.2-.3-.2-.5-.1-.8z"/>
  </g>
  <g id="g234" class="st1" style="enable-background:new" transform="translate(66.281 37.89)">
    <path id="path232" d="M214.5 204.6v3.3c.1-.1.2-.2.4-.3.1-.1.2-.1.3-.2.1 0 .2-.1.3-.1h.4c.2 0 .3 0 .5.1.1.1.3.2.4.3.1.1.2.2.2.4.1.1.1.3.1.4v.4c0 .1-.1.3-.1.4-.1.2-.2.3-.3.4-.1.1-.3.2-.4.3l-.2.2c-.1.1-.2.2-.4.3-.2.1-.3.2-.5.3-.2.1-.3.2-.4.3-.1.1-.3.2-.5.3v-8h.4v1.2zm1.1 3.6c0-.1-.1-.1-.2-.1s-.2-.1-.2-.1c-.1 0-.2 0-.3.1-.1.1-.2.1-.2.3-.1.2-.1.4-.1.6v1.9c.1-.1.2-.2.3-.2.1-.1.2-.1.2-.2s.2-.2.2-.2c.1-.1.2-.2.3-.4.1-.1.2-.3.2-.5.1-.2.1-.4 0-.6 0-.3-.1-.5-.2-.6z"/>
  </g>
  <g id="g238" class="st1" style="enable-background:new" transform="translate(66.281 37.89)">
    <path id="path236" d="M234.1 209.4c.1-.2.2-.5.4-.7.2-.2.4-.4.6-.5.2-.2.5-.3.8-.4.3-.1.6-.1.9-.1.3 0 .5 0 .8.1.2.1.4.2.5.4.1.2.2.3.2.6 0 .2 0 .4-.1.7-.1.3-.2.5-.4.7l-.6.6c-.2.2-.5.3-.8.4-.3.1-.6.1-.8.1-.3 0-.5 0-.7-.1-.2-.1-.4-.2-.5-.4-.1-.2-.2-.3-.2-.6-.2-.3-.2-.5-.1-.8z"/>
  </g>
  <g id="g242" class="st1" style="enable-background:new" transform="translate(66.281 37.89)">
    <path id="path240" d="M232.4 206.8v7.7h-.4v-2.9l-1.9.5v-7.8h.3v3zm-1.9 1.8v2.1l1.5-.4v-2.1z"/>
  </g>
  <g id="g278" class="st1" style="enable-background:new" transform="translate(66.281 37.89)">
    <path id="path276" d="M281.9 207.7c.1-.2.2-.5.4-.7.2-.2.4-.4.6-.5.2-.2.5-.3.8-.4.3-.1.6-.1.9-.1.3 0 .5 0 .8.1.2.1.4.2.5.4.1.2.2.3.2.6 0 .2 0 .4-.1.7-.1.3-.2.5-.4.7l-.6.6c-.2.2-.5.3-.8.4-.3.1-.6.1-.8.1-.3 0-.5 0-.7-.1-.2-.1-.4-.2-.5-.4-.1-.2-.2-.3-.2-.6-.2-.3-.2-.5-.1-.8z"/>
  </g>
  <g id="g282" class="st1" style="enable-background:new" transform="translate(66.281 37.89)">
    <path id="path280" d="M278 205.6v-2.2h.4v2.1l1.3-.4v-2h.4v1.8l.5-.2v1.4l-.5.2v2l.5-.2v1.4l-.5.2v2.2h-.4v-2.1l-1.3.4v2h-.4v-1.9l-.6.2v-1.4l.6-.2v-2l-.6.2v-1.4zm.4 1.3v2l1.3-.4v-2z"/>
  </g>
  <g id="g302" class="st1" style="enable-background:new;fill:#7d7d7d;fill-opacity:1" transform="translate(42.988 37.89)">
    <path id="path300" d="m51.5 135.5.6-.1v.2c0 .1 0 .3.1.4.1.1.2.3.3.3.1.1.3.1.4.1.2 0 .4-.1.6-.2.2-.1.3-.3.5-.6s.2-.5.2-.7c0-.3-.1-.5-.2-.6-.2-.2-.4-.2-.6-.2-.2 0-.3 0-.5.1s-.3.2-.4.4H52l.7-2.5h2.4l-.1.5h-1.8l-.4 1.2c.1-.1.3-.2.4-.2.1 0 .3-.1.4-.1.4 0 .7.1.9.4.2.3.4.6.4 1s-.1.7-.2 1c-.2.3-.4.6-.7.7-.3.1-.6.3-.9.3-.3 0-.5-.1-.7-.2-.2-.1-.4-.3-.5-.5-.1-.2-.4-.4-.4-.7z" style="fill:#7d7d7d;fill-opacity:1"/>
  </g>
  <g id="g306" class="st1" style="enable-background:new;fill:#7d7d7d;fill-opacity:1" transform="translate(42.788 37.89)">
    <path id="path304" d="M52.4 174.5c.2-.1.3-.2.5-.3.2-.1.3-.1.5-.1.4 0 .7.1.9.4.2.2.4.6.4 1 0 .5-.2 1-.5 1.4-.3.3-.7.5-1.1.5-.4 0-.7-.1-1-.4-.3-.3-.4-.7-.4-1.3 0-.5.1-1 .3-1.5.1-.4.3-.7.5-1 .2-.3.4-.4.6-.6.2-.1.5-.2.7-.2.3 0 .6.1.8.3.2.2.3.5.4.9l-.6.1c0-.3-.1-.5-.2-.6-.1-.1-.3-.2-.4-.2-.2 0-.4.1-.5.2-.2.1-.3.3-.5.6-.3.4-.4.6-.4.8zm-.2 1.5c0 .3.1.5.3.7.2.2.4.3.6.3.1 0 .3-.1.5-.2s.3-.3.4-.5c.1-.2.2-.5.2-.7 0-.3-.1-.5-.2-.7-.2-.2-.4-.3-.6-.3-.3 0-.5.1-.7.4-.4.2-.5.6-.5 1z" style="fill:#7d7d7d;fill-opacity:1"/>
  </g>
  <g id="g310" class="st1 tkk" style="enable-background:new" transform="translate(66.281 37.89)">
    <path id="path308" d="m98.4 162.3 1.1-.5h.1v4.3c0 .1.1.1.1.1s.2.1.4.1v.1h-1.7v-.1c.2 0 .3 0 .4-.1.1 0 .1-.1.1-.1v-3.5c0-.1 0-.1-.1-.2s-.1 0-.1 0c-.1 0-.2 0-.3.1z"/>
  </g>
  <g id="g314" class="st1" style="enable-background:new;fill:#7d7d7d;fill-opacity:1" transform="translate(42.688 37.89)">
    <path id="path312" d="M52 217.8c.1-.3.2-.7.3-1.2.2-.6.5-1.1.8-1.6.3-.5.7-1 1.1-1.4h-2.4l.1-.5H55l-.1.5c-.5.5-1 1.1-1.4 1.8-.5.8-.8 1.7-.9 2.4z" style="fill:#7d7d7d;fill-opacity:1"/>
  </g>
  <g id="g318" class="st1 class" style="enable-background:new" transform="translate(66.281 37.89)">
    <path id="path316" d="M93.7 196.9c.1-.3.3-.5.5-.7.2-.2.4-.2.7-.2.4 0 .6.1.8.3.1.2.2.4.2.6 0 .3-.2.7-.6 1 .3.1.5.3.6.5.1.2.2.4.2.7 0 .4-.1.7-.4 1-.3.4-.8.6-1.4.6-.3 0-.5 0-.6-.1l-.2-.2c0-.1 0-.1.1-.2.1 0 .1-.1.2-.1h.2s.1.1.3.1c.2 0 .2.1.3.1h.3c.2 0 .4-.1.6-.3.2-.2.2-.4.2-.6 0-.2 0-.3-.1-.5-.1-.1-.1-.2-.2-.3-.1-.1-.2-.2-.4-.2s-.3-.1-.5-.1h-.1v-.1c.2 0 .3-.1.5-.2s.3-.2.4-.4c.1-.1.1-.3.1-.5s-.1-.4-.2-.5c-.1-.1-.3-.2-.5-.2-.3 0-.6.2-.9.5z"/>
  </g>
  <g id="g332" transform="translate(66.281 37.89)">
    <path id="path320" d="M77.9 144.6h-1.6l-2-2.8h-.6v1.7c0 .4 0 .6.1.7.1.1.3.2.5.2h.2v.2H72v-.2h.2c.3 0 .4-.1.5-.2.1-.1.1-.3.1-.6v-3.8c0-.4 0-.6-.1-.7-.1-.1-.3-.2-.5-.2H72v-.2h2.2c.6 0 1.1 0 1.4.1.3.1.6.3.8.5.2.2.3.5.3.9s-.1.7-.4 1c-.2.3-.6.5-1.1.6l1.2 1.7c.3.4.5.7.7.8.2.1.5.2.8.2zm-4.3-3.1h.2c.6 0 1-.1 1.3-.4.3-.2.4-.6.4-.9 0-.4-.1-.7-.3-.9-.2-.2-.5-.3-.9-.3-.2 0-.4 0-.7.1z"/>
    <path id="path322" d="M78.8 142.1c0 .6.1 1.1.4 1.4.3.3.6.5 1 .5.3 0 .5-.1.7-.2.2-.1.4-.4.5-.7l.1.1c-.1.4-.2.8-.5 1.1-.3.3-.7.5-1.1.5-.5 0-.9-.2-1.2-.6-.3-.4-.5-.9-.5-1.5 0-.7.2-1.2.5-1.6.4-.4.8-.6 1.3-.6s.8.1 1.1.4c.3.3.4.7.4 1.2zm0-.3h1.9c0-.3 0-.4-.1-.5-.1-.2-.2-.3-.3-.4-.1-.1-.3-.1-.5-.1s-.5.1-.7.3c-.2.1-.3.4-.3.7z"/>
    <path id="path324" d="M83.5 140.4v3.2c0 .3 0 .4.1.5 0 .1.1.1.2.2.1 0 .2.1.4.1v.2h-2v-.2c.2 0 .3 0 .4-.1l.2-.2c0-.1.1-.3.1-.5v-2.4c0-.1-.1-.2-.1-.2s-.1-.1-.2-.1-.2 0-.3.1l-.1-.2 1.2-.5h.1zm-.4-2.1c.1 0 .2 0 .3.1.1.1.1.2.1.3 0 .1 0 .2-.1.3-.1.1-.2.1-.3.1-.1 0-.2 0-.3-.1-.1-.1-.1-.2-.1-.3 0-.1 0-.2.1-.3.1 0 .2-.1.3-.1z"/>
    <path id="path326" d="M85.8 138.3v2.9c.3-.4.6-.6.8-.7.2-.1.4-.2.6-.2.2 0 .4.1.6.2.2.1.3.3.4.6.1.2.1.5.1 1v1.4c0 .3 0 .4.1.5 0 .1.1.1.1.2s.2.1.4.1v.2h-2v-.2h.1c.2 0 .3 0 .4-.1.1-.1.1-.1.2-.3v-1.8c0-.4 0-.7-.1-.9 0-.1-.1-.2-.2-.3-.1-.1-.2-.1-.4-.1-.1 0-.3 0-.4.1-.1.1-.3.2-.6.5v2.6c0 .1.1.1.2.2.1 0 .2.1.4.1v.2h-2v-.2c.2 0 .3 0 .4-.1.1 0 .1-.1.1-.2s.1-.2.1-.5v-4.3c0-.1-.1-.2-.1-.2s-.1-.1-.2-.1-.2 0-.3.1l-.1-.2 1.2-.5z"/>
    <path id="path328" d="M89.8 142.1c0 .6.1 1.1.4 1.4.3.3.6.5 1 .5.3 0 .5-.1.7-.2.2-.1.4-.4.5-.7l.1.1c-.1.4-.2.8-.5 1.1-.3.3-.7.5-1.1.5-.5 0-.9-.2-1.2-.6-.3-.4-.5-.9-.5-1.5 0-.7.2-1.2.5-1.6.4-.4.8-.6 1.3-.6s.8.1 1.1.4c.3.3.4.7.4 1.2zm0-.3h1.9c0-.3 0-.4-.1-.5-.1-.2-.2-.3-.3-.4-.1-.1-.3-.1-.5-.1s-.5.1-.7.3c-.2.1-.3.4-.3.7z"/>
    <path id="path330" d="M71.8 145.8v-.4h21v.4z"/>
  </g>
  <g id="g4504" class="tkk">
    <path id="path334" d="M310.681 176.19v8.8" style="fill:none;stroke:#000;stroke-width:.49000001"/>
  </g>
  <path id="line336" d="M372.381 225.391h6.1" class="st2" style="fill:none;stroke:#000;stroke-width:.56"/>
  <path id="line338" d="M372.381 221.991h6.1" class="st2" style="fill:none;stroke:#000;stroke-width:.56"/>
  <g id="g342" class="st1" style="enable-background:new" transform="translate(66.281 37.89)">
    <path id="path340" d="M307.1 189.2c.1-.2.2-.5.4-.7.2-.2.4-.4.6-.5.2-.2.5-.3.8-.4.3-.1.6-.1.9-.1.3 0 .5 0 .8.1.2.1.4.2.5.4.1.2.2.3.2.6 0 .2 0 .4-.1.7-.1.3-.2.5-.4.7l-.6.6c-.2.2-.5.3-.8.4-.3.1-.6.1-.8.1-.3 0-.5 0-.7-.1-.2-.1-.4-.2-.5-.4-.1-.2-.2-.3-.2-.6-.2-.4-.2-.6-.1-.8z"/>
  </g>
  <g id="g346" class="st1" style="enable-background:new" transform="translate(66.281 37.89)">
    <path id="path344" d="M303.2 187.1v-2.2h.4v2.1l1.3-.4v-2h.4v1.8l.5-.2v1.4l-.5.2v2l.5-.2v1.4l-.5.2v2.2h-.4v-2.1l-1.3.4v2h-.4v-1.9l-.6.2v-1.4l.6-.2v-2l-.6.2v-1.4zm.4 1.2v2l1.3-.4v-2z"/>
  </g>
  <path id="line378" d="M411.981 221.991h6" class="st2" style="fill:none;stroke:#000;stroke-width:.56"/>
  <g id="g382" class="st1" style="enable-background:new" transform="translate(66.281 37.89)">
    <path id="path380" d="M346.6 185.8c.1-.2.2-.5.4-.7.2-.2.4-.4.6-.5.2-.2.5-.3.8-.4.3-.1.6-.1.9-.1.3 0 .5 0 .8.1.2.1.4.2.5.4.1.2.2.3.2.6 0 .2 0 .4-.1.7-.1.3-.2.5-.4.7l-.6.6c-.2.2-.5.3-.8.4-.3.1-.6.1-.8.1-.3 0-.5 0-.7-.1-.2-.1-.4-.2-.5-.4-.1-.2-.2-.3-.2-.6-.2-.3-.2-.6-.1-.8z"/>
  </g>
  <g id="g386" class="st1" style="enable-background:new" transform="translate(66.281 37.89)">
    <path id="path384" d="M342.9 181v3.3c.1-.1.2-.2.4-.3.1-.1.2-.1.3-.2.1 0 .2-.1.3-.1h.4c.2 0 .3 0 .5.1.1.1.3.2.4.3.1.1.2.2.2.4.1.1.1.3.1.4v.4c0 .1-.1.3-.1.4-.1.2-.2.3-.3.4-.1.1-.3.2-.4.3l-.2.2c-.1.1-.2.2-.4.3-.2.1-.3.2-.5.3-.2.1-.3.2-.4.3-.1.1-.3.2-.5.3v-8h.4v1.2zm1.1 3.6c0-.1-.1-.1-.2-.1s-.2-.1-.2-.1c-.1 0-.2 0-.3.1-.1.1-.2.1-.2.3-.1.2-.1.4-.1.6v1.9c.1-.1.2-.2.3-.2.1-.1.2-.1.2-.2s.2-.2.2-.2c.1-.1.2-.2.3-.4.1-.1.2-.3.2-.5.1-.2.1-.4 0-.6 0-.3-.1-.5-.2-.6z"/>
  </g>
  <path id="line388" d="M424.081 221.991h6" class="st2" style="fill:none;stroke:#000;stroke-width:.56"/>
  <g id="g392" class="st1" style="enable-background:new" transform="translate(66.281 37.89)">
    <path id="path390" d="M358.7 185.8c.1-.2.2-.5.4-.7.2-.2.4-.4.6-.5.2-.2.5-.3.8-.4.3-.1.6-.1.9-.1.3 0 .5 0 .8.1.2.1.4.2.5.4.1.2.2.3.2.6 0 .2 0 .4-.1.7-.1.3-.2.5-.4.7l-.6.6c-.2.2-.5.3-.8.4-.3.1-.6.1-.8.1-.3 0-.5 0-.7-.1-.2-.1-.4-.2-.5-.4-.1-.2-.2-.3-.2-.6-.2-.3-.2-.6-.1-.8z"/>
  </g>
  <g id="g396" class="st1" style="enable-background:new" transform="translate(66.281 37.89)">
    <path id="path394" d="M357 183.1v7.7h-.4V188l-1.9.5v-7.8h.3v3zm-1.9 1.8v2.1l1.5-.4v-2.1z"/>
  </g>
  <g id="g400" class="st1" style="enable-background:new" transform="translate(66.281 37.89)">
    <path id="path398" d="M370.7 182.4c.1-.2.2-.5.4-.7.2-.2.4-.4.6-.5.2-.2.5-.3.8-.4.3-.1.6-.1.9-.1.3 0 .5 0 .8.1.2.1.4.2.5.4.1.2.2.3.2.6 0 .2 0 .4-.1.7-.1.3-.2.5-.4.7l-.6.6c-.2.2-.5.3-.8.4-.3.1-.6.1-.8.1-.3 0-.5 0-.7-.1-.2-.1-.4-.2-.5-.4-.1-.2-.2-.3-.2-.6-.3-.3-.2-.5-.1-.8z"/>
  </g>
  <g id="g404" class="st1" style="enable-background:new" transform="translate(66.281 37.89)">
    <path id="path402" d="M369 179.8v7.7h-.4v-2.9l-1.9.5v-7.8h.3v3zm-1.9 1.8v2.1l1.5-.4v-2.1z"/>
  </g>
  <g id="g408" class="st1" style="enable-background:new" transform="translate(66.281 37.89)">
    <path id="path406" d="M382.7 179c.1-.2.2-.5.4-.7.2-.2.4-.4.6-.5.2-.2.5-.3.8-.4.3-.1.6-.1.9-.1.3 0 .5 0 .8.1.2.1.4.2.5.4.1.2.2.3.2.6 0 .2 0 .4-.1.7-.1.3-.2.5-.4.7l-.6.6c-.2.2-.5.3-.8.4-.3.1-.6.1-.8.1-.3 0-.5 0-.7-.1-.2-.1-.4-.2-.5-.4-.1-.2-.2-.3-.2-.6-.2-.3-.1-.5-.1-.8z"/>
  </g>
  <g id="g412" class="st1" style="enable-background:new" transform="translate(66.281 37.89)">
    <path id="path410" d="M381.1 176.4v7.7h-.4v-2.9l-1.9.5v-7.8h.3v3zm-1.9 1.8v2.1l1.5-.4v-2.1z"/>
  </g>
  <path id="line414" d="M460.081 221.991h6" class="st2" style="fill:none;stroke:#000;stroke-width:.56"/>
  <g id="g418" class="st1" style="enable-background:new" transform="translate(66.281 37.89)">
    <path id="path416" d="M394.7 184.1c.1-.2.2-.5.4-.7.2-.2.4-.4.6-.5.2-.2.5-.3.8-.4.3-.1.6-.1.9-.1.3 0 .5 0 .8.1.2.1.4.2.5.4.1.2.2.3.2.6 0 .2 0 .4-.1.7-.1.3-.2.5-.4.7l-.6.6c-.2.2-.5.3-.8.4-.3.1-.6.1-.8.1-.3 0-.5 0-.7-.1-.2-.1-.4-.2-.5-.4-.1-.2-.2-.3-.2-.6-.2-.3-.2-.6-.1-.8z"/>
  </g>
  <g id="g422" class="st1" style="enable-background:new" transform="translate(66.281 37.89)">
    <path id="path420" d="M390.8 182v-2.2h.4v2.1l1.3-.4v-2h.4v1.8l.5-.2v1.4l-.5.2v2l.5-.2v1.4l-.5.2v2.2h-.4v-2.1l-1.3.4v2h-.4v-1.9l-.6.2v-1.4l.6-.2v-2l-.6.2v-1.4zm.4 1.3v2l1.3-.4v-2z"/>
  </g>
  <g id="g426" class="st1" style="enable-background:new" transform="translate(66.281 37.89)">
    <path id="path424" d="M406.8 179c.1-.2.2-.5.4-.7.2-.2.4-.4.6-.5.2-.2.5-.3.8-.4.3-.1.6-.1.9-.1.3 0 .5 0 .8.1.2.1.4.2.5.4.1.2.2.3.2.6 0 .2 0 .4-.1.7-.1.3-.2.5-.4.7l-.6.6c-.2.2-.5.3-.8.4-.3.1-.6.1-.8.1-.3 0-.5 0-.7-.1-.2-.1-.4-.2-.5-.4-.1-.2-.2-.3-.2-.6-.2-.3-.2-.5-.1-.8z"/>
  </g>
  <g id="g430" class="st1" style="enable-background:new" transform="translate(66.281 37.89)">
    <path id="path428" d="M402.9 176.9v-2.2h.4v2.1l1.3-.4v-2h.4v1.8l.5-.2v1.4l-.5.2v2l.5-.2v1.4l-.5.2v2.2h-.4v-2.1l-1.3.4v2h-.4v-1.9l-.6.2v-1.4l.6-.2v-2l-.6.2V177Zm.4 1.3v2l1.3-.4v-2z"/>
  </g>
  <g id="g434" class="st1" style="enable-background:new" transform="translate(66.281 37.89)">
    <path id="path432" d="M418.7 180.7c.1-.2.2-.5.4-.7.2-.2.4-.4.6-.5.2-.2.5-.3.8-.4.3-.1.6-.1.9-.1.3 0 .5 0 .8.1.2.1.4.2.5.4.1.2.2.3.2.6 0 .2 0 .4-.1.7-.1.3-.2.5-.4.7l-.6.6c-.2.2-.5.3-.8.4-.3.1-.6.1-.8.1-.3 0-.5 0-.7-.1-.2-.1-.4-.2-.5-.4-.1-.2-.2-.3-.2-.6-.2-.3-.1-.5-.1-.8z"/>
  </g>
  <g id="g438" class="st1" style="enable-background:new" transform="translate(66.281 37.89)">
    <path id="path436" d="M415.1 175.9v3.3c.1-.1.2-.2.4-.3.1-.1.2-.1.3-.2.1 0 .2-.1.3-.1h.4c.2 0 .3 0 .5.1.1.1.3.2.4.3.1.1.2.2.2.4.1.1.1.3.1.4v.4c0 .1-.1.3-.1.4-.1.2-.2.3-.3.4-.1.1-.3.2-.4.3l-.2.2c-.1.1-.2.2-.4.3-.2.1-.3.2-.5.3-.2.1-.3.2-.4.3-.1.1-.3.2-.5.3v-8h.4v1.2zm1 3.6c0-.1-.1-.1-.2-.1s-.2-.1-.2-.1c-.1 0-.2 0-.3.1-.1.1-.2.1-.2.3-.1.2-.1.4-.1.6v1.9c.1-.1.2-.2.3-.2.1-.1.2-.1.2-.2s.2-.2.2-.2c.1-.1.2-.2.3-.4.1-.1.2-.3.2-.5.1-.2.1-.4 0-.6 0-.3 0-.5-.2-.6z"/>
  </g>
  <g id="g442" class="st1" style="enable-background:new" transform="translate(66.281 37.89)">
    <path id="path440" d="M430.8 180.7c.1-.2.2-.5.4-.7.2-.2.4-.4.6-.5.2-.2.5-.3.8-.4.3-.1.6-.1.9-.1.3 0 .5 0 .8.1.2.1.4.2.5.4.1.2.2.3.2.6 0 .2 0 .4-.1.7-.1.3-.2.5-.4.7l-.6.6c-.2.2-.5.3-.8.4-.3.1-.6.1-.8.1-.3 0-.5 0-.7-.1-.2-.1-.4-.2-.5-.4-.1-.2-.2-.3-.2-.6-.2-.3-.2-.5-.1-.8z"/>
  </g>
  <g id="g446" class="st1" style="enable-background:new" transform="translate(66.281 37.89)">
    <path id="path444" d="M429.2 178.1v7.7h-.4v-2.9l-1.9.5v-7.8h.3v3zm-1.9 1.8v2.1l1.5-.4v-2.1z"/>
  </g>
  <g id="g450" class="st1" style="enable-background:new" transform="translate(66.281 37.89)">
    <path id="path448" d="M442.8 177.4c.1-.2.2-.5.4-.7.2-.2.4-.4.6-.5.2-.2.5-.3.8-.4.3-.1.6-.1.9-.1.3 0 .5 0 .8.1.2.1.4.2.5.4.1.2.2.3.2.6 0 .2 0 .4-.1.7-.1.3-.2.5-.4.7l-.6.6c-.2.2-.5.3-.8.4-.3.1-.6.1-.8.1-.3 0-.5 0-.7-.1-.2-.1-.4-.2-.5-.4-.1-.2-.2-.3-.2-.6-.2-.4-.2-.6-.1-.8z"/>
  </g>
  <g id="g454" class="st1" style="enable-background:new" transform="translate(66.281 37.89)">
    <path id="path452" d="M441.1 174.7v7.7h-.4v-2.9l-1.9.5v-7.8h.3v3zm-1.9 1.8v2.1l1.5-.4v-2.1z"/>
  </g>
  <g id="g458" class="st1" style="enable-background:new" transform="translate(66.281 37.89)">
    <path id="path456" d="M307.1 207.7c.1-.2.2-.5.4-.7.2-.2.4-.4.6-.5.2-.2.5-.3.8-.4.3-.1.6-.1.9-.1.3 0 .5 0 .8.1.2.1.4.2.5.4.1.2.2.3.2.6 0 .2 0 .4-.1.7-.1.3-.2.5-.4.7l-.6.6c-.2.2-.5.3-.8.4-.3.1-.6.1-.8.1-.3 0-.5 0-.7-.1-.2-.1-.4-.2-.5-.4-.1-.2-.2-.3-.2-.6-.2-.3-.2-.5-.1-.8z"/>
  </g>
  <g id="g462" class="st1" style="enable-background:new" transform="translate(66.281 37.89)">
    <path id="path460" d="M303.2 205.6v-2.2h.4v2.1l1.3-.4v-2h.4v1.8l.5-.2v1.4l-.5.2v2l.5-.2v1.4l-.5.2v2.2h-.4v-2.1l-1.3.4v2h-.4v-1.9l-.6.2v-1.4l.6-.2v-2l-.6.2v-1.4zm.4 1.3v2l1.3-.4v-2z"/>
  </g>
  <g id="g494" class="st1" style="enable-background:new" transform="translate(66.281 37.89)">
    <path id="path492" d="M346.6 209.4c.1-.2.2-.5.4-.7.2-.2.4-.4.6-.5.2-.2.5-.3.8-.4.3-.1.6-.1.9-.1.3 0 .5 0 .8.1.2.1.4.2.5.4.1.2.2.3.2.6 0 .2 0 .4-.1.7-.1.3-.2.5-.4.7l-.6.6c-.2.2-.5.3-.8.4-.3.1-.6.1-.8.1-.3 0-.5 0-.7-.1-.2-.1-.4-.2-.5-.4-.1-.2-.2-.3-.2-.6-.2-.3-.2-.5-.1-.8z"/>
  </g>
  <g id="g498" class="st1" style="enable-background:new" transform="translate(66.281 37.89)">
    <path id="path496" d="M344.9 206.8v7.7h-.4v-2.9l-1.9.5v-7.8h.3v3zm-1.9 1.8v2.1l1.5-.4v-2.1z"/>
  </g>
  <g id="g502" class="st1" style="enable-background:new" transform="translate(66.281 37.89)">
    <path id="path500" d="M358.7 209.4c.1-.2.2-.5.4-.7.2-.2.4-.4.6-.5.2-.2.5-.3.8-.4.3-.1.6-.1.9-.1.3 0 .5 0 .8.1.2.1.4.2.5.4.1.2.2.3.2.6 0 .2 0 .4-.1.7-.1.3-.2.5-.4.7l-.6.6c-.2.2-.5.3-.8.4-.3.1-.6.1-.8.1-.3 0-.5 0-.7-.1-.2-.1-.4-.2-.5-.4-.1-.2-.2-.3-.2-.6-.2-.3-.2-.5-.1-.8z"/>
  </g>
  <g id="g506" class="st1" style="enable-background:new" transform="translate(66.281 37.89)">
    <path id="path504" d="M355 204.6v3.3c.1-.1.2-.2.4-.3.1-.1.2-.1.3-.2.1 0 .2-.1.3-.1h.4c.2 0 .3 0 .5.1.1.1.3.2.4.3.1.1.2.2.2.4.1.1.1.3.1.4v.4c0 .1-.1.3-.1.4-.1.2-.2.3-.3.4-.1.1-.3.2-.4.3l-.2.2c-.1.1-.2.2-.4.3-.2.1-.3.2-.5.3-.2.1-.3.2-.4.3-.1.1-.3.2-.5.3v-8h.4v1.2zm1.1 3.6c0-.1-.1-.1-.2-.1s-.2-.1-.2-.1c-.1 0-.2 0-.3.1-.1.1-.2.1-.2.3-.1.2-.1.4-.1.6v1.9c.1-.1.2-.2.3-.2.1-.1.2-.1.2-.2s.2-.2.2-.2c.1-.1.2-.2.3-.4.1-.1.2-.3.2-.5.1-.2.1-.4 0-.6 0-.3-.1-.5-.2-.6z"/>
  </g>
  <g id="g510" class="st1" style="enable-background:new" transform="translate(66.281 37.89)">
    <path id="path508" d="M370.7 212.8c.1-.2.2-.5.4-.7.2-.2.4-.4.6-.5.2-.2.5-.3.8-.4.3-.1.6-.1.9-.1.3 0 .5 0 .8.1.2.1.4.2.5.4.1.2.2.3.2.6 0 .2 0 .4-.1.7-.1.3-.2.5-.4.7l-.6.6c-.2.2-.5.3-.8.4-.3.1-.6.1-.8.1-.3 0-.5 0-.7-.1-.2-.1-.4-.2-.5-.4-.1-.2-.2-.3-.2-.6-.3-.3-.2-.6-.1-.8z"/>
  </g>
  <g id="g514" class="st1" style="enable-background:new" transform="translate(66.281 37.89)">
    <path id="path512" d="M369 210.1v7.7h-.4V215l-1.9.5v-7.8h.3v3zm-1.9 1.8v2.1l1.5-.4v-2.1z"/>
  </g>
  <g id="g518" class="st1" style="enable-background:new" transform="translate(66.281 37.89)">
    <path id="path516" d="M382.7 216.2c.1-.2.2-.5.4-.7.2-.2.4-.4.6-.5.2-.2.5-.3.8-.4.3-.1.6-.1.9-.1.3 0 .5 0 .8.1.2.1.4.2.5.4.1.2.2.3.2.6 0 .2 0 .4-.1.7-.1.3-.2.5-.4.7l-.6.6c-.2.2-.5.3-.8.4-.3.1-.6.1-.8.1-.3 0-.5 0-.7-.1-.2-.1-.4-.2-.5-.4-.1-.2-.2-.3-.2-.6-.2-.4-.1-.6-.1-.8z"/>
  </g>
  <g id="g522" class="st1" style="enable-background:new" transform="translate(66.281 37.89)">
    <path id="path520" d="M381.1 213.5v7.7h-.4v-2.9l-1.9.5V211h.3v3zm-1.9 1.8v2.1l1.5-.4v-2.1z"/>
  </g>
  <g id="g526" class="st1" style="enable-background:new" transform="translate(66.281 37.89)">
    <path id="path524" d="M394.7 212.8c.1-.2.2-.5.4-.7.2-.2.4-.4.6-.5.2-.2.5-.3.8-.4.3-.1.6-.1.9-.1.3 0 .5 0 .8.1.2.1.4.2.5.4.1.2.2.3.2.6 0 .2 0 .4-.1.7-.1.3-.2.5-.4.7l-.6.6c-.2.2-.5.3-.8.4-.3.1-.6.1-.8.1-.3 0-.5 0-.7-.1-.2-.1-.4-.2-.5-.4-.1-.2-.2-.3-.2-.6-.2-.3-.2-.6-.1-.8z"/>
  </g>
  <g id="g530" class="st1" style="enable-background:new" transform="translate(66.281 37.89)">
    <path id="path528" d="M390.8 210.7v-2.2h.4v2.1l1.3-.4v-2h.4v1.8l.5-.2v1.4l-.5.2v2l.5-.2v1.4l-.5.2v2.2h-.4v-2.1l-1.3.4v2h-.4v-1.9l-.6.2v-1.4l.6-.2v-2l-.6.2v-1.4zm.4 1.2v2l1.3-.4v-2z"/>
  </g>
  <g id="g534" class="st1" style="enable-background:new" transform="translate(66.281 37.89)">
    <path id="path532" d="M406.8 217.9c.1-.2.2-.5.4-.7.2-.2.4-.4.6-.5.2-.2.5-.3.8-.4.3-.1.6-.1.9-.1.3 0 .5 0 .8.1.2.1.4.2.5.4.1.2.2.3.2.6 0 .2 0 .4-.1.7-.1.3-.2.5-.4.7l-.6.6c-.2.2-.5.3-.8.4-.3.1-.6.1-.8.1-.3 0-.5 0-.7-.1-.2-.1-.4-.2-.5-.4-.1-.2-.2-.3-.2-.6-.2-.4-.2-.6-.1-.8z"/>
  </g>
  <g id="g538" class="st1" style="enable-background:new" transform="translate(66.281 37.89)">
    <path id="path536" d="M402.9 215.7v-2.2h.4v2.1l1.3-.4v-2h.4v1.8l.5-.2v1.4l-.5.2v2l.5-.2v1.4l-.5.2v2.2h-.4v-2l-1.3.4v2h-.4v-1.9l-.6.2v-1.4l.6-.2v-2l-.6.2v-1.4zm.4 1.3v2l1.3-.4v-2z"/>
  </g>
  <g id="g542" class="st1" style="enable-background:new" transform="translate(66.281 37.89)">
    <path id="path540" d="M418.7 214.5c.1-.2.2-.5.4-.7.2-.2.4-.4.6-.5.2-.2.5-.3.8-.4.3-.1.6-.1.9-.1.3 0 .5 0 .8.1.2.1.4.2.5.4.1.2.2.3.2.6 0 .2 0 .4-.1.7-.1.3-.2.5-.4.7l-.6.6c-.2.2-.5.3-.8.4-.3.1-.6.1-.8.1-.3 0-.5 0-.7-.1-.2-.1-.4-.2-.5-.4-.1-.2-.2-.3-.2-.6-.2-.3-.1-.6-.1-.8z"/>
  </g>
  <g id="g546" class="st1" style="enable-background:new" transform="translate(66.281 37.89)">
    <path id="path544" d="M417.1 211.8v7.7h-.4v-2.9l-1.9.5v-7.8h.3v3zm-1.9 1.8v2.1l1.5-.4v-2.1z"/>
  </g>
  <g id="g550" class="st1" style="enable-background:new" transform="translate(66.281 37.89)">
    <path id="path548" d="M430.8 214.5c.1-.2.2-.5.4-.7.2-.2.4-.4.6-.5.2-.2.5-.3.8-.4.3-.1.6-.1.9-.1.3 0 .5 0 .8.1.2.1.4.2.5.4.1.2.2.3.2.6 0 .2 0 .4-.1.7-.1.3-.2.5-.4.7l-.6.6c-.2.2-.5.3-.8.4-.3.1-.6.1-.8.1-.3 0-.5 0-.7-.1-.2-.1-.4-.2-.5-.4-.1-.2-.2-.3-.2-.6-.2-.3-.2-.6-.1-.8z"/>
  </g>
  <g id="g554" class="st1" style="enable-background:new" transform="translate(66.281 37.89)">
    <path id="path552" d="M427.2 209.7v3.3c.1-.1.2-.2.4-.3.1-.1.2-.1.3-.2.1 0 .2-.1.3-.1h.4c.2 0 .3 0 .5.1.1.1.3.2.4.3.1.1.2.2.2.4.1.1.1.3.1.4v.4c0 .1-.1.3-.1.4-.1.2-.2.3-.3.4-.1.1-.3.2-.4.3l-.2.2c-.1.1-.2.2-.4.3-.2.1-.3.2-.5.3-.2.1-.3.2-.4.3-.1.1-.3.2-.5.3v-8h.4v1.2zm1 3.5c0-.1-.1-.1-.2-.1s-.2-.1-.2-.1c-.1 0-.2 0-.3.1-.1.1-.2.1-.2.3-.1.2-.1.4-.1.6v1.9c.1-.1.2-.2.3-.2.1-.1.2-.1.2-.2s.2-.2.2-.2c.1-.1.2-.2.3-.4.1-.1.2-.3.2-.5.1-.2.1-.4 0-.6 0-.2 0-.4-.2-.6z"/>
  </g>
  <g id="g558" class="st1" style="enable-background:new" transform="translate(66.281 37.89)">
    <path id="path556" d="M442.8 217.9c.1-.2.2-.5.4-.7.2-.2.4-.4.6-.5.2-.2.5-.3.8-.4.3-.1.6-.1.9-.1.3 0 .5 0 .8.1.2.1.4.2.5.4.1.2.2.3.2.6 0 .2 0 .4-.1.7-.1.3-.2.5-.4.7l-.6.6c-.2.2-.5.3-.8.4-.3.1-.6.1-.8.1-.3 0-.5 0-.7-.1-.2-.1-.4-.2-.5-.4-.1-.2-.2-.3-.2-.6-.2-.4-.2-.6-.1-.8z"/>
  </g>
  <g id="g562" class="st1" style="enable-background:new" transform="translate(66.281 37.89)">
    <path id="path560" d="M441.1 215.2v7.7h-.4V220l-1.9.5v-7.8h.3v3zm-1.9 1.8v2.1l1.5-.4v-2.1z"/>
  </g>
  <g id="g566" class="st1 class" style="enable-background:new" transform="translate(66.281 37.89)">
    <path id="path564" d="M298.5 204.9v.5h-.6v1.2h-.5v-1.2h-1.9v-.4l2.1-3h.4v2.9zm-1.2 0v-2.2l-1.6 2.2z"/>
  </g>
  <g id="g570" class="st1 tkk" style="enable-background:new" transform="translate(66.281 37.89)">
    <path id="path568" d="m303.3 164.7-.3.9h-2.6v-.1c.8-.7 1.3-1.3 1.6-1.7.3-.4.5-.9.5-1.2 0-.3-.1-.5-.3-.7-.2-.2-.4-.3-.6-.3-.2 0-.4.1-.6.2-.2.1-.3.3-.4.6h-.1c.1-.4.2-.7.4-.9.2-.2.5-.3.9-.3s.7.1.9.3c.2.2.4.5.4.8 0 .2-.1.5-.2.7-.2.4-.4.7-.8 1.1-.5.6-.9 1-1 1.1h1.7c.1 0 .2-.1.3-.1l.2-.2z"/>
  </g>
  <g id="g1613" class="tkk">
    <path id="path572" d="M522.081 197.19h2.8" class="st4" style="fill:none;stroke:#000;stroke-width:.38999999"/>
    <path id="path574" d="M524.881 197.19v73.1" class="st4" style="fill:none;stroke:#000;stroke-width:.38999999"/>
    <path id="path576" d="M524.881 270.39h-2.8" class="st4" style="fill:none;stroke:#000;stroke-width:.38999999"/>
  </g>
  <g id="g600" class="st1" style="enable-background:new" transform="translate(42.588 37.89)">
    <path id="path578" d="M51.9 46.5v-8.6h2.6l1.6 5.9 1.5-5.9h2.6v8.6h-1.6v-6.8l-1.7 6.8h-1.7l-1.7-6.8v6.8z"/>
    <path id="path580" d="m64.8 44.2 1.6-.2c.1.4.2.7.4.9.2.2.5.3.8.3.3 0 .6-.1.9-.4.3-.3.3-.6.3-1s-.1-.7-.3-1c-.2-.3-.5-.4-.8-.4-.2 0-.5 0-.8.1l.2-1.3c.4 0 .8-.1 1-.3.2-.2.4-.5.4-.8 0-.3-.1-.5-.3-.7-.2-.2-.4-.3-.7-.3-.3 0-.5.1-.7.3-.2.2-.3.5-.4.9l-1.5-.3c.1-.5.3-.9.5-1.2.2-.3.5-.6.9-.7.4-.1.8-.3 1.3-.3.8 0 1.5.3 1.9.8.4.4.6.9.6 1.4 0 .8-.4 1.4-1.2 1.8.5.1.9.3 1.2.7.3.4.4.8.4 1.3 0 .8-.3 1.4-.8 1.9s-1.2.8-2.1.8c-.8 0-1.4-.2-1.9-.7-.5-.5-.8-.9-.9-1.6z"/>
    <path id="path582" d="M75.7 46.5h-1.6v-6.2c-.6.6-1.3 1-2.1 1.2V40c.4-.1.9-.4 1.4-.8.5-.4.8-.9 1-1.4h1.3z"/>
    <path id="path584" d="M78.2 39.6V38h5.6v1.2c-.5.5-.9 1.1-1.4 2-.5.9-.8 1.8-1.1 2.7-.3.9-.4 1.8-.4 2.6h-1.6c0-1.2.3-2.4.7-3.6.4-1.2 1.1-2.3 1.9-3.3z"/>
    <path id="path586" d="m88.1 43.7 1.7-.2c.1.6.3 1 .6 1.2.3.2.7.4 1.3.4.6 0 1-.1 1.3-.4.3-.3.4-.5.4-.8 0-.2-.1-.4-.2-.5-.1-.1-.3-.3-.6-.4-.2-.1-.7-.2-1.4-.4-.9-.2-1.6-.5-2-.8-.5-.5-.8-1-.8-1.7 0-.4.1-.8.4-1.2.3-.4.6-.7 1.1-.9.5-.2 1-.3 1.7-.3 1.1 0 1.9.2 2.4.7.5.5.8 1.1.9 1.9l-1.7.1c-.1-.4-.2-.8-.5-1-.3-.2-.6-.3-1.1-.3-.5 0-.9.1-1.2.3-.2.1-.3.3-.3.5s.1.4.3.5c.2.2.8.4 1.6.6.8.2 1.5.4 1.9.6.4.2.7.5.9.9.2.4.3.8.3 1.4 0 .5-.1 1-.4 1.4-.3.4-.7.7-1.2 1-.5.3-1.1.3-1.9.3-1.1 0-1.9-.3-2.5-.8-.6-.5-.8-1.1-1-2.1z"/>
    <path id="path588" d="M96.5 46.5v-8.6h1.6v4.6l1.9-2.2h2l-2.1 2.3 2.3 3.9h-1.8l-1.6-2.8-.8.8v2z"/>
    <path id="path590" d="m102.8 44.2 1.6-.2c.1.4.2.7.4.9.2.2.5.3.8.3.3 0 .6-.1.9-.4.3-.3.3-.6.3-1s-.1-.7-.3-1c-.2-.3-.5-.4-.8-.4-.2 0-.5 0-.8.1l.2-1.3c.4 0 .8-.1 1-.3.2-.2.4-.5.4-.8 0-.3-.1-.5-.3-.7-.2-.2-.4-.3-.7-.3-.3 0-.5.1-.7.3-.2.2-.3.5-.4.9l-1.5-.3c.1-.5.3-.9.5-1.2.2-.3.5-.6.9-.7.4-.1.8-.3 1.3-.3.8 0 1.5.3 1.9.8.4.4.6.9.6 1.4 0 .8-.4 1.4-1.2 1.8.5.1.9.3 1.2.7.3.4.4.8.4 1.3 0 .8-.3 1.4-.8 1.9s-1.2.8-2.1.8c-.8 0-1.4-.2-1.9-.7-.5-.5-.8-.9-.9-1.6z"/>
    <path id="path592" d="M109.9 46.5v-1.6h1.6v1.6z"/>
    <path id="path594" d="M117.1 46.5h-1.6v-6.2c-.6.6-1.3 1-2.1 1.2V40c.4-.1.9-.4 1.4-.8.5-.4.8-.9 1-1.4h1.3z"/>
    <path id="path596" d="M119.9 46.5v-1.6h1.6v1.6z"/>
    <path id="path598" d="m122.9 44.2 1.6-.2c.1.4.2.7.4.9.2.2.5.3.8.3.3 0 .6-.1.9-.4.3-.3.3-.6.3-1s-.1-.7-.3-1c-.2-.3-.5-.4-.8-.4-.2 0-.5 0-.8.1l.2-1.3c.4 0 .8-.1 1-.3.2-.2.4-.5.4-.8 0-.3-.1-.5-.3-.7-.2-.2-.4-.3-.7-.3-.3 0-.5.1-.7.3-.2.2-.3.5-.4.9L123 40c.1-.5.3-.9.5-1.2.2-.3.5-.6.9-.7.4-.1.8-.3 1.3-.3.8 0 1.5.3 1.9.8.4.4.6.9.6 1.4 0 .8-.4 1.4-1.2 1.8.5.1.9.3 1.2.7.3.4.4.8.4 1.3 0 .8-.3 1.4-.8 1.9s-1.2.8-2.1.8c-.8 0-1.4-.2-1.9-.7-.5-.5-.9-.9-.9-1.6z"/>
  </g>
  <g id="g1554" class="tkk">
    <g id="g128" class="st1" style="enable-background:new" transform="translate(66.281 37.89)">
      <path id="path126" d="M250 172.3c.1-.2.2-.5.4-.7.2-.2.4-.4.6-.5.2-.2.5-.3.8-.4.3-.1.6-.1.9-.1.3 0 .5 0 .8.1.2.1.4.2.5.4.1.2.2.3.2.6 0 .2 0 .4-.1.7-.1.3-.2.5-.4.7l-.6.6c-.2.2-.5.3-.8.4-.3.1-.6.1-.8.1-.3 0-.5 0-.7-.1-.2-.1-.4-.2-.5-.4-.1-.2-.2-.3-.2-.6-.2-.3-.2-.6-.1-.8z"/>
    </g>
    <path id="line130" d="M315.281 225.391h6.1" class="st2" style="fill:none;stroke:#000;stroke-width:.56"/>
    <path id="line132" d="M315.281 221.991h6.1" class="st2" style="fill:none;stroke:#000;stroke-width:.56"/>
    <g id="g136" class="st1" style="enable-background:new" transform="translate(66.281 37.89)">
      <path id="path134" d="M250 187.5c.1-.2.2-.5.4-.7.2-.2.4-.4.6-.5.2-.2.5-.3.8-.4.3-.1.6-.1.9-.1.3 0 .5 0 .8.1.2.1.4.2.5.4.1.2.2.3.2.6 0 .2 0 .4-.1.7-.1.3-.2.5-.4.7l-.6.6c-.2.2-.5.3-.8.4-.3.1-.6.1-.8.1-.3 0-.5 0-.7-.1-.2-.1-.4-.2-.5-.4-.1-.2-.2-.3-.2-.6-.2-.3-.2-.6-.1-.8z"/>
    </g>
    <g id="g140" class="st1" style="enable-background:new" transform="translate(66.281 37.89)">
      <path id="path138" d="M248.3 184.8v7.7h-.3v-2.9l-1.9.5v-7.8h.3v3zm-1.9 1.8v2.1l1.5-.4v-2.1z"/>
    </g>
    <g id="g144" class="st1" style="enable-background:new" transform="translate(66.281 37.89)">
      <path id="path142" d="M266 175.7c.1-.2.2-.5.4-.7.2-.2.4-.4.6-.5.2-.2.5-.3.8-.4.3-.1.6-.1.9-.1.3 0 .5 0 .8.1.2.1.4.2.5.4.1.2.2.3.2.6 0 .2 0 .4-.1.7-.1.3-.2.5-.4.7l-.6.6c-.2.2-.5.3-.8.4-.3.1-.6.1-.8.1-.3 0-.5 0-.7-.1-.2-.1-.4-.2-.5-.4-.1-.2-.2-.3-.2-.6-.2-.4-.2-.6-.1-.8z"/>
    </g>
    <path id="line146" d="M331.381 221.991h6" class="st2" style="fill:none;stroke:#000;stroke-width:.56"/>
    <g id="g150" class="st1" style="enable-background:new" transform="translate(66.281 37.89)">
      <path id="path148" d="M266 184.1c.1-.2.2-.5.4-.7.2-.2.4-.4.6-.5.2-.2.5-.3.8-.4.3-.1.6-.1.9-.1.3 0 .5 0 .8.1.2.1.4.2.5.4.1.2.2.3.2.6 0 .2 0 .4-.1.7-.1.3-.2.5-.4.7l-.6.6c-.2.2-.5.3-.8.4-.3.1-.6.1-.8.1-.3 0-.5 0-.7-.1-.2-.1-.4-.2-.5-.4-.1-.2-.2-.3-.2-.6-.2-.3-.2-.6-.1-.8z"/>
    </g>
    <g id="g154" class="st1" style="enable-background:new" transform="translate(66.281 37.89)">
      <path id="path152" d="M264.3 173v7.7h-.3v-2.9l-1.9.5v-7.8h.3v3zm-1.8 1.8v2.1l1.5-.4v-2.1z"/>
    </g>
    <g id="g158" class="st1" style="enable-background:new" transform="translate(66.281 37.89)">
      <path id="path156" d="M260.5 181.4v7.7h-.4v-2.9l-1.9.5v-7.8h.3v3zm-1.8 1.9v2.1l1.5-.4v-2.1z"/>
    </g>
    <path id="path656" d="M322.481 216.19c-5.6 0-10.2.8-13.5 3.8-1.9 1.7-.8 5.5.8 7.6.3.4 1.5 1.8 6 3 8 2.1 13.9.5 18.4-.8 1.2-.2 2.2-.8 3.1-1.6 1.8-1.9 2.5-4.6 1.8-7.1-1.9-4.9-11.8-4.9-16.6-4.9z" class="st6" style="fill:none;stroke:#000;stroke-width:.40000001;stroke-miterlimit:10"/>
  </g>
  <g id="g1591" class="tkk">
    <g id="g246" class="st1" style="enable-background:new" transform="translate(66.281 37.89)">
      <path id="path244" d="M250 207.7c.1-.2.2-.5.4-.7.2-.2.4-.4.6-.5.2-.2.5-.3.8-.4.3-.1.6-.1.9-.1.3 0 .5 0 .8.1.2.1.4.2.5.4.1.2.2.3.2.6 0 .2 0 .4-.1.7-.1.3-.2.5-.4.7l-.6.6c-.2.2-.5.3-.8.4-.3.1-.6.1-.8.1-.3 0-.5 0-.7-.1-.2-.1-.4-.2-.5-.4-.1-.2-.2-.3-.2-.6-.2-.3-.2-.5-.1-.8z"/>
    </g>
    <g id="g250" class="st1" style="enable-background:new" transform="translate(66.281 37.89)">
      <path id="path248" d="M250 222.9c.1-.2.2-.5.4-.7.2-.2.4-.4.6-.5.2-.2.5-.3.8-.4.3-.1.6-.1.9-.1.3 0 .5 0 .8.1.2.1.4.2.5.4.1.2.2.3.2.6 0 .2 0 .4-.1.7-.1.3-.2.5-.4.7l-.6.6c-.2.2-.5.3-.8.4-.3.1-.6.1-.8.1-.3 0-.5 0-.7-.1-.2-.1-.4-.2-.5-.4-.1-.2-.2-.3-.2-.6-.2-.3-.2-.5-.1-.8z"/>
    </g>
    <g id="g254" class="st1" style="enable-background:new" transform="translate(66.281 37.89)">
      <path id="path252" d="M248.3 220.3v7.7h-.3v-2.9l-1.9.5v-7.8h.3v3zm-1.9 1.8v2.1l1.5-.4v-2.1z"/>
    </g>
    <g id="g258" class="st1" style="enable-background:new" transform="translate(66.281 37.89)">
      <path id="path256" d="M248.3 205.1v7.7h-.3v-2.9l-1.9.5v-7.8h.3v3zm-1.9 1.8v2.1l1.5-.4v-2.1z"/>
    </g>
    <g id="g262" class="st1" style="enable-background:new" transform="translate(66.281 37.89)">
      <path id="path260" d="M266 211.1c.1-.2.2-.5.4-.7.2-.2.4-.4.6-.5.2-.2.5-.3.8-.4.3-.1.6-.1.9-.1.3 0 .5 0 .8.1.2.1.4.2.5.4.1.2.2.3.2.6 0 .2 0 .4-.1.7-.1.3-.2.5-.4.7l-.6.6c-.2.2-.5.3-.8.4-.3.1-.6.1-.8.1-.3 0-.5 0-.7-.1-.2-.1-.4-.2-.5-.4-.1-.2-.2-.3-.2-.6-.2-.3-.2-.6-.1-.8z"/>
    </g>
    <g id="g266" class="st1" style="enable-background:new" transform="translate(66.281 37.89)">
      <path id="path264" d="M266 219.5c.1-.2.2-.5.4-.7.2-.2.4-.4.6-.5.2-.2.5-.3.8-.4.3-.1.6-.1.9-.1.3 0 .5 0 .8.1.2.1.4.2.5.4.1.2.2.3.2.6 0 .2 0 .4-.1.7-.1.3-.2.5-.4.7l-.6.6c-.2.2-.5.3-.8.4-.3.1-.6.1-.8.1-.3 0-.5 0-.7-.1-.2-.1-.4-.2-.5-.4-.1-.2-.2-.3-.2-.6-.2-.3-.2-.5-.1-.8z"/>
    </g>
    <g id="g270" class="st1" style="enable-background:new" transform="translate(66.281 37.89)">
      <path id="path268" d="M264.3 208.4v7.7h-.3v-2.9l-1.9.5v-7.8h.3v3zm-1.8 1.9v2.1l1.5-.4v-2.1z"/>
    </g>
    <g id="g274" class="st1" style="enable-background:new" transform="translate(66.281 37.89)">
      <path id="path272" d="M260.5 216.9v7.7h-.4v-2.9l-1.9.5v-7.8h.3v3zm-1.8 1.8v2.1l1.5-.4v-2.1z"/>
    </g>
    <path id="path658" d="M317.481 237.19c-3.1-.6-6.2.1-7.9 2.2-2.5 3.3-.4 8.3 2 10.8 1.4 1.3 3.1 2.3 4.9 2.8 7.4 2.3 20.1 2.6 22.2-3 1-2.7-.8-5.7-1.5-6.8-2.9-4.7-9-7-15.8-6.1" class="st6" style="fill:none;stroke:#000;stroke-width:.40000001;stroke-miterlimit:10"/>
  </g>
  <g id="g1608" class="tkk">
    <g id="g466" class="st1" style="enable-background:new" transform="translate(66.281 37.89)">
      <path id="path464" d="M322.6 211.1c.1-.2.2-.5.4-.7.2-.2.4-.4.6-.5.2-.2.5-.3.8-.4.3-.1.6-.1.9-.1.3 0 .5 0 .8.1.2.1.4.2.5.4.1.2.2.3.2.6 0 .2 0 .4-.1.7-.1.3-.2.5-.4.7l-.6.6c-.2.2-.5.3-.8.4-.3.1-.6.1-.8.1-.3 0-.5 0-.7-.1-.2-.1-.4-.2-.5-.4-.1-.2-.2-.3-.2-.6-.3-.3-.2-.6-.1-.8z"/>
    </g>
    <g id="g470" class="st1" style="enable-background:new" transform="translate(66.281 37.89)">
      <path id="path468" d="M322.6 219.5c.1-.2.2-.5.4-.7.2-.2.4-.4.6-.5.2-.2.5-.3.8-.4.3-.1.6-.1.9-.1.3 0 .5 0 .8.1.2.1.4.2.5.4.1.2.2.3.2.6 0 .2 0 .4-.1.7-.1.3-.2.5-.4.7l-.6.6c-.2.2-.5.3-.8.4-.3.1-.6.1-.8.1-.3 0-.5 0-.7-.1-.2-.1-.4-.2-.5-.4-.1-.2-.2-.3-.2-.6-.3-.3-.2-.5-.1-.8z"/>
    </g>
    <g id="g474" class="st1" style="enable-background:new" transform="translate(66.281 37.89)">
      <path id="path472" d="M320.9 208.4v7.7h-.4v-2.9l-1.9.5v-7.8h.3v3zm-1.9 1.9v2.1l1.5-.4v-2.1z"/>
    </g>
    <g id="g478" class="st1" style="enable-background:new" transform="translate(66.281 37.89)">
      <path id="path476" d="M317.1 216.9v7.7h-.4v-2.9l-1.9.5v-7.8h.3v3zm-1.9 1.8v2.1l1.5-.4v-2.1z"/>
    </g>
    <g id="g482" class="st1" style="enable-background:new" transform="translate(66.281 37.89)">
      <path id="path480" d="M334.7 207.7c.1-.2.2-.5.4-.7.2-.2.4-.4.6-.5.2-.2.5-.3.8-.4.3-.1.6-.1.9-.1.3 0 .5 0 .8.1.2.1.4.2.5.4.1.2.2.3.2.6 0 .2 0 .4-.1.7-.1.3-.2.5-.4.7l-.6.6c-.2.2-.5.3-.8.4-.3.1-.6.1-.8.1-.3 0-.5 0-.7-.1-.2-.1-.4-.2-.5-.4-.1-.2-.2-.3-.2-.6-.3-.3-.2-.5-.1-.8z"/>
    </g>
    <g id="g486" class="st1" style="enable-background:new" transform="translate(66.281 37.89)">
      <path id="path484" d="M334.7 222.9c.1-.2.2-.5.4-.7.2-.2.4-.4.6-.5.2-.2.5-.3.8-.4.3-.1.6-.1.9-.1.3 0 .5 0 .8.1.2.1.4.2.5.4.1.2.2.3.2.6 0 .2 0 .4-.1.7-.1.3-.2.5-.4.7l-.6.6c-.2.2-.5.3-.8.4-.3.1-.6.1-.8.1-.3 0-.5 0-.7-.1-.2-.1-.4-.2-.5-.4-.1-.2-.2-.3-.2-.6-.3-.3-.2-.5-.1-.8z"/>
    </g>
    <g id="g490" class="st1" style="enable-background:new" transform="translate(66.281 37.89)">
      <path id="path488" d="M333 205.1v7.7h-.4v-2.9l-1.9.5v-7.8h.3v3zm-1.9 1.8v2.1l1.5-.4v-2.1z"/>
    </g>
    <path id="path660" d="M385.081 240.89c-.5.4-3.6 2.4-4 6.1-.2 1.1 0 2.2.5 3.2.3.5 1.7 2.7 9 2.8 5.1 0 14.5.1 16.6-5.2.7-1.9.5-4-.5-5.8-2.3-4-9.4-5.5-17.1-2.2" class="st6" style="fill:none;stroke:#000;stroke-width:.40000001;stroke-miterlimit:10"/>
  </g>
  <g id="g1572" class="tkk">
    <g id="g350" class="st1" style="enable-background:new" transform="translate(66.281 37.89)">
      <path id="path348" d="M322.6 175.7c.1-.2.2-.5.4-.7.2-.2.4-.4.6-.5.2-.2.5-.3.8-.4.3-.1.6-.1.9-.1.3 0 .5 0 .8.1.2.1.4.2.5.4.1.2.2.3.2.6 0 .2 0 .4-.1.7-.1.3-.2.5-.4.7l-.6.6c-.2.2-.5.3-.8.4-.3.1-.6.1-.8.1-.3 0-.5 0-.7-.1-.2-.1-.4-.2-.5-.4-.1-.2-.2-.3-.2-.6-.3-.4-.2-.6-.1-.8z"/>
    </g>
    <path id="line352" d="M387.881 221.991h6.1" class="st2" style="fill:none;stroke:#000;stroke-width:.56"/>
    <g id="g356" class="st1" style="enable-background:new" transform="translate(66.281 37.89)">
      <path id="path354" d="M322.6 184.1c.1-.2.2-.5.4-.7.2-.2.4-.4.6-.5.2-.2.5-.3.8-.4.3-.1.6-.1.9-.1.3 0 .5 0 .8.1.2.1.4.2.5.4.1.2.2.3.2.6 0 .2 0 .4-.1.7-.1.3-.2.5-.4.7l-.6.6c-.2.2-.5.3-.8.4-.3.1-.6.1-.8.1-.3 0-.5 0-.7-.1-.2-.1-.4-.2-.5-.4-.1-.2-.2-.3-.2-.6-.3-.3-.2-.6-.1-.8z"/>
    </g>
    <g id="g360" class="st1" style="enable-background:new" transform="translate(66.281 37.89)">
      <path id="path358" d="M320.9 181.4v7.7h-.4v-2.9l-1.9.5v-7.8h.3v3zm-1.9 1.9v2.1l1.5-.4v-2.1z"/>
    </g>
    <g id="g364" class="st1" style="enable-background:new" transform="translate(66.281 37.89)">
      <path id="path362" d="M334.7 172.3c.1-.2.2-.5.4-.7.2-.2.4-.4.6-.5.2-.2.5-.3.8-.4.3-.1.6-.1.9-.1.3 0 .5 0 .8.1.2.1.4.2.5.4.1.2.2.3.2.6 0 .2 0 .4-.1.7-.1.3-.2.5-.4.7l-.6.6c-.2.2-.5.3-.8.4-.3.1-.6.1-.8.1-.3 0-.5 0-.7-.1-.2-.1-.4-.2-.5-.4-.1-.2-.2-.3-.2-.6-.3-.3-.2-.6-.1-.8z"/>
    </g>
    <path id="line366" d="M399.981 225.391h6.1" class="st2" style="fill:none;stroke:#000;stroke-width:.56"/>
    <path id="line368" d="M399.981 221.991h6.1" class="st2" style="fill:none;stroke:#000;stroke-width:.56"/>
    <g id="g372" class="st1" style="enable-background:new" transform="translate(66.281 37.89)">
      <path id="path370" d="M334.7 187.5c.1-.2.2-.5.4-.7.2-.2.4-.4.6-.5.2-.2.5-.3.8-.4.3-.1.6-.1.9-.1.3 0 .5 0 .8.1.2.1.4.2.5.4.1.2.2.3.2.6 0 .2 0 .4-.1.7-.1.3-.2.5-.4.7l-.6.6c-.2.2-.5.3-.8.4-.3.1-.6.1-.8.1-.3 0-.5 0-.7-.1-.2-.1-.4-.2-.5-.4-.1-.2-.2-.3-.2-.6-.3-.3-.2-.6-.1-.8z"/>
    </g>
    <g id="g376" class="st1" style="enable-background:new" transform="translate(66.281 37.89)">
      <path id="path374" d="M333 184.8v7.7h-.4v-2.9l-1.9.5v-7.8h.3v3zm-1.9 1.8v2.1l1.5-.4v-2.1z"/>
    </g>
    <path id="path662" d="M383.081 219.69c-.3.7-1.5 3.6-.1 6 .4.8 1.3 1.7 4.8 2.8 3.2 1 8.1 2.4 13.9.8 2.5-.7 4.8-1.4 5.7-3.4 1.2-2.7-1-5.9-1.1-6.1-2.8-3.9-9.9-4.7-17.9-2.2" class="st6" style="fill:none;stroke:#000;stroke-width:.40000001;stroke-miterlimit:10"/>
  </g>
  <g id="text18" aria-label="A Bl. 38v" class="cls-2" style="font-style:italic;font-size:6.75px;font-family:Arial-ItalicMT,Arial;isolation:isolate;fill:#7d7d7d">
    <path id="path756" d="M98.005 115.817H96.09l-.58 1.068h-1.022l2.732-4.832h1.105l.784 4.832h-.943zm-.122-.804-.28-1.944-1.167 1.944z" style="font-weight:700;-inkscape-font-specification:&quot;Arial-ItalicMT, Arial, Bold Italic&quot;"/>
    <path id="path758" d="m101.607 116.885 1.012-4.832h1.497q.408 0 .606.033.323.056.544.198.224.139.346.383.122.24.122.533 0 .4-.221.703-.218.303-.67.46.393.13.588.39.194.257.194.603 0 .399-.23.765-.228.366-.607.567-.376.197-.84.197zm1.226-2.768h.98q.701 0 1.008-.224.31-.225.31-.653 0-.204-.096-.353-.096-.148-.257-.214-.158-.07-.6-.07h-1.028zm-.464 2.221h1.1q.439 0 .59-.03.307-.052.498-.178.191-.128.3-.336.109-.207.109-.435 0-.34-.214-.514-.211-.178-.808-.178h-1.226z"/>
    <path id="path760" d="m105.994 116.885 1.009-4.832h.596l-1.008 4.832z"/>
    <path id="path762" d="m107.705 116.885.141-.675h.676l-.145.675z"/>
    <path id="path764" d="m111.436 115.62.58-.073q.066.508.29.729.227.217.593.217.442 0 .761-.316.323-.317.323-.725 0-.356-.24-.587-.24-.234-.646-.234-.046 0-.191.013l.102-.498q.086.014.165.014.51 0 .784-.248.277-.25.277-.613 0-.333-.228-.56-.224-.227-.55-.227-.32 0-.577.234-.253.23-.326.656l-.587-.12q.145-.596.557-.922.412-.326.976-.326.593 0 .959.359.37.36.37.883 0 .383-.202.67-.198.283-.596.47.283.169.421.406.142.237.142.544 0 .65-.488 1.127-.484.475-1.16.475-.656 0-1.061-.366-.402-.37-.448-.982z"/>
    <path id="path766" d="M116.343 114.229q-.27-.149-.405-.38-.135-.233-.135-.5 0-.439.316-.811.422-.504 1.144-.504.636 0 1.002.342.366.34.366.834 0 .353-.198.636-.198.284-.62.452.29.181.416.386.161.267.161.623 0 .649-.461 1.156-.459.508-1.223.508-.61 0-.996-.376-.385-.375-.385-.94 0-.53.273-.909.274-.382.745-.517zm.046-.854q0 .31.198.501.201.188.55.188.41 0 .663-.247.257-.25.257-.613 0-.307-.2-.498-.199-.194-.548-.194-.264 0-.485.122-.22.122-.33.332-.105.208-.105.41zm-.464 2.33q0 .201.095.386.1.185.297.293.198.11.451.11.485 0 .785-.456.237-.356.237-.768 0-.336-.22-.55-.218-.214-.574-.214-.448 0-.761.333-.31.332-.31.866z"/>
    <path id="path768" d="m119.294 114.185-.372-2.275h.377l.195 1.253q.032.206.079.67.111-.241.285-.554l.76-1.369h.41l-1.303 2.275z" style="font-size:65%;baseline-shift:super"/>
  </g>
  <g id="g631" class="link-box" transform="translate(-142.674 -37.531)">
    <path id="polyline98" d="M548.781 181.263v46.3h129.5v-46.3" class="cls-9" style="fill:#fff;stroke:#7d7d7d;stroke-width:.4px;stroke-miterlimit:10"/>
    <g id="text100" aria-label="Sk3.1" class="cls-6" style="font-weight:700;font-size:12px;font-family:Arial-BoldMT,Arial;isolation:isolate;fill:#7d7d7d" transform="translate(13.013)">
      <path id="path23886" d="m586.031 206.01 1.688-.164q.152.85.615 1.248.469.399 1.26.399.838 0 1.26-.352.427-.357.427-.832 0-.304-.182-.515-.175-.217-.62-.375-.305-.106-1.39-.375-1.394-.346-1.956-.85-.791-.709-.791-1.729 0-.656.369-1.224.375-.574 1.072-.873.703-.299 1.693-.299 1.618 0 2.432.709.82.709.861 1.893l-1.734.076q-.111-.662-.48-.95-.364-.292-1.096-.292-.756 0-1.184.31-.275.2-.275.533 0 .305.258.522.328.275 1.593.574 1.266.299 1.87.621.609.317.949.873.345.55.345 1.365 0 .739-.41 1.383-.41.645-1.16.961-.75.31-1.869.31-1.629 0-2.502-.75-.873-.755-1.043-2.197z"/>
      <path id="path23888" d="M594.404 208.805v-8.59h1.647v4.56l1.927-2.192h2.028l-2.127 2.273 2.28 3.95h-1.776l-1.565-2.796-.767.803v1.992z"/>
      <path id="path23890" d="m600.726 206.526 1.594-.193q.076.609.41.931.334.323.809.323.51 0 .855-.387.352-.387.352-1.043 0-.621-.334-.984-.334-.364-.814-.364-.317 0-.756.123l.181-1.342q.668.018 1.02-.287.351-.31.351-.82 0-.434-.257-.691-.258-.258-.686-.258-.422 0-.72.293-.3.293-.364.855l-1.518-.258q.159-.779.475-1.242.322-.468.89-.732.575-.27 1.284-.27 1.213 0 1.945.774.604.633.604 1.43 0 1.13-1.237 1.804.739.158 1.178.71.445.55.445 1.33 0 1.13-.826 1.927-.826.797-2.056.797-1.166 0-1.934-.668-.768-.674-.89-1.758z"/>
      <path id="path23892" d="M607.81 208.805v-1.646h1.647v1.646z"/>
      <path id="path23894" d="M615.006 208.805h-1.647V202.6q-.902.844-2.127 1.248v-1.494q.645-.21 1.4-.797.757-.592 1.038-1.377h1.336z"/>
    </g>
  </g>
  <g id="g642" class="link-box" transform="translate(1.326 -29.531)">
    <path id="path8813" d="M548.781 181.263v78.82h111.5v-78.82z" class="cls-9" style="fill:#fff;stroke:#7d7d7d;stroke-width:.4px;stroke-miterlimit:10"/>
    <g id="g8825" aria-label="Sk3.1.1" class="cls-6" style="font-weight:700;font-size:12px;font-family:Arial-BoldMT,Arial;isolation:isolate;fill:#7d7d7d" transform="translate(-.987 16.16)">
      <path id="path8815" d="m586.031 206.01 1.688-.164q.152.85.615 1.248.469.399 1.26.399.838 0 1.26-.352.427-.357.427-.832 0-.304-.182-.515-.175-.217-.62-.375-.305-.106-1.39-.375-1.394-.346-1.956-.85-.791-.709-.791-1.729 0-.656.369-1.224.375-.574 1.072-.873.703-.299 1.693-.299 1.618 0 2.432.709.82.709.861 1.893l-1.734.076q-.111-.662-.48-.95-.364-.292-1.096-.292-.756 0-1.184.31-.275.2-.275.533 0 .305.258.522.328.275 1.593.574 1.266.299 1.87.621.609.317.949.873.345.55.345 1.365 0 .739-.41 1.383-.41.645-1.16.961-.75.31-1.869.31-1.629 0-2.502-.75-.873-.755-1.043-2.197z"/>
      <path id="path8817" d="M594.404 208.805v-8.59h1.647v4.56l1.927-2.192h2.028l-2.127 2.273 2.28 3.95h-1.776l-1.565-2.796-.767.803v1.992z"/>
      <path id="path8819" d="m600.726 206.526 1.594-.193q.076.609.41.931.334.323.809.323.51 0 .855-.387.352-.387.352-1.043 0-.621-.334-.984-.334-.364-.814-.364-.317 0-.756.123l.181-1.342q.668.018 1.02-.287.351-.31.351-.82 0-.434-.257-.691-.258-.258-.686-.258-.422 0-.72.293-.3.293-.364.855l-1.518-.258q.159-.779.475-1.242.322-.468.89-.732.575-.27 1.284-.27 1.213 0 1.945.774.604.633.604 1.43 0 1.13-1.237 1.804.739.158 1.178.71.445.55.445 1.33 0 1.13-.826 1.927-.826.797-2.056.797-1.166 0-1.934-.668-.768-.674-.89-1.758z"/>
      <path id="path8821" d="M607.81 208.805v-1.646h1.647v1.646z"/>
      <path id="path8823" d="M615.006 208.805h-1.647V202.6q-.902.844-2.127 1.248v-1.494q.645-.21 1.4-.797.757-.592 1.038-1.377h1.336z"/>
      <path id="path8829" d="M607.81 208.805v-1.646h1.647v1.646z"/>
      <path id="path8831" d="M615.006 208.805h-1.647V202.6q-.902.844-2.127 1.248v-1.494q.645-.21 1.4-.797.757-.592 1.038-1.377h1.336z"/>
      <path id="path8833" d="M617.81 208.805v-1.646h1.647v1.646z"/>
      <path id="path8835" d="M625.006 208.805h-1.647V202.6q-.902.844-2.127 1.248v-1.494q.645-.21 1.4-.797.757-.592 1.038-1.377h1.336z"/>
    </g>
  </g>
  <g id="g655" class="link-box" transform="translate(169.326 -29.531)">
    <path id="path8837" d="M548.781 225.263v34.82h187.5v-34.82z" class="cls-9" style="fill:#fff;stroke:#7d7d7d;stroke-width:.4px;stroke-miterlimit:10"/>
    <g id="g8857" aria-label="Sk3.1.3.1" class="cls-6" style="font-weight:700;font-size:12px;font-family:Arial-BoldMT,Arial;isolation:isolate;fill:#7d7d7d" transform="translate(31.013 38.16)">
      <path id="path8839" d="m586.031 206.01 1.688-.164q.152.85.615 1.248.469.399 1.26.399.838 0 1.26-.352.427-.357.427-.832 0-.304-.182-.515-.175-.217-.62-.375-.305-.106-1.39-.375-1.394-.346-1.956-.85-.791-.709-.791-1.729 0-.656.369-1.224.375-.574 1.072-.873.703-.299 1.693-.299 1.618 0 2.432.709.82.709.861 1.893l-1.734.076q-.111-.662-.48-.95-.364-.292-1.096-.292-.756 0-1.184.31-.275.2-.275.533 0 .305.258.522.328.275 1.593.574 1.266.299 1.87.621.609.317.949.873.345.55.345 1.365 0 .739-.41 1.383-.41.645-1.16.961-.75.31-1.869.31-1.629 0-2.502-.75-.873-.755-1.043-2.197z"/>
      <path id="path8841" d="M594.404 208.805v-8.59h1.647v4.56l1.927-2.192h2.028l-2.127 2.273 2.28 3.95h-1.776l-1.565-2.796-.767.803v1.992z"/>
      <path id="path8843" d="m600.726 206.526 1.594-.193q.076.609.41.931.334.323.809.323.51 0 .855-.387.352-.387.352-1.043 0-.621-.334-.984-.334-.364-.814-.364-.317 0-.756.123l.181-1.342q.668.018 1.02-.287.351-.31.351-.82 0-.434-.257-.691-.258-.258-.686-.258-.422 0-.72.293-.3.293-.364.855l-1.518-.258q.159-.779.475-1.242.322-.468.89-.732.575-.27 1.284-.27 1.213 0 1.945.774.604.633.604 1.43 0 1.13-1.237 1.804.739.158 1.178.71.445.55.445 1.33 0 1.13-.826 1.927-.826.797-2.056.797-1.166 0-1.934-.668-.768-.674-.89-1.758z"/>
      <path id="path8845" d="M607.81 208.805v-1.646h1.647v1.646z"/>
      <path id="path8847" d="M615.006 208.805h-1.647V202.6q-.902.844-2.127 1.248v-1.494q.645-.21 1.4-.797.757-.592 1.038-1.377h1.336z"/>
      <path id="path8849" d="M607.81 208.805v-1.646h1.647v1.646z"/>
      <path id="path8851" d="M615.006 208.805h-1.647V202.6q-.902.844-2.127 1.248v-1.494q.645-.21 1.4-.797.757-.592 1.038-1.377h1.336z"/>
      <path id="path8853" d="M617.81 208.805v-1.646h1.647v1.646z"/>
      <path id="path8861" d="m622.726 206.526 1.594-.193q.076.609.41.931.334.323.809.323.51 0 .855-.387.352-.387.352-1.043 0-.621-.334-.984-.334-.364-.814-.364-.317 0-.756.123l.181-1.342q.668.018 1.02-.287.351-.31.351-.82 0-.434-.257-.691-.258-.258-.686-.258-.422 0-.72.293-.3.293-.364.855l-1.518-.258q.159-.779.475-1.242.322-.468.89-.732.575-.27 1.284-.27 1.213 0 1.945.774.604.633.604 1.43 0 1.13-1.237 1.804.739.158 1.178.71.445.55.445 1.33 0 1.13-.826 1.927-.826.797-2.056.797-1.166 0-1.934-.668-.768-.674-.89-1.758z"/>
      <path id="path8863" d="M629.81 208.805v-1.646h1.647v1.646z"/>
      <path id="path8865" d="M637.006 208.805h-1.647V202.6q-.902.844-2.127 1.248v-1.494q.645-.21 1.4-.797.757-.592 1.038-1.377h1.336z"/>
    </g>
  </g>
</svg>
