<?xml version="1.0" encoding="UTF-8" standalone="no"?>
<svg
   id="Ebene_1"
   data-name="Ebene 1"
   viewBox="0 0 1152.8622 379.74446"
   version="1.1"
   width="305.02814mm"
   height="100.47405mm"
   sodipodi:docname="M317_Sk4_2_1von1_220718_path.svg"
   inkscape:version="1.2.2 (b0a8486541, 2022-12-01)"
   xmlns:inkscape="http://www.inkscape.org/namespaces/inkscape"
   xmlns:sodipodi="http://sodipodi.sourceforge.net/DTD/sodipodi-0.dtd"
   xmlns="http://www.w3.org/2000/svg"
   xmlns:svg="http://www.w3.org/2000/svg"
   xmlns:rdf="http://www.w3.org/1999/02/22-rdf-syntax-ns#"
   xmlns:cc="http://creativecommons.org/ns#"
   xmlns:dc="http://purl.org/dc/elements/1.1/">
  <sodipodi:namedview
     id="namedview42743"
     pagecolor="#ffffff"
     bordercolor="#666666"
     borderopacity="1.0"
     inkscape:showpageshadow="2"
     inkscape:pageopacity="0.0"
     inkscape:pagecheckerboard="0"
     inkscape:deskcolor="#d1d1d1"
     inkscape:document-units="mm"
     showgrid="false"
     inkscape:zoom="4.3127444"
     inkscape:cx="830.32976"
     inkscape:cy="193.84409"
     inkscape:window-width="2880"
     inkscape:window-height="1514"
     inkscape:window-x="2869"
     inkscape:window-y="-11"
     inkscape:window-maximized="1"
     inkscape:current-layer="g896" />
  <metadata
     id="metadata71">
    <rdf:RDF>
      <cc:Work
         rdf:about="">
        <dc:format>image/svg+xml</dc:format>
        <dc:type
           rdf:resource="http://purl.org/dc/dcmitype/StillImage" />
      </cc:Work>
    </rdf:RDF>
  </metadata>
  <defs
     id="defs4">
    <style
       id="style2">
            .cls-1,
            .cls-3,
            .cls-5,
            .cls-6 {
                isolation: isolate;
            }
            .cls-1 {
                font-size: 13.5px;
            }
            .cls-1,
            .cls-5 {
                font-family: Maestro, Maestro;
            }
            .cls-2,
            .cls-8 {
                fill: none;
            }
            .cls-10,
            .cls-2,
            .cls-7,
            .cls-8 {
                stroke: #000;
            }
            .cls-10,
            .cls-2,
            .cls-7 {
                stroke-width: 0.4px;
            }
            .cls-3,
            .cls-4 {
                font-size: 6.75px;
                font-family: Arial-ItalicMT, Arial;
                font-style: italic;
            }
            .cls-5 {
                font-size: 10.13px;
            }
            .cls-6 {
                font-size: 12px;
                font-family: Arial-BoldMT, Arial;
                font-weight: 700;
            }
            .cls-10,
            .cls-11,
            .cls-7 {
                fill: #fff;
            }
            .cls-7 {
                stroke-miterlimit: 10;
            }
            .cls-8 {
                stroke-width: 0.4px;
            }
            .cls-9 {
                letter-spacing: -0.11em;
            }
        </style>
  </defs>
  <g
     aria-label="4"
     id="text8"
     style="font-size: 13.5px; font-family: Maestro, Maestro; isolation: isolate"
     class="cls-1">
    <path
       d="m 485.47661,209.28833 v 0.891 q 0,0.2025 0.0945,0.3105 0.0945,0.108 0.216,0.162 0.1485,0.054 0.324,0.054 v 0.351 h -2.9295 v -0.351 q 0.1755,0 0.324,-0.054 0.1215,-0.0405 0.216,-0.1485 0.108,-0.0945 0.108,-0.297 v -0.918 h -2.4975 l -0.243,-0.2565 q 0.405,-0.5535 0.6885,-0.972 0.2835,-0.405 0.4725,-0.756 0.2025,-0.351 0.324,-0.648 0.1215,-0.3105 0.216,-0.6345 0.0945,-0.324 0.162,-0.702 0.081,-0.3915 0.1755,-0.891 h 2.3355 q -0.2025,0.3915 -0.6345,0.9315 -0.4185,0.5265 -0.945,1.134 -0.5265,0.594 -1.0935,1.2285 -0.567,0.621 -1.053,1.188 h 2.0925 v -1.6605 l 1.647,-1.809 v 3.4695 h 0.972 v 0.378 z"
       id="path42943" />
  </g>
  <g
     aria-label="3"
     id="text10"
     style="font-size: 13.5px; font-family: Maestro, Maestro; isolation: isolate"
     class="cls-1">
    <path
       d="m 486.29661,202.38983 q 0,0.513 -0.2835,0.891 -0.27,0.378 -0.675,0.621 -0.405,0.243 -0.864,0.351 -0.459,0.1215 -0.8235,0.1215 -0.513,0 -0.9585,-0.1215 -0.432,-0.1215 -0.756,-0.351 -0.324,-0.2295 -0.513,-0.567 -0.1755,-0.324 -0.1755,-0.7425 0,-0.1755 0.081,-0.351 0.081,-0.1755 0.2025,-0.3105 0.135,-0.135 0.297,-0.2295 0.1755,-0.081 0.3645,-0.081 0.378,0 0.702,0.216 0.324,0.216 0.324,0.648 0,0.2565 -0.081,0.4185 -0.081,0.162 -0.1755,0.2835 -0.0945,0.1215 -0.1755,0.243 -0.0675,0.135 -0.054,0.3105 0,0.0405 0.0675,0.0945 0.0675,0.0675 0.1485,0.1215 0.0945,0.054 0.1755,0.081 0.0945,0.0405 0.1485,0.0405 0.3375,0 0.5805,-0.1755 0.2565,-0.162 0.4185,-0.4185 0.1755,-0.2565 0.2565,-0.54 0.081,-0.2835 0.081,-0.513 0,-0.432 -0.189,-0.6615 -0.1755,-0.216 -0.459,-0.324 -0.27,-0.0945 -0.621,-0.135 -0.3375,-0.027 -0.6615,-0.0945 0,-0.0135 0,-0.0675 0,-0.054 0,-0.1215 0.0135,-0.0675 0.0135,-0.108 0,-0.054 0,-0.054 0.324,-0.0405 0.6345,-0.1215 0.3105,-0.081 0.5535,-0.243 0.243,-0.162 0.378,-0.4185 0.1485,-0.2565 0.1485,-0.6345 0,-0.5265 -0.189,-0.7965 -0.1755,-0.2835 -0.405,-0.3915 -0.2295,-0.1215 -0.4455,-0.1215 -0.2025,-0.0135 -0.27,-0.0135 -0.0405,0 -0.108,0.0405 -0.054,0.027 -0.1215,0.081 -0.0675,0.0405 -0.108,0.108 -0.0405,0.054 -0.0405,0.108 0.0135,0.108 0.081,0.2025 0.081,0.0945 0.1755,0.2025 0.108,0.0945 0.2025,0.2295 0.108,0.1215 0.1755,0.324 0.0675,0.189 0,0.3915 -0.0675,0.189 -0.216,0.351 -0.1485,0.1485 -0.351,0.243 -0.189,0.0945 -0.378,0.0945 -0.2295,0 -0.4185,-0.108 -0.189,-0.108 -0.324,-0.2565 -0.135,-0.162 -0.216,-0.3375 -0.081,-0.1755 -0.081,-0.297 0,-0.297 0.1215,-0.6075 0.135,-0.3105 0.4455,-0.567 0.324,-0.2565 0.837,-0.4185 0.5265,-0.1755 1.323,-0.1755 0.3375,0 0.6885,0.1215 0.351,0.108 0.621,0.324 0.27,0.216 0.4455,0.513 0.1755,0.297 0.1755,0.675 0,0.4995 -0.243,0.783 -0.243,0.2835 -0.54,0.4455 -0.2835,0.162 -0.5265,0.243 -0.243,0.0675 -0.243,0.135 0.297,0.027 0.6075,0.108 0.324,0.081 0.594,0.243 0.27,0.162 0.4455,0.4185 0.1755,0.2565 0.1755,0.648 z"
       id="path42940" />
  </g>
  <path
     id="line12"
     style="fill: none; stroke: #000000; stroke-width: 0.4px"
     class="cls-2"
     d="M 151.18111,197.66333 H 1001.6812" />
  <path
     id="line14"
     style="fill: none; stroke: #000000; stroke-width: 0.4px"
     class="cls-2"
     d="M 151.18111,201.06334 H 1001.6812" />
  <path
     id="line16"
     style="fill: none; stroke: #000000; stroke-width: 0.4px"
     class="cls-2"
     d="M 151.18111,204.46333 H 1001.6812" />
  <path
     id="line18"
     style="fill: none; stroke: #000000; stroke-width: 0.4px"
     class="cls-2"
     d="M 151.18111,207.76334 H 1001.6812" />
  <path
     id="line20"
     style="fill: none; stroke: #000000; stroke-width: 0.4px"
     class="cls-2"
     d="M 151.18111,211.16333 H 1001.6812" />
  <g
     aria-label="A Bl. 39r"
     id="text22"
     style="             font-style: italic;             font-size: 6.75px;             font-family: Arial-ItalicMT, Arial;             isolation: isolate;             fill: #7d7d7d;         "
     class="cls-3">
    <path
       d="m 97.635773,140.02187 h -1.914917 l -0.580078,1.06787 h -1.021729 l 2.7323,-4.83179 h 1.104126 l 0.784424,4.83179 h -0.942627 z m -0.121949,-0.8042 -0.280151,-1.94458 -1.166748,1.94458 z"
       style="font-weight: bold; -inkscape-font-specification: 'Arial-ItalicMT, Arial, Bold Italic'"
       id="path42920" />
    <path
       d="m 101.23819,141.08974 1.01184,-4.83179 h 1.49634 q 0.40869,0 0.60644,0.033 0.323,0.056 0.54383,0.19775 0.22412,0.13843 0.34607,0.38233 0.12194,0.2406 0.12194,0.53393 0,0.39881 -0.22082,0.70203 -0.21753,0.30322 -0.66907,0.46142 0.39221,0.12854 0.58667,0.38892 0.19446,0.25708 0.19446,0.60315 0,0.3988 -0.23071,0.76465 -0.22742,0.36584 -0.60645,0.56689 -0.37573,0.19776 -0.84045,0.19776 z m 1.22607,-2.76856 h 0.97889 q 0.70202,0 1.00854,-0.22412 0.30982,-0.22412 0.30982,-0.65259 0,-0.20434 -0.0956,-0.35266 -0.0956,-0.14831 -0.25708,-0.21423 -0.1582,-0.0692 -0.59985,-0.0692 h -1.02832 z m -0.46472,2.22144 h 1.10083 q 0.43836,0 0.58997,-0.0297 0.30652,-0.0527 0.49768,-0.17797 0.19116,-0.12854 0.29993,-0.33619 0.10876,-0.20764 0.10876,-0.43505 0,-0.33948 -0.21423,-0.51416 -0.21094,-0.17798 -0.8075,-0.17798 h -1.22607 z"
       id="path42922" />
    <path
       d="m 105.62503,141.08974 1.00855,-4.83179 h 0.59655 l -1.00854,4.83179 z"
       id="path42924" />
    <path
       d="m 107.3356,141.08974 0.14173,-0.67566 h 0.67565 l -0.14501,0.67566 z"
       id="path42926" />
    <path
       d="m 111.06656,139.82411 0.58008,-0.0725 q 0.0659,0.50757 0.29004,0.7284 0.22741,0.21753 0.59326,0.21753 0.44165,0 0.76135,-0.31641 0.323,-0.31641 0.323,-0.7251 0,-0.35596 -0.2406,-0.58667 -0.2406,-0.23401 -0.646,-0.23401 -0.0461,0 -0.19116,0.0132 l 0.10217,-0.49768 q 0.0857,0.0132 0.1648,0.0132 0.51086,0 0.78442,-0.24719 0.27686,-0.25049 0.27686,-0.61304 0,-0.33289 -0.22742,-0.5603 -0.22412,-0.22742 -0.55042,-0.22742 -0.3197,0 -0.57678,0.23401 -0.25378,0.23071 -0.32629,0.65588 l -0.58667,-0.11865 q 0.14502,-0.59656 0.55701,-0.92285 0.41198,-0.3263 0.97558,-0.3263 0.59326,0 0.95911,0.35926 0.36914,0.35925 0.36914,0.8833 0,0.38232 -0.20105,0.66907 -0.19776,0.28344 -0.59656,0.47131 0.28345,0.16809 0.42188,0.40539 0.14172,0.23731 0.14172,0.54383 0,0.64929 -0.48779,1.1272 -0.4845,0.4746 -1.16016,0.4746 -0.65588,0 -1.06128,-0.36584 -0.4021,-0.36914 -0.44824,-0.98218 z"
       id="path42928" />
    <path
       d="m 114.90628,139.98232 0.5603,-0.056 q 0.056,0.4054 0.23072,0.57679 0.17468,0.17138 0.41528,0.17138 0.34277,0 0.63611,-0.29663 0.43176,-0.43506 0.63611,-1.24914 -0.29993,0.22412 -0.53394,0.3197 -0.23071,0.0956 -0.47461,0.0956 -0.44165,0 -0.79101,-0.29663 -0.46143,-0.38562 -0.46143,-1.10742 0,-0.81738 0.53394,-1.40076 0.45813,-0.50098 1.1239,-0.50098 0.59985,0 0.99536,0.44495 0.39551,0.44165 0.39551,1.25244 0,0.78772 -0.26368,1.55567 -0.31311,0.90307 -0.84704,1.33154 -0.43506,0.34936 -0.97888,0.34936 -0.50098,0 -0.82068,-0.30981 -0.31641,-0.31311 -0.35596,-0.88 z m 0.79431,-1.91163 q 0,0.45484 0.2406,0.7251 0.2439,0.27027 0.57678,0.27027 0.2472,0 0.49109,-0.1681 0.2439,-0.16809 0.41858,-0.50097 0.17469,-0.33618 0.17469,-0.68884 0,-0.27686 -0.11536,-0.51417 -0.11536,-0.2373 -0.31641,-0.35595 -0.19775,-0.12195 -0.4021,-0.12195 -0.19775,0 -0.38891,0.10547 -0.19116,0.10547 -0.35596,0.30981 -0.1615,0.20435 -0.2439,0.47132 -0.0791,0.26367 -0.0791,0.46801 z"
       id="path42930" />
    <path
       d="m 118.35115,138.38974 0.4756,-2.27516 h 0.34278 l -0.0964,0.46488 q 0.17567,-0.2635 0.34277,-0.3899 0.16925,-0.1264 0.34492,-0.1264 0.11569,0 0.28493,0.0836 l -0.15853,0.35992 q -0.10069,-0.0728 -0.22066,-0.0728 -0.20353,0 -0.41776,0.22708 -0.21423,0.22709 -0.33634,0.81623 l -0.19282,0.91264 z"
       style="font-size: 65%; baseline-shift: super"
       id="path42932" />
  </g>
  <g
     aria-label="13"
     id="text26"
     style="             font-style: italic;             font-size: 6.75px;             font-family: Arial-ItalicMT, Arial;             isolation: isolate;             fill: #7d7d7d;         "
     class="cls-3">
    <path
       d="m 95.11441,207.80333 0.764649,-3.64856 q -0.494385,0.38892 -1.390869,0.62292 l 0.11206,-0.54052 q 0.444947,-0.17798 0.876709,-0.46472 0.435059,-0.28675 0.652588,-0.50098 0.131836,-0.13184 0.250488,-0.3197 h 0.34607 l -1.011841,4.85156 z"
       id="path42915" />
    <path
       d="m 97.612701,206.5377 0.580079,-0.0725 q 0.06592,0.50757 0.290039,0.7284 0.227417,0.21753 0.593261,0.21753 0.441651,0 0.761353,-0.31641 0.322997,-0.3164 0.322997,-0.7251 0,-0.35595 -0.2406,-0.58667 -0.2406,-0.23401 -0.645996,-0.23401 -0.04614,0 -0.191162,0.0132 l 0.102173,-0.49768 q 0.08569,0.0132 0.164795,0.0132 0.510864,0 0.78442,-0.24719 0.27686,-0.25049 0.27686,-0.61304 0,-0.33288 -0.22742,-0.5603 -0.224119,-0.22742 -0.550413,-0.22742 -0.319702,0 -0.576782,0.23401 -0.253784,0.23071 -0.326294,0.65588 l -0.58667,-0.11865 q 0.14502,-0.59656 0.557007,-0.92285 0.411987,-0.32629 0.975586,-0.32629 0.593266,0 0.959106,0.35925 0.36914,0.35925 0.36914,0.8833 0,0.38232 -0.20105,0.66907 -0.19775,0.28345 -0.59656,0.47131 0.28345,0.16809 0.42188,0.4054 0.14172,0.2373 0.14172,0.54382 0,0.64929 -0.48779,1.1272 -0.484498,0.47461 -1.160157,0.47461 -0.655884,0 -1.061279,-0.36585 -0.4021,-0.36914 -0.448243,-0.98218 z"
       id="path42917" />
  </g>
  <g
     aria-label="‰"
     id="text30"
     style="font-size: 13.5px; font-family: Maestro, Maestro; isolation: isolate"
     class="cls-1">
    <path
       d="m 493.77312,201.55783 q 0.3645,-0.0945 0.6075,0.0405 0.243,0.135 0.3645,0.378 0.135,0.243 0.162,0.54 0.027,0.2835 -0.0405,0.486 0.216,-0.027 0.3915,-0.081 0.1755,-0.054 0.3645,-0.243 0.1755,-0.1755 0.2835,-0.324 0.1215,-0.1485 0.2835,-0.3375 l 0.189,0.108 -1.4985,5.6565 h -0.54 q 0.135,-0.4455 0.2835,-0.8775 0.1215,-0.351 0.243,-0.7425 0.1215,-0.378 0.216,-0.6075 0.216,-0.594 0.351,-1.0665 0.1485,-0.459 0.2295,-0.783 0.0945,-0.378 0.1485,-0.6615 -0.1215,0.0945 -0.3375,0.243 -0.2025,0.135 -0.4455,0.27 -0.243,0.135 -0.4995,0.243 -0.2565,0.0945 -0.4995,0.108 -0.5265,0.027 -0.8505,-0.2835 -0.3105,-0.3105 -0.3645,-0.7155 -0.054,-0.4185 0.1755,-0.81 0.2295,-0.405 0.783,-0.54 z"
       id="path42912" />
  </g>
  <path
     id="line32"
     style="fill: none; stroke: #000000; stroke-width: 0.4px"
     class="cls-2"
     d="m 534.78113,205.56334 v -11.3" />
  <g
     aria-label="œ"
     id="text34"
     style="font-size: 13.5px; font-family: Maestro, Maestro; isolation: isolate"
     class="cls-1">
    <path
       d="m 530.72909,206.13684 q 0.135,-0.3645 0.405,-0.675 0.2835,-0.3105 0.648,-0.54 0.3645,-0.243 0.783,-0.3645 0.4185,-0.135 0.8505,-0.135 0.432,0 0.756,0.1485 0.324,0.135 0.513,0.378 0.189,0.2295 0.2295,0.5535 0.054,0.3105 -0.081,0.675 -0.135,0.3645 -0.4185,0.675 -0.2835,0.324 -0.648,0.5535 -0.3645,0.243 -0.7965,0.3645 -0.4185,0.135 -0.837,0.135 -0.432,0 -0.756,-0.1485 -0.3105,-0.135 -0.513,-0.378 -0.189,-0.243 -0.2295,-0.567 -0.0405,-0.3105 0.0945,-0.675 z"
       id="path42908" />
  </g>
  <g
     aria-label="M 317 Sk4.2"
     id="text36"
     style="font-weight: 700; font-size: 12px; font-family: Arial-BoldMT, Arial; isolation: isolate"
     class="cls-6">
    <path
       d="m 94.48819,84.326881 v -8.589843 h 2.595703 l 1.558594,5.859375 1.541013,-5.859375 h 2.60156 v 8.589843 h -1.61132 v -6.761718 l -1.705082,6.761718 h -1.669921 l -1.699219,-6.761718 v 6.761718 z"
       id="path42889" />
    <path
       d="m 107.41983,82.047585 1.59375,-0.19336 q 0.0762,0.609375 0.41016,0.931641 0.33398,0.322265 0.80859,0.322265 0.50977,0 0.85547,-0.386718 0.35156,-0.386719 0.35156,-1.042969 0,-0.621094 -0.33398,-0.984375 -0.33399,-0.363281 -0.81446,-0.363281 -0.3164,0 -0.75586,0.123047 l 0.18165,-1.341797 q 0.66796,0.01758 1.01953,-0.28711 0.35156,-0.310547 0.35156,-0.820312 0,-0.433594 -0.25781,-0.691406 -0.25782,-0.257813 -0.68555,-0.257813 -0.42188,0 -0.7207,0.292969 -0.29883,0.292969 -0.36328,0.855469 l -1.51758,-0.257813 q 0.1582,-0.779297 0.47461,-1.242187 0.32226,-0.46875 0.89062,-0.732422 0.57422,-0.269532 1.2832,-0.269532 1.2129,0 1.94532,0.773438 0.60351,0.632812 0.60351,1.429687 0,1.13086 -1.23633,1.804688 0.73829,0.158203 1.17774,0.708984 0.44531,0.550782 0.44531,1.330078 0,1.13086 -0.82617,1.927735 -0.82617,0.796875 -2.05664,0.796875 -1.16602,0 -1.93359,-0.667969 -0.76758,-0.673828 -0.89063,-1.757812 z"
       id="path42891" />
    <path
       d="m 118.36514,84.326881 h -1.64648 v -6.205078 q -0.90235,0.84375 -2.12695,1.248047 v -1.49414 q 0.64453,-0.210938 1.40039,-0.796875 0.75586,-0.591797 1.03711,-1.376954 h 1.33593 z"
       id="path42893" />
    <path
       d="m 120.82608,77.383522 v -1.529297 h 5.63086 v 1.195313 q -0.69727,0.685547 -1.41797,1.96875 -0.7207,1.283203 -1.10156,2.730468 -0.375,1.441407 -0.36914,2.578125 h -1.58789 q 0.041,-1.78125 0.73242,-3.632812 0.69726,-1.851563 1.85742,-3.310547 z"
       id="path42895" />
    <path
       d="m 130.75772,81.53196 1.6875,-0.164063 q 0.15234,0.849609 0.61524,1.248047 0.46875,0.398437 1.25976,0.398437 0.83789,0 1.25977,-0.351562 0.42773,-0.357422 0.42773,-0.832031 0,-0.304688 -0.18164,-0.515625 -0.17578,-0.216797 -0.62109,-0.375 -0.30469,-0.105469 -1.38868,-0.375 -1.39453,-0.345703 -1.95703,-0.84961 -0.79101,-0.708984 -0.79101,-1.728515 0,-0.65625 0.36914,-1.22461 0.375,-0.574218 1.07226,-0.873047 0.70313,-0.298828 1.69336,-0.298828 1.61719,0 2.43164,0.708985 0.82032,0.708984 0.86133,1.892578 l -1.73437,0.07617 q -0.11133,-0.66211 -0.48047,-0.949219 -0.36328,-0.292969 -1.0957,-0.292969 -0.75586,0 -1.1836,0.310547 -0.27539,0.199219 -0.27539,0.533203 0,0.304688 0.25781,0.521485 0.32813,0.27539 1.59375,0.574218 1.26563,0.298828 1.86914,0.621094 0.60938,0.316406 0.94922,0.873047 0.34571,0.550781 0.34571,1.365234 0,0.738282 -0.41016,1.382813 -0.41016,0.644531 -1.16016,0.960937 -0.75,0.310547 -1.86914,0.310547 -1.6289,0 -2.50195,-0.75 -0.87305,-0.755859 -1.04297,-2.197265 z"
       id="path42897" />
    <path
       d="m 139.13077,84.326881 v -8.589843 h 1.64648 v 4.558593 l 1.92774,-2.191406 h 2.02734 l -2.12695,2.273438 2.27929,3.949218 h -1.77539 l -1.56445,-2.794921 -0.76758,0.802734 v 1.992187 z"
       id="path42899" />
    <path
       d="m 148.74014,84.326881 v -1.728515 h -3.51562 V 81.15696 l 3.72656,-5.455079 h 1.38281 V 81.1511 h 1.06641 v 1.447266 h -1.06641 v 1.728515 z m 0,-3.175781 v -2.935547 l -1.97461,2.935547 z"
       id="path42901" />
    <path
       d="m 152.53702,84.326881 v -1.646484 h 1.64648 v 1.646484 z"
       id="path42903" />
    <path
       d="m 161.07999,82.797585 v 1.529296 h -5.77149 q 0.0937,-0.867187 0.5625,-1.640625 0.46875,-0.779296 1.85156,-2.0625 1.11329,-1.037109 1.36524,-1.40625 0.33984,-0.509765 0.33984,-1.007812 0,-0.550781 -0.29883,-0.84375 -0.29296,-0.298828 -0.81445,-0.298828 -0.51562,0 -0.82031,0.310547 -0.30469,0.310547 -0.35156,1.03125 l -1.64063,-0.164063 q 0.14649,-1.359375 0.91992,-1.951172 0.77344,-0.591797 1.9336,-0.591797 1.27148,0 1.99804,0.685547 0.72657,0.685547 0.72657,1.705078 0,0.580079 -0.21094,1.107422 -0.20508,0.521485 -0.65625,1.095703 -0.29883,0.38086 -1.07813,1.095704 -0.77929,0.714843 -0.99023,0.949218 -0.20508,0.234375 -0.33398,0.457032 z"
       id="path42905" />
  </g>
  <g
     id="g371"
     class="link-box">
    <path
       id="polyline38"
       style="fill: #ffffff; stroke: #7d7d7d; stroke-width: 0.4px; stroke-miterlimit: 10"
       class="cls-7"
       transform="translate(66.281101,70.963337)"
       d="m 90.3,154.8 v -35.5 h 304 v 38.3" />
    <g
       aria-label="Sk4 T. 13–15"
       id="text48"
       style="                 font-weight: 700;                 font-size: 12px;                 font-family: Arial-BoldMT, Arial;                 isolation: isolate;                 fill: #7d7d7d;             "
       class="cls-6">
      <path
         d="m 273.61014,210.81041 1.6875,-0.16406 q 0.15234,0.84961 0.61523,1.24804 0.46875,0.39844 1.25977,0.39844 0.83789,0 1.25976,-0.35156 0.42774,-0.35742 0.42774,-0.83203 0,-0.30469 -0.18164,-0.51563 -0.17578,-0.21679 -0.6211,-0.375 -0.30468,-0.10547 -1.38867,-0.375 -1.39453,-0.3457 -1.95703,-0.84961 -0.79102,-0.70898 -0.79102,-1.72851 0,-0.65625 0.36915,-1.22461 0.375,-0.57422 1.07226,-0.87305 0.70313,-0.29883 1.69336,-0.29883 1.61719,0 2.43164,0.70899 0.82031,0.70898 0.86133,1.89258 l -1.73438,0.0762 q -0.11132,-0.66211 -0.48046,-0.94922 -0.36329,-0.29297 -1.09571,-0.29297 -0.75586,0 -1.18359,0.31055 -0.27539,0.19922 -0.27539,0.5332 0,0.30469 0.25781,0.52148 0.32813,0.2754 1.59375,0.57422 1.26563,0.29883 1.86914,0.6211 0.60938,0.3164 0.94922,0.87304 0.3457,0.55079 0.3457,1.36524 0,0.73828 -0.41015,1.38281 -0.41016,0.64453 -1.16016,0.96094 -0.75,0.31055 -1.86914,0.31055 -1.62891,0 -2.50195,-0.75 -0.87305,-0.75586 -1.04297,-2.19727 z"
         id="path42867" />
      <path
         d="m 281.98318,213.60533 v -8.58984 h 1.64649 v 4.55859 l 1.92773,-2.1914 h 2.02735 l -2.12696,2.27343 2.2793,3.94922 h -1.77539 l -1.56445,-2.79492 -0.76758,0.80273 v 1.99219 z"
         id="path42869" />
      <path
         d="m 291.59256,213.60533 v -1.72851 h -3.51563 v -1.44141 l 3.72657,-5.45508 h 1.38281 v 5.44922 h 1.06641 v 1.44727 h -1.06641 v 1.72851 z m 0,-3.17578 V 207.494 l -1.97461,2.93555 z"
         id="path42871" />
      <path
         d="m 300.67319,213.60533 v -7.13672 h -2.54883 v -1.45312 h 6.82617 v 1.45312 h -2.54297 v 7.13672 z"
         style="letter-spacing: -0.11em"
         id="path42873" />
      <path
         d="m 304.72787,213.60533 v -1.64648 h 1.64649 v 1.64648 z"
         id="path42875" />
      <path
         d="m 315.25717,213.60533 h -1.64648 v -6.20508 q -0.90235,0.84375 -2.12696,1.24805 v -1.49414 q 0.64454,-0.21094 1.40039,-0.79688 0.75586,-0.59179 1.03711,-1.37695 h 1.33594 z"
         id="path42877" />
      <path
         d="m 317.65952,211.32603 1.59375,-0.19335 q 0.0762,0.60937 0.41015,0.93164 0.33399,0.32226 0.8086,0.32226 0.50976,0 0.85546,-0.38672 0.35157,-0.38672 0.35157,-1.04297 0,-0.62109 -0.33399,-0.98437 -0.33398,-0.36328 -0.81445,-0.36328 -0.31641,0 -0.75586,0.12304 l 0.18164,-1.34179 q 0.66797,0.0176 1.01953,-0.28711 0.35156,-0.31055 0.35156,-0.82031 0,-0.4336 -0.25781,-0.69141 -0.25781,-0.25781 -0.68555,-0.25781 -0.42187,0 -0.7207,0.29297 -0.29883,0.29296 -0.36328,0.85546 l -1.51758,-0.25781 q 0.15821,-0.77929 0.47461,-1.24219 0.32227,-0.46875 0.89063,-0.73242 0.57422,-0.26953 1.2832,-0.26953 1.21289,0 1.94531,0.77344 0.60352,0.63281 0.60352,1.42969 0,1.13086 -1.23633,1.80468 0.73828,0.15821 1.17773,0.70899 0.44532,0.55078 0.44532,1.33008 0,1.13086 -0.82618,1.92773 -0.82617,0.79688 -2.05664,0.79688 -1.16601,0 -1.93359,-0.66797 -0.76758,-0.67383 -0.89062,-1.75782 z"
         id="path42879" />
      <path
         d="m 323.85873,211.10924 v -1.23047 h 6.67383 v 1.23047 z"
         id="path42881" />
      <path
         d="m 335.27866,213.60533 h -1.64649 v -6.20508 q -0.90234,0.84375 -2.12695,1.24805 v -1.49414 q 0.64453,-0.21094 1.40039,-0.79688 0.75586,-0.59179 1.03711,-1.37695 h 1.33594 z"
         id="path42883" />
      <path
         d="m 337.76303,211.39635 1.64063,-0.16992 q 0.0703,0.55664 0.41601,0.88476 0.3457,0.32227 0.79688,0.32227 0.51562,0 0.87304,-0.41602 0.35743,-0.42187 0.35743,-1.26562 0,-0.79102 -0.35743,-1.1836 -0.35156,-0.39844 -0.91992,-0.39844 -0.70898,0 -1.27148,0.62696 l -1.33594,-0.19336 0.84375,-4.4707 h 4.35352 v 1.54101 h -3.10547 l -0.25782,1.45899 q 0.55079,-0.2754 1.125,-0.2754 1.09571,0 1.85743,0.79688 0.76171,0.79687 0.76171,2.06836 0,1.06055 -0.61523,1.89258 -0.83789,1.13672 -2.32617,1.13672 -1.18945,0 -1.93945,-0.63868 -0.75,-0.63867 -0.89649,-1.71679 z"
         id="path42885" />
    </g>
  </g>
  <path
     id="polyline52"
     style="fill: #ffffff"
     class="cls-11"
     transform="translate(66.281101,70.963337)"
     d="m 751.6,119.3 v 32.1 h 161.5 v -31.9" />
  <g
     id="g388"
     class="link-box">
    <g
       id="g896"
       transform="translate(66.281101,70.963337)">
      <path
         style="fill:#ffffff;stroke:#7d7d7d;stroke-width:0.4px;stroke-opacity:1"
         d="M 524.5,103.66142 V 151.4 h 57.3 v -32.09815 l 170.0014,-0.001 -5e-4,31.9995 161.99975,-2.5e-4 -2.5e-4,-48.00025"
         id="polyline50"
         sodipodi:nodetypes="cccccccc" />
      <rect
         style="fill:#ffffff;fill-opacity:1;stroke:none;stroke-width:0.944882;stroke-opacity:1"
         id="rect6871"
         width="166.01959"
         height="6.724257"
         x="750.36823"
         y="149.77779" />
    </g>
    <g
       aria-label="Sk4 T. 7–12"
       id="text64"
       style="                 font-weight: 700;                 font-size: 12px;                 font-family: Arial-BoldMT, Arial;                 isolation: isolate;                 fill: #7d7d7d;             "
       class="cls-6">
      <path
         d="m 753.57013,181.37842 1.6875,-0.16406 q 0.15234,0.8496 0.61523,1.24804 0.46875,0.39844 1.25977,0.39844 0.83789,0 1.25977,-0.35156 0.42773,-0.35742 0.42773,-0.83203 0,-0.30469 -0.18164,-0.51563 -0.17578,-0.2168 -0.62109,-0.375 -0.30469,-0.10547 -1.38868,-0.375 -1.39453,-0.3457 -1.95703,-0.84961 -0.79101,-0.70898 -0.79101,-1.72851 0,-0.65625 0.36914,-1.22461 0.375,-0.57422 1.07226,-0.87305 0.70313,-0.29883 1.69336,-0.29883 1.61719,0 2.43164,0.70899 0.82032,0.70898 0.86133,1.89257 l -1.73437,0.0762 q -0.11133,-0.66211 -0.48047,-0.94922 -0.36328,-0.29297 -1.09571,-0.29297 -0.75586,0 -1.18359,0.31055 -0.27539,0.19921 -0.27539,0.5332 0,0.30469 0.25781,0.52148 0.32813,0.27539 1.59375,0.57422 1.26563,0.29883 1.86914,0.6211 0.60938,0.3164 0.94922,0.87304 0.3457,0.55078 0.3457,1.36524 0,0.73828 -0.41015,1.38281 -0.41016,0.64453 -1.16016,0.96094 -0.75,0.31054 -1.86914,0.31054 -1.6289,0 -2.50195,-0.75 -0.87305,-0.75586 -1.04297,-2.19726 z"
         id="path42847" />
      <path
         d="m 761.94318,184.17334 v -8.58984 h 1.64648 v 4.55859 l 1.92774,-2.19141 h 2.02734 l -2.12695,2.27344 2.27929,3.94922 h -1.77539 l -1.56445,-2.79492 -0.76758,0.80273 v 1.99219 z"
         id="path42849" />
      <path
         d="m 771.55255,184.17334 v -1.72852 h -3.51562 v -1.4414 l 3.72656,-5.45508 h 1.38281 v 5.44922 h 1.06641 v 1.44726 h -1.06641 v 1.72852 z m 0,-3.17578 v -2.93555 l -1.97461,2.93555 z"
         id="path42851" />
      <path
         d="m 780.63312,184.17334 v -7.13672 h -2.54883 v -1.45312 h 6.82617 v 1.45312 h -2.54297 v 7.13672 z"
         style="letter-spacing: -0.11em"
         id="path42853" />
      <path
         d="m 784.68781,184.17334 v -1.64648 h 1.64648 v 1.64648 z"
         id="path42855" />
      <path
         d="m 791.00421,177.22998 v -1.5293 h 5.63086 v 1.19532 q -0.69726,0.68554 -1.41797,1.96875 -0.7207,1.2832 -1.10156,2.73046 -0.375,1.44141 -0.36914,2.57813 h -1.58789 q 0.041,-1.78125 0.73242,-3.63281 0.69727,-1.85157 1.85742,-3.31055 z"
         id="path42857" />
      <path
         d="m 797.14484,181.67725 v -1.23047 h 6.67382 v 1.23047 z"
         id="path42859" />
      <path
         d="m 808.56476,184.17334 h -1.64649 v -6.20508 q -0.90234,0.84375 -2.12695,1.24805 v -1.49414 q 0.64453,-0.21094 1.40039,-0.79688 0.75586,-0.59179 1.03711,-1.37695 h 1.33594 z"
         id="path42861" />
      <path
         d="m 816.58624,182.64404 v 1.5293 h -5.77148 q 0.0937,-0.86719 0.5625,-1.64063 0.46875,-0.77929 1.85156,-2.0625 1.11328,-1.0371 1.36524,-1.40625 0.33984,-0.50976 0.33984,-1.00781 0,-0.55078 -0.29883,-0.84375 -0.29297,-0.29883 -0.81445,-0.29883 -0.51563,0 -0.82031,0.31055 -0.30469,0.31055 -0.35157,1.03125 l -1.64062,-0.16406 q 0.14648,-1.35938 0.91992,-1.95117 0.77344,-0.5918 1.93359,-0.5918 1.27149,0 1.99805,0.68555 0.72656,0.68554 0.72656,1.70507 0,0.58008 -0.21093,1.10743 -0.20508,0.52148 -0.65625,1.0957 -0.29883,0.38086 -1.07813,1.0957 -0.7793,0.71485 -0.99023,0.94922 -0.20508,0.23438 -0.33399,0.45703 z"
         id="path42863" />
    </g>
  </g>
  <g
     aria-label="13"
     id="text66"
     style="             font-style: italic;             font-size: 6.75px;             font-family: Arial-ItalicMT, Arial;             isolation: isolate;             fill: #7d7d7d;         "
     class="cls-3">
    <path
       d="m 478.88599,141.08974 0.76464,-3.64856 q -0.49438,0.38891 -1.39086,0.62292 l 0.11206,-0.54053 q 0.44494,-0.17797 0.87671,-0.46472 0.43505,-0.28674 0.65258,-0.50097 0.13184,-0.13184 0.25049,-0.31971 h 0.34607 l -1.01184,4.85157 z"
       id="path42842" />
    <path
       d="m 481.38428,139.82411 0.58008,-0.0725 q 0.0659,0.50757 0.29003,0.7284 0.22742,0.21753 0.59327,0.21753 0.44165,0 0.76135,-0.31641 0.323,-0.31641 0.323,-0.7251 0,-0.35596 -0.2406,-0.58667 -0.2406,-0.23401 -0.646,-0.23401 -0.0461,0 -0.19116,0.0132 l 0.10217,-0.49768 q 0.0857,0.0132 0.1648,0.0132 0.51086,0 0.78442,-0.24719 0.27686,-0.25049 0.27686,-0.61304 0,-0.33289 -0.22742,-0.5603 -0.22412,-0.22742 -0.55042,-0.22742 -0.3197,0 -0.57678,0.23401 -0.25378,0.23071 -0.32629,0.65588 l -0.58667,-0.11865 q 0.14502,-0.59656 0.557,-0.92285 0.41199,-0.3263 0.97559,-0.3263 0.59326,0 0.95911,0.35926 0.36914,0.35925 0.36914,0.8833 0,0.38232 -0.20105,0.66907 -0.19776,0.28344 -0.59656,0.47131 0.28345,0.16809 0.42187,0.40539 0.14173,0.23731 0.14173,0.54383 0,0.64929 -0.48779,1.1272 -0.4845,0.4746 -1.16016,0.4746 -0.65588,0 -1.06128,-0.36584 -0.4021,-0.36914 -0.44824,-0.98218 z"
       id="path42844" />
  </g>
  <g
     transform="translate(-327.14818,-2.0243023)"
     id="g2149">
    <path
       style="letter-spacing: 0em; fill: none; stroke: #7d7d7d; stroke-width: 0.40000001px; stroke-opacity: 1"
       id="path2143"
       d="m 794.72929,197.98764 h -1.4 v 19.1 h 1.4"
       class="cls-17" />
    <path
       style="letter-spacing: 0em; fill: none; stroke: #7d7d7d; stroke-width: 0.40000001px; stroke-opacity: 1"
       id="path2145"
       d="m 800.92929,197.98764 h 1.4 v 19.1 h -1.4"
       class="cls-17" />
    <g
       aria-label="&amp;"
       id="text2147"
       style="                 font-style: italic;                 font-size: 10.13px;                 font-family: Maestro, Maestro;                 isolation: isolate;                 fill: #7d7d7d;                 stroke-width: 0.4px;             "
       class="cls-10">
      <path
         d="m 798.7699,212.4804 q -0.28364,0.0506 -0.6078,0.0608 -0.31403,0.0101 -0.61793,-0.0203 -0.3039,-0.0203 -0.56728,-0.0709 -0.25325,-0.0405 -0.41533,-0.12156 -0.78001,-0.37481 -1.26625,-0.80027 -0.47611,-0.41533 -0.73949,-0.87118 -0.26338,-0.45585 -0.37481,-0.93196 -0.1013,-0.48624 -0.13169,-0.97248 -0.0405,-0.52676 0.0912,-1.05352 0.14182,-0.52676 0.37481,-1.00287 0.24312,-0.48624 0.54702,-0.89144 0.31403,-0.4052 0.62806,-0.7091 0.36468,-0.34442 0.75975,-0.67871 0.4052,-0.34442 0.88131,-0.69897 -0.0101,-0.13169 -0.0304,-0.23299 -0.0101,-0.1013 -0.0304,-0.2026 -0.0203,-0.11143 -0.0507,-0.24312 -0.0203,-0.13169 -0.0304,-0.32416 0,-0.081 -0.0203,-0.29377 -0.0203,-0.22286 -0.0304,-0.52676 0,-0.31403 0.0203,-0.7091 0.0203,-0.39507 0.1013,-0.82053 0.0507,-0.25325 0.21273,-0.63819 0.17221,-0.39507 0.39507,-0.75975 0.23299,-0.36468 0.48624,-0.62806 0.25325,-0.26338 0.47611,-0.26338 0.11143,0 0.24312,0.14182 0.13169,0.13169 0.25325,0.36468 0.13169,0.22286 0.25325,0.51663 0.12156,0.28364 0.21273,0.58754 0.0912,0.3039 0.14182,0.59767 0.0608,0.29377 0.0709,0.51663 0.0101,0.52676 -0.0405,0.93196 -0.0507,0.39507 -0.15195,0.71923 -0.1013,0.31403 -0.24312,0.58754 -0.13169,0.26338 -0.28364,0.53689 -0.16208,0.27351 -0.33429,0.48624 -0.16208,0.2026 -0.33429,0.41533 -0.18234,0.22286 -0.38494,0.37481 -0.19247,0.14182 -0.38494,0.31403 0.0912,0.51663 0.16208,0.93196 0.0304,0.18234 0.0608,0.35455 0.0304,0.17221 0.0507,0.32416 0.0203,0.14182 0.0405,0.24312 0.0203,0.0912 0.0203,0.11143 0.24312,-0.0304 0.49637,0 0.26338,0.0203 0.49637,0.0709 0.24312,0.0506 0.42546,0.13169 0.19247,0.081 0.3039,0.15195 0.54702,0.4052 0.76988,0.93196 0.23299,0.51663 0.27351,1.06365 0.0304,0.42546 -0.0709,0.85092 -0.1013,0.43559 -0.34442,0.82053 -0.23299,0.39507 -0.61793,0.71923 -0.37481,0.32416 -0.89144,0.53689 0.0608,0.41533 0.11143,0.76988 0.0507,0.3039 0.0912,0.58754 0.0405,0.29377 0.0608,0.4052 0.0912,0.6078 0.0709,0.99274 -0.0203,0.39507 -0.15195,0.63819 -0.11143,0.2026 -0.26338,0.39507 -0.14182,0.19247 -0.34442,0.34442 -0.2026,0.15195 -0.47611,0.25325 -0.26338,0.1013 -0.6078,0.12156 -0.26338,0.0203 -0.62806,-0.0506 -0.36468,-0.0608 -0.69897,-0.23299 -0.33429,-0.16208 -0.57741,-0.44572 -0.24312,-0.28364 -0.27351,-0.69897 -0.0203,-0.24312 0.0304,-0.49637 0.0507,-0.24312 0.17221,-0.44572 0.13169,-0.19247 0.33429,-0.32416 0.21273,-0.13169 0.51663,-0.15195 0.18234,-0.0101 0.36468,0.0507 0.19247,0.0709 0.35455,0.19247 0.16208,0.12156 0.26338,0.3039 0.1013,0.18234 0.12156,0.39507 0.0304,0.37481 -0.23299,0.71923 -0.26338,0.35455 -0.89144,0.52676 0.1013,0.14182 0.38494,0.26338 0.28364,0.13169 0.7091,0.13169 0.44572,0 0.85092,-0.26338 0.41533,-0.26338 0.63819,-0.65845 0.14182,-0.26338 0.14182,-0.68884 0,-0.41533 -0.0507,-0.84079 -0.0203,-0.0709 -0.0608,-0.35455 -0.0405,-0.27351 -0.0912,-0.57741 -0.0507,-0.35455 -0.12156,-0.79014 z m 0.21273,-12.83471 q -0.39507,0 -0.69897,0.37481 -0.29377,0.36468 -0.48624,0.93196 -0.18234,0.56728 -0.24312,1.24599 -0.0608,0.67871 0.0304,1.30677 0.33429,-0.25325 0.69897,-0.6078 0.36468,-0.36468 0.65845,-0.76988 0.3039,-0.4052 0.48624,-0.82053 0.19247,-0.41533 0.16208,-0.79014 -0.0101,-0.12156 -0.0405,-0.27351 -0.0304,-0.15195 -0.1013,-0.28364 -0.0709,-0.13169 -0.18234,-0.22286 -0.11143,-0.0912 -0.28364,-0.0912 z m -0.0203,12.41938 q 0.43559,-0.15195 0.67871,-0.39507 0.24312,-0.24312 0.35455,-0.52676 0.12156,-0.28364 0.13169,-0.56728 0.0203,-0.28364 0.0101,-0.5065 -0.0203,-0.18234 -0.0912,-0.45585 -0.0608,-0.27351 -0.24312,-0.52676 -0.18234,-0.25325 -0.51663,-0.41533 -0.33429,-0.17221 -0.89144,-0.14182 z m -0.83066,-3.51511 q -0.41533,0.0203 -0.68884,0.17221 -0.26338,0.14182 -0.42546,0.35455 -0.15195,0.2026 -0.21273,0.43559 -0.0507,0.23299 -0.0405,0.41533 0.0101,0.18234 0.081,0.37481 0.0709,0.19247 0.18234,0.35455 0.12156,0.17221 0.25325,0.3039 0.14182,0.14182 0.28364,0.21273 -0.0203,0.0203 -0.0405,0.0304 -0.0101,0.0203 -0.0304,0.0405 -0.0203,0.0203 -0.0304,0.0405 -0.31403,-0.15195 -0.55715,-0.36468 -0.23299,-0.2026 -0.3039,-0.29377 -0.11143,-0.15195 -0.19247,-0.27351 -0.081,-0.12156 -0.13169,-0.26338 -0.0507,-0.13169 -0.0912,-0.29377 -0.0304,-0.16208 -0.0405,-0.38494 -0.0203,-0.21273 0.0304,-0.44572 0.0507,-0.24312 0.16208,-0.48624 0.12156,-0.24312 0.3039,-0.46598 0.19247,-0.23299 0.44572,-0.43559 0.13169,-0.1013 0.23299,-0.16208 0.11143,-0.0608 0.2026,-0.1013 0.0912,-0.0506 0.18234,-0.0709 0.1013,-0.0304 0.21273,-0.0608 l -0.3039,-1.83353 q -0.12156,0.0709 -0.39507,0.28364 -0.27351,0.21273 -0.59767,0.5065 -0.32416,0.29377 -0.64832,0.63819 -0.31403,0.33429 -0.51663,0.64832 -0.36468,0.57741 -0.56728,1.06365 -0.2026,0.48624 -0.15195,1.05352 0.0405,0.63819 0.38494,1.18521 0.35455,0.55715 0.90157,0.93196 0.54702,0.37481 1.24599,0.51663 0.69897,0.15195 1.44859,-0.0304 -0.16208,-1.00287 -0.29377,-1.79301 -0.0608,-0.33429 -0.11143,-0.65845 -0.0506,-0.32416 -0.1013,-0.57741 -0.0405,-0.25325 -0.0608,-0.4052 -0.0203,-0.16208 -0.0203,-0.16208 z"
         style="font-style:normal;-inkscape-font-specification:'Maestro, Maestro';fill:#7d7d7d;fill-opacity:1;stroke:none;stroke-opacity:1"
         id="path42839" />
    </g>
  </g>
</svg>
