<?xml version="1.0" encoding="UTF-8"?>
<svg xmlns="http://www.w3.org/2000/svg" id="Ebene_1" width="1153.207" height="508.045" data-name="Ebene 1" version="1.1" viewBox="0 0 1153.207 508.045">
  <defs id="defs4">
    <style id="style2">
      .cls-1,.cls-12,.cls-6{isolation:isolate}.cls-1{font-size:13.5px;font-family:Maestro,Maestro}.cls-14,.cls-15,.cls-2,.cls-8{fill:none}.cls-11,.cls-14,.cls-15,.cls-2,.cls-8{stroke:#000}.cls-11,.cls-2{stroke-width:.4px}.cls-6{font-size:6.75px;font-family:Arial-ItalicMT,Arial;font-style:italic}.cls-8{stroke-width:.49px}.cls-11{fill:#fff;stroke-miterlimit:10}.cls-12{font-size:12px;font-family:Arial-BoldMT,Arial;font-weight:700}.cls-14{stroke-width:.39px}.cls-15{stroke-width:.4px}
    </style>
  </defs>
  <g id="text8" aria-label="&amp;" class="cls-1" style="font-size:13.5px;font-family:Maestro,Maestro;isolation:isolate">
    <path id="path15002" d="M161.226 251.705q-.378.068-.81.081-.418.014-.823-.027-.405-.027-.756-.094-.338-.054-.554-.162-1.039-.5-1.687-1.067-.635-.553-.986-1.16-.35-.608-.499-1.243-.135-.648-.176-1.296-.054-.702.122-1.404.189-.702.5-1.336.323-.648.728-1.188.419-.54.837-.945.486-.46 1.013-.905.54-.459 1.174-.931-.013-.176-.04-.31-.014-.136-.04-.27-.028-.15-.068-.325-.027-.175-.04-.432 0-.108-.028-.391-.027-.297-.04-.702 0-.419.027-.945.027-.527.135-1.094.067-.337.283-.85.23-.527.527-1.013.31-.486.648-.837.337-.35.634-.35.149 0 .324.188.176.176.338.486.175.297.337.689.162.378.284.783t.189.796q.081.392.094.689.014.702-.054 1.242-.067.526-.202.958-.135.419-.324.783-.176.351-.378.716-.216.364-.446.648l-.445.553q-.243.297-.513.5-.257.189-.513.418.121.689.216 1.242.04.243.081.473.04.23.067.432.027.189.054.324.027.121.027.148.324-.04.662 0 .351.027.661.095.324.067.567.175.257.108.405.203.73.54 1.026 1.242.311.688.365 1.417.04.567-.095 1.134-.135.58-.459 1.094-.31.526-.823.958-.5.432-1.188.716.081.553.148 1.026.068.405.122.783.054.391.081.54.121.81.094 1.323-.027.526-.202.85-.149.27-.351.527-.189.256-.459.459-.27.202-.635.337-.35.135-.81.162-.35.027-.837-.067-.486-.081-.931-.31-.446-.217-.77-.595t-.364-.931q-.027-.324.04-.662.068-.324.23-.594.175-.256.445-.432.284-.175.689-.202.243-.014.486.067.256.095.472.257t.351.405.162.526q.041.5-.31.959-.351.472-1.188.702.135.189.513.35.378.176.945.176.594 0 1.134-.35.553-.352.85-.878.19-.351.19-.918 0-.554-.068-1.12-.027-.095-.081-.473-.054-.365-.122-.77-.067-.472-.162-1.053m.284-17.104q-.527 0-.932.5-.391.485-.648 1.241-.243.756-.324 1.66-.08.905.041 1.742.445-.337.931-.81.486-.486.878-1.026.405-.54.648-1.093.256-.554.216-1.053-.014-.162-.054-.365t-.135-.378-.243-.297q-.149-.121-.378-.121m-.027 16.55q.58-.202.904-.526t.473-.702q.162-.378.175-.756.027-.378.014-.675-.027-.243-.122-.607-.08-.365-.324-.702-.243-.338-.688-.554-.446-.23-1.188-.189zm-1.107-4.684q-.554.027-.918.23-.351.189-.567.472-.203.27-.284.58-.067.311-.054.554t.108.5q.095.256.243.472.162.23.338.405.189.19.378.284-.027.027-.054.04-.014.027-.04.054-.028.027-.041.054-.419-.202-.743-.486-.31-.27-.405-.391-.148-.203-.256-.365t-.176-.35q-.067-.176-.121-.392-.04-.216-.054-.513-.027-.284.04-.594.068-.324.216-.648.162-.324.405-.621.257-.31.594-.58.176-.136.311-.217.148-.08.27-.135.121-.067.243-.094.135-.04.283-.081l-.405-2.444q-.162.095-.526.378-.365.284-.797.675t-.864.85q-.418.446-.688.865-.486.77-.756 1.417-.27.648-.203 1.404.054.85.513 1.58.473.742 1.202 1.242t1.66.688q.932.203 1.931-.04-.216-1.337-.392-2.39-.08-.445-.148-.877t-.135-.77q-.054-.337-.081-.54z"/>
  </g>
  <g id="text10" aria-label="&amp;" class="cls-1" style="font-size:13.5px;font-family:Maestro,Maestro;isolation:isolate">
    <path id="path14999" d="M161.226 292.205q-.378.068-.81.081-.418.014-.823-.027-.405-.027-.756-.094-.338-.054-.554-.162-1.039-.5-1.687-1.067-.635-.553-.986-1.16-.35-.608-.499-1.243-.135-.648-.176-1.296-.054-.702.122-1.404.189-.702.5-1.336.323-.648.728-1.188.419-.54.837-.945.486-.46 1.013-.905.54-.459 1.174-.931-.013-.176-.04-.31-.014-.136-.04-.27-.028-.15-.068-.325-.027-.175-.04-.432 0-.108-.028-.391-.027-.297-.04-.702 0-.419.027-.945.027-.527.135-1.094.067-.337.283-.85.23-.527.527-1.013.31-.486.648-.837.337-.35.634-.35.149 0 .324.188.176.176.338.486.175.297.337.689.162.378.284.783t.189.796q.081.392.094.689.014.702-.054 1.242-.067.526-.202.958-.135.419-.324.783-.176.351-.378.716-.216.364-.446.648l-.445.553q-.243.297-.513.5-.257.189-.513.418.121.689.216 1.242.04.243.081.473.04.23.067.432.027.189.054.324.027.121.027.148.324-.04.662 0 .351.027.661.095.324.067.567.175.257.108.405.203.73.54 1.026 1.242.311.688.365 1.417.04.567-.095 1.134-.135.58-.459 1.094-.31.526-.823.958-.5.432-1.188.716.081.553.148 1.026.068.405.122.783.054.391.081.54.121.81.094 1.323-.027.526-.202.85-.149.27-.351.527-.189.256-.459.459-.27.202-.635.337-.35.135-.81.162-.35.027-.837-.067-.486-.081-.931-.31-.446-.217-.77-.595t-.364-.931q-.027-.324.04-.662.068-.324.23-.594.175-.256.445-.432.284-.175.689-.202.243-.014.486.067.256.095.472.257t.351.405.162.526q.041.5-.31.959-.351.472-1.188.702.135.189.513.35.378.176.945.176.594 0 1.134-.35.553-.352.85-.878.19-.351.19-.918 0-.554-.068-1.12-.027-.095-.081-.473-.054-.365-.122-.77-.067-.472-.162-1.053m.284-17.104q-.527 0-.932.5-.391.485-.648 1.241-.243.756-.324 1.66-.08.905.041 1.742.445-.337.931-.81.486-.486.878-1.026.405-.54.648-1.093.256-.554.216-1.053-.014-.162-.054-.365t-.135-.378-.243-.297q-.149-.121-.378-.121m-.027 16.55q.58-.202.904-.526t.473-.702q.162-.378.175-.756.027-.378.014-.675-.027-.243-.122-.607-.08-.365-.324-.702-.243-.338-.688-.554-.446-.23-1.188-.189zm-1.107-4.684q-.554.027-.918.23-.351.189-.567.472-.203.27-.284.58-.067.311-.054.554t.108.5q.095.256.243.472.162.23.338.405.189.19.378.284-.027.027-.054.04-.014.027-.04.054-.028.027-.041.054-.419-.202-.743-.486-.31-.27-.405-.391-.148-.203-.256-.365t-.176-.35q-.067-.176-.121-.392-.04-.216-.054-.513-.027-.284.04-.594.068-.324.216-.648.162-.324.405-.621.257-.31.594-.58.176-.136.311-.217.148-.08.27-.135.121-.067.243-.094.135-.04.283-.081l-.405-2.444q-.162.095-.526.378-.365.284-.797.675t-.864.85q-.418.446-.688.865-.486.77-.756 1.417-.27.648-.203 1.404.054.85.513 1.58.473.742 1.202 1.242t1.66.688q.932.203 1.931-.04-.216-1.337-.392-2.39-.08-.445-.148-.877t-.135-.77q-.054-.337-.081-.54z"/>
  </g>
  <g id="text12" aria-label="?" class="cls-1" style="font-size:13.5px;font-family:Maestro,Maestro;isolation:isolate">
    <path id="path14996" d="M161.712 326.09q-.121.23-.243.419-.108.189-.229.364-.122.176-.257.338-.135.175-.31.378-.176.202-.338.364-.148.162-.31.31-.149.15-.324.284-.176.149-.392.31-.27.203-.513.352-.229.148-.472.27-.23.121-.486.216-.257.108-.567.23-.31.12-.689.215-.364.108-.702.176-.391.08-.783.148l-.094-.202q.634-.216 1.269-.5.526-.243 1.107-.594.594-.337 1.026-.783 1.093-1.16 1.66-2.565.567-1.39.54-3.172 0-.405-.094-.932-.081-.526-.31-.999-.217-.472-.622-.81-.391-.337-1.026-.337-.364 0-.783.148-.405.149-.742.405-.338.243-.554.594-.216.338-.175.73.013.053.081.04.081-.027.216-.068.148-.04.351-.08.216-.041.5-.028.296.014.512.19.216.161.351.418.135.256.176.567.04.297-.027.58-.108.446-.405.702-.284.27-.797.27-.324 0-.634-.121-.297-.108-.527-.324-.229-.203-.378-.513-.135-.297-.135-.689-.013-.58.122-1.026.148-.445.351-.77.216-.323.445-.526.243-.216.446-.337.5-.31 1.012-.419.513-.121.972-.135.513 0 1.026.176.527.162.986.486.459.31.823.756.365.432.554.972.23.607.23 1.282.013.689-.163 1.485-.054.27-.121.486-.068.216-.149.419t-.189.405q-.094.202-.216.445m1.364-5.197q-.014-.31.202-.513.216-.216.527-.216.31-.014.526.189.23.202.23.513.013.31-.203.54-.216.216-.526.216-.31.013-.54-.203-.216-.216-.216-.526m0 3.402q0-.31.216-.513t.526-.216q.311 0 .527.189.23.202.23.513.013.31-.203.526-.216.23-.527.23-.31.013-.54-.203-.216-.216-.229-.526"/>
  </g>
  <path id="line14" d="M151.525 197.663h850.5" class="cls-2" style="fill:none;stroke:#000;stroke-width:.4px"/>
  <path id="line16" d="M151.525 201.063h850.5" class="cls-2" style="fill:none;stroke:#000;stroke-width:.4px"/>
  <path id="line18" d="M151.525 204.463h850.5" class="cls-2" style="fill:none;stroke:#000;stroke-width:.4px"/>
  <path id="line20" d="M151.525 207.763h850.5" class="cls-2" style="fill:none;stroke:#000;stroke-width:.4px"/>
  <path id="line22" d="M151.525 211.163h850.5" class="cls-2" style="fill:none;stroke:#000;stroke-width:.4px"/>
  <path id="line24" d="M151.525 238.163h850.5" class="cls-2" style="fill:none;stroke:#000;stroke-width:.4px"/>
  <path id="line26" d="M151.525 241.563h850.5" class="cls-2" style="fill:none;stroke:#000;stroke-width:.4px"/>
  <path id="line28" d="M151.525 244.963h850.5" class="cls-2" style="fill:none;stroke:#000;stroke-width:.4px"/>
  <path id="line30" d="M151.525 248.263h850.5" class="cls-2" style="fill:none;stroke:#000;stroke-width:.4px"/>
  <path id="line32" d="M151.525 251.663h850.5" class="cls-2" style="fill:none;stroke:#000;stroke-width:.4px"/>
  <path id="line34" d="M151.525 278.663h850.5" class="cls-2" style="fill:none;stroke:#000;stroke-width:.4px"/>
  <path id="line36" d="M151.525 282.063h850.5" class="cls-2" style="fill:none;stroke:#000;stroke-width:.4px"/>
  <path id="line38" d="M151.525 285.463h850.5" class="cls-2" style="fill:none;stroke:#000;stroke-width:.4px"/>
  <path id="line40" d="M151.525 288.763h850.5" class="cls-2" style="fill:none;stroke:#000;stroke-width:.4px"/>
  <path id="line42" d="M151.525 292.163h850.5" class="cls-2" style="fill:none;stroke:#000;stroke-width:.4px"/>
  <path id="line44" d="M151.525 319.163h850.5" class="cls-2" style="fill:none;stroke:#000;stroke-width:.4px"/>
  <path id="line46" d="M151.525 322.563h850.5" class="cls-2" style="fill:none;stroke:#000;stroke-width:.4px"/>
  <path id="line48" d="M151.525 325.963h850.5" class="cls-2" style="fill:none;stroke:#000;stroke-width:.4px"/>
  <path id="line50" d="M151.525 329.263h850.5" class="cls-2" style="fill:none;stroke:#000;stroke-width:.4px"/>
  <path id="line52" d="M151.525 332.663h850.5" class="cls-2" style="fill:none;stroke:#000;stroke-width:.4px"/>
  <path id="path54" d="M149.825 278.663c-7.2 11.5 3.1 21.9-3.7 27h.3c8.2-6.8-1.9-15.5 3.4-26.7z"/>
  <path id="path56" d="M149.825 332.663c-7.2-11.5 3.1-21.9-3.7-27h.3c8.2 6.8-1.9 15.5 3.4 26.7z"/>
  <path id="line58" d="m152.925 333.963 10.7-20.4" class="cls-2" style="fill:none;stroke:#000;stroke-width:.4px"/>
  <g id="text64" aria-label="4.VII. 34" style="font-size:6.75px;font-family:TimesNewRomanPSMT,&quot;Times New Roman&quot;;isolation:isolate" transform="rotate(-12.5)">
    <path id="path14958" d="M100.418 210.857v.468h-.6v1.18h-.544v-1.18h-1.892v-.422l2.073-2.96h.363v2.914zm-1.144 0v-2.218l-1.569 2.218z"/>
    <path id="path14960" d="M101.496 211.866q.154 0 .26.108.105.106.105.258 0 .151-.108.26-.106.105-.257.105t-.26-.105q-.106-.109-.106-.26 0-.155.105-.26.109-.106.26-.106z"/>
    <path id="path14962" d="M108.699 208.036v.122q-.237.043-.36.151-.174.162-.309.495l-1.559 3.803h-.122l-1.674-3.853q-.129-.296-.182-.362-.082-.102-.204-.158-.119-.06-.323-.076v-.122h1.826v.122q-.31.03-.402.105-.092.076-.092.195 0 .165.151.514l1.137 2.62 1.055-2.587q.155-.382.155-.53 0-.096-.096-.182-.095-.09-.323-.125l-.056-.01v-.122z" style="letter-spacing:0"/>
    <path id="path14964" d="M110.864 212.383v.122h-1.914v-.122h.158q.277 0 .402-.161.079-.106.079-.508v-2.887q0-.34-.043-.448-.033-.083-.135-.142-.145-.08-.303-.08h-.158v-.121h1.914v.122h-.161q-.274 0-.399.161-.082.106-.082.508v2.887q0 .34.043.448.033.083.138.142.142.08.3.08z" style="letter-spacing:0"/>
    <path id="path14966" d="M113.112 212.383v.122h-1.915v-.122h.159q.276 0 .402-.161.079-.106.079-.508v-2.887q0-.34-.043-.448-.033-.083-.135-.142-.145-.08-.304-.08h-.158v-.121h1.915v.122h-.161q-.274 0-.4.161-.081.106-.081.508v2.887q0 .34.042.448.033.083.139.142.142.08.3.08z" style="letter-spacing:0"/>
    <path id="path14968" d="M114.12 211.866q.156 0 .261.108.106.106.106.258 0 .151-.11.26-.105.105-.256.105t-.26-.105q-.106-.109-.106-.26 0-.155.105-.26.11-.106.26-.106" style="letter-spacing:0"/>
    <path id="path14970" d="M116.995 208.886q.191-.451.481-.695.293-.247.728-.247.538 0 .824.349.218.26.218.557 0 .488-.613 1.008.412.162.623.462.21.3.21.705 0 .58-.368 1.005-.482.554-1.395.554-.451 0-.616-.112-.161-.112-.161-.24 0-.096.075-.169.08-.072.188-.072.083 0 .168.026.056.017.254.122.198.102.274.122.122.036.26.036.336 0 .583-.26.251-.26.251-.616 0-.26-.115-.508-.086-.184-.188-.28-.142-.132-.39-.237-.246-.109-.503-.109h-.106v-.099q.26-.033.52-.188.264-.155.383-.372.119-.218.119-.478 0-.34-.214-.547-.211-.211-.528-.211-.51 0-.853.547z" style="letter-spacing:0"/>
    <path id="path14972" d="M123.168 210.857v.468h-.6v1.18h-.544v-1.18h-1.891v-.422l2.073-2.96h.362v2.914zm-1.144 0v-2.218l-1.568 2.218z" style="letter-spacing:0"/>
  </g>
  <g id="text66" aria-label="A Bl. 38v" class="cls-6 supplied foliation" style="font-style:italic;font-size:6.75px;font-family:Arial-ItalicMT,Arial;isolation:isolate;fill:#7d7d7d">
    <path id="path14943" d="M97.636 140.019H95.72l-.58 1.067h-1.022l2.732-4.831h1.104l.785 4.831h-.943zm-.122-.805-.28-1.944-1.167 1.944z" style="font-weight:700;-inkscape-font-specification:&quot;Arial-ItalicMT, Arial, Bold Italic&quot;"/>
    <path id="path14945" d="m101.238 141.086 1.012-4.831h1.496q.41 0 .607.033.323.056.544.197.224.139.346.383.122.24.122.534 0 .398-.221.702-.218.303-.67.461.393.129.587.389.195.257.195.603 0 .399-.23.765-.228.366-.607.567-.376.197-.84.197zm1.226-2.768h.98q.701 0 1.008-.224.31-.224.31-.653 0-.204-.096-.352-.096-.149-.257-.215-.158-.069-.6-.069h-1.028zm-.464 2.221h1.1q.439 0 .59-.03.307-.052.498-.177.191-.129.3-.337.109-.207.109-.435 0-.34-.215-.514-.21-.178-.807-.178h-1.226z"/>
    <path id="path14947" d="m105.625 141.086 1.009-4.831h.596l-1.008 4.831z"/>
    <path id="path14949" d="m107.336 141.086.141-.675h.676l-.145.675z"/>
    <path id="path14951" d="m111.067 139.82.58-.072q.066.508.29.729.227.217.593.217.442 0 .761-.316.323-.317.323-.725 0-.356-.24-.587-.24-.234-.646-.234-.046 0-.191.013l.102-.497q.085.013.164.013.511 0 .785-.247.277-.25.277-.613 0-.333-.228-.56-.224-.228-.55-.228-.32 0-.577.234-.254.23-.326.656l-.587-.119q.145-.596.557-.923.412-.326.976-.326.593 0 .959.36.369.358.369.882 0 .383-.201.67-.198.283-.597.47.284.169.422.406.142.238.142.544 0 .65-.488 1.127-.484.475-1.16.475-.656 0-1.061-.366-.402-.37-.448-.982z"/>
    <path id="path14953" d="M115.974 138.43q-.27-.148-.405-.38-.135-.233-.135-.5 0-.438.316-.81.422-.505 1.144-.505.636 0 1.002.343.366.34.366.834 0 .352-.198.636-.198.283-.62.451.29.181.415.386.162.267.162.623 0 .649-.462 1.157-.458.507-1.222.507-.61 0-.996-.376-.385-.375-.385-.939 0-.53.273-.91.274-.382.745-.517m.046-.854q0 .31.198.501.201.188.55.188.41 0 .663-.247.257-.25.257-.613 0-.307-.201-.498-.198-.194-.547-.194-.264 0-.485.122t-.33.333q-.105.207-.105.408m-.464 2.33q0 .202.095.386.099.185.297.293.198.11.451.11.485 0 .785-.456.237-.356.237-.768 0-.336-.22-.55-.218-.214-.574-.214-.449 0-.762.333-.31.333-.31.867z"/>
    <path id="path14955" d="m118.925 138.386-.372-2.275h.377l.195 1.254q.032.205.079.67.111-.242.285-.555l.76-1.369h.41l-1.303 2.275z" style="font-size:65%;baseline-shift:super"/>
  </g>
  <g id="text70" aria-label="1" class="cls-6 supplied staffN" style="font-style:italic;font-size:6.75px;font-family:Arial-ItalicMT,Arial;isolation:isolate;fill:#7d7d7d">
    <path id="path14940" d="m95.114 207.803.765-3.648q-.494.389-1.39.623l.111-.54q.445-.179.877-.466.435-.286.653-.5.131-.132.25-.32h.346l-1.012 4.851z"/>
  </g>
  <g id="text72" aria-label="2" class="cls-6 supplied staffN" style="font-style:italic;font-size:6.75px;font-family:Arial-ItalicMT,Arial;isolation:isolate;fill:#7d7d7d">
    <path id="path14937" d="M94.488 248.303q.092-.431.254-.721.165-.294.435-.554.27-.264 1.042-.88.468-.373.639-.55.247-.258.36-.505.075-.168.075-.366 0-.333-.237-.563-.234-.234-.577-.234-.34 0-.593.237-.254.234-.363.755l-.583-.086q.085-.643.497-1.012.416-.372 1.032-.372.412 0 .745.171.336.172.504.481.168.31.168.64 0 .48-.343.926-.21.277-1.239 1.09-.441.35-.659.574-.214.224-.323.422h2.162l-.115.547z"/>
  </g>
  <g id="text74" aria-label="3" class="cls-6 supplied staffN" style="font-style:italic;font-size:6.75px;font-family:Arial-ItalicMT,Arial;isolation:isolate;fill:#7d7d7d">
    <path id="path14934" d="m94.488 287.538.58-.073q.066.508.29.729.228.217.594.217.441 0 .76-.316.324-.317.324-.725 0-.356-.24-.587-.241-.234-.647-.234-.046 0-.19.013l.101-.498q.086.014.165.014.511 0 .785-.248.276-.25.276-.613 0-.332-.227-.56-.224-.227-.55-.227-.32 0-.577.234-.254.23-.327.656l-.586-.12q.145-.596.557-.922t.975-.326q.594 0 .96.359.369.36.369.883 0 .383-.201.67-.198.283-.597.47.284.169.422.406.142.237.142.544 0 .65-.488 1.127-.485.475-1.16.475-.656 0-1.062-.366-.402-.37-.448-.982"/>
  </g>
  <g id="text76" aria-label="4" class="cls-6 supplied staffN" style="font-style:italic;font-size:6.75px;font-family:Arial-ItalicMT,Arial;isolation:isolate;fill:#7d7d7d">
    <path id="path14931" d="m96.199 329.303.26-1.232h-1.97l.124-.59 2.706-3.01h.488l-.643 3.072h.68l-.11.528h-.678l-.26 1.232zm.369-1.76.422-2.017-1.8 2.017z"/>
  </g>
  <path id="path78" d="m151.425 197.663.1 134.9" class="cls-8" style="fill:none;stroke:#000;stroke-width:.49000001px"/>
  <g id="text84" aria-label="„Wie bin ich froh!“" style="font-size:14px;font-family:TimesNewRomanPSMT,&quot;Times New Roman&quot;;isolation:isolate">
    <path id="path14898" d="M202.972 180.573v-.287q.69-.39.902-.71.219-.315.219-.732 0-.191-.069-.287-.075-.096-.164-.096-.068 0-.219.055-.15.055-.3.055-.287 0-.492-.206-.206-.205-.206-.499 0-.328.26-.574.267-.246.643-.246.451 0 .813.39.37.39.37.984 0 .718-.465 1.313-.458.594-1.292.84m3.26 0v-.287q.595-.307.855-.656.266-.342.266-.745 0-.24-.068-.335-.068-.089-.15-.089-.09 0-.24.055-.157.055-.273.055-.28 0-.492-.212-.205-.212-.205-.506 0-.328.253-.568t.622-.239q.465 0 .834.403.369.397.369.978 0 .684-.458 1.271-.451.595-1.313.875"/>
    <path id="path14900" d="M221.5 169.144v.253q-.362 0-.588.13t-.43.485q-.137.24-.431 1.142l-2.584 7.471h-.274l-2.112-5.927-2.099 5.927h-.246l-2.755-7.697q-.307-.861-.39-1.019-.136-.26-.375-.382-.233-.13-.636-.13v-.253h3.432v.253h-.164q-.363 0-.554.164t-.191.396q0 .24.3 1.1l1.825 5.203 1.539-4.423-.274-.78-.219-.621q-.143-.342-.32-.602-.09-.13-.22-.219-.17-.123-.341-.177-.13-.041-.41-.041v-.253h3.609v.253h-.246q-.383 0-.56.164-.179.164-.179.444 0 .349.308 1.217l1.777 5.038 1.764-5.106q.3-.848.3-1.176 0-.157-.102-.294-.095-.137-.246-.192-.26-.095-.677-.095v-.253z" style="letter-spacing:-.04em"/>
    <path id="path14902" d="M223.086 168.693q.287 0 .485.205.205.198.205.485t-.205.492q-.198.205-.485.205t-.492-.205q-.206-.205-.206-.492t.199-.485q.205-.205.499-.205m.567 3.274v5.031q0 .588.082.786.089.192.253.288.171.095.615.095v.246h-3.042v-.246q.458 0 .616-.089t.246-.294q.095-.205.095-.786v-2.413q0-1.018-.061-1.32-.048-.218-.15-.3-.103-.089-.28-.089-.192 0-.466.103l-.095-.246 1.886-.766z"/>
    <path id="path14904" d="M226.435 174.51q-.007 1.395.677 2.187.684.793 1.607.793.615 0 1.066-.335.458-.341.766-1.162l.212.137q-.144.937-.834 1.71-.69.765-1.73.765-1.128 0-1.935-.875-.8-.882-.8-2.366 0-1.606.821-2.501.827-.903 2.071-.903 1.053 0 1.73.697.677.69.677 1.853zm0-.396h2.899q-.034-.602-.144-.848-.17-.383-.512-.602-.335-.218-.705-.218-.567 0-1.018.444-.444.437-.52 1.224"/>
    <path id="path14906" d="M236.812 173.232q.91-1.265 1.962-1.265.964 0 1.682.827.718.82.718 2.25 0 1.667-1.108 2.686-.95.875-2.119.875-.547 0-1.114-.199-.56-.198-1.149-.594v-6.488q0-1.066-.054-1.312-.048-.246-.158-.335-.109-.089-.273-.089-.191 0-.478.11l-.096-.24 1.88-.765h.307zm0 .437v3.746q.349.342.718.52.376.17.766.17.622 0 1.155-.683.54-.683.54-1.99 0-1.202-.54-1.845-.533-.65-1.217-.65-.362 0-.724.185-.274.137-.698.547"/>
    <path id="path14908" d="M243.69 168.693q.286 0 .485.205.205.198.205.485t-.205.492q-.199.205-.486.205t-.492-.205-.205-.492.198-.485q.205-.205.5-.205m.567 3.274v5.031q0 .588.082.786.089.192.253.288.17.095.615.095v.246h-3.042v-.246q.458 0 .615-.089t.246-.294q.096-.205.096-.786v-2.413q0-1.018-.062-1.32-.048-.218-.15-.3-.103-.089-.28-.089-.192 0-.465.103l-.096-.246 1.887-.766z"/>
    <path id="path14910" d="M247.811 173.293q1.1-1.326 2.099-1.326.513 0 .882.26.369.253.588.84.15.41.15 1.258v2.673q0 .595.096.807.075.17.239.267.17.095.622.095v.246h-3.097v-.246h.13q.438 0 .609-.13.177-.136.246-.396.027-.103.027-.643v-2.563q0-.855-.225-1.238-.22-.39-.746-.39-.813 0-1.62.89v3.301q0 .636.075.786.096.199.26.294.171.09.684.09v.245h-3.097v-.246h.137q.478 0 .642-.239.171-.246.171-.93v-2.324q0-1.128-.054-1.374-.048-.246-.158-.335-.102-.089-.28-.089-.191 0-.458.103l-.102-.246 1.886-.766h.294z"/>
    <path id="path14912" d="M258.079 168.693q.287 0 .485.205.205.198.205.485t-.205.492q-.198.205-.485.205t-.492-.205-.205-.492.198-.485q.205-.205.499-.205m.567 3.274v5.031q0 .588.082.786.09.192.253.288.171.095.615.095v.246h-3.042v-.246q.458 0 .616-.089t.246-.294q.095-.205.095-.786v-2.413q0-1.018-.061-1.32-.048-.218-.15-.3-.103-.089-.28-.089-.192 0-.466.103l-.095-.246 1.887-.766z"/>
    <path id="path14914" d="M265.694 176.034q-.253 1.238-.991 1.908-.738.663-1.634.663-1.066 0-1.86-.896-.792-.895-.792-2.42 0-1.476.875-2.4.882-.922 2.112-.922.923 0 1.518.492.594.486.594 1.012 0 .26-.17.424-.165.157-.465.157-.404 0-.609-.26-.116-.143-.157-.547-.034-.403-.273-.615-.24-.205-.663-.205-.684 0-1.101.506-.554.67-.554 1.77 0 1.121.547 1.983.554.854 1.49.854.67 0 1.203-.458.376-.314.732-1.141z"/>
    <path id="path14916" d="M268.429 168.693v4.58q.758-.834 1.203-1.067.444-.239.888-.239.534 0 .916.294.383.294.568.923.13.437.13 1.6v2.214q0 .595.095.814.069.164.233.26.164.095.601.095v.246h-3.076v-.246h.144q.437 0 .608-.13.171-.136.24-.396.02-.11.02-.643v-2.215q0-1.025-.11-1.346-.102-.322-.335-.479-.232-.164-.56-.164-.335 0-.697.178-.363.178-.868.718v3.308q0 .643.068.8.075.157.267.267.198.102.676.102v.246h-3.103v-.246q.417 0 .656-.13.137-.068.219-.26.082-.19.082-.779v-5.667q0-1.073-.055-1.319-.048-.246-.157-.335-.103-.089-.28-.089-.144 0-.465.11l-.096-.24 1.873-.765z"/>
    <path id="path14918" d="M279.537 172.644v4.115q0 .875.191 1.107.253.301.677.301h.567v.246h-3.739v-.246h.28q.274 0 .5-.137.225-.136.307-.369.089-.232.089-.902v-4.115h-1.217v-.492h1.217v-.41q0-.937.3-1.586.302-.65.917-1.046.622-.404 1.394-.404.718 0 1.32.465.396.308.396.69 0 .206-.178.39-.177.178-.382.178-.158 0-.335-.11-.171-.116-.424-.485-.253-.376-.465-.506t-.472-.13q-.314 0-.533.171-.219.164-.314.52-.096.349-.096 1.811v.452h1.613v.492z"/>
    <path id="path14920" d="M283.584 171.967v1.408q.786-1.408 1.613-1.408.376 0 .622.232.246.226.246.527 0 .266-.177.451-.178.185-.424.185-.24 0-.54-.233-.294-.24-.438-.24-.123 0-.266.138-.308.28-.636.922v3.001q0 .52.13.787.089.184.314.307.226.123.65.123v.246h-3.207v-.246q.479 0 .711-.15.171-.11.24-.349.034-.116.034-.663v-2.427q0-1.093-.048-1.298-.04-.212-.164-.308-.116-.096-.294-.096-.212 0-.478.103l-.069-.246 1.894-.766z"/>
    <path id="path14922" d="M289.476 171.967q1.422 0 2.284 1.08.731.923.731 2.12 0 .84-.403 1.701-.404.862-1.115 1.3-.704.437-1.572.437-1.415 0-2.249-1.128-.704-.95-.704-2.133 0-.861.424-1.709.43-.855 1.128-1.258.697-.41 1.476-.41m-.212.444q-.362 0-.731.22-.362.211-.588.751t-.225 1.388q0 1.367.54 2.358.546.991 1.435.991.663 0 1.094-.547.43-.546.43-1.88 0-1.667-.717-2.624-.486-.657-1.238-.657"/>
    <path id="path14924" d="M295.253 168.693v4.58q.759-.834 1.203-1.067.444-.239.889-.239.533 0 .916.294.382.294.567.923.13.437.13 1.6v2.214q0 .595.096.814.068.164.232.26.164.095.602.095v.246h-3.077v-.246h.144q.437 0 .608-.13.171-.136.24-.396.02-.11.02-.643v-2.215q0-1.025-.11-1.346-.102-.322-.334-.479-.233-.164-.56-.164-.336 0-.698.178t-.868.718v3.308q0 .643.068.8.075.157.267.267.198.102.676.102v.246h-3.103v-.246q.417 0 .656-.13.137-.068.219-.26.082-.19.082-.779v-5.667q0-1.073-.055-1.319-.048-.246-.157-.335-.102-.089-.28-.089-.144 0-.465.11l-.096-.24 1.873-.765z"/>
    <path id="path14926" d="M302.437 175.96h-.26l-.601-5.538q-.041-.362-.041-.54 0-.43.226-.69.232-.26.553-.26t.54.26q.226.26.226.772 0 .164-.027.458zm-.136 1.134q.314 0 .533.226.225.218.225.526 0 .314-.225.54-.219.219-.533.219t-.54-.219q-.22-.226-.22-.54 0-.308.22-.526.225-.226.54-.226"/>
    <path id="path14928" d="M306.867 168.932v.28q-.602.315-.861.656-.26.342-.26.746 0 .239.068.328.062.095.15.095.09 0 .24-.048.15-.054.273-.054.28 0 .486.212.212.205.212.506 0 .328-.253.567-.253.232-.63.232-.457 0-.826-.396-.37-.397-.37-.978 0-.683.452-1.271.458-.595 1.319-.875m3.26.02v.26q-.69.397-.908.711-.22.315-.22.738 0 .192.076.287.075.096.157.096.075 0 .226-.055.15-.054.3-.054.28 0 .486.205.212.198.212.492 0 .335-.267.581-.26.246-.642.246-.451 0-.814-.39t-.362-.97q0-.718.458-1.306.458-.595 1.299-.84z"/>
  </g>
  <g id="text88" aria-label="M 317 Sk1" class="cls-12" style="font-weight:700;font-size:12px;font-family:Arial-BoldMT,Arial;isolation:isolate">
    <path id="path14882" d="M94.488 84.327v-8.59h2.596l1.558 5.86 1.542-5.86h2.601v8.59h-1.611v-6.762l-1.705 6.762h-1.67l-1.7-6.762v6.762z"/>
    <path id="path14884" d="m107.42 82.048 1.594-.194q.076.61.41.932t.808.322q.51 0 .856-.387.351-.386.351-1.043 0-.62-.334-.984-.334-.363-.814-.363-.316 0-.756.123l.182-1.342q.668.018 1.02-.287.35-.31.35-.82 0-.434-.257-.692-.258-.258-.686-.258-.421 0-.72.293-.3.293-.364.856l-1.517-.258q.158-.78.474-1.242.323-.469.891-.733.574-.27 1.283-.27 1.213 0 1.946.774.603.633.603 1.43 0 1.13-1.236 1.805.738.158 1.178.709.445.55.445 1.33 0 1.13-.826 1.927t-2.057.797q-1.166 0-1.934-.668-.767-.673-.89-1.757"/>
    <path id="path14886" d="M118.365 84.327h-1.646v-6.205q-.903.844-2.127 1.248v-1.494q.644-.211 1.4-.797.756-.592 1.037-1.377h1.336z"/>
    <path id="path14888" d="M120.826 77.384v-1.53h5.63v1.196q-.696.685-1.417 1.968-.72 1.283-1.102 2.73-.375 1.442-.369 2.579h-1.588q.041-1.781.733-3.633.697-1.851 1.857-3.31z"/>
    <path id="path14890" d="m130.758 81.532 1.687-.164q.153.85.615 1.248.47.398 1.26.398.838 0 1.26-.351.428-.358.428-.832 0-.305-.182-.516-.176-.217-.621-.375-.305-.105-1.389-.375-1.394-.346-1.957-.85-.79-.708-.79-1.728 0-.656.368-1.225.375-.574 1.073-.873.703-.298 1.693-.298 1.617 0 2.432.709.82.709.861 1.892l-1.734.076q-.112-.662-.48-.949-.364-.293-1.097-.293-.755 0-1.183.31-.276.2-.276.534 0 .305.258.521.328.276 1.594.575t1.87.62q.609.317.948.874.346.55.346 1.365 0 .738-.41 1.383-.41.644-1.16.96-.75.311-1.87.311-1.628 0-2.501-.75-.873-.756-1.043-2.197"/>
    <path id="path14892" d="M139.13 84.327v-8.59h1.647v4.559l1.928-2.192h2.027l-2.127 2.274 2.28 3.949h-1.776l-1.564-2.795-.768.803v1.992z"/>
    <path id="path14894" d="M149.725 84.327h-1.647v-6.205q-.902.844-2.127 1.248v-1.494q.645-.211 1.4-.797.756-.592 1.038-1.377h1.336z"/>
  </g>
  <g id="text98" aria-label="3" class="cls-1" style="font-size:13.5px;font-family:Maestro,Maestro;isolation:isolate">
    <path id="path14875" d="M171.161 242.89q0 .513-.284.89-.27.379-.675.622t-.864.35q-.459.122-.823.122-.513 0-.959-.121-.432-.122-.756-.351-.324-.23-.513-.567-.175-.324-.175-.743 0-.175.081-.35.081-.176.202-.311.135-.135.297-.23.176-.08.365-.08.378 0 .702.215.324.216.324.648 0 .257-.081.419t-.176.283q-.094.122-.175.243-.068.135-.054.31 0 .041.067.095.068.068.149.122.094.054.175.08.095.041.149.041.337 0 .58-.175.257-.162.419-.419.175-.256.256-.54.081-.283.081-.513 0-.432-.189-.661-.175-.216-.459-.324-.27-.095-.62-.135-.338-.027-.662-.095v-.189q.013-.067.013-.108v-.054q.324-.04.635-.121.31-.081.553-.243t.378-.419q.149-.256.149-.634 0-.527-.189-.797-.176-.283-.405-.391-.23-.122-.446-.122-.202-.013-.27-.013-.04 0-.108.04-.054.027-.121.081-.068.04-.108.108-.04.054-.04.108.013.108.08.203l.176.202q.108.095.202.23.108.121.176.324.067.189 0 .391-.068.19-.216.351-.149.149-.351.243-.189.095-.378.095-.23 0-.419-.108t-.324-.257q-.135-.162-.216-.337t-.08-.297q0-.297.121-.608.135-.31.445-.567.324-.256.837-.418.527-.176 1.323-.176.338 0 .689.122.351.108.621.324t.445.513q.176.297.176.675 0 .5-.243.783t-.54.445q-.284.162-.527.243-.243.068-.243.135.297.027.608.108.324.081.594.243t.445.419q.176.256.176.648"/>
  </g>
  <g id="text100" aria-label="4" class="cls-1" style="font-size:13.5px;font-family:Maestro,Maestro;isolation:isolate">
    <path id="path14872" d="M170.041 249.788v.891q0 .203.094.31.095.109.216.163.149.054.324.054v.35h-2.929v-.35q.175 0 .324-.054.121-.04.216-.149.108-.094.108-.297v-.918h-2.498l-.243-.256q.405-.554.689-.972.283-.405.472-.756.203-.351.324-.648.122-.31.216-.635.095-.324.162-.702.081-.391.176-.89h2.335q-.202.39-.634.93-.419.527-.945 1.135-.527.594-1.094 1.228-.567.621-1.053 1.188h2.093v-1.66l1.647-1.81v3.47h.972v.378z"/>
  </g>
  <g id="g6407" class="link-box">
    <path id="rect86" d="M172.625 188.863h237.3v30.2h-237.3Z" class="cls-11" style="fill:#fff;stroke:#7d7d7d;stroke-width:.4px;stroke-miterlimit:10"/>
    <g id="text110" aria-label="Sk2" class="cls-12" style="font-weight:700;font-size:12px;font-family:Arial-BoldMT,Arial;isolation:isolate;fill:#7d7d7d">
      <path id="path14861" d="m281.11 205.46 1.687-.164q.152.85.615 1.248.469.399 1.26.399.838 0 1.26-.352.427-.357.427-.832 0-.304-.181-.515-.176-.217-.621-.375-.305-.106-1.389-.375-1.394-.346-1.957-.85-.791-.709-.791-1.729 0-.656.37-1.224.374-.574 1.071-.873.704-.299 1.694-.299 1.617 0 2.431.709.82.709.862 1.893l-1.735.076q-.111-.662-.48-.95-.363-.292-1.096-.292-.756 0-1.183.31-.276.2-.276.533 0 .305.258.522.328.275 1.594.574 1.265.299 1.869.621.61.316.95.873.345.55.345 1.365 0 .739-.41 1.383-.41.645-1.16.961-.75.31-1.87.31-1.629 0-2.502-.75-.873-.755-1.043-2.197z"/>
      <path id="path14863" d="M289.483 208.255v-8.59h1.646v4.56l1.928-2.192h2.027l-2.127 2.273 2.28 3.95h-1.776l-1.564-2.796-.768.803v1.992z"/>
      <path id="path14865" d="M301.424 206.726v1.53h-5.772q.094-.868.563-1.641.469-.78 1.852-2.063 1.113-1.037 1.365-1.406.34-.51.34-1.008 0-.55-.3-.844-.292-.298-.814-.298-.515 0-.82.31t-.352 1.031l-1.64-.164q.146-1.36.92-1.95.773-.593 1.933-.593 1.272 0 1.998.686.727.685.727 1.705 0 .58-.211 1.107-.205.522-.656 1.096-.3.38-1.078 1.096-.78.715-.99.949-.206.234-.335.457z"/>
    </g>
  </g>
  <g id="g6443" class="link-box">
    <path id="polygon92" d="M803.5 190.4h130.1v-31H804.5v-41.5h-266v30.2h170v83.3h95z" class="cls-11" style="fill:#fff;stroke:#7d7d7d;stroke-width:.4px;stroke-miterlimit:10" transform="translate(66.625 70.963)"/>
    <g id="text112" aria-label="Sk2.1" class="cls-12" style="font-weight:700;font-size:12px;font-family:Arial-BoldMT,Arial;isolation:isolate;fill:#7d7d7d">
      <path id="path14850" d="m788.18 247.06 1.687-.164q.152.85.615 1.248.469.399 1.26.399.838 0 1.26-.352.427-.357.427-.832 0-.304-.181-.515-.176-.217-.621-.375-.305-.106-1.389-.375-1.395-.346-1.957-.85-.791-.709-.791-1.729 0-.656.37-1.224.374-.574 1.071-.873.703-.299 1.694-.299 1.617 0 2.431.709.82.709.862 1.893l-1.735.076q-.111-.662-.48-.95-.363-.292-1.096-.292-.756 0-1.183.31-.276.2-.276.533 0 .305.258.522.328.275 1.594.574 1.265.299 1.869.621.61.317.949.873.346.55.346 1.365 0 .739-.41 1.383-.41.645-1.16.961-.75.31-1.87.31-1.629 0-2.502-.75-.873-.755-1.043-2.197z"/>
      <path id="path14852" d="M796.552 249.855v-8.59h1.647v4.56l1.928-2.192h2.027l-2.127 2.273 2.28 3.95h-1.776l-1.565-2.796-.767.803v1.992z"/>
      <path id="path14854" d="M808.494 248.326v1.53h-5.772q.094-.868.563-1.641.469-.78 1.851-2.063 1.114-1.037 1.366-1.406.34-.51.34-1.008 0-.55-.3-.844-.292-.298-.814-.298-.515 0-.82.31t-.352 1.031l-1.64-.164q.146-1.36.92-1.95.773-.593 1.933-.593 1.272 0 1.998.686.727.685.727 1.705 0 .58-.211 1.107-.205.522-.656 1.096-.3.38-1.078 1.096-.78.715-.99.949-.206.234-.335.457z"/>
      <path id="path14856" d="M809.959 249.855v-1.646h1.646v1.646z"/>
      <path id="path14858" d="M817.154 249.855h-1.646v-6.205q-.903.844-2.127 1.248v-1.494q.644-.21 1.4-.797.756-.592 1.037-1.377h1.336z"/>
    </g>
  </g>
  <g id="g6490" class="link-box">
    <path id="rect90" d="M873.625 188.863h126.6v30.2h-126.6Z" class="cls-11" style="fill:#fff;stroke:#7d7d7d;stroke-width:.4px;stroke-miterlimit:10"/>
    <g id="text114" aria-label="Sk2.1.1" class="cls-12" style="font-weight:700;font-size:12px;font-family:Arial-BoldMT,Arial;isolation:isolate;fill:#7d7d7d">
      <path id="path14835" d="m917.425 205.46 1.688-.164q.152.85.615 1.248.469.399 1.26.399.838 0 1.26-.352.427-.357.427-.832 0-.304-.181-.515-.176-.217-.621-.375-.305-.106-1.389-.375-1.394-.346-1.957-.85-.791-.709-.791-1.729 0-.656.37-1.224.374-.574 1.071-.873.704-.299 1.694-.299 1.617 0 2.431.709.82.709.862 1.893l-1.735.076q-.111-.662-.48-.95-.363-.292-1.096-.292-.756 0-1.183.31-.276.2-.276.533 0 .305.258.522.328.275 1.594.574 1.265.299 1.869.621.61.316.95.873.345.55.345 1.365 0 .739-.41 1.383-.41.645-1.16.961-.75.31-1.87.31-1.629 0-2.502-.75-.873-.755-1.043-2.197"/>
      <path id="path14837" d="M925.799 208.255v-8.59h1.646v4.56l1.928-2.192h2.027l-2.127 2.273 2.28 3.95h-1.776l-1.564-2.796-.768.803v1.992z"/>
      <path id="path14839" d="M937.74 206.726v1.53h-5.772q.094-.868.563-1.641.469-.78 1.852-2.063 1.113-1.037 1.365-1.406.34-.51.34-1.008 0-.55-.3-.844-.292-.298-.814-.298-.515 0-.82.31t-.352 1.031l-1.64-.164q.146-1.36.92-1.95.773-.593 1.933-.593 1.272 0 1.998.686.727.685.727 1.705 0 .58-.211 1.107-.205.522-.656 1.096-.3.38-1.078 1.096-.78.715-.99.949-.206.234-.335.457z"/>
      <path id="path14841" d="M939.205 208.255v-1.646h1.646v1.646z"/>
      <path id="path14843" d="M946.4 208.255h-1.646v-6.205q-.903.844-2.127 1.248v-1.494q.644-.21 1.4-.797.756-.592 1.037-1.377h1.336z"/>
      <path id="path14845" d="M949.213 208.255v-1.646h1.646v1.646z"/>
      <path id="path14847" d="M956.408 208.255h-1.647v-6.205q-.902.844-2.127 1.248v-1.494q.645-.21 1.4-.797.757-.592 1.038-1.377h1.336z"/>
    </g>
  </g>
  <g id="g6479" class="link-box">
    <path id="rect96" d="M886.625 296.863h75v20.6h-75z" class="cls-11" style="fill:#fff;stroke:#7d7d7d;stroke-width:.40000001px;stroke-miterlimit:10"/>
    <g id="text116" aria-label="Sk2.1.3" class="cls-12" style="font-weight:700;font-size:12px;font-family:Arial-BoldMT,Arial;isolation:isolate;fill:#7d7d7d">
      <path id="path14820" d="m903.908 308.66 1.687-.164q.153.85.615 1.248.47.399 1.26.399.838 0 1.26-.352.428-.357.428-.832 0-.304-.182-.515-.176-.217-.621-.375-.305-.106-1.389-.375-1.394-.346-1.957-.85-.79-.709-.79-1.729 0-.656.368-1.224.375-.574 1.073-.873.703-.299 1.693-.299 1.617 0 2.432.709.82.709.861 1.893l-1.734.076q-.112-.662-.48-.95-.364-.292-1.097-.292-.755 0-1.183.31-.276.2-.276.533 0 .305.258.522.328.275 1.594.574t1.87.621q.609.316.948.873.346.55.346 1.365 0 .739-.41 1.383-.41.645-1.16.961-.75.31-1.87.31-1.628 0-2.501-.75-.873-.755-1.043-2.197"/>
      <path id="path14822" d="M912.28 311.455v-8.59h1.647v4.559l1.928-2.191h2.027l-2.127 2.273 2.28 3.95h-1.776l-1.564-2.796-.768.803v1.992z"/>
      <path id="path14824" d="M924.222 309.926v1.53h-5.771q.093-.868.562-1.641.469-.78 1.852-2.063 1.113-1.037 1.365-1.406.34-.51.34-1.008 0-.55-.299-.844-.293-.298-.814-.298-.516 0-.82.31-.305.31-.352 1.031l-1.641-.164q.147-1.36.92-1.95.773-.593 1.934-.593 1.271 0 1.998.686.726.685.726 1.705 0 .58-.21 1.107-.206.522-.657 1.096-.299.38-1.078 1.096-.78.715-.99.949-.205.234-.334.457z"/>
      <path id="path14826" d="M925.687 311.455v-1.646h1.646v1.646z"/>
      <path id="path14828" d="M932.882 311.455h-1.646v-6.205q-.902.844-2.127 1.248v-1.494q.644-.21 1.4-.797.756-.592 1.037-1.377h1.336z"/>
      <path id="path14830" d="M935.695 311.455v-1.646h1.646v1.646z"/>
      <path id="path14832" d="m938.619 309.176 1.593-.193q.077.609.41.931.335.323.81.323.509 0 .855-.387.351-.387.351-1.043 0-.621-.334-.985-.334-.363-.814-.363-.317 0-.756.123l.182-1.342q.667.018 1.02-.287.35-.31.35-.82 0-.434-.257-.691-.258-.258-.686-.258-.422 0-.72.293-.3.293-.364.855l-1.517-.258q.158-.779.474-1.242.323-.469.89-.732.575-.27 1.284-.27 1.213 0 1.945.774.604.633.604 1.43 0 1.13-1.236 1.804.738.158 1.177.71.446.55.446 1.33 0 1.13-.826 1.927-.827.797-2.057.797-1.166 0-1.934-.668-.767-.674-.89-1.758"/>
    </g>
  </g>
  <g id="g6454" class="link-box">
    <path id="rect94" d="M619.326 230.463h141.3v30.2h-141.3z" class="cls-11" style="fill:#fff;stroke:#7d7d7d;stroke-width:.4px;stroke-miterlimit:10"/>
    <g id="text118" aria-label="Sk2.1.2" class="cls-12" style="font-weight:700;font-size:12px;font-family:Arial-BoldMT,Arial;isolation:isolate;fill:#7d7d7d">
      <path id="path14805" d="m669.802 247.06 1.687-.164q.153.85.615 1.248.47.399 1.26.399.838 0 1.26-.352.428-.357.428-.832 0-.304-.182-.515-.176-.217-.621-.375-.305-.106-1.389-.375-1.394-.346-1.957-.85-.79-.709-.79-1.729 0-.656.368-1.224.375-.574 1.073-.873.703-.299 1.693-.299 1.617 0 2.432.709.82.709.861 1.893l-1.734.076q-.112-.662-.48-.95-.364-.292-1.097-.292-.755 0-1.183.31-.276.2-.276.533 0 .305.258.522.328.275 1.594.574t1.87.621q.609.317.948.873.346.55.346 1.365 0 .739-.41 1.383-.41.645-1.16.961-.75.31-1.87.31-1.628 0-2.501-.75-.873-.755-1.043-2.197"/>
      <path id="path14807" d="M678.175 249.855v-8.59h1.646v4.56l1.928-2.192h2.027l-2.127 2.273 2.28 3.95h-1.776l-1.564-2.796-.768.803v1.992z"/>
      <path id="path14809" d="M690.116 248.326v1.53h-5.771q.093-.868.562-1.641.469-.78 1.852-2.063 1.113-1.037 1.365-1.406.34-.51.34-1.008 0-.55-.299-.844-.293-.298-.814-.298-.516 0-.82.31-.305.31-.352 1.031l-1.641-.164q.147-1.36.92-1.95.773-.593 1.934-.593 1.271 0 1.998.686.726.685.726 1.705 0 .58-.21 1.107-.206.522-.657 1.096-.299.38-1.078 1.096-.78.715-.99.949-.205.234-.334.457z"/>
      <path id="path14811" d="M691.581 249.855v-1.646h1.646v1.646z"/>
      <path id="path14813" d="M698.776 249.855h-1.646v-6.205q-.903.844-2.127 1.248v-1.494q.644-.21 1.4-.797.756-.592 1.037-1.377h1.336z"/>
      <path id="path14815" d="M701.589 249.855v-1.646h1.646v1.646z"/>
      <path id="path14817" d="M710.132 248.326v1.53h-5.772q.094-.868.563-1.641.469-.78 1.851-2.063 1.114-1.037 1.366-1.406.34-.51.34-1.008 0-.55-.3-.844-.292-.298-.814-.298-.515 0-.82.31t-.352 1.031l-1.64-.164q.146-1.36.92-1.95.773-.593 1.933-.593 1.272 0 1.998.686.727.685.727 1.705 0 .58-.211 1.107-.205.522-.656 1.096-.3.38-1.079 1.096-.779.715-.99.949-.205.234-.334.457z"/>
    </g>
  </g>
  <g id="g6468" class="link-box">
    <path id="rect106" d="M735.625 310.863h40.2v30.2h-40.2z" class="cls-11" style="fill:#fff;stroke:#7d7d7d;stroke-width:.4px;stroke-miterlimit:10"/>
    <g id="text120" aria-label="Sk2.1." class="cls-12" style="font-weight:700;font-size:12px;font-family:Arial-BoldMT,Arial;isolation:isolate;fill:#7d7d7d">
      <path id="path14792" d="m738.997 319.758 1.687-.164q.153.85.616 1.248.468.399 1.26.399.837 0 1.26-.352.427-.357.427-.832 0-.304-.182-.515-.175-.217-.62-.375-.305-.106-1.39-.375-1.394-.346-1.956-.85-.792-.709-.792-1.729 0-.656.37-1.224.375-.574 1.072-.873.703-.299 1.693-.299 1.617 0 2.432.709.82.709.861 1.893l-1.734.076q-.111-.662-.48-.95-.364-.292-1.096-.292-.756 0-1.184.31-.275.2-.275.533 0 .305.258.522.328.275 1.593.574 1.266.299 1.87.621.609.317.949.873.345.55.345 1.365 0 .739-.41 1.383-.41.645-1.16.961-.75.31-1.87.31-1.628 0-2.501-.75-.873-.755-1.043-2.197"/>
      <path id="path14794" d="M747.37 322.553v-8.59h1.646v4.56l1.928-2.192h2.028l-2.127 2.273 2.279 3.95h-1.775l-1.565-2.796-.768.803v1.992z"/>
      <path id="path14796" d="M759.311 321.024v1.53h-5.771q.094-.868.562-1.641.47-.78 1.852-2.063 1.113-1.037 1.365-1.406.34-.51.34-1.008 0-.55-.299-.844-.293-.298-.814-.298-.516 0-.82.31-.305.31-.352 1.031l-1.64-.164q.146-1.36.92-1.95.773-.593 1.933-.593 1.271 0 1.998.686.726.685.726 1.705 0 .58-.21 1.107-.206.522-.657 1.096-.299.38-1.078 1.096-.78.715-.99.949-.205.234-.334.457z"/>
      <path id="path14798" d="M760.776 322.553v-1.646h1.647v1.646z"/>
      <path id="path14800" d="M767.972 322.553h-1.647v-6.205q-.902.844-2.127 1.248v-1.494q.645-.21 1.4-.797.756-.592 1.038-1.377h1.336z"/>
      <path id="path14802" d="M770.784 322.553v-1.646h1.647v1.646z"/>
    </g>
    <g id="text122" aria-label="2.1" class="cls-12" style="font-weight:700;font-size:12px;font-family:Arial-BoldMT,Arial;isolation:isolate;fill:#7d7d7d">
      <path id="path14785" d="M744.768 335.424v1.53h-5.771q.094-.868.562-1.641.47-.78 1.852-2.063 1.113-1.037 1.365-1.406.34-.51.34-1.008 0-.55-.299-.844-.293-.298-.814-.298-.516 0-.82.31-.305.31-.352 1.031l-1.64-.164q.146-1.36.92-1.95.773-.593 1.933-.593 1.271 0 1.998.686.726.685.726 1.705 0 .58-.21 1.107-.206.522-.657 1.096-.299.38-1.078 1.096-.78.715-.99.949-.205.234-.334.457z"/>
      <path id="path14787" d="M746.233 336.953v-1.646h1.647v1.646z"/>
      <path id="path14789" d="M753.429 336.953h-1.647v-6.205q-.902.844-2.127 1.248v-1.494q.645-.21 1.4-.797.756-.592 1.038-1.377h1.336z"/>
    </g>
  </g>
  <g id="g6414" class="link-box">
    <path id="rect102" d="M236.925 270.363h368.2v30.2h-368.2Z" class="cls-11" style="fill:#fff;stroke:#7d7d7d;stroke-width:.4px;stroke-miterlimit:10"/>
    <g id="text124" aria-label="Sk3" class="cls-12" style="font-weight:700;font-size:12px;font-family:Arial-BoldMT,Arial;isolation:isolate;fill:#7d7d7d">
      <path id="path14778" d="m410.816 286.96 1.687-.164q.152.85.615 1.248.469.399 1.26.399.838 0 1.26-.352.428-.357.428-.832 0-.304-.182-.515-.176-.217-.621-.375-.305-.106-1.389-.375-1.394-.346-1.957-.85-.79-.709-.79-1.729 0-.656.368-1.224.375-.574 1.073-.873.703-.299 1.693-.299 1.617 0 2.432.709.82.709.86 1.893l-1.734.076q-.11-.662-.48-.95-.363-.292-1.096-.292-.756 0-1.183.31-.276.2-.276.533 0 .305.258.522.328.275 1.594.574 1.265.299 1.869.621.61.316.95.873.345.55.345 1.365 0 .739-.41 1.383-.41.645-1.16.961-.75.31-1.87.31-1.628 0-2.501-.75-.874-.755-1.043-2.197"/>
      <path id="path14780" d="M419.189 289.755v-8.59h1.646v4.56l1.928-2.192h2.027l-2.127 2.273 2.28 3.95h-1.776l-1.564-2.796-.768.803v1.992z"/>
      <path id="path14782" d="m425.51 287.476 1.595-.193q.076.609.41.931t.808.323q.51 0 .856-.387.351-.387.351-1.043 0-.621-.334-.985-.334-.363-.814-.363-.316 0-.756.123l.182-1.342q.668.018 1.02-.287.35-.31.35-.82 0-.434-.257-.691-.258-.258-.686-.258-.421 0-.72.293-.3.293-.364.855l-1.517-.258q.158-.779.475-1.242.322-.468.89-.732.574-.27 1.283-.27 1.213 0 1.946.774.603.633.603 1.43 0 1.13-1.236 1.804.738.158 1.178.71.445.55.445 1.33 0 1.13-.826 1.927t-2.057.797q-1.166 0-1.934-.668-.767-.674-.89-1.758z"/>
    </g>
  </g>
  <g id="g6425" class="link-box">
    <path id="rect104" d="M179.425 310.863h199v30.2h-199z" class="cls-11" style="fill:#fff;stroke:#7d7d7d;stroke-width:.4px;stroke-miterlimit:10"/>
    <g id="text126" aria-label="Sk3.1.2" class="cls-12" style="font-weight:700;font-size:12px;font-family:Arial-BoldMT,Arial;isolation:isolate;fill:#7d7d7d">
      <path id="path14763" d="m258.752 327.46 1.687-.164q.153.85.615 1.248.47.399 1.26.399.838 0 1.26-.352.428-.357.428-.832 0-.304-.182-.515-.176-.217-.621-.375-.305-.106-1.389-.375-1.394-.346-1.957-.85-.79-.709-.79-1.729 0-.656.368-1.224.375-.574 1.073-.873.703-.299 1.693-.299 1.617 0 2.432.709.82.709.861 1.893l-1.734.076q-.112-.662-.48-.95-.364-.292-1.097-.292-.755 0-1.183.31-.276.2-.276.533 0 .305.258.522.328.275 1.594.574t1.87.621q.609.316.948.873.346.55.346 1.365 0 .739-.41 1.383-.41.645-1.16.961-.75.31-1.87.31-1.628 0-2.501-.75-.873-.755-1.043-2.197"/>
      <path id="path14765" d="M267.125 330.255v-8.59h1.646v4.56l1.928-2.192h2.027l-2.127 2.273 2.28 3.95h-1.776l-1.564-2.796-.768.803v1.992z"/>
      <path id="path14767" d="m273.447 327.976 1.594-.193q.076.609.41.931t.808.323q.51 0 .856-.387.352-.387.352-1.043 0-.621-.334-.985-.334-.363-.815-.363-.316 0-.756.123l.182-1.342q.668.018 1.02-.287.351-.31.351-.82 0-.434-.258-.691-.258-.258-.685-.258-.422 0-.721.293t-.363.855l-1.518-.258q.158-.779.475-1.242.322-.468.89-.732.574-.27 1.283-.27 1.213 0 1.946.774.603.633.603 1.43 0 1.13-1.236 1.804.738.158 1.178.71.445.55.445 1.33 0 1.13-.826 1.927t-2.057.797q-1.166 0-1.933-.668-.768-.674-.891-1.758"/>
      <path id="path14769" d="M280.531 330.255v-1.646h1.646v1.646z"/>
      <path id="path14771" d="M287.726 330.255h-1.646v-6.205q-.903.844-2.127 1.248v-1.494q.644-.21 1.4-.797.756-.592 1.037-1.377h1.336z"/>
      <path id="path14773" d="M290.539 330.255v-1.646h1.646v1.646z"/>
      <path id="path14775" d="M299.082 328.726v1.53h-5.772q.094-.868.563-1.641.469-.78 1.851-2.063 1.114-1.037 1.366-1.406.34-.51.34-1.008 0-.55-.3-.844-.292-.298-.814-.298-.515 0-.82.31t-.352 1.031l-1.64-.164q.146-1.36.92-1.95.773-.593 1.933-.593 1.272 0 1.998.686.727.685.727 1.705 0 .58-.211 1.107-.205.522-.656 1.096-.3.38-1.079 1.096-.779.715-.99.949-.205.234-.334.457z"/>
    </g>
  </g>
  <g id="g6434" class="link-box">
    <path id="polyline108" d="m317.6 285.9-.1-46H575v-40.5h85v70.7H475v14.8" class="cls-11" style="fill:#fff;stroke:#7d7d7d;stroke-width:.4px;stroke-miterlimit:10" transform="translate(66.625 70.963)"/>
    <g id="text128" aria-label="Sk3.1" class="cls-12" style="font-weight:700;font-size:12px;font-family:Arial-BoldMT,Arial;isolation:isolate;fill:#7d7d7d">
      <path id="path14752" d="m540.88 327.46 1.687-.164q.152.85.615 1.248.469.399 1.26.399.838 0 1.26-.352.427-.357.427-.832 0-.304-.181-.515-.176-.217-.622-.375-.304-.106-1.388-.375-1.395-.346-1.957-.85-.791-.709-.791-1.729 0-.656.369-1.224.375-.574 1.072-.873.703-.299 1.694-.299 1.617 0 2.431.709.82.709.861 1.893l-1.734.076q-.111-.662-.48-.95-.364-.292-1.096-.292-.756 0-1.184.31-.275.2-.275.533 0 .305.258.522.328.275 1.594.574 1.265.299 1.869.621.609.316.949.873.346.55.346 1.365 0 .739-.41 1.383-.41.645-1.16.961-.75.31-1.87.31-1.629 0-2.502-.75-.873-.755-1.043-2.197z"/>
      <path id="path14754" d="M549.252 330.255v-8.59h1.647v4.56l1.927-2.192h2.028l-2.127 2.273 2.28 3.95h-1.776l-1.565-2.796-.767.803v1.992z"/>
      <path id="path14756" d="m555.575 327.976 1.593-.193q.076.609.41.931t.809.323q.51 0 .855-.387.352-.387.352-1.043 0-.621-.334-.985-.334-.363-.814-.363-.317 0-.756.123l.181-1.342q.668.018 1.02-.287.351-.31.351-.82 0-.434-.257-.691-.258-.258-.686-.258-.422 0-.72.293-.3.293-.364.855l-1.517-.258q.158-.779.474-1.242.322-.468.89-.732.575-.27 1.284-.27 1.213 0 1.945.774.604.633.604 1.43 0 1.13-1.236 1.804.738.158 1.177.71.446.55.446 1.33 0 1.13-.827 1.927-.826.797-2.056.797-1.166 0-1.934-.668-.767-.674-.89-1.758"/>
      <path id="path14758" d="M562.659 330.255v-1.646h1.646v1.646z"/>
      <path id="path14760" d="M569.854 330.255h-1.647v-6.205q-.902.844-2.127 1.248v-1.494q.645-.21 1.4-.797.757-.592 1.038-1.377h1.336z"/>
    </g>
  </g>
  <g id="text132" aria-label="‰" class="cls-1" style="font-size:13.5px;font-family:Maestro,Maestro;isolation:isolate">
    <path id="path14749" d="M434.577 201.558q.365-.095.608.04t.364.378q.135.243.162.54.027.284-.04.486.216-.027.391-.08.176-.055.365-.244.175-.175.283-.324.122-.148.284-.337l.189.108-1.499 5.656h-.54q.135-.445.284-.877.121-.351.243-.743.121-.378.216-.607.216-.594.351-1.067.148-.459.23-.783.094-.378.148-.661-.122.094-.338.243-.202.135-.445.27t-.5.243q-.256.094-.499.108-.527.027-.85-.284-.311-.31-.365-.715-.054-.419.175-.81.23-.405.783-.54"/>
  </g>
  <path id="line134" d="M453.925 210.663v-11.3" class="cls-2" style="fill:none;stroke:#000;stroke-width:.4px"/>
  <g id="text136" aria-label="œ" class="cls-1" style="font-size:13.5px;font-family:Maestro,Maestro;isolation:isolate">
    <path id="path14745" d="M449.953 211.197q.135-.365.405-.675.284-.31.648-.54.365-.243.783-.365.419-.135.851-.135t.756.149q.324.135.513.378.189.23.23.553.053.31-.082.675t-.418.675q-.284.324-.648.554-.365.243-.797.364-.418.135-.837.135-.432 0-.756-.148-.31-.135-.513-.378-.189-.243-.229-.567-.04-.31.094-.675"/>
  </g>
  <g id="text138" aria-label="n" class="cls-1" style="font-size:13.5px;font-family:Maestro,Maestro;isolation:isolate">
    <path id="path14742" d="M446.37 210.346v2.12l1.538-.405v-2.12zm1.89-1.809v7.709h-.352v-2.89l-1.876.487v-7.803h.337v3.01z"/>
  </g>
  <path id="line140" d="M488.425 207.263v-11.3" class="cls-2" style="fill:none;stroke:#000;stroke-width:.4px"/>
  <g id="text142" aria-label="œ" class="cls-1" style="font-size:13.5px;font-family:Maestro,Maestro;isolation:isolate">
    <path id="path14738" d="M484.403 207.817q.135-.365.405-.675.284-.31.648-.54.365-.243.783-.365.419-.135.851-.135t.756.149q.324.135.513.378.189.23.23.553.053.31-.082.675t-.418.675q-.284.324-.648.554-.365.243-.797.364-.418.135-.837.135-.432 0-.756-.148-.31-.135-.513-.378-.189-.243-.229-.567-.04-.31.094-.675"/>
  </g>
  <g id="text144" aria-label="n" class="cls-1" style="font-size:13.5px;font-family:Maestro,Maestro;isolation:isolate">
    <path id="path14735" d="M480.83 206.966v2.12l1.538-.405v-2.12zm1.89-1.809v7.709h-.352v-2.89l-1.876.487v-7.803h.337v3.01z"/>
  </g>
  <g id="text146" aria-label="J" class="cls-1" style="font-size:13.5px;font-family:Maestro,Maestro;isolation:isolate">
    <path id="path14732" d="M522.535 204.388q-.067.54-.27 1.147-.202.608-.62 1.31-.433.729-.878 1.39-.446.675-.837 1.242-.338.473-.635 1.067-.283.607-.283 1.174h-.257v-3.59h.257q.202-.028.432-.095.189-.054.432-.162.256-.095.513-.27.175-.122.391-.338.23-.216.46-.526.229-.324.445-.743.23-.418.405-.931.189-.567.23-1 .04-.431.026-.985 0-.297-.067-.62-.054-.338-.149-.649-.094-.324-.202-.607-.108-.297-.23-.513l.149-.095q.189.284.337.689.162.391.257.877.108.486.135 1.053.04.567-.04 1.175z"/>
  </g>
  <path id="line148" d="M518.925 199.963v11.2" class="cls-2" style="fill:none;stroke:#000;stroke-width:.4px"/>
  <g id="text150" aria-label="œ" class="cls-1" style="font-size:13.5px;font-family:Maestro,Maestro;isolation:isolate">
    <path id="path14728" d="M518.863 199.387q.135-.365.405-.675.284-.31.648-.54.365-.243.783-.365.419-.135.851-.135t.756.149q.324.135.513.378.189.23.23.553.053.31-.082.675t-.418.675q-.284.324-.648.554-.365.243-.797.364-.418.135-.837.135-.432 0-.756-.148-.31-.135-.513-.378-.189-.243-.229-.567-.04-.31.094-.675"/>
  </g>
  <g id="text152" aria-label="b" class="cls-1" style="font-size:13.5px;font-family:Maestro,Maestro;isolation:isolate">
    <path id="path14725" d="M515.166 194.594v3.254q.19-.176.351-.284.162-.108.311-.162.148-.067.31-.094.176-.027.392-.027.256 0 .459.108.202.108.351.283.148.176.23.392.08.216.08.418.014.216-.04.432-.054.203-.135.378-.095.23-.297.405-.203.176-.365.338-.054.054-.229.189t-.405.297q-.216.162-.459.324-.243.175-.446.31-.202.149-.337.243l-.122.108v-7.978h.351zm1.094 3.55q-.068-.08-.189-.134-.108-.054-.243-.054t-.27.08q-.135.082-.243.284-.135.257-.149.648v1.849l.081-.067q.081-.054.19-.162.121-.094.242-.216l.243-.216q.19-.175.324-.378.135-.202.203-.513.081-.31.04-.607-.04-.297-.229-.513z"/>
  </g>
  <path id="path154" d="M539.125 197.663v13.5" class="cls-8" style="fill:none;stroke:#000;stroke-width:.49000001px"/>
  <path id="line156" d="M549.026 198.263v11.2" class="cls-2" style="fill:none;stroke:#000;stroke-width:.4px"/>
  <g id="text158" aria-label="œ" class="cls-1" style="font-size:13.5px;font-family:Maestro,Maestro;isolation:isolate">
    <path id="path14721" d="M548.954 197.697q.135-.365.405-.675.283-.31.648-.54.364-.243.783-.365.418-.135.85-.135t.756.149q.324.135.513.378.189.23.23.553.054.31-.081.675t-.419.675q-.283.324-.648.554-.364.243-.796.364-.419.135-.837.135-.432 0-.756-.148-.311-.135-.513-.378-.19-.243-.23-.567-.04-.31.095-.675"/>
  </g>
  <g id="text160" aria-label="#" class="cls-1" style="font-size:13.5px;font-family:Maestro,Maestro;isolation:isolate">
    <path id="path14718" d="M545.457 196.846v2.012l1.323-.432v-2.012zm-.391-1.269v-2.2h.391v2.065l1.323-.432v-1.97h.392v1.849l.526-.176v1.404l-.526.176v1.998l.526-.162v1.39l-.526.176v2.2h-.392v-2.079l-1.323.432v1.998h-.391v-1.863l-.58.19v-1.405l.58-.189v-2.011l-.58.189v-1.39z"/>
  </g>
  <g id="g6494" class="tkk">
    <path id="path162" d="M596.325 191.063h3.7" class="cls-14" style="fill:none;stroke:#000;stroke-width:.38999999px"/>
    <path id="path164" d="M600.025 191.063v23.2" class="cls-14" style="fill:none;stroke:#000;stroke-width:.38999999px"/>
  </g>
  <g id="g989" class="supplied clef">
    <g id="text130" aria-label="&amp;" style="font-size:10.13px;font-family:Maestro,Maestro;isolation:isolate;fill:#7d7d7d">
      <path id="path14715" d="M424.566 210.356q-.284.05-.608.06-.314.011-.618-.02-.304-.02-.567-.07-.253-.04-.415-.122-.78-.375-1.267-.8-.476-.415-.739-.871t-.375-.932q-.101-.487-.132-.973-.04-.527.092-1.053.142-.527.375-1.003.243-.486.547-.892.314-.405.628-.709.364-.344.76-.678.405-.345.88-.7-.01-.131-.03-.232-.01-.102-.03-.203-.02-.111-.05-.243-.021-.132-.031-.324 0-.081-.02-.294-.02-.223-.03-.527 0-.314.02-.709t.1-.82q.051-.254.213-.639.173-.395.396-.76.233-.364.486-.627.253-.264.476-.264.111 0 .243.142.132.132.253.365.132.223.254.516.121.284.212.588t.142.598q.06.293.071.516.01.527-.04.932-.051.395-.152.72-.102.313-.244.587-.131.263-.283.537-.162.273-.335.486-.162.203-.334.415-.182.223-.385.375-.192.142-.385.314.091.517.162.932.03.182.061.355.03.172.05.324.021.142.041.243.02.091.02.111.244-.03.497 0 .263.02.496.071.244.05.426.132.192.081.304.152.547.405.77.932.233.517.273 1.064.03.425-.07.85-.102.436-.345.821-.233.395-.618.72-.375.323-.892.536l.112.77q.05.304.091.588.04.293.06.405.092.608.072.992-.02.396-.152.639-.112.202-.264.395-.141.192-.344.344t-.476.253q-.263.102-.608.122-.263.02-.628-.05-.365-.062-.699-.234-.334-.162-.577-.445t-.274-.7q-.02-.243.03-.496.051-.243.173-.445.131-.193.334-.325.213-.131.517-.152.182-.01.364.051.193.07.355.192t.263.304q.102.183.122.395.03.375-.233.72-.263.354-.892.526.102.142.385.264.284.132.71.132.445 0 .85-.264.416-.263.639-.658.141-.264.141-.69 0-.414-.05-.84-.02-.07-.061-.355-.04-.273-.091-.577-.05-.354-.122-.79m.213-12.835q-.395 0-.7.375-.293.365-.485.932-.183.567-.244 1.246-.06.679.03 1.307.335-.253.7-.608.365-.365.658-.77.304-.405.487-.82.192-.416.162-.79-.01-.122-.04-.274-.031-.152-.102-.284t-.183-.222q-.111-.092-.283-.092m-.02 12.42q.435-.152.678-.395t.355-.527q.121-.284.131-.567.02-.284.01-.507-.02-.182-.09-.456-.061-.273-.244-.526-.182-.254-.516-.416-.335-.172-.892-.142zm-.831-3.515q-.415.02-.689.172-.263.142-.425.354-.152.203-.213.436-.05.233-.04.415.01.183.08.375.071.193.183.355.121.172.253.304.142.141.284.212-.02.02-.041.03-.01.021-.03.041t-.03.04q-.315-.151-.558-.364-.233-.203-.304-.294-.111-.152-.192-.273t-.132-.264q-.05-.131-.091-.293-.03-.162-.04-.385-.021-.213.03-.446.05-.243.162-.486.121-.243.304-.466.192-.233.445-.436.132-.101.233-.162.112-.06.203-.101.091-.051.182-.071l.213-.061-.304-1.833q-.121.07-.395.283-.273.213-.598.507-.324.293-.648.638-.314.334-.516.648-.365.578-.568 1.064t-.152 1.053q.04.639.385 1.186.355.557.902.931.547.375 1.246.517.699.152 1.448-.03-.162-1.003-.293-1.793-.061-.335-.112-.659-.05-.324-.101-.577-.04-.253-.06-.405z"/>
    </g>
    <path id="path166" d="M420.325 195.963h-1.4v19.1h1.4" class="cls-15" style="fill:none;stroke:#7d7d7d;stroke-width:.40000001px;stroke-opacity:1"/>
    <path id="path168" d="M426.425 195.963h1.4v19.1h-1.4" class="cls-15" style="fill:none;stroke:#7d7d7d;stroke-width:.40000001px;stroke-opacity:1"/>
  </g>
  <g id="text170" aria-label="1" class="cls-6 supplied measureN" style="font-style:italic;font-size:6.75px;font-family:Arial-ItalicMT,Arial;isolation:isolate;fill:#7d7d7d">
    <path id="path14712" d="m428.76 141.172.765-3.648q-.494.388-1.39.623l.111-.541q.445-.178.877-.465.435-.286.652-.5.132-.133.251-.32h.346l-1.012 4.851z"/>
  </g>
  <g id="text172" aria-label="2" class="cls-6 supplied measureN" style="font-style:italic;font-size:6.75px;font-family:Arial-ItalicMT,Arial;isolation:isolate;fill:#7d7d7d">
    <path id="path14709" d="M538.851 141.172q.092-.432.254-.722.165-.293.435-.553.27-.264 1.041-.88.468-.373.64-.55.247-.258.359-.505.076-.168.076-.366 0-.333-.237-.564-.234-.234-.577-.234-.34 0-.594.238-.253.234-.362.755l-.583-.086q.085-.643.497-1.012.416-.372 1.032-.372.412 0 .745.171.336.171.504.481t.168.64q0 .48-.343.926-.21.277-1.239 1.09-.442.35-.66.574-.213.224-.322.422h2.162l-.115.547z"/>
  </g>
</svg>
