<?xml version="1.0" encoding="UTF-8" standalone="no"?>
<svg
   xmlns:dc="http://purl.org/dc/elements/1.1/"
   xmlns:cc="http://creativecommons.org/ns#"
   xmlns:rdf="http://www.w3.org/1999/02/22-rdf-syntax-ns#"
   xmlns:svg="http://www.w3.org/2000/svg"
   xmlns="http://www.w3.org/2000/svg"
   xmlns:sodipodi="http://sodipodi.sourceforge.net/DTD/sodipodi-0.dtd"
   xmlns:inkscape="http://www.inkscape.org/namespaces/inkscape"
   height="134.42021mm"
   width="305.11911mm"
   version="1.1"
   viewBox="0 0 1153.2061 508.04491"
   data-name="Ebene 1"
   id="Ebene_1"
   sodipodi:docname="M317_Sk2_1_2_1von1_220715_path.svg"
   inkscape:version="0.92.4 (5da689c313, 2019-01-14)">
  <sodipodi:namedview
     id="namedview18141"
     pagecolor="#ffffff"
     bordercolor="#666666"
     borderopacity="1.0"
     inkscape:showpageshadow="2"
     inkscape:pageopacity="0.0"
     inkscape:pagecheckerboard="0"
     inkscape:deskcolor="#d1d1d1"
     inkscape:document-units="mm"
     showgrid="false"
     inkscape:zoom="2.1557292"
     inkscape:cx="551.28782"
     inkscape:cy="268.58661"
     inkscape:window-width="2880"
     inkscape:window-height="1526"
     inkscape:window-x="2869"
     inkscape:window-y="-11"
     inkscape:window-maximized="1"
     inkscape:current-layer="Ebene_1" />
  <metadata
     id="metadata203">
    <rdf:RDF>
      <cc:Work
         rdf:about="">
        <dc:format>image/svg+xml</dc:format>
        <dc:type
           rdf:resource="http://purl.org/dc/dcmitype/StillImage" />
      </cc:Work>
    </rdf:RDF>
  </metadata>
  <defs
     id="defs4">
    <style
       id="style2">.cls-1,.cls-13,.cls-15,.cls-3,.cls-6,.cls-9{isolation:isolate;}.cls-1{font-size:13.5px;}.cls-1,.cls-15{font-family:Maestro, Maestro;}.cls-14,.cls-16,.cls-2,.cls-8{fill:none;}.cls-12,.cls-14,.cls-16,.cls-2,.cls-8{stroke:#000;}.cls-12,.cls-2{stroke-width:0.4px;}.cls-3,.cls-6,.cls-7{font-size:6.75px;}.cls-3,.cls-9{font-family:TimesNewRomanPSMT, Times New Roman;}.cls-4{letter-spacing:-0.02em;}.cls-5{letter-spacing:0em;}.cls-6,.cls-7{font-family:Arial-ItalicMT, Arial;font-style:italic;}.cls-7{letter-spacing:0em;}.cls-8{stroke-width:0.49px;}.cls-9{font-size:14px;}.cls-10{letter-spacing:-0.04em;}.cls-11,.cls-12{fill:#fff;}.cls-12{stroke-miterlimit:10;}.cls-13{font-size:12px;font-family:Arial-BoldMT, Arial;font-weight:700;}.cls-14{stroke-width:0.4px;}.cls-15{font-size:10.13px;}.cls-16{stroke-width:0.56px;}</style>
  </defs>
  <g
     aria-label="&amp;"
     id="text10"
     style="font-size:13.5px;font-family:Maestro, Maestro;isolation:isolate"
     class="cls-1">
    <path
       d="m 161.22595,251.70533 q -0.378,0.0675 -0.81,0.081 -0.4185,0.0135 -0.8235,-0.027 -0.405,-0.027 -0.756,-0.0945 -0.3375,-0.054 -0.5535,-0.162 -1.0395,-0.4995 -1.6875,-1.0665 -0.6345,-0.5535 -0.9855,-1.161 -0.351,-0.6075 -0.4995,-1.242 -0.135,-0.648 -0.1755,-1.296 -0.054,-0.702 0.1215,-1.404 0.189,-0.702 0.4995,-1.3365 0.324,-0.648 0.729,-1.188 0.4185,-0.54 0.837,-0.945 0.486,-0.459 1.0125,-0.9045 0.54,-0.459 1.1745,-0.9315 -0.0135,-0.1755 -0.0405,-0.3105 -0.0135,-0.135 -0.0405,-0.27 -0.027,-0.1485 -0.0675,-0.324 -0.027,-0.1755 -0.0405,-0.432 0,-0.108 -0.027,-0.3915 -0.027,-0.297 -0.0405,-0.702 0,-0.4185 0.027,-0.945 0.027,-0.5265 0.135,-1.0935 0.0675,-0.3375 0.2835,-0.8505 0.2295,-0.5265 0.5265,-1.0125 0.3105,-0.486 0.648,-0.837 0.3375,-0.351 0.6345,-0.351 0.1485,0 0.324,0.189 0.1755,0.1755 0.3375,0.486 0.1755,0.297 0.3375,0.6885 0.162,0.378 0.2835,0.783 0.1215,0.405 0.189,0.7965 0.081,0.3915 0.0945,0.6885 0.0135,0.702 -0.054,1.242 -0.0675,0.5265 -0.2025,0.9585 -0.135,0.4185 -0.324,0.783 -0.1755,0.351 -0.378,0.7155 -0.216,0.3645 -0.4455,0.648 -0.216,0.27 -0.4455,0.5535 -0.243,0.297 -0.513,0.4995 -0.2565,0.189 -0.513,0.4185 0.1215,0.6885 0.216,1.242 0.0405,0.243 0.081,0.4725 0.0405,0.2295 0.0675,0.432 0.027,0.189 0.054,0.324 0.027,0.1215 0.027,0.1485 0.324,-0.0405 0.6615,0 0.351,0.027 0.6615,0.0945 0.324,0.0675 0.567,0.1755 0.2565,0.108 0.405,0.2025 0.729,0.54 1.026,1.242 0.3105,0.6885 0.3645,1.4175 0.0405,0.567 -0.0945,1.134 -0.135,0.5805 -0.459,1.0935 -0.3105,0.5265 -0.8235,0.9585 -0.4995,0.432 -1.188,0.7155 0.081,0.5535 0.1485,1.026 0.0675,0.405 0.1215,0.783 0.054,0.3915 0.081,0.54 0.1215,0.81 0.0945,1.323 -0.027,0.5265 -0.2025,0.8505 -0.1485,0.27 -0.351,0.5265 -0.189,0.2565 -0.459,0.459 -0.27,0.2025 -0.6345,0.3375 -0.351,0.135 -0.81,0.162 -0.351,0.027 -0.837,-0.0675 -0.486,-0.081 -0.9315,-0.3105 -0.4455,-0.216 -0.7695,-0.594 -0.324,-0.378 -0.3645,-0.9315 -0.027,-0.324 0.0405,-0.6615 0.0675,-0.324 0.2295,-0.594 0.1755,-0.2565 0.4455,-0.432 0.2835,-0.1755 0.6885,-0.2025 0.243,-0.0135 0.486,0.0675 0.2565,0.0945 0.4725,0.2565 0.216,0.162 0.351,0.405 0.135,0.243 0.162,0.5265 0.0405,0.4995 -0.3105,0.9585 -0.351,0.4725 -1.188,0.702 0.135,0.189 0.513,0.351 0.378,0.1755 0.945,0.1755 0.594,0 1.134,-0.351 0.5535,-0.351 0.8505,-0.8775 0.189,-0.351 0.189,-0.918 0,-0.5535 -0.0675,-1.1205 -0.027,-0.0945 -0.081,-0.4725 -0.054,-0.3645 -0.1215,-0.7695 -0.0675,-0.4725 -0.162,-1.053 z m 0.2835,-17.1045 q -0.5265,0 -0.9315,0.4995 -0.3915,0.486 -0.648,1.242 -0.243,0.756 -0.324,1.6605 -0.081,0.9045 0.0405,1.7415 0.4455,-0.3375 0.9315,-0.81 0.486,-0.486 0.8775,-1.026 0.405,-0.54 0.648,-1.0935 0.2565,-0.5535 0.216,-1.053 -0.0135,-0.162 -0.054,-0.3645 -0.0405,-0.2025 -0.135,-0.378 -0.0945,-0.1755 -0.243,-0.297 -0.1485,-0.1215 -0.378,-0.1215 z m -0.027,16.551 q 0.5805,-0.2025 0.9045,-0.5265 0.324,-0.324 0.4725,-0.702 0.162,-0.378 0.1755,-0.756 0.027,-0.378 0.0135,-0.675 -0.027,-0.243 -0.1215,-0.6075 -0.081,-0.3645 -0.324,-0.702 -0.243,-0.3375 -0.6885,-0.5535 -0.4455,-0.2295 -1.188,-0.189 z m -1.107,-4.6845 q -0.5535,0.027 -0.918,0.2295 -0.351,0.189 -0.567,0.4725 -0.2025,0.27 -0.2835,0.5805 -0.0675,0.3105 -0.054,0.5535 0.0135,0.243 0.108,0.4995 0.0945,0.2565 0.243,0.4725 0.162,0.2295 0.3375,0.405 0.189,0.189 0.378,0.2835 -0.027,0.027 -0.054,0.0405 -0.0135,0.027 -0.0405,0.054 -0.027,0.027 -0.0405,0.054 -0.4185,-0.2025 -0.7425,-0.486 -0.3105,-0.27 -0.405,-0.3915 -0.1485,-0.2025 -0.2565,-0.3645 -0.108,-0.162 -0.1755,-0.351 -0.0675,-0.1755 -0.1215,-0.3915 -0.0405,-0.216 -0.054,-0.513 -0.027,-0.2835 0.0405,-0.594 0.0675,-0.324 0.216,-0.648 0.162,-0.324 0.405,-0.621 0.2565,-0.3105 0.594,-0.5805 0.1755,-0.135 0.3105,-0.216 0.1485,-0.081 0.27,-0.135 0.1215,-0.0675 0.243,-0.0945 0.135,-0.0405 0.2835,-0.081 l -0.405,-2.4435 q -0.162,0.0945 -0.5265,0.378 -0.3645,0.2835 -0.7965,0.675 -0.432,0.3915 -0.864,0.8505 -0.4185,0.4455 -0.6885,0.864 -0.486,0.7695 -0.756,1.4175 -0.27,0.648 -0.2025,1.404 0.054,0.8505 0.513,1.5795 0.4725,0.7425 1.2015,1.242 0.729,0.4995 1.6605,0.6885 0.9315,0.2025 1.9305,-0.0405 -0.216,-1.3365 -0.3915,-2.3895 -0.081,-0.4455 -0.1485,-0.8775 -0.0675,-0.432 -0.135,-0.7695 -0.054,-0.3375 -0.081,-0.54 -0.027,-0.216 -0.027,-0.216 z"
       id="path18566" />
  </g>
  <g
     aria-label="&amp;"
     id="text12"
     style="font-size:13.5px;font-family:Maestro, Maestro;isolation:isolate"
     class="cls-1">
    <path
       d="m 161.22595,292.20534 q -0.378,0.0675 -0.81,0.081 -0.4185,0.0135 -0.8235,-0.027 -0.405,-0.027 -0.756,-0.0945 -0.3375,-0.054 -0.5535,-0.162 -1.0395,-0.4995 -1.6875,-1.0665 -0.6345,-0.5535 -0.9855,-1.161 -0.351,-0.6075 -0.4995,-1.242 -0.135,-0.648 -0.1755,-1.296 -0.054,-0.702 0.1215,-1.404 0.189,-0.702 0.4995,-1.3365 0.324,-0.648 0.729,-1.188 0.4185,-0.54 0.837,-0.945 0.486,-0.459 1.0125,-0.9045 0.54,-0.459 1.1745,-0.9315 -0.0135,-0.1755 -0.0405,-0.3105 -0.0135,-0.135 -0.0405,-0.27 -0.027,-0.1485 -0.0675,-0.324 -0.027,-0.1755 -0.0405,-0.432 0,-0.108 -0.027,-0.3915 -0.027,-0.297 -0.0405,-0.702 0,-0.4185 0.027,-0.945 0.027,-0.5265 0.135,-1.0935 0.0675,-0.3375 0.2835,-0.8505 0.2295,-0.5265 0.5265,-1.0125 0.3105,-0.486 0.648,-0.837 0.3375,-0.351 0.6345,-0.351 0.1485,0 0.324,0.189 0.1755,0.1755 0.3375,0.486 0.1755,0.297 0.3375,0.6885 0.162,0.378 0.2835,0.783 0.1215,0.405 0.189,0.7965 0.081,0.3915 0.0945,0.6885 0.0135,0.702 -0.054,1.242 -0.0675,0.5265 -0.2025,0.9585 -0.135,0.4185 -0.324,0.783 -0.1755,0.351 -0.378,0.7155 -0.216,0.3645 -0.4455,0.648 -0.216,0.27 -0.4455,0.5535 -0.243,0.297 -0.513,0.4995 -0.2565,0.189 -0.513,0.4185 0.1215,0.6885 0.216,1.242 0.0405,0.243 0.081,0.4725 0.0405,0.2295 0.0675,0.432 0.027,0.189 0.054,0.324 0.027,0.1215 0.027,0.1485 0.324,-0.0405 0.6615,0 0.351,0.027 0.6615,0.0945 0.324,0.0675 0.567,0.1755 0.2565,0.108 0.405,0.2025 0.729,0.54 1.026,1.242 0.3105,0.6885 0.3645,1.4175 0.0405,0.567 -0.0945,1.134 -0.135,0.5805 -0.459,1.0935 -0.3105,0.5265 -0.8235,0.9585 -0.4995,0.432 -1.188,0.7155 0.081,0.5535 0.1485,1.026 0.0675,0.405 0.1215,0.783 0.054,0.3915 0.081,0.54 0.1215,0.81 0.0945,1.323 -0.027,0.5265 -0.2025,0.8505 -0.1485,0.27 -0.351,0.5265 -0.189,0.2565 -0.459,0.459 -0.27,0.2025 -0.6345,0.3375 -0.351,0.135 -0.81,0.162 -0.351,0.027 -0.837,-0.0675 -0.486,-0.081 -0.9315,-0.3105 -0.4455,-0.216 -0.7695,-0.594 -0.324,-0.378 -0.3645,-0.9315 -0.027,-0.324 0.0405,-0.6615 0.0675,-0.324 0.2295,-0.594 0.1755,-0.2565 0.4455,-0.432 0.2835,-0.1755 0.6885,-0.2025 0.243,-0.0135 0.486,0.0675 0.2565,0.0945 0.4725,0.2565 0.216,0.162 0.351,0.405 0.135,0.243 0.162,0.5265 0.0405,0.4995 -0.3105,0.9585 -0.351,0.4725 -1.188,0.702 0.135,0.189 0.513,0.351 0.378,0.1755 0.945,0.1755 0.594,0 1.134,-0.351 0.5535,-0.351 0.8505,-0.8775 0.189,-0.351 0.189,-0.918 0,-0.5535 -0.0675,-1.1205 -0.027,-0.0945 -0.081,-0.4725 -0.054,-0.3645 -0.1215,-0.7695 -0.0675,-0.4725 -0.162,-1.053 z m 0.2835,-17.1045 q -0.5265,0 -0.9315,0.4995 -0.3915,0.486 -0.648,1.242 -0.243,0.756 -0.324,1.6605 -0.081,0.9045 0.0405,1.7415 0.4455,-0.3375 0.9315,-0.81 0.486,-0.486 0.8775,-1.026 0.405,-0.54 0.648,-1.0935 0.2565,-0.5535 0.216,-1.053 -0.0135,-0.162 -0.054,-0.3645 -0.0405,-0.2025 -0.135,-0.378 -0.0945,-0.1755 -0.243,-0.297 -0.1485,-0.1215 -0.378,-0.1215 z m -0.027,16.551 q 0.5805,-0.2025 0.9045,-0.5265 0.324,-0.324 0.4725,-0.702 0.162,-0.378 0.1755,-0.756 0.027,-0.378 0.0135,-0.675 -0.027,-0.243 -0.1215,-0.6075 -0.081,-0.3645 -0.324,-0.702 -0.243,-0.3375 -0.6885,-0.5535 -0.4455,-0.2295 -1.188,-0.189 z m -1.107,-4.6845 q -0.5535,0.027 -0.918,0.2295 -0.351,0.189 -0.567,0.4725 -0.2025,0.27 -0.2835,0.5805 -0.0675,0.3105 -0.054,0.5535 0.0135,0.243 0.108,0.4995 0.0945,0.2565 0.243,0.4725 0.162,0.2295 0.3375,0.405 0.189,0.189 0.378,0.2835 -0.027,0.027 -0.054,0.0405 -0.0135,0.027 -0.0405,0.054 -0.027,0.027 -0.0405,0.054 -0.4185,-0.2025 -0.7425,-0.486 -0.3105,-0.27 -0.405,-0.3915 -0.1485,-0.2025 -0.2565,-0.3645 -0.108,-0.162 -0.1755,-0.351 -0.0675,-0.1755 -0.1215,-0.3915 -0.0405,-0.216 -0.054,-0.513 -0.027,-0.2835 0.0405,-0.594 0.0675,-0.324 0.216,-0.648 0.162,-0.324 0.405,-0.621 0.2565,-0.3105 0.594,-0.5805 0.1755,-0.135 0.3105,-0.216 0.1485,-0.081 0.27,-0.135 0.1215,-0.0675 0.243,-0.0945 0.135,-0.0405 0.2835,-0.081 l -0.405,-2.4435 q -0.162,0.0945 -0.5265,0.378 -0.3645,0.2835 -0.7965,0.675 -0.432,0.3915 -0.864,0.8505 -0.4185,0.4455 -0.6885,0.864 -0.486,0.7695 -0.756,1.4175 -0.27,0.648 -0.2025,1.404 0.054,0.8505 0.513,1.5795 0.4725,0.7425 1.2015,1.242 0.729,0.4995 1.6605,0.6885 0.9315,0.2025 1.9305,-0.0405 -0.216,-1.3365 -0.3915,-2.3895 -0.081,-0.4455 -0.1485,-0.8775 -0.0675,-0.432 -0.135,-0.7695 -0.054,-0.3375 -0.081,-0.54 -0.027,-0.216 -0.027,-0.216 z"
       id="path18563" />
  </g>
  <g
     aria-label="?"
     id="text14"
     style="font-size:13.5px;font-family:Maestro, Maestro;isolation:isolate"
     class="cls-1">
    <path
       d="m 161.71195,326.09034 q -0.1215,0.2295 -0.243,0.4185 -0.108,0.189 -0.2295,0.3645 -0.1215,0.1755 -0.2565,0.3375 -0.135,0.1755 -0.3105,0.378 -0.1755,0.2025 -0.3375,0.3645 -0.1485,0.162 -0.3105,0.3105 -0.1485,0.1485 -0.324,0.2835 -0.1755,0.1485 -0.3915,0.3105 -0.27,0.2025 -0.513,0.351 -0.2295,0.1485 -0.4725,0.27 -0.2295,0.1215 -0.486,0.216 -0.2565,0.108 -0.567,0.2295 -0.3105,0.1215 -0.6885,0.216 -0.3645,0.108 -0.702,0.1755 -0.3915,0.081 -0.783,0.1485 l -0.0945,-0.2025 q 0.6345,-0.216 1.269,-0.4995 0.5265,-0.243 1.107,-0.594 0.594,-0.3375 1.026,-0.783 1.0935,-1.161 1.6605,-2.565 0.567,-1.3905 0.54,-3.1725 0,-0.405 -0.0945,-0.9315 -0.081,-0.5265 -0.3105,-0.999 -0.216,-0.4725 -0.621,-0.81 -0.3915,-0.3375 -1.026,-0.3375 -0.3645,0 -0.783,0.1485 -0.405,0.1485 -0.7425,0.405 -0.3375,0.243 -0.5535,0.594 -0.216,0.3375 -0.1755,0.729 0.0135,0.054 0.081,0.0405 0.081,-0.027 0.216,-0.0675 0.1485,-0.0405 0.351,-0.081 0.216,-0.0405 0.4995,-0.027 0.297,0.0135 0.513,0.189 0.216,0.162 0.351,0.4185 0.135,0.2565 0.1755,0.567 0.0405,0.297 -0.027,0.5805 -0.108,0.4455 -0.405,0.702 -0.2835,0.27 -0.7965,0.27 -0.324,0 -0.6345,-0.1215 -0.297,-0.108 -0.5265,-0.324 -0.2295,-0.2025 -0.378,-0.513 -0.135,-0.297 -0.135,-0.6885 -0.0135,-0.5805 0.1215,-1.026 0.1485,-0.4455 0.351,-0.7695 0.216,-0.324 0.4455,-0.5265 0.243,-0.216 0.4455,-0.3375 0.4995,-0.3105 1.0125,-0.4185 0.513,-0.1215 0.972,-0.135 0.513,0 1.026,0.1755 0.5265,0.162 0.9855,0.486 0.459,0.3105 0.8235,0.756 0.3645,0.432 0.5535,0.972 0.2295,0.6075 0.2295,1.2825 0.0135,0.6885 -0.162,1.485 -0.054,0.27 -0.1215,0.486 -0.0675,0.216 -0.1485,0.4185 -0.081,0.2025 -0.189,0.405 -0.0945,0.2025 -0.216,0.4455 z m 1.3635,-5.1975 q -0.0135,-0.3105 0.2025,-0.513 0.216,-0.216 0.5265,-0.216 0.3105,-0.0135 0.5265,0.189 0.2295,0.2025 0.2295,0.513 0.0135,0.3105 -0.2025,0.54 -0.216,0.216 -0.5265,0.216 -0.3105,0.0135 -0.54,-0.2025 -0.216,-0.216 -0.216,-0.5265 z m 0,3.402 q 0,-0.3105 0.216,-0.513 0.216,-0.2025 0.5265,-0.216 0.3105,0 0.5265,0.189 0.2295,0.2025 0.2295,0.513 0.0135,0.3105 -0.2025,0.5265 -0.216,0.2295 -0.5265,0.2295 -0.3105,0.0135 -0.54,-0.2025 -0.216,-0.216 -0.2295,-0.5265 z"
       id="path18560" />
  </g>
  <path
     id="line16"
     style="fill:none;stroke:#000000;stroke-width:0.4px"
     class="cls-2"
     d="M 151.52496,197.66333 H 1002.025" />
  <path
     id="line18"
     style="fill:none;stroke:#000000;stroke-width:0.4px"
     class="cls-2"
     d="M 151.52496,201.06334 H 1002.025" />
  <path
     id="line20"
     style="fill:none;stroke:#000000;stroke-width:0.4px"
     class="cls-2"
     d="M 151.52496,204.46333 H 1002.025" />
  <path
     id="line22"
     style="fill:none;stroke:#000000;stroke-width:0.4px"
     class="cls-2"
     d="M 151.52496,207.76334 H 1002.025" />
  <path
     id="line24"
     style="fill:none;stroke:#000000;stroke-width:0.4px"
     class="cls-2"
     d="M 151.52496,211.16333 H 1002.025" />
  <path
     id="line26"
     style="fill:none;stroke:#000000;stroke-width:0.4px"
     class="cls-2"
     d="M 151.52496,238.16333 H 1002.025" />
  <path
     id="line28"
     style="fill:none;stroke:#000000;stroke-width:0.4px"
     class="cls-2"
     d="M 151.52496,241.56334 H 1002.025" />
  <path
     id="line30"
     style="fill:none;stroke:#000000;stroke-width:0.4px"
     class="cls-2"
     d="M 151.52496,244.96333 H 1002.025" />
  <path
     id="line32"
     style="fill:none;stroke:#000000;stroke-width:0.4px"
     class="cls-2"
     d="M 151.52496,248.26334 H 1002.025" />
  <path
     id="line34"
     style="fill:none;stroke:#000000;stroke-width:0.4px"
     class="cls-2"
     d="M 151.52496,251.66333 H 1002.025" />
  <path
     id="line36"
     style="fill:none;stroke:#000000;stroke-width:0.4px"
     class="cls-2"
     d="M 151.52496,278.66333 H 1002.025" />
  <path
     id="line38"
     style="fill:none;stroke:#000000;stroke-width:0.4px"
     class="cls-2"
     d="M 151.52496,282.06335 H 1002.025" />
  <path
     id="line40"
     style="fill:none;stroke:#000000;stroke-width:0.4px"
     class="cls-2"
     d="M 151.52496,285.46335 H 1002.025" />
  <path
     id="line42"
     style="fill:none;stroke:#000000;stroke-width:0.4px"
     class="cls-2"
     d="M 151.52496,288.76334 H 1002.025" />
  <path
     id="line44"
     style="fill:none;stroke:#000000;stroke-width:0.4px"
     class="cls-2"
     d="M 151.52496,292.16333 H 1002.025" />
  <path
     id="line46"
     style="fill:none;stroke:#000000;stroke-width:0.4px"
     class="cls-2"
     d="M 151.52496,319.16333 H 1002.025" />
  <path
     id="line48"
     style="fill:none;stroke:#000000;stroke-width:0.4px"
     class="cls-2"
     d="M 151.52496,322.56335 H 1002.025" />
  <path
     id="line50"
     style="fill:none;stroke:#000000;stroke-width:0.4px"
     class="cls-2"
     d="M 151.52496,325.96335 H 1002.025" />
  <path
     id="line52"
     style="fill:none;stroke:#000000;stroke-width:0.4px"
     class="cls-2"
     d="M 151.52496,329.26334 H 1002.025" />
  <path
     id="line54"
     style="fill:none;stroke:#000000;stroke-width:0.4px"
     class="cls-2"
     d="M 151.52496,332.66336 H 1002.025" />
  <path
     id="path56"
     d="m 149.82496,278.66334 c -7.2,11.5 3.1,21.9 -3.7,27 h 0.3 c 8.2,-6.8 -1.9,-15.5 3.4,-26.7 z" />
  <path
     id="path58"
     d="m 149.82496,332.66334 c -7.2,-11.5 3.1,-21.9 -3.7,-27 h 0.3 c 8.2,6.8 -1.9,15.5 3.4,26.7 z" />
  <path
     id="line60"
     style="fill:none;stroke:#000000;stroke-width:0.4px"
     class="cls-2"
     d="m 152.92496,333.96335 10.69999,-20.4" />
  <g
     aria-label="4.VII. 34"
     transform="rotate(-12.5)"
     id="text66"
     style="font-size:6.75px;font-family:TimesNewRomanPSMT, 'Times New Roman';isolation:isolate"
     class="cls-3">
    <path
       d="m 100.41728,210.85706 v 0.46801 h -0.599851 v 1.17993 h -0.543824 v -1.17993 H 97.38176 v -0.42187 l 2.07312,-2.95972 h 0.362549 v 2.91358 z m -1.143675,0 v -2.21814 l -1.568847,2.21814 z"
       id="path18522" />
    <path
       d="m 101.49504,211.8656 q 0.15491,0 0.26038,0.10877 0.10547,0.10546 0.10547,0.25708 0,0.15161 -0.10877,0.26037 -0.10547,0.10547 -0.25708,0.10547 -0.15161,0 -0.26038,-0.10547 -0.10546,-0.10876 -0.10546,-0.26037 0,-0.15491 0.10546,-0.26038 0.10877,-0.10547 0.26038,-0.10547 z"
       id="path18524" />
    <path
       d="m 108.69854,208.03577 v 0.12194 q -0.2373,0.0428 -0.35925,0.15162 -0.17469,0.1615 -0.30982,0.49438 l -1.55896,3.80347 h -0.12195 l -1.67431,-3.85291 q -0.12854,-0.29663 -0.18128,-0.36255 -0.0824,-0.10217 -0.20434,-0.1582 -0.11865,-0.0593 -0.323,-0.0758 v -0.12194 h 1.82593 v 0.12194 q -0.30982,0.0297 -0.4021,0.10547 -0.0923,0.0758 -0.0923,0.19446 0,0.1648 0.15161,0.51416 l 1.13709,2.62024 1.05469,-2.58728 q 0.1549,-0.38232 0.1549,-0.53064 0,-0.0956 -0.0956,-0.18127 -0.0956,-0.089 -0.323,-0.12525 -0.0165,-0.003 -0.056,-0.01 v -0.12194 z"
       style="letter-spacing:0em"
       id="path18526" />
    <path
       d="m 110.86395,212.38306 v 0.12194 h -1.91492 v -0.12194 h 0.1582 q 0.27686,0 0.4021,-0.1615 0.0791,-0.10547 0.0791,-0.50757 v -2.88721 q 0,-0.33948 -0.0428,-0.44824 -0.033,-0.0824 -0.13514,-0.14172 -0.14502,-0.0791 -0.30322,-0.0791 h -0.1582 v -0.12194 h 1.91492 v 0.12194 h -0.1615 q -0.27356,0 -0.39881,0.1615 -0.0824,0.10547 -0.0824,0.50757 v 2.88721 q 0,0.33948 0.0429,0.44824 0.033,0.0824 0.13843,0.14173 0.14172,0.0791 0.29993,0.0791 z"
       style="letter-spacing:0em"
       id="path18528" />
    <path
       d="m 113.11175,212.38306 v 0.12194 h -1.91492 v -0.12194 h 0.1582 q 0.27686,0 0.4021,-0.1615 0.0791,-0.10547 0.0791,-0.50757 v -2.88721 q 0,-0.33948 -0.0429,-0.44824 -0.033,-0.0824 -0.13513,-0.14172 -0.14502,-0.0791 -0.30323,-0.0791 h -0.1582 v -0.12194 h 1.91492 v 0.12194 h -0.1615 q -0.27356,0 -0.3988,0.1615 -0.0824,0.10547 -0.0824,0.50757 v 2.88721 q 0,0.33948 0.0428,0.44824 0.033,0.0824 0.13843,0.14173 0.14173,0.0791 0.29993,0.0791 z"
       style="letter-spacing:0em"
       id="path18530" />
    <path
       d="m 114.12029,211.8656 q 0.15491,0 0.26038,0.10877 0.10547,0.10546 0.10547,0.25708 0,0.15161 -0.10877,0.26037 -0.10547,0.10547 -0.25708,0.10547 -0.15161,0 -0.26037,-0.10547 -0.10547,-0.10876 -0.10547,-0.26037 0,-0.15491 0.10547,-0.26038 0.10876,-0.10547 0.26037,-0.10547 z"
       style="letter-spacing:0em"
       id="path18532" />
    <path
       d="m 116.99432,208.88611 q 0.19116,-0.45154 0.4812,-0.69544 0.29333,-0.24719 0.72839,-0.24719 0.53723,0 0.82398,0.34937 0.21752,0.26037 0.21752,0.557 0,0.4878 -0.61303,1.00855 0.41198,0.1615 0.62292,0.46142 0.21094,0.29993 0.21094,0.70533 0,0.58007 -0.36914,1.00525 -0.4812,0.55371 -1.39417,0.55371 -0.45153,0 -0.61633,-0.11206 -0.1615,-0.11206 -0.1615,-0.2406 0,-0.0956 0.0758,-0.1681 0.0791,-0.0725 0.18786,-0.0725 0.0824,0 0.16809,0.0264 0.056,0.0165 0.25379,0.12195 0.19775,0.10217 0.27356,0.12195 0.12195,0.0362 0.26037,0.0362 0.33619,0 0.58338,-0.26037 0.25049,-0.26038 0.25049,-0.61634 0,-0.26037 -0.11536,-0.50756 -0.0857,-0.18457 -0.18787,-0.28016 -0.14172,-0.13183 -0.38891,-0.2373 -0.24719,-0.10876 -0.50427,-0.10876 h -0.10547 v -0.0989 q 0.26037,-0.033 0.52075,-0.18787 0.26367,-0.15491 0.38232,-0.37243 0.11866,-0.21753 0.11866,-0.47791 0,-0.33948 -0.21424,-0.54712 -0.21094,-0.21094 -0.52734,-0.21094 -0.51087,0 -0.85364,0.54712 z"
       style="letter-spacing:0em"
       id="path18534" />
    <path
       d="m 123.16753,210.85706 v 0.46801 h -0.59985 v 1.17993 h -0.54382 v -1.17993 h -1.89185 v -0.42187 l 2.07312,-2.95972 h 0.36255 v 2.91358 z m -1.14367,0 v -2.21814 l -1.56885,2.21814 z"
       style="letter-spacing:0em"
       id="path18536" />
  </g>
  <g
     aria-label="A Bl. 38v"
     id="text68"
     style="font-style:italic;font-size:6.75px;font-family:Arial-ItalicMT, Arial;isolation:isolate;fill:#7d7d7d"
     class="cls-6 supplied foliation">
    <path
       d="m 97.635773,140.01857 h -1.914917 l -0.580078,1.06787 h -1.021729 l 2.7323,-4.83179 h 1.104126 l 0.784424,4.83179 h -0.942627 z m -0.121948,-0.8042 -0.280152,-1.94458 -1.166748,1.94458 z"
       style="font-weight:bold;font-size:6.75px;-inkscape-font-specification:'Arial-ItalicMT, Arial, Bold Italic'"
       id="path18507"
       inkscape:connector-curvature="0" />
    <path
       d="m 101.23819,141.08644 1.01184,-4.83179 h 1.49634 q 0.40869,0 0.60644,0.033 0.323,0.056 0.54383,0.19776 0.22412,0.13842 0.34607,0.38232 0.12195,0.2406 0.12195,0.53394 0,0.3988 -0.22083,0.70202 -0.21753,0.30323 -0.66907,0.46143 0.39221,0.12854 0.58667,0.38891 0.19446,0.25708 0.19446,0.60315 0,0.39881 -0.23071,0.76465 -0.22742,0.36585 -0.60645,0.5669 -0.37573,0.19775 -0.84045,0.19775 z m 1.22607,-2.76855 h 0.97889 q 0.70202,0 1.00854,-0.22412 0.30982,-0.22413 0.30982,-0.65259 0,-0.20435 -0.0956,-0.35266 -0.0956,-0.14832 -0.25708,-0.21424 -0.1582,-0.0692 -0.59985,-0.0692 h -1.02832 z m -0.46472,2.22143 h 1.10083 q 0.43836,0 0.58997,-0.0297 0.30652,-0.0527 0.49768,-0.17798 0.19116,-0.12854 0.29993,-0.33618 0.10876,-0.20764 0.10876,-0.43506 0,-0.33948 -0.21423,-0.51416 -0.21094,-0.17798 -0.8075,-0.17798 h -1.22607 z"
       id="path18509"
       inkscape:connector-curvature="0" />
    <path
       d="m 105.62503,141.08644 1.00855,-4.83179 h 0.59655 l -1.00854,4.83179 z"
       id="path18511"
       inkscape:connector-curvature="0" />
    <path
       d="m 107.3356,141.08644 0.14173,-0.67566 h 0.67565 l -0.14501,0.67566 z"
       id="path18513"
       inkscape:connector-curvature="0" />
    <path
       d="m 111.06656,139.82082 0.58008,-0.0725 q 0.0659,0.50756 0.29004,0.72839 0.22741,0.21753 0.59326,0.21753 0.44165,0 0.76135,-0.31641 0.323,-0.3164 0.323,-0.72509 0,-0.35596 -0.2406,-0.58667 -0.2406,-0.23401 -0.646,-0.23401 -0.0461,0 -0.19116,0.0132 l 0.10217,-0.49768 q 0.0857,0.0132 0.1648,0.0132 0.51086,0 0.78442,-0.24719 0.27686,-0.25049 0.27686,-0.61304 0,-0.33288 -0.22742,-0.5603 -0.22412,-0.22742 -0.55042,-0.22742 -0.3197,0 -0.57678,0.23401 -0.25378,0.23072 -0.32629,0.65589 l -0.58667,-0.11866 q 0.14502,-0.59655 0.55701,-0.92285 0.41198,-0.32629 0.97558,-0.32629 0.59326,0 0.95911,0.35925 0.36914,0.35925 0.36914,0.8833 0,0.38233 -0.20105,0.66907 -0.19776,0.28345 -0.59656,0.47131 0.28345,0.16809 0.42188,0.4054 0.14172,0.2373 0.14172,0.54382 0,0.64929 -0.48779,1.1272 -0.4845,0.47461 -1.16016,0.47461 -0.65588,0 -1.06128,-0.36585 -0.4021,-0.36914 -0.44824,-0.98217 z"
       id="path18515"
       inkscape:connector-curvature="0" />
    <path
       d="m 115.97415,138.42995 q -0.27026,-0.14832 -0.40539,-0.37903 -0.13514,-0.23401 -0.13514,-0.50098 0,-0.43835 0.31641,-0.81079 0.42188,-0.50427 1.14368,-0.50427 0.63611,0 1.00195,0.34277 0.36585,0.33948 0.36585,0.83386 0,0.35267 -0.19776,0.63611 -0.19775,0.28345 -0.61963,0.45154 0.29004,0.18128 0.41529,0.38562 0.16149,0.26697 0.16149,0.62293 0,0.64929 -0.46142,1.15686 -0.45813,0.50756 -1.22278,0.50756 -0.60974,0 -0.99536,-0.37573 -0.38562,-0.37573 -0.38562,-0.93933 0,-0.53064 0.27356,-0.90967 0.27356,-0.38232 0.74487,-0.51745 z m 0.0461,-0.85364 q 0,0.30981 0.19776,0.50098 0.20105,0.18786 0.55041,0.18786 0.40869,0 0.66248,-0.24719 0.25708,-0.25049 0.25708,-0.61304 0,-0.30652 -0.20105,-0.49768 -0.19775,-0.19446 -0.54712,-0.19446 -0.26367,0 -0.4845,0.12195 -0.22082,0.12195 -0.32959,0.33289 -0.10547,0.20764 -0.10547,0.40869 z m -0.46472,2.3302 q 0,0.20105 0.0956,0.38562 0.0989,0.18457 0.29663,0.29333 0.19776,0.10877 0.45154,0.10877 0.4845,0 0.78443,-0.45483 0.2373,-0.35596 0.2373,-0.76795 0,-0.33618 -0.22082,-0.55041 -0.21753,-0.21424 -0.57349,-0.21424 -0.44824,0 -0.76135,0.33289 -0.30982,0.33288 -0.30982,0.86682 z"
       id="path18517"
       inkscape:connector-curvature="0" />
    <path
       d="m 118.9253,138.38644 -0.37277,-2.27516 h 0.37705 l 0.19496,1.25327 q 0.0321,0.20566 0.0793,0.67055 0.1114,-0.24209 0.28493,-0.55487 l 0.76053,-1.36895 h 0.40919 l -1.30254,2.27516 z"
       style="font-size:64.99999762%;baseline-shift:super"
       id="path18519"
       inkscape:connector-curvature="0" />
  </g>
  <g
     aria-label="1"
     id="text72"
     style="font-style:italic;font-size:6.75px;font-family:Arial-ItalicMT, Arial;isolation:isolate;fill:#7d7d7d"
     class="cls-6 supplied staffN">
    <path
       d="m 95.11441,207.80333 0.764649,-3.64856 q -0.494385,0.38892 -1.390869,0.62292 l 0.11206,-0.54052 q 0.444947,-0.17798 0.876709,-0.46472 0.435059,-0.28675 0.652588,-0.50098 0.131836,-0.13184 0.250488,-0.3197 h 0.34607 l -1.011841,4.85156 z"
       id="path18504"
       inkscape:connector-curvature="0" />
  </g>
  <g
     aria-label="2"
     id="text74"
     style="font-style:italic;font-size:6.75px;font-family:Arial-ItalicMT, Arial;isolation:isolate;fill:#7d7d7d"
     class="supplied staffN">
    <path
       d="m 94.48819,248.30333 q 0.09229,-0.43176 0.253784,-0.7218 0.164795,-0.29334 0.435058,-0.55371 0.270264,-0.26368 1.041504,-0.88001 0.468018,-0.37243 0.639405,-0.55041 0.247192,-0.25708 0.359253,-0.50428 0.0758,-0.16809 0.0758,-0.36584 0,-0.33289 -0.237304,-0.5636 -0.234009,-0.23401 -0.576783,-0.23401 -0.339477,0 -0.593261,0.23731 -0.253785,0.23401 -0.362549,0.75476 l -0.583374,-0.0857 q 0.08569,-0.6427 0.49768,-1.01184 0.415284,-0.37243 1.031617,-0.37243 0.411987,0 0.744873,0.17138 0.336181,0.17139 0.504272,0.4812 0.168091,0.30982 0.168091,0.63941 0,0.4812 -0.342773,0.92615 -0.210938,0.27685 -1.239258,1.09094 -0.441651,0.34936 -0.65918,0.57349 -0.214233,0.22412 -0.322998,0.42187 h 2.162109 l -0.115356,0.54712 z"
       id="path18501"
       inkscape:connector-curvature="0" />
  </g>
  <g
     aria-label="3"
     id="text76"
     style="font-style:italic;font-size:6.75px;font-family:Arial-ItalicMT, Arial;isolation:isolate;fill:#7d7d7d"
     class="cls-6 supplied staffN">
    <path
       d="m 94.48819,287.53772 0.580078,-0.0725 q 0.06592,0.50757 0.290039,0.72839 0.227417,0.21753 0.593262,0.21753 0.44165,0 0.761352,-0.3164 0.322998,-0.31641 0.322998,-0.7251 0,-0.35596 -0.2406,-0.58667 -0.240601,-0.23401 -0.645996,-0.23401 -0.04614,0 -0.191163,0.0132 l 0.102173,-0.49768 q 0.08569,0.0132 0.164795,0.0132 0.510864,0 0.784424,-0.2472 0.276855,-0.25048 0.276855,-0.61303 0,-0.33289 -0.227417,-0.56031 -0.224121,-0.22741 -0.550415,-0.22741 -0.319702,0 -0.576782,0.23401 -0.253784,0.23071 -0.326294,0.65588 l -0.58667,-0.11865 q 0.14502,-0.59656 0.557007,-0.92285 0.411987,-0.3263 0.975586,-0.3263 0.593262,0 0.959107,0.35926 0.36914,0.35925 0.36914,0.8833 0,0.38232 -0.20105,0.66906 -0.197754,0.28345 -0.596557,0.47132 0.283447,0.16809 0.421875,0.40539 0.141723,0.23731 0.141723,0.54383 0,0.64929 -0.487793,1.12719 -0.484497,0.47461 -1.160156,0.47461 -0.655884,0 -1.061279,-0.36584 -0.4021,-0.36914 -0.448242,-0.98218 z"
       id="path18498"
       inkscape:connector-curvature="0" />
  </g>
  <g
     aria-label="4"
     id="text78"
     style="font-style:italic;font-size:6.75px;font-family:Arial-ItalicMT, Arial;isolation:isolate;fill:#7d7d7d"
     class="cls-6 supplied staffN">
    <path
       d="m 96.198761,329.30334 0.260376,-1.23266 H 94.48819 l 0.125244,-0.58997 2.705932,-3.00915 h 0.487793 l -0.6427,3.07177 h 0.678955 l -0.108764,0.52735 h -0.678955 l -0.260376,1.23266 z m 0.369141,-1.76001 0.421875,-2.01708 -1.799561,2.01708 z"
       id="path18495"
       inkscape:connector-curvature="0" />
  </g>
  <path
     style="fill:none;stroke:#000000;stroke-width:0.49000001px"
     id="path80"
     d="m 151.42496,197.66334 0.1,134.9"
     class="cls-8" />
  <g
     aria-label="„Wie bin ich froh!“"
     id="text86"
     style="font-size:14px;font-family:TimesNewRomanPSMT, 'Times New Roman';isolation:isolate"
     class="cls-9">
    <path
       d="m 202.97108,180.57349 v -0.28711 q 0.69043,-0.38965 0.90235,-0.71094 0.21875,-0.31445 0.21875,-0.73145 0,-0.1914 -0.0684,-0.28711 -0.0752,-0.0957 -0.16406,-0.0957 -0.0684,0 -0.21875,0.0547 -0.15039,0.0547 -0.30078,0.0547 -0.28711,0 -0.49219,-0.20508 -0.20508,-0.20508 -0.20508,-0.49902 0,-0.32813 0.25977,-0.57422 0.2666,-0.2461 0.64257,-0.2461 0.45118,0 0.81348,0.38965 0.36914,0.38965 0.36914,0.98438 0,0.71777 -0.46484,1.3125 -0.45801,0.59472 -1.292,0.84082 z m 3.26075,0 v -0.28711 q 0.59472,-0.30762 0.85449,-0.65625 0.2666,-0.3418 0.2666,-0.74512 0,-0.23926 -0.0684,-0.33496 -0.0684,-0.0889 -0.15039,-0.0889 -0.0889,0 -0.23926,0.0547 -0.15722,0.0547 -0.27343,0.0547 -0.28028,0 -0.49219,-0.21192 -0.20508,-0.21191 -0.20508,-0.50586 0,-0.32812 0.25293,-0.56738 0.25293,-0.23926 0.62207,-0.23926 0.46484,0 0.83398,0.40332 0.36914,0.39649 0.36914,0.97754 0,0.6836 -0.458,1.27149 -0.45118,0.59472 -1.3125,0.875 z"
       id="path18462" />
    <path
       d="m 221.49945,169.1438 v 0.25293 q -0.3623,0 -0.58789,0.12988 -0.22559,0.12988 -0.43066,0.48535 -0.13672,0.23926 -0.43067,1.1416 l -2.58398,7.47168 h -0.27344 l -2.1123,-5.92675 -2.09864,5.92675 h -0.24609 l -2.75488,-7.69726 q -0.30762,-0.86133 -0.38965,-1.01856 -0.13672,-0.25976 -0.37598,-0.38281 -0.23242,-0.12988 -0.63574,-0.12988 v -0.25293 h 3.43164 v 0.25293 h -0.16406 q -0.36231,0 -0.55371,0.16406 -0.19141,0.16406 -0.19141,0.39649 0,0.23925 0.30078,1.10058 l 1.8252,5.20215 1.53808,-4.42285 -0.27344,-0.7793 -0.21875,-0.62207 q -0.14355,-0.3418 -0.32128,-0.60156 -0.0889,-0.12988 -0.21875,-0.21875 -0.1709,-0.12305 -0.3418,-0.17774 -0.12988,-0.041 -0.41016,-0.041 v -0.25293 h 3.60938 v 0.25293 h -0.2461 q -0.38281,0 -0.56054,0.16406 -0.17774,0.16406 -0.17774,0.44434 0,0.34863 0.30762,1.21679 l 1.77734,5.03809 1.76368,-5.10645 q 0.30078,-0.84765 0.30078,-1.17578 0,-0.15722 -0.10254,-0.29394 -0.0957,-0.13672 -0.2461,-0.19141 -0.25976,-0.0957 -0.67675,-0.0957 v -0.25293 z"
       style="letter-spacing:-0.04em"
       id="path18464" />
    <path
       d="m 223.08522,168.69263 q 0.28711,0 0.48535,0.20508 0.20508,0.19824 0.20508,0.48535 0,0.28711 -0.20508,0.49218 -0.19824,0.20508 -0.48535,0.20508 -0.28711,0 -0.49219,-0.20508 -0.20508,-0.20507 -0.20508,-0.49218 0,-0.28711 0.19825,-0.48535 0.20508,-0.20508 0.49902,-0.20508 z m 0.56738,3.27441 v 5.03125 q 0,0.58789 0.082,0.78613 0.0889,0.19141 0.25293,0.28711 0.1709,0.0957 0.61524,0.0957 v 0.24609 h -3.04199 v -0.24609 q 0.458,0 0.61523,-0.0889 0.15723,-0.0889 0.24609,-0.29395 0.0957,-0.20507 0.0957,-0.78613 v -2.41308 q 0,-1.01856 -0.0615,-1.31934 -0.0479,-0.21875 -0.15039,-0.30078 -0.10254,-0.0889 -0.28027,-0.0889 -0.19141,0 -0.46484,0.10254 l -0.0957,-0.24609 1.88672,-0.76563 z"
       id="path18466" />
    <path
       d="m 226.43483,174.51001 q -0.007,1.39453 0.67676,2.1875 0.68359,0.79297 1.60644,0.79297 0.61524,0 1.06641,-0.33496 0.45801,-0.3418 0.76562,-1.16211 l 0.21192,0.13672 q -0.14356,0.93652 -0.83399,1.70898 -0.69043,0.76563 -1.72949,0.76563 -1.12793,0 -1.93457,-0.875 -0.7998,-0.88184 -0.7998,-2.36524 0,-1.60644 0.82031,-2.50195 0.82715,-0.90234 2.07129,-0.90234 1.05273,0 1.72949,0.69726 0.67676,0.69043 0.67676,1.85254 z m 0,-0.39648 h 2.89844 q -0.0342,-0.60157 -0.14356,-0.84766 -0.1709,-0.38281 -0.51269,-0.60156 -0.33496,-0.21875 -0.7041,-0.21875 -0.56739,0 -1.01856,0.44433 -0.44433,0.4375 -0.51953,1.22364 z"
       id="path18468" />
    <path
       d="m 236.81178,173.23169 q 0.90918,-1.26465 1.96192,-1.26465 0.96386,0 1.68164,0.82715 0.71777,0.82031 0.71777,2.24902 0,1.66797 -1.10742,2.68653 -0.9502,0.875 -2.11914,0.875 -0.54688,0 -1.11426,-0.19825 -0.56055,-0.19824 -1.14844,-0.59472 v -6.48731 q 0,-1.0664 -0.0547,-1.3125 -0.0479,-0.24609 -0.15723,-0.33496 -0.10938,-0.0889 -0.27344,-0.0889 -0.1914,0 -0.47851,0.10938 l -0.0957,-0.23926 1.87989,-0.76562 h 0.30761 z m 0,0.4375 v 3.74609 q 0.34864,0.3418 0.71778,0.51953 0.37597,0.1709 0.76562,0.1709 0.62207,0 1.15527,-0.68359 0.54004,-0.68359 0.54004,-1.98926 0,-1.20312 -0.54004,-1.8457 -0.5332,-0.64942 -1.21679,-0.64942 -0.36231,0 -0.72461,0.18457 -0.27344,0.13672 -0.69727,0.54688 z"
       id="path18470" />
    <path
       d="m 243.68874,168.69263 q 0.28711,0 0.48535,0.20508 0.20508,0.19824 0.20508,0.48535 0,0.28711 -0.20508,0.49218 -0.19824,0.20508 -0.48535,0.20508 -0.28711,0 -0.49219,-0.20508 -0.20508,-0.20507 -0.20508,-0.49218 0,-0.28711 0.19824,-0.48535 0.20508,-0.20508 0.49903,-0.20508 z m 0.56738,3.27441 v 5.03125 q 0,0.58789 0.082,0.78613 0.0889,0.19141 0.25293,0.28711 0.1709,0.0957 0.61523,0.0957 v 0.24609 h -3.04199 v -0.24609 q 0.45801,0 0.61524,-0.0889 0.15722,-0.0889 0.24609,-0.29395 0.0957,-0.20507 0.0957,-0.78613 v -2.41308 q 0,-1.01856 -0.0615,-1.31934 -0.0479,-0.21875 -0.15039,-0.30078 -0.10254,-0.0889 -0.28027,-0.0889 -0.19141,0 -0.46485,0.10254 l -0.0957,-0.24609 1.88672,-0.76563 z"
       id="path18472" />
    <path
       d="m 247.81081,173.29321 q 1.10058,-1.32617 2.09863,-1.32617 0.51269,0 0.88184,0.25977 0.36914,0.25293 0.58789,0.84082 0.15039,0.41015 0.15039,1.25781 v 2.67285 q 0,0.59473 0.0957,0.80664 0.0752,0.1709 0.23926,0.2666 0.1709,0.0957 0.62207,0.0957 v 0.24609 h -3.09668 v -0.24609 h 0.12988 q 0.4375,0 0.6084,-0.12989 0.17773,-0.13672 0.24609,-0.39648 0.0274,-0.10254 0.0274,-0.64258 v -2.56348 q 0,-0.85449 -0.22559,-1.2373 -0.21875,-0.38965 -0.74512,-0.38965 -0.81347,0 -1.62011,0.88867 v 3.30176 q 0,0.63574 0.0752,0.78613 0.0957,0.19825 0.25977,0.29395 0.1709,0.0889 0.68359,0.0889 v 0.24609 h -3.09668 v -0.24609 h 0.13672 q 0.47852,0 0.64258,-0.23926 0.1709,-0.2461 0.1709,-0.92969 v -2.32422 q 0,-1.12793 -0.0547,-1.37402 -0.0478,-0.24609 -0.15723,-0.33496 -0.10254,-0.0889 -0.28027,-0.0889 -0.19141,0 -0.45801,0.10254 l -0.10254,-0.24609 1.88672,-0.76563 h 0.29395 z"
       id="path18474" />
    <path
       d="m 258.07838,168.69263 q 0.28711,0 0.48536,0.20508 0.20507,0.19824 0.20507,0.48535 0,0.28711 -0.20507,0.49218 -0.19825,0.20508 -0.48536,0.20508 -0.2871,0 -0.49218,-0.20508 -0.20508,-0.20507 -0.20508,-0.49218 0,-0.28711 0.19824,-0.48535 0.20508,-0.20508 0.49902,-0.20508 z m 0.56739,3.27441 v 5.03125 q 0,0.58789 0.082,0.78613 0.0889,0.19141 0.25293,0.28711 0.1709,0.0957 0.61523,0.0957 v 0.24609 h -3.04199 v -0.24609 q 0.45801,0 0.61523,-0.0889 0.15723,-0.0889 0.2461,-0.29395 0.0957,-0.20507 0.0957,-0.78613 v -2.41308 q 0,-1.01856 -0.0615,-1.31934 -0.0478,-0.21875 -0.15039,-0.30078 -0.10254,-0.0889 -0.28028,-0.0889 -0.1914,0 -0.46484,0.10254 l -0.0957,-0.24609 1.88672,-0.76563 z"
       id="path18476" />
    <path
       d="m 265.69362,176.03442 q -0.25293,1.23731 -0.99121,1.90723 -0.73828,0.66309 -1.63379,0.66309 -1.06641,0 -1.85938,-0.89551 -0.79296,-0.89551 -0.79296,-2.41992 0,-1.47657 0.875,-2.39942 0.88183,-0.92285 2.1123,-0.92285 0.92285,0 1.51758,0.49219 0.59472,0.48535 0.59472,1.01172 0,0.25976 -0.17089,0.42383 -0.16407,0.15722 -0.46485,0.15722 -0.40332,0 -0.6084,-0.25976 -0.11621,-0.14356 -0.15722,-0.54688 -0.0342,-0.40332 -0.27344,-0.61523 -0.23926,-0.20508 -0.66309,-0.20508 -0.68359,0 -1.10058,0.50586 -0.55371,0.66992 -0.55371,1.77051 0,1.12109 0.54687,1.98242 0.55371,0.85449 1.49024,0.85449 0.66992,0 1.20312,-0.45801 0.37598,-0.31445 0.73145,-1.1416 z"
       id="path18478" />
    <path
       d="m 268.42799,168.69263 v 4.58008 q 0.75879,-0.83399 1.20313,-1.06641 0.44433,-0.23926 0.88867,-0.23926 0.5332,0 0.91602,0.29395 0.38281,0.29394 0.56738,0.92285 0.12988,0.4375 0.12988,1.59961 v 2.21484 q 0,0.59473 0.0957,0.81348 0.0684,0.16406 0.23242,0.25976 0.16406,0.0957 0.60156,0.0957 v 0.24609 h -3.07617 v -0.24609 h 0.14355 q 0.4375,0 0.6084,-0.12989 0.1709,-0.13672 0.23926,-0.39648 0.0205,-0.10938 0.0205,-0.64258 v -2.21484 q 0,-1.02539 -0.10938,-1.34668 -0.10254,-0.32129 -0.33496,-0.47852 -0.23242,-0.16406 -0.56055,-0.16406 -0.33496,0 -0.69726,0.17773 -0.36231,0.17774 -0.86817,0.71778 v 3.30859 q 0,0.64258 0.0684,0.79981 0.0752,0.15722 0.2666,0.2666 0.19825,0.10254 0.67676,0.10254 v 0.24609 h -3.10351 v -0.24609 q 0.41699,0 0.65625,-0.12989 0.13672,-0.0684 0.21875,-0.25976 0.082,-0.19141 0.082,-0.7793 v -5.66699 q 0,-1.07324 -0.0547,-1.31934 -0.0478,-0.24609 -0.15723,-0.33496 -0.10253,-0.0889 -0.28027,-0.0889 -0.14355,0 -0.46484,0.10938 l -0.0957,-0.23926 1.87305,-0.76562 z"
       id="path18480" />
    <path
       d="m 279.53639,172.6438 v 4.11523 q 0,0.875 0.19141,1.10743 0.25293,0.30078 0.67676,0.30078 h 0.56738 v 0.24609 h -3.73926 v -0.24609 h 0.28027 q 0.27344,0 0.49903,-0.13672 0.22558,-0.13672 0.30762,-0.36914 0.0889,-0.23242 0.0889,-0.90235 v -4.11523 h -1.21679 v -0.49219 h 1.21679 v -0.41015 q 0,-0.93653 0.30078,-1.58594 0.30079,-0.64942 0.91602,-1.0459 0.62207,-0.40332 1.39453,-0.40332 0.71777,0 1.31934,0.46484 0.39648,0.30762 0.39648,0.69043 0,0.20508 -0.17773,0.38965 -0.17774,0.17774 -0.38282,0.17774 -0.15722,0 -0.33496,-0.10938 -0.1709,-0.11621 -0.42382,-0.48535 -0.25293,-0.37598 -0.46485,-0.50586 -0.21191,-0.12988 -0.47168,-0.12988 -0.31445,0 -0.5332,0.17089 -0.21875,0.16407 -0.31445,0.51954 -0.0957,0.34863 -0.0957,1.81152 v 0.45117 h 1.61328 v 0.49219 z"
       id="path18482" />
    <path
       d="m 283.58327,171.96704 v 1.4082 q 0.78613,-1.4082 1.61328,-1.4082 0.37598,0 0.62207,0.23242 0.24609,0.22559 0.24609,0.52637 0,0.2666 -0.17773,0.45117 -0.17774,0.18457 -0.42383,0.18457 -0.23926,0 -0.54004,-0.23242 -0.29394,-0.23926 -0.4375,-0.23926 -0.12305,0 -0.2666,0.13672 -0.30762,0.28027 -0.63574,0.92285 v 3.00098 q 0,0.51953 0.12988,0.78613 0.0889,0.18457 0.31445,0.30762 0.22559,0.12305 0.64942,0.12305 v 0.24609 h -3.20606 v -0.24609 q 0.47852,0 0.71094,-0.15039 0.1709,-0.10938 0.23926,-0.34864 0.0342,-0.11621 0.0342,-0.66308 v -2.42676 q 0,-1.09375 -0.0478,-1.29883 -0.041,-0.21191 -0.16407,-0.30762 -0.11621,-0.0957 -0.29394,-0.0957 -0.21192,0 -0.47852,0.10254 l -0.0684,-0.24609 1.89356,-0.76563 z"
       id="path18484" />
    <path
       d="m 289.47585,171.96704 q 1.42187,0 2.2832,1.08008 0.73144,0.92285 0.73144,2.11914 0,0.84082 -0.40332,1.70215 -0.40332,0.86133 -1.11425,1.29883 -0.70411,0.4375 -1.57227,0.4375 -1.41504,0 -2.24902,-1.12793 -0.7041,-0.9502 -0.7041,-2.13282 0,-0.86132 0.42382,-1.70898 0.43067,-0.85449 1.12793,-1.25781 0.69727,-0.41016 1.47657,-0.41016 z m -0.21192,0.44434 q -0.3623,0 -0.73144,0.21875 -0.36231,0.21191 -0.58789,0.75195 -0.22559,0.54004 -0.22559,1.3877 0,1.36718 0.54004,2.35839 0.54687,0.99121 1.43555,0.99121 0.66308,0 1.09375,-0.54687 0.43066,-0.54688 0.43066,-1.87988 0,-1.66797 -0.71777,-2.625 -0.48536,-0.65625 -1.23731,-0.65625 z"
       id="path18486" />
    <path
       d="m 295.25221,168.69263 v 4.58008 q 0.75879,-0.83399 1.20313,-1.06641 0.44433,-0.23926 0.88867,-0.23926 0.5332,0 0.91602,0.29395 0.38281,0.29394 0.56738,0.92285 0.12988,0.4375 0.12988,1.59961 v 2.21484 q 0,0.59473 0.0957,0.81348 0.0684,0.16406 0.23243,0.25976 0.16406,0.0957 0.60156,0.0957 v 0.24609 h -3.07617 v -0.24609 h 0.14355 q 0.4375,0 0.6084,-0.12989 0.1709,-0.13672 0.23926,-0.39648 0.0205,-0.10938 0.0205,-0.64258 v -2.21484 q 0,-1.02539 -0.10938,-1.34668 -0.10254,-0.32129 -0.33496,-0.47852 -0.23242,-0.16406 -0.56055,-0.16406 -0.33496,0 -0.69726,0.17773 -0.36231,0.17774 -0.86817,0.71778 v 3.30859 q 0,0.64258 0.0684,0.79981 0.0752,0.15722 0.2666,0.2666 0.19825,0.10254 0.67676,0.10254 v 0.24609 h -3.10351 v -0.24609 q 0.41699,0 0.65625,-0.12989 0.13671,-0.0684 0.21875,-0.25976 0.082,-0.19141 0.082,-0.7793 v -5.66699 q 0,-1.07324 -0.0547,-1.31934 -0.0479,-0.24609 -0.15723,-0.33496 -0.10254,-0.0889 -0.28027,-0.0889 -0.14356,0 -0.46484,0.10938 l -0.0957,-0.23926 1.87305,-0.76562 z"
       id="path18488" />
    <path
       d="m 302.43678,175.95923 h -0.25976 l -0.60157,-5.53711 q -0.041,-0.36231 -0.041,-0.54004 0,-0.43066 0.22559,-0.69043 0.23242,-0.25977 0.55371,-0.25977 0.32129,0 0.54004,0.25977 0.22558,0.25977 0.22558,0.77246 0,0.16406 -0.0273,0.45801 z m -0.13672,1.13476 q 0.31446,0 0.53321,0.22559 0.22558,0.21875 0.22558,0.52637 0,0.31445 -0.22558,0.54004 -0.21875,0.21875 -0.53321,0.21875 -0.31445,0 -0.54003,-0.21875 -0.21875,-0.22559 -0.21875,-0.54004 0,-0.30762 0.21875,-0.52637 0.22558,-0.22559 0.54003,-0.22559 z"
       id="path18490" />
    <path
       d="m 306.86647,168.93188 v 0.28028 q -0.60156,0.31445 -0.86133,0.65625 -0.25976,0.3418 -0.25976,0.74512 0,0.23925 0.0684,0.32812 0.0615,0.0957 0.15039,0.0957 0.0889,0 0.23925,-0.0479 0.1504,-0.0547 0.27344,-0.0547 0.28028,0 0.48535,0.21192 0.21192,0.20508 0.21192,0.50586 0,0.32812 -0.25293,0.56738 -0.25293,0.23242 -0.62891,0.23242 -0.45801,0 -0.82715,-0.39648 -0.36914,-0.39649 -0.36914,-0.97754 0,-0.68359 0.45117,-1.27149 0.45801,-0.59472 1.31934,-0.875 z m 3.26074,0.0205 v 0.25977 q -0.69043,0.39648 -0.90918,0.71094 -0.21875,0.31445 -0.21875,0.73828 0,0.1914 0.0752,0.28711 0.0752,0.0957 0.15722,0.0957 0.0752,0 0.22559,-0.0547 0.15039,-0.0547 0.30078,-0.0547 0.28028,0 0.48535,0.20508 0.21192,0.19824 0.21192,0.49219 0,0.33496 -0.2666,0.58105 -0.25977,0.2461 -0.64258,0.2461 -0.45117,0 -0.81348,-0.38965 -0.3623,-0.38965 -0.3623,-0.9707 0,-0.71778 0.458,-1.30567 0.45801,-0.59472 1.29883,-0.84082 z"
       id="path18492" />
  </g>
  <path
     id="rect88"
     style="fill:#ffffff"
     class="cls-11"
     d="m 425.62497,188.86334 h 164 v 30.2 h -164 z" />
  <g
     aria-label="M 317 Sk2.1.2"
     id="text92"
     style="font-weight:700;font-size:12px;font-family:Arial-BoldMT, Arial;isolation:isolate"
     class="cls-13">
    <path
       d="m 94.48819,84.326881 v -8.589843 h 2.595703 l 1.558594,5.859375 1.541013,-5.859375 h 2.60156 v 8.589843 h -1.61132 v -6.761718 l -1.705082,6.761718 h -1.669921 l -1.699219,-6.761718 v 6.761718 z"
       id="path18437" />
    <path
       d="m 107.41983,82.047585 1.59375,-0.19336 q 0.0762,0.609375 0.41016,0.931641 0.33398,0.322265 0.80859,0.322265 0.50977,0 0.85547,-0.386718 0.35156,-0.386719 0.35156,-1.042969 0,-0.621094 -0.33398,-0.984375 -0.33399,-0.363281 -0.81446,-0.363281 -0.3164,0 -0.75586,0.123047 l 0.18165,-1.341797 q 0.66796,0.01758 1.01953,-0.28711 0.35156,-0.310547 0.35156,-0.820312 0,-0.433594 -0.25781,-0.691406 -0.25782,-0.257813 -0.68555,-0.257813 -0.42188,0 -0.7207,0.292969 -0.29883,0.292969 -0.36328,0.855469 l -1.51758,-0.257813 q 0.1582,-0.779297 0.47461,-1.242187 0.32226,-0.46875 0.89062,-0.732422 0.57422,-0.269532 1.2832,-0.269532 1.2129,0 1.94532,0.773438 0.60351,0.632812 0.60351,1.429687 0,1.13086 -1.23633,1.804688 0.73829,0.158203 1.17774,0.708984 0.44531,0.550782 0.44531,1.330078 0,1.13086 -0.82617,1.927735 -0.82617,0.796875 -2.05664,0.796875 -1.16602,0 -1.93359,-0.667969 -0.76758,-0.673828 -0.89063,-1.757812 z"
       id="path18439" />
    <path
       d="m 118.36514,84.326881 h -1.64648 v -6.205078 q -0.90235,0.84375 -2.12695,1.248047 v -1.49414 q 0.64453,-0.210938 1.40039,-0.796875 0.75586,-0.591797 1.03711,-1.376954 h 1.33593 z"
       id="path18441" />
    <path
       d="m 120.82608,77.383522 v -1.529297 h 5.63086 v 1.195313 q -0.69727,0.685547 -1.41797,1.96875 -0.7207,1.283203 -1.10156,2.730468 -0.375,1.441407 -0.36914,2.578125 h -1.58789 q 0.041,-1.78125 0.73242,-3.632812 0.69726,-1.851563 1.85742,-3.310547 z"
       id="path18443" />
    <path
       d="m 130.75772,81.53196 1.6875,-0.164063 q 0.15234,0.849609 0.61524,1.248047 0.46875,0.398437 1.25976,0.398437 0.83789,0 1.25977,-0.351562 0.42773,-0.357422 0.42773,-0.832031 0,-0.304688 -0.18164,-0.515625 -0.17578,-0.216797 -0.62109,-0.375 -0.30469,-0.105469 -1.38868,-0.375 -1.39453,-0.345703 -1.95703,-0.84961 -0.79101,-0.708984 -0.79101,-1.728515 0,-0.65625 0.36914,-1.22461 0.375,-0.574218 1.07226,-0.873047 0.70313,-0.298828 1.69336,-0.298828 1.61719,0 2.43164,0.708985 0.82032,0.708984 0.86133,1.892578 l -1.73437,0.07617 q -0.11133,-0.66211 -0.48047,-0.949219 -0.36328,-0.292969 -1.0957,-0.292969 -0.75586,0 -1.1836,0.310547 -0.27539,0.199219 -0.27539,0.533203 0,0.304688 0.25781,0.521485 0.32813,0.27539 1.59375,0.574218 1.26563,0.298828 1.86914,0.621094 0.60938,0.316406 0.94922,0.873047 0.34571,0.550781 0.34571,1.365234 0,0.738282 -0.41016,1.382813 -0.41016,0.644531 -1.16016,0.960937 -0.75,0.310547 -1.86914,0.310547 -1.6289,0 -2.50195,-0.75 -0.87305,-0.755859 -1.04297,-2.197265 z"
       id="path18445" />
    <path
       d="m 139.13077,84.326881 v -8.589843 h 1.64648 v 4.558593 l 1.92774,-2.191406 h 2.02734 l -2.12695,2.273438 2.27929,3.949218 h -1.77539 l -1.56445,-2.794921 -0.76758,0.802734 v 1.992187 z"
       id="path18447" />
    <path
       d="m 151.07217,82.797585 v 1.529296 h -5.77148 q 0.0937,-0.867187 0.5625,-1.640625 0.46875,-0.779296 1.85156,-2.0625 1.11328,-1.037109 1.36524,-1.40625 0.33984,-0.509765 0.33984,-1.007812 0,-0.550781 -0.29883,-0.84375 -0.29297,-0.298828 -0.81445,-0.298828 -0.51563,0 -0.82031,0.310547 -0.30469,0.310547 -0.35157,1.03125 l -1.64062,-0.164063 q 0.14648,-1.359375 0.91992,-1.951172 0.77344,-0.591797 1.93359,-0.591797 1.27149,0 1.99805,0.685547 0.72656,0.685547 0.72656,1.705078 0,0.580079 -0.21093,1.107422 -0.20508,0.521485 -0.65625,1.095703 -0.29883,0.38086 -1.07813,1.095704 -0.7793,0.714843 -0.99023,0.949218 -0.20508,0.234375 -0.33399,0.457032 z"
       id="path18449" />
    <path
       d="m 152.53702,84.326881 v -1.646484 h 1.64648 v 1.646484 z"
       id="path18451" />
    <path
       d="m 159.73233,84.326881 h -1.64648 v -6.205078 q -0.90235,0.84375 -2.12696,1.248047 v -1.49414 q 0.64453,-0.210938 1.40039,-0.796875 0.75586,-0.591797 1.03711,-1.376954 h 1.33594 z"
       id="path18453" />
    <path
       d="m 162.54483,84.326881 v -1.646484 h 1.64648 v 1.646484 z"
       id="path18455" />
    <path
       d="m 171.0878,82.797585 v 1.529296 h -5.77149 q 0.0937,-0.867187 0.5625,-1.640625 0.46875,-0.779296 1.85157,-2.0625 1.11328,-1.037109 1.36523,-1.40625 0.33985,-0.509765 0.33985,-1.007812 0,-0.550781 -0.29883,-0.84375 -0.29297,-0.298828 -0.81446,-0.298828 -0.51562,0 -0.82031,0.310547 -0.30469,0.310547 -0.35156,1.03125 l -1.64063,-0.164063 q 0.14649,-1.359375 0.91993,-1.951172 0.77343,-0.591797 1.93359,-0.591797 1.27148,0 1.99805,0.685547 0.72656,0.685547 0.72656,1.705078 0,0.580079 -0.21094,1.107422 -0.20508,0.521485 -0.65625,1.095703 -0.29883,0.38086 -1.07812,1.095704 -0.7793,0.714843 -0.99024,0.949218 -0.20508,0.234375 -0.33398,0.457032 z"
       id="path18457" />
  </g>
  <g
     aria-label="3"
     id="text104"
     style="font-size:13.5px;font-family:Maestro, Maestro;isolation:isolate"
     class="cls-1">
    <path
       d="m 171.16045,242.88983 q 0,0.513 -0.2835,0.891 -0.27,0.378 -0.675,0.621 -0.405,0.243 -0.864,0.351 -0.459,0.1215 -0.8235,0.1215 -0.513,0 -0.9585,-0.1215 -0.432,-0.1215 -0.756,-0.351 -0.324,-0.2295 -0.513,-0.567 -0.1755,-0.324 -0.1755,-0.7425 0,-0.1755 0.081,-0.351 0.081,-0.1755 0.2025,-0.3105 0.135,-0.135 0.297,-0.2295 0.1755,-0.081 0.3645,-0.081 0.378,0 0.702,0.216 0.324,0.216 0.324,0.648 0,0.2565 -0.081,0.4185 -0.081,0.162 -0.1755,0.2835 -0.0945,0.1215 -0.1755,0.243 -0.0675,0.135 -0.054,0.3105 0,0.0405 0.0675,0.0945 0.0675,0.0675 0.1485,0.1215 0.0945,0.054 0.1755,0.081 0.0945,0.0405 0.1485,0.0405 0.3375,0 0.5805,-0.1755 0.2565,-0.162 0.4185,-0.4185 0.1755,-0.2565 0.2565,-0.54 0.081,-0.2835 0.081,-0.513 0,-0.432 -0.189,-0.6615 -0.1755,-0.216 -0.459,-0.324 -0.27,-0.0945 -0.621,-0.135 -0.3375,-0.027 -0.6615,-0.0945 0,-0.0135 0,-0.0675 0,-0.054 0,-0.1215 0.0135,-0.0675 0.0135,-0.108 0,-0.054 0,-0.054 0.324,-0.0405 0.6345,-0.1215 0.3105,-0.081 0.5535,-0.243 0.243,-0.162 0.378,-0.4185 0.1485,-0.2565 0.1485,-0.6345 0,-0.5265 -0.189,-0.7965 -0.1755,-0.2835 -0.405,-0.3915 -0.2295,-0.1215 -0.4455,-0.1215 -0.2025,-0.0135 -0.27,-0.0135 -0.0405,0 -0.108,0.0405 -0.054,0.027 -0.1215,0.081 -0.0675,0.0405 -0.108,0.108 -0.0405,0.054 -0.0405,0.108 0.0135,0.108 0.081,0.2025 0.081,0.0945 0.1755,0.2025 0.108,0.0945 0.2025,0.2295 0.108,0.1215 0.1755,0.324 0.0675,0.189 0,0.3915 -0.0675,0.189 -0.216,0.351 -0.1485,0.1485 -0.351,0.243 -0.189,0.0945 -0.378,0.0945 -0.2295,0 -0.4185,-0.108 -0.189,-0.108 -0.324,-0.2565 -0.135,-0.162 -0.216,-0.3375 -0.081,-0.1755 -0.081,-0.297 0,-0.297 0.1215,-0.6075 0.135,-0.3105 0.4455,-0.567 0.324,-0.2565 0.837,-0.4185 0.5265,-0.1755 1.323,-0.1755 0.3375,0 0.6885,0.1215 0.351,0.108 0.621,0.324 0.27,0.216 0.4455,0.513 0.1755,0.297 0.1755,0.675 0,0.4995 -0.243,0.783 -0.243,0.2835 -0.54,0.4455 -0.2835,0.162 -0.5265,0.243 -0.243,0.0675 -0.243,0.135 0.297,0.027 0.6075,0.108 0.324,0.081 0.594,0.243 0.27,0.162 0.4455,0.4185 0.1755,0.2565 0.1755,0.648 z"
       id="path18431" />
  </g>
  <g
     aria-label="4"
     id="text106"
     style="font-size:13.5px;font-family:Maestro, Maestro;isolation:isolate"
     class="cls-1">
    <path
       d="m 170.04045,249.78833 v 0.891 q 0,0.2025 0.0945,0.3105 0.0945,0.108 0.216,0.162 0.1485,0.054 0.324,0.054 v 0.351 h -2.9295 v -0.351 q 0.1755,0 0.324,-0.054 0.1215,-0.0405 0.216,-0.1485 0.108,-0.0945 0.108,-0.297 v -0.918 h -2.4975 l -0.243,-0.2565 q 0.405,-0.5535 0.6885,-0.972 0.2835,-0.405 0.4725,-0.756 0.2025,-0.351 0.324,-0.648 0.1215,-0.3105 0.216,-0.6345 0.0945,-0.324 0.162,-0.702 0.081,-0.3915 0.1755,-0.891 h 2.3355 q -0.2025,0.3915 -0.6345,0.9315 -0.4185,0.5265 -0.945,1.134 -0.5265,0.594 -1.0935,1.2285 -0.567,0.621 -1.053,1.188 h 2.0925 v -1.6605 l 1.647,-1.809 v 3.4695 h 0.972 v 0.378 z"
       id="path18428" />
  </g>
  <g
     id="g1029"
     class="link-box">
    <path
       d="m 425.62497,188.86334 h 175.2 v 30.2 h -175.2 z"
       class="cls-12"
       style="fill:#ffffff;stroke:#7d7d7d;stroke-width:0.40000001px;stroke-miterlimit:10"
       id="rect90"
       inkscape:connector-curvature="0" />
    <g
       class="cls-13"
       style="font-weight:700;font-size:12px;font-family:Arial-BoldMT, Arial;isolation:isolate;fill:#7d7d7d"
       id="text116"
       aria-label="Sk1">
      <path
         id="path18417"
         d="m 503.73279,205.4604 1.6875,-0.16406 q 0.15234,0.84961 0.61523,1.24805 0.46875,0.39844 1.25977,0.39844 0.83789,0 1.25976,-0.35157 0.42774,-0.35742 0.42774,-0.83203 0,-0.30469 -0.18164,-0.51562 -0.17578,-0.2168 -0.6211,-0.375 -0.30468,-0.10547 -1.38867,-0.375 -1.39453,-0.34571 -1.95703,-0.84961 -0.79102,-0.70899 -0.79102,-1.72852 0,-0.65625 0.36915,-1.22461 0.375,-0.57422 1.07226,-0.87304 0.70313,-0.29883 1.69336,-0.29883 1.61719,0 2.43164,0.70898 0.82031,0.70899 0.86133,1.89258 l -1.73438,0.0762 q -0.11132,-0.66211 -0.48046,-0.94922 -0.36329,-0.29297 -1.09571,-0.29297 -0.75586,0 -1.18359,0.31055 -0.27539,0.19922 -0.27539,0.5332 0,0.30469 0.25781,0.52149 0.32813,0.27539 1.59375,0.57422 1.26563,0.29883 1.86914,0.62109 0.60938,0.31641 0.94922,0.87305 0.3457,0.55078 0.3457,1.36523 0,0.73828 -0.41015,1.38281 -0.41016,0.64454 -1.16016,0.96094 -0.75,0.31055 -1.86914,0.31055 -1.62891,0 -2.50195,-0.75 -0.87305,-0.75586 -1.04297,-2.19727 z"
         inkscape:connector-curvature="0" />
      <path
         id="path18419"
         d="m 512.10583,208.25533 v -8.58985 h 1.64649 v 4.5586 l 1.92773,-2.19141 h 2.02735 l -2.12696,2.27344 2.2793,3.94922 h -1.77539 l -1.56445,-2.79493 -0.76758,0.80274 v 1.99219 z"
         inkscape:connector-curvature="0" />
      <path
         id="path18421"
         d="m 522.69958,208.25533 h -1.64648 v -6.20508 q -0.90234,0.84375 -2.12695,1.24804 v -1.49414 q 0.64453,-0.21093 1.40039,-0.79687 0.75586,-0.5918 1.03711,-1.37695 h 1.33593 z"
         inkscape:connector-curvature="0" />
    </g>
  </g>
  <g
     id="g1038"
     class="link-box">
    <path
       d="m 803.5,231.4 v -41 h 130.1 v -31 H 804.5 v -41.5 h -266 v 30.2 h 170 v 83.3 z"
       transform="translate(66.624955,70.963337)"
       class="cls-12"
       style="fill:#ffffff;stroke:#7d7d7d;stroke-width:0.40000001px;stroke-miterlimit:10"
       id="polygon100"
       inkscape:connector-curvature="0" />
    <g
       class="cls-13"
       style="font-weight:700;font-size:12px;font-family:Arial-BoldMT, Arial;isolation:isolate;fill:#7d7d7d"
       id="text118"
       aria-label="Sk2.1">
      <path
         id="path18406"
         d="m 788.17883,247.06174 1.6875,-0.16407 q 0.15235,0.84961 0.61524,1.24805 0.46875,0.39844 1.25976,0.39844 0.83789,0 1.25977,-0.35156 0.42773,-0.35743 0.42773,-0.83203 0,-0.30469 -0.18164,-0.51563 -0.17578,-0.2168 -0.62109,-0.375 -0.30469,-0.10547 -1.38867,-0.375 -1.39453,-0.3457 -1.95703,-0.84961 -0.79102,-0.70898 -0.79102,-1.72851 0,-0.65625 0.36914,-1.22461 0.375,-0.57422 1.07227,-0.87305 0.70312,-0.29883 1.69336,-0.29883 1.61718,0 2.43164,0.70899 0.82031,0.70898 0.86132,1.89257 l -1.73437,0.0762 q -0.11133,-0.66211 -0.48047,-0.94922 -0.36328,-0.29297 -1.0957,-0.29297 -0.75586,0 -1.1836,0.31054 -0.27539,0.19922 -0.27539,0.53321 0,0.30469 0.25782,0.52148 0.32812,0.27539 1.59375,0.57422 1.26562,0.29883 1.86914,0.62109 0.60937,0.31641 0.94921,0.87305 0.34571,0.55078 0.34571,1.36524 0,0.73828 -0.41016,1.38281 -0.41015,0.64453 -1.16015,0.96094 -0.75,0.31054 -1.86915,0.31054 -1.6289,0 -2.50195,-0.75 -0.87305,-0.75586 -1.04297,-2.19726 z"
         inkscape:connector-curvature="0" />
      <path
         id="path18408"
         d="m 796.55188,249.85666 v -8.58984 h 1.64648 v 4.55859 l 1.92774,-2.19141 h 2.02734 l -2.12695,2.27344 2.2793,3.94922 h -1.77539 l -1.56446,-2.79492 -0.76758,0.80273 v 1.99219 z"
         inkscape:connector-curvature="0" />
      <path
         id="path18410"
         d="m 808.49329,248.32736 v 1.5293 h -5.77149 q 0.0937,-0.86719 0.5625,-1.64063 0.46875,-0.77929 1.85156,-2.0625 1.11329,-1.03711 1.36524,-1.40625 0.33984,-0.50976 0.33984,-1.00781 0,-0.55078 -0.29883,-0.84375 -0.29296,-0.29883 -0.81445,-0.29883 -0.51562,0 -0.82031,0.31055 -0.30469,0.31055 -0.35156,1.03125 l -1.64063,-0.16406 q 0.14649,-1.35938 0.91992,-1.95117 0.77344,-0.5918 1.9336,-0.5918 1.27148,0 1.99804,0.68555 0.72657,0.68554 0.72657,1.70507 0,0.58008 -0.21094,1.10743 -0.20508,0.52148 -0.65625,1.0957 -0.29883,0.38086 -1.07813,1.0957 -0.77929,0.71485 -0.99023,0.94922 -0.20508,0.23438 -0.33399,0.45703 z"
         inkscape:connector-curvature="0" />
      <path
         id="path18412"
         d="m 809.95813,249.85666 v -1.64649 h 1.64648 v 1.64649 z"
         inkscape:connector-curvature="0" />
      <path
         id="path18414"
         d="m 817.15344,249.85666 h -1.64648 v -6.20508 q -0.90235,0.84375 -2.12696,1.24805 v -1.49414 q 0.64454,-0.21094 1.4004,-0.79688 0.75585,-0.59179 1.0371,-1.37695 h 1.33594 z"
         inkscape:connector-curvature="0" />
    </g>
  </g>
  <g
     id="g1049"
     class="link-box">
    <path
       d="m 873.62494,188.86334 h 126.59996 v 30.2 H 873.62494 Z"
       class="cls-12"
       style="fill:#ffffff;stroke:#7d7d7d;stroke-width:0.40000001px;stroke-miterlimit:10"
       id="rect98"
       inkscape:connector-curvature="0" />
    <g
       class="cls-13"
       style="font-weight:700;font-size:12px;font-family:Arial-BoldMT, Arial;isolation:isolate;fill:#7d7d7d"
       id="text120"
       aria-label="Sk2.1.1">
      <path
         id="path18391"
         d="m 917.42493,205.4604 1.6875,-0.16406 q 0.15234,0.84961 0.61523,1.24805 0.46875,0.39844 1.25977,0.39844 0.83789,0 1.25976,-0.35157 0.42774,-0.35742 0.42774,-0.83203 0,-0.30469 -0.18164,-0.51562 -0.17579,-0.2168 -0.6211,-0.375 -0.30469,-0.10547 -1.38867,-0.375 -1.39453,-0.34571 -1.95703,-0.84961 -0.79102,-0.70899 -0.79102,-1.72852 0,-0.65625 0.36914,-1.22461 0.375,-0.57422 1.07227,-0.87304 0.70312,-0.29883 1.69336,-0.29883 1.61719,0 2.43164,0.70898 0.82031,0.70899 0.86133,1.89258 l -1.73438,0.0762 q -0.11133,-0.66211 -0.48047,-0.94922 -0.36328,-0.29297 -1.0957,-0.29297 -0.75586,0 -1.18359,0.31055 -0.27539,0.19922 -0.27539,0.5332 0,0.30469 0.25781,0.52149 0.32812,0.27539 1.59375,0.57422 1.26562,0.29883 1.86914,0.62109 0.60937,0.31641 0.94922,0.87305 0.3457,0.55078 0.3457,1.36523 0,0.73828 -0.41015,1.38281 -0.41016,0.64454 -1.16016,0.96094 -0.75,0.31055 -1.86914,0.31055 -1.62891,0 -2.50195,-0.75 -0.87305,-0.75586 -1.04297,-2.19727 z"
         inkscape:connector-curvature="0" />
      <path
         id="path18393"
         d="m 925.79797,208.25533 v -8.58985 h 1.64649 v 4.5586 l 1.92773,-2.19141 h 2.02735 l -2.12696,2.27344 2.2793,3.94922 h -1.77539 l -1.56445,-2.79493 -0.76758,0.80274 v 1.99219 z"
         inkscape:connector-curvature="0" />
      <path
         id="path18395"
         d="m 937.73938,206.72603 v 1.5293 h -5.77148 q 0.0937,-0.86719 0.5625,-1.64063 0.46875,-0.7793 1.85156,-2.0625 1.11328,-1.03711 1.36523,-1.40625 0.33985,-0.50977 0.33985,-1.00781 0,-0.55078 -0.29883,-0.84375 -0.29297,-0.29883 -0.81446,-0.29883 -0.51562,0 -0.82031,0.31055 -0.30469,0.31054 -0.35156,1.03125 l -1.64063,-0.16407 q 0.14649,-1.35937 0.91993,-1.95117 0.77343,-0.59179 1.93359,-0.59179 1.27148,0 1.99805,0.68554 0.72656,0.68555 0.72656,1.70508 0,0.58008 -0.21094,1.10742 -0.20508,0.52149 -0.65625,1.09571 -0.29883,0.38085 -1.07812,1.0957 -0.7793,0.71484 -0.99024,0.94922 -0.20508,0.23437 -0.33398,0.45703 z"
         inkscape:connector-curvature="0" />
      <path
         id="path18397"
         d="m 939.20422,208.25533 v -1.64649 h 1.64649 v 1.64649 z"
         inkscape:connector-curvature="0" />
      <path
         id="path18399"
         d="m 946.39954,208.25533 h -1.64649 v -6.20508 q -0.90234,0.84375 -2.12695,1.24804 v -1.49414 q 0.64453,-0.21093 1.40039,-0.79687 0.75586,-0.5918 1.03711,-1.37695 h 1.33594 z"
         inkscape:connector-curvature="0" />
      <path
         id="path18401"
         d="m 949.21204,208.25533 v -1.64649 h 1.64648 v 1.64649 z"
         inkscape:connector-curvature="0" />
      <path
         id="path18403"
         d="m 956.40735,208.25533 h -1.64649 v -6.20508 q -0.90234,0.84375 -2.12695,1.24804 v -1.49414 q 0.64453,-0.21093 1.40039,-0.79687 0.75586,-0.5918 1.03711,-1.37695 h 1.33594 z"
         inkscape:connector-curvature="0" />
    </g>
  </g>
  <g
     id="g1101"
     class="link-box">
    <path
       d="m 886.62494,296.86334 h 75 v 20.6 h -75 z"
       class="cls-12"
       style="fill:#ffffff;stroke:#7d7d7d;stroke-width:0.40000001px;stroke-miterlimit:10"
       id="rect102"
       inkscape:connector-curvature="0" />
    <g
       class="cls-13"
       style="font-weight:700;font-size:12px;font-family:Arial-BoldMT, Arial;isolation:isolate;fill:#7d7d7d"
       id="text122"
       aria-label="Sk2.1.3">
      <path
         id="path18376"
         d="m 903.90717,308.6604 1.6875,-0.16406 q 0.15234,0.84961 0.61523,1.24804 0.46875,0.39844 1.25977,0.39844 0.83789,0 1.25976,-0.35156 0.42774,-0.35742 0.42774,-0.83203 0,-0.30469 -0.18165,-0.51563 -0.17578,-0.21679 -0.62109,-0.375 -0.30469,-0.10547 -1.38867,-0.375 -1.39453,-0.3457 -1.95703,-0.84961 -0.79102,-0.70898 -0.79102,-1.72851 0,-0.65625 0.36914,-1.22461 0.375,-0.57422 1.07227,-0.87305 0.70312,-0.29883 1.69336,-0.29883 1.61719,0 2.43164,0.70899 0.82031,0.70898 0.86133,1.89258 l -1.73438,0.0762 q -0.11133,-0.66211 -0.48047,-0.94922 -0.36328,-0.29297 -1.0957,-0.29297 -0.75586,0 -1.18359,0.31055 -0.27539,0.19922 -0.27539,0.5332 0,0.30469 0.25781,0.52149 0.32812,0.27539 1.59375,0.57421 1.26562,0.29883 1.86914,0.6211 0.60937,0.3164 0.94922,0.87304 0.3457,0.55079 0.3457,1.36524 0,0.73828 -0.41016,1.38281 -0.41015,0.64453 -1.16015,0.96094 -0.75,0.31055 -1.86914,0.31055 -1.62891,0 -2.50196,-0.75 -0.87304,-0.75586 -1.04296,-2.19727 z"
         inkscape:connector-curvature="0" />
      <path
         id="path18378"
         d="m 912.28021,311.45532 v -8.58984 h 1.64649 v 4.55859 l 1.92773,-2.1914 h 2.02734 l -2.12695,2.27343 2.2793,3.94922 h -1.77539 l -1.56446,-2.79492 -0.76757,0.80273 v 1.99219 z"
         inkscape:connector-curvature="0" />
      <path
         id="path18380"
         d="m 924.22162,309.92603 v 1.52929 h -5.77149 q 0.0937,-0.86719 0.5625,-1.64062 0.46875,-0.7793 1.85157,-2.0625 1.11328,-1.03711 1.36523,-1.40625 0.33984,-0.50977 0.33984,-1.00782 0,-0.55078 -0.29882,-0.84375 -0.29297,-0.29882 -0.81446,-0.29882 -0.51562,0 -0.82031,0.31054 -0.30469,0.31055 -0.35156,1.03125 l -1.64063,-0.16406 q 0.14649,-1.35937 0.91993,-1.95117 0.77343,-0.5918 1.93359,-0.5918 1.27148,0 1.99805,0.68555 0.72656,0.68555 0.72656,1.70508 0,0.58008 -0.21094,1.10742 -0.20508,0.52148 -0.65625,1.0957 -0.29883,0.38086 -1.07812,1.09571 -0.7793,0.71484 -0.99024,0.94921 -0.20508,0.23438 -0.33398,0.45704 z"
         inkscape:connector-curvature="0" />
      <path
         id="path18382"
         d="m 925.68646,311.45532 v -1.64648 h 1.64649 v 1.64648 z"
         inkscape:connector-curvature="0" />
      <path
         id="path18384"
         d="m 932.88177,311.45532 h -1.64648 v -6.20508 q -0.90234,0.84375 -2.12695,1.24805 v -1.49414 q 0.64453,-0.21094 1.40039,-0.79687 0.75586,-0.5918 1.03711,-1.37696 h 1.33593 z"
         inkscape:connector-curvature="0" />
      <path
         id="path18386"
         d="m 935.69427,311.45532 v -1.64648 h 1.64649 v 1.64648 z"
         inkscape:connector-curvature="0" />
      <path
         id="path18388"
         d="m 938.6181,309.17603 1.59375,-0.19336 q 0.0762,0.60937 0.41016,0.93164 0.33398,0.32226 0.80859,0.32226 0.50977,0 0.85547,-0.38672 0.35156,-0.38672 0.35156,-1.04297 0,-0.62109 -0.33398,-0.98437 -0.33398,-0.36328 -0.81445,-0.36328 -0.31641,0 -0.75586,0.12305 l 0.18164,-1.3418 q 0.66797,0.0176 1.01953,-0.28711 0.35156,-0.31055 0.35156,-0.82031 0,-0.4336 -0.25781,-0.69141 -0.25781,-0.25781 -0.68555,-0.25781 -0.42187,0 -0.7207,0.29297 -0.29883,0.29297 -0.36328,0.85547 l -1.51758,-0.25782 q 0.1582,-0.77929 0.47461,-1.24218 0.32226,-0.46875 0.89062,-0.73243 0.57422,-0.26953 1.28321,-0.26953 1.21289,0 1.94531,0.77344 0.60352,0.63281 0.60352,1.42969 0,1.13086 -1.23633,1.80468 0.73828,0.15821 1.17773,0.70899 0.44531,0.55078 0.44531,1.33008 0,1.13086 -0.82617,1.92773 -0.82617,0.79688 -2.05664,0.79688 -1.16601,0 -1.93359,-0.66797 -0.76758,-0.67383 -0.89063,-1.75781 z"
         inkscape:connector-curvature="0" />
    </g>
  </g>
  <g
     id="g1090"
     class="link-box">
    <path
       d="m 735.62494,310.86334 h 40.2 v 30.2 h -40.2 z"
       class="cls-12"
       style="fill:#ffffff;stroke:#7d7d7d;stroke-width:0.40000001px;stroke-miterlimit:10"
       id="rect112"
       inkscape:connector-curvature="0" />
    <g
       class="cls-13"
       style="font-weight:700;font-size:12px;font-family:Arial-BoldMT, Arial;isolation:isolate;fill:#7d7d7d"
       id="text124"
       aria-label="Sk2.1.">
      <path
         id="path18363"
         d="m 738.9964,319.75842 1.6875,-0.16406 q 0.15234,0.84961 0.61523,1.24805 0.46875,0.39843 1.25977,0.39843 0.83789,0 1.25976,-0.35156 0.42774,-0.35742 0.42774,-0.83203 0,-0.30469 -0.18164,-0.51562 -0.17578,-0.2168 -0.6211,-0.375 -0.30468,-0.10547 -1.38867,-0.375 -1.39453,-0.34571 -1.95703,-0.84961 -0.79101,-0.70899 -0.79101,-1.72852 0,-0.65625 0.36914,-1.22461 0.375,-0.57422 1.07226,-0.87305 0.70313,-0.29882 1.69336,-0.29882 1.61719,0 2.43164,0.70898 0.82031,0.70899 0.86133,1.89258 l -1.73437,0.0762 q -0.11133,-0.66211 -0.48047,-0.94922 -0.36328,-0.29297 -1.09571,-0.29297 -0.75586,0 -1.18359,0.31055 -0.27539,0.19922 -0.27539,0.5332 0,0.30469 0.25781,0.52149 0.32813,0.27539 1.59375,0.57422 1.26563,0.29882 1.86914,0.62109 0.60938,0.31641 0.94922,0.87305 0.3457,0.55078 0.3457,1.36523 0,0.73828 -0.41015,1.38281 -0.41016,0.64454 -1.16016,0.96094 -0.75,0.31055 -1.86914,0.31055 -1.62891,0 -2.50195,-0.75 -0.87305,-0.75586 -1.04297,-2.19727 z"
         inkscape:connector-curvature="0" />
      <path
         id="path18365"
         d="m 747.36945,322.55334 v -8.58984 h 1.64648 v 4.55859 l 1.92773,-2.1914 h 2.02735 l -2.12695,2.27344 2.27929,3.94921 h -1.77539 l -1.56445,-2.79492 -0.76758,0.80274 v 1.99218 z"
         inkscape:connector-curvature="0" />
      <path
         id="path18367"
         d="m 759.31085,321.02405 v 1.52929 h -5.77148 q 0.0937,-0.86718 0.5625,-1.64062 0.46875,-0.7793 1.85156,-2.0625 1.11328,-1.03711 1.36523,-1.40625 0.33985,-0.50977 0.33985,-1.00781 0,-0.55078 -0.29883,-0.84375 -0.29297,-0.29883 -0.81445,-0.29883 -0.51563,0 -0.82032,0.31055 -0.30468,0.31054 -0.35156,1.03125 l -1.64062,-0.16407 q 0.14648,-1.35937 0.91992,-1.95117 0.77344,-0.5918 1.93359,-0.5918 1.27149,0 1.99805,0.68555 0.72656,0.68555 0.72656,1.70508 0,0.58008 -0.21094,1.10742 -0.20507,0.52149 -0.65625,1.0957 -0.29882,0.38086 -1.07812,1.09571 -0.7793,0.71484 -0.99023,0.94922 -0.20508,0.23437 -0.33399,0.45703 z"
         inkscape:connector-curvature="0" />
      <path
         id="path18369"
         d="m 760.7757,322.55334 v -1.64648 h 1.64648 v 1.64648 z"
         inkscape:connector-curvature="0" />
      <path
         id="path18371"
         d="m 767.97101,322.55334 h -1.64649 v -6.20507 q -0.90234,0.84375 -2.12695,1.24804 v -1.49414 q 0.64453,-0.21093 1.40039,-0.79687 0.75586,-0.5918 1.03711,-1.37696 h 1.33594 z"
         inkscape:connector-curvature="0" />
      <path
         id="path18373"
         d="m 770.78351,322.55334 v -1.64648 h 1.64648 v 1.64648 z"
         inkscape:connector-curvature="0" />
    </g>
    <g
       class="cls-13"
       style="font-weight:700;font-size:12px;font-family:Arial-BoldMT, Arial;isolation:isolate;fill:#7d7d7d"
       id="text126"
       aria-label="2.1">
      <path
         id="path18356"
         d="m 744.76788,335.42404 v 1.5293 h -5.77148 q 0.0937,-0.86719 0.5625,-1.64063 0.46875,-0.77929 1.85156,-2.0625 1.11328,-1.03711 1.36524,-1.40625 0.33984,-0.50976 0.33984,-1.00781 0,-0.55078 -0.29883,-0.84375 -0.29297,-0.29883 -0.81445,-0.29883 -0.51563,0 -0.82031,0.31055 -0.30469,0.31055 -0.35157,1.03125 l -1.64062,-0.16406 q 0.14648,-1.35938 0.91992,-1.95117 0.77344,-0.5918 1.93359,-0.5918 1.27149,0 1.99805,0.68555 0.72656,0.68554 0.72656,1.70507 0,0.58008 -0.21093,1.10743 -0.20508,0.52148 -0.65625,1.0957 -0.29883,0.38086 -1.07813,1.0957 -0.7793,0.71485 -0.99023,0.94922 -0.20508,0.23438 -0.33399,0.45703 z"
         inkscape:connector-curvature="0" />
      <path
         id="path18358"
         d="m 746.23273,336.95334 v -1.64649 h 1.64648 v 1.64649 z"
         inkscape:connector-curvature="0" />
      <path
         id="path18360"
         d="m 753.42804,336.95334 h -1.64648 v -6.20508 q -0.90235,0.84375 -2.12696,1.24805 v -1.49414 q 0.64453,-0.21094 1.40039,-0.79688 0.75586,-0.5918 1.03711,-1.37695 h 1.33594 z"
         inkscape:connector-curvature="0" />
    </g>
  </g>
  <g
     id="g1056"
     class="link-box">
    <path
       d="m 236.92496,270.36334 h 368.20001 v 30.2 H 236.92496 Z"
       class="cls-12"
       style="fill:#ffffff;stroke:#7d7d7d;stroke-width:0.40000001px;stroke-miterlimit:10"
       id="rect108"
       inkscape:connector-curvature="0" />
    <g
       class="cls-13"
       style="font-weight:700;font-size:12px;font-family:Arial-BoldMT, Arial;isolation:isolate;fill:#7d7d7d"
       id="text128"
       aria-label="Sk3">
      <path
         id="path18349"
         d="m 410.81503,286.96042 1.6875,-0.16406 q 0.15235,0.84961 0.61524,1.24804 0.46875,0.39844 1.25976,0.39844 0.83789,0 1.25977,-0.35156 0.42773,-0.35742 0.42773,-0.83203 0,-0.30469 -0.18164,-0.51563 -0.17578,-0.2168 -0.62109,-0.375 -0.30469,-0.10547 -1.38867,-0.375 -1.39453,-0.3457 -1.95703,-0.84961 -0.79102,-0.70898 -0.79102,-1.72851 0,-0.65625 0.36914,-1.22461 0.375,-0.57422 1.07227,-0.87305 0.70312,-0.29883 1.69336,-0.29883 1.61718,0 2.43164,0.70899 0.82031,0.70898 0.86132,1.89257 l -1.73437,0.0762 q -0.11133,-0.66211 -0.48047,-0.94922 -0.36328,-0.29297 -1.0957,-0.29297 -0.75586,0 -1.1836,0.31055 -0.27539,0.19921 -0.27539,0.5332 0,0.30469 0.25782,0.52148 0.32812,0.27539 1.59375,0.57422 1.26562,0.29883 1.86914,0.6211 0.60937,0.3164 0.94921,0.87304 0.34571,0.55078 0.34571,1.36524 0,0.73828 -0.41016,1.38281 -0.41015,0.64453 -1.16015,0.96094 -0.75,0.31054 -1.86915,0.31054 -1.6289,0 -2.50195,-0.75 -0.87305,-0.75586 -1.04297,-2.19726 z"
         inkscape:connector-curvature="0" />
      <path
         id="path18351"
         d="m 419.18808,289.75534 v -8.58984 h 1.64648 v 4.55859 l 1.92774,-2.19141 h 2.02734 l -2.12695,2.27344 2.2793,3.94922 h -1.77539 l -1.56446,-2.79492 -0.76758,0.80273 v 1.99219 z"
         inkscape:connector-curvature="0" />
      <path
         id="path18353"
         d="m 425.51035,287.47604 1.59375,-0.19336 q 0.0762,0.60938 0.41015,0.93164 0.33399,0.32227 0.8086,0.32227 0.50976,0 0.85546,-0.38672 0.35157,-0.38672 0.35157,-1.04297 0,-0.62109 -0.33399,-0.98437 -0.33398,-0.36328 -0.81445,-0.36328 -0.31641,0 -0.75586,0.12304 l 0.18164,-1.34179 q 0.66797,0.0176 1.01953,-0.28711 0.35156,-0.31055 0.35156,-0.82032 0,-0.43359 -0.25781,-0.6914 -0.25781,-0.25781 -0.68555,-0.25781 -0.42187,0 -0.7207,0.29296 -0.29883,0.29297 -0.36328,0.85547 l -1.51758,-0.25781 q 0.15821,-0.7793 0.47461,-1.24219 0.32227,-0.46875 0.89063,-0.73242 0.57422,-0.26953 1.2832,-0.26953 1.21289,0 1.94531,0.77344 0.60352,0.63281 0.60352,1.42969 0,1.13085 -1.23633,1.80468 0.73828,0.15821 1.17773,0.70899 0.44532,0.55078 0.44532,1.33008 0,1.13085 -0.82618,1.92773 -0.82617,0.79687 -2.05664,0.79687 -1.16601,0 -1.93359,-0.66796 -0.76758,-0.67383 -0.89062,-1.75782 z"
         inkscape:connector-curvature="0" />
    </g>
  </g>
  <g
     id="g1067"
     class="link-box">
    <path
       d="m 179.42496,310.86334 h 199 v 30.2 h -199 z"
       class="cls-12"
       style="fill:#ffffff;stroke:#7d7d7d;stroke-width:0.40000001px;stroke-miterlimit:10"
       id="rect110"
       inkscape:connector-curvature="0" />
    <g
       class="cls-13"
       style="font-weight:700;font-size:12px;font-family:Arial-BoldMT, Arial;isolation:isolate;fill:#7d7d7d"
       id="text130"
       aria-label="Sk3.1.2">
      <path
         id="path18334"
         d="m 258.75113,327.46042 1.6875,-0.16406 q 0.15234,0.84961 0.61523,1.24804 0.46875,0.39844 1.25977,0.39844 0.83789,0 1.25976,-0.35156 0.42774,-0.35742 0.42774,-0.83203 0,-0.30469 -0.18164,-0.51563 -0.17578,-0.2168 -0.6211,-0.375 -0.30468,-0.10547 -1.38867,-0.375 -1.39453,-0.3457 -1.95703,-0.84961 -0.79101,-0.70898 -0.79101,-1.72851 0,-0.65625 0.36914,-1.22461 0.375,-0.57422 1.07226,-0.87305 0.70313,-0.29883 1.69336,-0.29883 1.61719,0 2.43164,0.70899 0.82031,0.70898 0.86133,1.89257 l -1.73437,0.0762 q -0.11133,-0.66211 -0.48047,-0.94922 -0.36328,-0.29297 -1.09571,-0.29297 -0.75586,0 -1.18359,0.31055 -0.27539,0.19921 -0.27539,0.5332 0,0.30469 0.25781,0.52148 0.32813,0.27539 1.59375,0.57422 1.26563,0.29883 1.86914,0.6211 0.60938,0.3164 0.94922,0.87304 0.3457,0.55078 0.3457,1.36524 0,0.73828 -0.41015,1.38281 -0.41016,0.64453 -1.16016,0.96094 -0.75,0.31054 -1.86914,0.31054 -1.62891,0 -2.50195,-0.75 -0.87305,-0.75586 -1.04297,-2.19726 z"
         inkscape:connector-curvature="0" />
      <path
         id="path18336"
         d="m 267.12418,330.25534 v -8.58984 h 1.64648 v 4.55859 l 1.92773,-2.19141 h 2.02735 l -2.12695,2.27344 2.27929,3.94922 h -1.77539 l -1.56445,-2.79492 -0.76758,0.80273 v 1.99219 z"
         inkscape:connector-curvature="0" />
      <path
         id="path18338"
         d="m 273.44644,327.97604 1.59375,-0.19336 q 0.0762,0.60938 0.41016,0.93164 0.33398,0.32227 0.80859,0.32227 0.50977,0 0.85547,-0.38672 0.35156,-0.38672 0.35156,-1.04297 0,-0.62109 -0.33398,-0.98437 -0.33399,-0.36328 -0.81445,-0.36328 -0.31641,0 -0.75586,0.12304 l 0.18164,-1.34179 q 0.66797,0.0176 1.01953,-0.28711 0.35156,-0.31055 0.35156,-0.82032 0,-0.43359 -0.25781,-0.6914 -0.25781,-0.25781 -0.68555,-0.25781 -0.42187,0 -0.7207,0.29296 -0.29883,0.29297 -0.36328,0.85547 l -1.51758,-0.25781 q 0.1582,-0.7793 0.47461,-1.24219 0.32226,-0.46875 0.89062,-0.73242 0.57422,-0.26953 1.28321,-0.26953 1.21289,0 1.94531,0.77344 0.60351,0.63281 0.60351,1.42969 0,1.13085 -1.23632,1.80468 0.73828,0.15821 1.17773,0.70899 0.44531,0.55078 0.44531,1.33008 0,1.13085 -0.82617,1.92773 -0.82617,0.79687 -2.05664,0.79687 -1.16602,0 -1.93359,-0.66796 -0.76758,-0.67383 -0.89063,-1.75782 z"
         inkscape:connector-curvature="0" />
      <path
         id="path18340"
         d="m 280.53043,330.25534 v -1.64648 h 1.64648 v 1.64648 z"
         inkscape:connector-curvature="0" />
      <path
         id="path18342"
         d="m 287.72574,330.25534 h -1.64649 v -6.20508 q -0.90234,0.84375 -2.12695,1.24805 v -1.49414 q 0.64453,-0.21094 1.40039,-0.79688 0.75586,-0.59179 1.03711,-1.37695 h 1.33594 z"
         inkscape:connector-curvature="0" />
      <path
         id="path18344"
         d="m 290.53824,330.25534 v -1.64648 h 1.64648 v 1.64648 z"
         inkscape:connector-curvature="0" />
      <path
         id="path18346"
         d="m 299.08121,328.72604 v 1.5293 h -5.77149 q 0.0937,-0.86719 0.5625,-1.64062 0.46875,-0.7793 1.85157,-2.0625 1.11328,-1.03711 1.36523,-1.40625 0.33984,-0.50977 0.33984,-1.00782 0,-0.55078 -0.29882,-0.84375 -0.29297,-0.29883 -0.81446,-0.29883 -0.51562,0 -0.82031,0.31055 -0.30469,0.31055 -0.35156,1.03125 l -1.64063,-0.16406 q 0.14649,-1.35938 0.91992,-1.95117 0.77344,-0.5918 1.9336,-0.5918 1.27148,0 1.99804,0.68555 0.72657,0.68554 0.72657,1.70508 0,0.58007 -0.21094,1.10742 -0.20508,0.52148 -0.65625,1.0957 -0.29883,0.38086 -1.07813,1.0957 -0.77929,0.71485 -0.99023,0.94922 -0.20508,0.23438 -0.33398,0.45703 z"
         inkscape:connector-curvature="0" />
    </g>
  </g>
  <g
     id="g1076"
     class="link-box">
    <path
       d="m 317.6,285.9 -0.1,-46 H 575 v -40.5 h 85 v 70.7 H 475 v 14.8"
       transform="translate(66.624955,70.963337)"
       class="cls-12"
       style="fill:#ffffff;stroke:#7d7d7d;stroke-width:0.40000001px;stroke-miterlimit:10"
       id="polyline114"
       inkscape:connector-curvature="0" />
    <g
       class="cls-13"
       style="font-weight:700;font-size:12px;font-family:Arial-BoldMT, Arial;isolation:isolate;fill:#7d7d7d"
       id="text132"
       aria-label="Sk3.1">
      <path
         id="path18323"
         d="m 540.87866,327.46042 1.6875,-0.16406 q 0.15235,0.84961 0.61524,1.24804 0.46875,0.39844 1.25976,0.39844 0.83789,0 1.25977,-0.35156 0.42773,-0.35742 0.42773,-0.83203 0,-0.30469 -0.18164,-0.51563 -0.17578,-0.2168 -0.62109,-0.375 -0.30469,-0.10547 -1.38867,-0.375 -1.39454,-0.3457 -1.95704,-0.84961 -0.79101,-0.70898 -0.79101,-1.72851 0,-0.65625 0.36914,-1.22461 0.375,-0.57422 1.07227,-0.87305 0.70312,-0.29883 1.69335,-0.29883 1.61719,0 2.43165,0.70899 0.82031,0.70898 0.86132,1.89257 l -1.73437,0.0762 q -0.11133,-0.66211 -0.48047,-0.94922 -0.36328,-0.29297 -1.0957,-0.29297 -0.75586,0 -1.1836,0.31055 -0.27539,0.19921 -0.27539,0.5332 0,0.30469 0.25781,0.52148 0.32813,0.27539 1.59375,0.57422 1.26563,0.29883 1.86915,0.6211 0.60937,0.3164 0.94921,0.87304 0.34571,0.55078 0.34571,1.36524 0,0.73828 -0.41016,1.38281 -0.41016,0.64453 -1.16016,0.96094 -0.75,0.31054 -1.86914,0.31054 -1.6289,0 -2.50195,-0.75 -0.87305,-0.75586 -1.04297,-2.19726 z"
         inkscape:connector-curvature="0" />
      <path
         id="path18325"
         d="m 549.25171,330.25534 v -8.58984 h 1.64648 v 4.55859 l 1.92774,-2.19141 h 2.02734 l -2.12695,2.27344 2.2793,3.94922 h -1.7754 l -1.56445,-2.79492 -0.76758,0.80273 v 1.99219 z"
         inkscape:connector-curvature="0" />
      <path
         id="path18327"
         d="m 555.57397,327.97604 1.59375,-0.19336 q 0.0762,0.60938 0.41016,0.93164 0.33399,0.32227 0.80859,0.32227 0.50977,0 0.85547,-0.38672 0.35157,-0.38672 0.35157,-1.04297 0,-0.62109 -0.33399,-0.98437 -0.33398,-0.36328 -0.81445,-0.36328 -0.31641,0 -0.75586,0.12304 l 0.18164,-1.34179 q 0.66797,0.0176 1.01953,-0.28711 0.35156,-0.31055 0.35156,-0.82032 0,-0.43359 -0.25781,-0.6914 -0.25781,-0.25781 -0.68555,-0.25781 -0.42187,0 -0.7207,0.29296 -0.29883,0.29297 -0.36328,0.85547 l -1.51758,-0.25781 q 0.1582,-0.7793 0.47461,-1.24219 0.32227,-0.46875 0.89063,-0.73242 0.57421,-0.26953 1.2832,-0.26953 1.21289,0 1.94531,0.77344 0.60352,0.63281 0.60352,1.42969 0,1.13085 -1.23633,1.80468 0.73828,0.15821 1.17773,0.70899 0.44532,0.55078 0.44532,1.33008 0,1.13085 -0.82618,1.92773 -0.82617,0.79687 -2.05664,0.79687 -1.16601,0 -1.93359,-0.66796 -0.76758,-0.67383 -0.89063,-1.75782 z"
         inkscape:connector-curvature="0" />
      <path
         id="path18329"
         d="m 562.65796,330.25534 v -1.64648 h 1.64648 v 1.64648 z"
         inkscape:connector-curvature="0" />
      <path
         id="path18331"
         d="m 569.85327,330.25534 h -1.64648 v -6.20508 q -0.90235,0.84375 -2.12696,1.24805 v -1.49414 q 0.64454,-0.21094 1.40039,-0.79688 0.75586,-0.59179 1.03711,-1.37695 h 1.33594 z"
         inkscape:connector-curvature="0" />
    </g>
  </g>
  <g
     id="g1022"
     class="link-box">
    <path
       d="m 170.92496,189.36334 h 251.5 v 30.2 h -251.5 z"
       class="cls-12"
       style="fill:#ffffff;stroke:#7d7d7d;stroke-width:0.40000001px;stroke-miterlimit:10"
       id="rect134"
       inkscape:connector-curvature="0" />
    <g
       class="cls-13"
       style="font-weight:700;font-size:12px;font-family:Arial-BoldMT, Arial;isolation:isolate;fill:#7d7d7d"
       id="text136"
       aria-label="Sk2">
      <path
         id="path18315"
         d="m 286.50894,205.9604 1.6875,-0.16406 q 0.15235,0.84961 0.61524,1.24805 0.46875,0.39844 1.25976,0.39844 0.83789,0 1.25977,-0.35157 0.42773,-0.35742 0.42773,-0.83203 0,-0.30469 -0.18164,-0.51562 -0.17578,-0.2168 -0.62109,-0.375 -0.30469,-0.10547 -1.38867,-0.375 -1.39454,-0.34571 -1.95704,-0.84961 -0.79101,-0.70899 -0.79101,-1.72852 0,-0.65625 0.36914,-1.22461 0.375,-0.57422 1.07226,-0.87304 0.70313,-0.29883 1.69336,-0.29883 1.61719,0 2.43164,0.70898 0.82032,0.70899 0.86133,1.89258 l -1.73437,0.0762 q -0.11133,-0.66211 -0.48047,-0.94922 -0.36328,-0.29297 -1.0957,-0.29297 -0.75586,0 -1.1836,0.31055 -0.27539,0.19922 -0.27539,0.5332 0,0.30469 0.25781,0.52149 0.32813,0.27539 1.59375,0.57422 1.26563,0.29883 1.86914,0.62109 0.60938,0.31641 0.94922,0.87305 0.34571,0.55078 0.34571,1.36523 0,0.73828 -0.41016,1.38281 -0.41016,0.64454 -1.16016,0.96094 -0.75,0.31055 -1.86914,0.31055 -1.6289,0 -2.50195,-0.75 -0.87305,-0.75586 -1.04297,-2.19727 z"
         inkscape:connector-curvature="0" />
      <path
         id="path18317"
         d="m 294.88199,208.75533 v -8.58985 h 1.64648 v 4.5586 l 1.92774,-2.19141 h 2.02734 l -2.12695,2.27344 2.27929,3.94922 h -1.77539 l -1.56445,-2.79493 -0.76758,0.80274 v 1.99219 z"
         inkscape:connector-curvature="0" />
      <path
         id="path18319"
         d="m 306.82339,207.22603 v 1.5293 h -5.77148 q 0.0937,-0.86719 0.5625,-1.64063 0.46875,-0.7793 1.85156,-2.0625 1.11328,-1.03711 1.36524,-1.40625 0.33984,-0.50977 0.33984,-1.00781 0,-0.55078 -0.29883,-0.84375 -0.29297,-0.29883 -0.81445,-0.29883 -0.51563,0 -0.82031,0.31055 -0.30469,0.31054 -0.35157,1.03125 l -1.64062,-0.16407 q 0.14648,-1.35937 0.91992,-1.95117 0.77344,-0.59179 1.9336,-0.59179 1.27148,0 1.99804,0.68554 0.72656,0.68555 0.72656,1.70508 0,0.58008 -0.21093,1.10742 -0.20508,0.52149 -0.65625,1.09571 -0.29883,0.38085 -1.07813,1.0957 -0.77929,0.71484 -0.99023,0.94922 -0.20508,0.23437 -0.33399,0.45703 z"
         inkscape:connector-curvature="0" />
    </g>
  </g>
  <path
     id="line138"
     style="fill:none;stroke:#000000;stroke-width:0.4px"
     class="cls-2"
     d="M 645.12494,251.66333 V 238.34334" />
  <path
     id="line140"
     style="fill:none;stroke:#000000;stroke-width:0.4px"
     class="cls-2"
     d="m 725.42493,238.16333 v 13.5" />
  <g
     aria-label="œ"
     id="text142"
     style="font-size:13.5px;font-family:Maestro, Maestro;isolation:isolate"
     class="cls-1">
    <path
       d="m 628.48294,244.92683 q 0.135,-0.3645 0.405,-0.675 0.2835,-0.3105 0.648,-0.54 0.3645,-0.243 0.783,-0.3645 0.4185,-0.135 0.8505,-0.135 0.432,0 0.756,0.1485 0.324,0.135 0.513,0.378 0.189,0.2295 0.2295,0.5535 0.054,0.3105 -0.081,0.675 -0.135,0.3645 -0.4185,0.675 -0.2835,0.324 -0.648,0.5535 -0.3645,0.243 -0.7965,0.3645 -0.4185,0.135 -0.837,0.135 -0.432,0 -0.756,-0.1485 -0.3105,-0.135 -0.513,-0.378 -0.189,-0.243 -0.2295,-0.567 -0.0405,-0.3105 0.0945,-0.675 z"
       id="path18310" />
  </g>
  <g
     aria-label="b"
     id="text144"
     style="font-size:13.5px;font-family:Maestro, Maestro;isolation:isolate"
     class="cls-1">
    <path
       d="m 624.786,240.49433 v 2.3895 0.864 q 0.189,-0.1755 0.351,-0.2835 0.162,-0.108 0.3105,-0.162 0.1485,-0.0675 0.3105,-0.0945 0.1755,-0.027 0.3915,-0.027 0.2565,0 0.459,0.108 0.2025,0.108 0.351,0.2835 0.1485,0.1755 0.2295,0.3915 0.081,0.216 0.081,0.4185 0.0135,0.216 -0.0405,0.432 -0.054,0.2025 -0.135,0.378 -0.0945,0.2295 -0.297,0.405 -0.2025,0.1755 -0.3645,0.3375 -0.054,0.054 -0.2295,0.189 -0.1755,0.135 -0.405,0.297 -0.216,0.162 -0.459,0.324 -0.243,0.1755 -0.4455,0.3105 -0.2025,0.1485 -0.3375,0.243 -0.1215,0.108 -0.1215,0.108 v -7.9785 h 0.351 z m 1.0935,3.5505 q -0.0675,-0.081 -0.189,-0.135 -0.108,-0.054 -0.243,-0.054 -0.135,0 -0.27,0.081 -0.135,0.081 -0.243,0.2835 -0.135,0.2565 -0.1485,0.648 0,0.378 0,0.6885 v 1.161 q 0,0 0.081,-0.0675 0.081,-0.054 0.189,-0.162 0.1215,-0.0945 0.243,-0.216 0.135,-0.1215 0.243,-0.216 0.189,-0.1755 0.324,-0.378 0.135,-0.2025 0.2025,-0.513 0.081,-0.3105 0.0405,-0.6075 -0.0405,-0.297 -0.2295,-0.513 z"
       id="path18307" />
  </g>
  <path
     id="line146"
     style="fill:none;stroke:#000000;stroke-width:0.4px"
     class="cls-2"
     d="M 632.52496,244.36333 V 231.56334" />
  <g
     aria-label="œ"
     id="text148"
     style="font-size:13.5px;font-family:Maestro, Maestro;isolation:isolate"
     class="cls-1">
    <path
       d="m 652.73294,244.92683 q 0.135,-0.3645 0.405,-0.675 0.2835,-0.3105 0.648,-0.54 0.3645,-0.243 0.783,-0.3645 0.4185,-0.135 0.8505,-0.135 0.432,0 0.756,0.1485 0.324,0.135 0.513,0.378 0.189,0.2295 0.2295,0.5535 0.054,0.3105 -0.081,0.675 -0.135,0.3645 -0.4185,0.675 -0.2835,0.324 -0.648,0.5535 -0.3645,0.243 -0.7965,0.3645 -0.4185,0.135 -0.837,0.135 -0.432,0 -0.756,-0.1485 -0.3105,-0.135 -0.513,-0.378 -0.189,-0.243 -0.2295,-0.567 -0.0405,-0.3105 0.0945,-0.675 z"
       id="path18303" />
  </g>
  <path
     id="line150"
     style="fill:none;stroke:#000000;stroke-width:0.4px"
     class="cls-2"
     d="M 656.82495,244.36333 V 231.56334" />
  <path
     id="path152"
     d="m 632.42496,233.62334 h 24.6 v -2.26 h -24.6 z" />
  <g
     aria-label="œ"
     id="text158"
     style="font-size:13.5px;font-family:Maestro, Maestro;isolation:isolate"
     class="cls-1">
    <path
       d="m 664.96298,253.38684 q 0.135,-0.3645 0.405,-0.675 0.2835,-0.3105 0.648,-0.54 0.3645,-0.243 0.783,-0.3645 0.4185,-0.135 0.8505,-0.135 0.432,0 0.756,0.1485 0.324,0.135 0.513,0.378 0.189,0.2295 0.2295,0.5535 0.054,0.3105 -0.081,0.675 -0.135,0.3645 -0.4185,0.675 -0.2835,0.324 -0.648,0.5535 -0.3645,0.243 -0.7965,0.3645 -0.4185,0.135 -0.837,0.135 -0.432,0 -0.756,-0.1485 -0.3105,-0.135 -0.513,-0.378 -0.189,-0.243 -0.2295,-0.567 -0.0405,-0.3105 0.0945,-0.675 z"
       id="path18299" />
  </g>
  <g
     aria-label="n"
     id="text160"
     style="font-size:13.5px;font-family:Maestro, Maestro;isolation:isolate"
     class="cls-1">
    <path
       d="m 661.38894,252.03634 v 2.1195 l 1.539,-0.405 v -2.1195 z m 1.89,-1.809 v 7.7085 h -0.351 v -2.889 l -1.8765,0.486 v -7.803 h 0.3375 v 3.0105 z"
       id="path18296" />
  </g>
  <path
     id="line162"
     style="fill:none;stroke:#000000;stroke-width:0.4px"
     class="cls-2"
     d="m 668.92493,252.26334 v -8.7" />
  <path
     id="line164"
     style="fill:none;stroke:#000000;stroke-width:0.56px"
     class="cls-16"
     d="m 676.12494,255.06334 h 6" />
  <g
     aria-label="œ"
     id="text166"
     style="font-size:13.5px;font-family:Maestro, Maestro;isolation:isolate"
     class="cls-1">
    <path
       d="m 677.06296,256.83683 q 0.135,-0.3645 0.405,-0.675 0.2835,-0.3105 0.648,-0.54 0.3645,-0.243 0.783,-0.3645 0.4185,-0.135 0.8505,-0.135 0.432,0 0.756,0.1485 0.324,0.135 0.513,0.378 0.189,0.2295 0.2295,0.5535 0.054,0.3105 -0.081,0.675 -0.135,0.3645 -0.4185,0.675 -0.2835,0.324 -0.648,0.5535 -0.3645,0.243 -0.7965,0.3645 -0.4185,0.135 -0.837,0.135 -0.432,0 -0.756,-0.1485 -0.3105,-0.135 -0.513,-0.378 -0.189,-0.243 -0.2295,-0.567 -0.0405,-0.3105 0.0945,-0.675 z"
       id="path18291" />
  </g>
  <g
     aria-label="n"
     id="text168"
     style="font-size:13.5px;font-family:Maestro, Maestro;isolation:isolate"
     class="cls-1">
    <path
       d="m 673.47897,255.40635 v 2.1195 l 1.539,-0.405 v -2.1195 z m 1.89,-1.809 v 7.7085 h -0.351 v -2.889 l -1.8765,0.486 v -7.803 h 0.3375 v 3.0105 z"
       id="path18288" />
  </g>
  <path
     id="line170"
     style="fill:none;stroke:#000000;stroke-width:0.4px"
     class="cls-2"
     d="m 681.02496,255.66333 v -11.2" />
  <path
     style="fill:#000000;fill-opacity:1"
     id="path172"
     d="m 668.72496,242.76334 12.5,0.8 v 1.7 l -12.5,-0.8 z" />
  <g
     aria-label="‰"
     id="text174"
     style="font-size:13.5px;font-family:Maestro, Maestro;isolation:isolate"
     class="cls-1">
    <path
       d="m 690.01698,242.03783 q 0.3645,-0.0945 0.6075,0.0405 0.243,0.135 0.3645,0.378 0.135,0.243 0.162,0.54 0.027,0.2835 -0.0405,0.486 0.216,-0.027 0.3915,-0.081 0.1755,-0.054 0.3645,-0.243 0.1755,-0.1755 0.2835,-0.324 0.1215,-0.1485 0.2835,-0.3375 l 0.189,0.108 -1.4985,5.6565 h -0.54 q 0.135,-0.4455 0.2835,-0.8775 0.1215,-0.351 0.243,-0.7425 0.1215,-0.378 0.216,-0.6075 0.216,-0.594 0.351,-1.0665 0.1485,-0.459 0.2295,-0.783 0.0945,-0.378 0.1485,-0.6615 -0.1215,0.0945 -0.3375,0.243 -0.2025,0.135 -0.4455,0.27 -0.243,0.135 -0.4995,0.243 -0.2565,0.0945 -0.4995,0.108 -0.5265,0.027 -0.8505,-0.2835 -0.3105,-0.3105 -0.3645,-0.7155 -0.054,-0.4185 0.1755,-0.81 0.2295,-0.405 0.783,-0.54 z"
       id="path18284" />
  </g>
  <g
     aria-label="œ"
     id="text176"
     style="font-size:13.5px;font-family:Maestro, Maestro;isolation:isolate"
     class="cls-1">
    <path
       d="m 701.11294,248.31683 q 0.135,-0.3645 0.405,-0.675 0.2835,-0.3105 0.648,-0.54 0.3645,-0.243 0.783,-0.3645 0.4185,-0.135 0.8505,-0.135 0.432,0 0.756,0.1485 0.324,0.135 0.513,0.378 0.189,0.2295 0.2295,0.5535 0.054,0.3105 -0.081,0.675 -0.135,0.3645 -0.4185,0.675 -0.2835,0.324 -0.648,0.5535 -0.3645,0.243 -0.7965,0.3645 -0.4185,0.135 -0.837,0.135 -0.432,0 -0.756,-0.1485 -0.3105,-0.135 -0.513,-0.378 -0.189,-0.243 -0.2295,-0.567 -0.0405,-0.3105 0.0945,-0.675 z"
       id="path18281" />
  </g>
  <g
     aria-label="#"
     id="text178"
     style="font-size:13.5px;font-family:Maestro, Maestro;isolation:isolate"
     class="cls-1">
    <path
       d="m 697.61696,247.42634 v 2.0115 l 1.323,-0.432 v -2.0115 z m -0.3915,-1.269 v -2.2005 h 0.3915 v 2.0655 l 1.323,-0.432 v -1.971 h 0.3915 v 1.8495 l 0.5265,-0.1755 v 1.404 l -0.5265,0.1755 v 1.998 l 0.5265,-0.162 v 1.3905 l -0.5265,0.1755 v 2.2005 h -0.3915 v -2.079 l -1.323,0.432 v 1.998 h -0.3915 v -1.863 l -0.5805,0.189 v -1.404 l 0.5805,-0.189 v -2.0115 l -0.5805,0.189 v -1.3905 z"
       id="path18278" />
  </g>
  <path
     id="line180"
     style="fill:none;stroke:#000000;stroke-width:0.4px"
     class="cls-2"
     d="M 705.12494,248.26334 V 234.46333" />
  <g
     aria-label="œ"
     id="text182"
     style="font-size:13.5px;font-family:Maestro, Maestro;isolation:isolate"
     class="cls-1">
    <path
       d="m 713.20297,243.03683 q 0.135,-0.3645 0.405,-0.675 0.2835,-0.3105 0.648,-0.54 0.3645,-0.243 0.783,-0.3645 0.4185,-0.135 0.8505,-0.135 0.432,0 0.756,0.1485 0.324,0.135 0.513,0.378 0.189,0.2295 0.2295,0.5535 0.054,0.3105 -0.081,0.675 -0.135,0.3645 -0.4185,0.675 -0.2835,0.324 -0.648,0.5535 -0.3645,0.243 -0.7965,0.3645 -0.4185,0.135 -0.837,0.135 -0.432,0 -0.756,-0.1485 -0.3105,-0.135 -0.513,-0.378 -0.189,-0.243 -0.2295,-0.567 -0.0405,-0.3105 0.0945,-0.675 z"
       id="path18274" />
  </g>
  <g
     aria-label="n"
     id="text184"
     style="font-size:13.5px;font-family:Maestro, Maestro;isolation:isolate"
     class="cls-1">
    <path
       d="m 709.61898,242.18633 v 2.1195 l 1.539,-0.405 v -2.1195 z m 1.89,-1.809 v 7.7085 h -0.351 v -2.889 l -1.8765,0.486 v -7.803 h 0.3375 v 3.0105 z"
       id="path18271" />
  </g>
  <path
     id="line186"
     style="fill:none;stroke:#000000;stroke-width:0.4px"
     class="cls-2"
     d="M 717.22491,242.76334 V 232.36333" />
  <path
     id="path188"
     d="m 704.92496,233.46334 12.5,-1.7 v 1.7 l -12.5,1.7 z" />
  <g
     id="g1105"
     class="tkk">
    <path
       class="cls-2"
       d="m 627.32496,229.66334 c -6.7,8.3 -6.7,25 0,33.3"
       id="path156"
       style="fill:none;stroke:#000000;stroke-width:0.40000001px"
       inkscape:connector-curvature="0" />
    <path
       class="cls-2"
       d="m 723.02496,228.66334 c 9.8,8.3 9.8,25 0,33.3"
       id="path190"
       style="fill:none;stroke:#000000;stroke-width:0.40000001px"
       inkscape:connector-curvature="0" />
  </g>
  <path
     id="path192"
     d="m 629.87496,247.66334 c 7.2,4.4 18,4.32 25.25,-0.08 v 0 c -7.1,3.6 -18.15,3.58 -25.25,0 z" />
  <g
     aria-label="3"
     id="text198"
     style="font-style:italic;font-size:6.75px;font-family:Arial-ItalicMT, Arial;isolation:isolate;fill:#7d7d7d"
     class="cls-6 supplied measureN">
    <path
       d="m 645.27411,139.82411 0.58008,-0.0725 q 0.0659,0.50757 0.29004,0.7284 0.22741,0.21753 0.59326,0.21753 0.44165,0 0.76135,-0.31641 0.323,-0.31641 0.323,-0.7251 0,-0.35596 -0.2406,-0.58667 -0.2406,-0.23401 -0.646,-0.23401 -0.0461,0 -0.19116,0.0132 l 0.10217,-0.49768 q 0.0857,0.0132 0.1648,0.0132 0.51086,0 0.78442,-0.24719 0.27686,-0.25049 0.27686,-0.61304 0,-0.33289 -0.22742,-0.5603 -0.22412,-0.22742 -0.55042,-0.22742 -0.3197,0 -0.57678,0.23401 -0.25378,0.23071 -0.32629,0.65588 l -0.58667,-0.11865 q 0.14502,-0.59656 0.55701,-0.92285 0.41198,-0.3263 0.97558,-0.3263 0.59326,0 0.95911,0.35926 0.36914,0.35925 0.36914,0.8833 0,0.38232 -0.20105,0.66907 -0.19776,0.28344 -0.59656,0.47131 0.28345,0.16809 0.42188,0.40539 0.14172,0.23731 0.14172,0.54383 0,0.64929 -0.48779,1.1272 -0.4845,0.4746 -1.16016,0.4746 -0.65588,0 -1.06128,-0.36584 -0.4021,-0.36914 -0.44824,-0.98218 z"
       id="path18267"
       inkscape:connector-curvature="0" />
  </g>
  <g
     id="g2149"
     transform="translate(-175.27504,-10.136663)"
     class="supplied clef">
    <path
       class="cls-17"
       d="m 784.2,246.4 h -1.4 v 19.1 h 1.4"
       id="path2143"
       style="letter-spacing:0em;fill:none;stroke:#7d7d7d;stroke-width:0.40000001px;stroke-opacity:1"
       inkscape:connector-curvature="0" />
    <path
       class="cls-17"
       d="m 790.4,246.4 h 1.4 v 19.1 h -1.4"
       id="path2145"
       style="letter-spacing:0em;fill:none;stroke:#7d7d7d;stroke-width:0.40000001px;stroke-opacity:1"
       inkscape:connector-curvature="0" />
    <g
       aria-label="&amp;"
       transform="translate(783.52,258.34)"
       id="text2147"
       style="font-style:italic;font-size:10.13000011px;font-family:Maestro, Maestro;letter-spacing:-0.04em;isolation:isolate;fill:#7d7d7d"
       class="cls-10">
      <path
         d="M 4.7205801,2.55276 Q 4.4369401,2.60341 4.11278,2.61354 3.79875,2.62367 3.49485,2.59328 3.19095,2.57302 2.92757,2.52237 2.67432,2.48185 2.51224,2.40081 1.73223,2.026 1.24599,1.60054 0.76988001,1.18521 0.50650001,0.72936001 0.24312,0.27351 0.13169,-0.2026 0.03039,-0.68884001 0,-1.17508 -0.04052,-1.70184 0.09117,-2.2286 0.23299,-2.75536 0.46598001,-3.23147 0.70910001,-3.71771 1.013,-4.12291 q 0.31403,-0.4052001 0.62806,-0.7091001 0.36468,-0.34442 0.75975,-0.67871 0.4052,-0.34442 0.88131,-0.69897 -0.01013,-0.13169 -0.03039,-0.23299 -0.01013,-0.1013 -0.03039,-0.2026 -0.02026,-0.11143 -0.05065,-0.24312 -0.02026,-0.13169 -0.03039,-0.32416 0,-0.08104 -0.02026,-0.29377 -0.02026,-0.22286 -0.03039,-0.52676 0,-0.31403 0.02026,-0.7091 0.02026,-0.39507 0.1013,-0.82053 0.05065,-0.25325 0.21273,-0.6381899 0.17221,-0.39507 0.39507,-0.75975 0.23299,-0.36468 0.48624,-0.62806 0.2532501,-0.26338 0.4761101,-0.26338 0.11143,0 0.24312,0.14182 0.13169,0.13169 0.25325,0.36468 0.13169,0.22286 0.25325,0.51663 0.12156,0.28364 0.21273,0.58754 0.09117,0.3038999 0.14182,0.5976699 0.06078,0.29377 0.07091,0.51663 0.01013,0.52676 -0.04052,0.93196 -0.05065,0.39507 -0.15195,0.71923 -0.1013,0.31403 -0.24312,0.58754 -0.13169,0.26338 -0.28364,0.53689 -0.16208,0.27351 -0.33429,0.48624 -0.16208,0.2026 -0.33429,0.41533 -0.1823401,0.22286 -0.3849401,0.37481 -0.19247,0.14182 -0.38494,0.31403 0.09117,0.5166301 0.16208,0.9319601 0.03039,0.18234 0.06078,0.35455 0.03039,0.17221 0.05065,0.32416 0.02026,0.14182 0.04052,0.24312 0.02026,0.09117 0.02026,0.11143 0.24312,-0.03039 0.4963701,0 0.26338,0.02026 0.49637,0.07091 0.24312,0.05065 0.42546,0.13169 0.19247,0.08104 0.3039,0.15195 0.54702,0.4052 0.76988,0.93196 0.23299,0.51662999 0.27351,1.06364999 0.03039,0.42546001 -0.07091,0.85092001 -0.1013,0.43559001 -0.34442,0.82053 -0.23299,0.39507 -0.61793,0.71923 -0.37481,0.32416 -0.89144,0.53689 0.06078,0.41533 0.11143,0.76988 0.05065,0.3039 0.09117,0.58754 0.04052,0.29377 0.06078,0.4052 0.09117,0.6078001 0.07091,0.9927401 -0.02026,0.39507 -0.15195,0.63819 -0.11143,0.2026 -0.26338,0.39507 -0.14182,0.19247 -0.34442,0.34442 -0.2026001,0.15195 -0.4761101,0.25325 -0.26338,0.1013 -0.6078,0.12156 -0.26338,0.02026 -0.62806,-0.05065 -0.36468,-0.06078 -0.69897,-0.23299 -0.33429,-0.16208 -0.57741,-0.44572 -0.24312,-0.28364 -0.27351,-0.69897 -0.02026,-0.24312 0.03039,-0.49637 0.05065,-0.24312 0.17221,-0.44572 Q 1.6208,4.4268101 1.8234,4.29512 2.03613,4.16343 2.34003,4.14317 2.52237,4.13304 2.70471,4.19382 q 0.19247,0.07091 0.35455,0.19247 0.16208,0.1215601 0.26338,0.3039001 0.1013,0.18234 0.12156,0.39507 0.03039,0.37481 -0.23299,0.71923 -0.26338,0.35455 -0.89144,0.52676 0.1013,0.14182 0.38494,0.26338 0.28364,0.13169 0.7091,0.13169 0.44572,0 0.85092,-0.26338 0.4153301,-0.26338 0.6381901,-0.65845 0.14182,-0.26338 0.14182,-0.68884 0,-0.41533 -0.05065,-0.8407901 -0.02026,-0.07091 -0.06078,-0.35455 -0.04052,-0.27351 -0.09117,-0.57741 -0.05065,-0.35455 -0.12156,-0.79014 z m 0.21273,-12.83471 q -0.39507,0 -0.6989701,0.3748099 -0.29377,0.36468 -0.48624,0.93196 -0.18234,0.56728 -0.24312,1.24599 -0.06078,0.67871 0.03039,1.30677 0.33429,-0.25325 0.69897,-0.6078 0.3646801,-0.36468 0.6584501,-0.76988 0.3039,-0.4052 0.48624,-0.82053 0.19247,-0.41533 0.16208,-0.79014 -0.01013,-0.12156 -0.04052,-0.27351 -0.03039,-0.15195 -0.1013,-0.28364 -0.07091,-0.1316899 -0.18234,-0.2228599 -0.11143,-0.09117 -0.28364,-0.09117 z m -0.02026,12.41938 q 0.43559,-0.15195 0.67871,-0.39507 0.24312,-0.24312 0.35455,-0.52676 0.12156,-0.28363999 0.13169,-0.56727999 Q 6.0982601,0.36468 6.0881301,0.14182 6.0678701,-0.04052 5.9969601,-0.31403 5.9361801,-0.58754001 5.7538401,-0.84079001 5.5715001,-1.09404 5.2372101,-1.25612 4.9029201,-1.42833 4.34577,-1.39794 Z M 4.08239,-1.37768 Q 3.66706,-1.35742 3.39355,-1.20547 3.13017,-1.06365 2.96809,-0.85092001 2.81614,-0.64832001 2.75536,-0.41533 2.70471,-0.18234 2.71484,0 2.72497,0.18234 2.79588,0.37481 2.86679,0.56728001 2.97822,0.72936001 3.09978,0.90157001 3.23147,1.03326 3.37329,1.17508 3.51511,1.24599 3.49485,1.26625 3.47459,1.27638 3.46446,1.29664 3.4442,1.3169 3.42394,1.33716 3.41381,1.35742 3.09978,1.20547 2.85666,0.99274001 2.62367,0.79014001 2.55276,0.69897001 2.44133,0.54702001 2.36029,0.42546 2.27925,0.3039 2.2286,0.16208 2.17795,0.03039 2.13743,-0.13169 2.10704,-0.29377 2.09691,-0.51663001 2.07665,-0.72936001 2.1273,-0.96235001 2.17795,-1.20547 2.28938,-1.44859 2.41094,-1.69171 2.59328,-1.91457 2.78575,-2.14756 3.039,-2.35016 q 0.13169,-0.1013 0.23299,-0.16208 0.11143,-0.06078 0.2026,-0.1013 0.09117,-0.05065 0.18234,-0.07091 0.1013,-0.03039 0.21273,-0.06078 l -0.3039,-1.8335301 q -0.12156,0.07091 -0.39507,0.2836401 -0.27351,0.21273 -0.59767,0.5065 -0.32416,0.29377 -0.64832,0.63819 -0.31403,0.33429 -0.51663,0.64832 -0.36468,0.57741 -0.56727999,1.06365 -0.2026,0.48623999 -0.15195,1.05352 Q 0.72936001,0.25325 1.07378,0.80027001 1.42833,1.35742 1.97535,1.73223 2.52237,2.10704 3.22134,2.24886 3.92031,2.40081 4.6699301,2.21847 4.5078501,1.2156 4.37616,0.42546 4.31538,0.09117 4.26473,-0.23299 4.21408,-0.55715001 4.16343,-0.81040001 4.12291,-1.06365 4.10265,-1.2156 4.08239,-1.37768 4.08239,-1.37768 Z"
         style="font-style:normal;-inkscape-font-specification:'Maestro, Maestro'"
         id="path18264"
         inkscape:connector-curvature="0" />
    </g>
  </g>
  <g
     aria-label="J"
     transform="scale(1,-1)"
     id="text146"
     style="font-size:10.125px;font-family:Maestro, Maestro;isolation:isolate;fill:#f90000;stroke-width:0.75"
     class="cls-1">
    <path
       d="m 671.7805,-249.15966 q -0.0506,0.405 -0.2025,0.86062 -0.15188,0.45563 -0.46575,0.98213 -0.324,0.54675 -0.65813,1.04287 -0.33412,0.50625 -0.62775,0.9315 -0.25312,0.35438 -0.47587,0.79988 -0.21263,0.45562 -0.21263,0.88087 h -0.19237 v -2.69325 h 0.19237 q 0.15188,-0.0203 0.324,-0.0709 0.14175,-0.0405 0.324,-0.1215 0.19238,-0.0709 0.38475,-0.2025 0.13163,-0.0911 0.29363,-0.25313 0.17212,-0.162 0.34425,-0.39487 0.17212,-0.243 0.33412,-0.55688 0.17213,-0.31387 0.30375,-0.69862 0.14175,-0.42525 0.17213,-0.74925 0.0304,-0.324 0.0202,-0.73913 0,-0.22275 -0.0506,-0.46575 -0.0405,-0.25312 -0.11137,-0.486 -0.0709,-0.243 -0.15188,-0.45562 -0.081,-0.22275 -0.17212,-0.38475 l 0.11137,-0.0709 q 0.14175,0.21263 0.25313,0.51638 0.1215,0.29362 0.19237,0.65812 0.081,0.3645 0.10125,0.78975 0.0304,0.42525 -0.0304,0.88088 z"
       id="path18261" />
  </g>
</svg>
