<?xml version="1.0" encoding="UTF-8" standalone="no"?>
<svg
   id="Ebene_1"
   data-name="Ebene 1"
   viewBox="0 0 1152.8622 379.54446"
   version="1.1"
   sodipodi:docname="M317_Sk3_1_3_1_1von1_220718_path.svg"
   inkscape:version="1.2.2 (b0a8486541, 2022-12-01)"
   width="305.02814mm"
   height="100.42113mm"
   xmlns:inkscape="http://www.inkscape.org/namespaces/inkscape"
   xmlns:sodipodi="http://sodipodi.sourceforge.net/DTD/sodipodi-0.dtd"
   xmlns="http://www.w3.org/2000/svg"
   xmlns:svg="http://www.w3.org/2000/svg"
   xmlns:rdf="http://www.w3.org/1999/02/22-rdf-syntax-ns#"
   xmlns:cc="http://creativecommons.org/ns#"
   xmlns:dc="http://purl.org/dc/elements/1.1/">
  <metadata
     id="metadata111">
    <rdf:RDF>
      <cc:Work
         rdf:about="">
        <dc:format>image/svg+xml</dc:format>
        <dc:type
           rdf:resource="http://purl.org/dc/dcmitype/StillImage" />
      </cc:Work>
    </rdf:RDF>
  </metadata>
  <sodipodi:namedview
     pagecolor="#ffffff"
     bordercolor="#666666"
     borderopacity="1"
     objecttolerance="10"
     gridtolerance="10"
     guidetolerance="10"
     inkscape:pageopacity="0"
     inkscape:pageshadow="2"
     inkscape:window-width="2880"
     inkscape:window-height="1514"
     id="namedview109"
     showgrid="false"
     inkscape:zoom="2.243727"
     inkscape:cx="572.26213"
     inkscape:cy="180.05756"
     inkscape:window-x="2869"
     inkscape:window-y="-11"
     inkscape:window-maximized="1"
     inkscape:current-layer="Ebene_1"
     inkscape:document-units="mm"
     units="mm"
     fit-margin-left="25"
     fit-margin-bottom="40"
     fit-margin-right="40"
     fit-margin-top="20"
     inkscape:showpageshadow="2"
     inkscape:pagecheckerboard="0"
     inkscape:deskcolor="#d1d1d1" />
  <defs
     id="defs4">
    <style
       id="style2">.cls-1,.cls-11,.cls-5,.cls-8{fill:none;}.cls-1,.cls-11,.cls-5,.cls-8,.cls-9{stroke:#000;}.cls-1,.cls-8,.cls-9{stroke-width:0.4px;}.cls-10,.cls-2,.cls-4,.cls-6{isolation:isolate;}.cls-2,.cls-3{font-size:6.75px;font-family:Arial-ItalicMT, Arial;font-style:italic;}.cls-3{letter-spacing:0em;}.cls-4{font-size:13.5px;}.cls-10,.cls-4{font-family:Maestro, Maestro;}.cls-5{stroke-width:0.56px;}.cls-6{font-size:12px;font-family:Arial-BoldMT, Arial;font-weight:700;}.cls-7,.cls-9{fill:#fff;}.cls-8,.cls-9{stroke-miterlimit:10;}.cls-10{font-size:10.13px;}.cls-11{stroke-width:0.4px;}</style>
  </defs>
  <path
     id="line8"
     style="fill:none;stroke:#000000;stroke-width:0.4px"
     class="cls-1"
     d="M 151.18111,197.66333 H 1001.6812" />
  <path
     id="line10"
     style="fill:none;stroke:#000000;stroke-width:0.4px"
     class="cls-1"
     d="M 151.18111,201.06334 H 1001.6812" />
  <path
     id="line12"
     style="fill:none;stroke:#000000;stroke-width:0.4px"
     class="cls-1"
     d="M 151.18111,204.46333 H 1001.6812" />
  <path
     id="line14"
     style="fill:none;stroke:#000000;stroke-width:0.4px"
     class="cls-1"
     d="M 151.18111,207.76334 H 1001.6812" />
  <path
     id="line16"
     style="fill:none;stroke:#000000;stroke-width:0.4px"
     class="cls-1"
     d="M 151.18111,211.16333 H 1001.6812" />
  <g
     aria-label="A Bl. 38v"
     id="text18"
     style="font-style:italic;font-size:6.75px;font-family:Arial-ItalicMT, Arial;isolation:isolate;fill:#7d7d7d"
     class="cls-2">
    <path
       d="m 97.635773,140.01857 h -1.914917 l -0.580078,1.06787 h -1.021729 l 2.7323,-4.83179 h 1.104126 l 0.784424,4.83179 h -0.942627 z m -0.121949,-0.8042 -0.280151,-1.94458 -1.166748,1.94458 z"
       style="font-weight:bold;-inkscape-font-specification:'Arial-ItalicMT, Arial, Bold Italic'"
       id="path24030" />
    <path
       d="m 101.23819,141.08644 1.01184,-4.83179 h 1.49634 q 0.40869,0 0.60644,0.033 0.323,0.056 0.54383,0.19776 0.22412,0.13842 0.34607,0.38232 0.12194,0.2406 0.12194,0.53394 0,0.3988 -0.22082,0.70202 -0.21753,0.30323 -0.66907,0.46143 0.39221,0.12854 0.58667,0.38891 0.19446,0.25708 0.19446,0.60315 0,0.39881 -0.23071,0.76465 -0.22742,0.36585 -0.60645,0.5669 -0.37573,0.19775 -0.84045,0.19775 z m 1.22607,-2.76855 h 0.97889 q 0.70202,0 1.00854,-0.22412 0.30982,-0.22413 0.30982,-0.65259 0,-0.20435 -0.0956,-0.35266 -0.0956,-0.14832 -0.25708,-0.21424 -0.1582,-0.0692 -0.59985,-0.0692 h -1.02832 z m -0.46472,2.22143 h 1.10083 q 0.43836,0 0.58997,-0.0297 0.30652,-0.0527 0.49768,-0.17798 0.19116,-0.12854 0.29993,-0.33618 0.10876,-0.20764 0.10876,-0.43506 0,-0.33948 -0.21423,-0.51416 -0.21094,-0.17798 -0.8075,-0.17798 h -1.22607 z"
       id="path24032" />
    <path
       d="m 105.62503,141.08644 1.00855,-4.83179 h 0.59655 l -1.00854,4.83179 z"
       id="path24034" />
    <path
       d="m 107.3356,141.08644 0.14173,-0.67566 h 0.67565 l -0.14501,0.67566 z"
       id="path24036" />
    <path
       d="m 111.06656,139.82082 0.58008,-0.0725 q 0.0659,0.50756 0.29004,0.72839 0.22741,0.21753 0.59326,0.21753 0.44165,0 0.76135,-0.31641 0.323,-0.3164 0.323,-0.72509 0,-0.35596 -0.2406,-0.58667 -0.2406,-0.23401 -0.646,-0.23401 -0.0461,0 -0.19116,0.0132 l 0.10217,-0.49768 q 0.0857,0.0132 0.1648,0.0132 0.51086,0 0.78442,-0.24719 0.27686,-0.25049 0.27686,-0.61304 0,-0.33288 -0.22742,-0.5603 -0.22412,-0.22742 -0.55042,-0.22742 -0.3197,0 -0.57678,0.23401 -0.25378,0.23072 -0.32629,0.65589 l -0.58667,-0.11866 q 0.14502,-0.59655 0.55701,-0.92285 0.41198,-0.32629 0.97558,-0.32629 0.59326,0 0.95911,0.35925 0.36914,0.35925 0.36914,0.8833 0,0.38233 -0.20105,0.66907 -0.19776,0.28345 -0.59656,0.47131 0.28345,0.16809 0.42188,0.4054 0.14172,0.2373 0.14172,0.54382 0,0.64929 -0.48779,1.1272 -0.4845,0.47461 -1.16016,0.47461 -0.65588,0 -1.06128,-0.36585 -0.4021,-0.36914 -0.44824,-0.98217 z"
       id="path24038" />
    <path
       d="m 115.97415,138.42995 q -0.27026,-0.14832 -0.40539,-0.37903 -0.13514,-0.23401 -0.13514,-0.50098 0,-0.43835 0.31641,-0.81079 0.42188,-0.50427 1.14368,-0.50427 0.63611,0 1.00195,0.34277 0.36585,0.33948 0.36585,0.83386 0,0.35267 -0.19776,0.63611 -0.19775,0.28345 -0.61963,0.45154 0.29004,0.18128 0.41529,0.38562 0.16149,0.26697 0.16149,0.62293 0,0.64929 -0.46142,1.15686 -0.45813,0.50756 -1.22278,0.50756 -0.60974,0 -0.99536,-0.37573 -0.38562,-0.37573 -0.38562,-0.93933 0,-0.53064 0.27356,-0.90967 0.27356,-0.38232 0.74487,-0.51745 z m 0.0461,-0.85364 q 0,0.30981 0.19776,0.50098 0.20105,0.18786 0.55041,0.18786 0.40869,0 0.66248,-0.24719 0.25708,-0.25049 0.25708,-0.61304 0,-0.30652 -0.20105,-0.49768 -0.19775,-0.19446 -0.54712,-0.19446 -0.26367,0 -0.4845,0.12195 -0.22082,0.12195 -0.32959,0.33289 -0.10547,0.20764 -0.10547,0.40869 z m -0.46472,2.3302 q 0,0.20105 0.0956,0.38562 0.0989,0.18457 0.29663,0.29333 0.19776,0.10877 0.45154,0.10877 0.4845,0 0.78443,-0.45483 0.2373,-0.35596 0.2373,-0.76795 0,-0.33618 -0.22082,-0.55041 -0.21753,-0.21424 -0.57349,-0.21424 -0.44824,0 -0.76135,0.33289 -0.30982,0.33288 -0.30982,0.86682 z"
       id="path24040" />
    <path
       d="m 118.9253,138.38644 -0.37277,-2.27516 h 0.37705 l 0.19496,1.25327 q 0.0321,0.20566 0.0793,0.67055 0.1114,-0.24209 0.28493,-0.55487 l 0.76053,-1.36895 h 0.40919 l -1.30254,2.27516 z"
       style="font-size:65%;baseline-shift:super"
       id="path24042" />
  </g>
  <g
     aria-label="6"
     id="text22"
     style="font-style:italic;font-size:6.75px;font-family:Arial-ItalicMT, Arial;isolation:isolate;fill:#7d7d7d"
     class="cls-2">
    <path
       d="m 95.282501,205.00182 q 0.250489,-0.20765 0.497681,-0.30982 0.250488,-0.10547 0.494385,-0.10547 0.550415,0 0.909668,0.37574 0.359253,0.37573 0.359253,1.01184 0,0.82067 -0.533936,1.40734 -0.461426,0.50428 -1.120605,0.50428 -0.599854,0 -1.001954,-0.43836 -0.398803,-0.44165 -0.398803,-1.25573 0,-0.7284 0.25708,-1.50623 0.197754,-0.59656 0.487793,-0.98218 0.293335,-0.38891 0.619629,-0.57019 0.329589,-0.18127 0.741577,-0.18127 0.494385,0 0.807495,0.30981 0.31311,0.30652 0.355957,0.88001 l -0.553711,0.0527 q -0.04614,-0.39221 -0.224121,-0.56689 -0.174683,-0.17469 -0.428467,-0.17469 -0.266968,0 -0.537231,0.20765 -0.270264,0.20764 -0.464722,0.61633 -0.194458,0.40539 -0.266968,0.7251 z m -0.207641,1.4436 q 0,0.40869 0.253784,0.68884 0.253784,0.27686 0.573486,0.27686 0.224121,0 0.47461,-0.16809 0.250488,-0.17139 0.42517,-0.51746 0.174683,-0.34607 0.174683,-0.68884 0,-0.44165 -0.243896,-0.70532 -0.240601,-0.26697 -0.583374,-0.26697 -0.395508,0 -0.734986,0.38891 -0.339477,0.38562 -0.339477,0.99207 z"
       id="path24027" />
  </g>
  <g
     aria-label="œ"
     id="text24"
     style="font-size:13.5px;font-family:Maestro, Maestro;isolation:isolate"
     class="cls-4">
    <path
       d="m 717.33914,207.81683 q 0.135,-0.3645 0.405,-0.675 0.2835,-0.3105 0.648,-0.54 0.3645,-0.243 0.783,-0.3645 0.4185,-0.135 0.8505,-0.135 0.432,0 0.756,0.1485 0.324,0.135 0.513,0.378 0.189,0.2295 0.2295,0.5535 0.054,0.3105 -0.081,0.675 -0.135,0.3645 -0.4185,0.675 -0.2835,0.324 -0.648,0.5535 -0.3645,0.243 -0.7965,0.3645 -0.4185,0.135 -0.837,0.135 -0.432,0 -0.756,-0.1485 -0.3105,-0.135 -0.513,-0.378 -0.189,-0.243 -0.2295,-0.567 -0.0405,-0.3105 0.0945,-0.675 z"
       id="path24024" />
  </g>
  <g
     aria-label="n"
     id="text26"
     style="font-size:13.5px;font-family:Maestro, Maestro;isolation:isolate"
     class="cls-4">
    <path
       d="m 713.7651,206.96633 v 2.1195 l 1.539,-0.405 v -2.1195 z m 1.89,-1.809 v 7.7085 h -0.351 v -2.889 l -1.8765,0.486 v -7.803 h 0.3375 v 3.0105 z"
       id="path24021" />
  </g>
  <g
     aria-label="œ"
     id="text28"
     style="font-size:13.5px;font-family:Maestro, Maestro;isolation:isolate"
     class="cls-4">
    <path
       d="m 730.27914,211.19683 q 0.135,-0.3645 0.405,-0.675 0.2835,-0.3105 0.648,-0.54 0.3645,-0.243 0.783,-0.3645 0.4185,-0.135 0.8505,-0.135 0.432,0 0.756,0.1485 0.324,0.135 0.513,0.378 0.189,0.2295 0.2295,0.5535 0.054,0.3105 -0.081,0.675 -0.135,0.3645 -0.4185,0.675 -0.2835,0.324 -0.648,0.5535 -0.3645,0.243 -0.7965,0.3645 -0.4185,0.135 -0.837,0.135 -0.432,0 -0.756,-0.1485 -0.3105,-0.135 -0.513,-0.378 -0.189,-0.243 -0.2295,-0.567 -0.0405,-0.3105 0.0945,-0.675 z"
       id="path24018" />
  </g>
  <g
     aria-label="n"
     id="text30"
     style="font-size:13.5px;font-family:Maestro, Maestro;isolation:isolate"
     class="cls-4">
    <path
       d="m 726.69509,210.34633 v 2.1195 l 1.539,-0.405 v -2.1195 z m 1.89,-1.809 v 7.7085 h -0.351 v -2.889 l -1.8765,0.486 v -7.803 h 0.3375 v 3.0105 z"
       id="path24015" />
  </g>
  <g
     aria-label="œ"
     id="text32"
     style="font-size:13.5px;font-family:Maestro, Maestro;isolation:isolate"
     class="cls-4">
    <path
       d="m 747.2991,211.19683 q 0.135,-0.3645 0.405,-0.675 0.2835,-0.3105 0.648,-0.54 0.3645,-0.243 0.783,-0.3645 0.4185,-0.135 0.8505,-0.135 0.432,0 0.756,0.1485 0.324,0.135 0.513,0.378 0.189,0.2295 0.2295,0.5535 0.054,0.3105 -0.081,0.675 -0.135,0.3645 -0.4185,0.675 -0.2835,0.324 -0.648,0.5535 -0.3645,0.243 -0.7965,0.3645 -0.4185,0.135 -0.837,0.135 -0.432,0 -0.756,-0.1485 -0.3105,-0.135 -0.513,-0.378 -0.189,-0.243 -0.2295,-0.567 -0.0405,-0.3105 0.0945,-0.675 z"
       id="path24012" />
  </g>
  <g
     aria-label="b"
     id="text34"
     style="font-size:13.5px;font-family:Maestro, Maestro;isolation:isolate"
     class="cls-4">
    <path
       d="m 743.6021,206.40433 v 2.3895 0.864 q 0.189,-0.1755 0.351,-0.2835 0.162,-0.108 0.3105,-0.162 0.1485,-0.0675 0.3105,-0.0945 0.1755,-0.027 0.3915,-0.027 0.2565,0 0.459,0.108 0.2025,0.108 0.351,0.2835 0.1485,0.1755 0.2295,0.3915 0.081,0.216 0.081,0.4185 0.0135,0.216 -0.0405,0.432 -0.054,0.2025 -0.135,0.378 -0.0945,0.2295 -0.297,0.405 -0.2025,0.1755 -0.3645,0.3375 -0.054,0.054 -0.2295,0.189 -0.1755,0.135 -0.405,0.297 -0.216,0.162 -0.459,0.324 -0.243,0.1755 -0.4455,0.3105 -0.2025,0.1485 -0.3375,0.243 -0.1215,0.108 -0.1215,0.108 v -7.9785 h 0.351 z m 1.0935,3.5505 q -0.0675,-0.081 -0.189,-0.135 -0.108,-0.054 -0.243,-0.054 -0.135,0 -0.27,0.081 -0.135,0.081 -0.243,0.2835 -0.135,0.2565 -0.1485,0.648 0,0.378 0,0.6885 v 1.161 q 0,0 0.081,-0.0675 0.081,-0.054 0.189,-0.162 0.1215,-0.0945 0.243,-0.216 0.135,-0.1215 0.243,-0.216 0.189,-0.1755 0.324,-0.378 0.135,-0.2025 0.2025,-0.513 0.081,-0.3105 0.0405,-0.6075 -0.0405,-0.297 -0.2295,-0.513 z"
       id="path24009" />
  </g>
  <g
     aria-label="œ"
     id="text36"
     style="font-size:13.5px;font-family:Maestro, Maestro;isolation:isolate"
     class="cls-4">
    <path
       d="m 764.1691,209.50683 q 0.135,-0.3645 0.405,-0.675 0.2835,-0.3105 0.648,-0.54 0.3645,-0.243 0.783,-0.3645 0.4185,-0.135 0.8505,-0.135 0.432,0 0.756,0.1485 0.324,0.135 0.513,0.378 0.189,0.2295 0.2295,0.5535 0.054,0.3105 -0.081,0.675 -0.135,0.3645 -0.4185,0.675 -0.2835,0.324 -0.648,0.5535 -0.3645,0.243 -0.7965,0.3645 -0.4185,0.135 -0.837,0.135 -0.432,0 -0.756,-0.1485 -0.3105,-0.135 -0.513,-0.378 -0.189,-0.243 -0.2295,-0.567 -0.0405,-0.3105 0.0945,-0.675 z"
       id="path24006" />
  </g>
  <g
     aria-label="#"
     id="text38"
     style="font-size:13.5px;font-family:Maestro, Maestro;isolation:isolate"
     class="cls-4">
    <path
       d="m 760.67311,208.65633 v 2.0115 l 1.323,-0.432 v -2.0115 z m -0.3915,-1.269 v -2.2005 h 0.3915 v 2.0655 l 1.323,-0.432 v -1.971 h 0.3915 v 1.8495 l 0.5265,-0.1755 v 1.404 l -0.5265,0.1755 v 1.998 l 0.5265,-0.162 v 1.3905 l -0.5265,0.1755 v 2.2005 h -0.3915 v -2.079 l -1.323,0.432 v 1.998 h -0.3915 v -1.863 l -0.5805,0.189 v -1.404 l 0.5805,-0.189 v -2.0115 l -0.5805,0.189 v -1.3905 z"
       id="path24003" />
  </g>
  <path
     id="line40"
     style="fill:none;stroke:#000000;stroke-width:0.56px"
     class="cls-5"
     d="m 780.28113,214.56334 h 6" />
  <g
     aria-label="œ"
     id="text42"
     style="font-size:13.5px;font-family:Maestro, Maestro;isolation:isolate"
     class="cls-4">
    <path
       d="m 781.18912,214.56683 q 0.135,-0.3645 0.405,-0.675 0.2835,-0.3105 0.648,-0.54 0.3645,-0.243 0.783,-0.3645 0.4185,-0.135 0.8505,-0.135 0.432,0 0.756,0.1485 0.324,0.135 0.513,0.378 0.189,0.2295 0.2295,0.5535 0.054,0.3105 -0.081,0.675 -0.135,0.3645 -0.4185,0.675 -0.2835,0.324 -0.648,0.5535 -0.3645,0.243 -0.7965,0.3645 -0.4185,0.135 -0.837,0.135 -0.432,0 -0.756,-0.1485 -0.3105,-0.135 -0.513,-0.378 -0.189,-0.243 -0.2295,-0.567 -0.0405,-0.3105 0.0945,-0.675 z"
       id="path23999" />
  </g>
  <g
     aria-label="#"
     id="text44"
     style="font-size:13.5px;font-family:Maestro, Maestro;isolation:isolate"
     class="cls-4">
    <path
       d="m 777.69313,213.71633 v 2.0115 l 1.323,-0.432 v -2.0115 z m -0.3915,-1.269 v -2.2005 h 0.3915 v 2.0655 l 1.323,-0.432 v -1.971 h 0.3915 v 1.8495 l 0.5265,-0.1755 v 1.404 l -0.5265,0.1755 v 1.998 l 0.5265,-0.162 v 1.3905 l -0.5265,0.1755 v 2.2005 h -0.3915 v -2.079 l -1.323,0.432 v 1.998 h -0.3915 v -1.863 l -0.5805,0.189 v -1.404 l 0.5805,-0.189 v -2.0115 l -0.5805,0.189 v -1.3905 z"
       id="path23996" />
  </g>
  <g
     aria-label="œ"
     id="text46"
     style="font-size:13.5px;font-family:Maestro, Maestro;isolation:isolate"
     class="cls-4">
    <path
       d="m 798.05911,209.50683 q 0.135,-0.3645 0.405,-0.675 0.2835,-0.3105 0.648,-0.54 0.3645,-0.243 0.783,-0.3645 0.4185,-0.135 0.8505,-0.135 0.432,0 0.756,0.1485 0.324,0.135 0.513,0.378 0.189,0.2295 0.2295,0.5535 0.054,0.3105 -0.081,0.675 -0.135,0.3645 -0.4185,0.675 -0.2835,0.324 -0.648,0.5535 -0.3645,0.243 -0.7965,0.3645 -0.4185,0.135 -0.837,0.135 -0.432,0 -0.756,-0.1485 -0.3105,-0.135 -0.513,-0.378 -0.189,-0.243 -0.2295,-0.567 -0.0405,-0.3105 0.0945,-0.675 z"
       id="path23993" />
  </g>
  <g
     aria-label="n"
     id="text48"
     style="font-size:13.5px;font-family:Maestro, Maestro;isolation:isolate"
     class="cls-4">
    <path
       d="m 794.48513,208.65633 v 2.1195 l 1.539,-0.405 v -2.1195 z m 1.89,-1.809 v 7.7085 h -0.351 v -2.889 l -1.8765,0.486 v -7.803 h 0.3375 v 3.0105 z"
       id="path23990" />
  </g>
  <g
     aria-label="œ"
     id="text50"
     style="font-size:13.5px;font-family:Maestro, Maestro;isolation:isolate"
     class="cls-4">
    <path
       d="m 815.07913,212.88684 q 0.135,-0.3645 0.405,-0.675 0.2835,-0.3105 0.648,-0.54 0.3645,-0.243 0.783,-0.3645 0.4185,-0.135 0.8505,-0.135 0.432,0 0.756,0.1485 0.324,0.135 0.513,0.378 0.189,0.2295 0.2295,0.5535 0.054,0.3105 -0.081,0.675 -0.135,0.3645 -0.4185,0.675 -0.2835,0.324 -0.648,0.5535 -0.3645,0.243 -0.7965,0.3645 -0.4185,0.135 -0.837,0.135 -0.432,0 -0.756,-0.1485 -0.3105,-0.135 -0.513,-0.378 -0.189,-0.243 -0.2295,-0.567 -0.0405,-0.3105 0.0945,-0.675 z"
       id="path23987" />
  </g>
  <g
     aria-label="n"
     id="text52"
     style="font-size:13.5px;font-family:Maestro, Maestro;isolation:isolate"
     class="cls-4">
    <path
       d="m 811.49514,212.03634 v 2.1195 l 1.539,-0.405 v -2.1195 z m 1.89,-1.809 v 7.7085 h -0.351 v -2.889 l -1.8765,0.486 v -7.803 h 0.3375 v 3.0105 z"
       id="path23984" />
  </g>
  <path
     id="line54"
     style="fill:none;stroke:#000000;stroke-width:0.56px"
     class="cls-5"
     d="m 830.98114,214.56334 h 6.09998" />
  <g
     aria-label="œ"
     id="text56"
     style="font-size:13.5px;font-family:Maestro, Maestro;isolation:isolate"
     class="cls-4">
    <path
       d="m 831.94913,216.25683 q 0.135,-0.3645 0.405,-0.675 0.2835,-0.3105 0.648,-0.54 0.3645,-0.243 0.783,-0.3645 0.4185,-0.135 0.8505,-0.135 0.432,0 0.756,0.1485 0.324,0.135 0.513,0.378 0.189,0.2295 0.2295,0.5535 0.054,0.3105 -0.081,0.675 -0.135,0.3645 -0.4185,0.675 -0.2835,0.324 -0.648,0.5535 -0.3645,0.243 -0.7965,0.3645 -0.4185,0.135 -0.837,0.135 -0.432,0 -0.756,-0.1485 -0.3105,-0.135 -0.513,-0.378 -0.189,-0.243 -0.2295,-0.567 -0.0405,-0.3105 0.0945,-0.675 z"
       id="path23980" />
  </g>
  <g
     aria-label="n"
     id="text58"
     style="font-size:13.5px;font-family:Maestro, Maestro;isolation:isolate"
     class="cls-4">
    <path
       d="m 828.37509,215.40633 v 2.1195 l 1.539,-0.405 v -2.1195 z m 1.89,-1.809 v 7.7085 h -0.351 v -2.889 l -1.8765,0.486 v -7.803 h 0.3375 v 3.0105 z"
       id="path23977" />
  </g>
  <path
     id="line60"
     style="fill:none;stroke:#000000;stroke-width:0.56px"
     class="cls-5"
     d="m 847.8811,214.56334 h 6" />
  <g
     aria-label="œ"
     id="text62"
     style="font-size:13.5px;font-family:Maestro, Maestro;isolation:isolate"
     class="cls-4">
    <path
       d="m 848.82913,216.25683 q 0.135,-0.3645 0.405,-0.675 0.2835,-0.3105 0.648,-0.54 0.3645,-0.243 0.783,-0.3645 0.4185,-0.135 0.8505,-0.135 0.432,0 0.756,0.1485 0.324,0.135 0.513,0.378 0.189,0.2295 0.2295,0.5535 0.054,0.3105 -0.081,0.675 -0.135,0.3645 -0.4185,0.675 -0.2835,0.324 -0.648,0.5535 -0.3645,0.243 -0.7965,0.3645 -0.4185,0.135 -0.837,0.135 -0.432,0 -0.756,-0.1485 -0.3105,-0.135 -0.513,-0.378 -0.189,-0.243 -0.2295,-0.567 -0.0405,-0.3105 0.0945,-0.675 z"
       id="path23973" />
  </g>
  <g
     aria-label="b"
     id="text64"
     style="font-size:13.5px;font-family:Maestro, Maestro;isolation:isolate"
     class="cls-4">
    <path
       d="m 845.13213,211.46433 v 2.3895 0.864 q 0.189,-0.1755 0.351,-0.2835 0.162,-0.108 0.3105,-0.162 0.1485,-0.0675 0.3105,-0.0945 0.1755,-0.027 0.3915,-0.027 0.2565,0 0.459,0.108 0.2025,0.108 0.351,0.2835 0.1485,0.1755 0.2295,0.3915 0.081,0.216 0.081,0.4185 0.0135,0.216 -0.0405,0.432 -0.054,0.2025 -0.135,0.378 -0.0945,0.2295 -0.297,0.405 -0.2025,0.1755 -0.3645,0.3375 -0.054,0.054 -0.2295,0.189 -0.1755,0.135 -0.405,0.297 -0.216,0.162 -0.459,0.324 -0.243,0.1755 -0.4455,0.3105 -0.2025,0.1485 -0.3375,0.243 -0.1215,0.108 -0.1215,0.108 v -7.9785 h 0.351 z m 1.0935,3.5505 q -0.0675,-0.081 -0.189,-0.135 -0.108,-0.054 -0.243,-0.054 -0.135,0 -0.27,0.081 -0.135,0.081 -0.243,0.2835 -0.135,0.2565 -0.1485,0.648 0,0.378 0,0.6885 v 1.161 q 0,0 0.081,-0.0675 0.081,-0.054 0.189,-0.162 0.1215,-0.0945 0.243,-0.216 0.135,-0.1215 0.243,-0.216 0.189,-0.1755 0.324,-0.378 0.135,-0.2025 0.2025,-0.513 0.081,-0.3105 0.0405,-0.6075 -0.0405,-0.297 -0.2295,-0.513 z"
       id="path23970" />
  </g>
  <path
     id="line66"
     style="fill:none;stroke:#000000;stroke-width:0.56px"
     class="cls-5"
     d="m 864.8811,214.56334 h 6.10004" />
  <g
     aria-label="œ"
     id="text68"
     style="font-size:13.5px;font-family:Maestro, Maestro;isolation:isolate"
     class="cls-4">
    <path
       d="m 865.83914,214.56683 q 0.135,-0.3645 0.405,-0.675 0.2835,-0.3105 0.648,-0.54 0.3645,-0.243 0.783,-0.3645 0.4185,-0.135 0.8505,-0.135 0.432,0 0.756,0.1485 0.324,0.135 0.513,0.378 0.189,0.2295 0.2295,0.5535 0.054,0.3105 -0.081,0.675 -0.135,0.3645 -0.4185,0.675 -0.2835,0.324 -0.648,0.5535 -0.3645,0.243 -0.7965,0.3645 -0.4185,0.135 -0.837,0.135 -0.432,0 -0.756,-0.1485 -0.3105,-0.135 -0.513,-0.378 -0.189,-0.243 -0.2295,-0.567 -0.0405,-0.3105 0.0945,-0.675 z"
       id="path23966" />
  </g>
  <g
     aria-label="n"
     id="text70"
     style="font-size:13.5px;font-family:Maestro, Maestro;isolation:isolate"
     class="cls-4">
    <path
       d="m 862.2651,213.71633 v 2.1195 l 1.539,-0.405 v -2.1195 z m 1.89,-1.809 v 7.7085 h -0.351 v -2.889 l -1.8765,0.486 v -7.803 h 0.3375 v 3.0105 z"
       id="path23963" />
  </g>
  <path
     id="line72"
     style="fill:none;stroke:#000000;stroke-width:0.56px"
     class="cls-5"
     d="m 881.78113,217.96333 h 6" />
  <path
     id="line74"
     style="fill:none;stroke:#000000;stroke-width:0.56px"
     class="cls-5"
     d="m 881.78113,214.56334 h 6" />
  <g
     aria-label="œ"
     id="text76"
     style="font-size:13.5px;font-family:Maestro, Maestro;isolation:isolate"
     class="cls-4">
    <path
       d="m 882.71908,217.94683 q 0.135,-0.3645 0.405,-0.675 0.2835,-0.3105 0.648,-0.54 0.3645,-0.243 0.783,-0.3645 0.4185,-0.135 0.8505,-0.135 0.432,0 0.756,0.1485 0.324,0.135 0.513,0.378 0.189,0.2295 0.2295,0.5535 0.054,0.3105 -0.081,0.675 -0.135,0.3645 -0.4185,0.675 -0.2835,0.324 -0.648,0.5535 -0.3645,0.243 -0.7965,0.3645 -0.4185,0.135 -0.837,0.135 -0.432,0 -0.756,-0.1485 -0.3105,-0.135 -0.513,-0.378 -0.189,-0.243 -0.2295,-0.567 -0.0405,-0.3105 0.0945,-0.675 z"
       id="path23958" />
  </g>
  <g
     aria-label="n"
     id="text78"
     style="font-size:13.5px;font-family:Maestro, Maestro;isolation:isolate"
     class="cls-4">
    <path
       d="m 879.1351,217.09633 v 2.1195 l 1.539,-0.405 v -2.1195 z m 1.89,-1.809 v 7.7085 h -0.351 v -2.889 l -1.8765,0.486 v -7.803 h 0.3375 v 3.0105 z"
       id="path23955" />
  </g>
  <path
     id="line80"
     style="fill:none;stroke:#000000;stroke-width:0.56px"
     class="cls-5"
     d="m 898.78113,217.96333 h 6" />
  <path
     id="line82"
     style="fill:none;stroke:#000000;stroke-width:0.56px"
     class="cls-5"
     d="m 898.78113,214.56334 h 6" />
  <g
     aria-label="œ"
     id="text84"
     style="font-size:13.5px;font-family:Maestro, Maestro;isolation:isolate"
     class="cls-4">
    <path
       d="m 899.72909,219.63684 q 0.135,-0.3645 0.405,-0.675 0.2835,-0.3105 0.648,-0.54 0.3645,-0.243 0.783,-0.3645 0.4185,-0.135 0.8505,-0.135 0.432,0 0.756,0.1485 0.324,0.135 0.513,0.378 0.189,0.2295 0.2295,0.5535 0.054,0.3105 -0.081,0.675 -0.135,0.3645 -0.4185,0.675 -0.2835,0.324 -0.648,0.5535 -0.3645,0.243 -0.7965,0.3645 -0.4185,0.135 -0.837,0.135 -0.432,0 -0.756,-0.1485 -0.3105,-0.135 -0.513,-0.378 -0.189,-0.243 -0.2295,-0.567 -0.0405,-0.3105 0.0945,-0.675 z"
       id="path23950" />
  </g>
  <g
     aria-label="#"
     id="text86"
     style="font-size:13.5px;font-family:Maestro, Maestro;isolation:isolate"
     class="cls-4">
    <path
       d="m 896.23311,218.78634 v 2.0115 l 1.323,-0.432 v -2.0115 z m -0.3915,-1.269 v -2.2005 h 0.3915 v 2.0655 l 1.323,-0.432 v -1.971 h 0.3915 v 1.8495 l 0.5265,-0.1755 v 1.404 l -0.5265,0.1755 v 1.998 l 0.5265,-0.162 v 1.3905 l -0.5265,0.1755 v 2.2005 h -0.3915 v -2.079 l -1.323,0.432 v 1.998 h -0.3915 v -1.863 l -0.5805,0.189 v -1.404 l 0.5805,-0.189 v -2.0115 l -0.5805,0.189 v -1.3905 z"
       id="path23947" />
  </g>
  <g
     aria-label="M 317 Sk3.1.3.1"
     id="text88"
     style="font-weight:700;font-size:12px;font-family:Arial-BoldMT, Arial;isolation:isolate"
     class="cls-6">
    <path
       d="m 94.48819,84.326881 v -8.589843 h 2.595703 l 1.558594,5.859375 1.541013,-5.859375 h 2.60156 v 8.589843 h -1.61132 v -6.761718 l -1.705082,6.761718 h -1.669921 l -1.699219,-6.761718 v 6.761718 z"
       id="path23920" />
    <path
       d="m 107.41983,82.047585 1.59375,-0.19336 q 0.0762,0.609375 0.41016,0.931641 0.33398,0.322265 0.80859,0.322265 0.50977,0 0.85547,-0.386718 0.35156,-0.386719 0.35156,-1.042969 0,-0.621094 -0.33398,-0.984375 -0.33399,-0.363281 -0.81446,-0.363281 -0.3164,0 -0.75586,0.123047 l 0.18165,-1.341797 q 0.66796,0.01758 1.01953,-0.28711 0.35156,-0.310547 0.35156,-0.820312 0,-0.433594 -0.25781,-0.691406 -0.25782,-0.257813 -0.68555,-0.257813 -0.42188,0 -0.7207,0.292969 -0.29883,0.292969 -0.36328,0.855469 l -1.51758,-0.257813 q 0.1582,-0.779297 0.47461,-1.242187 0.32226,-0.46875 0.89062,-0.732422 0.57422,-0.269532 1.2832,-0.269532 1.2129,0 1.94532,0.773438 0.60351,0.632812 0.60351,1.429687 0,1.13086 -1.23633,1.804688 0.73829,0.158203 1.17774,0.708984 0.44531,0.550782 0.44531,1.330078 0,1.13086 -0.82617,1.927735 -0.82617,0.796875 -2.05664,0.796875 -1.16602,0 -1.93359,-0.667969 -0.76758,-0.673828 -0.89063,-1.757812 z"
       id="path23922" />
    <path
       d="m 118.36514,84.326881 h -1.64648 v -6.205078 q -0.90235,0.84375 -2.12695,1.248047 v -1.49414 q 0.64453,-0.210938 1.40039,-0.796875 0.75586,-0.591797 1.03711,-1.376954 h 1.33593 z"
       id="path23924" />
    <path
       d="m 120.82608,77.383522 v -1.529297 h 5.63086 v 1.195313 q -0.69727,0.685547 -1.41797,1.96875 -0.7207,1.283203 -1.10156,2.730468 -0.375,1.441407 -0.36914,2.578125 h -1.58789 q 0.041,-1.78125 0.73242,-3.632812 0.69726,-1.851563 1.85742,-3.310547 z"
       id="path23926" />
    <path
       d="m 130.75772,81.53196 1.6875,-0.164063 q 0.15234,0.849609 0.61524,1.248047 0.46875,0.398437 1.25976,0.398437 0.83789,0 1.25977,-0.351562 0.42773,-0.357422 0.42773,-0.832031 0,-0.304688 -0.18164,-0.515625 -0.17578,-0.216797 -0.62109,-0.375 -0.30469,-0.105469 -1.38868,-0.375 -1.39453,-0.345703 -1.95703,-0.84961 -0.79101,-0.708984 -0.79101,-1.728515 0,-0.65625 0.36914,-1.22461 0.375,-0.574218 1.07226,-0.873047 0.70313,-0.298828 1.69336,-0.298828 1.61719,0 2.43164,0.708985 0.82032,0.708984 0.86133,1.892578 l -1.73437,0.07617 q -0.11133,-0.66211 -0.48047,-0.949219 -0.36328,-0.292969 -1.0957,-0.292969 -0.75586,0 -1.1836,0.310547 -0.27539,0.199219 -0.27539,0.533203 0,0.304688 0.25781,0.521485 0.32813,0.27539 1.59375,0.574218 1.26563,0.298828 1.86914,0.621094 0.60938,0.316406 0.94922,0.873047 0.34571,0.550781 0.34571,1.365234 0,0.738282 -0.41016,1.382813 -0.41016,0.644531 -1.16016,0.960937 -0.75,0.310547 -1.86914,0.310547 -1.6289,0 -2.50195,-0.75 -0.87305,-0.755859 -1.04297,-2.197265 z"
       id="path23928" />
    <path
       d="m 139.13077,84.326881 v -8.589843 h 1.64648 v 4.558593 l 1.92774,-2.191406 h 2.02734 l -2.12695,2.273438 2.27929,3.949218 h -1.77539 l -1.56445,-2.794921 -0.76758,0.802734 v 1.992187 z"
       id="path23930" />
    <path
       d="m 145.45303,82.047585 1.59375,-0.19336 q 0.0762,0.609375 0.41016,0.931641 0.33398,0.322265 0.80859,0.322265 0.50977,0 0.85547,-0.386718 0.35156,-0.386719 0.35156,-1.042969 0,-0.621094 -0.33398,-0.984375 -0.33398,-0.363281 -0.81445,-0.363281 -0.31641,0 -0.75586,0.123047 l 0.18164,-1.341797 q 0.66797,0.01758 1.01953,-0.28711 0.35156,-0.310547 0.35156,-0.820312 0,-0.433594 -0.25781,-0.691406 -0.25781,-0.257813 -0.68555,-0.257813 -0.42187,0 -0.7207,0.292969 -0.29883,0.292969 -0.36328,0.855469 l -1.51758,-0.257813 q 0.1582,-0.779297 0.47461,-1.242187 0.32227,-0.46875 0.89062,-0.732422 0.57422,-0.269532 1.28321,-0.269532 1.21289,0 1.94531,0.773438 0.60352,0.632812 0.60352,1.429687 0,1.13086 -1.23633,1.804688 0.73828,0.158203 1.17773,0.708984 0.44531,0.550782 0.44531,1.330078 0,1.13086 -0.82617,1.927735 -0.82617,0.796875 -2.05664,0.796875 -1.16601,0 -1.93359,-0.667969 -0.76758,-0.673828 -0.89063,-1.757812 z"
       id="path23932" />
    <path
       d="m 152.53702,84.326881 v -1.646484 h 1.64648 v 1.646484 z"
       id="path23934" />
    <path
       d="m 159.73233,84.326881 h -1.64648 v -6.205078 q -0.90235,0.84375 -2.12696,1.248047 v -1.49414 q 0.64453,-0.210938 1.40039,-0.796875 0.75586,-0.591797 1.03711,-1.376954 h 1.33594 z"
       id="path23936" />
    <path
       d="m 162.54483,84.326881 v -1.646484 h 1.64648 v 1.646484 z"
       id="path23938" />
    <path
       d="m 165.46866,82.047585 1.59375,-0.19336 q 0.0762,0.609375 0.41015,0.931641 0.33399,0.322265 0.8086,0.322265 0.50976,0 0.85547,-0.386718 0.35156,-0.386719 0.35156,-1.042969 0,-0.621094 -0.33398,-0.984375 -0.33399,-0.363281 -0.81446,-0.363281 -0.3164,0 -0.75586,0.123047 l 0.18164,-1.341797 q 0.66797,0.01758 1.01953,-0.28711 0.35157,-0.310547 0.35157,-0.820312 0,-0.433594 -0.25782,-0.691406 -0.25781,-0.257813 -0.68554,-0.257813 -0.42188,0 -0.72071,0.292969 -0.29882,0.292969 -0.36328,0.855469 l -1.51757,-0.257813 q 0.1582,-0.779297 0.4746,-1.242187 0.32227,-0.46875 0.89063,-0.732422 0.57422,-0.269532 1.2832,-0.269532 1.21289,0 1.94532,0.773438 0.60351,0.632812 0.60351,1.429687 0,1.13086 -1.23633,1.804688 0.73828,0.158203 1.17774,0.708984 0.44531,0.550782 0.44531,1.330078 0,1.13086 -0.82617,1.927735 -0.82617,0.796875 -2.05664,0.796875 -1.16602,0 -1.9336,-0.667969 -0.76757,-0.673828 -0.89062,-1.757812 z"
       id="path23940" />
    <path
       d="m 172.55264,84.326881 v -1.646484 h 1.64649 v 1.646484 z"
       id="path23942" />
    <path
       d="m 179.74796,84.326881 h -1.64649 v -6.205078 q -0.90234,0.84375 -2.12695,1.248047 v -1.49414 q 0.64453,-0.210938 1.40039,-0.796875 0.75586,-0.591797 1.03711,-1.376954 h 1.33594 z"
       id="path23944" />
  </g>
  <path
     id="polyline90"
     style="fill:#ffffff"
     class="cls-7"
     transform="translate(66.281101,70.963337)"
     d="m 455,113.4 v 44 H 89 v -44" />
  <g
     id="g410"
     class="link-box">
    <g
       id="g934"
       transform="translate(66.281101,70.963337)">
      <path
         id="line92"
         style="fill:none;stroke:#7d7d7d;stroke-width:0.4px;stroke-miterlimit:10"
         class="cls-8"
         d="m 89,113.4 v 43.99999" />
      <path
         id="line94"
         style="fill:none;stroke:#7d7d7d;stroke-width:0.4px;stroke-miterlimit:10"
         class="cls-8"
         d="m 455,113.1 v 44.00001" />
    </g>
    <g
       aria-label="Sk3.1.3"
       id="text96"
       style="font-weight:700;font-size:12px;font-family:Arial-BoldMT, Arial;isolation:isolate;fill:#7d7d7d"
       class="cls-6">
      <path
         d="m 318.06335,206.01041 1.6875,-0.16407 q 0.15235,0.84961 0.61524,1.24805 0.46875,0.39844 1.25976,0.39844 0.8379,0 1.25977,-0.35156 0.42773,-0.35743 0.42773,-0.83204 0,-0.30468 -0.18164,-0.51562 -0.17578,-0.2168 -0.62109,-0.375 -0.30469,-0.10547 -1.38867,-0.375 -1.39453,-0.3457 -1.95703,-0.84961 -0.79102,-0.70898 -0.79102,-1.72852 0,-0.65625 0.36914,-1.2246 0.375,-0.57422 1.07227,-0.87305 0.70312,-0.29883 1.69336,-0.29883 1.61718,0 2.43164,0.70898 0.82031,0.70899 0.86133,1.89258 l -1.73438,0.0762 q -0.11133,-0.6621 -0.48047,-0.94921 -0.36328,-0.29297 -1.0957,-0.29297 -0.75586,0 -1.18359,0.31054 -0.2754,0.19922 -0.2754,0.53321 0,0.30468 0.25782,0.52148 0.32812,0.27539 1.59375,0.57422 1.26562,0.29883 1.86914,0.62109 0.60937,0.31641 0.94922,0.87305 0.3457,0.55078 0.3457,1.36524 0,0.73828 -0.41016,1.38281 -0.41015,0.64453 -1.16015,0.96094 -0.75,0.31054 -1.86914,0.31054 -1.62891,0 -2.50196,-0.75 -0.87304,-0.75586 -1.04297,-2.19726 z"
         id="path23902" />
      <path
         d="m 326.4364,208.80533 v -8.58985 h 1.64649 v 4.5586 l 1.92773,-2.19141 h 2.02734 l -2.12695,2.27344 2.2793,3.94922 h -1.77539 l -1.56446,-2.79492 -0.76757,0.80273 v 1.99219 z"
         id="path23904" />
      <path
         d="m 332.75867,206.52603 1.59375,-0.19336 q 0.0762,0.60938 0.41015,0.93164 0.33399,0.32227 0.8086,0.32227 0.50976,0 0.85547,-0.38672 0.35156,-0.38672 0.35156,-1.04297 0,-0.62109 -0.33399,-0.98437 -0.33398,-0.36329 -0.81445,-0.36329 -0.31641,0 -0.75586,0.12305 l 0.18164,-1.3418 q 0.66797,0.0176 1.01953,-0.2871 0.35157,-0.31055 0.35157,-0.82032 0,-0.43359 -0.25782,-0.6914 -0.25781,-0.25782 -0.68554,-0.25782 -0.42188,0 -0.72071,0.29297 -0.29882,0.29297 -0.36328,0.85547 l -1.51758,-0.25781 q 0.15821,-0.7793 0.47461,-1.24219 0.32227,-0.46875 0.89063,-0.73242 0.57422,-0.26953 1.2832,-0.26953 1.21289,0 1.94531,0.77344 0.60352,0.63281 0.60352,1.42968 0,1.13086 -1.23633,1.80469 0.73828,0.1582 1.17774,0.70899 0.44531,0.55078 0.44531,1.33007 0,1.13086 -0.82617,1.92774 -0.82618,0.79687 -2.05664,0.79687 -1.16602,0 -1.9336,-0.66797 -0.76758,-0.67382 -0.89062,-1.75781 z"
         id="path23906" />
      <path
         d="m 339.84265,208.80533 v -1.64649 h 1.64649 v 1.64649 z"
         id="path23908" />
      <path
         d="m 347.03796,208.80533 h -1.64648 v -6.20508 q -0.90234,0.84375 -2.12695,1.24805 v -1.49414 q 0.64453,-0.21094 1.40039,-0.79688 0.75586,-0.5918 1.03711,-1.37695 h 1.33593 z"
         id="path23910" />
      <path
         d="m 349.85046,208.80533 v -1.64649 h 1.64649 v 1.64649 z"
         id="path23912" />
      <path
         d="m 352.77429,206.52603 1.59375,-0.19336 q 0.0762,0.60938 0.41016,0.93164 0.33398,0.32227 0.80859,0.32227 0.50977,0 0.85547,-0.38672 0.35156,-0.38672 0.35156,-1.04297 0,-0.62109 -0.33398,-0.98437 -0.33399,-0.36329 -0.81445,-0.36329 -0.31641,0 -0.75586,0.12305 l 0.18164,-1.3418 q 0.66797,0.0176 1.01953,-0.2871 0.35156,-0.31055 0.35156,-0.82032 0,-0.43359 -0.25781,-0.6914 -0.25781,-0.25782 -0.68555,-0.25782 -0.42187,0 -0.7207,0.29297 -0.29883,0.29297 -0.36328,0.85547 l -1.51758,-0.25781 q 0.1582,-0.7793 0.47461,-1.24219 0.32226,-0.46875 0.89062,-0.73242 0.57422,-0.26953 1.28321,-0.26953 1.21289,0 1.94531,0.77344 0.60351,0.63281 0.60351,1.42968 0,1.13086 -1.23632,1.80469 0.73828,0.1582 1.17773,0.70899 0.44531,0.55078 0.44531,1.33007 0,1.13086 -0.82617,1.92774 -0.82617,0.79687 -2.05664,0.79687 -1.16601,0 -1.93359,-0.66797 -0.76758,-0.67382 -0.89063,-1.75781 z"
         id="path23914" />
    </g>
  </g>
  <g
     id="g421"
     class="link-box">
    <path
       id="polyline98"
       style="fill:#ffffff;stroke:#7d7d7d;stroke-width:0.4px;stroke-miterlimit:10"
       class="cls-9"
       transform="translate(66.281101,70.963337)"
       d="m 482.5,110.3 v 46.3 H 596 v -46.3" />
    <g
       aria-label="Sk3.1.1"
       id="text100"
       style="font-weight:700;font-size:12px;font-family:Arial-BoldMT, Arial;isolation:isolate;fill:#7d7d7d"
       class="cls-6">
      <path
         d="m 586.03113,206.01041 1.6875,-0.16407 q 0.15234,0.84961 0.61523,1.24805 0.46875,0.39844 1.25977,0.39844 0.83789,0 1.25976,-0.35156 0.42774,-0.35743 0.42774,-0.83204 0,-0.30468 -0.18164,-0.51562 -0.17578,-0.2168 -0.6211,-0.375 -0.30468,-0.10547 -1.38867,-0.375 -1.39453,-0.3457 -1.95703,-0.84961 -0.79102,-0.70898 -0.79102,-1.72852 0,-0.65625 0.36915,-1.2246 0.375,-0.57422 1.07226,-0.87305 0.70313,-0.29883 1.69336,-0.29883 1.61719,0 2.43164,0.70898 0.82031,0.70899 0.86133,1.89258 l -1.73438,0.0762 q -0.11132,-0.6621 -0.48046,-0.94921 -0.36329,-0.29297 -1.09571,-0.29297 -0.75586,0 -1.18359,0.31054 -0.27539,0.19922 -0.27539,0.53321 0,0.30468 0.25781,0.52148 0.32813,0.27539 1.59375,0.57422 1.26563,0.29883 1.86914,0.62109 0.60938,0.31641 0.94922,0.87305 0.3457,0.55078 0.3457,1.36524 0,0.73828 -0.41015,1.38281 -0.41016,0.64453 -1.16016,0.96094 -0.75,0.31054 -1.86914,0.31054 -1.62891,0 -2.50195,-0.75 -0.87305,-0.75586 -1.04297,-2.19726 z"
         id="path23886" />
      <path
         d="m 594.40417,208.80533 v -8.58985 h 1.64649 v 4.5586 l 1.92773,-2.19141 h 2.02735 l -2.12696,2.27344 2.2793,3.94922 h -1.77539 l -1.56445,-2.79492 -0.76758,0.80273 v 1.99219 z"
         id="path23888" />
      <path
         d="m 600.72644,206.52603 1.59375,-0.19336 q 0.0762,0.60938 0.41016,0.93164 0.33398,0.32227 0.80859,0.32227 0.50977,0 0.85547,-0.38672 0.35156,-0.38672 0.35156,-1.04297 0,-0.62109 -0.33398,-0.98437 -0.33399,-0.36329 -0.81446,-0.36329 -0.3164,0 -0.75586,0.12305 l 0.18165,-1.3418 q 0.66796,0.0176 1.01953,-0.2871 0.35156,-0.31055 0.35156,-0.82032 0,-0.43359 -0.25781,-0.6914 -0.25782,-0.25782 -0.68555,-0.25782 -0.42188,0 -0.7207,0.29297 -0.29883,0.29297 -0.36328,0.85547 l -1.51758,-0.25781 q 0.1582,-0.7793 0.47461,-1.24219 0.32226,-0.46875 0.89062,-0.73242 0.57422,-0.26953 1.2832,-0.26953 1.2129,0 1.94532,0.77344 0.60351,0.63281 0.60351,1.42968 0,1.13086 -1.23633,1.80469 0.73829,0.1582 1.17774,0.70899 0.44531,0.55078 0.44531,1.33007 0,1.13086 -0.82617,1.92774 -0.82617,0.79687 -2.05664,0.79687 -1.16602,0 -1.93359,-0.66797 -0.76758,-0.67382 -0.89063,-1.75781 z"
         id="path23890" />
      <path
         d="m 607.81042,208.80533 v -1.64649 h 1.64649 v 1.64649 z"
         id="path23892" />
      <path
         d="m 615.00574,208.80533 h -1.64649 v -6.20508 q -0.90234,0.84375 -2.12695,1.24805 v -1.49414 q 0.64453,-0.21094 1.40039,-0.79688 0.75586,-0.5918 1.03711,-1.37695 h 1.33594 z"
         id="path23894" />
      <path
         d="m 617.81824,208.80533 v -1.64649 h 1.64648 v 1.64649 z"
         id="path23896" />
      <path
         d="m 625.01355,208.80533 h -1.64648 v -6.20508 q -0.90235,0.84375 -2.12696,1.24805 v -1.49414 q 0.64453,-0.21094 1.40039,-0.79688 0.75586,-0.5918 1.03711,-1.37695 h 1.33594 z"
         id="path23898" />
    </g>
  </g>
  <g
     transform="translate(-84.818894,-50.436663)"
     id="g2149">
    <path
       inkscape:connector-curvature="0"
       style="letter-spacing:0em;fill:none;stroke:#7d7d7d;stroke-width:0.40000001px;stroke-opacity:1"
       id="path2143"
       d="m 784.2,246.4 h -1.4 v 19.1 h 1.4"
       class="cls-17" />
    <path
       inkscape:connector-curvature="0"
       style="letter-spacing:0em;fill:none;stroke:#7d7d7d;stroke-width:0.40000001px;stroke-opacity:1"
       id="path2145"
       d="m 790.4,246.4 h 1.4 v 19.1 h -1.4"
       class="cls-17" />
    <g
       aria-label="&amp;"
       transform="translate(783.52,258.34)"
       id="text2147"
       style="font-style:italic;font-size:10.13px;font-family:Maestro, Maestro;isolation:isolate;fill:#7d7d7d"
       class="cls-10">
      <path
         d="M 4.7205801,2.55276 Q 4.4369401,2.60341 4.11278,2.61354 3.79875,2.62367 3.49485,2.59328 3.19095,2.57302 2.92757,2.52237 2.67432,2.48185 2.51224,2.40081 1.73223,2.026 1.24599,1.60054 0.76988001,1.18521 0.50650001,0.72936001 0.24312,0.27351 0.13169,-0.2026 0.03039,-0.68884001 0,-1.17508 -0.04052,-1.70184 0.09117,-2.2286 0.23299,-2.75536 0.46598001,-3.23147 0.70910001,-3.71771 1.013,-4.12291 q 0.31403,-0.4052001 0.62806,-0.7091001 0.36468,-0.34442 0.75975,-0.67871 0.4052,-0.34442 0.88131,-0.69897 -0.01013,-0.13169 -0.03039,-0.23299 -0.01013,-0.1013 -0.03039,-0.2026 -0.02026,-0.11143 -0.05065,-0.24312 -0.02026,-0.13169 -0.03039,-0.32416 0,-0.08104 -0.02026,-0.29377 -0.02026,-0.22286 -0.03039,-0.52676 0,-0.31403 0.02026,-0.7091 0.02026,-0.39507 0.1013,-0.82053 0.05065,-0.25325 0.21273,-0.6381899 0.17221,-0.39507 0.39507,-0.75975 0.23299,-0.36468 0.48624,-0.62806 0.2532501,-0.26338 0.4761101,-0.26338 0.11143,0 0.24312,0.14182 0.13169,0.13169 0.25325,0.36468 0.13169,0.22286 0.25325,0.51663 0.12156,0.28364 0.21273,0.58754 0.09117,0.3038999 0.14182,0.5976699 0.06078,0.29377 0.07091,0.51663 0.01013,0.52676 -0.04052,0.93196 -0.05065,0.39507 -0.15195,0.71923 -0.1013,0.31403 -0.24312,0.58754 -0.13169,0.26338 -0.28364,0.53689 -0.16208,0.27351 -0.33429,0.48624 -0.16208,0.2026 -0.33429,0.41533 -0.1823401,0.22286 -0.3849401,0.37481 -0.19247,0.14182 -0.38494,0.31403 0.09117,0.5166301 0.16208,0.9319601 0.03039,0.18234 0.06078,0.35455 0.03039,0.17221 0.05065,0.32416 0.02026,0.14182 0.04052,0.24312 0.02026,0.09117 0.02026,0.11143 0.24312,-0.03039 0.4963701,0 0.26338,0.02026 0.49637,0.07091 0.24312,0.05065 0.42546,0.13169 0.19247,0.08104 0.3039,0.15195 0.54702,0.4052 0.76988,0.93196 0.23299,0.51662999 0.27351,1.06364999 0.03039,0.42546001 -0.07091,0.85092001 -0.1013,0.43559001 -0.34442,0.82053 -0.23299,0.39507 -0.61793,0.71923 -0.37481,0.32416 -0.89144,0.53689 0.06078,0.41533 0.11143,0.76988 0.05065,0.3039 0.09117,0.58754 0.04052,0.29377 0.06078,0.4052 0.09117,0.6078001 0.07091,0.9927401 -0.02026,0.39507 -0.15195,0.63819 -0.11143,0.2026 -0.26338,0.39507 -0.14182,0.19247 -0.34442,0.34442 -0.2026001,0.15195 -0.4761101,0.25325 -0.26338,0.1013 -0.6078,0.12156 -0.26338,0.02026 -0.62806,-0.05065 -0.36468,-0.06078 -0.69897,-0.23299 -0.33429,-0.16208 -0.57741,-0.44572 -0.24312,-0.28364 -0.27351,-0.69897 -0.02026,-0.24312 0.03039,-0.49637 0.05065,-0.24312 0.17221,-0.44572 Q 1.6208,4.4268101 1.8234,4.29512 2.03613,4.16343 2.34003,4.14317 2.52237,4.13304 2.70471,4.19382 q 0.19247,0.07091 0.35455,0.19247 0.16208,0.1215601 0.26338,0.3039001 0.1013,0.18234 0.12156,0.39507 0.03039,0.37481 -0.23299,0.71923 -0.26338,0.35455 -0.89144,0.52676 0.1013,0.14182 0.38494,0.26338 0.28364,0.13169 0.7091,0.13169 0.44572,0 0.85092,-0.26338 0.4153301,-0.26338 0.6381901,-0.65845 0.14182,-0.26338 0.14182,-0.68884 0,-0.41533 -0.05065,-0.8407901 -0.02026,-0.07091 -0.06078,-0.35455 -0.04052,-0.27351 -0.09117,-0.57741 -0.05065,-0.35455 -0.12156,-0.79014 z m 0.21273,-12.83471 q -0.39507,0 -0.6989701,0.3748099 -0.29377,0.36468 -0.48624,0.93196 -0.18234,0.56728 -0.24312,1.24599 -0.06078,0.67871 0.03039,1.30677 0.33429,-0.25325 0.69897,-0.6078 0.3646801,-0.36468 0.6584501,-0.76988 0.3039,-0.4052 0.48624,-0.82053 0.19247,-0.41533 0.16208,-0.79014 -0.01013,-0.12156 -0.04052,-0.27351 -0.03039,-0.15195 -0.1013,-0.28364 -0.07091,-0.1316899 -0.18234,-0.2228599 -0.11143,-0.09117 -0.28364,-0.09117 z m -0.02026,12.41938 q 0.43559,-0.15195 0.67871,-0.39507 0.24312,-0.24312 0.35455,-0.52676 0.12156,-0.28363999 0.13169,-0.56727999 Q 6.0982601,0.36468 6.0881301,0.14182 6.0678701,-0.04052 5.9969601,-0.31403 5.9361801,-0.58754001 5.7538401,-0.84079001 5.5715001,-1.09404 5.2372101,-1.25612 4.9029201,-1.42833 4.34577,-1.39794 Z M 4.08239,-1.37768 Q 3.66706,-1.35742 3.39355,-1.20547 3.13017,-1.06365 2.96809,-0.85092001 2.81614,-0.64832001 2.75536,-0.41533 2.70471,-0.18234 2.71484,0 2.72497,0.18234 2.79588,0.37481 2.86679,0.56728001 2.97822,0.72936001 3.09978,0.90157001 3.23147,1.03326 3.37329,1.17508 3.51511,1.24599 3.49485,1.26625 3.47459,1.27638 3.46446,1.29664 3.4442,1.3169 3.42394,1.33716 3.41381,1.35742 3.09978,1.20547 2.85666,0.99274001 2.62367,0.79014001 2.55276,0.69897001 2.44133,0.54702001 2.36029,0.42546 2.27925,0.3039 2.2286,0.16208 2.17795,0.03039 2.13743,-0.13169 2.10704,-0.29377 2.09691,-0.51663001 2.07665,-0.72936001 2.1273,-0.96235001 2.17795,-1.20547 2.28938,-1.44859 2.41094,-1.69171 2.59328,-1.91457 2.78575,-2.14756 3.039,-2.35016 q 0.13169,-0.1013 0.23299,-0.16208 0.11143,-0.06078 0.2026,-0.1013 0.09117,-0.05065 0.18234,-0.07091 0.1013,-0.03039 0.21273,-0.06078 l -0.3039,-1.8335301 q -0.12156,0.07091 -0.39507,0.2836401 -0.27351,0.21273 -0.59767,0.5065 -0.32416,0.29377 -0.64832,0.63819 -0.31403,0.33429 -0.51663,0.64832 -0.36468,0.57741 -0.56727999,1.06365 -0.2026,0.48623999 -0.15195,1.05352 Q 0.72936001,0.25325 1.07378,0.80027001 1.42833,1.35742 1.97535,1.73223 2.52237,2.10704 3.22134,2.24886 3.92031,2.40081 4.6699301,2.21847 4.5078501,1.2156 4.37616,0.42546 4.31538,0.09117 4.26473,-0.23299 4.21408,-0.55715001 4.16343,-0.81040001 4.12291,-1.06365 4.10265,-1.2156 4.08239,-1.37768 4.08239,-1.37768 Z"
         style="font-style:normal;-inkscape-font-specification:'Maestro, Maestro'"
         id="path23883" />
    </g>
  </g>
</svg>
