<?xml version="1.0" encoding="utf-8"?>
<!-- Generator: Adobe Illustrator 22.1.0, SVG Export Plug-In . SVG Version: 6.00 Build 0)  -->
<svg version="1.1" id="Ebene_1" xmlns="http://www.w3.org/2000/svg" xmlns:xlink="http://www.w3.org/1999/xlink" x="0px" y="0px"
	 viewBox="0 0 1021 595" style="enable-background:new 0 0 1021 595;" xml:space="preserve">
<style type="text/css">
	.st0{fill:none;stroke:#000000;stroke-width:0.4;}
	.st1{enable-background:new    ;}
	.st2{fill:none;stroke:#000000;stroke-width:0.56;}
	.st3{fill:#FFFFFF;}
	.st4{fill:none;stroke:#000000;stroke-width:0.4;stroke-miterlimit:10;}
	.st5{fill:#FFFFFF;stroke:#000000;stroke-width:0.4;stroke-miterlimit:10;}
</style>
<line class="st0" x1="84.9" y1="126.7" x2="935.4" y2="126.7"/>
<line class="st0" x1="84.9" y1="130.1" x2="935.4" y2="130.1"/>
<line class="st0" x1="84.9" y1="133.5" x2="935.4" y2="133.5"/>
<line class="st0" x1="84.9" y1="136.8" x2="935.4" y2="136.8"/>
<line class="st0" x1="84.9" y1="140.2" x2="935.4" y2="140.2"/>
<g class="st1">
	<path d="M51.3,78.9l1-4.8h1.5c0.3,0,0.5,0,0.6,0c0.2,0,0.4,0.1,0.5,0.2c0.1,0.1,0.3,0.2,0.3,0.4c0.1,0.2,0.1,0.3,0.1,0.5
		c0,0.3-0.1,0.5-0.2,0.7s-0.4,0.4-0.7,0.5c0.3,0.1,0.5,0.2,0.6,0.4c0.1,0.2,0.2,0.4,0.2,0.6c0,0.3-0.1,0.5-0.2,0.8s-0.4,0.4-0.6,0.6
		s-0.5,0.2-0.8,0.2H51.3z M52.1,78.3h1.1c0.3,0,0.5,0,0.6,0c0.2,0,0.4-0.1,0.5-0.2c0.1-0.1,0.2-0.2,0.3-0.3c0.1-0.1,0.1-0.3,0.1-0.4
		c0-0.2-0.1-0.4-0.2-0.5c-0.1-0.1-0.4-0.2-0.8-0.2h-1.2L52.1,78.3z M52.5,76.1h1c0.5,0,0.8-0.1,1-0.2c0.2-0.1,0.3-0.4,0.3-0.7
		c0-0.1,0-0.3-0.1-0.4c-0.1-0.1-0.1-0.2-0.3-0.2c-0.1,0-0.3-0.1-0.6-0.1h-1L52.5,76.1z"/>
	<path d="M55.7,78.9l1-4.8h0.6l-1,4.8H55.7z"/>
	<path d="M57.4,78.9l0.1-0.7h0.7l-0.1,0.7H57.4z"/>
	<path d="M61.1,77.6l0.6-0.1c0,0.3,0.1,0.6,0.3,0.7c0.2,0.1,0.3,0.2,0.6,0.2c0.3,0,0.5-0.1,0.8-0.3c0.2-0.2,0.3-0.5,0.3-0.7
		c0-0.2-0.1-0.4-0.2-0.6c-0.2-0.2-0.4-0.2-0.6-0.2c0,0-0.1,0-0.2,0l0.1-0.5c0.1,0,0.1,0,0.2,0c0.3,0,0.6-0.1,0.8-0.2
		s0.3-0.4,0.3-0.6c0-0.2-0.1-0.4-0.2-0.6c-0.2-0.2-0.3-0.2-0.6-0.2c-0.2,0-0.4,0.1-0.6,0.2c-0.2,0.2-0.3,0.4-0.3,0.7l-0.6-0.1
		c0.1-0.4,0.3-0.7,0.6-0.9c0.3-0.2,0.6-0.3,1-0.3c0.4,0,0.7,0.1,1,0.4s0.4,0.5,0.4,0.9c0,0.3-0.1,0.5-0.2,0.7
		c-0.1,0.2-0.3,0.3-0.6,0.5c0.2,0.1,0.3,0.2,0.4,0.4c0.1,0.2,0.1,0.3,0.1,0.5c0,0.4-0.2,0.8-0.5,1.1S63.1,79,62.7,79
		c-0.4,0-0.8-0.1-1.1-0.4C61.3,78.4,61.2,78,61.1,77.6z"/>
	<path d="M66,76.2c-0.2-0.1-0.3-0.2-0.4-0.4c-0.1-0.2-0.1-0.3-0.1-0.5c0-0.3,0.1-0.6,0.3-0.8c0.3-0.3,0.7-0.5,1.1-0.5
		c0.4,0,0.8,0.1,1,0.3c0.2,0.2,0.4,0.5,0.4,0.8c0,0.2-0.1,0.4-0.2,0.6c-0.1,0.2-0.3,0.3-0.6,0.5c0.2,0.1,0.3,0.2,0.4,0.4
		c0.1,0.2,0.2,0.4,0.2,0.6c0,0.4-0.2,0.8-0.5,1.2c-0.3,0.3-0.7,0.5-1.2,0.5c-0.4,0-0.7-0.1-1-0.4C65.2,78.3,65,78,65,77.7
		c0-0.4,0.1-0.7,0.3-0.9C65.5,76.5,65.7,76.3,66,76.2z M65.6,77.7c0,0.1,0,0.3,0.1,0.4c0.1,0.1,0.2,0.2,0.3,0.3s0.3,0.1,0.5,0.1
		c0.3,0,0.6-0.2,0.8-0.5c0.2-0.2,0.2-0.5,0.2-0.8c0-0.2-0.1-0.4-0.2-0.5c-0.1-0.1-0.3-0.2-0.6-0.2c-0.3,0-0.6,0.1-0.8,0.3
		S65.6,77.4,65.6,77.7z M66.1,75.4c0,0.2,0.1,0.4,0.2,0.5c0.1,0.1,0.3,0.2,0.5,0.2c0.3,0,0.5-0.1,0.7-0.2c0.2-0.2,0.3-0.4,0.3-0.6
		c0-0.2-0.1-0.4-0.2-0.5c-0.1-0.1-0.3-0.2-0.5-0.2c-0.2,0-0.3,0-0.5,0.1c-0.1,0.1-0.3,0.2-0.3,0.3C66.1,75.1,66.1,75.2,66.1,75.4z"
		/>
</g>
<g class="st1">
	<path d="M68.9,76.7l-0.3-2h0.3l0.2,1.1c0,0.1,0,0.3,0.1,0.6c0.1-0.1,0.2-0.3,0.3-0.5l0.7-1.2h0.4l-1.2,2H68.9z"/>
</g>
<g class="st1">
	<path d="M52.4,134c0.2-0.1,0.3-0.2,0.5-0.3c0.2-0.1,0.3-0.1,0.5-0.1c0.4,0,0.7,0.1,0.9,0.4c0.2,0.2,0.4,0.6,0.4,1
		c0,0.5-0.2,1-0.5,1.4c-0.3,0.3-0.7,0.5-1.1,0.5c-0.4,0-0.7-0.1-1-0.4c-0.3-0.3-0.4-0.7-0.4-1.3c0-0.5,0.1-1,0.3-1.5
		c0.1-0.4,0.3-0.7,0.5-1c0.2-0.3,0.4-0.4,0.6-0.6c0.2-0.1,0.5-0.2,0.7-0.2c0.3,0,0.6,0.1,0.8,0.3c0.2,0.2,0.3,0.5,0.4,0.9l-0.6,0.1
		c0-0.3-0.1-0.5-0.2-0.6c-0.1-0.1-0.3-0.2-0.4-0.2c-0.2,0-0.4,0.1-0.5,0.2c-0.2,0.1-0.3,0.3-0.5,0.6C52.5,133.6,52.4,133.8,52.4,134
		z M52.2,135.5c0,0.3,0.1,0.5,0.3,0.7c0.2,0.2,0.4,0.3,0.6,0.3c0.1,0,0.3-0.1,0.5-0.2c0.2-0.1,0.3-0.3,0.4-0.5
		c0.1-0.2,0.2-0.5,0.2-0.7c0-0.3-0.1-0.5-0.2-0.7c-0.2-0.2-0.4-0.3-0.6-0.3c-0.3,0-0.5,0.1-0.7,0.4
		C52.3,134.7,52.2,135.1,52.2,135.5z"/>
</g>
<g class="st1">
	<path d="M651.1,136.9c0.1-0.2,0.2-0.5,0.4-0.7s0.4-0.4,0.6-0.5c0.2-0.2,0.5-0.3,0.8-0.4c0.3-0.1,0.6-0.1,0.9-0.1s0.5,0,0.8,0.1
		c0.2,0.1,0.4,0.2,0.5,0.4c0.1,0.2,0.2,0.3,0.2,0.6c0,0.2,0,0.4-0.1,0.7s-0.2,0.5-0.4,0.7c-0.2,0.2-0.4,0.4-0.6,0.6
		s-0.5,0.3-0.8,0.4c-0.3,0.1-0.6,0.1-0.8,0.1c-0.3,0-0.5,0-0.7-0.1c-0.2-0.1-0.4-0.2-0.5-0.4c-0.1-0.2-0.2-0.3-0.2-0.6
		C650.9,137.3,651,137.1,651.1,136.9z"/>
</g>
<g class="st1">
	<path d="M649.4,134.2v7.7H649V139l-1.9,0.5v-7.8h0.3v3L649.4,134.2z M647.5,136v2.1l1.5-0.4v-2.1L647.5,136z"/>
</g>
<g class="st1">
	<path d="M664,140.2c0.1-0.2,0.2-0.5,0.4-0.7s0.4-0.4,0.6-0.5s0.5-0.3,0.8-0.4c0.3-0.1,0.6-0.1,0.9-0.1s0.5,0,0.8,0.1
		c0.2,0.1,0.4,0.2,0.5,0.4c0.1,0.2,0.2,0.3,0.2,0.6c0,0.2,0,0.4-0.1,0.7s-0.2,0.5-0.4,0.7c-0.2,0.2-0.4,0.4-0.6,0.6
		s-0.5,0.3-0.8,0.4c-0.3,0.1-0.6,0.1-0.8,0.1c-0.3,0-0.5,0-0.8-0.1c-0.2-0.1-0.4-0.2-0.5-0.4c-0.1-0.2-0.2-0.3-0.2-0.6
		C663.9,140.7,663.9,140.5,664,140.2z"/>
</g>
<g class="st1">
	<path d="M662.3,137.6v7.7H662v-2.9l-1.9,0.5v-7.8h0.3v3L662.3,137.6z M660.4,139.4v2.1l1.5-0.4V139L660.4,139.4z"/>
</g>
<g class="st1">
	<path d="M681,140.2c0.1-0.2,0.2-0.5,0.4-0.7s0.4-0.4,0.6-0.5c0.2-0.2,0.5-0.3,0.8-0.4c0.3-0.1,0.6-0.1,0.9-0.1s0.5,0,0.8,0.1
		c0.2,0.1,0.4,0.2,0.5,0.4c0.1,0.2,0.2,0.3,0.2,0.6c0,0.2,0,0.4-0.1,0.7s-0.2,0.5-0.4,0.7c-0.2,0.2-0.4,0.4-0.6,0.6
		s-0.5,0.3-0.8,0.4c-0.3,0.1-0.6,0.1-0.8,0.1c-0.3,0-0.5,0-0.7-0.1c-0.2-0.1-0.4-0.2-0.5-0.4c-0.1-0.2-0.2-0.3-0.2-0.6
		C680.9,140.7,680.9,140.5,681,140.2z"/>
</g>
<g class="st1">
	<path d="M677.3,135.4v2.4v0.9c0.1-0.1,0.2-0.2,0.4-0.3c0.1-0.1,0.2-0.1,0.3-0.2c0.1,0,0.2-0.1,0.3-0.1c0.1,0,0.2,0,0.4,0
		c0.2,0,0.3,0,0.5,0.1s0.3,0.2,0.4,0.3c0.1,0.1,0.2,0.2,0.2,0.4c0.1,0.1,0.1,0.3,0.1,0.4c0,0.1,0,0.3,0,0.4s-0.1,0.3-0.1,0.4
		c-0.1,0.2-0.2,0.3-0.3,0.4c-0.1,0.1-0.3,0.2-0.4,0.3c0,0-0.1,0.1-0.2,0.2s-0.2,0.2-0.4,0.3s-0.3,0.2-0.5,0.3
		c-0.2,0.1-0.3,0.2-0.4,0.3c-0.1,0.1-0.3,0.2-0.5,0.3v-8h0.4V135.4z M678.4,139c0-0.1-0.1-0.1-0.2-0.1c-0.1,0-0.2-0.1-0.2-0.1
		s-0.2,0-0.3,0.1c-0.1,0.1-0.2,0.1-0.2,0.3c-0.1,0.2-0.1,0.4-0.1,0.6c0,0.3,0,0.5,0,0.7v1.2c0.1-0.1,0.2-0.2,0.3-0.2
		s0.2-0.1,0.2-0.2c0.1-0.1,0.2-0.2,0.2-0.2c0.1-0.1,0.2-0.2,0.3-0.4c0.1-0.1,0.2-0.3,0.2-0.5c0.1-0.2,0.1-0.4,0-0.6
		C678.6,139.3,678.5,139.1,678.4,139z"/>
</g>
<g class="st1">
	<path d="M697.9,138.5c0.1-0.2,0.2-0.5,0.4-0.7s0.4-0.4,0.6-0.5c0.2-0.2,0.5-0.3,0.8-0.4c0.3-0.1,0.6-0.1,0.9-0.1s0.5,0,0.8,0.1
		c0.2,0.1,0.4,0.2,0.5,0.4c0.1,0.2,0.2,0.3,0.2,0.6c0,0.2,0,0.4-0.1,0.7s-0.2,0.5-0.4,0.7c-0.2,0.2-0.4,0.4-0.6,0.6
		s-0.5,0.3-0.8,0.4c-0.3,0.1-0.6,0.1-0.8,0.1c-0.3,0-0.5,0-0.7-0.1c-0.2-0.1-0.4-0.2-0.5-0.4c-0.1-0.2-0.2-0.3-0.2-0.6
		C697.8,139,697.8,138.8,697.9,138.5z"/>
</g>
<g class="st1">
	<path d="M694,136.4v-2.2h0.4v2.1l1.3-0.4v-2h0.4v1.8l0.5-0.2v1.4l-0.5,0.2v2l0.5-0.2v1.4l-0.5,0.2v2.2h-0.4v-2.1l-1.3,0.4v2H694
		v-1.9l-0.6,0.2V140l0.6-0.2v-2l-0.6,0.2v-1.4L694,136.4z M694.4,137.7v2l1.3-0.4v-2L694.4,137.7z"/>
</g>
<line class="st2" x1="714" y1="143.6" x2="720" y2="143.6"/>
<g class="st1">
	<path d="M714.9,143.6c0.1-0.2,0.2-0.5,0.4-0.7s0.4-0.4,0.6-0.5s0.5-0.3,0.8-0.4c0.3-0.1,0.6-0.1,0.9-0.1s0.5,0,0.8,0.1
		c0.2,0.1,0.4,0.2,0.5,0.4c0.1,0.2,0.2,0.3,0.2,0.6c0,0.2,0,0.4-0.1,0.7s-0.2,0.5-0.4,0.7c-0.2,0.2-0.4,0.4-0.6,0.6
		s-0.5,0.3-0.8,0.4c-0.3,0.1-0.6,0.1-0.8,0.1c-0.3,0-0.5,0-0.8-0.1c-0.2-0.1-0.4-0.2-0.5-0.4c-0.1-0.2-0.2-0.3-0.2-0.6
		C714.8,144.1,714.8,143.8,714.9,143.6z"/>
</g>
<g class="st1">
	<path d="M711,141.5v-2.2h0.4v2.1l1.3-0.4v-2h0.4v1.8l0.5-0.2v1.4l-0.5,0.2v2l0.5-0.2v1.4l-0.5,0.2v2.2h-0.4v-2.1l-1.3,0.4v2H711
		v-1.9l-0.6,0.2v-1.4l0.6-0.2v-2l-0.6,0.2v-1.4L711,141.5z M711.4,142.8v2l1.3-0.4v-2L711.4,142.8z"/>
</g>
<g class="st1">
	<path d="M731.8,138.5c0.1-0.2,0.2-0.5,0.4-0.7s0.4-0.4,0.6-0.5s0.5-0.3,0.8-0.4c0.3-0.1,0.6-0.1,0.9-0.1s0.5,0,0.8,0.1
		c0.2,0.1,0.4,0.2,0.5,0.4c0.1,0.2,0.2,0.3,0.2,0.6c0,0.2,0,0.4-0.1,0.7s-0.2,0.5-0.4,0.7c-0.2,0.2-0.4,0.4-0.6,0.6
		s-0.5,0.3-0.8,0.4c-0.3,0.1-0.6,0.1-0.8,0.1c-0.3,0-0.5,0-0.8-0.1c-0.2-0.1-0.4-0.2-0.5-0.4c-0.1-0.2-0.2-0.3-0.2-0.6
		C731.7,139,731.7,138.8,731.8,138.5z"/>
</g>
<g class="st1">
	<path d="M730.1,135.9v7.7h-0.4v-2.9l-1.9,0.5v-7.8h0.3v3L730.1,135.9z M728.2,137.7v2.1l1.5-0.4v-2.1L728.2,137.7z"/>
</g>
<g class="st1">
	<path d="M748.8,141.9c0.1-0.2,0.2-0.5,0.4-0.7s0.4-0.4,0.6-0.5c0.2-0.2,0.5-0.3,0.8-0.4c0.3-0.1,0.6-0.1,0.9-0.1s0.5,0,0.8,0.1
		c0.2,0.1,0.4,0.2,0.5,0.4c0.1,0.2,0.2,0.3,0.2,0.6c0,0.2,0,0.4-0.1,0.7s-0.2,0.5-0.4,0.7c-0.2,0.2-0.4,0.4-0.6,0.6
		s-0.5,0.3-0.8,0.4c-0.3,0.1-0.6,0.1-0.8,0.1c-0.3,0-0.5,0-0.7-0.1c-0.2-0.1-0.4-0.2-0.5-0.4c-0.1-0.2-0.2-0.3-0.2-0.6
		C748.7,142.4,748.7,142.2,748.8,141.9z"/>
</g>
<g class="st1">
	<path d="M747.1,139.3v7.7h-0.4v-2.9l-1.9,0.5v-7.8h0.3v3L747.1,139.3z M745.2,141.1v2.1l1.5-0.4v-2.1L745.2,141.1z"/>
</g>
<line class="st2" x1="764.7" y1="143.6" x2="770.8" y2="143.6"/>
<g class="st1">
	<path d="M765.7,145.3c0.1-0.2,0.2-0.5,0.4-0.7s0.4-0.4,0.6-0.5s0.5-0.3,0.8-0.4c0.3-0.1,0.6-0.1,0.9-0.1s0.5,0,0.8,0.1
		c0.2,0.1,0.4,0.2,0.5,0.4c0.1,0.2,0.2,0.3,0.2,0.6c0,0.2,0,0.4-0.1,0.7s-0.2,0.5-0.4,0.7c-0.2,0.2-0.4,0.4-0.6,0.6
		s-0.5,0.3-0.8,0.4c-0.3,0.1-0.6,0.1-0.8,0.1c-0.3,0-0.5,0-0.8-0.1c-0.2-0.1-0.4-0.2-0.5-0.4c-0.1-0.2-0.2-0.3-0.2-0.6
		C765.5,145.8,765.6,145.5,765.7,145.3z"/>
</g>
<g class="st1">
	<path d="M764,142.6v7.7h-0.4v-2.9l-1.9,0.5v-7.8h0.3v3L764,142.6z M762.1,144.4v2.1l1.5-0.4V144L762.1,144.4z"/>
</g>
<line class="st2" x1="781.6" y1="143.6" x2="787.6" y2="143.6"/>
<g class="st1">
	<path d="M782.5,145.3c0.1-0.2,0.2-0.5,0.4-0.7s0.4-0.4,0.6-0.5c0.2-0.2,0.5-0.3,0.8-0.4c0.3-0.1,0.6-0.1,0.9-0.1s0.5,0,0.8,0.1
		c0.2,0.1,0.4,0.2,0.5,0.4c0.1,0.2,0.2,0.3,0.2,0.6c0,0.2,0,0.4-0.1,0.7s-0.2,0.5-0.4,0.7c-0.2,0.2-0.4,0.4-0.6,0.6
		s-0.5,0.3-0.8,0.4c-0.3,0.1-0.6,0.1-0.8,0.1c-0.3,0-0.5,0-0.7-0.1c-0.2-0.1-0.4-0.2-0.5-0.4c-0.1-0.2-0.2-0.3-0.2-0.6
		C782.4,145.8,782.5,145.5,782.5,145.3z"/>
</g>
<g class="st1">
	<path d="M778.9,140.5v2.4v0.9c0.1-0.1,0.2-0.2,0.4-0.3c0.1-0.1,0.2-0.1,0.3-0.2c0.1,0,0.2-0.1,0.3-0.1c0.1,0,0.2,0,0.4,0
		c0.2,0,0.3,0,0.5,0.1s0.3,0.2,0.4,0.3c0.1,0.1,0.2,0.2,0.2,0.4c0.1,0.1,0.1,0.3,0.1,0.4c0,0.1,0,0.3,0,0.4c0,0.1-0.1,0.3-0.1,0.4
		c-0.1,0.2-0.2,0.3-0.3,0.4c-0.1,0.1-0.3,0.2-0.4,0.3c0,0-0.1,0.1-0.2,0.2c-0.1,0.1-0.2,0.2-0.4,0.3s-0.3,0.2-0.5,0.3
		c-0.2,0.1-0.3,0.2-0.4,0.3c-0.1,0.1-0.3,0.2-0.5,0.3v-8h0.4V140.5z M779.9,144.1c0-0.1-0.1-0.1-0.2-0.1s-0.2-0.1-0.2-0.1
		c-0.1,0-0.2,0-0.3,0.1c-0.1,0.1-0.2,0.1-0.2,0.3c-0.1,0.2-0.1,0.4-0.1,0.6c0,0.3,0,0.5,0,0.7v1.2c0.1-0.1,0.2-0.2,0.3-0.2
		c0.1-0.1,0.2-0.1,0.2-0.2c0.1-0.1,0.2-0.2,0.2-0.2c0.1-0.1,0.2-0.2,0.3-0.4c0.1-0.1,0.2-0.3,0.2-0.5c0.1-0.2,0.1-0.4,0-0.6
		C780.1,144.4,780.1,144.2,779.9,144.1z"/>
</g>
<line class="st2" x1="798.6" y1="143.6" x2="804.7" y2="143.6"/>
<g class="st1">
	<path d="M799.6,143.6c0.1-0.2,0.2-0.5,0.4-0.7s0.4-0.4,0.6-0.5c0.2-0.2,0.5-0.3,0.8-0.4c0.3-0.1,0.6-0.1,0.9-0.1s0.5,0,0.8,0.1
		c0.2,0.1,0.4,0.2,0.5,0.4c0.1,0.2,0.2,0.3,0.2,0.6c0,0.2,0,0.4-0.1,0.7s-0.2,0.5-0.4,0.7c-0.2,0.2-0.4,0.4-0.6,0.6
		s-0.5,0.3-0.8,0.4c-0.3,0.1-0.6,0.1-0.8,0.1c-0.3,0-0.5,0-0.7-0.1c-0.2-0.1-0.4-0.2-0.5-0.4c-0.1-0.2-0.2-0.3-0.2-0.6
		C799.4,144.1,799.5,143.8,799.6,143.6z"/>
</g>
<g class="st1">
	<path d="M797.9,140.9v7.7h-0.4v-2.9l-1.9,0.5v-7.8h0.3v3L797.9,140.9z M796,142.8v2.1l1.5-0.4v-2.1L796,142.8z"/>
</g>
<line class="st2" x1="815.5" y1="147" x2="821.5" y2="147"/>
<line class="st2" x1="815.5" y1="143.6" x2="821.5" y2="143.6"/>
<g class="st1">
	<path d="M816.4,147c0.1-0.2,0.2-0.5,0.4-0.7s0.4-0.4,0.6-0.5c0.2-0.2,0.5-0.3,0.8-0.4c0.3-0.1,0.6-0.1,0.9-0.1s0.5,0,0.8,0.1
		c0.2,0.1,0.4,0.2,0.5,0.4c0.1,0.2,0.2,0.3,0.2,0.6c0,0.2,0,0.4-0.1,0.7s-0.2,0.5-0.4,0.7c-0.2,0.2-0.4,0.4-0.6,0.6
		s-0.5,0.3-0.8,0.4c-0.3,0.1-0.6,0.1-0.8,0.1c-0.3,0-0.5,0-0.7-0.1c-0.2-0.1-0.4-0.2-0.5-0.4c-0.1-0.2-0.2-0.3-0.2-0.6
		C816.3,147.5,816.3,147.2,816.4,147z"/>
</g>
<g class="st1">
	<path d="M814.7,144.3v7.7h-0.4v-2.9l-1.9,0.5v-7.8h0.3v3L814.7,144.3z M812.9,146.1v2.1l1.5-0.4v-2.1L812.9,146.1z"/>
</g>
<line class="st2" x1="832.5" y1="147" x2="838.5" y2="147"/>
<line class="st2" x1="832.5" y1="143.6" x2="838.5" y2="143.6"/>
<g class="st1">
	<path d="M833.4,148.7c0.1-0.2,0.2-0.5,0.4-0.7s0.4-0.4,0.6-0.5s0.5-0.3,0.8-0.4c0.3-0.1,0.6-0.1,0.9-0.1s0.5,0,0.8,0.1
		c0.2,0.1,0.4,0.2,0.5,0.4c0.1,0.2,0.2,0.3,0.2,0.6c0,0.2,0,0.4-0.1,0.7s-0.2,0.5-0.4,0.7c-0.2,0.2-0.4,0.4-0.6,0.6
		s-0.5,0.3-0.8,0.4c-0.3,0.1-0.6,0.1-0.8,0.1c-0.3,0-0.5,0-0.8-0.1c-0.2-0.1-0.4-0.2-0.5-0.4c-0.1-0.2-0.2-0.3-0.2-0.6
		C833.3,149.1,833.4,148.9,833.4,148.7z"/>
</g>
<g class="st1">
	<path d="M829.6,146.6v-2.2h0.4v2.1l1.3-0.4v-2h0.4v1.8l0.5-0.2v1.4l-0.5,0.2v2l0.5-0.2v1.4l-0.5,0.2v2.2h-0.4v-2.1l-1.3,0.4v2h-0.4
		v-1.9l-0.6,0.2v-1.4l0.6-0.2v-2l-0.6,0.2v-1.4L829.6,146.6z M830,147.8v2l1.3-0.4v-2L830,147.8z"/>
</g>
<g class="st1">
	<path d="M51.9,46.5v-8.6h2.6l1.6,5.9l1.5-5.9h2.6v8.6h-1.6v-6.8l-1.7,6.8h-1.7l-1.7-6.8v6.8H51.9z"/>
	<path d="M64.8,44.2l1.6-0.2c0.1,0.4,0.2,0.7,0.4,0.9s0.5,0.3,0.8,0.3c0.3,0,0.6-0.1,0.9-0.4s0.3-0.6,0.3-1c0-0.4-0.1-0.7-0.3-1
		s-0.5-0.4-0.8-0.4c-0.2,0-0.5,0-0.8,0.1l0.2-1.3c0.4,0,0.8-0.1,1-0.3s0.4-0.5,0.4-0.8c0-0.3-0.1-0.5-0.3-0.7s-0.4-0.3-0.7-0.3
		c-0.3,0-0.5,0.1-0.7,0.3s-0.3,0.5-0.4,0.9l-1.5-0.3c0.1-0.5,0.3-0.9,0.5-1.2s0.5-0.6,0.9-0.7s0.8-0.3,1.3-0.3
		c0.8,0,1.5,0.3,1.9,0.8c0.4,0.4,0.6,0.9,0.6,1.4c0,0.8-0.4,1.4-1.2,1.8c0.5,0.1,0.9,0.3,1.2,0.7s0.4,0.8,0.4,1.3
		c0,0.8-0.3,1.4-0.8,1.9s-1.2,0.8-2.1,0.8c-0.8,0-1.4-0.2-1.9-0.7S64.9,44.9,64.8,44.2z"/>
	<path d="M75.7,46.5h-1.6v-6.2c-0.6,0.6-1.3,1-2.1,1.2V40c0.4-0.1,0.9-0.4,1.4-0.8s0.8-0.9,1-1.4h1.3V46.5z"/>
	<path d="M78.2,39.6V38h5.6v1.2c-0.5,0.5-0.9,1.1-1.4,2s-0.8,1.8-1.1,2.7s-0.4,1.8-0.4,2.6h-1.6c0-1.2,0.3-2.4,0.7-3.6
		s1.1-2.3,1.9-3.3H78.2z"/>
	<path d="M88.1,43.7l1.7-0.2c0.1,0.6,0.3,1,0.6,1.2s0.7,0.4,1.3,0.4c0.6,0,1-0.1,1.3-0.4s0.4-0.5,0.4-0.8c0-0.2-0.1-0.4-0.2-0.5
		s-0.3-0.3-0.6-0.4c-0.2-0.1-0.7-0.2-1.4-0.4c-0.9-0.2-1.6-0.5-2-0.8c-0.5-0.5-0.8-1-0.8-1.7c0-0.4,0.1-0.8,0.4-1.2s0.6-0.7,1.1-0.9
		s1-0.3,1.7-0.3c1.1,0,1.9,0.2,2.4,0.7s0.8,1.1,0.9,1.9l-1.7,0.1c-0.1-0.4-0.2-0.8-0.5-1s-0.6-0.3-1.1-0.3c-0.5,0-0.9,0.1-1.2,0.3
		c-0.2,0.1-0.3,0.3-0.3,0.5c0,0.2,0.1,0.4,0.3,0.5c0.2,0.2,0.8,0.4,1.6,0.6s1.5,0.4,1.9,0.6s0.7,0.5,0.9,0.9s0.3,0.8,0.3,1.4
		c0,0.5-0.1,1-0.4,1.4s-0.7,0.7-1.2,1s-1.1,0.3-1.9,0.3c-1.1,0-1.9-0.3-2.5-0.8S88.3,44.7,88.1,43.7z"/>
	<path d="M96.5,46.5v-8.6h1.6v4.6l1.9-2.2h2l-2.1,2.3l2.3,3.9h-1.8l-1.6-2.8l-0.8,0.8v2H96.5z"/>
	<path d="M102.8,44.2l1.6-0.2c0.1,0.4,0.2,0.7,0.4,0.9s0.5,0.3,0.8,0.3c0.3,0,0.6-0.1,0.9-0.4s0.3-0.6,0.3-1c0-0.4-0.1-0.7-0.3-1
		s-0.5-0.4-0.8-0.4c-0.2,0-0.5,0-0.8,0.1l0.2-1.3c0.4,0,0.8-0.1,1-0.3s0.4-0.5,0.4-0.8c0-0.3-0.1-0.5-0.3-0.7s-0.4-0.3-0.7-0.3
		c-0.3,0-0.5,0.1-0.7,0.3s-0.3,0.5-0.4,0.9l-1.5-0.3c0.1-0.5,0.3-0.9,0.5-1.2s0.5-0.6,0.9-0.7s0.8-0.3,1.3-0.3
		c0.8,0,1.5,0.3,1.9,0.8c0.4,0.4,0.6,0.9,0.6,1.4c0,0.8-0.4,1.4-1.2,1.8c0.5,0.1,0.9,0.3,1.2,0.7s0.4,0.8,0.4,1.3
		c0,0.8-0.3,1.4-0.8,1.9s-1.2,0.8-2.1,0.8c-0.8,0-1.4-0.2-1.9-0.7S102.9,44.9,102.8,44.2z"/>
	<path d="M109.9,46.5v-1.6h1.6v1.6H109.9z"/>
	<path d="M117.1,46.5h-1.6v-6.2c-0.6,0.6-1.3,1-2.1,1.2V40c0.4-0.1,0.9-0.4,1.4-0.8s0.8-0.9,1-1.4h1.3V46.5z"/>
	<path d="M119.9,46.5v-1.6h1.6v1.6H119.9z"/>
	<path d="M122.9,44.2l1.6-0.2c0.1,0.4,0.2,0.7,0.4,0.9s0.5,0.3,0.8,0.3c0.3,0,0.6-0.1,0.9-0.4s0.3-0.6,0.3-1c0-0.4-0.1-0.7-0.3-1
		s-0.5-0.4-0.8-0.4c-0.2,0-0.5,0-0.8,0.1l0.2-1.3c0.4,0,0.8-0.1,1-0.3s0.4-0.5,0.4-0.8c0-0.3-0.1-0.5-0.3-0.7s-0.4-0.3-0.7-0.3
		c-0.3,0-0.5,0.1-0.7,0.3s-0.3,0.5-0.4,0.9l-1.5-0.3c0.1-0.5,0.3-0.9,0.5-1.2s0.5-0.6,0.9-0.7s0.8-0.3,1.3-0.3
		c0.8,0,1.5,0.3,1.9,0.8c0.4,0.4,0.6,0.9,0.6,1.4c0,0.8-0.4,1.4-1.2,1.8c0.5,0.1,0.9,0.3,1.2,0.7s0.4,0.8,0.4,1.3
		c0,0.8-0.3,1.4-0.8,1.9s-1.2,0.8-2.1,0.8c-0.8,0-1.4-0.2-1.9-0.7S122.9,44.9,122.9,44.2z"/>
	<path d="M129.9,46.5v-1.6h1.6v1.6H129.9z"/>
	<path d="M137.1,46.5h-1.6v-6.2c-0.6,0.6-1.3,1-2.1,1.2V40c0.4-0.1,0.9-0.4,1.4-0.8s0.8-0.9,1-1.4h1.3V46.5z"/>
</g>
<polyline class="st3" points="455,113.4 455,157.4 89,157.4 89,113.4 "/>
<line class="st4" x1="89" y1="113.4" x2="89" y2="157.4"/>
<line class="st4" x1="455" y1="113.1" x2="455" y2="157.1"/>
<g class="st1">
	<path d="M233.9,132.3l1.7-0.2c0.1,0.6,0.3,1,0.6,1.2s0.7,0.4,1.3,0.4c0.6,0,1-0.1,1.3-0.4s0.4-0.5,0.4-0.8c0-0.2-0.1-0.4-0.2-0.5
		s-0.3-0.3-0.6-0.4c-0.2-0.1-0.7-0.2-1.4-0.4c-0.9-0.2-1.6-0.5-2-0.8c-0.5-0.5-0.8-1-0.8-1.7c0-0.4,0.1-0.8,0.4-1.2s0.6-0.7,1.1-0.9
		s1-0.3,1.7-0.3c1.1,0,1.9,0.2,2.4,0.7s0.8,1.1,0.9,1.9l-1.7,0.1c-0.1-0.4-0.2-0.8-0.5-1c-0.2-0.2-0.6-0.3-1.1-0.3
		c-0.5,0-0.9,0.1-1.2,0.3c-0.2,0.1-0.3,0.3-0.3,0.5c0,0.2,0.1,0.4,0.3,0.5c0.2,0.2,0.8,0.4,1.6,0.6s1.5,0.4,1.9,0.6s0.7,0.5,0.9,0.9
		s0.3,0.8,0.3,1.4c0,0.5-0.1,1-0.4,1.4s-0.7,0.7-1.2,1s-1.1,0.3-1.9,0.3c-1.1,0-1.9-0.3-2.5-0.8S234,133.3,233.9,132.3z"/>
	<path d="M242.3,135.1v-8.6h1.6v4.6l1.9-2.2h2l-2.1,2.3l2.3,3.9h-1.8l-1.6-2.8l-0.8,0.8v2H242.3z"/>
	<path d="M248.6,132.8l1.6-0.2c0.1,0.4,0.2,0.7,0.4,0.9s0.5,0.3,0.8,0.3c0.3,0,0.6-0.1,0.9-0.4s0.3-0.6,0.3-1c0-0.4-0.1-0.7-0.3-1
		s-0.5-0.4-0.8-0.4c-0.2,0-0.5,0-0.8,0.1l0.2-1.3c0.4,0,0.8-0.1,1-0.3s0.4-0.5,0.4-0.8c0-0.3-0.1-0.5-0.3-0.7
		c-0.2-0.2-0.4-0.3-0.7-0.3c-0.3,0-0.5,0.1-0.7,0.3c-0.2,0.2-0.3,0.5-0.4,0.9l-1.5-0.3c0.1-0.5,0.3-0.9,0.5-1.2s0.5-0.6,0.9-0.7
		s0.8-0.3,1.3-0.3c0.8,0,1.5,0.3,1.9,0.8c0.4,0.4,0.6,0.9,0.6,1.4c0,0.8-0.4,1.4-1.2,1.8c0.5,0.1,0.9,0.3,1.2,0.7s0.4,0.8,0.4,1.3
		c0,0.8-0.3,1.4-0.8,1.9s-1.2,0.8-2.1,0.8c-0.8,0-1.4-0.2-1.9-0.7S248.7,133.5,248.6,132.8z"/>
	<path d="M255.7,135.1v-1.6h1.6v1.6H255.7z"/>
	<path d="M262.9,135.1h-1.6v-6.2c-0.6,0.6-1.3,1-2.1,1.2v-1.5c0.4-0.1,0.9-0.4,1.4-0.8c0.5-0.4,0.8-0.9,1-1.4h1.3V135.1z"/>
	<path d="M265.7,135.1v-1.6h1.6v1.6H265.7z"/>
	<path d="M268.6,132.8l1.6-0.2c0.1,0.4,0.2,0.7,0.4,0.9s0.5,0.3,0.8,0.3c0.3,0,0.6-0.1,0.9-0.4s0.3-0.6,0.3-1c0-0.4-0.1-0.7-0.3-1
		s-0.5-0.4-0.8-0.4c-0.2,0-0.5,0-0.8,0.1l0.2-1.3c0.4,0,0.8-0.1,1-0.3s0.4-0.5,0.4-0.8c0-0.3-0.1-0.5-0.3-0.7
		c-0.2-0.2-0.4-0.3-0.7-0.3c-0.3,0-0.5,0.1-0.7,0.3c-0.2,0.2-0.3,0.5-0.4,0.9l-1.5-0.3c0.1-0.5,0.3-0.9,0.5-1.2s0.5-0.6,0.9-0.7
		s0.8-0.3,1.3-0.3c0.8,0,1.5,0.3,1.9,0.8c0.4,0.4,0.6,0.9,0.6,1.4c0,0.8-0.4,1.4-1.2,1.8c0.5,0.1,0.9,0.3,1.2,0.7s0.4,0.8,0.4,1.3
		c0,0.8-0.3,1.4-0.8,1.9s-1.2,0.8-2.1,0.8c-0.8,0-1.4-0.2-1.9-0.7S268.7,133.5,268.6,132.8z"/>
</g>
<polyline class="st5" points="482.5,110.3 482.5,156.6 596,156.6 596,110.3 "/>
<g class="st1">
	<path d="M514.4,132.6l1.7-0.2c0.1,0.6,0.3,1,0.6,1.2s0.7,0.4,1.3,0.4c0.6,0,1-0.1,1.3-0.4s0.4-0.5,0.4-0.8c0-0.2-0.1-0.4-0.2-0.5
		s-0.3-0.3-0.6-0.4c-0.2-0.1-0.7-0.2-1.4-0.4c-0.9-0.2-1.6-0.5-2-0.8c-0.5-0.5-0.8-1-0.8-1.7c0-0.4,0.1-0.8,0.4-1.2
		c0.2-0.4,0.6-0.7,1.1-0.9s1-0.3,1.7-0.3c1.1,0,1.9,0.2,2.4,0.7s0.8,1.1,0.9,1.9l-1.7,0.1c-0.1-0.4-0.2-0.8-0.5-1s-0.6-0.3-1.1-0.3
		c-0.5,0-0.9,0.1-1.2,0.3c-0.2,0.1-0.3,0.3-0.3,0.5c0,0.2,0.1,0.4,0.3,0.5c0.2,0.2,0.8,0.4,1.6,0.6s1.5,0.4,1.9,0.6s0.7,0.5,0.9,0.9
		s0.3,0.8,0.3,1.4c0,0.5-0.1,1-0.4,1.4s-0.7,0.7-1.2,1s-1.1,0.3-1.9,0.3c-1.1,0-1.9-0.3-2.5-0.8S514.5,133.6,514.4,132.6z"/>
	<path d="M522.8,135.4v-8.6h1.6v4.6l1.9-2.2h2l-2.1,2.3l2.3,3.9h-1.8l-1.6-2.8l-0.8,0.8v2H522.8z"/>
	<path d="M529.1,133.1l1.6-0.2c0.1,0.4,0.2,0.7,0.4,0.9s0.5,0.3,0.8,0.3c0.3,0,0.6-0.1,0.9-0.4s0.3-0.6,0.3-1c0-0.4-0.1-0.7-0.3-1
		s-0.5-0.4-0.8-0.4c-0.2,0-0.5,0-0.8,0.1l0.2-1.3c0.4,0,0.8-0.1,1-0.3s0.4-0.5,0.4-0.8c0-0.3-0.1-0.5-0.3-0.7s-0.4-0.3-0.7-0.3
		c-0.3,0-0.5,0.1-0.7,0.3s-0.3,0.5-0.4,0.9l-1.5-0.3c0.1-0.5,0.3-0.9,0.5-1.2c0.2-0.3,0.5-0.6,0.9-0.7s0.8-0.3,1.3-0.3
		c0.8,0,1.5,0.3,1.9,0.8c0.4,0.4,0.6,0.9,0.6,1.4c0,0.8-0.4,1.4-1.2,1.8c0.5,0.1,0.9,0.3,1.2,0.7s0.4,0.8,0.4,1.3
		c0,0.8-0.3,1.4-0.8,1.9s-1.2,0.8-2.1,0.8c-0.8,0-1.4-0.2-1.9-0.7S529.2,133.8,529.1,133.1z"/>
	<path d="M536.2,135.4v-1.6h1.6v1.6H536.2z"/>
	<path d="M543.4,135.4h-1.6v-6.2c-0.6,0.6-1.3,1-2.1,1.2v-1.5c0.4-0.1,0.9-0.4,1.4-0.8c0.5-0.4,0.8-0.9,1-1.4h1.3V135.4z"/>
	<path d="M546.2,135.4v-1.6h1.6v1.6H546.2z"/>
	<path d="M553.4,135.4h-1.6v-6.2c-0.6,0.6-1.3,1-2.1,1.2v-1.5c0.4-0.1,0.9-0.4,1.4-0.8c0.5-0.4,0.8-0.9,1-1.4h1.3V135.4z"/>
</g>
<g class="st1">
	<path d="M637.1,139.4c-0.2,0-0.4,0.1-0.6,0.1s-0.4,0-0.6,0c-0.2,0-0.4,0-0.6-0.1c-0.2,0-0.3-0.1-0.4-0.1c-0.5-0.2-0.9-0.5-1.3-0.8
		c-0.3-0.3-0.6-0.6-0.7-0.9s-0.3-0.6-0.4-0.9c-0.1-0.3-0.1-0.6-0.1-1c0-0.4,0-0.7,0.1-1.1c0.1-0.4,0.2-0.7,0.4-1
		c0.2-0.3,0.3-0.6,0.5-0.9c0.2-0.3,0.4-0.5,0.6-0.7c0.2-0.2,0.5-0.5,0.8-0.7s0.6-0.5,0.9-0.7c0-0.1,0-0.2,0-0.2c0-0.1,0-0.1,0-0.2
		s0-0.2,0-0.2s0-0.2,0-0.3c0-0.1,0-0.2,0-0.3c0-0.1,0-0.3,0-0.5c0-0.2,0-0.4,0-0.7c0-0.3,0-0.5,0.1-0.8c0-0.2,0.1-0.4,0.2-0.6
		c0.1-0.3,0.2-0.5,0.4-0.8c0.2-0.2,0.3-0.5,0.5-0.6s0.3-0.3,0.5-0.3c0.1,0,0.2,0,0.2,0.1c0.1,0.1,0.2,0.2,0.3,0.4
		c0.1,0.2,0.2,0.3,0.2,0.5s0.2,0.4,0.2,0.6c0.1,0.2,0.1,0.4,0.1,0.6c0,0.2,0.1,0.4,0.1,0.5c0,0.4,0,0.7,0,0.9s-0.1,0.5-0.2,0.7
		c-0.1,0.2-0.1,0.4-0.2,0.6c-0.1,0.2-0.2,0.4-0.3,0.5c-0.1,0.2-0.2,0.3-0.3,0.5s-0.2,0.3-0.3,0.4c-0.1,0.1-0.2,0.3-0.4,0.4
		c-0.1,0.1-0.3,0.2-0.4,0.3c0.1,0.3,0.1,0.7,0.2,0.9c0,0.1,0,0.2,0.1,0.4c0,0.1,0,0.2,0.1,0.3s0,0.2,0,0.2s0,0.1,0,0.1
		c0.2,0,0.3,0,0.5,0s0.3,0,0.5,0.1c0.2,0,0.3,0.1,0.4,0.1c0.1,0.1,0.2,0.1,0.3,0.2c0.4,0.3,0.6,0.6,0.8,0.9c0.2,0.3,0.2,0.7,0.3,1.1
		c0,0.3,0,0.6-0.1,0.9s-0.2,0.6-0.3,0.8c-0.2,0.3-0.4,0.5-0.6,0.7c-0.3,0.2-0.6,0.4-0.9,0.5c0,0.3,0.1,0.5,0.1,0.8
		c0,0.2,0.1,0.4,0.1,0.6c0,0.2,0,0.3,0.1,0.4c0.1,0.4,0.1,0.7,0.1,1s-0.1,0.5-0.2,0.6c-0.1,0.1-0.2,0.3-0.3,0.4
		c-0.1,0.1-0.2,0.2-0.3,0.3c-0.1,0.1-0.3,0.2-0.5,0.3c-0.2,0.1-0.4,0.1-0.6,0.1c-0.2,0-0.4,0-0.6,0s-0.5-0.1-0.7-0.2
		s-0.4-0.3-0.6-0.5c-0.2-0.2-0.3-0.4-0.3-0.7c0-0.2,0-0.3,0-0.5c0-0.2,0.1-0.3,0.2-0.4c0.1-0.1,0.2-0.2,0.3-0.3
		c0.1-0.1,0.3-0.1,0.5-0.2c0.1,0,0.2,0,0.4,0.1s0.2,0.1,0.3,0.2c0.1,0.1,0.2,0.2,0.3,0.3c0.1,0.1,0.1,0.3,0.1,0.4
		c0,0.2-0.1,0.5-0.2,0.7c-0.2,0.2-0.5,0.4-0.9,0.5c0.1,0.1,0.2,0.2,0.4,0.3c0.2,0.1,0.4,0.1,0.7,0.1c0.3,0,0.6-0.1,0.9-0.3
		c0.3-0.2,0.5-0.4,0.6-0.7c0.1-0.2,0.1-0.4,0.1-0.7c0-0.3,0-0.6-0.1-0.8c0,0,0-0.2-0.1-0.3c0-0.2-0.1-0.4-0.1-0.6
		C637.2,139.9,637.2,139.6,637.1,139.4z M635.8,135.6c-0.2,0.1-0.3,0.2-0.4,0.4c-0.1,0.1-0.2,0.3-0.2,0.4s-0.1,0.3,0,0.4
		s0,0.2,0.1,0.4c0,0.1,0.1,0.2,0.2,0.4c0.1,0.1,0.2,0.2,0.3,0.3c0.1,0.1,0.2,0.2,0.3,0.2c0,0,0,0,0,0c0,0,0,0,0,0c0,0,0,0,0,0
		c-0.2-0.1-0.4-0.2-0.6-0.4c-0.2-0.1-0.3-0.2-0.3-0.3c-0.1-0.1-0.1-0.2-0.2-0.3s-0.1-0.2-0.1-0.3c0-0.1-0.1-0.2-0.1-0.3
		c0-0.1,0-0.2,0-0.4c0-0.1,0-0.3,0-0.5c0-0.2,0.1-0.3,0.2-0.5c0.1-0.2,0.2-0.3,0.3-0.5c0.1-0.2,0.3-0.3,0.4-0.4
		c0.1-0.1,0.2-0.1,0.2-0.2c0.1,0,0.1-0.1,0.2-0.1c0.1,0,0.1-0.1,0.2-0.1s0.1,0,0.2-0.1l-0.3-1.8c-0.1,0-0.2,0.1-0.4,0.3
		s-0.4,0.3-0.6,0.5c-0.2,0.2-0.4,0.4-0.6,0.6s-0.4,0.4-0.5,0.7c-0.2,0.4-0.4,0.7-0.6,1.1s-0.2,0.7-0.2,1.1c0,0.4,0.2,0.8,0.4,1.2
		c0.2,0.4,0.5,0.7,0.9,0.9s0.8,0.4,1.2,0.5s0.9,0.1,1.4,0c-0.1-0.7-0.2-1.3-0.3-1.8c0-0.2-0.1-0.4-0.1-0.7c0-0.2-0.1-0.4-0.1-0.6
		s-0.1-0.4-0.1-0.6C636.2,135.4,636,135.5,635.8,135.6z M637.4,126.5c-0.3,0-0.5,0.1-0.7,0.4s-0.4,0.6-0.5,0.9
		c-0.1,0.4-0.2,0.8-0.2,1.2c0,0.5,0,0.9,0,1.3c0.2-0.2,0.5-0.4,0.7-0.6c0.2-0.2,0.5-0.5,0.7-0.8c0.2-0.3,0.4-0.5,0.5-0.8
		c0.1-0.3,0.2-0.5,0.2-0.8c0-0.1,0-0.2,0-0.3c0-0.1-0.1-0.2-0.1-0.3s-0.1-0.2-0.2-0.2C637.6,126.5,637.5,126.5,637.4,126.5z
		 M637.3,138.9c0.3-0.1,0.5-0.2,0.7-0.4s0.3-0.3,0.4-0.5c0.1-0.2,0.1-0.4,0.1-0.6c0-0.2,0-0.4,0-0.5c0-0.1,0-0.3-0.1-0.5
		c0-0.2-0.1-0.4-0.2-0.5c-0.1-0.2-0.3-0.3-0.5-0.4c-0.2-0.1-0.5-0.2-0.9-0.1L637.3,138.9z"/>
</g>
<path class="st0" d="M633.1,125h-1.4v19.1h1.4"/>
<path class="st0" d="M639.2,125h1.4v19.1h-1.4"/>
</svg>
