<?xml version="1.0" encoding="utf-8"?>
<!-- Generator: Adobe Illustrator 22.1.0, SVG Export Plug-In . SVG Version: 6.00 Build 0)  -->
<svg version="1.1" id="Ebene_1" xmlns="http://www.w3.org/2000/svg" xmlns:xlink="http://www.w3.org/1999/xlink" x="0px" y="0px"
	 viewBox="0 0 1021 595" style="enable-background:new 0 0 1021 595;" xml:space="preserve">
<style type="text/css">
	.st0{enable-background:new    ;}
	.st1{fill:none;stroke:#000000;stroke-width:0.4;}
	.st2{fill:none;stroke:#000000;stroke-width:0.49;}
	.st3{fill:#FFFFFF;}
	.st4{fill:#FFFFFF;stroke:#000000;stroke-width:0.4;stroke-miterlimit:10;}
	.st5{fill:none;stroke:#000000;stroke-width:0.4;stroke-miterlimit:10;}
</style>
<g class="st0">
	<path d="M94.6,180.7c-0.3,0-0.5,0.1-0.8,0.1c-0.3,0-0.6,0-0.8,0s-0.5-0.1-0.7-0.1c-0.2,0-0.4-0.1-0.6-0.2c-0.7-0.3-1.3-0.7-1.7-1.1
		c-0.4-0.4-0.8-0.8-1-1.2c-0.2-0.4-0.4-0.8-0.5-1.2c-0.1-0.4-0.2-0.9-0.2-1.3c0-0.5,0-0.9,0.1-1.4c0.1-0.5,0.3-0.9,0.5-1.3
		c0.2-0.4,0.5-0.8,0.7-1.2c0.3-0.4,0.6-0.7,0.8-0.9c0.3-0.3,0.7-0.6,1-0.9s0.7-0.6,1.2-0.9c0-0.1,0-0.2,0-0.3c0-0.1,0-0.2,0-0.3
		c0-0.1,0-0.2-0.1-0.3c0-0.1,0-0.3,0-0.4c0-0.1,0-0.2,0-0.4c0-0.2,0-0.4,0-0.7c0-0.3,0-0.6,0-0.9c0-0.4,0.1-0.7,0.1-1.1
		c0-0.2,0.1-0.5,0.3-0.9c0.1-0.3,0.3-0.7,0.5-1c0.2-0.3,0.4-0.6,0.6-0.8c0.2-0.2,0.4-0.4,0.6-0.4c0.1,0,0.2,0.1,0.3,0.2
		c0.1,0.1,0.2,0.3,0.3,0.5c0.1,0.2,0.2,0.4,0.3,0.7c0.1,0.3,0.2,0.5,0.3,0.8c0.1,0.3,0.1,0.5,0.2,0.8c0,0.3,0.1,0.5,0.1,0.7
		c0,0.5,0,0.9-0.1,1.2c0,0.4-0.1,0.7-0.2,1c-0.1,0.3-0.2,0.5-0.3,0.8s-0.2,0.5-0.4,0.7c-0.1,0.2-0.3,0.5-0.4,0.6
		c-0.1,0.2-0.3,0.4-0.5,0.6c-0.2,0.2-0.3,0.4-0.5,0.5c-0.2,0.1-0.3,0.3-0.5,0.4c0.1,0.5,0.2,0.9,0.2,1.2c0,0.2,0.1,0.3,0.1,0.5
		c0,0.2,0,0.3,0.1,0.4s0,0.2,0.1,0.3c0,0.1,0,0.1,0,0.2c0.2,0,0.4,0,0.7,0s0.4,0.1,0.7,0.1c0.2,0,0.4,0.1,0.6,0.2s0.3,0.1,0.4,0.2
		c0.5,0.4,0.8,0.8,1,1.2c0.2,0.5,0.3,0.9,0.4,1.4c0,0.4,0,0.8-0.1,1.1c-0.1,0.4-0.2,0.7-0.5,1.1c-0.2,0.3-0.5,0.7-0.8,1
		s-0.7,0.5-1.2,0.7c0.1,0.4,0.1,0.7,0.1,1c0,0.3,0.1,0.5,0.1,0.8c0,0.3,0.1,0.4,0.1,0.5c0.1,0.5,0.1,1,0.1,1.3
		c0,0.3-0.1,0.6-0.2,0.8c-0.1,0.2-0.2,0.4-0.3,0.5c-0.1,0.2-0.3,0.3-0.5,0.5c-0.2,0.1-0.4,0.2-0.6,0.3c-0.2,0.1-0.5,0.1-0.8,0.2
		c-0.2,0-0.5,0-0.8-0.1c-0.3-0.1-0.6-0.2-0.9-0.3c-0.3-0.1-0.6-0.3-0.8-0.6c-0.2-0.3-0.3-0.6-0.4-0.9c0-0.2,0-0.4,0-0.7
		s0.1-0.4,0.2-0.6c0.1-0.2,0.3-0.3,0.4-0.4s0.4-0.2,0.7-0.2c0.2,0,0.3,0,0.5,0.1s0.3,0.1,0.5,0.2c0.1,0.1,0.3,0.2,0.4,0.4
		c0.1,0.2,0.1,0.3,0.2,0.5c0,0.3-0.1,0.7-0.3,1c-0.2,0.3-0.6,0.5-1.2,0.7c0.1,0.1,0.3,0.2,0.5,0.4s0.6,0.2,0.9,0.2
		c0.4,0,0.8-0.1,1.1-0.4c0.4-0.2,0.6-0.5,0.8-0.9c0.1-0.2,0.2-0.5,0.2-0.9c0-0.4,0-0.7-0.1-1.1c0-0.1,0-0.2-0.1-0.5
		c0-0.2-0.1-0.5-0.1-0.8C94.7,181.5,94.7,181.1,94.6,180.7z M92.8,175.7c-0.2,0.1-0.4,0.3-0.6,0.5c-0.1,0.2-0.2,0.4-0.3,0.6
		s-0.1,0.4-0.1,0.6c0,0.2,0,0.3,0.1,0.5s0.1,0.3,0.2,0.5s0.2,0.3,0.3,0.4c0.1,0.1,0.2,0.2,0.4,0.3c0,0,0,0,0,0s0,0,0,0s0,0,0,0.1
		c-0.3-0.1-0.5-0.3-0.7-0.5c-0.2-0.2-0.3-0.3-0.4-0.4c-0.1-0.1-0.2-0.3-0.3-0.4c-0.1-0.1-0.1-0.2-0.2-0.3c0-0.1-0.1-0.3-0.1-0.4
		c0-0.1-0.1-0.3-0.1-0.5c0-0.2,0-0.4,0-0.6c0-0.2,0.1-0.4,0.2-0.6s0.2-0.4,0.4-0.6c0.2-0.2,0.4-0.4,0.6-0.6c0.1-0.1,0.2-0.2,0.3-0.2
		c0.1-0.1,0.2-0.1,0.3-0.1c0.1,0,0.2-0.1,0.2-0.1c0.1,0,0.2,0,0.3-0.1l-0.4-2.4c-0.1,0.1-0.3,0.2-0.5,0.4c-0.2,0.2-0.5,0.4-0.8,0.7
		c-0.3,0.3-0.6,0.5-0.9,0.8s-0.5,0.6-0.7,0.9c-0.3,0.5-0.6,1-0.8,1.4c-0.2,0.4-0.2,0.9-0.2,1.4c0,0.6,0.2,1.1,0.5,1.6
		c0.3,0.5,0.7,0.9,1.2,1.2c0.5,0.3,1,0.6,1.7,0.7c0.6,0.1,1.3,0.1,1.9,0c-0.1-0.9-0.3-1.7-0.4-2.4c-0.1-0.3-0.1-0.6-0.1-0.9
		c0-0.3-0.1-0.5-0.1-0.8c0-0.2-0.1-0.5-0.1-0.8C93.4,175.5,93.1,175.6,92.8,175.7z M94.9,163.6c-0.4,0-0.7,0.2-0.9,0.5
		c-0.3,0.3-0.5,0.7-0.6,1.2c-0.2,0.5-0.3,1.1-0.3,1.7c-0.1,0.6,0,1.2,0,1.7c0.3-0.2,0.6-0.5,0.9-0.8c0.3-0.3,0.6-0.7,0.9-1
		c0.3-0.4,0.5-0.7,0.6-1.1s0.2-0.7,0.2-1.1c0-0.1,0-0.2-0.1-0.4s-0.1-0.3-0.1-0.4c-0.1-0.1-0.1-0.2-0.2-0.3
		C95.2,163.7,95,163.6,94.9,163.6z M94.9,180.2c0.4-0.1,0.7-0.3,0.9-0.5c0.2-0.2,0.4-0.5,0.5-0.7s0.2-0.5,0.2-0.8c0-0.3,0-0.5,0-0.7
		c0-0.2-0.1-0.4-0.1-0.6c-0.1-0.2-0.2-0.5-0.3-0.7c-0.2-0.2-0.4-0.4-0.7-0.6s-0.7-0.2-1.2-0.2L94.9,180.2z"/>
</g>
<g class="st0">
	<path d="M94.6,221.2c-0.3,0-0.5,0.1-0.8,0.1c-0.3,0-0.6,0-0.8,0s-0.5-0.1-0.7-0.1c-0.2,0-0.4-0.1-0.6-0.2c-0.7-0.3-1.3-0.7-1.7-1.1
		c-0.4-0.4-0.8-0.8-1-1.2c-0.2-0.4-0.4-0.8-0.5-1.2c-0.1-0.4-0.2-0.9-0.2-1.3c0-0.5,0-0.9,0.1-1.4c0.1-0.5,0.3-0.9,0.5-1.3
		c0.2-0.4,0.5-0.8,0.7-1.2c0.3-0.4,0.6-0.7,0.8-0.9c0.3-0.3,0.7-0.6,1-0.9s0.7-0.6,1.2-0.9c0-0.1,0-0.2,0-0.3c0-0.1,0-0.2,0-0.3
		c0-0.1,0-0.2-0.1-0.3c0-0.1,0-0.3,0-0.4c0-0.1,0-0.2,0-0.4c0-0.2,0-0.4,0-0.7c0-0.3,0-0.6,0-0.9c0-0.4,0.1-0.7,0.1-1.1
		c0-0.2,0.1-0.5,0.3-0.9c0.1-0.3,0.3-0.7,0.5-1c0.2-0.3,0.4-0.6,0.6-0.8c0.2-0.2,0.4-0.4,0.6-0.4c0.1,0,0.2,0.1,0.3,0.2
		c0.1,0.1,0.2,0.3,0.3,0.5c0.1,0.2,0.2,0.4,0.3,0.7c0.1,0.3,0.2,0.5,0.3,0.8c0.1,0.3,0.1,0.5,0.2,0.8c0,0.3,0.1,0.5,0.1,0.7
		c0,0.5,0,0.9-0.1,1.2c0,0.4-0.1,0.7-0.2,1c-0.1,0.3-0.2,0.5-0.3,0.8s-0.2,0.5-0.4,0.7c-0.1,0.2-0.3,0.5-0.4,0.6
		c-0.1,0.2-0.3,0.4-0.5,0.6c-0.2,0.2-0.3,0.4-0.5,0.5c-0.2,0.1-0.3,0.3-0.5,0.4c0.1,0.5,0.2,0.9,0.2,1.2c0,0.2,0.1,0.3,0.1,0.5
		c0,0.2,0,0.3,0.1,0.4s0,0.2,0.1,0.3c0,0.1,0,0.1,0,0.2c0.2,0,0.4,0,0.7,0s0.4,0.1,0.7,0.1c0.2,0,0.4,0.1,0.6,0.2s0.3,0.1,0.4,0.2
		c0.5,0.4,0.8,0.8,1,1.2c0.2,0.5,0.3,0.9,0.4,1.4c0,0.4,0,0.8-0.1,1.1c-0.1,0.4-0.2,0.7-0.5,1.1c-0.2,0.3-0.5,0.7-0.8,1
		s-0.7,0.5-1.2,0.7c0.1,0.4,0.1,0.7,0.1,1c0,0.3,0.1,0.5,0.1,0.8c0,0.3,0.1,0.4,0.1,0.5c0.1,0.5,0.1,1,0.1,1.3
		c0,0.3-0.1,0.6-0.2,0.8c-0.1,0.2-0.2,0.4-0.3,0.5c-0.1,0.2-0.3,0.3-0.5,0.5c-0.2,0.1-0.4,0.2-0.6,0.3c-0.2,0.1-0.5,0.1-0.8,0.2
		c-0.2,0-0.5,0-0.8-0.1c-0.3-0.1-0.6-0.2-0.9-0.3c-0.3-0.1-0.6-0.3-0.8-0.6c-0.2-0.3-0.3-0.6-0.4-0.9c0-0.2,0-0.4,0-0.7
		s0.1-0.4,0.2-0.6c0.1-0.2,0.3-0.3,0.4-0.4s0.4-0.2,0.7-0.2c0.2,0,0.3,0,0.5,0.1s0.3,0.1,0.5,0.2c0.1,0.1,0.3,0.2,0.4,0.4
		c0.1,0.2,0.1,0.3,0.2,0.5c0,0.3-0.1,0.7-0.3,1c-0.2,0.3-0.6,0.5-1.2,0.7c0.1,0.1,0.3,0.2,0.5,0.4s0.6,0.2,0.9,0.2
		c0.4,0,0.8-0.1,1.1-0.4c0.4-0.2,0.6-0.5,0.8-0.9c0.1-0.2,0.2-0.5,0.2-0.9c0-0.4,0-0.7-0.1-1.1c0-0.1,0-0.2-0.1-0.5
		c0-0.2-0.1-0.5-0.1-0.8C94.7,222,94.7,221.6,94.6,221.2z M92.8,216.2c-0.2,0.1-0.4,0.3-0.6,0.5c-0.1,0.2-0.2,0.4-0.3,0.6
		s-0.1,0.4-0.1,0.6c0,0.2,0,0.3,0.1,0.5s0.1,0.3,0.2,0.5s0.2,0.3,0.3,0.4c0.1,0.1,0.2,0.2,0.4,0.3c0,0,0,0,0,0s0,0,0,0s0,0,0,0.1
		c-0.3-0.1-0.5-0.3-0.7-0.5c-0.2-0.2-0.3-0.3-0.4-0.4c-0.1-0.1-0.2-0.3-0.3-0.4c-0.1-0.1-0.1-0.2-0.2-0.3c0-0.1-0.1-0.3-0.1-0.4
		c0-0.1-0.1-0.3-0.1-0.5c0-0.2,0-0.4,0-0.6c0-0.2,0.1-0.4,0.2-0.6s0.2-0.4,0.4-0.6c0.2-0.2,0.4-0.4,0.6-0.6c0.1-0.1,0.2-0.2,0.3-0.2
		c0.1-0.1,0.2-0.1,0.3-0.1c0.1,0,0.2-0.1,0.2-0.1c0.1,0,0.2,0,0.3-0.1l-0.4-2.4c-0.1,0.1-0.3,0.2-0.5,0.4c-0.2,0.2-0.5,0.4-0.8,0.7
		c-0.3,0.3-0.6,0.5-0.9,0.8s-0.5,0.6-0.7,0.9c-0.3,0.5-0.6,1-0.8,1.4c-0.2,0.4-0.2,0.9-0.2,1.4c0,0.6,0.2,1.1,0.5,1.6
		c0.3,0.5,0.7,0.9,1.2,1.2c0.5,0.3,1,0.6,1.7,0.7c0.6,0.1,1.3,0.1,1.9,0c-0.1-0.9-0.3-1.7-0.4-2.4c-0.1-0.3-0.1-0.6-0.1-0.9
		c0-0.3-0.1-0.5-0.1-0.8c0-0.2-0.1-0.5-0.1-0.8C93.4,216,93.1,216.1,92.8,216.2z M94.9,204.1c-0.4,0-0.7,0.2-0.9,0.5
		c-0.3,0.3-0.5,0.7-0.6,1.2c-0.2,0.5-0.3,1.1-0.3,1.7c-0.1,0.6,0,1.2,0,1.7c0.3-0.2,0.6-0.5,0.9-0.8c0.3-0.3,0.6-0.7,0.9-1
		c0.3-0.4,0.5-0.7,0.6-1.1s0.2-0.7,0.2-1.1c0-0.1,0-0.2-0.1-0.4s-0.1-0.3-0.1-0.4c-0.1-0.1-0.1-0.2-0.2-0.3
		C95.2,204.2,95,204.1,94.9,204.1z M94.9,220.7c0.4-0.1,0.7-0.3,0.9-0.5c0.2-0.2,0.4-0.5,0.5-0.7s0.2-0.5,0.2-0.8c0-0.3,0-0.5,0-0.7
		c0-0.2-0.1-0.4-0.1-0.6c-0.1-0.2-0.2-0.5-0.3-0.7c-0.2-0.2-0.4-0.4-0.7-0.6s-0.7-0.2-1.2-0.2L94.9,220.7z"/>
</g>
<g class="st0">
	<path d="M95.1,255.1c-0.1,0.2-0.2,0.3-0.2,0.4c-0.1,0.1-0.2,0.2-0.2,0.4c-0.1,0.1-0.2,0.2-0.3,0.3s-0.2,0.2-0.3,0.4
		c-0.1,0.1-0.2,0.3-0.3,0.4c-0.1,0.1-0.2,0.2-0.3,0.3c-0.1,0.1-0.2,0.2-0.3,0.3c-0.1,0.1-0.2,0.2-0.4,0.3c-0.2,0.1-0.3,0.3-0.5,0.4
		c-0.2,0.1-0.3,0.2-0.5,0.3c-0.2,0.1-0.3,0.2-0.5,0.2s-0.4,0.1-0.6,0.2s-0.4,0.2-0.7,0.2s-0.5,0.1-0.7,0.2c-0.3,0.1-0.5,0.1-0.8,0.1
		l-0.1-0.2c0.4-0.1,0.8-0.3,1.3-0.5c0.4-0.2,0.7-0.4,1.1-0.6s0.7-0.5,1-0.8c0.7-0.8,1.3-1.6,1.7-2.6s0.6-2,0.5-3.2
		c0-0.3,0-0.6-0.1-0.9c-0.1-0.4-0.2-0.7-0.3-1c-0.1-0.3-0.4-0.6-0.6-0.8c-0.3-0.2-0.6-0.3-1-0.3c-0.2,0-0.5,0-0.8,0.1
		c-0.3,0.1-0.5,0.2-0.7,0.4c-0.2,0.2-0.4,0.4-0.6,0.6c-0.1,0.2-0.2,0.5-0.2,0.7c0,0,0,0,0.1,0s0.1,0,0.2-0.1c0.1,0,0.2-0.1,0.4-0.1
		c0.1,0,0.3,0,0.5,0c0.2,0,0.4,0.1,0.5,0.2s0.3,0.3,0.4,0.4s0.1,0.4,0.2,0.6c0,0.2,0,0.4,0,0.6c-0.1,0.3-0.2,0.5-0.4,0.7
		c-0.2,0.2-0.5,0.3-0.8,0.3c-0.2,0-0.4,0-0.6-0.1s-0.4-0.2-0.5-0.3c-0.2-0.1-0.3-0.3-0.4-0.5c-0.1-0.2-0.1-0.4-0.1-0.7
		c0-0.4,0-0.7,0.1-1c0.1-0.3,0.2-0.6,0.4-0.8c0.1-0.2,0.3-0.4,0.4-0.5c0.2-0.1,0.3-0.2,0.4-0.3c0.3-0.2,0.7-0.3,1-0.4
		c0.3-0.1,0.7-0.1,1-0.1c0.3,0,0.7,0.1,1,0.2c0.3,0.1,0.7,0.3,1,0.5c0.3,0.2,0.6,0.5,0.8,0.8c0.2,0.3,0.4,0.6,0.6,1
		c0.2,0.4,0.2,0.8,0.2,1.3s-0.1,0.9-0.2,1.5c0,0.2-0.1,0.3-0.1,0.5c0,0.1-0.1,0.3-0.1,0.4c-0.1,0.1-0.1,0.3-0.2,0.4
		C95.2,254.8,95.2,255,95.1,255.1z M96.5,249.9c0-0.2,0.1-0.4,0.2-0.5c0.1-0.1,0.3-0.2,0.5-0.2c0.2,0,0.4,0.1,0.5,0.2
		c0.1,0.1,0.2,0.3,0.2,0.5c0,0.2-0.1,0.4-0.2,0.5s-0.3,0.2-0.5,0.2c-0.2,0-0.4-0.1-0.5-0.2C96.5,250.3,96.5,250.1,96.5,249.9z
		 M96.5,253.3c0-0.2,0.1-0.4,0.2-0.5s0.3-0.2,0.5-0.2c0.2,0,0.4,0.1,0.5,0.2c0.1,0.1,0.2,0.3,0.2,0.5c0,0.2-0.1,0.4-0.2,0.5
		s-0.3,0.2-0.5,0.2c-0.2,0-0.4-0.1-0.5-0.2C96.5,253.7,96.5,253.5,96.5,253.3z"/>
</g>
<line class="st1" x1="84.9" y1="126.7" x2="935.4" y2="126.7"/>
<line class="st1" x1="84.9" y1="130.1" x2="935.4" y2="130.1"/>
<line class="st1" x1="84.9" y1="133.5" x2="935.4" y2="133.5"/>
<line class="st1" x1="84.9" y1="136.8" x2="935.4" y2="136.8"/>
<line class="st1" x1="84.9" y1="140.2" x2="935.4" y2="140.2"/>
<line class="st1" x1="84.9" y1="167.2" x2="935.4" y2="167.2"/>
<line class="st1" x1="84.9" y1="170.6" x2="935.4" y2="170.6"/>
<line class="st1" x1="84.9" y1="174" x2="935.4" y2="174"/>
<line class="st1" x1="84.9" y1="177.3" x2="935.4" y2="177.3"/>
<line class="st1" x1="84.9" y1="180.7" x2="935.4" y2="180.7"/>
<line class="st1" x1="84.9" y1="207.7" x2="935.4" y2="207.7"/>
<line class="st1" x1="84.9" y1="211.1" x2="935.4" y2="211.1"/>
<line class="st1" x1="84.9" y1="214.5" x2="935.4" y2="214.5"/>
<line class="st1" x1="84.9" y1="217.8" x2="935.4" y2="217.8"/>
<line class="st1" x1="84.9" y1="221.2" x2="935.4" y2="221.2"/>
<line class="st1" x1="84.9" y1="248.2" x2="935.4" y2="248.2"/>
<line class="st1" x1="84.9" y1="251.6" x2="935.4" y2="251.6"/>
<line class="st1" x1="84.9" y1="255" x2="935.4" y2="255"/>
<line class="st1" x1="84.9" y1="258.3" x2="935.4" y2="258.3"/>
<line class="st1" x1="84.9" y1="261.7" x2="935.4" y2="261.7"/>
<path d="M83.2,207.7c-7.2,11.5,3.1,21.9-3.7,27h0.3c8.2-6.8-1.9-15.5,3.4-26.7L83.2,207.7z"/>
<path d="M83.2,261.7c-7.2-11.5,3.1-21.9-3.7-27h0.3c8.2,6.8-1.9,15.5,3.4,26.7L83.2,261.7z"/>
<line class="st1" x1="86.3" y1="263" x2="97" y2="242.6"/>
<g class="st0">
	<path d="M77,113.2l0.1,0.5l-0.6,0.1l0.3,1.2l-0.5,0.1l-0.3-1.2l-1.8,0.4l-0.1-0.4l1.4-3.3l0.4-0.1l0.6,2.8L77,113.2z M75.9,113.4
		l-0.5-2.2l-1.1,2.5L75.9,113.4z"/>
	<path d="M78.3,113.9c0.1,0,0.2,0,0.3,0c0.1,0.1,0.1,0.1,0.2,0.2c0,0.1,0,0.2,0,0.3c-0.1,0.1-0.1,0.1-0.2,0.2c-0.1,0-0.2,0-0.3,0
		c-0.1-0.1-0.1-0.1-0.2-0.2c0-0.1,0-0.2,0-0.3C78.1,114,78.2,113.9,78.3,113.9z"/>
</g>
<g class="st0">
	<path d="M84.5,108.6l0,0.1c-0.1,0.1-0.3,0.1-0.3,0.2c-0.1,0.1-0.2,0.3-0.2,0.5l-0.7,4.1l-0.1,0l-2.5-3.4c-0.1-0.2-0.2-0.3-0.3-0.3
		c-0.1-0.1-0.1-0.1-0.2-0.1s-0.2,0-0.3,0l0-0.1l1.8-0.4l0,0.1c-0.2,0.1-0.3,0.1-0.4,0.2c0,0.1-0.1,0.1,0,0.2c0,0.1,0.1,0.3,0.3,0.5
		l1.7,2.3l0.5-2.8c0-0.3,0.1-0.5,0-0.6c0-0.1-0.1-0.1-0.1-0.2c-0.1,0-0.2-0.1-0.3-0.1c0,0,0,0-0.1,0l0-0.1L84.5,108.6z"/>
	<path d="M87.6,112.4l0,0.1l-1.9,0.4l0-0.1l0.2,0c0.2,0,0.3-0.1,0.4-0.2c0-0.1,0-0.3,0-0.5l-0.6-2.8c0-0.2-0.1-0.4-0.1-0.4
		c0,0-0.1-0.1-0.2-0.1c-0.1,0-0.2,0-0.3,0l-0.2,0l0-0.1l1.9-0.4l0,0.1l-0.2,0c-0.2,0-0.3,0.1-0.4,0.2c0,0.1,0,0.3,0,0.5l0.6,2.8
		c0,0.2,0.1,0.4,0.1,0.4c0,0,0.1,0.1,0.2,0.1c0.1,0,0.2,0,0.3,0L87.6,112.4z"/>
	<path d="M89.8,111.9l0,0.1l-1.9,0.4l0-0.1l0.2,0c0.2,0,0.3-0.1,0.4-0.2c0-0.1,0-0.3,0-0.5l-0.6-2.8c0-0.2-0.1-0.4-0.1-0.4
		c0,0-0.1-0.1-0.2-0.1c-0.1,0-0.2,0-0.3,0l-0.2,0l0-0.1l1.9-0.4l0,0.1l-0.2,0c-0.2,0-0.3,0.1-0.4,0.2c0,0.1,0,0.3,0,0.5l0.6,2.8
		c0,0.2,0.1,0.4,0.1,0.4c0,0,0.1,0.1,0.2,0.1c0.1,0,0.2,0,0.3,0L89.8,111.9z"/>
	<path d="M90.6,111.2c0.1,0,0.2,0,0.3,0c0.1,0.1,0.1,0.1,0.2,0.2c0,0.1,0,0.2,0,0.3c-0.1,0.1-0.1,0.1-0.2,0.2c-0.1,0-0.2,0-0.3,0
		s-0.1-0.1-0.2-0.2c0-0.1,0-0.2,0-0.3C90.5,111.3,90.5,111.2,90.6,111.2z"/>
	<path d="M92.8,107.6c0.1-0.3,0.2-0.6,0.3-0.8c0.2-0.2,0.4-0.3,0.7-0.4c0.4-0.1,0.6,0,0.9,0.2c0.2,0.1,0.3,0.3,0.3,0.5
		c0.1,0.3-0.1,0.7-0.4,1.1c0.3,0,0.5,0.2,0.7,0.3s0.3,0.4,0.4,0.6c0.1,0.4,0,0.7-0.1,1.1c-0.2,0.4-0.6,0.7-1.2,0.8
		c-0.3,0.1-0.5,0.1-0.6,0c-0.1,0-0.2-0.1-0.2-0.2c0-0.1,0-0.1,0-0.2c0-0.1,0.1-0.1,0.2-0.1c0.1,0,0.1,0,0.2,0c0,0,0.1,0,0.3,0.1
		c0.1,0,0.2,0.1,0.3,0.1c0.1,0,0.2,0,0.3,0c0.2,0,0.4-0.2,0.5-0.4c0.1-0.2,0.2-0.4,0.1-0.7c0-0.2-0.1-0.3-0.2-0.5
		c-0.1-0.1-0.2-0.2-0.2-0.2c-0.1-0.1-0.3-0.1-0.4-0.1c-0.2,0-0.3,0-0.5,0l-0.1,0l0-0.1c0.2-0.1,0.3-0.2,0.5-0.3
		c0.1-0.1,0.2-0.3,0.3-0.4c0-0.2,0.1-0.3,0-0.5c0-0.2-0.2-0.4-0.3-0.5c-0.2-0.1-0.4-0.1-0.6-0.1c-0.3,0.1-0.6,0.3-0.7,0.7
		L92.8,107.6z"/>
	<path d="M99.3,108.2l0.1,0.5l-0.6,0.1L99,110l-0.5,0.1l-0.3-1.2l-1.8,0.4l-0.1-0.4l1.4-3.3l0.4-0.1l0.6,2.8L99.3,108.2z
		 M98.1,108.5l-0.5-2.2l-1.1,2.5L98.1,108.5z"/>
</g>
<g class="st0">
	<path d="M51.3,77.9l1-4.8h1.5c0.3,0,0.5,0,0.6,0c0.2,0,0.4,0.1,0.5,0.2c0.1,0.1,0.3,0.2,0.3,0.4c0.1,0.2,0.1,0.3,0.1,0.5
		c0,0.3-0.1,0.5-0.2,0.7s-0.4,0.4-0.7,0.5c0.3,0.1,0.5,0.2,0.6,0.4c0.1,0.2,0.2,0.4,0.2,0.6c0,0.3-0.1,0.5-0.2,0.8s-0.4,0.4-0.6,0.6
		s-0.5,0.2-0.8,0.2H51.3z M52.1,77.4h1.1c0.3,0,0.5,0,0.6,0c0.2,0,0.4-0.1,0.5-0.2c0.1-0.1,0.2-0.2,0.3-0.3c0.1-0.1,0.1-0.3,0.1-0.4
		c0-0.2-0.1-0.4-0.2-0.5c-0.1-0.1-0.4-0.2-0.8-0.2h-1.2L52.1,77.4z M52.5,75.1h1c0.5,0,0.8-0.1,1-0.2c0.2-0.1,0.3-0.4,0.3-0.7
		c0-0.1,0-0.3-0.1-0.4c-0.1-0.1-0.1-0.2-0.3-0.2c-0.1,0-0.3-0.1-0.6-0.1h-1L52.5,75.1z"/>
	<path d="M55.7,77.9l1-4.8h0.6l-1,4.8H55.7z"/>
	<path d="M57.4,77.9l0.1-0.7h0.7l-0.1,0.7H57.4z"/>
	<path d="M61.1,76.6l0.6-0.1c0,0.3,0.1,0.6,0.3,0.7c0.2,0.1,0.3,0.2,0.6,0.2c0.3,0,0.5-0.1,0.8-0.3c0.2-0.2,0.3-0.5,0.3-0.7
		c0-0.2-0.1-0.4-0.2-0.6c-0.2-0.2-0.4-0.2-0.6-0.2c0,0-0.1,0-0.2,0l0.1-0.5c0.1,0,0.1,0,0.2,0c0.3,0,0.6-0.1,0.8-0.2
		s0.3-0.4,0.3-0.6c0-0.2-0.1-0.4-0.2-0.6c-0.2-0.2-0.3-0.2-0.6-0.2c-0.2,0-0.4,0.1-0.6,0.2c-0.2,0.2-0.3,0.4-0.3,0.7l-0.6-0.1
		c0.1-0.4,0.3-0.7,0.6-0.9c0.3-0.2,0.6-0.3,1-0.3c0.4,0,0.7,0.1,1,0.4s0.4,0.5,0.4,0.9c0,0.3-0.1,0.5-0.2,0.7
		c-0.1,0.2-0.3,0.3-0.6,0.5c0.2,0.1,0.3,0.2,0.4,0.4c0.1,0.2,0.1,0.3,0.1,0.5c0,0.4-0.2,0.8-0.5,1.1S63.1,78,62.6,78
		c-0.4,0-0.8-0.1-1.1-0.4C61.3,77.4,61.2,77.1,61.1,76.6z"/>
	<path d="M66,75.3c-0.2-0.1-0.3-0.2-0.4-0.4c-0.1-0.2-0.1-0.3-0.1-0.5c0-0.3,0.1-0.6,0.3-0.8c0.3-0.3,0.7-0.5,1.1-0.5
		c0.4,0,0.8,0.1,1,0.3c0.2,0.2,0.4,0.5,0.4,0.8c0,0.2-0.1,0.4-0.2,0.6c-0.1,0.2-0.3,0.3-0.6,0.5c0.2,0.1,0.3,0.2,0.4,0.4
		c0.1,0.2,0.2,0.4,0.2,0.6c0,0.4-0.2,0.8-0.5,1.2c-0.3,0.3-0.7,0.5-1.2,0.5c-0.4,0-0.7-0.1-1-0.4c-0.3-0.3-0.4-0.6-0.4-0.9
		c0-0.4,0.1-0.7,0.3-0.9C65.5,75.5,65.7,75.3,66,75.3z M65.6,76.7c0,0.1,0,0.3,0.1,0.4c0.1,0.1,0.2,0.2,0.3,0.3s0.3,0.1,0.5,0.1
		c0.3,0,0.6-0.2,0.8-0.5c0.2-0.2,0.2-0.5,0.2-0.8c0-0.2-0.1-0.4-0.2-0.5c-0.1-0.1-0.3-0.2-0.6-0.2c-0.3,0-0.6,0.1-0.8,0.3
		S65.6,76.4,65.6,76.7z M66.1,74.4c0,0.2,0.1,0.4,0.2,0.5c0.1,0.1,0.3,0.2,0.5,0.2c0.3,0,0.5-0.1,0.7-0.2c0.2-0.2,0.3-0.4,0.3-0.6
		c0-0.2-0.1-0.4-0.2-0.5c-0.1-0.1-0.3-0.2-0.5-0.2c-0.2,0-0.3,0-0.5,0.1c-0.1,0.1-0.3,0.2-0.3,0.3C66.1,74.1,66.1,74.3,66.1,74.4z"
		/>
</g>
<g class="st0">
	<path d="M68.9,75.7l-0.3-2h0.3l0.2,1.1c0,0.1,0,0.3,0.1,0.6c0.1-0.1,0.2-0.3,0.3-0.5l0.7-1.2h0.4l-1.2,2H68.9z"/>
</g>
<g class="st0">
	<path d="M52.6,136.8l0.8-3.6c-0.3,0.3-0.8,0.5-1.4,0.6l0.1-0.5c0.3-0.1,0.6-0.3,0.9-0.5c0.3-0.2,0.5-0.4,0.7-0.5
		c0.1-0.1,0.2-0.2,0.3-0.3h0.3l-1,4.9H52.6z"/>
</g>
<g class="st0">
	<path d="M51.4,177.3c0.1-0.3,0.1-0.5,0.3-0.7s0.3-0.4,0.4-0.6s0.5-0.5,1-0.9c0.3-0.2,0.5-0.4,0.6-0.6c0.2-0.2,0.3-0.3,0.4-0.5
		c0.1-0.1,0.1-0.2,0.1-0.4c0-0.2-0.1-0.4-0.2-0.6c-0.2-0.2-0.4-0.2-0.6-0.2c-0.2,0-0.4,0.1-0.6,0.2c-0.2,0.2-0.3,0.4-0.4,0.8
		l-0.6-0.1c0.1-0.4,0.2-0.8,0.5-1c0.3-0.2,0.6-0.4,1-0.4c0.3,0,0.5,0.1,0.7,0.2c0.2,0.1,0.4,0.3,0.5,0.5c0.1,0.2,0.2,0.4,0.2,0.6
		c0,0.3-0.1,0.6-0.3,0.9c-0.1,0.2-0.6,0.5-1.2,1.1c-0.3,0.2-0.5,0.4-0.7,0.6c-0.1,0.1-0.3,0.3-0.3,0.4h2.2l-0.1,0.5H51.4z"/>
</g>
<g class="st0">
	<path d="M51.4,216.6l0.6-0.1c0,0.3,0.1,0.6,0.3,0.7c0.2,0.1,0.3,0.2,0.6,0.2c0.3,0,0.5-0.1,0.8-0.3c0.2-0.2,0.3-0.5,0.3-0.7
		c0-0.2-0.1-0.4-0.2-0.6c-0.2-0.2-0.4-0.2-0.6-0.2c0,0-0.1,0-0.2,0l0.1-0.5c0.1,0,0.1,0,0.2,0c0.3,0,0.6-0.1,0.8-0.2
		s0.3-0.4,0.3-0.6c0-0.2-0.1-0.4-0.2-0.6c-0.2-0.2-0.3-0.2-0.6-0.2c-0.2,0-0.4,0.1-0.6,0.2c-0.2,0.2-0.3,0.4-0.3,0.7l-0.6-0.1
		c0.1-0.4,0.3-0.7,0.6-0.9c0.3-0.2,0.6-0.3,1-0.3c0.4,0,0.7,0.1,1,0.4s0.4,0.5,0.4,0.9c0,0.3-0.1,0.5-0.2,0.7
		c-0.1,0.2-0.3,0.3-0.6,0.5c0.2,0.1,0.3,0.2,0.4,0.4c0.1,0.2,0.1,0.3,0.1,0.5c0,0.4-0.2,0.8-0.5,1.1s-0.7,0.5-1.2,0.5
		c-0.4,0-0.8-0.1-1.1-0.4C51.6,217.3,51.4,217,51.4,216.6z"/>
</g>
<g class="st0">
	<path d="M53,258.3l0.3-1.2h-2l0.1-0.6l2.7-3h0.5l-0.6,3.1h0.7l-0.1,0.5h-0.7l-0.3,1.2H53z M53.4,256.6l0.4-2l-1.8,2H53.4z"/>
</g>
<path class="st2" d="M84.8,126.7l0.1,134.9"/>
<g class="st0">
	<path d="M136.3,109.6v-0.3c0.5-0.3,0.8-0.5,0.9-0.7c0.1-0.2,0.2-0.5,0.2-0.7c0-0.1,0-0.2-0.1-0.3c-0.1-0.1-0.1-0.1-0.2-0.1
		c0,0-0.1,0-0.2,0.1s-0.2,0.1-0.3,0.1c-0.2,0-0.4-0.1-0.5-0.2s-0.2-0.3-0.2-0.5c0-0.2,0.1-0.4,0.3-0.6s0.4-0.2,0.6-0.2
		c0.3,0,0.6,0.1,0.8,0.4s0.4,0.6,0.4,1c0,0.5-0.2,0.9-0.5,1.3S136.9,109.4,136.3,109.6z M139.6,109.6v-0.3c0.4-0.2,0.7-0.4,0.9-0.7
		c0.2-0.2,0.3-0.5,0.3-0.7c0-0.2,0-0.3-0.1-0.3c0-0.1-0.1-0.1-0.2-0.1c-0.1,0-0.1,0-0.2,0.1c-0.1,0-0.2,0.1-0.3,0.1
		c-0.2,0-0.3-0.1-0.5-0.2s-0.2-0.3-0.2-0.5c0-0.2,0.1-0.4,0.3-0.6s0.4-0.2,0.6-0.2c0.3,0,0.6,0.1,0.8,0.4c0.2,0.3,0.4,0.6,0.4,1
		c0,0.5-0.2,0.9-0.5,1.3C140.6,109.1,140.2,109.4,139.6,109.6z"/>
</g>
<g class="st0">
	<path d="M154.9,98.2v0.3c-0.2,0-0.4,0-0.6,0.1s-0.3,0.2-0.4,0.5c-0.1,0.2-0.2,0.5-0.4,1.1l-2.6,7.5h-0.3l-2.1-5.9l-2.1,5.9h-0.2
		l-2.8-7.7c-0.2-0.6-0.3-0.9-0.4-1c-0.1-0.2-0.2-0.3-0.4-0.4c-0.2-0.1-0.4-0.1-0.6-0.1v-0.3h3.4v0.3h-0.2c-0.2,0-0.4,0.1-0.6,0.2
		s-0.2,0.2-0.2,0.4c0,0.2,0.1,0.5,0.3,1.1l1.8,5.2l1.5-4.4l-0.3-0.8l-0.2-0.6c-0.1-0.2-0.2-0.4-0.3-0.6c-0.1-0.1-0.1-0.2-0.2-0.2
		c-0.1-0.1-0.2-0.1-0.3-0.2c-0.1,0-0.2,0-0.4,0v-0.3h3.6v0.3h-0.2c-0.3,0-0.4,0.1-0.6,0.2S149,98.9,149,99c0,0.2,0.1,0.6,0.3,1.2
		l1.8,5l1.8-5.1c0.2-0.6,0.3-1,0.3-1.2c0-0.1,0-0.2-0.1-0.3s-0.1-0.2-0.2-0.2c-0.2-0.1-0.4-0.1-0.7-0.1v-0.3H154.9z"/>
</g>
<g class="st0">
	<path d="M157,101v5c0,0.4,0,0.7,0.1,0.8c0.1,0.1,0.1,0.2,0.3,0.3s0.3,0.1,0.6,0.1v0.2h-3v-0.2c0.3,0,0.5,0,0.6-0.1s0.2-0.2,0.2-0.3
		s0.1-0.4,0.1-0.8v-2.4c0-0.7,0-1.1-0.1-1.3c0-0.1-0.1-0.2-0.2-0.3c-0.1-0.1-0.2-0.1-0.3-0.1c-0.1,0-0.3,0-0.5,0.1l-0.1-0.2l1.9-0.8
		H157z M156.5,97.7c0.2,0,0.4,0.1,0.5,0.2c0.1,0.1,0.2,0.3,0.2,0.5s-0.1,0.4-0.2,0.5s-0.3,0.2-0.5,0.2s-0.4-0.1-0.5-0.2
		s-0.2-0.3-0.2-0.5s0.1-0.4,0.2-0.5C156.1,97.8,156.3,97.7,156.5,97.7z"/>
	<path d="M159.8,103.5c0,0.9,0.2,1.7,0.7,2.2s1,0.8,1.6,0.8c0.4,0,0.8-0.1,1.1-0.3c0.3-0.2,0.6-0.6,0.8-1.2l0.2,0.1
		c-0.1,0.6-0.4,1.2-0.8,1.7c-0.5,0.5-1,0.8-1.7,0.8c-0.8,0-1.4-0.3-1.9-0.9c-0.5-0.6-0.8-1.4-0.8-2.4c0-1.1,0.3-1.9,0.8-2.5
		c0.5-0.6,1.2-0.9,2.1-0.9c0.7,0,1.3,0.2,1.7,0.7c0.5,0.5,0.7,1.1,0.7,1.9H159.8z M159.8,103.2h2.9c0-0.4-0.1-0.7-0.1-0.8
		c-0.1-0.3-0.3-0.5-0.5-0.6s-0.5-0.2-0.7-0.2c-0.4,0-0.7,0.1-1,0.4C160,102.2,159.9,102.6,159.8,103.2z"/>
	<path d="M170.2,102.3c0.6-0.8,1.3-1.3,2-1.3c0.6,0,1.2,0.3,1.7,0.8c0.5,0.5,0.7,1.3,0.7,2.3c0,1.1-0.4,2-1.1,2.7
		c-0.6,0.6-1.3,0.9-2.1,0.9c-0.4,0-0.7-0.1-1.1-0.2s-0.8-0.3-1.2-0.6v-6.5c0-0.7,0-1.1-0.1-1.3s-0.1-0.3-0.2-0.3s-0.2-0.1-0.3-0.1
		c-0.1,0-0.3,0-0.5,0.1l-0.1-0.2l1.9-0.8h0.3V102.3z M170.2,102.7v3.7c0.2,0.2,0.5,0.4,0.7,0.5c0.2,0.1,0.5,0.2,0.8,0.2
		c0.4,0,0.8-0.2,1.2-0.7s0.5-1.1,0.5-2c0-0.8-0.2-1.4-0.5-1.8c-0.4-0.4-0.8-0.6-1.2-0.6c-0.2,0-0.5,0.1-0.7,0.2
		C170.7,102.2,170.5,102.4,170.2,102.7z"/>
	<path d="M177.6,101v5c0,0.4,0,0.7,0.1,0.8c0.1,0.1,0.1,0.2,0.3,0.3s0.3,0.1,0.6,0.1v0.2h-3v-0.2c0.3,0,0.5,0,0.6-0.1
		s0.2-0.2,0.2-0.3s0.1-0.4,0.1-0.8v-2.4c0-0.7,0-1.1-0.1-1.3c0-0.1-0.1-0.2-0.2-0.3c-0.1-0.1-0.2-0.1-0.3-0.1c-0.1,0-0.3,0-0.5,0.1
		l-0.1-0.2l1.9-0.8H177.6z M177.1,97.7c0.2,0,0.4,0.1,0.5,0.2c0.1,0.1,0.2,0.3,0.2,0.5s-0.1,0.4-0.2,0.5s-0.3,0.2-0.5,0.2
		s-0.4-0.1-0.5-0.2s-0.2-0.3-0.2-0.5s0.1-0.4,0.2-0.5C176.7,97.8,176.9,97.7,177.1,97.7z"/>
	<path d="M181.2,102.3c0.7-0.9,1.4-1.3,2.1-1.3c0.3,0,0.6,0.1,0.9,0.3c0.2,0.2,0.4,0.5,0.6,0.8c0.1,0.3,0.2,0.7,0.2,1.3v2.7
		c0,0.4,0,0.7,0.1,0.8c0.1,0.1,0.1,0.2,0.2,0.3s0.3,0.1,0.6,0.1v0.2h-3.1v-0.2h0.1c0.3,0,0.5,0,0.6-0.1c0.1-0.1,0.2-0.2,0.2-0.4
		c0-0.1,0-0.3,0-0.6v-2.6c0-0.6-0.1-1-0.2-1.2c-0.1-0.3-0.4-0.4-0.7-0.4c-0.5,0-1.1,0.3-1.6,0.9v3.3c0,0.4,0,0.7,0.1,0.8
		c0.1,0.1,0.2,0.2,0.3,0.3c0.1,0.1,0.3,0.1,0.7,0.1v0.2h-3.1v-0.2h0.1c0.3,0,0.5-0.1,0.6-0.2c0.1-0.2,0.2-0.5,0.2-0.9v-2.3
		c0-0.8,0-1.2-0.1-1.4s-0.1-0.3-0.2-0.3s-0.2-0.1-0.3-0.1c-0.1,0-0.3,0-0.5,0.1l-0.1-0.2l1.9-0.8h0.3V102.3z"/>
	<path d="M192,101v5c0,0.4,0,0.7,0.1,0.8c0.1,0.1,0.1,0.2,0.3,0.3s0.3,0.1,0.6,0.1v0.2h-3v-0.2c0.3,0,0.5,0,0.6-0.1s0.2-0.2,0.2-0.3
		s0.1-0.4,0.1-0.8v-2.4c0-0.7,0-1.1-0.1-1.3c0-0.1-0.1-0.2-0.2-0.3c-0.1-0.1-0.2-0.1-0.3-0.1c-0.1,0-0.3,0-0.5,0.1l-0.1-0.2l1.9-0.8
		H192z M191.5,97.7c0.2,0,0.4,0.1,0.5,0.2c0.1,0.1,0.2,0.3,0.2,0.5s-0.1,0.4-0.2,0.5s-0.3,0.2-0.5,0.2s-0.4-0.1-0.5-0.2
		s-0.2-0.3-0.2-0.5s0.1-0.4,0.2-0.5C191.1,97.8,191.3,97.7,191.5,97.7z"/>
	<path d="M199.1,105.1c-0.2,0.8-0.5,1.5-1,1.9c-0.5,0.4-1,0.7-1.6,0.7c-0.7,0-1.3-0.3-1.9-0.9s-0.8-1.4-0.8-2.4c0-1,0.3-1.8,0.9-2.4
		s1.3-0.9,2.1-0.9c0.6,0,1.1,0.2,1.5,0.5c0.4,0.3,0.6,0.7,0.6,1c0,0.2-0.1,0.3-0.2,0.4c-0.1,0.1-0.3,0.2-0.5,0.2
		c-0.3,0-0.5-0.1-0.6-0.3c-0.1-0.1-0.1-0.3-0.2-0.5s-0.1-0.5-0.3-0.6c-0.2-0.1-0.4-0.2-0.7-0.2c-0.5,0-0.8,0.2-1.1,0.5
		c-0.4,0.4-0.6,1-0.6,1.8c0,0.7,0.2,1.4,0.6,2c0.4,0.6,0.9,0.9,1.5,0.9c0.4,0,0.8-0.2,1.2-0.5c0.3-0.2,0.5-0.6,0.7-1.1L199.1,105.1z
		"/>
	<path d="M201.8,97.7v4.6c0.5-0.6,0.9-0.9,1.2-1.1c0.3-0.2,0.6-0.2,0.9-0.2c0.4,0,0.7,0.1,0.9,0.3s0.4,0.5,0.6,0.9
		c0.1,0.3,0.1,0.8,0.1,1.6v2.2c0,0.4,0,0.7,0.1,0.8c0,0.1,0.1,0.2,0.2,0.3s0.3,0.1,0.6,0.1v0.2h-3.1v-0.2h0.1c0.3,0,0.5,0,0.6-0.1
		c0.1-0.1,0.2-0.2,0.2-0.4c0-0.1,0-0.3,0-0.6v-2.2c0-0.7,0-1.1-0.1-1.3s-0.2-0.4-0.3-0.5c-0.2-0.1-0.3-0.2-0.6-0.2
		c-0.2,0-0.5,0.1-0.7,0.2s-0.5,0.4-0.9,0.7v3.3c0,0.4,0,0.7,0.1,0.8s0.1,0.2,0.3,0.3c0.1,0.1,0.4,0.1,0.7,0.1v0.2h-3.1v-0.2
		c0.3,0,0.5,0,0.7-0.1c0.1,0,0.2-0.1,0.2-0.3s0.1-0.4,0.1-0.8v-5.7c0-0.7,0-1.2-0.1-1.3s-0.1-0.3-0.2-0.3s-0.2-0.1-0.3-0.1
		c-0.1,0-0.3,0-0.5,0.1l-0.1-0.2l1.9-0.8H201.8z"/>
	<path d="M212.9,101.7v4.1c0,0.6,0.1,1,0.2,1.1c0.2,0.2,0.4,0.3,0.7,0.3h0.6v0.2h-3.7v-0.2h0.3c0.2,0,0.3,0,0.5-0.1s0.3-0.2,0.3-0.4
		s0.1-0.5,0.1-0.9v-4.1h-1.2v-0.5h1.2v-0.4c0-0.6,0.1-1.2,0.3-1.6s0.5-0.8,0.9-1c0.4-0.3,0.9-0.4,1.4-0.4c0.5,0,0.9,0.2,1.3,0.5
		c0.3,0.2,0.4,0.4,0.4,0.7c0,0.1-0.1,0.3-0.2,0.4c-0.1,0.1-0.2,0.2-0.4,0.2c-0.1,0-0.2,0-0.3-0.1c-0.1-0.1-0.3-0.2-0.4-0.5
		c-0.2-0.2-0.3-0.4-0.5-0.5s-0.3-0.1-0.5-0.1c-0.2,0-0.4,0.1-0.5,0.2c-0.1,0.1-0.3,0.3-0.3,0.5c-0.1,0.2-0.1,0.8-0.1,1.8v0.5h1.6
		v0.5H212.9z"/>
	<path d="M217,101v1.4c0.5-0.9,1.1-1.4,1.6-1.4c0.3,0,0.5,0.1,0.6,0.2c0.2,0.2,0.2,0.3,0.2,0.5c0,0.2-0.1,0.3-0.2,0.5
		s-0.3,0.2-0.4,0.2c-0.2,0-0.3-0.1-0.5-0.2c-0.2-0.2-0.3-0.2-0.4-0.2c-0.1,0-0.2,0-0.3,0.1c-0.2,0.2-0.4,0.5-0.6,0.9v3
		c0,0.3,0,0.6,0.1,0.8c0.1,0.1,0.2,0.2,0.3,0.3s0.4,0.1,0.6,0.1v0.2h-3.2v-0.2c0.3,0,0.6,0,0.7-0.2c0.1-0.1,0.2-0.2,0.2-0.3
		c0-0.1,0-0.3,0-0.7v-2.4c0-0.7,0-1.2,0-1.3c0-0.1-0.1-0.2-0.2-0.3s-0.2-0.1-0.3-0.1c-0.1,0-0.3,0-0.5,0.1l-0.1-0.2l1.9-0.8H217z"/>
	<path d="M222.9,101c0.9,0,1.7,0.4,2.3,1.1c0.5,0.6,0.7,1.3,0.7,2.1c0,0.6-0.1,1.1-0.4,1.7s-0.6,1-1.1,1.3s-1,0.4-1.6,0.4
		c-0.9,0-1.7-0.4-2.2-1.1c-0.5-0.6-0.7-1.3-0.7-2.1c0-0.6,0.1-1.1,0.4-1.7c0.3-0.6,0.7-1,1.1-1.3C221.8,101.1,222.3,101,222.9,101z
		 M222.6,101.4c-0.2,0-0.5,0.1-0.7,0.2c-0.2,0.1-0.4,0.4-0.6,0.8s-0.2,0.8-0.2,1.4c0,0.9,0.2,1.7,0.5,2.4s0.8,1,1.4,1
		c0.4,0,0.8-0.2,1.1-0.5s0.4-1,0.4-1.9c0-1.1-0.2-2-0.7-2.6C223.6,101.7,223.1,101.4,222.6,101.4z"/>
	<path d="M228.6,97.7v4.6c0.5-0.6,0.9-0.9,1.2-1.1c0.3-0.2,0.6-0.2,0.9-0.2c0.4,0,0.7,0.1,0.9,0.3s0.4,0.5,0.6,0.9
		c0.1,0.3,0.1,0.8,0.1,1.6v2.2c0,0.4,0,0.7,0.1,0.8c0,0.1,0.1,0.2,0.2,0.3s0.3,0.1,0.6,0.1v0.2h-3.1v-0.2h0.1c0.3,0,0.5,0,0.6-0.1
		c0.1-0.1,0.2-0.2,0.2-0.4c0-0.1,0-0.3,0-0.6v-2.2c0-0.7,0-1.1-0.1-1.3s-0.2-0.4-0.3-0.5c-0.2-0.1-0.3-0.2-0.6-0.2
		c-0.2,0-0.5,0.1-0.7,0.2s-0.5,0.4-0.9,0.7v3.3c0,0.4,0,0.7,0.1,0.8s0.1,0.2,0.3,0.3c0.1,0.1,0.4,0.1,0.7,0.1v0.2h-3.1v-0.2
		c0.3,0,0.5,0,0.7-0.1c0.1,0,0.2-0.1,0.2-0.3s0.1-0.4,0.1-0.8v-5.7c0-0.7,0-1.2-0.1-1.3s-0.1-0.3-0.2-0.3s-0.2-0.1-0.3-0.1
		c-0.1,0-0.3,0-0.5,0.1l-0.1-0.2l1.9-0.8H228.6z"/>
	<path d="M235.8,105h-0.3l-0.6-5.5c0-0.2,0-0.4,0-0.5c0-0.3,0.1-0.5,0.2-0.7s0.3-0.3,0.6-0.3s0.4,0.1,0.5,0.3s0.2,0.4,0.2,0.8
		c0,0.1,0,0.3,0,0.5L235.8,105z M235.7,106.1c0.2,0,0.4,0.1,0.5,0.2c0.1,0.1,0.2,0.3,0.2,0.5c0,0.2-0.1,0.4-0.2,0.5
		c-0.1,0.1-0.3,0.2-0.5,0.2s-0.4-0.1-0.5-0.2c-0.1-0.1-0.2-0.3-0.2-0.5c0-0.2,0.1-0.4,0.2-0.5C235.3,106.2,235.5,106.1,235.7,106.1z
		"/>
	<path d="M240.2,101.5c-0.5-0.2-1-0.5-1.3-0.9s-0.5-0.8-0.5-1.3c0-0.4,0.1-0.7,0.4-1s0.5-0.4,0.8-0.4c0.2,0,0.4,0.1,0.6,0.2
		s0.3,0.3,0.3,0.6c0,0.2-0.1,0.4-0.2,0.5c-0.2,0.1-0.3,0.2-0.5,0.2c-0.1,0-0.2,0-0.3-0.1c-0.1,0-0.1,0-0.2,0c-0.2,0-0.3,0.1-0.3,0.4
		c0,0.3,0.1,0.6,0.3,0.8s0.5,0.4,0.8,0.6V101.5z M243.5,101.5c-0.5-0.2-1-0.5-1.3-0.9s-0.5-0.8-0.5-1.3c0-0.4,0.1-0.7,0.4-1
		s0.5-0.4,0.8-0.4c0.2,0,0.4,0.1,0.6,0.2s0.3,0.3,0.3,0.6c0,0.2-0.1,0.4-0.2,0.5c-0.2,0.1-0.3,0.2-0.5,0.2c-0.1,0-0.2,0-0.3-0.1
		c-0.1,0-0.1,0-0.2,0c-0.2,0-0.3,0.1-0.3,0.4c0,0.3,0.1,0.6,0.3,0.8s0.5,0.4,0.8,0.6V101.5z"/>
</g>
<rect x="359" y="117.9" class="st3" width="164" height="30.2"/>
<rect x="359" y="117.9" class="st4" width="175.2" height="30.2"/>
<g class="st0">
	<path d="M51.9,46.5v-8.6h2.6l1.6,5.9l1.5-5.9h2.6v8.6h-1.6v-6.8l-1.7,6.8h-1.7l-1.7-6.8v6.8H51.9z"/>
	<path d="M64.8,44.2l1.6-0.2c0.1,0.4,0.2,0.7,0.4,0.9s0.5,0.3,0.8,0.3c0.3,0,0.6-0.1,0.9-0.4s0.3-0.6,0.3-1c0-0.4-0.1-0.7-0.3-1
		s-0.5-0.4-0.8-0.4c-0.2,0-0.5,0-0.8,0.1l0.2-1.3c0.4,0,0.8-0.1,1-0.3s0.4-0.5,0.4-0.8c0-0.3-0.1-0.5-0.3-0.7s-0.4-0.3-0.7-0.3
		c-0.3,0-0.5,0.1-0.7,0.3s-0.3,0.5-0.4,0.9l-1.5-0.3c0.1-0.5,0.3-0.9,0.5-1.2s0.5-0.6,0.9-0.7s0.8-0.3,1.3-0.3
		c0.8,0,1.5,0.3,1.9,0.8c0.4,0.4,0.6,0.9,0.6,1.4c0,0.8-0.4,1.4-1.2,1.8c0.5,0.1,0.9,0.3,1.2,0.7s0.4,0.8,0.4,1.3
		c0,0.8-0.3,1.4-0.8,1.9s-1.2,0.8-2.1,0.8c-0.8,0-1.4-0.2-1.9-0.7S64.9,44.9,64.8,44.2z"/>
	<path d="M75.7,46.5h-1.6v-6.2c-0.6,0.6-1.3,1-2.1,1.2V40c0.4-0.1,0.9-0.4,1.4-0.8s0.8-0.9,1-1.4h1.3V46.5z"/>
	<path d="M78.2,39.6V38h5.6v1.2c-0.5,0.5-0.9,1.1-1.4,2s-0.8,1.8-1.1,2.7s-0.4,1.8-0.4,2.6h-1.6c0-1.2,0.3-2.4,0.7-3.6
		s1.1-2.3,1.9-3.3H78.2z"/>
	<path d="M88.1,43.7l1.7-0.2c0.1,0.6,0.3,1,0.6,1.2s0.7,0.4,1.3,0.4c0.6,0,1-0.1,1.3-0.4s0.4-0.5,0.4-0.8c0-0.2-0.1-0.4-0.2-0.5
		s-0.3-0.3-0.6-0.4c-0.2-0.1-0.7-0.2-1.4-0.4c-0.9-0.2-1.6-0.5-2-0.8c-0.5-0.5-0.8-1-0.8-1.7c0-0.4,0.1-0.8,0.4-1.2s0.6-0.7,1.1-0.9
		s1-0.3,1.7-0.3c1.1,0,1.9,0.2,2.4,0.7s0.8,1.1,0.9,1.9l-1.7,0.1c-0.1-0.4-0.2-0.8-0.5-1s-0.6-0.3-1.1-0.3c-0.5,0-0.9,0.1-1.2,0.3
		c-0.2,0.1-0.3,0.3-0.3,0.5c0,0.2,0.1,0.4,0.3,0.5c0.2,0.2,0.8,0.4,1.6,0.6s1.5,0.4,1.9,0.6s0.7,0.5,0.9,0.9s0.3,0.8,0.3,1.4
		c0,0.5-0.1,1-0.4,1.4s-0.7,0.7-1.2,1s-1.1,0.3-1.9,0.3c-1.1,0-1.9-0.3-2.5-0.8S88.2,44.7,88.1,43.7z"/>
	<path d="M96.5,46.5v-8.6h1.6v4.6l1.9-2.2h2l-2.1,2.3l2.3,3.9h-1.8l-1.6-2.8l-0.8,0.8v2H96.5z"/>
	<path d="M102.8,44.2l1.6-0.2c0.1,0.4,0.2,0.7,0.4,0.9s0.5,0.3,0.8,0.3c0.3,0,0.6-0.1,0.9-0.4s0.3-0.6,0.3-1c0-0.4-0.1-0.7-0.3-1
		s-0.5-0.4-0.8-0.4c-0.2,0-0.5,0-0.8,0.1l0.2-1.3c0.4,0,0.8-0.1,1-0.3s0.4-0.5,0.4-0.8c0-0.3-0.1-0.5-0.3-0.7s-0.4-0.3-0.7-0.3
		c-0.3,0-0.5,0.1-0.7,0.3s-0.3,0.5-0.4,0.9l-1.5-0.3c0.1-0.5,0.3-0.9,0.5-1.2s0.5-0.6,0.9-0.7s0.8-0.3,1.3-0.3
		c0.8,0,1.5,0.3,1.9,0.8c0.4,0.4,0.6,0.9,0.6,1.4c0,0.8-0.4,1.4-1.2,1.8c0.5,0.1,0.9,0.3,1.2,0.7s0.4,0.8,0.4,1.3
		c0,0.8-0.3,1.4-0.8,1.9s-1.2,0.8-2.1,0.8c-0.8,0-1.4-0.2-1.9-0.7S102.9,44.9,102.8,44.2z"/>
	<path d="M109.9,46.5v-1.6h1.6v1.6H109.9z"/>
	<path d="M117.1,46.5h-1.6v-6.2c-0.6,0.6-1.3,1-2.1,1.2V40c0.4-0.1,0.9-0.4,1.4-0.8s0.8-0.9,1-1.4h1.3V46.5z"/>
	<path d="M119.9,46.5v-1.6h1.6v1.6H119.9z"/>
	<path d="M128.5,45v1.5h-5.8c0.1-0.6,0.2-1.1,0.6-1.6s0.9-1.2,1.9-2.1c0.7-0.7,1.2-1.2,1.4-1.4c0.2-0.3,0.3-0.7,0.3-1
		c0-0.4-0.1-0.6-0.3-0.8s-0.5-0.3-0.8-0.3c-0.3,0-0.6,0.1-0.8,0.3s-0.3,0.6-0.4,1l-1.6-0.2c0.1-0.9,0.4-1.6,0.9-2s1.2-0.6,1.9-0.6
		c0.8,0,1.5,0.2,2,0.7s0.7,1,0.7,1.7c0,0.4-0.1,0.8-0.2,1.1s-0.4,0.7-0.7,1.1c-0.2,0.3-0.6,0.6-1.1,1.1s-0.8,0.8-1,0.9
		s-0.3,0.3-0.3,0.5H128.5z"/>
</g>
<rect x="807" y="117.9" class="st4" width="126.6" height="30.2"/>
<polygon class="st4" points="538.5,117.9 538.5,148.1 708.5,148.1 708.5,231.4 803.5,231.4 803.5,190.4 933.6,190.4 933.6,159.4 
	804.5,159.4 804.5,117.9 "/>
<rect x="552.7" y="159.5" class="st4" width="141.3" height="30.2"/>
<g class="st0">
	<path d="M104.5,171.9c0,0.3-0.1,0.6-0.3,0.9c-0.2,0.3-0.4,0.5-0.7,0.6s-0.6,0.3-0.9,0.4s-0.6,0.1-0.8,0.1c-0.3,0-0.7,0-1-0.1
		c-0.3-0.1-0.5-0.2-0.8-0.4c-0.2-0.2-0.4-0.3-0.5-0.6c-0.1-0.2-0.2-0.5-0.2-0.7c0-0.1,0-0.2,0.1-0.4c0.1-0.1,0.1-0.2,0.2-0.3
		c0.1-0.1,0.2-0.2,0.3-0.2c0.1-0.1,0.2-0.1,0.4-0.1c0.3,0,0.5,0.1,0.7,0.2c0.2,0.1,0.3,0.4,0.3,0.6c0,0.2,0,0.3-0.1,0.4
		c-0.1,0.1-0.1,0.2-0.2,0.3c-0.1,0.1-0.1,0.2-0.2,0.2c0,0.1-0.1,0.2-0.1,0.3c0,0,0,0.1,0.1,0.1c0,0,0.1,0.1,0.2,0.1
		c0.1,0,0.1,0.1,0.2,0.1s0.1,0,0.1,0c0.2,0,0.4-0.1,0.6-0.2c0.2-0.1,0.3-0.3,0.4-0.4c0.1-0.2,0.2-0.4,0.2-0.5
		c0.1-0.2,0.1-0.4,0.1-0.5c0-0.3-0.1-0.5-0.2-0.7c-0.1-0.1-0.3-0.3-0.5-0.3s-0.4-0.1-0.6-0.1c-0.2,0-0.5-0.1-0.7-0.1c0,0,0,0,0-0.1
		c0,0,0-0.1,0-0.1c0,0,0-0.1,0-0.2c0.2,0,0.4-0.1,0.6-0.1s0.4-0.1,0.6-0.2c0.2-0.1,0.3-0.2,0.4-0.4c0.1-0.2,0.1-0.4,0.1-0.6
		c0-0.4-0.1-0.6-0.2-0.8c-0.1-0.2-0.3-0.3-0.4-0.4c-0.2-0.1-0.3-0.1-0.4-0.1c-0.1,0-0.2,0-0.3,0c0,0-0.1,0-0.1,0s-0.1,0-0.1,0.1
		s-0.1,0.1-0.1,0.1c0,0,0,0.1,0,0.1c0,0.1,0,0.1,0.1,0.2c0,0.1,0.1,0.1,0.2,0.2c0.1,0.1,0.1,0.1,0.2,0.2c0.1,0.1,0.1,0.2,0.2,0.3
		c0,0.1,0,0.3,0,0.4c0,0.1-0.1,0.2-0.2,0.4s-0.2,0.2-0.3,0.2c-0.1,0.1-0.3,0.1-0.4,0.1c-0.2,0-0.3,0-0.4-0.1
		c-0.1-0.1-0.2-0.2-0.3-0.3s-0.2-0.2-0.2-0.3c-0.1-0.1-0.1-0.2-0.1-0.3c0-0.2,0-0.4,0.1-0.6c0.1-0.2,0.2-0.4,0.4-0.6
		s0.5-0.3,0.8-0.4c0.3-0.1,0.8-0.2,1.3-0.2c0.2,0,0.5,0,0.7,0.1s0.4,0.2,0.6,0.3c0.2,0.1,0.3,0.3,0.4,0.5c0.1,0.2,0.2,0.4,0.2,0.7
		c0,0.3-0.1,0.6-0.2,0.8c-0.2,0.2-0.3,0.3-0.5,0.4c-0.2,0.1-0.4,0.2-0.5,0.2s-0.2,0.1-0.2,0.1c0.2,0,0.4,0.1,0.6,0.1
		c0.2,0.1,0.4,0.1,0.6,0.2c0.2,0.1,0.3,0.2,0.4,0.4C104.5,171.4,104.5,171.7,104.5,171.9z"/>
</g>
<g class="st0">
	<path d="M103.4,178.8v0.9c0,0.1,0,0.2,0.1,0.3s0.1,0.1,0.2,0.2c0.1,0,0.2,0.1,0.3,0.1v0.4h-2.9v-0.4c0.1,0,0.2,0,0.3-0.1
		c0.1,0,0.2-0.1,0.2-0.1c0.1-0.1,0.1-0.2,0.1-0.3v-0.9h-2.5l-0.2-0.3c0.3-0.4,0.5-0.7,0.7-1s0.3-0.5,0.5-0.8
		c0.1-0.2,0.2-0.5,0.3-0.7c0.1-0.2,0.2-0.4,0.2-0.6s0.1-0.5,0.2-0.7c0-0.3,0.1-0.6,0.2-0.9h2.3c-0.1,0.3-0.3,0.6-0.6,0.9
		c-0.3,0.4-0.6,0.7-1,1.1s-0.7,0.8-1.1,1.2c-0.4,0.4-0.7,0.8-1.1,1.2h2.1v-1.7l1.6-1.8v3.5h1v0.4H103.4z"/>
</g>
<rect x="170.3" y="199.4" class="st4" width="368.2" height="30.2"/>
<rect x="669" y="239.9" class="st4" width="40.2" height="30.2"/>
<polyline class="st4" points="317.6,285.9 317.5,239.9 575,239.9 575,199.4 660,199.4 660,270.1 475,270.1 475,284.9 "/>
<g class="st0">
	<path d="M441.4,134l1.7-0.2c0.1,0.6,0.3,1,0.6,1.2s0.7,0.4,1.3,0.4c0.6,0,1-0.1,1.3-0.4s0.4-0.5,0.4-0.8c0-0.2-0.1-0.4-0.2-0.5
		s-0.3-0.3-0.6-0.4c-0.2-0.1-0.7-0.2-1.4-0.4c-0.9-0.2-1.6-0.5-2-0.8c-0.5-0.5-0.8-1-0.8-1.7c0-0.4,0.1-0.8,0.4-1.2s0.6-0.7,1.1-0.9
		s1-0.3,1.7-0.3c1.1,0,1.9,0.2,2.4,0.7s0.8,1.1,0.9,1.9l-1.7,0.1c-0.1-0.4-0.2-0.8-0.5-1s-0.6-0.3-1.1-0.3c-0.5,0-0.9,0.1-1.2,0.3
		c-0.2,0.1-0.3,0.3-0.3,0.5c0,0.2,0.1,0.4,0.3,0.5c0.2,0.2,0.8,0.4,1.6,0.6s1.5,0.4,1.9,0.6s0.7,0.5,0.9,0.9s0.3,0.8,0.3,1.4
		c0,0.5-0.1,1-0.4,1.4s-0.7,0.7-1.2,1s-1.1,0.3-1.9,0.3c-1.1,0-1.9-0.3-2.5-0.8S441.6,135,441.4,134z"/>
	<path d="M449.8,136.8v-8.6h1.6v4.6l1.9-2.2h2l-2.1,2.3l2.3,3.9h-1.8l-1.6-2.8l-0.8,0.8v2H449.8z"/>
	<path d="M460.4,136.8h-1.6v-6.2c-0.6,0.6-1.3,1-2.1,1.2v-1.5c0.4-0.1,0.9-0.4,1.4-0.8s0.8-0.9,1-1.4h1.3V136.8z"/>
</g>
<g class="st0">
	<path d="M746.4,174.5l1.7-0.2c0.1,0.6,0.3,1,0.6,1.2s0.7,0.4,1.3,0.4c0.6,0,1-0.1,1.3-0.4s0.4-0.5,0.4-0.8c0-0.2-0.1-0.4-0.2-0.5
		s-0.3-0.3-0.6-0.4c-0.2-0.1-0.7-0.2-1.4-0.4c-0.9-0.2-1.6-0.5-2-0.8c-0.5-0.5-0.8-1-0.8-1.7c0-0.4,0.1-0.8,0.4-1.2s0.6-0.7,1.1-0.9
		s1-0.3,1.7-0.3c1.1,0,1.9,0.2,2.4,0.7s0.8,1.1,0.9,1.9l-1.7,0.1c-0.1-0.4-0.2-0.8-0.5-1s-0.6-0.3-1.1-0.3c-0.5,0-0.9,0.1-1.2,0.3
		c-0.2,0.1-0.3,0.3-0.3,0.5c0,0.2,0.1,0.4,0.3,0.5c0.2,0.2,0.8,0.4,1.6,0.6s1.5,0.4,1.9,0.6s0.7,0.5,0.9,0.9s0.3,0.8,0.3,1.4
		c0,0.5-0.1,1-0.4,1.4s-0.7,0.7-1.2,1s-1.1,0.3-1.9,0.3c-1.1,0-1.9-0.3-2.5-0.8S746.5,175.5,746.4,174.5z"/>
	<path d="M754.8,177.3v-8.6h1.6v4.6l1.9-2.2h2l-2.1,2.3l2.3,3.9h-1.8l-1.6-2.8l-0.8,0.8v2H754.8z"/>
	<path d="M766.7,175.8v1.5H761c0.1-0.6,0.2-1.1,0.6-1.6s0.9-1.2,1.9-2.1c0.7-0.7,1.2-1.2,1.4-1.4c0.2-0.3,0.3-0.7,0.3-1
		c0-0.4-0.1-0.6-0.3-0.8s-0.5-0.3-0.8-0.3c-0.3,0-0.6,0.1-0.8,0.3s-0.3,0.6-0.4,1l-1.6-0.2c0.1-0.9,0.4-1.6,0.9-2s1.2-0.6,1.9-0.6
		c0.8,0,1.5,0.2,2,0.7s0.7,1,0.7,1.7c0,0.4-0.1,0.8-0.2,1.1s-0.4,0.7-0.7,1.1c-0.2,0.3-0.6,0.6-1.1,1.1s-0.8,0.8-1,0.9
		s-0.3,0.3-0.3,0.5H766.7z"/>
	<path d="M768.2,177.3v-1.6h1.6v1.6H768.2z"/>
	<path d="M775.4,177.3h-1.6v-6.2c-0.6,0.6-1.3,1-2.1,1.2v-1.5c0.4-0.1,0.9-0.4,1.4-0.8s0.8-0.9,1-1.4h1.3V177.3z"/>
</g>
<g class="st0">
	<path d="M851.8,134l1.7-0.2c0.1,0.6,0.3,1,0.6,1.2s0.7,0.4,1.3,0.4c0.6,0,1-0.1,1.3-0.4s0.4-0.5,0.4-0.8c0-0.2-0.1-0.4-0.2-0.5
		s-0.3-0.3-0.6-0.4c-0.2-0.1-0.7-0.2-1.4-0.4c-0.9-0.2-1.6-0.5-2-0.8c-0.5-0.5-0.8-1-0.8-1.7c0-0.4,0.1-0.8,0.4-1.2s0.6-0.7,1.1-0.9
		s1-0.3,1.7-0.3c1.1,0,1.9,0.2,2.4,0.7s0.8,1.1,0.9,1.9l-1.7,0.1c-0.1-0.4-0.2-0.8-0.5-1s-0.6-0.3-1.1-0.3c-0.5,0-0.9,0.1-1.2,0.3
		c-0.2,0.1-0.3,0.3-0.3,0.5c0,0.2,0.1,0.4,0.3,0.5c0.2,0.2,0.8,0.4,1.6,0.6s1.5,0.4,1.9,0.6s0.7,0.5,0.9,0.9s0.3,0.8,0.3,1.4
		c0,0.5-0.1,1-0.4,1.4s-0.7,0.7-1.2,1s-1.1,0.3-1.9,0.3c-1.1,0-1.9-0.3-2.5-0.8S851.9,135,851.8,134z"/>
	<path d="M860.1,136.8v-8.6h1.6v4.6l1.9-2.2h2l-2.1,2.3l2.3,3.9h-1.8l-1.6-2.8l-0.8,0.8v2H860.1z"/>
	<path d="M872.1,135.3v1.5h-5.8c0.1-0.6,0.2-1.1,0.6-1.6s0.9-1.2,1.9-2.1c0.7-0.7,1.2-1.2,1.4-1.4c0.2-0.3,0.3-0.7,0.3-1
		c0-0.4-0.1-0.6-0.3-0.8s-0.5-0.3-0.8-0.3c-0.3,0-0.6,0.1-0.8,0.3s-0.3,0.6-0.4,1l-1.6-0.2c0.1-0.9,0.4-1.6,0.9-2s1.2-0.6,1.9-0.6
		c0.8,0,1.5,0.2,2,0.7s0.7,1,0.7,1.7c0,0.4-0.1,0.8-0.2,1.1s-0.4,0.7-0.7,1.1c-0.2,0.3-0.6,0.6-1.1,1.1s-0.8,0.8-1,0.9
		s-0.3,0.3-0.3,0.5H872.1z"/>
	<path d="M873.5,136.8v-1.6h1.6v1.6H873.5z"/>
	<path d="M880.7,136.8h-1.6v-6.2c-0.6,0.6-1.3,1-2.1,1.2v-1.5c0.4-0.1,0.9-0.4,1.4-0.8s0.8-0.9,1-1.4h1.3V136.8z"/>
	<path d="M883.6,136.8v-1.6h1.6v1.6H883.6z"/>
	<path d="M890.7,136.8h-1.6v-6.2c-0.6,0.6-1.3,1-2.1,1.2v-1.5c0.4-0.1,0.9-0.4,1.4-0.8s0.8-0.9,1-1.4h1.3V136.8z"/>
</g>
<g class="st0">
	<path d="M603.4,174.5l1.7-0.2c0.1,0.6,0.3,1,0.6,1.2s0.7,0.4,1.3,0.4c0.6,0,1-0.1,1.3-0.4s0.4-0.5,0.4-0.8c0-0.2-0.1-0.4-0.2-0.5
		s-0.3-0.3-0.6-0.4c-0.2-0.1-0.7-0.2-1.4-0.4c-0.9-0.2-1.6-0.5-2-0.8c-0.5-0.5-0.8-1-0.8-1.7c0-0.4,0.1-0.8,0.4-1.2s0.6-0.7,1.1-0.9
		s1-0.3,1.7-0.3c1.1,0,1.9,0.2,2.4,0.7s0.8,1.1,0.9,1.9l-1.7,0.1c-0.1-0.4-0.2-0.8-0.5-1s-0.6-0.3-1.1-0.3c-0.5,0-0.9,0.1-1.2,0.3
		c-0.2,0.1-0.3,0.3-0.3,0.5c0,0.2,0.1,0.4,0.3,0.5c0.2,0.2,0.8,0.4,1.6,0.6s1.5,0.4,1.9,0.6s0.7,0.5,0.9,0.9s0.3,0.8,0.3,1.4
		c0,0.5-0.1,1-0.4,1.4s-0.7,0.7-1.2,1s-1.1,0.3-1.9,0.3c-1.1,0-1.9-0.3-2.5-0.8S603.5,175.5,603.4,174.5z"/>
	<path d="M611.8,177.3v-8.6h1.6v4.6l1.9-2.2h2l-2.1,2.3l2.3,3.9h-1.8l-1.6-2.8l-0.8,0.8v2H611.8z"/>
	<path d="M623.7,175.8v1.5H618c0.1-0.6,0.2-1.1,0.6-1.6s0.9-1.2,1.9-2.1c0.7-0.7,1.2-1.2,1.4-1.4c0.2-0.3,0.3-0.7,0.3-1
		c0-0.4-0.1-0.6-0.3-0.8s-0.5-0.3-0.8-0.3c-0.3,0-0.6,0.1-0.8,0.3s-0.3,0.6-0.4,1l-1.6-0.2c0.1-0.9,0.4-1.6,0.9-2s1.2-0.6,1.9-0.6
		c0.8,0,1.5,0.2,2,0.7s0.7,1,0.7,1.7c0,0.4-0.1,0.8-0.2,1.1s-0.4,0.7-0.7,1.1c-0.2,0.3-0.6,0.6-1.1,1.1s-0.8,0.8-1,0.9
		s-0.3,0.3-0.3,0.5H623.7z"/>
	<path d="M625.2,177.3v-1.6h1.6v1.6H625.2z"/>
	<path d="M632.4,177.3h-1.6v-6.2c-0.6,0.6-1.3,1-2.1,1.2v-1.5c0.4-0.1,0.9-0.4,1.4-0.8s0.8-0.9,1-1.4h1.3V177.3z"/>
	<path d="M635.2,177.3v-1.6h1.6v1.6H635.2z"/>
	<path d="M643.8,175.8v1.5H638c0.1-0.6,0.2-1.1,0.6-1.6s0.9-1.2,1.9-2.1c0.7-0.7,1.2-1.2,1.4-1.4c0.2-0.3,0.3-0.7,0.3-1
		c0-0.4-0.1-0.6-0.3-0.8s-0.5-0.3-0.8-0.3c-0.3,0-0.6,0.1-0.8,0.3s-0.3,0.6-0.4,1l-1.6-0.2c0.1-0.9,0.4-1.6,0.9-2s1.2-0.6,1.9-0.6
		c0.8,0,1.5,0.2,2,0.7s0.7,1,0.7,1.7c0,0.4-0.1,0.8-0.2,1.1s-0.4,0.7-0.7,1.1c-0.2,0.3-0.6,0.6-1.1,1.1s-0.8,0.8-1,0.9
		s-0.3,0.3-0.3,0.5H643.8z"/>
</g>
<g class="st0">
	<path d="M670.8,248.8l1.7-0.2c0.1,0.6,0.3,1,0.6,1.2s0.7,0.4,1.3,0.4c0.6,0,1-0.1,1.3-0.4s0.4-0.5,0.4-0.8c0-0.2-0.1-0.4-0.2-0.5
		s-0.3-0.3-0.6-0.4c-0.2-0.1-0.7-0.2-1.4-0.4c-0.9-0.2-1.6-0.5-2-0.8c-0.5-0.5-0.8-1-0.8-1.7c0-0.4,0.1-0.8,0.4-1.2s0.6-0.7,1.1-0.9
		s1-0.3,1.7-0.3c1.1,0,1.9,0.2,2.4,0.7s0.8,1.1,0.9,1.9l-1.7,0.1c-0.1-0.4-0.2-0.8-0.5-1s-0.6-0.3-1.1-0.3c-0.5,0-0.9,0.1-1.2,0.3
		c-0.2,0.1-0.3,0.3-0.3,0.5c0,0.2,0.1,0.4,0.3,0.5c0.2,0.2,0.8,0.4,1.6,0.6s1.5,0.4,1.9,0.6s0.7,0.5,0.9,0.9s0.3,0.8,0.3,1.4
		c0,0.5-0.1,1-0.4,1.4s-0.7,0.7-1.2,1s-1.1,0.3-1.9,0.3c-1.1,0-1.9-0.3-2.5-0.8S670.9,249.8,670.8,248.8z"/>
	<path d="M679.1,251.6V243h1.6v4.6l1.9-2.2h2l-2.1,2.3l2.3,3.9h-1.8l-1.6-2.8l-0.8,0.8v2H679.1z"/>
	<path d="M691.1,250.1v1.5h-5.8c0.1-0.6,0.2-1.1,0.6-1.6s0.9-1.2,1.9-2.1c0.7-0.7,1.2-1.2,1.4-1.4c0.2-0.3,0.3-0.7,0.3-1
		c0-0.4-0.1-0.6-0.3-0.8s-0.5-0.3-0.8-0.3c-0.3,0-0.6,0.1-0.8,0.3s-0.3,0.6-0.4,1l-1.6-0.2c0.1-0.9,0.4-1.6,0.9-2s1.2-0.6,1.9-0.6
		c0.8,0,1.5,0.2,2,0.7s0.7,1,0.7,1.7c0,0.4-0.1,0.8-0.2,1.1s-0.4,0.7-0.7,1.1c-0.2,0.3-0.6,0.6-1.1,1.1s-0.8,0.8-1,0.9
		s-0.3,0.3-0.3,0.5H691.1z"/>
	<path d="M692.5,251.6v-1.6h1.6v1.6H692.5z"/>
	<path d="M699.7,251.6h-1.6v-6.2c-0.6,0.6-1.3,1-2.1,1.2v-1.5c0.4-0.1,0.9-0.4,1.4-0.8s0.8-0.9,1-1.4h1.3V251.6z"/>
	<path d="M702.6,251.6v-1.6h1.6v1.6H702.6z"/>
</g>
<g class="st0">
	<path d="M676.4,264.5v1.5h-5.8c0.1-0.6,0.2-1.1,0.6-1.6s0.9-1.2,1.9-2.1c0.7-0.7,1.2-1.2,1.4-1.4c0.2-0.3,0.3-0.7,0.3-1
		c0-0.4-0.1-0.6-0.3-0.8s-0.5-0.3-0.8-0.3c-0.3,0-0.6,0.1-0.8,0.3s-0.3,0.6-0.4,1l-1.6-0.2c0.1-0.9,0.4-1.6,0.9-2s1.2-0.6,1.9-0.6
		c0.8,0,1.5,0.2,2,0.7s0.7,1,0.7,1.7c0,0.4-0.1,0.8-0.2,1.1s-0.4,0.7-0.7,1.1c-0.2,0.3-0.6,0.6-1.1,1.1s-0.8,0.8-1,0.9
		s-0.3,0.3-0.3,0.5H676.4z"/>
	<path d="M677.9,266v-1.6h1.6v1.6H677.9z"/>
	<path d="M685.1,266h-1.6v-6.2c-0.6,0.6-1.3,1-2.1,1.2v-1.5c0.4-0.1,0.9-0.4,1.4-0.8s0.8-0.9,1-1.4h1.3V266z"/>
</g>
<g class="st0">
	<path d="M352.4,215l1.7-0.2c0.1,0.6,0.3,1,0.6,1.2s0.7,0.4,1.3,0.4c0.6,0,1-0.1,1.3-0.4s0.4-0.5,0.4-0.8c0-0.2-0.1-0.4-0.2-0.5
		s-0.3-0.3-0.6-0.4c-0.2-0.1-0.7-0.2-1.4-0.4c-0.9-0.2-1.6-0.5-2-0.8c-0.5-0.5-0.8-1-0.8-1.7c0-0.4,0.1-0.8,0.4-1.2s0.6-0.7,1.1-0.9
		s1-0.3,1.7-0.3c1.1,0,1.9,0.2,2.4,0.7s0.8,1.1,0.9,1.9l-1.7,0.1c-0.1-0.4-0.2-0.8-0.5-1s-0.6-0.3-1.1-0.3c-0.5,0-0.9,0.1-1.2,0.3
		c-0.2,0.1-0.3,0.3-0.3,0.5c0,0.2,0.1,0.4,0.3,0.5c0.2,0.2,0.8,0.4,1.6,0.6s1.5,0.4,1.9,0.6s0.7,0.5,0.9,0.9s0.3,0.8,0.3,1.4
		c0,0.5-0.1,1-0.4,1.4s-0.7,0.7-1.2,1s-1.1,0.3-1.9,0.3c-1.1,0-1.9-0.3-2.5-0.8S352.5,216,352.4,215z"/>
	<path d="M360.8,217.8v-8.6h1.6v4.6l1.9-2.2h2l-2.1,2.3l2.3,3.9h-1.8l-1.6-2.8l-0.8,0.8v2H360.8z"/>
	<path d="M367.1,215.6l1.6-0.2c0.1,0.4,0.2,0.7,0.4,0.9s0.5,0.3,0.8,0.3c0.3,0,0.6-0.1,0.9-0.4s0.3-0.6,0.3-1c0-0.4-0.1-0.7-0.3-1
		s-0.5-0.4-0.8-0.4c-0.2,0-0.5,0-0.8,0.1l0.2-1.3c0.4,0,0.8-0.1,1-0.3s0.4-0.5,0.4-0.8c0-0.3-0.1-0.5-0.3-0.7s-0.4-0.3-0.7-0.3
		c-0.3,0-0.5,0.1-0.7,0.3s-0.3,0.5-0.4,0.9l-1.5-0.3c0.1-0.5,0.3-0.9,0.5-1.2s0.5-0.6,0.9-0.7s0.8-0.3,1.3-0.3
		c0.8,0,1.5,0.3,1.9,0.8c0.4,0.4,0.6,0.9,0.6,1.4c0,0.8-0.4,1.4-1.2,1.8c0.5,0.1,0.9,0.3,1.2,0.7s0.4,0.8,0.4,1.3
		c0,0.8-0.3,1.4-0.8,1.9s-1.2,0.8-2.1,0.8c-0.8,0-1.4-0.2-1.9-0.7S367.2,216.3,367.1,215.6z"/>
</g>
<g class="st0">
	<path d="M463.8,257.2l1.7-0.2c0.1,0.6,0.3,1,0.6,1.2s0.7,0.4,1.3,0.4c0.6,0,1-0.1,1.3-0.4s0.4-0.5,0.4-0.8c0-0.2-0.1-0.4-0.2-0.5
		s-0.3-0.3-0.6-0.4c-0.2-0.1-0.7-0.2-1.4-0.4c-0.9-0.2-1.6-0.5-2-0.8c-0.5-0.5-0.8-1-0.8-1.7c0-0.4,0.1-0.8,0.4-1.2s0.6-0.7,1.1-0.9
		s1-0.3,1.7-0.3c1.1,0,1.9,0.2,2.4,0.7s0.8,1.1,0.9,1.9l-1.7,0.1c-0.1-0.4-0.2-0.8-0.5-1s-0.6-0.3-1.1-0.3c-0.5,0-0.9,0.1-1.2,0.3
		c-0.2,0.1-0.3,0.3-0.3,0.5c0,0.2,0.1,0.4,0.3,0.5c0.2,0.2,0.8,0.4,1.6,0.6s1.5,0.4,1.9,0.6s0.7,0.5,0.9,0.9s0.3,0.8,0.3,1.4
		c0,0.5-0.1,1-0.4,1.4s-0.7,0.7-1.2,1s-1.1,0.3-1.9,0.3c-1.1,0-1.9-0.3-2.5-0.8S463.9,258.2,463.8,257.2z"/>
	<path d="M472.1,260v-8.6h1.6v4.6l1.9-2.2h2l-2.1,2.3l2.3,3.9h-1.8l-1.6-2.8l-0.8,0.8v2H472.1z"/>
	<path d="M478.5,257.8l1.6-0.2c0.1,0.4,0.2,0.7,0.4,0.9s0.5,0.3,0.8,0.3c0.3,0,0.6-0.1,0.9-0.4s0.3-0.6,0.3-1c0-0.4-0.1-0.7-0.3-1
		s-0.5-0.4-0.8-0.4c-0.2,0-0.5,0-0.8,0.1l0.2-1.3c0.4,0,0.8-0.1,1-0.3s0.4-0.5,0.4-0.8c0-0.3-0.1-0.5-0.3-0.7s-0.4-0.3-0.7-0.3
		c-0.3,0-0.5,0.1-0.7,0.3s-0.3,0.5-0.4,0.9l-1.5-0.3c0.1-0.5,0.3-0.9,0.5-1.2s0.5-0.6,0.9-0.7s0.8-0.3,1.3-0.3
		c0.8,0,1.5,0.3,1.9,0.8c0.4,0.4,0.6,0.9,0.6,1.4c0,0.8-0.4,1.4-1.2,1.8c0.5,0.1,0.9,0.3,1.2,0.7s0.4,0.8,0.4,1.3
		c0,0.8-0.3,1.4-0.8,1.9s-1.2,0.8-2.1,0.8c-0.8,0-1.4-0.2-1.9-0.7S478.5,258.5,478.5,257.8z"/>
	<path d="M485.5,260v-1.6h1.6v1.6H485.5z"/>
	<path d="M492.7,260h-1.6v-6.2c-0.6,0.6-1.3,1-2.1,1.2v-1.5c0.4-0.1,0.9-0.4,1.4-0.8s0.8-0.9,1-1.4h1.3V260z"/>
</g>
<rect x="106.7" y="117.9" class="st4" width="247.5" height="30.2"/>
<g class="st0">
	<path d="M214.4,134l1.7-0.2c0.1,0.6,0.3,1,0.6,1.2s0.7,0.4,1.3,0.4c0.6,0,1-0.1,1.3-0.4s0.4-0.5,0.4-0.8c0-0.2-0.1-0.4-0.2-0.5
		s-0.3-0.3-0.6-0.4c-0.2-0.1-0.7-0.2-1.4-0.4c-0.9-0.2-1.6-0.5-2-0.8c-0.5-0.5-0.8-1-0.8-1.7c0-0.4,0.1-0.8,0.4-1.2s0.6-0.7,1.1-0.9
		s1-0.3,1.7-0.3c1.1,0,1.9,0.2,2.4,0.7s0.8,1.1,0.9,1.9l-1.7,0.1c-0.1-0.4-0.2-0.8-0.5-1s-0.6-0.3-1.1-0.3c-0.5,0-0.9,0.1-1.2,0.3
		c-0.2,0.1-0.3,0.3-0.3,0.5c0,0.2,0.1,0.4,0.3,0.5c0.2,0.2,0.8,0.4,1.6,0.6s1.5,0.4,1.9,0.6s0.7,0.5,0.9,0.9s0.3,0.8,0.3,1.4
		c0,0.5-0.1,1-0.4,1.4s-0.7,0.7-1.2,1s-1.1,0.3-1.9,0.3c-1.1,0-1.9-0.3-2.5-0.8S214.5,135,214.4,134z"/>
	<path d="M222.8,136.8v-8.6h1.6v4.6l1.9-2.2h2l-2.1,2.3l2.3,3.9h-1.8l-1.6-2.8l-0.8,0.8v2H222.8z"/>
	<path d="M234.7,135.3v1.5H229c0.1-0.6,0.2-1.1,0.6-1.6s0.9-1.2,1.9-2.1c0.7-0.7,1.2-1.2,1.4-1.4c0.2-0.3,0.3-0.7,0.3-1
		c0-0.4-0.1-0.6-0.3-0.8s-0.5-0.3-0.8-0.3c-0.3,0-0.6,0.1-0.8,0.3s-0.3,0.6-0.4,1l-1.6-0.2c0.1-0.9,0.4-1.6,0.9-2s1.2-0.6,1.9-0.6
		c0.8,0,1.5,0.2,2,0.7s0.7,1,0.7,1.7c0,0.4-0.1,0.8-0.2,1.1s-0.4,0.7-0.7,1.1c-0.2,0.3-0.6,0.6-1.1,1.1s-0.8,0.8-1,0.9
		s-0.3,0.3-0.3,0.5H234.7z"/>
</g>
<rect x="821.5" y="224.4" class="st4" width="75" height="20.6"/>
<g class="st0">
	<path d="M840.8,238.3l1.7-0.2c0.1,0.6,0.3,1,0.6,1.2s0.7,0.4,1.3,0.4c0.6,0,1-0.1,1.3-0.4s0.4-0.5,0.4-0.8c0-0.2-0.1-0.4-0.2-0.5
		s-0.3-0.3-0.6-0.4c-0.2-0.1-0.7-0.2-1.4-0.4c-0.9-0.2-1.6-0.5-2-0.8c-0.5-0.5-0.8-1-0.8-1.7c0-0.4,0.1-0.8,0.4-1.2s0.6-0.7,1.1-0.9
		s1-0.3,1.7-0.3c1.1,0,1.9,0.2,2.4,0.7s0.8,1.1,0.9,1.9l-1.7,0.1c-0.1-0.4-0.2-0.8-0.5-1s-0.6-0.3-1.1-0.3c-0.5,0-0.9,0.1-1.2,0.3
		c-0.2,0.1-0.3,0.3-0.3,0.5c0,0.2,0.1,0.4,0.3,0.5c0.2,0.2,0.8,0.4,1.6,0.6s1.5,0.4,1.9,0.6s0.7,0.5,0.9,0.9s0.3,0.8,0.3,1.4
		c0,0.5-0.1,1-0.4,1.4s-0.7,0.7-1.2,1s-1.1,0.3-1.9,0.3c-1.1,0-1.9-0.3-2.5-0.8S840.9,239.3,840.8,238.3z"/>
	<path d="M849.1,241.1v-8.6h1.6v4.6l1.9-2.2h2l-2.1,2.3l2.3,3.9h-1.8l-1.6-2.8l-0.8,0.8v2H849.1z"/>
	<path d="M861.1,239.6v1.5h-5.8c0.1-0.6,0.2-1.1,0.6-1.6s0.9-1.2,1.9-2.1c0.7-0.7,1.2-1.2,1.4-1.4c0.2-0.3,0.3-0.7,0.3-1
		c0-0.4-0.1-0.6-0.3-0.8s-0.5-0.3-0.8-0.3c-0.3,0-0.6,0.1-0.8,0.3s-0.3,0.6-0.4,1l-1.6-0.2c0.1-0.9,0.4-1.6,0.9-2s1.2-0.6,1.9-0.6
		c0.8,0,1.5,0.2,2,0.7s0.7,1,0.7,1.7c0,0.4-0.1,0.8-0.2,1.1s-0.4,0.7-0.7,1.1c-0.2,0.3-0.6,0.6-1.1,1.1s-0.8,0.8-1,0.9
		s-0.3,0.3-0.3,0.5H861.1z"/>
	<path d="M862.5,241.1v-1.6h1.6v1.6H862.5z"/>
	<path d="M869.7,241.1h-1.6v-6.2c-0.6,0.6-1.3,1-2.1,1.2v-1.5c0.4-0.1,0.9-0.4,1.4-0.8s0.8-0.9,1-1.4h1.3V241.1z"/>
	<path d="M872.6,241.1v-1.6h1.6v1.6H872.6z"/>
	<path d="M875.5,238.8l1.6-0.2c0.1,0.4,0.2,0.7,0.4,0.9s0.5,0.3,0.8,0.3c0.3,0,0.6-0.1,0.9-0.4s0.3-0.6,0.3-1c0-0.4-0.1-0.7-0.3-1
		s-0.5-0.4-0.8-0.4c-0.2,0-0.5,0-0.8,0.1l0.2-1.3c0.4,0,0.8-0.1,1-0.3s0.4-0.5,0.4-0.8c0-0.3-0.1-0.5-0.3-0.7s-0.4-0.3-0.7-0.3
		c-0.3,0-0.5,0.1-0.7,0.3s-0.3,0.5-0.4,0.9l-1.5-0.3c0.1-0.5,0.3-0.9,0.5-1.2s0.5-0.6,0.9-0.7s0.8-0.3,1.3-0.3
		c0.8,0,1.5,0.3,1.9,0.8c0.4,0.4,0.6,0.9,0.6,1.4c0,0.8-0.4,1.4-1.2,1.8c0.5,0.1,0.9,0.3,1.2,0.7s0.4,0.8,0.4,1.3
		c0,0.8-0.3,1.4-0.8,1.9s-1.2,0.8-2.1,0.8c-0.8,0-1.4-0.2-1.9-0.7S875.6,239.5,875.5,238.8z"/>
</g>
<line class="st1" x1="229.6" y1="248.2" x2="229.6" y2="261.7"/>
<line class="st1" x1="279.1" y1="248.2" x2="279.1" y2="261.7"/>
<g class="st0">
	<path d="M140.5,263.4c0-0.2,0.1-0.3,0.2-0.5c0.1-0.1,0.3-0.2,0.5-0.2c0.2,0,0.4,0.1,0.5,0.2c0.1,0.1,0.2,0.3,0.2,0.5
		c0,0.2-0.1,0.4-0.2,0.5c-0.1,0.1-0.3,0.2-0.5,0.2c-0.2,0-0.4-0.1-0.5-0.2C140.6,263.8,140.5,263.6,140.5,263.4z"/>
</g>
<line class="st1" x1="136.6" y1="262.8" x2="136.6" y2="251.6"/>
<g class="st0">
	<path d="M132.6,263.4c0.1-0.2,0.2-0.5,0.4-0.7s0.4-0.4,0.6-0.5c0.2-0.2,0.5-0.3,0.8-0.4c0.3-0.1,0.6-0.1,0.9-0.1s0.5,0,0.8,0.1
		c0.2,0.1,0.4,0.2,0.5,0.4c0.1,0.2,0.2,0.3,0.2,0.6c0,0.2,0,0.4-0.1,0.7s-0.2,0.5-0.4,0.7c-0.2,0.2-0.4,0.4-0.6,0.6
		s-0.5,0.3-0.8,0.4c-0.3,0.1-0.6,0.1-0.8,0.1c-0.3,0-0.5,0-0.7-0.1c-0.2-0.1-0.4-0.2-0.5-0.4s-0.2-0.3-0.2-0.6
		C132.5,263.9,132.5,263.7,132.6,263.4z"/>
</g>
<g class="st0">
	<path d="M130.9,260.8v7.7h-0.4v-2.9l-1.9,0.5v-7.8h0.3v3L130.9,260.8z M129,262.6v2.1l1.5-0.4v-2.1L129,262.6z"/>
</g>
<g class="st0">
	<path d="M163.4,252.1c0.2-0.1,0.4,0,0.6,0s0.3,0.2,0.4,0.4s0.1,0.3,0.2,0.5s0,0.4,0,0.5c0.1,0,0.3,0,0.4-0.1c0.1,0,0.2-0.1,0.4-0.2
		c0.1-0.1,0.2-0.2,0.3-0.3c0.1-0.1,0.2-0.2,0.3-0.3l0.2,0.1l-1.5,5.7H164c0.1-0.3,0.2-0.6,0.3-0.9c0.1-0.2,0.2-0.5,0.2-0.7
		c0.1-0.3,0.2-0.5,0.2-0.6c0.1-0.4,0.3-0.7,0.4-1.1c0.1-0.3,0.2-0.6,0.2-0.8c0.1-0.3,0.1-0.5,0.1-0.7c-0.1,0.1-0.2,0.1-0.3,0.2
		s-0.3,0.2-0.5,0.3c-0.2,0.1-0.3,0.2-0.5,0.2s-0.3,0.1-0.5,0.1c-0.4,0-0.6-0.1-0.8-0.3s-0.3-0.4-0.4-0.7c0-0.3,0-0.5,0.2-0.8
		C162.8,252.4,163.1,252.2,163.4,252.1z"/>
</g>
<line class="st1" x1="181.2" y1="255.5" x2="181.2" y2="266.8"/>
<g class="st0">
	<path d="M181.1,255c0.1-0.2,0.2-0.5,0.4-0.7s0.4-0.4,0.6-0.5c0.2-0.2,0.5-0.3,0.8-0.4c0.3-0.1,0.6-0.1,0.9-0.1s0.5,0,0.8,0.1
		c0.2,0.1,0.4,0.2,0.5,0.4c0.1,0.2,0.2,0.3,0.2,0.6c0,0.2,0,0.4-0.1,0.7s-0.2,0.5-0.4,0.7c-0.2,0.2-0.4,0.4-0.6,0.6
		s-0.5,0.3-0.8,0.4c-0.3,0.1-0.6,0.1-0.8,0.1c-0.3,0-0.5,0-0.7-0.1c-0.2-0.1-0.4-0.2-0.5-0.4s-0.2-0.3-0.2-0.6
		C181,255.5,181,255.2,181.1,255z"/>
</g>
<g class="st0">
	<path d="M179.4,252.3v7.7h-0.4v-2.9l-1.9,0.5v-7.8h0.3v3L179.4,252.3z M177.6,254.1v2.1l1.5-0.4v-2.1L177.6,254.1z"/>
</g>
<g class="st0">
	<path d="M214.6,260c0,0.4-0.1,0.7-0.3,1.1c-0.1,0.4-0.3,0.8-0.6,1.3c-0.3,0.5-0.6,1-0.9,1.4c-0.3,0.4-0.6,0.9-0.8,1.2
		c-0.2,0.3-0.4,0.7-0.6,1.1c-0.2,0.4-0.3,0.8-0.3,1.2h-0.3v-3.6h0.3c0.1,0,0.3,0,0.4-0.1c0.1,0,0.3-0.1,0.4-0.2
		c0.2-0.1,0.3-0.2,0.5-0.3c0.1-0.1,0.2-0.2,0.4-0.3c0.1-0.1,0.3-0.3,0.5-0.5c0.2-0.2,0.3-0.5,0.5-0.7c0.1-0.3,0.3-0.6,0.4-0.9
		c0.1-0.4,0.2-0.7,0.2-1s0-0.6,0-1c0-0.2,0-0.4-0.1-0.6s-0.1-0.4-0.2-0.6c-0.1-0.2-0.1-0.4-0.2-0.6c-0.1-0.2-0.1-0.4-0.2-0.5
		l0.1-0.1c0.1,0.2,0.2,0.4,0.3,0.7s0.2,0.6,0.3,0.9c0.1,0.3,0.1,0.7,0.1,1.1S214.7,259.6,214.6,260z"/>
</g>
<line class="st1" x1="211" y1="255.5" x2="211" y2="266.8"/>
<g class="st0">
	<path d="M210.9,255c0.1-0.2,0.2-0.5,0.4-0.7s0.4-0.4,0.6-0.5c0.2-0.2,0.5-0.3,0.8-0.4c0.3-0.1,0.6-0.1,0.9-0.1s0.5,0,0.8,0.1
		c0.2,0.1,0.4,0.2,0.5,0.4c0.1,0.2,0.2,0.3,0.2,0.6c0,0.2,0,0.4-0.1,0.7s-0.2,0.5-0.4,0.7c-0.2,0.2-0.4,0.4-0.6,0.6
		s-0.5,0.3-0.8,0.4c-0.3,0.1-0.6,0.1-0.8,0.1c-0.3,0-0.5,0-0.7-0.1c-0.2-0.1-0.4-0.2-0.5-0.4s-0.2-0.3-0.2-0.6
		C210.8,255.5,210.9,255.2,210.9,255z"/>
</g>
<g class="st0">
	<path d="M207.3,250.2v2.4v0.9c0.1-0.1,0.2-0.2,0.4-0.3c0.1-0.1,0.2-0.1,0.3-0.2c0.1,0,0.2-0.1,0.3-0.1c0.1,0,0.2,0,0.4,0
		c0.2,0,0.3,0,0.5,0.1c0.1,0.1,0.3,0.2,0.4,0.3c0.1,0.1,0.2,0.2,0.2,0.4c0.1,0.1,0.1,0.3,0.1,0.4c0,0.1,0,0.3,0,0.4
		s-0.1,0.3-0.1,0.4c-0.1,0.2-0.2,0.3-0.3,0.4c-0.1,0.1-0.3,0.2-0.4,0.3c0,0-0.1,0.1-0.2,0.2c-0.1,0.1-0.2,0.2-0.4,0.3
		s-0.3,0.2-0.5,0.3c-0.2,0.1-0.3,0.2-0.4,0.3c-0.1,0.1-0.3,0.2-0.5,0.3v-8h0.4V250.2z M208.4,253.7c0-0.1-0.1-0.1-0.2-0.1
		c-0.1,0-0.2-0.1-0.2-0.1c-0.1,0-0.2,0-0.3,0.1c-0.1,0.1-0.2,0.1-0.2,0.3c-0.1,0.2-0.1,0.4-0.1,0.6c0,0.3,0,0.5,0,0.7v1.2
		c0.1-0.1,0.2-0.2,0.3-0.2c0.1-0.1,0.2-0.1,0.2-0.2s0.2-0.2,0.2-0.2c0.1-0.1,0.2-0.2,0.3-0.4c0.1-0.1,0.2-0.3,0.2-0.5
		c0.1-0.2,0.1-0.4,0-0.6C208.6,254.1,208.5,253.9,208.4,253.7z"/>
</g>
<g class="st0">
	<path d="M130.7,274.2c0.2-0.2,0.3-0.3,0.4-0.4c0.1-0.1,0.2-0.1,0.3-0.2c0.1,0,0.2-0.1,0.3-0.1c0.2,0,0.4,0.1,0.5,0.2
		c0.1,0.1,0.2,0.3,0.3,0.5c0.2-0.3,0.4-0.4,0.6-0.5c0.2-0.1,0.3-0.1,0.5-0.1c0.2,0,0.3,0,0.4,0.1s0.2,0.2,0.3,0.4
		c0,0.1,0.1,0.3,0.1,0.6v1.3c0,0.2,0,0.3,0,0.4c0,0,0.1,0.1,0.1,0.1s0.2,0.1,0.3,0.1v0.1h-1.5v-0.1h0.1c0.1,0,0.2,0,0.3-0.1
		c0.1,0,0.1-0.1,0.1-0.2c0,0,0-0.1,0-0.3v-1.3c0-0.2,0-0.4-0.1-0.5c-0.1-0.1-0.2-0.2-0.4-0.2c-0.1,0-0.2,0-0.4,0.1
		c-0.1,0.1-0.3,0.2-0.4,0.3l0,0l0,0.1v1.4c0,0.2,0,0.3,0,0.4c0,0.1,0.1,0.1,0.1,0.1c0.1,0,0.2,0.1,0.3,0.1v0.1h-1.5v-0.1
		c0.2,0,0.3,0,0.3-0.1c0.1,0,0.1-0.1,0.1-0.2c0,0,0-0.1,0-0.3v-1.3c0-0.2,0-0.4-0.1-0.5c-0.1-0.1-0.2-0.2-0.4-0.2
		c-0.1,0-0.2,0-0.4,0.1c-0.2,0.1-0.3,0.2-0.4,0.3v1.6c0,0.2,0,0.3,0,0.4c0,0.1,0.1,0.1,0.1,0.1s0.2,0,0.3,0v0.1h-1.5v-0.1
		c0.1,0,0.2,0,0.3,0c0.1,0,0.1-0.1,0.1-0.1c0-0.1,0-0.2,0-0.4v-1.2c0-0.3,0-0.5,0-0.6c0-0.1,0-0.1-0.1-0.2c0,0-0.1,0-0.1,0
		c-0.1,0-0.1,0-0.2,0l0-0.1l0.9-0.4h0.1V274.2z"/>
	<path d="M136.8,276.2c-0.3,0.2-0.5,0.4-0.6,0.4c-0.1,0.1-0.2,0.1-0.4,0.1c-0.2,0-0.4-0.1-0.5-0.2s-0.2-0.3-0.2-0.6
		c0-0.1,0-0.3,0.1-0.4c0.1-0.1,0.2-0.3,0.5-0.4s0.6-0.3,1.1-0.5v-0.1c0-0.3,0-0.5-0.1-0.6c-0.1-0.1-0.2-0.2-0.4-0.2
		c-0.1,0-0.2,0-0.3,0.1c-0.1,0.1-0.1,0.2-0.1,0.3l0,0.2c0,0.1,0,0.2-0.1,0.2c-0.1,0.1-0.1,0.1-0.2,0.1c-0.1,0-0.1,0-0.2-0.1
		c-0.1-0.1-0.1-0.1-0.1-0.2c0-0.2,0.1-0.4,0.3-0.5s0.5-0.2,0.8-0.2c0.3,0,0.5,0,0.7,0.1c0.1,0.1,0.2,0.2,0.3,0.3
		c0,0.1,0.1,0.3,0.1,0.6v1c0,0.3,0,0.5,0,0.5c0,0.1,0,0.1,0.1,0.1c0,0,0.1,0,0.1,0c0,0,0.1,0,0.1,0c0,0,0.1-0.1,0.3-0.2v0.2
		c-0.2,0.3-0.5,0.5-0.7,0.5c-0.1,0-0.2,0-0.3-0.1C136.8,276.5,136.8,276.4,136.8,276.2z M136.8,276v-1.2c-0.3,0.1-0.5,0.2-0.6,0.3
		c-0.2,0.1-0.3,0.2-0.4,0.3s-0.1,0.2-0.1,0.3c0,0.2,0,0.3,0.1,0.4c0.1,0.1,0.2,0.2,0.3,0.2C136.3,276.3,136.5,276.2,136.8,276z"/>
	<path d="M139.1,271.9v4c0,0.2,0,0.3,0,0.4c0,0.1,0.1,0.1,0.1,0.1c0.1,0,0.2,0,0.3,0v0.1h-1.5v-0.1c0.1,0,0.2,0,0.3,0
		c0.1,0,0.1-0.1,0.1-0.1c0-0.1,0-0.2,0-0.4v-2.7c0-0.3,0-0.5,0-0.6c0-0.1,0-0.1-0.1-0.2c0,0-0.1,0-0.1,0c-0.1,0-0.1,0-0.2,0.1
		l-0.1-0.1l0.9-0.4H139.1z"/>
</g>
<g class="st0">
	<path d="M177,273.6h1.3v0.1c-0.1,0-0.2,0-0.2,0.1c0,0-0.1,0.1-0.1,0.1c0,0.1,0,0.2,0.1,0.2l0.6,1.7l0.6-1.4l-0.2-0.4
		c-0.1-0.1-0.1-0.2-0.2-0.3c0,0-0.1,0-0.3-0.1v-0.1h1.4v0.1c-0.2,0-0.3,0-0.3,0.1c0,0-0.1,0.1-0.1,0.2c0,0,0,0.1,0,0.1l0.7,1.7
		l0.6-1.7c0-0.1,0.1-0.2,0.1-0.3c0,0,0-0.1-0.1-0.1c0,0-0.1-0.1-0.3-0.1v-0.1h1v0.1c-0.2,0-0.3,0.2-0.4,0.4l-1,2.6h-0.1l-0.8-1.9
		l-0.9,1.9h-0.1l-1-2.5c-0.1-0.2-0.1-0.3-0.2-0.3c-0.1-0.1-0.2-0.1-0.3-0.1V273.6z"/>
	<path d="M183.1,273.5v2.4c0,0.2,0,0.3,0,0.4c0,0.1,0.1,0.1,0.1,0.1c0.1,0,0.2,0,0.3,0v0.1h-1.5v-0.1c0.1,0,0.2,0,0.3,0
		c0.1,0,0.1-0.1,0.1-0.1c0-0.1,0-0.2,0-0.4v-1.2c0-0.3,0-0.5,0-0.6c0-0.1,0-0.1-0.1-0.1c0,0-0.1,0-0.1,0c-0.1,0-0.1,0-0.2,0l0-0.1
		l0.9-0.4H183.1z M182.9,271.9c0.1,0,0.2,0,0.2,0.1c0.1,0.1,0.1,0.1,0.1,0.2c0,0.1,0,0.2-0.1,0.2c-0.1,0.1-0.1,0.1-0.2,0.1
		s-0.2,0-0.2-0.1c-0.1-0.1-0.1-0.1-0.1-0.2c0-0.1,0-0.2,0.1-0.2C182.7,272,182.8,271.9,182.9,271.9z"/>
	<path d="M184.8,273.5v0.7c0.3-0.5,0.5-0.7,0.8-0.7c0.1,0,0.2,0,0.3,0.1c0.1,0.1,0.1,0.2,0.1,0.3c0,0.1,0,0.2-0.1,0.2
		s-0.1,0.1-0.2,0.1c-0.1,0-0.2,0-0.3-0.1c-0.1-0.1-0.2-0.1-0.2-0.1c0,0-0.1,0-0.1,0.1c-0.1,0.1-0.2,0.2-0.3,0.4v1.4
		c0,0.2,0,0.3,0.1,0.4c0,0.1,0.1,0.1,0.2,0.1c0.1,0,0.2,0.1,0.3,0.1v0.1h-1.5v-0.1c0.2,0,0.3,0,0.3-0.1c0.1,0,0.1-0.1,0.1-0.2
		c0,0,0-0.1,0-0.3v-1.2c0-0.4,0-0.6,0-0.6c0-0.1,0-0.1-0.1-0.1c0,0-0.1,0-0.1,0c-0.1,0-0.1,0-0.2,0l0-0.1l0.9-0.4H184.8z"/>
	<path d="M188.3,276.3c-0.1,0.2-0.3,0.3-0.4,0.3c-0.1,0.1-0.3,0.1-0.5,0.1c-0.3,0-0.6-0.1-0.9-0.4s-0.4-0.6-0.4-1.1
		c0-0.4,0.1-0.8,0.4-1.2s0.6-0.5,1.1-0.5c0.3,0,0.5,0.1,0.7,0.3v-0.6c0-0.3,0-0.6,0-0.6c0-0.1,0-0.1-0.1-0.2s-0.1,0-0.1,0
		c-0.1,0-0.1,0-0.2,0.1l0-0.1l0.9-0.4h0.1v3.5c0,0.4,0,0.6,0,0.6c0,0.1,0,0.1,0.1,0.2c0,0,0.1,0,0.1,0c0.1,0,0.1,0,0.2-0.1l0,0.1
		l-0.9,0.4h-0.2V276.3z M188.3,276.1v-1.6c0-0.1-0.1-0.3-0.1-0.4s-0.2-0.2-0.3-0.3c-0.1-0.1-0.2-0.1-0.3-0.1c-0.2,0-0.4,0.1-0.5,0.3
		c-0.2,0.2-0.3,0.6-0.3,1c0,0.4,0.1,0.8,0.3,1c0.2,0.2,0.4,0.4,0.6,0.4C188,276.4,188.2,276.3,188.3,276.1z"/>
</g>
<g class="st0">
	<path d="M209.4,274.2c0.2-0.2,0.3-0.3,0.4-0.4c0.1-0.1,0.2-0.1,0.3-0.2c0.1,0,0.2-0.1,0.3-0.1c0.2,0,0.4,0.1,0.5,0.2
		c0.1,0.1,0.2,0.3,0.3,0.5c0.2-0.3,0.4-0.4,0.6-0.5c0.2-0.1,0.3-0.1,0.5-0.1c0.2,0,0.3,0,0.4,0.1s0.2,0.2,0.3,0.4
		c0,0.1,0.1,0.3,0.1,0.6v1.3c0,0.2,0,0.3,0,0.4c0,0,0.1,0.1,0.1,0.1s0.2,0.1,0.3,0.1v0.1H212v-0.1h0.1c0.1,0,0.2,0,0.3-0.1
		c0.1,0,0.1-0.1,0.1-0.2c0,0,0-0.1,0-0.3v-1.3c0-0.2,0-0.4-0.1-0.5c-0.1-0.1-0.2-0.2-0.4-0.2c-0.1,0-0.2,0-0.4,0.1
		c-0.1,0.1-0.3,0.2-0.4,0.3l0,0l0,0.1v1.4c0,0.2,0,0.3,0,0.4c0,0.1,0.1,0.1,0.1,0.1c0.1,0,0.2,0.1,0.3,0.1v0.1h-1.5v-0.1
		c0.2,0,0.3,0,0.3-0.1c0.1,0,0.1-0.1,0.1-0.2c0,0,0-0.1,0-0.3v-1.3c0-0.2,0-0.4-0.1-0.5c-0.1-0.1-0.2-0.2-0.4-0.2
		c-0.1,0-0.2,0-0.4,0.1c-0.2,0.1-0.3,0.2-0.4,0.3v1.6c0,0.2,0,0.3,0,0.4c0,0.1,0.1,0.1,0.1,0.1s0.2,0,0.3,0v0.1h-1.5v-0.1
		c0.1,0,0.2,0,0.3,0c0.1,0,0.1-0.1,0.1-0.1c0-0.1,0-0.2,0-0.4v-1.2c0-0.3,0-0.5,0-0.6c0-0.1,0-0.1-0.1-0.2c0,0-0.1,0-0.1,0
		c-0.1,0-0.1,0-0.2,0l0-0.1l0.9-0.4h0.1V274.2z"/>
	<path d="M214.8,273.5v2.4c0,0.2,0,0.3,0,0.4c0,0.1,0.1,0.1,0.1,0.1c0.1,0,0.2,0,0.3,0v0.1h-1.5v-0.1c0.1,0,0.2,0,0.3,0
		c0.1,0,0.1-0.1,0.1-0.1c0-0.1,0-0.2,0-0.4v-1.2c0-0.3,0-0.5,0-0.6c0-0.1,0-0.1-0.1-0.1c0,0-0.1,0-0.1,0c-0.1,0-0.1,0-0.2,0l0-0.1
		l0.9-0.4H214.8z M214.5,271.9c0.1,0,0.2,0,0.2,0.1c0.1,0.1,0.1,0.1,0.1,0.2c0,0.1,0,0.2-0.1,0.2c-0.1,0.1-0.1,0.1-0.2,0.1
		s-0.2,0-0.2-0.1c-0.1-0.1-0.1-0.1-0.1-0.2c0-0.1,0-0.2,0.1-0.2C214.4,272,214.4,271.9,214.5,271.9z"/>
	<path d="M216.5,273.5v0.7c0.3-0.5,0.5-0.7,0.8-0.7c0.1,0,0.2,0,0.3,0.1c0.1,0.1,0.1,0.2,0.1,0.3c0,0.1,0,0.2-0.1,0.2
		s-0.1,0.1-0.2,0.1c-0.1,0-0.2,0-0.3-0.1c-0.1-0.1-0.2-0.1-0.2-0.1c0,0-0.1,0-0.1,0.1c-0.1,0.1-0.2,0.2-0.3,0.4v1.4
		c0,0.2,0,0.3,0.1,0.4c0,0.1,0.1,0.1,0.2,0.1c0.1,0,0.2,0.1,0.3,0.1v0.1h-1.5v-0.1c0.2,0,0.3,0,0.3-0.1c0.1,0,0.1-0.1,0.1-0.2
		c0,0,0-0.1,0-0.3v-1.2c0-0.4,0-0.6,0-0.6c0-0.1,0-0.1-0.1-0.1c0,0-0.1,0-0.1,0c-0.1,0-0.1,0-0.2,0l0-0.1l0.9-0.4H216.5z"/>
</g>
<g class="st0">
	<path d="M107.8,261.7c-0.3,0-0.5,0.1-0.8,0.1c-0.3,0-0.6,0-0.8,0s-0.5-0.1-0.7-0.1c-0.2,0-0.4-0.1-0.6-0.2
		c-0.7-0.3-1.3-0.7-1.7-1.1c-0.4-0.4-0.8-0.8-1-1.2c-0.2-0.4-0.4-0.8-0.5-1.2c-0.1-0.4-0.2-0.9-0.2-1.3c0-0.5,0-0.9,0.1-1.4
		c0.1-0.5,0.3-0.9,0.5-1.3c0.2-0.4,0.5-0.8,0.7-1.2c0.3-0.4,0.6-0.7,0.8-0.9c0.3-0.3,0.7-0.6,1-0.9s0.7-0.6,1.2-0.9
		c0-0.1,0-0.2,0-0.3c0-0.1,0-0.2,0-0.3c0-0.1,0-0.2-0.1-0.3c0-0.1,0-0.3,0-0.4c0-0.1,0-0.2,0-0.4c0-0.2,0-0.4,0-0.7
		c0-0.3,0-0.6,0-0.9c0-0.4,0.1-0.7,0.1-1.1c0-0.2,0.1-0.5,0.3-0.9c0.1-0.3,0.3-0.7,0.5-1c0.2-0.3,0.4-0.6,0.6-0.8
		c0.2-0.2,0.4-0.4,0.6-0.4c0.1,0,0.2,0.1,0.3,0.2c0.1,0.1,0.2,0.3,0.3,0.5c0.1,0.2,0.2,0.4,0.3,0.7c0.1,0.3,0.2,0.5,0.3,0.8
		c0.1,0.3,0.1,0.5,0.2,0.8c0,0.3,0.1,0.5,0.1,0.7c0,0.5,0,0.9-0.1,1.2c0,0.4-0.1,0.7-0.2,1c-0.1,0.3-0.2,0.5-0.3,0.8
		s-0.2,0.5-0.4,0.7c-0.1,0.2-0.3,0.5-0.4,0.6c-0.1,0.2-0.3,0.4-0.5,0.6c-0.2,0.2-0.3,0.4-0.5,0.5c-0.2,0.1-0.3,0.3-0.5,0.4
		c0.1,0.5,0.2,0.9,0.2,1.2c0,0.2,0.1,0.3,0.1,0.5c0,0.2,0,0.3,0.1,0.4s0,0.2,0.1,0.3c0,0.1,0,0.1,0,0.2c0.2,0,0.4,0,0.7,0
		s0.4,0.1,0.7,0.1c0.2,0,0.4,0.1,0.6,0.2s0.3,0.1,0.4,0.2c0.5,0.4,0.8,0.8,1,1.2c0.2,0.5,0.3,0.9,0.4,1.4c0,0.4,0,0.8-0.1,1.1
		c-0.1,0.4-0.2,0.7-0.5,1.1c-0.2,0.3-0.5,0.7-0.8,1s-0.7,0.5-1.2,0.7c0.1,0.4,0.1,0.7,0.1,1c0,0.3,0.1,0.5,0.1,0.8
		c0,0.3,0.1,0.4,0.1,0.5c0.1,0.5,0.1,1,0.1,1.3c0,0.3-0.1,0.6-0.2,0.8c-0.1,0.2-0.2,0.4-0.3,0.5c-0.1,0.2-0.3,0.3-0.5,0.5
		c-0.2,0.1-0.4,0.2-0.6,0.3c-0.2,0.1-0.5,0.1-0.8,0.2c-0.2,0-0.5,0-0.8-0.1c-0.3-0.1-0.6-0.2-0.9-0.3c-0.3-0.1-0.6-0.3-0.8-0.6
		c-0.2-0.3-0.3-0.6-0.4-0.9c0-0.2,0-0.4,0-0.7s0.1-0.4,0.2-0.6c0.1-0.2,0.3-0.3,0.4-0.4s0.4-0.2,0.7-0.2c0.2,0,0.3,0,0.5,0.1
		s0.3,0.1,0.5,0.2c0.1,0.1,0.3,0.2,0.4,0.4c0.1,0.2,0.1,0.3,0.2,0.5c0,0.3-0.1,0.7-0.3,1c-0.2,0.3-0.6,0.5-1.2,0.7
		c0.1,0.1,0.3,0.2,0.5,0.4s0.6,0.2,0.9,0.2c0.4,0,0.8-0.1,1.1-0.4c0.4-0.2,0.6-0.5,0.8-0.9c0.1-0.2,0.2-0.5,0.2-0.9
		c0-0.4,0-0.7-0.1-1.1c0-0.1,0-0.2-0.1-0.5c0-0.2-0.1-0.5-0.1-0.8C107.9,262.5,107.8,262.1,107.8,261.7z M106,256.7
		c-0.2,0.1-0.4,0.3-0.6,0.5c-0.1,0.2-0.2,0.4-0.3,0.6s-0.1,0.4-0.1,0.6c0,0.2,0,0.3,0.1,0.5s0.1,0.3,0.2,0.5s0.2,0.3,0.3,0.4
		c0.1,0.1,0.2,0.2,0.4,0.3c0,0,0,0,0,0s0,0,0,0s0,0,0,0.1c-0.3-0.1-0.5-0.3-0.7-0.5c-0.2-0.2-0.3-0.3-0.4-0.4
		c-0.1-0.1-0.2-0.3-0.3-0.4c-0.1-0.1-0.1-0.2-0.2-0.3c0-0.1-0.1-0.3-0.1-0.4c0-0.1-0.1-0.3-0.1-0.5c0-0.2,0-0.4,0-0.6
		c0-0.2,0.1-0.4,0.2-0.6s0.2-0.4,0.4-0.6c0.2-0.2,0.4-0.4,0.6-0.6c0.1-0.1,0.2-0.2,0.3-0.2c0.1-0.1,0.2-0.1,0.3-0.1
		c0.1,0,0.2-0.1,0.2-0.1c0.1,0,0.2,0,0.3-0.1l-0.4-2.4c-0.1,0.1-0.3,0.2-0.5,0.4c-0.2,0.2-0.5,0.4-0.8,0.7c-0.3,0.3-0.6,0.5-0.9,0.8
		s-0.5,0.6-0.7,0.9c-0.3,0.5-0.6,1-0.8,1.4c-0.2,0.4-0.2,0.9-0.2,1.4c0,0.6,0.2,1.1,0.5,1.6c0.3,0.5,0.7,0.9,1.2,1.2
		c0.5,0.3,1,0.6,1.7,0.7c0.6,0.1,1.3,0.1,1.9,0c-0.1-0.9-0.3-1.7-0.4-2.4c-0.1-0.3-0.1-0.6-0.1-0.9c0-0.3-0.1-0.5-0.1-0.8
		c0-0.2-0.1-0.5-0.1-0.8C106.5,256.5,106.2,256.6,106,256.7z M108,244.6c-0.4,0-0.7,0.2-0.9,0.5c-0.3,0.3-0.5,0.7-0.6,1.2
		c-0.2,0.5-0.3,1.1-0.3,1.7c-0.1,0.6,0,1.2,0,1.7c0.3-0.2,0.6-0.5,0.9-0.8c0.3-0.3,0.6-0.7,0.9-1c0.3-0.4,0.5-0.7,0.6-1.1
		s0.2-0.7,0.2-1.1c0-0.1,0-0.2-0.1-0.4s-0.1-0.3-0.1-0.4c-0.1-0.1-0.1-0.2-0.2-0.3C108.3,244.7,108.2,244.6,108,244.6z M108,261.2
		c0.4-0.1,0.7-0.3,0.9-0.5c0.2-0.2,0.4-0.5,0.5-0.7s0.2-0.5,0.2-0.8c0-0.3,0-0.5,0-0.7c0-0.2-0.1-0.4-0.1-0.6
		c-0.1-0.2-0.2-0.5-0.3-0.7c-0.2-0.2-0.4-0.4-0.7-0.6s-0.7-0.2-1.2-0.2L108,261.2z"/>
</g>
<g class="st0">
	<path d="M120,259.5v0.9c0,0.1,0,0.2,0.1,0.3s0.1,0.1,0.2,0.2c0.1,0,0.2,0.1,0.3,0.1v0.4h-2.9V261c0.1,0,0.2,0,0.3-0.1
		c0.1,0,0.2-0.1,0.2-0.1c0.1-0.1,0.1-0.2,0.1-0.3v-0.9h-2.5l-0.2-0.3c0.3-0.4,0.5-0.7,0.7-1s0.3-0.5,0.5-0.8
		c0.1-0.2,0.2-0.5,0.3-0.7c0.1-0.2,0.2-0.4,0.2-0.6s0.1-0.5,0.2-0.7c0-0.3,0.1-0.6,0.2-0.9h2.3c-0.1,0.3-0.3,0.6-0.6,0.9
		c-0.3,0.4-0.6,0.7-1,1.1s-0.7,0.8-1.1,1.2c-0.4,0.4-0.7,0.8-1.1,1.2h2.1v-1.7l1.6-1.8v3.5h1v0.4H120z"/>
</g>
<g class="st0">
	<path d="M120.5,252.9c0,0.3-0.1,0.6-0.3,0.9c-0.2,0.3-0.4,0.5-0.7,0.6s-0.6,0.3-0.9,0.4s-0.6,0.1-0.8,0.1c-0.3,0-0.7,0-1-0.1
		c-0.3-0.1-0.5-0.2-0.8-0.4c-0.2-0.2-0.4-0.3-0.5-0.6c-0.1-0.2-0.2-0.5-0.2-0.7c0-0.1,0-0.2,0.1-0.4c0.1-0.1,0.1-0.2,0.2-0.3
		c0.1-0.1,0.2-0.2,0.3-0.2c0.1-0.1,0.2-0.1,0.4-0.1c0.3,0,0.5,0.1,0.7,0.2c0.2,0.1,0.3,0.4,0.3,0.6c0,0.2,0,0.3-0.1,0.4
		c-0.1,0.1-0.1,0.2-0.2,0.3c-0.1,0.1-0.1,0.2-0.2,0.2c0,0.1-0.1,0.2-0.1,0.3c0,0,0,0.1,0.1,0.1c0,0,0.1,0.1,0.2,0.1
		c0.1,0,0.1,0.1,0.2,0.1s0.1,0,0.1,0c0.2,0,0.4-0.1,0.6-0.2c0.2-0.1,0.3-0.3,0.4-0.4c0.1-0.2,0.2-0.4,0.2-0.5
		c0.1-0.2,0.1-0.4,0.1-0.5c0-0.3-0.1-0.5-0.2-0.7c-0.1-0.1-0.3-0.3-0.5-0.3s-0.4-0.1-0.6-0.1c-0.2,0-0.5-0.1-0.7-0.1c0,0,0,0,0-0.1
		c0,0,0-0.1,0-0.1c0,0,0-0.1,0-0.2c0.2,0,0.4-0.1,0.6-0.1s0.4-0.1,0.6-0.2c0.2-0.1,0.3-0.2,0.4-0.4c0.1-0.2,0.1-0.4,0.1-0.6
		c0-0.4-0.1-0.6-0.2-0.8c-0.1-0.2-0.3-0.3-0.4-0.4c-0.2-0.1-0.3-0.1-0.4-0.1c-0.1,0-0.2,0-0.3,0c0,0-0.1,0-0.1,0s-0.1,0-0.1,0.1
		s-0.1,0.1-0.1,0.1c0,0,0,0.1,0,0.1c0,0.1,0,0.1,0.1,0.2c0,0.1,0.1,0.1,0.2,0.2c0.1,0.1,0.1,0.1,0.2,0.2c0.1,0.1,0.1,0.2,0.2,0.3
		c0,0.1,0,0.3,0,0.4c0,0.1-0.1,0.2-0.2,0.4s-0.2,0.2-0.3,0.2c-0.1,0.1-0.3,0.1-0.4,0.1c-0.2,0-0.3,0-0.4-0.1
		c-0.1-0.1-0.2-0.2-0.3-0.3s-0.2-0.2-0.2-0.3c-0.1-0.1-0.1-0.2-0.1-0.3c0-0.2,0-0.4,0.1-0.6c0.1-0.2,0.2-0.4,0.4-0.6
		s0.5-0.3,0.8-0.4c0.3-0.1,0.8-0.2,1.3-0.2c0.2,0,0.5,0,0.7,0.1s0.4,0.2,0.6,0.3c0.2,0.1,0.3,0.3,0.4,0.5c0.1,0.2,0.2,0.4,0.2,0.7
		c0,0.3-0.1,0.6-0.2,0.8c-0.2,0.2-0.3,0.3-0.5,0.4c-0.2,0.1-0.4,0.2-0.5,0.2s-0.2,0.1-0.2,0.1c0.2,0,0.4,0.1,0.6,0.1
		c0.2,0.1,0.4,0.1,0.6,0.2c0.2,0.1,0.3,0.2,0.4,0.4C120.5,252.4,120.5,252.7,120.5,252.9z"/>
</g>
<g class="st0">
	<path d="M158.6,284.8c-0.2-0.1-0.3-0.2-0.4-0.4c-0.1-0.2-0.1-0.3-0.1-0.5c0-0.3,0.1-0.6,0.3-0.8c0.2-0.2,0.5-0.3,0.9-0.3
		c0.3,0,0.5,0.1,0.7,0.2h0.6c0.1,0,0.1,0,0.2,0c0,0,0,0,0,0c0,0,0,0.1,0,0.1c0,0.1,0,0.1,0,0.1c0,0,0,0,0,0c0,0-0.1,0-0.2,0h-0.4
		c0.1,0.2,0.2,0.4,0.2,0.6c0,0.3-0.1,0.5-0.3,0.7c-0.2,0.2-0.5,0.3-0.9,0.3c-0.1,0-0.3,0-0.5-0.1c-0.1,0.1-0.2,0.2-0.2,0.2
		s-0.1,0.1-0.1,0.2c0,0,0,0.1,0.1,0.1c0,0,0.1,0.1,0.2,0.1c0.1,0,0.2,0,0.5,0c0.5,0,0.7,0,0.9,0c0.2,0,0.4,0.1,0.5,0.2
		c0.1,0.1,0.2,0.3,0.2,0.5c0,0.2-0.1,0.5-0.3,0.7c-0.3,0.3-0.8,0.5-1.3,0.5c-0.4,0-0.8-0.1-1.1-0.3c-0.2-0.1-0.2-0.2-0.2-0.3
		c0-0.1,0-0.1,0-0.2c0-0.1,0.1-0.2,0.2-0.3c0,0,0.1-0.1,0.3-0.4c-0.1-0.1-0.2-0.1-0.2-0.2s-0.1-0.1-0.1-0.2c0-0.1,0-0.2,0.1-0.3
		C158.2,285.1,158.3,285,158.6,284.8z M158.5,285.9c-0.1,0.1-0.2,0.2-0.2,0.3s-0.1,0.2-0.1,0.3c0,0.1,0.1,0.2,0.2,0.3
		c0.2,0.1,0.5,0.2,1,0.2c0.4,0,0.7-0.1,0.9-0.2c0.2-0.1,0.3-0.3,0.3-0.4c0-0.1-0.1-0.2-0.2-0.2c-0.1,0-0.3-0.1-0.7-0.1
		C159.2,286,158.8,285.9,158.5,285.9z M159.1,283c-0.2,0-0.3,0.1-0.4,0.2c-0.1,0.1-0.2,0.3-0.2,0.6c0,0.3,0.1,0.6,0.2,0.8
		c0.1,0.1,0.3,0.2,0.4,0.2c0.2,0,0.3-0.1,0.4-0.2c0.1-0.1,0.2-0.3,0.2-0.6c0-0.3-0.1-0.6-0.2-0.8C159.5,283,159.3,283,159.1,283z"/>
	<path d="M162.2,282.8v2.4c0,0.2,0,0.3,0,0.4c0,0.1,0.1,0.1,0.1,0.1c0.1,0,0.2,0,0.3,0v0.1h-1.5v-0.1c0.1,0,0.2,0,0.3,0
		c0.1,0,0.1-0.1,0.1-0.1c0-0.1,0-0.2,0-0.4v-1.2c0-0.3,0-0.5,0-0.6c0-0.1,0-0.1-0.1-0.1c0,0-0.1,0-0.1,0c-0.1,0-0.1,0-0.2,0l0-0.1
		l0.9-0.4H162.2z M161.9,281.2c0.1,0,0.2,0,0.2,0.1c0.1,0.1,0.1,0.1,0.1,0.2c0,0.1,0,0.2-0.1,0.2c-0.1,0.1-0.1,0.1-0.2,0.1
		s-0.2,0-0.2-0.1c-0.1-0.1-0.1-0.1-0.1-0.2c0-0.1,0-0.2,0.1-0.2C161.7,281.3,161.8,281.2,161.9,281.2z"/>
	<path d="M164,281.2v4c0,0.2,0,0.3,0,0.4c0,0.1,0.1,0.1,0.1,0.1c0.1,0,0.2,0,0.3,0v0.1h-1.5v-0.1c0.1,0,0.2,0,0.3,0
		c0.1,0,0.1-0.1,0.1-0.1c0-0.1,0-0.2,0-0.4v-2.7c0-0.3,0-0.5,0-0.6c0-0.1,0-0.1-0.1-0.2c0,0-0.1,0-0.1,0c-0.1,0-0.1,0-0.2,0.1
		l-0.1-0.1l0.9-0.4H164z"/>
	<path d="M165.8,281.9v1h0.7v0.2h-0.7v2c0,0.2,0,0.3,0.1,0.4c0.1,0.1,0.1,0.1,0.2,0.1c0.1,0,0.1,0,0.2-0.1c0.1,0,0.1-0.1,0.2-0.2
		h0.1c-0.1,0.2-0.2,0.4-0.3,0.5c-0.1,0.1-0.3,0.2-0.4,0.2c-0.1,0-0.2,0-0.3-0.1c-0.1-0.1-0.2-0.1-0.2-0.2c0-0.1-0.1-0.3-0.1-0.5v-2
		h-0.5V283c0.1,0,0.2-0.1,0.4-0.2c0.1-0.1,0.2-0.3,0.3-0.4c0.1-0.1,0.1-0.2,0.2-0.5H165.8z"/>
</g>
<g class="st0">
	<path d="M244,253.3c0-0.2,0.1-0.3,0.2-0.5c0.1-0.1,0.3-0.2,0.5-0.2c0.2,0,0.4,0.1,0.5,0.2c0.1,0.1,0.2,0.3,0.2,0.5
		c0,0.2-0.1,0.4-0.2,0.5c-0.1,0.1-0.3,0.2-0.5,0.2c-0.2,0-0.4-0.1-0.5-0.2C244.1,253.6,244,253.5,244,253.3z"/>
</g>
<line class="st1" x1="238.3" y1="253.8" x2="238.3" y2="265.1"/>
<g class="st0">
	<path d="M238.2,253.3c0.1-0.2,0.2-0.5,0.4-0.7s0.4-0.4,0.6-0.5c0.2-0.2,0.5-0.3,0.8-0.4c0.3-0.1,0.6-0.1,0.9-0.1s0.5,0,0.8,0.1
		c0.2,0.1,0.4,0.2,0.5,0.4c0.1,0.2,0.2,0.3,0.2,0.6c0,0.2,0,0.4-0.1,0.7s-0.2,0.5-0.4,0.7c-0.2,0.2-0.4,0.4-0.6,0.6
		s-0.5,0.3-0.8,0.4c-0.3,0.1-0.6,0.1-0.8,0.1c-0.3,0-0.5,0-0.7-0.1c-0.2-0.1-0.4-0.2-0.5-0.4s-0.2-0.3-0.2-0.6
		C238.1,253.8,238.1,253.5,238.2,253.3z"/>
</g>
<g class="st0">
	<path d="M236.5,250.6v7.7h-0.4v-2.9l-1.9,0.5v-7.8h0.3v3L236.5,250.6z M234.7,252.4v2.1l1.5-0.4V252L234.7,252.4z"/>
</g>
<g class="st0">
	<path d="M267.1,261.7c0,0.4-0.1,0.7-0.3,1.1c-0.1,0.4-0.3,0.8-0.6,1.3c-0.3,0.5-0.6,1-0.9,1.4c-0.3,0.4-0.6,0.9-0.8,1.2
		c-0.2,0.3-0.4,0.7-0.6,1.1c-0.2,0.4-0.3,0.8-0.3,1.2h-0.3v-3.6h0.3c0.1,0,0.3,0,0.4-0.1c0.1,0,0.3-0.1,0.4-0.2
		c0.2-0.1,0.3-0.2,0.5-0.3c0.1-0.1,0.2-0.2,0.4-0.3c0.1-0.1,0.3-0.3,0.5-0.5c0.2-0.2,0.3-0.5,0.5-0.7c0.1-0.3,0.3-0.6,0.4-0.9
		c0.1-0.4,0.2-0.7,0.2-1s0-0.6,0-1c0-0.2,0-0.4-0.1-0.6s-0.1-0.4-0.2-0.6c-0.1-0.2-0.1-0.4-0.2-0.6c-0.1-0.2-0.1-0.4-0.2-0.5
		l0.1-0.1c0.1,0.2,0.2,0.4,0.3,0.7s0.2,0.6,0.3,0.9c0.1,0.3,0.1,0.7,0.1,1.1S267.1,261.3,267.1,261.7z"/>
</g>
<line class="st1" x1="263.5" y1="257.2" x2="263.5" y2="268.5"/>
<g class="st0">
	<path d="M263.4,256.7c0.1-0.2,0.2-0.5,0.4-0.7s0.4-0.4,0.6-0.5c0.2-0.2,0.5-0.3,0.8-0.4c0.3-0.1,0.6-0.1,0.9-0.1s0.5,0,0.8,0.1
		c0.2,0.1,0.4,0.2,0.5,0.4c0.1,0.2,0.2,0.3,0.2,0.6c0,0.2,0,0.4-0.1,0.7s-0.2,0.5-0.4,0.7c-0.2,0.2-0.4,0.4-0.6,0.6
		s-0.5,0.3-0.8,0.4c-0.3,0.1-0.6,0.1-0.8,0.1c-0.3,0-0.5,0-0.7-0.1c-0.2-0.1-0.4-0.2-0.5-0.4s-0.2-0.3-0.2-0.6
		C263.3,257.1,263.3,256.9,263.4,256.7z"/>
</g>
<g class="st0">
	<path d="M261.7,254v7.7h-0.4v-2.9l-1.9,0.5v-7.8h0.3v3L261.7,254z M259.8,255.8v2.1l1.5-0.4v-2.1L259.8,255.8z"/>
</g>
<g class="st0">
	<path d="M239.8,276.2c-0.3,0.2-0.5,0.4-0.6,0.4c-0.1,0.1-0.2,0.1-0.4,0.1c-0.2,0-0.4-0.1-0.5-0.2s-0.2-0.3-0.2-0.6
		c0-0.1,0-0.3,0.1-0.4c0.1-0.1,0.2-0.3,0.5-0.4s0.6-0.3,1.1-0.5v-0.1c0-0.3,0-0.5-0.1-0.6c-0.1-0.1-0.2-0.2-0.4-0.2
		c-0.1,0-0.2,0-0.3,0.1c-0.1,0.1-0.1,0.2-0.1,0.3l0,0.2c0,0.1,0,0.2-0.1,0.2c-0.1,0.1-0.1,0.1-0.2,0.1c-0.1,0-0.1,0-0.2-0.1
		c-0.1-0.1-0.1-0.1-0.1-0.2c0-0.2,0.1-0.4,0.3-0.5s0.5-0.2,0.8-0.2c0.3,0,0.5,0,0.7,0.1c0.1,0.1,0.2,0.2,0.3,0.3
		c0,0.1,0.1,0.3,0.1,0.6v1c0,0.3,0,0.5,0,0.5c0,0.1,0,0.1,0.1,0.1c0,0,0.1,0,0.1,0c0,0,0.1,0,0.1,0c0,0,0.1-0.1,0.3-0.2v0.2
		c-0.2,0.3-0.5,0.5-0.7,0.5c-0.1,0-0.2,0-0.3-0.1C239.8,276.5,239.8,276.4,239.8,276.2z M239.8,276v-1.2c-0.3,0.1-0.5,0.2-0.6,0.3
		c-0.2,0.1-0.3,0.2-0.4,0.3s-0.1,0.2-0.1,0.3c0,0.2,0,0.3,0.1,0.4c0.1,0.1,0.2,0.2,0.3,0.2C239.3,276.3,239.5,276.2,239.8,276z"/>
	<path d="M242.1,271.9v4c0,0.2,0,0.3,0,0.4c0,0.1,0.1,0.1,0.1,0.1c0.1,0,0.2,0,0.3,0v0.1h-1.5v-0.1c0.1,0,0.2,0,0.3,0
		c0.1,0,0.1-0.1,0.1-0.1c0-0.1,0-0.2,0-0.4v-2.7c0-0.3,0-0.5,0-0.6c0-0.1,0-0.1-0.1-0.2c0,0-0.1,0-0.1,0c-0.1,0-0.1,0-0.2,0.1
		l-0.1-0.1l0.9-0.4H242.1z"/>
</g>
<g class="st0">
	<path d="M262.9,271.9v4c0,0.2,0,0.3,0,0.4c0,0.1,0.1,0.1,0.1,0.1c0.1,0,0.2,0,0.3,0v0.1H262v-0.1c0.1,0,0.2,0,0.3,0
		c0.1,0,0.1-0.1,0.1-0.1c0-0.1,0-0.2,0-0.4v-2.7c0-0.3,0-0.5,0-0.6c0-0.1,0-0.1-0.1-0.2c0,0-0.1,0-0.1,0c-0.1,0-0.1,0-0.2,0.1
		l-0.1-0.1l0.9-0.4H262.9z"/>
	<path d="M264.3,274.7c0,0.4,0.1,0.8,0.3,1.1s0.5,0.4,0.8,0.4c0.2,0,0.4-0.1,0.5-0.2c0.1-0.1,0.3-0.3,0.4-0.6l0.1,0.1
		c0,0.3-0.2,0.6-0.4,0.8c-0.2,0.2-0.5,0.4-0.8,0.4c-0.4,0-0.7-0.1-0.9-0.4s-0.4-0.7-0.4-1.1c0-0.5,0.1-0.9,0.4-1.2
		c0.3-0.3,0.6-0.4,1-0.4c0.3,0,0.6,0.1,0.8,0.3c0.2,0.2,0.3,0.5,0.3,0.9H264.3z M264.3,274.6h1.4c0-0.2,0-0.3-0.1-0.4
		c-0.1-0.1-0.1-0.2-0.2-0.3s-0.2-0.1-0.3-0.1c-0.2,0-0.3,0.1-0.5,0.2S264.3,274.3,264.3,274.6z"/>
	<path d="M268.7,273.5v1h-0.1c-0.1-0.3-0.2-0.5-0.3-0.7c-0.1-0.1-0.3-0.2-0.5-0.2c-0.2,0-0.3,0-0.4,0.1c-0.1,0.1-0.1,0.2-0.1,0.3
		c0,0.1,0,0.2,0.1,0.3c0.1,0.1,0.2,0.2,0.4,0.3l0.5,0.2c0.4,0.2,0.7,0.5,0.7,0.9c0,0.3-0.1,0.5-0.3,0.7s-0.4,0.3-0.7,0.3
		c-0.2,0-0.4,0-0.6-0.1c-0.1,0-0.1,0-0.2,0c-0.1,0-0.1,0-0.1,0.1h-0.1v-1.1h0.1c0.1,0.3,0.2,0.5,0.4,0.7c0.2,0.2,0.4,0.2,0.6,0.2
		c0.2,0,0.3,0,0.4-0.1s0.1-0.2,0.1-0.3c0-0.2-0.1-0.3-0.2-0.4c-0.1-0.1-0.3-0.2-0.6-0.4c-0.3-0.2-0.5-0.3-0.6-0.4
		c-0.1-0.1-0.1-0.3-0.1-0.5c0-0.2,0.1-0.5,0.3-0.6s0.4-0.3,0.7-0.3c0.1,0,0.3,0,0.4,0.1c0.1,0,0.2,0,0.2,0c0,0,0.1,0,0.1,0
		c0,0,0,0,0.1-0.1H268.7z"/>
</g>
<path class="st1" d="M291,241.9h11.4v35.4H291"/>
<path class="st1" d="M291,241.9h11.4v35.4H291"/>
<g class="st0">
	<path d="M299.1,246.5c0-0.2,0.1-0.3,0.2-0.5c0.1-0.1,0.3-0.2,0.5-0.2c0.2,0,0.4,0.1,0.5,0.2c0.1,0.1,0.2,0.3,0.2,0.5
		c0,0.2-0.1,0.4-0.2,0.5c-0.1,0.1-0.3,0.2-0.5,0.2c-0.2,0-0.4-0.1-0.5-0.2C299.2,246.9,299.1,246.7,299.1,246.5z"/>
</g>
<line class="st1" x1="293.4" y1="247.1" x2="293.4" y2="258.3"/>
<g class="st0">
	<path d="M293.3,246.5c0.1-0.2,0.2-0.5,0.4-0.7s0.4-0.4,0.6-0.5c0.2-0.2,0.5-0.3,0.8-0.4c0.3-0.1,0.6-0.1,0.9-0.1s0.5,0,0.8,0.1
		c0.2,0.1,0.4,0.2,0.5,0.4c0.1,0.2,0.2,0.3,0.2,0.6c0,0.2,0,0.4-0.1,0.7s-0.2,0.5-0.4,0.7c-0.2,0.2-0.4,0.4-0.6,0.6
		s-0.5,0.3-0.8,0.4c-0.3,0.1-0.6,0.1-0.8,0.1c-0.3,0-0.5,0-0.7-0.1c-0.2-0.1-0.4-0.2-0.5-0.4s-0.2-0.3-0.2-0.6
		C293.2,247,293.2,246.8,293.3,246.5z"/>
</g>
<g class="st0">
	<path d="M284.4,244.4v-2.2h0.4v2.1l1.3-0.4v-2h0.4v1.8l0.5-0.2v1.4l-0.5,0.2v2l0.5-0.2v1.4l-0.5,0.2v2.2h-0.4v-2.1l-1.3,0.4v2h-0.4
		v-1.9l-0.6,0.2V248l0.6-0.2v-2l-0.6,0.2v-1.4L284.4,244.4z M284.8,245.7v2l1.3-0.4v-2L284.8,245.7z"/>
</g>
<g class="st0">
	<path d="M287.5,272.1l0.1,1.4h-0.1c-0.1-0.4-0.3-0.6-0.5-0.8c-0.3-0.3-0.6-0.4-1-0.4c-0.6,0-1,0.2-1.3,0.7
		c-0.2,0.4-0.4,0.8-0.4,1.4c0,0.4,0.1,0.8,0.2,1.2c0.2,0.4,0.4,0.6,0.6,0.8c0.3,0.2,0.5,0.2,0.8,0.2c0.2,0,0.3,0,0.5-0.1
		s0.3-0.1,0.4-0.2V275c0-0.2,0-0.4-0.1-0.4c0-0.1-0.1-0.1-0.2-0.2c-0.1,0-0.2-0.1-0.4-0.1v-0.1h1.7v0.1h-0.1c-0.2,0-0.3,0.1-0.4,0.2
		c0,0.1-0.1,0.2-0.1,0.5v1.4c-0.3,0.1-0.5,0.2-0.7,0.3s-0.5,0.1-0.8,0.1c-0.9,0-1.5-0.3-2-0.8c-0.3-0.4-0.5-0.9-0.5-1.4
		c0-0.4,0.1-0.8,0.3-1.1c0.2-0.4,0.5-0.8,0.9-1c0.3-0.2,0.7-0.3,1.2-0.3c0.2,0,0.3,0,0.4,0c0.1,0,0.3,0.1,0.6,0.2
		c0.1,0,0.2,0.1,0.2,0.1c0,0,0.1,0,0.1-0.1c0,0,0-0.1,0.1-0.2H287.5z"/>
	<path d="M289.4,273.5v0.7c0.3-0.5,0.5-0.7,0.8-0.7c0.1,0,0.2,0,0.3,0.1c0.1,0.1,0.1,0.2,0.1,0.3c0,0.1,0,0.2-0.1,0.2
		s-0.1,0.1-0.2,0.1c-0.1,0-0.2,0-0.3-0.1c-0.1-0.1-0.2-0.1-0.2-0.1c0,0-0.1,0-0.1,0.1c-0.1,0.1-0.2,0.2-0.3,0.4v1.4
		c0,0.2,0,0.3,0.1,0.4c0,0.1,0.1,0.1,0.2,0.1c0.1,0,0.2,0.1,0.3,0.1v0.1h-1.5v-0.1c0.2,0,0.3,0,0.3-0.1c0.1,0,0.1-0.1,0.1-0.2
		c0,0,0-0.1,0-0.3v-1.2c0-0.4,0-0.6,0-0.6c0-0.1,0-0.1-0.1-0.1c0,0-0.1,0-0.1,0c-0.1,0-0.1,0-0.2,0l0-0.1l0.9-0.4H289.4z"/>
	<path d="M293.4,273.6v1.8c0,0.3,0,0.6,0,0.6s0,0.1,0.1,0.2c0,0,0.1,0,0.1,0c0.1,0,0.1,0,0.2-0.1l0,0.1l-0.9,0.4h-0.1v-0.6
		c-0.3,0.3-0.5,0.5-0.6,0.5c-0.1,0.1-0.3,0.1-0.4,0.1c-0.2,0-0.3,0-0.4-0.1s-0.2-0.2-0.3-0.4c0-0.2-0.1-0.4-0.1-0.7v-1.3
		c0-0.1,0-0.2,0-0.3c0-0.1-0.1-0.1-0.1-0.1c-0.1,0-0.2,0-0.3,0v-0.1h1.1v2c0,0.3,0,0.5,0.1,0.6c0.1,0.1,0.2,0.1,0.4,0.1
		c0.1,0,0.2,0,0.3-0.1c0.1-0.1,0.3-0.2,0.4-0.3v-1.7c0-0.2,0-0.3-0.1-0.3s-0.2-0.1-0.4-0.1v-0.1H293.4z M291.6,272.2
		c0.1,0,0.2,0,0.3,0.1c0.1,0.1,0.1,0.2,0.1,0.3s0,0.2-0.1,0.3s-0.2,0.1-0.3,0.1c-0.1,0-0.2,0-0.3-0.1c-0.1-0.1-0.1-0.2-0.1-0.3
		s0-0.2,0.1-0.3S291.5,272.2,291.6,272.2z M292.8,272.2c0.1,0,0.2,0,0.3,0.1c0.1,0.1,0.1,0.2,0.1,0.3s0,0.2-0.1,0.3
		c-0.1,0.1-0.2,0.1-0.3,0.1c-0.1,0-0.2,0-0.3-0.1c-0.1-0.1-0.1-0.2-0.1-0.3s0-0.2,0.1-0.3C292.6,272.3,292.7,272.2,292.8,272.2z"/>
	<path d="M295,274.2c0.4-0.4,0.7-0.6,1-0.6c0.2,0,0.3,0,0.4,0.1s0.2,0.2,0.3,0.4c0,0.1,0.1,0.3,0.1,0.6v1.3c0,0.2,0,0.3,0,0.4
		c0,0.1,0.1,0.1,0.1,0.1c0.1,0,0.2,0,0.3,0v0.1h-1.5v-0.1h0.1c0.1,0,0.2,0,0.3-0.1s0.1-0.1,0.1-0.2c0,0,0-0.1,0-0.3v-1.2
		c0-0.3,0-0.5-0.1-0.6s-0.2-0.2-0.4-0.2c-0.3,0-0.5,0.1-0.8,0.4v1.6c0,0.2,0,0.3,0,0.4c0,0.1,0.1,0.1,0.1,0.1c0.1,0,0.2,0,0.3,0v0.1
		H294v-0.1h0.1c0.2,0,0.3,0,0.3-0.1s0.1-0.2,0.1-0.4v-1.1c0-0.4,0-0.6,0-0.7c0-0.1,0-0.1-0.1-0.2c0,0-0.1,0-0.1,0
		c-0.1,0-0.1,0-0.2,0l0-0.1l0.9-0.4h0.1V274.2z"/>
</g>
<g class="st0">
	<path d="M309.6,247.8h-0.3l-0.6-5.3c0-0.2,0-0.4,0-0.5c0-0.3,0.1-0.5,0.2-0.7c0.1-0.2,0.3-0.2,0.5-0.2s0.4,0.1,0.5,0.2
		c0.1,0.2,0.2,0.4,0.2,0.7c0,0.1,0,0.3,0,0.4L309.6,247.8z M309.5,248.9c0.2,0,0.4,0.1,0.5,0.2c0.1,0.1,0.2,0.3,0.2,0.5
		c0,0.2-0.1,0.4-0.2,0.5c-0.1,0.1-0.3,0.2-0.5,0.2s-0.4-0.1-0.5-0.2c-0.1-0.1-0.2-0.3-0.2-0.5c0-0.2,0.1-0.4,0.2-0.5
		C309.1,249,309.3,248.9,309.5,248.9z"/>
</g>
<g class="st0">
	<path d="M251.5,274.9h1.7v0.5h-1.7V274.9z"/>
</g>
<circle class="st1" cx="141.4" cy="263.4" r="2.3"/>
<path class="st1" d="M102.2,242.4h-1.7v25.3h1.7"/>
<path class="st1" d="M109.7,242.4h1.7v25.3h-1.7"/>
<g class="st0">
	<path d="M85.3,76.6l0.6-0.1c0,0.3,0.1,0.6,0.3,0.7c0.2,0.1,0.3,0.2,0.6,0.2c0.3,0,0.5-0.1,0.8-0.3c0.2-0.2,0.3-0.5,0.3-0.7
		c0-0.2-0.1-0.4-0.2-0.6c-0.2-0.2-0.4-0.2-0.6-0.2c0,0-0.1,0-0.2,0l0.1-0.5c0.1,0,0.1,0,0.2,0c0.3,0,0.6-0.1,0.8-0.2
		s0.3-0.4,0.3-0.6c0-0.2-0.1-0.4-0.2-0.6c-0.2-0.2-0.3-0.2-0.6-0.2c-0.2,0-0.4,0.1-0.6,0.2c-0.2,0.2-0.3,0.4-0.3,0.7l-0.6-0.1
		c0.1-0.4,0.3-0.7,0.6-0.9c0.3-0.2,0.6-0.3,1-0.3c0.4,0,0.7,0.1,1,0.4s0.4,0.5,0.4,0.9c0,0.3-0.1,0.5-0.2,0.7
		c-0.1,0.2-0.3,0.3-0.6,0.5c0.2,0.1,0.3,0.2,0.4,0.4c0.1,0.2,0.1,0.3,0.1,0.5c0,0.4-0.2,0.8-0.5,1.1S87.3,78,86.8,78
		c-0.4,0-0.8-0.1-1.1-0.4C85.5,77.4,85.3,77.1,85.3,76.6z"/>
</g>
<g class="st0">
	<path d="M231.4,77.9l0.3-1.2h-2l0.1-0.6l2.7-3h0.5l-0.6,3.1h0.7l-0.1,0.5h-0.7l-0.3,1.2H231.4z M231.8,76.2l0.4-2l-1.8,2H231.8z"/>
</g>
<g class="st0">
	<path d="M279.4,76.5l0.6-0.1c0,0.1,0,0.1,0,0.2c0,0.1,0,0.3,0.1,0.4c0.1,0.1,0.2,0.3,0.3,0.3c0.1,0.1,0.3,0.1,0.4,0.1
		c0.2,0,0.4-0.1,0.6-0.2c0.2-0.1,0.3-0.3,0.5-0.6s0.2-0.5,0.2-0.7c0-0.3-0.1-0.5-0.2-0.6c-0.2-0.2-0.4-0.2-0.6-0.2
		c-0.2,0-0.3,0-0.5,0.1c-0.2,0.1-0.3,0.2-0.4,0.4l-0.5,0l0.7-2.5h2.4l-0.1,0.5h-1.8l-0.4,1.2c0.1-0.1,0.3-0.2,0.4-0.2
		s0.3-0.1,0.4-0.1c0.4,0,0.7,0.1,0.9,0.4s0.4,0.6,0.4,1c0,0.4-0.1,0.7-0.2,1c-0.2,0.3-0.4,0.6-0.7,0.7s-0.6,0.3-0.9,0.3
		c-0.3,0-0.5-0.1-0.7-0.2c-0.2-0.1-0.4-0.3-0.5-0.5S279.4,76.8,279.4,76.5C279.4,76.6,279.4,76.6,279.4,76.5z"/>
</g>
<line class="st5" x1="117.4" y1="237.3" x2="117.4" y2="242.4"/>
<line class="st5" x1="114.8" y1="239.8" x2="119.9" y2="239.8"/>
<line class="st5" x1="115.6" y1="238" x2="119.2" y2="241.7"/>
<line class="st5" x1="118.9" y1="237.8" x2="115.9" y2="241.9"/>
<g class="st0">
	<path d="M291.3,245.9c0,0.1,0.1,0.2,0.1,0.2c0,0.1,0,0.2,0,0.3c0,0.1,0,0.2,0,0.3s0,0.1-0.1,0.2c-0.1,0.3-0.2,0.5-0.4,0.7
		s-0.4,0.3-0.5,0.4c-0.3,0.2-0.7,0.2-1.2,0.2c-0.1,0-0.1,0-0.2,0s-0.2,0-0.3-0.1c-0.1,0-0.2-0.1-0.3-0.1c-0.1-0.1-0.1-0.1-0.2-0.2
		c-0.1-0.1-0.1-0.2-0.1-0.3c0-0.1,0-0.2,0-0.3c0-0.1,0-0.2,0-0.2c0-0.1,0-0.1,0.1-0.2c0.1-0.3,0.2-0.5,0.4-0.6s0.3-0.3,0.5-0.4
		c0.2-0.1,0.3-0.2,0.6-0.2c0.2-0.1,0.5-0.1,0.8,0c0.1,0,0.1,0,0.2,0c0.1,0,0.2,0,0.2,0.1s0.2,0.1,0.2,0.1S291.3,245.8,291.3,245.9z
		 M291.1,246.1c-0.1-0.1-0.1-0.1-0.2-0.2s-0.2,0-0.2,0c-0.1,0-0.2,0-0.3,0.1s-0.2,0.1-0.3,0.1c-0.1,0.1-0.2,0.1-0.3,0.2
		c-0.1,0.1-0.2,0.1-0.3,0.2c-0.2,0.1-0.4,0.2-0.6,0.4c-0.1,0-0.1,0.1-0.2,0.2c-0.1,0.1-0.1,0.1-0.2,0.2c-0.1,0.1-0.1,0.2-0.1,0.2
		c0,0.1,0,0.2,0,0.2c0,0.1,0.1,0.1,0.2,0.2c0.1,0,0.2,0,0.3,0c0.1,0,0.2,0,0.3-0.1c0.1,0,0.2-0.1,0.3-0.1c0.1-0.1,0.2-0.1,0.3-0.2
		s0.2-0.1,0.3-0.2c0.1-0.1,0.2-0.1,0.3-0.2c0.1-0.1,0.2-0.1,0.3-0.2c0.1,0,0.1-0.1,0.2-0.2s0.1-0.1,0.2-0.2c0.1-0.1,0.1-0.2,0.1-0.2
		C291.2,246.3,291.1,246.2,291.1,246.1z"/>
</g>
<line class="st1" x1="288.3" y1="247.1" x2="288.3" y2="258.3"/>
</svg>
