<?xml version="1.0" encoding="utf-8"?>
<!-- Generator: Adobe Illustrator 22.1.0, SVG Export Plug-In . SVG Version: 6.00 Build 0)  -->
<svg version="1.1" id="Ebene_1" xmlns="http://www.w3.org/2000/svg" xmlns:xlink="http://www.w3.org/1999/xlink" x="0px" y="0px"
	 viewBox="0 0 1021 595" style="enable-background:new 0 0 1021 595;" xml:space="preserve">
<style type="text/css">
	.st0{fill:none;stroke:#000000;stroke-width:0.4;}
	.st1{enable-background:new    ;}
	.st2{fill:none;stroke:#000000;stroke-width:0.56;}
	.st3{fill:#FFFFFF;stroke:#000000;stroke-width:0.4;stroke-miterlimit:10;}
	.st4{fill:none;stroke:#000000;stroke-width:0.4;stroke-miterlimit:10;}
</style>
<line class="st0" x1="565.7" y1="167.2" x2="565.7" y2="221.2"/>
<line class="st0" x1="565.7" y1="126.7" x2="565.7" y2="140.2"/>
<line class="st0" x1="84.9" y1="126.7" x2="935.4" y2="126.7"/>
<line class="st0" x1="84.9" y1="130.1" x2="935.4" y2="130.1"/>
<line class="st0" x1="84.9" y1="133.5" x2="935.4" y2="133.5"/>
<line class="st0" x1="84.9" y1="136.8" x2="935.4" y2="136.8"/>
<line class="st0" x1="84.9" y1="140.2" x2="935.4" y2="140.2"/>
<line class="st0" x1="84.9" y1="167.2" x2="935.4" y2="167.2"/>
<line class="st0" x1="84.9" y1="170.6" x2="935.4" y2="170.6"/>
<line class="st0" x1="84.9" y1="174" x2="935.4" y2="174"/>
<line class="st0" x1="84.9" y1="177.3" x2="935.4" y2="177.3"/>
<line class="st0" x1="84.9" y1="180.7" x2="935.4" y2="180.7"/>
<line class="st0" x1="84.9" y1="207.7" x2="935.4" y2="207.7"/>
<line class="st0" x1="84.9" y1="211.1" x2="935.4" y2="211.1"/>
<line class="st0" x1="84.9" y1="214.5" x2="935.4" y2="214.5"/>
<line class="st0" x1="84.9" y1="217.8" x2="935.4" y2="217.8"/>
<line class="st0" x1="84.9" y1="221.2" x2="935.4" y2="221.2"/>
<g class="st1">
	<path d="M51.3,78.9l1-4.8h1.5c0.3,0,0.5,0,0.6,0c0.2,0,0.4,0.1,0.5,0.2c0.1,0.1,0.3,0.2,0.3,0.4c0.1,0.2,0.1,0.3,0.1,0.5
		c0,0.3-0.1,0.5-0.2,0.7s-0.4,0.4-0.7,0.5c0.3,0.1,0.5,0.2,0.6,0.4c0.1,0.2,0.2,0.4,0.2,0.6c0,0.3-0.1,0.5-0.2,0.8s-0.4,0.4-0.6,0.6
		s-0.5,0.2-0.8,0.2H51.3z M52.1,78.3h1.1c0.3,0,0.5,0,0.6,0c0.2,0,0.4-0.1,0.5-0.2c0.1-0.1,0.2-0.2,0.3-0.3c0.1-0.1,0.1-0.3,0.1-0.4
		c0-0.2-0.1-0.4-0.2-0.5c-0.1-0.1-0.4-0.2-0.8-0.2h-1.2L52.1,78.3z M52.5,76.1h1c0.5,0,0.8-0.1,1-0.2c0.2-0.1,0.3-0.4,0.3-0.7
		c0-0.1,0-0.3-0.1-0.4c-0.1-0.1-0.1-0.2-0.3-0.2c-0.1,0-0.3-0.1-0.6-0.1h-1L52.5,76.1z"/>
	<path d="M55.7,78.9l1-4.8h0.6l-1,4.8H55.7z"/>
	<path d="M57.4,78.9l0.1-0.7h0.7l-0.1,0.7H57.4z"/>
	<path d="M61.1,77.6l0.6-0.1c0,0.3,0.1,0.6,0.3,0.7c0.2,0.1,0.3,0.2,0.6,0.2c0.3,0,0.5-0.1,0.8-0.3c0.2-0.2,0.3-0.5,0.3-0.7
		c0-0.2-0.1-0.4-0.2-0.6c-0.2-0.2-0.4-0.2-0.6-0.2c0,0-0.1,0-0.2,0l0.1-0.5c0.1,0,0.1,0,0.2,0c0.3,0,0.6-0.1,0.8-0.2
		s0.3-0.4,0.3-0.6c0-0.2-0.1-0.4-0.2-0.6c-0.2-0.2-0.3-0.2-0.6-0.2c-0.2,0-0.4,0.1-0.6,0.2c-0.2,0.2-0.3,0.4-0.3,0.7l-0.6-0.1
		c0.1-0.4,0.3-0.7,0.6-0.9c0.3-0.2,0.6-0.3,1-0.3c0.4,0,0.7,0.1,1,0.4s0.4,0.5,0.4,0.9c0,0.3-0.1,0.5-0.2,0.7
		c-0.1,0.2-0.3,0.3-0.6,0.5c0.2,0.1,0.3,0.2,0.4,0.4c0.1,0.2,0.1,0.3,0.1,0.5c0,0.4-0.2,0.8-0.5,1.1s-0.7,0.5-1.2,0.5
		c-0.4,0-0.8-0.1-1.1-0.4C61.3,78.3,61.2,78,61.1,77.6z"/>
	<path d="M65,77.8l0.6-0.1c0,0.3,0.1,0.5,0.2,0.6c0.1,0.1,0.3,0.2,0.4,0.2c0.2,0,0.4-0.1,0.6-0.3c0.3-0.3,0.5-0.7,0.6-1.2
		c-0.2,0.1-0.4,0.3-0.5,0.3c-0.2,0.1-0.3,0.1-0.5,0.1c-0.3,0-0.6-0.1-0.8-0.3c-0.3-0.3-0.5-0.6-0.5-1.1c0-0.5,0.2-1,0.5-1.4
		c0.3-0.3,0.7-0.5,1.1-0.5c0.4,0,0.7,0.1,1,0.4s0.4,0.7,0.4,1.3c0,0.5-0.1,1-0.3,1.6c-0.2,0.6-0.5,1-0.8,1.3c-0.3,0.2-0.6,0.3-1,0.3
		c-0.3,0-0.6-0.1-0.8-0.3C65.1,78.4,65,78.1,65,77.8z M65.8,75.8c0,0.3,0.1,0.5,0.2,0.7c0.2,0.2,0.4,0.3,0.6,0.3
		c0.2,0,0.3-0.1,0.5-0.2c0.2-0.1,0.3-0.3,0.4-0.5c0.1-0.2,0.2-0.5,0.2-0.7c0-0.2,0-0.4-0.1-0.5c-0.1-0.2-0.2-0.3-0.3-0.4
		c-0.1-0.1-0.3-0.1-0.4-0.1c-0.1,0-0.3,0-0.4,0.1s-0.2,0.2-0.4,0.3c-0.1,0.1-0.2,0.3-0.2,0.5C65.8,75.5,65.8,75.7,65.8,75.8z"/>
</g>
<g class="st1">
	<path d="M68.4,76.6l0.4-2h0.3L69.1,75c0.1-0.2,0.2-0.3,0.3-0.3s0.2-0.1,0.3-0.1c0.1,0,0.2,0,0.3,0.1l-0.1,0.3
		c-0.1,0-0.1-0.1-0.2-0.1c-0.1,0-0.2,0.1-0.4,0.2c-0.1,0.1-0.2,0.4-0.3,0.7l-0.2,0.8H68.4z"/>
</g>
<g class="st1">
	<path d="M52.6,136.8l0.8-3.6c-0.3,0.3-0.8,0.5-1.4,0.6l0.1-0.5c0.3-0.1,0.6-0.3,0.9-0.5c0.3-0.2,0.5-0.4,0.7-0.5
		c0.1-0.1,0.2-0.2,0.3-0.3h0.3l-1,4.9H52.6z"/>
	<path d="M56.8,136.8l0.3-1.2h-2l0.1-0.6l2.7-3h0.5l-0.6,3.1h0.7l-0.1,0.5h-0.7l-0.3,1.2H56.8z M57.2,135.1l0.4-2l-1.8,2H57.2z"/>
</g>
<g class="st1">
	<path d="M52.6,177.3l0.8-3.6c-0.3,0.3-0.8,0.5-1.4,0.6l0.1-0.5c0.3-0.1,0.6-0.3,0.9-0.5c0.3-0.2,0.5-0.4,0.7-0.5
		c0.1-0.1,0.2-0.2,0.3-0.3h0.3l-1,4.9H52.6z"/>
	<path d="M55.2,176l0.6-0.1c0,0.1,0,0.1,0,0.2c0,0.1,0,0.3,0.1,0.4c0.1,0.1,0.2,0.3,0.3,0.3c0.1,0.1,0.3,0.1,0.4,0.1
		c0.2,0,0.4-0.1,0.6-0.2c0.2-0.1,0.3-0.3,0.5-0.6s0.2-0.5,0.2-0.7c0-0.3-0.1-0.5-0.2-0.6c-0.2-0.2-0.4-0.2-0.6-0.2
		c-0.2,0-0.3,0-0.5,0.1c-0.2,0.1-0.3,0.2-0.4,0.4l-0.5,0l0.7-2.5h2.4l-0.1,0.5h-1.8l-0.4,1.2c0.1-0.1,0.3-0.2,0.4-0.2
		s0.3-0.1,0.4-0.1c0.4,0,0.7,0.1,0.9,0.4s0.4,0.6,0.4,1c0,0.4-0.1,0.7-0.2,1c-0.2,0.3-0.4,0.6-0.7,0.7s-0.6,0.3-0.9,0.3
		c-0.3,0-0.5-0.1-0.7-0.2c-0.2-0.1-0.4-0.3-0.5-0.5S55.2,176.3,55.2,176C55.2,176,55.2,176,55.2,176z"/>
</g>
<g class="st1">
	<path d="M52.6,217.8l0.8-3.6c-0.3,0.3-0.8,0.5-1.4,0.6l0.1-0.5c0.3-0.1,0.6-0.3,0.9-0.5c0.3-0.2,0.5-0.4,0.7-0.5
		c0.1-0.1,0.2-0.2,0.3-0.3h0.3l-1,4.9H52.6z"/>
	<path d="M56.1,215c0.2-0.1,0.3-0.2,0.5-0.3c0.2-0.1,0.3-0.1,0.5-0.1c0.4,0,0.7,0.1,0.9,0.4c0.2,0.2,0.4,0.6,0.4,1
		c0,0.5-0.2,1-0.5,1.4c-0.3,0.3-0.7,0.5-1.1,0.5c-0.4,0-0.7-0.1-1-0.4c-0.3-0.3-0.4-0.7-0.4-1.3c0-0.5,0.1-1,0.3-1.5
		c0.1-0.4,0.3-0.7,0.5-1c0.2-0.3,0.4-0.4,0.6-0.6c0.2-0.1,0.5-0.2,0.7-0.2c0.3,0,0.6,0.1,0.8,0.3c0.2,0.2,0.3,0.5,0.4,0.9l-0.6,0.1
		c0-0.3-0.1-0.5-0.2-0.6c-0.1-0.1-0.3-0.2-0.4-0.2c-0.2,0-0.4,0.1-0.5,0.2c-0.2,0.1-0.3,0.3-0.5,0.6C56.3,214.6,56.2,214.8,56.1,215
		z M55.9,216.5c0,0.3,0.1,0.5,0.3,0.7c0.2,0.2,0.4,0.3,0.6,0.3c0.1,0,0.3-0.1,0.5-0.2c0.2-0.1,0.3-0.3,0.4-0.5
		c0.1-0.2,0.2-0.5,0.2-0.7c0-0.3-0.1-0.5-0.2-0.7c-0.2-0.2-0.4-0.3-0.6-0.3c-0.3,0-0.5,0.1-0.7,0.4C56,215.7,55.9,216.1,55.9,216.5z
		"/>
</g>
<g class="st1">
	<path d="M560.1,173.2c-0.1,0.1-0.1,0.2-0.2,0.3s-0.1,0.2-0.2,0.3c-0.1,0.1-0.1,0.2-0.2,0.3c-0.1,0.1-0.1,0.2-0.2,0.3
		s-0.2,0.2-0.2,0.3c-0.1,0.1-0.2,0.2-0.2,0.2c-0.1,0.1-0.2,0.1-0.2,0.2c-0.1,0.1-0.2,0.1-0.3,0.2c-0.1,0.1-0.3,0.2-0.4,0.3
		s-0.2,0.1-0.4,0.2c-0.1,0.1-0.2,0.1-0.4,0.2c-0.1,0-0.3,0.1-0.4,0.2c-0.2,0.1-0.3,0.1-0.5,0.2s-0.4,0.1-0.5,0.1
		c-0.2,0-0.4,0.1-0.6,0.1l-0.1-0.2c0.3-0.1,0.6-0.2,1-0.4c0.3-0.1,0.5-0.3,0.8-0.4s0.5-0.4,0.8-0.6c0.5-0.6,1-1.2,1.2-1.9
		c0.3-0.7,0.4-1.5,0.4-2.4c0-0.2,0-0.4-0.1-0.7c0-0.3-0.1-0.5-0.2-0.8s-0.3-0.4-0.5-0.6s-0.5-0.3-0.8-0.3c-0.2,0-0.4,0-0.6,0.1
		s-0.4,0.2-0.6,0.3s-0.3,0.3-0.4,0.4c-0.1,0.2-0.2,0.4-0.1,0.6c0,0,0,0,0.1,0c0,0,0.1,0,0.2,0c0.1,0,0.2,0,0.3-0.1
		c0.1,0,0.2,0,0.4,0c0.1,0,0.3,0.1,0.4,0.1c0.1,0.1,0.2,0.2,0.3,0.3c0.1,0.1,0.1,0.3,0.1,0.4c0,0.2,0,0.3,0,0.4
		c-0.1,0.2-0.2,0.4-0.3,0.5c-0.1,0.1-0.3,0.2-0.6,0.2c-0.2,0-0.3,0-0.5-0.1s-0.3-0.1-0.4-0.2c-0.1-0.1-0.2-0.2-0.3-0.4
		c-0.1-0.2-0.1-0.3-0.1-0.5c0-0.3,0-0.5,0.1-0.8c0.1-0.2,0.2-0.4,0.3-0.6c0.1-0.2,0.2-0.3,0.3-0.4s0.2-0.2,0.3-0.2
		c0.2-0.2,0.5-0.3,0.8-0.3c0.3-0.1,0.5-0.1,0.7-0.1c0.3,0,0.5,0,0.8,0.1c0.3,0.1,0.5,0.2,0.7,0.4c0.2,0.2,0.4,0.3,0.6,0.6
		s0.3,0.5,0.4,0.7c0.1,0.3,0.2,0.6,0.2,1c0,0.3,0,0.7-0.1,1.1c0,0.1-0.1,0.3-0.1,0.4c0,0.1-0.1,0.2-0.1,0.3c0,0.1-0.1,0.2-0.1,0.3
		C560.3,173,560.2,173.1,560.1,173.2z M561.2,169.3c0-0.2,0-0.3,0.2-0.4c0.1-0.1,0.2-0.2,0.4-0.2c0.2,0,0.3,0,0.4,0.1
		s0.2,0.2,0.2,0.4c0,0.2,0,0.3-0.2,0.4c-0.1,0.1-0.2,0.2-0.4,0.2c-0.2,0-0.3,0-0.4-0.2C561.2,169.6,561.2,169.5,561.2,169.3z
		 M561.2,171.9c0-0.2,0.1-0.3,0.2-0.4c0.1-0.1,0.2-0.2,0.4-0.2c0.2,0,0.3,0,0.4,0.1c0.1,0.1,0.2,0.2,0.2,0.4c0,0.2,0,0.3-0.2,0.4
		s-0.2,0.2-0.4,0.2c-0.2,0-0.3,0-0.4-0.2C561.2,172.2,561.2,172.1,561.2,171.9z"/>
</g>
<g class="st1">
	<path d="M560.1,213.7c-0.1,0.1-0.1,0.2-0.2,0.3s-0.1,0.2-0.2,0.3c-0.1,0.1-0.1,0.2-0.2,0.3c-0.1,0.1-0.1,0.2-0.2,0.3
		s-0.2,0.2-0.2,0.3c-0.1,0.1-0.2,0.2-0.2,0.2c-0.1,0.1-0.2,0.1-0.2,0.2c-0.1,0.1-0.2,0.1-0.3,0.2c-0.1,0.1-0.3,0.2-0.4,0.3
		s-0.2,0.1-0.4,0.2c-0.1,0.1-0.2,0.1-0.4,0.2c-0.1,0-0.3,0.1-0.4,0.2c-0.2,0.1-0.3,0.1-0.5,0.2s-0.4,0.1-0.5,0.1
		c-0.2,0-0.4,0.1-0.6,0.1l-0.1-0.2c0.3-0.1,0.6-0.2,1-0.4c0.3-0.1,0.5-0.3,0.8-0.4s0.5-0.4,0.8-0.6c0.5-0.6,1-1.2,1.2-1.9
		c0.3-0.7,0.4-1.5,0.4-2.4c0-0.2,0-0.4-0.1-0.7c0-0.3-0.1-0.5-0.2-0.8s-0.3-0.4-0.5-0.6s-0.5-0.3-0.8-0.3c-0.2,0-0.4,0-0.6,0.1
		s-0.4,0.2-0.6,0.3s-0.3,0.3-0.4,0.4c-0.1,0.2-0.2,0.4-0.1,0.6c0,0,0,0,0.1,0c0,0,0.1,0,0.2,0c0.1,0,0.2,0,0.3-0.1
		c0.1,0,0.2,0,0.4,0c0.1,0,0.3,0.1,0.4,0.1c0.1,0.1,0.2,0.2,0.3,0.3c0.1,0.1,0.1,0.3,0.1,0.4c0,0.2,0,0.3,0,0.4
		c-0.1,0.2-0.2,0.4-0.3,0.5c-0.1,0.1-0.3,0.2-0.6,0.2c-0.2,0-0.3,0-0.5-0.1s-0.3-0.1-0.4-0.2c-0.1-0.1-0.2-0.2-0.3-0.4
		c-0.1-0.2-0.1-0.3-0.1-0.5c0-0.3,0-0.5,0.1-0.8c0.1-0.2,0.2-0.4,0.3-0.6c0.1-0.2,0.2-0.3,0.3-0.4s0.2-0.2,0.3-0.2
		c0.2-0.2,0.5-0.3,0.8-0.3c0.3-0.1,0.5-0.1,0.7-0.1c0.3,0,0.5,0,0.8,0.1c0.3,0.1,0.5,0.2,0.7,0.4c0.2,0.2,0.4,0.3,0.6,0.6
		s0.3,0.5,0.4,0.7c0.1,0.3,0.2,0.6,0.2,1c0,0.3,0,0.7-0.1,1.1c0,0.1-0.1,0.3-0.1,0.4c0,0.1-0.1,0.2-0.1,0.3c0,0.1-0.1,0.2-0.1,0.3
		C560.3,213.5,560.2,213.6,560.1,213.7z M561.2,209.8c0-0.2,0-0.3,0.2-0.4c0.1-0.1,0.2-0.2,0.4-0.2c0.2,0,0.3,0,0.4,0.1
		s0.2,0.2,0.2,0.4c0,0.2,0,0.3-0.2,0.4c-0.1,0.1-0.2,0.2-0.4,0.2c-0.2,0-0.3,0-0.4-0.2C561.2,210.1,561.2,210,561.2,209.8z
		 M561.2,212.4c0-0.2,0.1-0.3,0.2-0.4c0.1-0.1,0.2-0.2,0.4-0.2c0.2,0,0.3,0,0.4,0.1c0.1,0.1,0.2,0.2,0.2,0.4c0,0.2,0,0.3-0.2,0.4
		s-0.2,0.2-0.4,0.2c-0.2,0-0.3,0-0.4-0.2C561.2,212.7,561.2,212.6,561.2,212.4z"/>
</g>
<line class="st0" x1="584.9" y1="166.1" x2="584.9" y2="185.2"/>
<g class="st1">
	<path d="M584.8,165.5c0.1-0.2,0.2-0.5,0.4-0.7c0.2-0.2,0.4-0.4,0.6-0.5c0.2-0.2,0.5-0.3,0.8-0.4c0.3-0.1,0.6-0.1,0.9-0.1
		s0.5,0,0.8,0.1c0.2,0.1,0.4,0.2,0.5,0.4c0.1,0.2,0.2,0.3,0.2,0.6c0,0.2,0,0.4-0.1,0.7s-0.2,0.5-0.4,0.7c-0.2,0.2-0.4,0.4-0.6,0.6
		c-0.2,0.2-0.5,0.3-0.8,0.4c-0.3,0.1-0.6,0.1-0.8,0.1c-0.3,0-0.5,0-0.8-0.1c-0.2-0.1-0.4-0.2-0.5-0.4s-0.2-0.3-0.2-0.6
		C584.7,166,584.7,165.8,584.8,165.5z"/>
</g>
<g class="st1">
	<path d="M584.8,175.7c0.1-0.2,0.2-0.5,0.4-0.7c0.2-0.2,0.4-0.4,0.6-0.5c0.2-0.2,0.5-0.3,0.8-0.4c0.3-0.1,0.6-0.1,0.9-0.1
		s0.5,0,0.8,0.1c0.2,0.1,0.4,0.2,0.5,0.4c0.1,0.2,0.2,0.3,0.2,0.6c0,0.2,0,0.4-0.1,0.7s-0.2,0.5-0.4,0.7c-0.2,0.2-0.4,0.4-0.6,0.6
		c-0.2,0.2-0.5,0.3-0.8,0.4c-0.3,0.1-0.6,0.1-0.8,0.1c-0.3,0-0.5,0-0.8-0.1c-0.2-0.1-0.4-0.2-0.5-0.4s-0.2-0.3-0.2-0.6
		C584.7,176.1,584.7,175.9,584.8,175.7z"/>
</g>
<g class="st1">
	<path d="M581,173.6v-2.2h0.4v2.1l1.3-0.4v-2h0.4v1.8l0.5-0.2v1.4l-0.5,0.2v2l0.5-0.2v1.4l-0.5,0.2v2.2h-0.4v-2.1l-1.3,0.4v2H581
		v-1.9l-0.6,0.2v-1.4l0.6-0.2v-2l-0.6,0.2v-1.4L581,173.6z M581.4,174.8v2l1.3-0.4v-2L581.4,174.8z"/>
</g>
<g class="st1">
	<path d="M583.2,162.9v7.7h-0.4v-2.9l-1.9,0.5v-7.8h0.3v3L583.2,162.9z M581.3,164.7v2.1l1.5-0.4v-2.1L581.3,164.7z"/>
</g>
<line class="st0" x1="588.8" y1="230.8" x2="588.8" y2="209.4"/>
<g class="st1">
	<path d="M584.8,221.2c0.1-0.2,0.2-0.5,0.4-0.7c0.2-0.2,0.4-0.4,0.6-0.5c0.2-0.2,0.5-0.3,0.8-0.4c0.3-0.1,0.6-0.1,0.9-0.1
		s0.5,0,0.8,0.1c0.2,0.1,0.4,0.2,0.5,0.4c0.1,0.2,0.2,0.3,0.2,0.6c0,0.2,0,0.4-0.1,0.7s-0.2,0.5-0.4,0.7c-0.2,0.2-0.4,0.4-0.6,0.6
		c-0.2,0.2-0.5,0.3-0.8,0.4c-0.3,0.1-0.6,0.1-0.8,0.1c-0.3,0-0.5,0-0.8-0.1c-0.2-0.1-0.4-0.2-0.5-0.4s-0.2-0.3-0.2-0.6
		C584.7,221.7,584.7,221.5,584.8,221.2z"/>
</g>
<line class="st2" x1="583.9" y1="231.3" x2="589.9" y2="231.3"/>
<line class="st2" x1="583.9" y1="228" x2="589.9" y2="228"/>
<line class="st2" x1="583.9" y1="224.6" x2="589.9" y2="224.6"/>
<g class="st1">
	<path d="M584.8,231.4c0.1-0.2,0.2-0.5,0.4-0.7c0.2-0.2,0.4-0.4,0.6-0.5c0.2-0.2,0.5-0.3,0.8-0.4c0.3-0.1,0.6-0.1,0.9-0.1
		s0.5,0,0.8,0.1c0.2,0.1,0.4,0.2,0.5,0.4c0.1,0.2,0.2,0.3,0.2,0.6c0,0.2,0,0.4-0.1,0.7s-0.2,0.5-0.4,0.7c-0.2,0.2-0.4,0.4-0.6,0.6
		c-0.2,0.2-0.5,0.3-0.8,0.4c-0.3,0.1-0.6,0.1-0.8,0.1c-0.3,0-0.5,0-0.8-0.1c-0.2-0.1-0.4-0.2-0.5-0.4s-0.2-0.3-0.2-0.6
		C584.7,231.8,584.7,231.6,584.8,231.4z"/>
</g>
<g class="st1">
	<path d="M583.2,228.7v7.7h-0.4v-2.9l-1.9,0.5v-7.8h0.3v3L583.2,228.7z M581.3,230.5v2.1l1.5-0.4v-2.1L581.3,230.5z"/>
</g>
<g class="st1">
	<path d="M581,219.1v-2.2h0.4v2.1l1.3-0.4v-2h0.4v1.8l0.5-0.2v1.4l-0.5,0.2v2l0.5-0.2v1.4l-0.5,0.2v2.2h-0.4v-2.1l-1.3,0.4v2H581
		v-1.9l-0.6,0.2v-1.4l0.6-0.2v-2l-0.6,0.2v-1.4L581,219.1z M581.4,220.4v2l1.3-0.4v-2L581.4,220.4z"/>
</g>
<g class="st1">
	<path d="M618.3,211.6c0.2-0.1,0.4,0,0.6,0s0.3,0.2,0.4,0.4c0.1,0.2,0.1,0.3,0.2,0.5c0,0.2,0,0.4,0,0.5c0.1,0,0.3,0,0.4-0.1
		s0.2-0.1,0.4-0.2c0.1-0.1,0.2-0.2,0.3-0.3c0.1-0.1,0.2-0.2,0.3-0.3l0.2,0.1l-1.5,5.7h-0.5c0.1-0.3,0.2-0.6,0.3-0.9
		c0.1-0.2,0.2-0.5,0.2-0.7c0.1-0.3,0.2-0.5,0.2-0.6c0.1-0.4,0.3-0.7,0.4-1.1s0.2-0.6,0.2-0.8c0.1-0.3,0.1-0.5,0.1-0.7
		c-0.1,0.1-0.2,0.1-0.3,0.2s-0.3,0.2-0.5,0.3c-0.2,0.1-0.3,0.2-0.5,0.2s-0.3,0.1-0.5,0.1c-0.4,0-0.6-0.1-0.8-0.3
		c-0.2-0.2-0.3-0.4-0.4-0.7s0-0.5,0.2-0.8C617.7,211.9,617.9,211.7,618.3,211.6z"/>
</g>
<g class="st1">
	<path d="M638.7,217.9c0.1-0.2,0.2-0.5,0.4-0.7s0.4-0.4,0.6-0.5c0.2-0.2,0.5-0.3,0.8-0.4c0.3-0.1,0.6-0.1,0.9-0.1s0.5,0,0.8,0.1
		c0.2,0.1,0.4,0.2,0.5,0.4c0.1,0.2,0.2,0.3,0.2,0.6c0,0.2,0,0.4-0.1,0.7s-0.2,0.5-0.4,0.7c-0.2,0.2-0.4,0.4-0.6,0.6
		s-0.5,0.3-0.8,0.4c-0.3,0.1-0.6,0.1-0.8,0.1c-0.3,0-0.5,0-0.7-0.1c-0.2-0.1-0.4-0.2-0.5-0.4c-0.1-0.2-0.2-0.3-0.2-0.6
		C638.6,218.3,638.6,218.1,638.7,217.9z"/>
</g>
<g class="st1">
	<path d="M637,215.2v7.7h-0.4V220l-1.9,0.5v-7.8h0.3v3L637,215.2z M635.1,217v2.1l1.5-0.4v-2.1L635.1,217z"/>
</g>
<line class="st0" x1="642.7" y1="217.3" x2="642.7" y2="206.9"/>
<line class="st2" x1="659.1" y1="231.3" x2="665.2" y2="231.3"/>
<line class="st2" x1="659.1" y1="228" x2="665.2" y2="228"/>
<line class="st2" x1="659.1" y1="224.6" x2="665.2" y2="224.6"/>
<g class="st1">
	<path d="M660.1,231.4c0.1-0.2,0.2-0.5,0.4-0.7s0.4-0.4,0.6-0.5c0.2-0.2,0.5-0.3,0.8-0.4c0.3-0.1,0.6-0.1,0.9-0.1s0.5,0,0.8,0.1
		c0.2,0.1,0.4,0.2,0.5,0.4c0.1,0.2,0.2,0.3,0.2,0.6c0,0.2,0,0.4-0.1,0.7s-0.2,0.5-0.4,0.7c-0.2,0.2-0.4,0.4-0.6,0.6
		s-0.5,0.3-0.8,0.4c-0.3,0.1-0.6,0.1-0.8,0.1c-0.3,0-0.5,0-0.7-0.1c-0.2-0.1-0.4-0.2-0.5-0.4c-0.1-0.2-0.2-0.3-0.2-0.6
		C659.9,231.8,660,231.6,660.1,231.4z"/>
</g>
<g class="st1">
	<path d="M656.2,229.2V227h0.4v2.1l1.3-0.4v-2h0.4v1.8l0.5-0.2v1.4l-0.5,0.2v2l0.5-0.2v1.4l-0.5,0.2v2.2h-0.4v-2.1l-1.3,0.4v2h-0.4
		V234l-0.6,0.2v-1.4l0.6-0.2v-2l-0.6,0.2v-1.4L656.2,229.2z M656.6,230.5v2l1.3-0.4v-2L656.6,230.5z"/>
</g>
<line class="st0" x1="664.1" y1="230.8" x2="664.1" y2="217.5"/>
<path d="M642.5,206l21.8,10.6v1.7l-21.8-10.6V206z"/>
<g class="st1">
	<path d="M638.7,217.9c0.1-0.2,0.2-0.5,0.4-0.7s0.4-0.4,0.6-0.5c0.2-0.2,0.5-0.3,0.8-0.4c0.3-0.1,0.6-0.1,0.9-0.1s0.5,0,0.8,0.1
		c0.2,0.1,0.4,0.2,0.5,0.4c0.1,0.2,0.2,0.3,0.2,0.6c0,0.2,0,0.4-0.1,0.7s-0.2,0.5-0.4,0.7c-0.2,0.2-0.4,0.4-0.6,0.6
		s-0.5,0.3-0.8,0.4c-0.3,0.1-0.6,0.1-0.8,0.1c-0.3,0-0.5,0-0.7-0.1c-0.2-0.1-0.4-0.2-0.5-0.4c-0.1-0.2-0.2-0.3-0.2-0.6
		C638.6,218.3,638.6,218.1,638.7,217.9z"/>
</g>
<line class="st0" x1="642.7" y1="217.3" x2="642.7" y2="196.8"/>
<g class="st1">
	<path d="M660.1,207.7c0.1-0.2,0.2-0.5,0.4-0.7s0.4-0.4,0.6-0.5c0.2-0.2,0.5-0.3,0.8-0.4c0.3-0.1,0.6-0.1,0.9-0.1s0.5,0,0.8,0.1
		c0.2,0.1,0.4,0.2,0.5,0.4c0.1,0.2,0.2,0.3,0.2,0.6c0,0.2,0,0.4-0.1,0.7s-0.2,0.5-0.4,0.7c-0.2,0.2-0.4,0.4-0.6,0.6
		s-0.5,0.3-0.8,0.4c-0.3,0.1-0.6,0.1-0.8,0.1c-0.3,0-0.5,0-0.7-0.1c-0.2-0.1-0.4-0.2-0.5-0.4c-0.1-0.2-0.2-0.3-0.2-0.6
		C659.9,208.2,660,208,660.1,207.7z"/>
</g>
<line class="st0" x1="664.1" y1="207.5" x2="664.1" y2="195.1"/>
<path d="M642.5,195.9l21.8-1.7v1.7l-21.8,1.7V195.9z"/>
<g class="st1">
	<path d="M51.9,46.5v-8.6h2.6l1.6,5.9l1.5-5.9h2.6v8.6h-1.6v-6.8l-1.7,6.8h-1.7l-1.7-6.8v6.8H51.9z"/>
	<path d="M64.8,44.2l1.6-0.2c0.1,0.4,0.2,0.7,0.4,0.9s0.5,0.3,0.8,0.3c0.3,0,0.6-0.1,0.9-0.4s0.3-0.6,0.3-1c0-0.4-0.1-0.7-0.3-1
		s-0.5-0.4-0.8-0.4c-0.2,0-0.5,0-0.8,0.1l0.2-1.3c0.4,0,0.8-0.1,1-0.3s0.4-0.5,0.4-0.8c0-0.3-0.1-0.5-0.3-0.7s-0.4-0.3-0.7-0.3
		c-0.3,0-0.5,0.1-0.7,0.3s-0.3,0.5-0.4,0.9l-1.5-0.3c0.1-0.5,0.3-0.9,0.5-1.2s0.5-0.6,0.9-0.7s0.8-0.3,1.3-0.3
		c0.8,0,1.5,0.3,1.9,0.8c0.4,0.4,0.6,0.9,0.6,1.4c0,0.8-0.4,1.4-1.2,1.8c0.5,0.1,0.9,0.3,1.2,0.7s0.4,0.8,0.4,1.3
		c0,0.8-0.3,1.4-0.8,1.9s-1.2,0.8-2.1,0.8c-0.8,0-1.4-0.2-1.9-0.7S64.9,44.9,64.8,44.2z"/>
	<path d="M75.7,46.5h-1.6v-6.2c-0.6,0.6-1.3,1-2.1,1.2V40c0.4-0.1,0.9-0.4,1.4-0.8s0.8-0.9,1-1.4h1.3V46.5z"/>
	<path d="M78.2,39.6V38h5.6v1.2c-0.5,0.5-0.9,1.1-1.4,2s-0.8,1.8-1.1,2.7s-0.4,1.8-0.4,2.6h-1.6c0-1.2,0.3-2.4,0.7-3.6
		s1.1-2.3,1.9-3.3H78.2z"/>
	<path d="M88.1,43.7l1.7-0.2c0.1,0.6,0.3,1,0.6,1.2s0.7,0.4,1.3,0.4c0.6,0,1-0.1,1.3-0.4s0.4-0.5,0.4-0.8c0-0.2-0.1-0.4-0.2-0.5
		s-0.3-0.3-0.6-0.4c-0.2-0.1-0.7-0.2-1.4-0.4c-0.9-0.2-1.6-0.5-2-0.8c-0.5-0.5-0.8-1-0.8-1.7c0-0.4,0.1-0.8,0.4-1.2s0.6-0.7,1.1-0.9
		s1-0.3,1.7-0.3c1.1,0,1.9,0.2,2.4,0.7s0.8,1.1,0.9,1.9l-1.7,0.1c-0.1-0.4-0.2-0.8-0.5-1s-0.6-0.3-1.1-0.3c-0.5,0-0.9,0.1-1.2,0.3
		c-0.2,0.1-0.3,0.3-0.3,0.5c0,0.2,0.1,0.4,0.3,0.5c0.2,0.2,0.8,0.4,1.6,0.6s1.5,0.4,1.9,0.6s0.7,0.5,0.9,0.9s0.3,0.8,0.3,1.4
		c0,0.5-0.1,1-0.4,1.4s-0.7,0.7-1.2,1s-1.1,0.3-1.9,0.3c-1.1,0-1.9-0.3-2.5-0.8S88.3,44.7,88.1,43.7z"/>
	<path d="M96.5,46.5v-8.6h1.6v4.6l1.9-2.2h2l-2.1,2.3l2.3,3.9h-1.8l-1.6-2.8l-0.8,0.8v2H96.5z"/>
	<path d="M106.1,46.5v-1.7h-3.5v-1.4l3.7-5.5h1.4v5.4h1.1v1.4h-1.1v1.7H106.1z M106.1,43.3v-2.9l-2,2.9H106.1z"/>
	<path d="M109.9,46.5v-1.6h1.6v1.6H109.9z"/>
	<path d="M112.8,44.2l1.6-0.2c0.1,0.4,0.2,0.7,0.4,0.9s0.5,0.3,0.8,0.3c0.3,0,0.6-0.1,0.9-0.4s0.3-0.6,0.3-1c0-0.4-0.1-0.7-0.3-1
		s-0.5-0.4-0.8-0.4c-0.2,0-0.5,0-0.8,0.1l0.2-1.3c0.4,0,0.8-0.1,1-0.3s0.4-0.5,0.4-0.8c0-0.3-0.1-0.5-0.3-0.7s-0.4-0.3-0.7-0.3
		c-0.3,0-0.5,0.1-0.7,0.3s-0.3,0.5-0.4,0.9l-1.5-0.3c0.1-0.5,0.3-0.9,0.5-1.2s0.5-0.6,0.9-0.7s0.8-0.3,1.3-0.3
		c0.8,0,1.5,0.3,1.9,0.8c0.4,0.4,0.6,0.9,0.6,1.4c0,0.8-0.4,1.4-1.2,1.8c0.5,0.1,0.9,0.3,1.2,0.7s0.4,0.8,0.4,1.3
		c0,0.8-0.3,1.4-0.8,1.9s-1.2,0.8-2.1,0.8c-0.8,0-1.4-0.2-1.9-0.7S112.9,44.9,112.8,44.2z"/>
</g>
<polyline class="st3" points="94,116.6 94,234.4 482,234.4 482,116.6 "/>
<g class="st1">
	<path d="M236.4,174.5l1.7-0.2c0.1,0.6,0.3,1,0.6,1.2s0.7,0.4,1.3,0.4c0.6,0,1-0.1,1.3-0.4s0.4-0.5,0.4-0.8c0-0.2-0.1-0.4-0.2-0.5
		s-0.3-0.3-0.6-0.4c-0.2-0.1-0.7-0.2-1.4-0.4c-0.9-0.2-1.6-0.5-2-0.8c-0.5-0.5-0.8-1-0.8-1.7c0-0.4,0.1-0.8,0.4-1.2s0.6-0.7,1.1-0.9
		s1-0.3,1.7-0.3c1.1,0,1.9,0.2,2.4,0.7s0.8,1.1,0.9,1.9l-1.7,0.1c-0.1-0.4-0.2-0.8-0.5-1s-0.6-0.3-1.1-0.3c-0.5,0-0.9,0.1-1.2,0.3
		c-0.2,0.1-0.3,0.3-0.3,0.5c0,0.2,0.1,0.4,0.3,0.5c0.2,0.2,0.8,0.4,1.6,0.6s1.5,0.4,1.9,0.6s0.7,0.5,0.9,0.9s0.3,0.8,0.3,1.4
		c0,0.5-0.1,1-0.4,1.4s-0.7,0.7-1.2,1s-1.1,0.3-1.9,0.3c-1.1,0-1.9-0.3-2.5-0.8S236.5,175.5,236.4,174.5z"/>
	<path d="M244.8,177.3v-8.6h1.6v4.6l1.9-2.2h2l-2.1,2.3l2.3,3.9h-1.8l-1.6-2.8l-0.8,0.8v2H244.8z"/>
	<path d="M254.4,177.3v-1.7h-3.5v-1.4l3.7-5.5h1.4v5.4h1.1v1.4H256v1.7H254.4z M254.4,174.2v-2.9l-2,2.9H254.4z"/>
</g>
<g class="st1">
	<path d="M263.5,177.3v-7.1h-2.5v-1.5h6.8v1.5h-2.5v7.1H263.5z"/>
</g>
<g class="st1">
	<path d="M267.6,177.3v-1.6h1.6v1.6H267.6z"/>
	<path d="M278.1,177.3h-1.6v-6.2c-0.6,0.6-1.3,1-2.1,1.2v-1.5c0.4-0.1,0.9-0.4,1.4-0.8s0.8-0.9,1-1.4h1.3V177.3z"/>
	<path d="M280.5,175.1l1.6-0.2c0.1,0.4,0.2,0.7,0.4,0.9s0.5,0.3,0.8,0.3c0.3,0,0.6-0.1,0.9-0.4s0.3-0.6,0.3-1c0-0.4-0.1-0.7-0.3-1
		s-0.5-0.4-0.8-0.4c-0.2,0-0.5,0-0.8,0.1l0.2-1.3c0.4,0,0.8-0.1,1-0.3s0.4-0.5,0.4-0.8c0-0.3-0.1-0.5-0.3-0.7s-0.4-0.3-0.7-0.3
		c-0.3,0-0.5,0.1-0.7,0.3s-0.3,0.5-0.4,0.9l-1.5-0.3c0.1-0.5,0.3-0.9,0.5-1.2s0.5-0.6,0.9-0.7s0.8-0.3,1.3-0.3
		c0.8,0,1.5,0.3,1.9,0.8c0.4,0.4,0.6,0.9,0.6,1.4c0,0.8-0.4,1.4-1.2,1.8c0.5,0.1,0.9,0.3,1.2,0.7s0.4,0.8,0.4,1.3
		c0,0.8-0.3,1.4-0.8,1.9s-1.2,0.8-2.1,0.8c-0.8,0-1.4-0.2-1.9-0.7S280.6,175.8,280.5,175.1z"/>
	<path d="M286.7,174.8v-1.2h6.7v1.2H286.7z"/>
	<path d="M298.1,177.3h-1.6v-6.2c-0.6,0.6-1.3,1-2.1,1.2v-1.5c0.4-0.1,0.9-0.4,1.4-0.8s0.8-0.9,1-1.4h1.3V177.3z"/>
	<path d="M300.6,175.1l1.6-0.2c0,0.4,0.2,0.7,0.4,0.9s0.5,0.3,0.8,0.3c0.3,0,0.6-0.1,0.9-0.4s0.4-0.7,0.4-1.3c0-0.5-0.1-0.9-0.4-1.2
		s-0.5-0.4-0.9-0.4c-0.5,0-0.9,0.2-1.3,0.6l-1.3-0.2l0.8-4.5h4.4v1.5h-3.1l-0.3,1.5c0.4-0.2,0.7-0.3,1.1-0.3c0.7,0,1.3,0.3,1.9,0.8
		s0.8,1.2,0.8,2.1c0,0.7-0.2,1.3-0.6,1.9c-0.6,0.8-1.3,1.1-2.3,1.1c-0.8,0-1.4-0.2-1.9-0.6S300.7,175.8,300.6,175.1z"/>
</g>
<g class="st1">
	<path d="M502.7,163.8L501,160v3c0,0.3,0,0.4,0.1,0.5c0.1,0.1,0.2,0.1,0.4,0.1h0.2v0.1h-1.6v-0.1h0.2c0.2,0,0.3-0.1,0.4-0.2
		c0-0.1,0.1-0.2,0.1-0.5v-2.9c0-0.2,0-0.3-0.1-0.4c0-0.1-0.1-0.1-0.2-0.2s-0.2-0.1-0.4-0.1v-0.1h1.3l1.6,3.5l1.6-3.5h1.3v0.1h-0.2
		c-0.2,0-0.3,0.1-0.4,0.2c0,0.1-0.1,0.2-0.1,0.5v2.9c0,0.3,0,0.4,0.1,0.5c0.1,0.1,0.2,0.1,0.4,0.1h0.2v0.1h-1.9v-0.1h0.2
		c0.2,0,0.3-0.1,0.4-0.2c0-0.1,0.1-0.2,0.1-0.5v-3l-1.7,3.8H502.7z"/>
	<path d="M507.9,163.4c-0.3,0.2-0.5,0.4-0.6,0.4c-0.1,0.1-0.2,0.1-0.4,0.1c-0.2,0-0.4-0.1-0.5-0.2s-0.2-0.3-0.2-0.6
		c0-0.1,0-0.3,0.1-0.4c0.1-0.1,0.2-0.3,0.5-0.4s0.6-0.3,1.1-0.5v-0.1c0-0.3,0-0.5-0.1-0.6c-0.1-0.1-0.2-0.2-0.4-0.2
		c-0.1,0-0.2,0-0.3,0.1c-0.1,0.1-0.1,0.2-0.1,0.3l0,0.2c0,0.1,0,0.2-0.1,0.2c-0.1,0.1-0.1,0.1-0.2,0.1c-0.1,0-0.1,0-0.2-0.1
		c-0.1-0.1-0.1-0.1-0.1-0.2c0-0.2,0.1-0.4,0.3-0.5s0.5-0.2,0.8-0.2c0.3,0,0.5,0,0.7,0.1c0.1,0.1,0.2,0.2,0.3,0.3
		c0,0.1,0.1,0.3,0.1,0.6v1c0,0.3,0,0.5,0,0.5c0,0.1,0,0.1,0.1,0.1c0,0,0.1,0,0.1,0c0,0,0.1,0,0.1,0c0,0,0.1-0.1,0.3-0.2v0.2
		c-0.2,0.3-0.5,0.5-0.7,0.5c-0.1,0-0.2,0-0.3-0.1C507.9,163.7,507.9,163.5,507.9,163.4z M507.9,163.2V162c-0.3,0.1-0.5,0.2-0.6,0.3
		c-0.2,0.1-0.3,0.2-0.4,0.3s-0.1,0.2-0.1,0.3c0,0.2,0,0.3,0.1,0.4c0.1,0.1,0.2,0.2,0.3,0.2C507.4,163.5,507.6,163.4,507.9,163.2z"/>
	<path d="M510,160.7v0.7c0.3-0.5,0.5-0.7,0.8-0.7c0.1,0,0.2,0,0.3,0.1c0.1,0.1,0.1,0.2,0.1,0.3c0,0.1,0,0.2-0.1,0.2
		c-0.1,0.1-0.1,0.1-0.2,0.1c-0.1,0-0.2,0-0.3-0.1c-0.1-0.1-0.2-0.1-0.2-0.1c0,0-0.1,0-0.1,0.1c-0.1,0.1-0.2,0.2-0.3,0.4v1.4
		c0,0.2,0,0.3,0.1,0.4c0,0.1,0.1,0.1,0.2,0.1c0.1,0,0.2,0.1,0.3,0.1v0.1H509v-0.1c0.2,0,0.3,0,0.3-0.1c0.1,0,0.1-0.1,0.1-0.2
		c0,0,0-0.1,0-0.3V162c0-0.4,0-0.6,0-0.6c0-0.1,0-0.1-0.1-0.1c0,0-0.1,0-0.1,0c-0.1,0-0.1,0-0.2,0l0-0.1l0.9-0.4H510z"/>
	<path d="M512.4,160.7v2.4c0,0.2,0,0.3,0,0.4s0.1,0.1,0.1,0.1c0.1,0,0.2,0,0.3,0v0.1h-1.5v-0.1c0.1,0,0.2,0,0.3,0
		c0,0,0.1-0.1,0.1-0.1c0-0.1,0-0.2,0-0.4V162c0-0.3,0-0.5,0-0.6c0-0.1,0-0.1-0.1-0.1c0,0-0.1,0-0.1,0c-0.1,0-0.1,0-0.2,0l0-0.1
		l0.9-0.4H512.4z M512.2,159.1c0.1,0,0.2,0,0.2,0.1c0.1,0.1,0.1,0.1,0.1,0.2c0,0.1,0,0.2-0.1,0.2c-0.1,0.1-0.1,0.1-0.2,0.1
		c-0.1,0-0.2,0-0.2-0.1c-0.1-0.1-0.1-0.1-0.1-0.2c0-0.1,0-0.2,0.1-0.2C512,159.1,512.1,159.1,512.2,159.1z"/>
	<path d="M515,163.4c-0.3,0.2-0.5,0.4-0.6,0.4c-0.1,0.1-0.2,0.1-0.4,0.1c-0.2,0-0.4-0.1-0.5-0.2c-0.1-0.1-0.2-0.3-0.2-0.6
		c0-0.1,0-0.3,0.1-0.4c0.1-0.1,0.2-0.3,0.5-0.4c0.2-0.1,0.6-0.3,1.1-0.5v-0.1c0-0.3,0-0.5-0.1-0.6c-0.1-0.1-0.2-0.2-0.4-0.2
		c-0.1,0-0.2,0-0.3,0.1c-0.1,0.1-0.1,0.2-0.1,0.3l0,0.2c0,0.1,0,0.2-0.1,0.2c-0.1,0.1-0.1,0.1-0.2,0.1c-0.1,0-0.1,0-0.2-0.1
		c-0.1-0.1-0.1-0.1-0.1-0.2c0-0.2,0.1-0.4,0.3-0.5s0.5-0.2,0.8-0.2c0.3,0,0.5,0,0.7,0.1c0.1,0.1,0.2,0.2,0.3,0.3
		c0,0.1,0.1,0.3,0.1,0.6v1c0,0.3,0,0.5,0,0.5c0,0.1,0,0.1,0.1,0.1c0,0,0.1,0,0.1,0c0,0,0.1,0,0.1,0c0,0,0.1-0.1,0.3-0.2v0.2
		c-0.2,0.3-0.5,0.5-0.7,0.5c-0.1,0-0.2,0-0.3-0.1C515,163.7,515,163.5,515,163.4z M515,163.2V162c-0.3,0.1-0.5,0.2-0.6,0.3
		c-0.2,0.1-0.3,0.2-0.4,0.3c-0.1,0.1-0.1,0.2-0.1,0.3c0,0.2,0,0.3,0.1,0.4s0.2,0.2,0.3,0.2C514.5,163.5,514.7,163.4,515,163.2z"/>
	<path d="M519.2,159.6v1.8h1c0.3,0,0.4,0,0.5-0.1c0.1-0.1,0.2-0.3,0.2-0.5h0.1v1.6h-0.1c0-0.2-0.1-0.4-0.1-0.4
		c0-0.1-0.1-0.1-0.2-0.2s-0.2-0.1-0.4-0.1h-1v1.5c0,0.2,0,0.3,0,0.4s0,0.1,0.1,0.1c0,0,0.1,0,0.2,0h0.8c0.3,0,0.4,0,0.5-0.1
		s0.2-0.1,0.3-0.2c0.1-0.1,0.3-0.3,0.4-0.6h0.1l-0.4,1.1h-3.4v-0.1h0.2c0.1,0,0.2,0,0.3-0.1c0.1,0,0.1-0.1,0.1-0.2
		c0-0.1,0-0.2,0-0.4v-2.9c0-0.3,0-0.5-0.1-0.5c-0.1-0.1-0.2-0.1-0.4-0.1h-0.2v-0.1h3.4l0,1h-0.1c0-0.2-0.1-0.4-0.2-0.5
		c-0.1-0.1-0.1-0.2-0.2-0.2c-0.1,0-0.2,0-0.5,0H519.2z"/>
	<path d="M523,161.3c0.4-0.4,0.7-0.6,1-0.6c0.2,0,0.3,0,0.4,0.1c0.1,0.1,0.2,0.2,0.3,0.4c0,0.1,0.1,0.3,0.1,0.6v1.3
		c0,0.2,0,0.3,0,0.4c0,0.1,0.1,0.1,0.1,0.1c0.1,0,0.2,0,0.3,0v0.1h-1.5v-0.1h0.1c0.1,0,0.2,0,0.3-0.1c0.1,0,0.1-0.1,0.1-0.2
		c0,0,0-0.1,0-0.3v-1.2c0-0.3,0-0.5-0.1-0.6s-0.2-0.2-0.4-0.2c-0.3,0-0.5,0.1-0.8,0.4v1.6c0,0.2,0,0.3,0,0.4c0,0.1,0.1,0.1,0.1,0.1
		s0.2,0,0.3,0v0.1H522v-0.1h0.1c0.2,0,0.3,0,0.3-0.1s0.1-0.2,0.1-0.4V162c0-0.4,0-0.6,0-0.7c0-0.1,0-0.1-0.1-0.2s-0.1,0-0.1,0
		c-0.1,0-0.1,0-0.2,0l0-0.1l0.9-0.4h0.1V161.3z"/>
	<path d="M528.1,162.9l0,0.9h-2.7v-0.1l2-2.7h-1c-0.2,0-0.4,0-0.4,0c-0.1,0-0.1,0.1-0.2,0.2c-0.1,0.1-0.1,0.2-0.1,0.4h-0.1l0-0.8
		h2.5v0.1l-2,2.7h1.1c0.2,0,0.4,0,0.5-0.1c0.1,0,0.1-0.1,0.2-0.2c0-0.1,0.1-0.2,0.1-0.4H528.1z"/>
	<path d="M529,161.9c0,0.4,0.1,0.8,0.3,1.1s0.5,0.4,0.8,0.4c0.2,0,0.4-0.1,0.5-0.2c0.1-0.1,0.3-0.3,0.4-0.6l0.1,0.1
		c0,0.3-0.2,0.6-0.4,0.8s-0.5,0.4-0.8,0.4c-0.4,0-0.7-0.1-0.9-0.4c-0.3-0.3-0.4-0.7-0.4-1.1c0-0.5,0.1-0.9,0.4-1.2s0.6-0.4,1-0.4
		c0.3,0,0.6,0.1,0.8,0.3c0.2,0.2,0.3,0.5,0.3,0.9H529z M529,161.7h1.4c0-0.2,0-0.3-0.1-0.4c-0.1-0.1-0.1-0.2-0.2-0.3
		c-0.1-0.1-0.2-0.1-0.3-0.1c-0.2,0-0.3,0.1-0.5,0.2C529.1,161.3,529,161.5,529,161.7z"/>
	<path d="M532.3,160.7v0.7c0.3-0.5,0.5-0.7,0.8-0.7c0.1,0,0.2,0,0.3,0.1c0.1,0.1,0.1,0.2,0.1,0.3c0,0.1,0,0.2-0.1,0.2
		c-0.1,0.1-0.1,0.1-0.2,0.1c-0.1,0-0.2,0-0.3-0.1c-0.1-0.1-0.2-0.1-0.2-0.1c0,0-0.1,0-0.1,0.1c-0.1,0.1-0.2,0.2-0.3,0.4v1.4
		c0,0.2,0,0.3,0.1,0.4c0,0.1,0.1,0.1,0.2,0.1c0.1,0,0.2,0.1,0.3,0.1v0.1h-1.5v-0.1c0.2,0,0.3,0,0.3-0.1c0.1,0,0.1-0.1,0.1-0.2
		c0,0,0-0.1,0-0.3V162c0-0.4,0-0.6,0-0.6c0-0.1,0-0.1-0.1-0.1c0,0-0.1,0-0.1,0c-0.1,0-0.1,0-0.2,0l0-0.1l0.9-0.4H532.3z"/>
	<path d="M535.7,160.7v1h-0.1c-0.1-0.3-0.2-0.5-0.3-0.7c-0.1-0.1-0.3-0.2-0.5-0.2c-0.2,0-0.3,0-0.4,0.1c-0.1,0.1-0.1,0.2-0.1,0.3
		c0,0.1,0,0.2,0.1,0.3c0.1,0.1,0.2,0.2,0.4,0.3l0.5,0.2c0.4,0.2,0.7,0.5,0.7,0.9c0,0.3-0.1,0.5-0.3,0.7c-0.2,0.2-0.4,0.3-0.7,0.3
		c-0.2,0-0.4,0-0.6-0.1c-0.1,0-0.1,0-0.2,0c-0.1,0-0.1,0-0.1,0.1h-0.1v-1.1h0.1c0.1,0.3,0.2,0.5,0.4,0.7c0.2,0.2,0.4,0.2,0.6,0.2
		c0.2,0,0.3,0,0.4-0.1s0.1-0.2,0.1-0.3c0-0.2-0.1-0.3-0.2-0.4s-0.3-0.2-0.6-0.4s-0.5-0.3-0.6-0.4c-0.1-0.1-0.1-0.3-0.1-0.5
		c0-0.2,0.1-0.5,0.3-0.6c0.2-0.2,0.4-0.3,0.7-0.3c0.1,0,0.3,0,0.4,0.1c0.1,0,0.2,0,0.2,0c0,0,0.1,0,0.1,0s0,0,0.1-0.1H535.7z"/>
	<path d="M538.5,163.5c-0.1,0.2-0.3,0.3-0.4,0.3c-0.1,0.1-0.3,0.1-0.5,0.1c-0.3,0-0.6-0.1-0.9-0.4s-0.4-0.6-0.4-1.1
		c0-0.4,0.1-0.8,0.4-1.2s0.6-0.5,1.1-0.5c0.3,0,0.5,0.1,0.7,0.3v-0.6c0-0.3,0-0.6,0-0.6s0-0.1-0.1-0.2s-0.1,0-0.1,0
		c-0.1,0-0.1,0-0.2,0.1l0-0.1l0.9-0.4h0.1v3.5c0,0.4,0,0.6,0,0.6c0,0.1,0,0.1,0.1,0.2c0,0,0.1,0,0.1,0c0.1,0,0.1,0,0.2-0.1l0,0.1
		l-0.9,0.4h-0.2V163.5z M538.5,163.2v-1.6c0-0.1-0.1-0.3-0.1-0.4c-0.1-0.1-0.2-0.2-0.3-0.3c-0.1-0.1-0.2-0.1-0.3-0.1
		c-0.2,0-0.4,0.1-0.5,0.3c-0.2,0.2-0.3,0.6-0.3,1c0,0.4,0.1,0.8,0.3,1c0.2,0.2,0.4,0.4,0.6,0.4C538.1,163.5,538.3,163.4,538.5,163.2
		z"/>
	<path d="M541.2,160.7c0.5,0,0.8,0.2,1.1,0.5c0.2,0.3,0.4,0.6,0.4,1c0,0.3-0.1,0.5-0.2,0.8c-0.1,0.3-0.3,0.5-0.5,0.6
		c-0.2,0.1-0.5,0.2-0.8,0.2c-0.5,0-0.8-0.2-1.1-0.5c-0.2-0.3-0.3-0.6-0.3-1c0-0.3,0.1-0.6,0.2-0.8c0.1-0.3,0.3-0.5,0.5-0.6
		C540.7,160.8,540.9,160.7,541.2,160.7z M541.1,160.9c-0.1,0-0.2,0-0.4,0.1c-0.1,0.1-0.2,0.2-0.3,0.4s-0.1,0.4-0.1,0.7
		c0,0.4,0.1,0.8,0.3,1.1c0.2,0.3,0.4,0.5,0.7,0.5c0.2,0,0.4-0.1,0.5-0.3s0.2-0.5,0.2-0.9c0-0.5-0.1-1-0.3-1.3
		C541.5,161,541.3,160.9,541.1,160.9z"/>
	<path d="M544,160.7v0.7c0.3-0.5,0.5-0.7,0.8-0.7c0.1,0,0.2,0,0.3,0.1c0.1,0.1,0.1,0.2,0.1,0.3c0,0.1,0,0.2-0.1,0.2
		c-0.1,0.1-0.1,0.1-0.2,0.1c-0.1,0-0.2,0-0.3-0.1c-0.1-0.1-0.2-0.1-0.2-0.1c0,0-0.1,0-0.1,0.1c-0.1,0.1-0.2,0.2-0.3,0.4v1.4
		c0,0.2,0,0.3,0.1,0.4c0,0.1,0.1,0.1,0.2,0.1c0.1,0,0.2,0.1,0.3,0.1v0.1h-1.5v-0.1c0.2,0,0.3,0,0.3-0.1c0.1,0,0.1-0.1,0.1-0.2
		c0,0,0-0.1,0-0.3V162c0-0.4,0-0.6,0-0.6c0-0.1,0-0.1-0.1-0.1c0,0-0.1,0-0.1,0c-0.1,0-0.1,0-0.2,0l0-0.1l0.9-0.4H544z"/>
	<path d="M546.5,161v2c0,0.3,0,0.5,0.1,0.5c0.1,0.1,0.2,0.1,0.3,0.1h0.3v0.1h-1.8v-0.1h0.1c0.1,0,0.2,0,0.2-0.1
		c0.1,0,0.1-0.1,0.2-0.2c0-0.1,0-0.2,0-0.4v-2h-0.6v-0.2h0.6v-0.2c0-0.3,0-0.6,0.1-0.8s0.2-0.4,0.4-0.5c0.2-0.1,0.4-0.2,0.7-0.2
		c0.2,0,0.4,0.1,0.6,0.2c0.1,0.1,0.2,0.2,0.2,0.3c0,0.1,0,0.1-0.1,0.2c-0.1,0.1-0.1,0.1-0.2,0.1c-0.1,0-0.1,0-0.2-0.1
		s-0.1-0.1-0.2-0.2c-0.1-0.1-0.2-0.2-0.2-0.2c-0.1,0-0.1-0.1-0.2-0.1c-0.1,0-0.2,0-0.3,0.1c-0.1,0.1-0.1,0.1-0.2,0.3
		c0,0.1,0,0.4,0,0.9v0.2h0.8v0.2H546.5z"/>
</g>
<g class="st1">
	<path d="M509.9,188l0.9-0.8l0.1,0l1,3.6c0.1,0.2,0.1,0.4,0.2,0.4c0,0.1,0.1,0.1,0.2,0.1c0.1,0,0.2,0,0.4-0.1l0,0.1l-1.6,0.4l0-0.1
		c0.2-0.1,0.3-0.1,0.4-0.2c0.1,0,0.1-0.1,0.1-0.2c0-0.1,0-0.2-0.1-0.5l-0.6-2.3c-0.1-0.3-0.1-0.5-0.2-0.6c0-0.1-0.1-0.1-0.1-0.1
		c0,0-0.1,0-0.2,0C510.2,187.9,510.1,187.9,509.9,188L509.9,188z"/>
	<path d="M515.2,186l0,0.1c-0.3,0.1-0.5,0.2-0.6,0.4s-0.3,0.3-0.4,0.5c-0.1,0.2-0.2,0.4-0.3,0.7c-0.1,0.2-0.1,0.5-0.1,0.8
		c0.2-0.3,0.5-0.5,0.8-0.6c0.3-0.1,0.6,0,0.9,0.2c0.3,0.2,0.5,0.5,0.6,0.8c0.1,0.4,0.1,0.7-0.1,1.1c-0.2,0.4-0.5,0.7-0.9,0.8
		c-0.3,0.1-0.6,0-0.8-0.1c-0.5-0.3-0.8-0.7-1-1.3c-0.1-0.4-0.1-0.8-0.1-1.2c0.1-0.4,0.2-0.8,0.4-1.1c0.2-0.3,0.4-0.6,0.7-0.8
		c0.2-0.2,0.5-0.3,0.7-0.3L515.2,186z M513.8,188.7c0,0.3,0.1,0.5,0.1,0.7c0.1,0.2,0.2,0.4,0.3,0.6c0.1,0.2,0.3,0.4,0.5,0.5
		c0.1,0.1,0.3,0.1,0.4,0c0.2,0,0.3-0.2,0.4-0.4c0.1-0.2,0.1-0.5,0-0.8c-0.1-0.4-0.3-0.7-0.5-0.9c-0.2-0.2-0.5-0.3-0.7-0.2
		c-0.1,0-0.2,0.1-0.2,0.1C514,188.5,513.9,188.6,513.8,188.7z"/>
	<path d="M517.3,189.5c0.1,0,0.2,0,0.3,0c0.1,0.1,0.1,0.1,0.2,0.2c0,0.1,0,0.2,0,0.3c-0.1,0.1-0.1,0.1-0.2,0.2c-0.1,0-0.2,0-0.3,0
		c-0.1,0-0.1-0.1-0.2-0.2c0-0.1,0-0.2,0-0.3C517.1,189.5,517.2,189.5,517.3,189.5z"/>
</g>
<g class="st1">
	<path d="M523.3,183.9l0,0.1c-0.1,0.1-0.2,0.1-0.3,0.2c-0.1,0.1-0.1,0.3-0.2,0.6l-0.5,4.1l-0.1,0l-2.6-3.3c-0.1-0.2-0.2-0.3-0.3-0.3
		c-0.1-0.1-0.2-0.1-0.2-0.1c-0.1,0-0.2,0-0.3,0l0-0.1l1.8-0.5l0,0.1c-0.2,0.1-0.3,0.1-0.4,0.2c0,0.1-0.1,0.1,0,0.2
		c0,0.1,0.1,0.3,0.3,0.5l1.8,2.2l0.3-2.8c0-0.3,0-0.5,0-0.6c0-0.1-0.1-0.1-0.1-0.2c-0.1,0-0.2-0.1-0.3,0c0,0,0,0-0.1,0l0-0.1
		L523.3,183.9z"/>
	<path d="M526.5,187.5l0,0.1l-1.8,0.5l0-0.1l0.2,0c0.2,0,0.3-0.1,0.3-0.3c0-0.1,0-0.3-0.1-0.5l-0.7-2.8c-0.1-0.2-0.1-0.4-0.2-0.4
		c0,0-0.1-0.1-0.2-0.1c-0.1,0-0.2,0-0.3,0l-0.2,0l0-0.1l1.8-0.5l0,0.1l-0.2,0c-0.2,0-0.3,0.1-0.3,0.3c0,0.1,0,0.3,0.1,0.5l0.7,2.8
		c0.1,0.2,0.1,0.4,0.2,0.4c0,0,0.1,0.1,0.2,0.1c0.1,0,0.2,0,0.3,0L526.5,187.5z"/>
	<path d="M528.7,187l0,0.1l-1.8,0.5l0-0.1l0.2,0c0.2,0,0.3-0.1,0.3-0.3c0-0.1,0-0.3-0.1-0.5l-0.7-2.8c-0.1-0.2-0.1-0.4-0.2-0.4
		c0,0-0.1-0.1-0.2-0.1c-0.1,0-0.2,0-0.3,0l-0.2,0l0-0.1l1.8-0.5l0,0.1l-0.2,0c-0.2,0-0.3,0.1-0.3,0.3c0,0.1,0,0.3,0.1,0.5l0.7,2.8
		c0.1,0.2,0.1,0.4,0.2,0.4c0,0,0.1,0.1,0.2,0.1c0.1,0,0.2,0,0.3,0L528.7,187z"/>
	<path d="M529.5,186.2c0.1,0,0.2,0,0.3,0c0.1,0.1,0.1,0.1,0.2,0.2s0,0.2,0,0.3c0,0.1-0.1,0.1-0.2,0.2s-0.2,0-0.3,0
		c-0.1,0-0.1-0.1-0.2-0.2c0-0.1,0-0.2,0-0.3C529.3,186.3,529.4,186.2,529.5,186.2z"/>
	<path d="M531.5,182.6c0-0.3,0.1-0.6,0.3-0.8c0.1-0.2,0.4-0.4,0.6-0.4c0.3-0.1,0.6-0.1,0.9,0.1c0.2,0.1,0.3,0.3,0.4,0.5
		c0.1,0.3,0,0.7-0.3,1.1c0.3,0,0.5,0.1,0.7,0.3c0.2,0.2,0.3,0.4,0.4,0.6c0.1,0.4,0.1,0.7-0.1,1.1c-0.2,0.4-0.6,0.7-1.2,0.9
		c-0.3,0.1-0.5,0.1-0.6,0.1c-0.1,0-0.2-0.1-0.2-0.2c0-0.1,0-0.1,0-0.2c0-0.1,0.1-0.1,0.2-0.1c0.1,0,0.1,0,0.2,0c0,0,0.1,0,0.3,0.1
		c0.1,0,0.2,0,0.3,0c0.1,0,0.2,0,0.3,0c0.2-0.1,0.4-0.2,0.5-0.4s0.1-0.4,0.1-0.7c0-0.2-0.1-0.3-0.2-0.5c-0.1-0.1-0.2-0.2-0.3-0.2
		c-0.1-0.1-0.3-0.1-0.4-0.1c-0.2,0-0.3,0-0.5,0l-0.1,0l0-0.1c0.2-0.1,0.3-0.2,0.5-0.3c0.1-0.1,0.2-0.3,0.3-0.5c0-0.2,0-0.3,0-0.5
		c-0.1-0.2-0.2-0.4-0.3-0.5s-0.4-0.1-0.6-0.1c-0.3,0.1-0.6,0.3-0.7,0.7L531.5,182.6z"/>
	<path d="M538,182.9l0.1,0.5l-0.6,0.2l0.3,1.1l-0.5,0.1l-0.3-1.1l-1.8,0.5l-0.1-0.4l1.2-3.4l0.3-0.1l0.8,2.8L538,182.9z
		 M536.9,183.2l-0.6-2.1l-0.9,2.5L536.9,183.2z"/>
</g>
<polyline class="st3" points="921.5,116.6 921.5,149.9 769.8,149.9 769.8,116.6 "/>
<g class="st1">
	<path d="M814.2,134l1.7-0.2c0.1,0.6,0.3,1,0.6,1.2s0.7,0.4,1.3,0.4c0.6,0,1-0.1,1.3-0.4s0.4-0.5,0.4-0.8c0-0.2-0.1-0.4-0.2-0.5
		s-0.3-0.3-0.6-0.4c-0.2-0.1-0.7-0.2-1.4-0.4c-0.9-0.2-1.6-0.5-2-0.8c-0.5-0.5-0.8-1-0.8-1.7c0-0.4,0.1-0.8,0.4-1.2s0.6-0.7,1.1-0.9
		s1-0.3,1.7-0.3c1.1,0,1.9,0.2,2.4,0.7s0.8,1.1,0.9,1.9l-1.7,0.1c-0.1-0.4-0.2-0.8-0.5-1s-0.6-0.3-1.1-0.3c-0.5,0-0.9,0.1-1.2,0.3
		c-0.2,0.1-0.3,0.3-0.3,0.5c0,0.2,0.1,0.4,0.3,0.5c0.2,0.2,0.8,0.4,1.6,0.6s1.5,0.4,1.9,0.6s0.7,0.5,0.9,0.9s0.3,0.8,0.3,1.4
		c0,0.5-0.1,1-0.4,1.4s-0.7,0.7-1.2,1s-1.1,0.3-1.9,0.3c-1.1,0-1.9-0.3-2.5-0.8S814.3,135,814.2,134z"/>
	<path d="M822.6,136.8v-8.6h1.6v4.6l1.9-2.2h2l-2.1,2.3l2.3,3.9h-1.8L825,134l-0.8,0.8v2H822.6z"/>
	<path d="M832.2,136.8v-1.7h-3.5v-1.4l3.7-5.5h1.4v5.4h1.1v1.4h-1.1v1.7H832.2z M832.2,133.7v-2.9l-2,2.9H832.2z"/>
</g>
<g class="st1">
	<path d="M841.2,136.8v-7.1h-2.5v-1.5h6.8v1.5H843v7.1H841.2z"/>
</g>
<g class="st1">
	<path d="M845.3,136.8v-1.6h1.6v1.6H845.3z"/>
	<path d="M851.6,129.9v-1.5h5.6v1.2c-0.5,0.5-0.9,1.1-1.4,2s-0.8,1.8-1.1,2.7s-0.4,1.8-0.4,2.6h-1.6c0-1.2,0.3-2.4,0.7-3.6
		s1.1-2.3,1.9-3.3H851.6z"/>
	<path d="M857.8,134.3v-1.2h6.7v1.2H857.8z"/>
	<path d="M869.2,136.8h-1.6v-6.2c-0.6,0.6-1.3,1-2.1,1.2v-1.5c0.4-0.1,0.9-0.4,1.4-0.8s0.8-0.9,1-1.4h1.3V136.8z"/>
	<path d="M877.2,135.3v1.5h-5.8c0.1-0.6,0.2-1.1,0.6-1.6s0.9-1.2,1.9-2.1c0.7-0.7,1.2-1.2,1.4-1.4c0.2-0.3,0.3-0.7,0.3-1
		c0-0.4-0.1-0.6-0.3-0.8s-0.5-0.3-0.8-0.3c-0.3,0-0.6,0.1-0.8,0.3s-0.3,0.6-0.4,1l-1.6-0.2c0.1-0.9,0.4-1.6,0.9-2s1.2-0.6,1.9-0.6
		c0.8,0,1.5,0.2,2,0.7s0.7,1,0.7,1.7c0,0.4-0.1,0.8-0.2,1.1s-0.4,0.7-0.7,1.1c-0.2,0.3-0.6,0.6-1.1,1.1s-0.8,0.8-1,0.9
		s-0.3,0.3-0.3,0.5H877.2z"/>
</g>
<path class="st4" d="M217.7,239.1c58.4,16.1,118.7,24.4,179.3,24.7c64,0.3,127.7-8.2,189.3-25.3"/>
<path class="st0" d="M555.3,206.8h-1.4v12.4h1.4"/>
<path class="st0" d="M561.4,206.8h1.4v12.4h-1.4"/>
<path class="st0" d="M555.3,166.1h-1.4v12.4h1.4"/>
<path class="st0" d="M561.4,166.1h1.4v12.4h-1.4"/>
<g class="st1">
	<path d="M656.2,205.6v-2.2h0.4v2.1l1.3-0.4v-2h0.4v1.8l0.5-0.2v1.4l-0.5,0.2v2l0.5-0.2v1.4l-0.5,0.2v2.2h-0.4v-2.1l-1.3,0.4v2h-0.4
		v-1.9l-0.6,0.2v-1.4l0.6-0.2v-2l-0.6,0.2v-1.4L656.2,205.6z M656.6,206.9v2l1.3-0.4v-2L656.6,206.9z"/>
</g>
<g class="st1">
	<path d="M567.3,78.9l0.8-3.6c-0.3,0.3-0.8,0.5-1.4,0.6l0.1-0.5c0.3-0.1,0.6-0.3,0.9-0.5c0.3-0.2,0.5-0.4,0.7-0.5
		c0.1-0.1,0.2-0.2,0.3-0.3h0.3l-1,4.9H567.3z"/>
	<path d="M569.8,77.6l0.6-0.1c0,0.3,0.1,0.6,0.3,0.7c0.2,0.1,0.3,0.2,0.6,0.2c0.3,0,0.5-0.1,0.8-0.3c0.2-0.2,0.3-0.5,0.3-0.7
		c0-0.2-0.1-0.4-0.2-0.6c-0.2-0.2-0.4-0.2-0.6-0.2c0,0-0.1,0-0.2,0l0.1-0.5c0.1,0,0.1,0,0.2,0c0.3,0,0.6-0.1,0.8-0.2
		s0.3-0.4,0.3-0.6c0-0.2-0.1-0.4-0.2-0.6c-0.2-0.2-0.3-0.2-0.6-0.2c-0.2,0-0.4,0.1-0.6,0.2c-0.2,0.2-0.3,0.4-0.3,0.7l-0.6-0.1
		c0.1-0.4,0.3-0.7,0.6-0.9c0.3-0.2,0.6-0.3,1-0.3c0.4,0,0.7,0.1,1,0.4s0.4,0.5,0.4,0.9c0,0.3-0.1,0.5-0.2,0.7
		c-0.1,0.2-0.3,0.3-0.6,0.5c0.2,0.1,0.3,0.2,0.4,0.4c0.1,0.2,0.1,0.3,0.1,0.5c0,0.4-0.2,0.8-0.5,1.1s-0.7,0.5-1.2,0.5
		c-0.4,0-0.8-0.1-1.1-0.4C570,78.3,569.9,78,569.8,77.6z"/>
</g>
</svg>
