<?xml version="1.0" encoding="utf-8"?>
<!-- Generator: Adobe Illustrator 22.1.0, SVG Export Plug-In . SVG Version: 6.00 Build 0)  -->
<svg version="1.1" id="Ebene_1" xmlns="http://www.w3.org/2000/svg" xmlns:xlink="http://www.w3.org/1999/xlink" x="0px" y="0px"
	 viewBox="0 0 1021 595" style="enable-background:new 0 0 1021 595;" xml:space="preserve">
<style type="text/css">
	.st0{enable-background:new    ;}
	.st1{fill:none;stroke:#000000;stroke-width:0.4;}
	.st2{fill:#FFFFFF;stroke:#000000;stroke-width:0.4;stroke-miterlimit:10;}
	.st3{fill:#FFFFFF;stroke:#000000;stroke-width:0.4;}
	.st4{fill:#FFFFFF;}
</style>
<g class="st0">
	<path d="M419.2,138.3v0.9c0,0.1,0,0.2,0.1,0.3s0.1,0.1,0.2,0.2c0.1,0,0.2,0.1,0.3,0.1v0.4h-2.9v-0.4c0.1,0,0.2,0,0.3-0.1
		c0.1,0,0.2-0.1,0.2-0.1c0.1-0.1,0.1-0.2,0.1-0.3v-0.9h-2.5l-0.2-0.3c0.3-0.4,0.5-0.7,0.7-1s0.3-0.5,0.5-0.8
		c0.1-0.2,0.2-0.5,0.3-0.7c0.1-0.2,0.2-0.4,0.2-0.6s0.1-0.5,0.2-0.7c0-0.3,0.1-0.6,0.2-0.9h2.3c-0.1,0.3-0.3,0.6-0.6,0.9
		c-0.3,0.4-0.6,0.7-1,1.1s-0.7,0.8-1.1,1.2c-0.4,0.4-0.7,0.8-1.1,1.2h2.1v-1.7l1.6-1.8v3.5h1v0.4H419.2z"/>
</g>
<g class="st0">
	<path d="M420,131.4c0,0.3-0.1,0.6-0.3,0.9c-0.2,0.3-0.4,0.5-0.7,0.6s-0.6,0.3-0.9,0.4s-0.6,0.1-0.8,0.1c-0.3,0-0.7,0-1-0.1
		c-0.3-0.1-0.5-0.2-0.8-0.4c-0.2-0.2-0.4-0.3-0.5-0.6c-0.1-0.2-0.2-0.5-0.2-0.7c0-0.1,0-0.2,0.1-0.4c0.1-0.1,0.1-0.2,0.2-0.3
		c0.1-0.1,0.2-0.2,0.3-0.2c0.1-0.1,0.2-0.1,0.4-0.1c0.3,0,0.5,0.1,0.7,0.2c0.2,0.1,0.3,0.4,0.3,0.6c0,0.2,0,0.3-0.1,0.4
		c-0.1,0.1-0.1,0.2-0.2,0.3c-0.1,0.1-0.1,0.2-0.2,0.2c0,0.1-0.1,0.2-0.1,0.3c0,0,0,0.1,0.1,0.1c0,0,0.1,0.1,0.2,0.1
		c0.1,0,0.1,0.1,0.2,0.1s0.1,0,0.1,0c0.2,0,0.4-0.1,0.6-0.2c0.2-0.1,0.3-0.3,0.4-0.4c0.1-0.2,0.2-0.4,0.2-0.5
		c0.1-0.2,0.1-0.4,0.1-0.5c0-0.3-0.1-0.5-0.2-0.7c-0.1-0.1-0.3-0.3-0.5-0.3s-0.4-0.1-0.6-0.1c-0.2,0-0.5-0.1-0.7-0.1c0,0,0,0,0-0.1
		c0,0,0-0.1,0-0.1c0,0,0-0.1,0-0.2c0.2,0,0.4-0.1,0.6-0.1s0.4-0.1,0.6-0.2c0.2-0.1,0.3-0.2,0.4-0.4c0.1-0.2,0.1-0.4,0.1-0.6
		c0-0.4-0.1-0.6-0.2-0.8c-0.1-0.2-0.3-0.3-0.4-0.4c-0.2-0.1-0.3-0.1-0.4-0.1c-0.1,0-0.2,0-0.3,0c0,0-0.1,0-0.1,0s-0.1,0-0.1,0.1
		s-0.1,0.1-0.1,0.1c0,0,0,0.1,0,0.1c0,0.1,0,0.1,0.1,0.2c0,0.1,0.1,0.1,0.2,0.2c0.1,0.1,0.1,0.1,0.2,0.2c0.1,0.1,0.1,0.2,0.2,0.3
		c0,0.1,0,0.3,0,0.4c0,0.1-0.1,0.2-0.2,0.4s-0.2,0.2-0.3,0.2c-0.1,0.1-0.3,0.1-0.4,0.1c-0.2,0-0.3,0-0.4-0.1
		c-0.1-0.1-0.2-0.2-0.3-0.3s-0.2-0.2-0.2-0.3c-0.1-0.1-0.1-0.2-0.1-0.3c0-0.2,0-0.4,0.1-0.6c0.1-0.2,0.2-0.4,0.4-0.6
		s0.5-0.3,0.8-0.4c0.3-0.1,0.8-0.2,1.3-0.2c0.2,0,0.5,0,0.7,0.1s0.4,0.2,0.6,0.3c0.2,0.1,0.3,0.3,0.4,0.5c0.1,0.2,0.2,0.4,0.2,0.7
		c0,0.3-0.1,0.6-0.2,0.8c-0.2,0.2-0.3,0.3-0.5,0.4c-0.2,0.1-0.4,0.2-0.5,0.2s-0.2,0.1-0.2,0.1c0.2,0,0.4,0.1,0.6,0.1
		c0.2,0.1,0.4,0.1,0.6,0.2c0.2,0.1,0.3,0.2,0.4,0.4C420,130.9,420,131.2,420,131.4z"/>
</g>
<line class="st1" x1="84.9" y1="126.7" x2="935.4" y2="126.7"/>
<line class="st1" x1="84.9" y1="130.1" x2="935.4" y2="130.1"/>
<line class="st1" x1="84.9" y1="133.5" x2="935.4" y2="133.5"/>
<line class="st1" x1="84.9" y1="136.8" x2="935.4" y2="136.8"/>
<line class="st1" x1="84.9" y1="140.2" x2="935.4" y2="140.2"/>
<g class="st0">
	<path d="M51.3,79l1-4.8h1.5c0.3,0,0.5,0,0.6,0c0.2,0,0.4,0.1,0.5,0.2c0.1,0.1,0.3,0.2,0.3,0.4c0.1,0.2,0.1,0.3,0.1,0.5
		c0,0.3-0.1,0.5-0.2,0.7s-0.4,0.4-0.7,0.5c0.3,0.1,0.5,0.2,0.6,0.4c0.1,0.2,0.2,0.4,0.2,0.6c0,0.3-0.1,0.5-0.2,0.8s-0.4,0.4-0.6,0.6
		S54,79,53.7,79H51.3z M52.1,78.5h1.1c0.3,0,0.5,0,0.6,0c0.2,0,0.4-0.1,0.5-0.2c0.1-0.1,0.2-0.2,0.3-0.3c0.1-0.1,0.1-0.3,0.1-0.4
		c0-0.2-0.1-0.4-0.2-0.5c-0.1-0.1-0.4-0.2-0.8-0.2h-1.2L52.1,78.5z M52.5,76.3h1c0.5,0,0.8-0.1,1-0.2c0.2-0.1,0.3-0.4,0.3-0.7
		c0-0.1,0-0.3-0.1-0.4c-0.1-0.1-0.1-0.2-0.3-0.2c-0.1,0-0.3-0.1-0.6-0.1h-1L52.5,76.3z"/>
	<path d="M55.7,79l1-4.8h0.6l-1,4.8H55.7z"/>
	<path d="M57.4,79l0.1-0.7h0.7L58.1,79H57.4z"/>
	<path d="M61.1,77.8l0.6-0.1c0,0.3,0.1,0.6,0.3,0.7c0.2,0.1,0.3,0.2,0.6,0.2c0.3,0,0.5-0.1,0.8-0.3c0.2-0.2,0.3-0.5,0.3-0.7
		c0-0.2-0.1-0.4-0.2-0.6c-0.2-0.2-0.4-0.2-0.6-0.2c0,0-0.1,0-0.2,0l0.1-0.5c0.1,0,0.1,0,0.2,0c0.3,0,0.6-0.1,0.8-0.2
		s0.3-0.4,0.3-0.6c0-0.2-0.1-0.4-0.2-0.6c-0.2-0.2-0.3-0.2-0.6-0.2c-0.2,0-0.4,0.1-0.6,0.2c-0.2,0.2-0.3,0.4-0.3,0.7l-0.6-0.1
		c0.1-0.4,0.3-0.7,0.6-0.9c0.3-0.2,0.6-0.3,1-0.3c0.4,0,0.7,0.1,1,0.4s0.4,0.5,0.4,0.9c0,0.3-0.1,0.5-0.2,0.7
		c-0.1,0.2-0.3,0.3-0.6,0.5c0.2,0.1,0.3,0.2,0.4,0.4c0.1,0.2,0.1,0.3,0.1,0.5c0,0.4-0.2,0.8-0.5,1.1s-0.7,0.5-1.2,0.5
		c-0.4,0-0.8-0.1-1.1-0.4C61.3,78.5,61.2,78.2,61.1,77.8z"/>
	<path d="M65,77.9l0.6-0.1c0,0.3,0.1,0.5,0.2,0.6c0.1,0.1,0.3,0.2,0.4,0.2c0.2,0,0.4-0.1,0.6-0.3c0.3-0.3,0.5-0.7,0.6-1.2
		c-0.2,0.1-0.4,0.3-0.5,0.3c-0.2,0.1-0.3,0.1-0.5,0.1c-0.3,0-0.6-0.1-0.8-0.3c-0.3-0.3-0.5-0.6-0.5-1.1c0-0.5,0.2-1,0.5-1.4
		c0.3-0.3,0.7-0.5,1.1-0.5c0.4,0,0.7,0.1,1,0.4s0.4,0.7,0.4,1.3c0,0.5-0.1,1-0.3,1.6c-0.2,0.6-0.5,1-0.8,1.3c-0.3,0.2-0.6,0.3-1,0.3
		c-0.3,0-0.6-0.1-0.8-0.3C65.1,78.6,65,78.3,65,77.9z M65.8,76c0,0.3,0.1,0.5,0.2,0.7c0.2,0.2,0.4,0.3,0.6,0.3
		c0.2,0,0.3-0.1,0.5-0.2c0.2-0.1,0.3-0.3,0.4-0.5c0.1-0.2,0.2-0.5,0.2-0.7c0-0.2,0-0.4-0.1-0.5c-0.1-0.2-0.2-0.3-0.3-0.4
		c-0.1-0.1-0.3-0.1-0.4-0.1c-0.1,0-0.3,0-0.4,0.1s-0.2,0.2-0.4,0.3c-0.1,0.1-0.2,0.3-0.2,0.5C65.8,75.7,65.8,75.9,65.8,76z"/>
</g>
<g class="st0">
	<path d="M68.4,76.8l0.4-2h0.3l-0.1,0.4c0.1-0.2,0.2-0.3,0.3-0.3s0.2-0.1,0.3-0.1c0.1,0,0.2,0,0.3,0.1l-0.1,0.3
		c-0.1,0-0.1-0.1-0.2-0.1c-0.1,0-0.2,0.1-0.4,0.2c-0.1,0.1-0.2,0.4-0.3,0.7l-0.2,0.8H68.4z"/>
</g>
<g class="st0">
	<path d="M52.6,136.8l0.8-3.6c-0.3,0.3-0.8,0.5-1.4,0.6l0.1-0.5c0.3-0.1,0.6-0.3,0.9-0.5c0.3-0.2,0.5-0.4,0.7-0.5
		c0.1-0.1,0.2-0.2,0.3-0.3h0.3l-1,4.9H52.6z"/>
	<path d="M55.1,135.6l0.6-0.1c0,0.3,0.1,0.6,0.3,0.7c0.2,0.1,0.3,0.2,0.6,0.2c0.3,0,0.5-0.1,0.8-0.3c0.2-0.2,0.3-0.5,0.3-0.7
		c0-0.2-0.1-0.4-0.2-0.6c-0.2-0.2-0.4-0.2-0.6-0.2c0,0-0.1,0-0.2,0l0.1-0.5c0.1,0,0.1,0,0.2,0c0.3,0,0.6-0.1,0.8-0.2
		s0.3-0.4,0.3-0.6c0-0.2-0.1-0.4-0.2-0.6c-0.2-0.2-0.3-0.2-0.6-0.2c-0.2,0-0.4,0.1-0.6,0.2c-0.2,0.2-0.3,0.4-0.3,0.7l-0.6-0.1
		c0.1-0.4,0.3-0.7,0.6-0.9c0.3-0.2,0.6-0.3,1-0.3c0.4,0,0.7,0.1,1,0.4s0.4,0.5,0.4,0.9c0,0.3-0.1,0.5-0.2,0.7
		c-0.1,0.2-0.3,0.3-0.6,0.5c0.2,0.1,0.3,0.2,0.4,0.4c0.1,0.2,0.1,0.3,0.1,0.5c0,0.4-0.2,0.8-0.5,1.1s-0.7,0.5-1.2,0.5
		c-0.4,0-0.8-0.1-1.1-0.4C55.3,136.3,55.2,136,55.1,135.6z"/>
</g>
<g class="st0">
	<path d="M405.8,139.4c-0.2,0-0.4,0.1-0.6,0.1c-0.2,0-0.4,0-0.6,0c-0.2,0-0.4,0-0.6-0.1s-0.3-0.1-0.4-0.1c-0.5-0.2-0.9-0.5-1.3-0.8
		s-0.6-0.6-0.7-0.9s-0.3-0.6-0.4-0.9c-0.1-0.3-0.1-0.6-0.1-1c0-0.4,0-0.7,0.1-1.1s0.2-0.7,0.4-1c0.2-0.3,0.3-0.6,0.5-0.9
		c0.2-0.3,0.4-0.5,0.6-0.7c0.2-0.2,0.5-0.5,0.8-0.7s0.6-0.5,0.9-0.7c0-0.1,0-0.2,0-0.2s0-0.1,0-0.2s0-0.2,0-0.2c0-0.1,0-0.2,0-0.3
		c0-0.1,0-0.2,0-0.3c0-0.1,0-0.3,0-0.5s0-0.4,0-0.7c0-0.3,0-0.5,0.1-0.8c0-0.2,0.1-0.4,0.2-0.6c0.1-0.3,0.2-0.5,0.4-0.8
		s0.3-0.5,0.5-0.6s0.3-0.3,0.5-0.3c0.1,0,0.2,0,0.2,0.1c0.1,0.1,0.2,0.2,0.3,0.4s0.2,0.3,0.2,0.5s0.2,0.4,0.2,0.6
		c0.1,0.2,0.1,0.4,0.1,0.6c0,0.2,0.1,0.4,0.1,0.5c0,0.4,0,0.7,0,0.9c0,0.3-0.1,0.5-0.2,0.7c-0.1,0.2-0.1,0.4-0.2,0.6
		s-0.2,0.4-0.3,0.5c-0.1,0.2-0.2,0.3-0.3,0.5c-0.1,0.1-0.2,0.3-0.3,0.4c-0.1,0.1-0.2,0.3-0.4,0.4c-0.1,0.1-0.3,0.2-0.4,0.3
		c0.1,0.3,0.1,0.7,0.2,0.9c0,0.1,0,0.2,0.1,0.4c0,0.1,0,0.2,0.1,0.3s0,0.2,0,0.2s0,0.1,0,0.1c0.2,0,0.3,0,0.5,0c0.2,0,0.3,0,0.5,0.1
		c0.2,0,0.3,0.1,0.4,0.1c0.1,0.1,0.2,0.1,0.3,0.2c0.4,0.3,0.6,0.6,0.8,0.9c0.2,0.3,0.2,0.7,0.3,1.1c0,0.3,0,0.6-0.1,0.9
		s-0.2,0.6-0.3,0.8s-0.4,0.5-0.6,0.7c-0.3,0.2-0.6,0.4-0.9,0.5c0,0.3,0.1,0.5,0.1,0.8c0,0.2,0.1,0.4,0.1,0.6s0,0.3,0.1,0.4
		c0.1,0.4,0.1,0.7,0.1,1s-0.1,0.5-0.2,0.6c-0.1,0.1-0.2,0.3-0.3,0.4c-0.1,0.1-0.2,0.2-0.3,0.3c-0.1,0.1-0.3,0.2-0.5,0.3
		c-0.2,0.1-0.4,0.1-0.6,0.1c-0.2,0-0.4,0-0.6,0s-0.5-0.1-0.7-0.2c-0.2-0.1-0.4-0.3-0.6-0.5c-0.2-0.2-0.3-0.4-0.3-0.7
		c0-0.2,0-0.3,0-0.5c0-0.2,0.1-0.3,0.2-0.4s0.2-0.2,0.3-0.3c0.1-0.1,0.3-0.1,0.5-0.2c0.1,0,0.2,0,0.4,0.1c0.1,0,0.2,0.1,0.3,0.2
		s0.2,0.2,0.3,0.3c0.1,0.1,0.1,0.3,0.1,0.4c0,0.2-0.1,0.5-0.2,0.7c-0.2,0.2-0.5,0.4-0.9,0.5c0.1,0.1,0.2,0.2,0.4,0.3
		s0.4,0.1,0.7,0.1c0.3,0,0.6-0.1,0.9-0.3c0.3-0.2,0.5-0.4,0.6-0.7c0.1-0.2,0.1-0.4,0.1-0.7c0-0.3,0-0.6-0.1-0.8c0,0,0-0.2-0.1-0.3
		c0-0.2-0.1-0.4-0.1-0.6C405.9,139.9,405.8,139.7,405.8,139.4z M404.5,135.6c-0.2,0.1-0.3,0.2-0.4,0.4c-0.1,0.1-0.2,0.3-0.2,0.4
		s-0.1,0.3,0,0.4s0,0.2,0.1,0.4c0,0.1,0.1,0.2,0.2,0.4s0.2,0.2,0.3,0.3c0.1,0.1,0.2,0.2,0.3,0.2c0,0,0,0,0,0c0,0,0,0,0,0
		c0,0,0,0,0,0c-0.2-0.1-0.4-0.2-0.6-0.4c-0.2-0.1-0.3-0.2-0.3-0.3c-0.1-0.1-0.1-0.2-0.2-0.3c-0.1-0.1-0.1-0.2-0.1-0.3
		c0-0.1-0.1-0.2-0.1-0.3c0-0.1,0-0.2,0-0.4c0-0.1,0-0.3,0-0.5c0-0.2,0.1-0.3,0.2-0.5s0.2-0.3,0.3-0.5c0.1-0.2,0.3-0.3,0.4-0.4
		c0.1-0.1,0.2-0.1,0.2-0.2c0.1,0,0.1-0.1,0.2-0.1c0.1,0,0.1-0.1,0.2-0.1c0.1,0,0.1,0,0.2-0.1l-0.3-1.8c-0.1,0-0.2,0.1-0.4,0.3
		c-0.2,0.1-0.4,0.3-0.6,0.5c-0.2,0.2-0.4,0.4-0.6,0.6s-0.4,0.4-0.5,0.7c-0.2,0.4-0.4,0.7-0.6,1.1c-0.1,0.3-0.2,0.7-0.2,1.1
		c0,0.4,0.2,0.8,0.4,1.2c0.2,0.4,0.5,0.7,0.9,0.9c0.4,0.2,0.8,0.4,1.2,0.5c0.5,0.1,0.9,0.1,1.4,0c-0.1-0.7-0.2-1.3-0.3-1.8
		c0-0.2-0.1-0.4-0.1-0.7c0-0.2-0.1-0.4-0.1-0.6s-0.1-0.4-0.1-0.6C404.9,135.5,404.6,135.5,404.5,135.6z M406,126.6
		c-0.3,0-0.5,0.1-0.7,0.4s-0.4,0.6-0.5,0.9c-0.1,0.4-0.2,0.8-0.2,1.2c0,0.5,0,0.9,0,1.3c0.2-0.2,0.5-0.4,0.7-0.6
		c0.2-0.2,0.5-0.5,0.7-0.8c0.2-0.3,0.4-0.5,0.5-0.8c0.1-0.3,0.2-0.5,0.2-0.8c0-0.1,0-0.2,0-0.3c0-0.1-0.1-0.2-0.1-0.3
		c0-0.1-0.1-0.2-0.2-0.2C406.2,126.6,406.1,126.6,406,126.6z M406,139c0.3-0.1,0.5-0.2,0.7-0.4s0.3-0.3,0.4-0.5
		c0.1-0.2,0.1-0.4,0.1-0.6c0-0.2,0-0.4,0-0.5c0-0.1,0-0.3-0.1-0.5c0-0.2-0.1-0.4-0.2-0.5s-0.3-0.3-0.5-0.4c-0.2-0.1-0.5-0.2-0.9-0.1
		L406,139z"/>
</g>
<g class="st0">
	<path d="M427.5,130.6c0.2-0.1,0.4,0,0.6,0s0.3,0.2,0.4,0.4s0.1,0.3,0.2,0.5s0,0.4,0,0.5c0.1,0,0.3,0,0.4-0.1c0.1,0,0.2-0.1,0.4-0.2
		c0.1-0.1,0.2-0.2,0.3-0.3c0.1-0.1,0.2-0.2,0.3-0.3l0.2,0.1l-1.5,5.7h-0.5c0.1-0.3,0.2-0.6,0.3-0.9c0.1-0.2,0.2-0.5,0.2-0.7
		c0.1-0.3,0.2-0.5,0.2-0.6c0.1-0.4,0.3-0.7,0.4-1.1c0.1-0.3,0.2-0.6,0.2-0.8c0.1-0.3,0.1-0.5,0.1-0.7c-0.1,0.1-0.2,0.1-0.3,0.2
		s-0.3,0.2-0.5,0.3c-0.2,0.1-0.3,0.2-0.5,0.2s-0.3,0.1-0.5,0.1c-0.4,0-0.6-0.1-0.8-0.3s-0.3-0.4-0.4-0.7c0-0.3,0-0.5,0.2-0.8
		C426.9,130.9,427.1,130.7,427.5,130.6z"/>
</g>
<line class="st1" x1="468.5" y1="134.6" x2="468.5" y2="123.3"/>
<g class="st0">
	<path d="M464.4,135.2c0.1-0.2,0.2-0.5,0.4-0.7s0.4-0.4,0.6-0.5c0.2-0.2,0.5-0.3,0.8-0.4c0.3-0.1,0.6-0.1,0.9-0.1s0.5,0,0.8,0.1
		c0.2,0.1,0.4,0.2,0.5,0.4c0.1,0.2,0.2,0.3,0.2,0.6c0,0.2,0,0.4-0.1,0.7s-0.2,0.5-0.4,0.7c-0.2,0.2-0.4,0.4-0.6,0.6
		s-0.5,0.3-0.8,0.4c-0.3,0.1-0.6,0.1-0.8,0.1c-0.3,0-0.5,0-0.7-0.1c-0.2-0.1-0.4-0.2-0.5-0.4s-0.2-0.3-0.2-0.6
		C464.3,135.6,464.4,135.4,464.4,135.2z"/>
</g>
<g class="st0">
	<path d="M51.9,46.5v-8.6h2.6l1.6,5.9l1.5-5.9h2.6v8.6h-1.6v-6.8l-1.7,6.8h-1.7l-1.7-6.8v6.8H51.9z"/>
	<path d="M64.8,44.2l1.6-0.2c0.1,0.4,0.2,0.7,0.4,0.9s0.5,0.3,0.8,0.3c0.3,0,0.6-0.1,0.9-0.4s0.3-0.6,0.3-1c0-0.4-0.1-0.7-0.3-1
		s-0.5-0.4-0.8-0.4c-0.2,0-0.5,0-0.8,0.1l0.2-1.3c0.4,0,0.8-0.1,1-0.3s0.4-0.5,0.4-0.8c0-0.3-0.1-0.5-0.3-0.7s-0.4-0.3-0.7-0.3
		c-0.3,0-0.5,0.1-0.7,0.3s-0.3,0.5-0.4,0.9l-1.5-0.3c0.1-0.5,0.3-0.9,0.5-1.2s0.5-0.6,0.9-0.7s0.8-0.3,1.3-0.3
		c0.8,0,1.5,0.3,1.9,0.8c0.4,0.4,0.6,0.9,0.6,1.4c0,0.8-0.4,1.4-1.2,1.8c0.5,0.1,0.9,0.3,1.2,0.7s0.4,0.8,0.4,1.3
		c0,0.8-0.3,1.4-0.8,1.9s-1.2,0.8-2.1,0.8c-0.8,0-1.4-0.2-1.9-0.7S64.9,44.9,64.8,44.2z"/>
	<path d="M75.7,46.5h-1.6v-6.2c-0.6,0.6-1.3,1-2.1,1.2V40c0.4-0.1,0.9-0.4,1.4-0.8s0.8-0.9,1-1.4h1.3V46.5z"/>
	<path d="M78.2,39.6V38h5.6v1.2c-0.5,0.5-0.9,1.1-1.4,2s-0.8,1.8-1.1,2.7s-0.4,1.8-0.4,2.6h-1.6c0-1.2,0.3-2.4,0.7-3.6
		s1.1-2.3,1.9-3.3H78.2z"/>
	<path d="M88.1,43.7l1.7-0.2c0.1,0.6,0.3,1,0.6,1.2s0.7,0.4,1.3,0.4c0.6,0,1-0.1,1.3-0.4s0.4-0.5,0.4-0.8c0-0.2-0.1-0.4-0.2-0.5
		s-0.3-0.3-0.6-0.4c-0.2-0.1-0.7-0.2-1.4-0.4c-0.9-0.2-1.6-0.5-2-0.8c-0.5-0.5-0.8-1-0.8-1.7c0-0.4,0.1-0.8,0.4-1.2s0.6-0.7,1.1-0.9
		s1-0.3,1.7-0.3c1.1,0,1.9,0.2,2.4,0.7s0.8,1.1,0.9,1.9l-1.7,0.1c-0.1-0.4-0.2-0.8-0.5-1s-0.6-0.3-1.1-0.3c-0.5,0-0.9,0.1-1.2,0.3
		c-0.2,0.1-0.3,0.3-0.3,0.5c0,0.2,0.1,0.4,0.3,0.5c0.2,0.2,0.8,0.4,1.6,0.6s1.5,0.4,1.9,0.6s0.7,0.5,0.9,0.9s0.3,0.8,0.3,1.4
		c0,0.5-0.1,1-0.4,1.4s-0.7,0.7-1.2,1s-1.1,0.3-1.9,0.3c-1.1,0-1.9-0.3-2.5-0.8S88.3,44.7,88.1,43.7z"/>
	<path d="M96.5,46.5v-8.6h1.6v4.6l1.9-2.2h2l-2.1,2.3l2.3,3.9h-1.8l-1.6-2.8l-0.8,0.8v2H96.5z"/>
	<path d="M106.1,46.5v-1.7h-3.5v-1.4l3.7-5.5h1.4v5.4h1.1v1.4h-1.1v1.7H106.1z M106.1,43.3v-2.9l-2,2.9H106.1z"/>
	<path d="M109.9,46.5v-1.6h1.6v1.6H109.9z"/>
	<path d="M118.5,45v1.5h-5.8c0.1-0.6,0.2-1.1,0.6-1.6s0.9-1.2,1.9-2.1c0.7-0.7,1.2-1.2,1.4-1.4c0.2-0.3,0.3-0.7,0.3-1
		c0-0.4-0.1-0.6-0.3-0.8s-0.5-0.3-0.8-0.3c-0.3,0-0.6,0.1-0.8,0.3s-0.3,0.6-0.4,1l-1.6-0.2c0.1-0.9,0.4-1.6,0.9-2s1.2-0.6,1.9-0.6
		c0.8,0,1.5,0.2,2,0.7s0.7,1,0.7,1.7c0,0.4-0.1,0.8-0.2,1.1s-0.4,0.7-0.7,1.1c-0.2,0.3-0.6,0.6-1.1,1.1s-0.8,0.8-1,0.9
		s-0.3,0.3-0.3,0.5H118.5z"/>
</g>
<polyline class="st2" points="90.3,154.8 90.3,119.3 394.3,119.3 394.3,157.6 "/>
<path class="st1" d="M401.4,125H400v19.1h1.4"/>
<path class="st1" d="M407.5,125h1.4v19.1h-1.4"/>
<g class="st0">
	<path d="M200.4,150.9l1.7-0.2c0.1,0.6,0.3,1,0.6,1.2s0.7,0.4,1.3,0.4c0.6,0,1-0.1,1.3-0.4s0.4-0.5,0.4-0.8c0-0.2-0.1-0.4-0.2-0.5
		s-0.3-0.3-0.6-0.4c-0.2-0.1-0.7-0.2-1.4-0.4c-0.9-0.2-1.6-0.5-2-0.8c-0.5-0.5-0.8-1-0.8-1.7c0-0.4,0.1-0.8,0.4-1.2s0.6-0.7,1.1-0.9
		s1-0.3,1.7-0.3c1.1,0,1.9,0.2,2.4,0.7s0.8,1.1,0.9,1.9l-1.7,0.1c-0.1-0.4-0.2-0.8-0.5-1s-0.6-0.3-1.1-0.3c-0.5,0-0.9,0.1-1.2,0.3
		c-0.2,0.1-0.3,0.3-0.3,0.5c0,0.2,0.1,0.4,0.3,0.5c0.2,0.2,0.8,0.4,1.6,0.6s1.5,0.4,1.9,0.6s0.7,0.5,0.9,0.9s0.3,0.8,0.3,1.4
		c0,0.5-0.1,1-0.4,1.4s-0.7,0.7-1.2,1s-1.1,0.3-1.9,0.3c-1.1,0-1.9-0.3-2.5-0.8S200.5,151.9,200.4,150.9z"/>
	<path d="M208.7,153.7v-8.6h1.6v4.6l1.9-2.2h2l-2.1,2.3l2.3,3.9h-1.8l-1.6-2.8l-0.8,0.8v2H208.7z"/>
	<path d="M218.4,153.7V152h-3.5v-1.4l3.7-5.5h1.4v5.4h1.1v1.4h-1.1v1.7H218.4z M218.4,150.5v-2.9l-2,2.9H218.4z"/>
</g>
<g class="st0">
	<path d="M227.4,153.7v-7.1h-2.5v-1.5h6.8v1.5h-2.5v7.1H227.4z"/>
</g>
<g class="st0">
	<path d="M231.5,153.7v-1.6h1.6v1.6H231.5z"/>
	<path d="M242,153.7h-1.6v-6.2c-0.6,0.6-1.3,1-2.1,1.2v-1.5c0.4-0.1,0.9-0.4,1.4-0.8s0.8-0.9,1-1.4h1.3V153.7z"/>
	<path d="M244.4,151.4l1.6-0.2c0.1,0.4,0.2,0.7,0.4,0.9s0.5,0.3,0.8,0.3c0.3,0,0.6-0.1,0.9-0.4s0.3-0.6,0.3-1c0-0.4-0.1-0.7-0.3-1
		s-0.5-0.4-0.8-0.4c-0.2,0-0.5,0-0.8,0.1l0.2-1.3c0.4,0,0.8-0.1,1-0.3s0.4-0.5,0.4-0.8c0-0.3-0.1-0.5-0.3-0.7s-0.4-0.3-0.7-0.3
		c-0.3,0-0.5,0.1-0.7,0.3s-0.3,0.5-0.4,0.9l-1.5-0.3c0.1-0.5,0.3-0.9,0.5-1.2s0.5-0.6,0.9-0.7s0.8-0.3,1.3-0.3
		c0.8,0,1.5,0.3,1.9,0.8c0.4,0.4,0.6,0.9,0.6,1.4c0,0.8-0.4,1.4-1.2,1.8c0.5,0.1,0.9,0.3,1.2,0.7s0.4,0.8,0.4,1.3
		c0,0.8-0.3,1.4-0.8,1.9s-1.2,0.8-2.1,0.8c-0.8,0-1.4-0.2-1.9-0.7S244.5,152.2,244.4,151.4z"/>
	<path d="M250.6,151.2V150h6.7v1.2H250.6z"/>
	<path d="M262,153.7h-1.6v-6.2c-0.6,0.6-1.3,1-2.1,1.2v-1.5c0.4-0.1,0.9-0.4,1.4-0.8s0.8-0.9,1-1.4h1.3V153.7z"/>
	<path d="M264.5,151.5l1.6-0.2c0,0.4,0.2,0.7,0.4,0.9s0.5,0.3,0.8,0.3c0.3,0,0.6-0.1,0.9-0.4s0.4-0.7,0.4-1.3c0-0.5-0.1-0.9-0.4-1.2
		s-0.5-0.4-0.9-0.4c-0.5,0-0.9,0.2-1.3,0.6l-1.3-0.2l0.8-4.5h4.4v1.5h-3.1l-0.3,1.5c0.4-0.2,0.7-0.3,1.1-0.3c0.7,0,1.3,0.3,1.9,0.8
		s0.8,1.2,0.8,2.1c0,0.7-0.2,1.3-0.6,1.9c-0.6,0.8-1.3,1.1-2.3,1.1c-0.8,0-1.4-0.2-1.9-0.6S264.6,152.2,264.5,151.5z"/>
</g>
<polyline class="st3" points="524.5,119.3 524.5,151.4 581.8,151.4 581.8,119.3 "/>
<polyline class="st4" points="751.6,119.3 751.6,151.4 913.1,151.4 913.1,119.5 "/>
<line class="st1" x1="751.8" y1="119.3" x2="751.8" y2="151.4"/>
<line class="st1" x1="913.1" y1="119.4" x2="913.1" y2="151.4"/>
<line class="st1" x1="581.8" y1="119.3" x2="751.6" y2="119.3"/>
<g class="st0">
	<path d="M628.4,110.4l1.7-0.2c0.1,0.6,0.3,1,0.6,1.2s0.7,0.4,1.3,0.4c0.6,0,1-0.1,1.3-0.4s0.4-0.5,0.4-0.8c0-0.2-0.1-0.4-0.2-0.5
		s-0.3-0.3-0.6-0.4c-0.2-0.1-0.7-0.2-1.4-0.4c-0.9-0.2-1.6-0.5-2-0.8c-0.5-0.5-0.8-1-0.8-1.7c0-0.4,0.1-0.8,0.4-1.2s0.6-0.7,1.1-0.9
		s1-0.3,1.7-0.3c1.1,0,1.9,0.2,2.4,0.7s0.8,1.1,0.9,1.9l-1.7,0.1c-0.1-0.4-0.2-0.8-0.5-1s-0.6-0.3-1.1-0.3c-0.5,0-0.9,0.1-1.2,0.3
		c-0.2,0.1-0.3,0.3-0.3,0.5c0,0.2,0.1,0.4,0.3,0.5c0.2,0.2,0.8,0.4,1.6,0.6s1.5,0.4,1.9,0.6s0.7,0.5,0.9,0.9s0.3,0.8,0.3,1.4
		c0,0.5-0.1,1-0.4,1.4s-0.7,0.7-1.2,1s-1.1,0.3-1.9,0.3c-1.1,0-1.9-0.3-2.5-0.8S628.5,111.4,628.4,110.4z"/>
	<path d="M636.8,113.2v-8.6h1.6v4.6l1.9-2.2h2l-2.1,2.3l2.3,3.9h-1.8l-1.6-2.8l-0.8,0.8v2H636.8z"/>
	<path d="M646.4,113.2v-1.7h-3.5V110l3.7-5.5h1.4v5.4h1.1v1.4H648v1.7H646.4z M646.4,110v-2.9l-2,2.9H646.4z"/>
</g>
<g class="st0">
	<path d="M655.5,113.2v-7.1h-2.5v-1.5h6.8v1.5h-2.5v7.1H655.5z"/>
</g>
<g class="st0">
	<path d="M659.6,113.2v-1.6h1.6v1.6H659.6z"/>
	<path d="M665.9,106.3v-1.5h5.6v1.2c-0.5,0.5-0.9,1.1-1.4,2s-0.8,1.8-1.1,2.7s-0.4,1.8-0.4,2.6H667c0-1.2,0.3-2.4,0.7-3.6
		s1.1-2.3,1.9-3.3H665.9z"/>
	<path d="M672,110.7v-1.2h6.7v1.2H672z"/>
	<path d="M683.4,113.2h-1.6V107c-0.6,0.6-1.3,1-2.1,1.2v-1.5c0.4-0.1,0.9-0.4,1.4-0.8s0.8-0.9,1-1.4h1.3V113.2z"/>
	<path d="M691.5,111.7v1.5h-5.8c0.1-0.6,0.2-1.1,0.6-1.6s0.9-1.2,1.9-2.1c0.7-0.7,1.2-1.2,1.4-1.4c0.2-0.3,0.3-0.7,0.3-1
		c0-0.4-0.1-0.6-0.3-0.8s-0.5-0.3-0.8-0.3c-0.3,0-0.6,0.1-0.8,0.3s-0.3,0.6-0.4,1l-1.6-0.2c0.1-0.9,0.4-1.6,0.9-2s1.2-0.6,1.9-0.6
		c0.8,0,1.5,0.2,2,0.7s0.7,1,0.7,1.7c0,0.4-0.1,0.8-0.2,1.1s-0.4,0.7-0.7,1.1c-0.2,0.3-0.6,0.6-1.1,1.1s-0.8,0.8-1,0.9
		s-0.3,0.3-0.3,0.5H691.5z"/>
</g>
<g class="st0">
	<path d="M412.6,79l0.8-3.6c-0.3,0.3-0.8,0.5-1.4,0.6l0.1-0.5c0.3-0.1,0.6-0.3,0.9-0.5c0.3-0.2,0.5-0.4,0.7-0.5
		c0.1-0.1,0.2-0.2,0.3-0.3h0.3l-1,4.9H412.6z"/>
	<path d="M415.1,77.8l0.6-0.1c0,0.3,0.1,0.6,0.3,0.7c0.2,0.1,0.3,0.2,0.6,0.2c0.3,0,0.5-0.1,0.8-0.3c0.2-0.2,0.3-0.5,0.3-0.7
		c0-0.2-0.1-0.4-0.2-0.6c-0.2-0.2-0.4-0.2-0.6-0.2c0,0-0.1,0-0.2,0l0.1-0.5c0.1,0,0.1,0,0.2,0c0.3,0,0.6-0.1,0.8-0.2
		s0.3-0.4,0.3-0.6c0-0.2-0.1-0.4-0.2-0.6c-0.2-0.2-0.3-0.2-0.6-0.2c-0.2,0-0.4,0.1-0.6,0.2c-0.2,0.2-0.3,0.4-0.3,0.7l-0.6-0.1
		c0.1-0.4,0.3-0.7,0.6-0.9c0.3-0.2,0.6-0.3,1-0.3c0.4,0,0.7,0.1,1,0.4s0.4,0.5,0.4,0.9c0,0.3-0.1,0.5-0.2,0.7
		c-0.1,0.2-0.3,0.3-0.6,0.5c0.2,0.1,0.3,0.2,0.4,0.4c0.1,0.2,0.1,0.3,0.1,0.5c0,0.4-0.2,0.8-0.5,1.1s-0.7,0.5-1.2,0.5
		c-0.4,0-0.8-0.1-1.1-0.4C415.3,78.5,415.1,78.2,415.1,77.8z"/>
</g>
</svg>
