<?xml version="1.0" encoding="utf-8"?>
<!-- Generator: Adobe Illustrator 22.1.0, SVG Export Plug-In . SVG Version: 6.00 Build 0)  -->
<svg version="1.1" id="Ebene_1" xmlns="http://www.w3.org/2000/svg" xmlns:xlink="http://www.w3.org/1999/xlink" x="0px" y="0px"
	 viewBox="0 0 1021 595" style="enable-background:new 0 0 1021 595;" xml:space="preserve">
<style type="text/css">
	.st0{fill:none;stroke:#000000;stroke-width:0.4;}
	.st1{enable-background:new    ;}
	.st2{fill:#FFFFFF;}
	.st3{fill:none;stroke:#000000;stroke-width:0.56;}
	.st4{fill:#FFFFFF;stroke:#000000;stroke-width:0.4;stroke-miterlimit:10;}
	.st5{fill:none;stroke:#000000;stroke-width:0.25;}
	.st6{fill:none;stroke:#000000;stroke-width:0.25;stroke-dasharray:1,1;}
</style>
<line class="st0" x1="85.1" y1="167.2" x2="85.1" y2="261.7"/>
<line class="st0" x1="650.9" y1="126.7" x2="650.9" y2="221.2"/>
<line class="st0" x1="837.6" y1="126.7" x2="837.6" y2="221.2"/>
<line class="st0" x1="935.2" y1="126.7" x2="935.2" y2="221.2"/>
<line class="st0" x1="84.9" y1="126.7" x2="935.4" y2="126.7"/>
<line class="st0" x1="84.9" y1="130.1" x2="935.4" y2="130.1"/>
<line class="st0" x1="84.9" y1="133.5" x2="935.4" y2="133.5"/>
<line class="st0" x1="84.9" y1="136.8" x2="935.4" y2="136.8"/>
<line class="st0" x1="84.9" y1="140.2" x2="935.4" y2="140.2"/>
<line class="st0" x1="84.9" y1="167.2" x2="935.4" y2="167.2"/>
<line class="st0" x1="84.9" y1="170.6" x2="935.4" y2="170.6"/>
<line class="st0" x1="84.9" y1="174" x2="935.4" y2="174"/>
<line class="st0" x1="84.9" y1="177.3" x2="935.4" y2="177.3"/>
<line class="st0" x1="84.9" y1="180.7" x2="935.4" y2="180.7"/>
<line class="st0" x1="84.9" y1="207.7" x2="935.4" y2="207.7"/>
<line class="st0" x1="84.9" y1="211.1" x2="935.4" y2="211.1"/>
<line class="st0" x1="84.9" y1="214.5" x2="935.4" y2="214.5"/>
<line class="st0" x1="84.9" y1="217.8" x2="935.4" y2="217.8"/>
<line class="st0" x1="84.9" y1="221.2" x2="935.4" y2="221.2"/>
<line class="st0" x1="84.9" y1="248.2" x2="935.4" y2="248.2"/>
<line class="st0" x1="84.9" y1="251.6" x2="935.4" y2="251.6"/>
<line class="st0" x1="84.9" y1="255" x2="935.4" y2="255"/>
<line class="st0" x1="84.9" y1="258.3" x2="935.4" y2="258.3"/>
<line class="st0" x1="84.9" y1="261.7" x2="935.4" y2="261.7"/>
<polyline class="st0" points="783.4,145.6 820.3,147.5 783.4,149.5 "/>
<polyline class="st0" points="757.1,196.6 802,198.6 757.1,200.5 "/>
<line class="st0" x1="846.1" y1="214.5" x2="932.2" y2="124"/>
<g class="st1">
	<path d="M51.3,78.9l1-4.8h1.5c0.3,0,0.5,0,0.6,0c0.2,0,0.4,0.1,0.5,0.2c0.1,0.1,0.3,0.2,0.3,0.4c0.1,0.2,0.1,0.3,0.1,0.5
		c0,0.3-0.1,0.5-0.2,0.7s-0.4,0.4-0.7,0.5c0.3,0.1,0.5,0.2,0.6,0.4c0.1,0.2,0.2,0.4,0.2,0.6c0,0.3-0.1,0.5-0.2,0.8s-0.4,0.4-0.6,0.6
		s-0.5,0.2-0.8,0.2H51.3z M52.1,78.4h1.1c0.3,0,0.5,0,0.6,0c0.2,0,0.4-0.1,0.5-0.2c0.1-0.1,0.2-0.2,0.3-0.3c0.1-0.1,0.1-0.3,0.1-0.4
		c0-0.2-0.1-0.4-0.2-0.5c-0.1-0.1-0.4-0.2-0.8-0.2h-1.2L52.1,78.4z M52.5,76.1h1c0.5,0,0.8-0.1,1-0.2c0.2-0.1,0.3-0.4,0.3-0.7
		c0-0.1,0-0.3-0.1-0.4c-0.1-0.1-0.1-0.2-0.3-0.2c-0.1,0-0.3-0.1-0.6-0.1h-1L52.5,76.1z"/>
	<path d="M55.7,78.9l1-4.8h0.6l-1,4.8H55.7z"/>
	<path d="M57.4,78.9l0.1-0.7h0.7l-0.1,0.7H57.4z"/>
	<path d="M61.1,77.6l0.6-0.1c0,0.3,0.1,0.6,0.3,0.7c0.2,0.1,0.3,0.2,0.6,0.2c0.3,0,0.5-0.1,0.8-0.3c0.2-0.2,0.3-0.5,0.3-0.7
		c0-0.2-0.1-0.4-0.2-0.6c-0.2-0.2-0.4-0.2-0.6-0.2c0,0-0.1,0-0.2,0l0.1-0.5c0.1,0,0.1,0,0.2,0c0.3,0,0.6-0.1,0.8-0.2
		s0.3-0.4,0.3-0.6c0-0.2-0.1-0.4-0.2-0.6c-0.2-0.2-0.3-0.2-0.6-0.2c-0.2,0-0.4,0.1-0.6,0.2c-0.2,0.2-0.3,0.4-0.3,0.7l-0.6-0.1
		c0.1-0.4,0.3-0.7,0.6-0.9c0.3-0.2,0.6-0.3,1-0.3c0.4,0,0.7,0.1,1,0.4s0.4,0.5,0.4,0.9c0,0.3-0.1,0.5-0.2,0.7
		c-0.1,0.2-0.3,0.3-0.6,0.5c0.2,0.1,0.3,0.2,0.4,0.4c0.1,0.2,0.1,0.3,0.1,0.5c0,0.4-0.2,0.8-0.5,1.1S63.1,79,62.7,79
		c-0.4,0-0.8-0.1-1.1-0.4C61.3,78.4,61.2,78.1,61.1,77.6z"/>
	<path d="M66,76.3c-0.2-0.1-0.3-0.2-0.4-0.4c-0.1-0.2-0.1-0.3-0.1-0.5c0-0.3,0.1-0.6,0.3-0.8c0.3-0.3,0.7-0.5,1.1-0.5
		c0.4,0,0.8,0.1,1,0.3c0.2,0.2,0.4,0.5,0.4,0.8c0,0.2-0.1,0.4-0.2,0.6c-0.1,0.2-0.3,0.3-0.6,0.5c0.2,0.1,0.3,0.2,0.4,0.4
		c0.1,0.2,0.2,0.4,0.2,0.6c0,0.4-0.2,0.8-0.5,1.2c-0.3,0.3-0.7,0.5-1.2,0.5c-0.4,0-0.7-0.1-1-0.4c-0.3-0.3-0.4-0.6-0.4-0.9
		c0-0.4,0.1-0.7,0.3-0.9C65.5,76.5,65.7,76.3,66,76.3z M65.6,77.7c0,0.1,0,0.3,0.1,0.4c0.1,0.1,0.2,0.2,0.3,0.3s0.3,0.1,0.5,0.1
		c0.3,0,0.6-0.2,0.8-0.5c0.2-0.2,0.2-0.5,0.2-0.8c0-0.2-0.1-0.4-0.2-0.5c-0.1-0.1-0.3-0.2-0.6-0.2c-0.3,0-0.6,0.1-0.8,0.3
		S65.6,77.4,65.6,77.7z M66.1,75.4c0,0.2,0.1,0.4,0.2,0.5c0.1,0.1,0.3,0.2,0.5,0.2c0.3,0,0.5-0.1,0.7-0.2c0.2-0.2,0.3-0.4,0.3-0.6
		c0-0.2-0.1-0.4-0.2-0.5c-0.1-0.1-0.3-0.2-0.5-0.2c-0.2,0-0.3,0-0.5,0.1c-0.1,0.1-0.3,0.2-0.3,0.3C66.1,75.1,66.1,75.3,66.1,75.4z"
		/>
</g>
<g class="st1">
	<path d="M68.9,76.7l-0.3-2h0.3l0.2,1.1c0,0.1,0,0.3,0.1,0.6c0.1-0.1,0.2-0.3,0.3-0.5l0.7-1.2h0.4l-1.2,2H68.9z"/>
</g>
<g class="st1">
	<path d="M52.6,136.8l0.8-3.6c-0.3,0.3-0.8,0.5-1.4,0.6l0.1-0.5c0.3-0.1,0.6-0.3,0.9-0.5c0.3-0.2,0.5-0.4,0.7-0.5
		c0.1-0.1,0.2-0.2,0.3-0.3h0.3l-1,4.9H52.6z"/>
	<path d="M55.1,135.6l0.6-0.1c0,0.3,0.1,0.6,0.3,0.7c0.2,0.1,0.3,0.2,0.6,0.2c0.3,0,0.5-0.1,0.8-0.3c0.2-0.2,0.3-0.5,0.3-0.7
		c0-0.2-0.1-0.4-0.2-0.6c-0.2-0.2-0.4-0.2-0.6-0.2c0,0-0.1,0-0.2,0l0.1-0.5c0.1,0,0.1,0,0.2,0c0.3,0,0.6-0.1,0.8-0.2
		s0.3-0.4,0.3-0.6c0-0.2-0.1-0.4-0.2-0.6c-0.2-0.2-0.3-0.2-0.6-0.2c-0.2,0-0.4,0.1-0.6,0.2c-0.2,0.2-0.3,0.4-0.3,0.7l-0.6-0.1
		c0.1-0.4,0.3-0.7,0.6-0.9c0.3-0.2,0.6-0.3,1-0.3c0.4,0,0.7,0.1,1,0.4s0.4,0.5,0.4,0.9c0,0.3-0.1,0.5-0.2,0.7
		c-0.1,0.2-0.3,0.3-0.6,0.5c0.2,0.1,0.3,0.2,0.4,0.4c0.1,0.2,0.1,0.3,0.1,0.5c0,0.4-0.2,0.8-0.5,1.1s-0.7,0.5-1.2,0.5
		c-0.4,0-0.8-0.1-1.1-0.4C55.3,136.3,55.2,136,55.1,135.6z"/>
</g>
<g class="st1">
	<path d="M52.6,177.3l0.8-3.6c-0.3,0.3-0.8,0.5-1.4,0.6l0.1-0.5c0.3-0.1,0.6-0.3,0.9-0.5c0.3-0.2,0.5-0.4,0.7-0.5
		c0.1-0.1,0.2-0.2,0.3-0.3h0.3l-1,4.9H52.6z"/>
	<path d="M56.8,177.3l0.3-1.2h-2l0.1-0.6l2.7-3h0.5l-0.6,3.1h0.7l-0.1,0.5h-0.7l-0.3,1.2H56.8z M57.2,175.6l0.4-2l-1.8,2H57.2z"/>
</g>
<g class="st1">
	<path d="M52.6,217.8l0.8-3.6c-0.3,0.3-0.8,0.5-1.4,0.6l0.1-0.5c0.3-0.1,0.6-0.3,0.9-0.5c0.3-0.2,0.5-0.4,0.7-0.5
		c0.1-0.1,0.2-0.2,0.3-0.3h0.3l-1,4.9H52.6z"/>
	<path d="M55.2,216.5l0.6-0.1c0,0.1,0,0.1,0,0.2c0,0.1,0,0.3,0.1,0.4c0.1,0.1,0.2,0.3,0.3,0.3c0.1,0.1,0.3,0.1,0.4,0.1
		c0.2,0,0.4-0.1,0.6-0.2c0.2-0.1,0.3-0.3,0.5-0.6s0.2-0.5,0.2-0.7c0-0.3-0.1-0.5-0.2-0.6c-0.2-0.2-0.4-0.2-0.6-0.2
		c-0.2,0-0.3,0-0.5,0.1c-0.2,0.1-0.3,0.2-0.4,0.4l-0.5,0l0.7-2.5h2.4l-0.1,0.5h-1.8l-0.4,1.2c0.1-0.1,0.3-0.2,0.4-0.2
		s0.3-0.1,0.4-0.1c0.4,0,0.7,0.1,0.9,0.4s0.4,0.6,0.4,1c0,0.4-0.1,0.7-0.2,1c-0.2,0.3-0.4,0.6-0.7,0.7s-0.6,0.3-0.9,0.3
		c-0.3,0-0.5-0.1-0.7-0.2c-0.2-0.1-0.4-0.3-0.5-0.5S55.2,216.8,55.2,216.5C55.2,216.5,55.2,216.5,55.2,216.5z"/>
</g>
<g class="st1">
	<path d="M52.6,258.1l0.8-3.6c-0.3,0.3-0.8,0.5-1.4,0.6l0.1-0.5c0.3-0.1,0.6-0.3,0.9-0.5c0.3-0.2,0.5-0.4,0.7-0.5
		c0.1-0.1,0.2-0.2,0.3-0.3h0.3l-1,4.9H52.6z"/>
	<path d="M56.1,255.3c0.2-0.1,0.3-0.2,0.5-0.3c0.2-0.1,0.3-0.1,0.5-0.1c0.4,0,0.7,0.1,0.9,0.4c0.2,0.2,0.4,0.6,0.4,1
		c0,0.5-0.2,1-0.5,1.4c-0.3,0.3-0.7,0.5-1.1,0.5c-0.4,0-0.7-0.1-1-0.4c-0.3-0.3-0.4-0.7-0.4-1.3c0-0.5,0.1-1,0.3-1.5
		c0.1-0.4,0.3-0.7,0.5-1c0.2-0.3,0.4-0.4,0.6-0.6c0.2-0.1,0.5-0.2,0.7-0.2c0.3,0,0.6,0.1,0.8,0.3c0.2,0.2,0.3,0.5,0.4,0.9l-0.6,0.1
		c0-0.3-0.1-0.5-0.2-0.6c-0.1-0.1-0.3-0.2-0.4-0.2c-0.2,0-0.4,0.1-0.5,0.2c-0.2,0.1-0.3,0.3-0.5,0.6C56.3,254.8,56.2,255,56.1,255.3
		z M55.9,256.7c0,0.3,0.1,0.5,0.3,0.7c0.2,0.2,0.4,0.3,0.6,0.3c0.1,0,0.3-0.1,0.5-0.2c0.2-0.1,0.3-0.3,0.4-0.5
		c0.1-0.2,0.2-0.5,0.2-0.7c0-0.3-0.1-0.5-0.2-0.7c-0.2-0.2-0.4-0.3-0.6-0.3c-0.3,0-0.5,0.1-0.7,0.4C56,256,55.9,256.3,55.9,256.7z"
		/>
</g>
<g class="st1">
	<path d="M645.1,179.9c-0.2,0-0.4,0.1-0.6,0.1c-0.2,0-0.4,0-0.6,0c-0.2,0-0.4,0-0.6-0.1c-0.2,0-0.3-0.1-0.4-0.1
		c-0.5-0.2-0.9-0.5-1.3-0.8c-0.3-0.3-0.6-0.6-0.7-0.9s-0.3-0.6-0.4-0.9c-0.1-0.3-0.1-0.6-0.1-1c0-0.4,0-0.7,0.1-1.1
		c0.1-0.4,0.2-0.7,0.4-1c0.2-0.3,0.3-0.6,0.5-0.9c0.2-0.3,0.4-0.5,0.6-0.7c0.2-0.2,0.5-0.5,0.8-0.7s0.6-0.5,0.9-0.7
		c0-0.1,0-0.2,0-0.2c0-0.1,0-0.1,0-0.2s0-0.2,0-0.2c0-0.1,0-0.2,0-0.3c0-0.1,0-0.2,0-0.3c0-0.1,0-0.3,0-0.5c0-0.2,0-0.4,0-0.7
		s0-0.5,0.1-0.8c0-0.2,0.1-0.4,0.2-0.6s0.2-0.5,0.4-0.8c0.2-0.2,0.3-0.5,0.5-0.6s0.3-0.3,0.5-0.3c0.1,0,0.2,0,0.2,0.1
		c0.1,0.1,0.2,0.2,0.3,0.4c0.1,0.2,0.2,0.3,0.2,0.5s0.2,0.4,0.2,0.6c0.1,0.2,0.1,0.4,0.1,0.6c0,0.2,0.1,0.4,0.1,0.5
		c0,0.4,0,0.7,0,0.9c0,0.3-0.1,0.5-0.2,0.7c-0.1,0.2-0.1,0.4-0.2,0.6c-0.1,0.2-0.2,0.4-0.3,0.5c-0.1,0.2-0.2,0.3-0.3,0.5
		c-0.1,0.1-0.2,0.3-0.3,0.4c-0.1,0.1-0.2,0.3-0.4,0.4s-0.3,0.2-0.4,0.3c0.1,0.3,0.1,0.7,0.2,0.9c0,0.1,0,0.2,0.1,0.4
		c0,0.1,0,0.2,0.1,0.3s0,0.2,0,0.2s0,0.1,0,0.1c0.2,0,0.3,0,0.5,0c0.2,0,0.3,0,0.5,0.1c0.2,0,0.3,0.1,0.4,0.1
		c0.1,0.1,0.2,0.1,0.3,0.2c0.4,0.3,0.6,0.6,0.8,0.9s0.2,0.7,0.3,1.1c0,0.3,0,0.6-0.1,0.9s-0.2,0.6-0.3,0.8c-0.2,0.3-0.4,0.5-0.6,0.7
		c-0.3,0.2-0.6,0.4-0.9,0.5c0,0.3,0.1,0.5,0.1,0.8c0,0.2,0.1,0.4,0.1,0.6c0,0.2,0,0.3,0.1,0.4c0.1,0.4,0.1,0.7,0.1,1
		s-0.1,0.5-0.2,0.6c-0.1,0.1-0.2,0.3-0.3,0.4s-0.2,0.2-0.3,0.3c-0.1,0.1-0.3,0.2-0.5,0.3s-0.4,0.1-0.6,0.1c-0.2,0-0.4,0-0.6,0
		s-0.5-0.1-0.7-0.2c-0.2-0.1-0.4-0.3-0.6-0.5c-0.2-0.2-0.3-0.4-0.3-0.7c0-0.2,0-0.3,0-0.5c0-0.2,0.1-0.3,0.2-0.4
		c0.1-0.1,0.2-0.2,0.3-0.3s0.3-0.1,0.5-0.2c0.1,0,0.2,0,0.4,0.1c0.1,0,0.2,0.1,0.3,0.2c0.1,0.1,0.2,0.2,0.3,0.3
		c0.1,0.1,0.1,0.3,0.1,0.4c0,0.2-0.1,0.5-0.2,0.7s-0.5,0.4-0.9,0.5c0.1,0.1,0.2,0.2,0.4,0.3c0.2,0.1,0.4,0.1,0.7,0.1
		c0.3,0,0.6-0.1,0.9-0.3s0.5-0.4,0.6-0.7c0.1-0.2,0.1-0.4,0.1-0.7c0-0.3,0-0.6-0.1-0.8c0,0,0-0.2-0.1-0.3c0-0.2-0.1-0.4-0.1-0.6
		C645.2,180.4,645.2,180.2,645.1,179.9z M643.8,176.1c-0.2,0.1-0.3,0.2-0.4,0.4c-0.1,0.1-0.2,0.3-0.2,0.4s-0.1,0.3,0,0.4
		s0,0.2,0.1,0.4c0,0.1,0.1,0.2,0.2,0.4c0.1,0.1,0.2,0.2,0.3,0.3c0.1,0.1,0.2,0.2,0.3,0.2c0,0,0,0,0,0c0,0,0,0,0,0c0,0,0,0,0,0
		c-0.2-0.1-0.4-0.2-0.6-0.4c-0.2-0.1-0.3-0.2-0.3-0.3c-0.1-0.1-0.1-0.2-0.2-0.3c-0.1-0.1-0.1-0.2-0.1-0.3c0-0.1-0.1-0.2-0.1-0.3
		c0-0.1,0-0.2,0-0.4c0-0.1,0-0.3,0-0.5c0-0.2,0.1-0.3,0.2-0.5c0.1-0.2,0.2-0.3,0.3-0.5c0.1-0.2,0.3-0.3,0.4-0.4
		c0.1-0.1,0.2-0.1,0.2-0.2c0.1,0,0.1-0.1,0.2-0.1c0.1,0,0.1-0.1,0.2-0.1c0.1,0,0.1,0,0.2-0.1l-0.3-1.8c-0.1,0-0.2,0.1-0.4,0.3
		c-0.2,0.1-0.4,0.3-0.6,0.5c-0.2,0.2-0.4,0.4-0.6,0.6s-0.4,0.4-0.5,0.7c-0.2,0.4-0.4,0.7-0.6,1.1c-0.1,0.3-0.2,0.7-0.2,1.1
		c0,0.4,0.2,0.8,0.4,1.2c0.2,0.4,0.5,0.7,0.9,0.9c0.4,0.2,0.8,0.4,1.2,0.5c0.5,0.1,0.9,0.1,1.4,0c-0.1-0.7-0.2-1.3-0.3-1.8
		c0-0.2-0.1-0.4-0.1-0.7c0-0.2-0.1-0.4-0.1-0.6s-0.1-0.4-0.1-0.6C644.2,176,644,176,643.8,176.1z M645.3,167.1
		c-0.3,0-0.5,0.1-0.7,0.4s-0.4,0.6-0.5,0.9c-0.1,0.4-0.2,0.8-0.2,1.2c0,0.5,0,0.9,0,1.3c0.2-0.2,0.5-0.4,0.7-0.6
		c0.2-0.2,0.5-0.5,0.7-0.8c0.2-0.3,0.4-0.5,0.5-0.8c0.1-0.3,0.2-0.5,0.2-0.8c0-0.1,0-0.2,0-0.3c0-0.1-0.1-0.2-0.1-0.3
		c0-0.1-0.1-0.2-0.2-0.2C645.6,167.1,645.5,167.1,645.3,167.1z M645.3,179.5c0.3-0.1,0.5-0.2,0.7-0.4s0.3-0.3,0.4-0.5
		c0.1-0.2,0.1-0.4,0.1-0.6c0-0.2,0-0.4,0-0.5c0-0.1,0-0.3-0.1-0.5c0-0.2-0.1-0.4-0.2-0.5c-0.1-0.2-0.3-0.3-0.5-0.4
		c-0.2-0.1-0.5-0.2-0.9-0.1L645.3,179.5z"/>
</g>
<g class="st1">
	<path d="M645.1,220.4c-0.2,0-0.4,0.1-0.6,0.1c-0.2,0-0.4,0-0.6,0c-0.2,0-0.4,0-0.6-0.1c-0.2,0-0.3-0.1-0.4-0.1
		c-0.5-0.2-0.9-0.5-1.3-0.8c-0.3-0.3-0.6-0.6-0.7-0.9s-0.3-0.6-0.4-0.9c-0.1-0.3-0.1-0.6-0.1-1c0-0.4,0-0.7,0.1-1.1
		c0.1-0.4,0.2-0.7,0.4-1c0.2-0.3,0.3-0.6,0.5-0.9c0.2-0.3,0.4-0.5,0.6-0.7c0.2-0.2,0.5-0.5,0.8-0.7s0.6-0.5,0.9-0.7
		c0-0.1,0-0.2,0-0.2c0-0.1,0-0.1,0-0.2s0-0.2,0-0.2c0-0.1,0-0.2,0-0.3c0-0.1,0-0.2,0-0.3c0-0.1,0-0.3,0-0.5c0-0.2,0-0.4,0-0.7
		s0-0.5,0.1-0.8c0-0.2,0.1-0.4,0.2-0.6s0.2-0.5,0.4-0.8c0.2-0.2,0.3-0.5,0.5-0.6s0.3-0.3,0.5-0.3c0.1,0,0.2,0,0.2,0.1
		c0.1,0.1,0.2,0.2,0.3,0.4c0.1,0.2,0.2,0.3,0.2,0.5s0.2,0.4,0.2,0.6c0.1,0.2,0.1,0.4,0.1,0.6c0,0.2,0.1,0.4,0.1,0.5
		c0,0.4,0,0.7,0,0.9c0,0.3-0.1,0.5-0.2,0.7c-0.1,0.2-0.1,0.4-0.2,0.6c-0.1,0.2-0.2,0.4-0.3,0.5c-0.1,0.2-0.2,0.3-0.3,0.5
		c-0.1,0.1-0.2,0.3-0.3,0.4c-0.1,0.1-0.2,0.3-0.4,0.4s-0.3,0.2-0.4,0.3c0.1,0.3,0.1,0.7,0.2,0.9c0,0.1,0,0.2,0.1,0.4
		c0,0.1,0,0.2,0.1,0.3s0,0.2,0,0.2s0,0.1,0,0.1c0.2,0,0.3,0,0.5,0c0.2,0,0.3,0,0.5,0.1c0.2,0,0.3,0.1,0.4,0.1
		c0.1,0.1,0.2,0.1,0.3,0.2c0.4,0.3,0.6,0.6,0.8,0.9s0.2,0.7,0.3,1.1c0,0.3,0,0.6-0.1,0.9s-0.2,0.6-0.3,0.8c-0.2,0.3-0.4,0.5-0.6,0.7
		c-0.3,0.2-0.6,0.4-0.9,0.5c0,0.3,0.1,0.5,0.1,0.8c0,0.2,0.1,0.4,0.1,0.6c0,0.2,0,0.3,0.1,0.4c0.1,0.4,0.1,0.7,0.1,1
		s-0.1,0.5-0.2,0.6c-0.1,0.1-0.2,0.3-0.3,0.4s-0.2,0.2-0.3,0.3c-0.1,0.1-0.3,0.2-0.5,0.3s-0.4,0.1-0.6,0.1c-0.2,0-0.4,0-0.6,0
		s-0.5-0.1-0.7-0.2c-0.2-0.1-0.4-0.3-0.6-0.5c-0.2-0.2-0.3-0.4-0.3-0.7c0-0.2,0-0.3,0-0.5c0-0.2,0.1-0.3,0.2-0.4
		c0.1-0.1,0.2-0.2,0.3-0.3s0.3-0.1,0.5-0.2c0.1,0,0.2,0,0.4,0.1c0.1,0,0.2,0.1,0.3,0.2c0.1,0.1,0.2,0.2,0.3,0.3
		c0.1,0.1,0.1,0.3,0.1,0.4c0,0.2-0.1,0.5-0.2,0.7s-0.5,0.4-0.9,0.5c0.1,0.1,0.2,0.2,0.4,0.3c0.2,0.1,0.4,0.1,0.7,0.1
		c0.3,0,0.6-0.1,0.9-0.3s0.5-0.4,0.6-0.7c0.1-0.2,0.1-0.4,0.1-0.7c0-0.3,0-0.6-0.1-0.8c0,0,0-0.2-0.1-0.3c0-0.2-0.1-0.4-0.1-0.6
		C645.2,220.9,645.2,220.7,645.1,220.4z M643.8,216.6c-0.2,0.1-0.3,0.2-0.4,0.4c-0.1,0.1-0.2,0.3-0.2,0.4s-0.1,0.3,0,0.4
		s0,0.2,0.1,0.4c0,0.1,0.1,0.2,0.2,0.4c0.1,0.1,0.2,0.2,0.3,0.3c0.1,0.1,0.2,0.2,0.3,0.2c0,0,0,0,0,0c0,0,0,0,0,0c0,0,0,0,0,0
		c-0.2-0.1-0.4-0.2-0.6-0.4c-0.2-0.1-0.3-0.2-0.3-0.3c-0.1-0.1-0.1-0.2-0.2-0.3c-0.1-0.1-0.1-0.2-0.1-0.3c0-0.1-0.1-0.2-0.1-0.3
		c0-0.1,0-0.2,0-0.4c0-0.1,0-0.3,0-0.5c0-0.2,0.1-0.3,0.2-0.5c0.1-0.2,0.2-0.3,0.3-0.5c0.1-0.2,0.3-0.3,0.4-0.4
		c0.1-0.1,0.2-0.1,0.2-0.2c0.1,0,0.1-0.1,0.2-0.1c0.1,0,0.1-0.1,0.2-0.1c0.1,0,0.1,0,0.2-0.1l-0.3-1.8c-0.1,0-0.2,0.1-0.4,0.3
		c-0.2,0.1-0.4,0.3-0.6,0.5c-0.2,0.2-0.4,0.4-0.6,0.6s-0.4,0.4-0.5,0.7c-0.2,0.4-0.4,0.7-0.6,1.1c-0.1,0.3-0.2,0.7-0.2,1.1
		c0,0.4,0.2,0.8,0.4,1.2c0.2,0.4,0.5,0.7,0.9,0.9c0.4,0.2,0.8,0.4,1.2,0.5c0.5,0.1,0.9,0.1,1.4,0c-0.1-0.7-0.2-1.3-0.3-1.8
		c0-0.2-0.1-0.4-0.1-0.7c0-0.2-0.1-0.4-0.1-0.6s-0.1-0.4-0.1-0.6C644.2,216.5,644,216.5,643.8,216.6z M645.3,207.6
		c-0.3,0-0.5,0.1-0.7,0.4s-0.4,0.6-0.5,0.9c-0.1,0.4-0.2,0.8-0.2,1.2c0,0.5,0,0.9,0,1.3c0.2-0.2,0.5-0.4,0.7-0.6
		c0.2-0.2,0.5-0.5,0.7-0.8c0.2-0.3,0.4-0.5,0.5-0.8c0.1-0.3,0.2-0.5,0.2-0.8c0-0.1,0-0.2,0-0.3c0-0.1-0.1-0.2-0.1-0.3
		c0-0.1-0.1-0.2-0.2-0.2C645.6,207.6,645.5,207.6,645.3,207.6z M645.3,220c0.3-0.1,0.5-0.2,0.7-0.4s0.3-0.3,0.4-0.5
		c0.1-0.2,0.1-0.4,0.1-0.6c0-0.2,0-0.4,0-0.5c0-0.1,0-0.3-0.1-0.5c0-0.2-0.1-0.4-0.2-0.5c-0.1-0.2-0.3-0.3-0.5-0.4
		c-0.2-0.1-0.5-0.2-0.9-0.1L645.3,220z"/>
</g>
<g class="st1">
	<path d="M646.4,131.9v0.9c0,0.1,0,0.2,0.1,0.3c0.1,0.1,0.1,0.1,0.2,0.2c0.1,0,0.2,0.1,0.3,0.1v0.4h-2.9v-0.4c0.1,0,0.2,0,0.3-0.1
		c0.1,0,0.2-0.1,0.2-0.1s0.1-0.2,0.1-0.3v-0.9h-2.5l-0.2-0.3c0.3-0.4,0.5-0.7,0.7-1c0.2-0.3,0.3-0.5,0.5-0.8
		c0.1-0.2,0.2-0.5,0.3-0.7s0.2-0.4,0.2-0.6c0.1-0.2,0.1-0.5,0.2-0.7c0-0.3,0.1-0.6,0.2-0.9h2.3c-0.1,0.3-0.3,0.6-0.6,0.9
		c-0.3,0.4-0.6,0.7-1,1.1c-0.4,0.4-0.7,0.8-1.1,1.2c-0.4,0.4-0.7,0.8-1.1,1.2h2.1v-1.7l1.6-1.8v3.5h1v0.4H646.4z"/>
</g>
<g class="st1">
	<path d="M646.4,138.3v0.9c0,0.1,0,0.2,0.1,0.3c0.1,0.1,0.1,0.1,0.2,0.2c0.1,0,0.2,0.1,0.3,0.1v0.4h-2.9v-0.4c0.1,0,0.2,0,0.3-0.1
		c0.1,0,0.2-0.1,0.2-0.1s0.1-0.2,0.1-0.3v-0.9h-2.5l-0.2-0.3c0.3-0.4,0.5-0.7,0.7-1c0.2-0.3,0.3-0.5,0.5-0.8
		c0.1-0.2,0.2-0.5,0.3-0.7s0.2-0.4,0.2-0.6c0.1-0.2,0.1-0.5,0.2-0.7c0-0.3,0.1-0.6,0.2-0.9h2.3c-0.1,0.3-0.3,0.6-0.6,0.9
		c-0.3,0.4-0.6,0.7-1,1.1c-0.4,0.4-0.7,0.8-1.1,1.2c-0.4,0.4-0.7,0.8-1.1,1.2h2.1v-1.7l1.6-1.8v3.5h1v0.4H646.4z"/>
</g>
<g class="st1">
	<path d="M635.7,139.7c-0.2,0-0.4,0.1-0.6,0.1s-0.4,0-0.6,0c-0.2,0-0.4,0-0.6-0.1c-0.2,0-0.3-0.1-0.4-0.1c-0.5-0.2-0.9-0.5-1.3-0.8
		c-0.3-0.3-0.6-0.6-0.7-0.9s-0.3-0.6-0.4-0.9c-0.1-0.3-0.1-0.6-0.1-1c0-0.4,0-0.7,0.1-1.1s0.2-0.7,0.4-1c0.2-0.3,0.3-0.6,0.5-0.9
		c0.2-0.3,0.4-0.5,0.6-0.7c0.2-0.2,0.5-0.5,0.8-0.7s0.6-0.5,0.9-0.7c0-0.1,0-0.2,0-0.2c0-0.1,0-0.1,0-0.2s0-0.2,0-0.2
		c0-0.1,0-0.2,0-0.3c0-0.1,0-0.2,0-0.3c0-0.1,0-0.3,0-0.5c0-0.2,0-0.4,0-0.7s0-0.5,0.1-0.8c0-0.2,0.1-0.4,0.2-0.6
		c0.1-0.3,0.2-0.5,0.4-0.8c0.2-0.2,0.3-0.5,0.5-0.6s0.3-0.3,0.5-0.3c0.1,0,0.2,0,0.2,0.1c0.1,0.1,0.2,0.2,0.3,0.4s0.2,0.3,0.2,0.5
		s0.2,0.4,0.2,0.6c0.1,0.2,0.1,0.4,0.1,0.6c0,0.2,0.1,0.4,0.1,0.5c0,0.4,0,0.7,0,0.9c0,0.3-0.1,0.5-0.2,0.7
		c-0.1,0.2-0.1,0.4-0.2,0.6s-0.2,0.4-0.3,0.5c-0.1,0.2-0.2,0.3-0.3,0.5c-0.1,0.1-0.2,0.3-0.3,0.4c-0.1,0.1-0.2,0.3-0.4,0.4
		s-0.3,0.2-0.4,0.3c0.1,0.3,0.1,0.7,0.2,0.9c0,0.1,0,0.2,0.1,0.4c0,0.1,0,0.2,0.1,0.3s0,0.2,0,0.2s0,0.1,0,0.1c0.2,0,0.3,0,0.5,0
		c0.2,0,0.3,0,0.5,0.1c0.2,0,0.3,0.1,0.4,0.1c0.1,0.1,0.2,0.1,0.3,0.2c0.4,0.3,0.6,0.6,0.8,0.9c0.2,0.3,0.2,0.7,0.3,1.1
		c0,0.3,0,0.6-0.1,0.9s-0.2,0.6-0.3,0.8c-0.2,0.3-0.4,0.5-0.6,0.7c-0.3,0.2-0.6,0.4-0.9,0.5c0,0.3,0.1,0.5,0.1,0.8
		c0,0.2,0.1,0.4,0.1,0.6s0,0.3,0.1,0.4c0.1,0.4,0.1,0.7,0.1,1s-0.1,0.5-0.2,0.6c-0.1,0.1-0.2,0.3-0.3,0.4c-0.1,0.1-0.2,0.2-0.3,0.3
		c-0.1,0.1-0.3,0.2-0.5,0.3c-0.2,0.1-0.4,0.1-0.6,0.1c-0.2,0-0.4,0-0.6,0s-0.5-0.1-0.7-0.2s-0.4-0.3-0.6-0.5
		c-0.2-0.2-0.3-0.4-0.3-0.7c0-0.2,0-0.3,0-0.5c0-0.2,0.1-0.3,0.2-0.4c0.1-0.1,0.2-0.2,0.3-0.3s0.3-0.1,0.5-0.2c0.1,0,0.2,0,0.4,0.1
		s0.2,0.1,0.3,0.2s0.2,0.2,0.3,0.3c0.1,0.1,0.1,0.3,0.1,0.4c0,0.2-0.1,0.5-0.2,0.7s-0.5,0.4-0.9,0.5c0.1,0.1,0.2,0.2,0.4,0.3
		s0.4,0.1,0.7,0.1c0.3,0,0.6-0.1,0.9-0.3s0.5-0.4,0.6-0.7c0.1-0.2,0.1-0.4,0.1-0.7c0-0.3,0-0.6-0.1-0.8c0,0,0-0.2-0.1-0.3
		c0-0.2-0.1-0.4-0.1-0.6C635.8,140.2,635.7,140,635.7,139.7z M634.4,135.9c-0.2,0.1-0.3,0.2-0.4,0.4c-0.1,0.1-0.2,0.3-0.2,0.4
		s-0.1,0.3,0,0.4c0,0.1,0,0.2,0.1,0.4c0,0.1,0.1,0.2,0.2,0.4c0.1,0.1,0.2,0.2,0.3,0.3c0.1,0.1,0.2,0.2,0.3,0.2c0,0,0,0,0,0
		c0,0,0,0,0,0c0,0,0,0,0,0c-0.2-0.1-0.4-0.2-0.6-0.4c-0.2-0.1-0.3-0.2-0.3-0.3c-0.1-0.1-0.1-0.2-0.2-0.3c-0.1-0.1-0.1-0.2-0.1-0.3
		c0-0.1-0.1-0.2-0.1-0.3c0-0.1,0-0.2,0-0.4c0-0.1,0-0.3,0-0.5c0-0.2,0.1-0.3,0.2-0.5s0.2-0.3,0.3-0.5c0.1-0.2,0.3-0.3,0.4-0.4
		c0.1-0.1,0.2-0.1,0.2-0.2c0.1,0,0.1-0.1,0.2-0.1c0.1,0,0.1-0.1,0.2-0.1c0.1,0,0.1,0,0.2-0.1l-0.3-1.8c-0.1,0-0.2,0.1-0.4,0.3
		c-0.2,0.1-0.4,0.3-0.6,0.5c-0.2,0.2-0.4,0.4-0.6,0.6s-0.4,0.4-0.5,0.7c-0.2,0.4-0.4,0.7-0.6,1.1s-0.2,0.7-0.2,1.1
		c0,0.4,0.2,0.8,0.4,1.2c0.2,0.4,0.5,0.7,0.9,0.9c0.4,0.2,0.8,0.4,1.2,0.5c0.5,0.1,0.9,0.1,1.4,0c-0.1-0.7-0.2-1.3-0.3-1.8
		c0-0.2-0.1-0.4-0.1-0.7c0-0.2-0.1-0.4-0.1-0.6s-0.1-0.4-0.1-0.6C634.8,135.8,634.6,135.8,634.4,135.9z M635.9,126.8
		c-0.3,0-0.5,0.1-0.7,0.4s-0.4,0.6-0.5,0.9c-0.1,0.4-0.2,0.8-0.2,1.2c0,0.5,0,0.9,0,1.3c0.2-0.2,0.5-0.4,0.7-0.6
		c0.2-0.2,0.5-0.5,0.7-0.8c0.2-0.3,0.4-0.5,0.5-0.8c0.1-0.3,0.2-0.5,0.2-0.8c0-0.1,0-0.2,0-0.3c0-0.1-0.1-0.2-0.1-0.3
		s-0.1-0.2-0.2-0.2C636.1,126.9,636,126.8,635.9,126.8z M635.9,139.3c0.3-0.1,0.5-0.2,0.7-0.4s0.3-0.3,0.4-0.5
		c0.1-0.2,0.1-0.4,0.1-0.6c0-0.2,0-0.4,0-0.5c0-0.1,0-0.3-0.1-0.5c0-0.2-0.1-0.4-0.2-0.5c-0.1-0.2-0.3-0.3-0.5-0.4
		c-0.2-0.1-0.5-0.2-0.9-0.1L635.9,139.3z"/>
</g>
<g class="st1">
	<path d="M630.5,190.3c-0.2-0.1-0.3-0.2-0.4-0.4c-0.1-0.2-0.1-0.3-0.1-0.5c0-0.3,0.1-0.6,0.3-0.8c0.2-0.2,0.5-0.3,0.9-0.3
		c0.3,0,0.5,0.1,0.7,0.2h0.6c0.1,0,0.1,0,0.2,0c0,0,0,0,0,0c0,0,0,0.1,0,0.1c0,0.1,0,0.1,0,0.1c0,0,0,0,0,0c0,0-0.1,0-0.2,0h-0.4
		c0.1,0.2,0.2,0.4,0.2,0.6c0,0.3-0.1,0.5-0.3,0.7c-0.2,0.2-0.5,0.3-0.9,0.3c-0.1,0-0.3,0-0.5-0.1c-0.1,0.1-0.2,0.2-0.2,0.2
		s-0.1,0.1-0.1,0.2c0,0,0,0.1,0.1,0.1c0,0,0.1,0.1,0.2,0.1c0.1,0,0.2,0,0.5,0c0.5,0,0.7,0,0.9,0c0.2,0,0.4,0.1,0.5,0.2
		s0.2,0.3,0.2,0.5c0,0.2-0.1,0.5-0.3,0.7c-0.3,0.3-0.8,0.5-1.3,0.5c-0.4,0-0.8-0.1-1.1-0.3c-0.2-0.1-0.2-0.2-0.2-0.3
		c0-0.1,0-0.1,0-0.2c0-0.1,0.1-0.2,0.2-0.3c0,0,0.1-0.1,0.3-0.4c-0.1-0.1-0.2-0.1-0.2-0.2c0-0.1-0.1-0.1-0.1-0.2
		c0-0.1,0-0.2,0.1-0.3C630.1,190.6,630.2,190.5,630.5,190.3z M630.4,191.4c-0.1,0.1-0.2,0.2-0.2,0.3s-0.1,0.2-0.1,0.3
		c0,0.1,0.1,0.2,0.2,0.3c0.2,0.1,0.5,0.2,1,0.2c0.4,0,0.7-0.1,0.9-0.2c0.2-0.1,0.3-0.3,0.3-0.4c0-0.1-0.1-0.2-0.2-0.2
		c-0.1,0-0.3-0.1-0.7-0.1C631.1,191.5,630.7,191.4,630.4,191.4z M631,188.5c-0.2,0-0.3,0.1-0.4,0.2c-0.1,0.1-0.2,0.3-0.2,0.6
		c0,0.3,0.1,0.6,0.2,0.8c0.1,0.1,0.3,0.2,0.4,0.2c0.2,0,0.3-0.1,0.4-0.2c0.1-0.1,0.2-0.3,0.2-0.6c0-0.3-0.1-0.6-0.2-0.8
		C631.4,188.5,631.2,188.5,631,188.5z"/>
	<path d="M634.1,188.3v2.4c0,0.2,0,0.3,0,0.4c0,0.1,0.1,0.1,0.1,0.1c0.1,0,0.2,0,0.3,0v0.1h-1.5v-0.1c0.1,0,0.2,0,0.3,0
		c0.1,0,0.1-0.1,0.1-0.1c0-0.1,0-0.2,0-0.4v-1.2c0-0.3,0-0.5,0-0.6c0-0.1,0-0.1-0.1-0.1c0,0-0.1,0-0.1,0c-0.1,0-0.1,0-0.2,0l0-0.1
		l0.9-0.4H634.1z M633.8,186.7c0.1,0,0.2,0,0.2,0.1c0.1,0.1,0.1,0.1,0.1,0.2c0,0.1,0,0.2-0.1,0.2c-0.1,0.1-0.1,0.1-0.2,0.1
		c-0.1,0-0.2,0-0.2-0.1c-0.1-0.1-0.1-0.1-0.1-0.2c0-0.1,0-0.2,0.1-0.2C633.6,186.8,633.7,186.7,633.8,186.7z"/>
	<path d="M635.9,186.7v4c0,0.2,0,0.3,0,0.4c0,0.1,0.1,0.1,0.1,0.1c0.1,0,0.2,0,0.3,0v0.1h-1.5v-0.1c0.1,0,0.2,0,0.3,0
		c0,0,0.1-0.1,0.1-0.1c0-0.1,0-0.2,0-0.4V188c0-0.3,0-0.5,0-0.6c0-0.1,0-0.1-0.1-0.2c0,0-0.1,0-0.1,0c-0.1,0-0.1,0-0.2,0.1l-0.1-0.1
		l0.9-0.4H635.9z"/>
	<path d="M637.7,187.4v1h0.7v0.2h-0.7v2c0,0.2,0,0.3,0.1,0.4c0.1,0.1,0.1,0.1,0.2,0.1c0.1,0,0.1,0,0.2-0.1c0.1,0,0.1-0.1,0.2-0.2
		h0.1c-0.1,0.2-0.2,0.4-0.3,0.5c-0.1,0.1-0.3,0.2-0.4,0.2c-0.1,0-0.2,0-0.3-0.1c-0.1-0.1-0.2-0.1-0.2-0.2c0-0.1-0.1-0.3-0.1-0.5v-2
		h-0.5v-0.1c0.1,0,0.2-0.1,0.4-0.2s0.2-0.3,0.3-0.4c0.1-0.1,0.1-0.2,0.2-0.5H637.7z"/>
</g>
<rect x="632.8" y="121.9" class="st2" width="3.9" height="2.8"/>
<rect x="632.8" y="144.4" class="st2" width="3.9" height="2.8"/>
<rect x="640.8" y="162.2" class="st2" width="3.9" height="2.8"/>
<rect x="640.8" y="184.7" class="st2" width="3.9" height="2.8"/>
<rect x="641.8" y="202.4" class="st2" width="3.9" height="2.8"/>
<rect x="641.8" y="224.9" class="st2" width="3.9" height="2.8"/>
<g class="st1">
	<path d="M667.1,130.6c0.2-0.1,0.4,0,0.6,0s0.3,0.2,0.4,0.4c0.1,0.2,0.1,0.3,0.2,0.5c0,0.2,0,0.4,0,0.5c0.1,0,0.3,0,0.4-0.1
		s0.2-0.1,0.4-0.2c0.1-0.1,0.2-0.2,0.3-0.3c0.1-0.1,0.2-0.2,0.3-0.3l0.2,0.1l-1.5,5.7h-0.5c0.1-0.3,0.2-0.6,0.3-0.9
		c0.1-0.2,0.2-0.5,0.2-0.7c0.1-0.3,0.2-0.5,0.2-0.6c0.1-0.4,0.3-0.7,0.4-1.1s0.2-0.6,0.2-0.8c0.1-0.3,0.1-0.5,0.1-0.7
		c-0.1,0.1-0.2,0.1-0.3,0.2s-0.3,0.2-0.5,0.3c-0.2,0.1-0.3,0.2-0.5,0.2s-0.3,0.1-0.5,0.1c-0.4,0-0.6-0.1-0.8-0.3
		c-0.2-0.2-0.3-0.4-0.4-0.7s0-0.5,0.2-0.8C666.5,130.9,666.7,130.7,667.1,130.6z"/>
</g>
<line class="st0" x1="691.6" y1="136.3" x2="691.6" y2="125"/>
<g class="st1">
	<path d="M687.6,136.9c0.1-0.2,0.2-0.5,0.4-0.7c0.2-0.2,0.4-0.4,0.6-0.5c0.2-0.2,0.5-0.3,0.8-0.4c0.3-0.1,0.6-0.1,0.9-0.1
		s0.5,0,0.8,0.1c0.2,0.1,0.4,0.2,0.5,0.4c0.1,0.2,0.2,0.3,0.2,0.6c0,0.2,0,0.4-0.1,0.7s-0.2,0.5-0.4,0.7c-0.2,0.2-0.4,0.4-0.6,0.6
		c-0.2,0.2-0.5,0.3-0.8,0.4c-0.3,0.1-0.6,0.1-0.8,0.1c-0.3,0-0.5,0-0.7-0.1c-0.2-0.1-0.4-0.2-0.5-0.4s-0.2-0.3-0.2-0.6
		C687.5,137.3,687.5,137.1,687.6,136.9z"/>
</g>
<g class="st1">
	<path d="M685.9,134.2v7.7h-0.4V139l-1.9,0.5v-7.8h0.3v3L685.9,134.2z M684,136v2.1l1.5-0.4v-2.1L684,136z"/>
</g>
<g class="st1">
	<path d="M687.8,141.7v-0.4h3.9v0.4H687.8z"/>
</g>
<line class="st0" x1="738.6" y1="139.7" x2="738.6" y2="128.4"/>
<g class="st1">
	<path d="M734.6,140.2c0.1-0.2,0.2-0.5,0.4-0.7c0.2-0.2,0.4-0.4,0.6-0.5c0.2-0.2,0.5-0.3,0.8-0.4c0.3-0.1,0.6-0.1,0.9-0.1
		s0.5,0,0.8,0.1c0.2,0.1,0.4,0.2,0.5,0.4c0.1,0.2,0.2,0.3,0.2,0.6c0,0.2,0,0.4-0.1,0.7s-0.2,0.5-0.4,0.7c-0.2,0.2-0.4,0.4-0.6,0.6
		c-0.2,0.2-0.5,0.3-0.8,0.4c-0.3,0.1-0.6,0.1-0.8,0.1c-0.3,0-0.5,0-0.8-0.1c-0.2-0.1-0.4-0.2-0.5-0.4s-0.2-0.3-0.2-0.6
		C734.5,140.7,734.5,140.5,734.6,140.2z"/>
</g>
<g class="st1">
	<path d="M732.9,137.6v7.7h-0.4v-2.9l-1.9,0.5v-7.8h0.3v3L732.9,137.6z M731,139.4v2.1l1.5-0.4V139L731,139.4z"/>
</g>
<g class="st1">
	<path d="M781.2,135.1c0,0.4-0.1,0.7-0.3,1.1c-0.1,0.4-0.3,0.8-0.6,1.3c-0.3,0.5-0.6,1-0.9,1.4s-0.6,0.9-0.8,1.2
		c-0.2,0.3-0.4,0.7-0.6,1.1s-0.3,0.8-0.3,1.2h-0.3v-3.6h0.3c0.1,0,0.3,0,0.4-0.1c0.1,0,0.3-0.1,0.4-0.2c0.2-0.1,0.3-0.2,0.5-0.3
		c0.1-0.1,0.2-0.2,0.4-0.3c0.1-0.1,0.3-0.3,0.5-0.5c0.2-0.2,0.3-0.5,0.5-0.7c0.1-0.3,0.3-0.6,0.4-0.9c0.1-0.4,0.2-0.7,0.2-1
		c0-0.3,0-0.6,0-1c0-0.2,0-0.4-0.1-0.6c0-0.2-0.1-0.4-0.2-0.6c-0.1-0.2-0.1-0.4-0.2-0.6s-0.1-0.4-0.2-0.5l0.1-0.1
		c0.1,0.2,0.2,0.4,0.3,0.7s0.2,0.6,0.3,0.9c0.1,0.3,0.1,0.7,0.1,1.1S781.2,134.7,781.2,135.1z"/>
</g>
<line class="st0" x1="777.6" y1="130.7" x2="777.6" y2="141.9"/>
<g class="st1">
	<path d="M777.5,130.1c0.1-0.2,0.2-0.5,0.4-0.7s0.4-0.4,0.6-0.5s0.5-0.3,0.8-0.4c0.3-0.1,0.6-0.1,0.9-0.1s0.5,0,0.8,0.1
		c0.2,0.1,0.4,0.2,0.5,0.4c0.1,0.2,0.2,0.3,0.2,0.6c0,0.2,0,0.4-0.1,0.7s-0.2,0.5-0.4,0.7c-0.2,0.2-0.4,0.4-0.6,0.6
		s-0.5,0.3-0.8,0.4c-0.3,0.1-0.6,0.1-0.8,0.1c-0.3,0-0.5,0-0.8-0.1c-0.2-0.1-0.4-0.2-0.5-0.4c-0.1-0.2-0.2-0.3-0.2-0.6
		C777.4,130.6,777.4,130.3,777.5,130.1z"/>
</g>
<g class="st1">
	<path d="M773.6,128v-2.2h0.4v2.1l1.3-0.4v-2h0.4v1.8l0.5-0.2v1.4l-0.5,0.2v2l0.5-0.2v1.4l-0.5,0.2v2.2h-0.4v-2.1l-1.3,0.4v2h-0.4
		v-1.9L773,133v-1.4l0.6-0.2v-2l-0.6,0.2v-1.4L773.6,128z M774,129.3v2l1.3-0.4v-2L774,129.3z"/>
</g>
<line class="st0" x1="798.9" y1="127.3" x2="798.9" y2="138.5"/>
<g class="st1">
	<path d="M798.9,126.7c0.1-0.2,0.2-0.5,0.4-0.7s0.4-0.4,0.6-0.5s0.5-0.3,0.8-0.4c0.3-0.1,0.6-0.1,0.9-0.1c0.3,0,0.5,0,0.8,0.1
		c0.2,0.1,0.4,0.2,0.5,0.4c0.1,0.2,0.2,0.3,0.2,0.6c0,0.2,0,0.4-0.1,0.7s-0.2,0.5-0.4,0.7c-0.2,0.2-0.4,0.4-0.6,0.6
		c-0.2,0.2-0.5,0.3-0.8,0.4c-0.3,0.1-0.6,0.1-0.8,0.1c-0.3,0-0.5,0-0.7-0.1c-0.2-0.1-0.4-0.2-0.5-0.4c-0.1-0.2-0.2-0.3-0.2-0.6
		C798.7,127.2,798.8,127,798.9,126.7z"/>
</g>
<g class="st1">
	<path d="M795,124.6v-2.2h0.4v2.1l1.3-0.4v-2h0.4v1.8l0.5-0.2v1.4l-0.5,0.2v2l0.5-0.2v1.4l-0.5,0.2v2.2h-0.4v-2.1l-1.3,0.4v2H795
		v-1.9l-0.6,0.2v-1.4l0.6-0.2v-2l-0.6,0.2v-1.4L795,124.6z M795.4,125.9v2l1.3-0.4v-2L795.4,125.9z"/>
</g>
<g class="st1">
	<path d="M799,122.7v-0.4h3.9v0.4H799z"/>
</g>
<g class="st1">
	<path d="M690.5,113.5v0.1c-0.1,0-0.2,0-0.3,0.1c-0.1,0-0.1,0.1-0.2,0.2c0,0.1-0.1,0.3-0.2,0.6l-1.2,3.6h-0.1l-1-2.9l-1,2.9h-0.1
		l-1.3-3.7c-0.1-0.3-0.2-0.4-0.2-0.5c0-0.1-0.1-0.1-0.2-0.2c-0.1,0-0.2-0.1-0.3-0.1v-0.1h1.7v0.1h-0.1c-0.1,0-0.2,0-0.3,0.1
		s-0.1,0.1-0.1,0.2c0,0.1,0,0.3,0.1,0.5l0.9,2.5l0.7-2.1l-0.1-0.4l-0.1-0.3c0-0.1-0.1-0.2-0.2-0.3c0,0-0.1-0.1-0.1-0.1
		c-0.1,0-0.1-0.1-0.2-0.1c0,0-0.1,0-0.2,0v-0.1h1.7v0.1H688c-0.1,0-0.2,0-0.3,0.1c-0.1,0.1-0.1,0.1-0.1,0.2c0,0.1,0,0.3,0.1,0.6
		l0.9,2.4l0.9-2.5c0.1-0.3,0.1-0.5,0.1-0.6c0,0,0-0.1,0-0.1c0,0-0.1-0.1-0.1-0.1c-0.1,0-0.2,0-0.3,0v-0.1H690.5z"/>
</g>
<g class="st1">
	<path d="M691.5,114.9v2.4c0,0.2,0,0.3,0,0.4c0,0.1,0.1,0.1,0.1,0.1c0.1,0,0.2,0,0.3,0v0.1h-1.5v-0.1c0.1,0,0.2,0,0.3,0
		c0.1,0,0.1-0.1,0.1-0.1c0-0.1,0-0.2,0-0.4v-1.2c0-0.3,0-0.5,0-0.6c0-0.1,0-0.1-0.1-0.1c0,0-0.1,0-0.1,0c-0.1,0-0.1,0-0.2,0l0-0.1
		l0.9-0.4H691.5z M691.3,113.3c0.1,0,0.2,0,0.2,0.1c0.1,0.1,0.1,0.1,0.1,0.2c0,0.1,0,0.2-0.1,0.2c-0.1,0.1-0.1,0.1-0.2,0.1
		c-0.1,0-0.2,0-0.2-0.1c-0.1-0.1-0.1-0.1-0.1-0.2c0-0.1,0-0.2,0.1-0.2C691.1,113.3,691.2,113.3,691.3,113.3z"/>
	<path d="M692.9,116.1c0,0.4,0.1,0.8,0.3,1.1s0.5,0.4,0.8,0.4c0.2,0,0.4-0.1,0.5-0.2c0.1-0.1,0.3-0.3,0.4-0.6l0.1,0.1
		c0,0.3-0.2,0.6-0.4,0.8c-0.2,0.2-0.5,0.4-0.8,0.4c-0.4,0-0.7-0.1-0.9-0.4c-0.3-0.3-0.4-0.7-0.4-1.1c0-0.5,0.1-0.9,0.4-1.2
		c0.3-0.3,0.6-0.4,1-0.4c0.3,0,0.6,0.1,0.8,0.3c0.2,0.2,0.3,0.5,0.3,0.9H692.9z M692.9,115.9h1.4c0-0.2,0-0.3-0.1-0.4
		c-0.1-0.1-0.1-0.2-0.2-0.3c-0.1-0.1-0.2-0.1-0.3-0.1c-0.2,0-0.3,0.1-0.5,0.2C693,115.5,692.9,115.7,692.9,115.9z"/>
</g>
<g class="st1">
	<path d="M733.4,115.5c0.3-0.4,0.6-0.6,0.9-0.6c0.3,0,0.6,0.1,0.8,0.4s0.3,0.6,0.3,1.1c0,0.5-0.2,1-0.5,1.3c-0.3,0.3-0.6,0.4-1,0.4
		c-0.2,0-0.4,0-0.5-0.1c-0.2-0.1-0.4-0.2-0.6-0.3v-3.1c0-0.3,0-0.6,0-0.6s0-0.1-0.1-0.2s-0.1,0-0.1,0c-0.1,0-0.1,0-0.2,0.1l0-0.1
		l0.9-0.4h0.1V115.5z M733.4,115.7v1.8c0.1,0.1,0.2,0.2,0.3,0.2s0.2,0.1,0.4,0.1c0.2,0,0.4-0.1,0.6-0.3c0.2-0.2,0.3-0.5,0.3-1
		c0-0.4-0.1-0.7-0.3-0.9c-0.2-0.2-0.4-0.3-0.6-0.3c-0.1,0-0.2,0-0.3,0.1C733.6,115.5,733.5,115.6,733.4,115.7z"/>
	<path d="M737,114.9v2.4c0,0.2,0,0.3,0,0.4c0,0.1,0.1,0.1,0.1,0.1c0.1,0,0.2,0,0.3,0v0.1h-1.5v-0.1c0.1,0,0.2,0,0.3,0
		c0.1,0,0.1-0.1,0.1-0.1c0-0.1,0-0.2,0-0.4v-1.2c0-0.3,0-0.5,0-0.6c0-0.1,0-0.1-0.1-0.1c0,0-0.1,0-0.1,0c-0.1,0-0.1,0-0.2,0l0-0.1
		l0.9-0.4H737z M736.7,113.3c0.1,0,0.2,0,0.2,0.1c0.1,0.1,0.1,0.1,0.1,0.2c0,0.1,0,0.2-0.1,0.2c-0.1,0.1-0.1,0.1-0.2,0.1
		c-0.1,0-0.2,0-0.2-0.1c-0.1-0.1-0.1-0.1-0.1-0.2c0-0.1,0-0.2,0.1-0.2C736.5,113.3,736.6,113.3,736.7,113.3z"/>
	<path d="M738.7,115.5c0.4-0.4,0.7-0.6,1-0.6c0.2,0,0.3,0,0.4,0.1c0.1,0.1,0.2,0.2,0.3,0.4c0,0.1,0.1,0.3,0.1,0.6v1.3
		c0,0.2,0,0.3,0,0.4c0,0.1,0.1,0.1,0.1,0.1c0.1,0,0.2,0,0.3,0v0.1h-1.5v-0.1h0.1c0.1,0,0.2,0,0.3-0.1c0.1,0,0.1-0.1,0.1-0.2
		c0,0,0-0.1,0-0.3v-1.2c0-0.3,0-0.5-0.1-0.6s-0.2-0.2-0.4-0.2c-0.3,0-0.5,0.1-0.8,0.4v1.6c0,0.2,0,0.3,0,0.4c0,0.1,0.1,0.1,0.1,0.1
		c0.1,0,0.2,0,0.3,0v0.1h-1.5v-0.1h0.1c0.2,0,0.3,0,0.3-0.1s0.1-0.2,0.1-0.4v-1.1c0-0.4,0-0.6,0-0.7c0-0.1,0-0.1-0.1-0.2
		c0,0-0.1,0-0.1,0c-0.1,0-0.1,0-0.2,0l0-0.1l0.9-0.4h0.1V115.5z"/>
</g>
<g class="st1">
	<path d="M776.7,114.9v2.4c0,0.2,0,0.3,0,0.4c0,0.1,0.1,0.1,0.1,0.1c0.1,0,0.2,0,0.3,0v0.1h-1.5v-0.1c0.1,0,0.2,0,0.3,0
		c0.1,0,0.1-0.1,0.1-0.1c0-0.1,0-0.2,0-0.4v-1.2c0-0.3,0-0.5,0-0.6c0-0.1,0-0.1-0.1-0.1c0,0-0.1,0-0.1,0c-0.1,0-0.1,0-0.2,0l0-0.1
		l0.9-0.4H776.7z M776.4,113.3c0.1,0,0.2,0,0.2,0.1c0.1,0.1,0.1,0.1,0.1,0.2c0,0.1,0,0.2-0.1,0.2c-0.1,0.1-0.1,0.1-0.2,0.1
		c-0.1,0-0.2,0-0.2-0.1c-0.1-0.1-0.1-0.1-0.1-0.2c0-0.1,0-0.2,0.1-0.2C776.2,113.3,776.3,113.3,776.4,113.3z"/>
	<path d="M780.1,116.9c-0.1,0.4-0.2,0.7-0.5,0.9c-0.2,0.2-0.5,0.3-0.8,0.3c-0.3,0-0.6-0.1-0.9-0.4c-0.3-0.3-0.4-0.7-0.4-1.2
		c0-0.5,0.1-0.9,0.4-1.2s0.6-0.4,1-0.4c0.3,0,0.5,0.1,0.7,0.2c0.2,0.2,0.3,0.3,0.3,0.5c0,0.1,0,0.2-0.1,0.2
		c-0.1,0.1-0.1,0.1-0.2,0.1c-0.1,0-0.2,0-0.3-0.1c0,0-0.1-0.1-0.1-0.3c0-0.1-0.1-0.2-0.1-0.3c-0.1-0.1-0.2-0.1-0.3-0.1
		c-0.2,0-0.4,0.1-0.5,0.2c-0.2,0.2-0.3,0.5-0.3,0.9c0,0.4,0.1,0.7,0.3,1c0.2,0.3,0.4,0.4,0.7,0.4c0.2,0,0.4-0.1,0.6-0.2
		C779.7,117.3,779.9,117.1,780.1,116.9L780.1,116.9z"/>
	<path d="M781.4,113.3v2.2c0.2-0.3,0.4-0.4,0.6-0.5c0.1-0.1,0.3-0.1,0.4-0.1c0.2,0,0.3,0,0.4,0.1c0.1,0.1,0.2,0.2,0.3,0.4
		c0,0.1,0.1,0.4,0.1,0.8v1.1c0,0.2,0,0.3,0,0.4c0,0.1,0.1,0.1,0.1,0.1c0.1,0,0.1,0,0.3,0v0.1h-1.5v-0.1h0.1c0.1,0,0.2,0,0.3-0.1
		c0.1,0,0.1-0.1,0.1-0.2c0,0,0-0.1,0-0.3v-1.1c0-0.3,0-0.5-0.1-0.6s-0.1-0.2-0.2-0.2c-0.1-0.1-0.2-0.1-0.3-0.1c-0.1,0-0.2,0-0.3,0.1
		c-0.1,0.1-0.3,0.2-0.4,0.3v1.6c0,0.2,0,0.3,0,0.4c0,0.1,0.1,0.1,0.1,0.1s0.2,0.1,0.3,0.1v0.1h-1.5v-0.1c0.1,0,0.2,0,0.3-0.1
		c0,0,0.1-0.1,0.1-0.1s0-0.2,0-0.4v-2.7c0-0.3,0-0.6,0-0.6s0-0.1-0.1-0.2c0,0-0.1,0-0.1,0c0,0-0.1,0-0.2,0.1l0-0.1l0.9-0.4H781.4z"
		/>
</g>
<g class="st1">
	<path d="M795.6,115.2v2c0,0.3,0,0.5,0.1,0.5c0.1,0.1,0.2,0.1,0.3,0.1h0.3v0.1h-1.8v-0.1h0.1c0.1,0,0.2,0,0.2-0.1
		c0.1,0,0.1-0.1,0.2-0.2c0-0.1,0-0.2,0-0.4v-2h-0.6V115h0.6v-0.2c0-0.3,0-0.6,0.1-0.8s0.2-0.4,0.4-0.5c0.2-0.1,0.4-0.2,0.7-0.2
		c0.2,0,0.4,0.1,0.6,0.2c0.1,0.1,0.2,0.2,0.2,0.3c0,0.1,0,0.1-0.1,0.2c-0.1,0.1-0.1,0.1-0.2,0.1c-0.1,0-0.1,0-0.2-0.1
		s-0.1-0.1-0.2-0.2c-0.1-0.1-0.2-0.2-0.2-0.2c-0.1,0-0.1-0.1-0.2-0.1c-0.1,0-0.2,0-0.3,0.1c-0.1,0.1-0.1,0.1-0.2,0.3
		c0,0.1,0,0.4,0,0.9v0.2h0.8v0.2H795.6z"/>
	<path d="M797.5,114.9v0.7c0.3-0.5,0.5-0.7,0.8-0.7c0.1,0,0.2,0,0.3,0.1c0.1,0.1,0.1,0.2,0.1,0.3c0,0.1,0,0.2-0.1,0.2
		c-0.1,0.1-0.1,0.1-0.2,0.1c-0.1,0-0.2,0-0.3-0.1c-0.1-0.1-0.2-0.1-0.2-0.1c0,0-0.1,0-0.1,0.1c-0.1,0.1-0.2,0.2-0.3,0.4v1.4
		c0,0.2,0,0.3,0.1,0.4c0,0.1,0.1,0.1,0.2,0.1c0.1,0,0.2,0.1,0.3,0.1v0.1h-1.5v-0.1c0.2,0,0.3,0,0.3-0.1c0.1,0,0.1-0.1,0.1-0.2
		c0,0,0-0.1,0-0.3v-1.2c0-0.4,0-0.6,0-0.6c0-0.1,0-0.1-0.1-0.1c0,0-0.1,0-0.1,0c-0.1,0-0.1,0-0.2,0l0-0.1l0.9-0.4H797.5z"/>
	<path d="M800.3,114.9c0.5,0,0.8,0.2,1.1,0.5c0.2,0.3,0.4,0.6,0.4,1c0,0.3-0.1,0.5-0.2,0.8c-0.1,0.3-0.3,0.5-0.5,0.6
		c-0.2,0.1-0.5,0.2-0.8,0.2c-0.5,0-0.8-0.2-1.1-0.5c-0.2-0.3-0.3-0.6-0.3-1c0-0.3,0.1-0.6,0.2-0.8s0.3-0.5,0.5-0.6
		C799.9,115,800.1,114.9,800.3,114.9z M800.2,115.1c-0.1,0-0.2,0-0.4,0.1c-0.1,0.1-0.2,0.2-0.3,0.4s-0.1,0.4-0.1,0.7
		c0,0.4,0.1,0.8,0.3,1.1c0.2,0.3,0.4,0.5,0.7,0.5c0.2,0,0.4-0.1,0.5-0.3s0.2-0.5,0.2-0.9c0-0.5-0.1-1-0.3-1.3
		C800.7,115.2,800.5,115.1,800.2,115.1z"/>
	<path d="M803.1,113.3v2.2c0.2-0.3,0.4-0.4,0.6-0.5c0.1-0.1,0.3-0.1,0.4-0.1c0.2,0,0.3,0,0.4,0.1c0.1,0.1,0.2,0.2,0.3,0.4
		c0,0.1,0.1,0.4,0.1,0.8v1.1c0,0.2,0,0.3,0,0.4c0,0.1,0.1,0.1,0.1,0.1c0.1,0,0.1,0,0.3,0v0.1h-1.5v-0.1h0.1c0.1,0,0.2,0,0.3-0.1
		s0.1-0.1,0.1-0.2c0,0,0-0.1,0-0.3v-1.1c0-0.3,0-0.5-0.1-0.6s-0.1-0.2-0.2-0.2c-0.1-0.1-0.2-0.1-0.3-0.1c-0.1,0-0.2,0-0.3,0.1
		c-0.1,0.1-0.3,0.2-0.4,0.3v1.6c0,0.2,0,0.3,0,0.4c0,0.1,0.1,0.1,0.1,0.1s0.2,0.1,0.3,0.1v0.1h-1.5v-0.1c0.1,0,0.2,0,0.3-0.1
		c0,0,0.1-0.1,0.1-0.1s0-0.2,0-0.4v-2.7c0-0.3,0-0.6,0-0.6c0-0.1,0-0.1-0.1-0.2s-0.1,0-0.1,0c0,0-0.1,0-0.2,0.1l0-0.1l0.9-0.4H803.1
		z"/>
	<path d="M806.6,116.8h-0.1l-0.3-2.7c0-0.1,0-0.2,0-0.3c0-0.1,0-0.2,0.1-0.3c0.1-0.1,0.2-0.1,0.3-0.1c0.1,0,0.2,0,0.3,0.1
		c0.1,0.1,0.1,0.2,0.1,0.4c0,0.1,0,0.1,0,0.2L806.6,116.8z M806.5,117.4c0.1,0,0.2,0,0.3,0.1s0.1,0.2,0.1,0.3c0,0.1,0,0.2-0.1,0.3
		s-0.2,0.1-0.3,0.1c-0.1,0-0.2,0-0.3-0.1s-0.1-0.2-0.1-0.3c0-0.1,0-0.2,0.1-0.3S806.4,117.4,806.5,117.4z"/>
</g>
<g class="st1">
	<path d="M669,176.7c-0.2,0-0.3-0.1-0.5-0.1c-0.3,0-0.5,0.1-0.7,0.3s-0.3,0.4-0.3,0.7c0,0.1,0,0.2,0.1,0.3s0.1,0.2,0.2,0.4
		c0.1,0.1,0.2,0.3,0.4,0.4l-0.2,0.1c-0.3-0.2-0.6-0.4-0.8-0.6c-0.2-0.2-0.4-0.4-0.6-0.6s-0.3-0.5-0.3-0.7c0-0.2,0-0.3,0-0.5
		c0-0.2,0.1-0.3,0.2-0.4c0.1-0.1,0.2-0.2,0.4-0.3s0.3-0.1,0.5-0.1c0.1,0,0.2,0,0.3,0s0.2,0,0.3,0c0.1,0,0.2,0,0.3,0
		c0.1,0,0.2,0,0.2,0c-0.6-0.6-1.1-1.2-1.5-1.6s-0.5-0.7-0.4-0.8c0.1-0.1,0.2-0.2,0.3-0.4c0.1-0.2,0.3-0.4,0.4-0.6
		c0.1-0.2,0.2-0.5,0.3-0.7c0.1-0.3,0.1-0.5,0.1-0.7c0-0.2,0-0.3-0.1-0.6c-0.1-0.2-0.2-0.5-0.3-0.7c-0.1-0.2-0.3-0.5-0.5-0.8l0.2-0.1
		l2.5,3.1c-0.2,0.3-0.4,0.5-0.6,0.8c-0.2,0.2-0.3,0.5-0.4,0.8s-0.2,0.5-0.2,0.8c0,0.2,0,0.3,0.1,0.5c0,0.2,0.1,0.3,0.2,0.4
		s0.2,0.3,0.2,0.4c0.1,0.1,0.2,0.2,0.2,0.3c0,0.1,0.1,0.1,0.2,0.2c0.1,0.1,0.2,0.2,0.2,0.3c0.1,0.1,0.1,0.2,0.2,0.2
		c0.1,0.1,0.1,0.1,0.1,0.1l0,0.2C669.4,176.8,669.2,176.7,669,176.7z"/>
</g>
<g class="st1">
	<path d="M704.9,177.4c0.1-0.2,0.2-0.5,0.4-0.7s0.4-0.4,0.6-0.5s0.5-0.3,0.8-0.4c0.3-0.1,0.6-0.1,0.9-0.1s0.5,0,0.8,0.1
		c0.2,0.1,0.4,0.2,0.5,0.4c0.1,0.2,0.2,0.3,0.2,0.6c0,0.2,0,0.4-0.1,0.7s-0.2,0.5-0.4,0.7c-0.2,0.2-0.4,0.4-0.6,0.6
		s-0.5,0.3-0.8,0.4c-0.3,0.1-0.6,0.1-0.8,0.1c-0.3,0-0.5,0-0.8-0.1c-0.2-0.1-0.4-0.2-0.5-0.4c-0.1-0.2-0.2-0.3-0.2-0.6
		C704.8,177.8,704.8,177.6,704.9,177.4z"/>
</g>
<g class="st1">
	<path d="M703.2,174.7v7.7h-0.4v-2.9L701,180v-7.8h0.3v3L703.2,174.7z M701.3,176.5v2.1l1.5-0.4v-2.1L701.3,176.5z"/>
</g>
<line class="st0" x1="708.9" y1="176.8" x2="708.9" y2="159.6"/>
<g class="st1">
	<path d="M714.8,180.7c0.1-0.2,0.2-0.5,0.4-0.7s0.4-0.4,0.6-0.5c0.2-0.2,0.5-0.3,0.8-0.4c0.3-0.1,0.6-0.1,0.9-0.1s0.5,0,0.8,0.1
		c0.2,0.1,0.4,0.2,0.5,0.4c0.1,0.2,0.2,0.3,0.2,0.6c0,0.2,0,0.4-0.1,0.7s-0.2,0.5-0.4,0.7c-0.2,0.2-0.4,0.4-0.6,0.6
		s-0.5,0.3-0.8,0.4c-0.3,0.1-0.6,0.1-0.8,0.1c-0.3,0-0.5,0-0.7-0.1c-0.2-0.1-0.4-0.2-0.5-0.4c-0.1-0.2-0.2-0.3-0.2-0.6
		C714.6,181.2,714.7,181,714.8,180.7z"/>
</g>
<g class="st1">
	<path d="M713.1,178.1v7.7h-0.4v-2.9l-1.9,0.5v-7.8h0.3v3L713.1,178.1z M711.2,179.9v2.1l1.5-0.4v-2.1L711.2,179.9z"/>
</g>
<line class="st0" x1="718.8" y1="180.2" x2="718.8" y2="158.8"/>
<g class="st1">
	<path d="M724.7,170.6c0.1-0.2,0.2-0.5,0.4-0.7s0.4-0.4,0.6-0.5s0.5-0.3,0.8-0.4c0.3-0.1,0.6-0.1,0.9-0.1s0.5,0,0.8,0.1
		c0.2,0.1,0.4,0.2,0.5,0.4c0.1,0.2,0.2,0.3,0.2,0.6c0,0.2,0,0.4-0.1,0.7s-0.2,0.5-0.4,0.7c-0.2,0.2-0.4,0.4-0.6,0.6
		s-0.5,0.3-0.8,0.4c-0.3,0.1-0.6,0.1-0.8,0.1c-0.3,0-0.5,0-0.8-0.1c-0.2-0.1-0.4-0.2-0.5-0.4c-0.1-0.2-0.2-0.3-0.2-0.6
		C724.6,171.1,724.7,170.9,724.7,170.6z"/>
</g>
<line class="st0" x1="728.7" y1="170.3" x2="728.7" y2="157.9"/>
<path d="M708.7,158.8l20.2-1.7v1.7l-20.2,1.7V158.8z"/>
<path d="M708.7,161.3l20.2-1.7v1.7l-20.2,1.7V161.3z"/>
<g class="st1">
	<path d="M734.6,207.7c0.1-0.2,0.2-0.5,0.4-0.7c0.2-0.2,0.4-0.4,0.6-0.5c0.2-0.2,0.5-0.3,0.8-0.4c0.3-0.1,0.6-0.1,0.9-0.1
		s0.5,0,0.8,0.1c0.2,0.1,0.4,0.2,0.5,0.4c0.1,0.2,0.2,0.3,0.2,0.6c0,0.2,0,0.4-0.1,0.7s-0.2,0.5-0.4,0.7c-0.2,0.2-0.4,0.4-0.6,0.6
		c-0.2,0.2-0.5,0.3-0.8,0.4c-0.3,0.1-0.6,0.1-0.8,0.1c-0.3,0-0.5,0-0.8-0.1c-0.2-0.1-0.4-0.2-0.5-0.4s-0.2-0.3-0.2-0.6
		C734.5,208.2,734.5,208,734.6,207.7z"/>
</g>
<g class="st1">
	<path d="M730.7,205.6v-2.2h0.4v2.1l1.3-0.4v-2h0.4v1.8l0.5-0.2v1.4l-0.5,0.2v2l0.5-0.2v1.4l-0.5,0.2v2.2h-0.4v-2.1l-1.3,0.4v2h-0.4
		v-1.9l-0.6,0.2v-1.4l0.6-0.2v-2l-0.6,0.2v-1.4L730.7,205.6z M731.1,206.9v2l1.3-0.4v-2L731.1,206.9z"/>
</g>
<line class="st0" x1="738.6" y1="207.2" x2="738.6" y2="195.3"/>
<g class="st1">
	<path d="M736.4,212.2c0-0.2,0.1-0.3,0.2-0.5c0.1-0.1,0.3-0.2,0.5-0.2s0.4,0.1,0.5,0.2c0.1,0.1,0.2,0.3,0.2,0.5
		c0,0.2-0.1,0.4-0.2,0.5c-0.1,0.1-0.3,0.2-0.5,0.2s-0.4-0.1-0.5-0.2C736.5,212.6,736.4,212.4,736.4,212.2z"/>
</g>
<g class="st1">
	<path d="M756,172.3c0.1-0.2,0.2-0.5,0.4-0.7s0.4-0.4,0.6-0.5c0.2-0.2,0.5-0.3,0.8-0.4c0.3-0.1,0.6-0.1,0.9-0.1s0.5,0,0.8,0.1
		c0.2,0.1,0.4,0.2,0.5,0.4c0.1,0.2,0.2,0.3,0.2,0.6c0,0.2,0,0.4-0.1,0.7s-0.2,0.5-0.4,0.7c-0.2,0.2-0.4,0.4-0.6,0.6
		s-0.5,0.3-0.8,0.4c-0.3,0.1-0.6,0.1-0.8,0.1c-0.3,0-0.5,0-0.7-0.1c-0.2-0.1-0.4-0.2-0.5-0.4c-0.1-0.2-0.2-0.3-0.2-0.6
		C755.8,172.8,755.9,172.5,756,172.3z"/>
</g>
<g class="st1">
	<path d="M752.1,170.2V168h0.4v2.1l1.3-0.4v-2h0.4v1.8l0.5-0.2v1.4l-0.5,0.2v2l0.5-0.2v1.4l-0.5,0.2v2.2h-0.4v-2.1l-1.3,0.4v2h-0.4
		V175l-0.6,0.2v-1.4l0.6-0.2v-2l-0.6,0.2v-1.4L752.1,170.2z M752.5,171.4v2l1.3-0.4v-2L752.5,171.4z"/>
</g>
<line class="st0" x1="756.1" y1="172.8" x2="756.1" y2="188"/>
<g class="st1">
	<path d="M757.3,169.2c0-0.2,0.1-0.3,0.2-0.5c0.1-0.1,0.3-0.2,0.5-0.2c0.2,0,0.4,0.1,0.5,0.2c0.1,0.1,0.2,0.3,0.2,0.5
		c0,0.2-0.1,0.4-0.2,0.5s-0.3,0.2-0.5,0.2c-0.2,0-0.4-0.1-0.5-0.2S757.3,169.4,757.3,169.2z"/>
</g>
<path d="M738.4,194.5l17.9-7.3v1.7l-17.9,7.3V194.5z"/>
<line class="st0" x1="781.5" y1="185.2" x2="781.5" y2="162.2"/>
<g class="st1">
	<path d="M777.5,174c0.1-0.2,0.2-0.5,0.4-0.7s0.4-0.4,0.6-0.5s0.5-0.3,0.8-0.4c0.3-0.1,0.6-0.1,0.9-0.1s0.5,0,0.8,0.1
		c0.2,0.1,0.4,0.2,0.5,0.4c0.1,0.2,0.2,0.3,0.2,0.6c0,0.2,0,0.4-0.1,0.7s-0.2,0.5-0.4,0.7c-0.2,0.2-0.4,0.4-0.6,0.6
		s-0.5,0.3-0.8,0.4c-0.3,0.1-0.6,0.1-0.8,0.1c-0.3,0-0.5,0-0.8-0.1c-0.2-0.1-0.4-0.2-0.5-0.4c-0.1-0.2-0.2-0.3-0.2-0.6
		C777.4,174.5,777.4,174.2,777.5,174z"/>
</g>
<line class="st3" x1="776.5" y1="184.1" x2="782.6" y2="184.1"/>
<g class="st1">
	<path d="M777.5,185.8c0.1-0.2,0.2-0.5,0.4-0.7s0.4-0.4,0.6-0.5s0.5-0.3,0.8-0.4c0.3-0.1,0.6-0.1,0.9-0.1s0.5,0,0.8,0.1
		c0.2,0.1,0.4,0.2,0.5,0.4c0.1,0.2,0.2,0.3,0.2,0.6c0,0.2,0,0.4-0.1,0.7s-0.2,0.5-0.4,0.7c-0.2,0.2-0.4,0.4-0.6,0.6
		s-0.5,0.3-0.8,0.4c-0.3,0.1-0.6,0.1-0.8,0.1c-0.3,0-0.5,0-0.8-0.1c-0.2-0.1-0.4-0.2-0.5-0.4c-0.1-0.2-0.2-0.3-0.2-0.6
		C777.4,186.3,777.4,186,777.5,185.8z"/>
</g>
<g class="st1">
	<path d="M775.8,183.1v7.7h-0.4V188l-1.9,0.5v-7.8h0.3v3L775.8,183.1z M773.9,184.9v2.1l1.5-0.4v-2.1L773.9,184.9z"/>
</g>
<g class="st1">
	<path d="M773.8,169.2v2.4v0.9c0.1-0.1,0.2-0.2,0.4-0.3c0.1-0.1,0.2-0.1,0.3-0.2c0.1,0,0.2-0.1,0.3-0.1c0.1,0,0.2,0,0.4,0
		c0.2,0,0.3,0,0.5,0.1c0.1,0.1,0.3,0.2,0.4,0.3c0.1,0.1,0.2,0.2,0.2,0.4c0.1,0.1,0.1,0.3,0.1,0.4c0,0.1,0,0.3,0,0.4
		s-0.1,0.3-0.1,0.4c-0.1,0.2-0.2,0.3-0.3,0.4c-0.1,0.1-0.3,0.2-0.4,0.3c0,0-0.1,0.1-0.2,0.2c-0.1,0.1-0.2,0.2-0.4,0.3
		s-0.3,0.2-0.5,0.3c-0.2,0.1-0.3,0.2-0.4,0.3c-0.1,0.1-0.3,0.2-0.5,0.3v-8h0.4V169.2z M774.9,172.7c0-0.1-0.1-0.1-0.2-0.1
		s-0.2-0.1-0.2-0.1c-0.1,0-0.2,0-0.3,0.1c-0.1,0.1-0.2,0.1-0.2,0.3c-0.1,0.2-0.1,0.4-0.1,0.6c0,0.3,0,0.5,0,0.7v1.2
		c0.1-0.1,0.2-0.2,0.3-0.2c0.1-0.1,0.2-0.1,0.2-0.2c0.1-0.1,0.2-0.2,0.2-0.2c0.1-0.1,0.2-0.2,0.3-0.4c0.1-0.1,0.2-0.3,0.2-0.5
		c0.1-0.2,0.1-0.4,0-0.6C775.1,173.1,775,172.9,774.9,172.7z"/>
</g>
<g class="st1">
	<path d="M817,171.1c0.2-0.1,0.4,0,0.6,0s0.3,0.2,0.4,0.4c0.1,0.2,0.1,0.3,0.2,0.5c0,0.2,0,0.4,0,0.5c0.1,0,0.3,0,0.4-0.1
		s0.2-0.1,0.4-0.2c0.1-0.1,0.2-0.2,0.3-0.3c0.1-0.1,0.2-0.2,0.3-0.3l0.2,0.1l-1.5,5.7h-0.5c0.1-0.3,0.2-0.6,0.3-0.9
		c0.1-0.2,0.2-0.5,0.2-0.7c0.1-0.3,0.2-0.5,0.2-0.6c0.1-0.4,0.3-0.7,0.4-1.1s0.2-0.6,0.2-0.8c0.1-0.3,0.1-0.5,0.1-0.7
		c-0.1,0.1-0.2,0.1-0.3,0.2s-0.3,0.2-0.5,0.3c-0.2,0.1-0.3,0.2-0.5,0.2s-0.3,0.1-0.5,0.1c-0.4,0-0.6-0.1-0.8-0.3
		c-0.2-0.2-0.3-0.4-0.4-0.7s0-0.5,0.2-0.8C816.4,171.4,816.7,171.2,817,171.1z"/>
</g>
<g class="st1">
	<path d="M716.2,184.5l0-0.1c0.3,0,0.5-0.1,0.6-0.2c0.2-0.1,0.4-0.2,0.5-0.3s0.1-0.3,0.1-0.4c0-0.1,0-0.2-0.1-0.3
		c-0.1-0.1-0.2-0.1-0.3-0.1c-0.1,0-0.2,0-0.3,0.1c-0.1,0.1-0.2,0.1-0.3,0.3l-0.1-0.1c0.2-0.2,0.3-0.4,0.5-0.5
		c0.2-0.1,0.3-0.1,0.5-0.1c0.2,0,0.4,0.1,0.6,0.2c0.2,0.1,0.2,0.3,0.2,0.5c0,0.2,0,0.3-0.1,0.4c-0.1,0.1-0.2,0.2-0.3,0.3
		c-0.1,0.1-0.3,0.1-0.5,0.2c0.2,0.1,0.3,0.2,0.4,0.3c0.1,0.2,0.2,0.4,0.2,0.6c0,0.4-0.2,0.8-0.6,1.1c-0.3,0.2-0.7,0.4-1.1,0.4
		c-0.2,0-0.4,0-0.5-0.1c-0.1-0.1-0.1-0.1-0.1-0.2c0-0.1,0-0.2,0.1-0.2c0.1-0.1,0.1-0.1,0.2-0.1c0,0,0.1,0,0.1,0
		c0.1,0,0.2,0.1,0.3,0.2s0.3,0.1,0.3,0.1c0.1,0,0.2-0.1,0.3-0.2c0.1-0.2,0.2-0.4,0.2-0.6c0-0.2,0-0.4-0.1-0.5s-0.2-0.3-0.3-0.3
		S716.4,184.5,716.2,184.5z"/>
</g>
<g class="st1">
	<path d="M669,217.2c-0.2,0-0.3-0.1-0.5-0.1c-0.3,0-0.5,0.1-0.7,0.3s-0.3,0.4-0.3,0.7c0,0.1,0,0.2,0.1,0.3s0.1,0.2,0.2,0.4
		c0.1,0.1,0.2,0.3,0.4,0.4l-0.2,0.1c-0.3-0.2-0.6-0.4-0.8-0.6c-0.2-0.2-0.4-0.4-0.6-0.6s-0.3-0.5-0.3-0.7c0-0.2,0-0.3,0-0.5
		c0-0.2,0.1-0.3,0.2-0.4c0.1-0.1,0.2-0.2,0.4-0.3s0.3-0.1,0.5-0.1c0.1,0,0.2,0,0.3,0s0.2,0,0.3,0c0.1,0,0.2,0,0.3,0
		c0.1,0,0.2,0,0.2,0c-0.6-0.6-1.1-1.2-1.5-1.6s-0.5-0.7-0.4-0.8c0.1-0.1,0.2-0.2,0.3-0.4c0.1-0.2,0.3-0.4,0.4-0.6
		c0.1-0.2,0.2-0.5,0.3-0.7c0.1-0.3,0.1-0.5,0.1-0.7c0-0.2,0-0.3-0.1-0.6c-0.1-0.2-0.2-0.5-0.3-0.7c-0.1-0.2-0.3-0.5-0.5-0.8l0.2-0.1
		l2.5,3.1c-0.2,0.3-0.4,0.5-0.6,0.8c-0.2,0.2-0.3,0.5-0.4,0.8s-0.2,0.5-0.2,0.8c0,0.2,0,0.3,0.1,0.5c0,0.2,0.1,0.3,0.2,0.4
		s0.2,0.3,0.2,0.4c0.1,0.1,0.2,0.2,0.2,0.3c0,0.1,0.1,0.1,0.2,0.2c0.1,0.1,0.2,0.2,0.2,0.3c0.1,0.1,0.1,0.2,0.2,0.2
		c0.1,0.1,0.1,0.1,0.1,0.1l0,0.2C669.4,217.3,669.2,217.2,669,217.2z"/>
</g>
<line class="st0" x1="781.5" y1="222.3" x2="781.5" y2="202.7"/>
<g class="st1">
	<path d="M777.5,214.5c0.1-0.2,0.2-0.5,0.4-0.7s0.4-0.4,0.6-0.5s0.5-0.3,0.8-0.4c0.3-0.1,0.6-0.1,0.9-0.1s0.5,0,0.8,0.1
		c0.2,0.1,0.4,0.2,0.5,0.4c0.1,0.2,0.2,0.3,0.2,0.6c0,0.2,0,0.4-0.1,0.7s-0.2,0.5-0.4,0.7c-0.2,0.2-0.4,0.4-0.6,0.6
		s-0.5,0.3-0.8,0.4c-0.3,0.1-0.6,0.1-0.8,0.1c-0.3,0-0.5,0-0.8-0.1c-0.2-0.1-0.4-0.2-0.5-0.4c-0.1-0.2-0.2-0.3-0.2-0.6
		C777.4,215,777.4,214.7,777.5,214.5z"/>
</g>
<g class="st1">
	<path d="M777.5,222.9c0.1-0.2,0.2-0.5,0.4-0.7s0.4-0.4,0.6-0.5s0.5-0.3,0.8-0.4c0.3-0.1,0.6-0.1,0.9-0.1s0.5,0,0.8,0.1
		c0.2,0.1,0.4,0.2,0.5,0.4c0.1,0.2,0.2,0.3,0.2,0.6c0,0.2,0,0.4-0.1,0.7s-0.2,0.5-0.4,0.7c-0.2,0.2-0.4,0.4-0.6,0.6
		s-0.5,0.3-0.8,0.4c-0.3,0.1-0.6,0.1-0.8,0.1c-0.3,0-0.5,0-0.8-0.1c-0.2-0.1-0.4-0.2-0.5-0.4c-0.1-0.2-0.2-0.3-0.2-0.6
		C777.4,223.4,777.4,223.2,777.5,222.9z"/>
</g>
<g class="st1">
	<path d="M775.8,211.8v7.7h-0.4v-2.9l-1.9,0.5v-7.8h0.3v3L775.8,211.8z M773.9,213.6v2.1l1.5-0.4v-2.1L773.9,213.6z"/>
</g>
<g class="st1">
	<path d="M772,220.3v7.7h-0.4v-2.9l-1.9,0.5v-7.8h0.3v3L772,220.3z M770.1,222.1v2.1l1.5-0.4v-2.1L770.1,222.1z"/>
</g>
<g class="st1">
	<path d="M817,211.6c0.2-0.1,0.4,0,0.6,0s0.3,0.2,0.4,0.4c0.1,0.2,0.1,0.3,0.2,0.5c0,0.2,0,0.4,0,0.5c0.1,0,0.3,0,0.4-0.1
		s0.2-0.1,0.4-0.2c0.1-0.1,0.2-0.2,0.3-0.3c0.1-0.1,0.2-0.2,0.3-0.3l0.2,0.1l-1.5,5.7h-0.5c0.1-0.3,0.2-0.6,0.3-0.9
		c0.1-0.2,0.2-0.5,0.2-0.7c0.1-0.3,0.2-0.5,0.2-0.6c0.1-0.4,0.3-0.7,0.4-1.1s0.2-0.6,0.2-0.8c0.1-0.3,0.1-0.5,0.1-0.7
		c-0.1,0.1-0.2,0.1-0.3,0.2s-0.3,0.2-0.5,0.3c-0.2,0.1-0.3,0.2-0.5,0.2s-0.3,0.1-0.5,0.1c-0.4,0-0.6-0.1-0.8-0.3
		c-0.2-0.2-0.3-0.4-0.4-0.7s0-0.5,0.2-0.8C816.4,211.9,816.7,211.7,817,211.6z"/>
</g>
<g class="st1">
	<path d="M765.9,213.7c-0.1,0.1-0.1,0.2-0.2,0.3c-0.1,0.1-0.1,0.2-0.2,0.3s-0.1,0.2-0.2,0.3c-0.1,0.1-0.1,0.2-0.2,0.3
		s-0.2,0.2-0.2,0.3c-0.1,0.1-0.2,0.2-0.2,0.2c-0.1,0.1-0.2,0.1-0.2,0.2c-0.1,0.1-0.2,0.1-0.3,0.2c-0.1,0.1-0.3,0.2-0.4,0.3
		s-0.2,0.1-0.4,0.2c-0.1,0.1-0.2,0.1-0.4,0.2c-0.1,0-0.3,0.1-0.4,0.2c-0.2,0.1-0.3,0.1-0.5,0.2c-0.2,0.1-0.4,0.1-0.5,0.1
		c-0.2,0-0.4,0.1-0.6,0.1l-0.1-0.2c0.3-0.1,0.6-0.2,1-0.4c0.3-0.1,0.5-0.3,0.8-0.4c0.3-0.2,0.5-0.4,0.8-0.6c0.5-0.6,1-1.2,1.2-1.9
		c0.3-0.7,0.4-1.5,0.4-2.4c0-0.2,0-0.4-0.1-0.7s-0.1-0.5-0.2-0.8c-0.1-0.2-0.3-0.4-0.5-0.6s-0.5-0.3-0.8-0.3c-0.2,0-0.4,0-0.6,0.1
		s-0.4,0.2-0.6,0.3c-0.2,0.1-0.3,0.3-0.4,0.4c-0.1,0.2-0.2,0.4-0.1,0.6c0,0,0,0,0.1,0c0,0,0.1,0,0.2,0c0.1,0,0.2,0,0.3-0.1
		c0.1,0,0.2,0,0.4,0c0.1,0,0.3,0.1,0.4,0.1c0.1,0.1,0.2,0.2,0.3,0.3c0.1,0.1,0.1,0.3,0.1,0.4s0,0.3,0,0.4c-0.1,0.2-0.2,0.4-0.3,0.5
		s-0.3,0.2-0.6,0.2c-0.2,0-0.3,0-0.5-0.1c-0.2-0.1-0.3-0.1-0.4-0.2c-0.1-0.1-0.2-0.2-0.3-0.4c-0.1-0.2-0.1-0.3-0.1-0.5
		c0-0.3,0-0.5,0.1-0.8c0.1-0.2,0.2-0.4,0.3-0.6s0.2-0.3,0.3-0.4s0.2-0.2,0.3-0.2c0.2-0.2,0.5-0.3,0.8-0.3c0.3-0.1,0.5-0.1,0.7-0.1
		c0.3,0,0.5,0,0.8,0.1c0.3,0.1,0.5,0.2,0.7,0.4c0.2,0.2,0.4,0.3,0.6,0.6c0.2,0.2,0.3,0.5,0.4,0.7c0.1,0.3,0.2,0.6,0.2,1
		c0,0.3,0,0.7-0.1,1.1c0,0.1-0.1,0.3-0.1,0.4c0,0.1-0.1,0.2-0.1,0.3c0,0.1-0.1,0.2-0.1,0.3C766,213.5,765.9,213.6,765.9,213.7z
		 M766.9,209.8c0-0.2,0-0.3,0.2-0.4c0.1-0.1,0.2-0.2,0.4-0.2c0.2,0,0.3,0,0.4,0.1s0.2,0.2,0.2,0.4c0,0.2,0,0.3-0.2,0.4
		s-0.2,0.2-0.4,0.2c-0.2,0-0.3,0-0.4-0.2C766.9,210.1,766.9,210,766.9,209.8z M766.9,212.4c0-0.2,0.1-0.3,0.2-0.4
		c0.1-0.1,0.2-0.2,0.4-0.2c0.2,0,0.3,0,0.4,0.1c0.1,0.1,0.2,0.2,0.2,0.4c0,0.2,0,0.3-0.2,0.4c-0.1,0.1-0.2,0.2-0.4,0.2
		c-0.2,0-0.3,0-0.4-0.2C767,212.7,766.9,212.6,766.9,212.4z"/>
</g>
<g class="st1">
	<path d="M655,124.9l-0.3,0.9h-2.6v-0.1c0.8-0.7,1.3-1.3,1.6-1.7s0.5-0.9,0.5-1.2c0-0.3-0.1-0.5-0.3-0.7c-0.2-0.2-0.4-0.3-0.6-0.3
		c-0.2,0-0.4,0.1-0.6,0.2c-0.2,0.1-0.3,0.3-0.4,0.6h-0.1c0.1-0.4,0.2-0.7,0.4-0.9c0.2-0.2,0.5-0.3,0.9-0.3c0.4,0,0.7,0.1,0.9,0.3
		c0.2,0.2,0.4,0.5,0.4,0.8c0,0.2-0.1,0.5-0.2,0.7c-0.2,0.4-0.4,0.7-0.8,1.1c-0.5,0.6-0.9,1-1,1.1h1.2c0.2,0,0.4,0,0.5,0
		s0.2-0.1,0.3-0.1s0.1-0.1,0.2-0.2H655z"/>
</g>
<g class="st1">
	<path d="M704.2,200.7l1.1-0.5h0.1v3.8c0,0.3,0,0.4,0,0.5s0.1,0.1,0.1,0.1c0.1,0,0.2,0.1,0.4,0.1v0.1h-1.7v-0.1c0.2,0,0.3,0,0.4-0.1
		c0.1,0,0.1-0.1,0.1-0.1s0-0.2,0-0.5v-2.4c0-0.3,0-0.5,0-0.6c0-0.1,0-0.1-0.1-0.2c0,0-0.1,0-0.1,0c-0.1,0-0.2,0-0.3,0.1L704.2,200.7
		z"/>
</g>
<path class="st3" d="M703.4,154.4h4.1"/>
<path class="st3" d="M707.3,154.1v4.2"/>
<path class="st3" d="M703.1,195.5h4.1"/>
<path class="st3" d="M703.4,191.5v4.2"/>
<g class="st1">
	<path d="M700.5,185.9c0,0.1,0,0.2-0.1,0.3c0,0.1-0.1,0.2-0.2,0.3c-0.1,0.1-0.2,0.2-0.3,0.2s-0.2,0.1-0.4,0.1
		c-0.2,0-0.3-0.1-0.3-0.2c-0.1-0.1-0.1-0.2-0.1-0.3c0-0.1,0-0.2,0.1-0.2c0-0.1,0.1-0.1,0.2-0.2c0.1-0.1,0.1-0.1,0.2-0.2
		c0.1-0.1,0.1-0.1,0.2-0.2c0-0.1,0-0.1-0.1-0.1c-0.1,0-0.1,0-0.2,0c-0.2,0-0.3,0-0.5,0.1c-0.1,0.1-0.2,0.1-0.3,0.2s-0.2,0.2-0.2,0.4
		s-0.1,0.3-0.2,0.4c0,0.1-0.1,0.3-0.2,0.5c-0.1,0.2-0.1,0.5-0.2,0.7h1.3v0.3h-0.7H698c0,0.1-0.1,0.2-0.1,0.4c0,0.1-0.1,0.3-0.1,0.4
		c0,0.1-0.1,0.2-0.1,0.4s0,0.2-0.1,0.2c-0.1,0.2-0.1,0.3-0.2,0.5c0,0.1-0.1,0.3-0.1,0.4c0,0.1-0.1,0.3-0.1,0.4
		c-0.1,0.1-0.1,0.3-0.2,0.5c-0.1,0.3-0.3,0.6-0.5,1c-0.2,0.4-0.5,0.7-0.8,1c-0.2,0.2-0.5,0.4-0.8,0.5c-0.3,0.1-0.5,0.1-0.8,0.1
		c-0.1,0-0.2,0-0.3-0.1s-0.2-0.1-0.3-0.2c-0.1-0.1-0.2-0.2-0.2-0.3s-0.1-0.2-0.1-0.4c0-0.1,0-0.2,0-0.3s0.1-0.2,0.1-0.3
		s0.1-0.2,0.2-0.2c0.1-0.1,0.2-0.1,0.3-0.1c0.2,0,0.3,0.1,0.4,0.2c0.1,0.1,0.1,0.3,0.1,0.5c0,0.1-0.1,0.3-0.1,0.3
		c-0.1,0.1-0.1,0.1-0.2,0.2s-0.1,0.1-0.2,0.1c0,0-0.1,0.1-0.1,0.1c0,0,0.1,0.1,0.1,0.1c0,0,0.1,0,0.1,0c0.1,0,0.3-0.1,0.4-0.2
		s0.2-0.3,0.3-0.4s0.2-0.4,0.3-0.6s0.2-0.4,0.2-0.6s0.1-0.4,0.2-0.5c0-0.2,0.1-0.3,0.1-0.3c0.1-0.2,0.1-0.4,0.2-0.6
		c0.1-0.2,0.1-0.4,0.2-0.7s0.1-0.5,0.2-0.7c0.1-0.2,0.1-0.5,0.2-0.8h-1.2v-0.3h1.3c0.1-0.3,0.2-0.5,0.3-0.7c0.1-0.2,0.2-0.4,0.4-0.6
		c0.3-0.5,0.7-0.8,1.1-1s0.8-0.3,1.3-0.3c0.2,0,0.4,0.1,0.6,0.3C700.4,185.5,700.5,185.7,700.5,185.9z"/>
</g>
<g class="st1">
	<path d="M651.1,78.9c0.1-0.3,0.1-0.5,0.3-0.7c0.1-0.2,0.3-0.4,0.4-0.6c0.2-0.2,0.5-0.5,1-0.9c0.3-0.2,0.5-0.4,0.6-0.6
		c0.2-0.2,0.3-0.3,0.4-0.5c0-0.1,0.1-0.2,0.1-0.4c0-0.2-0.1-0.4-0.2-0.6c-0.2-0.2-0.3-0.2-0.6-0.2c-0.2,0-0.4,0.1-0.6,0.2
		s-0.3,0.4-0.4,0.8l-0.6-0.1c0.1-0.4,0.2-0.8,0.5-1s0.6-0.4,1-0.4c0.3,0,0.5,0.1,0.7,0.2s0.4,0.3,0.5,0.5c0.1,0.2,0.2,0.4,0.2,0.6
		c0,0.3-0.1,0.6-0.3,0.9c-0.1,0.2-0.6,0.5-1.2,1.1c-0.3,0.2-0.5,0.4-0.7,0.6c-0.1,0.1-0.3,0.3-0.3,0.4h2.2l-0.1,0.5H651.1z"/>
</g>
<g class="st1">
	<path d="M847.1,130.6c0.2-0.1,0.4,0,0.6,0s0.3,0.2,0.4,0.4c0.1,0.2,0.1,0.3,0.2,0.5c0,0.2,0,0.4,0,0.5c0.1,0,0.3,0,0.4-0.1
		s0.2-0.1,0.4-0.2c0.1-0.1,0.2-0.2,0.3-0.3c0.1-0.1,0.2-0.2,0.3-0.3l0.2,0.1l-1.5,5.7h-0.5c0.1-0.3,0.2-0.6,0.3-0.9
		c0.1-0.2,0.2-0.5,0.2-0.7c0.1-0.3,0.2-0.5,0.2-0.6c0.1-0.4,0.3-0.7,0.4-1.1s0.2-0.6,0.2-0.8c0.1-0.3,0.1-0.5,0.1-0.7
		c-0.1,0.1-0.2,0.1-0.3,0.2s-0.3,0.2-0.5,0.3c-0.2,0.1-0.3,0.2-0.5,0.2s-0.3,0.1-0.5,0.1c-0.4,0-0.6-0.1-0.8-0.3
		c-0.2-0.2-0.3-0.4-0.4-0.7s0-0.5,0.2-0.8C846.5,130.9,846.7,130.7,847.1,130.6z"/>
</g>
<g class="st1">
	<path d="M868.2,131.8c0.1-0.2,0.2-0.5,0.4-0.7s0.4-0.4,0.6-0.5c0.2-0.2,0.5-0.3,0.8-0.4c0.3-0.1,0.6-0.1,0.9-0.1s0.5,0,0.8,0.1
		c0.2,0.1,0.4,0.2,0.5,0.4c0.1,0.2,0.2,0.3,0.2,0.6c0,0.2,0,0.4-0.1,0.7s-0.2,0.5-0.4,0.7c-0.2,0.2-0.4,0.4-0.6,0.6
		s-0.5,0.3-0.8,0.4c-0.3,0.1-0.6,0.1-0.8,0.1c-0.3,0-0.5,0-0.7-0.1c-0.2-0.1-0.4-0.2-0.5-0.4c-0.1-0.2-0.2-0.3-0.2-0.6
		C868.1,132.3,868.1,132,868.2,131.8z"/>
</g>
<g class="st1">
	<path d="M864.3,129.7v-2.2h0.4v2.1l1.3-0.4v-2h0.4v1.8l0.5-0.2v1.4l-0.5,0.2v2l0.5-0.2v1.4l-0.5,0.2v2.2H866v-2.1l-1.3,0.4v2h-0.4
		v-1.9l-0.6,0.2v-1.4l0.6-0.2v-2l-0.6,0.2v-1.4L864.3,129.7z M864.7,130.9v2l1.3-0.4v-2L864.7,130.9z"/>
</g>
<line class="st0" x1="872.2" y1="131.2" x2="872.2" y2="120.8"/>
<g class="st1">
	<path d="M879,138.5c0.1-0.2,0.2-0.5,0.4-0.7s0.4-0.4,0.6-0.5c0.2-0.2,0.5-0.3,0.8-0.4c0.3-0.1,0.6-0.1,0.9-0.1s0.5,0,0.8,0.1
		c0.2,0.1,0.4,0.2,0.5,0.4c0.1,0.2,0.2,0.3,0.2,0.6c0,0.2,0,0.4-0.1,0.7s-0.2,0.5-0.4,0.7c-0.2,0.2-0.4,0.4-0.6,0.6
		s-0.5,0.3-0.8,0.4c-0.3,0.1-0.6,0.1-0.8,0.1c-0.3,0-0.5,0-0.7-0.1c-0.2-0.1-0.4-0.2-0.5-0.4c-0.1-0.2-0.2-0.3-0.2-0.6
		C878.9,139,878.9,138.8,879,138.5z"/>
</g>
<g class="st1">
	<path d="M877.3,135.9v7.7H877v-2.9l-1.9,0.5v-7.8h0.3v3L877.3,135.9z M875.4,137.7v2.1l1.5-0.4v-2.1L875.4,137.7z"/>
</g>
<line class="st0" x1="883" y1="138" x2="883" y2="121.7"/>
<g class="st1">
	<path d="M889.8,141.9c0.1-0.2,0.2-0.5,0.4-0.7c0.2-0.2,0.4-0.4,0.6-0.5c0.2-0.2,0.5-0.3,0.8-0.4c0.3-0.1,0.6-0.1,0.9-0.1
		s0.5,0,0.8,0.1c0.2,0.1,0.4,0.2,0.5,0.4c0.1,0.2,0.2,0.3,0.2,0.6c0,0.2,0,0.4-0.1,0.7s-0.2,0.5-0.4,0.7c-0.2,0.2-0.4,0.4-0.6,0.6
		c-0.2,0.2-0.5,0.3-0.8,0.4c-0.3,0.1-0.6,0.1-0.8,0.1c-0.3,0-0.5,0-0.8-0.1c-0.2-0.1-0.4-0.2-0.5-0.4s-0.2-0.3-0.2-0.6
		C889.7,142.4,889.7,142.2,889.8,141.9z"/>
</g>
<g class="st1">
	<path d="M888.2,139.3v7.7h-0.4v-2.9l-1.9,0.5v-7.8h0.3v3L888.2,139.3z M886.3,141.1v2.1l1.5-0.4v-2.1L886.3,141.1z"/>
</g>
<line class="st0" x1="893.8" y1="141.3" x2="893.8" y2="122.5"/>
<path d="M872,120l22.1,1.7v1.7l-22.1-1.7V120z"/>
<g class="st1">
	<path d="M898.2,130.6c0.2-0.1,0.4,0,0.6,0s0.3,0.2,0.4,0.4c0.1,0.2,0.1,0.3,0.2,0.5c0,0.2,0,0.4,0,0.5c0.1,0,0.3,0,0.4-0.1
		c0.1,0,0.2-0.1,0.4-0.2c0.1-0.1,0.2-0.2,0.3-0.3c0.1-0.1,0.2-0.2,0.3-0.3l0.2,0.1l-1.5,5.7h-0.5c0.1-0.3,0.2-0.6,0.3-0.9
		c0.1-0.2,0.2-0.5,0.2-0.7c0.1-0.3,0.2-0.5,0.2-0.6c0.1-0.4,0.3-0.7,0.4-1.1c0.1-0.3,0.2-0.6,0.2-0.8c0.1-0.3,0.1-0.5,0.1-0.7
		c-0.1,0.1-0.2,0.1-0.3,0.2s-0.3,0.2-0.5,0.3c-0.2,0.1-0.3,0.2-0.5,0.2s-0.3,0.1-0.5,0.1c-0.4,0-0.6-0.1-0.8-0.3
		c-0.2-0.2-0.3-0.4-0.4-0.7c0-0.3,0-0.5,0.2-0.8C897.5,130.9,897.8,130.7,898.2,130.6z"/>
</g>
<g class="st1">
	<path d="M905.1,130.6c0.2-0.1,0.4,0,0.6,0s0.3,0.2,0.4,0.4c0.1,0.2,0.1,0.3,0.2,0.5c0,0.2,0,0.4,0,0.5c0.1,0,0.3,0,0.4-0.1
		c0.1,0,0.2-0.1,0.4-0.2c0.1-0.1,0.2-0.2,0.3-0.3c0.1-0.1,0.2-0.2,0.3-0.3l0.2,0.1l-1.5,5.7h-0.5c0.1-0.3,0.2-0.6,0.3-0.9
		c0.1-0.2,0.2-0.5,0.2-0.7c0.1-0.3,0.2-0.5,0.2-0.6c0.1-0.4,0.3-0.7,0.4-1.1c0.1-0.3,0.2-0.6,0.2-0.8c0.1-0.3,0.1-0.5,0.1-0.7
		c-0.1,0.1-0.2,0.1-0.3,0.2s-0.3,0.2-0.5,0.3c-0.2,0.1-0.3,0.2-0.5,0.2s-0.3,0.1-0.5,0.1c-0.4,0-0.6-0.1-0.8-0.3
		c-0.2-0.2-0.3-0.4-0.4-0.7c0-0.3,0-0.5,0.2-0.8C904.4,130.9,904.7,130.7,905.1,130.6z"/>
</g>
<g class="st1">
	<path d="M914.3,133.5c0.1-0.2,0.2-0.5,0.4-0.7s0.4-0.4,0.6-0.5c0.2-0.2,0.5-0.3,0.8-0.4c0.3-0.1,0.6-0.1,0.9-0.1s0.5,0,0.8,0.1
		c0.2,0.1,0.4,0.2,0.5,0.4c0.1,0.2,0.2,0.3,0.2,0.6c0,0.2,0,0.4-0.1,0.7s-0.2,0.5-0.4,0.7c-0.2,0.2-0.4,0.4-0.6,0.6
		s-0.5,0.3-0.8,0.4c-0.3,0.1-0.6,0.1-0.8,0.1c-0.3,0-0.5,0-0.7-0.1c-0.2-0.1-0.4-0.2-0.5-0.4c-0.1-0.2-0.2-0.3-0.2-0.6
		C914.2,134,914.2,133.7,914.3,133.5z"/>
</g>
<g class="st1">
	<path d="M912.6,130.8v7.7h-0.4v-2.9l-1.9,0.5v-7.8h0.3v3L912.6,130.8z M910.7,132.6v2.1l1.5-0.4v-2.1L910.7,132.6z"/>
</g>
<line class="st0" x1="918.3" y1="132.9" x2="918.3" y2="122.5"/>
<g class="st1">
	<path d="M925.8,133.5c0.1-0.2,0.2-0.5,0.4-0.7c0.2-0.2,0.4-0.4,0.6-0.5c0.2-0.2,0.5-0.3,0.8-0.4c0.3-0.1,0.6-0.1,0.9-0.1
		s0.5,0,0.8,0.1c0.2,0.1,0.4,0.2,0.5,0.4c0.1,0.2,0.2,0.3,0.2,0.6c0,0.2,0,0.4-0.1,0.7s-0.2,0.5-0.4,0.7c-0.2,0.2-0.4,0.4-0.6,0.6
		c-0.2,0.2-0.5,0.3-0.8,0.4c-0.3,0.1-0.6,0.1-0.8,0.1c-0.3,0-0.5,0-0.8-0.1c-0.2-0.1-0.4-0.2-0.5-0.4s-0.2-0.3-0.2-0.6
		C925.7,134,925.7,133.7,925.8,133.5z"/>
</g>
<g class="st1">
	<path d="M922.2,128.7v2.4v0.9c0.1-0.1,0.2-0.2,0.4-0.3c0.1-0.1,0.2-0.1,0.3-0.2c0.1,0,0.2-0.1,0.3-0.1c0.1,0,0.2,0,0.4,0
		c0.2,0,0.3,0,0.5,0.1s0.3,0.2,0.4,0.3c0.1,0.1,0.2,0.2,0.2,0.4c0.1,0.1,0.1,0.3,0.1,0.4c0,0.1,0,0.3,0,0.4s-0.1,0.3-0.1,0.4
		c-0.1,0.2-0.2,0.3-0.3,0.4c-0.1,0.1-0.3,0.2-0.4,0.3c0,0-0.1,0.1-0.2,0.2s-0.2,0.2-0.4,0.3s-0.3,0.2-0.5,0.3
		c-0.2,0.1-0.3,0.2-0.4,0.3c-0.1,0.1-0.3,0.2-0.5,0.3v-8h0.4V128.7z M923.2,132.2c0-0.1-0.1-0.1-0.2-0.1c-0.1,0-0.2-0.1-0.2-0.1
		s-0.2,0-0.3,0.1c-0.1,0.1-0.2,0.1-0.2,0.3c-0.1,0.2-0.1,0.4-0.1,0.6c0,0.3,0,0.5,0,0.7v1.2c0.1-0.1,0.2-0.2,0.3-0.2
		s0.2-0.1,0.2-0.2c0.1-0.1,0.2-0.2,0.2-0.2c0.1-0.1,0.2-0.2,0.3-0.4c0.1-0.1,0.2-0.3,0.2-0.5c0.1-0.2,0.1-0.4,0-0.6
		C923.4,132.6,923.4,132.4,923.2,132.2z"/>
</g>
<line class="st0" x1="929.8" y1="132.9" x2="929.8" y2="122.5"/>
<path d="M918.1,121.7H930v1.7h-11.9V121.7z"/>
<g class="st1">
	<path d="M864,113l0-0.1c0.3,0,0.5-0.1,0.6-0.2c0.2-0.1,0.4-0.2,0.5-0.3c0.1-0.1,0.1-0.3,0.1-0.4c0-0.1,0-0.2-0.1-0.3
		c-0.1-0.1-0.2-0.1-0.3-0.1c-0.1,0-0.2,0-0.3,0.1c-0.1,0.1-0.2,0.1-0.3,0.3l-0.1-0.1c0.2-0.2,0.3-0.4,0.5-0.5
		c0.2-0.1,0.3-0.1,0.5-0.1c0.2,0,0.4,0.1,0.6,0.2c0.2,0.1,0.2,0.3,0.2,0.5c0,0.2,0,0.3-0.1,0.4c-0.1,0.1-0.2,0.2-0.3,0.3
		c-0.1,0.1-0.3,0.1-0.5,0.2c0.2,0.1,0.3,0.2,0.4,0.3c0.1,0.2,0.2,0.4,0.2,0.6c0,0.4-0.2,0.8-0.6,1.1c-0.3,0.2-0.7,0.4-1.1,0.4
		c-0.2,0-0.4,0-0.5-0.1c-0.1-0.1-0.1-0.1-0.1-0.2c0-0.1,0-0.2,0.1-0.2c0.1-0.1,0.1-0.1,0.2-0.1c0,0,0.1,0,0.1,0
		c0.1,0,0.2,0.1,0.3,0.2c0.1,0.1,0.3,0.1,0.3,0.1c0.1,0,0.2-0.1,0.3-0.2c0.1-0.2,0.2-0.4,0.2-0.6c0-0.2,0-0.4-0.1-0.5
		c-0.1-0.2-0.2-0.3-0.3-0.3C864.4,113.1,864.2,113,864,113z"/>
</g>
<g class="st1">
	<path d="M898.3,117.8l0-0.1c0.3,0,0.5-0.1,0.6-0.2c0.2-0.1,0.4-0.2,0.5-0.3c0.1-0.1,0.1-0.3,0.1-0.4c0-0.1,0-0.2-0.1-0.3
		c-0.1-0.1-0.2-0.1-0.3-0.1c-0.1,0-0.2,0-0.3,0.1c-0.1,0.1-0.2,0.1-0.3,0.3l-0.1-0.1c0.2-0.2,0.3-0.4,0.5-0.5s0.3-0.1,0.5-0.1
		c0.2,0,0.4,0.1,0.6,0.2s0.2,0.3,0.2,0.5c0,0.2,0,0.3-0.1,0.4c-0.1,0.1-0.2,0.2-0.3,0.3c-0.1,0.1-0.3,0.1-0.5,0.2
		c0.2,0.1,0.3,0.2,0.4,0.3c0.1,0.2,0.2,0.4,0.2,0.6c0,0.4-0.2,0.8-0.6,1.1c-0.3,0.2-0.7,0.4-1.1,0.4c-0.2,0-0.4,0-0.5-0.1
		c-0.1-0.1-0.1-0.1-0.1-0.2c0-0.1,0-0.2,0.1-0.2c0.1-0.1,0.1-0.1,0.2-0.1c0,0,0.1,0,0.1,0c0.1,0,0.2,0.1,0.3,0.2s0.3,0.1,0.3,0.1
		c0.1,0,0.2-0.1,0.3-0.2c0.1-0.2,0.2-0.4,0.2-0.6c0-0.2,0-0.4-0.1-0.5c-0.1-0.2-0.2-0.3-0.3-0.3
		C898.7,117.9,898.5,117.8,898.3,117.8z"/>
</g>
<polyline class="st0" points="889.7,116.9 889.7,115.2 908.4,115.2 908.4,116.9 "/>
<line class="st3" x1="845.3" y1="184.1" x2="851.3" y2="184.1"/>
<g class="st1">
	<path d="M846.2,184.1c0.1-0.2,0.2-0.5,0.4-0.7s0.4-0.4,0.6-0.5s0.5-0.3,0.8-0.4c0.3-0.1,0.6-0.1,0.9-0.1s0.5,0,0.8,0.1
		c0.2,0.1,0.4,0.2,0.5,0.4c0.1,0.2,0.2,0.3,0.2,0.6c0,0.2,0,0.4-0.1,0.7s-0.2,0.5-0.4,0.7c-0.2,0.2-0.4,0.4-0.6,0.6
		s-0.5,0.3-0.8,0.4c-0.3,0.1-0.6,0.1-0.8,0.1c-0.3,0-0.5,0-0.8-0.1c-0.2-0.1-0.4-0.2-0.5-0.4c-0.1-0.2-0.2-0.3-0.2-0.6
		C846.1,184.6,846.2,184.3,846.2,184.1z"/>
</g>
<g class="st1">
	<path d="M844.6,181.4v7.7h-0.4v-2.9l-1.9,0.5v-7.8h0.3v3L844.6,181.4z M842.7,183.3v2.1l1.5-0.4v-2.1L842.7,183.3z"/>
</g>
<line class="st0" x1="850.2" y1="183.5" x2="850.2" y2="168.1"/>
<line class="st3" x1="856" y1="187.5" x2="862" y2="187.5"/>
<line class="st3" x1="856" y1="184.1" x2="862" y2="184.1"/>
<g class="st1">
	<path d="M856.9,187.5c0.1-0.2,0.2-0.5,0.4-0.7s0.4-0.4,0.6-0.5c0.2-0.2,0.5-0.3,0.8-0.4c0.3-0.1,0.6-0.1,0.9-0.1s0.5,0,0.8,0.1
		c0.2,0.1,0.4,0.2,0.5,0.4c0.1,0.2,0.2,0.3,0.2,0.6c0,0.2,0,0.4-0.1,0.7s-0.2,0.5-0.4,0.7c-0.2,0.2-0.4,0.4-0.6,0.6
		s-0.5,0.3-0.8,0.4c-0.3,0.1-0.6,0.1-0.8,0.1c-0.3,0-0.5,0-0.7-0.1c-0.2-0.1-0.4-0.2-0.5-0.4c-0.1-0.2-0.2-0.3-0.2-0.6
		C856.8,188,856.8,187.7,856.9,187.5z"/>
</g>
<g class="st1">
	<path d="M855.2,184.8v7.7h-0.4v-2.9l-1.9,0.5v-7.8h0.3v3L855.2,184.8z M853.4,186.6v2.1l1.5-0.4v-2.1L853.4,186.6z"/>
</g>
<line class="st0" x1="860.9" y1="186.9" x2="860.9" y2="167.2"/>
<g class="st1">
	<path d="M868.2,177.4c0.1-0.2,0.2-0.5,0.4-0.7s0.4-0.4,0.6-0.5c0.2-0.2,0.5-0.3,0.8-0.4c0.3-0.1,0.6-0.1,0.9-0.1s0.5,0,0.8,0.1
		c0.2,0.1,0.4,0.2,0.5,0.4c0.1,0.2,0.2,0.3,0.2,0.6c0,0.2,0,0.4-0.1,0.7s-0.2,0.5-0.4,0.7c-0.2,0.2-0.4,0.4-0.6,0.6
		s-0.5,0.3-0.8,0.4c-0.3,0.1-0.6,0.1-0.8,0.1c-0.3,0-0.5,0-0.7-0.1c-0.2-0.1-0.4-0.2-0.5-0.4c-0.1-0.2-0.2-0.3-0.2-0.6
		C868.1,177.8,868.1,177.6,868.2,177.4z"/>
</g>
<g class="st1">
	<path d="M864.3,175.2V173h0.4v2.1l1.3-0.4v-2h0.4v1.8l0.5-0.2v1.4l-0.5,0.2v2l0.5-0.2v1.4l-0.5,0.2v2.2H866v-2.1l-1.3,0.4v2h-0.4
		V180l-0.6,0.2v-1.4l0.6-0.2v-2l-0.6,0.2v-1.4L864.3,175.2z M864.7,176.5v2l1.3-0.4v-2L864.7,176.5z"/>
</g>
<line class="st0" x1="872.2" y1="176.8" x2="872.2" y2="166.4"/>
<path d="M850,167.2l22.3-1.7v1.7l-22.3,1.7V167.2z"/>
<path d="M850,169.8l22.3-1.7v1.7l-22.3,1.7V169.8z"/>
<g class="st1">
	<path d="M858.5,192.6l0-0.1c0.3,0,0.5-0.1,0.6-0.2c0.2-0.1,0.4-0.2,0.5-0.3c0.1-0.1,0.1-0.3,0.1-0.4c0-0.1,0-0.2-0.1-0.3
		c-0.1-0.1-0.2-0.1-0.3-0.1c-0.1,0-0.2,0-0.3,0.1c-0.1,0.1-0.2,0.1-0.3,0.3l-0.1-0.1c0.2-0.2,0.3-0.4,0.5-0.5
		c0.2-0.1,0.3-0.1,0.5-0.1c0.2,0,0.4,0.1,0.6,0.2c0.2,0.1,0.2,0.3,0.2,0.5c0,0.2,0,0.3-0.1,0.4c-0.1,0.1-0.2,0.2-0.3,0.3
		c-0.1,0.1-0.3,0.1-0.5,0.2c0.2,0.1,0.3,0.2,0.4,0.3c0.1,0.2,0.2,0.4,0.2,0.6c0,0.4-0.2,0.8-0.6,1.1c-0.3,0.2-0.7,0.4-1.1,0.4
		c-0.2,0-0.4,0-0.5-0.1c-0.1-0.1-0.1-0.1-0.1-0.2c0-0.1,0-0.2,0.1-0.2c0.1-0.1,0.1-0.1,0.2-0.1c0,0,0.1,0,0.1,0
		c0.1,0,0.2,0.1,0.3,0.2c0.1,0.1,0.3,0.1,0.3,0.1c0.1,0,0.2-0.1,0.3-0.2c0.1-0.2,0.2-0.4,0.2-0.6c0-0.2,0-0.4-0.1-0.5
		c-0.1-0.2-0.2-0.3-0.3-0.3C858.9,192.7,858.7,192.6,858.5,192.6z"/>
</g>
<g class="st1">
	<path d="M837.9,76.9c0.2,0,0.3,0,0.4-0.1c0.1-0.1,0.2-0.2,0.3-0.4c0.1-0.1,0.1-0.4,0.2-0.7c0.1-0.4,0.1-0.6,0.2-0.7
		c0.1-0.2,0.1-0.3,0.2-0.4c0.1-0.1,0.2-0.2,0.3-0.3c0.1-0.1,0.2-0.1,0.3-0.1c0.1,0,0.2,0,0.4,0h0.2l-0.1,0.5h-0.1
		c-0.2,0-0.3,0-0.4,0.1c-0.1,0-0.1,0.1-0.2,0.2s-0.1,0.3-0.2,0.6c-0.1,0.4-0.2,0.7-0.3,0.9s-0.2,0.3-0.3,0.5
		c-0.1,0.1-0.3,0.2-0.5,0.3c0.2,0.1,0.3,0.2,0.4,0.3c0.1,0.1,0.1,0.3,0.1,0.5c0,0.2,0,0.5-0.1,0.9c-0.1,0.3-0.1,0.5-0.1,0.6
		c0,0.1,0,0.1,0,0.2c0,0,0.1,0.1,0.1,0.1c0.1,0,0.2,0,0.4,0l-0.1,0.5h-0.2c-0.2,0-0.4,0-0.4,0c-0.1,0-0.2-0.1-0.3-0.2
		c-0.1-0.1-0.1-0.2-0.1-0.4c0-0.1,0.1-0.5,0.2-0.9c0.1-0.4,0.1-0.6,0.1-0.7c0-0.2,0-0.3-0.1-0.4c-0.1-0.1-0.2-0.1-0.4-0.1
		L837.9,76.9z"/>
	<path d="M840,77.6l0.6-0.1c0,0.3,0.1,0.6,0.3,0.7c0.2,0.1,0.3,0.2,0.6,0.2c0.3,0,0.5-0.1,0.8-0.3c0.2-0.2,0.3-0.5,0.3-0.7
		c0-0.2-0.1-0.4-0.2-0.6c-0.2-0.2-0.4-0.2-0.6-0.2c0,0-0.1,0-0.2,0l0.1-0.5c0.1,0,0.1,0,0.2,0c0.3,0,0.6-0.1,0.8-0.2
		s0.3-0.4,0.3-0.6c0-0.2-0.1-0.4-0.2-0.6c-0.2-0.2-0.3-0.2-0.6-0.2c-0.2,0-0.4,0.1-0.6,0.2c-0.2,0.2-0.3,0.4-0.3,0.7l-0.6-0.1
		c0.1-0.4,0.3-0.7,0.6-0.9c0.3-0.2,0.6-0.3,1-0.3c0.4,0,0.7,0.1,1,0.4s0.4,0.5,0.4,0.9c0,0.3-0.1,0.5-0.2,0.7
		c-0.1,0.2-0.3,0.3-0.6,0.5c0.2,0.1,0.3,0.2,0.4,0.4c0.1,0.2,0.1,0.3,0.1,0.5c0,0.4-0.2,0.8-0.5,1.1S842,79,841.6,79
		c-0.4,0-0.8-0.1-1.1-0.4C840.2,78.4,840.1,78.1,840,77.6z"/>
	<path d="M845.5,76.9l-0.1,0.5c-0.2,0-0.3,0-0.4,0.1c-0.1,0.1-0.2,0.2-0.3,0.4c-0.1,0.2-0.1,0.4-0.2,0.8c-0.1,0.4-0.1,0.6-0.2,0.7
		c-0.1,0.2-0.1,0.3-0.2,0.5c-0.1,0.1-0.2,0.2-0.3,0.3c-0.1,0.1-0.2,0.1-0.3,0.1c-0.1,0-0.2,0-0.4,0h-0.2l0.1-0.5h0.1
		c0.2,0,0.3,0,0.4-0.1s0.1-0.1,0.2-0.2c0-0.1,0.1-0.3,0.2-0.6c0.1-0.4,0.2-0.7,0.2-0.9c0.1-0.2,0.2-0.4,0.3-0.5
		c0.1-0.1,0.3-0.2,0.5-0.3c-0.2-0.1-0.3-0.2-0.4-0.3c-0.1-0.1-0.1-0.3-0.1-0.5c0-0.2,0-0.5,0.1-0.9c0.1-0.3,0.1-0.5,0.1-0.6
		c0-0.1,0-0.2-0.1-0.2c-0.1,0-0.2-0.1-0.4-0.1h-0.1l0.1-0.5h0.2c0.2,0,0.4,0,0.4,0c0.1,0,0.2,0.1,0.3,0.2c0.1,0.1,0.1,0.2,0.1,0.4
		c0,0.1,0,0.4-0.1,0.7c-0.1,0.5-0.2,0.8-0.2,0.9c0,0.2,0,0.3,0.1,0.4C845.2,76.8,845.3,76.9,845.5,76.9z"/>
</g>
<path class="st3" d="M870.5,161.8h4.1"/>
<path class="st3" d="M874.5,161.5v4.2"/>
<g class="st1">
	<path d="M852.7,145.8c0.3-0.7,0.6-1.2,0.9-1.5c0.3-0.3,0.6-0.4,1-0.4c0.2,0,0.4,0,0.5,0.1c0.1,0.1,0.2,0.1,0.2,0.1s0.1,0.1,0.1,0.1
		c0,0,0.1,0.1,0.1,0.2s0.1,0.2,0.1,0.2c0.1-0.1,0.2-0.2,0.2-0.2c0.1,0,0.1-0.1,0.2-0.2c0.1-0.1,0.3-0.2,0.5-0.2
		c0.2-0.1,0.4-0.1,0.6-0.1c0.3,0,0.5,0.1,0.7,0.3c0.1,0.2,0.2,0.5,0.3,0.9c0,0,0,0.1,0,0.2s0,0.2,0,0.3c0,0.1,0,0.3-0.1,0.4
		c0,0.1-0.1,0.3-0.2,0.4c-0.1,0.2-0.2,0.4-0.4,0.6c-0.1,0.2-0.3,0.3-0.5,0.5c-0.2,0.1-0.4,0.3-0.6,0.3c-0.2,0.1-0.4,0.1-0.6,0.1
		c-0.2,0-0.3,0-0.4-0.1c-0.1,0-0.2-0.1-0.3-0.1c-0.1-0.1-0.2-0.1-0.2-0.2c0,0-0.1-0.1-0.2-0.2l-0.9,2.2l0.9,0.1v0.3h-3.5v-0.3
		l1.2-0.1c0.3-0.8,0.7-1.5,0.9-2.2c0.1-0.3,0.2-0.6,0.4-0.8c0.1-0.3,0.2-0.5,0.3-0.8c0.1-0.2,0.2-0.4,0.2-0.6
		c0.1-0.2,0.1-0.3,0.1-0.3c0-0.1,0-0.2,0-0.3s-0.1-0.2-0.2-0.2c-0.1,0-0.3,0.1-0.4,0.2c-0.2,0.1-0.3,0.3-0.4,0.4
		c-0.1,0.2-0.2,0.3-0.3,0.5c-0.1,0.1-0.1,0.3-0.2,0.4C852.9,145.8,852.8,145.8,852.7,145.8C852.8,145.8,852.7,145.8,852.7,145.8z
		 M857.1,144.8c0-0.2,0-0.3-0.1-0.3c0,0-0.1-0.1-0.2-0.1c-0.1,0-0.2,0-0.4,0.1s-0.2,0.2-0.3,0.3c-0.1,0.1-0.2,0.2-0.3,0.3
		s-0.2,0.2-0.2,0.4c0,0.1-0.1,0.2-0.1,0.3c0,0.1-0.1,0.2-0.1,0.4c0,0.1-0.1,0.2-0.1,0.3c0,0.1,0,0.2,0,0.3c0,0,0,0.1,0,0.1
		c0,0.1,0,0.1,0.1,0.2c0,0.1,0.1,0.1,0.1,0.2s0.1,0.1,0.2,0.1c0.2,0,0.3-0.1,0.5-0.4c0.2-0.2,0.3-0.5,0.5-0.8s0.3-0.6,0.4-0.9
		C857,145,857.1,144.8,857.1,144.8z"/>
</g>
<g class="st1">
	<path d="M837.8,122.1c0.1-0.3,0.3-0.5,0.5-0.7c0.2-0.2,0.4-0.2,0.7-0.2c0.4,0,0.6,0.1,0.8,0.3c0.1,0.2,0.2,0.4,0.2,0.6
		c0,0.3-0.2,0.7-0.6,1c0.3,0.1,0.5,0.3,0.6,0.5c0.1,0.2,0.2,0.4,0.2,0.7c0,0.4-0.1,0.7-0.4,1c-0.3,0.4-0.8,0.6-1.4,0.6
		c-0.3,0-0.5,0-0.6-0.1c-0.1-0.1-0.2-0.2-0.2-0.2c0-0.1,0-0.1,0.1-0.2c0.1,0,0.1-0.1,0.2-0.1c0.1,0,0.1,0,0.2,0c0,0,0.1,0.1,0.3,0.1
		s0.2,0.1,0.3,0.1c0.1,0,0.2,0,0.3,0c0.2,0,0.4-0.1,0.6-0.3s0.2-0.4,0.2-0.6c0-0.2,0-0.3-0.1-0.5c-0.1-0.1-0.1-0.2-0.2-0.3
		c-0.1-0.1-0.2-0.2-0.4-0.2s-0.3-0.1-0.5-0.1h-0.1v-0.1c0.2,0,0.3-0.1,0.5-0.2s0.3-0.2,0.4-0.4c0.1-0.1,0.1-0.3,0.1-0.5
		c0-0.2-0.1-0.4-0.2-0.5c-0.1-0.1-0.3-0.2-0.5-0.2c-0.3,0-0.6,0.2-0.9,0.5L837.8,122.1z"/>
</g>
<path d="M707.8,185.9c8.9,8.6,18,2.2,19.5-9.8l0,0C725.4,187.4,716.2,193.7,707.8,185.9"/>
<path d="M740.4,131.9c8.6-9.8,27.8-12.9,39.1-6.3l0,0C768.4,119.8,749.1,122.9,740.4,131.9"/>
<path d="M870.2,135.2c3.7,11.2,14.9,19,21.8,10l0,0C885.4,153.4,874.2,145.6,870.2,135.2"/>
<g class="st1">
	<path d="M51.9,46.5v-8.6h2.6l1.6,5.9l1.5-5.9h2.6v8.6h-1.6v-6.8l-1.7,6.8h-1.7l-1.7-6.8v6.8H51.9z"/>
	<path d="M64.8,44.2l1.6-0.2c0.1,0.4,0.2,0.7,0.4,0.9s0.5,0.3,0.8,0.3c0.3,0,0.6-0.1,0.9-0.4s0.3-0.6,0.3-1c0-0.4-0.1-0.7-0.3-1
		s-0.5-0.4-0.8-0.4c-0.2,0-0.5,0-0.8,0.1l0.2-1.3c0.4,0,0.8-0.1,1-0.3s0.4-0.5,0.4-0.8c0-0.3-0.1-0.5-0.3-0.7s-0.4-0.3-0.7-0.3
		c-0.3,0-0.5,0.1-0.7,0.3s-0.3,0.5-0.4,0.9l-1.5-0.3c0.1-0.5,0.3-0.9,0.5-1.2s0.5-0.6,0.9-0.7s0.8-0.3,1.3-0.3
		c0.8,0,1.5,0.3,1.9,0.8c0.4,0.4,0.6,0.9,0.6,1.4c0,0.8-0.4,1.4-1.2,1.8c0.5,0.1,0.9,0.3,1.2,0.7s0.4,0.8,0.4,1.3
		c0,0.8-0.3,1.4-0.8,1.9s-1.2,0.8-2.1,0.8c-0.8,0-1.4-0.2-1.9-0.7S64.9,44.9,64.8,44.2z"/>
	<path d="M75.7,46.5h-1.6v-6.2c-0.6,0.6-1.3,1-2.1,1.2V40c0.4-0.1,0.9-0.4,1.4-0.8s0.8-0.9,1-1.4h1.3V46.5z"/>
	<path d="M78.2,39.6V38h5.6v1.2c-0.5,0.5-0.9,1.1-1.4,2s-0.8,1.8-1.1,2.7s-0.4,1.8-0.4,2.6h-1.6c0-1.2,0.3-2.4,0.7-3.6
		s1.1-2.3,1.9-3.3H78.2z"/>
	<path d="M88.1,43.7l1.7-0.2c0.1,0.6,0.3,1,0.6,1.2s0.7,0.4,1.3,0.4c0.6,0,1-0.1,1.3-0.4s0.4-0.5,0.4-0.8c0-0.2-0.1-0.4-0.2-0.5
		s-0.3-0.3-0.6-0.4c-0.2-0.1-0.7-0.2-1.4-0.4c-0.9-0.2-1.6-0.5-2-0.8c-0.5-0.5-0.8-1-0.8-1.7c0-0.4,0.1-0.8,0.4-1.2s0.6-0.7,1.1-0.9
		s1-0.3,1.7-0.3c1.1,0,1.9,0.2,2.4,0.7s0.8,1.1,0.9,1.9l-1.7,0.1c-0.1-0.4-0.2-0.8-0.5-1s-0.6-0.3-1.1-0.3c-0.5,0-0.9,0.1-1.2,0.3
		c-0.2,0.1-0.3,0.3-0.3,0.5c0,0.2,0.1,0.4,0.3,0.5c0.2,0.2,0.8,0.4,1.6,0.6s1.5,0.4,1.9,0.6s0.7,0.5,0.9,0.9s0.3,0.8,0.3,1.4
		c0,0.5-0.1,1-0.4,1.4s-0.7,0.7-1.2,1s-1.1,0.3-1.9,0.3c-1.1,0-1.9-0.3-2.5-0.8S88.3,44.7,88.1,43.7z"/>
	<path d="M96.5,46.5v-8.6h1.6v4.6l1.9-2.2h2l-2.1,2.3l2.3,3.9h-1.8l-1.6-2.8l-0.8,0.8v2H96.5z"/>
	<path d="M106.1,46.5v-1.7h-3.5v-1.4l3.7-5.5h1.4v5.4h1.1v1.4h-1.1v1.7H106.1z M106.1,43.3v-2.9l-2,2.9H106.1z"/>
	<path d="M109.9,46.5v-1.6h1.6v1.6H109.9z"/>
	<path d="M117.1,46.5h-1.6v-6.2c-0.6,0.6-1.3,1-2.1,1.2V40c0.4-0.1,0.9-0.4,1.4-0.8s0.8-0.9,1-1.4h1.3V46.5z"/>
</g>
<path d="M83.8,207.7c-7.2,11.5,3.1,21.9-3.7,27h0.3c8.2-6.8-1.9-15.5,3.4-26.7L83.8,207.7z"/>
<path d="M83.8,261.7c-7.2-11.5,3.1-21.9-3.7-27h0.3c8.2,6.8-1.9,15.5,3.4,26.7L83.8,261.7z"/>
<path class="st0" d="M631.9,125.2h-1.4v19.1h1.4"/>
<path class="st0" d="M638,125.2h1.4v19.1H638"/>
<path class="st0" d="M640.7,205.9h-1.4V225h1.4"/>
<path class="st0" d="M646.8,205.9h1.4V225h-1.4"/>
<path class="st0" d="M640.7,165.4h-1.4v19.1h1.4"/>
<path class="st0" d="M646.8,165.4h1.4v19.1h-1.4"/>
<path class="st0" d="M644.8,98.9c-0.6,0.3-5.7,2.4-7.2,8c-1,3.8-0.1,7.8,2.3,10.8"/>
<path d="M641.5,119.4c-1.2-0.6-2.4-1-3.7-1.2l1.9-0.8l0.9-1.8C640.6,116.9,641,118.2,641.5,119.4z"/>
<line class="st0" x1="848.3" y1="128.4" x2="910.4" y2="212.5"/>
<path class="st0" d="M855,114.9c-4.6,0.7-14.3,1.5-14,7.5c0.3,8-0.5,13.5,0,22.8c0.3,6.5,0.5,18.9-0.5,44.5
	c-1.1,26.7-2.8,35.2,1.8,38c8,4.9,17.7,4.5,27.2,3.5"/>
<polyline class="st4" points="83.8,86.9 83.8,98.9 935.2,98.9 935.2,86.9 "/>
<g class="st1">
	<path d="M481.4,91.9l1.7-0.2c0.1,0.6,0.3,1,0.6,1.2s0.7,0.4,1.3,0.4c0.6,0,1-0.1,1.3-0.4s0.4-0.5,0.4-0.8c0-0.2-0.1-0.4-0.2-0.5
		s-0.3-0.3-0.6-0.4c-0.2-0.1-0.7-0.2-1.4-0.4c-0.9-0.2-1.6-0.5-2-0.8c-0.5-0.5-0.8-1-0.8-1.7c0-0.4,0.1-0.8,0.4-1.2s0.6-0.7,1.1-0.9
		s1-0.3,1.7-0.3c1.1,0,1.9,0.2,2.4,0.7s0.8,1.1,0.9,1.9l-1.7,0.1c-0.1-0.4-0.2-0.8-0.5-1s-0.6-0.3-1.1-0.3c-0.5,0-0.9,0.1-1.2,0.3
		c-0.2,0.1-0.3,0.3-0.3,0.5c0,0.2,0.1,0.4,0.3,0.5c0.2,0.2,0.8,0.4,1.6,0.6s1.5,0.4,1.9,0.6s0.7,0.5,0.9,0.9s0.3,0.8,0.3,1.4
		c0,0.5-0.1,1-0.4,1.4s-0.7,0.7-1.2,1s-1.1,0.3-1.9,0.3c-1.1,0-1.9-0.3-2.5-0.8S481.5,92.8,481.4,91.9z"/>
	<path d="M489.8,94.7v-8.6h1.6v4.6l1.9-2.2h2l-2.1,2.3l2.3,3.9h-1.8l-1.6-2.8l-0.8,0.8v2H489.8z"/>
	<path d="M499.4,94.7v-1.7h-3.5v-1.4l3.7-5.5h1.4v5.4h1.1v1.4H501v1.7H499.4z M499.4,91.5v-2.9l-2,2.9H499.4z"/>
</g>
<g class="st1">
	<path d="M508.5,94.7v-7.1h-2.5v-1.5h6.8v1.5h-2.5v7.1H508.5z"/>
</g>
<g class="st1">
	<path d="M512.6,94.7V93h1.6v1.6H512.6z"/>
	<path d="M518.7,92.2v-1.4c0.3,0,0.5-0.1,0.6-0.1s0.3-0.2,0.4-0.4s0.2-0.4,0.2-0.6c0-0.2,0-0.5,0-1c0-0.8,0-1.3,0.1-1.6
		s0.2-0.5,0.4-0.7s0.5-0.3,0.8-0.4c0.2-0.1,0.6-0.1,1.1-0.1h0.3v1.4c-0.4,0-0.7,0-0.8,0.1s-0.2,0.1-0.3,0.2s-0.1,0.3-0.1,0.5
		c0,0.2,0,0.7-0.1,1.4c0,0.4-0.1,0.7-0.2,0.9s-0.2,0.4-0.3,0.6s-0.3,0.3-0.6,0.5c0.2,0.1,0.4,0.3,0.6,0.5s0.3,0.4,0.3,0.6
		s0.1,0.6,0.2,1c0,0.6,0,1.1,0,1.2c0,0.3,0,0.4,0.1,0.5s0.2,0.2,0.3,0.2s0.4,0.1,0.8,0.1v1.4h-0.3c-0.5,0-0.9,0-1.2-0.1
		s-0.5-0.2-0.7-0.4s-0.3-0.4-0.4-0.7s-0.1-0.7-0.1-1.4c0-0.7,0-1.2-0.1-1.4c-0.1-0.3-0.2-0.5-0.4-0.7S519.1,92.3,518.7,92.2z"/>
	<path d="M527.8,94.7h-1.6v-6.2c-0.6,0.6-1.3,1-2.1,1.2v-1.5c0.4-0.1,0.9-0.4,1.4-0.8s0.8-0.9,1-1.4h1.3V94.7z"/>
	<path d="M538.3,94.7h-1.9l-0.8-2h-3.4l-0.7,2h-1.8l3.3-8.6h1.8L538.3,94.7z M535.1,91.3l-1.2-3.2l-1.2,3.2H535.1z"/>
	<path d="M542.6,92.2c-0.3,0-0.5,0.1-0.6,0.1s-0.3,0.2-0.4,0.4s-0.2,0.4-0.2,0.6c0,0.2,0,0.5,0,1c0,0.8,0,1.3-0.1,1.6
		s-0.2,0.5-0.4,0.7s-0.5,0.3-0.8,0.4c-0.2,0.1-0.6,0.1-1.1,0.1h-0.3v-1.4c0.4,0,0.7,0,0.8-0.1s0.2-0.1,0.3-0.2s0.1-0.3,0.1-0.5
		s0-0.7,0-1.4c0-0.4,0.1-0.7,0.2-1s0.2-0.5,0.3-0.6s0.3-0.3,0.5-0.4c-0.3-0.2-0.5-0.4-0.6-0.6c-0.2-0.3-0.3-0.6-0.4-1
		c0-0.3-0.1-0.9-0.1-1.8c0-0.3,0-0.5-0.1-0.6s-0.1-0.2-0.3-0.2s-0.4-0.1-0.9-0.1v-1.4h0.3c0.5,0,0.9,0,1.2,0.1s0.5,0.2,0.7,0.4
		s0.3,0.4,0.4,0.7s0.1,0.7,0.1,1.4c0,0.7,0,1.2,0.1,1.4c0.1,0.3,0.2,0.5,0.4,0.7s0.4,0.2,0.8,0.2V92.2z"/>
	<path d="M543,92.2v-1.2h6.7v1.2H543z"/>
	<path d="M550.2,92.4l1.6-0.2c0.1,0.4,0.2,0.7,0.4,0.9s0.5,0.3,0.8,0.3c0.3,0,0.6-0.1,0.9-0.4s0.3-0.6,0.3-1c0-0.4-0.1-0.7-0.3-1
		s-0.5-0.4-0.8-0.4c-0.2,0-0.5,0-0.8,0.1l0.2-1.3c0.4,0,0.8-0.1,1-0.3s0.4-0.5,0.4-0.8c0-0.3-0.1-0.5-0.3-0.7s-0.4-0.3-0.7-0.3
		c-0.3,0-0.5,0.1-0.7,0.3s-0.3,0.5-0.4,0.9l-1.5-0.3c0.1-0.5,0.3-0.9,0.5-1.2s0.5-0.6,0.9-0.7s0.8-0.3,1.3-0.3
		c0.8,0,1.5,0.3,1.9,0.8c0.4,0.4,0.6,0.9,0.6,1.4c0,0.8-0.4,1.4-1.2,1.8c0.5,0.1,0.9,0.3,1.2,0.7s0.4,0.8,0.4,1.3
		c0,0.8-0.3,1.4-0.8,1.9s-1.2,0.8-2.1,0.8c-0.8,0-1.4-0.2-1.9-0.7S550.2,93.1,550.2,92.4z"/>
</g>
<g class="st1">
	<path d="M565,94.7h-1.9l-0.8-2h-3.4l-0.7,2h-1.8l3.3-8.6h1.8L565,94.7z M561.8,91.3l-1.2-3.2l-1.2,3.2H561.8z"/>
</g>
<g class="st1">
	<path d="M673.5,143.9c0,0.1,0,0.2-0.1,0.3c0,0.1-0.1,0.2-0.2,0.3c-0.1,0.1-0.2,0.2-0.3,0.2s-0.2,0.1-0.4,0.1
		c-0.2,0-0.3-0.1-0.3-0.2c-0.1-0.1-0.1-0.2-0.1-0.3c0-0.1,0-0.2,0.1-0.2c0-0.1,0.1-0.1,0.2-0.2c0.1-0.1,0.1-0.1,0.2-0.2
		c0.1-0.1,0.1-0.1,0.2-0.2c0-0.1,0-0.1-0.1-0.1c-0.1,0-0.1,0-0.2,0c-0.2,0-0.3,0-0.5,0.1c-0.1,0.1-0.2,0.1-0.3,0.2s-0.2,0.2-0.2,0.4
		s-0.1,0.3-0.2,0.4c0,0.1-0.1,0.3-0.2,0.5c-0.1,0.2-0.1,0.5-0.2,0.7h1.3v0.3h-0.7H671c0,0.1-0.1,0.2-0.1,0.4c0,0.1-0.1,0.3-0.1,0.4
		c0,0.1-0.1,0.2-0.1,0.4s0,0.2-0.1,0.2c-0.1,0.2-0.1,0.3-0.2,0.5c0,0.1-0.1,0.3-0.1,0.4c0,0.1-0.1,0.3-0.1,0.4
		c-0.1,0.1-0.1,0.3-0.2,0.5c-0.1,0.3-0.3,0.6-0.5,1c-0.2,0.4-0.5,0.7-0.8,1c-0.2,0.2-0.5,0.4-0.8,0.5c-0.3,0.1-0.5,0.1-0.8,0.1
		c-0.1,0-0.2,0-0.3-0.1s-0.2-0.1-0.3-0.2c-0.1-0.1-0.2-0.2-0.2-0.3s-0.1-0.2-0.1-0.4c0-0.1,0-0.2,0-0.3s0.1-0.2,0.1-0.3
		s0.1-0.2,0.2-0.2c0.1-0.1,0.2-0.1,0.3-0.1c0.2,0,0.3,0.1,0.4,0.2c0.1,0.1,0.1,0.3,0.1,0.5c0,0.1-0.1,0.3-0.1,0.3
		c-0.1,0.1-0.1,0.1-0.2,0.2s-0.1,0.1-0.2,0.1c0,0-0.1,0.1-0.1,0.1c0,0,0.1,0.1,0.1,0.1c0,0,0.1,0,0.1,0c0.1,0,0.3-0.1,0.4-0.2
		s0.2-0.3,0.3-0.4s0.2-0.4,0.3-0.6s0.2-0.4,0.2-0.6s0.1-0.4,0.2-0.5c0-0.2,0.1-0.3,0.1-0.3c0.1-0.2,0.1-0.4,0.2-0.6
		c0.1-0.2,0.1-0.4,0.2-0.7s0.1-0.5,0.2-0.7c0.1-0.2,0.1-0.5,0.2-0.8h-1.2v-0.3h1.3c0.1-0.3,0.2-0.5,0.3-0.7c0.1-0.2,0.2-0.4,0.4-0.6
		c0.3-0.5,0.7-0.8,1.1-1s0.8-0.3,1.3-0.3c0.2,0,0.4,0.1,0.6,0.3C673.4,143.5,673.5,143.7,673.5,143.9z"/>
</g>
<g class="st1">
	<path d="M720.9,168.5v-2.2h0.4v2.1l1.3-0.4v-2h0.4v1.8l0.5-0.2v1.4l-0.5,0.2v2l0.5-0.2v1.4l-0.5,0.2v2.2h-0.4v-2.1l-1.3,0.4v2h-0.4
		v-1.9l-0.6,0.2v-1.4l0.6-0.2v-2l-0.6,0.2v-1.4L720.9,168.5z M721.3,169.8v2l1.3-0.4v-2L721.3,169.8z"/>
</g>
<line class="st5" x1="802.6" y1="145.5" x2="803.1" y2="145.6"/>
<line class="st6" x1="804.1" y1="145.7" x2="819.5" y2="147.3"/>
<polyline class="st5" points="820,147.4 820.5,147.4 820,147.5 "/>
<line class="st6" x1="819" y1="147.6" x2="803.6" y2="149.3"/>
<line class="st5" x1="803.1" y1="149.3" x2="802.6" y2="149.4"/>
</svg>
