<?xml version="1.0" encoding="UTF-8" standalone="no"?>
<!DOCTYPE svg PUBLIC "-//W3C//DTD SVG 1.1//EN"
 "http://www.w3.org/Graphics/SVG/1.1/DTD/svg11.dtd">
<!-- Generated by graphviz version 2.47.3 (20210619.1520)
 -->
<!-- Title: dependencies Pages: 1 -->
<svg width="512pt" height="174pt"
 viewBox="0.00 0.00 512.00 173.80" xmlns="http://www.w3.org/2000/svg" xmlns:xlink="http://www.w3.org/1999/xlink">
<g id="graph0" class="graph" transform="scale(1 1) rotate(0) translate(4 169.8)">
<title>dependencies</title>
<polygon fill="white" stroke="transparent" points="-4,4 -4,-169.8 508,-169.8 508,4 -4,4"/>
<text text-anchor="middle" x="252" y="-8.2" font-family="sans-serif" font-size="14.00">dependencies</text>
<g id="clust1" class="cluster">
<title>cluster_HomeViewModule</title>
<polygon fill="none" stroke="black" stroke-dasharray="1,5" points="8,-32.8 8,-157.8 496,-157.8 496,-32.8 8,-32.8"/>
</g>
<g id="clust2" class="cluster">
<title>cluster_HomeViewModule_declarations</title>
<polygon fill="none" stroke="black" points="326,-40.8 326,-92.8 488,-92.8 488,-40.8 326,-40.8"/>
</g>
<g id="clust4" class="cluster">
<title>cluster_HomeViewModule_imports</title>
<polygon fill="none" stroke="black" points="16,-40.8 16,-92.8 318,-92.8 318,-40.8 16,-40.8"/>
</g>
<!-- HomeViewComponent -->
<g id="node1" class="node">
<title>HomeViewComponent</title>
<polygon fill="#ffffb3" stroke="black" points="479.86,-84.8 334.14,-84.8 334.14,-48.8 479.86,-48.8 479.86,-84.8"/>
<text text-anchor="middle" x="407" y="-62.6" font-family="Times,serif" font-size="14.00">HomeViewComponent</text>
</g>
<!-- HomeViewModule -->
<g id="node2" class="node">
<title>HomeViewModule</title>
<polygon fill="#8dd3c7" stroke="black" points="287.08,-149.8 284.08,-153.8 263.08,-153.8 260.08,-149.8 162.92,-149.8 162.92,-113.8 287.08,-113.8 287.08,-149.8"/>
<text text-anchor="middle" x="225" y="-127.6" font-family="Times,serif" font-size="14.00">HomeViewModule</text>
</g>
<!-- HomeViewComponent&#45;&gt;HomeViewModule -->
<g id="edge1" class="edge">
<title>HomeViewComponent&#45;&gt;HomeViewModule</title>
<path fill="none" stroke="black" d="M407,-84.91C407,-104.14 407,-131.8 407,-131.8 407,-131.8 297.13,-131.8 297.13,-131.8"/>
<polygon fill="black" stroke="black" points="297.13,-128.3 287.13,-131.8 297.13,-135.3 297.13,-128.3"/>
</g>
<!-- HomeViewRoutingModule -->
<g id="node3" class="node">
<title>HomeViewRoutingModule</title>
<polygon fill="#8dd3c7" stroke="black" points="309.7,-84.8 306.7,-88.8 285.7,-88.8 282.7,-84.8 140.3,-84.8 140.3,-48.8 309.7,-48.8 309.7,-84.8"/>
<text text-anchor="middle" x="225" y="-62.6" font-family="Times,serif" font-size="14.00">HomeViewRoutingModule</text>
</g>
<!-- HomeViewRoutingModule&#45;&gt;HomeViewModule -->
<g id="edge2" class="edge">
<title>HomeViewRoutingModule&#45;&gt;HomeViewModule</title>
<path fill="none" stroke="black" d="M225,-84.91C225,-84.91 225,-103.79 225,-103.79"/>
<polygon fill="black" stroke="black" points="221.5,-103.79 225,-113.79 228.5,-103.79 221.5,-103.79"/>
</g>
<!-- SharedModule -->
<g id="node4" class="node">
<title>SharedModule</title>
<polygon fill="#8dd3c7" stroke="black" points="122.42,-84.8 119.42,-88.8 98.42,-88.8 95.42,-84.8 23.58,-84.8 23.58,-48.8 122.42,-48.8 122.42,-84.8"/>
<text text-anchor="middle" x="73" y="-62.6" font-family="Times,serif" font-size="14.00">SharedModule</text>
</g>
<!-- SharedModule&#45;&gt;HomeViewModule -->
<g id="edge3" class="edge">
<title>SharedModule&#45;&gt;HomeViewModule</title>
<path fill="none" stroke="black" d="M73,-84.91C73,-104.14 73,-131.8 73,-131.8 73,-131.8 152.74,-131.8 152.74,-131.8"/>
<polygon fill="black" stroke="black" points="152.74,-135.3 162.74,-131.8 152.74,-128.3 152.74,-135.3"/>
</g>
</g>
</svg>
