<?xml version="1.0" encoding="UTF-8" standalone="no"?>
<!DOCTYPE svg PUBLIC "-//W3C//DTD SVG 1.1//EN"
 "http://www.w3.org/Graphics/SVG/1.1/DTD/svg11.dtd">
<!-- Generated by graphviz version 2.47.3 (20210619.1520)
 -->
<!-- Title: dependencies Pages: 1 -->
<svg width="512pt" height="174pt"
 viewBox="0.00 0.00 512.00 173.80" xmlns="http://www.w3.org/2000/svg" xmlns:xlink="http://www.w3.org/1999/xlink">
<g id="graph0" class="graph" transform="scale(1 1) rotate(0) translate(4 169.8)">
<title>dependencies</title>
<polygon fill="white" stroke="transparent" points="-4,4 -4,-169.8 508,-169.8 508,4 -4,4"/>
<text text-anchor="middle" x="252" y="-8.2" font-family="sans-serif" font-size="14.00">dependencies</text>
<g id="clust1" class="cluster">
<title>cluster_HomeViewModule</title>
<polygon fill="none" stroke="black" stroke-dasharray="1,5" points="8,-32.8 8,-157.8 496,-157.8 496,-32.8 8,-32.8"/>
</g>
<g id="clust4" class="cluster">
<title>cluster_HomeViewModule_imports</title>
<polygon fill="none" stroke="black" points="186,-40.8 186,-92.8 488,-92.8 488,-40.8 186,-40.8"/>
</g>
<g id="clust2" class="cluster">
<title>cluster_HomeViewModule_declarations</title>
<polygon fill="none" stroke="black" points="16,-40.8 16,-92.8 178,-92.8 178,-40.8 16,-40.8"/>
</g>
<!-- HomeViewComponent -->
<g id="node1" class="node">
<title>HomeViewComponent</title>
<polygon fill="#ffffb3" stroke="black" points="169.86,-84.8 24.14,-84.8 24.14,-48.8 169.86,-48.8 169.86,-84.8"/>
<text text-anchor="middle" x="97" y="-62.6" font-family="Times,serif" font-size="14.00">HomeViewComponent</text>
</g>
<!-- HomeViewModule -->
<g id="node2" class="node">
<title>HomeViewModule</title>
<polygon fill="#8dd3c7" stroke="black" points="305.08,-149.8 302.08,-153.8 281.08,-153.8 278.08,-149.8 180.92,-149.8 180.92,-113.8 305.08,-113.8 305.08,-149.8"/>
<text text-anchor="middle" x="243" y="-127.6" font-family="Times,serif" font-size="14.00">HomeViewModule</text>
</g>
<!-- HomeViewComponent&#45;&gt;HomeViewModule -->
<g id="edge1" class="edge">
<title>HomeViewComponent&#45;&gt;HomeViewModule</title>
<path fill="none" stroke="black" d="M169.95,-66.8C180.23,-66.8 187.37,-66.8 187.37,-66.8 187.37,-66.8 187.37,-103.69 187.37,-103.69"/>
<polygon fill="black" stroke="black" points="183.87,-103.69 187.37,-113.69 190.87,-103.69 183.87,-103.69"/>
</g>
<!-- HomeViewRoutingModule -->
<g id="node3" class="node">
<title>HomeViewRoutingModule</title>
<polygon fill="#8dd3c7" stroke="black" points="479.7,-84.8 476.7,-88.8 455.7,-88.8 452.7,-84.8 310.3,-84.8 310.3,-48.8 479.7,-48.8 479.7,-84.8"/>
<text text-anchor="middle" x="395" y="-62.6" font-family="Times,serif" font-size="14.00">HomeViewRoutingModule</text>
</g>
<!-- HomeViewRoutingModule&#45;&gt;HomeViewModule -->
<g id="edge2" class="edge">
<title>HomeViewRoutingModule&#45;&gt;HomeViewModule</title>
<path fill="none" stroke="black" d="M310.06,-66.8C303.07,-66.8 298.63,-66.8 298.63,-66.8 298.63,-66.8 298.63,-103.69 298.63,-103.69"/>
<polygon fill="black" stroke="black" points="295.13,-103.69 298.63,-113.69 302.13,-103.69 295.13,-103.69"/>
</g>
<!-- SharedModule -->
<g id="node4" class="node">
<title>SharedModule</title>
<polygon fill="#8dd3c7" stroke="black" points="292.42,-84.8 289.42,-88.8 268.42,-88.8 265.42,-84.8 193.58,-84.8 193.58,-48.8 292.42,-48.8 292.42,-84.8"/>
<text text-anchor="middle" x="243" y="-62.6" font-family="Times,serif" font-size="14.00">SharedModule</text>
</g>
<!-- SharedModule&#45;&gt;HomeViewModule -->
<g id="edge3" class="edge">
<title>SharedModule&#45;&gt;HomeViewModule</title>
<path fill="none" stroke="black" d="M243,-84.91C243,-84.91 243,-103.79 243,-103.79"/>
<polygon fill="black" stroke="black" points="239.5,-103.79 243,-113.79 246.5,-103.79 239.5,-103.79"/>
</g>
</g>
</svg>
