<?xml version="1.0" encoding="UTF-8" standalone="no"?>
<!DOCTYPE svg PUBLIC "-//W3C//DTD SVG 1.1//EN"
 "http://www.w3.org/Graphics/SVG/1.1/DTD/svg11.dtd">
<!-- Generated by graphviz version 2.47.0 (20210316.0004)
 -->
<!-- Title: dependencies Pages: 1 -->
<svg width="512pt" height="211pt"
 viewBox="0.00 0.00 512.00 211.00" xmlns="http://www.w3.org/2000/svg" xmlns:xlink="http://www.w3.org/1999/xlink">
<g id="graph0" class="graph" transform="scale(1 1) rotate(0) translate(4 207)">
<title>dependencies</title>
<polygon fill="white" stroke="transparent" points="-4,4 -4,-207 508,-207 508,4 -4,4"/>
<text text-anchor="start" x="231.01" y="-42.4" font-family="sans-serif" font-weight="bold" font-size="14.00">Legend</text>
<polygon fill="#ffffb3" stroke="transparent" points="18,-10 18,-30 38,-30 38,-10 18,-10"/>
<text text-anchor="start" x="41.63" y="-15.4" font-family="sans-serif" font-size="14.00"> &#160;Declarations</text>
<polygon fill="#8dd3c7" stroke="transparent" points="131,-10 131,-30 151,-30 151,-10 131,-10"/>
<text text-anchor="start" x="154.73" y="-15.4" font-family="sans-serif" font-size="14.00"> &#160;Module</text>
<polygon fill="#80b1d3" stroke="transparent" points="217,-10 217,-30 237,-30 237,-10 217,-10"/>
<text text-anchor="start" x="240.78" y="-15.4" font-family="sans-serif" font-size="14.00"> &#160;Bootstrap</text>
<polygon fill="#fdb462" stroke="transparent" points="314,-10 314,-30 334,-30 334,-10 314,-10"/>
<text text-anchor="start" x="337.67" y="-15.4" font-family="sans-serif" font-size="14.00"> &#160;Providers</text>
<polygon fill="#fb8072" stroke="transparent" points="410,-10 410,-30 430,-30 430,-10 410,-10"/>
<text text-anchor="start" x="433.73" y="-15.4" font-family="sans-serif" font-size="14.00"> &#160;Exports</text>
<g id="clust1" class="cluster">
<title>cluster_HomeViewModule</title>
<polygon fill="none" stroke="black" stroke-dasharray="1,5" points="8,-70 8,-195 496,-195 496,-70 8,-70"/>
</g>
<g id="clust4" class="cluster">
<title>cluster_HomeViewModule_imports</title>
<polygon fill="none" stroke="black" points="186,-78 186,-130 488,-130 488,-78 186,-78"/>
</g>
<g id="clust2" class="cluster">
<title>cluster_HomeViewModule_declarations</title>
<polygon fill="none" stroke="black" points="16,-78 16,-130 178,-130 178,-78 16,-78"/>
</g>
<!-- HomeViewComponent -->
<g id="node1" class="node">
<title>HomeViewComponent</title>
<polygon fill="#ffffb3" stroke="black" points="169.86,-122 24.14,-122 24.14,-86 169.86,-86 169.86,-122"/>
<text text-anchor="middle" x="97" y="-99.8" font-family="Times,serif" font-size="14.00">HomeViewComponent</text>
</g>
<!-- HomeViewModule -->
<g id="node2" class="node">
<title>HomeViewModule</title>
<polygon fill="#8dd3c7" stroke="black" points="305.08,-187 302.08,-191 281.08,-191 278.08,-187 180.92,-187 180.92,-151 305.08,-151 305.08,-187"/>
<text text-anchor="middle" x="243" y="-164.8" font-family="Times,serif" font-size="14.00">HomeViewModule</text>
</g>
<!-- HomeViewComponent&#45;&gt;HomeViewModule -->
<g id="edge1" class="edge">
<title>HomeViewComponent&#45;&gt;HomeViewModule</title>
<path fill="none" stroke="black" d="M169.95,-104C180.23,-104 187.37,-104 187.37,-104 187.37,-104 187.37,-140.89 187.37,-140.89"/>
<polygon fill="black" stroke="black" points="183.87,-140.89 187.37,-150.89 190.87,-140.89 183.87,-140.89"/>
</g>
<!-- HomeViewRoutingModule -->
<g id="node3" class="node">
<title>HomeViewRoutingModule</title>
<polygon fill="#8dd3c7" stroke="black" points="479.7,-122 476.7,-126 455.7,-126 452.7,-122 310.3,-122 310.3,-86 479.7,-86 479.7,-122"/>
<text text-anchor="middle" x="395" y="-99.8" font-family="Times,serif" font-size="14.00">HomeViewRoutingModule</text>
</g>
<!-- HomeViewRoutingModule&#45;&gt;HomeViewModule -->
<g id="edge2" class="edge">
<title>HomeViewRoutingModule&#45;&gt;HomeViewModule</title>
<path fill="none" stroke="black" d="M310.06,-104C303.07,-104 298.63,-104 298.63,-104 298.63,-104 298.63,-140.89 298.63,-140.89"/>
<polygon fill="black" stroke="black" points="295.13,-140.89 298.63,-150.89 302.13,-140.89 295.13,-140.89"/>
</g>
<!-- SharedModule -->
<g id="node4" class="node">
<title>SharedModule</title>
<polygon fill="#8dd3c7" stroke="black" points="292.42,-122 289.42,-126 268.42,-126 265.42,-122 193.58,-122 193.58,-86 292.42,-86 292.42,-122"/>
<text text-anchor="middle" x="243" y="-99.8" font-family="Times,serif" font-size="14.00">SharedModule</text>
</g>
<!-- SharedModule&#45;&gt;HomeViewModule -->
<g id="edge3" class="edge">
<title>SharedModule&#45;&gt;HomeViewModule</title>
<path fill="none" stroke="black" d="M243,-122.11C243,-122.11 243,-140.99 243,-140.99"/>
<polygon fill="black" stroke="black" points="239.5,-140.99 243,-150.99 246.5,-140.99 239.5,-140.99"/>
</g>
</g>
</svg>
