<?xml version="1.0" encoding="UTF-8" standalone="no"?>
<!DOCTYPE svg PUBLIC "-//W3C//DTD SVG 1.1//EN"
 "http://www.w3.org/Graphics/SVG/1.1/DTD/svg11.dtd">
<!-- Generated by graphviz version 2.40.1 (20161225.0304)
 -->
<!-- Title: dependencies Pages: 1 -->
<svg width="512pt" height="211pt"
 viewBox="0.00 0.00 512.00 211.00" xmlns="http://www.w3.org/2000/svg" xmlns:xlink="http://www.w3.org/1999/xlink">
<g id="graph0" class="graph" transform="scale(1 1) rotate(0) translate(4 207)">
<title>dependencies</title>
<polygon fill="#ffffff" stroke="transparent" points="-4,4 -4,-207 508,-207 508,4 -4,4"/>
<text text-anchor="start" x="231.0091" y="-42.4" font-family="sans-serif" font-weight="bold" font-size="14.00" fill="#000000">Legend</text>
<polygon fill="#ffffb3" stroke="transparent" points="18,-10 18,-30 38,-30 38,-10 18,-10"/>
<text text-anchor="start" x="41.629" y="-15.4" font-family="sans-serif" font-size="14.00" fill="#000000"> &#160;Declarations</text>
<polygon fill="#8dd3c7" stroke="transparent" points="131,-10 131,-30 151,-30 151,-10 131,-10"/>
<text text-anchor="start" x="154.7251" y="-15.4" font-family="sans-serif" font-size="14.00" fill="#000000"> &#160;Module</text>
<polygon fill="#80b1d3" stroke="transparent" points="217,-10 217,-30 237,-30 237,-10 217,-10"/>
<text text-anchor="start" x="240.7812" y="-15.4" font-family="sans-serif" font-size="14.00" fill="#000000"> &#160;Bootstrap</text>
<polygon fill="#fdb462" stroke="transparent" points="314,-10 314,-30 334,-30 334,-10 314,-10"/>
<text text-anchor="start" x="337.6732" y="-15.4" font-family="sans-serif" font-size="14.00" fill="#000000"> &#160;Providers</text>
<polygon fill="#fb8072" stroke="transparent" points="410,-10 410,-30 430,-30 430,-10 410,-10"/>
<text text-anchor="start" x="433.7258" y="-15.4" font-family="sans-serif" font-size="14.00" fill="#000000"> &#160;Exports</text>
<g id="clust1" class="cluster">
<title>cluster_HomeViewModule</title>
<polygon fill="none" stroke="#000000" stroke-dasharray="1,5" points="8,-70 8,-195 496,-195 496,-70 8,-70"/>
</g>
<g id="clust2" class="cluster">
<title>cluster_HomeViewModule_declarations</title>
<polygon fill="none" stroke="#000000" points="326,-78 326,-130 488,-130 488,-78 326,-78"/>
</g>
<g id="clust4" class="cluster">
<title>cluster_HomeViewModule_imports</title>
<polygon fill="none" stroke="#000000" points="16,-78 16,-130 318,-130 318,-78 16,-78"/>
</g>
<!-- HomeViewComponent -->
<g id="node1" class="node">
<title>HomeViewComponent</title>
<polygon fill="#ffffb3" stroke="#000000" points="479.8627,-122 334.1373,-122 334.1373,-86 479.8627,-86 479.8627,-122"/>
<text text-anchor="middle" x="407" y="-99.8" font-family="Times,serif" font-size="14.00" fill="#000000">HomeViewComponent</text>
</g>
<!-- HomeViewModule -->
<g id="node2" class="node">
<title>HomeViewModule</title>
<polygon fill="#8dd3c7" stroke="#000000" points="287.08,-187 284.08,-191 263.08,-191 260.08,-187 162.92,-187 162.92,-151 287.08,-151 287.08,-187"/>
<text text-anchor="middle" x="225" y="-164.8" font-family="Times,serif" font-size="14.00" fill="#000000">HomeViewModule</text>
</g>
<!-- HomeViewComponent&#45;&gt;HomeViewModule -->
<g id="edge1" class="edge">
<title>HomeViewComponent&#45;&gt;HomeViewModule</title>
<path fill="none" stroke="#000000" d="M407,-122.1061C407,-141.3391 407,-169 407,-169 407,-169 297.125,-169 297.125,-169"/>
<polygon fill="#000000" stroke="#000000" points="297.1251,-165.5001 287.125,-169 297.125,-172.5001 297.1251,-165.5001"/>
</g>
<!-- HomeViewRoutingModule -->
<g id="node3" class="node">
<title>HomeViewRoutingModule</title>
<polygon fill="#8dd3c7" stroke="#000000" points="309.6979,-122 306.6979,-126 285.6979,-126 282.6979,-122 140.3021,-122 140.3021,-86 309.6979,-86 309.6979,-122"/>
<text text-anchor="middle" x="225" y="-99.8" font-family="Times,serif" font-size="14.00" fill="#000000">HomeViewRoutingModule</text>
</g>
<!-- HomeViewRoutingModule&#45;&gt;HomeViewModule -->
<g id="edge2" class="edge">
<title>HomeViewRoutingModule&#45;&gt;HomeViewModule</title>
<path fill="none" stroke="#000000" d="M225,-122.1061C225,-122.1061 225,-140.991 225,-140.991"/>
<polygon fill="#000000" stroke="#000000" points="221.5001,-140.9909 225,-150.991 228.5001,-140.991 221.5001,-140.9909"/>
</g>
<!-- SharedModule -->
<g id="node4" class="node">
<title>SharedModule</title>
<polygon fill="#8dd3c7" stroke="#000000" points="122.4231,-122 119.4231,-126 98.4231,-126 95.4231,-122 23.5769,-122 23.5769,-86 122.4231,-86 122.4231,-122"/>
<text text-anchor="middle" x="73" y="-99.8" font-family="Times,serif" font-size="14.00" fill="#000000">SharedModule</text>
</g>
<!-- SharedModule&#45;&gt;HomeViewModule -->
<g id="edge3" class="edge">
<title>SharedModule&#45;&gt;HomeViewModule</title>
<path fill="none" stroke="#000000" d="M73,-122.1061C73,-141.3391 73,-169 73,-169 73,-169 152.7372,-169 152.7372,-169"/>
<polygon fill="#000000" stroke="#000000" points="152.7372,-172.5001 162.7372,-169 152.7372,-165.5001 152.7372,-172.5001"/>
</g>
</g>
</svg>
