<?xml version="1.0" encoding="UTF-8" standalone="no"?>
<!DOCTYPE svg PUBLIC "-//W3C//DTD SVG 1.1//EN"
 "http://www.w3.org/Graphics/SVG/1.1/DTD/svg11.dtd">
<!-- Generated by graphviz version 2.47.0 (20210316.0004)
 -->
<!-- Title: dependencies Pages: 1 -->
<svg width="512pt" height="211pt"
 viewBox="0.00 0.00 512.00 211.00" xmlns="http://www.w3.org/2000/svg" xmlns:xlink="http://www.w3.org/1999/xlink">
<g id="graph0" class="graph" transform="scale(1 1) rotate(0) translate(4 207)">
<title>dependencies</title>
<polygon fill="white" stroke="transparent" points="-4,4 -4,-207 508,-207 508,4 -4,4"/>
<text text-anchor="start" x="231.01" y="-42.4" font-family="sans-serif" font-weight="bold" font-size="14.00">Legend</text>
<polygon fill="#ffffb3" stroke="transparent" points="18,-10 18,-30 38,-30 38,-10 18,-10"/>
<text text-anchor="start" x="41.63" y="-15.4" font-family="sans-serif" font-size="14.00"> &#160;Declarations</text>
<polygon fill="#8dd3c7" stroke="transparent" points="131,-10 131,-30 151,-30 151,-10 131,-10"/>
<text text-anchor="start" x="154.73" y="-15.4" font-family="sans-serif" font-size="14.00"> &#160;Module</text>
<polygon fill="#80b1d3" stroke="transparent" points="217,-10 217,-30 237,-30 237,-10 217,-10"/>
<text text-anchor="start" x="240.78" y="-15.4" font-family="sans-serif" font-size="14.00"> &#160;Bootstrap</text>
<polygon fill="#fdb462" stroke="transparent" points="314,-10 314,-30 334,-30 334,-10 314,-10"/>
<text text-anchor="start" x="337.67" y="-15.4" font-family="sans-serif" font-size="14.00"> &#160;Providers</text>
<polygon fill="#fb8072" stroke="transparent" points="410,-10 410,-30 430,-30 430,-10 410,-10"/>
<text text-anchor="start" x="433.73" y="-15.4" font-family="sans-serif" font-size="14.00"> &#160;Exports</text>
<g id="clust1" class="cluster">
<title>cluster_HomeViewModule</title>
<polygon fill="none" stroke="black" stroke-dasharray="1,5" points="8,-70 8,-195 496,-195 496,-70 8,-70"/>
</g>
<g id="clust2" class="cluster">
<title>cluster_HomeViewModule_declarations</title>
<polygon fill="none" stroke="black" points="326,-78 326,-130 488,-130 488,-78 326,-78"/>
</g>
<g id="clust4" class="cluster">
<title>cluster_HomeViewModule_imports</title>
<polygon fill="none" stroke="black" points="16,-78 16,-130 318,-130 318,-78 16,-78"/>
</g>
<!-- HomeViewComponent -->
<g id="node1" class="node">
<title>HomeViewComponent</title>
<polygon fill="#ffffb3" stroke="black" points="479.86,-122 334.14,-122 334.14,-86 479.86,-86 479.86,-122"/>
<text text-anchor="middle" x="407" y="-99.8" font-family="Times,serif" font-size="14.00">HomeViewComponent</text>
</g>
<!-- HomeViewModule -->
<g id="node2" class="node">
<title>HomeViewModule</title>
<polygon fill="#8dd3c7" stroke="black" points="287.08,-187 284.08,-191 263.08,-191 260.08,-187 162.92,-187 162.92,-151 287.08,-151 287.08,-187"/>
<text text-anchor="middle" x="225" y="-164.8" font-family="Times,serif" font-size="14.00">HomeViewModule</text>
</g>
<!-- HomeViewComponent&#45;&gt;HomeViewModule -->
<g id="edge1" class="edge">
<title>HomeViewComponent&#45;&gt;HomeViewModule</title>
<path fill="none" stroke="black" d="M407,-122.11C407,-141.34 407,-169 407,-169 407,-169 297.13,-169 297.13,-169"/>
<polygon fill="black" stroke="black" points="297.13,-165.5 287.13,-169 297.13,-172.5 297.13,-165.5"/>
</g>
<!-- HomeViewRoutingModule -->
<g id="node3" class="node">
<title>HomeViewRoutingModule</title>
<polygon fill="#8dd3c7" stroke="black" points="309.7,-122 306.7,-126 285.7,-126 282.7,-122 140.3,-122 140.3,-86 309.7,-86 309.7,-122"/>
<text text-anchor="middle" x="225" y="-99.8" font-family="Times,serif" font-size="14.00">HomeViewRoutingModule</text>
</g>
<!-- HomeViewRoutingModule&#45;&gt;HomeViewModule -->
<g id="edge2" class="edge">
<title>HomeViewRoutingModule&#45;&gt;HomeViewModule</title>
<path fill="none" stroke="black" d="M225,-122.11C225,-122.11 225,-140.99 225,-140.99"/>
<polygon fill="black" stroke="black" points="221.5,-140.99 225,-150.99 228.5,-140.99 221.5,-140.99"/>
</g>
<!-- SharedModule -->
<g id="node4" class="node">
<title>SharedModule</title>
<polygon fill="#8dd3c7" stroke="black" points="122.42,-122 119.42,-126 98.42,-126 95.42,-122 23.58,-122 23.58,-86 122.42,-86 122.42,-122"/>
<text text-anchor="middle" x="73" y="-99.8" font-family="Times,serif" font-size="14.00">SharedModule</text>
</g>
<!-- SharedModule&#45;&gt;HomeViewModule -->
<g id="edge3" class="edge">
<title>SharedModule&#45;&gt;HomeViewModule</title>
<path fill="none" stroke="black" d="M73,-122.11C73,-141.34 73,-169 73,-169 73,-169 152.74,-169 152.74,-169"/>
<polygon fill="black" stroke="black" points="152.74,-172.5 162.74,-169 152.74,-165.5 152.74,-172.5"/>
</g>
</g>
</svg>
