<?xml version="1.0" encoding="UTF-8"?>
<svg xmlns="http://www.w3.org/2000/svg" xml:space="preserve" id="svg525" width="1110.92" height="453.405" x="0" y="0" version="1.1" viewBox="0 0 1110.92 453.405">
  <font id="font28" horiz-adv-x="1000" horiz-origin-x="0" horiz-origin-y="0" vert-adv-y="1024" vert-origin-x="512" vert-origin-y="768">
    <font-face id="font-face2" font-family="'Maestro'" underline-position="-78" underline-thickness="9" units-per-em="1000">
      <font-face-src>
        <font-face-name name="Maestro"/>
      </font-face-src>
    </font-face>
    <glyph id="glyph6" d="M466-252c-19-3-38-5-60-6-20-1-41 0-61 2-20 1-39 4-55 6-18 4-31 8-42 13-51 25-93 51-124 79-32 27-57 56-74 86S20-11 14 20C6 52 2 84 0 116c-3 35 0 69 10 104 8 35 21 68 36 100q24 46.5 54 87c21 27 41 50 62 70 24 23 49 45 76 67 26 23 55 46 86 69-1 9-2 16-2 23-2 7-3 14-4 20-1 8-3 15-4 24-2 9-3 19-4 32 0 5-1 15-2 30-1 14-2 31-2 52-1 20 0 43 1 69s5 53 10 81c3 17 11 38 21 64 12 25 24 50 40 74 14 24 30 45 47 62s32 26 47 26c7 0 15-4 24-14 9-8 17-20 26-36 8-14 16-32 24-50 8-20 15-39 21-59s11-40 15-59q4.5-28.5 6-51c1-35-1-65-4-91-3-27-8-50-15-72-7-20-15-40-23-58-10-17-19-35-29-53-11-18-21-34-33-47-10-14-22-28-33-42-12-15-25-27-37-36-14-10-26-21-39-32 6-34 11-65 16-92 2-12 4-24 6-35s4-22 5-31c1-10 3-18 4-24 1-7 2-11 2-12 16 2 32 2 50 0 16-1 33-4 48-7 16-3 30-8 42-13q19.5-7.5 30-15c36-27 62-57 76-91 16-35 24-70 27-106 2-28 0-56-7-84-7-29-18-56-34-82-15-25-36-49-60-70-26-21-55-39-89-53 4-27 8-53 11-76 3-20 6-39 9-59 3-18 5-32 6-39 6-40 8-73 7-99-1-25-6-46-15-62-7-13-16-26-25-39-10-13-22-24-35-34s-29-18-47-25q-25.5-10.5-60-12c-17-1-38 0-62 4-24 5-47 12-69 24-22 10-41 25-57 44q-24 28.5-27 69c-1 16 0 32 3 49 3 16 9 30 18 44 8 12 19 23 32 32q21 13.5 51 15c12 1 24-1 37-5 12-5 23-11 34-19s19-18 26-30q10.5-18 12-39c2-25-6-48-23-72-17-22-47-40-88-51 7-9 19-18 38-27 19-8 42-12 70-12 29 0 57 9 85 26 26 17 47 39 62 65 9 17 14 40 14 67 0 28-2 56-5 84-1 5-3 16-6 34-3 19-6 38-9 58q-4.5 34.5-12 78m21 1267c-26 0-49-12-69-37-19-24-35-55-48-92q-18-55.5-24-123t3-129q33 25.5 69 60c24 24 46 49 66 76q28.5 40.5 48 81 18 40.5 15 78c-1 8-2 17-4 27s-5 19-10 28-11 16-18 22-17 9-28 9m-2-1226c29 10 51 23 67 39s28 33 36 52c7 19 12 37 12 56 2 19 2 35 1 50q-1.5 18-9 45c-4 18-12 35-24 52s-29 31-51 41c-22 12-51 16-88 14zm-82 347c-27-1-50-7-67-16q-27-15-42-36c-11-13-18-28-22-43-3-15-5-29-4-41s3-24 8-37 11-25 18-35c8-12 16-22 26-30 8-10 18-16 27-21l-3-3-4-4c-1-1-2-3-3-4-21 10-39 22-55 36-15 13-25 23-30 29-7 10-14 19-19 27s-10 16-13 26c-3 8-6 18-8 29-3 11-4 23-5 38q-1.5 21 3 45c3 15 9 31 16 47 8 16 18 31 30 47 13 14 27 29 44 42 9 7 16 12 24 16 6 4 13 8 19 10 6 4 12 6 19 8 6 1 13 3 20 5l-30 181c-8-5-21-14-39-28s-38-31-59-50-42-40-64-62c-20-23-38-44-51-65-24-38-43-73-56-105S65 75 68 38c3-42 16-81 38-118 24-36 53-66 89-91q54-37.5 123-51c46-10 94-9 143 3-11 66-20 125-29 177-4 22-8 44-11 65s-7 40-9 57c-4 17-6 30-7 40-1 11-2 16-2 16" horiz-adv-x="709" unicode="&amp;"/>
    <glyph id="glyph8" d="M31 20q0 21 15 36c10 9 22 14 37 14s27-5 37-14q15-15 15-36t-15-36c-10-10-22-15-37-15s-27 5-37 15Q31-1 31 20" horiz-adv-x="155" unicode="."/>
    <glyph id="glyph10" d="M502-262c-6-11-12-22-18-31-5-9-11-18-17-27s-12-17-19-26c-7-8-14-17-23-27s-17-19-25-27c-7-8-15-16-22-23-8-7-16-15-25-21-9-8-18-15-29-23-13-10-26-19-38-26-11-7-23-14-34-20-12-6-24-11-37-17-13-4-27-10-42-16s-32-12-51-16c-18-6-35-10-52-13-19-4-39-8-58-11l-7 15c31 11 63 23 94 37 26 12 53 26 83 44 28 16 54 36 75 58 54 57 95 120 123 190 28 68 41 147 40 235q0 30-6 69c-5 26-12 51-24 74-10 23-26 43-46 60-19 17-45 25-76 25-18 0-37-4-58-11-20-7-38-17-55-30-17-12-30-26-41-44-11-16-15-35-13-54 1-3 3-4 7-2 3 0 8 2 16 4 6 2 15 4 26 6 10 2 22 3 36 2 15-1 27-5 38-14 11-8 19-18 26-31s11-27 13-41c2-16 1-30-2-44-5-22-15-40-29-52-15-14-35-20-60-20-16 0-32 3-46 8-16 6-29 14-40 24-11 11-20 24-28 38-6 16-10 33-10 52-1 29 2 54 10 76 6 22 15 41 26 57 10 16 21 29 32 39 12 11 23 19 33 25 25 15 50 26 75 31 25 6 49 9 72 10 25 0 51-4 76-12 26-9 50-21 73-36 23-16 43-35 61-56 18-22 32-46 41-73 11-30 17-62 17-95 1-34-3-71-12-110q-4.5-19.5-9-36c-3-11-7-21-11-31s-8-20-14-30c-4-10-10-21-16-33m101 385q-1.5 22.5 15 39 16.5 15 39 15c15 1 29-4 39-14 12-10 17-23 17-38 1-15-4-29-15-39-11-12-24-17-39-17-15-1-29 4-39 15-12 11-17 24-17 39m0-252c0 15 5 28 16 38s24 15 39 16c15 0 28-5 40-15 10-9 16-22 16-37 1-15-4-29-15-39-11-12-24-17-39-17-15-1-28 4-40 15-10 11-16 24-17 39" horiz-adv-x="723" unicode="?"/>
    <glyph id="glyph12" d="M26 354V113c9 9 18 16 26 21s16 10 23 12c7 4 15 6 23 7 9 1 18 2 29 2 13 0 24-3 34-8s19-12 26-21 13-18 17-29 6-21 6-31c1-11 0-21-3-32-3-10-6-19-10-28-5-11-12-21-22-30s-19-17-27-25c-3-3-8-7-17-14s-19-14-29-22c-12-8-23-16-35-25-12-8-23-16-33-22q-15-12-24-18c-7-6-10-8-10-8v591h26zm81-263c-3 4-8 7-13 10-6 3-12 4-19 4s-13-2-20-6q-10.5-6-18-21c-7-13-10-28-11-48v-137s2 1 6 5c4 2 9 6 14 12 6 4 12 10 18 16 7 6 13 11 18 16 9 9 17 18 24 28s12 23 15 38q6 22.5 3 45c-2 15-8 27-17 38" horiz-adv-x="210" unicode="b"/>
    <glyph id="glyph14" d="M15 287c0-25 6-50 18-77s25-50 40-71q25.5-34.5 54-75c19-26 39-55 58-88 8-14 16-30 23-46 7-18 14-34 20-52 6-16 11-33 14-48 4-15 7-28 8-38 3-21 6-41 8-62 1-20 2-40 1-59-1-61-12-118-31-170l-12 2c9 23 16 51 20 82 5 31 7 61 7 89 0 24-2 50-6 79s-10 55-19 80c-15 45-34 80-55 106s-40 44-55 54C97 0 86 6 75 10c-11 5-21 8-30 10-11 3-21 4-30 5H1v262z" horiz-adv-x="330" unicode="j"/>
    <glyph id="glyph16" d="M24 62V-95l114 30V92zm140 134v-571h-26v214L-1-197v578h25V158z" horiz-adv-x="198" unicode="n"/>
    <glyph id="glyph18" horiz-adv-x="319"/>
    <glyph id="glyph20" d="M257-217c-17 7-33 13-46 15-13 4-25 5-36 5-21 0-39-6-55-19-14-13-22-31-22-54 0-7 2-16 8-25 4-9 10-18 17-26 7-9 16-19 26-28l-12-10c-22 13-42 28-60 44-15 13-30 29-43 45-14 18-22 35-25 54-2 11-1 23 1 34 4 11 8 22 16 30 6 10 16 17 26 22 12 6 24 10 38 11 5 0 12 0 19-1 7 0 15 0 21-2 8 0 14-2 20-2 7-2 12-2 16-3C118-80 82-42 58-11 33 20 23 40 27 49q7.5 9 21 27c10 13 20 27 29 44s18 34 25 53 11 37 11 55c0 11-4 26-11 42-7 18-15 34-24 50-11 18-22 37-35 57l14 10 182-229c-17-20-31-40-43-61q-16.5-25.5-30-57c-9-20-13-39-13-57 0-13 2-25 5-37 4-11 9-22 14-32 5-11 11-20 18-30 7-8 13-16 18-23 3-4 7-9 13-15 6-7 12-13 17-20 5-6 10-12 14-17 5-5 7-9 7-10z" horiz-adv-x="287" unicode="Œ"/>
    <glyph id="glyph22" d="M8-1c7 18 17 35 30 50 14 15 30 29 48 41 18 11 37 20 58 26 21 7 42 10 63 10s40-4 56-10c16-8 29-17 38-28 9-12 15-26 17-42 3-15 1-32-6-50s-17-35-31-50q-21-24-48-42c-18-11-37-20-59-26-20-7-41-10-62-10s-40 4-56 10c-15 8-28 17-38 29C9-81 3-67 1-52-1-36 1-19 8-1" horiz-adv-x="319" unicode="œ"/>
    <glyph id="glyph24" d="M72 213q27 7.5 45-3c12-7 21-16 27-28 7-12 11-25 12-40q1.5-21-3-36c11 1 20 3 29 6s18 9 27 18 16 17 21 24c6 7 13 16 21 25l14-8-111-419h-40c7 22 14 44 21 65 6 17 12 35 18 55 6 18 11 34 16 45 11 29 19 55 27 79 6 22 12 42 16 58 5 19 8 35 11 49-6-5-14-11-25-17-10-8-21-14-33-21s-24-13-37-17c-13-6-25-8-37-9q-39-1.5-63 21Q5.5 82.5 1 114c-3 20 2 40 13 60 11 19 31 32 58 39" horiz-adv-x="304" unicode="‰"/>
    <glyph id="glyph26" d="M320 89c4-7 6-15 8-25V38c-2-10-3-18-5-26s-4-14-6-19c-9-25-23-48-42-67s-36-33-51-40c-33-17-72-23-117-19-7 1-15 2-23 3-10 1-18 4-28 7-8 3-17 8-26 13-8 5-14 12-19 20-5 9-9 18-9 26-2 10-2 18 0 26 0 9 2 16 4 24 2 6 4 13 6 18 9 25 23 46 40 63s34 30 49 39q22.5 13.5 57 21 33 7.5 75 3c5-1 12-2 20-2 8-2 16-4 25-6l24-12c7-6 13-12 18-21m-23-17c-5 8-12 13-19 16-8 3-16 4-26 3-8-1-18-3-27-6s-18-7-26-11c-11-5-21-11-31-16-8-5-18-11-28-16-19-11-39-23-59-36-7-5-15-10-23-16-7-6-14-13-19-20s-9-15-11-24c-1-8 0-16 5-24s11-13 19-16 16-4 26-2c8 0 18 3 27 6s18 7 26 11c11 5 22 11 31 16 10 5 20 11 30 16s20 11 28 16c10 5 19 12 30 19 7 5 14 10 22 16 7 6 14 13 19 20s9 15 11 24c1 8 0 16-5 24" horiz-adv-x="328" unicode="˙"/>
  </font>
  <font id="font52" horiz-adv-x="2048" horiz-origin-x="0" horiz-origin-y="0" vert-adv-y="1024" vert-origin-x="512" vert-origin-y="768">
    <font-face id="font-face30" font-family="'Times New Roman'" underline-position="-223" underline-thickness="100" units-per-em="2048">
      <font-face-src>
        <font-face-name name="Times New Roman"/>
      </font-face-src>
    </font-face>
    <glyph id="glyph34" d="M74 670c0 155 23 288 70 400q70.5 166.5 186 249c60 43 122 65 186 65 104 0 197-53 280-159 103-131 155-309 155-534 0-157-23-291-68-401S780 100 710 50C639 1 571-24 506-24c-129 0-237 76-323 229C110 334 74 489 74 670m196-25c0-187 23-339 69-457 38-99 95-149 170-149 36 0 73 16 112 49 39 32 68 86 88 162 31 115 46 276 46 485q0 232.5-48 387c-24 77-55 131-93 163q-40.5 33-99 33c-45 0-86-20-121-61-48-55-81-142-98-261s-26-236-26-351" horiz-adv-x="1024" unicode="0"/>
    <glyph id="glyph36" d="m240 1223 330 161h33V239c0-76 3-123 9-142 7-19 20-33 40-43s61-16 122-17V0H264v37c64 1 105 7 124 17 19 9 32 22 39 38 7 17 11 66 11 147v732c0 99-3 162-10 190-5 21-13 37-26 47-12 10-27 15-44 15-25 0-59-10-103-31z" horiz-adv-x="1024" unicode="1"/>
    <glyph id="glyph38" d="M939 261 844 0H44v37c235 215 401 390 497 526s144 260 144 373c0 86-26 157-79 212s-116 83-189 83c-67 0-127-19-179-59-54-38-93-96-118-171H83c17 123 59 218 129 284 68 66 155 99 258 99 110 0 202-35 276-106 73-71 110-154 110-250 0-69-16-137-48-206-49-108-129-222-240-343-166-181-270-291-311-328h354c72 0 123 3 151 8 30 5 56 16 79 33 23 16 44 39 61 69z" horiz-adv-x="1024" unicode="2"/>
    <glyph id="glyph40" d="M104 1098c39 91 88 162 146 212 60 49 133 74 221 74 109 0 192-35 250-106 44-53 66-109 66-169q0-148.5-186-306c83-33 146-79 189-140s64-132 64-214c0-117-37-219-112-305Q596.5-24 319-24c-91 0-153 11-187 34-32 23-49 47-49 73 0 19 8 36 23 51 16 15 35 22 57 22 17 0 34-3 51-8 11-3 37-16 77-36 40-22 68-34 83-38 25-7 51-11 79-11 68 0 127 26 177 79 51 53 76 115 76 187 0 53-12 104-35 154-17 37-36 66-57 85-29 27-68 51-118 72q-75 33-153 33h-32v30c53 7 105 26 159 57 52 31 91 69 115 113s36 92 36 145c0 69-21 124-65 166-42 43-96 64-160 64-103 0-190-55-259-166z" horiz-adv-x="1024" unicode="3"/>
    <glyph id="glyph42" d="M953 500V358H771V0H606v358H32v128l629 898h110V500zm-347 0v673L130 500z" horiz-adv-x="1024" unicode="4"/>
    <glyph id="glyph44" d="m889 1356-78-170H403l-89-182c177-26 317-92 420-197 89-91 133-197 133-320 0-71-15-137-43-198-30-61-66-112-110-155S621 57 567 31C490-6 412-24 331-24S190-10 154 18c-38 27-56 58-56 91 0 19 8 35 23 49 15 15 35 22 58 22 17 0 33-3 45-8 14-5 36-19 67-41 50-35 101-52 152-52 78 0 147 29 205 89 60 58 89 130 89 215 0 82-26 159-79 229-53 72-125 126-218 165-73 30-172 47-297 52l260 527z" horiz-adv-x="1024" unicode="5"/>
    <glyph id="glyph46" d="M918 1384v-37c-88-9-160-26-216-53-55-26-110-66-164-120-55-54-100-114-136-180-35-67-65-146-89-237 96 66 192 99 289 99 93 0 173-37 241-112q102-112.5 102-288c0-113-34-217-103-310C759 33 650-24 514-24c-93 0-171 31-236 92C151 187 88 342 88 532c0 121 24 237 73 346s118 206 209 291c90 85 176 142 259 171s160 44 231 44zM296 684c-12-90-18-163-18-218 0-64 12-134 36-208 23-76 58-135 105-179 34-31 75-47 124-47 58 0 110 27 155 82q69 82.5 69 234c0 114-23 213-68 296S589 769 506 769c-25 0-52-5-82-16-28-11-71-34-128-69" horiz-adv-x="1024" unicode="6"/>
    <glyph id="glyph48" d="M206 1356h727v-38L481-28H369l405 1221H401c-75 0-129-9-161-27-56-31-101-78-135-142l-29 11z" horiz-adv-x="1024" unicode="7"/>
    <glyph id="glyph50" d="M108-28V9c87 1 167 21 242 61 75 38 147 107 216 204 70 97 119 204 146 321-105-67-199-101-284-101-95 0-177 37-245 110Q81 715 81 898c0 119 34 224 102 317 82 113 189 169 321 169 111 0 207-46 286-138 97-114 146-255 146-422 0-151-37-291-111-422Q714 207 516 78C409 7 292-28 165-28zm620 697c12 87 18 156 18 208 0 65-11 135-33 209-22 76-53 133-93 173q-61.5 60-138 60c-59 0-111-27-156-80s-67-133-67-238c0-141 30-251 89-330 43-57 97-86 160-86 31 0 67 7 109 22s79 35 111 62" horiz-adv-x="1024" unicode="9"/>
  </font>
  <font id="font86" horiz-adv-x="2048" horiz-origin-x="0" horiz-origin-y="0" vert-adv-y="1024" vert-origin-x="512" vert-origin-y="768">
    <font-face id="font-face54" font-family="'Times New Roman'" font-style="italic" underline-position="-223" underline-thickness="100" units-per-em="2048">
      <font-face-src>
        <font-face-name name="Times New Roman Italic"/>
      </font-face-src>
    </font-face>
    <glyph id="glyph58" horiz-adv-x="512"/>
    <glyph id="glyph60" d="M170 179c29 0 53-10 72-29q30-30 30-72T242 6c-20-19-44-29-72-29S118-13 98 6C79 26 69 50 69 78s10 52 29 72c20 19 44 29 72 29" horiz-adv-x="512" unicode="."/>
    <glyph id="glyph62" d="M708 1384c85 0 157-36 216-107 58-71 87-184 87-338 0-132-22-267-65-404q-64.5-205.5-183-357C700 99 635 41 566 6c-40-20-86-30-139-30-87 0-159 36-217 107-59 71-88 184-88 339 0 153 29 306 88 460 69 180 156 317 263 410 70 61 148 92 235 92m1-52c-39 0-78-15-117-46-40-30-81-93-124-189-42-96-82-220-121-371-50-198-75-367-75-506q0-103.5 45-156c30-34 66-51 109-51 41 0 75 13 104 40 77 72 142 195 197 369 89 285 133 516 133 694 0 74-15 128-45 164-30 34-65 52-106 52" horiz-adv-x="1024" unicode="0"/>
    <glyph id="glyph64" d="M855 1384 533 263c-19-66-28-114-28-143 0-25 9-44 25-56 18-14 57-22 120-27L640 0H125l14 37c55 1 91 6 108 13q42 18 63 48c22 31 44 86 67 165l232 805c14 49 22 77 23 84q3 19.5 3 39c0 23-6 42-19 55s-30 20-52 20q-25.5 0-81-12l-13 36 337 94z" horiz-adv-x="1024" unicode="1"/>
    <glyph id="glyph66" d="M707 0H32v37c344 301 571 538 682 709 51 79 77 163 77 250 0 69-21 126-64 170-43 43-98 65-166 65-94 0-171-45-232-135l-35 16c34 86 84 153 149 200 65 48 136 72 212 72 86 0 158-30 217-88 59-60 88-131 88-215 0-59-10-113-31-163-32-78-91-165-177-262-131-148-305-318-523-511h340c55 0 100 11 135 34s61 53 76 91h40z" horiz-adv-x="1024" unicode="2"/>
    <glyph id="glyph68" d="M313 741v29c161 25 282 73 361 144 57 51 86 111 86 181 0 53-17 96-50 131-33 34-74 51-121 51-75 0-141-46-199-139l-37 11c35 77 79 136 133 175 55 40 114 60 179 60 79 0 142-24 191-70 49-48 73-107 73-179q0-91.5-69-177c-45-57-124-107-235-152 69-29 122-70 157-124 35-53 53-118 53-193 0-83-24-167-72-251-48-83-114-148-197-194-84-45-172-68-264-68-84 0-148 15-191 44-29 20-43 43-43 70 0 23 8 43 26 60 16 17 37 25 62 25 17 0 35-3 52-8 11-3 37-17 78-40 42-23 75-39 98-47 23-7 47-11 72-11 60 0 110 35 148 105 40 69 59 143 59 222q0 96-39 171c-27 50-68 91-125 121-57 32-119 49-186 53" horiz-adv-x="1024" unicode="3"/>
    <glyph id="glyph70" d="M997 1356 738 464h162l-36-124H700L595-24H448l106 364H64l42 140 815 876zm-222-258L192 464h401z" horiz-adv-x="1024" unicode="4"/>
    <glyph id="glyph72" d="M528 1356h453l-46-165H528l-75-167c108-17 192-51 252-101 93-78 139-187 139-327 0-93-17-176-52-252-34-74-76-137-126-188Q592.5 79.5 507 36 391.5-24 273-24c-67 0-121 15-160 44-27 20-40 45-40 76 0 24 9 44 26 62 17 16 39 25 64 25 35 0 75-18 118-53 27-22 49-37 66-44 14-6 31-9 50-9 75 0 145 37 208 113 63 74 95 172 95 292 0 83-17 154-50 213-34 59-77 100-129 124s-121 41-208 50z" horiz-adv-x="1024" unicode="5"/>
    <glyph id="glyph74" d="M1076 1384v-39c-114-27-225-83-332-169-107-85-201-195-282-329 72 31 131 46 176 46 85 0 157-31 216-92 60-61 90-144 90-248 0-159-51-295-154-408S577-24 458-24Q296-24 212 96c-55 79-83 171-83 276 0 137 32 272 95 404 63 134 149 248 258 343 108 95 220 166 337 211 69 27 155 45 257 54M414 763c-95-203-143-374-143-512 0-71 18-127 54-169 36-40 77-61 124-61 77 0 148 56 215 167 66 112 99 242 99 389 0 79-19 139-58 182s-85 64-140 64c-23 0-45-4-67-11-20-8-49-24-84-49" horiz-adv-x="1024" unicode="6"/>
    <glyph id="glyph76" d="M59-24V8c69 15 128 36 179 64 90 49 171 110 242 183 72 73 136 157 192 253-41-20-72-33-95-39s-48-9-76-9c-101 0-178 34-231 103s-80 149-80 240c0 159 52 296 156 410q154.5 171 330 171c106 0 187-40 244-120 57-79 85-172 85-279 0-135-31-269-94-401S763 338 656 243 436 77 318 31C248 4 162-15 59-24m663 615c94 191 141 361 141 511 0 73-18 129-53 169-36 40-78 60-125 60-79 0-151-55-215-165-66-110-98-241-98-392 0-80 18-140 56-182 36-40 83-61 139-61 25 0 49 4 70 11 21 8 50 24 85 49" horiz-adv-x="1024" unicode="9"/>
    <glyph id="glyph78" d="M435 906q42 0 72-30c20-19 30-43 30-71q0-42-30-72t-72-30-72 30-30 72c0 28 10 52 30 71q30 30 72 30M223 182c28 0 52-10 71-30 19-19 29-43 29-71 0-27-10-51-29-71-20-19-44-29-71-29-28 0-52 10-71 29-20 20-30 44-30 71 0 28 10 52 30 71 19 20 43 30 71 30" horiz-adv-x="682" unicode=":"/>
    <glyph id="glyph80" d="m303 1319 14 37h484c81 0 154-13 217-38 64-25 112-61 144-106 31-45 47-93 47-144 0-78-28-148-85-212-56-62-148-109-275-139 82-31 142-71 181-122s58-106 58-167c0-67-17-132-52-193S957 126 902 92c-54-34-119-59-196-75C651 6 566 0 450 0H-47l13 37c52 1 87 6 106 15q40.5 16.5 57 45c16 25 37 83 64 174l243 821c21 69 31 118 31 146 0 25-9 44-27 58-19 15-54 22-105 22-11 0-22 0-32 1m203-563c43-1 75-2 94-2 139 0 242 30 310 90 67 61 101 136 101 227 0 69-21 122-62 161q-61.5 57-198 57c-24 0-55-4-92-12zM309 88c72-9 128-14 169-14 104 0 196 31 276 94 81 63 121 148 121 255q0 123-75 192-73.5 69-240 69-31.5 0-78-3z" horiz-adv-x="1251" unicode="B"/>
    <glyph id="glyph82" d="M609 1422 267 232c-17-59-25-96-25-109 0-10 3-18 10-25 6-7 14-10 23-10 13 0 26 6 41 17 35 27 71 70 109 127l30-31C392 112 333 49 280 14c-39-25-77-38-112-38-25 0-46 9-64 26-16 17-25 37-25 60 0 24 11 73 32 148l271 938q33 115.5 33 132c0 16-6 29-19 40-13 10-32 15-59 15-15 0-39-2-70-7v37z" horiz-adv-x="569" unicode="l"/>
    <glyph id="glyph84" d="m107 849 345 56-144-486c117 199 223 339 318 418 54 45 98 68 132 68 22 0 39-7 52-19 13-14 19-32 19-57 0-44-11-86-34-126q-24-45-69-45c-15 0-28 5-40 15-10 10-17 25-20 46-1 13-4 21-9 25-5 5-12 8-19 8-11 0-22-3-32-8-17-9-44-35-79-78-55-65-115-150-180-254-28-44-52-94-72-149-28-76-44-122-48-137L195 0H42l185 621c21 72 32 123 32 154q0 18-15 30c-13 11-31 16-53 16-14 0-40-3-77-9z" horiz-adv-x="797" unicode="r"/>
  </font>
</svg>
