<?xml version="1.0" encoding="UTF-8" standalone="no"?>
<!DOCTYPE svg PUBLIC "-//W3C//DTD SVG 1.1//EN"
 "http://www.w3.org/Graphics/SVG/1.1/DTD/svg11.dtd">
<!-- Generated by graphviz version 5.0.0 (20220707.1540)
 -->
<!-- Title: dependencies Pages: 1 -->
<svg width="1316pt" height="247pt"
 viewBox="0.00 0.00 1316.00 246.80" xmlns="http://www.w3.org/2000/svg" xmlns:xlink="http://www.w3.org/1999/xlink">
<g id="graph0" class="graph" transform="scale(1 1) rotate(0) translate(4 242.8)">
<title>dependencies</title>
<polygon fill="white" stroke="transparent" points="-4,4 -4,-242.8 1312,-242.8 1312,4 -4,4"/>
<text text-anchor="middle" x="654" y="-8.2" font-family="sans-serif" font-size="14.00">dependencies</text>
<g id="clust1" class="cluster">
<title>cluster_BibliographyModule</title>
<polygon fill="none" stroke="black" stroke-dasharray="1,5" points="8,-32.8 8,-230.8 1300,-230.8 1300,-32.8 8,-32.8"/>
</g>
<g id="clust9" class="cluster">
<title>cluster_BibliographyModule_exports</title>
<polygon fill="none" stroke="black" points="141,-170.8 141,-222.8 1117,-222.8 1117,-170.8 141,-170.8"/>
</g>
<g id="clust2" class="cluster">
<title>cluster_BibliographyModule_declarations</title>
<polygon fill="none" stroke="black" points="334,-40.8 334,-92.8 1292,-92.8 1292,-40.8 334,-40.8"/>
</g>
<g id="clust8" class="cluster">
<title>cluster_BibliographyModule_imports</title>
<polygon fill="none" stroke="black" points="16,-40.8 16,-92.8 326,-92.8 326,-40.8 16,-40.8"/>
</g>
<!-- BibliographyComponent -->
<g id="node1" class="node">
<title>BibliographyComponent</title>
<polygon fill="#ffffb3" stroke="black" points="1283.71,-84.8 1128.29,-84.8 1128.29,-48.8 1283.71,-48.8 1283.71,-84.8"/>
<text text-anchor="middle" x="1206" y="-62.6" font-family="Times,serif" font-size="14.00">BibliographyComponent</text>
</g>
<!-- BibliographyModule -->
<g id="node6" class="node">
<title>BibliographyModule</title>
<polygon fill="#8dd3c7" stroke="black" points="708.94,-149.8 705.94,-153.8 684.94,-153.8 681.94,-149.8 575.06,-149.8 575.06,-113.8 708.94,-113.8 708.94,-149.8"/>
<text text-anchor="middle" x="642" y="-127.6" font-family="Times,serif" font-size="14.00">BibliographyModule</text>
</g>
<!-- BibliographyComponent&#45;&gt;BibliographyModule -->
<g id="edge1" class="edge">
<title>BibliographyComponent&#45;&gt;BibliographyModule</title>
<path fill="none" stroke="black" d="M1206,-84.91C1206,-104.14 1206,-131.8 1206,-131.8 1206,-131.8 718.91,-131.8 718.91,-131.8"/>
<polygon fill="black" stroke="black" points="718.91,-128.3 708.91,-131.8 718.91,-135.3 718.91,-128.3"/>
</g>
<!-- BibliographyDetailComponent -->
<g id="node2" class="node">
<title>BibliographyDetailComponent</title>
<polygon fill="#ffffb3" stroke="black" points="1110.92,-84.8 921.08,-84.8 921.08,-48.8 1110.92,-48.8 1110.92,-84.8"/>
<text text-anchor="middle" x="1016" y="-62.6" font-family="Times,serif" font-size="14.00">BibliographyDetailComponent</text>
</g>
<!-- BibliographyDetailComponent&#45;&gt;BibliographyModule -->
<g id="edge2" class="edge">
<title>BibliographyDetailComponent&#45;&gt;BibliographyModule</title>
<path fill="none" stroke="black" d="M926.88,-84.82C926.88,-102.17 926.88,-125.8 926.88,-125.8 926.88,-125.8 718.79,-125.8 718.79,-125.8"/>
<polygon fill="black" stroke="black" points="718.79,-122.3 708.79,-125.8 718.79,-129.3 718.79,-122.3"/>
</g>
<!-- BibliographyFormatPipe -->
<g id="node3" class="node">
<title>BibliographyFormatPipe</title>
<polygon fill="#ffffb3" stroke="black" points="903.71,-84.8 748.29,-84.8 748.29,-48.8 903.71,-48.8 903.71,-84.8"/>
<text text-anchor="middle" x="826" y="-62.6" font-family="Times,serif" font-size="14.00">BibliographyFormatPipe</text>
</g>
<!-- BibliographyFormatPipe&#45;&gt;BibliographyModule -->
<g id="edge3" class="edge">
<title>BibliographyFormatPipe&#45;&gt;BibliographyModule</title>
<path fill="none" stroke="black" d="M826,-85.04C826,-100.37 826,-119.8 826,-119.8 826,-119.8 718.95,-119.8 718.95,-119.8"/>
<polygon fill="black" stroke="black" points="718.95,-116.3 708.95,-119.8 718.95,-123.3 718.95,-116.3"/>
</g>
<!-- BibliographyListComponent -->
<g id="node4" class="node">
<title>BibliographyListComponent</title>
<polygon fill="#ffffb3" stroke="black" points="730.49,-84.8 553.51,-84.8 553.51,-48.8 730.49,-48.8 730.49,-84.8"/>
<text text-anchor="middle" x="642" y="-62.6" font-family="Times,serif" font-size="14.00">BibliographyListComponent</text>
</g>
<!-- BibliographyListComponent&#45;&gt;BibliographyModule -->
<g id="edge4" class="edge">
<title>BibliographyListComponent&#45;&gt;BibliographyModule</title>
<path fill="none" stroke="black" d="M642,-84.91C642,-84.91 642,-103.79 642,-103.79"/>
<polygon fill="black" stroke="black" points="638.5,-103.79 642,-113.79 645.5,-103.79 638.5,-103.79"/>
</g>
<!-- BibliographySearchComponent -->
<g id="node5" class="node">
<title>BibliographySearchComponent</title>
<polygon fill="#ffffb3" stroke="black" points="535.8,-84.8 342.2,-84.8 342.2,-48.8 535.8,-48.8 535.8,-84.8"/>
<text text-anchor="middle" x="439" y="-62.6" font-family="Times,serif" font-size="14.00">BibliographySearchComponent</text>
</g>
<!-- BibliographySearchComponent&#45;&gt;BibliographyModule -->
<g id="edge5" class="edge">
<title>BibliographySearchComponent&#45;&gt;BibliographyModule</title>
<path fill="none" stroke="black" d="M449.7,-85.04C449.7,-100.37 449.7,-119.8 449.7,-119.8 449.7,-119.8 565.01,-119.8 565.01,-119.8"/>
<polygon fill="black" stroke="black" points="565.01,-123.3 575.01,-119.8 565.01,-116.3 565.01,-123.3"/>
</g>
<!-- BibliographyComponent  -->
<g id="node9" class="node">
<title>BibliographyComponent </title>
<polygon fill="#fb8072" stroke="black" points="1109.21,-214.8 950.79,-214.8 950.79,-178.8 1109.21,-178.8 1109.21,-214.8"/>
<text text-anchor="middle" x="1030" y="-192.6" font-family="Times,serif" font-size="14.00">BibliographyComponent </text>
</g>
<!-- BibliographyModule&#45;&gt;BibliographyComponent  -->
<g id="edge8" class="edge">
<title>BibliographyModule&#45;&gt;BibliographyComponent </title>
<path fill="none" stroke="black" stroke-dasharray="5,2" d="M709.14,-137.8C820.19,-137.8 1030,-137.8 1030,-137.8 1030,-137.8 1030,-168.78 1030,-168.78"/>
<polygon fill="black" stroke="black" points="1026.5,-168.78 1030,-178.78 1033.5,-168.78 1026.5,-168.78"/>
</g>
<!-- BibliographyDetailComponent  -->
<g id="node10" class="node">
<title>BibliographyDetailComponent </title>
<polygon fill="#fb8072" stroke="black" points="932.42,-214.8 739.58,-214.8 739.58,-178.8 932.42,-178.8 932.42,-214.8"/>
<text text-anchor="middle" x="836" y="-192.6" font-family="Times,serif" font-size="14.00">BibliographyDetailComponent </text>
</g>
<!-- BibliographyModule&#45;&gt;BibliographyDetailComponent  -->
<g id="edge9" class="edge">
<title>BibliographyModule&#45;&gt;BibliographyDetailComponent </title>
<path fill="none" stroke="black" stroke-dasharray="5,2" d="M708.88,-143.8C728.09,-143.8 743.97,-143.8 743.97,-143.8 743.97,-143.8 743.97,-168.56 743.97,-168.56"/>
<polygon fill="black" stroke="black" points="740.47,-168.56 743.97,-178.56 747.47,-168.56 740.47,-168.56"/>
</g>
<!-- BibliographyFormatPipe  -->
<g id="node11" class="node">
<title>BibliographyFormatPipe </title>
<polygon fill="#fb8072" stroke="black" points="721.21,-214.8 562.79,-214.8 562.79,-178.8 721.21,-178.8 721.21,-214.8"/>
<text text-anchor="middle" x="642" y="-192.6" font-family="Times,serif" font-size="14.00">BibliographyFormatPipe </text>
</g>
<!-- BibliographyModule&#45;&gt;BibliographyFormatPipe  -->
<g id="edge10" class="edge">
<title>BibliographyModule&#45;&gt;BibliographyFormatPipe </title>
<path fill="none" stroke="black" stroke-dasharray="5,2" d="M642,-149.91C642,-149.91 642,-168.79 642,-168.79"/>
<polygon fill="black" stroke="black" points="638.5,-168.79 642,-178.79 645.5,-168.79 638.5,-168.79"/>
</g>
<!-- BibliographyListComponent  -->
<g id="node12" class="node">
<title>BibliographyListComponent </title>
<polygon fill="#fb8072" stroke="black" points="544.49,-214.8 363.51,-214.8 363.51,-178.8 544.49,-178.8 544.49,-214.8"/>
<text text-anchor="middle" x="454" y="-192.6" font-family="Times,serif" font-size="14.00">BibliographyListComponent </text>
</g>
<!-- BibliographyModule&#45;&gt;BibliographyListComponent  -->
<g id="edge11" class="edge">
<title>BibliographyModule&#45;&gt;BibliographyListComponent </title>
<path fill="none" stroke="black" stroke-dasharray="5,2" d="M575.07,-143.8C555.83,-143.8 539.95,-143.8 539.95,-143.8 539.95,-143.8 539.95,-168.56 539.95,-168.56"/>
<polygon fill="black" stroke="black" points="536.45,-168.56 539.95,-178.56 543.45,-168.56 536.45,-168.56"/>
</g>
<!-- BibliographySearchComponent  -->
<g id="node13" class="node">
<title>BibliographySearchComponent </title>
<polygon fill="#fb8072" stroke="black" points="345.3,-214.8 148.7,-214.8 148.7,-178.8 345.3,-178.8 345.3,-214.8"/>
<text text-anchor="middle" x="247" y="-192.6" font-family="Times,serif" font-size="14.00">BibliographySearchComponent </text>
</g>
<!-- BibliographyModule&#45;&gt;BibliographySearchComponent  -->
<g id="edge12" class="edge">
<title>BibliographyModule&#45;&gt;BibliographySearchComponent </title>
<path fill="none" stroke="black" stroke-dasharray="5,2" d="M575.14,-137.8C483.55,-137.8 330.31,-137.8 330.31,-137.8 330.31,-137.8 330.31,-168.78 330.31,-168.78"/>
<polygon fill="black" stroke="black" points="326.81,-168.78 330.31,-178.78 333.81,-168.78 326.81,-168.78"/>
</g>
<!-- BibliographyRoutingModule -->
<g id="node7" class="node">
<title>BibliographyRoutingModule</title>
<polygon fill="#8dd3c7" stroke="black" points="318.05,-84.8 315.05,-88.8 294.05,-88.8 291.05,-84.8 139.95,-84.8 139.95,-48.8 318.05,-48.8 318.05,-84.8"/>
<text text-anchor="middle" x="229" y="-62.6" font-family="Times,serif" font-size="14.00">BibliographyRoutingModule</text>
</g>
<!-- BibliographyRoutingModule&#45;&gt;BibliographyModule -->
<g id="edge6" class="edge">
<title>BibliographyRoutingModule&#45;&gt;BibliographyModule</title>
<path fill="none" stroke="black" d="M233.44,-84.82C233.44,-102.17 233.44,-125.8 233.44,-125.8 233.44,-125.8 564.99,-125.8 564.99,-125.8"/>
<polygon fill="black" stroke="black" points="564.99,-129.3 574.99,-125.8 564.99,-122.3 564.99,-129.3"/>
</g>
<!-- SharedModule -->
<g id="node8" class="node">
<title>SharedModule</title>
<polygon fill="#8dd3c7" stroke="black" points="122.43,-84.8 119.43,-88.8 98.43,-88.8 95.43,-84.8 23.57,-84.8 23.57,-48.8 122.43,-48.8 122.43,-84.8"/>
<text text-anchor="middle" x="73" y="-62.6" font-family="Times,serif" font-size="14.00">SharedModule</text>
</g>
<!-- SharedModule&#45;&gt;BibliographyModule -->
<g id="edge7" class="edge">
<title>SharedModule&#45;&gt;BibliographyModule</title>
<path fill="none" stroke="black" d="M73,-84.91C73,-104.14 73,-131.8 73,-131.8 73,-131.8 565.06,-131.8 565.06,-131.8"/>
<polygon fill="black" stroke="black" points="565.06,-135.3 575.06,-131.8 565.06,-128.3 565.06,-135.3"/>
</g>
</g>
</svg>
