<?xml version="1.0" encoding="UTF-8" standalone="no"?>
<!DOCTYPE svg PUBLIC "-//W3C//DTD SVG 1.1//EN"
 "http://www.w3.org/Graphics/SVG/1.1/DTD/svg11.dtd">
<!-- Generated by graphviz version 2.47.3 (20210619.1520)
 -->
<!-- Title: dependencies Pages: 1 -->
<svg width="1316pt" height="247pt"
 viewBox="0.00 0.00 1316.00 246.80" xmlns="http://www.w3.org/2000/svg" xmlns:xlink="http://www.w3.org/1999/xlink">
<g id="graph0" class="graph" transform="scale(1 1) rotate(0) translate(4 242.8)">
<title>dependencies</title>
<polygon fill="white" stroke="transparent" points="-4,4 -4,-242.8 1312,-242.8 1312,4 -4,4"/>
<text text-anchor="middle" x="654" y="-8.2" font-family="sans-serif" font-size="14.00">dependencies</text>
<g id="clust1" class="cluster">
<title>cluster_BibliographyModule</title>
<polygon fill="none" stroke="black" stroke-dasharray="1,5" points="8,-32.8 8,-230.8 1300,-230.8 1300,-32.8 8,-32.8"/>
</g>
<g id="clust9" class="cluster">
<title>cluster_BibliographyModule_exports</title>
<polygon fill="none" stroke="black" points="197,-170.8 197,-222.8 1173,-222.8 1173,-170.8 197,-170.8"/>
</g>
<g id="clust8" class="cluster">
<title>cluster_BibliographyModule_imports</title>
<polygon fill="none" stroke="black" points="982,-40.8 982,-92.8 1292,-92.8 1292,-40.8 982,-40.8"/>
</g>
<g id="clust2" class="cluster">
<title>cluster_BibliographyModule_declarations</title>
<polygon fill="none" stroke="black" points="16,-40.8 16,-92.8 974,-92.8 974,-40.8 16,-40.8"/>
</g>
<!-- BibliographyComponent -->
<g id="node1" class="node">
<title>BibliographyComponent</title>
<polygon fill="#ffffb3" stroke="black" points="965.72,-84.8 810.28,-84.8 810.28,-48.8 965.72,-48.8 965.72,-84.8"/>
<text text-anchor="middle" x="888" y="-62.6" font-family="Times,serif" font-size="14.00">BibliographyComponent</text>
</g>
<!-- BibliographyModule -->
<g id="node6" class="node">
<title>BibliographyModule</title>
<polygon fill="#8dd3c7" stroke="black" points="764.93,-149.8 761.93,-153.8 740.93,-153.8 737.93,-149.8 631.07,-149.8 631.07,-113.8 764.93,-113.8 764.93,-149.8"/>
<text text-anchor="middle" x="698" y="-127.6" font-family="Times,serif" font-size="14.00">BibliographyModule</text>
</g>
<!-- BibliographyComponent&#45;&gt;BibliographyModule -->
<g id="edge1" class="edge">
<title>BibliographyComponent&#45;&gt;BibliographyModule</title>
<path fill="none" stroke="black" d="M888,-85.04C888,-100.37 888,-119.8 888,-119.8 888,-119.8 774.72,-119.8 774.72,-119.8"/>
<polygon fill="black" stroke="black" points="774.72,-116.3 764.72,-119.8 774.72,-123.3 774.72,-116.3"/>
</g>
<!-- BibliographyDetailComponent -->
<g id="node2" class="node">
<title>BibliographyDetailComponent</title>
<polygon fill="#ffffb3" stroke="black" points="792.92,-84.8 603.08,-84.8 603.08,-48.8 792.92,-48.8 792.92,-84.8"/>
<text text-anchor="middle" x="698" y="-62.6" font-family="Times,serif" font-size="14.00">BibliographyDetailComponent</text>
</g>
<!-- BibliographyDetailComponent&#45;&gt;BibliographyModule -->
<g id="edge2" class="edge">
<title>BibliographyDetailComponent&#45;&gt;BibliographyModule</title>
<path fill="none" stroke="black" d="M698,-84.91C698,-84.91 698,-103.79 698,-103.79"/>
<polygon fill="black" stroke="black" points="694.5,-103.79 698,-113.79 701.5,-103.79 694.5,-103.79"/>
</g>
<!-- BibliographyFormatPipe -->
<g id="node3" class="node">
<title>BibliographyFormatPipe</title>
<polygon fill="#ffffb3" stroke="black" points="585.71,-84.8 430.29,-84.8 430.29,-48.8 585.71,-48.8 585.71,-84.8"/>
<text text-anchor="middle" x="508" y="-62.6" font-family="Times,serif" font-size="14.00">BibliographyFormatPipe</text>
</g>
<!-- BibliographyFormatPipe&#45;&gt;BibliographyModule -->
<g id="edge3" class="edge">
<title>BibliographyFormatPipe&#45;&gt;BibliographyModule</title>
<path fill="none" stroke="black" d="M508,-85.04C508,-100.37 508,-119.8 508,-119.8 508,-119.8 621.28,-119.8 621.28,-119.8"/>
<polygon fill="black" stroke="black" points="621.28,-123.3 631.28,-119.8 621.28,-116.3 621.28,-123.3"/>
</g>
<!-- BibliographyListComponent -->
<g id="node4" class="node">
<title>BibliographyListComponent</title>
<polygon fill="#ffffb3" stroke="black" points="412.49,-84.8 235.51,-84.8 235.51,-48.8 412.49,-48.8 412.49,-84.8"/>
<text text-anchor="middle" x="324" y="-62.6" font-family="Times,serif" font-size="14.00">BibliographyListComponent</text>
</g>
<!-- BibliographyListComponent&#45;&gt;BibliographyModule -->
<g id="edge4" class="edge">
<title>BibliographyListComponent&#45;&gt;BibliographyModule</title>
<path fill="none" stroke="black" d="M406.95,-84.82C406.95,-102.17 406.95,-125.8 406.95,-125.8 406.95,-125.8 621.23,-125.8 621.23,-125.8"/>
<polygon fill="black" stroke="black" points="621.23,-129.3 631.23,-125.8 621.23,-122.3 621.23,-129.3"/>
</g>
<!-- BibliographySearchComponent -->
<g id="node5" class="node">
<title>BibliographySearchComponent</title>
<polygon fill="#ffffb3" stroke="black" points="217.8,-84.8 24.2,-84.8 24.2,-48.8 217.8,-48.8 217.8,-84.8"/>
<text text-anchor="middle" x="121" y="-62.6" font-family="Times,serif" font-size="14.00">BibliographySearchComponent</text>
</g>
<!-- BibliographySearchComponent&#45;&gt;BibliographyModule -->
<g id="edge5" class="edge">
<title>BibliographySearchComponent&#45;&gt;BibliographyModule</title>
<path fill="none" stroke="black" d="M211.12,-84.91C211.12,-104.14 211.12,-131.8 211.12,-131.8 211.12,-131.8 621.07,-131.8 621.07,-131.8"/>
<polygon fill="black" stroke="black" points="621.07,-135.3 631.07,-131.8 621.07,-128.3 621.07,-135.3"/>
</g>
<!-- BibliographyComponent  -->
<g id="node9" class="node">
<title>BibliographyComponent </title>
<polygon fill="#fb8072" stroke="black" points="1165.22,-214.8 1006.78,-214.8 1006.78,-178.8 1165.22,-178.8 1165.22,-214.8"/>
<text text-anchor="middle" x="1086" y="-192.6" font-family="Times,serif" font-size="14.00">BibliographyComponent </text>
</g>
<!-- BibliographyModule&#45;&gt;BibliographyComponent  -->
<g id="edge8" class="edge">
<title>BibliographyModule&#45;&gt;BibliographyComponent </title>
<path fill="none" stroke="black" stroke-dasharray="5,2" d="M764.96,-137.8C866.42,-137.8 1047.43,-137.8 1047.43,-137.8 1047.43,-137.8 1047.43,-168.78 1047.43,-168.78"/>
<polygon fill="black" stroke="black" points="1043.93,-168.78 1047.43,-178.78 1050.93,-168.78 1043.93,-168.78"/>
</g>
<!-- BibliographyDetailComponent  -->
<g id="node10" class="node">
<title>BibliographyDetailComponent </title>
<polygon fill="#fb8072" stroke="black" points="988.42,-214.8 795.58,-214.8 795.58,-178.8 988.42,-178.8 988.42,-214.8"/>
<text text-anchor="middle" x="892" y="-192.6" font-family="Times,serif" font-size="14.00">BibliographyDetailComponent </text>
</g>
<!-- BibliographyModule&#45;&gt;BibliographyDetailComponent  -->
<g id="edge9" class="edge">
<title>BibliographyModule&#45;&gt;BibliographyDetailComponent </title>
<path fill="none" stroke="black" stroke-dasharray="5,2" d="M764.77,-143.8C785.47,-143.8 802.97,-143.8 802.97,-143.8 802.97,-143.8 802.97,-168.56 802.97,-168.56"/>
<polygon fill="black" stroke="black" points="799.47,-168.56 802.97,-178.56 806.47,-168.56 799.47,-168.56"/>
</g>
<!-- BibliographyFormatPipe  -->
<g id="node11" class="node">
<title>BibliographyFormatPipe </title>
<polygon fill="#fb8072" stroke="black" points="777.21,-214.8 618.79,-214.8 618.79,-178.8 777.21,-178.8 777.21,-214.8"/>
<text text-anchor="middle" x="698" y="-192.6" font-family="Times,serif" font-size="14.00">BibliographyFormatPipe </text>
</g>
<!-- BibliographyModule&#45;&gt;BibliographyFormatPipe  -->
<g id="edge10" class="edge">
<title>BibliographyModule&#45;&gt;BibliographyFormatPipe </title>
<path fill="none" stroke="black" stroke-dasharray="5,2" d="M698,-149.91C698,-149.91 698,-168.79 698,-168.79"/>
<polygon fill="black" stroke="black" points="694.5,-168.79 698,-178.79 701.5,-168.79 694.5,-168.79"/>
</g>
<!-- BibliographyListComponent  -->
<g id="node12" class="node">
<title>BibliographyListComponent </title>
<polygon fill="#fb8072" stroke="black" points="600.5,-214.8 419.5,-214.8 419.5,-178.8 600.5,-178.8 600.5,-214.8"/>
<text text-anchor="middle" x="510" y="-192.6" font-family="Times,serif" font-size="14.00">BibliographyListComponent </text>
</g>
<!-- BibliographyModule&#45;&gt;BibliographyListComponent  -->
<g id="edge11" class="edge">
<title>BibliographyModule&#45;&gt;BibliographyListComponent </title>
<path fill="none" stroke="black" stroke-dasharray="5,2" d="M631.16,-143.8C610.43,-143.8 592.93,-143.8 592.93,-143.8 592.93,-143.8 592.93,-168.56 592.93,-168.56"/>
<polygon fill="black" stroke="black" points="589.43,-168.56 592.93,-178.56 596.43,-168.56 589.43,-168.56"/>
</g>
<!-- BibliographySearchComponent  -->
<g id="node13" class="node">
<title>BibliographySearchComponent </title>
<polygon fill="#fb8072" stroke="black" points="401.3,-214.8 204.7,-214.8 204.7,-178.8 401.3,-178.8 401.3,-214.8"/>
<text text-anchor="middle" x="303" y="-192.6" font-family="Times,serif" font-size="14.00">BibliographySearchComponent </text>
</g>
<!-- BibliographyModule&#45;&gt;BibliographySearchComponent  -->
<g id="edge12" class="edge">
<title>BibliographyModule&#45;&gt;BibliographySearchComponent </title>
<path fill="none" stroke="black" stroke-dasharray="5,2" d="M631.02,-137.8C522.06,-137.8 318.45,-137.8 318.45,-137.8 318.45,-137.8 318.45,-168.78 318.45,-168.78"/>
<polygon fill="black" stroke="black" points="314.95,-168.78 318.45,-178.78 321.95,-168.78 314.95,-168.78"/>
</g>
<!-- BibliographyRoutingModule -->
<g id="node7" class="node">
<title>BibliographyRoutingModule</title>
<polygon fill="#8dd3c7" stroke="black" points="1284.05,-84.8 1281.05,-88.8 1260.05,-88.8 1257.05,-84.8 1105.95,-84.8 1105.95,-48.8 1284.05,-48.8 1284.05,-84.8"/>
<text text-anchor="middle" x="1195" y="-62.6" font-family="Times,serif" font-size="14.00">BibliographyRoutingModule</text>
</g>
<!-- BibliographyRoutingModule&#45;&gt;BibliographyModule -->
<g id="edge6" class="edge">
<title>BibliographyRoutingModule&#45;&gt;BibliographyModule</title>
<path fill="none" stroke="black" d="M1135.54,-84.91C1135.54,-104.14 1135.54,-131.8 1135.54,-131.8 1135.54,-131.8 774.93,-131.8 774.93,-131.8"/>
<polygon fill="black" stroke="black" points="774.93,-128.3 764.93,-131.8 774.93,-135.3 774.93,-128.3"/>
</g>
<!-- SharedModule -->
<g id="node8" class="node">
<title>SharedModule</title>
<polygon fill="#8dd3c7" stroke="black" points="1088.42,-84.8 1085.42,-88.8 1064.42,-88.8 1061.42,-84.8 989.58,-84.8 989.58,-48.8 1088.42,-48.8 1088.42,-84.8"/>
<text text-anchor="middle" x="1039" y="-62.6" font-family="Times,serif" font-size="14.00">SharedModule</text>
</g>
<!-- SharedModule&#45;&gt;BibliographyModule -->
<g id="edge7" class="edge">
<title>SharedModule&#45;&gt;BibliographyModule</title>
<path fill="none" stroke="black" d="M998.22,-84.82C998.22,-102.17 998.22,-125.8 998.22,-125.8 998.22,-125.8 775,-125.8 775,-125.8"/>
<polygon fill="black" stroke="black" points="775,-122.3 765,-125.8 775,-129.3 775,-122.3"/>
</g>
</g>
</svg>
