<?xml version="1.0" encoding="UTF-8" standalone="no"?>
<!DOCTYPE svg PUBLIC "-//W3C//DTD SVG 1.1//EN"
 "http://www.w3.org/Graphics/SVG/1.1/DTD/svg11.dtd">
<!-- Generated by graphviz version 2.40.1 (20161225.0304)
 -->
<!-- Title: dependencies Pages: 1 -->
<svg width="1316pt" height="284pt"
 viewBox="0.00 0.00 1316.00 284.00" xmlns="http://www.w3.org/2000/svg" xmlns:xlink="http://www.w3.org/1999/xlink">
<g id="graph0" class="graph" transform="scale(1 1) rotate(0) translate(4 280)">
<title>dependencies</title>
<polygon fill="#ffffff" stroke="transparent" points="-4,4 -4,-280 1312,-280 1312,4 -4,4"/>
<text text-anchor="start" x="633.0091" y="-42.4" font-family="sans-serif" font-weight="bold" font-size="14.00" fill="#000000">Legend</text>
<polygon fill="#ffffb3" stroke="transparent" points="420,-10 420,-30 440,-30 440,-10 420,-10"/>
<text text-anchor="start" x="443.629" y="-15.4" font-family="sans-serif" font-size="14.00" fill="#000000"> &#160;Declarations</text>
<polygon fill="#8dd3c7" stroke="transparent" points="533,-10 533,-30 553,-30 553,-10 533,-10"/>
<text text-anchor="start" x="556.7251" y="-15.4" font-family="sans-serif" font-size="14.00" fill="#000000"> &#160;Module</text>
<polygon fill="#80b1d3" stroke="transparent" points="619,-10 619,-30 639,-30 639,-10 619,-10"/>
<text text-anchor="start" x="642.7812" y="-15.4" font-family="sans-serif" font-size="14.00" fill="#000000"> &#160;Bootstrap</text>
<polygon fill="#fdb462" stroke="transparent" points="716,-10 716,-30 736,-30 736,-10 716,-10"/>
<text text-anchor="start" x="739.6732" y="-15.4" font-family="sans-serif" font-size="14.00" fill="#000000"> &#160;Providers</text>
<polygon fill="#fb8072" stroke="transparent" points="812,-10 812,-30 832,-30 832,-10 812,-10"/>
<text text-anchor="start" x="835.7258" y="-15.4" font-family="sans-serif" font-size="14.00" fill="#000000"> &#160;Exports</text>
<g id="clust1" class="cluster">
<title>cluster_BibliographyModule</title>
<polygon fill="none" stroke="#000000" stroke-dasharray="1,5" points="8,-70 8,-268 1300,-268 1300,-70 8,-70"/>
</g>
<g id="clust2" class="cluster">
<title>cluster_BibliographyModule_declarations</title>
<polygon fill="none" stroke="#000000" points="334,-78 334,-130 1292,-130 1292,-78 334,-78"/>
</g>
<g id="clust8" class="cluster">
<title>cluster_BibliographyModule_imports</title>
<polygon fill="none" stroke="#000000" points="16,-78 16,-130 326,-130 326,-78 16,-78"/>
</g>
<g id="clust9" class="cluster">
<title>cluster_BibliographyModule_exports</title>
<polygon fill="none" stroke="#000000" points="141,-208 141,-260 1117,-260 1117,-208 141,-208"/>
</g>
<!-- BibliographyComponent -->
<g id="node1" class="node">
<title>BibliographyComponent</title>
<polygon fill="#ffffb3" stroke="#000000" points="1283.7162,-122 1128.2838,-122 1128.2838,-86 1283.7162,-86 1283.7162,-122"/>
<text text-anchor="middle" x="1206" y="-99.8" font-family="Times,serif" font-size="14.00" fill="#000000">BibliographyComponent</text>
</g>
<!-- BibliographyModule -->
<g id="node6" class="node">
<title>BibliographyModule</title>
<polygon fill="#8dd3c7" stroke="#000000" points="708.9341,-187 705.9341,-191 684.9341,-191 681.9341,-187 575.0659,-187 575.0659,-151 708.9341,-151 708.9341,-187"/>
<text text-anchor="middle" x="642" y="-164.8" font-family="Times,serif" font-size="14.00" fill="#000000">BibliographyModule</text>
</g>
<!-- BibliographyComponent&#45;&gt;BibliographyModule -->
<g id="edge1" class="edge">
<title>BibliographyComponent&#45;&gt;BibliographyModule</title>
<path fill="none" stroke="#000000" d="M1206,-122.1061C1206,-141.3391 1206,-169 1206,-169 1206,-169 718.913,-169 718.913,-169"/>
<polygon fill="#000000" stroke="#000000" points="718.913,-165.5001 708.913,-169 718.913,-172.5001 718.913,-165.5001"/>
</g>
<!-- BibliographyDetailComponent -->
<g id="node2" class="node">
<title>BibliographyDetailComponent</title>
<polygon fill="#ffffb3" stroke="#000000" points="1110.9241,-122 921.0759,-122 921.0759,-86 1110.9241,-86 1110.9241,-122"/>
<text text-anchor="middle" x="1016" y="-99.8" font-family="Times,serif" font-size="14.00" fill="#000000">BibliographyDetailComponent</text>
</g>
<!-- BibliographyDetailComponent&#45;&gt;BibliographyModule -->
<g id="edge2" class="edge">
<title>BibliographyDetailComponent&#45;&gt;BibliographyModule</title>
<path fill="none" stroke="#000000" d="M926.875,-122.0225C926.875,-139.3734 926.875,-163 926.875,-163 926.875,-163 718.7905,-163 718.7905,-163"/>
<polygon fill="#000000" stroke="#000000" points="718.7906,-159.5001 708.7905,-163 718.7905,-166.5001 718.7906,-159.5001"/>
</g>
<!-- BibliographyFormatPipe -->
<g id="node3" class="node">
<title>BibliographyFormatPipe</title>
<polygon fill="#ffffb3" stroke="#000000" points="903.7105,-122 748.2895,-122 748.2895,-86 903.7105,-86 903.7105,-122"/>
<text text-anchor="middle" x="826" y="-99.8" font-family="Times,serif" font-size="14.00" fill="#000000">BibliographyFormatPipe</text>
</g>
<!-- BibliographyFormatPipe&#45;&gt;BibliographyModule -->
<g id="edge3" class="edge">
<title>BibliographyFormatPipe&#45;&gt;BibliographyModule</title>
<path fill="none" stroke="#000000" d="M826,-122.2396C826,-137.5706 826,-157 826,-157 826,-157 718.9487,-157 718.9487,-157"/>
<polygon fill="#000000" stroke="#000000" points="718.9488,-153.5001 708.9487,-157 718.9487,-160.5001 718.9488,-153.5001"/>
</g>
<!-- BibliographyListComponent -->
<g id="node4" class="node">
<title>BibliographyListComponent</title>
<polygon fill="#ffffb3" stroke="#000000" points="730.4944,-122 553.5056,-122 553.5056,-86 730.4944,-86 730.4944,-122"/>
<text text-anchor="middle" x="642" y="-99.8" font-family="Times,serif" font-size="14.00" fill="#000000">BibliographyListComponent</text>
</g>
<!-- BibliographyListComponent&#45;&gt;BibliographyModule -->
<g id="edge4" class="edge">
<title>BibliographyListComponent&#45;&gt;BibliographyModule</title>
<path fill="none" stroke="#000000" d="M642,-122.1061C642,-122.1061 642,-140.991 642,-140.991"/>
<polygon fill="#000000" stroke="#000000" points="638.5001,-140.9909 642,-150.991 645.5001,-140.991 638.5001,-140.9909"/>
</g>
<!-- BibliographySearchComponent -->
<g id="node5" class="node">
<title>BibliographySearchComponent</title>
<polygon fill="#ffffb3" stroke="#000000" points="535.8032,-122 342.1968,-122 342.1968,-86 535.8032,-86 535.8032,-122"/>
<text text-anchor="middle" x="439" y="-99.8" font-family="Times,serif" font-size="14.00" fill="#000000">BibliographySearchComponent</text>
</g>
<!-- BibliographySearchComponent&#45;&gt;BibliographyModule -->
<g id="edge5" class="edge">
<title>BibliographySearchComponent&#45;&gt;BibliographyModule</title>
<path fill="none" stroke="#000000" d="M449.7022,-122.2396C449.7022,-137.5706 449.7022,-157 449.7022,-157 449.7022,-157 565.2832,-157 565.2832,-157"/>
<polygon fill="#000000" stroke="#000000" points="565.2833,-160.5001 575.2832,-157 565.2832,-153.5001 565.2833,-160.5001"/>
</g>
<!-- BibliographyComponent  -->
<g id="node9" class="node">
<title>BibliographyComponent </title>
<polygon fill="#fb8072" stroke="#000000" points="1109.2163,-252 950.7837,-252 950.7837,-216 1109.2163,-216 1109.2163,-252"/>
<text text-anchor="middle" x="1030" y="-229.8" font-family="Times,serif" font-size="14.00" fill="#000000">BibliographyComponent </text>
</g>
<!-- BibliographyModule&#45;&gt;BibliographyComponent  -->
<g id="edge8" class="edge">
<title>BibliographyModule&#45;&gt;BibliographyComponent </title>
<path fill="none" stroke="#000000" stroke-dasharray="5,2" d="M709.1415,-175C820.1921,-175 1030,-175 1030,-175 1030,-175 1030,-205.9775 1030,-205.9775"/>
<polygon fill="#000000" stroke="#000000" points="1026.5001,-205.9774 1030,-215.9775 1033.5001,-205.9775 1026.5001,-205.9774"/>
</g>
<!-- BibliographyDetailComponent  -->
<g id="node10" class="node">
<title>BibliographyDetailComponent </title>
<polygon fill="#fb8072" stroke="#000000" points="932.4236,-252 739.5764,-252 739.5764,-216 932.4236,-216 932.4236,-252"/>
<text text-anchor="middle" x="836" y="-229.8" font-family="Times,serif" font-size="14.00" fill="#000000">BibliographyDetailComponent </text>
</g>
<!-- BibliographyModule&#45;&gt;BibliographyDetailComponent  -->
<g id="edge9" class="edge">
<title>BibliographyModule&#45;&gt;BibliographyDetailComponent </title>
<path fill="none" stroke="#000000" stroke-dasharray="5,2" d="M708.8754,-181C728.0949,-181 743.9665,-181 743.9665,-181 743.9665,-181 743.9665,-205.7604 743.9665,-205.7604"/>
<polygon fill="#000000" stroke="#000000" points="740.4666,-205.7604 743.9665,-215.7604 747.4666,-205.7604 740.4666,-205.7604"/>
</g>
<!-- BibliographyFormatPipe  -->
<g id="node11" class="node">
<title>BibliographyFormatPipe </title>
<polygon fill="#fb8072" stroke="#000000" points="721.2107,-252 562.7893,-252 562.7893,-216 721.2107,-216 721.2107,-252"/>
<text text-anchor="middle" x="642" y="-229.8" font-family="Times,serif" font-size="14.00" fill="#000000">BibliographyFormatPipe </text>
</g>
<!-- BibliographyModule&#45;&gt;BibliographyFormatPipe  -->
<g id="edge10" class="edge">
<title>BibliographyModule&#45;&gt;BibliographyFormatPipe </title>
<path fill="none" stroke="#000000" stroke-dasharray="5,2" d="M642,-187.1061C642,-187.1061 642,-205.991 642,-205.991"/>
<polygon fill="#000000" stroke="#000000" points="638.5001,-205.9909 642,-215.991 645.5001,-205.991 638.5001,-205.9909"/>
</g>
<!-- BibliographyListComponent  -->
<g id="node12" class="node">
<title>BibliographyListComponent </title>
<polygon fill="#fb8072" stroke="#000000" points="544.4951,-252 363.5049,-252 363.5049,-216 544.4951,-216 544.4951,-252"/>
<text text-anchor="middle" x="454" y="-229.8" font-family="Times,serif" font-size="14.00" fill="#000000">BibliographyListComponent </text>
</g>
<!-- BibliographyModule&#45;&gt;BibliographyListComponent  -->
<g id="edge11" class="edge">
<title>BibliographyModule&#45;&gt;BibliographyListComponent </title>
<path fill="none" stroke="#000000" stroke-dasharray="5,2" d="M575.0694,-181C555.834,-181 539.9494,-181 539.9494,-181 539.9494,-181 539.9494,-205.7604 539.9494,-205.7604"/>
<polygon fill="#000000" stroke="#000000" points="536.4494,-205.7604 539.9494,-215.7604 543.4494,-205.7604 536.4494,-205.7604"/>
</g>
<!-- BibliographySearchComponent  -->
<g id="node13" class="node">
<title>BibliographySearchComponent </title>
<polygon fill="#fb8072" stroke="#000000" points="345.3031,-252 148.6969,-252 148.6969,-216 345.3031,-216 345.3031,-252"/>
<text text-anchor="middle" x="247" y="-229.8" font-family="Times,serif" font-size="14.00" fill="#000000">BibliographySearchComponent </text>
</g>
<!-- BibliographyModule&#45;&gt;BibliographySearchComponent  -->
<g id="edge12" class="edge">
<title>BibliographyModule&#45;&gt;BibliographySearchComponent </title>
<path fill="none" stroke="#000000" stroke-dasharray="5,2" d="M575.1351,-175C483.5509,-175 330.3121,-175 330.3121,-175 330.3121,-175 330.3121,-205.9775 330.3121,-205.9775"/>
<polygon fill="#000000" stroke="#000000" points="326.8121,-205.9774 330.3121,-215.9775 333.8121,-205.9775 326.8121,-205.9774"/>
</g>
<!-- BibliographyRoutingModule -->
<g id="node7" class="node">
<title>BibliographyRoutingModule</title>
<polygon fill="#8dd3c7" stroke="#000000" points="318.0518,-122 315.0518,-126 294.0518,-126 291.0518,-122 139.9482,-122 139.9482,-86 318.0518,-86 318.0518,-122"/>
<text text-anchor="middle" x="229" y="-99.8" font-family="Times,serif" font-size="14.00" fill="#000000">BibliographyRoutingModule</text>
</g>
<!-- BibliographyRoutingModule&#45;&gt;BibliographyModule -->
<g id="edge6" class="edge">
<title>BibliographyRoutingModule&#45;&gt;BibliographyModule</title>
<path fill="none" stroke="#000000" d="M233.4371,-122.0225C233.4371,-139.3734 233.4371,-163 233.4371,-163 233.4371,-163 564.9916,-163 564.9916,-163"/>
<polygon fill="#000000" stroke="#000000" points="564.9917,-166.5001 574.9916,-163 564.9916,-159.5001 564.9917,-166.5001"/>
</g>
<!-- SharedModule -->
<g id="node8" class="node">
<title>SharedModule</title>
<polygon fill="#8dd3c7" stroke="#000000" points="122.4231,-122 119.4231,-126 98.4231,-126 95.4231,-122 23.5769,-122 23.5769,-86 122.4231,-86 122.4231,-122"/>
<text text-anchor="middle" x="73" y="-99.8" font-family="Times,serif" font-size="14.00" fill="#000000">SharedModule</text>
</g>
<!-- SharedModule&#45;&gt;BibliographyModule -->
<g id="edge7" class="edge">
<title>SharedModule&#45;&gt;BibliographyModule</title>
<path fill="none" stroke="#000000" d="M73,-122.1061C73,-141.3391 73,-169 73,-169 73,-169 565.0553,-169 565.0553,-169"/>
<polygon fill="#000000" stroke="#000000" points="565.0553,-172.5001 575.0553,-169 565.0552,-165.5001 565.0553,-172.5001"/>
</g>
</g>
</svg>
