<?xml version="1.0" encoding="UTF-8" standalone="no"?>
<!DOCTYPE svg PUBLIC "-//W3C//DTD SVG 1.1//EN"
 "http://www.w3.org/Graphics/SVG/1.1/DTD/svg11.dtd">
<!-- Generated by graphviz version 2.40.1 (20161225.0304)
 -->
<!-- Title: dependencies Pages: 1 -->
<svg width="514pt" height="211pt"
 viewBox="0.00 0.00 514.00 211.00" xmlns="http://www.w3.org/2000/svg" xmlns:xlink="http://www.w3.org/1999/xlink">
<g id="graph0" class="graph" transform="scale(1 1) rotate(0) translate(4 207)">
<title>dependencies</title>
<polygon fill="#ffffff" stroke="transparent" points="-4,4 -4,-207 510,-207 510,4 -4,4"/>
<text text-anchor="start" x="232.0091" y="-42.4" font-family="sans-serif" font-weight="bold" font-size="14.00" fill="#000000">Legend</text>
<polygon fill="#ffffb3" stroke="transparent" points="19,-10 19,-30 39,-30 39,-10 19,-10"/>
<text text-anchor="start" x="42.629" y="-15.4" font-family="sans-serif" font-size="14.00" fill="#000000"> &#160;Declarations</text>
<polygon fill="#8dd3c7" stroke="transparent" points="132,-10 132,-30 152,-30 152,-10 132,-10"/>
<text text-anchor="start" x="155.7251" y="-15.4" font-family="sans-serif" font-size="14.00" fill="#000000"> &#160;Module</text>
<polygon fill="#80b1d3" stroke="transparent" points="218,-10 218,-30 238,-30 238,-10 218,-10"/>
<text text-anchor="start" x="241.7812" y="-15.4" font-family="sans-serif" font-size="14.00" fill="#000000"> &#160;Bootstrap</text>
<polygon fill="#fdb462" stroke="transparent" points="315,-10 315,-30 335,-30 335,-10 315,-10"/>
<text text-anchor="start" x="338.6732" y="-15.4" font-family="sans-serif" font-size="14.00" fill="#000000"> &#160;Providers</text>
<polygon fill="#fb8072" stroke="transparent" points="411,-10 411,-30 431,-30 431,-10 411,-10"/>
<text text-anchor="start" x="434.7258" y="-15.4" font-family="sans-serif" font-size="14.00" fill="#000000"> &#160;Exports</text>
<g id="clust1" class="cluster">
<title>cluster_StructureModule</title>
<polygon fill="none" stroke="#000000" stroke-dasharray="1,5" points="8,-70 8,-195 498,-195 498,-70 8,-70"/>
</g>
<g id="clust2" class="cluster">
<title>cluster_StructureModule_declarations</title>
<polygon fill="none" stroke="#000000" points="312,-78 312,-130 490,-130 490,-78 312,-78"/>
</g>
<g id="clust4" class="cluster">
<title>cluster_StructureModule_imports</title>
<polygon fill="none" stroke="#000000" points="16,-78 16,-130 304,-130 304,-78 16,-78"/>
</g>
<!-- StructureViewComponent -->
<g id="node1" class="node">
<title>StructureViewComponent</title>
<polygon fill="#ffffb3" stroke="#000000" points="482.465,-122 319.535,-122 319.535,-86 482.465,-86 482.465,-122"/>
<text text-anchor="middle" x="401" y="-99.8" font-family="Times,serif" font-size="14.00" fill="#000000">StructureViewComponent</text>
</g>
<!-- StructureModule -->
<g id="node2" class="node">
<title>StructureModule</title>
<polygon fill="#8dd3c7" stroke="#000000" points="302.3641,-187 299.3641,-191 278.3641,-191 275.3641,-187 191.6359,-187 191.6359,-151 302.3641,-151 302.3641,-187"/>
<text text-anchor="middle" x="247" y="-164.8" font-family="Times,serif" font-size="14.00" fill="#000000">StructureModule</text>
</g>
<!-- StructureViewComponent&#45;&gt;StructureModule -->
<g id="edge1" class="edge">
<title>StructureViewComponent&#45;&gt;StructureModule</title>
<path fill="none" stroke="#000000" d="M401,-122.1061C401,-141.3391 401,-169 401,-169 401,-169 312.5975,-169 312.5975,-169"/>
<polygon fill="#000000" stroke="#000000" points="312.5976,-165.5001 302.5975,-169 312.5975,-172.5001 312.5976,-165.5001"/>
</g>
<!-- SharedModule -->
<g id="node3" class="node">
<title>SharedModule</title>
<polygon fill="#8dd3c7" stroke="#000000" points="296.4231,-122 293.4231,-126 272.4231,-126 269.4231,-122 197.5769,-122 197.5769,-86 296.4231,-86 296.4231,-122"/>
<text text-anchor="middle" x="247" y="-99.8" font-family="Times,serif" font-size="14.00" fill="#000000">SharedModule</text>
</g>
<!-- SharedModule&#45;&gt;StructureModule -->
<g id="edge2" class="edge">
<title>SharedModule&#45;&gt;StructureModule</title>
<path fill="none" stroke="#000000" d="M247,-122.1061C247,-122.1061 247,-140.991 247,-140.991"/>
<polygon fill="#000000" stroke="#000000" points="243.5001,-140.9909 247,-150.991 250.5001,-140.991 243.5001,-140.9909"/>
</g>
<!-- StructureRoutingModule -->
<g id="node4" class="node">
<title>StructureRoutingModule</title>
<polygon fill="#8dd3c7" stroke="#000000" points="179.9818,-122 176.9818,-126 155.9818,-126 152.9818,-122 24.0182,-122 24.0182,-86 179.9818,-86 179.9818,-122"/>
<text text-anchor="middle" x="102" y="-99.8" font-family="Times,serif" font-size="14.00" fill="#000000">StructureRoutingModule</text>
</g>
<!-- StructureRoutingModule&#45;&gt;StructureModule -->
<g id="edge3" class="edge">
<title>StructureRoutingModule&#45;&gt;StructureModule</title>
<path fill="none" stroke="#000000" d="M102,-122.1061C102,-141.3391 102,-169 102,-169 102,-169 181.3539,-169 181.3539,-169"/>
<polygon fill="#000000" stroke="#000000" points="181.3539,-172.5001 191.3539,-169 181.3539,-165.5001 181.3539,-172.5001"/>
</g>
</g>
</svg>
