<?xml version="1.0" encoding="UTF-8" standalone="no"?>
<!DOCTYPE svg PUBLIC "-//W3C//DTD SVG 1.1//EN"
 "http://www.w3.org/Graphics/SVG/1.1/DTD/svg11.dtd">
<!-- Generated by graphviz version 5.0.0 (20220707.1540)
 -->
<!-- Title: dependencies Pages: 1 -->
<svg width="1833pt" height="174pt"
 viewBox="0.00 0.00 1833.00 173.80" xmlns="http://www.w3.org/2000/svg" xmlns:xlink="http://www.w3.org/1999/xlink">
<g id="graph0" class="graph" transform="scale(1 1) rotate(0) translate(4 169.8)">
<title>dependencies</title>
<polygon fill="white" stroke="transparent" points="-4,4 -4,-169.8 1829,-169.8 1829,4 -4,4"/>
<text text-anchor="middle" x="912.5" y="-8.2" font-family="sans-serif" font-size="14.00">dependencies</text>
<g id="clust1" class="cluster">
<title>cluster_DataViewModule</title>
<polygon fill="none" stroke="black" stroke-dasharray="1,5" points="8,-32.8 8,-157.8 1817,-157.8 1817,-32.8 8,-32.8"/>
</g>
<g id="clust2" class="cluster">
<title>cluster_DataViewModule_declarations</title>
<polygon fill="none" stroke="black" points="482,-40.8 482,-92.8 1809,-92.8 1809,-40.8 482,-40.8"/>
</g>
<g id="clust10" class="cluster">
<title>cluster_DataViewModule_imports</title>
<polygon fill="none" stroke="black" points="16,-40.8 16,-92.8 474,-92.8 474,-40.8 16,-40.8"/>
</g>
<!-- DataViewComponent -->
<g id="node1" class="node">
<title>DataViewComponent</title>
<polygon fill="#ffffb3" stroke="black" points="1801.08,-84.8 1662.92,-84.8 1662.92,-48.8 1801.08,-48.8 1801.08,-84.8"/>
<text text-anchor="middle" x="1732" y="-62.6" font-family="Times,serif" font-size="14.00">DataViewComponent</text>
</g>
<!-- DataViewModule -->
<g id="node8" class="node">
<title>DataViewModule</title>
<polygon fill="#8dd3c7" stroke="black" points="908.3,-149.8 905.3,-153.8 884.3,-153.8 881.3,-149.8 791.7,-149.8 791.7,-113.8 908.3,-113.8 908.3,-149.8"/>
<text text-anchor="middle" x="850" y="-127.6" font-family="Times,serif" font-size="14.00">DataViewModule</text>
</g>
<!-- DataViewComponent&#45;&gt;DataViewModule -->
<g id="edge1" class="edge">
<title>DataViewComponent&#45;&gt;DataViewModule</title>
<path fill="none" stroke="black" d="M1732,-84.81C1732,-107.29 1732,-142.8 1732,-142.8 1732,-142.8 918.21,-142.8 918.21,-142.8"/>
<polygon fill="black" stroke="black" points="918.21,-139.3 908.21,-142.8 918.21,-146.3 918.21,-139.3"/>
</g>
<!-- ExtendedSearchFormComponent -->
<g id="node2" class="node">
<title>ExtendedSearchFormComponent</title>
<polygon fill="#ffffb3" stroke="black" points="1645.13,-84.8 1442.87,-84.8 1442.87,-48.8 1645.13,-48.8 1645.13,-84.8"/>
<text text-anchor="middle" x="1544" y="-62.6" font-family="Times,serif" font-size="14.00">ExtendedSearchFormComponent</text>
</g>
<!-- ExtendedSearchFormComponent&#45;&gt;DataViewModule -->
<g id="edge2" class="edge">
<title>ExtendedSearchFormComponent&#45;&gt;DataViewModule</title>
<path fill="none" stroke="black" d="M1544,-84.93C1544,-105.37 1544,-135.8 1544,-135.8 1544,-135.8 918.27,-135.8 918.27,-135.8"/>
<polygon fill="black" stroke="black" points="918.27,-132.3 908.27,-135.8 918.27,-139.3 918.27,-132.3"/>
</g>
<!-- FulltextSearchFormComponent -->
<g id="node3" class="node">
<title>FulltextSearchFormComponent</title>
<polygon fill="#ffffb3" stroke="black" points="1424.82,-84.8 1231.18,-84.8 1231.18,-48.8 1424.82,-48.8 1424.82,-84.8"/>
<text text-anchor="middle" x="1328" y="-62.6" font-family="Times,serif" font-size="14.00">FulltextSearchFormComponent</text>
</g>
<!-- FulltextSearchFormComponent&#45;&gt;DataViewModule -->
<g id="edge3" class="edge">
<title>FulltextSearchFormComponent&#45;&gt;DataViewModule</title>
<path fill="none" stroke="black" d="M1328,-85.07C1328,-103.36 1328,-128.8 1328,-128.8 1328,-128.8 918.61,-128.8 918.61,-128.8"/>
<polygon fill="black" stroke="black" points="918.61,-125.3 908.61,-128.8 918.61,-132.3 918.61,-125.3"/>
</g>
<!-- ResourceDetailComponent -->
<g id="node4" class="node">
<title>ResourceDetailComponent</title>
<polygon fill="#ffffb3" stroke="black" points="1213.63,-84.8 1046.37,-84.8 1046.37,-48.8 1213.63,-48.8 1213.63,-84.8"/>
<text text-anchor="middle" x="1130" y="-62.6" font-family="Times,serif" font-size="14.00">ResourceDetailComponent</text>
</g>
<!-- ResourceDetailComponent&#45;&gt;DataViewModule -->
<g id="edge4" class="edge">
<title>ResourceDetailComponent&#45;&gt;DataViewModule</title>
<path fill="none" stroke="black" d="M1130,-84.81C1130,-100.85 1130,-121.8 1130,-121.8 1130,-121.8 918.36,-121.8 918.36,-121.8"/>
<polygon fill="black" stroke="black" points="918.36,-118.3 908.36,-121.8 918.36,-125.3 918.36,-118.3"/>
</g>
<!-- SearchOverviewComponent -->
<g id="node5" class="node">
<title>SearchOverviewComponent</title>
<polygon fill="#ffffb3" stroke="black" points="1028.12,-84.8 853.88,-84.8 853.88,-48.8 1028.12,-48.8 1028.12,-84.8"/>
<text text-anchor="middle" x="941" y="-62.6" font-family="Times,serif" font-size="14.00">SearchOverviewComponent</text>
</g>
<!-- SearchOverviewComponent&#45;&gt;DataViewModule -->
<g id="edge5" class="edge">
<title>SearchOverviewComponent&#45;&gt;DataViewModule</title>
<path fill="none" stroke="black" d="M880.92,-84.91C880.92,-84.91 880.92,-103.79 880.92,-103.79"/>
<polygon fill="black" stroke="black" points="877.42,-103.79 880.92,-113.79 884.42,-103.79 877.42,-103.79"/>
</g>
<!-- SearchPanelComponent -->
<g id="node6" class="node">
<title>SearchPanelComponent</title>
<polygon fill="#ffffb3" stroke="black" points="835.03,-84.8 684.97,-84.8 684.97,-48.8 835.03,-48.8 835.03,-84.8"/>
<text text-anchor="middle" x="760" y="-62.6" font-family="Times,serif" font-size="14.00">SearchPanelComponent</text>
</g>
<!-- SearchPanelComponent&#45;&gt;DataViewModule -->
<g id="edge6" class="edge">
<title>SearchPanelComponent&#45;&gt;DataViewModule</title>
<path fill="none" stroke="black" d="M813.56,-84.91C813.56,-84.91 813.56,-103.79 813.56,-103.79"/>
<polygon fill="black" stroke="black" points="810.06,-103.79 813.56,-113.79 817.06,-103.79 810.06,-103.79"/>
</g>
<!-- SearchResultListComponent -->
<g id="node7" class="node">
<title>SearchResultListComponent</title>
<polygon fill="#ffffb3" stroke="black" points="666.48,-84.8 489.52,-84.8 489.52,-48.8 666.48,-48.8 666.48,-84.8"/>
<text text-anchor="middle" x="578" y="-62.6" font-family="Times,serif" font-size="14.00">SearchResultListComponent</text>
</g>
<!-- SearchResultListComponent&#45;&gt;DataViewModule -->
<g id="edge7" class="edge">
<title>SearchResultListComponent&#45;&gt;DataViewModule</title>
<path fill="none" stroke="black" d="M578,-84.81C578,-100.85 578,-121.8 578,-121.8 578,-121.8 781.65,-121.8 781.65,-121.8"/>
<polygon fill="black" stroke="black" points="781.65,-125.3 791.65,-121.8 781.65,-118.3 781.65,-125.3"/>
</g>
<!-- DataViewRoutingModule -->
<g id="node9" class="node">
<title>DataViewRoutingModule</title>
<polygon fill="#8dd3c7" stroke="black" points="465.92,-84.8 462.92,-88.8 441.92,-88.8 438.92,-84.8 304.08,-84.8 304.08,-48.8 465.92,-48.8 465.92,-84.8"/>
<text text-anchor="middle" x="385" y="-62.6" font-family="Times,serif" font-size="14.00">DataViewRoutingModule</text>
</g>
<!-- DataViewRoutingModule&#45;&gt;DataViewModule -->
<g id="edge8" class="edge">
<title>DataViewRoutingModule&#45;&gt;DataViewModule</title>
<path fill="none" stroke="black" d="M385,-85.07C385,-103.36 385,-128.8 385,-128.8 385,-128.8 781.58,-128.8 781.58,-128.8"/>
<polygon fill="black" stroke="black" points="781.58,-132.3 791.58,-128.8 781.58,-125.3 781.58,-132.3"/>
</g>
<!-- ResourceDetailModule -->
<g id="node10" class="node">
<title>ResourceDetailModule</title>
<polygon fill="#8dd3c7" stroke="black" points="285.85,-84.8 282.85,-88.8 261.85,-88.8 258.85,-84.8 140.15,-84.8 140.15,-48.8 285.85,-48.8 285.85,-84.8"/>
<text text-anchor="middle" x="213" y="-62.6" font-family="Times,serif" font-size="14.00">ResourceDetailModule</text>
</g>
<!-- ResourceDetailModule&#45;&gt;DataViewModule -->
<g id="edge9" class="edge">
<title>ResourceDetailModule&#45;&gt;DataViewModule</title>
<path fill="none" stroke="black" d="M213,-84.93C213,-105.37 213,-135.8 213,-135.8 213,-135.8 781.78,-135.8 781.78,-135.8"/>
<polygon fill="black" stroke="black" points="781.78,-139.3 791.78,-135.8 781.78,-132.3 781.78,-139.3"/>
</g>
<!-- SharedModule -->
<g id="node11" class="node">
<title>SharedModule</title>
<polygon fill="#8dd3c7" stroke="black" points="122.43,-84.8 119.43,-88.8 98.43,-88.8 95.43,-84.8 23.57,-84.8 23.57,-48.8 122.43,-48.8 122.43,-84.8"/>
<text text-anchor="middle" x="73" y="-62.6" font-family="Times,serif" font-size="14.00">SharedModule</text>
</g>
<!-- SharedModule&#45;&gt;DataViewModule -->
<g id="edge10" class="edge">
<title>SharedModule&#45;&gt;DataViewModule</title>
<path fill="none" stroke="black" d="M73,-84.81C73,-107.29 73,-142.8 73,-142.8 73,-142.8 781.6,-142.8 781.6,-142.8"/>
<polygon fill="black" stroke="black" points="781.6,-146.3 791.6,-142.8 781.6,-139.3 781.6,-146.3"/>
</g>
</g>
</svg>
