<?xml version="1.0" encoding="UTF-8" standalone="no"?>
<!DOCTYPE svg PUBLIC "-//W3C//DTD SVG 1.1//EN"
 "http://www.w3.org/Graphics/SVG/1.1/DTD/svg11.dtd">
<!-- Generated by graphviz version 2.40.1 (20161225.0304)
 -->
<!-- Title: dependencies Pages: 1 -->
<svg width="1720pt" height="211pt"
 viewBox="0.00 0.00 1720.00 211.00" xmlns="http://www.w3.org/2000/svg" xmlns:xlink="http://www.w3.org/1999/xlink">
<g id="graph0" class="graph" transform="scale(1 1) rotate(0) translate(4 207)">
<title>dependencies</title>
<polygon fill="#ffffff" stroke="transparent" points="-4,4 -4,-207 1716,-207 1716,4 -4,4"/>
<text text-anchor="start" x="835.0091" y="-42.4" font-family="sans-serif" font-weight="bold" font-size="14.00" fill="#000000">Legend</text>
<polygon fill="#ffffb3" stroke="transparent" points="622,-10 622,-30 642,-30 642,-10 622,-10"/>
<text text-anchor="start" x="645.629" y="-15.4" font-family="sans-serif" font-size="14.00" fill="#000000"> &#160;Declarations</text>
<polygon fill="#8dd3c7" stroke="transparent" points="735,-10 735,-30 755,-30 755,-10 735,-10"/>
<text text-anchor="start" x="758.7251" y="-15.4" font-family="sans-serif" font-size="14.00" fill="#000000"> &#160;Module</text>
<polygon fill="#80b1d3" stroke="transparent" points="821,-10 821,-30 841,-30 841,-10 821,-10"/>
<text text-anchor="start" x="844.7812" y="-15.4" font-family="sans-serif" font-size="14.00" fill="#000000"> &#160;Bootstrap</text>
<polygon fill="#fdb462" stroke="transparent" points="918,-10 918,-30 938,-30 938,-10 918,-10"/>
<text text-anchor="start" x="941.6732" y="-15.4" font-family="sans-serif" font-size="14.00" fill="#000000"> &#160;Providers</text>
<polygon fill="#fb8072" stroke="transparent" points="1014,-10 1014,-30 1034,-30 1034,-10 1014,-10"/>
<text text-anchor="start" x="1037.7258" y="-15.4" font-family="sans-serif" font-size="14.00" fill="#000000"> &#160;Exports</text>
<g id="clust1" class="cluster">
<title>cluster_DataViewModule</title>
<polygon fill="none" stroke="#000000" stroke-dasharray="1,5" points="8,-70 8,-195 1704,-195 1704,-70 8,-70"/>
</g>
<g id="clust2" class="cluster">
<title>cluster_DataViewModule_declarations</title>
<polygon fill="none" stroke="#000000" points="482,-78 482,-130 1696,-130 1696,-78 482,-78"/>
</g>
<g id="clust10" class="cluster">
<title>cluster_DataViewModule_imports</title>
<polygon fill="none" stroke="#000000" points="16,-78 16,-130 474,-130 474,-78 16,-78"/>
</g>
<!-- DataViewComponent -->
<g id="node1" class="node">
<title>DataViewComponent</title>
<polygon fill="#ffffb3" stroke="#000000" points="1688.0772,-122 1549.9228,-122 1549.9228,-86 1688.0772,-86 1688.0772,-122"/>
<text text-anchor="middle" x="1619" y="-99.8" font-family="Times,serif" font-size="14.00" fill="#000000">DataViewComponent</text>
</g>
<!-- DataViewModule -->
<g id="node8" class="node">
<title>DataViewModule</title>
<polygon fill="#8dd3c7" stroke="#000000" points="877.295,-187 874.295,-191 853.295,-191 850.295,-187 760.705,-187 760.705,-151 877.295,-151 877.295,-187"/>
<text text-anchor="middle" x="819" y="-164.8" font-family="Times,serif" font-size="14.00" fill="#000000">DataViewModule</text>
</g>
<!-- DataViewComponent&#45;&gt;DataViewModule -->
<g id="edge1" class="edge">
<title>DataViewComponent&#45;&gt;DataViewModule</title>
<path fill="none" stroke="#000000" d="M1619,-122.0109C1619,-144.4852 1619,-180 1619,-180 1619,-180 887.1784,-180 887.1784,-180"/>
<polygon fill="#000000" stroke="#000000" points="887.1785,-176.5001 877.1784,-180 887.1784,-183.5001 887.1785,-176.5001"/>
</g>
<!-- ResourceDetailComponent -->
<g id="node2" class="node">
<title>ResourceDetailComponent</title>
<polygon fill="#ffffb3" stroke="#000000" points="1531.626,-122 1364.374,-122 1364.374,-86 1531.626,-86 1531.626,-122"/>
<text text-anchor="middle" x="1448" y="-99.8" font-family="Times,serif" font-size="14.00" fill="#000000">ResourceDetailComponent</text>
</g>
<!-- ResourceDetailComponent&#45;&gt;DataViewModule -->
<g id="edge2" class="edge">
<title>ResourceDetailComponent&#45;&gt;DataViewModule</title>
<path fill="none" stroke="#000000" d="M1448,-122.1289C1448,-142.5724 1448,-173 1448,-173 1448,-173 887.3284,-173 887.3284,-173"/>
<polygon fill="#000000" stroke="#000000" points="887.3284,-169.5001 877.3284,-173 887.3283,-176.5001 887.3284,-169.5001"/>
</g>
<!-- SearchFormComponent -->
<g id="node3" class="node">
<title>SearchFormComponent</title>
<polygon fill="#ffffb3" stroke="#000000" points="1345.7534,-122 1196.2466,-122 1196.2466,-86 1345.7534,-86 1345.7534,-122"/>
<text text-anchor="middle" x="1271" y="-99.8" font-family="Times,serif" font-size="14.00" fill="#000000">SearchFormComponent</text>
</g>
<!-- SearchFormComponent&#45;&gt;DataViewModule -->
<g id="edge3" class="edge">
<title>SearchFormComponent&#45;&gt;DataViewModule</title>
<path fill="none" stroke="#000000" d="M1271,-122.2667C1271,-140.5552 1271,-166 1271,-166 1271,-166 887.1658,-166 887.1658,-166"/>
<polygon fill="#000000" stroke="#000000" points="887.1658,-162.5001 877.1658,-166 887.1657,-169.5001 887.1658,-162.5001"/>
</g>
<!-- SearchOverviewComponent -->
<g id="node4" class="node">
<title>SearchOverviewComponent</title>
<polygon fill="#ffffb3" stroke="#000000" points="1178.1134,-122 1003.8866,-122 1003.8866,-86 1178.1134,-86 1178.1134,-122"/>
<text text-anchor="middle" x="1091" y="-99.8" font-family="Times,serif" font-size="14.00" fill="#000000">SearchOverviewComponent</text>
</g>
<!-- SearchOverviewComponent&#45;&gt;DataViewModule -->
<g id="edge4" class="edge">
<title>SearchOverviewComponent&#45;&gt;DataViewModule</title>
<path fill="none" stroke="#000000" d="M1091,-122.0091C1091,-138.0494 1091,-159 1091,-159 1091,-159 887.3508,-159 887.3508,-159"/>
<polygon fill="#000000" stroke="#000000" points="887.3509,-155.5001 877.3508,-159 887.3508,-162.5001 887.3509,-155.5001"/>
</g>
<!-- SearchPanelComponent -->
<g id="node5" class="node">
<title>SearchPanelComponent</title>
<polygon fill="#ffffb3" stroke="#000000" points="985.0226,-122 834.9774,-122 834.9774,-86 985.0226,-86 985.0226,-122"/>
<text text-anchor="middle" x="910" y="-99.8" font-family="Times,serif" font-size="14.00" fill="#000000">SearchPanelComponent</text>
</g>
<!-- SearchPanelComponent&#45;&gt;DataViewModule -->
<g id="edge5" class="edge">
<title>SearchPanelComponent&#45;&gt;DataViewModule</title>
<path fill="none" stroke="#000000" d="M855.9432,-122.1061C855.9432,-122.1061 855.9432,-140.991 855.9432,-140.991"/>
<polygon fill="#000000" stroke="#000000" points="852.4433,-140.9909 855.9432,-150.991 859.4433,-140.991 852.4433,-140.9909"/>
</g>
<!-- SearchResultListComponent -->
<g id="node6" class="node">
<title>SearchResultListComponent</title>
<polygon fill="#ffffb3" stroke="#000000" points="816.4748,-122 639.5252,-122 639.5252,-86 816.4748,-86 816.4748,-122"/>
<text text-anchor="middle" x="728" y="-99.8" font-family="Times,serif" font-size="14.00" fill="#000000">SearchResultListComponent</text>
</g>
<!-- SearchResultListComponent&#45;&gt;DataViewModule -->
<g id="edge6" class="edge">
<title>SearchResultListComponent&#45;&gt;DataViewModule</title>
<path fill="none" stroke="#000000" d="M788.67,-122.1061C788.67,-122.1061 788.67,-140.991 788.67,-140.991"/>
<polygon fill="#000000" stroke="#000000" points="785.1701,-140.9909 788.67,-150.991 792.1701,-140.991 785.1701,-140.9909"/>
</g>
<!-- TimelineComponent -->
<g id="node7" class="node">
<title>TimelineComponent</title>
<polygon fill="#ffffb3" stroke="#000000" points="621.8767,-122 490.1233,-122 490.1233,-86 621.8767,-86 621.8767,-122"/>
<text text-anchor="middle" x="556" y="-99.8" font-family="Times,serif" font-size="14.00" fill="#000000">TimelineComponent</text>
</g>
<!-- TimelineComponent&#45;&gt;DataViewModule -->
<g id="edge7" class="edge">
<title>TimelineComponent&#45;&gt;DataViewModule</title>
<path fill="none" stroke="#000000" d="M556,-122.0091C556,-138.0494 556,-159 556,-159 556,-159 750.6318,-159 750.6318,-159"/>
<polygon fill="#000000" stroke="#000000" points="750.6318,-162.5001 760.6318,-159 750.6317,-155.5001 750.6318,-162.5001"/>
</g>
<!-- DataViewRoutingModule -->
<g id="node9" class="node">
<title>DataViewRoutingModule</title>
<polygon fill="#8dd3c7" stroke="#000000" points="465.9129,-122 462.9129,-126 441.9129,-126 438.9129,-122 304.0871,-122 304.0871,-86 465.9129,-86 465.9129,-122"/>
<text text-anchor="middle" x="385" y="-99.8" font-family="Times,serif" font-size="14.00" fill="#000000">DataViewRoutingModule</text>
</g>
<!-- DataViewRoutingModule&#45;&gt;DataViewModule -->
<g id="edge8" class="edge">
<title>DataViewRoutingModule&#45;&gt;DataViewModule</title>
<path fill="none" stroke="#000000" d="M385,-122.2667C385,-140.5552 385,-166 385,-166 385,-166 750.4688,-166 750.4688,-166"/>
<polygon fill="#000000" stroke="#000000" points="750.4689,-169.5001 760.4688,-166 750.4688,-162.5001 750.4689,-169.5001"/>
</g>
<!-- ResourceDetailModule -->
<g id="node10" class="node">
<title>ResourceDetailModule</title>
<polygon fill="#8dd3c7" stroke="#000000" points="285.8431,-122 282.8431,-126 261.8431,-126 258.8431,-122 140.1569,-122 140.1569,-86 285.8431,-86 285.8431,-122"/>
<text text-anchor="middle" x="213" y="-99.8" font-family="Times,serif" font-size="14.00" fill="#000000">ResourceDetailModule</text>
</g>
<!-- ResourceDetailModule&#45;&gt;DataViewModule -->
<g id="edge9" class="edge">
<title>ResourceDetailModule&#45;&gt;DataViewModule</title>
<path fill="none" stroke="#000000" d="M213,-122.1289C213,-142.5724 213,-173 213,-173 213,-173 750.6191,-173 750.6191,-173"/>
<polygon fill="#000000" stroke="#000000" points="750.6192,-176.5001 760.6191,-173 750.6191,-169.5001 750.6192,-176.5001"/>
</g>
<!-- SharedModule -->
<g id="node11" class="node">
<title>SharedModule</title>
<polygon fill="#8dd3c7" stroke="#000000" points="122.4231,-122 119.4231,-126 98.4231,-126 95.4231,-122 23.5769,-122 23.5769,-86 122.4231,-86 122.4231,-122"/>
<text text-anchor="middle" x="73" y="-99.8" font-family="Times,serif" font-size="14.00" fill="#000000">SharedModule</text>
</g>
<!-- SharedModule&#45;&gt;DataViewModule -->
<g id="edge10" class="edge">
<title>SharedModule&#45;&gt;DataViewModule</title>
<path fill="none" stroke="#000000" d="M73,-122.0109C73,-144.4852 73,-180 73,-180 73,-180 750.7734,-180 750.7734,-180"/>
<polygon fill="#000000" stroke="#000000" points="750.7734,-183.5001 760.7734,-180 750.7733,-176.5001 750.7734,-183.5001"/>
</g>
</g>
</svg>
