<?xml version="1.0" encoding="UTF-8" standalone="no"?>
<!DOCTYPE svg PUBLIC "-//W3C//DTD SVG 1.1//EN"
 "http://www.w3.org/Graphics/SVG/1.1/DTD/svg11.dtd">
<!-- Generated by graphviz version 2.47.3 (20210619.1520)
 -->
<!-- Title: dependencies Pages: 1 -->
<svg width="1833pt" height="174pt"
 viewBox="0.00 0.00 1833.00 173.80" xmlns="http://www.w3.org/2000/svg" xmlns:xlink="http://www.w3.org/1999/xlink">
<g id="graph0" class="graph" transform="scale(1 1) rotate(0) translate(4 169.8)">
<title>dependencies</title>
<polygon fill="white" stroke="transparent" points="-4,4 -4,-169.8 1829,-169.8 1829,4 -4,4"/>
<text text-anchor="middle" x="912.5" y="-8.2" font-family="sans-serif" font-size="14.00">dependencies</text>
<g id="clust1" class="cluster">
<title>cluster_DataViewModule</title>
<polygon fill="none" stroke="black" stroke-dasharray="1,5" points="8,-32.8 8,-157.8 1817,-157.8 1817,-32.8 8,-32.8"/>
</g>
<g id="clust10" class="cluster">
<title>cluster_DataViewModule_imports</title>
<polygon fill="none" stroke="black" points="1351,-40.8 1351,-92.8 1809,-92.8 1809,-40.8 1351,-40.8"/>
</g>
<g id="clust2" class="cluster">
<title>cluster_DataViewModule_declarations</title>
<polygon fill="none" stroke="black" points="16,-40.8 16,-92.8 1343,-92.8 1343,-40.8 16,-40.8"/>
</g>
<!-- DataViewComponent -->
<g id="node1" class="node">
<title>DataViewComponent</title>
<polygon fill="#ffffb3" stroke="black" points="1335.08,-84.8 1196.92,-84.8 1196.92,-48.8 1335.08,-48.8 1335.08,-84.8"/>
<text text-anchor="middle" x="1266" y="-62.6" font-family="Times,serif" font-size="14.00">DataViewComponent</text>
</g>
<!-- DataViewModule -->
<g id="node8" class="node">
<title>DataViewModule</title>
<polygon fill="#8dd3c7" stroke="black" points="1028.29,-149.8 1025.29,-153.8 1004.29,-153.8 1001.29,-149.8 911.71,-149.8 911.71,-113.8 1028.29,-113.8 1028.29,-149.8"/>
<text text-anchor="middle" x="970" y="-127.6" font-family="Times,serif" font-size="14.00">DataViewModule</text>
</g>
<!-- DataViewComponent&#45;&gt;DataViewModule -->
<g id="edge1" class="edge">
<title>DataViewComponent&#45;&gt;DataViewModule</title>
<path fill="none" stroke="black" d="M1266,-84.81C1266,-100.85 1266,-121.8 1266,-121.8 1266,-121.8 1038.48,-121.8 1038.48,-121.8"/>
<polygon fill="black" stroke="black" points="1038.48,-118.3 1028.48,-121.8 1038.48,-125.3 1038.48,-118.3"/>
</g>
<!-- ExtendedSearchFormComponent -->
<g id="node2" class="node">
<title>ExtendedSearchFormComponent</title>
<polygon fill="#ffffb3" stroke="black" points="1179.13,-84.8 976.87,-84.8 976.87,-48.8 1179.13,-48.8 1179.13,-84.8"/>
<text text-anchor="middle" x="1078" y="-62.6" font-family="Times,serif" font-size="14.00">ExtendedSearchFormComponent</text>
</g>
<!-- ExtendedSearchFormComponent&#45;&gt;DataViewModule -->
<g id="edge2" class="edge">
<title>ExtendedSearchFormComponent&#45;&gt;DataViewModule</title>
<path fill="none" stroke="black" d="M1002.42,-84.91C1002.42,-84.91 1002.42,-103.79 1002.42,-103.79"/>
<polygon fill="black" stroke="black" points="998.92,-103.79 1002.42,-113.79 1005.92,-103.79 998.92,-103.79"/>
</g>
<!-- FulltextSearchFormComponent -->
<g id="node3" class="node">
<title>FulltextSearchFormComponent</title>
<polygon fill="#ffffb3" stroke="black" points="958.81,-84.8 765.19,-84.8 765.19,-48.8 958.81,-48.8 958.81,-84.8"/>
<text text-anchor="middle" x="862" y="-62.6" font-family="Times,serif" font-size="14.00">FulltextSearchFormComponent</text>
</g>
<!-- FulltextSearchFormComponent&#45;&gt;DataViewModule -->
<g id="edge3" class="edge">
<title>FulltextSearchFormComponent&#45;&gt;DataViewModule</title>
<path fill="none" stroke="black" d="M935.25,-84.91C935.25,-84.91 935.25,-103.79 935.25,-103.79"/>
<polygon fill="black" stroke="black" points="931.75,-103.79 935.25,-113.79 938.75,-103.79 931.75,-103.79"/>
</g>
<!-- ResourceDetailComponent -->
<g id="node4" class="node">
<title>ResourceDetailComponent</title>
<polygon fill="#ffffb3" stroke="black" points="747.63,-84.8 580.37,-84.8 580.37,-48.8 747.63,-48.8 747.63,-84.8"/>
<text text-anchor="middle" x="664" y="-62.6" font-family="Times,serif" font-size="14.00">ResourceDetailComponent</text>
</g>
<!-- ResourceDetailComponent&#45;&gt;DataViewModule -->
<g id="edge4" class="edge">
<title>ResourceDetailComponent&#45;&gt;DataViewModule</title>
<path fill="none" stroke="black" d="M664,-84.81C664,-100.85 664,-121.8 664,-121.8 664,-121.8 901.72,-121.8 901.72,-121.8"/>
<polygon fill="black" stroke="black" points="901.72,-125.3 911.72,-121.8 901.72,-118.3 901.72,-125.3"/>
</g>
<!-- SearchOverviewComponent -->
<g id="node5" class="node">
<title>SearchOverviewComponent</title>
<polygon fill="#ffffb3" stroke="black" points="562.11,-84.8 387.89,-84.8 387.89,-48.8 562.11,-48.8 562.11,-84.8"/>
<text text-anchor="middle" x="475" y="-62.6" font-family="Times,serif" font-size="14.00">SearchOverviewComponent</text>
</g>
<!-- SearchOverviewComponent&#45;&gt;DataViewModule -->
<g id="edge5" class="edge">
<title>SearchOverviewComponent&#45;&gt;DataViewModule</title>
<path fill="none" stroke="black" d="M475,-85.07C475,-103.36 475,-128.8 475,-128.8 475,-128.8 901.76,-128.8 901.76,-128.8"/>
<polygon fill="black" stroke="black" points="901.76,-132.3 911.76,-128.8 901.76,-125.3 901.76,-132.3"/>
</g>
<!-- SearchPanelComponent -->
<g id="node6" class="node">
<title>SearchPanelComponent</title>
<polygon fill="#ffffb3" stroke="black" points="369.02,-84.8 218.98,-84.8 218.98,-48.8 369.02,-48.8 369.02,-84.8"/>
<text text-anchor="middle" x="294" y="-62.6" font-family="Times,serif" font-size="14.00">SearchPanelComponent</text>
</g>
<!-- SearchPanelComponent&#45;&gt;DataViewModule -->
<g id="edge6" class="edge">
<title>SearchPanelComponent&#45;&gt;DataViewModule</title>
<path fill="none" stroke="black" d="M294,-84.93C294,-105.37 294,-135.8 294,-135.8 294,-135.8 901.78,-135.8 901.78,-135.8"/>
<polygon fill="black" stroke="black" points="901.78,-139.3 911.78,-135.8 901.78,-132.3 901.78,-139.3"/>
</g>
<!-- SearchResultListComponent -->
<g id="node7" class="node">
<title>SearchResultListComponent</title>
<polygon fill="#ffffb3" stroke="black" points="200.47,-84.8 23.53,-84.8 23.53,-48.8 200.47,-48.8 200.47,-84.8"/>
<text text-anchor="middle" x="112" y="-62.6" font-family="Times,serif" font-size="14.00">SearchResultListComponent</text>
</g>
<!-- SearchResultListComponent&#45;&gt;DataViewModule -->
<g id="edge7" class="edge">
<title>SearchResultListComponent&#45;&gt;DataViewModule</title>
<path fill="none" stroke="black" d="M112,-84.81C112,-107.29 112,-142.8 112,-142.8 112,-142.8 901.7,-142.8 901.7,-142.8"/>
<polygon fill="black" stroke="black" points="901.7,-146.3 911.7,-142.8 901.7,-139.3 901.7,-146.3"/>
</g>
<!-- DataViewRoutingModule -->
<g id="node9" class="node">
<title>DataViewRoutingModule</title>
<polygon fill="#8dd3c7" stroke="black" points="1800.91,-84.8 1797.91,-88.8 1776.91,-88.8 1773.91,-84.8 1639.09,-84.8 1639.09,-48.8 1800.91,-48.8 1800.91,-84.8"/>
<text text-anchor="middle" x="1720" y="-62.6" font-family="Times,serif" font-size="14.00">DataViewRoutingModule</text>
</g>
<!-- DataViewRoutingModule&#45;&gt;DataViewModule -->
<g id="edge8" class="edge">
<title>DataViewRoutingModule&#45;&gt;DataViewModule</title>
<path fill="none" stroke="black" d="M1720,-84.81C1720,-107.29 1720,-142.8 1720,-142.8 1720,-142.8 1038.23,-142.8 1038.23,-142.8"/>
<polygon fill="black" stroke="black" points="1038.23,-139.3 1028.23,-142.8 1038.23,-146.3 1038.23,-139.3"/>
</g>
<!-- ResourceDetailModule -->
<g id="node10" class="node">
<title>ResourceDetailModule</title>
<polygon fill="#8dd3c7" stroke="black" points="1620.84,-84.8 1617.84,-88.8 1596.84,-88.8 1593.84,-84.8 1475.16,-84.8 1475.16,-48.8 1620.84,-48.8 1620.84,-84.8"/>
<text text-anchor="middle" x="1548" y="-62.6" font-family="Times,serif" font-size="14.00">ResourceDetailModule</text>
</g>
<!-- ResourceDetailModule&#45;&gt;DataViewModule -->
<g id="edge9" class="edge">
<title>ResourceDetailModule&#45;&gt;DataViewModule</title>
<path fill="none" stroke="black" d="M1548,-84.93C1548,-105.37 1548,-135.8 1548,-135.8 1548,-135.8 1038.33,-135.8 1038.33,-135.8"/>
<polygon fill="black" stroke="black" points="1038.33,-132.3 1028.33,-135.8 1038.33,-139.3 1038.33,-132.3"/>
</g>
<!-- SharedModule -->
<g id="node11" class="node">
<title>SharedModule</title>
<polygon fill="#8dd3c7" stroke="black" points="1457.42,-84.8 1454.42,-88.8 1433.42,-88.8 1430.42,-84.8 1358.58,-84.8 1358.58,-48.8 1457.42,-48.8 1457.42,-84.8"/>
<text text-anchor="middle" x="1408" y="-62.6" font-family="Times,serif" font-size="14.00">SharedModule</text>
</g>
<!-- SharedModule&#45;&gt;DataViewModule -->
<g id="edge10" class="edge">
<title>SharedModule&#45;&gt;DataViewModule</title>
<path fill="none" stroke="black" d="M1408,-85.07C1408,-103.36 1408,-128.8 1408,-128.8 1408,-128.8 1038.16,-128.8 1038.16,-128.8"/>
<polygon fill="black" stroke="black" points="1038.16,-125.3 1028.16,-128.8 1038.16,-132.3 1038.16,-125.3"/>
</g>
</g>
</svg>
