<?xml version="1.0" encoding="UTF-8" standalone="no"?>
<!DOCTYPE svg PUBLIC "-//W3C//DTD SVG 1.1//EN"
 "http://www.w3.org/Graphics/SVG/1.1/DTD/svg11.dtd">
<!-- Generated by graphviz version 2.47.0 (20210316.0004)
 -->
<!-- Title: dependencies Pages: 1 -->
<svg width="1833pt" height="211pt"
 viewBox="0.00 0.00 1833.00 211.00" xmlns="http://www.w3.org/2000/svg" xmlns:xlink="http://www.w3.org/1999/xlink">
<g id="graph0" class="graph" transform="scale(1 1) rotate(0) translate(4 207)">
<title>dependencies</title>
<polygon fill="white" stroke="transparent" points="-4,4 -4,-207 1829,-207 1829,4 -4,4"/>
<text text-anchor="start" x="891.51" y="-42.4" font-family="Times-12" font-weight="bold" font-size="14.00">Legend</text>
<polygon fill="#ffffb3" stroke="transparent" points="678.5,-10 678.5,-30 698.5,-30 698.5,-10 678.5,-10"/>
<text text-anchor="start" x="702.13" y="-15.4" font-family="Times-12" font-size="14.00"> &#160;Declarations</text>
<polygon fill="#8dd3c7" stroke="transparent" points="791.5,-10 791.5,-30 811.5,-30 811.5,-10 791.5,-10"/>
<text text-anchor="start" x="815.23" y="-15.4" font-family="Times-12" font-size="14.00"> &#160;Module</text>
<polygon fill="#80b1d3" stroke="transparent" points="877.5,-10 877.5,-30 897.5,-30 897.5,-10 877.5,-10"/>
<text text-anchor="start" x="901.28" y="-15.4" font-family="Times-12" font-size="14.00"> &#160;Bootstrap</text>
<polygon fill="#fdb462" stroke="transparent" points="974.5,-10 974.5,-30 994.5,-30 994.5,-10 974.5,-10"/>
<text text-anchor="start" x="998.17" y="-15.4" font-family="Times-12" font-size="14.00"> &#160;Providers</text>
<polygon fill="#fb8072" stroke="transparent" points="1070.5,-10 1070.5,-30 1090.5,-30 1090.5,-10 1070.5,-10"/>
<text text-anchor="start" x="1094.23" y="-15.4" font-family="Times-12" font-size="14.00"> &#160;Exports</text>
<g id="clust1" class="cluster">
<title>cluster_DataViewModule</title>
<polygon fill="none" stroke="black" stroke-dasharray="1,5" points="8,-70 8,-195 1817,-195 1817,-70 8,-70"/>
</g>
<g id="clust2" class="cluster">
<title>cluster_DataViewModule_declarations</title>
<polygon fill="none" stroke="black" points="482,-78 482,-130 1809,-130 1809,-78 482,-78"/>
</g>
<g id="clust10" class="cluster">
<title>cluster_DataViewModule_imports</title>
<polygon fill="none" stroke="black" points="16,-78 16,-130 474,-130 474,-78 16,-78"/>
</g>
<!-- DataViewComponent -->
<g id="node1" class="node">
<title>DataViewComponent</title>
<polygon fill="#ffffb3" stroke="black" points="1801.08,-122 1662.92,-122 1662.92,-86 1801.08,-86 1801.08,-122"/>
<text text-anchor="middle" x="1732" y="-99.8" font-family="Times,serif" font-size="14.00">DataViewComponent</text>
</g>
<!-- DataViewModule -->
<g id="node8" class="node">
<title>DataViewModule</title>
<polygon fill="#8dd3c7" stroke="black" points="908.29,-187 905.29,-191 884.29,-191 881.29,-187 791.71,-187 791.71,-151 908.29,-151 908.29,-187"/>
<text text-anchor="middle" x="850" y="-164.8" font-family="Times,serif" font-size="14.00">DataViewModule</text>
</g>
<!-- DataViewComponent&#45;&gt;DataViewModule -->
<g id="edge1" class="edge">
<title>DataViewComponent&#45;&gt;DataViewModule</title>
<path fill="none" stroke="black" d="M1732,-122.01C1732,-144.49 1732,-180 1732,-180 1732,-180 918.21,-180 918.21,-180"/>
<polygon fill="black" stroke="black" points="918.21,-176.5 908.21,-180 918.21,-183.5 918.21,-176.5"/>
</g>
<!-- ExtendedSearchFormComponent -->
<g id="node2" class="node">
<title>ExtendedSearchFormComponent</title>
<polygon fill="#ffffb3" stroke="black" points="1645.13,-122 1442.87,-122 1442.87,-86 1645.13,-86 1645.13,-122"/>
<text text-anchor="middle" x="1544" y="-99.8" font-family="Times,serif" font-size="14.00">ExtendedSearchFormComponent</text>
</g>
<!-- ExtendedSearchFormComponent&#45;&gt;DataViewModule -->
<g id="edge2" class="edge">
<title>ExtendedSearchFormComponent&#45;&gt;DataViewModule</title>
<path fill="none" stroke="black" d="M1544,-122.13C1544,-142.57 1544,-173 1544,-173 1544,-173 918.27,-173 918.27,-173"/>
<polygon fill="black" stroke="black" points="918.27,-169.5 908.27,-173 918.27,-176.5 918.27,-169.5"/>
</g>
<!-- FulltextSearchFormComponent -->
<g id="node3" class="node">
<title>FulltextSearchFormComponent</title>
<polygon fill="#ffffb3" stroke="black" points="1424.81,-122 1231.19,-122 1231.19,-86 1424.81,-86 1424.81,-122"/>
<text text-anchor="middle" x="1328" y="-99.8" font-family="Times,serif" font-size="14.00">FulltextSearchFormComponent</text>
</g>
<!-- FulltextSearchFormComponent&#45;&gt;DataViewModule -->
<g id="edge3" class="edge">
<title>FulltextSearchFormComponent&#45;&gt;DataViewModule</title>
<path fill="none" stroke="black" d="M1328,-122.27C1328,-140.56 1328,-166 1328,-166 1328,-166 918.61,-166 918.61,-166"/>
<polygon fill="black" stroke="black" points="918.61,-162.5 908.61,-166 918.61,-169.5 918.61,-162.5"/>
</g>
<!-- ResourceDetailComponent -->
<g id="node4" class="node">
<title>ResourceDetailComponent</title>
<polygon fill="#ffffb3" stroke="black" points="1213.63,-122 1046.37,-122 1046.37,-86 1213.63,-86 1213.63,-122"/>
<text text-anchor="middle" x="1130" y="-99.8" font-family="Times,serif" font-size="14.00">ResourceDetailComponent</text>
</g>
<!-- ResourceDetailComponent&#45;&gt;DataViewModule -->
<g id="edge4" class="edge">
<title>ResourceDetailComponent&#45;&gt;DataViewModule</title>
<path fill="none" stroke="black" d="M1130,-122.01C1130,-138.05 1130,-159 1130,-159 1130,-159 918.36,-159 918.36,-159"/>
<polygon fill="black" stroke="black" points="918.36,-155.5 908.36,-159 918.36,-162.5 918.36,-155.5"/>
</g>
<!-- SearchOverviewComponent -->
<g id="node5" class="node">
<title>SearchOverviewComponent</title>
<polygon fill="#ffffb3" stroke="black" points="1028.11,-122 853.89,-122 853.89,-86 1028.11,-86 1028.11,-122"/>
<text text-anchor="middle" x="941" y="-99.8" font-family="Times,serif" font-size="14.00">SearchOverviewComponent</text>
</g>
<!-- SearchOverviewComponent&#45;&gt;DataViewModule -->
<g id="edge5" class="edge">
<title>SearchOverviewComponent&#45;&gt;DataViewModule</title>
<path fill="none" stroke="black" d="M880.92,-122.11C880.92,-122.11 880.92,-140.99 880.92,-140.99"/>
<polygon fill="black" stroke="black" points="877.42,-140.99 880.92,-150.99 884.42,-140.99 877.42,-140.99"/>
</g>
<!-- SearchPanelComponent -->
<g id="node6" class="node">
<title>SearchPanelComponent</title>
<polygon fill="#ffffb3" stroke="black" points="835.02,-122 684.98,-122 684.98,-86 835.02,-86 835.02,-122"/>
<text text-anchor="middle" x="760" y="-99.8" font-family="Times,serif" font-size="14.00">SearchPanelComponent</text>
</g>
<!-- SearchPanelComponent&#45;&gt;DataViewModule -->
<g id="edge6" class="edge">
<title>SearchPanelComponent&#45;&gt;DataViewModule</title>
<path fill="none" stroke="black" d="M813.56,-122.11C813.56,-122.11 813.56,-140.99 813.56,-140.99"/>
<polygon fill="black" stroke="black" points="810.06,-140.99 813.56,-150.99 817.06,-140.99 810.06,-140.99"/>
</g>
<!-- SearchResultListComponent -->
<g id="node7" class="node">
<title>SearchResultListComponent</title>
<polygon fill="#ffffb3" stroke="black" points="666.47,-122 489.53,-122 489.53,-86 666.47,-86 666.47,-122"/>
<text text-anchor="middle" x="578" y="-99.8" font-family="Times,serif" font-size="14.00">SearchResultListComponent</text>
</g>
<!-- SearchResultListComponent&#45;&gt;DataViewModule -->
<g id="edge7" class="edge">
<title>SearchResultListComponent&#45;&gt;DataViewModule</title>
<path fill="none" stroke="black" d="M578,-122.01C578,-138.05 578,-159 578,-159 578,-159 781.65,-159 781.65,-159"/>
<polygon fill="black" stroke="black" points="781.65,-162.5 791.65,-159 781.65,-155.5 781.65,-162.5"/>
</g>
<!-- DataViewRoutingModule -->
<g id="node9" class="node">
<title>DataViewRoutingModule</title>
<polygon fill="#8dd3c7" stroke="black" points="465.91,-122 462.91,-126 441.91,-126 438.91,-122 304.09,-122 304.09,-86 465.91,-86 465.91,-122"/>
<text text-anchor="middle" x="385" y="-99.8" font-family="Times,serif" font-size="14.00">DataViewRoutingModule</text>
</g>
<!-- DataViewRoutingModule&#45;&gt;DataViewModule -->
<g id="edge8" class="edge">
<title>DataViewRoutingModule&#45;&gt;DataViewModule</title>
<path fill="none" stroke="black" d="M385,-122.27C385,-140.56 385,-166 385,-166 385,-166 781.58,-166 781.58,-166"/>
<polygon fill="black" stroke="black" points="781.58,-169.5 791.58,-166 781.58,-162.5 781.58,-169.5"/>
</g>
<!-- ResourceDetailModule -->
<g id="node10" class="node">
<title>ResourceDetailModule</title>
<polygon fill="#8dd3c7" stroke="black" points="285.84,-122 282.84,-126 261.84,-126 258.84,-122 140.16,-122 140.16,-86 285.84,-86 285.84,-122"/>
<text text-anchor="middle" x="213" y="-99.8" font-family="Times,serif" font-size="14.00">ResourceDetailModule</text>
</g>
<!-- ResourceDetailModule&#45;&gt;DataViewModule -->
<g id="edge9" class="edge">
<title>ResourceDetailModule&#45;&gt;DataViewModule</title>
<path fill="none" stroke="black" d="M213,-122.13C213,-142.57 213,-173 213,-173 213,-173 781.78,-173 781.78,-173"/>
<polygon fill="black" stroke="black" points="781.78,-176.5 791.78,-173 781.78,-169.5 781.78,-176.5"/>
</g>
<!-- SharedModule -->
<g id="node11" class="node">
<title>SharedModule</title>
<polygon fill="#8dd3c7" stroke="black" points="122.42,-122 119.42,-126 98.42,-126 95.42,-122 23.58,-122 23.58,-86 122.42,-86 122.42,-122"/>
<text text-anchor="middle" x="73" y="-99.8" font-family="Times,serif" font-size="14.00">SharedModule</text>
</g>
<!-- SharedModule&#45;&gt;DataViewModule -->
<g id="edge10" class="edge">
<title>SharedModule&#45;&gt;DataViewModule</title>
<path fill="none" stroke="black" d="M73,-122.01C73,-144.49 73,-180 73,-180 73,-180 781.6,-180 781.6,-180"/>
<polygon fill="black" stroke="black" points="781.6,-183.5 791.6,-180 781.6,-176.5 781.6,-183.5"/>
</g>
</g>
</svg>
