<?xml version="1.0" encoding="UTF-8" standalone="no"?>
<!DOCTYPE svg PUBLIC "-//W3C//DTD SVG 1.1//EN"
 "http://www.w3.org/Graphics/SVG/1.1/DTD/svg11.dtd">
<!-- Generated by graphviz version 2.47.0 (20210316.0004)
 -->
<!-- Title: dependencies Pages: 1 -->
<svg width="1570pt" height="211pt"
 viewBox="0.00 0.00 1570.00 211.00" xmlns="http://www.w3.org/2000/svg" xmlns:xlink="http://www.w3.org/1999/xlink">
<g id="graph0" class="graph" transform="scale(1 1) rotate(0) translate(4 207)">
<title>dependencies</title>
<polygon fill="white" stroke="transparent" points="-4,4 -4,-207 1566,-207 1566,4 -4,4"/>
<text text-anchor="start" x="760.01" y="-42.4" font-family="sans-serif" font-weight="bold" font-size="14.00">Legend</text>
<polygon fill="#ffffb3" stroke="transparent" points="547,-10 547,-30 567,-30 567,-10 547,-10"/>
<text text-anchor="start" x="570.63" y="-15.4" font-family="sans-serif" font-size="14.00"> &#160;Declarations</text>
<polygon fill="#8dd3c7" stroke="transparent" points="660,-10 660,-30 680,-30 680,-10 660,-10"/>
<text text-anchor="start" x="683.73" y="-15.4" font-family="sans-serif" font-size="14.00"> &#160;Module</text>
<polygon fill="#80b1d3" stroke="transparent" points="746,-10 746,-30 766,-30 766,-10 746,-10"/>
<text text-anchor="start" x="769.78" y="-15.4" font-family="sans-serif" font-size="14.00"> &#160;Bootstrap</text>
<polygon fill="#fdb462" stroke="transparent" points="843,-10 843,-30 863,-30 863,-10 843,-10"/>
<text text-anchor="start" x="866.67" y="-15.4" font-family="sans-serif" font-size="14.00"> &#160;Providers</text>
<polygon fill="#fb8072" stroke="transparent" points="939,-10 939,-30 959,-30 959,-10 939,-10"/>
<text text-anchor="start" x="962.73" y="-15.4" font-family="sans-serif" font-size="14.00"> &#160;Exports</text>
<g id="clust1" class="cluster">
<title>cluster_DataViewModule</title>
<polygon fill="none" stroke="black" stroke-dasharray="1,5" points="8,-70 8,-195 1554,-195 1554,-70 8,-70"/>
</g>
<g id="clust9" class="cluster">
<title>cluster_DataViewModule_imports</title>
<polygon fill="none" stroke="black" points="1088,-78 1088,-130 1546,-130 1546,-78 1088,-78"/>
</g>
<g id="clust2" class="cluster">
<title>cluster_DataViewModule_declarations</title>
<polygon fill="none" stroke="black" points="16,-78 16,-130 1080,-130 1080,-78 16,-78"/>
</g>
<!-- DataViewComponent -->
<g id="node1" class="node">
<title>DataViewComponent</title>
<polygon fill="#ffffb3" stroke="black" points="1072.08,-122 933.92,-122 933.92,-86 1072.08,-86 1072.08,-122"/>
<text text-anchor="middle" x="1003" y="-99.8" font-family="Times,serif" font-size="14.00">DataViewComponent</text>
</g>
<!-- DataViewModule -->
<g id="node7" class="node">
<title>DataViewModule</title>
<polygon fill="#8dd3c7" stroke="black" points="890.29,-187 887.29,-191 866.29,-191 863.29,-187 773.71,-187 773.71,-151 890.29,-151 890.29,-187"/>
<text text-anchor="middle" x="832" y="-164.8" font-family="Times,serif" font-size="14.00">DataViewModule</text>
</g>
<!-- DataViewComponent&#45;&gt;DataViewModule -->
<g id="edge1" class="edge">
<title>DataViewComponent&#45;&gt;DataViewModule</title>
<path fill="none" stroke="black" d="M1003,-122.01C1003,-138.05 1003,-159 1003,-159 1003,-159 900.37,-159 900.37,-159"/>
<polygon fill="black" stroke="black" points="900.37,-155.5 890.37,-159 900.37,-162.5 900.37,-155.5"/>
</g>
<!-- ResourceDetailComponent -->
<g id="node2" class="node">
<title>ResourceDetailComponent</title>
<polygon fill="#ffffb3" stroke="black" points="915.63,-122 748.37,-122 748.37,-86 915.63,-86 915.63,-122"/>
<text text-anchor="middle" x="832" y="-99.8" font-family="Times,serif" font-size="14.00">ResourceDetailComponent</text>
</g>
<!-- ResourceDetailComponent&#45;&gt;DataViewModule -->
<g id="edge2" class="edge">
<title>ResourceDetailComponent&#45;&gt;DataViewModule</title>
<path fill="none" stroke="black" d="M832,-122.11C832,-122.11 832,-140.99 832,-140.99"/>
<polygon fill="black" stroke="black" points="828.5,-140.99 832,-150.99 835.5,-140.99 828.5,-140.99"/>
</g>
<!-- SearchFormComponent -->
<g id="node3" class="node">
<title>SearchFormComponent</title>
<polygon fill="#ffffb3" stroke="black" points="729.75,-122 580.25,-122 580.25,-86 729.75,-86 729.75,-122"/>
<text text-anchor="middle" x="655" y="-99.8" font-family="Times,serif" font-size="14.00">SearchFormComponent</text>
</g>
<!-- SearchFormComponent&#45;&gt;DataViewModule -->
<g id="edge3" class="edge">
<title>SearchFormComponent&#45;&gt;DataViewModule</title>
<path fill="none" stroke="black" d="M655,-122.01C655,-138.05 655,-159 655,-159 655,-159 763.55,-159 763.55,-159"/>
<polygon fill="black" stroke="black" points="763.55,-162.5 773.55,-159 763.55,-155.5 763.55,-162.5"/>
</g>
<!-- SearchOverviewComponent -->
<g id="node4" class="node">
<title>SearchOverviewComponent</title>
<polygon fill="#ffffb3" stroke="black" points="562.11,-122 387.89,-122 387.89,-86 562.11,-86 562.11,-122"/>
<text text-anchor="middle" x="475" y="-99.8" font-family="Times,serif" font-size="14.00">SearchOverviewComponent</text>
</g>
<!-- SearchOverviewComponent&#45;&gt;DataViewModule -->
<g id="edge4" class="edge">
<title>SearchOverviewComponent&#45;&gt;DataViewModule</title>
<path fill="none" stroke="black" d="M475,-122.27C475,-140.56 475,-166 475,-166 475,-166 763.85,-166 763.85,-166"/>
<polygon fill="black" stroke="black" points="763.85,-169.5 773.85,-166 763.85,-162.5 763.85,-169.5"/>
</g>
<!-- SearchPanelComponent -->
<g id="node5" class="node">
<title>SearchPanelComponent</title>
<polygon fill="#ffffb3" stroke="black" points="369.02,-122 218.98,-122 218.98,-86 369.02,-86 369.02,-122"/>
<text text-anchor="middle" x="294" y="-99.8" font-family="Times,serif" font-size="14.00">SearchPanelComponent</text>
</g>
<!-- SearchPanelComponent&#45;&gt;DataViewModule -->
<g id="edge5" class="edge">
<title>SearchPanelComponent&#45;&gt;DataViewModule</title>
<path fill="none" stroke="black" d="M294,-122.13C294,-142.57 294,-173 294,-173 294,-173 763.66,-173 763.66,-173"/>
<polygon fill="black" stroke="black" points="763.66,-176.5 773.66,-173 763.66,-169.5 763.66,-176.5"/>
</g>
<!-- SearchResultListComponent -->
<g id="node6" class="node">
<title>SearchResultListComponent</title>
<polygon fill="#ffffb3" stroke="black" points="200.47,-122 23.53,-122 23.53,-86 200.47,-86 200.47,-122"/>
<text text-anchor="middle" x="112" y="-99.8" font-family="Times,serif" font-size="14.00">SearchResultListComponent</text>
</g>
<!-- SearchResultListComponent&#45;&gt;DataViewModule -->
<g id="edge6" class="edge">
<title>SearchResultListComponent&#45;&gt;DataViewModule</title>
<path fill="none" stroke="black" d="M112,-122.01C112,-144.49 112,-180 112,-180 112,-180 763.69,-180 763.69,-180"/>
<polygon fill="black" stroke="black" points="763.69,-183.5 773.69,-180 763.69,-176.5 763.69,-183.5"/>
</g>
<!-- DataViewRoutingModule -->
<g id="node8" class="node">
<title>DataViewRoutingModule</title>
<polygon fill="#8dd3c7" stroke="black" points="1537.91,-122 1534.91,-126 1513.91,-126 1510.91,-122 1376.09,-122 1376.09,-86 1537.91,-86 1537.91,-122"/>
<text text-anchor="middle" x="1457" y="-99.8" font-family="Times,serif" font-size="14.00">DataViewRoutingModule</text>
</g>
<!-- DataViewRoutingModule&#45;&gt;DataViewModule -->
<g id="edge7" class="edge">
<title>DataViewRoutingModule&#45;&gt;DataViewModule</title>
<path fill="none" stroke="black" d="M1457,-122.01C1457,-144.49 1457,-180 1457,-180 1457,-180 900.24,-180 900.24,-180"/>
<polygon fill="black" stroke="black" points="900.24,-176.5 890.24,-180 900.24,-183.5 900.24,-176.5"/>
</g>
<!-- ResourceDetailModule -->
<g id="node9" class="node">
<title>ResourceDetailModule</title>
<polygon fill="#8dd3c7" stroke="black" points="1357.84,-122 1354.84,-126 1333.84,-126 1330.84,-122 1212.16,-122 1212.16,-86 1357.84,-86 1357.84,-122"/>
<text text-anchor="middle" x="1285" y="-99.8" font-family="Times,serif" font-size="14.00">ResourceDetailModule</text>
</g>
<!-- ResourceDetailModule&#45;&gt;DataViewModule -->
<g id="edge8" class="edge">
<title>ResourceDetailModule&#45;&gt;DataViewModule</title>
<path fill="none" stroke="black" d="M1285,-122.13C1285,-142.57 1285,-173 1285,-173 1285,-173 900.29,-173 900.29,-173"/>
<polygon fill="black" stroke="black" points="900.29,-169.5 890.29,-173 900.29,-176.5 900.29,-169.5"/>
</g>
<!-- SharedModule -->
<g id="node10" class="node">
<title>SharedModule</title>
<polygon fill="#8dd3c7" stroke="black" points="1194.42,-122 1191.42,-126 1170.42,-126 1167.42,-122 1095.58,-122 1095.58,-86 1194.42,-86 1194.42,-122"/>
<text text-anchor="middle" x="1145" y="-99.8" font-family="Times,serif" font-size="14.00">SharedModule</text>
</g>
<!-- SharedModule&#45;&gt;DataViewModule -->
<g id="edge9" class="edge">
<title>SharedModule&#45;&gt;DataViewModule</title>
<path fill="none" stroke="black" d="M1145,-122.27C1145,-140.56 1145,-166 1145,-166 1145,-166 900.51,-166 900.51,-166"/>
<polygon fill="black" stroke="black" points="900.51,-162.5 890.51,-166 900.51,-169.5 900.51,-162.5"/>
</g>
</g>
</svg>
