<?xml version="1.0" encoding="UTF-8" standalone="no"?>
<!DOCTYPE svg PUBLIC "-//W3C//DTD SVG 1.1//EN"
 "http://www.w3.org/Graphics/SVG/1.1/DTD/svg11.dtd">
<!-- Generated by graphviz version 2.47.3 (20210619.1520)
 -->
<!-- Title: dependencies Pages: 1 -->
<svg width="1570pt" height="174pt"
 viewBox="0.00 0.00 1570.00 173.80" xmlns="http://www.w3.org/2000/svg" xmlns:xlink="http://www.w3.org/1999/xlink">
<g id="graph0" class="graph" transform="scale(1 1) rotate(0) translate(4 169.8)">
<title>dependencies</title>
<polygon fill="white" stroke="transparent" points="-4,4 -4,-169.8 1566,-169.8 1566,4 -4,4"/>
<text text-anchor="middle" x="781" y="-8.2" font-family="sans-serif" font-size="14.00">dependencies</text>
<g id="clust1" class="cluster">
<title>cluster_DataViewModule</title>
<polygon fill="none" stroke="black" stroke-dasharray="1,5" points="8,-32.8 8,-157.8 1554,-157.8 1554,-32.8 8,-32.8"/>
</g>
<g id="clust2" class="cluster">
<title>cluster_DataViewModule_declarations</title>
<polygon fill="none" stroke="black" points="482,-40.8 482,-92.8 1546,-92.8 1546,-40.8 482,-40.8"/>
</g>
<g id="clust9" class="cluster">
<title>cluster_DataViewModule_imports</title>
<polygon fill="none" stroke="black" points="16,-40.8 16,-92.8 474,-92.8 474,-40.8 16,-40.8"/>
</g>
<!-- DataViewComponent -->
<g id="node1" class="node">
<title>DataViewComponent</title>
<polygon fill="#ffffb3" stroke="black" points="1538.08,-84.8 1399.92,-84.8 1399.92,-48.8 1538.08,-48.8 1538.08,-84.8"/>
<text text-anchor="middle" x="1469" y="-62.6" font-family="Times,serif" font-size="14.00">DataViewComponent</text>
</g>
<!-- DataViewModule -->
<g id="node7" class="node">
<title>DataViewModule</title>
<polygon fill="#8dd3c7" stroke="black" points="818.29,-149.8 815.29,-153.8 794.29,-153.8 791.29,-149.8 701.71,-149.8 701.71,-113.8 818.29,-113.8 818.29,-149.8"/>
<text text-anchor="middle" x="760" y="-127.6" font-family="Times,serif" font-size="14.00">DataViewModule</text>
</g>
<!-- DataViewComponent&#45;&gt;DataViewModule -->
<g id="edge1" class="edge">
<title>DataViewComponent&#45;&gt;DataViewModule</title>
<path fill="none" stroke="black" d="M1469,-84.81C1469,-107.29 1469,-142.8 1469,-142.8 1469,-142.8 828.32,-142.8 828.32,-142.8"/>
<polygon fill="black" stroke="black" points="828.32,-139.3 818.32,-142.8 828.32,-146.3 828.32,-139.3"/>
</g>
<!-- ResourceDetailComponent -->
<g id="node2" class="node">
<title>ResourceDetailComponent</title>
<polygon fill="#ffffb3" stroke="black" points="1381.63,-84.8 1214.37,-84.8 1214.37,-48.8 1381.63,-48.8 1381.63,-84.8"/>
<text text-anchor="middle" x="1298" y="-62.6" font-family="Times,serif" font-size="14.00">ResourceDetailComponent</text>
</g>
<!-- ResourceDetailComponent&#45;&gt;DataViewModule -->
<g id="edge2" class="edge">
<title>ResourceDetailComponent&#45;&gt;DataViewModule</title>
<path fill="none" stroke="black" d="M1298,-84.93C1298,-105.37 1298,-135.8 1298,-135.8 1298,-135.8 828.34,-135.8 828.34,-135.8"/>
<polygon fill="black" stroke="black" points="828.34,-132.3 818.34,-135.8 828.34,-139.3 828.34,-132.3"/>
</g>
<!-- SearchFormComponent -->
<g id="node3" class="node">
<title>SearchFormComponent</title>
<polygon fill="#ffffb3" stroke="black" points="1195.75,-84.8 1046.25,-84.8 1046.25,-48.8 1195.75,-48.8 1195.75,-84.8"/>
<text text-anchor="middle" x="1121" y="-62.6" font-family="Times,serif" font-size="14.00">SearchFormComponent</text>
</g>
<!-- SearchFormComponent&#45;&gt;DataViewModule -->
<g id="edge3" class="edge">
<title>SearchFormComponent&#45;&gt;DataViewModule</title>
<path fill="none" stroke="black" d="M1121,-85.07C1121,-103.36 1121,-128.8 1121,-128.8 1121,-128.8 828.4,-128.8 828.4,-128.8"/>
<polygon fill="black" stroke="black" points="828.4,-125.3 818.4,-128.8 828.4,-132.3 828.4,-125.3"/>
</g>
<!-- SearchOverviewComponent -->
<g id="node4" class="node">
<title>SearchOverviewComponent</title>
<polygon fill="#ffffb3" stroke="black" points="1028.11,-84.8 853.89,-84.8 853.89,-48.8 1028.11,-48.8 1028.11,-84.8"/>
<text text-anchor="middle" x="941" y="-62.6" font-family="Times,serif" font-size="14.00">SearchOverviewComponent</text>
</g>
<!-- SearchOverviewComponent&#45;&gt;DataViewModule -->
<g id="edge4" class="edge">
<title>SearchOverviewComponent&#45;&gt;DataViewModule</title>
<path fill="none" stroke="black" d="M941,-84.81C941,-100.85 941,-121.8 941,-121.8 941,-121.8 828.27,-121.8 828.27,-121.8"/>
<polygon fill="black" stroke="black" points="828.27,-118.3 818.27,-121.8 828.27,-125.3 828.27,-118.3"/>
</g>
<!-- SearchPanelComponent -->
<g id="node5" class="node">
<title>SearchPanelComponent</title>
<polygon fill="#ffffb3" stroke="black" points="835.02,-84.8 684.98,-84.8 684.98,-48.8 835.02,-48.8 835.02,-84.8"/>
<text text-anchor="middle" x="760" y="-62.6" font-family="Times,serif" font-size="14.00">SearchPanelComponent</text>
</g>
<!-- SearchPanelComponent&#45;&gt;DataViewModule -->
<g id="edge5" class="edge">
<title>SearchPanelComponent&#45;&gt;DataViewModule</title>
<path fill="none" stroke="black" d="M760,-84.91C760,-84.91 760,-103.79 760,-103.79"/>
<polygon fill="black" stroke="black" points="756.5,-103.79 760,-113.79 763.5,-103.79 756.5,-103.79"/>
</g>
<!-- SearchResultListComponent -->
<g id="node6" class="node">
<title>SearchResultListComponent</title>
<polygon fill="#ffffb3" stroke="black" points="666.47,-84.8 489.53,-84.8 489.53,-48.8 666.47,-48.8 666.47,-84.8"/>
<text text-anchor="middle" x="578" y="-62.6" font-family="Times,serif" font-size="14.00">SearchResultListComponent</text>
</g>
<!-- SearchResultListComponent&#45;&gt;DataViewModule -->
<g id="edge6" class="edge">
<title>SearchResultListComponent&#45;&gt;DataViewModule</title>
<path fill="none" stroke="black" d="M578,-84.81C578,-100.85 578,-121.8 578,-121.8 578,-121.8 691.66,-121.8 691.66,-121.8"/>
<polygon fill="black" stroke="black" points="691.66,-125.3 701.66,-121.8 691.66,-118.3 691.66,-125.3"/>
</g>
<!-- DataViewRoutingModule -->
<g id="node8" class="node">
<title>DataViewRoutingModule</title>
<polygon fill="#8dd3c7" stroke="black" points="465.91,-84.8 462.91,-88.8 441.91,-88.8 438.91,-84.8 304.09,-84.8 304.09,-48.8 465.91,-48.8 465.91,-84.8"/>
<text text-anchor="middle" x="385" y="-62.6" font-family="Times,serif" font-size="14.00">DataViewRoutingModule</text>
</g>
<!-- DataViewRoutingModule&#45;&gt;DataViewModule -->
<g id="edge7" class="edge">
<title>DataViewRoutingModule&#45;&gt;DataViewModule</title>
<path fill="none" stroke="black" d="M385,-85.07C385,-103.36 385,-128.8 385,-128.8 385,-128.8 691.82,-128.8 691.82,-128.8"/>
<polygon fill="black" stroke="black" points="691.82,-132.3 701.82,-128.8 691.82,-125.3 691.82,-132.3"/>
</g>
<!-- ResourceDetailModule -->
<g id="node9" class="node">
<title>ResourceDetailModule</title>
<polygon fill="#8dd3c7" stroke="black" points="285.84,-84.8 282.84,-88.8 261.84,-88.8 258.84,-84.8 140.16,-84.8 140.16,-48.8 285.84,-48.8 285.84,-84.8"/>
<text text-anchor="middle" x="213" y="-62.6" font-family="Times,serif" font-size="14.00">ResourceDetailModule</text>
</g>
<!-- ResourceDetailModule&#45;&gt;DataViewModule -->
<g id="edge8" class="edge">
<title>ResourceDetailModule&#45;&gt;DataViewModule</title>
<path fill="none" stroke="black" d="M213,-84.93C213,-105.37 213,-135.8 213,-135.8 213,-135.8 691.72,-135.8 691.72,-135.8"/>
<polygon fill="black" stroke="black" points="691.72,-139.3 701.72,-135.8 691.72,-132.3 691.72,-139.3"/>
</g>
<!-- SharedModule -->
<g id="node10" class="node">
<title>SharedModule</title>
<polygon fill="#8dd3c7" stroke="black" points="122.42,-84.8 119.42,-88.8 98.42,-88.8 95.42,-84.8 23.58,-84.8 23.58,-48.8 122.42,-48.8 122.42,-84.8"/>
<text text-anchor="middle" x="73" y="-62.6" font-family="Times,serif" font-size="14.00">SharedModule</text>
</g>
<!-- SharedModule&#45;&gt;DataViewModule -->
<g id="edge9" class="edge">
<title>SharedModule&#45;&gt;DataViewModule</title>
<path fill="none" stroke="black" d="M73,-84.81C73,-107.29 73,-142.8 73,-142.8 73,-142.8 691.72,-142.8 691.72,-142.8"/>
<polygon fill="black" stroke="black" points="691.72,-146.3 701.72,-142.8 691.72,-139.3 691.72,-146.3"/>
</g>
</g>
</svg>
