<?xml version="1.0" encoding="UTF-8" standalone="no"?>
<!DOCTYPE svg PUBLIC "-//W3C//DTD SVG 1.1//EN"
 "http://www.w3.org/Graphics/SVG/1.1/DTD/svg11.dtd">
<!-- Generated by graphviz version 2.47.0 (20210316.0004)
 -->
<!-- Title: dependencies Pages: 1 -->
<svg width="1570pt" height="211pt"
 viewBox="0.00 0.00 1570.00 211.00" xmlns="http://www.w3.org/2000/svg" xmlns:xlink="http://www.w3.org/1999/xlink">
<g id="graph0" class="graph" transform="scale(1 1) rotate(0) translate(4 207)">
<title>dependencies</title>
<polygon fill="white" stroke="transparent" points="-4,4 -4,-207 1566,-207 1566,4 -4,4"/>
<text text-anchor="start" x="760.01" y="-42.4" font-family="sans-serif" font-weight="bold" font-size="14.00">Legend</text>
<polygon fill="#ffffb3" stroke="transparent" points="547,-10 547,-30 567,-30 567,-10 547,-10"/>
<text text-anchor="start" x="570.63" y="-15.4" font-family="sans-serif" font-size="14.00"> &#160;Declarations</text>
<polygon fill="#8dd3c7" stroke="transparent" points="660,-10 660,-30 680,-30 680,-10 660,-10"/>
<text text-anchor="start" x="683.73" y="-15.4" font-family="sans-serif" font-size="14.00"> &#160;Module</text>
<polygon fill="#80b1d3" stroke="transparent" points="746,-10 746,-30 766,-30 766,-10 746,-10"/>
<text text-anchor="start" x="769.78" y="-15.4" font-family="sans-serif" font-size="14.00"> &#160;Bootstrap</text>
<polygon fill="#fdb462" stroke="transparent" points="843,-10 843,-30 863,-30 863,-10 843,-10"/>
<text text-anchor="start" x="866.67" y="-15.4" font-family="sans-serif" font-size="14.00"> &#160;Providers</text>
<polygon fill="#fb8072" stroke="transparent" points="939,-10 939,-30 959,-30 959,-10 939,-10"/>
<text text-anchor="start" x="962.73" y="-15.4" font-family="sans-serif" font-size="14.00"> &#160;Exports</text>
<g id="clust1" class="cluster">
<title>cluster_DataViewModule</title>
<polygon fill="none" stroke="black" stroke-dasharray="1,5" points="8,-70 8,-195 1554,-195 1554,-70 8,-70"/>
</g>
<g id="clust2" class="cluster">
<title>cluster_DataViewModule_declarations</title>
<polygon fill="none" stroke="black" points="482,-78 482,-130 1546,-130 1546,-78 482,-78"/>
</g>
<g id="clust9" class="cluster">
<title>cluster_DataViewModule_imports</title>
<polygon fill="none" stroke="black" points="16,-78 16,-130 474,-130 474,-78 16,-78"/>
</g>
<!-- DataViewComponent -->
<g id="node1" class="node">
<title>DataViewComponent</title>
<polygon fill="#ffffb3" stroke="black" points="1538.08,-122 1399.92,-122 1399.92,-86 1538.08,-86 1538.08,-122"/>
<text text-anchor="middle" x="1469" y="-99.8" font-family="Times,serif" font-size="14.00">DataViewComponent</text>
</g>
<!-- DataViewModule -->
<g id="node7" class="node">
<title>DataViewModule</title>
<polygon fill="#8dd3c7" stroke="black" points="818.29,-187 815.29,-191 794.29,-191 791.29,-187 701.71,-187 701.71,-151 818.29,-151 818.29,-187"/>
<text text-anchor="middle" x="760" y="-164.8" font-family="Times,serif" font-size="14.00">DataViewModule</text>
</g>
<!-- DataViewComponent&#45;&gt;DataViewModule -->
<g id="edge1" class="edge">
<title>DataViewComponent&#45;&gt;DataViewModule</title>
<path fill="none" stroke="black" d="M1469,-122.01C1469,-144.49 1469,-180 1469,-180 1469,-180 828.32,-180 828.32,-180"/>
<polygon fill="black" stroke="black" points="828.32,-176.5 818.32,-180 828.32,-183.5 828.32,-176.5"/>
</g>
<!-- ResourceDetailComponent -->
<g id="node2" class="node">
<title>ResourceDetailComponent</title>
<polygon fill="#ffffb3" stroke="black" points="1381.63,-122 1214.37,-122 1214.37,-86 1381.63,-86 1381.63,-122"/>
<text text-anchor="middle" x="1298" y="-99.8" font-family="Times,serif" font-size="14.00">ResourceDetailComponent</text>
</g>
<!-- ResourceDetailComponent&#45;&gt;DataViewModule -->
<g id="edge2" class="edge">
<title>ResourceDetailComponent&#45;&gt;DataViewModule</title>
<path fill="none" stroke="black" d="M1298,-122.13C1298,-142.57 1298,-173 1298,-173 1298,-173 828.34,-173 828.34,-173"/>
<polygon fill="black" stroke="black" points="828.34,-169.5 818.34,-173 828.34,-176.5 828.34,-169.5"/>
</g>
<!-- SearchFormComponent -->
<g id="node3" class="node">
<title>SearchFormComponent</title>
<polygon fill="#ffffb3" stroke="black" points="1195.75,-122 1046.25,-122 1046.25,-86 1195.75,-86 1195.75,-122"/>
<text text-anchor="middle" x="1121" y="-99.8" font-family="Times,serif" font-size="14.00">SearchFormComponent</text>
</g>
<!-- SearchFormComponent&#45;&gt;DataViewModule -->
<g id="edge3" class="edge">
<title>SearchFormComponent&#45;&gt;DataViewModule</title>
<path fill="none" stroke="black" d="M1121,-122.27C1121,-140.56 1121,-166 1121,-166 1121,-166 828.4,-166 828.4,-166"/>
<polygon fill="black" stroke="black" points="828.4,-162.5 818.4,-166 828.4,-169.5 828.4,-162.5"/>
</g>
<!-- SearchOverviewComponent -->
<g id="node4" class="node">
<title>SearchOverviewComponent</title>
<polygon fill="#ffffb3" stroke="black" points="1028.11,-122 853.89,-122 853.89,-86 1028.11,-86 1028.11,-122"/>
<text text-anchor="middle" x="941" y="-99.8" font-family="Times,serif" font-size="14.00">SearchOverviewComponent</text>
</g>
<!-- SearchOverviewComponent&#45;&gt;DataViewModule -->
<g id="edge4" class="edge">
<title>SearchOverviewComponent&#45;&gt;DataViewModule</title>
<path fill="none" stroke="black" d="M941,-122.01C941,-138.05 941,-159 941,-159 941,-159 828.27,-159 828.27,-159"/>
<polygon fill="black" stroke="black" points="828.27,-155.5 818.27,-159 828.27,-162.5 828.27,-155.5"/>
</g>
<!-- SearchPanelComponent -->
<g id="node5" class="node">
<title>SearchPanelComponent</title>
<polygon fill="#ffffb3" stroke="black" points="835.02,-122 684.98,-122 684.98,-86 835.02,-86 835.02,-122"/>
<text text-anchor="middle" x="760" y="-99.8" font-family="Times,serif" font-size="14.00">SearchPanelComponent</text>
</g>
<!-- SearchPanelComponent&#45;&gt;DataViewModule -->
<g id="edge5" class="edge">
<title>SearchPanelComponent&#45;&gt;DataViewModule</title>
<path fill="none" stroke="black" d="M760,-122.11C760,-122.11 760,-140.99 760,-140.99"/>
<polygon fill="black" stroke="black" points="756.5,-140.99 760,-150.99 763.5,-140.99 756.5,-140.99"/>
</g>
<!-- SearchResultListComponent -->
<g id="node6" class="node">
<title>SearchResultListComponent</title>
<polygon fill="#ffffb3" stroke="black" points="666.47,-122 489.53,-122 489.53,-86 666.47,-86 666.47,-122"/>
<text text-anchor="middle" x="578" y="-99.8" font-family="Times,serif" font-size="14.00">SearchResultListComponent</text>
</g>
<!-- SearchResultListComponent&#45;&gt;DataViewModule -->
<g id="edge6" class="edge">
<title>SearchResultListComponent&#45;&gt;DataViewModule</title>
<path fill="none" stroke="black" d="M578,-122.01C578,-138.05 578,-159 578,-159 578,-159 691.66,-159 691.66,-159"/>
<polygon fill="black" stroke="black" points="691.66,-162.5 701.66,-159 691.66,-155.5 691.66,-162.5"/>
</g>
<!-- DataViewRoutingModule -->
<g id="node8" class="node">
<title>DataViewRoutingModule</title>
<polygon fill="#8dd3c7" stroke="black" points="465.91,-122 462.91,-126 441.91,-126 438.91,-122 304.09,-122 304.09,-86 465.91,-86 465.91,-122"/>
<text text-anchor="middle" x="385" y="-99.8" font-family="Times,serif" font-size="14.00">DataViewRoutingModule</text>
</g>
<!-- DataViewRoutingModule&#45;&gt;DataViewModule -->
<g id="edge7" class="edge">
<title>DataViewRoutingModule&#45;&gt;DataViewModule</title>
<path fill="none" stroke="black" d="M385,-122.27C385,-140.56 385,-166 385,-166 385,-166 691.82,-166 691.82,-166"/>
<polygon fill="black" stroke="black" points="691.82,-169.5 701.82,-166 691.82,-162.5 691.82,-169.5"/>
</g>
<!-- ResourceDetailModule -->
<g id="node9" class="node">
<title>ResourceDetailModule</title>
<polygon fill="#8dd3c7" stroke="black" points="285.84,-122 282.84,-126 261.84,-126 258.84,-122 140.16,-122 140.16,-86 285.84,-86 285.84,-122"/>
<text text-anchor="middle" x="213" y="-99.8" font-family="Times,serif" font-size="14.00">ResourceDetailModule</text>
</g>
<!-- ResourceDetailModule&#45;&gt;DataViewModule -->
<g id="edge8" class="edge">
<title>ResourceDetailModule&#45;&gt;DataViewModule</title>
<path fill="none" stroke="black" d="M213,-122.13C213,-142.57 213,-173 213,-173 213,-173 691.72,-173 691.72,-173"/>
<polygon fill="black" stroke="black" points="691.72,-176.5 701.72,-173 691.72,-169.5 691.72,-176.5"/>
</g>
<!-- SharedModule -->
<g id="node10" class="node">
<title>SharedModule</title>
<polygon fill="#8dd3c7" stroke="black" points="122.42,-122 119.42,-126 98.42,-126 95.42,-122 23.58,-122 23.58,-86 122.42,-86 122.42,-122"/>
<text text-anchor="middle" x="73" y="-99.8" font-family="Times,serif" font-size="14.00">SharedModule</text>
</g>
<!-- SharedModule&#45;&gt;DataViewModule -->
<g id="edge9" class="edge">
<title>SharedModule&#45;&gt;DataViewModule</title>
<path fill="none" stroke="black" d="M73,-122.01C73,-144.49 73,-180 73,-180 73,-180 691.72,-180 691.72,-180"/>
<polygon fill="black" stroke="black" points="691.72,-183.5 701.72,-180 691.72,-176.5 691.72,-183.5"/>
</g>
</g>
</svg>
