<?xml version="1.0" encoding="UTF-8" standalone="no"?>
<!DOCTYPE svg PUBLIC "-//W3C//DTD SVG 1.1//EN"
 "http://www.w3.org/Graphics/SVG/1.1/DTD/svg11.dtd">
<!-- Generated by graphviz version 2.47.3 (20210619.1520)
 -->
<!-- Title: dependencies Pages: 1 -->
<svg width="826pt" height="247pt"
 viewBox="0.00 0.00 826.00 246.80" xmlns="http://www.w3.org/2000/svg" xmlns:xlink="http://www.w3.org/1999/xlink">
<g id="graph0" class="graph" transform="scale(1 1) rotate(0) translate(4 242.8)">
<title>dependencies</title>
<polygon fill="white" stroke="transparent" points="-4,4 -4,-242.8 822,-242.8 822,4 -4,4"/>
<text text-anchor="middle" x="409" y="-8.2" font-family="sans-serif" font-size="14.00">dependencies</text>
<g id="clust1" class="cluster">
<title>cluster_AppModule</title>
<polygon fill="none" stroke="black" stroke-dasharray="1,5" points="8,-32.8 8,-230.8 810,-230.8 810,-32.8 8,-32.8"/>
</g>
<g id="clust7" class="cluster">
<title>cluster_AppModule_bootstrap</title>
<polygon fill="none" stroke="black" points="370,-170.8 370,-222.8 494,-222.8 494,-170.8 370,-170.8"/>
</g>
<g id="clust5" class="cluster">
<title>cluster_AppModule_imports</title>
<polygon fill="none" stroke="black" points="310,-40.8 310,-92.8 802,-92.8 802,-40.8 310,-40.8"/>
</g>
<g id="clust2" class="cluster">
<title>cluster_AppModule_declarations</title>
<polygon fill="none" stroke="black" points="16,-40.8 16,-92.8 302,-92.8 302,-40.8 16,-40.8"/>
</g>
<!-- AppComponent -->
<g id="node1" class="node">
<title>AppComponent</title>
<polygon fill="#ffffb3" stroke="black" points="293.94,-84.8 188.06,-84.8 188.06,-48.8 293.94,-48.8 293.94,-84.8"/>
<text text-anchor="middle" x="241" y="-62.6" font-family="Times,serif" font-size="14.00">AppComponent</text>
</g>
<!-- AppModule -->
<g id="node3" class="node">
<title>AppModule</title>
<polygon fill="#8dd3c7" stroke="black" points="473.66,-149.8 470.66,-153.8 449.66,-153.8 446.66,-149.8 390.34,-149.8 390.34,-113.8 473.66,-113.8 473.66,-149.8"/>
<text text-anchor="middle" x="432" y="-127.6" font-family="Times,serif" font-size="14.00">AppModule</text>
</g>
<!-- AppComponent&#45;&gt;AppModule -->
<g id="edge1" class="edge">
<title>AppComponent&#45;&gt;AppModule</title>
<path fill="none" stroke="black" d="M241,-84.82C241,-102.17 241,-125.8 241,-125.8 241,-125.8 380.08,-125.8 380.08,-125.8"/>
<polygon fill="black" stroke="black" points="380.08,-129.3 390.08,-125.8 380.08,-122.3 380.08,-129.3"/>
</g>
<!-- HomeViewComponent -->
<g id="node2" class="node">
<title>HomeViewComponent</title>
<polygon fill="#ffffb3" stroke="black" points="169.86,-84.8 24.14,-84.8 24.14,-48.8 169.86,-48.8 169.86,-84.8"/>
<text text-anchor="middle" x="97" y="-62.6" font-family="Times,serif" font-size="14.00">HomeViewComponent</text>
</g>
<!-- HomeViewComponent&#45;&gt;AppModule -->
<g id="edge2" class="edge">
<title>HomeViewComponent&#45;&gt;AppModule</title>
<path fill="none" stroke="black" d="M97,-85.08C97,-106.12 97,-137.8 97,-137.8 97,-137.8 380.25,-137.8 380.25,-137.8"/>
<polygon fill="black" stroke="black" points="380.25,-141.3 390.25,-137.8 380.25,-134.3 380.25,-141.3"/>
</g>
<!-- AppComponent  -->
<g id="node8" class="node">
<title>AppComponent </title>
<polygon fill="#80b1d3" stroke="black" points="486.44,-214.8 377.56,-214.8 377.56,-178.8 486.44,-178.8 486.44,-214.8"/>
<text text-anchor="middle" x="432" y="-192.6" font-family="Times,serif" font-size="14.00">AppComponent </text>
</g>
<!-- AppModule&#45;&gt;AppComponent  -->
<g id="edge7" class="edge">
<title>AppModule&#45;&gt;AppComponent </title>
<path fill="none" stroke="black" stroke-dasharray="1,5" d="M432,-149.91C432,-149.91 432,-168.79 432,-168.79"/>
<polygon fill="black" stroke="black" points="428.5,-168.79 432,-178.79 435.5,-168.79 428.5,-168.79"/>
</g>
<!-- AppRoutingModule -->
<g id="node4" class="node">
<title>AppRoutingModule</title>
<polygon fill="#8dd3c7" stroke="black" points="794.27,-84.8 791.27,-88.8 770.27,-88.8 767.27,-84.8 665.73,-84.8 665.73,-48.8 794.27,-48.8 794.27,-84.8"/>
<text text-anchor="middle" x="730" y="-62.6" font-family="Times,serif" font-size="14.00">AppRoutingModule</text>
</g>
<!-- AppRoutingModule&#45;&gt;AppModule -->
<g id="edge3" class="edge">
<title>AppRoutingModule&#45;&gt;AppModule</title>
<path fill="none" stroke="black" d="M730,-85.08C730,-106.12 730,-137.8 730,-137.8 730,-137.8 483.75,-137.8 483.75,-137.8"/>
<polygon fill="black" stroke="black" points="483.75,-134.3 473.75,-137.8 483.75,-141.3 483.75,-134.3"/>
</g>
<!-- CoreModule -->
<g id="node5" class="node">
<title>CoreModule</title>
<polygon fill="#8dd3c7" stroke="black" points="647.26,-84.8 644.26,-88.8 623.26,-88.8 620.26,-84.8 560.74,-84.8 560.74,-48.8 647.26,-48.8 647.26,-84.8"/>
<text text-anchor="middle" x="604" y="-62.6" font-family="Times,serif" font-size="14.00">CoreModule</text>
</g>
<!-- CoreModule&#45;&gt;AppModule -->
<g id="edge4" class="edge">
<title>CoreModule&#45;&gt;AppModule</title>
<path fill="none" stroke="black" d="M604,-84.82C604,-102.17 604,-125.8 604,-125.8 604,-125.8 484.08,-125.8 484.08,-125.8"/>
<polygon fill="black" stroke="black" points="484.08,-122.3 474.08,-125.8 484.08,-129.3 484.08,-122.3"/>
</g>
<!-- SharedModule -->
<g id="node6" class="node">
<title>SharedModule</title>
<polygon fill="#8dd3c7" stroke="black" points="542.42,-84.8 539.42,-88.8 518.42,-88.8 515.42,-84.8 443.58,-84.8 443.58,-48.8 542.42,-48.8 542.42,-84.8"/>
<text text-anchor="middle" x="493" y="-62.6" font-family="Times,serif" font-size="14.00">SharedModule</text>
</g>
<!-- SharedModule&#45;&gt;AppModule -->
<g id="edge5" class="edge">
<title>SharedModule&#45;&gt;AppModule</title>
<path fill="none" stroke="black" d="M458.81,-84.91C458.81,-84.91 458.81,-103.79 458.81,-103.79"/>
<polygon fill="black" stroke="black" points="455.31,-103.79 458.81,-113.79 462.31,-103.79 455.31,-103.79"/>
</g>
<!-- SideInfoModule -->
<g id="node7" class="node">
<title>SideInfoModule</title>
<polygon fill="#8dd3c7" stroke="black" points="425.76,-84.8 422.76,-88.8 401.76,-88.8 398.76,-84.8 318.24,-84.8 318.24,-48.8 425.76,-48.8 425.76,-84.8"/>
<text text-anchor="middle" x="372" y="-62.6" font-family="Times,serif" font-size="14.00">SideInfoModule</text>
</g>
<!-- SideInfoModule&#45;&gt;AppModule -->
<g id="edge6" class="edge">
<title>SideInfoModule&#45;&gt;AppModule</title>
<path fill="none" stroke="black" d="M408.03,-84.91C408.03,-84.91 408.03,-103.79 408.03,-103.79"/>
<polygon fill="black" stroke="black" points="404.53,-103.79 408.03,-113.79 411.53,-103.79 404.53,-103.79"/>
</g>
</g>
</svg>
