<?xml version="1.0" encoding="UTF-8" standalone="no"?>
<!DOCTYPE svg PUBLIC "-//W3C//DTD SVG 1.1//EN"
 "http://www.w3.org/Graphics/SVG/1.1/DTD/svg11.dtd">
<!-- Generated by graphviz version 5.0.0 (20220707.1540)
 -->
<!-- Title: dependencies Pages: 1 -->
<svg width="826pt" height="247pt"
 viewBox="0.00 0.00 826.00 246.80" xmlns="http://www.w3.org/2000/svg" xmlns:xlink="http://www.w3.org/1999/xlink">
<g id="graph0" class="graph" transform="scale(1 1) rotate(0) translate(4 242.8)">
<title>dependencies</title>
<polygon fill="white" stroke="transparent" points="-4,4 -4,-242.8 822,-242.8 822,4 -4,4"/>
<text text-anchor="middle" x="409" y="-8.2" font-family="sans-serif" font-size="14.00">dependencies</text>
<g id="clust1" class="cluster">
<title>cluster_AppModule</title>
<polygon fill="none" stroke="black" stroke-dasharray="1,5" points="8,-32.8 8,-230.8 810,-230.8 810,-32.8 8,-32.8"/>
</g>
<g id="clust2" class="cluster">
<title>cluster_AppModule_declarations</title>
<polygon fill="none" stroke="black" points="516,-40.8 516,-92.8 802,-92.8 802,-40.8 516,-40.8"/>
</g>
<g id="clust5" class="cluster">
<title>cluster_AppModule_imports</title>
<polygon fill="none" stroke="black" points="16,-40.8 16,-92.8 508,-92.8 508,-40.8 16,-40.8"/>
</g>
<g id="clust7" class="cluster">
<title>cluster_AppModule_bootstrap</title>
<polygon fill="none" stroke="black" points="311,-170.8 311,-222.8 435,-222.8 435,-170.8 311,-170.8"/>
</g>
<!-- AppComponent -->
<g id="node1" class="node">
<title>AppComponent</title>
<polygon fill="#ffffb3" stroke="black" points="793.94,-84.8 688.06,-84.8 688.06,-48.8 793.94,-48.8 793.94,-84.8"/>
<text text-anchor="middle" x="741" y="-62.6" font-family="Times,serif" font-size="14.00">AppComponent</text>
</g>
<!-- AppModule -->
<g id="node3" class="node">
<title>AppModule</title>
<polygon fill="#8dd3c7" stroke="black" points="414.66,-149.8 411.66,-153.8 390.66,-153.8 387.66,-149.8 331.34,-149.8 331.34,-113.8 414.66,-113.8 414.66,-149.8"/>
<text text-anchor="middle" x="373" y="-127.6" font-family="Times,serif" font-size="14.00">AppModule</text>
</g>
<!-- AppComponent&#45;&gt;AppModule -->
<g id="edge1" class="edge">
<title>AppComponent&#45;&gt;AppModule</title>
<path fill="none" stroke="black" d="M741,-85.08C741,-106.12 741,-137.8 741,-137.8 741,-137.8 424.86,-137.8 424.86,-137.8"/>
<polygon fill="black" stroke="black" points="424.86,-134.3 414.86,-137.8 424.86,-141.3 424.86,-134.3"/>
</g>
<!-- HomeViewComponent -->
<g id="node2" class="node">
<title>HomeViewComponent</title>
<polygon fill="#ffffb3" stroke="black" points="669.87,-84.8 524.13,-84.8 524.13,-48.8 669.87,-48.8 669.87,-84.8"/>
<text text-anchor="middle" x="597" y="-62.6" font-family="Times,serif" font-size="14.00">HomeViewComponent</text>
</g>
<!-- HomeViewComponent&#45;&gt;AppModule -->
<g id="edge2" class="edge">
<title>HomeViewComponent&#45;&gt;AppModule</title>
<path fill="none" stroke="black" d="M597,-84.82C597,-102.17 597,-125.8 597,-125.8 597,-125.8 424.87,-125.8 424.87,-125.8"/>
<polygon fill="black" stroke="black" points="424.87,-122.3 414.87,-125.8 424.87,-129.3 424.87,-122.3"/>
</g>
<!-- AppComponent  -->
<g id="node8" class="node">
<title>AppComponent </title>
<polygon fill="#80b1d3" stroke="black" points="427.44,-214.8 318.56,-214.8 318.56,-178.8 427.44,-178.8 427.44,-214.8"/>
<text text-anchor="middle" x="373" y="-192.6" font-family="Times,serif" font-size="14.00">AppComponent </text>
</g>
<!-- AppModule&#45;&gt;AppComponent  -->
<g id="edge7" class="edge">
<title>AppModule&#45;&gt;AppComponent </title>
<path fill="none" stroke="black" stroke-dasharray="1,5" d="M373,-149.91C373,-149.91 373,-168.79 373,-168.79"/>
<polygon fill="black" stroke="black" points="369.5,-168.79 373,-178.79 376.5,-168.79 369.5,-168.79"/>
</g>
<!-- AppRoutingModule -->
<g id="node4" class="node">
<title>AppRoutingModule</title>
<polygon fill="#8dd3c7" stroke="black" points="500.28,-84.8 497.28,-88.8 476.28,-88.8 473.28,-84.8 371.72,-84.8 371.72,-48.8 500.28,-48.8 500.28,-84.8"/>
<text text-anchor="middle" x="436" y="-62.6" font-family="Times,serif" font-size="14.00">AppRoutingModule</text>
</g>
<!-- AppRoutingModule&#45;&gt;AppModule -->
<g id="edge3" class="edge">
<title>AppRoutingModule&#45;&gt;AppModule</title>
<path fill="none" stroke="black" d="M393.22,-84.91C393.22,-84.91 393.22,-103.79 393.22,-103.79"/>
<polygon fill="black" stroke="black" points="389.72,-103.79 393.22,-113.79 396.72,-103.79 389.72,-103.79"/>
</g>
<!-- CoreModule -->
<g id="node5" class="node">
<title>CoreModule</title>
<polygon fill="#8dd3c7" stroke="black" points="353.27,-84.8 350.27,-88.8 329.27,-88.8 326.27,-84.8 266.73,-84.8 266.73,-48.8 353.27,-48.8 353.27,-84.8"/>
<text text-anchor="middle" x="310" y="-62.6" font-family="Times,serif" font-size="14.00">CoreModule</text>
</g>
<!-- CoreModule&#45;&gt;AppModule -->
<g id="edge4" class="edge">
<title>CoreModule&#45;&gt;AppModule</title>
<path fill="none" stroke="black" d="M342.28,-84.91C342.28,-84.91 342.28,-103.79 342.28,-103.79"/>
<polygon fill="black" stroke="black" points="338.78,-103.79 342.28,-113.79 345.78,-103.79 338.78,-103.79"/>
</g>
<!-- SharedModule -->
<g id="node6" class="node">
<title>SharedModule</title>
<polygon fill="#8dd3c7" stroke="black" points="248.43,-84.8 245.43,-88.8 224.43,-88.8 221.43,-84.8 149.57,-84.8 149.57,-48.8 248.43,-48.8 248.43,-84.8"/>
<text text-anchor="middle" x="199" y="-62.6" font-family="Times,serif" font-size="14.00">SharedModule</text>
</g>
<!-- SharedModule&#45;&gt;AppModule -->
<g id="edge5" class="edge">
<title>SharedModule&#45;&gt;AppModule</title>
<path fill="none" stroke="black" d="M199,-84.82C199,-102.17 199,-125.8 199,-125.8 199,-125.8 321.32,-125.8 321.32,-125.8"/>
<polygon fill="black" stroke="black" points="321.32,-129.3 331.32,-125.8 321.32,-122.3 321.32,-129.3"/>
</g>
<!-- SideInfoModule -->
<g id="node7" class="node">
<title>SideInfoModule</title>
<polygon fill="#8dd3c7" stroke="black" points="131.77,-84.8 128.77,-88.8 107.77,-88.8 104.77,-84.8 24.23,-84.8 24.23,-48.8 131.77,-48.8 131.77,-84.8"/>
<text text-anchor="middle" x="78" y="-62.6" font-family="Times,serif" font-size="14.00">SideInfoModule</text>
</g>
<!-- SideInfoModule&#45;&gt;AppModule -->
<g id="edge6" class="edge">
<title>SideInfoModule&#45;&gt;AppModule</title>
<path fill="none" stroke="black" d="M78,-85.08C78,-106.12 78,-137.8 78,-137.8 78,-137.8 321.05,-137.8 321.05,-137.8"/>
<polygon fill="black" stroke="black" points="321.05,-141.3 331.05,-137.8 321.05,-134.3 321.05,-141.3"/>
</g>
</g>
</svg>
