<?xml version="1.0" encoding="UTF-8" standalone="no"?>
<!DOCTYPE svg PUBLIC "-//W3C//DTD SVG 1.1//EN"
 "http://www.w3.org/Graphics/SVG/1.1/DTD/svg11.dtd">
<!-- Generated by graphviz version 2.47.0 (20210316.0004)
 -->
<!-- Title: dependencies Pages: 1 -->
<svg width="662pt" height="284pt"
 viewBox="0.00 0.00 662.00 284.00" xmlns="http://www.w3.org/2000/svg" xmlns:xlink="http://www.w3.org/1999/xlink">
<g id="graph0" class="graph" transform="scale(1 1) rotate(0) translate(4 280)">
<title>dependencies</title>
<polygon fill="white" stroke="transparent" points="-4,4 -4,-280 658,-280 658,4 -4,4"/>
<text text-anchor="start" x="306.01" y="-42.4" font-family="sans-serif" font-weight="bold" font-size="14.00">Legend</text>
<polygon fill="#ffffb3" stroke="transparent" points="93,-10 93,-30 113,-30 113,-10 93,-10"/>
<text text-anchor="start" x="116.63" y="-15.4" font-family="sans-serif" font-size="14.00"> &#160;Declarations</text>
<polygon fill="#8dd3c7" stroke="transparent" points="206,-10 206,-30 226,-30 226,-10 206,-10"/>
<text text-anchor="start" x="229.73" y="-15.4" font-family="sans-serif" font-size="14.00"> &#160;Module</text>
<polygon fill="#80b1d3" stroke="transparent" points="292,-10 292,-30 312,-30 312,-10 292,-10"/>
<text text-anchor="start" x="315.78" y="-15.4" font-family="sans-serif" font-size="14.00"> &#160;Bootstrap</text>
<polygon fill="#fdb462" stroke="transparent" points="389,-10 389,-30 409,-30 409,-10 389,-10"/>
<text text-anchor="start" x="412.67" y="-15.4" font-family="sans-serif" font-size="14.00"> &#160;Providers</text>
<polygon fill="#fb8072" stroke="transparent" points="485,-10 485,-30 505,-30 505,-10 485,-10"/>
<text text-anchor="start" x="508.73" y="-15.4" font-family="sans-serif" font-size="14.00"> &#160;Exports</text>
<g id="clust1" class="cluster">
<title>cluster_AppModule</title>
<polygon fill="none" stroke="black" stroke-dasharray="1,5" points="8,-70 8,-268 646,-268 646,-70 8,-70"/>
</g>
<g id="clust2" class="cluster">
<title>cluster_AppModule_declarations</title>
<polygon fill="none" stroke="black" points="516,-78 516,-130 638,-130 638,-78 516,-78"/>
</g>
<g id="clust4" class="cluster">
<title>cluster_AppModule_imports</title>
<polygon fill="none" stroke="black" points="16,-78 16,-130 508,-130 508,-78 16,-78"/>
</g>
<g id="clust6" class="cluster">
<title>cluster_AppModule_bootstrap</title>
<polygon fill="none" stroke="black" points="248,-208 248,-260 372,-260 372,-208 248,-208"/>
</g>
<!-- AppComponent -->
<g id="node1" class="node">
<title>AppComponent</title>
<polygon fill="#ffffb3" stroke="black" points="629.94,-122 524.06,-122 524.06,-86 629.94,-86 629.94,-122"/>
<text text-anchor="middle" x="577" y="-99.8" font-family="Times,serif" font-size="14.00">AppComponent</text>
</g>
<!-- AppModule -->
<g id="node2" class="node">
<title>AppModule</title>
<polygon fill="#8dd3c7" stroke="black" points="351.66,-187 348.66,-191 327.66,-191 324.66,-187 268.34,-187 268.34,-151 351.66,-151 351.66,-187"/>
<text text-anchor="middle" x="310" y="-164.8" font-family="Times,serif" font-size="14.00">AppModule</text>
</g>
<!-- AppComponent&#45;&gt;AppModule -->
<g id="edge1" class="edge">
<title>AppComponent&#45;&gt;AppModule</title>
<path fill="none" stroke="black" d="M577,-122.28C577,-143.32 577,-175 577,-175 577,-175 361.72,-175 361.72,-175"/>
<polygon fill="black" stroke="black" points="361.72,-171.5 351.72,-175 361.72,-178.5 361.72,-171.5"/>
</g>
<!-- AppComponent  -->
<g id="node7" class="node">
<title>AppComponent </title>
<polygon fill="#80b1d3" stroke="black" points="364.44,-252 255.56,-252 255.56,-216 364.44,-216 364.44,-252"/>
<text text-anchor="middle" x="310" y="-229.8" font-family="Times,serif" font-size="14.00">AppComponent </text>
</g>
<!-- AppModule&#45;&gt;AppComponent  -->
<g id="edge6" class="edge">
<title>AppModule&#45;&gt;AppComponent </title>
<path fill="none" stroke="black" stroke-dasharray="1,5" d="M310,-187.11C310,-187.11 310,-205.99 310,-205.99"/>
<polygon fill="black" stroke="black" points="306.5,-205.99 310,-215.99 313.5,-205.99 306.5,-205.99"/>
</g>
<!-- AppRoutingModule -->
<g id="node3" class="node">
<title>AppRoutingModule</title>
<polygon fill="#8dd3c7" stroke="black" points="500.27,-122 497.27,-126 476.27,-126 473.27,-122 371.73,-122 371.73,-86 500.27,-86 500.27,-122"/>
<text text-anchor="middle" x="436" y="-99.8" font-family="Times,serif" font-size="14.00">AppRoutingModule</text>
</g>
<!-- AppRoutingModule&#45;&gt;AppModule -->
<g id="edge2" class="edge">
<title>AppRoutingModule&#45;&gt;AppModule</title>
<path fill="none" stroke="black" d="M436,-122.02C436,-139.37 436,-163 436,-163 436,-163 361.96,-163 361.96,-163"/>
<polygon fill="black" stroke="black" points="361.96,-159.5 351.96,-163 361.96,-166.5 361.96,-159.5"/>
</g>
<!-- CoreModule -->
<g id="node4" class="node">
<title>CoreModule</title>
<polygon fill="#8dd3c7" stroke="black" points="353.26,-122 350.26,-126 329.26,-126 326.26,-122 266.74,-122 266.74,-86 353.26,-86 353.26,-122"/>
<text text-anchor="middle" x="310" y="-99.8" font-family="Times,serif" font-size="14.00">CoreModule</text>
</g>
<!-- CoreModule&#45;&gt;AppModule -->
<g id="edge3" class="edge">
<title>CoreModule&#45;&gt;AppModule</title>
<path fill="none" stroke="black" d="M310,-122.11C310,-122.11 310,-140.99 310,-140.99"/>
<polygon fill="black" stroke="black" points="306.5,-140.99 310,-150.99 313.5,-140.99 306.5,-140.99"/>
</g>
<!-- SharedModule -->
<g id="node5" class="node">
<title>SharedModule</title>
<polygon fill="#8dd3c7" stroke="black" points="248.42,-122 245.42,-126 224.42,-126 221.42,-122 149.58,-122 149.58,-86 248.42,-86 248.42,-122"/>
<text text-anchor="middle" x="199" y="-99.8" font-family="Times,serif" font-size="14.00">SharedModule</text>
</g>
<!-- SharedModule&#45;&gt;AppModule -->
<g id="edge4" class="edge">
<title>SharedModule&#45;&gt;AppModule</title>
<path fill="none" stroke="black" d="M199,-122.02C199,-139.37 199,-163 199,-163 199,-163 258.04,-163 258.04,-163"/>
<polygon fill="black" stroke="black" points="258.04,-166.5 268.04,-163 258.04,-159.5 258.04,-166.5"/>
</g>
<!-- SideInfoModule -->
<g id="node6" class="node">
<title>SideInfoModule</title>
<polygon fill="#8dd3c7" stroke="black" points="131.76,-122 128.76,-126 107.76,-126 104.76,-122 24.24,-122 24.24,-86 131.76,-86 131.76,-122"/>
<text text-anchor="middle" x="78" y="-99.8" font-family="Times,serif" font-size="14.00">SideInfoModule</text>
</g>
<!-- SideInfoModule&#45;&gt;AppModule -->
<g id="edge5" class="edge">
<title>SideInfoModule&#45;&gt;AppModule</title>
<path fill="none" stroke="black" d="M78,-122.28C78,-143.32 78,-175 78,-175 78,-175 258.26,-175 258.26,-175"/>
<polygon fill="black" stroke="black" points="258.26,-178.5 268.26,-175 258.26,-171.5 258.26,-178.5"/>
</g>
</g>
</svg>
