<?xml version="1.0" encoding="UTF-8" standalone="no"?>
<!DOCTYPE svg PUBLIC "-//W3C//DTD SVG 1.1//EN"
 "http://www.w3.org/Graphics/SVG/1.1/DTD/svg11.dtd">
<!-- Generated by graphviz version 2.40.1 (20161225.0304)
 -->
<!-- Title: dependencies Pages: 1 -->
<svg width="1040pt" height="284pt"
 viewBox="0.00 0.00 1040.00 284.00" xmlns="http://www.w3.org/2000/svg" xmlns:xlink="http://www.w3.org/1999/xlink">
<g id="graph0" class="graph" transform="scale(1 1) rotate(0) translate(4 280)">
<title>dependencies</title>
<polygon fill="#ffffff" stroke="transparent" points="-4,4 -4,-280 1036,-280 1036,4 -4,4"/>
<text text-anchor="start" x="495.0091" y="-42.4" font-family="sans-serif" font-weight="bold" font-size="14.00" fill="#000000">Legend</text>
<polygon fill="#ffffb3" stroke="transparent" points="282,-10 282,-30 302,-30 302,-10 282,-10"/>
<text text-anchor="start" x="305.629" y="-15.4" font-family="sans-serif" font-size="14.00" fill="#000000"> &#160;Declarations</text>
<polygon fill="#8dd3c7" stroke="transparent" points="395,-10 395,-30 415,-30 415,-10 395,-10"/>
<text text-anchor="start" x="418.7251" y="-15.4" font-family="sans-serif" font-size="14.00" fill="#000000"> &#160;Module</text>
<polygon fill="#80b1d3" stroke="transparent" points="481,-10 481,-30 501,-30 501,-10 481,-10"/>
<text text-anchor="start" x="504.7812" y="-15.4" font-family="sans-serif" font-size="14.00" fill="#000000"> &#160;Bootstrap</text>
<polygon fill="#fdb462" stroke="transparent" points="578,-10 578,-30 598,-30 598,-10 578,-10"/>
<text text-anchor="start" x="601.6732" y="-15.4" font-family="sans-serif" font-size="14.00" fill="#000000"> &#160;Providers</text>
<polygon fill="#fb8072" stroke="transparent" points="674,-10 674,-30 694,-30 694,-10 674,-10"/>
<text text-anchor="start" x="697.7258" y="-15.4" font-family="sans-serif" font-size="14.00" fill="#000000"> &#160;Exports</text>
<g id="clust1" class="cluster">
<title>cluster_AppModule</title>
<polygon fill="none" stroke="#000000" stroke-dasharray="1,5" points="8,-70 8,-268 1024,-268 1024,-70 8,-70"/>
</g>
<g id="clust2" class="cluster">
<title>cluster_AppModule_declarations</title>
<polygon fill="none" stroke="#000000" points="516,-78 516,-130 1016,-130 1016,-78 516,-78"/>
</g>
<g id="clust6" class="cluster">
<title>cluster_AppModule_imports</title>
<polygon fill="none" stroke="#000000" points="16,-78 16,-130 508,-130 508,-78 16,-78"/>
</g>
<g id="clust8" class="cluster">
<title>cluster_AppModule_bootstrap</title>
<polygon fill="none" stroke="#000000" points="374,-208 374,-260 498,-260 498,-208 374,-208"/>
</g>
<!-- AppComponent -->
<g id="node1" class="node">
<title>AppComponent</title>
<polygon fill="#ffffb3" stroke="#000000" points="1007.9399,-122 902.0601,-122 902.0601,-86 1007.9399,-86 1007.9399,-122"/>
<text text-anchor="middle" x="955" y="-99.8" font-family="Times,serif" font-size="14.00" fill="#000000">AppComponent</text>
</g>
<!-- AppModule -->
<g id="node4" class="node">
<title>AppModule</title>
<polygon fill="#8dd3c7" stroke="#000000" points="477.6571,-187 474.6571,-191 453.6571,-191 450.6571,-187 394.3429,-187 394.3429,-151 477.6571,-151 477.6571,-187"/>
<text text-anchor="middle" x="436" y="-164.8" font-family="Times,serif" font-size="14.00" fill="#000000">AppModule</text>
</g>
<!-- AppComponent&#45;&gt;AppModule -->
<g id="edge1" class="edge">
<title>AppComponent&#45;&gt;AppModule</title>
<path fill="none" stroke="#000000" d="M955,-122.2921C955,-144.2057 955,-178 955,-178 955,-178 488.0323,-178 488.0323,-178"/>
<polygon fill="#000000" stroke="#000000" points="488.0324,-174.5001 478.0323,-178 488.0323,-181.5001 488.0324,-174.5001"/>
</g>
<!-- HomeViewComponent -->
<g id="node2" class="node">
<title>HomeViewComponent</title>
<polygon fill="#ffffb3" stroke="#000000" points="883.8627,-122 738.1373,-122 738.1373,-86 883.8627,-86 883.8627,-122"/>
<text text-anchor="middle" x="811" y="-99.8" font-family="Times,serif" font-size="14.00" fill="#000000">HomeViewComponent</text>
</g>
<!-- HomeViewComponent&#45;&gt;AppModule -->
<g id="edge2" class="edge">
<title>HomeViewComponent&#45;&gt;AppModule</title>
<path fill="none" stroke="#000000" d="M811,-122.1061C811,-141.3391 811,-169 811,-169 811,-169 487.9257,-169 487.9257,-169"/>
<polygon fill="#000000" stroke="#000000" points="487.9257,-165.5001 477.9257,-169 487.9257,-172.5001 487.9257,-165.5001"/>
</g>
<!-- PageNotFoundViewComponent -->
<g id="node3" class="node">
<title>PageNotFoundViewComponent</title>
<polygon fill="#ffffb3" stroke="#000000" points="719.6427,-122 524.3573,-122 524.3573,-86 719.6427,-86 719.6427,-122"/>
<text text-anchor="middle" x="622" y="-99.8" font-family="Times,serif" font-size="14.00" fill="#000000">PageNotFoundViewComponent</text>
</g>
<!-- PageNotFoundViewComponent&#45;&gt;AppModule -->
<g id="edge3" class="edge">
<title>PageNotFoundViewComponent&#45;&gt;AppModule</title>
<path fill="none" stroke="#000000" d="M622,-122.027C622,-138.3976 622,-160 622,-160 622,-160 487.742,-160 487.742,-160"/>
<polygon fill="#000000" stroke="#000000" points="487.7421,-156.5001 477.742,-160 487.742,-163.5001 487.7421,-156.5001"/>
</g>
<!-- AppComponent  -->
<g id="node9" class="node">
<title>AppComponent </title>
<polygon fill="#80b1d3" stroke="#000000" points="490.439,-252 381.561,-252 381.561,-216 490.439,-216 490.439,-252"/>
<text text-anchor="middle" x="436" y="-229.8" font-family="Times,serif" font-size="14.00" fill="#000000">AppComponent </text>
</g>
<!-- AppModule&#45;&gt;AppComponent  -->
<g id="edge8" class="edge">
<title>AppModule&#45;&gt;AppComponent </title>
<path fill="none" stroke="#000000" stroke-dasharray="1,5" d="M436,-187.1061C436,-187.1061 436,-205.991 436,-205.991"/>
<polygon fill="#000000" stroke="#000000" points="432.5001,-205.9909 436,-215.991 439.5001,-205.991 432.5001,-205.9909"/>
</g>
<!-- AppRoutingModule -->
<g id="node5" class="node">
<title>AppRoutingModule</title>
<polygon fill="#8dd3c7" stroke="#000000" points="500.2744,-122 497.2744,-126 476.2744,-126 473.2744,-122 371.7256,-122 371.7256,-86 500.2744,-86 500.2744,-122"/>
<text text-anchor="middle" x="436" y="-99.8" font-family="Times,serif" font-size="14.00" fill="#000000">AppRoutingModule</text>
</g>
<!-- AppRoutingModule&#45;&gt;AppModule -->
<g id="edge4" class="edge">
<title>AppRoutingModule&#45;&gt;AppModule</title>
<path fill="none" stroke="#000000" d="M436,-122.1061C436,-122.1061 436,-140.991 436,-140.991"/>
<polygon fill="#000000" stroke="#000000" points="432.5001,-140.9909 436,-150.991 439.5001,-140.991 432.5001,-140.9909"/>
</g>
<!-- CoreModule -->
<g id="node6" class="node">
<title>CoreModule</title>
<polygon fill="#8dd3c7" stroke="#000000" points="353.2619,-122 350.2619,-126 329.2619,-126 326.2619,-122 266.7381,-122 266.7381,-86 353.2619,-86 353.2619,-122"/>
<text text-anchor="middle" x="310" y="-99.8" font-family="Times,serif" font-size="14.00" fill="#000000">CoreModule</text>
</g>
<!-- CoreModule&#45;&gt;AppModule -->
<g id="edge5" class="edge">
<title>CoreModule&#45;&gt;AppModule</title>
<path fill="none" stroke="#000000" d="M310,-122.027C310,-138.3976 310,-160 310,-160 310,-160 384.0438,-160 384.0438,-160"/>
<polygon fill="#000000" stroke="#000000" points="384.0439,-163.5001 394.0438,-160 384.0438,-156.5001 384.0439,-163.5001"/>
</g>
<!-- SharedModule -->
<g id="node7" class="node">
<title>SharedModule</title>
<polygon fill="#8dd3c7" stroke="#000000" points="248.4231,-122 245.4231,-126 224.4231,-126 221.4231,-122 149.5769,-122 149.5769,-86 248.4231,-86 248.4231,-122"/>
<text text-anchor="middle" x="199" y="-99.8" font-family="Times,serif" font-size="14.00" fill="#000000">SharedModule</text>
</g>
<!-- SharedModule&#45;&gt;AppModule -->
<g id="edge6" class="edge">
<title>SharedModule&#45;&gt;AppModule</title>
<path fill="none" stroke="#000000" d="M199,-122.1061C199,-141.3391 199,-169 199,-169 199,-169 384.1747,-169 384.1747,-169"/>
<polygon fill="#000000" stroke="#000000" points="384.1747,-172.5001 394.1747,-169 384.1747,-165.5001 384.1747,-172.5001"/>
</g>
<!-- SideInfoModule -->
<g id="node8" class="node">
<title>SideInfoModule</title>
<polygon fill="#8dd3c7" stroke="#000000" points="131.7591,-122 128.7591,-126 107.7591,-126 104.7591,-122 24.2409,-122 24.2409,-86 131.7591,-86 131.7591,-122"/>
<text text-anchor="middle" x="78" y="-99.8" font-family="Times,serif" font-size="14.00" fill="#000000">SideInfoModule</text>
</g>
<!-- SideInfoModule&#45;&gt;AppModule -->
<g id="edge7" class="edge">
<title>SideInfoModule&#45;&gt;AppModule</title>
<path fill="none" stroke="#000000" d="M78,-122.2921C78,-144.2057 78,-178 78,-178 78,-178 384.2322,-178 384.2322,-178"/>
<polygon fill="#000000" stroke="#000000" points="384.2322,-181.5001 394.2322,-178 384.2322,-174.5001 384.2322,-181.5001"/>
</g>
</g>
</svg>
