<?xml version="1.0" encoding="UTF-8" standalone="no"?>
<!DOCTYPE svg PUBLIC "-//W3C//DTD SVG 1.1//EN"
 "http://www.w3.org/Graphics/SVG/1.1/DTD/svg11.dtd">
<!-- Generated by graphviz version 2.40.1 (20161225.0304)
 -->
<!-- Title: dependencies Pages: 1 -->
<svg width="662pt" height="284pt"
 viewBox="0.00 0.00 662.00 284.00" xmlns="http://www.w3.org/2000/svg" xmlns:xlink="http://www.w3.org/1999/xlink">
<g id="graph0" class="graph" transform="scale(1 1) rotate(0) translate(4 280)">
<title>dependencies</title>
<polygon fill="#ffffff" stroke="transparent" points="-4,4 -4,-280 658,-280 658,4 -4,4"/>
<text text-anchor="start" x="306.0091" y="-42.4" font-family="sans-serif" font-weight="bold" font-size="14.00" fill="#000000">Legend</text>
<polygon fill="#ffffb3" stroke="transparent" points="93,-10 93,-30 113,-30 113,-10 93,-10"/>
<text text-anchor="start" x="116.629" y="-15.4" font-family="sans-serif" font-size="14.00" fill="#000000"> &#160;Declarations</text>
<polygon fill="#8dd3c7" stroke="transparent" points="206,-10 206,-30 226,-30 226,-10 206,-10"/>
<text text-anchor="start" x="229.7251" y="-15.4" font-family="sans-serif" font-size="14.00" fill="#000000"> &#160;Module</text>
<polygon fill="#80b1d3" stroke="transparent" points="292,-10 292,-30 312,-30 312,-10 292,-10"/>
<text text-anchor="start" x="315.7812" y="-15.4" font-family="sans-serif" font-size="14.00" fill="#000000"> &#160;Bootstrap</text>
<polygon fill="#fdb462" stroke="transparent" points="389,-10 389,-30 409,-30 409,-10 389,-10"/>
<text text-anchor="start" x="412.6732" y="-15.4" font-family="sans-serif" font-size="14.00" fill="#000000"> &#160;Providers</text>
<polygon fill="#fb8072" stroke="transparent" points="485,-10 485,-30 505,-30 505,-10 485,-10"/>
<text text-anchor="start" x="508.7258" y="-15.4" font-family="sans-serif" font-size="14.00" fill="#000000"> &#160;Exports</text>
<g id="clust1" class="cluster">
<title>cluster_AppModule</title>
<polygon fill="none" stroke="#000000" stroke-dasharray="1,5" points="8,-70 8,-268 646,-268 646,-70 8,-70"/>
</g>
<g id="clust2" class="cluster">
<title>cluster_AppModule_declarations</title>
<polygon fill="none" stroke="#000000" points="516,-78 516,-130 638,-130 638,-78 516,-78"/>
</g>
<g id="clust4" class="cluster">
<title>cluster_AppModule_imports</title>
<polygon fill="none" stroke="#000000" points="16,-78 16,-130 508,-130 508,-78 16,-78"/>
</g>
<g id="clust6" class="cluster">
<title>cluster_AppModule_bootstrap</title>
<polygon fill="none" stroke="#000000" points="248,-208 248,-260 372,-260 372,-208 248,-208"/>
</g>
<!-- AppComponent -->
<g id="node1" class="node">
<title>AppComponent</title>
<polygon fill="#ffffb3" stroke="#000000" points="629.9399,-122 524.0601,-122 524.0601,-86 629.9399,-86 629.9399,-122"/>
<text text-anchor="middle" x="577" y="-99.8" font-family="Times,serif" font-size="14.00" fill="#000000">AppComponent</text>
</g>
<!-- AppModule -->
<g id="node2" class="node">
<title>AppModule</title>
<polygon fill="#8dd3c7" stroke="#000000" points="351.6571,-187 348.6571,-191 327.6571,-191 324.6571,-187 268.3429,-187 268.3429,-151 351.6571,-151 351.6571,-187"/>
<text text-anchor="middle" x="310" y="-164.8" font-family="Times,serif" font-size="14.00" fill="#000000">AppModule</text>
</g>
<!-- AppComponent&#45;&gt;AppModule -->
<g id="edge1" class="edge">
<title>AppComponent&#45;&gt;AppModule</title>
<path fill="none" stroke="#000000" d="M577,-122.2843C577,-143.3211 577,-175 577,-175 577,-175 361.7188,-175 361.7188,-175"/>
<polygon fill="#000000" stroke="#000000" points="361.7188,-171.5001 351.7188,-175 361.7187,-178.5001 361.7188,-171.5001"/>
</g>
<!-- AppComponent  -->
<g id="node7" class="node">
<title>AppComponent </title>
<polygon fill="#80b1d3" stroke="#000000" points="364.439,-252 255.561,-252 255.561,-216 364.439,-216 364.439,-252"/>
<text text-anchor="middle" x="310" y="-229.8" font-family="Times,serif" font-size="14.00" fill="#000000">AppComponent </text>
</g>
<!-- AppModule&#45;&gt;AppComponent  -->
<g id="edge6" class="edge">
<title>AppModule&#45;&gt;AppComponent </title>
<path fill="none" stroke="#000000" stroke-dasharray="1,5" d="M310,-187.1061C310,-187.1061 310,-205.991 310,-205.991"/>
<polygon fill="#000000" stroke="#000000" points="306.5001,-205.9909 310,-215.991 313.5001,-205.991 306.5001,-205.9909"/>
</g>
<!-- AppRoutingModule -->
<g id="node3" class="node">
<title>AppRoutingModule</title>
<polygon fill="#8dd3c7" stroke="#000000" points="500.2744,-122 497.2744,-126 476.2744,-126 473.2744,-122 371.7256,-122 371.7256,-86 500.2744,-86 500.2744,-122"/>
<text text-anchor="middle" x="436" y="-99.8" font-family="Times,serif" font-size="14.00" fill="#000000">AppRoutingModule</text>
</g>
<!-- AppRoutingModule&#45;&gt;AppModule -->
<g id="edge2" class="edge">
<title>AppRoutingModule&#45;&gt;AppModule</title>
<path fill="none" stroke="#000000" d="M436,-122.0225C436,-139.3734 436,-163 436,-163 436,-163 361.9562,-163 361.9562,-163"/>
<polygon fill="#000000" stroke="#000000" points="361.9562,-159.5001 351.9562,-163 361.9561,-166.5001 361.9562,-159.5001"/>
</g>
<!-- CoreModule -->
<g id="node4" class="node">
<title>CoreModule</title>
<polygon fill="#8dd3c7" stroke="#000000" points="353.2619,-122 350.2619,-126 329.2619,-126 326.2619,-122 266.7381,-122 266.7381,-86 353.2619,-86 353.2619,-122"/>
<text text-anchor="middle" x="310" y="-99.8" font-family="Times,serif" font-size="14.00" fill="#000000">CoreModule</text>
</g>
<!-- CoreModule&#45;&gt;AppModule -->
<g id="edge3" class="edge">
<title>CoreModule&#45;&gt;AppModule</title>
<path fill="none" stroke="#000000" d="M310,-122.1061C310,-122.1061 310,-140.991 310,-140.991"/>
<polygon fill="#000000" stroke="#000000" points="306.5001,-140.9909 310,-150.991 313.5001,-140.991 306.5001,-140.9909"/>
</g>
<!-- SharedModule -->
<g id="node5" class="node">
<title>SharedModule</title>
<polygon fill="#8dd3c7" stroke="#000000" points="248.4231,-122 245.4231,-126 224.4231,-126 221.4231,-122 149.5769,-122 149.5769,-86 248.4231,-86 248.4231,-122"/>
<text text-anchor="middle" x="199" y="-99.8" font-family="Times,serif" font-size="14.00" fill="#000000">SharedModule</text>
</g>
<!-- SharedModule&#45;&gt;AppModule -->
<g id="edge4" class="edge">
<title>SharedModule&#45;&gt;AppModule</title>
<path fill="none" stroke="#000000" d="M199,-122.0225C199,-139.3734 199,-163 199,-163 199,-163 258.0357,-163 258.0357,-163"/>
<polygon fill="#000000" stroke="#000000" points="258.0357,-166.5001 268.0357,-163 258.0356,-159.5001 258.0357,-166.5001"/>
</g>
<!-- SideInfoModule -->
<g id="node6" class="node">
<title>SideInfoModule</title>
<polygon fill="#8dd3c7" stroke="#000000" points="131.7591,-122 128.7591,-126 107.7591,-126 104.7591,-122 24.2409,-122 24.2409,-86 131.7591,-86 131.7591,-122"/>
<text text-anchor="middle" x="78" y="-99.8" font-family="Times,serif" font-size="14.00" fill="#000000">SideInfoModule</text>
</g>
<!-- SideInfoModule&#45;&gt;AppModule -->
<g id="edge5" class="edge">
<title>SideInfoModule&#45;&gt;AppModule</title>
<path fill="none" stroke="#000000" d="M78,-122.2843C78,-143.3211 78,-175 78,-175 78,-175 258.2551,-175 258.2551,-175"/>
<polygon fill="#000000" stroke="#000000" points="258.2551,-178.5001 268.2551,-175 258.2551,-171.5001 258.2551,-178.5001"/>
</g>
</g>
</svg>
