<?xml version="1.0" encoding="UTF-8" standalone="no"?>
<svg
    id="Ebene_1"
    data-name="Ebene 1"
    viewBox="0 0 1152.8622 486.15467"
    version="1.1"
    sodipodi:docname="M317_Sk4_3_1von1_220718_path.svg"
    inkscape:version="1.2.2 (b0a8486, 2022-12-01)"
    width="305.02814mm"
    height="128.62842mm"
    xmlns:inkscape="http://www.inkscape.org/namespaces/inkscape"
    xmlns:sodipodi="http://sodipodi.sourceforge.net/DTD/sodipodi-0.dtd"
    xmlns="http://www.w3.org/2000/svg"
    xmlns:svg="http://www.w3.org/2000/svg"
    xmlns:rdf="http://www.w3.org/1999/02/22-rdf-syntax-ns#"
    xmlns:cc="http://creativecommons.org/ns#"
    xmlns:dc="http://purl.org/dc/elements/1.1/">
    <metadata id="metadata157">
        <rdf:RDF>
            <cc:Work rdf:about="">
                <dc:format>image/svg+xml</dc:format>
                <dc:type rdf:resource="http://purl.org/dc/dcmitype/StillImage" />
            </cc:Work>
        </rdf:RDF>
    </metadata>
    <sodipodi:namedview
        pagecolor="#ffffff"
        bordercolor="#666666"
        borderopacity="1"
        objecttolerance="10"
        gridtolerance="10"
        guidetolerance="10"
        inkscape:pageopacity="0"
        inkscape:pageshadow="2"
        inkscape:window-width="1882"
        inkscape:window-height="1205"
        id="namedview155"
        showgrid="false"
        inkscape:zoom="2.7544578"
        inkscape:cx="606.47144"
        inkscape:cy="220.91462"
        inkscape:window-x="8"
        inkscape:window-y="25"
        inkscape:window-maximized="0"
        inkscape:current-layer="Ebene_1"
        inkscape:document-units="mm"
        units="mm"
        fit-margin-left="25"
        fit-margin-bottom="40"
        fit-margin-right="40"
        fit-margin-top="20"
        inkscape:showpageshadow="2"
        inkscape:pagecheckerboard="0"
        inkscape:deskcolor="#d1d1d1" />
    <defs id="defs4">
        <style id="style2">
            .cls-1,
            .cls-13,
            .cls-14,
            .cls-6 {
                fill: none;
            }
            .cls-1,
            .cls-13,
            .cls-14,
            .cls-6,
            .cls-8 {
                stroke: #000;
            }
            .cls-1,
            .cls-13,
            .cls-8 {
                stroke-width: 0.4px;
            }
            .cls-10,
            .cls-2,
            .cls-4,
            .cls-5,
            .cls-7 {
                isolation: isolate;
            }
            .cls-10,
            .cls-2,
            .cls-3 {
                font-size: 6.75px;
            }
            .cls-2,
            .cls-3 {
                font-family: Arial-ItalicMT, Arial;
                font-style: italic;
            }
            .cls-4 {
                font-size: 10.13px;
            }
            .cls-4,
            .cls-5 {
                font-family: Maestro, Maestro;
            }
            .cls-5 {
                font-size: 13.5px;
            }
            .cls-6 {
                stroke-width: 0.56px;
            }
            .cls-7 {
                font-size: 12px;
                font-family: Arial-BoldMT, Arial;
                font-weight: 700;
            }
            .cls-8 {
                fill: #fff;
            }
            .cls-13,
            .cls-8 {
                stroke-miterlimit: 10;
            }
            .cls-9 {
                letter-spacing: -0.11em;
            }
            .cls-10 {
                font-family: TimesNewRomanPSMT, Times New Roman;
            }
            .cls-11 {
                letter-spacing: -0.02em;
            }
            .cls-12 {
                letter-spacing: 0em;
            }
            .cls-14 {
                stroke-width: 0.4px;
            }
        </style>
    </defs>
    <path
        id="line8"
        style="fill: none; stroke: #000000; stroke-width: 0.4px"
        class="cls-1"
        d="m 631.98114,238.16333 v 54" />
    <path
        id="line10"
        style="fill: none; stroke: #000000; stroke-width: 0.4px"
        class="cls-1"
        d="m 631.98114,197.66333 v 13.5" />
    <path
        id="line12"
        style="fill: none; stroke: #000000; stroke-width: 0.4px"
        class="cls-1"
        d="M 151.18111,197.66333 H 1001.6812" />
    <path
        id="line14"
        style="fill: none; stroke: #000000; stroke-width: 0.4px"
        class="cls-1"
        d="M 151.18111,201.06334 H 1001.6812" />
    <path
        id="line16"
        style="fill: none; stroke: #000000; stroke-width: 0.4px"
        class="cls-1"
        d="M 151.18111,204.46333 H 1001.6812" />
    <path
        id="line18"
        style="fill: none; stroke: #000000; stroke-width: 0.4px"
        class="cls-1"
        d="M 151.18111,207.76334 H 1001.6812" />
    <path
        id="line20"
        style="fill: none; stroke: #000000; stroke-width: 0.4px"
        class="cls-1"
        d="M 151.18111,211.16333 H 1001.6812" />
    <path
        id="line22"
        style="fill: none; stroke: #000000; stroke-width: 0.4px"
        class="cls-1"
        d="M 151.18111,238.16333 H 1001.6812" />
    <path
        id="line24"
        style="fill: none; stroke: #000000; stroke-width: 0.4px"
        class="cls-1"
        d="M 151.18111,241.56334 H 1001.6812" />
    <path
        id="line26"
        style="fill: none; stroke: #000000; stroke-width: 0.4px"
        class="cls-1"
        d="M 151.18111,244.96333 H 1001.6812" />
    <path
        id="line28"
        style="fill: none; stroke: #000000; stroke-width: 0.4px"
        class="cls-1"
        d="M 151.18111,248.26334 H 1001.6812" />
    <path
        id="line30"
        style="fill: none; stroke: #000000; stroke-width: 0.4px"
        class="cls-1"
        d="M 151.18111,251.66333 H 1001.6812" />
    <path
        id="line32"
        style="fill: none; stroke: #000000; stroke-width: 0.4px"
        class="cls-1"
        d="M 151.18111,278.66333 H 1001.6812" />
    <path
        id="line34"
        style="fill: none; stroke: #000000; stroke-width: 0.4px"
        class="cls-1"
        d="M 151.18111,282.06335 H 1001.6812" />
    <path
        id="line36"
        style="fill: none; stroke: #000000; stroke-width: 0.4px"
        class="cls-1"
        d="M 151.18111,285.46335 H 1001.6812" />
    <path
        id="line38"
        style="fill: none; stroke: #000000; stroke-width: 0.4px"
        class="cls-1"
        d="M 151.18111,288.76334 H 1001.6812" />
    <path
        id="line40"
        style="fill: none; stroke: #000000; stroke-width: 0.4px"
        class="cls-1"
        d="M 151.18111,292.16333 H 1001.6812" />
    <g
        aria-label="A Bl. 39r"
        id="text42"
        style="
            font-style: italic;
            font-size: 6.75px;
            font-family: Arial-ItalicMT, Arial;
            isolation: isolate;
            fill: #7d7d7d;
        "
        class="cls-2">
        <path
            d="m 97.635773,140.02187 h -1.914917 l -0.580078,1.06787 h -1.021729 l 2.7323,-4.83179 h 1.104126 l 0.784424,4.83179 h -0.942627 z m -0.121949,-0.8042 -0.280151,-1.94458 -1.166748,1.94458 z"
            style="font-weight: bold; -inkscape-font-specification: 'Arial-ItalicMT, Arial, Bold Italic'"
            id="path43500" />
        <path
            d="m 101.23819,141.08974 1.01184,-4.83179 h 1.49634 q 0.40869,0 0.60644,0.033 0.323,0.056 0.54383,0.19775 0.22412,0.13843 0.34607,0.38233 0.12194,0.2406 0.12194,0.53393 0,0.39881 -0.22082,0.70203 -0.21753,0.30322 -0.66907,0.46142 0.39221,0.12854 0.58667,0.38892 0.19446,0.25708 0.19446,0.60315 0,0.3988 -0.23071,0.76465 -0.22742,0.36584 -0.60645,0.56689 -0.37573,0.19776 -0.84045,0.19776 z m 1.22607,-2.76856 h 0.97889 q 0.70202,0 1.00854,-0.22412 0.30982,-0.22412 0.30982,-0.65259 0,-0.20434 -0.0956,-0.35266 -0.0956,-0.14831 -0.25708,-0.21423 -0.1582,-0.0692 -0.59985,-0.0692 h -1.02832 z m -0.46472,2.22144 h 1.10083 q 0.43836,0 0.58997,-0.0297 0.30652,-0.0527 0.49768,-0.17797 0.19116,-0.12854 0.29993,-0.33619 0.10876,-0.20764 0.10876,-0.43505 0,-0.33948 -0.21423,-0.51416 -0.21094,-0.17798 -0.8075,-0.17798 h -1.22607 z"
            id="path43502" />
        <path d="m 105.62503,141.08974 1.00855,-4.83179 h 0.59655 l -1.00854,4.83179 z" id="path43504" />
        <path d="m 107.3356,141.08974 0.14173,-0.67566 h 0.67565 l -0.14501,0.67566 z" id="path43506" />
        <path
            d="m 111.06656,139.82411 0.58008,-0.0725 q 0.0659,0.50757 0.29004,0.7284 0.22741,0.21753 0.59326,0.21753 0.44165,0 0.76135,-0.31641 0.323,-0.31641 0.323,-0.7251 0,-0.35596 -0.2406,-0.58667 -0.2406,-0.23401 -0.646,-0.23401 -0.0461,0 -0.19116,0.0132 l 0.10217,-0.49768 q 0.0857,0.0132 0.1648,0.0132 0.51086,0 0.78442,-0.24719 0.27686,-0.25049 0.27686,-0.61304 0,-0.33289 -0.22742,-0.5603 -0.22412,-0.22742 -0.55042,-0.22742 -0.3197,0 -0.57678,0.23401 -0.25378,0.23071 -0.32629,0.65588 l -0.58667,-0.11865 q 0.14502,-0.59656 0.55701,-0.92285 0.41198,-0.3263 0.97558,-0.3263 0.59326,0 0.95911,0.35926 0.36914,0.35925 0.36914,0.8833 0,0.38232 -0.20105,0.66907 -0.19776,0.28344 -0.59656,0.47131 0.28345,0.16809 0.42188,0.40539 0.14172,0.23731 0.14172,0.54383 0,0.64929 -0.48779,1.1272 -0.4845,0.4746 -1.16016,0.4746 -0.65588,0 -1.06128,-0.36584 -0.4021,-0.36914 -0.44824,-0.98218 z"
            id="path43508" />
        <path
            d="m 114.90628,139.98232 0.5603,-0.056 q 0.056,0.4054 0.23072,0.57679 0.17468,0.17138 0.41528,0.17138 0.34277,0 0.63611,-0.29663 0.43176,-0.43506 0.63611,-1.24914 -0.29993,0.22412 -0.53394,0.3197 -0.23071,0.0956 -0.47461,0.0956 -0.44165,0 -0.79101,-0.29663 -0.46143,-0.38562 -0.46143,-1.10742 0,-0.81738 0.53394,-1.40076 0.45813,-0.50098 1.1239,-0.50098 0.59985,0 0.99536,0.44495 0.39551,0.44165 0.39551,1.25244 0,0.78772 -0.26368,1.55567 -0.31311,0.90307 -0.84704,1.33154 -0.43506,0.34936 -0.97888,0.34936 -0.50098,0 -0.82068,-0.30981 -0.31641,-0.31311 -0.35596,-0.88 z m 0.79431,-1.91163 q 0,0.45484 0.2406,0.7251 0.2439,0.27027 0.57678,0.27027 0.2472,0 0.49109,-0.1681 0.2439,-0.16809 0.41858,-0.50097 0.17469,-0.33618 0.17469,-0.68884 0,-0.27686 -0.11536,-0.51417 -0.11536,-0.2373 -0.31641,-0.35595 -0.19775,-0.12195 -0.4021,-0.12195 -0.19775,0 -0.38891,0.10547 -0.19116,0.10547 -0.35596,0.30981 -0.1615,0.20435 -0.2439,0.47132 -0.0791,0.26367 -0.0791,0.46801 z"
            id="path43510" />
        <path
            d="m 118.35115,138.38974 0.4756,-2.27516 h 0.34278 l -0.0964,0.46488 q 0.17567,-0.2635 0.34277,-0.3899 0.16925,-0.1264 0.34492,-0.1264 0.11569,0 0.28493,0.0836 l -0.15853,0.35992 q -0.10069,-0.0728 -0.22066,-0.0728 -0.20353,0 -0.41776,0.22708 -0.21423,0.22709 -0.33634,0.81623 l -0.19282,0.91264 z"
            style="font-size: 65%; baseline-shift: super"
            id="path43512" />
    </g>
    <g
        aria-label="14"
        id="text46"
        style="
            font-style: italic;
            font-size: 6.75px;
            font-family: Arial-ItalicMT, Arial;
            isolation: isolate;
            fill: #7d7d7d;
        "
        class="cls-2">
        <path
            d="m 95.11441,207.80333 0.764649,-3.64856 q -0.494385,0.38892 -1.390869,0.62292 l 0.11206,-0.54052 q 0.444947,-0.17798 0.876709,-0.46472 0.435059,-0.28675 0.652588,-0.50098 0.131836,-0.13184 0.250488,-0.3197 h 0.34607 l -1.011841,4.85156 z"
            id="path43495" />
        <path
            d="m 99.260651,207.80333 0.260376,-1.23267 h -1.970948 l 0.125244,-0.58996 2.705937,-3.00916 h 0.48779 l -0.6427,3.07178 h 0.67895 l -0.10876,0.52734 h -0.67896 l -0.260372,1.23267 z m 0.36914,-1.76001 0.421879,-2.01709 -1.799564,2.01709 z"
            id="path43497" />
    </g>
    <g
        aria-label="15"
        id="text48"
        style="
            font-style: italic;
            font-size: 6.75px;
            font-family: Arial-ItalicMT, Arial;
            isolation: isolate;
            fill: #7d7d7d;
        "
        class="cls-2">
        <path
            d="m 95.11441,248.30333 0.764649,-3.64856 q -0.494385,0.38892 -1.390869,0.62292 l 0.11206,-0.54052 q 0.444947,-0.17798 0.876709,-0.46472 0.435059,-0.28675 0.652588,-0.50098 0.131836,-0.13184 0.250488,-0.3197 h 0.34607 l -1.011841,4.85156 z"
            id="path43490" />
        <path
            d="m 97.714874,246.92235 0.606446,-0.0593 q -0.0066,0.12854 -0.0066,0.15491 0,0.21753 0.108764,0.43835 0.112061,0.22083 0.299927,0.33948 0.191162,0.11536 0.4021,0.11536 0.276855,0 0.563598,-0.19116 0.286744,-0.19117 0.464723,-0.55701 0.17798,-0.36585 0.17798,-0.7251 0,-0.40539 -0.2406,-0.64929 -0.237308,-0.2439 -0.626224,-0.2439 -0.260376,0 -0.494384,0.12525 -0.230713,0.12524 -0.431763,0.37573 l -0.520752,-0.0363 0.728393,-2.47192 h 2.35986 l -0.11535,0.54712 h -1.835818 l -0.362549,1.22937 q 0.204346,-0.14832 0.418579,-0.22083 0.217529,-0.0758 0.444946,-0.0758 0.553712,0 0.909672,0.36584 0.35595,0.36585 0.35595,1.00196 0,0.557 -0.24389,1.02832 -0.2439,0.46801 -0.67237,0.7218 -0.425167,0.25049 -0.919552,0.25049 -0.415283,0 -0.734985,-0.18787 -0.319702,-0.18787 -0.481202,-0.51746 -0.158203,-0.32959 -0.158203,-0.65918 0,-0.0329 0.0033,-0.0989 z"
            id="path43492" />
    </g>
    <g
        aria-label="16"
        id="text50"
        style="
            font-style: italic;
            font-size: 6.75px;
            font-family: Arial-ItalicMT, Arial;
            isolation: isolate;
            fill: #7d7d7d;
        "
        class="cls-2">
        <path
            d="m 95.11441,288.80334 0.764649,-3.64855 q -0.494385,0.38891 -1.390869,0.62292 l 0.11206,-0.54053 q 0.444947,-0.17798 0.876709,-0.46472 0.435059,-0.28674 0.652588,-0.50098 0.131836,-0.13183 0.250488,-0.3197 h 0.34607 l -1.011841,4.85156 z"
            id="path43485" />
        <path
            d="m 98.601471,286.00183 q 0.250488,-0.20764 0.497681,-0.30981 0.250488,-0.10547 0.494384,-0.10547 0.550414,0 0.909664,0.37573 0.35926,0.37573 0.35926,1.01184 0,0.82068 -0.53394,1.40735 -0.461424,0.50427 -1.120604,0.50427 -0.599853,0 -1.001953,-0.43835 -0.398804,-0.44165 -0.398804,-1.25574 0,-0.72839 0.257081,-1.50623 0.197753,-0.59655 0.487792,-0.98217 0.293335,-0.38892 0.619629,-0.57019 0.32959,-0.18128 0.741578,-0.18128 0.494381,0 0.807491,0.30982 0.31311,0.30652 0.35596,0.88 l -0.55371,0.0527 q -0.0461,-0.39222 -0.22412,-0.5669 -0.17468,-0.17468 -0.428468,-0.17468 -0.266968,0 -0.537232,0.20764 -0.270263,0.20764 -0.464721,0.61633 -0.194458,0.4054 -0.266968,0.7251 z m -0.207642,1.4436 q 0,0.4087 0.253785,0.68885 0.253784,0.27685 0.573486,0.27685 0.224121,0 0.474609,-0.16809 0.250489,-0.17138 0.425171,-0.51745 0.17468,-0.34607 0.17468,-0.68885 0,-0.44165 -0.24389,-0.70532 -0.240604,-0.26697 -0.583378,-0.26697 -0.395508,0 -0.734985,0.38892 -0.339478,0.38562 -0.339478,0.99206 z"
            id="path43487" />
    </g>
    <path
        id="line56"
        style="fill: none; stroke: #000000; stroke-width: 0.4px"
        class="cls-1"
        d="m 651.18115,237.06334 v 19.09999" />
    <g
        aria-label="œ"
        id="text58"
        style="font-size: 13.5px; font-family: Maestro, Maestro; isolation: isolate"
        class="cls-5">
        <path
            d="m 651.11911,236.50683 q 0.135,-0.3645 0.405,-0.675 0.2835,-0.3105 0.648,-0.54 0.3645,-0.243 0.783,-0.3645 0.4185,-0.135 0.8505,-0.135 0.432,0 0.756,0.1485 0.324,0.135 0.513,0.378 0.189,0.2295 0.2295,0.5535 0.054,0.3105 -0.081,0.675 -0.135,0.3645 -0.4185,0.675 -0.2835,0.324 -0.648,0.5535 -0.3645,0.243 -0.7965,0.3645 -0.4185,0.135 -0.837,0.135 -0.432,0 -0.756,-0.1485 -0.3105,-0.135 -0.513,-0.378 -0.189,-0.243 -0.2295,-0.567 -0.0405,-0.3105 0.0945,-0.675 z"
            id="path43481" />
    </g>
    <g
        aria-label="œ"
        id="text60"
        style="font-size: 13.5px; font-family: Maestro, Maestro; isolation: isolate"
        class="cls-5">
        <path
            d="m 651.11911,246.63684 q 0.135,-0.3645 0.405,-0.675 0.2835,-0.3105 0.648,-0.54 0.3645,-0.243 0.783,-0.3645 0.4185,-0.135 0.8505,-0.135 0.432,0 0.756,0.1485 0.324,0.135 0.513,0.378 0.189,0.2295 0.2295,0.5535 0.054,0.3105 -0.081,0.675 -0.135,0.3645 -0.4185,0.675 -0.2835,0.324 -0.648,0.5535 -0.3645,0.243 -0.7965,0.3645 -0.4185,0.135 -0.837,0.135 -0.432,0 -0.756,-0.1485 -0.3105,-0.135 -0.513,-0.378 -0.189,-0.243 -0.2295,-0.567 -0.0405,-0.3105 0.0945,-0.675 z"
            id="path43478" />
    </g>
    <g
        aria-label="#"
        id="text62"
        style="font-size: 13.5px; font-family: Maestro, Maestro; isolation: isolate"
        class="cls-5">
        <path
            d="m 647.63313,245.78634 v 2.0115 l 1.323,-0.432 v -2.0115 z m -0.3915,-1.269 v -2.2005 h 0.3915 v 2.0655 l 1.323,-0.432 v -1.971 h 0.3915 v 1.8495 l 0.5265,-0.1755 v 1.404 l -0.5265,0.1755 v 1.998 l 0.5265,-0.162 v 1.3905 l -0.5265,0.1755 v 2.2005 h -0.3915 v -2.079 l -1.323,0.432 v 1.998 h -0.3915 v -1.863 l -0.5805,0.189 v -1.404 l 0.5805,-0.189 v -2.0115 l -0.5805,0.189 v -1.3905 z"
            id="path43475" />
    </g>
    <g
        aria-label="n"
        id="text64"
        style="font-size: 13.5px; font-family: Maestro, Maestro; isolation: isolate"
        class="cls-5">
        <path
            d="m 647.54513,235.65633 v 2.1195 l 1.539,-0.405 v -2.1195 z m 1.89,-1.809 v 7.7085 h -0.351 v -2.889 l -1.8765,0.486 v -7.803 h 0.3375 v 3.0105 z"
            id="path43472" />
    </g>
    <path
        id="line66"
        style="fill: none; stroke: #000000; stroke-width: 0.4px"
        class="cls-1"
        d="m 655.08112,301.76334 v -21.4" />
    <g
        aria-label="œ"
        id="text68"
        style="font-size: 13.5px; font-family: Maestro, Maestro; isolation: isolate"
        class="cls-5">
        <path
            d="m 651.11911,292.19685 q 0.135,-0.3645 0.405,-0.675 0.2835,-0.3105 0.648,-0.54 0.3645,-0.243 0.783,-0.3645 0.4185,-0.135 0.8505,-0.135 0.432,0 0.756,0.1485 0.324,0.135 0.513,0.378 0.189,0.2295 0.2295,0.5535 0.054,0.3105 -0.081,0.675 -0.135,0.3645 -0.4185,0.675 -0.2835,0.324 -0.648,0.5535 -0.3645,0.243 -0.7965,0.3645 -0.4185,0.135 -0.837,0.135 -0.432,0 -0.756,-0.1485 -0.3105,-0.135 -0.513,-0.378 -0.189,-0.243 -0.2295,-0.567 -0.0405,-0.3105 0.0945,-0.675 z"
            id="path43468" />
    </g>
    <path
        id="line70"
        style="fill: none; stroke: #000000; stroke-width: 0.56px"
        class="cls-6"
        d="m 650.18115,302.26334 h 6" />
    <path
        id="line72"
        style="fill: none; stroke: #000000; stroke-width: 0.56px"
        class="cls-6"
        d="m 650.18115,298.96335 h 6" />
    <path
        id="line74"
        style="fill: none; stroke: #000000; stroke-width: 0.56px"
        class="cls-6"
        d="m 650.18115,295.56335 h 6" />
    <g
        aria-label="œ"
        id="text76"
        style="font-size: 13.5px; font-family: Maestro, Maestro; isolation: isolate"
        class="cls-5">
        <path
            d="m 651.11911,302.31684 q 0.135,-0.3645 0.405,-0.675 0.2835,-0.3105 0.648,-0.54 0.3645,-0.243 0.783,-0.3645 0.4185,-0.135 0.8505,-0.135 0.432,0 0.756,0.1485 0.324,0.135 0.513,0.378 0.189,0.2295 0.2295,0.5535 0.054,0.3105 -0.081,0.675 -0.135,0.3645 -0.4185,0.675 -0.2835,0.324 -0.648,0.5535 -0.3645,0.243 -0.7965,0.3645 -0.4185,0.135 -0.837,0.135 -0.432,0 -0.756,-0.1485 -0.3105,-0.135 -0.513,-0.378 -0.189,-0.243 -0.2295,-0.567 -0.0405,-0.3105 0.0945,-0.675 z"
            id="path43462" />
    </g>
    <g
        aria-label="n"
        id="text78"
        style="font-size: 13.5px; font-family: Maestro, Maestro; isolation: isolate"
        class="cls-5">
        <path
            d="m 647.54513,301.46634 v 2.1195 l 1.539,-0.405 v -2.1195 z m 1.89,-1.809 v 7.7085 h -0.351 v -2.889 l -1.8765,0.486 v -7.803 h 0.3375 v 3.0105 z"
            id="path43459" />
    </g>
    <g
        aria-label="#"
        id="text80"
        style="font-size: 13.5px; font-family: Maestro, Maestro; isolation: isolate"
        class="cls-5">
        <path
            d="m 647.63313,291.34635 v 2.0115 l 1.323,-0.432 v -2.0115 z m -0.3915,-1.269 v -2.2005 h 0.3915 v 2.0655 l 1.323,-0.432 v -1.971 h 0.3915 v 1.8495 l 0.5265,-0.1755 v 1.404 l -0.5265,0.1755 v 1.998 l 0.5265,-0.162 v 1.3905 l -0.5265,0.1755 v 2.2005 h -0.3915 v -2.079 l -1.323,0.432 v 1.998 h -0.3915 v -1.863 l -0.5805,0.189 v -1.404 l 0.5805,-0.189 v -2.0115 l -0.5805,0.189 v -1.3905 z"
            id="path43456" />
    </g>
    <g
        aria-label="‰"
        id="text82"
        style="font-size: 13.5px; font-family: Maestro, Maestro; isolation: isolate"
        class="cls-5">
        <path
            d="m 684.59309,282.55785 q 0.3645,-0.0945 0.6075,0.0405 0.243,0.135 0.3645,0.378 0.135,0.243 0.162,0.54 0.027,0.2835 -0.0405,0.486 0.216,-0.027 0.3915,-0.081 0.1755,-0.054 0.3645,-0.243 0.1755,-0.1755 0.2835,-0.324 0.1215,-0.1485 0.2835,-0.3375 l 0.189,0.108 -1.4985,5.6565 h -0.54 q 0.135,-0.4455 0.2835,-0.8775 0.1215,-0.351 0.243,-0.7425 0.1215,-0.378 0.216,-0.6075 0.216,-0.594 0.351,-1.0665 0.1485,-0.459 0.2295,-0.783 0.0945,-0.378 0.1485,-0.6615 -0.1215,0.0945 -0.3375,0.243 -0.2025,0.135 -0.4455,0.27 -0.243,0.135 -0.4995,0.243 -0.2565,0.0945 -0.4995,0.108 -0.5265,0.027 -0.8505,-0.2835 -0.3105,-0.3105 -0.3645,-0.7155 -0.054,-0.4185 0.1755,-0.81 0.2295,-0.405 0.783,-0.54 z"
            id="path43453" />
    </g>
    <g
        aria-label="œ"
        id="text84"
        style="font-size: 13.5px; font-family: Maestro, Maestro; isolation: isolate"
        class="cls-5">
        <path
            d="m 704.96908,288.81684 q 0.135,-0.3645 0.405,-0.675 0.2835,-0.3105 0.648,-0.54 0.3645,-0.243 0.783,-0.3645 0.4185,-0.135 0.8505,-0.135 0.432,0 0.756,0.1485 0.324,0.135 0.513,0.378 0.189,0.2295 0.2295,0.5535 0.054,0.3105 -0.081,0.675 -0.135,0.3645 -0.4185,0.675 -0.2835,0.324 -0.648,0.5535 -0.3645,0.243 -0.7965,0.3645 -0.4185,0.135 -0.837,0.135 -0.432,0 -0.756,-0.1485 -0.3105,-0.135 -0.513,-0.378 -0.189,-0.243 -0.2295,-0.567 -0.0405,-0.3105 0.0945,-0.675 z"
            id="path43450" />
    </g>
    <g
        aria-label="n"
        id="text86"
        style="font-size: 13.5px; font-family: Maestro, Maestro; isolation: isolate"
        class="cls-5">
        <path
            d="m 701.3851,287.96634 v 2.1195 l 1.539,-0.405 v -2.1195 z m 1.89,-1.809 v 7.7085 h -0.351 v -2.889 l -1.8765,0.486 v -7.803 h 0.3375 v 3.0105 z"
            id="path43447" />
    </g>
    <path
        id="line88"
        style="fill: none; stroke: #000000; stroke-width: 0.4px"
        class="cls-1"
        d="m 708.98114,288.26334 v -10.4" />
    <path
        id="line92"
        style="fill: none; stroke: #000000; stroke-width: 0.56px"
        class="cls-6"
        d="m 725.3811,298.96335 h 6.10004" />
    <path
        id="line94"
        style="fill: none; stroke: #000000; stroke-width: 0.56px"
        class="cls-6"
        d="m 725.3811,295.56335 h 6.10004" />
    <path
        id="line90"
        style="fill: none; stroke: #000000; stroke-width: 0.56px"
        class="cls-6"
        d="m 725.3811,302.26334 h 6.10004" />
    <g
        aria-label="œ"
        id="text96"
        style="font-size: 13.5px; font-family: Maestro, Maestro; isolation: isolate"
        class="cls-5">
        <path
            d="m 726.33914,302.31684 q 0.135,-0.3645 0.405,-0.675 0.2835,-0.3105 0.648,-0.54 0.3645,-0.243 0.783,-0.3645 0.4185,-0.135 0.8505,-0.135 0.432,0 0.756,0.1485 0.324,0.135 0.513,0.378 0.189,0.2295 0.2295,0.5535 0.054,0.3105 -0.081,0.675 -0.135,0.3645 -0.4185,0.675 -0.2835,0.324 -0.648,0.5535 -0.3645,0.243 -0.7965,0.3645 -0.4185,0.135 -0.837,0.135 -0.432,0 -0.756,-0.1485 -0.3105,-0.135 -0.513,-0.378 -0.189,-0.243 -0.2295,-0.567 -0.0405,-0.3105 0.0945,-0.675 z"
            id="path43440" />
    </g>
    <g
        aria-label="#"
        id="text98"
        style="font-size: 13.5px; font-family: Maestro, Maestro; isolation: isolate"
        class="cls-5">
        <path
            d="m 722.84309,301.46634 v 2.0115 l 1.323,-0.432 v -2.0115 z m -0.3915,-1.269 v -2.2005 h 0.3915 v 2.0655 l 1.323,-0.432 v -1.971 h 0.3915 v 1.8495 l 0.5265,-0.1755 v 1.404 l -0.5265,0.1755 v 1.998 l 0.5265,-0.162 v 1.3905 l -0.5265,0.1755 v 2.2005 h -0.3915 v -2.079 l -1.323,0.432 v 1.998 h -0.3915 v -1.863 l -0.5805,0.189 v -1.404 l 0.5805,-0.189 v -2.0115 l -0.5805,0.189 v -1.3905 z"
            id="path43437" />
    </g>
    <path
        id="line100"
        style="fill: none; stroke: #000000; stroke-width: 0.4px"
        class="cls-1"
        d="M 730.3811,301.76334 V 288.46335" />
    <path d="m 708.78111,276.96334 21.8,10.6 v 1.7 l -21.8,-10.6 z" id="path102" inkscape:connector-curvature="0" />
    <g
        aria-label="œ"
        id="text104"
        style="font-size: 13.5px; font-family: Maestro, Maestro; isolation: isolate"
        class="cls-5">
        <path
            d="m 704.96908,288.81684 q 0.135,-0.3645 0.405,-0.675 0.2835,-0.3105 0.648,-0.54 0.3645,-0.243 0.783,-0.3645 0.4185,-0.135 0.8505,-0.135 0.432,0 0.756,0.1485 0.324,0.135 0.513,0.378 0.189,0.2295 0.2295,0.5535 0.054,0.3105 -0.081,0.675 -0.135,0.3645 -0.4185,0.675 -0.2835,0.324 -0.648,0.5535 -0.3645,0.243 -0.7965,0.3645 -0.4185,0.135 -0.837,0.135 -0.432,0 -0.756,-0.1485 -0.3105,-0.135 -0.513,-0.378 -0.189,-0.243 -0.2295,-0.567 -0.0405,-0.3105 0.0945,-0.675 z"
            id="path43433" />
    </g>
    <path
        id="line106"
        style="fill: none; stroke: #000000; stroke-width: 0.4px"
        class="cls-1"
        d="m 708.98114,288.26334 v -20.5" />
    <path
        id="line110"
        style="fill: none; stroke: #000000; stroke-width: 0.4px"
        class="cls-1"
        d="m 730.3811,278.46335 v -12.4" />
    <path d="m 708.78111,266.86334 21.8,-1.7 v 1.7 l -21.8,1.7 z" id="path112" inkscape:connector-curvature="0" />
    <g
        aria-label="M 317 Sk4.3"
        id="text114"
        style="font-weight: 700; font-size: 12px; font-family: Arial-BoldMT, Arial; isolation: isolate"
        class="cls-7">
        <path
            d="m 94.48819,84.326881 v -8.589843 h 2.595703 l 1.558594,5.859375 1.541013,-5.859375 h 2.60156 v 8.589843 h -1.61132 v -6.761718 l -1.705082,6.761718 h -1.669921 l -1.699219,-6.761718 v 6.761718 z"
            id="path43409" />
        <path
            d="m 107.41983,82.047585 1.59375,-0.19336 q 0.0762,0.609375 0.41016,0.931641 0.33398,0.322265 0.80859,0.322265 0.50977,0 0.85547,-0.386718 0.35156,-0.386719 0.35156,-1.042969 0,-0.621094 -0.33398,-0.984375 -0.33399,-0.363281 -0.81446,-0.363281 -0.3164,0 -0.75586,0.123047 l 0.18165,-1.341797 q 0.66796,0.01758 1.01953,-0.28711 0.35156,-0.310547 0.35156,-0.820312 0,-0.433594 -0.25781,-0.691406 -0.25782,-0.257813 -0.68555,-0.257813 -0.42188,0 -0.7207,0.292969 -0.29883,0.292969 -0.36328,0.855469 l -1.51758,-0.257813 q 0.1582,-0.779297 0.47461,-1.242187 0.32226,-0.46875 0.89062,-0.732422 0.57422,-0.269532 1.2832,-0.269532 1.2129,0 1.94532,0.773438 0.60351,0.632812 0.60351,1.429687 0,1.13086 -1.23633,1.804688 0.73829,0.158203 1.17774,0.708984 0.44531,0.550782 0.44531,1.330078 0,1.13086 -0.82617,1.927735 -0.82617,0.796875 -2.05664,0.796875 -1.16602,0 -1.93359,-0.667969 -0.76758,-0.673828 -0.89063,-1.757812 z"
            id="path43411" />
        <path
            d="m 118.36514,84.326881 h -1.64648 v -6.205078 q -0.90235,0.84375 -2.12695,1.248047 v -1.49414 q 0.64453,-0.210938 1.40039,-0.796875 0.75586,-0.591797 1.03711,-1.376954 h 1.33593 z"
            id="path43413" />
        <path
            d="m 120.82608,77.383522 v -1.529297 h 5.63086 v 1.195313 q -0.69727,0.685547 -1.41797,1.96875 -0.7207,1.283203 -1.10156,2.730468 -0.375,1.441407 -0.36914,2.578125 h -1.58789 q 0.041,-1.78125 0.73242,-3.632812 0.69726,-1.851563 1.85742,-3.310547 z"
            id="path43415" />
        <path
            d="m 130.75772,81.53196 1.6875,-0.164063 q 0.15234,0.849609 0.61524,1.248047 0.46875,0.398437 1.25976,0.398437 0.83789,0 1.25977,-0.351562 0.42773,-0.357422 0.42773,-0.832031 0,-0.304688 -0.18164,-0.515625 -0.17578,-0.216797 -0.62109,-0.375 -0.30469,-0.105469 -1.38868,-0.375 -1.39453,-0.345703 -1.95703,-0.84961 -0.79101,-0.708984 -0.79101,-1.728515 0,-0.65625 0.36914,-1.22461 0.375,-0.574218 1.07226,-0.873047 0.70313,-0.298828 1.69336,-0.298828 1.61719,0 2.43164,0.708985 0.82032,0.708984 0.86133,1.892578 l -1.73437,0.07617 q -0.11133,-0.66211 -0.48047,-0.949219 -0.36328,-0.292969 -1.0957,-0.292969 -0.75586,0 -1.1836,0.310547 -0.27539,0.199219 -0.27539,0.533203 0,0.304688 0.25781,0.521485 0.32813,0.27539 1.59375,0.574218 1.26563,0.298828 1.86914,0.621094 0.60938,0.316406 0.94922,0.873047 0.34571,0.550781 0.34571,1.365234 0,0.738282 -0.41016,1.382813 -0.41016,0.644531 -1.16016,0.960937 -0.75,0.310547 -1.86914,0.310547 -1.6289,0 -2.50195,-0.75 -0.87305,-0.755859 -1.04297,-2.197265 z"
            id="path43417" />
        <path
            d="m 139.13077,84.326881 v -8.589843 h 1.64648 v 4.558593 l 1.92774,-2.191406 h 2.02734 l -2.12695,2.273438 2.27929,3.949218 h -1.77539 l -1.56445,-2.794921 -0.76758,0.802734 v 1.992187 z"
            id="path43419" />
        <path
            d="m 148.74014,84.326881 v -1.728515 h -3.51562 V 81.15696 l 3.72656,-5.455079 h 1.38281 V 81.1511 h 1.06641 v 1.447266 h -1.06641 v 1.728515 z m 0,-3.175781 v -2.935547 l -1.97461,2.935547 z"
            id="path43421" />
        <path d="m 152.53702,84.326881 v -1.646484 h 1.64648 v 1.646484 z" id="path43423" />
        <path
            d="m 155.46085,82.047585 1.59375,-0.19336 q 0.0762,0.609375 0.41015,0.931641 0.33399,0.322265 0.8086,0.322265 0.50976,0 0.85546,-0.386718 0.35157,-0.386719 0.35157,-1.042969 0,-0.621094 -0.33399,-0.984375 -0.33398,-0.363281 -0.81445,-0.363281 -0.31641,0 -0.75586,0.123047 l 0.18164,-1.341797 q 0.66797,0.01758 1.01953,-0.28711 0.35156,-0.310547 0.35156,-0.820312 0,-0.433594 -0.25781,-0.691406 -0.25781,-0.257813 -0.68554,-0.257813 -0.42188,0 -0.72071,0.292969 -0.29883,0.292969 -0.36328,0.855469 l -1.51758,-0.257813 q 0.15821,-0.779297 0.47461,-1.242187 0.32227,-0.46875 0.89063,-0.732422 0.57422,-0.269532 1.2832,-0.269532 1.21289,0 1.94531,0.773438 0.60352,0.632812 0.60352,1.429687 0,1.13086 -1.23633,1.804688 0.73828,0.158203 1.17773,0.708984 0.44532,0.550782 0.44532,1.330078 0,1.13086 -0.82617,1.927735 -0.82618,0.796875 -2.05665,0.796875 -1.16601,0 -1.93359,-0.667969 -0.76758,-0.673828 -0.89062,-1.757812 z"
            id="path43425" />
    </g>
    <g id="g453" class="link-box">
        <path
            id="polyline116"
            style="fill: #ffffff; stroke: #7d7d7d; stroke-width: 0.4px; stroke-miterlimit: 10"
            class="cls-8"
            transform="translate(66.281101,70.963337)"
            d="M 94,116.6 V 234.4 H 482 V 116.6" />
        <g
            aria-label="Sk4 T. 13–15"
            id="text122"
            style="
                font-weight: 700;
                font-size: 12px;
                font-family: Arial-BoldMT, Arial;
                isolation: isolate;
                fill: #7d7d7d;
            "
            class="cls-7">
            <path
                d="m 302.71472,245.50841 1.6875,-0.16406 q 0.15235,0.8496 0.61524,1.24804 0.46875,0.39844 1.25976,0.39844 0.83789,0 1.25977,-0.35156 0.42773,-0.35742 0.42773,-0.83203 0,-0.30469 -0.18164,-0.51563 -0.17578,-0.2168 -0.62109,-0.375 -0.30469,-0.10547 -1.38867,-0.375 -1.39454,-0.3457 -1.95704,-0.84961 -0.79101,-0.70898 -0.79101,-1.72851 0,-0.65625 0.36914,-1.22461 0.375,-0.57422 1.07226,-0.87305 0.70313,-0.29883 1.69336,-0.29883 1.61719,0 2.43164,0.70899 0.82032,0.70898 0.86133,1.89257 l -1.73437,0.0762 q -0.11133,-0.66211 -0.48047,-0.94922 -0.36328,-0.29297 -1.0957,-0.29297 -0.75586,0 -1.1836,0.31055 -0.27539,0.19921 -0.27539,0.5332 0,0.30469 0.25781,0.52148 0.32813,0.27539 1.59375,0.57422 1.26563,0.29883 1.86914,0.6211 0.60938,0.3164 0.94922,0.87304 0.34571,0.55078 0.34571,1.36524 0,0.73828 -0.41016,1.38281 -0.41016,0.64453 -1.16016,0.96094 -0.75,0.31054 -1.86914,0.31054 -1.6289,0 -2.50195,-0.75 -0.87305,-0.75586 -1.04297,-2.19726 z"
                id="path43387" />
            <path
                d="m 311.08777,248.30333 v -8.58984 h 1.64648 v 4.55859 l 1.92774,-2.19141 h 2.02734 l -2.12695,2.27344 2.27929,3.94922 h -1.77539 l -1.56445,-2.79492 -0.76758,0.80273 v 1.99219 z"
                id="path43389" />
            <path
                d="m 320.69714,248.30333 v -1.72852 h -3.51562 v -1.4414 l 3.72656,-5.45508 h 1.38281 v 5.44922 h 1.06641 v 1.44726 h -1.06641 v 1.72852 z m 0,-3.17578 V 242.192 l -1.97461,2.93555 z"
                id="path43391" />
            <path
                d="m 329.77774,248.30333 v -7.13672 h -2.54883 v -1.45312 h 6.82617 v 1.45312 h -2.54296 v 7.13672 z"
                style="letter-spacing: -0.11em"
                id="path43393" />
            <path d="m 333.83243,248.30333 v -1.64648 h 1.64648 v 1.64648 z" id="path43395" />
            <path
                d="m 344.36172,248.30333 h -1.64648 v -6.20508 q -0.90234,0.84375 -2.12695,1.24805 v -1.49414 q 0.64453,-0.21094 1.40039,-0.79688 0.75586,-0.59179 1.03711,-1.37695 h 1.33593 z"
                id="path43397" />
            <path
                d="m 346.76407,246.02403 1.59375,-0.19336 q 0.0762,0.60938 0.41015,0.93164 0.33399,0.32227 0.8086,0.32227 0.50976,0 0.85547,-0.38672 0.35156,-0.38672 0.35156,-1.04297 0,-0.62109 -0.33398,-0.98437 -0.33399,-0.36328 -0.81446,-0.36328 -0.3164,0 -0.75586,0.12304 l 0.18164,-1.34179 q 0.66797,0.0176 1.01953,-0.28711 0.35157,-0.31055 0.35157,-0.82032 0,-0.43359 -0.25782,-0.6914 -0.25781,-0.25781 -0.68554,-0.25781 -0.42188,0 -0.72071,0.29296 -0.29882,0.29297 -0.36328,0.85547 l -1.51757,-0.25781 q 0.1582,-0.7793 0.4746,-1.24219 0.32227,-0.46875 0.89063,-0.73242 0.57422,-0.26953 1.2832,-0.26953 1.21289,0 1.94532,0.77344 0.60351,0.63281 0.60351,1.42968 0,1.13086 -1.23633,1.80469 0.73828,0.15821 1.17774,0.70899 0.44531,0.55078 0.44531,1.33007 0,1.13086 -0.82617,1.92774 -0.82617,0.79687 -2.05664,0.79687 -1.16602,0 -1.9336,-0.66796 -0.76757,-0.67383 -0.89062,-1.75782 z"
                id="path43399" />
            <path d="m 352.96329,245.80724 v -1.23047 h 6.67383 v 1.23047 z" id="path43401" />
            <path
                d="m 364.38321,248.30333 h -1.64649 v -6.20508 q -0.90234,0.84375 -2.12695,1.24805 v -1.49414 q 0.64453,-0.21094 1.40039,-0.79688 0.75586,-0.59179 1.03711,-1.37695 h 1.33594 z"
                id="path43403" />
            <path
                d="m 366.86758,246.09435 1.64063,-0.16993 q 0.0703,0.55664 0.41601,0.88477 0.34571,0.32226 0.79688,0.32226 0.51562,0 0.87305,-0.41601 0.35742,-0.42188 0.35742,-1.26563 0,-0.79101 -0.35742,-1.18359 -0.35157,-0.39844 -0.91993,-0.39844 -0.70898,0 -1.27148,0.62696 l -1.33594,-0.19336 0.84375,-4.47071 h 4.35352 v 1.54102 h -3.10547 l -0.25781,1.45898 q 0.55078,-0.27539 1.125,-0.27539 1.0957,0 1.85742,0.79688 0.76172,0.79687 0.76172,2.06836 0,1.06054 -0.61524,1.89258 -0.83789,1.13671 -2.32617,1.13671 -1.18945,0 -1.93945,-0.63867 -0.75,-0.63867 -0.89649,-1.71679 z"
                id="path43405" />
        </g>
    </g>
    <g
        aria-label="Maria Enzersdorf"
        id="text124"
        style="font-size: 6.75px; font-family: TimesNewRomanPSMT, 'Times New Roman'; isolation: isolate"
        class="cls-10">
        <path
            d="m 568.9931,234.76334 -1.72705,-3.76062 v 2.98608 q 0,0.41199 0.089,0.51416 0.12195,0.13843 0.38562,0.13843 h 0.1582 v 0.12195 h -1.55566 v -0.12195 h 0.1582 q 0.28345,0 0.4021,-0.17139 0.0725,-0.10547 0.0725,-0.4812 v -2.92017 q 0,-0.29663 -0.0659,-0.42846 -0.0462,-0.0956 -0.17139,-0.15821 -0.12195,-0.0659 -0.39551,-0.0659 v -0.12195 h 1.26563 l 1.62158,3.49695 1.59521,-3.49695 h 1.26563 v 0.12195 h -0.15491 q -0.28674,0 -0.4054,0.17138 -0.0725,0.10547 -0.0725,0.4812 v 2.92017 q 0,0.41199 0.0923,0.51416 0.12195,0.13843 0.38562,0.13843 h 0.15491 v 0.12195 h -1.89844 v -0.12195 h 0.1582 q 0.28675,0 0.4021,-0.17139 0.0725,-0.10547 0.0725,-0.4812 v -2.98608 l -1.72375,3.76062 z"
            id="path43356" />
        <path
            d="m 574.15448,234.32828 q -0.46472,0.35925 -0.58337,0.41528 -0.17798,0.0824 -0.37903,0.0824 -0.31311,0 -0.51746,-0.21424 -0.20105,-0.21423 -0.20105,-0.56359 0,-0.22083 0.0989,-0.38233 0.13513,-0.22412 0.46802,-0.42187 0.33618,-0.19776 1.11401,-0.4812 v -0.11866 q 0,-0.45153 -0.14502,-0.61963 -0.14172,-0.16809 -0.41528,-0.16809 -0.20764,0 -0.32959,0.11206 -0.12525,0.11206 -0.12525,0.25708 l 0.007,0.19117 q 0,0.15161 -0.0791,0.23401 -0.0758,0.0824 -0.20105,0.0824 -0.12194,0 -0.20105,-0.0857 -0.0758,-0.0857 -0.0758,-0.23401 0,-0.28345 0.29004,-0.52075 0.29004,-0.23731 0.81408,-0.23731 0.4021,0 0.65918,0.13514 0.19446,0.10217 0.28675,0.3197 0.0593,0.14172 0.0593,0.58008 v 1.02502 q 0,0.43176 0.0165,0.53064 0.0165,0.0956 0.0527,0.12854 0.0395,0.033 0.089,0.033 0.0527,0 0.0923,-0.0231 0.0692,-0.0428 0.26697,-0.2406 v 0.18457 q -0.36914,0.49438 -0.70532,0.49438 -0.1615,0 -0.25708,-0.11206 -0.0956,-0.11206 -0.0989,-0.38232 z m 0,-0.21424 v -1.15026 q -0.49768,0.19775 -0.6427,0.28015 -0.26038,0.14502 -0.37244,0.30322 -0.11206,0.1582 -0.11206,0.34607 0,0.2373 0.14173,0.39551 0.14172,0.1549 0.32629,0.1549 0.25049,0 0.65918,-0.32959 z"
            id="path43358" />
        <path
            d="m 576.32318,231.6553 v 0.67896 q 0.37903,-0.67896 0.77783,-0.67896 0.18128,0 0.29993,0.11206 0.11865,0.10877 0.11865,0.25379 0,0.12854 -0.0857,0.21753 -0.0857,0.089 -0.20435,0.089 -0.11535,0 -0.26037,-0.11206 -0.14173,-0.11536 -0.21094,-0.11536 -0.0593,0 -0.12854,0.0659 -0.14832,0.13513 -0.30652,0.44494 v 1.4469 q 0,0.25049 0.0626,0.37903 0.0428,0.089 0.15161,0.14832 0.10877,0.0593 0.31311,0.0593 v 0.11866 h -1.54577 v -0.11866 q 0.23071,0 0.34277,-0.0725 0.0824,-0.0527 0.11536,-0.16809 0.0165,-0.056 0.0165,-0.3197 v -1.17004 q 0,-0.52735 -0.0231,-0.62622 -0.0198,-0.10218 -0.0791,-0.14832 -0.056,-0.0461 -0.14173,-0.0461 -0.10217,0 -0.23071,0.0494 l -0.033,-0.11866 0.91296,-0.36914 z"
            id="path43360" />
        <path
            d="m 578.45563,230.07657 q 0.13843,0 0.23401,0.0989 0.0989,0.0956 0.0989,0.234 0,0.13843 -0.0989,0.23731 -0.0956,0.0989 -0.23401,0.0989 -0.13843,0 -0.23731,-0.0989 -0.0989,-0.0989 -0.0989,-0.23731 0,-0.13842 0.0956,-0.234 0.0989,-0.0989 0.2406,-0.0989 z m 0.27356,1.57873 v 2.42579 q 0,0.28344 0.0395,0.37902 0.0428,0.0923 0.12195,0.13843 0.0824,0.0461 0.29663,0.0461 v 0.11866 h -1.46668 v -0.11866 q 0.22083,0 0.29663,-0.0428 0.0758,-0.0429 0.11866,-0.14173 0.0461,-0.0989 0.0461,-0.37902 v -1.16346 q 0,-0.49109 -0.0297,-0.63611 -0.0231,-0.10546 -0.0725,-0.14501 -0.0494,-0.0428 -0.13514,-0.0428 -0.0923,0 -0.22412,0.0494 l -0.0461,-0.11866 0.90967,-0.36914 z"
            id="path43362" />
        <path
            d="m 581.27362,234.32828 q -0.46472,0.35925 -0.58337,0.41528 -0.17798,0.0824 -0.37903,0.0824 -0.31311,0 -0.51746,-0.21424 -0.20105,-0.21423 -0.20105,-0.56359 0,-0.22083 0.0989,-0.38233 0.13513,-0.22412 0.46802,-0.42187 0.33618,-0.19776 1.11401,-0.4812 v -0.11866 q 0,-0.45153 -0.14502,-0.61963 -0.14172,-0.16809 -0.41528,-0.16809 -0.20764,0 -0.32959,0.11206 -0.12525,0.11206 -0.12525,0.25708 l 0.007,0.19117 q 0,0.15161 -0.0791,0.23401 -0.0758,0.0824 -0.20105,0.0824 -0.12194,0 -0.20105,-0.0857 -0.0758,-0.0857 -0.0758,-0.23401 0,-0.28345 0.29004,-0.52075 0.29004,-0.23731 0.81408,-0.23731 0.4021,0 0.65918,0.13514 0.19446,0.10217 0.28675,0.3197 0.0593,0.14172 0.0593,0.58008 v 1.02502 q 0,0.43176 0.0165,0.53064 0.0165,0.0956 0.0527,0.12854 0.0395,0.033 0.089,0.033 0.0527,0 0.0923,-0.0231 0.0692,-0.0428 0.26697,-0.2406 v 0.18457 q -0.36914,0.49438 -0.70532,0.49438 -0.1615,0 -0.25708,-0.11206 -0.0956,-0.11206 -0.0989,-0.38232 z m 0,-0.21424 v -1.15026 q -0.49768,0.19775 -0.6427,0.28015 -0.26038,0.14502 -0.37244,0.30322 -0.11206,0.1582 -0.11206,0.34607 0,0.2373 0.14173,0.39551 0.14172,0.1549 0.32629,0.1549 0.25049,0 0.65918,-0.32959 z"
            id="path43364" />
        <path
            d="m 585.44623,230.53799 v 1.76661 h 0.98218 q 0.38232,0 0.51086,-0.11536 0.17139,-0.15161 0.19116,-0.53394 h 0.12195 v 1.55567 h -0.12195 q -0.0461,-0.3263 -0.0923,-0.41858 -0.0593,-0.11536 -0.19446,-0.18128 -0.13513,-0.0659 -0.41528,-0.0659 h -0.98218 v 1.47326 q 0,0.29663 0.0264,0.36255 0.0264,0.0626 0.0923,0.10217 0.0659,0.0363 0.25049,0.0363 h 0.75806 q 0.37902,0 0.55041,-0.0527 0.17139,-0.0527 0.32959,-0.20765 0.20435,-0.20434 0.41858,-0.61633 h 0.13184 l -0.38562,1.12061 h -3.44422 v -0.12195 h 0.1582 q 0.15821,0 0.29993,-0.0758 0.10547,-0.0527 0.14172,-0.1582 0.0396,-0.10547 0.0396,-0.43176 v -2.90369 q 0,-0.42517 -0.0857,-0.52405 -0.11865,-0.13183 -0.39551,-0.13183 h -0.1582 v -0.12195 h 3.44422 l 0.0494,0.97888 h -0.12854 q -0.0692,-0.35266 -0.1549,-0.4845 -0.0824,-0.13183 -0.2472,-0.20105 -0.13183,-0.0494 -0.46472,-0.0494 z"
            id="path43366" />
        <path
            d="m 589.24969,232.29471 q 0.53064,-0.63941 1.01185,-0.63941 0.24719,0 0.42517,0.12525 0.17798,0.12195 0.28344,0.40539 0.0725,0.19776 0.0725,0.60645 v 1.2887 q 0,0.28674 0.0462,0.38891 0.0362,0.0824 0.11535,0.12854 0.0824,0.0461 0.29993,0.0461 v 0.11866 h -1.49304 v -0.11866 h 0.0626 q 0.21094,0 0.29333,-0.0626 0.0857,-0.0659 0.11866,-0.19116 0.0132,-0.0494 0.0132,-0.30981 v -1.23597 q 0,-0.41198 -0.10876,-0.59655 -0.10547,-0.18787 -0.35926,-0.18787 -0.39221,0 -0.78113,0.42847 v 1.59192 q 0,0.30651 0.0363,0.37902 0.0461,0.0956 0.12524,0.14173 0.0824,0.0428 0.32959,0.0428 v 0.11866 h -1.49304 v -0.11866 h 0.0659 q 0.23071,0 0.30981,-0.11535 0.0824,-0.11865 0.0824,-0.44824 v -1.12061 q 0,-0.54382 -0.0264,-0.66248 -0.0231,-0.11865 -0.0758,-0.16149 -0.0494,-0.0428 -0.13513,-0.0428 -0.0923,0 -0.22083,0.0494 l -0.0494,-0.11866 0.90967,-0.36914 h 0.14172 z"
            id="path43368" />
        <path
            d="m 594.36823,233.83719 -0.0363,0.92615 h -2.66309 v -0.11866 l 2.00391,-2.66967 h -0.98877 q -0.3197,0 -0.41858,0.0428 -0.0989,0.0395 -0.1615,0.15491 -0.089,0.16479 -0.10217,0.40869 h -0.13184 l 0.0198,-0.83716 h 2.53125 v 0.12195 l -2.02368,2.67627 h 1.10083 q 0.34607,0 0.46802,-0.056 0.12524,-0.0593 0.20105,-0.20434 0.0527,-0.10547 0.089,-0.44495 z"
            id="path43370" />
        <path
            d="m 595.24823,232.88138 q -0.003,0.67236 0.32629,1.05469 0.32959,0.38232 0.77454,0.38232 0.29663,0 0.51416,-0.1615 0.22083,-0.16479 0.36914,-0.5603 l 0.10217,0.0659 q -0.0692,0.45153 -0.4021,0.82397 -0.33288,0.36914 -0.83386,0.36914 -0.54382,0 -0.93274,-0.42187 -0.38562,-0.42517 -0.38562,-1.14038 0,-0.77454 0.39551,-1.2063 0.3988,-0.43506 0.99866,-0.43506 0.50757,0 0.83386,0.33618 0.32629,0.33289 0.32629,0.89319 z m 0,-0.19116 h 1.39746 q -0.0165,-0.29004 -0.0692,-0.4087 -0.0824,-0.18457 -0.2472,-0.29003 -0.16149,-0.10547 -0.33947,-0.10547 -0.27356,0 -0.49109,0.21423 -0.21424,0.21094 -0.25049,0.58997 z"
            id="path43372" />
        <path
            d="m 598.61993,231.6553 v 0.67896 q 0.37903,-0.67896 0.77784,-0.67896 0.18127,0 0.29992,0.11206 0.11866,0.10877 0.11866,0.25379 0,0.12854 -0.0857,0.21753 -0.0857,0.089 -0.20434,0.089 -0.11536,0 -0.26038,-0.11206 -0.14172,-0.11536 -0.21094,-0.11536 -0.0593,0 -0.12854,0.0659 -0.14831,0.13513 -0.30652,0.44494 v 1.4469 q 0,0.25049 0.0626,0.37903 0.0428,0.089 0.15161,0.14832 0.10876,0.0593 0.31311,0.0593 v 0.11866 h -1.54578 v -0.11866 q 0.23071,0 0.34277,-0.0725 0.0824,-0.0527 0.11536,-0.16809 0.0165,-0.056 0.0165,-0.3197 v -1.17004 q 0,-0.52735 -0.0231,-0.62622 -0.0198,-0.10218 -0.0791,-0.14832 -0.056,-0.0461 -0.14173,-0.0461 -0.10217,0 -0.23071,0.0494 l -0.033,-0.11866 0.91297,-0.36914 z"
            id="path43374" />
        <path
            d="m 601.93561,231.6553 v 1.02832 h -0.10877 q -0.12524,-0.48449 -0.32299,-0.65918 -0.19446,-0.17468 -0.49769,-0.17468 -0.23071,0 -0.37243,0.12195 -0.14173,0.12195 -0.14173,0.27026 0,0.18457 0.10547,0.31641 0.10218,0.13513 0.41529,0.28674 l 0.4812,0.23401 q 0.66906,0.3263 0.66906,0.86023 0,0.41199 -0.31311,0.66577 -0.30981,0.25049 -0.69543,0.25049 -0.27686,0 -0.63281,-0.0989 -0.10877,-0.0329 -0.17798,-0.0329 -0.0758,0 -0.11865,0.0857 h -0.10877 v -1.07776 h 0.10877 q 0.0923,0.46143 0.35266,0.69543 0.26037,0.23401 0.58337,0.23401 0.22742,0 0.36914,-0.13183 0.14502,-0.13513 0.14502,-0.323 0,-0.22742 -0.1615,-0.38232 -0.1582,-0.15491 -0.63611,-0.39222 -0.4779,-0.2373 -0.62622,-0.42846 -0.14831,-0.18787 -0.14831,-0.47461 0,-0.37244 0.25378,-0.62293 0.25708,-0.25049 0.66248,-0.25049 0.17798,0 0.43176,0.0758 0.16809,0.0494 0.22412,0.0494 0.0527,0 0.0824,-0.0231 0.0297,-0.0231 0.0692,-0.10218 z"
            id="path43376" />
        <path
            d="m 604.74371,234.42386 q -0.22082,0.23071 -0.43176,0.33288 -0.21094,0.0989 -0.45483,0.0989 -0.49439,0 -0.86353,-0.41199 -0.36914,-0.41528 -0.36914,-1.06457 0,-0.64929 0.40869,-1.18652 0.40869,-0.54053 1.05139,-0.54053 0.39881,0 0.65918,0.25378 v -0.557 q 0,-0.51746 -0.0264,-0.63611 -0.0231,-0.11866 -0.0758,-0.1615 -0.0527,-0.0428 -0.13184,-0.0428 -0.0857,0 -0.22741,0.0527 l -0.0429,-0.11536 0.89978,-0.36914 h 0.14832 v 3.49036 q 0,0.53063 0.0231,0.64929 0.0264,0.11535 0.0791,0.1615 0.056,0.0461 0.12854,0.0461 0.089,0 0.2373,-0.056 l 0.0363,0.11535 -0.89649,0.37244 h -0.15161 z m 0,-0.23071 v -1.55567 q -0.0198,-0.22412 -0.11865,-0.40869 -0.0989,-0.18457 -0.26367,-0.27686 -0.1615,-0.0956 -0.31641,-0.0956 -0.29004,0 -0.51745,0.26038 -0.29993,0.34277 -0.29993,1.00195 0,0.66577 0.29004,1.02173 0.29004,0.35266 0.646,0.35266 0.29992,0 0.58007,-0.29992 z"
            id="path43378" />
        <path
            d="m 607.46283,231.6553 q 0.68555,0 1.10083,0.52076 0.35266,0.44494 0.35266,1.02172 0,0.4054 -0.19446,0.82068 -0.19446,0.41529 -0.53723,0.62622 -0.33948,0.21094 -0.75806,0.21094 -0.68225,0 -1.08435,-0.54382 -0.33947,-0.45813 -0.33947,-1.02832 0,-0.41529 0.20434,-0.82398 0.20764,-0.41198 0.54383,-0.60644 0.33618,-0.19776 0.71191,-0.19776 z m -0.10217,0.21424 q -0.17469,0 -0.35266,0.10547 -0.17469,0.10217 -0.28345,0.36254 -0.10877,0.26038 -0.10877,0.66907 0,0.65918 0.26038,1.13709 0.26367,0.4779 0.69214,0.4779 0.3197,0 0.52734,-0.26367 0.20764,-0.26367 0.20764,-0.90637 0,-0.8042 -0.34607,-1.26563 -0.234,-0.3164 -0.59655,-0.3164 z"
            id="path43380" />
        <path
            d="m 610.24457,231.6553 v 0.67896 q 0.37903,-0.67896 0.77783,-0.67896 0.18127,0 0.29993,0.11206 0.11865,0.10877 0.11865,0.25379 0,0.12854 -0.0857,0.21753 -0.0857,0.089 -0.20435,0.089 -0.11536,0 -0.26038,-0.11206 -0.14172,-0.11536 -0.21093,-0.11536 -0.0593,0 -0.12854,0.0659 -0.14832,0.13513 -0.30652,0.44494 v 1.4469 q 0,0.25049 0.0626,0.37903 0.0429,0.089 0.15161,0.14832 0.10877,0.0593 0.31311,0.0593 v 0.11866 h -1.54577 v -0.11866 q 0.23071,0 0.34277,-0.0725 0.0824,-0.0527 0.11536,-0.16809 0.0165,-0.056 0.0165,-0.3197 v -1.17004 q 0,-0.52735 -0.0231,-0.62622 -0.0198,-0.10218 -0.0791,-0.14832 -0.056,-0.0461 -0.14172,-0.0461 -0.10217,0 -0.23071,0.0494 l -0.033,-0.11866 0.91296,-0.36914 z"
            id="path43382" />
        <path
            d="m 612.789,231.9816 v 1.98413 q 0,0.42187 0.0923,0.53393 0.12194,0.14502 0.32629,0.14502 h 0.27356 v 0.11866 h -1.80286 v -0.11866 h 0.13514 q 0.13183,0 0.2406,-0.0659 0.10876,-0.0659 0.14831,-0.17798 0.0429,-0.11206 0.0429,-0.43506 v -1.98413 h -0.58667 v -0.23731 h 0.58667 v -0.19775 q 0,-0.45154 0.14502,-0.76465 0.14502,-0.31311 0.44165,-0.50427 0.29992,-0.19446 0.67236,-0.19446 0.34607,0 0.63611,0.22412 0.19116,0.14832 0.19116,0.33289 0,0.0989 -0.0857,0.18786 -0.0857,0.0857 -0.18457,0.0857 -0.0758,0 -0.1615,-0.0527 -0.0824,-0.056 -0.20435,-0.23401 -0.12194,-0.18127 -0.22412,-0.24389 -0.10217,-0.0626 -0.22741,-0.0626 -0.15162,0 -0.25708,0.0824 -0.10547,0.0791 -0.15162,0.25049 -0.0461,0.16809 -0.0461,0.87341 v 0.21753 h 0.77783 v 0.23731 z"
            id="path43384" />
    </g>
    <g
        aria-label="16.VII. 34"
        transform="rotate(-15)"
        id="text130"
        style="font-size: 6.75px; font-family: TimesNewRomanPSMT, 'Times New Roman'; isolation: isolate"
        class="cls-10">
        <path
            d="m 489.50784,399.21182 1.08765,-0.53064 h 0.10876 v 3.77381 q 0,0.37573 0.0297,0.46801 0.033,0.0923 0.13183,0.14173 0.0989,0.0494 0.4021,0.056 v 0.12195 h -1.68091 v -0.12195 q 0.31641,-0.007 0.4087,-0.0527 0.0923,-0.0494 0.12854,-0.12854 0.0362,-0.0824 0.0362,-0.48449 v -2.4126 q 0,-0.48779 -0.033,-0.62622 -0.0231,-0.10547 -0.0857,-0.15491 -0.0593,-0.0494 -0.14502,-0.0494 -0.12195,0 -0.33948,0.10218 z"
            id="path43337" />
        <path
            d="m 495.11746,398.68118 v 0.12195 q -0.43506,0.0428 -0.71191,0.17468 -0.27356,0.12854 -0.54383,0.39551 -0.26696,0.26697 -0.44494,0.59656 -0.17468,0.32629 -0.29334,0.77783 0.47461,-0.32629 0.95252,-0.32629 0.45813,0 0.79431,0.36914 0.33618,0.36914 0.33618,0.94922 0,0.5603 -0.33948,1.02173 -0.40869,0.5603 -1.08105,0.5603 -0.45813,0 -0.77783,-0.30322 -0.62622,-0.58997 -0.62622,-1.5293 0,-0.59986 0.2406,-1.14038 0.2406,-0.54053 0.68554,-0.95911 0.44825,-0.41858 0.85694,-0.5636 0.40869,-0.14502 0.76135,-0.14502 z m -2.05005,2.30713 q -0.0593,0.44495 -0.0593,0.71851 0,0.3164 0.11535,0.68884 0.11866,0.36914 0.34937,0.58667 0.16809,0.15491 0.40869,0.15491 0.28674,0 0.51086,-0.27027 0.22742,-0.27026 0.22742,-0.77124 0,-0.56359 -0.22412,-0.97558 -0.22412,-0.41199 -0.63611,-0.41199 -0.12524,0 -0.27026,0.0527 -0.14173,0.0527 -0.42188,0.22742 z"
            id="path43339" />
        <path
            d="m 496.31058,402.6033 q 0.1549,0 0.26037,0.10877 0.10547,0.10547 0.10547,0.25708 0,0.15161 -0.10876,0.26037 -0.10547,0.10547 -0.25708,0.10547 -0.15161,0 -0.26038,-0.10547 -0.10547,-0.10876 -0.10547,-0.26037 0,-0.15491 0.10547,-0.26038 0.10877,-0.10547 0.26038,-0.10547 z"
            id="path43341" />
        <path
            d="m 503.50906,398.77347 v 0.12195 q -0.2373,0.0428 -0.35925,0.15161 -0.17468,0.1615 -0.30981,0.49438 l -1.55896,3.80347 h -0.12195 l -1.67432,-3.85291 q -0.12854,-0.29663 -0.18127,-0.36254 -0.0824,-0.10218 -0.20435,-0.15821 -0.11865,-0.0593 -0.323,-0.0758 v -0.12195 h 1.82593 v 0.12195 q -0.30981,0.0297 -0.4021,0.10547 -0.0923,0.0758 -0.0923,0.19445 0,0.1648 0.15161,0.51416 l 1.13708,2.62024 1.05469,-2.58728 q 0.15491,-0.38232 0.15491,-0.53064 0,-0.0956 -0.0956,-0.18127 -0.0956,-0.089 -0.323,-0.12525 -0.0165,-0.003 -0.056,-0.01 v -0.12195 z"
            style="letter-spacing: 0em"
            id="path43343" />
        <path
            d="m 505.67447,403.12076 v 0.12195 h -1.91492 v -0.12195 h 0.15821 q 0.27685,0 0.40209,-0.1615 0.0791,-0.10547 0.0791,-0.50757 v -2.88721 q 0,-0.33947 -0.0428,-0.44824 -0.033,-0.0824 -0.13513,-0.14172 -0.14502,-0.0791 -0.30322,-0.0791 h -0.15821 v -0.12195 h 1.91492 v 0.12195 h -0.1615 q -0.27356,0 -0.3988,0.1615 -0.0824,0.10546 -0.0824,0.50756 v 2.88721 q 0,0.33948 0.0428,0.44824 0.033,0.0824 0.13842,0.14173 0.14173,0.0791 0.29993,0.0791 z"
            style="letter-spacing: 0em"
            id="path43345" />
        <path
            d="m 507.92227,403.12076 v 0.12195 h -1.91492 v -0.12195 h 0.15821 q 0.27685,0 0.4021,-0.1615 0.0791,-0.10547 0.0791,-0.50757 v -2.88721 q 0,-0.33947 -0.0428,-0.44824 -0.033,-0.0824 -0.13513,-0.14172 -0.14502,-0.0791 -0.30322,-0.0791 h -0.15821 v -0.12195 h 1.91492 v 0.12195 h -0.1615 q -0.27356,0 -0.3988,0.1615 -0.0824,0.10546 -0.0824,0.50756 v 2.88721 q 0,0.33948 0.0429,0.44824 0.033,0.0824 0.13843,0.14173 0.14172,0.0791 0.29992,0.0791 z"
            style="letter-spacing: 0em"
            id="path43347" />
        <path
            d="m 508.93082,402.6033 q 0.1549,0 0.26037,0.10877 0.10547,0.10547 0.10547,0.25708 0,0.15161 -0.10876,0.26037 -0.10547,0.10547 -0.25708,0.10547 -0.15161,0 -0.26038,-0.10547 -0.10547,-0.10876 -0.10547,-0.26037 0,-0.15491 0.10547,-0.26038 0.10877,-0.10547 0.26038,-0.10547 z"
            style="letter-spacing: 0em"
            id="path43349" />
        <path
            d="m 511.80484,399.62381 q 0.19116,-0.45154 0.4812,-0.69543 0.29334,-0.2472 0.72839,-0.2472 0.53724,0 0.82398,0.34937 0.21753,0.26037 0.21753,0.557 0,0.4878 -0.61304,1.00855 0.41199,0.1615 0.62293,0.46143 0.21093,0.29992 0.21093,0.70532 0,0.58008 -0.36914,1.00525 -0.4812,0.55371 -1.39416,0.55371 -0.45154,0 -0.61633,-0.11206 -0.1615,-0.11206 -0.1615,-0.2406 0,-0.0956 0.0758,-0.16809 0.0791,-0.0725 0.18787,-0.0725 0.0824,0 0.16809,0.0264 0.056,0.0165 0.25378,0.12195 0.19776,0.10217 0.27356,0.12195 0.12195,0.0362 0.26038,0.0362 0.33618,0 0.58337,-0.26037 0.25049,-0.26038 0.25049,-0.61633 0,-0.26038 -0.11536,-0.50757 -0.0857,-0.18457 -0.18786,-0.28015 -0.14173,-0.13184 -0.38892,-0.23731 -0.24719,-0.10876 -0.50427,-0.10876 h -0.10547 v -0.0989 q 0.26038,-0.033 0.52075,-0.18787 0.26367,-0.1549 0.38233,-0.37243 0.11865,-0.21753 0.11865,-0.47791 0,-0.33948 -0.21423,-0.54712 -0.21094,-0.21093 -0.52735,-0.21093 -0.51086,0 -0.85364,0.54711 z"
            style="letter-spacing: 0em"
            id="path43351" />
        <path
            d="m 517.97806,401.59476 v 0.46801 h -0.59986 v 1.17994 h -0.54382 v -1.17994 h -1.89184 v -0.42187 l 2.07312,-2.95972 h 0.36254 v 2.91358 z m -1.14368,0 v -2.21814 l -1.56885,2.21814 z"
            style="letter-spacing: 0em"
            id="path43353" />
    </g>
    <g id="g466" class="link-box">
        <path
            id="polyline132"
            style="fill: #ffffff; stroke: #7d7d7d; stroke-width: 0.4px; stroke-miterlimit: 10"
            class="cls-8"
            transform="translate(66.281101,70.963337)"
            d="m 921.5,116.6 v 33.3 H 769.8 v -33.3" />
        <g
            aria-label="Sk4 T. 7–12"
            id="text138"
            style="
                font-weight: 700;
                font-size: 12px;
                font-family: Arial-BoldMT, Arial;
                isolation: isolate;
                fill: #7d7d7d;
            "
            class="cls-7">
            <path
                d="m 880.46472,205.00841 1.6875,-0.16406 q 0.15235,0.8496 0.61524,1.24804 0.46875,0.39844 1.25976,0.39844 0.83789,0 1.25977,-0.35156 0.42773,-0.35742 0.42773,-0.83203 0,-0.30469 -0.18164,-0.51563 -0.17578,-0.2168 -0.62109,-0.375 -0.30469,-0.10547 -1.38867,-0.375 -1.39454,-0.3457 -1.95704,-0.84961 -0.79101,-0.70898 -0.79101,-1.72851 0,-0.65625 0.36914,-1.22461 0.375,-0.57422 1.07226,-0.87305 0.70313,-0.29883 1.69336,-0.29883 1.61719,0 2.43164,0.70899 0.82032,0.70898 0.86133,1.89257 l -1.73437,0.0762 q -0.11133,-0.66211 -0.48047,-0.94922 -0.36328,-0.29297 -1.0957,-0.29297 -0.75586,0 -1.1836,0.31055 -0.27539,0.19921 -0.27539,0.5332 0,0.30469 0.25781,0.52148 0.32813,0.27539 1.59375,0.57422 1.26563,0.29883 1.86914,0.6211 0.60938,0.3164 0.94922,0.87304 0.34571,0.55078 0.34571,1.36524 0,0.73828 -0.41016,1.38281 -0.41016,0.64453 -1.16016,0.96094 -0.75,0.31054 -1.86914,0.31054 -1.6289,0 -2.50195,-0.75 -0.87305,-0.75586 -1.04297,-2.19726 z"
                id="path43317" />
            <path
                d="m 888.83777,207.80333 v -8.58984 h 1.64648 v 4.55859 l 1.92774,-2.19141 h 2.02734 l -2.12695,2.27344 2.27929,3.94922 h -1.77539 l -1.56445,-2.79492 -0.76758,0.80273 v 1.99219 z"
                id="path43319" />
            <path
                d="m 898.44714,207.80333 v -1.72852 h -3.51562 v -1.4414 l 3.72656,-5.45508 h 1.38281 v 5.44922 h 1.06641 v 1.44726 h -1.06641 v 1.72852 z m 0,-3.17578 V 201.692 l -1.97461,2.93555 z"
                id="path43321" />
            <path
                d="m 907.52777,207.80333 v -7.13672 h -2.54883 v -1.45312 h 6.82617 v 1.45312 h -2.54296 v 7.13672 z"
                style="letter-spacing: -0.11em"
                id="path43323" />
            <path d="m 911.58246,207.80333 v -1.64648 h 1.64648 v 1.64648 z" id="path43325" />
            <path
                d="m 917.89886,200.85997 v -1.5293 h 5.63086 v 1.19532 q -0.69726,0.68554 -1.41796,1.96875 -0.72071,1.2832 -1.10157,2.73046 -0.375,1.44141 -0.36914,2.57813 h -1.58789 q 0.041,-1.78125 0.73242,-3.63281 0.69727,-1.85157 1.85743,-3.31055 z"
                id="path43327" />
            <path d="m 924.03949,205.30724 v -1.23047 h 6.67383 v 1.23047 z" id="path43329" />
            <path
                d="m 935.45941,207.80333 h -1.64648 v -6.20508 q -0.90235,0.84375 -2.12696,1.24805 v -1.49414 q 0.64454,-0.21094 1.40039,-0.79688 0.75586,-0.59179 1.03711,-1.37695 h 1.33594 z"
                id="path43331" />
            <path
                d="m 943.4809,206.27403 v 1.5293 h -5.77149 q 0.0937,-0.86719 0.5625,-1.64063 0.46875,-0.77929 1.85156,-2.0625 1.11329,-1.0371 1.36524,-1.40625 0.33984,-0.50976 0.33984,-1.00781 0,-0.55078 -0.29883,-0.84375 -0.29296,-0.29883 -0.81445,-0.29883 -0.51562,0 -0.82031,0.31055 -0.30469,0.31055 -0.35156,1.03125 l -1.64063,-0.16406 q 0.14649,-1.35938 0.91992,-1.95117 0.77344,-0.5918 1.9336,-0.5918 1.27148,0 1.99804,0.68555 0.72657,0.68554 0.72657,1.70507 0,0.58008 -0.21094,1.10743 -0.20508,0.52148 -0.65625,1.0957 -0.29883,0.38086 -1.07813,1.0957 -0.77929,0.71485 -0.99023,0.94922 -0.20508,0.23438 -0.33399,0.45703 z"
                id="path43333" />
        </g>
    </g>
    <g id="g35106" class="tkk">
        <path
            class="cls-13"
            d="m 283.98111,310.06334 a 690.37,690.37 0 0 0 179.3,24.7 692.74,692.74 0 0 0 189.3,-25.3"
            id="path140"
            inkscape:connector-curvature="0"
            style="fill: none; stroke: #000000; stroke-width: 0.40000001px; stroke-miterlimit: 10" />
    </g>
    <g id="g36576" class="tkk">
        <g
            aria-label="œ"
            id="text108"
            style="font-size: 13.5px; font-family: Maestro, Maestro; isolation: isolate"
            class="cls-5">
            <path
                d="m 726.33914,278.67683 q 0.135,-0.3645 0.405,-0.675 0.2835,-0.3105 0.648,-0.54 0.3645,-0.243 0.783,-0.3645 0.4185,-0.135 0.8505,-0.135 0.432,0 0.756,0.1485 0.324,0.135 0.513,0.378 0.189,0.2295 0.2295,0.5535 0.054,0.3105 -0.081,0.675 -0.135,0.3645 -0.4185,0.675 -0.2835,0.324 -0.648,0.5535 -0.3645,0.243 -0.7965,0.3645 -0.4185,0.135 -0.837,0.135 -0.432,0 -0.756,-0.1485 -0.3105,-0.135 -0.513,-0.378 -0.189,-0.243 -0.2295,-0.567 -0.0405,-0.3105 0.0945,-0.675 z"
                id="path43429" />
        </g>
        <g
            aria-label="#"
            id="text150"
            style="font-size: 13.5px; font-family: Maestro, Maestro; isolation: isolate"
            class="cls-5">
            <path
                d="m 722.84309,277.82633 v 2.0115 l 1.323,-0.432 v -2.0115 z m -0.3915,-1.269 v -2.2005 h 0.3915 v 2.0655 l 1.323,-0.432 v -1.971 h 0.3915 v 1.8495 l 0.5265,-0.1755 v 1.404 l -0.5265,0.1755 v 1.998 l 0.5265,-0.162 v 1.3905 l -0.5265,0.1755 v 2.2005 h -0.3915 v -2.079 l -1.323,0.432 v 1.998 h -0.3915 v -1.863 l -0.5805,0.189 v -1.404 l 0.5805,-0.189 v -2.0115 l -0.5805,0.189 v -1.3905 z"
                id="path43314" />
        </g>
    </g>
    <g
        aria-label="13"
        id="text152"
        style="
            font-style: italic;
            font-size: 6.75px;
            font-family: Arial-ItalicMT, Arial;
            isolation: isolate;
            fill: #7d7d7d;
        "
        class="cls-2">
        <path
            d="m 633.60602,141.08974 0.76465,-3.64856 q -0.49439,0.38891 -1.39087,0.62292 l 0.11206,-0.54053 q 0.44494,-0.17797 0.87671,-0.46472 0.43506,-0.28674 0.65258,-0.50097 0.13184,-0.13184 0.25049,-0.31971 h 0.34607 l -1.01184,4.85157 z"
            id="path43309" />
        <path
            d="m 636.10431,139.82411 0.58008,-0.0725 q 0.0659,0.50757 0.29004,0.7284 0.22741,0.21753 0.59326,0.21753 0.44165,0 0.76135,-0.31641 0.323,-0.31641 0.323,-0.7251 0,-0.35596 -0.2406,-0.58667 -0.2406,-0.23401 -0.646,-0.23401 -0.0461,0 -0.19116,0.0132 l 0.10217,-0.49768 q 0.0857,0.0132 0.1648,0.0132 0.51086,0 0.78442,-0.24719 0.27686,-0.25049 0.27686,-0.61304 0,-0.33289 -0.22742,-0.5603 -0.22412,-0.22742 -0.55042,-0.22742 -0.3197,0 -0.57678,0.23401 -0.25378,0.23071 -0.32629,0.65588 l -0.58667,-0.11865 q 0.14502,-0.59656 0.55701,-0.92285 0.41198,-0.3263 0.97558,-0.3263 0.59326,0 0.95911,0.35926 0.36914,0.35925 0.36914,0.8833 0,0.38232 -0.20105,0.66907 -0.19776,0.28344 -0.59656,0.47131 0.28345,0.16809 0.42188,0.40539 0.14172,0.23731 0.14172,0.54383 0,0.64929 -0.48779,1.1272 -0.4845,0.4746 -1.16016,0.4746 -0.65588,0 -1.06128,-0.36584 -0.4021,-0.36914 -0.44824,-0.98218 z"
            id="path43311" />
    </g>
    <g id="g2072" transform="translate(-63.315874,30.148187)">
        <g
            aria-label="?"
            id="text944-1"
            style="
                font-style: italic;
                font-size: 10.13px;
                font-family: Maestro, Maestro;
                isolation: isolate;
                fill: #7d7d7d;
            "
            class="cls-10">
            <path
                d="m 689.11224,254.55921 q -0.0912,0.17221 -0.18234,0.31403 -0.081,0.14182 -0.17221,0.27351 -0.0912,0.13169 -0.19247,0.25325 -0.1013,0.13169 -0.23299,0.28364 -0.13169,0.15195 -0.25325,0.27351 -0.11143,0.12156 -0.23299,0.23299 -0.11143,0.11143 -0.24312,0.21273 -0.13169,0.11143 -0.29377,0.23299 -0.2026,0.15195 -0.38494,0.26338 -0.17221,0.11143 -0.35455,0.2026 -0.17221,0.0912 -0.36468,0.16208 -0.19247,0.081 -0.42546,0.17221 -0.23299,0.0912 -0.51663,0.16208 -0.27351,0.081 -0.52676,0.13169 -0.29377,0.0608 -0.58754,0.11143 l -0.0709,-0.15195 q 0.47611,-0.16208 0.95222,-0.37481 0.39507,-0.18234 0.83066,-0.44572 0.44572,-0.25325 0.76988,-0.58754 0.82053,-0.87118 1.24599,-1.9247 0.42546,-1.04339 0.4052,-2.38055 0,-0.3039 -0.0709,-0.69897 -0.0608,-0.39507 -0.23299,-0.74962 -0.16208,-0.35455 -0.46598,-0.6078 -0.29377,-0.25325 -0.76988,-0.25325 -0.27351,0 -0.58754,0.11143 -0.3039,0.11143 -0.55715,0.3039 -0.25325,0.18234 -0.41533,0.44572 -0.16208,0.25325 -0.13169,0.54702 0.0101,0.0405 0.0608,0.0304 0.0608,-0.0203 0.16208,-0.0507 0.11143,-0.0304 0.26338,-0.0608 0.16208,-0.0304 0.37481,-0.0203 0.22286,0.0101 0.38494,0.14182 0.16208,0.12156 0.26338,0.31403 0.1013,0.19247 0.13169,0.42546 0.0304,0.22286 -0.0203,0.43559 -0.081,0.33429 -0.3039,0.52676 -0.21273,0.2026 -0.59767,0.2026 -0.24312,0 -0.47611,-0.0912 -0.22286,-0.081 -0.39507,-0.24312 -0.17221,-0.15195 -0.28364,-0.38494 -0.1013,-0.22286 -0.1013,-0.51663 -0.0101,-0.43559 0.0912,-0.76988 0.11143,-0.33429 0.26338,-0.57741 0.16208,-0.24312 0.33429,-0.39507 0.18234,-0.16208 0.33429,-0.25325 0.37481,-0.23299 0.75975,-0.31403 0.38494,-0.0912 0.72936,-0.1013 0.38494,0 0.76988,0.13169 0.39507,0.12156 0.73949,0.36468 0.34442,0.23299 0.61793,0.56728 0.27351,0.32416 0.41533,0.72936 0.17221,0.45585 0.17221,0.96235 0.0101,0.51663 -0.12156,1.1143 -0.0405,0.2026 -0.0912,0.36468 -0.0507,0.16208 -0.11143,0.31403 -0.0608,0.15195 -0.14182,0.3039 -0.0709,0.15195 -0.16208,0.33429 z m 1.02313,-3.90005 q -0.0101,-0.23299 0.15195,-0.38494 0.16208,-0.16208 0.39507,-0.16208 0.23299,-0.0101 0.39507,0.14182 0.17221,0.15195 0.17221,0.38494 0.0101,0.23299 -0.15195,0.4052 -0.16208,0.16208 -0.39507,0.16208 -0.23299,0.0101 -0.4052,-0.15195 -0.16208,-0.16208 -0.16208,-0.39507 z m 0,2.55276 q 0,-0.23299 0.16208,-0.38494 0.16208,-0.15195 0.39507,-0.16208 0.23299,0 0.39507,0.14182 0.17221,0.15195 0.17221,0.38494 0.0101,0.23299 -0.15195,0.39507 -0.16208,0.17221 -0.39507,0.17221 -0.23299,0.0101 -0.4052,-0.15195 -0.16208,-0.16208 -0.17221,-0.39507 z"
                style="font-style: normal; -inkscape-font-specification: 'Maestro, Maestro'"
                id="path43306" />
        </g>
        <path
            style="letter-spacing: 0em; fill: none; stroke: #7d7d7d; stroke-width: 0.40000001px; stroke-opacity: 1"
            id="path1208"
            d="m 684.89698,247.61515 h -1.4 v 12.4 h 1.4"
            class="cls-17"
            inkscape:connector-curvature="0" />
        <path
            style="letter-spacing: 0em; fill: none; stroke: #7d7d7d; stroke-width: 0.40000001px; stroke-opacity: 1"
            id="path1210"
            d="m 690.99698,247.61515 h 1.4 v 12.4 h -1.4"
            class="cls-17"
            inkscape:connector-curvature="0" />
    </g>
    <g transform="translate(-63.315874,-10.551813)" id="g986">
        <g
            aria-label="?"
            id="text980"
            style="
                font-style: italic;
                font-size: 10.13px;
                font-family: Maestro, Maestro;
                isolation: isolate;
                fill: #7d7d7d;
            "
            class="cls-10">
            <path
                d="m 689.11224,254.55921 q -0.0912,0.17221 -0.18234,0.31403 -0.081,0.14182 -0.17221,0.27351 -0.0912,0.13169 -0.19247,0.25325 -0.1013,0.13169 -0.23299,0.28364 -0.13169,0.15195 -0.25325,0.27351 -0.11143,0.12156 -0.23299,0.23299 -0.11143,0.11143 -0.24312,0.21273 -0.13169,0.11143 -0.29377,0.23299 -0.2026,0.15195 -0.38494,0.26338 -0.17221,0.11143 -0.35455,0.2026 -0.17221,0.0912 -0.36468,0.16208 -0.19247,0.081 -0.42546,0.17221 -0.23299,0.0912 -0.51663,0.16208 -0.27351,0.081 -0.52676,0.13169 -0.29377,0.0608 -0.58754,0.11143 l -0.0709,-0.15195 q 0.47611,-0.16208 0.95222,-0.37481 0.39507,-0.18234 0.83066,-0.44572 0.44572,-0.25325 0.76988,-0.58754 0.82053,-0.87118 1.24599,-1.9247 0.42546,-1.04339 0.4052,-2.38055 0,-0.3039 -0.0709,-0.69897 -0.0608,-0.39507 -0.23299,-0.74962 -0.16208,-0.35455 -0.46598,-0.6078 -0.29377,-0.25325 -0.76988,-0.25325 -0.27351,0 -0.58754,0.11143 -0.3039,0.11143 -0.55715,0.3039 -0.25325,0.18234 -0.41533,0.44572 -0.16208,0.25325 -0.13169,0.54702 0.0101,0.0405 0.0608,0.0304 0.0608,-0.0203 0.16208,-0.0507 0.11143,-0.0304 0.26338,-0.0608 0.16208,-0.0304 0.37481,-0.0203 0.22286,0.0101 0.38494,0.14182 0.16208,0.12156 0.26338,0.31403 0.1013,0.19247 0.13169,0.42546 0.0304,0.22286 -0.0203,0.43559 -0.081,0.33429 -0.3039,0.52676 -0.21273,0.2026 -0.59767,0.2026 -0.24312,0 -0.47611,-0.0912 -0.22286,-0.081 -0.39507,-0.24312 -0.17221,-0.15195 -0.28364,-0.38494 -0.1013,-0.22286 -0.1013,-0.51663 -0.0101,-0.43559 0.0912,-0.76988 0.11143,-0.33429 0.26338,-0.57741 0.16208,-0.24312 0.33429,-0.39507 0.18234,-0.16208 0.33429,-0.25325 0.37481,-0.23299 0.75975,-0.31403 0.38494,-0.0912 0.72936,-0.1013 0.38494,0 0.76988,0.13169 0.39507,0.12156 0.73949,0.36468 0.34442,0.23299 0.61793,0.56728 0.27351,0.32416 0.41533,0.72936 0.17221,0.45585 0.17221,0.96235 0.0101,0.51663 -0.12156,1.1143 -0.0405,0.2026 -0.0912,0.36468 -0.0507,0.16208 -0.11143,0.31403 -0.0608,0.15195 -0.14182,0.3039 -0.0709,0.15195 -0.16208,0.33429 z m 1.02313,-3.90005 q -0.0101,-0.23299 0.15195,-0.38494 0.16208,-0.16208 0.39507,-0.16208 0.23299,-0.0101 0.39507,0.14182 0.17221,0.15195 0.17221,0.38494 0.0101,0.23299 -0.15195,0.4052 -0.16208,0.16208 -0.39507,0.16208 -0.23299,0.0101 -0.4052,-0.15195 -0.16208,-0.16208 -0.16208,-0.39507 z m 0,2.55276 q 0,-0.23299 0.16208,-0.38494 0.16208,-0.15195 0.39507,-0.16208 0.23299,0 0.39507,0.14182 0.17221,0.15195 0.17221,0.38494 0.0101,0.23299 -0.15195,0.39507 -0.16208,0.17221 -0.39507,0.17221 -0.23299,0.0101 -0.4052,-0.15195 -0.16208,-0.16208 -0.17221,-0.39507 z"
                style="font-style: normal; -inkscape-font-specification: 'Maestro, Maestro'"
                id="path43303" />
        </g>
        <path
            inkscape:connector-curvature="0"
            class="cls-17"
            d="m 684.89698,247.61515 h -1.4 v 12.4 h 1.4"
            id="path982"
            style="letter-spacing: 0em; fill: none; stroke: #7d7d7d; stroke-width: 0.40000001px; stroke-opacity: 1" />
        <path
            inkscape:connector-curvature="0"
            class="cls-17"
            d="m 690.99698,247.61515 h 1.4 v 12.4 h -1.4"
            id="path984"
            style="letter-spacing: 0em; fill: none; stroke: #7d7d7d; stroke-width: 0.40000001px; stroke-opacity: 1" />
    </g>
</svg>
