<?xml version="1.0" encoding="utf-8"?>
<!-- Generator: Adobe Illustrator 22.1.0, SVG Export Plug-In . SVG Version: 6.00 Build 0)  -->
<svg version="1.1" id="Ebene_1" xmlns="http://www.w3.org/2000/svg" xmlns:xlink="http://www.w3.org/1999/xlink" x="0px" y="0px"
	 viewBox="0 0 1021 595" style="enable-background:new 0 0 1021 595;" xml:space="preserve">
<style type="text/css">
	.st0{enable-background:new    ;}
	.st1{fill:none;stroke:#000000;stroke-width:0.4;}
	.st2{fill:none;stroke:#000000;stroke-width:0.49;}
	.st3{fill:#FFFFFF;stroke:#000000;stroke-width:0.4;stroke-miterlimit:10;}
	.st4{fill:none;stroke:#000000;stroke-width:0.56;}
	.st5{fill:none;stroke:#000000;stroke-width:0.25;}
	.st6{fill:none;stroke:#000000;stroke-width:0.4;stroke-miterlimit:10;}
</style>
<g class="st0">
	<path d="M94.6,180.7c-0.3,0-0.5,0.1-0.8,0.1c-0.3,0-0.6,0-0.8,0s-0.5-0.1-0.7-0.1c-0.2,0-0.4-0.1-0.6-0.2c-0.7-0.3-1.3-0.7-1.7-1.1
		c-0.4-0.4-0.8-0.8-1-1.2c-0.2-0.4-0.4-0.8-0.5-1.2c-0.1-0.4-0.2-0.9-0.2-1.3c0-0.5,0-0.9,0.1-1.4c0.1-0.5,0.3-0.9,0.5-1.3
		c0.2-0.4,0.5-0.8,0.7-1.2c0.3-0.4,0.6-0.7,0.8-0.9c0.3-0.3,0.7-0.6,1-0.9s0.7-0.6,1.2-0.9c0-0.1,0-0.2,0-0.3c0-0.1,0-0.2,0-0.3
		c0-0.1,0-0.2-0.1-0.3c0-0.1,0-0.3,0-0.4c0-0.1,0-0.2,0-0.4c0-0.2,0-0.4,0-0.7c0-0.3,0-0.6,0-0.9c0-0.4,0.1-0.7,0.1-1.1
		c0-0.2,0.1-0.5,0.3-0.9c0.1-0.3,0.3-0.7,0.5-1c0.2-0.3,0.4-0.6,0.6-0.8c0.2-0.2,0.4-0.4,0.6-0.4c0.1,0,0.2,0.1,0.3,0.2
		c0.1,0.1,0.2,0.3,0.3,0.5c0.1,0.2,0.2,0.4,0.3,0.7c0.1,0.3,0.2,0.5,0.3,0.8c0.1,0.3,0.1,0.5,0.2,0.8c0,0.3,0.1,0.5,0.1,0.7
		c0,0.5,0,0.9-0.1,1.2c0,0.4-0.1,0.7-0.2,1c-0.1,0.3-0.2,0.5-0.3,0.8s-0.2,0.5-0.4,0.7c-0.1,0.2-0.3,0.5-0.4,0.6
		c-0.1,0.2-0.3,0.4-0.5,0.6c-0.2,0.2-0.3,0.4-0.5,0.5c-0.2,0.1-0.3,0.3-0.5,0.4c0.1,0.5,0.2,0.9,0.2,1.2c0,0.2,0.1,0.3,0.1,0.5
		c0,0.2,0,0.3,0.1,0.4s0,0.2,0.1,0.3c0,0.1,0,0.1,0,0.2c0.2,0,0.4,0,0.7,0s0.4,0.1,0.7,0.1c0.2,0,0.4,0.1,0.6,0.2s0.3,0.1,0.4,0.2
		c0.5,0.4,0.8,0.8,1,1.2c0.2,0.5,0.3,0.9,0.4,1.4c0,0.4,0,0.8-0.1,1.1c-0.1,0.4-0.2,0.7-0.5,1.1c-0.2,0.3-0.5,0.7-0.8,1
		s-0.7,0.5-1.2,0.7c0.1,0.4,0.1,0.7,0.1,1c0,0.3,0.1,0.5,0.1,0.8c0,0.3,0.1,0.4,0.1,0.5c0.1,0.5,0.1,1,0.1,1.3
		c0,0.3-0.1,0.6-0.2,0.8c-0.1,0.2-0.2,0.4-0.3,0.5c-0.1,0.2-0.3,0.3-0.5,0.5c-0.2,0.1-0.4,0.2-0.6,0.3c-0.2,0.1-0.5,0.1-0.8,0.2
		c-0.2,0-0.5,0-0.8-0.1c-0.3-0.1-0.6-0.2-0.9-0.3c-0.3-0.1-0.6-0.3-0.8-0.6c-0.2-0.3-0.3-0.6-0.4-0.9c0-0.2,0-0.4,0-0.7
		s0.1-0.4,0.2-0.6c0.1-0.2,0.3-0.3,0.4-0.4s0.4-0.2,0.7-0.2c0.2,0,0.3,0,0.5,0.1s0.3,0.1,0.5,0.2c0.1,0.1,0.3,0.2,0.4,0.4
		c0.1,0.2,0.1,0.3,0.2,0.5c0,0.3-0.1,0.7-0.3,1c-0.2,0.3-0.6,0.5-1.2,0.7c0.1,0.1,0.3,0.2,0.5,0.4s0.6,0.2,0.9,0.2
		c0.4,0,0.8-0.1,1.1-0.4c0.4-0.2,0.6-0.5,0.8-0.9c0.1-0.2,0.2-0.5,0.2-0.9c0-0.4,0-0.7-0.1-1.1c0-0.1,0-0.2-0.1-0.5
		c0-0.2-0.1-0.5-0.1-0.8C94.7,181.5,94.7,181.1,94.6,180.7z M92.8,175.7c-0.2,0.1-0.4,0.3-0.6,0.5c-0.1,0.2-0.2,0.4-0.3,0.6
		s-0.1,0.4-0.1,0.6c0,0.2,0,0.3,0.1,0.5s0.1,0.3,0.2,0.5s0.2,0.3,0.3,0.4c0.1,0.1,0.2,0.2,0.4,0.3c0,0,0,0,0,0s0,0,0,0s0,0,0,0.1
		c-0.3-0.1-0.5-0.3-0.7-0.5c-0.2-0.2-0.3-0.3-0.4-0.4c-0.1-0.1-0.2-0.3-0.3-0.4c-0.1-0.1-0.1-0.2-0.2-0.3c0-0.1-0.1-0.3-0.1-0.4
		c0-0.1-0.1-0.3-0.1-0.5c0-0.2,0-0.4,0-0.6c0-0.2,0.1-0.4,0.2-0.6s0.2-0.4,0.4-0.6c0.2-0.2,0.4-0.4,0.6-0.6c0.1-0.1,0.2-0.2,0.3-0.2
		c0.1-0.1,0.2-0.1,0.3-0.1c0.1,0,0.2-0.1,0.2-0.1c0.1,0,0.2,0,0.3-0.1l-0.4-2.4c-0.1,0.1-0.3,0.2-0.5,0.4c-0.2,0.2-0.5,0.4-0.8,0.7
		c-0.3,0.3-0.6,0.5-0.9,0.8s-0.5,0.6-0.7,0.9c-0.3,0.5-0.6,1-0.8,1.4c-0.2,0.4-0.2,0.9-0.2,1.4c0,0.6,0.2,1.1,0.5,1.6
		c0.3,0.5,0.7,0.9,1.2,1.2c0.5,0.3,1,0.6,1.7,0.7c0.6,0.1,1.3,0.1,1.9,0c-0.1-0.9-0.3-1.7-0.4-2.4c-0.1-0.3-0.1-0.6-0.1-0.9
		c0-0.3-0.1-0.5-0.1-0.8c0-0.2-0.1-0.5-0.1-0.8C93.4,175.5,93.1,175.6,92.8,175.7z M94.9,163.6c-0.4,0-0.7,0.2-0.9,0.5
		c-0.3,0.3-0.5,0.7-0.6,1.2c-0.2,0.5-0.3,1.1-0.3,1.7c-0.1,0.6,0,1.2,0,1.7c0.3-0.2,0.6-0.5,0.9-0.8c0.3-0.3,0.6-0.7,0.9-1
		c0.3-0.4,0.5-0.7,0.6-1.1s0.2-0.7,0.2-1.1c0-0.1,0-0.2-0.1-0.4s-0.1-0.3-0.1-0.4c-0.1-0.1-0.1-0.2-0.2-0.3
		C95.2,163.7,95,163.6,94.9,163.6z M94.9,180.2c0.4-0.1,0.7-0.3,0.9-0.5c0.2-0.2,0.4-0.5,0.5-0.7s0.2-0.5,0.2-0.8c0-0.3,0-0.5,0-0.7
		c0-0.2-0.1-0.4-0.1-0.6c-0.1-0.2-0.2-0.5-0.3-0.7c-0.2-0.2-0.4-0.4-0.7-0.6s-0.7-0.2-1.2-0.2L94.9,180.2z"/>
</g>
<g class="st0">
	<path d="M94.6,221.2c-0.3,0-0.5,0.1-0.8,0.1c-0.3,0-0.6,0-0.8,0s-0.5-0.1-0.7-0.1c-0.2,0-0.4-0.1-0.6-0.2c-0.7-0.3-1.3-0.7-1.7-1.1
		c-0.4-0.4-0.8-0.8-1-1.2c-0.2-0.4-0.4-0.8-0.5-1.2c-0.1-0.4-0.2-0.9-0.2-1.3c0-0.5,0-0.9,0.1-1.4c0.1-0.5,0.3-0.9,0.5-1.3
		c0.2-0.4,0.5-0.8,0.7-1.2c0.3-0.4,0.6-0.7,0.8-0.9c0.3-0.3,0.7-0.6,1-0.9s0.7-0.6,1.2-0.9c0-0.1,0-0.2,0-0.3c0-0.1,0-0.2,0-0.3
		c0-0.1,0-0.2-0.1-0.3c0-0.1,0-0.3,0-0.4c0-0.1,0-0.2,0-0.4c0-0.2,0-0.4,0-0.7c0-0.3,0-0.6,0-0.9c0-0.4,0.1-0.7,0.1-1.1
		c0-0.2,0.1-0.5,0.3-0.9c0.1-0.3,0.3-0.7,0.5-1c0.2-0.3,0.4-0.6,0.6-0.8c0.2-0.2,0.4-0.4,0.6-0.4c0.1,0,0.2,0.1,0.3,0.2
		c0.1,0.1,0.2,0.3,0.3,0.5c0.1,0.2,0.2,0.4,0.3,0.7c0.1,0.3,0.2,0.5,0.3,0.8c0.1,0.3,0.1,0.5,0.2,0.8c0,0.3,0.1,0.5,0.1,0.7
		c0,0.5,0,0.9-0.1,1.2c0,0.4-0.1,0.7-0.2,1c-0.1,0.3-0.2,0.5-0.3,0.8s-0.2,0.5-0.4,0.7c-0.1,0.2-0.3,0.5-0.4,0.6
		c-0.1,0.2-0.3,0.4-0.5,0.6c-0.2,0.2-0.3,0.4-0.5,0.5c-0.2,0.1-0.3,0.3-0.5,0.4c0.1,0.5,0.2,0.9,0.2,1.2c0,0.2,0.1,0.3,0.1,0.5
		c0,0.2,0,0.3,0.1,0.4s0,0.2,0.1,0.3c0,0.1,0,0.1,0,0.2c0.2,0,0.4,0,0.7,0s0.4,0.1,0.7,0.1c0.2,0,0.4,0.1,0.6,0.2s0.3,0.1,0.4,0.2
		c0.5,0.4,0.8,0.8,1,1.2c0.2,0.5,0.3,0.9,0.4,1.4c0,0.4,0,0.8-0.1,1.1c-0.1,0.4-0.2,0.7-0.5,1.1c-0.2,0.3-0.5,0.7-0.8,1
		s-0.7,0.5-1.2,0.7c0.1,0.4,0.1,0.7,0.1,1c0,0.3,0.1,0.5,0.1,0.8c0,0.3,0.1,0.4,0.1,0.5c0.1,0.5,0.1,1,0.1,1.3
		c0,0.3-0.1,0.6-0.2,0.8c-0.1,0.2-0.2,0.4-0.3,0.5c-0.1,0.2-0.3,0.3-0.5,0.5c-0.2,0.1-0.4,0.2-0.6,0.3c-0.2,0.1-0.5,0.1-0.8,0.2
		c-0.2,0-0.5,0-0.8-0.1c-0.3-0.1-0.6-0.2-0.9-0.3c-0.3-0.1-0.6-0.3-0.8-0.6c-0.2-0.3-0.3-0.6-0.4-0.9c0-0.2,0-0.4,0-0.7
		s0.1-0.4,0.2-0.6c0.1-0.2,0.3-0.3,0.4-0.4s0.4-0.2,0.7-0.2c0.2,0,0.3,0,0.5,0.1s0.3,0.1,0.5,0.2c0.1,0.1,0.3,0.2,0.4,0.4
		c0.1,0.2,0.1,0.3,0.2,0.5c0,0.3-0.1,0.7-0.3,1c-0.2,0.3-0.6,0.5-1.2,0.7c0.1,0.1,0.3,0.2,0.5,0.4s0.6,0.2,0.9,0.2
		c0.4,0,0.8-0.1,1.1-0.4c0.4-0.2,0.6-0.5,0.8-0.9c0.1-0.2,0.2-0.5,0.2-0.9c0-0.4,0-0.7-0.1-1.1c0-0.1,0-0.2-0.1-0.5
		c0-0.2-0.1-0.5-0.1-0.8C94.7,222,94.7,221.6,94.6,221.2z M92.8,216.2c-0.2,0.1-0.4,0.3-0.6,0.5c-0.1,0.2-0.2,0.4-0.3,0.6
		s-0.1,0.4-0.1,0.6c0,0.2,0,0.3,0.1,0.5s0.1,0.3,0.2,0.5s0.2,0.3,0.3,0.4c0.1,0.1,0.2,0.2,0.4,0.3c0,0,0,0,0,0s0,0,0,0s0,0,0,0.1
		c-0.3-0.1-0.5-0.3-0.7-0.5c-0.2-0.2-0.3-0.3-0.4-0.4c-0.1-0.1-0.2-0.3-0.3-0.4c-0.1-0.1-0.1-0.2-0.2-0.3c0-0.1-0.1-0.3-0.1-0.4
		c0-0.1-0.1-0.3-0.1-0.5c0-0.2,0-0.4,0-0.6c0-0.2,0.1-0.4,0.2-0.6s0.2-0.4,0.4-0.6c0.2-0.2,0.4-0.4,0.6-0.6c0.1-0.1,0.2-0.2,0.3-0.2
		c0.1-0.1,0.2-0.1,0.3-0.1c0.1,0,0.2-0.1,0.2-0.1c0.1,0,0.2,0,0.3-0.1l-0.4-2.4c-0.1,0.1-0.3,0.2-0.5,0.4c-0.2,0.2-0.5,0.4-0.8,0.7
		c-0.3,0.3-0.6,0.5-0.9,0.8s-0.5,0.6-0.7,0.9c-0.3,0.5-0.6,1-0.8,1.4c-0.2,0.4-0.2,0.9-0.2,1.4c0,0.6,0.2,1.1,0.5,1.6
		c0.3,0.5,0.7,0.9,1.2,1.2c0.5,0.3,1,0.6,1.7,0.7c0.6,0.1,1.3,0.1,1.9,0c-0.1-0.9-0.3-1.7-0.4-2.4c-0.1-0.3-0.1-0.6-0.1-0.9
		c0-0.3-0.1-0.5-0.1-0.8c0-0.2-0.1-0.5-0.1-0.8C93.4,216,93.1,216.1,92.8,216.2z M94.9,204.1c-0.4,0-0.7,0.2-0.9,0.5
		c-0.3,0.3-0.5,0.7-0.6,1.2c-0.2,0.5-0.3,1.1-0.3,1.7c-0.1,0.6,0,1.2,0,1.7c0.3-0.2,0.6-0.5,0.9-0.8c0.3-0.3,0.6-0.7,0.9-1
		c0.3-0.4,0.5-0.7,0.6-1.1s0.2-0.7,0.2-1.1c0-0.1,0-0.2-0.1-0.4s-0.1-0.3-0.1-0.4c-0.1-0.1-0.1-0.2-0.2-0.3
		C95.2,204.2,95,204.1,94.9,204.1z M94.9,220.7c0.4-0.1,0.7-0.3,0.9-0.5c0.2-0.2,0.4-0.5,0.5-0.7s0.2-0.5,0.2-0.8c0-0.3,0-0.5,0-0.7
		c0-0.2-0.1-0.4-0.1-0.6c-0.1-0.2-0.2-0.5-0.3-0.7c-0.2-0.2-0.4-0.4-0.7-0.6s-0.7-0.2-1.2-0.2L94.9,220.7z"/>
</g>
<g class="st0">
	<path d="M95.1,255.1c-0.1,0.2-0.2,0.3-0.2,0.4c-0.1,0.1-0.2,0.2-0.2,0.4c-0.1,0.1-0.2,0.2-0.3,0.3s-0.2,0.2-0.3,0.4
		c-0.1,0.1-0.2,0.3-0.3,0.4c-0.1,0.1-0.2,0.2-0.3,0.3c-0.1,0.1-0.2,0.2-0.3,0.3c-0.1,0.1-0.2,0.2-0.4,0.3c-0.2,0.1-0.3,0.3-0.5,0.4
		c-0.2,0.1-0.3,0.2-0.5,0.3c-0.2,0.1-0.3,0.2-0.5,0.2s-0.4,0.1-0.6,0.2s-0.4,0.2-0.7,0.2s-0.5,0.1-0.7,0.2c-0.3,0.1-0.5,0.1-0.8,0.1
		l-0.1-0.2c0.4-0.1,0.8-0.3,1.3-0.5c0.4-0.2,0.7-0.4,1.1-0.6s0.7-0.5,1-0.8c0.7-0.8,1.3-1.6,1.7-2.6s0.6-2,0.5-3.2
		c0-0.3,0-0.6-0.1-0.9c-0.1-0.4-0.2-0.7-0.3-1c-0.1-0.3-0.4-0.6-0.6-0.8c-0.3-0.2-0.6-0.3-1-0.3c-0.2,0-0.5,0-0.8,0.1
		c-0.3,0.1-0.5,0.2-0.7,0.4c-0.2,0.2-0.4,0.4-0.6,0.6c-0.1,0.2-0.2,0.5-0.2,0.7c0,0,0,0,0.1,0s0.1,0,0.2-0.1c0.1,0,0.2-0.1,0.4-0.1
		c0.1,0,0.3,0,0.5,0c0.2,0,0.4,0.1,0.5,0.2s0.3,0.3,0.4,0.4s0.1,0.4,0.2,0.6c0,0.2,0,0.4,0,0.6c-0.1,0.3-0.2,0.5-0.4,0.7
		c-0.2,0.2-0.5,0.3-0.8,0.3c-0.2,0-0.4,0-0.6-0.1s-0.4-0.2-0.5-0.3c-0.2-0.1-0.3-0.3-0.4-0.5c-0.1-0.2-0.1-0.4-0.1-0.7
		c0-0.4,0-0.7,0.1-1c0.1-0.3,0.2-0.6,0.4-0.8c0.1-0.2,0.3-0.4,0.4-0.5c0.2-0.1,0.3-0.2,0.4-0.3c0.3-0.2,0.7-0.3,1-0.4
		c0.3-0.1,0.7-0.1,1-0.1c0.3,0,0.7,0.1,1,0.2c0.3,0.1,0.7,0.3,1,0.5c0.3,0.2,0.6,0.5,0.8,0.8c0.2,0.3,0.4,0.6,0.6,1
		c0.2,0.4,0.2,0.8,0.2,1.3s-0.1,0.9-0.2,1.5c0,0.2-0.1,0.3-0.1,0.5c0,0.1-0.1,0.3-0.1,0.4c-0.1,0.1-0.1,0.3-0.2,0.4
		C95.2,254.8,95.2,255,95.1,255.1z M96.5,249.9c0-0.2,0.1-0.4,0.2-0.5c0.1-0.1,0.3-0.2,0.5-0.2c0.2,0,0.4,0.1,0.5,0.2
		c0.1,0.1,0.2,0.3,0.2,0.5c0,0.2-0.1,0.4-0.2,0.5s-0.3,0.2-0.5,0.2c-0.2,0-0.4-0.1-0.5-0.2C96.5,250.3,96.5,250.1,96.5,249.9z
		 M96.5,253.3c0-0.2,0.1-0.4,0.2-0.5s0.3-0.2,0.5-0.2c0.2,0,0.4,0.1,0.5,0.2c0.1,0.1,0.2,0.3,0.2,0.5c0,0.2-0.1,0.4-0.2,0.5
		s-0.3,0.2-0.5,0.2c-0.2,0-0.4-0.1-0.5-0.2C96.5,253.7,96.5,253.5,96.5,253.3z"/>
</g>
<line class="st1" x1="84.9" y1="126.7" x2="935.4" y2="126.7"/>
<line class="st1" x1="84.9" y1="130.1" x2="935.4" y2="130.1"/>
<line class="st1" x1="84.9" y1="133.5" x2="935.4" y2="133.5"/>
<line class="st1" x1="84.9" y1="136.8" x2="935.4" y2="136.8"/>
<line class="st1" x1="84.9" y1="140.2" x2="935.4" y2="140.2"/>
<line class="st1" x1="84.9" y1="167.2" x2="935.4" y2="167.2"/>
<line class="st1" x1="84.9" y1="170.6" x2="935.4" y2="170.6"/>
<line class="st1" x1="84.9" y1="174" x2="935.4" y2="174"/>
<line class="st1" x1="84.9" y1="177.3" x2="935.4" y2="177.3"/>
<line class="st1" x1="84.9" y1="180.7" x2="935.4" y2="180.7"/>
<line class="st1" x1="84.9" y1="207.7" x2="935.4" y2="207.7"/>
<line class="st1" x1="84.9" y1="211.1" x2="935.4" y2="211.1"/>
<line class="st1" x1="84.9" y1="214.5" x2="935.4" y2="214.5"/>
<line class="st1" x1="84.9" y1="217.8" x2="935.4" y2="217.8"/>
<line class="st1" x1="84.9" y1="221.2" x2="935.4" y2="221.2"/>
<line class="st1" x1="84.9" y1="248.2" x2="935.4" y2="248.2"/>
<line class="st1" x1="84.9" y1="251.6" x2="935.4" y2="251.6"/>
<line class="st1" x1="84.9" y1="255" x2="935.4" y2="255"/>
<line class="st1" x1="84.9" y1="258.3" x2="935.4" y2="258.3"/>
<line class="st1" x1="84.9" y1="261.7" x2="935.4" y2="261.7"/>
<path d="M83.2,207.7c-7.2,11.5,3.1,21.9-3.7,27h0.3c8.2-6.8-1.9-15.5,3.4-26.7L83.2,207.7z"/>
<path d="M83.2,261.7c-7.2-11.5,3.1-21.9-3.7-27h0.3c8.2,6.8-1.9,15.5,3.4,26.7L83.2,261.7z"/>
<line class="st1" x1="86.3" y1="263" x2="97" y2="242.6"/>
<g class="st0">
	<path d="M77,113.2l0.1,0.5l-0.6,0.1l0.3,1.2l-0.5,0.1l-0.3-1.2l-1.8,0.4l-0.1-0.4l1.4-3.3l0.4-0.1l0.6,2.8L77,113.2z M75.9,113.4
		l-0.5-2.2l-1.1,2.5L75.9,113.4z"/>
	<path d="M78.3,113.9c0.1,0,0.2,0,0.3,0c0.1,0.1,0.1,0.1,0.2,0.2c0,0.1,0,0.2,0,0.3c-0.1,0.1-0.1,0.1-0.2,0.2c-0.1,0-0.2,0-0.3,0
		c-0.1-0.1-0.1-0.1-0.2-0.2c0-0.1,0-0.2,0-0.3C78.1,114,78.2,113.9,78.3,113.9z"/>
</g>
<g class="st0">
	<path d="M84.5,108.6l0,0.1c-0.1,0.1-0.3,0.1-0.3,0.2c-0.1,0.1-0.2,0.3-0.2,0.5l-0.7,4.1l-0.1,0l-2.5-3.4c-0.1-0.2-0.2-0.3-0.3-0.3
		c-0.1-0.1-0.1-0.1-0.2-0.1s-0.2,0-0.3,0l0-0.1l1.8-0.4l0,0.1c-0.2,0.1-0.3,0.1-0.4,0.2c0,0.1-0.1,0.1,0,0.2c0,0.1,0.1,0.3,0.3,0.5
		l1.7,2.3l0.5-2.8c0-0.3,0.1-0.5,0-0.6c0-0.1-0.1-0.1-0.1-0.2c-0.1,0-0.2-0.1-0.3-0.1c0,0,0,0-0.1,0l0-0.1L84.5,108.6z"/>
	<path d="M87.6,112.4l0,0.1l-1.9,0.4l0-0.1l0.2,0c0.2,0,0.3-0.1,0.4-0.2c0-0.1,0-0.3,0-0.5l-0.6-2.8c0-0.2-0.1-0.4-0.1-0.4
		c0,0-0.1-0.1-0.2-0.1c-0.1,0-0.2,0-0.3,0l-0.2,0l0-0.1l1.9-0.4l0,0.1l-0.2,0c-0.2,0-0.3,0.1-0.4,0.2c0,0.1,0,0.3,0,0.5l0.6,2.8
		c0,0.2,0.1,0.4,0.1,0.4c0,0,0.1,0.1,0.2,0.1c0.1,0,0.2,0,0.3,0L87.6,112.4z"/>
	<path d="M89.8,111.9l0,0.1l-1.9,0.4l0-0.1l0.2,0c0.2,0,0.3-0.1,0.4-0.2c0-0.1,0-0.3,0-0.5l-0.6-2.8c0-0.2-0.1-0.4-0.1-0.4
		c0,0-0.1-0.1-0.2-0.1c-0.1,0-0.2,0-0.3,0l-0.2,0l0-0.1l1.9-0.4l0,0.1l-0.2,0c-0.2,0-0.3,0.1-0.4,0.2c0,0.1,0,0.3,0,0.5l0.6,2.8
		c0,0.2,0.1,0.4,0.1,0.4c0,0,0.1,0.1,0.2,0.1c0.1,0,0.2,0,0.3,0L89.8,111.9z"/>
	<path d="M90.6,111.2c0.1,0,0.2,0,0.3,0c0.1,0.1,0.1,0.1,0.2,0.2c0,0.1,0,0.2,0,0.3c-0.1,0.1-0.1,0.1-0.2,0.2c-0.1,0-0.2,0-0.3,0
		s-0.1-0.1-0.2-0.2c0-0.1,0-0.2,0-0.3C90.5,111.3,90.5,111.2,90.6,111.2z"/>
	<path d="M92.8,107.6c0.1-0.3,0.2-0.6,0.3-0.8c0.2-0.2,0.4-0.3,0.7-0.4c0.4-0.1,0.6,0,0.9,0.2c0.2,0.1,0.3,0.3,0.3,0.5
		c0.1,0.3-0.1,0.7-0.4,1.1c0.3,0,0.5,0.2,0.7,0.3s0.3,0.4,0.4,0.6c0.1,0.4,0,0.7-0.1,1.1c-0.2,0.4-0.6,0.7-1.2,0.8
		c-0.3,0.1-0.5,0.1-0.6,0c-0.1,0-0.2-0.1-0.2-0.2c0-0.1,0-0.1,0-0.2c0-0.1,0.1-0.1,0.2-0.1c0.1,0,0.1,0,0.2,0c0,0,0.1,0,0.3,0.1
		c0.1,0,0.2,0.1,0.3,0.1c0.1,0,0.2,0,0.3,0c0.2,0,0.4-0.2,0.5-0.4c0.1-0.2,0.2-0.4,0.1-0.7c0-0.2-0.1-0.3-0.2-0.5
		c-0.1-0.1-0.2-0.2-0.2-0.2c-0.1-0.1-0.3-0.1-0.4-0.1c-0.2,0-0.3,0-0.5,0l-0.1,0l0-0.1c0.2-0.1,0.3-0.2,0.5-0.3
		c0.1-0.1,0.2-0.3,0.3-0.4c0-0.2,0.1-0.3,0-0.5c0-0.2-0.2-0.4-0.3-0.5c-0.2-0.1-0.4-0.1-0.6-0.1c-0.3,0.1-0.6,0.3-0.7,0.7
		L92.8,107.6z"/>
	<path d="M99.3,108.2l0.1,0.5l-0.6,0.1L99,110l-0.5,0.1l-0.3-1.2l-1.8,0.4l-0.1-0.4l1.4-3.3l0.4-0.1l0.6,2.8L99.3,108.2z
		 M98.1,108.5l-0.5-2.2l-1.1,2.5L98.1,108.5z"/>
</g>
<g class="st0">
	<path d="M51.3,78.9l1-4.8h1.5c0.3,0,0.5,0,0.6,0c0.2,0,0.4,0.1,0.5,0.2c0.1,0.1,0.3,0.2,0.3,0.4c0.1,0.2,0.1,0.3,0.1,0.5
		c0,0.3-0.1,0.5-0.2,0.7s-0.4,0.4-0.7,0.5c0.3,0.1,0.5,0.2,0.6,0.4c0.1,0.2,0.2,0.4,0.2,0.6c0,0.3-0.1,0.5-0.2,0.8s-0.4,0.4-0.6,0.6
		s-0.5,0.2-0.8,0.2H51.3z M52.1,78.4h1.1c0.3,0,0.5,0,0.6,0c0.2,0,0.4-0.1,0.5-0.2c0.1-0.1,0.2-0.2,0.3-0.3c0.1-0.1,0.1-0.3,0.1-0.4
		c0-0.2-0.1-0.4-0.2-0.5c-0.1-0.1-0.4-0.2-0.8-0.2h-1.2L52.1,78.4z M52.5,76.1h1c0.5,0,0.8-0.1,1-0.2c0.2-0.1,0.3-0.4,0.3-0.7
		c0-0.1,0-0.3-0.1-0.4c-0.1-0.1-0.1-0.2-0.3-0.2c-0.1,0-0.3-0.1-0.6-0.1h-1L52.5,76.1z"/>
	<path d="M55.7,78.9l1-4.8h0.6l-1,4.8H55.7z"/>
	<path d="M57.4,78.9l0.1-0.7h0.7l-0.1,0.7H57.4z"/>
	<path d="M61.1,77.6l0.6-0.1c0,0.3,0.1,0.6,0.3,0.7c0.2,0.1,0.3,0.2,0.6,0.2c0.3,0,0.5-0.1,0.8-0.3c0.2-0.2,0.3-0.5,0.3-0.7
		c0-0.2-0.1-0.4-0.2-0.6c-0.2-0.2-0.4-0.2-0.6-0.2c0,0-0.1,0-0.2,0l0.1-0.5c0.1,0,0.1,0,0.2,0c0.3,0,0.6-0.1,0.8-0.2
		s0.3-0.4,0.3-0.6c0-0.2-0.1-0.4-0.2-0.6c-0.2-0.2-0.3-0.2-0.6-0.2c-0.2,0-0.4,0.1-0.6,0.2c-0.2,0.2-0.3,0.4-0.3,0.7l-0.6-0.1
		c0.1-0.4,0.3-0.7,0.6-0.9c0.3-0.2,0.6-0.3,1-0.3c0.4,0,0.7,0.1,1,0.4s0.4,0.5,0.4,0.9c0,0.3-0.1,0.5-0.2,0.7
		c-0.1,0.2-0.3,0.3-0.6,0.5c0.2,0.1,0.3,0.2,0.4,0.4c0.1,0.2,0.1,0.3,0.1,0.5c0,0.4-0.2,0.8-0.5,1.1S63.1,79,62.7,79
		c-0.4,0-0.8-0.1-1.1-0.4C61.3,78.4,61.2,78.1,61.1,77.6z"/>
	<path d="M66,76.3c-0.2-0.1-0.3-0.2-0.4-0.4c-0.1-0.2-0.1-0.3-0.1-0.5c0-0.3,0.1-0.6,0.3-0.8c0.3-0.3,0.7-0.5,1.1-0.5
		c0.4,0,0.8,0.1,1,0.3c0.2,0.2,0.4,0.5,0.4,0.8c0,0.2-0.1,0.4-0.2,0.6c-0.1,0.2-0.3,0.3-0.6,0.5c0.2,0.1,0.3,0.2,0.4,0.4
		c0.1,0.2,0.2,0.4,0.2,0.6c0,0.4-0.2,0.8-0.5,1.2c-0.3,0.3-0.7,0.5-1.2,0.5c-0.4,0-0.7-0.1-1-0.4c-0.3-0.3-0.4-0.6-0.4-0.9
		c0-0.4,0.1-0.7,0.3-0.9C65.5,76.5,65.7,76.3,66,76.3z M65.6,77.7c0,0.1,0,0.3,0.1,0.4c0.1,0.1,0.2,0.2,0.3,0.3s0.3,0.1,0.5,0.1
		c0.3,0,0.6-0.2,0.8-0.5c0.2-0.2,0.2-0.5,0.2-0.8c0-0.2-0.1-0.4-0.2-0.5c-0.1-0.1-0.3-0.2-0.6-0.2c-0.3,0-0.6,0.1-0.8,0.3
		S65.6,77.4,65.6,77.7z M66.1,75.4c0,0.2,0.1,0.4,0.2,0.5c0.1,0.1,0.3,0.2,0.5,0.2c0.3,0,0.5-0.1,0.7-0.2c0.2-0.2,0.3-0.4,0.3-0.6
		c0-0.2-0.1-0.4-0.2-0.5c-0.1-0.1-0.3-0.2-0.5-0.2c-0.2,0-0.3,0-0.5,0.1c-0.1,0.1-0.3,0.2-0.3,0.3C66.1,75.1,66.1,75.3,66.1,75.4z"
		/>
</g>
<g class="st0">
	<path d="M68.9,76.7l-0.3-2h0.3l0.2,1.1c0,0.1,0,0.3,0.1,0.6c0.1-0.1,0.2-0.3,0.3-0.5l0.7-1.2h0.4l-1.2,2H68.9z"/>
</g>
<g class="st0">
	<path d="M52.6,136.8l0.8-3.6c-0.3,0.3-0.8,0.5-1.4,0.6l0.1-0.5c0.3-0.1,0.6-0.3,0.9-0.5c0.3-0.2,0.5-0.4,0.7-0.5
		c0.1-0.1,0.2-0.2,0.3-0.3h0.3l-1,4.9H52.6z"/>
</g>
<g class="st0">
	<path d="M51.4,177.3c0.1-0.3,0.1-0.5,0.3-0.7s0.3-0.4,0.4-0.6s0.5-0.5,1-0.9c0.3-0.2,0.5-0.4,0.6-0.6c0.2-0.2,0.3-0.3,0.4-0.5
		c0.1-0.1,0.1-0.2,0.1-0.4c0-0.2-0.1-0.4-0.2-0.6c-0.2-0.2-0.4-0.2-0.6-0.2c-0.2,0-0.4,0.1-0.6,0.2c-0.2,0.2-0.3,0.4-0.4,0.8
		l-0.6-0.1c0.1-0.4,0.2-0.8,0.5-1c0.3-0.2,0.6-0.4,1-0.4c0.3,0,0.5,0.1,0.7,0.2c0.2,0.1,0.4,0.3,0.5,0.5c0.1,0.2,0.2,0.4,0.2,0.6
		c0,0.3-0.1,0.6-0.3,0.9c-0.1,0.2-0.6,0.5-1.2,1.1c-0.3,0.2-0.5,0.4-0.7,0.6c-0.1,0.1-0.3,0.3-0.3,0.4h2.2l-0.1,0.5H51.4z"/>
</g>
<g class="st0">
	<path d="M51.4,216.5l0.6-0.1c0,0.3,0.1,0.6,0.3,0.7c0.2,0.1,0.3,0.2,0.6,0.2c0.3,0,0.5-0.1,0.8-0.3c0.2-0.2,0.3-0.5,0.3-0.7
		c0-0.2-0.1-0.4-0.2-0.6c-0.2-0.2-0.4-0.2-0.6-0.2c0,0-0.1,0-0.2,0l0.1-0.5c0.1,0,0.1,0,0.2,0c0.3,0,0.6-0.1,0.8-0.2
		s0.3-0.4,0.3-0.6c0-0.2-0.1-0.4-0.2-0.6c-0.2-0.2-0.3-0.2-0.6-0.2c-0.2,0-0.4,0.1-0.6,0.2c-0.2,0.2-0.3,0.4-0.3,0.7l-0.6-0.1
		c0.1-0.4,0.3-0.7,0.6-0.9c0.3-0.2,0.6-0.3,1-0.3c0.4,0,0.7,0.1,1,0.4s0.4,0.5,0.4,0.9c0,0.3-0.1,0.5-0.2,0.7
		c-0.1,0.2-0.3,0.3-0.6,0.5c0.2,0.1,0.3,0.2,0.4,0.4c0.1,0.2,0.1,0.3,0.1,0.5c0,0.4-0.2,0.8-0.5,1.1s-0.7,0.5-1.2,0.5
		c-0.4,0-0.8-0.1-1.1-0.4C51.6,217.3,51.4,216.9,51.4,216.5z"/>
</g>
<g class="st0">
	<path d="M53,258.3l0.3-1.2h-2l0.1-0.6l2.7-3h0.5l-0.6,3.1h0.7l-0.1,0.5h-0.7l-0.3,1.2H53z M53.4,256.5l0.4-2l-1.8,2H53.4z"/>
</g>
<path class="st2" d="M84.8,126.7l0.1,134.9"/>
<g class="st0">
	<path d="M136.3,109.6v-0.3c0.5-0.3,0.8-0.5,0.9-0.7c0.1-0.2,0.2-0.5,0.2-0.7c0-0.1,0-0.2-0.1-0.3c-0.1-0.1-0.1-0.1-0.2-0.1
		c0,0-0.1,0-0.2,0.1s-0.2,0.1-0.3,0.1c-0.2,0-0.4-0.1-0.5-0.2s-0.2-0.3-0.2-0.5c0-0.2,0.1-0.4,0.3-0.6s0.4-0.2,0.6-0.2
		c0.3,0,0.6,0.1,0.8,0.4s0.4,0.6,0.4,1c0,0.5-0.2,0.9-0.5,1.3S136.9,109.4,136.3,109.6z M139.6,109.6v-0.3c0.4-0.2,0.7-0.4,0.9-0.7
		c0.2-0.2,0.3-0.5,0.3-0.7c0-0.2,0-0.3-0.1-0.3c0-0.1-0.1-0.1-0.2-0.1c-0.1,0-0.1,0-0.2,0.1c-0.1,0-0.2,0.1-0.3,0.1
		c-0.2,0-0.3-0.1-0.5-0.2s-0.2-0.3-0.2-0.5c0-0.2,0.1-0.4,0.3-0.6s0.4-0.2,0.6-0.2c0.3,0,0.6,0.1,0.8,0.4c0.2,0.3,0.4,0.6,0.4,1
		c0,0.5-0.2,0.9-0.5,1.3C140.6,109.1,140.2,109.4,139.6,109.6z"/>
</g>
<g class="st0">
	<path d="M154.9,98.2v0.3c-0.2,0-0.4,0-0.6,0.1s-0.3,0.2-0.4,0.5c-0.1,0.2-0.2,0.5-0.4,1.1l-2.6,7.5h-0.3l-2.1-5.9l-2.1,5.9h-0.2
		l-2.8-7.7c-0.2-0.6-0.3-0.9-0.4-1c-0.1-0.2-0.2-0.3-0.4-0.4c-0.2-0.1-0.4-0.1-0.6-0.1v-0.3h3.4v0.3h-0.2c-0.2,0-0.4,0.1-0.6,0.2
		s-0.2,0.2-0.2,0.4c0,0.2,0.1,0.5,0.3,1.1l1.8,5.2l1.5-4.4l-0.3-0.8l-0.2-0.6c-0.1-0.2-0.2-0.4-0.3-0.6c-0.1-0.1-0.1-0.2-0.2-0.2
		c-0.1-0.1-0.2-0.1-0.3-0.2c-0.1,0-0.2,0-0.4,0v-0.3h3.6v0.3h-0.2c-0.3,0-0.4,0.1-0.6,0.2S149,98.9,149,99c0,0.2,0.1,0.6,0.3,1.2
		l1.8,5l1.8-5.1c0.2-0.6,0.3-1,0.3-1.2c0-0.1,0-0.2-0.1-0.3s-0.1-0.2-0.2-0.2c-0.2-0.1-0.4-0.1-0.7-0.1v-0.3H154.9z"/>
</g>
<g class="st0">
	<path d="M157,101v5c0,0.4,0,0.7,0.1,0.8c0.1,0.1,0.1,0.2,0.3,0.3s0.3,0.1,0.6,0.1v0.2h-3v-0.2c0.3,0,0.5,0,0.6-0.1s0.2-0.2,0.2-0.3
		s0.1-0.4,0.1-0.8v-2.4c0-0.7,0-1.1-0.1-1.3c0-0.1-0.1-0.2-0.2-0.3c-0.1-0.1-0.2-0.1-0.3-0.1c-0.1,0-0.3,0-0.5,0.1l-0.1-0.2l1.9-0.8
		H157z M156.5,97.7c0.2,0,0.4,0.1,0.5,0.2c0.1,0.1,0.2,0.3,0.2,0.5s-0.1,0.4-0.2,0.5s-0.3,0.2-0.5,0.2s-0.4-0.1-0.5-0.2
		s-0.2-0.3-0.2-0.5s0.1-0.4,0.2-0.5C156.1,97.8,156.3,97.7,156.5,97.7z"/>
	<path d="M159.8,103.5c0,0.9,0.2,1.7,0.7,2.2s1,0.8,1.6,0.8c0.4,0,0.8-0.1,1.1-0.3c0.3-0.2,0.6-0.6,0.8-1.2l0.2,0.1
		c-0.1,0.6-0.4,1.2-0.8,1.7c-0.5,0.5-1,0.8-1.7,0.8c-0.8,0-1.4-0.3-1.9-0.9c-0.5-0.6-0.8-1.4-0.8-2.4c0-1.1,0.3-1.9,0.8-2.5
		c0.5-0.6,1.2-0.9,2.1-0.9c0.7,0,1.3,0.2,1.7,0.7c0.5,0.5,0.7,1.1,0.7,1.9H159.8z M159.8,103.2h2.9c0-0.4-0.1-0.7-0.1-0.8
		c-0.1-0.3-0.3-0.5-0.5-0.6s-0.5-0.2-0.7-0.2c-0.4,0-0.7,0.1-1,0.4C160,102.2,159.9,102.6,159.8,103.2z"/>
	<path d="M170.2,102.3c0.6-0.8,1.3-1.3,2-1.3c0.6,0,1.2,0.3,1.7,0.8c0.5,0.5,0.7,1.3,0.7,2.3c0,1.1-0.4,2-1.1,2.7
		c-0.6,0.6-1.3,0.9-2.1,0.9c-0.4,0-0.7-0.1-1.1-0.2s-0.8-0.3-1.2-0.6v-6.5c0-0.7,0-1.1-0.1-1.3s-0.1-0.3-0.2-0.3s-0.2-0.1-0.3-0.1
		c-0.1,0-0.3,0-0.5,0.1l-0.1-0.2l1.9-0.8h0.3V102.3z M170.2,102.7v3.7c0.2,0.2,0.5,0.4,0.7,0.5c0.2,0.1,0.5,0.2,0.8,0.2
		c0.4,0,0.8-0.2,1.2-0.7s0.5-1.1,0.5-2c0-0.8-0.2-1.4-0.5-1.8c-0.4-0.4-0.8-0.6-1.2-0.6c-0.2,0-0.5,0.1-0.7,0.2
		C170.7,102.2,170.5,102.4,170.2,102.7z"/>
	<path d="M177.6,101v5c0,0.4,0,0.7,0.1,0.8c0.1,0.1,0.1,0.2,0.3,0.3s0.3,0.1,0.6,0.1v0.2h-3v-0.2c0.3,0,0.5,0,0.6-0.1
		s0.2-0.2,0.2-0.3s0.1-0.4,0.1-0.8v-2.4c0-0.7,0-1.1-0.1-1.3c0-0.1-0.1-0.2-0.2-0.3c-0.1-0.1-0.2-0.1-0.3-0.1c-0.1,0-0.3,0-0.5,0.1
		l-0.1-0.2l1.9-0.8H177.6z M177.1,97.7c0.2,0,0.4,0.1,0.5,0.2c0.1,0.1,0.2,0.3,0.2,0.5s-0.1,0.4-0.2,0.5s-0.3,0.2-0.5,0.2
		s-0.4-0.1-0.5-0.2s-0.2-0.3-0.2-0.5s0.1-0.4,0.2-0.5C176.7,97.8,176.9,97.7,177.1,97.7z"/>
	<path d="M181.2,102.3c0.7-0.9,1.4-1.3,2.1-1.3c0.3,0,0.6,0.1,0.9,0.3c0.2,0.2,0.4,0.5,0.6,0.8c0.1,0.3,0.2,0.7,0.2,1.3v2.7
		c0,0.4,0,0.7,0.1,0.8c0.1,0.1,0.1,0.2,0.2,0.3s0.3,0.1,0.6,0.1v0.2h-3.1v-0.2h0.1c0.3,0,0.5,0,0.6-0.1c0.1-0.1,0.2-0.2,0.2-0.4
		c0-0.1,0-0.3,0-0.6v-2.6c0-0.6-0.1-1-0.2-1.2c-0.1-0.3-0.4-0.4-0.7-0.4c-0.5,0-1.1,0.3-1.6,0.9v3.3c0,0.4,0,0.7,0.1,0.8
		c0.1,0.1,0.2,0.2,0.3,0.3c0.1,0.1,0.3,0.1,0.7,0.1v0.2h-3.1v-0.2h0.1c0.3,0,0.5-0.1,0.6-0.2c0.1-0.2,0.2-0.5,0.2-0.9v-2.3
		c0-0.8,0-1.2-0.1-1.4s-0.1-0.3-0.2-0.3s-0.2-0.1-0.3-0.1c-0.1,0-0.3,0-0.5,0.1l-0.1-0.2l1.9-0.8h0.3V102.3z"/>
	<path d="M192,101v5c0,0.4,0,0.7,0.1,0.8c0.1,0.1,0.1,0.2,0.3,0.3s0.3,0.1,0.6,0.1v0.2h-3v-0.2c0.3,0,0.5,0,0.6-0.1s0.2-0.2,0.2-0.3
		s0.1-0.4,0.1-0.8v-2.4c0-0.7,0-1.1-0.1-1.3c0-0.1-0.1-0.2-0.2-0.3c-0.1-0.1-0.2-0.1-0.3-0.1c-0.1,0-0.3,0-0.5,0.1l-0.1-0.2l1.9-0.8
		H192z M191.5,97.7c0.2,0,0.4,0.1,0.5,0.2c0.1,0.1,0.2,0.3,0.2,0.5s-0.1,0.4-0.2,0.5s-0.3,0.2-0.5,0.2s-0.4-0.1-0.5-0.2
		s-0.2-0.3-0.2-0.5s0.1-0.4,0.2-0.5C191.1,97.8,191.3,97.7,191.5,97.7z"/>
	<path d="M199.1,105.1c-0.2,0.8-0.5,1.5-1,1.9c-0.5,0.4-1,0.7-1.6,0.7c-0.7,0-1.3-0.3-1.9-0.9s-0.8-1.4-0.8-2.4c0-1,0.3-1.8,0.9-2.4
		s1.3-0.9,2.1-0.9c0.6,0,1.1,0.2,1.5,0.5c0.4,0.3,0.6,0.7,0.6,1c0,0.2-0.1,0.3-0.2,0.4c-0.1,0.1-0.3,0.2-0.5,0.2
		c-0.3,0-0.5-0.1-0.6-0.3c-0.1-0.1-0.1-0.3-0.2-0.5s-0.1-0.5-0.3-0.6c-0.2-0.1-0.4-0.2-0.7-0.2c-0.5,0-0.8,0.2-1.1,0.5
		c-0.4,0.4-0.6,1-0.6,1.8c0,0.7,0.2,1.4,0.6,2c0.4,0.6,0.9,0.9,1.5,0.9c0.4,0,0.8-0.2,1.2-0.5c0.3-0.2,0.5-0.6,0.7-1.1L199.1,105.1z
		"/>
	<path d="M201.8,97.7v4.6c0.5-0.6,0.9-0.9,1.2-1.1c0.3-0.2,0.6-0.2,0.9-0.2c0.4,0,0.7,0.1,0.9,0.3s0.4,0.5,0.6,0.9
		c0.1,0.3,0.1,0.8,0.1,1.6v2.2c0,0.4,0,0.7,0.1,0.8c0,0.1,0.1,0.2,0.2,0.3s0.3,0.1,0.6,0.1v0.2h-3.1v-0.2h0.1c0.3,0,0.5,0,0.6-0.1
		c0.1-0.1,0.2-0.2,0.2-0.4c0-0.1,0-0.3,0-0.6v-2.2c0-0.7,0-1.1-0.1-1.3s-0.2-0.4-0.3-0.5c-0.2-0.1-0.3-0.2-0.6-0.2
		c-0.2,0-0.5,0.1-0.7,0.2s-0.5,0.4-0.9,0.7v3.3c0,0.4,0,0.7,0.1,0.8s0.1,0.2,0.3,0.3c0.1,0.1,0.4,0.1,0.7,0.1v0.2h-3.1v-0.2
		c0.3,0,0.5,0,0.7-0.1c0.1,0,0.2-0.1,0.2-0.3s0.1-0.4,0.1-0.8v-5.7c0-0.7,0-1.2-0.1-1.3s-0.1-0.3-0.2-0.3s-0.2-0.1-0.3-0.1
		c-0.1,0-0.3,0-0.5,0.1l-0.1-0.2l1.9-0.8H201.8z"/>
	<path d="M212.9,101.7v4.1c0,0.6,0.1,1,0.2,1.1c0.2,0.2,0.4,0.3,0.7,0.3h0.6v0.2h-3.7v-0.2h0.3c0.2,0,0.3,0,0.5-0.1s0.3-0.2,0.3-0.4
		s0.1-0.5,0.1-0.9v-4.1h-1.2v-0.5h1.2v-0.4c0-0.6,0.1-1.2,0.3-1.6s0.5-0.8,0.9-1c0.4-0.3,0.9-0.4,1.4-0.4c0.5,0,0.9,0.2,1.3,0.5
		c0.3,0.2,0.4,0.4,0.4,0.7c0,0.1-0.1,0.3-0.2,0.4c-0.1,0.1-0.2,0.2-0.4,0.2c-0.1,0-0.2,0-0.3-0.1c-0.1-0.1-0.3-0.2-0.4-0.5
		c-0.2-0.2-0.3-0.4-0.5-0.5s-0.3-0.1-0.5-0.1c-0.2,0-0.4,0.1-0.5,0.2c-0.1,0.1-0.3,0.3-0.3,0.5c-0.1,0.2-0.1,0.8-0.1,1.8v0.5h1.6
		v0.5H212.9z"/>
	<path d="M217,101v1.4c0.5-0.9,1.1-1.4,1.6-1.4c0.3,0,0.5,0.1,0.6,0.2c0.2,0.2,0.2,0.3,0.2,0.5c0,0.2-0.1,0.3-0.2,0.5
		s-0.3,0.2-0.4,0.2c-0.2,0-0.3-0.1-0.5-0.2c-0.2-0.2-0.3-0.2-0.4-0.2c-0.1,0-0.2,0-0.3,0.1c-0.2,0.2-0.4,0.5-0.6,0.9v3
		c0,0.3,0,0.6,0.1,0.8c0.1,0.1,0.2,0.2,0.3,0.3s0.4,0.1,0.6,0.1v0.2h-3.2v-0.2c0.3,0,0.6,0,0.7-0.2c0.1-0.1,0.2-0.2,0.2-0.3
		c0-0.1,0-0.3,0-0.7v-2.4c0-0.7,0-1.2,0-1.3c0-0.1-0.1-0.2-0.2-0.3s-0.2-0.1-0.3-0.1c-0.1,0-0.3,0-0.5,0.1l-0.1-0.2l1.9-0.8H217z"/>
	<path d="M222.9,101c0.9,0,1.7,0.4,2.3,1.1c0.5,0.6,0.7,1.3,0.7,2.1c0,0.6-0.1,1.1-0.4,1.7s-0.6,1-1.1,1.3s-1,0.4-1.6,0.4
		c-0.9,0-1.7-0.4-2.2-1.1c-0.5-0.6-0.7-1.3-0.7-2.1c0-0.6,0.1-1.1,0.4-1.7c0.3-0.6,0.7-1,1.1-1.3C221.8,101.1,222.3,101,222.9,101z
		 M222.6,101.4c-0.2,0-0.5,0.1-0.7,0.2c-0.2,0.1-0.4,0.4-0.6,0.8s-0.2,0.8-0.2,1.4c0,0.9,0.2,1.7,0.5,2.4s0.8,1,1.4,1
		c0.4,0,0.8-0.2,1.1-0.5s0.4-1,0.4-1.9c0-1.1-0.2-2-0.7-2.6C223.6,101.7,223.1,101.4,222.6,101.4z"/>
	<path d="M228.6,97.7v4.6c0.5-0.6,0.9-0.9,1.2-1.1c0.3-0.2,0.6-0.2,0.9-0.2c0.4,0,0.7,0.1,0.9,0.3s0.4,0.5,0.6,0.9
		c0.1,0.3,0.1,0.8,0.1,1.6v2.2c0,0.4,0,0.7,0.1,0.8c0,0.1,0.1,0.2,0.2,0.3s0.3,0.1,0.6,0.1v0.2h-3.1v-0.2h0.1c0.3,0,0.5,0,0.6-0.1
		c0.1-0.1,0.2-0.2,0.2-0.4c0-0.1,0-0.3,0-0.6v-2.2c0-0.7,0-1.1-0.1-1.3s-0.2-0.4-0.3-0.5c-0.2-0.1-0.3-0.2-0.6-0.2
		c-0.2,0-0.5,0.1-0.7,0.2s-0.5,0.4-0.9,0.7v3.3c0,0.4,0,0.7,0.1,0.8s0.1,0.2,0.3,0.3c0.1,0.1,0.4,0.1,0.7,0.1v0.2h-3.1v-0.2
		c0.3,0,0.5,0,0.7-0.1c0.1,0,0.2-0.1,0.2-0.3s0.1-0.4,0.1-0.8v-5.7c0-0.7,0-1.2-0.1-1.3s-0.1-0.3-0.2-0.3s-0.2-0.1-0.3-0.1
		c-0.1,0-0.3,0-0.5,0.1l-0.1-0.2l1.9-0.8H228.6z"/>
	<path d="M235.8,105h-0.3l-0.6-5.5c0-0.2,0-0.4,0-0.5c0-0.3,0.1-0.5,0.2-0.7s0.3-0.3,0.6-0.3s0.4,0.1,0.5,0.3s0.2,0.4,0.2,0.8
		c0,0.1,0,0.3,0,0.5L235.8,105z M235.7,106.1c0.2,0,0.4,0.1,0.5,0.2c0.1,0.1,0.2,0.3,0.2,0.5c0,0.2-0.1,0.4-0.2,0.5
		c-0.1,0.1-0.3,0.2-0.5,0.2s-0.4-0.1-0.5-0.2c-0.1-0.1-0.2-0.3-0.2-0.5c0-0.2,0.1-0.4,0.2-0.5C235.3,106.2,235.5,106.1,235.7,106.1z
		"/>
	<path d="M240.2,101.5c-0.5-0.2-1-0.5-1.3-0.9s-0.5-0.8-0.5-1.3c0-0.4,0.1-0.7,0.4-1s0.5-0.4,0.8-0.4c0.2,0,0.4,0.1,0.6,0.2
		s0.3,0.3,0.3,0.6c0,0.2-0.1,0.4-0.2,0.5c-0.2,0.1-0.3,0.2-0.5,0.2c-0.1,0-0.2,0-0.3-0.1c-0.1,0-0.1,0-0.2,0c-0.2,0-0.3,0.1-0.3,0.4
		c0,0.3,0.1,0.6,0.3,0.8s0.5,0.4,0.8,0.6V101.5z M243.5,101.5c-0.5-0.2-1-0.5-1.3-0.9s-0.5-0.8-0.5-1.3c0-0.4,0.1-0.7,0.4-1
		s0.5-0.4,0.8-0.4c0.2,0,0.4,0.1,0.6,0.2s0.3,0.3,0.3,0.6c0,0.2-0.1,0.4-0.2,0.5c-0.2,0.1-0.3,0.2-0.5,0.2c-0.1,0-0.2,0-0.3-0.1
		c-0.1,0-0.1,0-0.2,0c-0.2,0-0.3,0.1-0.3,0.4c0,0.3,0.1,0.6,0.3,0.8s0.5,0.4,0.8,0.6V101.5z"/>
</g>
<rect x="106" y="117.9" class="st3" width="237.3" height="30.2"/>
<g class="st0">
	<path d="M51.9,46.5v-8.6h2.6l1.6,5.9l1.5-5.9h2.6v8.6h-1.6v-6.8l-1.7,6.8h-1.7l-1.7-6.8v6.8H51.9z"/>
	<path d="M64.8,44.2l1.6-0.2c0.1,0.4,0.2,0.7,0.4,0.9s0.5,0.3,0.8,0.3c0.3,0,0.6-0.1,0.9-0.4s0.3-0.6,0.3-1c0-0.4-0.1-0.7-0.3-1
		s-0.5-0.4-0.8-0.4c-0.2,0-0.5,0-0.8,0.1l0.2-1.3c0.4,0,0.8-0.1,1-0.3s0.4-0.5,0.4-0.8c0-0.3-0.1-0.5-0.3-0.7s-0.4-0.3-0.7-0.3
		c-0.3,0-0.5,0.1-0.7,0.3s-0.3,0.5-0.4,0.9l-1.5-0.3c0.1-0.5,0.3-0.9,0.5-1.2s0.5-0.6,0.9-0.7s0.8-0.3,1.3-0.3
		c0.8,0,1.5,0.3,1.9,0.8c0.4,0.4,0.6,0.9,0.6,1.4c0,0.8-0.4,1.4-1.2,1.8c0.5,0.1,0.9,0.3,1.2,0.7s0.4,0.8,0.4,1.3
		c0,0.8-0.3,1.4-0.8,1.9s-1.2,0.8-2.1,0.8c-0.8,0-1.4-0.2-1.9-0.7S64.9,44.9,64.8,44.2z"/>
	<path d="M75.7,46.5h-1.6v-6.2c-0.6,0.6-1.3,1-2.1,1.2V40c0.4-0.1,0.9-0.4,1.4-0.8s0.8-0.9,1-1.4h1.3V46.5z"/>
	<path d="M78.2,39.6V38h5.6v1.2c-0.5,0.5-0.9,1.1-1.4,2s-0.8,1.8-1.1,2.7s-0.4,1.8-0.4,2.6h-1.6c0-1.2,0.3-2.4,0.7-3.6
		s1.1-2.3,1.9-3.3H78.2z"/>
	<path d="M88.1,43.7l1.7-0.2c0.1,0.6,0.3,1,0.6,1.2s0.7,0.4,1.3,0.4c0.6,0,1-0.1,1.3-0.4s0.4-0.5,0.4-0.8c0-0.2-0.1-0.4-0.2-0.5
		s-0.3-0.3-0.6-0.4c-0.2-0.1-0.7-0.2-1.4-0.4c-0.9-0.2-1.6-0.5-2-0.8c-0.5-0.5-0.8-1-0.8-1.7c0-0.4,0.1-0.8,0.4-1.2s0.6-0.7,1.1-0.9
		s1-0.3,1.7-0.3c1.1,0,1.9,0.2,2.4,0.7s0.8,1.1,0.9,1.9l-1.7,0.1c-0.1-0.4-0.2-0.8-0.5-1s-0.6-0.3-1.1-0.3c-0.5,0-0.9,0.1-1.2,0.3
		c-0.2,0.1-0.3,0.3-0.3,0.5c0,0.2,0.1,0.4,0.3,0.5c0.2,0.2,0.8,0.4,1.6,0.6s1.5,0.4,1.9,0.6s0.7,0.5,0.9,0.9s0.3,0.8,0.3,1.4
		c0,0.5-0.1,1-0.4,1.4s-0.7,0.7-1.2,1s-1.1,0.3-1.9,0.3c-1.1,0-1.9-0.3-2.5-0.8S88.3,44.7,88.1,43.7z"/>
	<path d="M96.5,46.5v-8.6h1.6v4.6l1.9-2.2h2l-2.1,2.3l2.3,3.9h-1.8l-1.6-2.8l-0.8,0.8v2H96.5z"/>
	<path d="M108.5,45v1.5h-5.8c0.1-0.6,0.2-1.1,0.6-1.6s0.9-1.2,1.9-2.1c0.7-0.7,1.2-1.2,1.4-1.4c0.2-0.3,0.3-0.7,0.3-1
		c0-0.4-0.1-0.6-0.3-0.8s-0.5-0.3-0.8-0.3c-0.3,0-0.6,0.1-0.8,0.3s-0.3,0.6-0.4,1l-1.6-0.2c0.1-0.9,0.4-1.6,0.9-2s1.2-0.6,1.9-0.6
		c0.8,0,1.5,0.2,2,0.7s0.7,1,0.7,1.7c0,0.4-0.1,0.8-0.2,1.1s-0.4,0.7-0.7,1.1c-0.2,0.3-0.6,0.6-1.1,1.1s-0.8,0.8-1,0.9
		s-0.3,0.3-0.3,0.5H108.5z"/>
	<path d="M109.9,46.5v-1.6h1.6v1.6H109.9z"/>
	<path d="M117.1,46.5h-1.6v-6.2c-0.6,0.6-1.3,1-2.1,1.2V40c0.4-0.1,0.9-0.4,1.4-0.8s0.8-0.9,1-1.4h1.3V46.5z"/>
</g>
<rect x="816.8" y="117.9" class="st3" width="116.8" height="30.2"/>
<rect x="552.7" y="159.5" class="st3" width="136.5" height="30.2"/>
<rect x="820" y="225.9" class="st3" width="75" height="20.6"/>
<g class="st0">
	<path d="M104.5,171.9c0,0.3-0.1,0.6-0.3,0.9c-0.2,0.3-0.4,0.5-0.7,0.6s-0.6,0.3-0.9,0.4s-0.6,0.1-0.8,0.1c-0.3,0-0.7,0-1-0.1
		c-0.3-0.1-0.5-0.2-0.8-0.4c-0.2-0.2-0.4-0.3-0.5-0.6c-0.1-0.2-0.2-0.5-0.2-0.7c0-0.1,0-0.2,0.1-0.4c0.1-0.1,0.1-0.2,0.2-0.3
		c0.1-0.1,0.2-0.2,0.3-0.2c0.1-0.1,0.2-0.1,0.4-0.1c0.3,0,0.5,0.1,0.7,0.2c0.2,0.1,0.3,0.4,0.3,0.6c0,0.2,0,0.3-0.1,0.4
		c-0.1,0.1-0.1,0.2-0.2,0.3c-0.1,0.1-0.1,0.2-0.2,0.2c0,0.1-0.1,0.2-0.1,0.3c0,0,0,0.1,0.1,0.1c0,0,0.1,0.1,0.2,0.1
		c0.1,0,0.1,0.1,0.2,0.1s0.1,0,0.1,0c0.2,0,0.4-0.1,0.6-0.2c0.2-0.1,0.3-0.3,0.4-0.4c0.1-0.2,0.2-0.4,0.2-0.5
		c0.1-0.2,0.1-0.4,0.1-0.5c0-0.3-0.1-0.5-0.2-0.7c-0.1-0.1-0.3-0.3-0.5-0.3s-0.4-0.1-0.6-0.1c-0.2,0-0.5-0.1-0.7-0.1c0,0,0,0,0-0.1
		c0,0,0-0.1,0-0.1c0,0,0-0.1,0-0.2c0.2,0,0.4-0.1,0.6-0.1s0.4-0.1,0.6-0.2c0.2-0.1,0.3-0.2,0.4-0.4c0.1-0.2,0.1-0.4,0.1-0.6
		c0-0.4-0.1-0.6-0.2-0.8c-0.1-0.2-0.3-0.3-0.4-0.4c-0.2-0.1-0.3-0.1-0.4-0.1c-0.1,0-0.2,0-0.3,0c0,0-0.1,0-0.1,0s-0.1,0-0.1,0.1
		s-0.1,0.1-0.1,0.1c0,0,0,0.1,0,0.1c0,0.1,0,0.1,0.1,0.2c0,0.1,0.1,0.1,0.2,0.2c0.1,0.1,0.1,0.1,0.2,0.2c0.1,0.1,0.1,0.2,0.2,0.3
		c0,0.1,0,0.3,0,0.4c0,0.1-0.1,0.2-0.2,0.4s-0.2,0.2-0.3,0.2c-0.1,0.1-0.3,0.1-0.4,0.1c-0.2,0-0.3,0-0.4-0.1
		c-0.1-0.1-0.2-0.2-0.3-0.3s-0.2-0.2-0.2-0.3c-0.1-0.1-0.1-0.2-0.1-0.3c0-0.2,0-0.4,0.1-0.6c0.1-0.2,0.2-0.4,0.4-0.6
		s0.5-0.3,0.8-0.4c0.3-0.1,0.8-0.2,1.3-0.2c0.2,0,0.5,0,0.7,0.1s0.4,0.2,0.6,0.3c0.2,0.1,0.3,0.3,0.4,0.5c0.1,0.2,0.2,0.4,0.2,0.7
		c0,0.3-0.1,0.6-0.2,0.8c-0.2,0.2-0.3,0.3-0.5,0.4c-0.2,0.1-0.4,0.2-0.5,0.2s-0.2,0.1-0.2,0.1c0.2,0,0.4,0.1,0.6,0.1
		c0.2,0.1,0.4,0.1,0.6,0.2c0.2,0.1,0.3,0.2,0.4,0.4C104.5,171.4,104.5,171.7,104.5,171.9z"/>
</g>
<g class="st0">
	<path d="M103.4,178.8v0.9c0,0.1,0,0.2,0.1,0.3s0.1,0.1,0.2,0.2c0.1,0,0.2,0.1,0.3,0.1v0.4h-2.9v-0.4c0.1,0,0.2,0,0.3-0.1
		c0.1,0,0.2-0.1,0.2-0.1c0.1-0.1,0.1-0.2,0.1-0.3v-0.9h-2.5l-0.2-0.3c0.3-0.4,0.5-0.7,0.7-1s0.3-0.5,0.5-0.8
		c0.1-0.2,0.2-0.5,0.3-0.7c0.1-0.2,0.2-0.4,0.2-0.6s0.1-0.5,0.2-0.7c0-0.3,0.1-0.6,0.2-0.9h2.3c-0.1,0.3-0.3,0.6-0.6,0.9
		c-0.3,0.4-0.6,0.7-1,1.1s-0.7,0.8-1.1,1.2c-0.4,0.4-0.7,0.8-1.1,1.2h2.1v-1.7l1.6-1.8v3.5h1v0.4H103.4z"/>
</g>
<rect x="170.3" y="199.4" class="st3" width="368.2" height="30.2"/>
<rect x="112.8" y="239.9" class="st3" width="199" height="30.2"/>
<rect x="669" y="239.9" class="st3" width="40.2" height="30.2"/>
<polyline class="st3" points="317.6,285.9 317.5,239.9 575,239.9 575,199.4 660,199.4 660,270.1 475,270.1 475,284.9 "/>
<g class="st0">
	<path d="M188.4,134l1.7-0.2c0.1,0.6,0.3,1,0.6,1.2s0.7,0.4,1.3,0.4c0.6,0,1-0.1,1.3-0.4s0.4-0.5,0.4-0.8c0-0.2-0.1-0.4-0.2-0.5
		s-0.3-0.3-0.6-0.4c-0.2-0.1-0.7-0.2-1.4-0.4c-0.9-0.2-1.6-0.5-2-0.8c-0.5-0.5-0.8-1-0.8-1.7c0-0.4,0.1-0.8,0.4-1.2s0.6-0.7,1.1-0.9
		s1-0.3,1.7-0.3c1.1,0,1.9,0.2,2.4,0.7s0.8,1.1,0.9,1.9l-1.7,0.1c-0.1-0.4-0.2-0.8-0.5-1s-0.6-0.3-1.1-0.3c-0.5,0-0.9,0.1-1.2,0.3
		c-0.2,0.1-0.3,0.3-0.3,0.5c0,0.2,0.1,0.4,0.3,0.5c0.2,0.2,0.8,0.4,1.6,0.6s1.5,0.4,1.9,0.6s0.7,0.5,0.9,0.9s0.3,0.8,0.3,1.4
		c0,0.5-0.1,1-0.4,1.4s-0.7,0.7-1.2,1s-1.1,0.3-1.9,0.3c-1.1,0-1.9-0.3-2.5-0.8S188.6,135,188.4,134z"/>
	<path d="M196.8,136.8v-8.6h1.6v4.6l1.9-2.2h2l-2.1,2.3l2.3,3.9h-1.8l-1.6-2.8l-0.8,0.8v2H196.8z"/>
	<path d="M208.8,135.3v1.5H203c0.1-0.6,0.2-1.1,0.6-1.6s0.9-1.2,1.9-2.1c0.7-0.7,1.2-1.2,1.4-1.4c0.2-0.3,0.3-0.7,0.3-1
		c0-0.4-0.1-0.6-0.3-0.8s-0.5-0.3-0.8-0.3c-0.3,0-0.6,0.1-0.8,0.3s-0.3,0.6-0.4,1l-1.6-0.2c0.1-0.9,0.4-1.6,0.9-2s1.2-0.6,1.9-0.6
		c0.8,0,1.5,0.2,2,0.7s0.7,1,0.7,1.7c0,0.4-0.1,0.8-0.2,1.1s-0.4,0.7-0.7,1.1c-0.2,0.3-0.6,0.6-1.1,1.1s-0.8,0.8-1,0.9
		s-0.3,0.3-0.3,0.5H208.8z"/>
</g>
<g class="st0">
	<path d="M851.8,134l1.7-0.2c0.1,0.6,0.3,1,0.6,1.2s0.7,0.4,1.3,0.4c0.6,0,1-0.1,1.3-0.4s0.4-0.5,0.4-0.8c0-0.2-0.1-0.4-0.2-0.5
		s-0.3-0.3-0.6-0.4c-0.2-0.1-0.7-0.2-1.4-0.4c-0.9-0.2-1.6-0.5-2-0.8c-0.5-0.5-0.8-1-0.8-1.7c0-0.4,0.1-0.8,0.4-1.2s0.6-0.7,1.1-0.9
		s1-0.3,1.7-0.3c1.1,0,1.9,0.2,2.4,0.7s0.8,1.1,0.9,1.9l-1.7,0.1c-0.1-0.4-0.2-0.8-0.5-1s-0.6-0.3-1.1-0.3c-0.5,0-0.9,0.1-1.2,0.3
		c-0.2,0.1-0.3,0.3-0.3,0.5c0,0.2,0.1,0.4,0.3,0.5c0.2,0.2,0.8,0.4,1.6,0.6s1.5,0.4,1.9,0.6s0.7,0.5,0.9,0.9s0.3,0.8,0.3,1.4
		c0,0.5-0.1,1-0.4,1.4s-0.7,0.7-1.2,1s-1.1,0.3-1.9,0.3c-1.1,0-1.9-0.3-2.5-0.8S851.9,135,851.8,134z"/>
	<path d="M860.1,136.8v-8.6h1.6v4.6l1.9-2.2h2l-2.1,2.3l2.3,3.9h-1.8l-1.6-2.8l-0.8,0.8v2H860.1z"/>
	<path d="M872.1,135.3v1.5h-5.8c0.1-0.6,0.2-1.1,0.6-1.6s0.9-1.2,1.9-2.1c0.7-0.7,1.2-1.2,1.4-1.4c0.2-0.3,0.3-0.7,0.3-1
		c0-0.4-0.1-0.6-0.3-0.8s-0.5-0.3-0.8-0.3c-0.3,0-0.6,0.1-0.8,0.3s-0.3,0.6-0.4,1l-1.6-0.2c0.1-0.9,0.4-1.6,0.9-2s1.2-0.6,1.9-0.6
		c0.8,0,1.5,0.2,2,0.7s0.7,1,0.7,1.7c0,0.4-0.1,0.8-0.2,1.1s-0.4,0.7-0.7,1.1c-0.2,0.3-0.6,0.6-1.1,1.1s-0.8,0.8-1,0.9
		s-0.3,0.3-0.3,0.5H872.1z"/>
	<path d="M873.5,136.8v-1.6h1.6v1.6H873.5z"/>
	<path d="M880.7,136.8h-1.6v-6.2c-0.6,0.6-1.3,1-2.1,1.2v-1.5c0.4-0.1,0.9-0.4,1.4-0.8s0.8-0.9,1-1.4h1.3V136.8z"/>
	<path d="M883.6,136.8v-1.6h1.6v1.6H883.6z"/>
	<path d="M890.7,136.8h-1.6v-6.2c-0.6,0.6-1.3,1-2.1,1.2v-1.5c0.4-0.1,0.9-0.4,1.4-0.8s0.8-0.9,1-1.4h1.3V136.8z"/>
</g>
<g class="st0">
	<path d="M838.3,239.8l1.7-0.2c0.1,0.6,0.3,1,0.6,1.2s0.7,0.4,1.3,0.4c0.6,0,1-0.1,1.3-0.4s0.4-0.5,0.4-0.8c0-0.2-0.1-0.4-0.2-0.5
		s-0.3-0.3-0.6-0.4c-0.2-0.1-0.7-0.2-1.4-0.4c-0.9-0.2-1.6-0.5-2-0.8c-0.5-0.5-0.8-1-0.8-1.7c0-0.4,0.1-0.8,0.4-1.2s0.6-0.7,1.1-0.9
		s1-0.3,1.7-0.3c1.1,0,1.9,0.2,2.4,0.7s0.8,1.1,0.9,1.9l-1.7,0.1c-0.1-0.4-0.2-0.8-0.5-1s-0.6-0.3-1.1-0.3c-0.5,0-0.9,0.1-1.2,0.3
		c-0.2,0.1-0.3,0.3-0.3,0.5c0,0.2,0.1,0.4,0.3,0.5c0.2,0.2,0.8,0.4,1.6,0.6s1.5,0.4,1.9,0.6s0.7,0.5,0.9,0.9s0.3,0.8,0.3,1.4
		c0,0.5-0.1,1-0.4,1.4s-0.7,0.7-1.2,1s-1.1,0.3-1.9,0.3c-1.1,0-1.9-0.3-2.5-0.8S838.4,240.8,838.3,239.8z"/>
	<path d="M846.6,242.6V234h1.6v4.6l1.9-2.2h2l-2.1,2.3l2.3,3.9h-1.8l-1.6-2.8l-0.8,0.8v2H846.6z"/>
	<path d="M858.6,241.1v1.5h-5.8c0.1-0.6,0.2-1.1,0.6-1.6s0.9-1.2,1.9-2.1c0.7-0.7,1.2-1.2,1.4-1.4c0.2-0.3,0.3-0.7,0.3-1
		c0-0.4-0.1-0.6-0.3-0.8s-0.5-0.3-0.8-0.3c-0.3,0-0.6,0.1-0.8,0.3s-0.3,0.6-0.4,1l-1.6-0.2c0.1-0.9,0.4-1.6,0.9-2s1.2-0.6,1.9-0.6
		c0.8,0,1.5,0.2,2,0.7s0.7,1,0.7,1.7c0,0.4-0.1,0.8-0.2,1.1s-0.4,0.7-0.7,1.1c-0.2,0.3-0.6,0.6-1.1,1.1s-0.8,0.8-1,0.9
		s-0.3,0.3-0.3,0.5H858.6z"/>
	<path d="M860,242.6v-1.6h1.6v1.6H860z"/>
	<path d="M867.2,242.6h-1.6v-6.2c-0.6,0.6-1.3,1-2.1,1.2v-1.5c0.4-0.1,0.9-0.4,1.4-0.8s0.8-0.9,1-1.4h1.3V242.6z"/>
	<path d="M870.1,242.6v-1.6h1.6v1.6H870.1z"/>
	<path d="M873,240.3l1.6-0.2c0.1,0.4,0.2,0.7,0.4,0.9s0.5,0.3,0.8,0.3c0.3,0,0.6-0.1,0.9-0.4s0.3-0.6,0.3-1c0-0.4-0.1-0.7-0.3-1
		s-0.5-0.4-0.8-0.4c-0.2,0-0.5,0-0.8,0.1l0.2-1.3c0.4,0,0.8-0.1,1-0.3s0.4-0.5,0.4-0.8c0-0.3-0.1-0.5-0.3-0.7s-0.4-0.3-0.7-0.3
		c-0.3,0-0.5,0.1-0.7,0.3s-0.3,0.5-0.4,0.9l-1.5-0.3c0.1-0.5,0.3-0.9,0.5-1.2s0.5-0.6,0.9-0.7s0.8-0.3,1.3-0.3
		c0.8,0,1.5,0.3,1.9,0.8c0.4,0.4,0.6,0.9,0.6,1.4c0,0.8-0.4,1.4-1.2,1.8c0.5,0.1,0.9,0.3,1.2,0.7s0.4,0.8,0.4,1.3
		c0,0.8-0.3,1.4-0.8,1.9s-1.2,0.8-2.1,0.8c-0.8,0-1.4-0.2-1.9-0.7S873.1,241,873,240.3z"/>
</g>
<g class="st0">
	<path d="M603.4,174.5l1.7-0.2c0.1,0.6,0.3,1,0.6,1.2s0.7,0.4,1.3,0.4c0.6,0,1-0.1,1.3-0.4s0.4-0.5,0.4-0.8c0-0.2-0.1-0.4-0.2-0.5
		s-0.3-0.3-0.6-0.4c-0.2-0.1-0.7-0.2-1.4-0.4c-0.9-0.2-1.6-0.5-2-0.8c-0.5-0.5-0.8-1-0.8-1.7c0-0.4,0.1-0.8,0.4-1.2s0.6-0.7,1.1-0.9
		s1-0.3,1.7-0.3c1.1,0,1.9,0.2,2.4,0.7s0.8,1.1,0.9,1.9l-1.7,0.1c-0.1-0.4-0.2-0.8-0.5-1s-0.6-0.3-1.1-0.3c-0.5,0-0.9,0.1-1.2,0.3
		c-0.2,0.1-0.3,0.3-0.3,0.5c0,0.2,0.1,0.4,0.3,0.5c0.2,0.2,0.8,0.4,1.6,0.6s1.5,0.4,1.9,0.6s0.7,0.5,0.9,0.9s0.3,0.8,0.3,1.4
		c0,0.5-0.1,1-0.4,1.4s-0.7,0.7-1.2,1s-1.1,0.3-1.9,0.3c-1.1,0-1.9-0.3-2.5-0.8S603.5,175.5,603.4,174.5z"/>
	<path d="M611.8,177.3v-8.6h1.6v4.6l1.9-2.2h2l-2.1,2.3l2.3,3.9h-1.8l-1.6-2.8l-0.8,0.8v2H611.8z"/>
	<path d="M623.7,175.8v1.5H618c0.1-0.6,0.2-1.1,0.6-1.6s0.9-1.2,1.9-2.1c0.7-0.7,1.2-1.2,1.4-1.4c0.2-0.3,0.3-0.7,0.3-1
		c0-0.4-0.1-0.6-0.3-0.8s-0.5-0.3-0.8-0.3c-0.3,0-0.6,0.1-0.8,0.3s-0.3,0.6-0.4,1l-1.6-0.2c0.1-0.9,0.4-1.6,0.9-2s1.2-0.6,1.9-0.6
		c0.8,0,1.5,0.2,2,0.7s0.7,1,0.7,1.7c0,0.4-0.1,0.8-0.2,1.1s-0.4,0.7-0.7,1.1c-0.2,0.3-0.6,0.6-1.1,1.1s-0.8,0.8-1,0.9
		s-0.3,0.3-0.3,0.5H623.7z"/>
	<path d="M625.2,177.3v-1.6h1.6v1.6H625.2z"/>
	<path d="M632.4,177.3h-1.6v-6.2c-0.6,0.6-1.3,1-2.1,1.2v-1.5c0.4-0.1,0.9-0.4,1.4-0.8s0.8-0.9,1-1.4h1.3V177.3z"/>
	<path d="M635.2,177.3v-1.6h1.6v1.6H635.2z"/>
	<path d="M643.8,175.8v1.5H638c0.1-0.6,0.2-1.1,0.6-1.6s0.9-1.2,1.9-2.1c0.7-0.7,1.2-1.2,1.4-1.4c0.2-0.3,0.3-0.7,0.3-1
		c0-0.4-0.1-0.6-0.3-0.8s-0.5-0.3-0.8-0.3c-0.3,0-0.6,0.1-0.8,0.3s-0.3,0.6-0.4,1l-1.6-0.2c0.1-0.9,0.4-1.6,0.9-2s1.2-0.6,1.9-0.6
		c0.8,0,1.5,0.2,2,0.7s0.7,1,0.7,1.7c0,0.4-0.1,0.8-0.2,1.1s-0.4,0.7-0.7,1.1c-0.2,0.3-0.6,0.6-1.1,1.1s-0.8,0.8-1,0.9
		s-0.3,0.3-0.3,0.5H643.8z"/>
</g>
<g class="st0">
	<path d="M670.8,248.8l1.7-0.2c0.1,0.6,0.3,1,0.6,1.2s0.7,0.4,1.3,0.4c0.6,0,1-0.1,1.3-0.4s0.4-0.5,0.4-0.8c0-0.2-0.1-0.4-0.2-0.5
		s-0.3-0.3-0.6-0.4c-0.2-0.1-0.7-0.2-1.4-0.4c-0.9-0.2-1.6-0.5-2-0.8c-0.5-0.5-0.8-1-0.8-1.7c0-0.4,0.1-0.8,0.4-1.2s0.6-0.7,1.1-0.9
		s1-0.3,1.7-0.3c1.1,0,1.9,0.2,2.4,0.7s0.8,1.1,0.9,1.9l-1.7,0.1c-0.1-0.4-0.2-0.8-0.5-1s-0.6-0.3-1.1-0.3c-0.5,0-0.9,0.1-1.2,0.3
		c-0.2,0.1-0.3,0.3-0.3,0.5c0,0.2,0.1,0.4,0.3,0.5c0.2,0.2,0.8,0.4,1.6,0.6s1.5,0.4,1.9,0.6s0.7,0.5,0.9,0.9s0.3,0.8,0.3,1.4
		c0,0.5-0.1,1-0.4,1.4s-0.7,0.7-1.2,1s-1.1,0.3-1.9,0.3c-1.1,0-1.9-0.3-2.5-0.8S670.9,249.8,670.8,248.8z"/>
	<path d="M679.1,251.6V243h1.6v4.6l1.9-2.2h2l-2.1,2.3l2.3,3.9h-1.8l-1.6-2.8l-0.8,0.8v2H679.1z"/>
	<path d="M691.1,250.1v1.5h-5.8c0.1-0.6,0.2-1.1,0.6-1.6s0.9-1.2,1.9-2.1c0.7-0.7,1.2-1.2,1.4-1.4c0.2-0.3,0.3-0.7,0.3-1
		c0-0.4-0.1-0.6-0.3-0.8s-0.5-0.3-0.8-0.3c-0.3,0-0.6,0.1-0.8,0.3s-0.3,0.6-0.4,1l-1.6-0.2c0.1-0.9,0.4-1.6,0.9-2s1.2-0.6,1.9-0.6
		c0.8,0,1.5,0.2,2,0.7s0.7,1,0.7,1.7c0,0.4-0.1,0.8-0.2,1.1s-0.4,0.7-0.7,1.1c-0.2,0.3-0.6,0.6-1.1,1.1s-0.8,0.8-1,0.9
		s-0.3,0.3-0.3,0.5H691.1z"/>
	<path d="M692.5,251.6v-1.6h1.6v1.6H692.5z"/>
	<path d="M699.7,251.6h-1.6v-6.2c-0.6,0.6-1.3,1-2.1,1.2v-1.5c0.4-0.1,0.9-0.4,1.4-0.8s0.8-0.9,1-1.4h1.3V251.6z"/>
	<path d="M702.6,251.6v-1.6h1.6v1.6H702.6z"/>
</g>
<g class="st0">
	<path d="M676.4,264.5v1.5h-5.8c0.1-0.6,0.2-1.1,0.6-1.6s0.9-1.2,1.9-2.1c0.7-0.7,1.2-1.2,1.4-1.4c0.2-0.3,0.3-0.7,0.3-1
		c0-0.4-0.1-0.6-0.3-0.8s-0.5-0.3-0.8-0.3c-0.3,0-0.6,0.1-0.8,0.3s-0.3,0.6-0.4,1l-1.6-0.2c0.1-0.9,0.4-1.6,0.9-2s1.2-0.6,1.9-0.6
		c0.8,0,1.5,0.2,2,0.7s0.7,1,0.7,1.7c0,0.4-0.1,0.8-0.2,1.1s-0.4,0.7-0.7,1.1c-0.2,0.3-0.6,0.6-1.1,1.1s-0.8,0.8-1,0.9
		s-0.3,0.3-0.3,0.5H676.4z"/>
	<path d="M677.9,266v-1.6h1.6v1.6H677.9z"/>
	<path d="M685.1,266h-1.6v-6.2c-0.6,0.6-1.3,1-2.1,1.2v-1.5c0.4-0.1,0.9-0.4,1.4-0.8s0.8-0.9,1-1.4h1.3V266z"/>
</g>
<g class="st0">
	<path d="M352.4,215l1.7-0.2c0.1,0.6,0.3,1,0.6,1.2s0.7,0.4,1.3,0.4c0.6,0,1-0.1,1.3-0.4s0.4-0.5,0.4-0.8c0-0.2-0.1-0.4-0.2-0.5
		s-0.3-0.3-0.6-0.4c-0.2-0.1-0.7-0.2-1.4-0.4c-0.9-0.2-1.6-0.5-2-0.8c-0.5-0.5-0.8-1-0.8-1.7c0-0.4,0.1-0.8,0.4-1.2s0.6-0.7,1.1-0.9
		s1-0.3,1.7-0.3c1.1,0,1.9,0.2,2.4,0.7s0.8,1.1,0.9,1.9l-1.7,0.1c-0.1-0.4-0.2-0.8-0.5-1s-0.6-0.3-1.1-0.3c-0.5,0-0.9,0.1-1.2,0.3
		c-0.2,0.1-0.3,0.3-0.3,0.5c0,0.2,0.1,0.4,0.3,0.5c0.2,0.2,0.8,0.4,1.6,0.6s1.5,0.4,1.9,0.6s0.7,0.5,0.9,0.9s0.3,0.8,0.3,1.4
		c0,0.5-0.1,1-0.4,1.4s-0.7,0.7-1.2,1s-1.1,0.3-1.9,0.3c-1.1,0-1.9-0.3-2.5-0.8S352.5,216,352.4,215z"/>
	<path d="M360.8,217.8v-8.6h1.6v4.6l1.9-2.2h2l-2.1,2.3l2.3,3.9h-1.8l-1.6-2.8l-0.8,0.8v2H360.8z"/>
	<path d="M367.1,215.6l1.6-0.2c0.1,0.4,0.2,0.7,0.4,0.9s0.5,0.3,0.8,0.3c0.3,0,0.6-0.1,0.9-0.4s0.3-0.6,0.3-1c0-0.4-0.1-0.7-0.3-1
		s-0.5-0.4-0.8-0.4c-0.2,0-0.5,0-0.8,0.1l0.2-1.3c0.4,0,0.8-0.1,1-0.3s0.4-0.5,0.4-0.8c0-0.3-0.1-0.5-0.3-0.7s-0.4-0.3-0.7-0.3
		c-0.3,0-0.5,0.1-0.7,0.3s-0.3,0.5-0.4,0.9l-1.5-0.3c0.1-0.5,0.3-0.9,0.5-1.2s0.5-0.6,0.9-0.7s0.8-0.3,1.3-0.3
		c0.8,0,1.5,0.3,1.9,0.8c0.4,0.4,0.6,0.9,0.6,1.4c0,0.8-0.4,1.4-1.2,1.8c0.5,0.1,0.9,0.3,1.2,0.7s0.4,0.8,0.4,1.3
		c0,0.8-0.3,1.4-0.8,1.9s-1.2,0.8-2.1,0.8c-0.8,0-1.4-0.2-1.9-0.7S367.2,216.3,367.1,215.6z"/>
</g>
<g class="st0">
	<path d="M190.1,257.2l1.7-0.2c0.1,0.6,0.3,1,0.6,1.2s0.7,0.4,1.3,0.4c0.6,0,1-0.1,1.3-0.4s0.4-0.5,0.4-0.8c0-0.2-0.1-0.4-0.2-0.5
		s-0.3-0.3-0.6-0.4c-0.2-0.1-0.7-0.2-1.4-0.4c-0.9-0.2-1.6-0.5-2-0.8c-0.5-0.5-0.8-1-0.8-1.7c0-0.4,0.1-0.8,0.4-1.2s0.6-0.7,1.1-0.9
		s1-0.3,1.7-0.3c1.1,0,1.9,0.2,2.4,0.7s0.8,1.1,0.9,1.9l-1.7,0.1c-0.1-0.4-0.2-0.8-0.5-1s-0.6-0.3-1.1-0.3c-0.5,0-0.9,0.1-1.2,0.3
		c-0.2,0.1-0.3,0.3-0.3,0.5c0,0.2,0.1,0.4,0.3,0.5c0.2,0.2,0.8,0.4,1.6,0.6s1.5,0.4,1.9,0.6s0.7,0.5,0.9,0.9s0.3,0.8,0.3,1.4
		c0,0.5-0.1,1-0.4,1.4s-0.7,0.7-1.2,1s-1.1,0.3-1.9,0.3c-1.1,0-1.9-0.3-2.5-0.8S190.2,258.2,190.1,257.2z"/>
	<path d="M198.5,260v-8.6h1.6v4.6l1.9-2.2h2l-2.1,2.3l2.3,3.9h-1.8l-1.6-2.8l-0.8,0.8v2H198.5z"/>
	<path d="M204.8,257.8l1.6-0.2c0.1,0.4,0.2,0.7,0.4,0.9s0.5,0.3,0.8,0.3c0.3,0,0.6-0.1,0.9-0.4s0.3-0.6,0.3-1c0-0.4-0.1-0.7-0.3-1
		s-0.5-0.4-0.8-0.4c-0.2,0-0.5,0-0.8,0.1l0.2-1.3c0.4,0,0.8-0.1,1-0.3s0.4-0.5,0.4-0.8c0-0.3-0.1-0.5-0.3-0.7s-0.4-0.3-0.7-0.3
		c-0.3,0-0.5,0.1-0.7,0.3s-0.3,0.5-0.4,0.9l-1.5-0.3c0.1-0.5,0.3-0.9,0.5-1.2s0.5-0.6,0.9-0.7s0.8-0.3,1.3-0.3
		c0.8,0,1.5,0.3,1.9,0.8c0.4,0.4,0.6,0.9,0.6,1.4c0,0.8-0.4,1.4-1.2,1.8c0.5,0.1,0.9,0.3,1.2,0.7s0.4,0.8,0.4,1.3
		c0,0.8-0.3,1.4-0.8,1.9s-1.2,0.8-2.1,0.8c-0.8,0-1.4-0.2-1.9-0.7S204.9,258.5,204.8,257.8z"/>
	<path d="M211.9,260v-1.6h1.6v1.6H211.9z"/>
	<path d="M219.1,260h-1.6v-6.2c-0.6,0.6-1.3,1-2.1,1.2v-1.5c0.4-0.1,0.9-0.4,1.4-0.8s0.8-0.9,1-1.4h1.3V260z"/>
	<path d="M221.9,260v-1.6h1.6v1.6H221.9z"/>
	<path d="M230.4,258.5v1.5h-5.8c0.1-0.6,0.2-1.1,0.6-1.6s0.9-1.2,1.9-2.1c0.7-0.7,1.2-1.2,1.4-1.4c0.2-0.3,0.3-0.7,0.3-1
		c0-0.4-0.1-0.6-0.3-0.8s-0.5-0.3-0.8-0.3c-0.3,0-0.6,0.1-0.8,0.3s-0.3,0.6-0.4,1l-1.6-0.2c0.1-0.9,0.4-1.6,0.9-2s1.2-0.6,1.9-0.6
		c0.8,0,1.5,0.2,2,0.7s0.7,1,0.7,1.7c0,0.4-0.1,0.8-0.2,1.1s-0.4,0.7-0.7,1.1c-0.2,0.3-0.6,0.6-1.1,1.1s-0.8,0.8-1,0.9
		s-0.3,0.3-0.3,0.5H230.4z"/>
</g>
<g class="st0">
	<path d="M463.8,257.2l1.7-0.2c0.1,0.6,0.3,1,0.6,1.2s0.7,0.4,1.3,0.4c0.6,0,1-0.1,1.3-0.4s0.4-0.5,0.4-0.8c0-0.2-0.1-0.4-0.2-0.5
		s-0.3-0.3-0.6-0.4c-0.2-0.1-0.7-0.2-1.4-0.4c-0.9-0.2-1.6-0.5-2-0.8c-0.5-0.5-0.8-1-0.8-1.7c0-0.4,0.1-0.8,0.4-1.2s0.6-0.7,1.1-0.9
		s1-0.3,1.7-0.3c1.1,0,1.9,0.2,2.4,0.7s0.8,1.1,0.9,1.9l-1.7,0.1c-0.1-0.4-0.2-0.8-0.5-1s-0.6-0.3-1.1-0.3c-0.5,0-0.9,0.1-1.2,0.3
		c-0.2,0.1-0.3,0.3-0.3,0.5c0,0.2,0.1,0.4,0.3,0.5c0.2,0.2,0.8,0.4,1.6,0.6s1.5,0.4,1.9,0.6s0.7,0.5,0.9,0.9s0.3,0.8,0.3,1.4
		c0,0.5-0.1,1-0.4,1.4s-0.7,0.7-1.2,1s-1.1,0.3-1.9,0.3c-1.1,0-1.9-0.3-2.5-0.8S463.9,258.2,463.8,257.2z"/>
	<path d="M472.1,260v-8.6h1.6v4.6l1.9-2.2h2l-2.1,2.3l2.3,3.9h-1.8l-1.6-2.8l-0.8,0.8v2H472.1z"/>
	<path d="M478.5,257.8l1.6-0.2c0.1,0.4,0.2,0.7,0.4,0.9s0.5,0.3,0.8,0.3c0.3,0,0.6-0.1,0.9-0.4s0.3-0.6,0.3-1c0-0.4-0.1-0.7-0.3-1
		s-0.5-0.4-0.8-0.4c-0.2,0-0.5,0-0.8,0.1l0.2-1.3c0.4,0,0.8-0.1,1-0.3s0.4-0.5,0.4-0.8c0-0.3-0.1-0.5-0.3-0.7s-0.4-0.3-0.7-0.3
		c-0.3,0-0.5,0.1-0.7,0.3s-0.3,0.5-0.4,0.9l-1.5-0.3c0.1-0.5,0.3-0.9,0.5-1.2s0.5-0.6,0.9-0.7s0.8-0.3,1.3-0.3
		c0.8,0,1.5,0.3,1.9,0.8c0.4,0.4,0.6,0.9,0.6,1.4c0,0.8-0.4,1.4-1.2,1.8c0.5,0.1,0.9,0.3,1.2,0.7s0.4,0.8,0.4,1.3
		c0,0.8-0.3,1.4-0.8,1.9s-1.2,0.8-2.1,0.8c-0.8,0-1.4-0.2-1.9-0.7S478.5,258.5,478.5,257.8z"/>
	<path d="M485.5,260v-1.6h1.6v1.6H485.5z"/>
	<path d="M492.7,260h-1.6v-6.2c-0.6,0.6-1.3,1-2.1,1.2v-1.5c0.4-0.1,0.9-0.4,1.4-0.8s0.8-0.9,1-1.4h1.3V260z"/>
</g>
<path class="st1" d="M526.3,124.8h-1.4v19.1h1.4"/>
<path class="st1" d="M532.4,124.8h1.4v19.1h-1.4"/>
<rect x="346" y="117.9" class="st3" width="174.5" height="30.2"/>
<g class="st0">
	<path d="M434.2,134l1.7-0.2c0.1,0.6,0.3,1,0.6,1.2s0.7,0.4,1.3,0.4c0.6,0,1-0.1,1.3-0.4s0.4-0.5,0.4-0.8c0-0.2-0.1-0.4-0.2-0.5
		s-0.3-0.3-0.6-0.4c-0.2-0.1-0.7-0.2-1.4-0.4c-0.9-0.2-1.6-0.5-2-0.8c-0.5-0.5-0.8-1-0.8-1.7c0-0.4,0.1-0.8,0.4-1.2s0.6-0.7,1.1-0.9
		s1-0.3,1.7-0.3c1.1,0,1.9,0.2,2.4,0.7s0.8,1.1,0.9,1.9l-1.7,0.1c-0.1-0.4-0.2-0.8-0.5-1s-0.6-0.3-1.1-0.3c-0.5,0-0.9,0.1-1.2,0.3
		c-0.2,0.1-0.3,0.3-0.3,0.5c0,0.2,0.1,0.4,0.3,0.5c0.2,0.2,0.8,0.4,1.6,0.6s1.5,0.4,1.9,0.6s0.7,0.5,0.9,0.9s0.3,0.8,0.3,1.4
		c0,0.5-0.1,1-0.4,1.4s-0.7,0.7-1.2,1s-1.1,0.3-1.9,0.3c-1.1,0-1.9-0.3-2.5-0.8S434.3,135,434.2,134z"/>
	<path d="M442.6,136.8v-8.6h1.6v4.6l1.9-2.2h2l-2.1,2.3l2.3,3.9h-1.8L445,134l-0.8,0.8v2H442.6z"/>
	<path d="M453.2,136.8h-1.6v-6.2c-0.6,0.6-1.3,1-2.1,1.2v-1.5c0.4-0.1,0.9-0.4,1.4-0.8s0.8-0.9,1-1.4h1.3V136.8z"/>
</g>
<line class="st1" x1="619.8" y1="126.7" x2="619.8" y2="140.2"/>
<line class="st1" x1="760.9" y1="126.7" x2="760.9" y2="140.2"/>
<g class="st0">
	<path d="M530.8,139.4c-0.2,0-0.4,0.1-0.6,0.1s-0.4,0-0.6,0c-0.2,0-0.4,0-0.6-0.1c-0.2,0-0.3-0.1-0.4-0.1c-0.5-0.2-0.9-0.5-1.3-0.8
		c-0.3-0.3-0.6-0.6-0.7-0.9s-0.3-0.6-0.4-0.9c-0.1-0.3-0.1-0.6-0.1-1c0-0.4,0-0.7,0.1-1.1c0.1-0.4,0.2-0.7,0.4-1
		c0.2-0.3,0.3-0.6,0.5-0.9c0.2-0.3,0.4-0.5,0.6-0.7c0.2-0.2,0.5-0.5,0.8-0.7s0.6-0.5,0.9-0.7c0-0.1,0-0.2,0-0.2c0-0.1,0-0.1,0-0.2
		s0-0.2,0-0.2s0-0.2,0-0.3c0-0.1,0-0.2,0-0.3c0-0.1,0-0.3,0-0.5c0-0.2,0-0.4,0-0.7c0-0.3,0-0.5,0.1-0.8c0-0.2,0.1-0.4,0.2-0.6
		c0.1-0.3,0.2-0.5,0.4-0.8c0.2-0.2,0.3-0.5,0.5-0.6s0.3-0.3,0.5-0.3c0.1,0,0.2,0,0.2,0.1c0.1,0.1,0.2,0.2,0.3,0.4
		c0.1,0.2,0.2,0.3,0.2,0.5s0.2,0.4,0.2,0.6c0.1,0.2,0.1,0.4,0.1,0.6c0,0.2,0.1,0.4,0.1,0.5c0,0.4,0,0.7,0,0.9s-0.1,0.5-0.2,0.7
		c-0.1,0.2-0.1,0.4-0.2,0.6c-0.1,0.2-0.2,0.4-0.3,0.5c-0.1,0.2-0.2,0.3-0.3,0.5s-0.2,0.3-0.3,0.4c-0.1,0.1-0.2,0.3-0.4,0.4
		c-0.1,0.1-0.3,0.2-0.4,0.3c0.1,0.3,0.1,0.7,0.2,0.9c0,0.1,0,0.2,0.1,0.4c0,0.1,0,0.2,0.1,0.3s0,0.2,0,0.2s0,0.1,0,0.1
		c0.2,0,0.3,0,0.5,0s0.3,0,0.5,0.1c0.2,0,0.3,0.1,0.4,0.1c0.1,0.1,0.2,0.1,0.3,0.2c0.4,0.3,0.6,0.6,0.8,0.9c0.2,0.3,0.2,0.7,0.3,1.1
		c0,0.3,0,0.6-0.1,0.9s-0.2,0.6-0.3,0.8c-0.2,0.3-0.4,0.5-0.6,0.7c-0.3,0.2-0.6,0.4-0.9,0.5c0,0.3,0.1,0.5,0.1,0.8
		c0,0.2,0.1,0.4,0.1,0.6c0,0.2,0,0.3,0.1,0.4c0.1,0.4,0.1,0.7,0.1,1s-0.1,0.5-0.2,0.6c-0.1,0.1-0.2,0.3-0.3,0.4
		c-0.1,0.1-0.2,0.2-0.3,0.3c-0.1,0.1-0.3,0.2-0.5,0.3c-0.2,0.1-0.4,0.1-0.6,0.1c-0.2,0-0.4,0-0.6,0s-0.5-0.1-0.7-0.2
		s-0.4-0.3-0.6-0.5c-0.2-0.2-0.3-0.4-0.3-0.7c0-0.2,0-0.3,0-0.5c0-0.2,0.1-0.3,0.2-0.4c0.1-0.1,0.2-0.2,0.3-0.3
		c0.1-0.1,0.3-0.1,0.5-0.2c0.1,0,0.2,0,0.4,0.1s0.2,0.1,0.3,0.2c0.1,0.1,0.2,0.2,0.3,0.3c0.1,0.1,0.1,0.3,0.1,0.4
		c0,0.2-0.1,0.5-0.2,0.7c-0.2,0.2-0.5,0.4-0.9,0.5c0.1,0.1,0.2,0.2,0.4,0.3c0.2,0.1,0.4,0.1,0.7,0.1c0.3,0,0.6-0.1,0.9-0.3
		c0.3-0.2,0.5-0.4,0.6-0.7c0.1-0.2,0.1-0.4,0.1-0.7c0-0.3,0-0.6-0.1-0.8c0,0,0-0.2-0.1-0.3c0-0.2-0.1-0.4-0.1-0.6
		C530.9,139.9,530.8,139.7,530.8,139.4z M529.4,135.6c-0.2,0.1-0.3,0.2-0.4,0.4c-0.1,0.1-0.2,0.3-0.2,0.4s-0.1,0.3,0,0.4
		s0,0.2,0.1,0.4c0,0.1,0.1,0.2,0.2,0.4c0.1,0.1,0.2,0.2,0.3,0.3c0.1,0.1,0.2,0.2,0.3,0.2c0,0,0,0,0,0c0,0,0,0,0,0c0,0,0,0,0,0
		c-0.2-0.1-0.4-0.2-0.6-0.4c-0.2-0.1-0.3-0.2-0.3-0.3c-0.1-0.1-0.1-0.2-0.2-0.3s-0.1-0.2-0.1-0.3c0-0.1-0.1-0.2-0.1-0.3
		c0-0.1,0-0.2,0-0.4c0-0.1,0-0.3,0-0.5c0-0.2,0.1-0.3,0.2-0.5c0.1-0.2,0.2-0.3,0.3-0.5c0.1-0.2,0.3-0.3,0.4-0.4
		c0.1-0.1,0.2-0.1,0.2-0.2c0.1,0,0.1-0.1,0.2-0.1c0.1,0,0.1-0.1,0.2-0.1s0.1,0,0.2-0.1l-0.3-1.8c-0.1,0-0.2,0.1-0.4,0.3
		s-0.4,0.3-0.6,0.5c-0.2,0.2-0.4,0.4-0.6,0.6s-0.4,0.4-0.5,0.7c-0.2,0.4-0.4,0.7-0.6,1.1s-0.2,0.7-0.2,1.1c0,0.4,0.2,0.8,0.4,1.2
		c0.2,0.4,0.5,0.7,0.9,0.9s0.8,0.4,1.2,0.5s0.9,0.1,1.4,0c-0.1-0.7-0.2-1.3-0.3-1.8c0-0.2-0.1-0.4-0.1-0.7c0-0.2-0.1-0.4-0.1-0.6
		s-0.1-0.4-0.1-0.6C529.9,135.5,529.6,135.5,529.4,135.6z M531,126.6c-0.3,0-0.5,0.1-0.7,0.4s-0.4,0.6-0.5,0.9
		c-0.1,0.4-0.2,0.8-0.2,1.2c0,0.5,0,0.9,0,1.3c0.2-0.2,0.5-0.4,0.7-0.6c0.2-0.2,0.5-0.5,0.7-0.8c0.2-0.3,0.4-0.5,0.5-0.8
		c0.1-0.3,0.2-0.5,0.2-0.8c0-0.1,0-0.2,0-0.3c0-0.1-0.1-0.2-0.1-0.3s-0.1-0.2-0.2-0.2C531.2,126.6,531.1,126.6,531,126.6z M531,139
		c0.3-0.1,0.5-0.2,0.7-0.4s0.3-0.3,0.4-0.5c0.1-0.2,0.1-0.4,0.1-0.6c0-0.2,0-0.4,0-0.5c0-0.1,0-0.3-0.1-0.5c0-0.2-0.1-0.4-0.2-0.5
		c-0.1-0.2-0.3-0.3-0.5-0.4c-0.2-0.1-0.5-0.2-0.9-0.1L531,139z"/>
</g>
<g class="st0">
	<path d="M541.8,130.6c0.2-0.1,0.4,0,0.6,0s0.3,0.2,0.4,0.4c0.1,0.2,0.1,0.3,0.2,0.5c0,0.2,0,0.4,0,0.5c0.1,0,0.3,0,0.4-0.1
		s0.2-0.1,0.4-0.2c0.1-0.1,0.2-0.2,0.3-0.3c0.1-0.1,0.2-0.2,0.3-0.3l0.2,0.1l-1.5,5.7h-0.5c0.1-0.3,0.2-0.6,0.3-0.9
		c0.1-0.2,0.2-0.5,0.2-0.7c0.1-0.3,0.2-0.5,0.2-0.6c0.1-0.4,0.3-0.7,0.4-1.1s0.2-0.6,0.2-0.8c0.1-0.3,0.1-0.5,0.1-0.7
		c-0.1,0.1-0.2,0.1-0.3,0.2s-0.3,0.2-0.5,0.3c-0.2,0.1-0.3,0.2-0.5,0.2s-0.3,0.1-0.5,0.1c-0.4,0-0.6-0.1-0.8-0.3
		c-0.2-0.2-0.3-0.4-0.4-0.7s0-0.5,0.2-0.8C541.2,130.9,541.4,130.7,541.8,130.6z"/>
</g>
<line class="st1" x1="560" y1="131.2" x2="560" y2="122.2"/>
<g class="st0">
	<path d="M556,131.8c0.1-0.2,0.2-0.5,0.4-0.7s0.4-0.4,0.6-0.5c0.2-0.2,0.5-0.3,0.8-0.4c0.3-0.1,0.6-0.1,0.9-0.1s0.5,0,0.8,0.1
		c0.2,0.1,0.4,0.2,0.5,0.4c0.1,0.2,0.2,0.3,0.2,0.6c0,0.2,0,0.4-0.1,0.7s-0.2,0.5-0.4,0.7c-0.2,0.2-0.4,0.4-0.6,0.6
		s-0.5,0.3-0.8,0.4c-0.3,0.1-0.6,0.1-0.8,0.1c-0.3,0-0.5,0-0.7-0.1c-0.2-0.1-0.4-0.2-0.5-0.4c-0.1-0.2-0.2-0.3-0.2-0.6
		C555.8,132.3,555.9,132,556,131.8z"/>
</g>
<g class="st0">
	<path d="M552.1,129.7v-2.2h0.4v2.1l1.3-0.4v-2h0.4v1.8l0.5-0.2v1.4l-0.5,0.2v2l0.5-0.2v1.4l-0.5,0.2v2.2h-0.4v-2.1l-1.3,0.4v2h-0.4
		v-1.9l-0.6,0.2v-1.4l0.6-0.2v-2l-0.6,0.2v-1.4L552.1,129.7z M552.5,130.9v2l1.3-0.4v-2L552.5,130.9z"/>
</g>
<g class="st0">
	<path d="M556,135v-0.4h3.9v0.4H556z"/>
</g>
<line class="st1" x1="584.3" y1="139.7" x2="584.3" y2="128.4"/>
<g class="st0">
	<path d="M580.3,140.2c0.1-0.2,0.2-0.5,0.4-0.7s0.4-0.4,0.6-0.5c0.2-0.2,0.5-0.3,0.8-0.4c0.3-0.1,0.6-0.1,0.9-0.1s0.5,0,0.8,0.1
		c0.2,0.1,0.4,0.2,0.5,0.4c0.1,0.2,0.2,0.3,0.2,0.6c0,0.2,0,0.4-0.1,0.7s-0.2,0.5-0.4,0.7c-0.2,0.2-0.4,0.4-0.6,0.6
		s-0.5,0.3-0.8,0.4c-0.3,0.1-0.6,0.1-0.8,0.1c-0.3,0-0.5,0-0.7-0.1c-0.2-0.1-0.4-0.2-0.5-0.4c-0.1-0.2-0.2-0.3-0.2-0.6
		C580.2,140.7,580.2,140.5,580.3,140.2z"/>
</g>
<g class="st0">
	<path d="M578.6,137.6v7.7h-0.4v-2.9l-1.9,0.5v-7.8h0.3v3L578.6,137.6z M576.7,139.4v2.1l1.5-0.4V139L576.7,139.4z"/>
</g>
<g class="st0">
	<path d="M580.3,143.7v-0.4h3.9v0.4H580.3z"/>
</g>
<g class="st0">
	<path d="M608.3,133.4c0,0.4-0.1,0.7-0.3,1.1c-0.1,0.4-0.3,0.8-0.6,1.3c-0.3,0.5-0.6,1-0.9,1.4s-0.6,0.9-0.8,1.2
		c-0.2,0.3-0.4,0.7-0.6,1.1s-0.3,0.8-0.3,1.2h-0.3v-3.6h0.3c0.1,0,0.3,0,0.4-0.1c0.1,0,0.3-0.1,0.4-0.2c0.2-0.1,0.3-0.2,0.5-0.3
		c0.1-0.1,0.2-0.2,0.4-0.3c0.1-0.1,0.3-0.3,0.5-0.5c0.2-0.2,0.3-0.5,0.5-0.7c0.1-0.3,0.3-0.6,0.4-0.9c0.1-0.4,0.2-0.7,0.2-1
		s0-0.6,0-1c0-0.2,0-0.4-0.1-0.6c0-0.2-0.1-0.4-0.2-0.6c-0.1-0.2-0.1-0.4-0.2-0.6c-0.1-0.2-0.1-0.4-0.2-0.5l0.1-0.1
		c0.1,0.2,0.2,0.4,0.3,0.7s0.2,0.6,0.3,0.9c0.1,0.3,0.1,0.7,0.1,1.1C608.4,132.6,608.4,133,608.3,133.4z"/>
</g>
<line class="st1" x1="604.7" y1="129" x2="604.7" y2="140.2"/>
<g class="st0">
	<path d="M604.6,128.4c0.1-0.2,0.2-0.5,0.4-0.7c0.2-0.2,0.4-0.4,0.6-0.5c0.2-0.2,0.5-0.3,0.8-0.4c0.3-0.1,0.6-0.1,0.9-0.1
		s0.5,0,0.8,0.1c0.2,0.1,0.4,0.2,0.5,0.4c0.1,0.2,0.2,0.3,0.2,0.6c0,0.2,0,0.4-0.1,0.7s-0.2,0.5-0.4,0.7c-0.2,0.2-0.4,0.4-0.6,0.6
		c-0.2,0.2-0.5,0.3-0.8,0.4c-0.3,0.1-0.6,0.1-0.8,0.1c-0.3,0-0.5,0-0.7-0.1c-0.2-0.1-0.4-0.2-0.5-0.4s-0.2-0.3-0.2-0.6
		C604.5,128.9,604.5,128.7,604.6,128.4z"/>
</g>
<g class="st0">
	<path d="M600.9,123.6v2.4v0.9c0.1-0.1,0.2-0.2,0.4-0.3c0.1-0.1,0.2-0.1,0.3-0.2c0.1,0,0.2-0.1,0.3-0.1c0.1,0,0.2,0,0.4,0
		c0.2,0,0.3,0,0.5,0.1c0.1,0.1,0.3,0.2,0.4,0.3c0.1,0.1,0.2,0.2,0.2,0.4c0.1,0.1,0.1,0.3,0.1,0.4c0,0.1,0,0.3,0,0.4
		c0,0.1-0.1,0.3-0.1,0.4c-0.1,0.2-0.2,0.3-0.3,0.4c-0.1,0.1-0.3,0.2-0.4,0.3c0,0-0.1,0.1-0.2,0.2c-0.1,0.1-0.2,0.2-0.4,0.3
		s-0.3,0.2-0.5,0.3c-0.2,0.1-0.3,0.2-0.4,0.3c-0.1,0.1-0.3,0.2-0.5,0.3v-8h0.4V123.6z M602,127.2c0-0.1-0.1-0.1-0.2-0.1
		s-0.2-0.1-0.2-0.1c-0.1,0-0.2,0-0.3,0.1c-0.1,0.1-0.2,0.1-0.2,0.3c-0.1,0.2-0.1,0.4-0.1,0.6c0,0.3,0,0.5,0,0.7v1.2
		c0.1-0.1,0.2-0.2,0.3-0.2c0.1-0.1,0.2-0.1,0.2-0.2c0.1-0.1,0.2-0.2,0.2-0.2c0.1-0.1,0.2-0.2,0.3-0.4c0.1-0.1,0.2-0.3,0.2-0.5
		c0.1-0.2,0.1-0.4,0-0.6C602.2,127.5,602.2,127.3,602,127.2z"/>
</g>
<g class="st0">
	<path d="M605.9,124.6c0-0.2,0.1-0.3,0.2-0.5c0.1-0.1,0.3-0.2,0.5-0.2c0.2,0,0.4,0.1,0.5,0.2c0.1,0.1,0.2,0.3,0.2,0.5
		c0,0.2-0.1,0.4-0.2,0.5c-0.1,0.1-0.3,0.2-0.5,0.2c-0.2,0-0.4-0.1-0.5-0.2S605.9,124.8,605.9,124.6z"/>
</g>
<g class="st0">
	<path d="M558.8,150.7v0.1c-0.1,0-0.2,0-0.3,0.1c-0.1,0-0.1,0.1-0.2,0.2c0,0.1-0.1,0.3-0.2,0.6l-1.2,3.6h-0.1l-1-2.9l-1,2.9h-0.1
		l-1.3-3.7c-0.1-0.3-0.2-0.4-0.2-0.5c0-0.1-0.1-0.1-0.2-0.2c-0.1,0-0.2-0.1-0.3-0.1v-0.1h1.7v0.1h-0.1c-0.1,0-0.2,0-0.3,0.1
		s-0.1,0.1-0.1,0.2c0,0.1,0,0.3,0.1,0.5l0.9,2.5l0.7-2.1l-0.1-0.4l-0.1-0.3c0-0.1-0.1-0.2-0.2-0.3c0,0-0.1-0.1-0.1-0.1
		c-0.1,0-0.1-0.1-0.2-0.1c0,0-0.1,0-0.2,0v-0.1h1.7v0.1h-0.1c-0.1,0-0.2,0-0.3,0.1c-0.1,0.1-0.1,0.1-0.1,0.2c0,0.1,0,0.3,0.1,0.6
		l0.9,2.4l0.9-2.5c0.1-0.3,0.1-0.5,0.1-0.6c0,0,0-0.1,0-0.1s-0.1-0.1-0.1-0.1c-0.1,0-0.2,0-0.3,0v-0.1H558.8z"/>
</g>
<g class="st0">
	<path d="M559.9,152v2.4c0,0.2,0,0.3,0,0.4s0.1,0.1,0.1,0.1c0.1,0,0.2,0,0.3,0v0.1h-1.5V155c0.1,0,0.2,0,0.3,0c0,0,0.1-0.1,0.1-0.1
		c0-0.1,0-0.2,0-0.4v-1.2c0-0.3,0-0.5,0-0.6c0-0.1,0-0.1-0.1-0.1c0,0-0.1,0-0.1,0c-0.1,0-0.1,0-0.2,0l0-0.1l0.9-0.4H559.9z
		 M559.6,150.4c0.1,0,0.2,0,0.2,0.1c0.1,0.1,0.1,0.1,0.1,0.2c0,0.1,0,0.2-0.1,0.2c-0.1,0.1-0.1,0.1-0.2,0.1c-0.1,0-0.2,0-0.2-0.1
		c-0.1-0.1-0.1-0.1-0.1-0.2c0-0.1,0-0.2,0.1-0.2C559.4,150.5,559.5,150.4,559.6,150.4z"/>
	<path d="M561.2,153.2c0,0.4,0.1,0.8,0.3,1.1s0.5,0.4,0.8,0.4c0.2,0,0.4-0.1,0.5-0.2c0.1-0.1,0.3-0.3,0.4-0.6l0.1,0.1
		c0,0.3-0.2,0.6-0.4,0.8s-0.5,0.4-0.8,0.4c-0.4,0-0.7-0.1-0.9-0.4c-0.3-0.3-0.4-0.7-0.4-1.1c0-0.5,0.1-0.9,0.4-1.2s0.6-0.4,1-0.4
		c0.3,0,0.6,0.1,0.8,0.3c0.2,0.2,0.3,0.5,0.3,0.9H561.2z M561.2,153.1h1.4c0-0.2,0-0.3-0.1-0.4c-0.1-0.1-0.1-0.2-0.2-0.3
		c-0.1-0.1-0.2-0.1-0.3-0.1c-0.2,0-0.3,0.1-0.5,0.2C561.3,152.6,561.2,152.8,561.2,153.1z"/>
</g>
<g class="st0">
	<path d="M579.1,152.6c0.3-0.4,0.6-0.6,0.9-0.6c0.3,0,0.6,0.1,0.8,0.4s0.3,0.6,0.3,1.1c0,0.5-0.2,1-0.5,1.3c-0.3,0.3-0.6,0.4-1,0.4
		c-0.2,0-0.4,0-0.5-0.1c-0.2-0.1-0.4-0.2-0.6-0.3v-3.1c0-0.3,0-0.6,0-0.6s0-0.1-0.1-0.2s-0.1,0-0.1,0c-0.1,0-0.1,0-0.2,0.1l0-0.1
		l0.9-0.4h0.1V152.6z M579.1,152.8v1.8c0.1,0.1,0.2,0.2,0.3,0.2s0.2,0.1,0.4,0.1c0.2,0,0.4-0.1,0.6-0.3c0.2-0.2,0.3-0.5,0.3-1
		c0-0.4-0.1-0.7-0.3-0.9c-0.2-0.2-0.4-0.3-0.6-0.3c-0.1,0-0.2,0-0.3,0.1C579.3,152.6,579.2,152.7,579.1,152.8z"/>
	<path d="M582.7,152v2.4c0,0.2,0,0.3,0,0.4c0,0.1,0.1,0.1,0.1,0.1c0.1,0,0.2,0,0.3,0v0.1h-1.5V155c0.1,0,0.2,0,0.3,0
		c0.1,0,0.1-0.1,0.1-0.1c0-0.1,0-0.2,0-0.4v-1.2c0-0.3,0-0.5,0-0.6c0-0.1,0-0.1-0.1-0.1c0,0-0.1,0-0.1,0c-0.1,0-0.1,0-0.2,0l0-0.1
		l0.9-0.4H582.7z M582.4,150.4c0.1,0,0.2,0,0.2,0.1c0.1,0.1,0.1,0.1,0.1,0.2c0,0.1,0,0.2-0.1,0.2c-0.1,0.1-0.1,0.1-0.2,0.1
		c-0.1,0-0.2,0-0.2-0.1c-0.1-0.1-0.1-0.1-0.1-0.2c0-0.1,0-0.2,0.1-0.2C582.2,150.5,582.3,150.4,582.4,150.4z"/>
	<path d="M584.4,152.7c0.4-0.4,0.7-0.6,1-0.6c0.2,0,0.3,0,0.4,0.1c0.1,0.1,0.2,0.2,0.3,0.4c0,0.1,0.1,0.3,0.1,0.6v1.3
		c0,0.2,0,0.3,0,0.4c0,0.1,0.1,0.1,0.1,0.1c0.1,0,0.2,0,0.3,0v0.1h-1.5V155h0.1c0.1,0,0.2,0,0.3-0.1c0.1,0,0.1-0.1,0.1-0.2
		c0,0,0-0.1,0-0.3v-1.2c0-0.3,0-0.5-0.1-0.6s-0.2-0.2-0.4-0.2c-0.3,0-0.5,0.1-0.8,0.4v1.6c0,0.2,0,0.3,0,0.4c0,0.1,0.1,0.1,0.1,0.1
		c0.1,0,0.2,0,0.3,0v0.1h-1.5V155h0.1c0.2,0,0.3,0,0.3-0.1s0.1-0.2,0.1-0.4v-1.1c0-0.4,0-0.6,0-0.7c0-0.1,0-0.1-0.1-0.2
		c0,0-0.1,0-0.1,0c-0.1,0-0.1,0-0.2,0l0-0.1l0.9-0.4h0.1V152.7z"/>
</g>
<g class="st0">
	<path d="M603.8,152v2.4c0,0.2,0,0.3,0,0.4s0.1,0.1,0.1,0.1c0.1,0,0.2,0,0.3,0v0.1h-1.5V155c0.1,0,0.2,0,0.3,0c0,0,0.1-0.1,0.1-0.1
		c0-0.1,0-0.2,0-0.4v-1.2c0-0.3,0-0.5,0-0.6c0-0.1,0-0.1-0.1-0.1c0,0-0.1,0-0.1,0c-0.1,0-0.1,0-0.2,0l0-0.1l0.9-0.4H603.8z
		 M603.5,150.4c0.1,0,0.2,0,0.2,0.1c0.1,0.1,0.1,0.1,0.1,0.2c0,0.1,0,0.2-0.1,0.2c-0.1,0.1-0.1,0.1-0.2,0.1c-0.1,0-0.2,0-0.2-0.1
		c-0.1-0.1-0.1-0.1-0.1-0.2c0-0.1,0-0.2,0.1-0.2C603.4,150.5,603.4,150.4,603.5,150.4z"/>
	<path d="M607.2,154c-0.1,0.4-0.2,0.7-0.5,0.9c-0.2,0.2-0.5,0.3-0.8,0.3c-0.3,0-0.6-0.1-0.9-0.4c-0.3-0.3-0.4-0.7-0.4-1.2
		c0-0.5,0.1-0.9,0.4-1.2s0.6-0.4,1-0.4c0.3,0,0.5,0.1,0.7,0.2s0.3,0.3,0.3,0.5c0,0.1,0,0.2-0.1,0.2c-0.1,0.1-0.1,0.1-0.2,0.1
		c-0.1,0-0.2,0-0.3-0.1c0,0-0.1-0.1-0.1-0.3c0-0.1-0.1-0.2-0.1-0.3c-0.1-0.1-0.2-0.1-0.3-0.1c-0.2,0-0.4,0.1-0.5,0.2
		c-0.2,0.2-0.3,0.5-0.3,0.9c0,0.4,0.1,0.7,0.3,1c0.2,0.3,0.4,0.4,0.7,0.4c0.2,0,0.4-0.1,0.6-0.2C606.9,154.4,607,154.2,607.2,154
		L607.2,154z"/>
	<path d="M608.5,150.4v2.2c0.2-0.3,0.4-0.4,0.6-0.5c0.1-0.1,0.3-0.1,0.4-0.1c0.2,0,0.3,0,0.4,0.1c0.1,0.1,0.2,0.2,0.3,0.4
		c0,0.1,0.1,0.4,0.1,0.8v1.1c0,0.2,0,0.3,0,0.4c0,0.1,0.1,0.1,0.1,0.1c0.1,0,0.1,0,0.3,0v0.1h-1.5V155h0.1c0.1,0,0.2,0,0.3-0.1
		s0.1-0.1,0.1-0.2c0,0,0-0.1,0-0.3v-1.1c0-0.3,0-0.5-0.1-0.6s-0.1-0.2-0.2-0.2c-0.1-0.1-0.2-0.1-0.3-0.1c-0.1,0-0.2,0-0.3,0.1
		c-0.1,0.1-0.3,0.2-0.4,0.3v1.6c0,0.2,0,0.3,0,0.4c0,0.1,0.1,0.1,0.1,0.1s0.2,0.1,0.3,0.1v0.1h-1.5V155c0.1,0,0.2,0,0.3-0.1
		c0,0,0.1-0.1,0.1-0.1s0-0.2,0-0.4v-2.7c0-0.3,0-0.6,0-0.6c0-0.1,0-0.1-0.1-0.2s-0.1,0-0.1,0c0,0-0.1,0-0.2,0.1l0-0.1l0.9-0.4H608.5
		z"/>
</g>
<g class="st0">
	<path d="M530.2,110.3c0,0.4-0.1,0.7-0.2,0.9c-0.1,0.3-0.3,0.5-0.6,0.7s-0.5,0.3-0.8,0.4c-0.3,0.1-0.6,0.1-0.9,0.1
		c-0.1,0-0.2,0-0.4-0.1c-0.2,0-0.3-0.1-0.5-0.2s-0.3-0.2-0.5-0.3s-0.3-0.2-0.4-0.4c-0.2-0.2-0.3-0.5-0.5-0.9
		c-0.2-0.4-0.2-0.8-0.2-1.3c0-0.3,0-0.6,0.1-0.9c0.1-0.3,0.1-0.6,0.2-0.8c0.1-0.2,0.2-0.5,0.3-0.6c0.1-0.2,0.2-0.3,0.3-0.4
		c0.1-0.1,0.3-0.3,0.4-0.4c0.1-0.1,0.3-0.2,0.4-0.2c0.1-0.1,0.3-0.1,0.5-0.1c0.2,0,0.4,0,0.6,0c0.2,0,0.4,0,0.6,0.1
		c0.2,0.1,0.4,0.1,0.6,0.3c0.2,0.1,0.3,0.3,0.5,0.4c0.1,0.2,0.2,0.4,0.2,0.6c0,0.1,0,0.2,0,0.3c0,0.1-0.1,0.2-0.1,0.3
		c-0.1,0.1-0.1,0.2-0.2,0.2c-0.1,0.1-0.2,0.1-0.4,0.1c-0.2,0-0.4,0-0.5-0.1s-0.2-0.2-0.3-0.3s-0.1-0.2-0.2-0.3c0-0.1,0-0.2,0-0.3
		c0-0.1,0.1-0.2,0.1-0.2c0,0,0.1-0.1,0.1-0.1c0,0,0-0.1,0.1-0.1c0,0,0-0.1,0-0.2c0-0.1,0-0.1-0.1-0.2c-0.1-0.1-0.2-0.1-0.4-0.1
		c-0.2,0-0.4,0.1-0.6,0.2c-0.2,0.2-0.3,0.5-0.4,0.9c0,0.1,0,0.2-0.1,0.3c0,0.1-0.1,0.3-0.1,0.5s0,0.3-0.1,0.5c0,0.2,0,0.3,0,0.5
		c0.2-0.1,0.3-0.2,0.4-0.3c0.1-0.1,0.3-0.1,0.4-0.2c0.1,0,0.3-0.1,0.4-0.1c0.2,0,0.3,0,0.5,0c0.2,0,0.5,0,0.6,0.1
		c0.2,0.1,0.4,0.2,0.5,0.4c0.1,0.2,0.3,0.3,0.3,0.5C530.2,109.9,530.2,110.1,530.2,110.3z M526.8,110.7c0,0.1,0,0.2,0,0.4
		c0,0.2,0.1,0.3,0.1,0.5c0.1,0.2,0.2,0.3,0.2,0.4c0.1,0.1,0.2,0.2,0.4,0.2c0.2,0,0.3-0.1,0.5-0.2c0.1-0.1,0.2-0.3,0.3-0.5
		c0.1-0.2,0.1-0.4,0.1-0.6c0-0.2,0-0.4,0-0.5c0-0.1,0-0.2,0-0.3s-0.1-0.3-0.2-0.4s-0.2-0.2-0.3-0.3c-0.1-0.1-0.3-0.1-0.4-0.1
		c-0.2,0-0.4,0.1-0.5,0.2c-0.1,0.1-0.2,0.3-0.2,0.5c0,0.2-0.1,0.3-0.1,0.5C526.8,110.5,526.8,110.7,526.8,110.7z"/>
</g>
<g class="st0">
	<path d="M530.2,117.4c0,0.3-0.1,0.7-0.2,0.9s-0.4,0.5-0.6,0.7c-0.2,0.2-0.5,0.3-0.8,0.5c-0.3,0.1-0.6,0.2-0.9,0.2
		c-0.3,0-0.6,0-0.8-0.1c-0.3-0.1-0.6-0.2-0.8-0.3s-0.4-0.3-0.6-0.5s-0.2-0.5-0.2-0.8c0-0.2,0-0.4,0.1-0.6c0.1-0.2,0.2-0.3,0.3-0.5
		c0.1-0.1,0.2-0.2,0.3-0.3s0.2-0.2,0.3-0.2c-0.3-0.2-0.6-0.4-0.7-0.7c-0.1-0.3-0.2-0.6-0.2-0.8c0-0.3,0.1-0.6,0.2-0.8
		c0.1-0.2,0.3-0.4,0.5-0.6s0.5-0.3,0.8-0.3s0.6-0.1,0.9-0.1c0.4,0,0.8,0,1.1,0.1c0.3,0.1,0.5,0.2,0.7,0.4c0.2,0.2,0.3,0.3,0.4,0.5
		c0.1,0.2,0.1,0.4,0.1,0.6c0,0.3,0,0.5-0.2,0.7s-0.3,0.4-0.5,0.6c0.2,0.1,0.5,0.3,0.6,0.5C530.1,116.8,530.2,117.1,530.2,117.4z
		 M528.8,118.2c0-0.3-0.1-0.5-0.3-0.7c-0.2-0.2-0.4-0.3-0.7-0.5c-0.3-0.1-0.5-0.2-0.8-0.3c-0.3-0.1-0.5-0.1-0.6-0.1
		c-0.2,0.1-0.4,0.3-0.5,0.4c-0.1,0.1-0.2,0.4-0.2,0.7c0,0.2,0,0.4,0.1,0.6c0.1,0.2,0.2,0.4,0.3,0.5s0.3,0.2,0.5,0.3s0.5,0.1,0.8,0.1
		c0.1,0,0.2,0,0.4-0.1c0.2-0.1,0.3-0.1,0.4-0.2c0.1-0.1,0.3-0.2,0.4-0.3S528.8,118.3,528.8,118.2z M529.3,114.7
		c0-0.2-0.1-0.3-0.1-0.5c-0.1-0.2-0.1-0.3-0.3-0.4c-0.1-0.1-0.3-0.2-0.5-0.3c-0.2-0.1-0.5-0.1-0.8-0.1c-0.2,0-0.3,0-0.5,0.1
		c-0.2,0-0.3,0.1-0.4,0.2c-0.1,0.1-0.2,0.2-0.3,0.3c-0.1,0.1-0.1,0.2-0.1,0.4c0,0.1,0.1,0.3,0.4,0.4c0.2,0.1,0.4,0.3,0.7,0.4
		c0.3,0.1,0.5,0.2,0.8,0.3c0.3,0.1,0.5,0.2,0.6,0.2c0.1-0.1,0.2-0.3,0.3-0.5C529.3,115,529.3,114.9,529.3,114.7z"/>
</g>
<line class="st1" x1="632.4" y1="136.3" x2="632.4" y2="125"/>
<g class="st0">
	<path d="M628.4,136.9c0.1-0.2,0.2-0.5,0.4-0.7s0.4-0.4,0.6-0.5c0.2-0.2,0.5-0.3,0.8-0.4c0.3-0.1,0.6-0.1,0.9-0.1s0.5,0,0.8,0.1
		c0.2,0.1,0.4,0.2,0.5,0.4c0.1,0.2,0.2,0.3,0.2,0.6c0,0.2,0,0.4-0.1,0.7s-0.2,0.5-0.4,0.7c-0.2,0.2-0.4,0.4-0.6,0.6
		s-0.5,0.3-0.8,0.4c-0.3,0.1-0.6,0.1-0.8,0.1c-0.3,0-0.5,0-0.7-0.1c-0.2-0.1-0.4-0.2-0.5-0.4c-0.1-0.2-0.2-0.3-0.2-0.6
		C628.3,137.3,628.3,137.1,628.4,136.9z"/>
</g>
<g class="st0">
	<path d="M626.7,134.2v7.7h-0.4V139l-1.9,0.5v-7.8h0.3v3L626.7,134.2z M624.8,136v2.1l1.5-0.4v-2.1L624.8,136z"/>
</g>
<g class="st0">
	<path d="M661.6,131.7c0,0.4-0.1,0.7-0.3,1.1c-0.1,0.4-0.3,0.8-0.6,1.3c-0.3,0.5-0.6,1-0.9,1.4s-0.6,0.9-0.8,1.2
		c-0.2,0.3-0.4,0.7-0.6,1.1s-0.3,0.8-0.3,1.2h-0.3v-3.6h0.3c0.1,0,0.3,0,0.4-0.1c0.1,0,0.3-0.1,0.4-0.2c0.2-0.1,0.3-0.2,0.5-0.3
		c0.1-0.1,0.2-0.2,0.4-0.3c0.1-0.1,0.3-0.3,0.5-0.5c0.2-0.2,0.3-0.5,0.5-0.7c0.1-0.3,0.3-0.6,0.4-0.9c0.1-0.4,0.2-0.7,0.2-1
		c0-0.3,0-0.6,0-1c0-0.2,0-0.4-0.1-0.6c0-0.2-0.1-0.4-0.2-0.6c-0.1-0.2-0.1-0.4-0.2-0.6s-0.1-0.4-0.2-0.5l0.1-0.1
		c0.1,0.2,0.2,0.4,0.3,0.7s0.2,0.6,0.3,0.9c0.1,0.3,0.1,0.7,0.1,1.1S661.6,131.3,661.6,131.7z"/>
</g>
<line class="st1" x1="658" y1="127.3" x2="658" y2="138.5"/>
<g class="st0">
	<path d="M657.9,126.7c0.1-0.2,0.2-0.5,0.4-0.7s0.4-0.4,0.6-0.5s0.5-0.3,0.8-0.4c0.3-0.1,0.6-0.1,0.9-0.1s0.5,0,0.8,0.1
		c0.2,0.1,0.4,0.2,0.5,0.4c0.1,0.2,0.2,0.3,0.2,0.6c0,0.2,0,0.4-0.1,0.7s-0.2,0.5-0.4,0.7c-0.2,0.2-0.4,0.4-0.6,0.6
		c-0.2,0.2-0.5,0.3-0.8,0.4c-0.3,0.1-0.6,0.1-0.8,0.1c-0.3,0-0.5,0-0.8-0.1c-0.2-0.1-0.4-0.2-0.5-0.4c-0.1-0.2-0.2-0.3-0.2-0.6
		C657.8,127.2,657.8,127,657.9,126.7z"/>
</g>
<g class="st0">
	<path d="M654,124.6v-2.2h0.4v2.1l1.3-0.4v-2h0.4v1.8l0.5-0.2v1.4l-0.5,0.2v2l0.5-0.2v1.4l-0.5,0.2v2.2h-0.4v-2.1l-1.3,0.4v2H654
		v-1.9l-0.6,0.2v-1.4l0.6-0.2v-2l-0.6,0.2v-1.4L654,124.6z M654.4,125.9v2l1.3-0.4v-2L654.4,125.9z"/>
</g>
<line class="st1" x1="676.4" y1="137.4" x2="676.4" y2="146.4"/>
<g class="st0">
	<path d="M676.3,136.9c0.1-0.2,0.2-0.5,0.4-0.7c0.2-0.2,0.4-0.4,0.6-0.5c0.2-0.2,0.5-0.3,0.8-0.4c0.3-0.1,0.6-0.1,0.9-0.1
		s0.5,0,0.8,0.1c0.2,0.1,0.4,0.2,0.5,0.4c0.1,0.2,0.2,0.3,0.2,0.6c0,0.2,0,0.4-0.1,0.7s-0.2,0.5-0.4,0.7c-0.2,0.2-0.4,0.4-0.6,0.6
		c-0.2,0.2-0.5,0.3-0.8,0.4c-0.3,0.1-0.6,0.1-0.8,0.1c-0.3,0-0.5,0-0.8-0.1c-0.2-0.1-0.4-0.2-0.5-0.4s-0.2-0.3-0.2-0.6
		C676.2,137.3,676.2,137.1,676.3,136.9z"/>
</g>
<g class="st0">
	<path d="M674.7,134.2v7.7h-0.4V139l-1.9,0.5v-7.8h0.3v3L674.7,134.2z M672.8,136v2.1l1.5-0.4v-2.1L672.8,136z"/>
</g>
<g class="st0">
	<path d="M706.7,130.6c0.2-0.1,0.4,0,0.6,0s0.3,0.2,0.4,0.4s0.1,0.3,0.2,0.5s0,0.4,0,0.5c0.1,0,0.3,0,0.4-0.1s0.2-0.1,0.4-0.2
		c0.1-0.1,0.2-0.2,0.3-0.3c0.1-0.1,0.2-0.2,0.3-0.3l0.2,0.1l-1.5,5.7h-0.5c0.1-0.3,0.2-0.6,0.3-0.9c0.1-0.2,0.2-0.5,0.2-0.7
		c0.1-0.3,0.2-0.5,0.2-0.6c0.1-0.4,0.3-0.7,0.4-1.1s0.2-0.6,0.2-0.8c0.1-0.3,0.1-0.5,0.1-0.7c-0.1,0.1-0.2,0.1-0.3,0.2
		c-0.1,0.1-0.3,0.2-0.5,0.3c-0.2,0.1-0.3,0.2-0.5,0.2s-0.3,0.1-0.5,0.1c-0.4,0-0.6-0.1-0.8-0.3c-0.2-0.2-0.3-0.4-0.4-0.7
		c0-0.3,0-0.5,0.2-0.8C706.1,130.9,706.4,130.7,706.7,130.6z"/>
</g>
<g class="st0">
	<path d="M725,130.6c0.2-0.1,0.4,0,0.6,0s0.3,0.2,0.4,0.4c0.1,0.2,0.1,0.3,0.2,0.5c0,0.2,0,0.4,0,0.5c0.1,0,0.3,0,0.4-0.1
		s0.2-0.1,0.4-0.2c0.1-0.1,0.2-0.2,0.3-0.3c0.1-0.1,0.2-0.2,0.3-0.3l0.2,0.1l-1.5,5.7h-0.5c0.1-0.3,0.2-0.6,0.3-0.9
		c0.1-0.2,0.2-0.5,0.2-0.7c0.1-0.3,0.2-0.5,0.2-0.6c0.1-0.4,0.3-0.7,0.4-1.1s0.2-0.6,0.2-0.8c0.1-0.3,0.1-0.5,0.1-0.7
		c-0.1,0.1-0.2,0.1-0.3,0.2s-0.3,0.2-0.5,0.3c-0.2,0.1-0.3,0.2-0.5,0.2s-0.3,0.1-0.5,0.1c-0.4,0-0.6-0.1-0.8-0.3
		c-0.2-0.2-0.3-0.4-0.4-0.7s0-0.5,0.2-0.8C724.4,130.9,724.7,130.7,725,130.6z"/>
</g>
<g class="st0">
	<path d="M742.6,133.5c0.1-0.2,0.2-0.5,0.4-0.7s0.4-0.4,0.6-0.5s0.5-0.3,0.8-0.4c0.3-0.1,0.6-0.1,0.9-0.1s0.5,0,0.8,0.1
		c0.2,0.1,0.4,0.2,0.5,0.4c0.1,0.2,0.2,0.3,0.2,0.6c0,0.2,0,0.4-0.1,0.7s-0.2,0.5-0.4,0.7c-0.2,0.2-0.4,0.4-0.6,0.6
		s-0.5,0.3-0.8,0.4c-0.3,0.1-0.6,0.1-0.8,0.1c-0.3,0-0.5,0-0.8-0.1c-0.2-0.1-0.4-0.2-0.5-0.4c-0.1-0.2-0.2-0.3-0.2-0.6
		C742.5,134,742.5,133.7,742.6,133.5z"/>
</g>
<g class="st0">
	<path d="M738.9,128.7v2.4v0.9c0.1-0.1,0.2-0.2,0.4-0.3c0.1-0.1,0.2-0.1,0.3-0.2c0.1,0,0.2-0.1,0.3-0.1c0.1,0,0.2,0,0.4,0
		c0.2,0,0.3,0,0.5,0.1c0.1,0.1,0.3,0.2,0.4,0.3c0.1,0.1,0.2,0.2,0.2,0.4c0.1,0.1,0.1,0.3,0.1,0.4c0,0.1,0,0.3,0,0.4
		s-0.1,0.3-0.1,0.4c-0.1,0.2-0.2,0.3-0.3,0.4c-0.1,0.1-0.3,0.2-0.4,0.3c0,0-0.1,0.1-0.2,0.2c-0.1,0.1-0.2,0.2-0.4,0.3
		s-0.3,0.2-0.5,0.3c-0.2,0.1-0.3,0.2-0.4,0.3c-0.1,0.1-0.3,0.2-0.5,0.3v-8h0.4V128.7z M740,132.2c0-0.1-0.1-0.1-0.2-0.1
		s-0.2-0.1-0.2-0.1c-0.1,0-0.2,0-0.3,0.1c-0.1,0.1-0.2,0.1-0.2,0.3c-0.1,0.2-0.1,0.4-0.1,0.6c0,0.3,0,0.5,0,0.7v1.2
		c0.1-0.1,0.2-0.2,0.3-0.2c0.1-0.1,0.2-0.1,0.2-0.2c0.1-0.1,0.2-0.2,0.2-0.2c0.1-0.1,0.2-0.2,0.3-0.4c0.1-0.1,0.2-0.3,0.2-0.5
		c0.1-0.2,0.1-0.4,0-0.6C740.2,132.6,740.1,132.4,740,132.2z"/>
</g>
<line class="st1" x1="742.7" y1="134" x2="742.7" y2="144.4"/>
<g class="st0">
	<path d="M769.6,133.5c0.1-0.2,0.2-0.5,0.4-0.7s0.4-0.4,0.6-0.5s0.5-0.3,0.8-0.4c0.3-0.1,0.6-0.1,0.9-0.1s0.5,0,0.8,0.1
		c0.2,0.1,0.4,0.2,0.5,0.4c0.1,0.2,0.2,0.3,0.2,0.6c0,0.2,0,0.4-0.1,0.7s-0.2,0.5-0.4,0.7c-0.2,0.2-0.4,0.4-0.6,0.6
		s-0.5,0.3-0.8,0.4c-0.3,0.1-0.6,0.1-0.8,0.1c-0.3,0-0.5,0-0.8-0.1c-0.2-0.1-0.4-0.2-0.5-0.4c-0.1-0.2-0.2-0.3-0.2-0.6
		C769.5,134,769.5,133.7,769.6,133.5z"/>
</g>
<line class="st1" x1="769.7" y1="134" x2="769.7" y2="144.4"/>
<line class="st4" x1="786.6" y1="123.3" x2="792.7" y2="123.3"/>
<g class="st0">
	<path d="M787.6,123.4c0.1-0.2,0.2-0.5,0.4-0.7s0.4-0.4,0.6-0.5s0.5-0.3,0.8-0.4c0.3-0.1,0.6-0.1,0.9-0.1s0.5,0,0.8,0.1
		c0.2,0.1,0.4,0.2,0.5,0.4c0.1,0.2,0.2,0.3,0.2,0.6c0,0.2,0,0.4-0.1,0.7s-0.2,0.5-0.4,0.7c-0.2,0.2-0.4,0.4-0.6,0.6
		s-0.5,0.3-0.8,0.4c-0.3,0.1-0.6,0.1-0.8,0.1c-0.3,0-0.5,0-0.8-0.1c-0.2-0.1-0.4-0.2-0.5-0.4c-0.1-0.2-0.2-0.3-0.2-0.6
		C787.5,123.8,787.5,123.6,787.6,123.4z"/>
</g>
<g class="st0">
	<path d="M783.9,118.6v2.4v0.9c0.1-0.1,0.2-0.2,0.4-0.3c0.1-0.1,0.2-0.1,0.3-0.2c0.1,0,0.2-0.1,0.3-0.1c0.1,0,0.2,0,0.4,0
		c0.2,0,0.3,0,0.5,0.1c0.1,0.1,0.3,0.2,0.4,0.3c0.1,0.1,0.2,0.2,0.2,0.4c0.1,0.1,0.1,0.3,0.1,0.4c0,0.1,0,0.3,0,0.4
		s-0.1,0.3-0.1,0.4c-0.1,0.2-0.2,0.3-0.3,0.4c-0.1,0.1-0.3,0.2-0.4,0.3c0,0-0.1,0.1-0.2,0.2c-0.1,0.1-0.2,0.2-0.4,0.3
		s-0.3,0.2-0.5,0.3c-0.2,0.1-0.3,0.2-0.4,0.3c-0.1,0.1-0.3,0.2-0.5,0.3v-8h0.4V118.6z M785,122.1c0-0.1-0.1-0.1-0.2-0.1
		s-0.2-0.1-0.2-0.1c-0.1,0-0.2,0-0.3,0.1c-0.1,0.1-0.2,0.1-0.2,0.3c-0.1,0.2-0.1,0.4-0.1,0.6c0,0.3,0,0.5,0,0.7v1.2
		c0.1-0.1,0.2-0.2,0.3-0.2c0.1-0.1,0.2-0.1,0.2-0.2c0.1-0.1,0.2-0.2,0.2-0.2c0.1-0.1,0.2-0.2,0.3-0.4c0.1-0.1,0.2-0.3,0.2-0.5
		c0.1-0.2,0.1-0.4,0-0.6C785.2,122.4,785.1,122.3,785,122.1z"/>
</g>
<line class="st1" x1="787.7" y1="123.9" x2="787.7" y2="144.4"/>
<path d="M742.5,143.6h45.4v1.7h-45.4V143.6z"/>
<g class="st0">
	<path d="M626.2,152.3v2c0,0.3,0,0.5,0.1,0.5c0.1,0.1,0.2,0.1,0.3,0.1h0.3v0.1h-1.8V155h0.1c0.1,0,0.2,0,0.2-0.1s0.1-0.1,0.1-0.2
		c0-0.1,0-0.2,0-0.4v-2h-0.6v-0.2h0.6v-0.2c0-0.3,0-0.6,0.1-0.8s0.2-0.4,0.4-0.5s0.4-0.2,0.7-0.2c0.2,0,0.4,0.1,0.6,0.2
		c0.1,0.1,0.2,0.2,0.2,0.3c0,0.1,0,0.1-0.1,0.2c-0.1,0.1-0.1,0.1-0.2,0.1c-0.1,0-0.1,0-0.2-0.1c-0.1,0-0.1-0.1-0.2-0.2
		c-0.1-0.1-0.2-0.2-0.2-0.2c-0.1,0-0.1-0.1-0.2-0.1c-0.1,0-0.2,0-0.3,0.1s-0.1,0.1-0.2,0.3c0,0.1,0,0.4,0,0.9v0.2h0.8v0.2H626.2z"/>
	<path d="M628.2,152v0.7c0.3-0.5,0.5-0.7,0.8-0.7c0.1,0,0.2,0,0.3,0.1c0.1,0.1,0.1,0.2,0.1,0.3c0,0.1,0,0.2-0.1,0.2
		c-0.1,0.1-0.1,0.1-0.2,0.1c-0.1,0-0.2,0-0.3-0.1c-0.1-0.1-0.2-0.1-0.2-0.1c0,0-0.1,0-0.1,0.1c-0.1,0.1-0.2,0.2-0.3,0.4v1.4
		c0,0.2,0,0.3,0.1,0.4c0,0.1,0.1,0.1,0.2,0.1c0.1,0,0.2,0.1,0.3,0.1v0.1h-1.5V155c0.2,0,0.3,0,0.3-0.1c0.1,0,0.1-0.1,0.1-0.2
		c0,0,0-0.1,0-0.3v-1.2c0-0.4,0-0.6,0-0.6c0-0.1,0-0.1-0.1-0.1c0,0-0.1,0-0.1,0c-0.1,0-0.1,0-0.2,0l0-0.1l0.9-0.4H628.2z"/>
	<path d="M631,152c0.5,0,0.8,0.2,1.1,0.5c0.2,0.3,0.4,0.6,0.4,1c0,0.3-0.1,0.5-0.2,0.8c-0.1,0.3-0.3,0.5-0.5,0.6
		c-0.2,0.1-0.5,0.2-0.8,0.2c-0.5,0-0.8-0.2-1.1-0.5c-0.2-0.3-0.3-0.6-0.3-1c0-0.3,0.1-0.6,0.2-0.8c0.1-0.3,0.3-0.5,0.5-0.6
		C630.5,152.1,630.7,152,631,152z M630.9,152.2c-0.1,0-0.2,0-0.4,0.1c-0.1,0.1-0.2,0.2-0.3,0.4s-0.1,0.4-0.1,0.7
		c0,0.4,0.1,0.8,0.3,1.1c0.2,0.3,0.4,0.5,0.7,0.5c0.2,0,0.4-0.1,0.5-0.3s0.2-0.5,0.2-0.9c0-0.5-0.1-1-0.3-1.3
		C631.3,152.3,631.1,152.2,630.9,152.2z"/>
	<path d="M633.8,150.4v2.2c0.2-0.3,0.4-0.4,0.6-0.5c0.1-0.1,0.3-0.1,0.4-0.1c0.2,0,0.3,0,0.4,0.1c0.1,0.1,0.2,0.2,0.3,0.4
		c0,0.1,0.1,0.4,0.1,0.8v1.1c0,0.2,0,0.3,0,0.4c0,0.1,0.1,0.1,0.1,0.1c0.1,0,0.1,0,0.3,0v0.1h-1.5V155h0.1c0.1,0,0.2,0,0.3-0.1
		c0.1,0,0.1-0.1,0.1-0.2c0,0,0-0.1,0-0.3v-1.1c0-0.3,0-0.5-0.1-0.6s-0.1-0.2-0.2-0.2c-0.1-0.1-0.2-0.1-0.3-0.1c-0.1,0-0.2,0-0.3,0.1
		c-0.1,0.1-0.3,0.2-0.4,0.3v1.6c0,0.2,0,0.3,0,0.4c0,0.1,0.1,0.1,0.1,0.1s0.2,0.1,0.3,0.1v0.1h-1.5V155c0.1,0,0.2,0,0.3-0.1
		c0,0,0.1-0.1,0.1-0.1s0-0.2,0-0.4v-2.7c0-0.3,0-0.6,0-0.6s0-0.1-0.1-0.2c0,0-0.1,0-0.1,0c0,0-0.1,0-0.2,0.1l0-0.1l0.9-0.4H633.8z"
		/>
</g>
<g class="st0">
	<path d="M654.6,152.3v2c0,0.3,0,0.5,0.1,0.5c0.1,0.1,0.2,0.1,0.3,0.1h0.3v0.1h-1.8V155h0.1c0.1,0,0.2,0,0.2-0.1s0.1-0.1,0.1-0.2
		c0-0.1,0-0.2,0-0.4v-2h-0.6v-0.2h0.6v-0.2c0-0.3,0-0.6,0.1-0.8s0.2-0.4,0.4-0.5s0.4-0.2,0.7-0.2c0.2,0,0.4,0.1,0.6,0.2
		c0.1,0.1,0.2,0.2,0.2,0.3c0,0.1,0,0.1-0.1,0.2c-0.1,0.1-0.1,0.1-0.2,0.1c-0.1,0-0.1,0-0.2-0.1c-0.1,0-0.1-0.1-0.2-0.2
		c-0.1-0.1-0.2-0.2-0.2-0.2c-0.1,0-0.1-0.1-0.2-0.1c-0.1,0-0.2,0-0.3,0.1s-0.1,0.1-0.2,0.3c0,0.1,0,0.4,0,0.9v0.2h0.8v0.2H654.6z"/>
	<path d="M656.6,152v0.7c0.3-0.5,0.5-0.7,0.8-0.7c0.1,0,0.2,0,0.3,0.1c0.1,0.1,0.1,0.2,0.1,0.3c0,0.1,0,0.2-0.1,0.2
		c-0.1,0.1-0.1,0.1-0.2,0.1c-0.1,0-0.2,0-0.3-0.1c-0.1-0.1-0.2-0.1-0.2-0.1c0,0-0.1,0-0.1,0.1c-0.1,0.1-0.2,0.2-0.3,0.4v1.4
		c0,0.2,0,0.3,0.1,0.4c0,0.1,0.1,0.1,0.2,0.1c0.1,0,0.2,0.1,0.3,0.1v0.1h-1.5V155c0.2,0,0.3,0,0.3-0.1c0.1,0,0.1-0.1,0.1-0.2
		c0,0,0-0.1,0-0.3v-1.2c0-0.4,0-0.6,0-0.6c0-0.1,0-0.1-0.1-0.1c0,0-0.1,0-0.1,0c-0.1,0-0.1,0-0.2,0l0-0.1l0.9-0.4H656.6z"/>
	<path d="M659.4,152c0.5,0,0.8,0.2,1.1,0.5c0.2,0.3,0.4,0.6,0.4,1c0,0.3-0.1,0.5-0.2,0.8c-0.1,0.3-0.3,0.5-0.5,0.6
		c-0.2,0.1-0.5,0.2-0.8,0.2c-0.5,0-0.8-0.2-1.1-0.5c-0.2-0.3-0.3-0.6-0.3-1c0-0.3,0.1-0.6,0.2-0.8c0.1-0.3,0.3-0.5,0.5-0.6
		C658.9,152.1,659.2,152,659.4,152z M659.3,152.2c-0.1,0-0.2,0-0.4,0.1c-0.1,0.1-0.2,0.2-0.3,0.4s-0.1,0.4-0.1,0.7
		c0,0.4,0.1,0.8,0.3,1.1c0.2,0.3,0.4,0.5,0.7,0.5c0.2,0,0.4-0.1,0.5-0.3s0.2-0.5,0.2-0.9c0-0.5-0.1-1-0.3-1.3
		C659.7,152.3,659.5,152.2,659.3,152.2z"/>
	<path d="M662.2,150.4v2.2c0.2-0.3,0.4-0.4,0.6-0.5c0.1-0.1,0.3-0.1,0.4-0.1c0.2,0,0.3,0,0.4,0.1c0.1,0.1,0.2,0.2,0.3,0.4
		c0,0.1,0.1,0.4,0.1,0.8v1.1c0,0.2,0,0.3,0,0.4c0,0.1,0.1,0.1,0.1,0.1c0.1,0,0.1,0,0.3,0v0.1h-1.5V155h0.1c0.1,0,0.2,0,0.3-0.1
		c0.1,0,0.1-0.1,0.1-0.2c0,0,0-0.1,0-0.3v-1.1c0-0.3,0-0.5-0.1-0.6s-0.1-0.2-0.2-0.2c-0.1-0.1-0.2-0.1-0.3-0.1c-0.1,0-0.2,0-0.3,0.1
		c-0.1,0.1-0.3,0.2-0.4,0.3v1.6c0,0.2,0,0.3,0,0.4c0,0.1,0.1,0.1,0.1,0.1s0.2,0.1,0.3,0.1v0.1h-1.5V155c0.1,0,0.2,0,0.3-0.1
		c0,0,0.1-0.1,0.1-0.1s0-0.2,0-0.4v-2.7c0-0.3,0-0.6,0-0.6s0-0.1-0.1-0.2c0,0-0.1,0-0.1,0c0,0-0.1,0-0.2,0.1l0-0.1l0.9-0.4H662.2z"
		/>
	<path d="M665.7,153.9h-0.1l-0.3-2.7c0-0.1,0-0.2,0-0.3c0-0.1,0-0.2,0.1-0.3c0.1-0.1,0.2-0.1,0.3-0.1s0.2,0,0.3,0.1
		c0.1,0.1,0.1,0.2,0.1,0.4c0,0.1,0,0.1,0,0.2L665.7,153.9z M665.6,154.5c0.1,0,0.2,0,0.3,0.1s0.1,0.2,0.1,0.3c0,0.1,0,0.2-0.1,0.3
		s-0.2,0.1-0.3,0.1c-0.1,0-0.2,0-0.3-0.1s-0.1-0.2-0.1-0.3c0-0.1,0-0.2,0.1-0.3S665.5,154.5,665.6,154.5z"/>
</g>
<g class="st0">
	<path d="M738.5,150.7h1.2l2.7,3.4v-2.6c0-0.3,0-0.4-0.1-0.5c-0.1-0.1-0.2-0.1-0.4-0.1h-0.2v-0.1h1.6v0.1h-0.2
		c-0.2,0-0.3,0.1-0.4,0.2c0,0.1-0.1,0.2-0.1,0.5v3.8h-0.1l-2.9-3.6v2.8c0,0.3,0,0.4,0.1,0.5c0.1,0.1,0.2,0.1,0.4,0.1h0.2v0.1h-1.6
		V155h0.2c0.2,0,0.3-0.1,0.4-0.2c0-0.1,0.1-0.2,0.1-0.5v-3.1c-0.1-0.2-0.2-0.3-0.3-0.3c-0.1,0-0.2-0.1-0.3-0.1c-0.1,0-0.2,0-0.3,0
		V150.7z"/>
	<path d="M745.1,152c0.5,0,0.8,0.2,1.1,0.5c0.2,0.3,0.4,0.6,0.4,1c0,0.3-0.1,0.5-0.2,0.8c-0.1,0.3-0.3,0.5-0.5,0.6
		c-0.2,0.1-0.5,0.2-0.8,0.2c-0.5,0-0.8-0.2-1.1-0.5c-0.2-0.3-0.3-0.6-0.3-1c0-0.3,0.1-0.6,0.2-0.8s0.3-0.5,0.5-0.6
		C744.7,152.1,744.9,152,745.1,152z M745,152.2c-0.1,0-0.2,0-0.4,0.1c-0.1,0.1-0.2,0.2-0.3,0.4s-0.1,0.4-0.1,0.7
		c0,0.4,0.1,0.8,0.3,1.1c0.2,0.3,0.4,0.5,0.7,0.5c0.2,0,0.4-0.1,0.5-0.3s0.2-0.5,0.2-0.9c0-0.5-0.1-1-0.3-1.3
		C745.5,152.3,745.3,152.2,745,152.2z"/>
	<path d="M749.6,154c-0.1,0.4-0.2,0.7-0.5,0.9c-0.2,0.2-0.5,0.3-0.8,0.3c-0.3,0-0.6-0.1-0.9-0.4c-0.3-0.3-0.4-0.7-0.4-1.2
		c0-0.5,0.1-0.9,0.4-1.2s0.6-0.4,1-0.4c0.3,0,0.5,0.1,0.7,0.2c0.2,0.2,0.3,0.3,0.3,0.5c0,0.1,0,0.2-0.1,0.2
		c-0.1,0.1-0.1,0.1-0.2,0.1c-0.1,0-0.2,0-0.3-0.1c0,0-0.1-0.1-0.1-0.3c0-0.1-0.1-0.2-0.1-0.3c-0.1-0.1-0.2-0.1-0.3-0.1
		c-0.2,0-0.4,0.1-0.5,0.2c-0.2,0.2-0.3,0.5-0.3,0.9c0,0.4,0.1,0.7,0.3,1c0.2,0.3,0.4,0.4,0.7,0.4c0.2,0,0.4-0.1,0.6-0.2
		C749.3,154.4,749.4,154.2,749.6,154L749.6,154z"/>
	<path d="M750.9,150.4v2.2c0.2-0.3,0.4-0.4,0.6-0.5c0.1-0.1,0.3-0.1,0.4-0.1c0.2,0,0.3,0,0.4,0.1c0.1,0.1,0.2,0.2,0.3,0.4
		c0,0.1,0.1,0.4,0.1,0.8v1.1c0,0.2,0,0.3,0,0.4c0,0.1,0.1,0.1,0.1,0.1c0.1,0,0.1,0,0.3,0v0.1h-1.5V155h0.1c0.1,0,0.2,0,0.3-0.1
		s0.1-0.1,0.1-0.2c0,0,0-0.1,0-0.3v-1.1c0-0.3,0-0.5-0.1-0.6s-0.1-0.2-0.2-0.2c-0.1-0.1-0.2-0.1-0.3-0.1c-0.1,0-0.2,0-0.3,0.1
		c-0.1,0.1-0.3,0.2-0.4,0.3v1.6c0,0.2,0,0.3,0,0.4c0,0.1,0.1,0.1,0.1,0.1s0.2,0.1,0.3,0.1v0.1h-1.5V155c0.1,0,0.2,0,0.3-0.1
		c0,0,0.1-0.1,0.1-0.1s0-0.2,0-0.4v-2.7c0-0.3,0-0.6,0-0.6c0-0.1,0-0.1-0.1-0.2s-0.1,0-0.1,0c0,0-0.1,0-0.2,0.1l0-0.1l0.9-0.4H750.9
		z"/>
</g>
<line class="st1" x1="805.1" y1="135.7" x2="805.1" y2="144.7"/>
<g class="st0">
	<path d="M805,135.2c0.1-0.2,0.2-0.5,0.4-0.7s0.4-0.4,0.6-0.5c0.2-0.2,0.5-0.3,0.8-0.4c0.3-0.1,0.6-0.1,0.9-0.1s0.5,0,0.8,0.1
		c0.2,0.1,0.4,0.2,0.5,0.4c0.1,0.2,0.2,0.3,0.2,0.6c0,0.2,0,0.4-0.1,0.7s-0.2,0.5-0.4,0.7c-0.2,0.2-0.4,0.4-0.6,0.6
		s-0.5,0.3-0.8,0.4c-0.3,0.1-0.6,0.1-0.8,0.1c-0.3,0-0.5,0-0.7-0.1c-0.2-0.1-0.4-0.2-0.5-0.4c-0.1-0.2-0.2-0.3-0.2-0.6
		C804.9,135.6,804.9,135.4,805,135.2z"/>
</g>
<g class="st0">
	<path d="M803.3,132.5v7.7H803v-2.9l-1.9,0.5V130h0.3v3L803.3,132.5z M801.4,134.3v2.1l1.5-0.4v-2.1L801.4,134.3z"/>
</g>
<g class="st0">
	<path d="M785.9,153.2c0,0.4,0.1,0.8,0.3,1.1s0.5,0.4,0.8,0.4c0.2,0,0.4-0.1,0.5-0.2c0.1-0.1,0.3-0.3,0.4-0.6l0.1,0.1
		c0,0.3-0.2,0.6-0.4,0.8c-0.2,0.2-0.5,0.4-0.8,0.4c-0.4,0-0.7-0.1-0.9-0.4c-0.3-0.3-0.4-0.7-0.4-1.1c0-0.5,0.1-0.9,0.4-1.2
		c0.3-0.3,0.6-0.4,1-0.4c0.3,0,0.6,0.1,0.8,0.3c0.2,0.2,0.3,0.5,0.3,0.9H785.9z M785.9,153.1h1.4c0-0.2,0-0.3-0.1-0.4
		c-0.1-0.1-0.1-0.2-0.2-0.3c-0.1-0.1-0.2-0.1-0.3-0.1c-0.2,0-0.3,0.1-0.5,0.2C786,152.6,786,152.8,785.9,153.1z"/>
	<path d="M789.5,152v2.4c0,0.2,0,0.3,0,0.4s0.1,0.1,0.1,0.1c0.1,0,0.2,0,0.3,0v0.1h-1.5V155c0.1,0,0.2,0,0.3,0c0,0,0.1-0.1,0.1-0.1
		c0-0.1,0-0.2,0-0.4v-1.2c0-0.3,0-0.5,0-0.6c0-0.1,0-0.1-0.1-0.1c0,0-0.1,0-0.1,0c-0.1,0-0.1,0-0.2,0l0-0.1l0.9-0.4H789.5z
		 M789.2,150.4c0.1,0,0.2,0,0.2,0.1c0.1,0.1,0.1,0.1,0.1,0.2c0,0.1,0,0.2-0.1,0.2c-0.1,0.1-0.1,0.1-0.2,0.1c-0.1,0-0.2,0-0.2-0.1
		c-0.1-0.1-0.1-0.1-0.1-0.2c0-0.1,0-0.2,0.1-0.2C789,150.5,789.1,150.4,789.2,150.4z"/>
	<path d="M791.2,152.7c0.4-0.4,0.7-0.6,1-0.6c0.2,0,0.3,0,0.4,0.1c0.1,0.1,0.2,0.2,0.3,0.4c0,0.1,0.1,0.3,0.1,0.6v1.3
		c0,0.2,0,0.3,0,0.4c0,0.1,0.1,0.1,0.1,0.1c0.1,0,0.2,0,0.3,0v0.1h-1.5V155h0.1c0.1,0,0.2,0,0.3-0.1c0.1,0,0.1-0.1,0.1-0.2
		c0,0,0-0.1,0-0.3v-1.2c0-0.3,0-0.5-0.1-0.6s-0.2-0.2-0.4-0.2c-0.3,0-0.5,0.1-0.8,0.4v1.6c0,0.2,0,0.3,0,0.4c0,0.1,0.1,0.1,0.1,0.1
		c0.1,0,0.2,0,0.3,0v0.1h-1.5V155h0.1c0.2,0,0.3,0,0.3-0.1s0.1-0.2,0.1-0.4v-1.1c0-0.4,0-0.6,0-0.7c0-0.1,0-0.1-0.1-0.2
		c0,0-0.1,0-0.1,0c-0.1,0-0.1,0-0.2,0l0-0.1l0.9-0.4h0.1V152.7z"/>
</g>
<g class="st0">
	<path d="M803.1,152.7c0.2-0.2,0.3-0.3,0.4-0.4c0.1-0.1,0.2-0.1,0.3-0.2c0.1,0,0.2-0.1,0.3-0.1c0.2,0,0.4,0.1,0.5,0.2
		c0.1,0.1,0.2,0.3,0.3,0.5c0.2-0.3,0.4-0.4,0.6-0.5s0.3-0.1,0.5-0.1c0.2,0,0.3,0,0.4,0.1s0.2,0.2,0.3,0.4c0,0.1,0.1,0.3,0.1,0.6v1.3
		c0,0.2,0,0.3,0,0.4c0,0,0.1,0.1,0.1,0.1s0.2,0.1,0.3,0.1v0.1h-1.5V155h0.1c0.1,0,0.2,0,0.3-0.1c0.1,0,0.1-0.1,0.1-0.2
		c0,0,0-0.1,0-0.3v-1.3c0-0.2,0-0.4-0.1-0.5c-0.1-0.1-0.2-0.2-0.4-0.2c-0.1,0-0.2,0-0.4,0.1c-0.1,0.1-0.3,0.2-0.4,0.3l0,0l0,0.1v1.4
		c0,0.2,0,0.3,0,0.4c0,0.1,0.1,0.1,0.1,0.1s0.2,0.1,0.3,0.1v0.1h-1.5V155c0.2,0,0.3,0,0.3-0.1c0.1,0,0.1-0.1,0.1-0.2
		c0,0,0-0.1,0-0.3v-1.3c0-0.2,0-0.4-0.1-0.5c-0.1-0.1-0.2-0.2-0.4-0.2c-0.1,0-0.2,0-0.4,0.1c-0.2,0.1-0.3,0.2-0.4,0.3v1.6
		c0,0.2,0,0.3,0,0.4c0,0.1,0.1,0.1,0.1,0.1s0.2,0,0.3,0v0.1h-1.5V155c0.1,0,0.2,0,0.3,0c0.1,0,0.1-0.1,0.1-0.1c0-0.1,0-0.2,0-0.4
		v-1.2c0-0.3,0-0.5,0-0.6c0-0.1,0-0.1-0.1-0.2c0,0-0.1,0-0.1,0c-0.1,0-0.1,0-0.2,0l0-0.1l0.9-0.4h0.1V152.7z"/>
	<path d="M809.2,154.7c-0.3,0.2-0.5,0.4-0.6,0.4c-0.1,0.1-0.2,0.1-0.4,0.1c-0.2,0-0.4-0.1-0.5-0.2c-0.1-0.1-0.2-0.3-0.2-0.6
		c0-0.1,0-0.3,0.1-0.4c0.1-0.1,0.2-0.3,0.5-0.4s0.6-0.3,1.1-0.5V153c0-0.3,0-0.5-0.1-0.6c-0.1-0.1-0.2-0.2-0.4-0.2
		c-0.1,0-0.2,0-0.3,0.1c-0.1,0.1-0.1,0.2-0.1,0.3l0,0.2c0,0.1,0,0.2-0.1,0.2c-0.1,0.1-0.1,0.1-0.2,0.1c-0.1,0-0.1,0-0.2-0.1
		c-0.1-0.1-0.1-0.1-0.1-0.2c0-0.2,0.1-0.4,0.3-0.5s0.5-0.2,0.8-0.2c0.3,0,0.5,0,0.7,0.1c0.1,0.1,0.2,0.2,0.3,0.3
		c0,0.1,0.1,0.3,0.1,0.6v1c0,0.3,0,0.5,0,0.5c0,0.1,0,0.1,0.1,0.1c0,0,0.1,0,0.1,0c0,0,0.1,0,0.1,0c0,0,0.1-0.1,0.3-0.2v0.2
		c-0.2,0.3-0.5,0.5-0.7,0.5c-0.1,0-0.2,0-0.3-0.1C809.2,155,809.2,154.9,809.2,154.7z M809.2,154.5v-1.2c-0.3,0.1-0.5,0.2-0.6,0.3
		c-0.2,0.1-0.3,0.2-0.4,0.3c-0.1,0.1-0.1,0.2-0.1,0.3c0,0.2,0,0.3,0.1,0.4s0.2,0.2,0.3,0.2C808.7,154.8,808.9,154.7,809.2,154.5z"/>
	<path d="M811.5,150.4v4c0,0.2,0,0.3,0,0.4c0,0.1,0.1,0.1,0.1,0.1c0.1,0,0.2,0,0.3,0v0.1h-1.5V155c0.1,0,0.2,0,0.3,0
		c0,0,0.1-0.1,0.1-0.1c0-0.1,0-0.2,0-0.4v-2.7c0-0.3,0-0.5,0-0.6c0-0.1,0-0.1-0.1-0.2c0,0-0.1,0-0.1,0c-0.1,0-0.1,0-0.2,0.1
		l-0.1-0.1l0.9-0.4H811.5z"/>
</g>
<path class="st1" d="M808,122.5h5.9v23.8H808"/>
<path d="M745.6,130.9c4.9-3.1,19.8-3.1,24.8,0l-0.1,0.1c-4.8-2.4-19.8-2.4-24.6,0L745.6,130.9z"/>
<line class="st5" x1="668.6" y1="155" x2="680.5" y2="155"/>
<line class="st5" x1="754.4" y1="155" x2="769.5" y2="155"/>
<g class="st0">
	<path d="M796.9,153.4h1.7v0.5h-1.7V153.4z"/>
</g>
<path d="M660.1,123.3c7.3-1.8,15.5,2.1,18.4,9l0,0C675.2,126.2,667,122.3,660.1,123.3"/>
<path d="M586.2,131.9c3.4-7.5,12.7-11.8,20.5-9.6l0,0C599.2,120.9,590,125.2,586.2,131.9"/>
<g class="st0">
	<path d="M707.7,171.1c0.2-0.1,0.4,0,0.6,0s0.3,0.2,0.4,0.4s0.1,0.3,0.2,0.5s0,0.4,0,0.5c0.1,0,0.3,0,0.4-0.1s0.2-0.1,0.4-0.2
		c0.1-0.1,0.2-0.2,0.3-0.3c0.1-0.1,0.2-0.2,0.3-0.3l0.2,0.1l-1.5,5.7h-0.5c0.1-0.3,0.2-0.6,0.3-0.9c0.1-0.2,0.2-0.5,0.2-0.7
		c0.1-0.3,0.2-0.5,0.2-0.6c0.1-0.4,0.3-0.7,0.4-1.1s0.2-0.6,0.2-0.8c0.1-0.3,0.1-0.5,0.1-0.7c-0.1,0.1-0.2,0.1-0.3,0.2
		c-0.1,0.1-0.3,0.2-0.5,0.3c-0.2,0.1-0.3,0.2-0.5,0.2s-0.3,0.1-0.5,0.1c-0.4,0-0.6-0.1-0.8-0.3c-0.2-0.2-0.3-0.4-0.4-0.7
		c0-0.3,0-0.5,0.2-0.8C707.1,171.4,707.4,171.2,707.7,171.1z"/>
</g>
<g class="st0">
	<path d="M725.2,174c0.1-0.2,0.2-0.5,0.4-0.7s0.4-0.4,0.6-0.5s0.5-0.3,0.8-0.4c0.3-0.1,0.6-0.1,0.9-0.1s0.5,0,0.8,0.1
		c0.2,0.1,0.4,0.2,0.5,0.4c0.1,0.2,0.2,0.3,0.2,0.6c0,0.2,0,0.4-0.1,0.7s-0.2,0.5-0.4,0.7c-0.2,0.2-0.4,0.4-0.6,0.6
		s-0.5,0.3-0.8,0.4c-0.3,0.1-0.6,0.1-0.8,0.1c-0.3,0-0.5,0-0.8-0.1c-0.2-0.1-0.4-0.2-0.5-0.4c-0.1-0.2-0.2-0.3-0.2-0.6
		C725,174.5,725.1,174.2,725.2,174z"/>
</g>
<g class="st0">
	<path d="M721.5,169.2v2.4v0.9c0.1-0.1,0.2-0.2,0.4-0.3c0.1-0.1,0.2-0.1,0.3-0.2c0.1,0,0.2-0.1,0.3-0.1c0.1,0,0.2,0,0.4,0
		c0.2,0,0.3,0,0.5,0.1c0.1,0.1,0.3,0.2,0.4,0.3c0.1,0.1,0.2,0.2,0.2,0.4c0.1,0.1,0.1,0.3,0.1,0.4c0,0.1,0,0.3,0,0.4
		s-0.1,0.3-0.1,0.4c-0.1,0.2-0.2,0.3-0.3,0.4c-0.1,0.1-0.3,0.2-0.4,0.3c0,0-0.1,0.1-0.2,0.2c-0.1,0.1-0.2,0.2-0.4,0.3
		s-0.3,0.2-0.5,0.3c-0.2,0.1-0.3,0.2-0.4,0.3c-0.1,0.1-0.3,0.2-0.5,0.3v-8h0.4V169.2z M722.6,172.7c0-0.1-0.1-0.1-0.2-0.1
		s-0.2-0.1-0.2-0.1c-0.1,0-0.2,0-0.3,0.1c-0.1,0.1-0.2,0.1-0.2,0.3c-0.1,0.2-0.1,0.4-0.1,0.6c0,0.3,0,0.5,0,0.7v1.2
		c0.1-0.1,0.2-0.2,0.3-0.2c0.1-0.1,0.2-0.1,0.2-0.2c0.1-0.1,0.2-0.2,0.2-0.2c0.1-0.1,0.2-0.2,0.3-0.4c0.1-0.1,0.2-0.3,0.2-0.5
		c0.1-0.2,0.1-0.4,0-0.6C722.8,173.1,722.7,172.9,722.6,172.7z"/>
</g>
<line class="st1" x1="725.2" y1="174.5" x2="725.2" y2="184.9"/>
<line class="st4" x1="742.6" y1="163.8" x2="748.7" y2="163.8"/>
<g class="st0">
	<path d="M743.6,163.9c0.1-0.2,0.2-0.5,0.4-0.7s0.4-0.4,0.6-0.5s0.5-0.3,0.8-0.4c0.3-0.1,0.6-0.1,0.9-0.1s0.5,0,0.8,0.1
		c0.2,0.1,0.4,0.2,0.5,0.4c0.1,0.2,0.2,0.3,0.2,0.6c0,0.2,0,0.4-0.1,0.7s-0.2,0.5-0.4,0.7c-0.2,0.2-0.4,0.4-0.6,0.6
		s-0.5,0.3-0.8,0.4c-0.3,0.1-0.6,0.1-0.8,0.1c-0.3,0-0.5,0-0.8-0.1c-0.2-0.1-0.4-0.2-0.5-0.4c-0.1-0.2-0.2-0.3-0.2-0.6
		C743.5,164.3,743.5,164.1,743.6,163.9z"/>
</g>
<g class="st0">
	<path d="M739.9,159.1v2.4v0.9c0.1-0.1,0.2-0.2,0.4-0.3c0.1-0.1,0.2-0.1,0.3-0.2c0.1,0,0.2-0.1,0.3-0.1c0.1,0,0.2,0,0.4,0
		c0.2,0,0.3,0,0.5,0.1c0.1,0.1,0.3,0.2,0.4,0.3c0.1,0.1,0.2,0.2,0.2,0.4c0.1,0.1,0.1,0.3,0.1,0.4c0,0.1,0,0.3,0,0.4
		s-0.1,0.3-0.1,0.4c-0.1,0.2-0.2,0.3-0.3,0.4c-0.1,0.1-0.3,0.2-0.4,0.3c0,0-0.1,0.1-0.2,0.2c-0.1,0.1-0.2,0.2-0.4,0.3
		s-0.3,0.2-0.5,0.3c-0.2,0.1-0.3,0.2-0.4,0.3c-0.1,0.1-0.3,0.2-0.5,0.3v-8h0.4V159.1z M741,162.6c0-0.1-0.1-0.1-0.2-0.1
		s-0.2-0.1-0.2-0.1c-0.1,0-0.2,0-0.3,0.1c-0.1,0.1-0.2,0.1-0.2,0.3c-0.1,0.2-0.1,0.4-0.1,0.6c0,0.3,0,0.5,0,0.7v1.2
		c0.1-0.1,0.2-0.2,0.3-0.2c0.1-0.1,0.2-0.1,0.2-0.2c0.1-0.1,0.2-0.2,0.2-0.2c0.1-0.1,0.2-0.2,0.3-0.4c0.1-0.1,0.2-0.3,0.2-0.5
		c0.1-0.2,0.1-0.4,0-0.6C741.2,162.9,741.1,162.8,741,162.6z"/>
</g>
<line class="st1" x1="743.7" y1="164.4" x2="743.7" y2="183.3"/>
<path d="M725,184.1l18.8-1.7v1.7l-18.8,1.7V184.1z"/>
<g class="st0">
	<path d="M699.5,179.9c-0.2,0-0.4,0.1-0.6,0.1s-0.4,0-0.6,0c-0.2,0-0.4,0-0.6-0.1c-0.2,0-0.3-0.1-0.4-0.1c-0.5-0.2-0.9-0.5-1.3-0.8
		c-0.3-0.3-0.6-0.6-0.7-0.9s-0.3-0.6-0.4-0.9c-0.1-0.3-0.1-0.6-0.1-1c0-0.4,0-0.7,0.1-1.1c0.1-0.4,0.2-0.7,0.4-1
		c0.2-0.3,0.3-0.6,0.5-0.9c0.2-0.3,0.4-0.5,0.6-0.7c0.2-0.2,0.5-0.5,0.8-0.7s0.6-0.5,0.9-0.7c0-0.1,0-0.2,0-0.2c0-0.1,0-0.1,0-0.2
		s0-0.2,0-0.2s0-0.2,0-0.3c0-0.1,0-0.2,0-0.3c0-0.1,0-0.3,0-0.5c0-0.2,0-0.4,0-0.7s0-0.5,0.1-0.8c0-0.2,0.1-0.4,0.2-0.6
		c0.1-0.3,0.2-0.5,0.4-0.8c0.2-0.2,0.3-0.5,0.5-0.6s0.3-0.3,0.5-0.3c0.1,0,0.2,0,0.2,0.1c0.1,0.1,0.2,0.2,0.3,0.4
		c0.1,0.2,0.2,0.3,0.2,0.5s0.2,0.4,0.2,0.6c0.1,0.2,0.1,0.4,0.1,0.6c0,0.2,0.1,0.4,0.1,0.5c0,0.4,0,0.7,0,0.9s-0.1,0.5-0.2,0.7
		c-0.1,0.2-0.1,0.4-0.2,0.6c-0.1,0.2-0.2,0.4-0.3,0.5c-0.1,0.2-0.2,0.3-0.3,0.5s-0.2,0.3-0.3,0.4c-0.1,0.1-0.2,0.3-0.4,0.4
		c-0.1,0.1-0.3,0.2-0.4,0.3c0.1,0.3,0.1,0.7,0.2,0.9c0,0.1,0,0.2,0.1,0.4c0,0.1,0,0.2,0.1,0.3s0,0.2,0,0.2s0,0.1,0,0.1
		c0.2,0,0.3,0,0.5,0s0.3,0,0.5,0.1c0.2,0,0.3,0.1,0.4,0.1c0.1,0.1,0.2,0.1,0.3,0.2c0.4,0.3,0.6,0.6,0.8,0.9c0.2,0.3,0.2,0.7,0.3,1.1
		c0,0.3,0,0.6-0.1,0.9s-0.2,0.6-0.3,0.8c-0.2,0.3-0.4,0.5-0.6,0.7c-0.3,0.2-0.6,0.4-0.9,0.5c0,0.3,0.1,0.5,0.1,0.8
		c0,0.2,0.1,0.4,0.1,0.6c0,0.2,0,0.3,0.1,0.4c0.1,0.4,0.1,0.7,0.1,1s-0.1,0.5-0.2,0.6c-0.1,0.1-0.2,0.3-0.3,0.4
		c-0.1,0.1-0.2,0.2-0.3,0.3c-0.1,0.1-0.3,0.2-0.5,0.3c-0.2,0.1-0.4,0.1-0.6,0.1c-0.2,0-0.4,0-0.6,0s-0.5-0.1-0.7-0.2
		s-0.4-0.3-0.6-0.5c-0.2-0.2-0.3-0.4-0.3-0.7c0-0.2,0-0.3,0-0.5c0-0.2,0.1-0.3,0.2-0.4c0.1-0.1,0.2-0.2,0.3-0.3
		c0.1-0.1,0.3-0.1,0.5-0.2c0.1,0,0.2,0,0.4,0.1s0.2,0.1,0.3,0.2c0.1,0.1,0.2,0.2,0.3,0.3c0.1,0.1,0.1,0.3,0.1,0.4
		c0,0.2-0.1,0.5-0.2,0.7c-0.2,0.2-0.5,0.4-0.9,0.5c0.1,0.1,0.2,0.2,0.4,0.3c0.2,0.1,0.4,0.1,0.7,0.1c0.3,0,0.6-0.1,0.9-0.3
		c0.3-0.2,0.5-0.4,0.6-0.7c0.1-0.2,0.1-0.4,0.1-0.7c0-0.3,0-0.6-0.1-0.8c0,0,0-0.2-0.1-0.3c0-0.2-0.1-0.4-0.1-0.6
		C699.6,180.4,699.6,180.2,699.5,179.9z M698.2,176.1c-0.2,0.1-0.3,0.2-0.4,0.4c-0.1,0.1-0.2,0.3-0.2,0.4s-0.1,0.3,0,0.4
		s0,0.2,0.1,0.4c0,0.1,0.1,0.2,0.2,0.4c0.1,0.1,0.2,0.2,0.3,0.3c0.1,0.1,0.2,0.2,0.3,0.2c0,0,0,0,0,0c0,0,0,0,0,0c0,0,0,0,0,0
		c-0.2-0.1-0.4-0.2-0.6-0.4c-0.2-0.1-0.3-0.2-0.3-0.3c-0.1-0.1-0.1-0.2-0.2-0.3s-0.1-0.2-0.1-0.3c0-0.1-0.1-0.2-0.1-0.3
		c0-0.1,0-0.2,0-0.4c0-0.1,0-0.3,0-0.5c0-0.2,0.1-0.3,0.2-0.5c0.1-0.2,0.2-0.3,0.3-0.5c0.1-0.2,0.3-0.3,0.4-0.4
		c0.1-0.1,0.2-0.1,0.2-0.2c0.1,0,0.1-0.1,0.2-0.1c0.1,0,0.1-0.1,0.2-0.1s0.1,0,0.2-0.1l-0.3-1.8c-0.1,0-0.2,0.1-0.4,0.3
		s-0.4,0.3-0.6,0.5c-0.2,0.2-0.4,0.4-0.6,0.6s-0.4,0.4-0.5,0.7c-0.2,0.4-0.4,0.7-0.6,1.1s-0.2,0.7-0.2,1.1c0,0.4,0.2,0.8,0.4,1.2
		c0.2,0.4,0.5,0.7,0.9,0.9s0.8,0.4,1.2,0.5s0.9,0.1,1.4,0c-0.1-0.7-0.2-1.3-0.3-1.8c0-0.2-0.1-0.4-0.1-0.7c0-0.2-0.1-0.4-0.1-0.6
		s-0.1-0.4-0.1-0.6C698.6,176,698.4,176,698.2,176.1z M699.7,167.1c-0.3,0-0.5,0.1-0.7,0.4s-0.4,0.6-0.5,0.9
		c-0.1,0.4-0.2,0.8-0.2,1.2c0,0.5,0,0.9,0,1.3c0.2-0.2,0.5-0.4,0.7-0.6c0.2-0.2,0.5-0.5,0.7-0.8c0.2-0.3,0.4-0.5,0.5-0.8
		c0.1-0.3,0.2-0.5,0.2-0.8c0-0.1,0-0.2,0-0.3c0-0.1-0.1-0.2-0.1-0.3s-0.1-0.2-0.2-0.2C700,167.1,699.9,167.1,699.7,167.1z
		 M699.7,179.5c0.3-0.1,0.5-0.2,0.7-0.4s0.3-0.3,0.4-0.5c0.1-0.2,0.1-0.4,0.1-0.6c0-0.2,0-0.4,0-0.5c0-0.1,0-0.3-0.1-0.5
		c0-0.2-0.1-0.4-0.2-0.5c-0.1-0.2-0.3-0.3-0.5-0.4c-0.2-0.1-0.5-0.2-0.9-0.1L699.7,179.5z"/>
</g>
<line class="st1" x1="774.7" y1="175.1" x2="774.7" y2="163.8"/>
<g class="st0">
	<path d="M770.7,175.7c0.1-0.2,0.2-0.5,0.4-0.7s0.4-0.4,0.6-0.5c0.2-0.2,0.5-0.3,0.8-0.4c0.3-0.1,0.6-0.1,0.9-0.1s0.5,0,0.8,0.1
		c0.2,0.1,0.4,0.2,0.5,0.4c0.1,0.2,0.2,0.3,0.2,0.6c0,0.2,0,0.4-0.1,0.7s-0.2,0.5-0.4,0.7c-0.2,0.2-0.4,0.4-0.6,0.6
		s-0.5,0.3-0.8,0.4c-0.3,0.1-0.6,0.1-0.8,0.1c-0.3,0-0.5,0-0.7-0.1c-0.2-0.1-0.4-0.2-0.5-0.4c-0.1-0.2-0.2-0.3-0.2-0.6
		C770.6,176.1,770.6,175.9,770.7,175.7z"/>
</g>
<g class="st0">
	<path d="M769,173v7.7h-0.4v-2.9l-1.9,0.5v-7.8h0.3v3L769,173z M767.1,174.8v2.1l1.5-0.4v-2.1L767.1,174.8z"/>
</g>
<g class="st0">
	<path d="M806.9,171.1c0.2-0.1,0.4,0,0.6,0s0.3,0.2,0.4,0.4c0.1,0.2,0.1,0.3,0.2,0.5c0,0.2,0,0.4,0,0.5c0.1,0,0.3,0,0.4-0.1
		c0.1,0,0.2-0.1,0.4-0.2c0.1-0.1,0.2-0.2,0.3-0.3c0.1-0.1,0.2-0.2,0.3-0.3l0.2,0.1l-1.5,5.7h-0.5c0.1-0.3,0.2-0.6,0.3-0.9
		c0.1-0.2,0.2-0.5,0.2-0.7c0.1-0.3,0.2-0.5,0.2-0.6c0.1-0.4,0.3-0.7,0.4-1.1c0.1-0.3,0.2-0.6,0.2-0.8c0.1-0.3,0.1-0.5,0.1-0.7
		c-0.1,0.1-0.2,0.1-0.3,0.2s-0.3,0.2-0.5,0.3c-0.2,0.1-0.3,0.2-0.5,0.2s-0.3,0.1-0.5,0.1c-0.4,0-0.6-0.1-0.8-0.3
		c-0.2-0.2-0.3-0.4-0.4-0.7c0-0.3,0-0.5,0.2-0.8C806.3,171.4,806.5,171.2,806.9,171.1z"/>
</g>
<g class="st0">
	<path d="M832.8,182.4c0-0.2,0.1-0.3,0.2-0.5c0.1-0.1,0.3-0.2,0.5-0.2c0.2,0,0.4,0.1,0.5,0.2c0.1,0.1,0.2,0.3,0.2,0.5
		c0,0.2-0.1,0.4-0.2,0.5s-0.3,0.2-0.5,0.2c-0.2,0-0.4-0.1-0.5-0.2S832.8,182.6,832.8,182.4z"/>
</g>
<g class="st0">
	<path d="M827.8,172.8c0.2,0.4,0.3,0.7,0.5,1c0.2,0.3,0.5,0.7,0.7,1c0.3,0.4,0.5,0.8,0.8,1.2c0.1,0.2,0.2,0.4,0.3,0.6
		c0.1,0.2,0.2,0.5,0.3,0.7s0.1,0.4,0.2,0.7c0,0.2,0.1,0.4,0.1,0.5c0,0.3,0.1,0.6,0.1,0.8c0,0.3,0,0.5,0,0.8c0,0.8-0.2,1.6-0.4,2.3
		l-0.2,0c0.1-0.3,0.2-0.7,0.3-1.1c0.1-0.4,0.1-0.8,0.1-1.2c0-0.3,0-0.7-0.1-1.1c-0.1-0.4-0.1-0.7-0.3-1.1c-0.2-0.6-0.5-1.1-0.7-1.4
		c-0.3-0.4-0.5-0.6-0.7-0.7c-0.2-0.1-0.3-0.2-0.4-0.2s-0.3-0.1-0.4-0.1c-0.1,0-0.3-0.1-0.4-0.1h-0.2v-3.5h0.2
		C827.6,172.1,827.7,172.5,827.8,172.8z"/>
</g>
<line class="st1" x1="827.6" y1="183.5" x2="827.6" y2="172.3"/>
<line class="st4" x1="822.6" y1="184.1" x2="828.7" y2="184.1"/>
<g class="st0">
	<path d="M823.6,184.1c0.1-0.2,0.2-0.5,0.4-0.7c0.2-0.2,0.4-0.4,0.6-0.5c0.2-0.2,0.5-0.3,0.8-0.4c0.3-0.1,0.6-0.1,0.9-0.1
		s0.5,0,0.8,0.1c0.2,0.1,0.4,0.2,0.5,0.4c0.1,0.2,0.2,0.3,0.2,0.6c0,0.2,0,0.4-0.1,0.7s-0.2,0.5-0.4,0.7c-0.2,0.2-0.4,0.4-0.6,0.6
		c-0.2,0.2-0.5,0.3-0.8,0.4c-0.3,0.1-0.6,0.1-0.8,0.1c-0.3,0-0.5,0-0.8-0.1c-0.2-0.1-0.4-0.2-0.5-0.4s-0.2-0.3-0.2-0.6
		C823.5,184.6,823.5,184.3,823.6,184.1z"/>
</g>
<g class="st0">
	<path d="M821.9,181.4v7.7h-0.4v-2.9l-1.9,0.5v-7.8h0.3v3L821.9,181.4z M820,183.3v2.1l1.5-0.4v-2.1L820,183.3z"/>
</g>
<g class="st0">
	<path d="M856.2,172.3c0-0.2,0.1-0.3,0.2-0.5c0.1-0.1,0.3-0.2,0.5-0.2s0.4,0.1,0.5,0.2c0.1,0.1,0.2,0.3,0.2,0.5
		c0,0.2-0.1,0.4-0.2,0.5c-0.1,0.1-0.3,0.2-0.5,0.2s-0.4-0.1-0.5-0.2C856.3,172.6,856.2,172.5,856.2,172.3z"/>
</g>
<g class="st0">
	<path d="M851.3,162.7c0.2,0.4,0.3,0.7,0.5,1c0.2,0.3,0.5,0.7,0.7,1c0.3,0.4,0.5,0.8,0.8,1.2c0.1,0.2,0.2,0.4,0.3,0.6
		c0.1,0.2,0.2,0.5,0.3,0.7s0.1,0.4,0.2,0.7c0,0.2,0.1,0.4,0.1,0.5c0,0.3,0.1,0.6,0.1,0.8c0,0.3,0,0.5,0,0.8c0,0.8-0.2,1.6-0.4,2.3
		l-0.2,0c0.1-0.3,0.2-0.7,0.3-1.1c0.1-0.4,0.1-0.8,0.1-1.2c0-0.3,0-0.7-0.1-1.1c-0.1-0.4-0.1-0.7-0.3-1.1c-0.2-0.6-0.5-1.1-0.7-1.4
		c-0.3-0.4-0.5-0.6-0.7-0.7c-0.2-0.1-0.3-0.2-0.4-0.2s-0.3-0.1-0.4-0.1c-0.1,0-0.3-0.1-0.4-0.1h-0.2v-3.5h0.2
		C851.1,162,851.2,162.3,851.3,162.7z"/>
</g>
<line class="st1" x1="851.1" y1="173.4" x2="851.1" y2="162.2"/>
<g class="st0">
	<path d="M847.1,174c0.1-0.2,0.2-0.5,0.4-0.7s0.4-0.4,0.6-0.5s0.5-0.3,0.8-0.4c0.3-0.1,0.6-0.1,0.9-0.1s0.5,0,0.8,0.1
		c0.2,0.1,0.4,0.2,0.5,0.4c0.1,0.2,0.2,0.3,0.2,0.6c0,0.2,0,0.4-0.1,0.7s-0.2,0.5-0.4,0.7c-0.2,0.2-0.4,0.4-0.6,0.6
		s-0.5,0.3-0.8,0.4c-0.3,0.1-0.6,0.1-0.8,0.1c-0.3,0-0.5,0-0.8-0.1c-0.2-0.1-0.4-0.2-0.5-0.4c-0.1-0.2-0.2-0.3-0.2-0.6
		C847,174.5,847,174.2,847.1,174z"/>
</g>
<g class="st0">
	<path d="M845.4,171.3v7.7H845v-2.9l-1.9,0.5v-7.8h0.3v3L845.4,171.3z M843.5,173.1v2.1l1.5-0.4v-2.1L843.5,173.1z"/>
</g>
<path class="st1" d="M761.6,167.2v13.5"/>
<g class="st0">
	<path d="M884.5,168.9c0-0.2,0.1-0.3,0.2-0.5c0.1-0.1,0.3-0.2,0.5-0.2c0.2,0,0.4,0.1,0.5,0.2c0.1,0.1,0.2,0.3,0.2,0.5
		c0,0.2-0.1,0.4-0.2,0.5s-0.3,0.2-0.5,0.2c-0.2,0-0.4-0.1-0.5-0.2S884.5,169.1,884.5,168.9z"/>
</g>
<line class="st1" x1="878.8" y1="171.2" x2="878.8" y2="182.4"/>
<g class="st0">
	<path d="M878.7,170.6c0.1-0.2,0.2-0.5,0.4-0.7s0.4-0.4,0.6-0.5c0.2-0.2,0.5-0.3,0.8-0.4c0.3-0.1,0.6-0.1,0.9-0.1s0.5,0,0.8,0.1
		c0.2,0.1,0.4,0.2,0.5,0.4c0.1,0.2,0.2,0.3,0.2,0.6c0,0.2,0,0.4-0.1,0.7s-0.2,0.5-0.4,0.7c-0.2,0.2-0.4,0.4-0.6,0.6
		s-0.5,0.3-0.8,0.4c-0.3,0.1-0.6,0.1-0.8,0.1c-0.3,0-0.5,0-0.7-0.1c-0.2-0.1-0.4-0.2-0.5-0.4c-0.1-0.2-0.2-0.3-0.2-0.6
		C878.6,171.1,878.6,170.8,878.7,170.6z"/>
</g>
<g class="st0">
	<path d="M877,167.9v7.7h-0.4v-2.9l-1.9,0.5v-7.8h0.3v3L877,167.9z M875.1,169.8v2.1l1.5-0.4v-2.1L875.1,169.8z"/>
</g>
<line class="st1" x1="904.5" y1="171.2" x2="904.5" y2="182.4"/>
<g class="st0">
	<path d="M904.4,170.6c0.1-0.2,0.2-0.5,0.4-0.7s0.4-0.4,0.6-0.5s0.5-0.3,0.8-0.4c0.3-0.1,0.6-0.1,0.9-0.1s0.5,0,0.8,0.1
		c0.2,0.1,0.4,0.2,0.5,0.4c0.1,0.2,0.2,0.3,0.2,0.6c0,0.2,0,0.4-0.1,0.7s-0.2,0.5-0.4,0.7c-0.2,0.2-0.4,0.4-0.6,0.6
		s-0.5,0.3-0.8,0.4c-0.3,0.1-0.6,0.1-0.8,0.1c-0.3,0-0.5,0-0.8-0.1c-0.2-0.1-0.4-0.2-0.5-0.4c-0.1-0.2-0.2-0.3-0.2-0.6
		C904.3,171.1,904.4,170.8,904.4,170.6z"/>
</g>
<g class="st0">
	<path d="M927.3,167.8c0.2,0.4,0.3,0.7,0.5,1c0.2,0.3,0.5,0.7,0.7,1c0.3,0.4,0.5,0.8,0.8,1.2c0.1,0.2,0.2,0.4,0.3,0.6
		c0.1,0.2,0.2,0.5,0.3,0.7s0.1,0.4,0.2,0.7c0,0.2,0.1,0.4,0.1,0.5c0,0.3,0.1,0.6,0.1,0.8c0,0.3,0,0.5,0,0.8c0,0.8-0.2,1.6-0.4,2.3
		l-0.2,0c0.1-0.3,0.2-0.7,0.3-1.1c0.1-0.4,0.1-0.8,0.1-1.2c0-0.3,0-0.7-0.1-1.1c-0.1-0.4-0.1-0.7-0.3-1.1c-0.2-0.6-0.5-1.1-0.7-1.4
		c-0.3-0.4-0.5-0.6-0.7-0.7c-0.2-0.1-0.3-0.2-0.4-0.2s-0.3-0.1-0.4-0.1c-0.1,0-0.3-0.1-0.4-0.1h-0.2v-3.5h0.2
		C927,167,927.1,167.4,927.3,167.8z"/>
</g>
<line class="st1" x1="927" y1="178.5" x2="927" y2="167.2"/>
<g class="st0">
	<path d="M923,179c0.1-0.2,0.2-0.5,0.4-0.7s0.4-0.4,0.6-0.5c0.2-0.2,0.5-0.3,0.8-0.4c0.3-0.1,0.6-0.1,0.9-0.1s0.5,0,0.8,0.1
		c0.2,0.1,0.4,0.2,0.5,0.4c0.1,0.2,0.2,0.3,0.2,0.6c0,0.2,0,0.4-0.1,0.7s-0.2,0.5-0.4,0.7c-0.2,0.2-0.4,0.4-0.6,0.6
		s-0.5,0.3-0.8,0.4c-0.3,0.1-0.6,0.1-0.8,0.1c-0.3,0-0.5,0-0.7-0.1c-0.2-0.1-0.4-0.2-0.5-0.4c-0.1-0.2-0.2-0.3-0.2-0.6
		C922.9,179.5,922.9,179.3,923,179z"/>
</g>
<g class="st0">
	<path d="M921.3,176.4v7.7H921v-2.9l-1.9,0.5v-7.8h0.3v3L921.3,176.4z M919.4,178.2v2.1l1.5-0.4v-2.1L919.4,178.2z"/>
</g>
<path class="st1" d="M869.8,167.2v13.5"/>
<path class="st1" d="M935.1,167.2v13.5"/>
<path d="M881.8,167.9c4.6-2.8,18.8-2.8,23.5,0l-0.1,0.1c-4.6-2.1-18.8-2.1-23.3,0L881.8,167.9z"/>
<path class="st1" d="M695.4,165.5H694v19.1h1.4"/>
<path class="st1" d="M701.5,165.5h1.4v19.1h-1.4"/>
<g class="st0">
	<path d="M742.6,216.2c0.1-0.2,0.2-0.5,0.4-0.7s0.4-0.4,0.6-0.5s0.5-0.3,0.8-0.4c0.3-0.1,0.6-0.1,0.9-0.1s0.5,0,0.8,0.1
		c0.2,0.1,0.4,0.2,0.5,0.4c0.1,0.2,0.2,0.3,0.2,0.6c0,0.2,0,0.4-0.1,0.7s-0.2,0.5-0.4,0.7c-0.2,0.2-0.4,0.4-0.6,0.6
		s-0.5,0.3-0.8,0.4c-0.3,0.1-0.6,0.1-0.8,0.1c-0.3,0-0.5,0-0.8-0.1c-0.2-0.1-0.4-0.2-0.5-0.4c-0.1-0.2-0.2-0.3-0.2-0.6
		C742.5,216.6,742.5,216.4,742.6,216.2z"/>
</g>
<g class="st0">
	<path d="M738.9,211.4v2.4v0.9c0.1-0.1,0.2-0.2,0.4-0.3c0.1-0.1,0.2-0.1,0.3-0.2c0.1,0,0.2-0.1,0.3-0.1c0.1,0,0.2,0,0.4,0
		c0.2,0,0.3,0,0.5,0.1c0.1,0.1,0.3,0.2,0.4,0.3c0.1,0.1,0.2,0.2,0.2,0.4c0.1,0.1,0.1,0.3,0.1,0.4c0,0.1,0,0.3,0,0.4
		s-0.1,0.3-0.1,0.4c-0.1,0.2-0.2,0.3-0.3,0.4c-0.1,0.1-0.3,0.2-0.4,0.3c0,0-0.1,0.1-0.2,0.2c-0.1,0.1-0.2,0.2-0.4,0.3
		s-0.3,0.2-0.5,0.3c-0.2,0.1-0.3,0.2-0.4,0.3c-0.1,0.1-0.3,0.2-0.5,0.3v-8h0.4V211.4z M740,214.9c0-0.1-0.1-0.1-0.2-0.1
		s-0.2-0.1-0.2-0.1c-0.1,0-0.2,0-0.3,0.1c-0.1,0.1-0.2,0.1-0.2,0.3c-0.1,0.2-0.1,0.4-0.1,0.6c0,0.3,0,0.5,0,0.7v1.2
		c0.1-0.1,0.2-0.2,0.3-0.2c0.1-0.1,0.2-0.1,0.2-0.2c0.1-0.1,0.2-0.2,0.2-0.2c0.1-0.1,0.2-0.2,0.3-0.4c0.1-0.1,0.2-0.3,0.2-0.5
		c0.1-0.2,0.1-0.4,0-0.6C740.2,215.2,740.1,215.1,740,214.9z"/>
</g>
<line class="st1" x1="746.6" y1="215.6" x2="746.6" y2="205.2"/>
<g class="st0">
	<path d="M769.9,216.2c0.1-0.2,0.2-0.5,0.4-0.7s0.4-0.4,0.6-0.5s0.5-0.3,0.8-0.4c0.3-0.1,0.6-0.1,0.9-0.1c0.3,0,0.5,0,0.8,0.1
		c0.2,0.1,0.4,0.2,0.5,0.4c0.1,0.2,0.2,0.3,0.2,0.6c0,0.2,0,0.4-0.1,0.7s-0.2,0.5-0.4,0.7c-0.2,0.2-0.4,0.4-0.6,0.6
		s-0.5,0.3-0.8,0.4c-0.3,0.1-0.6,0.1-0.8,0.1c-0.3,0-0.5,0-0.7-0.1c-0.2-0.1-0.4-0.2-0.5-0.4c-0.1-0.2-0.2-0.3-0.2-0.6
		C769.7,216.6,769.8,216.4,769.9,216.2z"/>
</g>
<line class="st1" x1="773.9" y1="215.6" x2="773.9" y2="205.2"/>
<path d="M746.4,204.3h27.7v1.7h-27.7V204.3z"/>
<g class="st0">
	<path d="M728.8,220.4c-0.2,0-0.4,0.1-0.6,0.1s-0.4,0-0.6,0c-0.2,0-0.4,0-0.6-0.1c-0.2,0-0.3-0.1-0.4-0.1c-0.5-0.2-0.9-0.5-1.3-0.8
		c-0.3-0.3-0.6-0.6-0.7-0.9s-0.3-0.6-0.4-0.9c-0.1-0.3-0.1-0.6-0.1-1c0-0.4,0-0.7,0.1-1.1c0.1-0.4,0.2-0.7,0.4-1
		c0.2-0.3,0.3-0.6,0.5-0.9c0.2-0.3,0.4-0.5,0.6-0.7c0.2-0.2,0.5-0.5,0.8-0.7s0.6-0.5,0.9-0.7c0-0.1,0-0.2,0-0.2c0-0.1,0-0.1,0-0.2
		s0-0.2,0-0.2s0-0.2,0-0.3c0-0.1,0-0.2,0-0.3c0-0.1,0-0.3,0-0.5c0-0.2,0-0.4,0-0.7s0-0.5,0.1-0.8c0-0.2,0.1-0.4,0.2-0.6
		c0.1-0.3,0.2-0.5,0.4-0.8c0.2-0.2,0.3-0.5,0.5-0.6s0.3-0.3,0.5-0.3c0.1,0,0.2,0,0.2,0.1c0.1,0.1,0.2,0.2,0.3,0.4
		c0.1,0.2,0.2,0.3,0.2,0.5s0.2,0.4,0.2,0.6c0.1,0.2,0.1,0.4,0.1,0.6c0,0.2,0.1,0.4,0.1,0.5c0,0.4,0,0.7,0,0.9s-0.1,0.5-0.2,0.7
		c-0.1,0.2-0.1,0.4-0.2,0.6c-0.1,0.2-0.2,0.4-0.3,0.5c-0.1,0.2-0.2,0.3-0.3,0.5s-0.2,0.3-0.3,0.4c-0.1,0.1-0.2,0.3-0.4,0.4
		c-0.1,0.1-0.3,0.2-0.4,0.3c0.1,0.3,0.1,0.7,0.2,0.9c0,0.1,0,0.2,0.1,0.4c0,0.1,0,0.2,0.1,0.3s0,0.2,0,0.2s0,0.1,0,0.1
		c0.2,0,0.3,0,0.5,0s0.3,0,0.5,0.1c0.2,0,0.3,0.1,0.4,0.1c0.1,0.1,0.2,0.1,0.3,0.2c0.4,0.3,0.6,0.6,0.8,0.9c0.2,0.3,0.2,0.7,0.3,1.1
		c0,0.3,0,0.6-0.1,0.9s-0.2,0.6-0.3,0.8c-0.2,0.3-0.4,0.5-0.6,0.7c-0.3,0.2-0.6,0.4-0.9,0.5c0,0.3,0.1,0.5,0.1,0.8
		c0,0.2,0.1,0.4,0.1,0.6c0,0.2,0,0.3,0.1,0.4c0.1,0.4,0.1,0.7,0.1,1s-0.1,0.5-0.2,0.6c-0.1,0.1-0.2,0.3-0.3,0.4
		c-0.1,0.1-0.2,0.2-0.3,0.3c-0.1,0.1-0.3,0.2-0.5,0.3c-0.2,0.1-0.4,0.1-0.6,0.1c-0.2,0-0.4,0-0.6,0s-0.5-0.1-0.7-0.2
		s-0.4-0.3-0.6-0.5c-0.2-0.2-0.3-0.4-0.3-0.7c0-0.2,0-0.3,0-0.5c0-0.2,0.1-0.3,0.2-0.4c0.1-0.1,0.2-0.2,0.3-0.3
		c0.1-0.1,0.3-0.1,0.5-0.2c0.1,0,0.2,0,0.4,0.1s0.2,0.1,0.3,0.2c0.1,0.1,0.2,0.2,0.3,0.3c0.1,0.1,0.1,0.3,0.1,0.4
		c0,0.2-0.1,0.5-0.2,0.7c-0.2,0.2-0.5,0.4-0.9,0.5c0.1,0.1,0.2,0.2,0.4,0.3c0.2,0.1,0.4,0.1,0.7,0.1c0.3,0,0.6-0.1,0.9-0.3
		c0.3-0.2,0.5-0.4,0.6-0.7c0.1-0.2,0.1-0.4,0.1-0.7c0-0.3,0-0.6-0.1-0.8c0,0,0-0.2-0.1-0.3c0-0.2-0.1-0.4-0.1-0.6
		C728.9,220.9,728.8,220.7,728.8,220.4z M727.4,216.6c-0.2,0.1-0.3,0.2-0.4,0.4c-0.1,0.1-0.2,0.3-0.2,0.4s-0.1,0.3,0,0.4
		s0,0.2,0.1,0.4c0,0.1,0.1,0.2,0.2,0.4c0.1,0.1,0.2,0.2,0.3,0.3c0.1,0.1,0.2,0.2,0.3,0.2c0,0,0,0,0,0c0,0,0,0,0,0c0,0,0,0,0,0
		c-0.2-0.1-0.4-0.2-0.6-0.4c-0.2-0.1-0.3-0.2-0.3-0.3c-0.1-0.1-0.1-0.2-0.2-0.3s-0.1-0.2-0.1-0.3c0-0.1-0.1-0.2-0.1-0.3
		c0-0.1,0-0.2,0-0.4c0-0.1,0-0.3,0-0.5c0-0.2,0.1-0.3,0.2-0.5c0.1-0.2,0.2-0.3,0.3-0.5c0.1-0.2,0.3-0.3,0.4-0.4
		c0.1-0.1,0.2-0.1,0.2-0.2c0.1,0,0.1-0.1,0.2-0.1c0.1,0,0.1-0.1,0.2-0.1s0.1,0,0.2-0.1l-0.3-1.8c-0.1,0-0.2,0.1-0.4,0.3
		s-0.4,0.3-0.6,0.5c-0.2,0.2-0.4,0.4-0.6,0.6s-0.4,0.4-0.5,0.7c-0.2,0.4-0.4,0.7-0.6,1.1s-0.2,0.7-0.2,1.1c0,0.4,0.2,0.8,0.4,1.2
		c0.2,0.4,0.5,0.7,0.9,0.9s0.8,0.4,1.2,0.5s0.9,0.1,1.4,0c-0.1-0.7-0.2-1.3-0.3-1.8c0-0.2-0.1-0.4-0.1-0.7c0-0.2-0.1-0.4-0.1-0.6
		s-0.1-0.4-0.1-0.6C727.9,216.5,727.6,216.5,727.4,216.6z M729,207.6c-0.3,0-0.5,0.1-0.7,0.4s-0.4,0.6-0.5,0.9
		c-0.1,0.4-0.2,0.8-0.2,1.2c0,0.5,0,0.9,0,1.3c0.2-0.2,0.5-0.4,0.7-0.6c0.2-0.2,0.5-0.5,0.7-0.8c0.2-0.3,0.4-0.5,0.5-0.8
		c0.1-0.3,0.2-0.5,0.2-0.8c0-0.1,0-0.2,0-0.3c0-0.1-0.1-0.2-0.1-0.3s-0.1-0.2-0.2-0.2C729.2,207.6,729.1,207.6,729,207.6z M729,220
		c0.3-0.1,0.5-0.2,0.7-0.4s0.3-0.3,0.4-0.5c0.1-0.2,0.1-0.4,0.1-0.6c0-0.2,0-0.4,0-0.5c0-0.1,0-0.3-0.1-0.5c0-0.2-0.1-0.4-0.2-0.5
		c-0.1-0.2-0.3-0.3-0.5-0.4c-0.2-0.1-0.5-0.2-0.9-0.1L729,220z"/>
</g>
<path class="st1" d="M738.6,197.5c-4.9,8.3-4.9,25,0,33.3"/>
<g class="st0">
	<path d="M791,217.8c0,0.4-0.1,0.7-0.3,1.1c-0.1,0.4-0.3,0.8-0.6,1.3c-0.3,0.5-0.6,1-0.9,1.4c-0.3,0.4-0.6,0.9-0.8,1.2
		c-0.2,0.3-0.4,0.7-0.6,1.1c-0.2,0.4-0.3,0.8-0.3,1.2h-0.3v-3.6h0.3c0.1,0,0.3,0,0.4-0.1c0.1,0,0.3-0.1,0.4-0.2
		c0.2-0.1,0.3-0.2,0.5-0.3c0.1-0.1,0.2-0.2,0.4-0.3c0.1-0.1,0.3-0.3,0.5-0.5c0.2-0.2,0.3-0.5,0.5-0.7c0.1-0.3,0.3-0.6,0.4-0.9
		c0.1-0.4,0.2-0.7,0.2-1c0-0.3,0-0.6,0-1c0-0.2,0-0.4-0.1-0.6c0-0.2-0.1-0.4-0.2-0.6c-0.1-0.2-0.1-0.4-0.2-0.6
		c-0.1-0.2-0.1-0.4-0.2-0.5l0.1-0.1c0.1,0.2,0.2,0.4,0.3,0.7s0.2,0.6,0.3,0.9c0.1,0.3,0.1,0.7,0.1,1.1S791,217.4,791,217.8z"/>
</g>
<line class="st1" x1="787.4" y1="213.3" x2="787.4" y2="224.6"/>
<g class="st0">
	<path d="M787.3,212.8c0.1-0.2,0.2-0.5,0.4-0.7s0.4-0.4,0.6-0.5c0.2-0.2,0.5-0.3,0.8-0.4c0.3-0.1,0.6-0.1,0.9-0.1s0.5,0,0.8,0.1
		c0.2,0.1,0.4,0.2,0.5,0.4c0.1,0.2,0.2,0.3,0.2,0.6c0,0.2,0,0.4-0.1,0.7s-0.2,0.5-0.4,0.7c-0.2,0.2-0.4,0.4-0.6,0.6
		s-0.5,0.3-0.8,0.4c-0.3,0.1-0.6,0.1-0.8,0.1c-0.3,0-0.5,0-0.7-0.1c-0.2-0.1-0.4-0.2-0.5-0.4c-0.1-0.2-0.2-0.3-0.2-0.6
		C787.2,213.3,787.2,213,787.3,212.8z"/>
</g>
<g class="st0">
	<path d="M785.6,210.1v7.7h-0.4V215l-1.9,0.5v-7.8h0.3v3L785.6,210.1z M783.7,211.9v2.1l1.5-0.4v-2.1L783.7,211.9z"/>
</g>
<line class="st1" x1="809" y1="215.6" x2="809" y2="204.3"/>
<g class="st0">
	<path d="M805,216.2c0.1-0.2,0.2-0.5,0.4-0.7s0.4-0.4,0.6-0.5c0.2-0.2,0.5-0.3,0.8-0.4c0.3-0.1,0.6-0.1,0.9-0.1s0.5,0,0.8,0.1
		c0.2,0.1,0.4,0.2,0.5,0.4c0.1,0.2,0.2,0.3,0.2,0.6c0,0.2,0,0.4-0.1,0.7s-0.2,0.5-0.4,0.7c-0.2,0.2-0.4,0.4-0.6,0.6
		s-0.5,0.3-0.8,0.4c-0.3,0.1-0.6,0.1-0.8,0.1c-0.3,0-0.5,0-0.7-0.1c-0.2-0.1-0.4-0.2-0.5-0.4c-0.1-0.2-0.2-0.3-0.2-0.6
		C804.9,216.6,804.9,216.4,805,216.2z"/>
</g>
<g class="st0">
	<path d="M803.3,213.5v7.7H803v-2.9l-1.9,0.5V211h0.3v3L803.3,213.5z M801.4,215.3v2.1l1.5-0.4v-2.1L801.4,215.3z"/>
</g>
<path class="st1" d="M761.6,207.7v13.5"/>
<path class="st1" d="M809.3,198.4c7.2,8.3,7.2,25,0,33.3"/>
<path d="M748.9,213.6c4.4-2.2,17.3-2.2,21.7,0l-0.1,0.1c-4.3-1.5-17.2-1.5-21.5,0L748.9,213.6z"/>
<path class="st1" d="M724.4,206H723v19.1h1.4"/>
<path class="st1" d="M730.5,206h1.4v19.1h-1.4"/>
<g class="st0">
	<path d="M537.9,78.9l0.8-3.6c-0.3,0.3-0.8,0.5-1.4,0.6l0.1-0.5c0.3-0.1,0.6-0.3,0.9-0.5c0.3-0.2,0.5-0.4,0.7-0.5
		c0.1-0.1,0.2-0.2,0.2-0.3h0.3l-1,4.9H537.9z"/>
</g>
<g class="st0">
	<path d="M620,78.9c0.1-0.3,0.1-0.5,0.3-0.7c0.1-0.2,0.3-0.4,0.4-0.6c0.2-0.2,0.5-0.5,1-0.9c0.3-0.2,0.5-0.4,0.6-0.6
		c0.2-0.2,0.3-0.3,0.4-0.5c0-0.1,0.1-0.2,0.1-0.4c0-0.2-0.1-0.4-0.2-0.6c-0.2-0.2-0.3-0.2-0.6-0.2c-0.2,0-0.4,0.1-0.6,0.2
		s-0.3,0.4-0.4,0.8l-0.6-0.1c0.1-0.4,0.2-0.8,0.5-1s0.6-0.4,1-0.4c0.3,0,0.5,0.1,0.7,0.2s0.4,0.3,0.5,0.5c0.1,0.2,0.2,0.4,0.2,0.6
		c0,0.3-0.1,0.6-0.3,0.9c-0.1,0.2-0.6,0.5-1.2,1.1c-0.3,0.2-0.5,0.4-0.7,0.6c-0.1,0.1-0.3,0.3-0.3,0.4h2.2l-0.1,0.5H620z"/>
</g>
<g class="st0">
	<path d="M761.1,77.6l0.6-0.1c0,0.3,0.1,0.6,0.3,0.7c0.2,0.1,0.3,0.2,0.6,0.2c0.3,0,0.5-0.1,0.8-0.3c0.2-0.2,0.3-0.5,0.3-0.7
		c0-0.2-0.1-0.4-0.2-0.6c-0.2-0.2-0.4-0.2-0.6-0.2c0,0-0.1,0-0.2,0l0.1-0.5c0.1,0,0.1,0,0.2,0c0.3,0,0.6-0.1,0.8-0.2
		s0.3-0.4,0.3-0.6c0-0.2-0.1-0.4-0.2-0.6c-0.2-0.2-0.3-0.2-0.6-0.2c-0.2,0-0.4,0.1-0.6,0.2c-0.2,0.2-0.3,0.4-0.3,0.7l-0.6-0.1
		c0.1-0.4,0.3-0.7,0.6-0.9c0.3-0.2,0.6-0.3,1-0.3c0.4,0,0.7,0.1,1,0.4c0.2,0.2,0.4,0.5,0.4,0.9c0,0.3-0.1,0.5-0.2,0.7
		c-0.1,0.2-0.3,0.3-0.6,0.5c0.2,0.1,0.3,0.2,0.4,0.4s0.1,0.3,0.1,0.5c0,0.4-0.2,0.8-0.5,1.1s-0.7,0.5-1.2,0.5
		c-0.4,0-0.8-0.1-1.1-0.4C761.3,78.4,761.2,78.1,761.1,77.6z"/>
</g>
<g class="st0">
	<path d="M871.3,78.9l0.3-1.2h-2l0.1-0.6l2.7-3h0.5l-0.6,3.1h0.7l-0.1,0.5h-0.7l-0.3,1.2H871.3z M871.7,77.2l0.4-2l-1.8,2H871.7z"/>
</g>
<path class="st6" d="M624.9,127.9c-1.6,1.6-2.6,3.7-2.9,5.9c-0.3,3.2,0.7,6.4,2.9,8.8"/>
<path class="st6" d="M633.9,127.9c1.6,1.6,2.6,3.7,2.9,5.9c0.3,3.2-0.7,6.4-2.9,8.8"/>
<g class="st0">
	<path d="M823.6,171.8c0.2,0,0.3,0,0.5,0c0.1,0.1,0.2,0.2,0.3,0.3s0.1,0.3,0.1,0.4s0,0.3,0,0.4c0.1,0,0.2,0,0.3-0.1
		c0.1,0,0.2-0.1,0.3-0.2c0.1-0.1,0.2-0.2,0.2-0.2s0.1-0.2,0.2-0.2l0.1,0.1l-1.1,4.2H824c0.1-0.2,0.1-0.4,0.2-0.7
		c0.1-0.2,0.1-0.4,0.2-0.5c0.1-0.2,0.1-0.3,0.2-0.5c0.1-0.3,0.2-0.6,0.3-0.8c0.1-0.2,0.1-0.4,0.2-0.6c0-0.2,0.1-0.3,0.1-0.5
		c-0.1,0-0.1,0.1-0.2,0.2c-0.1,0.1-0.2,0.1-0.3,0.2c-0.1,0.1-0.2,0.1-0.4,0.2c-0.1,0-0.2,0.1-0.4,0.1c-0.3,0-0.5-0.1-0.6-0.2
		c-0.2-0.2-0.2-0.3-0.3-0.5s0-0.4,0.1-0.6C823.2,172,823.4,171.9,823.6,171.8z"/>
</g>
</svg>
