<svg id="Ebene_1" data-name="Ebene 1" xmlns="http://www.w3.org/2000/svg" viewBox="0 0 1021 595"><defs><style>.cls-1,.cls-10,.cls-3,.cls-9{fill:none;stroke:#000;}.cls-1{stroke-width:0.4px;}.cls-11,.cls-2,.cls-4,.cls-6{isolation:isolate;}.cls-2{font-size:13.5px;font-family:Maestro, Maestro;}.cls-3{stroke-width:0.56px;}.cls-4,.cls-5,.cls-6{font-size:6.75px;}.cls-4,.cls-5{font-family:Arial-ItalicMT, Arial;font-style:italic;}.cls-5{letter-spacing:0em;}.cls-6{font-family:TimesNewRomanPSMT, Times New Roman;}.cls-7{fill:#fff;}.cls-8{letter-spacing:-0.02em;}.cls-9{stroke-width:0.49px;}.cls-10{stroke-width:0.56px;}.cls-11{font-size:12px;font-family:Arial-BoldMT, Arial;font-weight:700;}</style></defs><title>Zeichenfläche 1</title><line class="cls-1" x1="85.14" y1="126.72" x2="85.14" y2="261.72"/><text class="cls-2" transform="translate(88.73 136.84)">&amp;</text><text class="cls-2" transform="translate(88.73 177.34)">&amp;</text><text class="cls-2" transform="translate(88.73 217.84)">&amp;</text><text class="cls-2" transform="translate(88.73 258.34)">&amp;</text><line class="cls-1" x1="369.76" y1="167.22" x2="369.76" y2="180.72"/><line class="cls-1" x1="369.76" y1="207.72" x2="369.76" y2="221.22"/><line class="cls-1" x1="369.76" y1="248.22" x2="369.76" y2="261.72"/><line class="cls-1" x1="595.75" y1="167.22" x2="595.75" y2="180.72"/><line class="cls-1" x1="595.75" y1="207.72" x2="595.75" y2="221.22"/><line class="cls-1" x1="595.75" y1="248.22" x2="595.75" y2="261.72"/><line class="cls-1" x1="84.94" y1="126.72" x2="693.98" y2="126.72"/><line class="cls-1" x1="84.94" y1="130.09" x2="693.98" y2="130.09"/><line class="cls-1" x1="84.94" y1="133.47" x2="693.98" y2="133.47"/><line class="cls-1" x1="84.94" y1="136.84" x2="693.98" y2="136.84"/><line class="cls-1" x1="84.94" y1="140.22" x2="693.98" y2="140.22"/><line class="cls-1" x1="84.94" y1="167.22" x2="693.98" y2="167.22"/><line class="cls-1" x1="84.94" y1="170.59" x2="693.98" y2="170.59"/><line class="cls-1" x1="84.94" y1="173.97" x2="693.98" y2="173.97"/><line class="cls-1" x1="84.94" y1="177.34" x2="693.98" y2="177.34"/><line class="cls-1" x1="84.94" y1="180.72" x2="693.98" y2="180.72"/><line class="cls-1" x1="84.94" y1="207.72" x2="693.98" y2="207.72"/><line class="cls-1" x1="84.94" y1="211.09" x2="693.98" y2="211.09"/><line class="cls-1" x1="84.94" y1="214.47" x2="693.98" y2="214.47"/><line class="cls-1" x1="84.94" y1="217.84" x2="693.98" y2="217.84"/><line class="cls-1" x1="84.94" y1="221.22" x2="693.98" y2="221.22"/><line class="cls-1" x1="84.94" y1="248.22" x2="693.98" y2="248.22"/><line class="cls-1" x1="84.94" y1="251.59" x2="693.98" y2="251.59"/><line class="cls-1" x1="84.94" y1="254.97" x2="693.98" y2="254.97"/><line class="cls-1" x1="84.94" y1="258.34" x2="693.98" y2="258.34"/><line class="cls-1" x1="84.94" y1="261.72" x2="693.98" y2="261.72"/><line class="cls-1" x1="83.38" y1="207.58" x2="83.38" y2="273.81"/><line class="cls-1" x1="83.38" y1="274.03" x2="90.69" y2="274.03"/><text class="cls-2" transform="translate(110.95 136.84)">œ</text><text class="cls-2" transform="translate(106.88 136.84)">n</text><text class="cls-2" transform="translate(128.95 140.22)">œ</text><text class="cls-2" transform="translate(124.88 140.22)">n</text><text class="cls-2" transform="translate(150.75 140.22)">œ</text><text class="cls-2" transform="translate(146.67 140.22)">b</text><text class="cls-2" transform="translate(172.69 138.53)">œ</text><text class="cls-2" transform="translate(168.61 138.53)">#</text><line class="cls-3" x1="193.64" y1="143.59" x2="199.27" y2="143.59"/><text class="cls-2" transform="translate(194.48 143.59)">œ</text><text class="cls-2" transform="translate(190.41 143.59)">#</text><text class="cls-2" transform="translate(216.42 138.53)">œ</text><text class="cls-2" transform="translate(212.34 138.53)">n</text><text class="cls-2" transform="translate(238.36 141.91)">œ</text><text class="cls-2" transform="translate(234.28 141.91)">n</text><line class="cls-3" x1="259.31" y1="143.59" x2="264.94" y2="143.59"/><text class="cls-2" transform="translate(260.16 145.28)">œ</text><text class="cls-2" transform="translate(256.08 145.28)">n</text><line class="cls-3" x1="281.25" y1="143.59" x2="286.88" y2="143.59"/><text class="cls-2" transform="translate(282.09 145.28)">œ</text><text class="cls-2" transform="translate(278.02 145.28)">b</text><line class="cls-3" x1="303.05" y1="143.59" x2="308.67" y2="143.59"/><text class="cls-2" transform="translate(303.89 143.59)">œ</text><text class="cls-2" transform="translate(299.81 143.59)">n</text><line class="cls-3" x1="324.98" y1="146.97" x2="330.61" y2="146.97"/><line class="cls-3" x1="324.98" y1="143.59" x2="330.61" y2="143.59"/><text class="cls-2" transform="translate(325.83 146.97)">œ</text><text class="cls-2" transform="translate(321.75 146.97)">n</text><line class="cls-3" x1="346.78" y1="146.97" x2="352.41" y2="146.97"/><line class="cls-3" x1="346.78" y1="143.59" x2="352.41" y2="143.59"/><text class="cls-2" transform="translate(347.63 148.66)">œ</text><text class="cls-2" transform="translate(343.55 148.66)">#</text><text class="cls-2" transform="translate(111.52 177.34)">œ</text><text class="cls-2" transform="translate(107.44 177.34)">n</text><text class="cls-2" transform="translate(128.95 173.97)">œ</text><text class="cls-2" transform="translate(124.88 173.97)">b</text><text class="cls-2" transform="translate(150.75 173.97)">œ</text><text class="cls-2" transform="translate(146.67 173.97)">n</text><text class="cls-2" transform="translate(172.69 177.34)">œ</text><text class="cls-2" transform="translate(168.61 177.34)">#</text><text class="cls-2" transform="translate(194.48 172.28)">œ</text><text class="cls-2" transform="translate(190.41 172.28)">#</text><text class="cls-2" transform="translate(216.42 175.66)">œ</text><text class="cls-2" transform="translate(212.34 175.66)">n</text><text class="cls-2" transform="translate(238.36 172.28)">œ</text><text class="cls-2" transform="translate(234.28 172.28)">n</text><text class="cls-2" transform="translate(260.16 168.91)">œ</text><text class="cls-2" transform="translate(256.08 168.91)">b</text><text class="cls-2" transform="translate(282.09 168.91)">œ</text><text class="cls-2" transform="translate(278.02 168.91)">n</text><text class="cls-2" transform="translate(303.89 170.59)">œ</text><text class="cls-2" transform="translate(299.81 170.59)">n</text><text class="cls-2" transform="translate(325.83 167.22)">œ</text><text class="cls-2" transform="translate(321.75 167.22)">n</text><text class="cls-2" transform="translate(347.63 167.22)">œ</text><text class="cls-2" transform="translate(343.55 167.22)">#</text><text class="cls-2" transform="translate(110.95 212.78)">œ</text><text class="cls-2" transform="translate(106.88 212.78)">n</text><text class="cls-2" transform="translate(128.95 216.16)">œ</text><text class="cls-2" transform="translate(124.88 216.16)">n</text><text class="cls-2" transform="translate(150.75 217.84)">œ</text><text class="cls-2" transform="translate(146.67 217.84)">#</text><text class="cls-2" transform="translate(172.69 214.47)">œ</text><text class="cls-2" transform="translate(168.61 214.47)">n</text><text class="cls-2" transform="translate(194.48 219.53)">œ</text><text class="cls-2" transform="translate(190.41 219.53)">#</text><text class="cls-2" transform="translate(216.42 214.47)">œ</text><text class="cls-2" transform="translate(212.34 214.47)">b</text><text class="cls-2" transform="translate(238.36 217.84)">œ</text><text class="cls-2" transform="translate(234.28 217.84)">n</text><text class="cls-2" transform="translate(260.16 221.22)">œ</text><text class="cls-2" transform="translate(256.08 221.22)">n</text><text class="cls-2" transform="translate(282.09 221.22)">œ</text><text class="cls-2" transform="translate(278.02 221.22)">b</text><text class="cls-2" transform="translate(303.89 219.53)">œ</text><text class="cls-2" transform="translate(299.81 219.53)">n</text><text class="cls-2" transform="translate(325.83 222.91)">œ</text><text class="cls-2" transform="translate(321.75 222.91)">n</text><line class="cls-3" x1="346.78" y1="224.59" x2="352.41" y2="224.59"/><text class="cls-2" transform="translate(347.63 224.59)">œ</text><text class="cls-2" transform="translate(343.55 224.59)">#</text><text class="cls-2" transform="translate(111.52 253.28)">œ</text><text class="cls-2" transform="translate(107.44 253.28)">n</text><text class="cls-2" transform="translate(128.95 249.91)">œ</text><text class="cls-2" transform="translate(124.88 249.91)">b</text><text class="cls-2" transform="translate(150.75 249.91)">œ</text><text class="cls-2" transform="translate(146.67 249.91)">n</text><text class="cls-2" transform="translate(172.69 253.28)">œ</text><text class="cls-2" transform="translate(168.61 253.28)">#</text><text class="cls-2" transform="translate(194.48 248.22)">œ</text><text class="cls-2" transform="translate(190.41 248.22)">#</text><text class="cls-2" transform="translate(216.42 251.59)">œ</text><text class="cls-2" transform="translate(212.34 251.59)">n</text><text class="cls-2" transform="translate(238.36 248.22)">œ</text><text class="cls-2" transform="translate(234.28 248.22)">n</text><text class="cls-2" transform="translate(260.16 246.53)">œ</text><text class="cls-2" transform="translate(256.08 246.53)">#</text><line class="cls-3" x1="281.25" y1="244.84" x2="286.88" y2="244.84"/><text class="cls-2" transform="translate(282.09 244.84)">œ</text><text class="cls-2" transform="translate(278.02 244.84)">n</text><text class="cls-2" transform="translate(303.89 246.53)">œ</text><text class="cls-2" transform="translate(299.81 246.53)">n</text><line class="cls-3" x1="324.98" y1="244.84" x2="330.61" y2="244.84"/><text class="cls-2" transform="translate(325.83 243.16)">œ</text><text class="cls-2" transform="translate(321.75 243.16)">b</text><line class="cls-3" x1="346.78" y1="244.84" x2="352.41" y2="244.84"/><text class="cls-2" transform="translate(347.63 243.16)">œ</text><text class="cls-2" transform="translate(343.55 243.16)">n</text><text class="cls-4" transform="translate(47.25 136.84)">1</text><text class="cls-4" transform="translate(47.25 85.59)">Bl. 1</text><text class="cls-5" transform="translate(60.76 83.35) scale(0.58)">r</text><text class="cls-6" transform="translate(86.77 125.59)">1</text><text class="cls-4" transform="translate(47.25 177.34)">2</text><text class="cls-6" transform="translate(86.34 166.09)">3</text><text class="cls-4" transform="translate(47.25 217.84)">3</text><rect class="cls-7" x="83.11" y="180.86" width="4.08" height="26.72"/><text class="cls-6" transform="translate(87.89 206.59)">5</text><text class="cls-6" transform="translate(54.28 234.02)">Unte<tspan class="cls-8" x="13.12" y="0">r</tspan><tspan x="15.23" y="0">-</tspan></text><text class="cls-6" transform="translate(54.28 241.75)">Quint</text><text class="cls-4" transform="translate(47.25 258.34)">4</text><text class="cls-6" transform="translate(99.56 247.09)">7</text><text class="cls-6" transform="translate(63.13 248.22)">2. Lied</text><line class="cls-3" x1="378" y1="146.97" x2="383.63" y2="146.97"/><line class="cls-3" x1="378" y1="143.59" x2="383.63" y2="143.59"/><text class="cls-2" transform="translate(378.84 148.66)">œ</text><text class="cls-2" transform="translate(374.77 148.66)">#</text><line class="cls-3" x1="396" y1="146.97" x2="401.63" y2="146.97"/><line class="cls-3" x1="396" y1="143.59" x2="401.63" y2="143.59"/><text class="cls-2" transform="translate(396.84 146.97)">œ</text><line class="cls-3" x1="414.14" y1="143.59" x2="419.77" y2="143.59"/><text class="cls-2" transform="translate(414.98 143.59)">œ</text><text class="cls-2" transform="translate(410.91 143.59)">n</text><line class="cls-3" x1="432.14" y1="143.59" x2="437.77" y2="143.59"/><text class="cls-2" transform="translate(432.98 145.28)">œ</text><text class="cls-2" transform="translate(428.91 145.28)">b</text><line class="cls-3" x1="450.28" y1="143.59" x2="455.91" y2="143.59"/><text class="cls-2" transform="translate(451.13 145.28)">œ</text><text class="cls-2" transform="translate(447.05 145.28)">n</text><text class="cls-2" transform="translate(469.13 141.91)">œ</text><text class="cls-2" transform="translate(465.05 141.91)">n</text><text class="cls-2" transform="translate(487.27 138.53)">œ</text><text class="cls-2" transform="translate(483.19 138.53)">n</text><line class="cls-3" x1="504.42" y1="143.59" x2="510.05" y2="143.59"/><text class="cls-2" transform="translate(505.27 143.59)">œ</text><text class="cls-2" transform="translate(501.19 143.59)">#</text><text class="cls-2" transform="translate(523.27 138.53)">œ</text><text class="cls-2" transform="translate(519.19 138.53)">#</text><text class="cls-2" transform="translate(541.41 140.22)">œ</text><text class="cls-2" transform="translate(537.33 140.22)">b</text><text class="cls-2" transform="translate(559.41 140.22)">œ</text><text class="cls-2" transform="translate(555.33 140.22)">n</text><text class="cls-2" transform="translate(577.55 136.84)">œ</text><text class="cls-2" transform="translate(573.47 136.84)">n</text><text class="cls-2" transform="translate(378.84 167.22)">œ</text><text class="cls-2" transform="translate(374.77 167.22)">#</text><text class="cls-2" transform="translate(396.84 167.22)">œ</text><text class="cls-2" transform="translate(392.77 167.22)">n</text><text class="cls-2" transform="translate(414.98 170.59)">œ</text><text class="cls-2" transform="translate(410.91 170.59)">n</text><text class="cls-2" transform="translate(432.98 168.91)">œ</text><text class="cls-2" transform="translate(428.91 168.91)">n</text><text class="cls-2" transform="translate(451.13 168.91)">œ</text><text class="cls-2" transform="translate(447.05 168.91)">b</text><text class="cls-2" transform="translate(469.13 172.28)">œ</text><text class="cls-2" transform="translate(465.05 172.28)">n</text><text class="cls-2" transform="translate(487.27 175.66)">œ</text><text class="cls-2" transform="translate(483.19 175.66)">n</text><text class="cls-2" transform="translate(505.27 172.28)">œ</text><text class="cls-2" transform="translate(501.19 172.28)">#</text><text class="cls-2" transform="translate(523.27 177.34)">œ</text><text class="cls-2" transform="translate(519.19 177.34)">#</text><text class="cls-2" transform="translate(541.41 173.97)">œ</text><text class="cls-2" transform="translate(537.33 173.97)">n</text><text class="cls-2" transform="translate(559.41 173.97)">œ</text><text class="cls-2" transform="translate(555.33 173.97)">b</text><text class="cls-2" transform="translate(577.55 177.34)">œ</text><text class="cls-2" transform="translate(573.47 177.34)">n</text><line class="cls-3" x1="378" y1="224.59" x2="383.63" y2="224.59"/><text class="cls-2" transform="translate(378.84 224.59)">œ</text><text class="cls-2" transform="translate(374.77 224.59)">#</text><text class="cls-2" transform="translate(396.84 222.91)">œ</text><text class="cls-2" transform="translate(392.77 222.91)">n</text><text class="cls-2" transform="translate(414.98 219.53)">œ</text><text class="cls-2" transform="translate(410.91 219.53)">n</text><text class="cls-2" transform="translate(432.98 221.22)">œ</text><text class="cls-2" transform="translate(428.91 221.22)">b</text><text class="cls-2" transform="translate(451.13 221.22)">œ</text><text class="cls-2" transform="translate(447.05 221.22)">n</text><text class="cls-2" transform="translate(469.13 217.84)">œ</text><text class="cls-2" transform="translate(465.05 217.84)">n</text><text class="cls-2" transform="translate(487.27 214.47)">œ</text><text class="cls-2" transform="translate(483.19 214.47)">b</text><text class="cls-2" transform="translate(505.27 219.53)">œ</text><text class="cls-2" transform="translate(501.19 219.53)">#</text><text class="cls-2" transform="translate(523.27 214.47)">œ</text><text class="cls-2" transform="translate(519.19 214.47)">n</text><text class="cls-2" transform="translate(541.41 217.84)">œ</text><text class="cls-2" transform="translate(537.33 217.84)">#</text><text class="cls-2" transform="translate(559.41 216.16)">œ</text><text class="cls-2" transform="translate(555.33 216.16)">n</text><text class="cls-2" transform="translate(577.55 212.78)">œ</text><text class="cls-2" transform="translate(573.47 212.78)">n</text><line class="cls-3" x1="378" y1="244.84" x2="383.63" y2="244.84"/><text class="cls-2" transform="translate(378.84 243.16)">œ</text><text class="cls-2" transform="translate(374.77 243.16)">n</text><line class="cls-3" x1="396" y1="244.84" x2="401.63" y2="244.84"/><text class="cls-2" transform="translate(396.84 243.16)">œ</text><text class="cls-2" transform="translate(392.77 243.16)">b</text><text class="cls-2" transform="translate(414.98 246.53)">œ</text><text class="cls-2" transform="translate(410.91 246.53)">n</text><line class="cls-3" x1="432.14" y1="244.84" x2="437.77" y2="244.84"/><text class="cls-2" transform="translate(432.98 244.84)">œ</text><text class="cls-2" transform="translate(428.91 244.84)">n</text><text class="cls-2" transform="translate(451.13 246.53)">œ</text><text class="cls-2" transform="translate(447.05 246.53)">#</text><text class="cls-2" transform="translate(469.13 248.22)">œ</text><text class="cls-2" transform="translate(465.05 248.22)">n</text><text class="cls-2" transform="translate(487.27 251.59)">œ</text><text class="cls-2" transform="translate(483.19 251.59)">n</text><text class="cls-2" transform="translate(505.27 248.22)">œ</text><text class="cls-2" transform="translate(501.19 248.22)">#</text><text class="cls-2" transform="translate(523.27 253.28)">œ</text><text class="cls-2" transform="translate(519.19 253.28)">#</text><text class="cls-2" transform="translate(541.41 249.91)">œ</text><text class="cls-2" transform="translate(537.33 249.91)">n</text><text class="cls-2" transform="translate(559.41 249.91)">œ</text><text class="cls-2" transform="translate(555.33 249.91)">b</text><text class="cls-2" transform="translate(577.55 253.28)">œ</text><text class="cls-2" transform="translate(573.47 253.28)">n</text><text></text><text class="cls-6" transform="translate(369.56 126.3)">2</text><path class="cls-9" d="M369.42,126.72v13.5"/><text class="cls-6" transform="translate(369.84 166.09)">4</text><text class="cls-6" transform="translate(371.25 207.02)">6</text><text class="cls-6" transform="translate(369.56 247.09)">8</text><text class="cls-6" transform="translate(578.67 118.7)">Reihen op. 25</text><rect class="cls-10" x="576.42" y="109.98" width="41.77" height="11.81"/><rect class="cls-7" x="572.63" y="104.5" width="47.67" height="7.17"/><path class="cls-9" d="M593.72,126.72v13.5"/><text class="cls-6" transform="translate(624.66 147.39)">3 Lieder</text><text class="cls-6" transform="translate(629.16 245.16)">1934</text><text class="cls-11" transform="translate(49.25 45.75)">M 317 Sk5 / M 321 Sk1 / M 322 Sk1</text></svg>