<svg id="Ebene_1" data-name="Ebene 1" xmlns="http://www.w3.org/2000/svg" viewBox="0 0 1021 595"><defs><style>.cls-1,.cls-11,.cls-13,.cls-17,.cls-18,.cls-19,.cls-9{fill:none;}.cls-1,.cls-11,.cls-13,.cls-14,.cls-17,.cls-18,.cls-19,.cls-9{stroke:#000;}.cls-1,.cls-14{stroke-width:0.4px;}.cls-10,.cls-12,.cls-2,.cls-4,.cls-5,.cls-6{isolation:isolate;}.cls-2,.cls-3,.cls-6{font-size:6.75px;}.cls-2,.cls-3{font-family:Arial-ItalicMT, Arial;}.cls-10,.cls-2,.cls-3{font-style:italic;}.cls-3{letter-spacing:0em;}.cls-4{font-size:10.13px;}.cls-4,.cls-5{font-family:Maestro, Maestro;}.cls-5{font-size:13.5px;}.cls-6{font-family:TimesNewRomanPSMT, Times New Roman;}.cls-14,.cls-7{fill:#fff;}.cls-8{letter-spacing:-0.04em;}.cls-9{stroke-width:0.56px;}.cls-10{font-size:5.63px;font-family:TimesNewRomanPS-BoldItalicMT, Times New Roman;}.cls-10,.cls-12{font-weight:700;}.cls-11{stroke-width:0.56px;}.cls-12{font-size:12px;font-family:Arial-BoldMT, Arial;}.cls-13{stroke-width:0.4px;}.cls-14{stroke-miterlimit:10;}.cls-15{letter-spacing:-0.11em;}.cls-16{letter-spacing:-0.04em;}.cls-17,.cls-18,.cls-19{stroke-width:0.25px;}.cls-18{stroke-dasharray:1 1;}.cls-19{stroke-dasharray:1 1;}</style></defs><title>Zeichenfläche 1</title><line class="cls-1" x1="85.1" y1="167.2" x2="85.1" y2="261.7"/><line class="cls-1" x1="650.9" y1="126.7" x2="650.9" y2="221.2"/><line class="cls-1" x1="837.6" y1="126.7" x2="837.6" y2="221.2"/><line class="cls-1" x1="935.2" y1="126.7" x2="935.2" y2="221.2"/><line class="cls-1" x1="84.9" y1="126.7" x2="935.4" y2="126.7"/><line class="cls-1" x1="84.9" y1="130.1" x2="935.4" y2="130.1"/><line class="cls-1" x1="84.9" y1="133.5" x2="935.4" y2="133.5"/><line class="cls-1" x1="84.9" y1="136.8" x2="935.4" y2="136.8"/><line class="cls-1" x1="84.9" y1="140.2" x2="935.4" y2="140.2"/><line class="cls-1" x1="84.9" y1="167.2" x2="935.4" y2="167.2"/><line class="cls-1" x1="84.9" y1="170.6" x2="935.4" y2="170.6"/><line class="cls-1" x1="84.9" y1="174" x2="935.4" y2="174"/><line class="cls-1" x1="84.9" y1="177.3" x2="935.4" y2="177.3"/><line class="cls-1" x1="84.9" y1="180.7" x2="935.4" y2="180.7"/><line class="cls-1" x1="84.9" y1="207.7" x2="935.4" y2="207.7"/><line class="cls-1" x1="84.9" y1="211.1" x2="935.4" y2="211.1"/><line class="cls-1" x1="84.9" y1="214.5" x2="935.4" y2="214.5"/><line class="cls-1" x1="84.9" y1="217.8" x2="935.4" y2="217.8"/><line class="cls-1" x1="84.9" y1="221.2" x2="935.4" y2="221.2"/><line class="cls-1" x1="84.9" y1="248.2" x2="935.4" y2="248.2"/><line class="cls-1" x1="84.9" y1="251.6" x2="935.4" y2="251.6"/><line class="cls-1" x1="84.9" y1="255" x2="935.4" y2="255"/><line class="cls-1" x1="84.9" y1="258.3" x2="935.4" y2="258.3"/><line class="cls-1" x1="84.9" y1="261.7" x2="935.4" y2="261.7"/><polyline class="cls-1" points="783.4 145.6 820.3 147.5 783.4 149.5"/><polyline class="cls-1" points="757.1 196.6 802 198.6 757.1 200.5"/><line class="cls-1" x1="846.1" y1="214.5" x2="932.2" y2="124"/><text class="cls-2" transform="translate(51.02 78.91)">Bl. 38</text><text class="cls-3" transform="translate(68.29 76.66) scale(0.58)">v</text><text class="cls-2" transform="translate(51.02 136.84)">13</text><text class="cls-2" transform="translate(51.02 177.34)">14</text><text class="cls-2" transform="translate(51.02 217.84)">15</text><text class="cls-2" transform="translate(51.02 258.06)">16</text><text class="cls-4" transform="translate(640.41 177.34)">&amp;</text><text class="cls-4" transform="translate(640.41 217.84)">&amp;</text><text class="cls-5" transform="translate(641.95 130.38)">4</text><text class="cls-5" transform="translate(641.95 136.84)">4</text><text class="cls-4" transform="translate(630.98 137.13)">&amp;</text><text class="cls-6" transform="translate(629.44 191.41)">gilt</text><rect class="cls-7" x="632.8" y="121.9" width="3.9" height="2.8"/><rect class="cls-7" x="632.8" y="144.4" width="3.9" height="2.8"/><rect class="cls-7" x="640.8" y="162.2" width="3.9" height="2.8"/><rect class="cls-7" x="640.8" y="184.7" width="3.9" height="2.8"/><rect class="cls-7" x="641.8" y="202.4" width="3.9" height="2.8"/><rect class="cls-7" x="641.8" y="224.9" width="3.9" height="2.8"/><text class="cls-5" transform="translate(666.14 133.47)">‰</text><line class="cls-1" x1="691.6" y1="136.3" x2="691.6" y2="125"/><text class="cls-5" transform="translate(687.52 136.84)">œ</text><text class="cls-5" transform="translate(683.72 136.84)">n</text><text class="cls-5" transform="translate(687.8 141.91)">-</text><line class="cls-1" x1="738.6" y1="139.7" x2="738.6" y2="128.4"/><text class="cls-5" transform="translate(734.48 140.22)">œ</text><text class="cls-5" transform="translate(730.69 140.22)">n</text><text class="cls-5" transform="translate(777.38 138.53)">J</text><line class="cls-1" x1="777.6" y1="130.7" x2="777.6" y2="141.9"/><text class="cls-5" transform="translate(777.38 130.09)">œ</text><text class="cls-5" transform="translate(773.02 130.09)">#</text><line class="cls-1" x1="798.9" y1="127.3" x2="798.9" y2="138.5"/><text class="cls-5" transform="translate(798.75 126.72)">œ</text><text class="cls-5" transform="translate(794.39 126.72)">#</text><text class="cls-5" transform="translate(799.03 122.92)">-</text><text class="cls-6" transform="translate(684.18 118)"><tspan class="cls-8">W</tspan><tspan x="6.1" y="0">ie</tspan></text><text class="cls-6" transform="translate(732.33 118)">bin</text><text class="cls-6" transform="translate(775.41 118)">ich</text><text class="cls-6" transform="translate(794.16 118)">froh!</text><text class="cls-5" transform="translate(666.14 173.97)">Œ</text><text class="cls-5" transform="translate(704.81 177.34)">œ</text><text class="cls-5" transform="translate(701.02 177.34)">n</text><line class="cls-1" x1="708.9" y1="176.8" x2="708.9" y2="159.6"/><text class="cls-5" transform="translate(714.66 180.72)">œ</text><text class="cls-5" transform="translate(710.86 180.72)">n</text><line class="cls-1" x1="718.8" y1="180.2" x2="718.8" y2="158.8"/><text class="cls-5" transform="translate(724.64 170.6)">œ</text><line class="cls-1" x1="728.7" y1="170.3" x2="728.7" y2="157.9"/><path d="M708.7,158.8l20.2-1.7v1.7l-20.2,1.7Z"/><path d="M708.7,161.3l20.2-1.7v1.7L708.7,163Z"/><text class="cls-5" transform="translate(734.48 207.72)">œ</text><text class="cls-5" transform="translate(730.13 207.72)">#</text><line class="cls-1" x1="738.6" y1="207.2" x2="738.6" y2="195.3"/><text class="cls-5" transform="translate(736.03 212.5)">.</text><text class="cls-5" transform="translate(755.86 172.28)">œ</text><text class="cls-5" transform="translate(751.5 172.28)">#</text><line class="cls-1" x1="756.1" y1="172.8" x2="756.1" y2="188"/><text class="cls-5" transform="translate(756.84 169.47)">.</text><path d="M738.4,194.5l17.88-7.3v1.7l-17.88,7.3Z"/><line class="cls-1" x1="781.5" y1="185.2" x2="781.5" y2="162.2"/><text class="cls-5" transform="translate(777.38 173.97)">œ</text><line class="cls-9" x1="776.5" y1="184.1" x2="782.6" y2="184.1"/><text class="cls-5" transform="translate(777.38 185.78)">œ</text><text class="cls-5" transform="translate(773.58 185.78)">n</text><text class="cls-5" transform="translate(773.44 173.97)">b</text><text class="cls-5" transform="translate(816.05 173.97)">‰</text><text class="cls-10" transform="translate(715.5 186.48)">3</text><text class="cls-5" transform="translate(666.14 214.47)">Œ</text><line class="cls-1" x1="781.5" y1="222.3" x2="781.5" y2="202.7"/><text class="cls-5" transform="translate(777.38 214.47)">œ</text><text class="cls-5" transform="translate(777.38 222.91)">œ</text><text class="cls-5" transform="translate(773.58 214.47)">n</text><text class="cls-5" transform="translate(769.78 222.91)">n</text><text class="cls-5" transform="translate(816.05 214.47)">‰</text><text class="cls-4" transform="translate(760.78 211.09)">?</text><text class="cls-6" transform="translate(651.94 125.73)">2</text><text class="cls-6" transform="translate(703.41 204.77)">1</text><path class="cls-11" d="M703.4,154.4h4.1"/><path class="cls-11" d="M707.3,154.1v4.2"/><path class="cls-11" d="M703.1,195.5h4.1"/><path class="cls-11" d="M703.4,191.5v4.2"/><text class="cls-5" transform="translate(695.25 191.13)">f</text><text class="cls-2" transform="translate(650.67 78.91)">2</text><text class="cls-5" transform="translate(846.14 133.47)">‰</text><text class="cls-5" transform="translate(868.08 131.78)">œ</text><text class="cls-5" transform="translate(863.72 131.78)">#</text><line class="cls-1" x1="872.2" y1="131.2" x2="872.2" y2="120.8"/><text class="cls-5" transform="translate(878.91 138.53)">œ</text><text class="cls-5" transform="translate(875.11 138.53)">n</text><line class="cls-1" x1="883" y1="138" x2="883" y2="121.7"/><text class="cls-5" transform="translate(889.73 141.91)">œ</text><text class="cls-5" transform="translate(885.94 141.91)">n</text><line class="cls-1" x1="893.8" y1="141.3" x2="893.8" y2="122.5"/><path d="M872,120l22.1,1.7v1.7L872,121.7Z"/><text class="cls-5" transform="translate(897.19 133.47)">‰</text><text class="cls-5" transform="translate(904.08 133.47)">‰</text><text class="cls-5" transform="translate(914.2 133.47)">œ</text><text class="cls-5" transform="translate(910.41 133.47)">n</text><line class="cls-1" x1="918.3" y1="132.9" x2="918.3" y2="122.5"/><text class="cls-5" transform="translate(925.73 133.47)">œ</text><text class="cls-5" transform="translate(921.8 133.47)">b</text><line class="cls-1" x1="929.8" y1="132.9" x2="929.8" y2="122.5"/><path d="M918.1,121.7H930v1.7H918.1Z"/><text class="cls-10" transform="translate(863.3 115.05)">3</text><text class="cls-10" transform="translate(897.61 119.83)">3</text><polyline class="cls-1" points="889.7 116.9 889.7 115.2 908.4 115.2 908.4 116.9"/><line class="cls-9" x1="845.3" y1="184.1" x2="851.3" y2="184.1"/><text class="cls-5" transform="translate(846.14 184.09)">œ</text><text class="cls-5" transform="translate(842.34 184.09)">n</text><line class="cls-1" x1="850.2" y1="183.5" x2="850.2" y2="168.1"/><line class="cls-9" x1="856" y1="187.5" x2="862" y2="187.5"/><line class="cls-9" x1="856" y1="184.1" x2="862" y2="184.1"/><text class="cls-5" transform="translate(856.83 187.47)">œ</text><text class="cls-5" transform="translate(853.03 187.47)">n</text><line class="cls-1" x1="860.9" y1="186.9" x2="860.9" y2="167.2"/><text class="cls-5" transform="translate(868.08 177.34)">œ</text><text class="cls-5" transform="translate(863.72 177.34)">#</text><line class="cls-1" x1="872.2" y1="176.8" x2="872.2" y2="166.4"/><path d="M850,167.2l22.3-1.7v1.7L850,168.9Z"/><path d="M850,169.8l22.3-1.7v1.7L850,171.5Z"/><text class="cls-10" transform="translate(857.81 194.64)">3</text><text class="cls-2" transform="translate(837.42 78.91)">{3}</text><path class="cls-11" d="M870.5,161.8h4.1"/><path class="cls-11" d="M874.5,161.5v4.2"/><text class="cls-5" transform="translate(853.03 147.55)">p</text><text class="cls-6" transform="translate(837.42 125.73)">3</text><path d="M707.8,185.9c8.9,8.6,18,2.2,19.5-9.8h0c-1.9,11.3-11.1,17.6-19.5,9.8"/><path d="M740.4,131.9c8.6-9.8,27.8-12.9,39.1-6.3h0c-11.1-5.8-30.4-2.7-39.1,6.3"/><path d="M870.2,135.2c3.7,11.2,14.9,19,21.8,10h0c-6.6,8.2-17.8.4-21.8-10"/><text class="cls-12" transform="translate(51.02 46.5)">M 317 Sk4.1</text><path d="M83.8,207.7c-7.2,11.5,3.1,21.9-3.7,27h.3c8.2-6.8-1.9-15.5,3.4-26.7Z"/><path d="M83.8,261.7c-7.2-11.5,3.1-21.9-3.7-27h.3c8.2,6.8-1.9,15.5,3.4,26.7Z"/><path class="cls-13" d="M631.9,125.2h-1.4v19.1h1.4"/><path class="cls-13" d="M638,125.2h1.4v19.1H638"/><path class="cls-13" d="M640.7,205.9h-1.4V225h1.4"/><path class="cls-13" d="M646.8,205.9h1.4V225h-1.4"/><path class="cls-13" d="M640.7,165.4h-1.4v19.1h1.4"/><path class="cls-13" d="M646.8,165.4h1.4v19.1h-1.4"/><path class="cls-1" d="M644.8,98.9c-.6.3-5.7,2.4-7.2,8a12.43,12.43,0,0,0,2.3,10.8"/><path d="M641.5,119.4a13.32,13.32,0,0,0-3.7-1.2l1.9-.8.9-1.8A10.07,10.07,0,0,0,641.5,119.4Z"/><line class="cls-1" x1="848.3" y1="128.4" x2="910.4" y2="212.5"/><path class="cls-1" d="M855,114.9c-4.6.7-14.3,1.5-14,7.5.3,8-.5,13.5,0,22.8.3,6.5.5,18.9-.5,44.5-1.1,26.7-2.8,35.2,1.8,38,8,4.9,17.7,4.5,27.2,3.5"/><polyline class="cls-14" points="83.8 86.9 83.8 98.9 935.2 98.9 935.2 86.9"/><text class="cls-12" transform="translate(481 94.65)">Sk4 <tspan class="cls-15" x="24.69" y="0">T</tspan><tspan x="30.69" y="0">. {1A}–3</tspan><tspan class="cls-16" x="75.38" y="0">A</tspan></text><text class="cls-5" transform="translate(668.25 149.13)">f</text><text class="cls-5" transform="translate(720.28 170.6)">#</text><line class="cls-17" x1="802.6" y1="145.5" x2="803.1" y2="145.55"/><line class="cls-18" x1="804.09" y1="145.66" x2="819.51" y2="147.29"/><polyline class="cls-17" points="820 147.35 820.5 147.4 820 147.46"/><line class="cls-19" x1="819.01" y1="147.57" x2="803.59" y2="149.29"/><line class="cls-17" x1="803.1" y1="149.34" x2="802.6" y2="149.4"/></svg>