<?xml version="1.0" encoding="utf-8"?>
<!-- Generator: Adobe Illustrator 22.1.0, SVG Export Plug-In . SVG Version: 6.00 Build 0)  -->
<svg version="1.1" id="Ebene_1" xmlns="http://www.w3.org/2000/svg" xmlns:xlink="http://www.w3.org/1999/xlink" x="0px" y="0px"
	 viewBox="0 0 1021 595" style="enable-background:new 0 0 1021 595;" xml:space="preserve">
<style type="text/css">
	.st0{fill:none;stroke:#000000;stroke-width:0.4;}
	.st1{enable-background:new    ;}
	.st2{fill:none;stroke:#000000;stroke-width:0.56;}
	.st3{fill:#FFFFFF;stroke:#000000;stroke-width:0.4;stroke-miterlimit:10;}
	.st4{fill:none;}
	.st5{fill:none;stroke:#000000;stroke-width:0.4;stroke-miterlimit:10;}
</style>
<line class="st0" x1="568" y1="167.2" x2="568" y2="180.7"/>
<line class="st0" x1="84.9" y1="126.7" x2="935.4" y2="126.7"/>
<line class="st0" x1="84.9" y1="130.1" x2="935.4" y2="130.1"/>
<line class="st0" x1="84.9" y1="133.5" x2="935.4" y2="133.5"/>
<line class="st0" x1="84.9" y1="136.8" x2="935.4" y2="136.8"/>
<line class="st0" x1="84.9" y1="140.2" x2="935.4" y2="140.2"/>
<line class="st0" x1="84.9" y1="167.2" x2="935.4" y2="167.2"/>
<line class="st0" x1="84.9" y1="170.6" x2="935.4" y2="170.6"/>
<line class="st0" x1="84.9" y1="174" x2="935.4" y2="174"/>
<line class="st0" x1="84.9" y1="177.3" x2="935.4" y2="177.3"/>
<line class="st0" x1="84.9" y1="180.7" x2="935.4" y2="180.7"/>
<g class="st1">
	<path d="M51.3,78.9l1-4.8h1.5c0.3,0,0.5,0,0.6,0c0.2,0,0.4,0.1,0.5,0.2c0.1,0.1,0.3,0.2,0.3,0.4c0.1,0.2,0.1,0.3,0.1,0.5
		c0,0.3-0.1,0.5-0.2,0.7s-0.4,0.4-0.7,0.5c0.3,0.1,0.5,0.2,0.6,0.4c0.1,0.2,0.2,0.4,0.2,0.6c0,0.3-0.1,0.5-0.2,0.8s-0.4,0.4-0.6,0.6
		s-0.5,0.2-0.8,0.2H51.3z M52.1,78.4h1.1c0.3,0,0.5,0,0.6,0c0.2,0,0.4-0.1,0.5-0.2c0.1-0.1,0.2-0.2,0.3-0.3c0.1-0.1,0.1-0.3,0.1-0.4
		c0-0.2-0.1-0.4-0.2-0.5c-0.1-0.1-0.4-0.2-0.8-0.2h-1.2L52.1,78.4z M52.5,76.1h1c0.5,0,0.8-0.1,1-0.2c0.2-0.1,0.3-0.4,0.3-0.7
		c0-0.1,0-0.3-0.1-0.4c-0.1-0.1-0.1-0.2-0.3-0.2c-0.1,0-0.3-0.1-0.6-0.1h-1L52.5,76.1z"/>
	<path d="M55.7,78.9l1-4.8h0.6l-1,4.8H55.7z"/>
	<path d="M57.4,78.9l0.1-0.7h0.7l-0.1,0.7H57.4z"/>
	<path d="M61.1,77.6l0.6-0.1c0,0.3,0.1,0.6,0.3,0.7c0.2,0.1,0.3,0.2,0.6,0.2c0.3,0,0.5-0.1,0.8-0.3c0.2-0.2,0.3-0.5,0.3-0.7
		c0-0.2-0.1-0.4-0.2-0.6c-0.2-0.2-0.4-0.2-0.6-0.2c0,0-0.1,0-0.2,0l0.1-0.5c0.1,0,0.1,0,0.2,0c0.3,0,0.6-0.1,0.8-0.2
		s0.3-0.4,0.3-0.6c0-0.2-0.1-0.4-0.2-0.6c-0.2-0.2-0.3-0.2-0.6-0.2c-0.2,0-0.4,0.1-0.6,0.2c-0.2,0.2-0.3,0.4-0.3,0.7l-0.6-0.1
		c0.1-0.4,0.3-0.7,0.6-0.9c0.3-0.2,0.6-0.3,1-0.3c0.4,0,0.7,0.1,1,0.4s0.4,0.5,0.4,0.9c0,0.3-0.1,0.5-0.2,0.7
		c-0.1,0.2-0.3,0.3-0.6,0.5c0.2,0.1,0.3,0.2,0.4,0.4c0.1,0.2,0.1,0.3,0.1,0.5c0,0.4-0.2,0.8-0.5,1.1S63.1,79,62.6,79
		c-0.4,0-0.8-0.1-1.1-0.4C61.3,78.4,61.2,78.1,61.1,77.6z"/>
	<path d="M66,76.3c-0.2-0.1-0.3-0.2-0.4-0.4c-0.1-0.2-0.1-0.3-0.1-0.5c0-0.3,0.1-0.6,0.3-0.8c0.3-0.3,0.7-0.5,1.1-0.5
		c0.4,0,0.8,0.1,1,0.3c0.2,0.2,0.4,0.5,0.4,0.8c0,0.2-0.1,0.4-0.2,0.6c-0.1,0.2-0.3,0.3-0.6,0.5c0.2,0.1,0.3,0.2,0.4,0.4
		c0.1,0.2,0.2,0.4,0.2,0.6c0,0.4-0.2,0.8-0.5,1.2c-0.3,0.3-0.7,0.5-1.2,0.5c-0.4,0-0.7-0.1-1-0.4c-0.3-0.3-0.4-0.6-0.4-0.9
		c0-0.4,0.1-0.7,0.3-0.9C65.5,76.5,65.7,76.3,66,76.3z M65.6,77.7c0,0.1,0,0.3,0.1,0.4c0.1,0.1,0.2,0.2,0.3,0.3s0.3,0.1,0.5,0.1
		c0.3,0,0.6-0.2,0.8-0.5c0.2-0.2,0.2-0.5,0.2-0.8c0-0.2-0.1-0.4-0.2-0.5c-0.1-0.1-0.3-0.2-0.6-0.2c-0.3,0-0.6,0.1-0.8,0.3
		S65.6,77.4,65.6,77.7z M66.1,75.4c0,0.2,0.1,0.4,0.2,0.5c0.1,0.1,0.3,0.2,0.5,0.2c0.3,0,0.5-0.1,0.7-0.2c0.2-0.2,0.3-0.4,0.3-0.6
		c0-0.2-0.1-0.4-0.2-0.5c-0.1-0.1-0.3-0.2-0.5-0.2c-0.2,0-0.3,0-0.5,0.1c-0.1,0.1-0.3,0.2-0.3,0.3C66.1,75.1,66.1,75.3,66.1,75.4z"
		/>
</g>
<g class="st1">
	<path d="M68.9,76.7l-0.3-2h0.3l0.2,1.1c0,0.1,0,0.3,0.1,0.6c0.1-0.1,0.2-0.3,0.3-0.5l0.7-1.2h0.4l-1.2,2H68.9z"/>
</g>
<g class="st1">
	<path d="M51.5,135.5l0.6-0.1c0,0.1,0,0.1,0,0.2c0,0.1,0,0.3,0.1,0.4c0.1,0.1,0.2,0.3,0.3,0.3c0.1,0.1,0.3,0.1,0.4,0.1
		c0.2,0,0.4-0.1,0.6-0.2c0.2-0.1,0.3-0.3,0.5-0.6s0.2-0.5,0.2-0.7c0-0.3-0.1-0.5-0.2-0.6c-0.2-0.2-0.4-0.2-0.6-0.2
		c-0.2,0-0.3,0-0.5,0.1c-0.2,0.1-0.3,0.2-0.4,0.4l-0.5,0l0.7-2.5h2.4l-0.1,0.5h-1.8l-0.4,1.2c0.1-0.1,0.3-0.2,0.4-0.2
		s0.3-0.1,0.4-0.1c0.4,0,0.7,0.1,0.9,0.4s0.4,0.6,0.4,1c0,0.4-0.1,0.7-0.2,1c-0.2,0.3-0.4,0.6-0.7,0.7s-0.6,0.3-0.9,0.3
		c-0.3,0-0.5-0.1-0.7-0.2c-0.2-0.1-0.4-0.3-0.5-0.5S51.5,135.8,51.5,135.5C51.5,135.5,51.5,135.5,51.5,135.5z"/>
</g>
<g class="st1">
	<path d="M52.4,174.5c0.2-0.1,0.3-0.2,0.5-0.3c0.2-0.1,0.3-0.1,0.5-0.1c0.4,0,0.7,0.1,0.9,0.4c0.2,0.2,0.4,0.6,0.4,1
		c0,0.5-0.2,1-0.5,1.4c-0.3,0.3-0.7,0.5-1.1,0.5c-0.4,0-0.7-0.1-1-0.4c-0.3-0.3-0.4-0.7-0.4-1.3c0-0.5,0.1-1,0.3-1.5
		c0.1-0.4,0.3-0.7,0.5-1c0.2-0.3,0.4-0.4,0.6-0.6c0.2-0.1,0.5-0.2,0.7-0.2c0.3,0,0.6,0.1,0.8,0.3c0.2,0.2,0.3,0.5,0.4,0.9l-0.6,0.1
		c0-0.3-0.1-0.5-0.2-0.6c-0.1-0.1-0.3-0.2-0.4-0.2c-0.2,0-0.4,0.1-0.5,0.2c-0.2,0.1-0.3,0.3-0.5,0.6
		C52.5,174.1,52.4,174.3,52.4,174.5z M52.2,176c0,0.3,0.1,0.5,0.3,0.7c0.2,0.2,0.4,0.3,0.6,0.3c0.1,0,0.3-0.1,0.5-0.2
		c0.2-0.1,0.3-0.3,0.4-0.5c0.1-0.2,0.2-0.5,0.2-0.7c0-0.3-0.1-0.5-0.2-0.7c-0.2-0.2-0.4-0.3-0.6-0.3c-0.3,0-0.5,0.1-0.7,0.4
		C52.3,175.2,52.2,175.6,52.2,176z"/>
</g>
<g class="st1">
	<path d="M477.6,139.4c-0.2,0-0.4,0.1-0.6,0.1c-0.2,0-0.4,0-0.6,0c-0.2,0-0.4,0-0.6-0.1s-0.3-0.1-0.4-0.1c-0.5-0.2-0.9-0.5-1.3-0.8
		s-0.6-0.6-0.7-0.9s-0.3-0.6-0.4-0.9c-0.1-0.3-0.1-0.6-0.1-1c0-0.4,0-0.7,0.1-1.1s0.2-0.7,0.4-1c0.2-0.3,0.3-0.6,0.5-0.9
		c0.2-0.3,0.4-0.5,0.6-0.7c0.2-0.2,0.5-0.5,0.8-0.7s0.6-0.5,0.9-0.7c0-0.1,0-0.2,0-0.2s0-0.1,0-0.2s0-0.2,0-0.2c0-0.1,0-0.2,0-0.3
		c0-0.1,0-0.2,0-0.3c0-0.1,0-0.3,0-0.5s0-0.4,0-0.7c0-0.3,0-0.5,0.1-0.8c0-0.2,0.1-0.4,0.2-0.6c0.1-0.3,0.2-0.5,0.4-0.8
		s0.3-0.5,0.5-0.6s0.3-0.3,0.5-0.3c0.1,0,0.2,0,0.2,0.1c0.1,0.1,0.2,0.2,0.3,0.4s0.2,0.3,0.2,0.5s0.2,0.4,0.2,0.6
		c0.1,0.2,0.1,0.4,0.1,0.6c0,0.2,0.1,0.4,0.1,0.5c0,0.4,0,0.7,0,0.9c0,0.3-0.1,0.5-0.2,0.7c-0.1,0.2-0.1,0.4-0.2,0.6
		s-0.2,0.4-0.3,0.5c-0.1,0.2-0.2,0.3-0.3,0.5c-0.1,0.1-0.2,0.3-0.3,0.4c-0.1,0.1-0.2,0.3-0.4,0.4c-0.1,0.1-0.3,0.2-0.4,0.3
		c0.1,0.3,0.1,0.7,0.2,0.9c0,0.1,0,0.2,0.1,0.4c0,0.1,0,0.2,0.1,0.3s0,0.2,0,0.2s0,0.1,0,0.1c0.2,0,0.3,0,0.5,0c0.2,0,0.3,0,0.5,0.1
		c0.2,0,0.3,0.1,0.4,0.1c0.1,0.1,0.2,0.1,0.3,0.2c0.4,0.3,0.6,0.6,0.8,0.9c0.2,0.3,0.2,0.7,0.3,1.1c0,0.3,0,0.6-0.1,0.9
		s-0.2,0.6-0.3,0.8s-0.4,0.5-0.6,0.7c-0.3,0.2-0.6,0.4-0.9,0.5c0,0.3,0.1,0.5,0.1,0.8c0,0.2,0.1,0.4,0.1,0.6s0,0.3,0.1,0.4
		c0.1,0.4,0.1,0.7,0.1,1s-0.1,0.5-0.2,0.6c-0.1,0.1-0.2,0.3-0.3,0.4c-0.1,0.1-0.2,0.2-0.3,0.3c-0.1,0.1-0.3,0.2-0.5,0.3
		c-0.2,0.1-0.4,0.1-0.6,0.1c-0.2,0-0.4,0-0.6,0s-0.5-0.1-0.7-0.2c-0.2-0.1-0.4-0.3-0.6-0.5c-0.2-0.2-0.3-0.4-0.3-0.7
		c0-0.2,0-0.3,0-0.5c0-0.2,0.1-0.3,0.2-0.4s0.2-0.2,0.3-0.3c0.1-0.1,0.3-0.1,0.5-0.2c0.1,0,0.2,0,0.4,0.1c0.1,0,0.2,0.1,0.3,0.2
		s0.2,0.2,0.3,0.3c0.1,0.1,0.1,0.3,0.1,0.4c0,0.2-0.1,0.5-0.2,0.7c-0.2,0.2-0.5,0.4-0.9,0.5c0.1,0.1,0.2,0.2,0.4,0.3
		s0.4,0.1,0.7,0.1c0.3,0,0.6-0.1,0.9-0.3c0.3-0.2,0.5-0.4,0.6-0.7c0.1-0.2,0.1-0.4,0.1-0.7c0-0.3,0-0.6-0.1-0.8c0,0,0-0.2-0.1-0.3
		c0-0.2-0.1-0.4-0.1-0.6C477.7,139.9,477.7,139.7,477.6,139.4z M476.3,135.6c-0.2,0.1-0.3,0.2-0.4,0.4c-0.1,0.1-0.2,0.3-0.2,0.4
		s-0.1,0.3,0,0.4s0,0.2,0.1,0.4c0,0.1,0.1,0.2,0.2,0.4s0.2,0.2,0.3,0.3c0.1,0.1,0.2,0.2,0.3,0.2c0,0,0,0,0,0c0,0,0,0,0,0
		c0,0,0,0,0,0c-0.2-0.1-0.4-0.2-0.6-0.4c-0.2-0.1-0.3-0.2-0.3-0.3c-0.1-0.1-0.1-0.2-0.2-0.3c-0.1-0.1-0.1-0.2-0.1-0.3
		c0-0.1-0.1-0.2-0.1-0.3c0-0.1,0-0.2,0-0.4c0-0.1,0-0.3,0-0.5c0-0.2,0.1-0.3,0.2-0.5s0.2-0.3,0.3-0.5c0.1-0.2,0.3-0.3,0.4-0.4
		c0.1-0.1,0.2-0.1,0.2-0.2c0.1,0,0.1-0.1,0.2-0.1c0.1,0,0.1-0.1,0.2-0.1c0.1,0,0.1,0,0.2-0.1l-0.3-1.8c-0.1,0-0.2,0.1-0.4,0.3
		c-0.2,0.1-0.4,0.3-0.6,0.5c-0.2,0.2-0.4,0.4-0.6,0.6s-0.4,0.4-0.5,0.7c-0.2,0.4-0.4,0.7-0.6,1.1c-0.1,0.3-0.2,0.7-0.2,1.1
		c0,0.4,0.2,0.8,0.4,1.2c0.2,0.4,0.5,0.7,0.9,0.9c0.4,0.2,0.8,0.4,1.2,0.5c0.5,0.1,0.9,0.1,1.4,0c-0.1-0.7-0.2-1.3-0.3-1.8
		c0-0.2-0.1-0.4-0.1-0.7c0-0.2-0.1-0.4-0.1-0.6s-0.1-0.4-0.1-0.6C476.7,135.5,476.5,135.5,476.3,135.6z M477.9,126.6
		c-0.3,0-0.5,0.1-0.7,0.4s-0.4,0.6-0.5,0.9c-0.1,0.4-0.2,0.8-0.2,1.2c0,0.5,0,0.9,0,1.3c0.2-0.2,0.5-0.4,0.7-0.6
		c0.2-0.2,0.5-0.5,0.7-0.8c0.2-0.3,0.4-0.5,0.5-0.8c0.1-0.3,0.2-0.5,0.2-0.8c0-0.1,0-0.2,0-0.3c0-0.1-0.1-0.2-0.1-0.3
		c0-0.1-0.1-0.2-0.2-0.2C478.1,126.6,478,126.6,477.9,126.6z M477.8,139c0.3-0.1,0.5-0.2,0.7-0.4s0.3-0.3,0.4-0.5
		c0.1-0.2,0.1-0.4,0.1-0.6c0-0.2,0-0.4,0-0.5c0-0.1,0-0.3-0.1-0.5c0-0.2-0.1-0.4-0.2-0.5s-0.3-0.3-0.5-0.4c-0.2-0.1-0.5-0.2-0.9-0.1
		L477.8,139z"/>
</g>
<g class="st1">
	<path d="M477.6,179.9c-0.2,0-0.4,0.1-0.6,0.1c-0.2,0-0.4,0-0.6,0c-0.2,0-0.4,0-0.6-0.1s-0.3-0.1-0.4-0.1c-0.5-0.2-0.9-0.5-1.3-0.8
		s-0.6-0.6-0.7-0.9s-0.3-0.6-0.4-0.9c-0.1-0.3-0.1-0.6-0.1-1c0-0.4,0-0.7,0.1-1.1s0.2-0.7,0.4-1c0.2-0.3,0.3-0.6,0.5-0.9
		c0.2-0.3,0.4-0.5,0.6-0.7c0.2-0.2,0.5-0.5,0.8-0.7s0.6-0.5,0.9-0.7c0-0.1,0-0.2,0-0.2s0-0.1,0-0.2s0-0.2,0-0.2c0-0.1,0-0.2,0-0.3
		c0-0.1,0-0.2,0-0.3c0-0.1,0-0.3,0-0.5s0-0.4,0-0.7s0-0.5,0.1-0.8c0-0.2,0.1-0.4,0.2-0.6c0.1-0.3,0.2-0.5,0.4-0.8s0.3-0.5,0.5-0.6
		s0.3-0.3,0.5-0.3c0.1,0,0.2,0,0.2,0.1c0.1,0.1,0.2,0.2,0.3,0.4s0.2,0.3,0.2,0.5s0.2,0.4,0.2,0.6c0.1,0.2,0.1,0.4,0.1,0.6
		c0,0.2,0.1,0.4,0.1,0.5c0,0.4,0,0.7,0,0.9c0,0.3-0.1,0.5-0.2,0.7c-0.1,0.2-0.1,0.4-0.2,0.6s-0.2,0.4-0.3,0.5
		c-0.1,0.2-0.2,0.3-0.3,0.5c-0.1,0.1-0.2,0.3-0.3,0.4c-0.1,0.1-0.2,0.3-0.4,0.4c-0.1,0.1-0.3,0.2-0.4,0.3c0.1,0.3,0.1,0.7,0.2,0.9
		c0,0.1,0,0.2,0.1,0.4c0,0.1,0,0.2,0.1,0.3s0,0.2,0,0.2s0,0.1,0,0.1c0.2,0,0.3,0,0.5,0c0.2,0,0.3,0,0.5,0.1c0.2,0,0.3,0.1,0.4,0.1
		c0.1,0.1,0.2,0.1,0.3,0.2c0.4,0.3,0.6,0.6,0.8,0.9c0.2,0.3,0.2,0.7,0.3,1.1c0,0.3,0,0.6-0.1,0.9s-0.2,0.6-0.3,0.8s-0.4,0.5-0.6,0.7
		c-0.3,0.2-0.6,0.4-0.9,0.5c0,0.3,0.1,0.5,0.1,0.8c0,0.2,0.1,0.4,0.1,0.6s0,0.3,0.1,0.4c0.1,0.4,0.1,0.7,0.1,1s-0.1,0.5-0.2,0.6
		c-0.1,0.1-0.2,0.3-0.3,0.4c-0.1,0.1-0.2,0.2-0.3,0.3c-0.1,0.1-0.3,0.2-0.5,0.3c-0.2,0.1-0.4,0.1-0.6,0.1c-0.2,0-0.4,0-0.6,0
		s-0.5-0.1-0.7-0.2c-0.2-0.1-0.4-0.3-0.6-0.5c-0.2-0.2-0.3-0.4-0.3-0.7c0-0.2,0-0.3,0-0.5c0-0.2,0.1-0.3,0.2-0.4s0.2-0.2,0.3-0.3
		c0.1-0.1,0.3-0.1,0.5-0.2c0.1,0,0.2,0,0.4,0.1c0.1,0,0.2,0.1,0.3,0.2s0.2,0.2,0.3,0.3c0.1,0.1,0.1,0.3,0.1,0.4
		c0,0.2-0.1,0.5-0.2,0.7c-0.2,0.2-0.5,0.4-0.9,0.5c0.1,0.1,0.2,0.2,0.4,0.3s0.4,0.1,0.7,0.1c0.3,0,0.6-0.1,0.9-0.3
		c0.3-0.2,0.5-0.4,0.6-0.7c0.1-0.2,0.1-0.4,0.1-0.7c0-0.3,0-0.6-0.1-0.8c0,0,0-0.2-0.1-0.3c0-0.2-0.1-0.4-0.1-0.6
		C477.7,180.4,477.7,180.2,477.6,179.9z M476.3,176.1c-0.2,0.1-0.3,0.2-0.4,0.4c-0.1,0.1-0.2,0.3-0.2,0.4s-0.1,0.3,0,0.4
		s0,0.2,0.1,0.4c0,0.1,0.1,0.2,0.2,0.4s0.2,0.2,0.3,0.3c0.1,0.1,0.2,0.2,0.3,0.2c0,0,0,0,0,0c0,0,0,0,0,0c0,0,0,0,0,0
		c-0.2-0.1-0.4-0.2-0.6-0.4c-0.2-0.1-0.3-0.2-0.3-0.3c-0.1-0.1-0.1-0.2-0.2-0.3c-0.1-0.1-0.1-0.2-0.1-0.3c0-0.1-0.1-0.2-0.1-0.3
		c0-0.1,0-0.2,0-0.4c0-0.1,0-0.3,0-0.5c0-0.2,0.1-0.3,0.2-0.5s0.2-0.3,0.3-0.5c0.1-0.2,0.3-0.3,0.4-0.4c0.1-0.1,0.2-0.1,0.2-0.2
		c0.1,0,0.1-0.1,0.2-0.1c0.1,0,0.1-0.1,0.2-0.1c0.1,0,0.1,0,0.2-0.1l-0.3-1.8c-0.1,0-0.2,0.1-0.4,0.3c-0.2,0.1-0.4,0.3-0.6,0.5
		c-0.2,0.2-0.4,0.4-0.6,0.6s-0.4,0.4-0.5,0.7c-0.2,0.4-0.4,0.7-0.6,1.1c-0.1,0.3-0.2,0.7-0.2,1.1c0,0.4,0.2,0.8,0.4,1.2
		c0.2,0.4,0.5,0.7,0.9,0.9c0.4,0.2,0.8,0.4,1.2,0.5c0.5,0.1,0.9,0.1,1.4,0c-0.1-0.7-0.2-1.3-0.3-1.8c0-0.2-0.1-0.4-0.1-0.7
		c0-0.2-0.1-0.4-0.1-0.6s-0.1-0.4-0.1-0.6C476.7,176,476.5,176,476.3,176.1z M477.9,167.1c-0.3,0-0.5,0.1-0.7,0.4s-0.4,0.6-0.5,0.9
		c-0.1,0.4-0.2,0.8-0.2,1.2c0,0.5,0,0.9,0,1.3c0.2-0.2,0.5-0.4,0.7-0.6c0.2-0.2,0.5-0.5,0.7-0.8c0.2-0.3,0.4-0.5,0.5-0.8
		c0.1-0.3,0.2-0.5,0.2-0.8c0-0.1,0-0.2,0-0.3c0-0.1-0.1-0.2-0.1-0.3c0-0.1-0.1-0.2-0.2-0.2C478.1,167.1,478,167.1,477.9,167.1z
		 M477.8,179.5c0.3-0.1,0.5-0.2,0.7-0.4s0.3-0.3,0.4-0.5c0.1-0.2,0.1-0.4,0.1-0.6c0-0.2,0-0.4,0-0.5c0-0.1,0-0.3-0.1-0.5
		c0-0.2-0.1-0.4-0.2-0.5s-0.3-0.3-0.5-0.4c-0.2-0.1-0.5-0.2-0.9-0.1L477.8,179.5z"/>
</g>
<g class="st1">
	<path d="M487.8,133.5c0.1-0.2,0.2-0.5,0.4-0.7s0.4-0.4,0.6-0.5c0.2-0.2,0.5-0.3,0.8-0.4c0.3-0.1,0.6-0.1,0.9-0.1s0.5,0,0.8,0.1
		c0.2,0.1,0.4,0.2,0.5,0.4c0.1,0.2,0.2,0.3,0.2,0.6c0,0.2,0,0.4-0.1,0.7s-0.2,0.5-0.4,0.7c-0.2,0.2-0.4,0.4-0.6,0.6
		s-0.5,0.3-0.8,0.4c-0.3,0.1-0.6,0.1-0.8,0.1c-0.3,0-0.5,0-0.7-0.1c-0.2-0.1-0.4-0.2-0.5-0.4s-0.2-0.3-0.2-0.6
		C487.7,134,487.7,133.7,487.8,133.5z"/>
</g>
<g class="st1">
	<path d="M486.1,130.8v7.7h-0.4v-2.9l-1.9,0.5v-7.8h0.3v3L486.1,130.8z M484.2,132.6v2.1l1.5-0.4v-2.1L484.2,132.6z"/>
</g>
<line class="st0" x1="491.8" y1="132.9" x2="491.8" y2="122.5"/>
<g class="st1">
	<path d="M501.2,133.5c0.1-0.2,0.2-0.5,0.4-0.7s0.4-0.4,0.6-0.5c0.2-0.2,0.5-0.3,0.8-0.4c0.3-0.1,0.6-0.1,0.9-0.1s0.5,0,0.8,0.1
		c0.2,0.1,0.4,0.2,0.5,0.4c0.1,0.2,0.2,0.3,0.2,0.6c0,0.2,0,0.4-0.1,0.7s-0.2,0.5-0.4,0.7c-0.2,0.2-0.4,0.4-0.6,0.6
		s-0.5,0.3-0.8,0.4c-0.3,0.1-0.6,0.1-0.8,0.1c-0.3,0-0.5,0-0.7-0.1c-0.2-0.1-0.4-0.2-0.5-0.4s-0.2-0.3-0.2-0.6
		C501,134,501.1,133.7,501.2,133.5z"/>
</g>
<g class="st1">
	<path d="M497.5,128.7v2.4v0.9c0.1-0.1,0.2-0.2,0.4-0.3c0.1-0.1,0.2-0.1,0.3-0.2c0.1,0,0.2-0.1,0.3-0.1c0.1,0,0.2,0,0.4,0
		c0.2,0,0.3,0,0.5,0.1c0.1,0.1,0.3,0.2,0.4,0.3c0.1,0.1,0.2,0.2,0.2,0.4c0.1,0.1,0.1,0.3,0.1,0.4c0,0.1,0,0.3,0,0.4
		s-0.1,0.3-0.1,0.4c-0.1,0.2-0.2,0.3-0.3,0.4c-0.1,0.1-0.3,0.2-0.4,0.3c0,0-0.1,0.1-0.2,0.2c-0.1,0.1-0.2,0.2-0.4,0.3
		s-0.3,0.2-0.5,0.3c-0.2,0.1-0.3,0.2-0.4,0.3c-0.1,0.1-0.3,0.2-0.5,0.3v-8h0.4V128.7z M498.6,132.2c0-0.1-0.1-0.1-0.2-0.1
		c-0.1,0-0.2-0.1-0.2-0.1c-0.1,0-0.2,0-0.3,0.1c-0.1,0.1-0.2,0.1-0.2,0.3c-0.1,0.2-0.1,0.4-0.1,0.6c0,0.3,0,0.5,0,0.7v1.2
		c0.1-0.1,0.2-0.2,0.3-0.2c0.1-0.1,0.2-0.1,0.2-0.2s0.2-0.2,0.2-0.2c0.1-0.1,0.2-0.2,0.3-0.4c0.1-0.1,0.2-0.3,0.2-0.5
		c0.1-0.2,0.1-0.4,0-0.6C498.8,132.6,498.7,132.4,498.6,132.2z"/>
</g>
<line class="st0" x1="505.2" y1="132.9" x2="505.2" y2="122.5"/>
<path d="M491.6,121.7h13.8v1.7h-13.8V121.7z"/>
<g class="st1">
	<path d="M514.5,131.8c0.1-0.2,0.2-0.5,0.4-0.7s0.4-0.4,0.6-0.5c0.2-0.2,0.5-0.3,0.8-0.4c0.3-0.1,0.6-0.1,0.9-0.1s0.5,0,0.8,0.1
		c0.2,0.1,0.4,0.2,0.5,0.4c0.1,0.2,0.2,0.3,0.2,0.6c0,0.2,0,0.4-0.1,0.7s-0.2,0.5-0.4,0.7c-0.2,0.2-0.4,0.4-0.6,0.6
		s-0.5,0.3-0.8,0.4c-0.3,0.1-0.6,0.1-0.8,0.1c-0.3,0-0.5,0-0.7-0.1c-0.2-0.1-0.4-0.2-0.5-0.4c-0.1-0.2-0.2-0.3-0.2-0.6
		C514.4,132.3,514.4,132,514.5,131.8z"/>
</g>
<g class="st1">
	<path d="M512.8,129.1v7.7h-0.4V134l-1.9,0.5v-7.8h0.3v3L512.8,129.1z M510.9,130.9v2.1l1.5-0.4v-2.1L510.9,130.9z"/>
</g>
<line class="st2" x1="486.8" y1="184.1" x2="492.9" y2="184.1"/>
<g class="st1">
	<path d="M487.8,185.8c0.1-0.2,0.2-0.5,0.4-0.7s0.4-0.4,0.6-0.5c0.2-0.2,0.5-0.3,0.8-0.4c0.3-0.1,0.6-0.1,0.9-0.1s0.5,0,0.8,0.1
		c0.2,0.1,0.4,0.2,0.5,0.4c0.1,0.2,0.2,0.3,0.2,0.6c0,0.2,0,0.4-0.1,0.7s-0.2,0.5-0.4,0.7c-0.2,0.2-0.4,0.4-0.6,0.6
		s-0.5,0.3-0.8,0.4c-0.3,0.1-0.6,0.1-0.8,0.1c-0.3,0-0.5,0-0.7-0.1c-0.2-0.1-0.4-0.2-0.5-0.4s-0.2-0.3-0.2-0.6
		C487.7,186.3,487.7,186,487.8,185.8z"/>
</g>
<g class="st1">
	<path d="M486.1,183.1v7.7h-0.4V188l-1.9,0.5v-7.8h0.3v3L486.1,183.1z M484.2,184.9v2.1l1.5-0.4v-2.1L484.2,184.9z"/>
</g>
<line class="st0" x1="491.8" y1="185.2" x2="491.8" y2="164.7"/>
<g class="st1">
	<path d="M501.2,174c0.1-0.2,0.2-0.5,0.4-0.7s0.4-0.4,0.6-0.5c0.2-0.2,0.5-0.3,0.8-0.4c0.3-0.1,0.6-0.1,0.9-0.1s0.5,0,0.8,0.1
		c0.2,0.1,0.4,0.2,0.5,0.4c0.1,0.2,0.2,0.3,0.2,0.6c0,0.2,0,0.4-0.1,0.7s-0.2,0.5-0.4,0.7c-0.2,0.2-0.4,0.4-0.6,0.6
		s-0.5,0.3-0.8,0.4c-0.3,0.1-0.6,0.1-0.8,0.1c-0.3,0-0.5,0-0.7-0.1c-0.2-0.1-0.4-0.2-0.5-0.4s-0.2-0.3-0.2-0.6
		C501,174.5,501.1,174.2,501.2,174z"/>
</g>
<g class="st1">
	<path d="M497.5,169.2v2.4v0.9c0.1-0.1,0.2-0.2,0.4-0.3c0.1-0.1,0.2-0.1,0.3-0.2c0.1,0,0.2-0.1,0.3-0.1c0.1,0,0.2,0,0.4,0
		c0.2,0,0.3,0,0.5,0.1c0.1,0.1,0.3,0.2,0.4,0.3c0.1,0.1,0.2,0.2,0.2,0.4c0.1,0.1,0.1,0.3,0.1,0.4c0,0.1,0,0.3,0,0.4
		s-0.1,0.3-0.1,0.4c-0.1,0.2-0.2,0.3-0.3,0.4c-0.1,0.1-0.3,0.2-0.4,0.3c0,0-0.1,0.1-0.2,0.2c-0.1,0.1-0.2,0.2-0.4,0.3
		s-0.3,0.2-0.5,0.3c-0.2,0.1-0.3,0.2-0.4,0.3c-0.1,0.1-0.3,0.2-0.5,0.3v-8h0.4V169.2z M498.6,172.7c0-0.1-0.1-0.1-0.2-0.1
		c-0.1,0-0.2-0.1-0.2-0.1c-0.1,0-0.2,0-0.3,0.1c-0.1,0.1-0.2,0.1-0.2,0.3c-0.1,0.2-0.1,0.4-0.1,0.6c0,0.3,0,0.5,0,0.7v1.2
		c0.1-0.1,0.2-0.2,0.3-0.2c0.1-0.1,0.2-0.1,0.2-0.2s0.2-0.2,0.2-0.2c0.1-0.1,0.2-0.2,0.3-0.4c0.1-0.1,0.2-0.3,0.2-0.5
		c0.1-0.2,0.1-0.4,0-0.6C498.8,173.1,498.7,172.9,498.6,172.7z"/>
</g>
<line class="st0" x1="505.2" y1="173.4" x2="505.2" y2="163"/>
<path d="M491.6,163.8l13.8-1.7v1.7l-13.8,1.7V163.8z"/>
<g class="st1">
	<path d="M520.3,162.2c0-0.2,0.1-0.3,0.2-0.5c0.1-0.1,0.3-0.2,0.5-0.2c0.2,0,0.4,0.1,0.5,0.2c0.1,0.1,0.2,0.3,0.2,0.5
		c0,0.2-0.1,0.4-0.2,0.5s-0.3,0.2-0.5,0.2c-0.2,0-0.4-0.1-0.5-0.2S520.3,162.4,520.3,162.2z"/>
</g>
<line class="st0" x1="514.6" y1="164.4" x2="514.6" y2="175.7"/>
<line class="st2" x1="513.6" y1="163.8" x2="519.6" y2="163.8"/>
<g class="st1">
	<path d="M514.5,163.9c0.1-0.2,0.2-0.5,0.4-0.7s0.4-0.4,0.6-0.5c0.2-0.2,0.5-0.3,0.8-0.4c0.3-0.1,0.6-0.1,0.9-0.1s0.5,0,0.8,0.1
		c0.2,0.1,0.4,0.2,0.5,0.4c0.1,0.2,0.2,0.3,0.2,0.6c0,0.2,0,0.4-0.1,0.7s-0.2,0.5-0.4,0.7c-0.2,0.2-0.4,0.4-0.6,0.6
		s-0.5,0.3-0.8,0.4c-0.3,0.1-0.6,0.1-0.8,0.1c-0.3,0-0.5,0-0.7-0.1c-0.2-0.1-0.4-0.2-0.5-0.4c-0.1-0.2-0.2-0.3-0.2-0.6
		C514.4,164.3,514.4,164.1,514.5,163.9z"/>
</g>
<g class="st1">
	<path d="M512.8,161.2v7.7h-0.4V166l-1.9,0.5v-7.8h0.3v3L512.8,161.2z M510.9,163v2.1l1.5-0.4v-2.1L510.9,163z"/>
</g>
<g class="st1">
	<path d="M558.3,177.3c0,0.4-0.1,0.7-0.3,1.1c-0.1,0.4-0.3,0.8-0.6,1.3c-0.3,0.5-0.6,1-0.9,1.4c-0.3,0.4-0.6,0.9-0.8,1.2
		c-0.2,0.3-0.4,0.7-0.6,1.1c-0.2,0.4-0.3,0.8-0.3,1.2h-0.3V181h0.3c0.1,0,0.3,0,0.4-0.1c0.1,0,0.3-0.1,0.4-0.2
		c0.2-0.1,0.3-0.2,0.5-0.3c0.1-0.1,0.2-0.2,0.4-0.3c0.1-0.1,0.3-0.3,0.5-0.5c0.2-0.2,0.3-0.5,0.5-0.7c0.1-0.3,0.3-0.6,0.4-0.9
		c0.1-0.4,0.2-0.7,0.2-1s0-0.6,0-1c0-0.2,0-0.4-0.1-0.6c0-0.2-0.1-0.4-0.2-0.6c-0.1-0.2-0.1-0.4-0.2-0.6s-0.1-0.4-0.2-0.5l0.1-0.1
		c0.1,0.2,0.2,0.4,0.3,0.7s0.2,0.6,0.3,0.9c0.1,0.3,0.1,0.7,0.1,1.1C558.3,176.5,558.3,176.9,558.3,177.3z"/>
</g>
<line class="st0" x1="554.7" y1="172.8" x2="554.7" y2="184.1"/>
<g class="st1">
	<path d="M554.6,172.3c0.1-0.2,0.2-0.5,0.4-0.7c0.2-0.2,0.4-0.4,0.6-0.5c0.2-0.2,0.5-0.3,0.8-0.4c0.3-0.1,0.6-0.1,0.9-0.1
		s0.5,0,0.8,0.1c0.2,0.1,0.4,0.2,0.5,0.4c0.1,0.2,0.2,0.3,0.2,0.6c0,0.2,0,0.4-0.1,0.7s-0.2,0.5-0.4,0.7c-0.2,0.2-0.4,0.4-0.6,0.6
		c-0.2,0.2-0.5,0.3-0.8,0.4c-0.3,0.1-0.6,0.1-0.8,0.1c-0.3,0-0.5,0-0.8-0.1c-0.2-0.1-0.4-0.2-0.5-0.4s-0.2-0.3-0.2-0.6
		C554.5,172.8,554.5,172.5,554.6,172.3z"/>
</g>
<g class="st1">
	<path d="M552.9,169.6v7.7h-0.4v-2.9l-1.9,0.5v-7.8h0.3v3L552.9,169.6z M551,171.4v2.1l1.5-0.4V171L551,171.4z"/>
</g>
<g class="st1">
	<path d="M519.5,78.9l0.3-1.2h-2l0.1-0.6l2.7-3h0.5l-0.6,3.1h0.7l-0.1,0.5h-0.7l-0.3,1.2H519.5z M519.9,77.2l0.4-2l-1.8,2H519.9z"/>
</g>
<g class="st1">
	<path d="M489.2,147.7c0.5,0,0.8,0.2,1.1,0.5c0.2,0.3,0.4,0.6,0.4,1c0,0.3-0.1,0.5-0.2,0.8c-0.1,0.3-0.3,0.5-0.5,0.6
		c-0.2,0.1-0.5,0.2-0.8,0.2c-0.5,0-0.8-0.2-1.1-0.5c-0.2-0.3-0.3-0.6-0.3-1c0-0.3,0.1-0.6,0.2-0.8c0.1-0.3,0.3-0.5,0.5-0.6
		S489,147.7,489.2,147.7z M489.1,147.9c-0.1,0-0.2,0-0.4,0.1s-0.2,0.2-0.3,0.4s-0.1,0.4-0.1,0.7c0,0.4,0.1,0.8,0.3,1.1
		c0.2,0.3,0.4,0.5,0.7,0.5c0.2,0,0.4-0.1,0.5-0.3s0.2-0.5,0.2-0.9c0-0.5-0.1-1-0.3-1.3C489.6,148,489.4,147.9,489.1,147.9z"/>
	<path d="M493.3,150.4c-0.1,0.2-0.3,0.3-0.4,0.3c-0.1,0.1-0.3,0.1-0.5,0.1c-0.3,0-0.6-0.1-0.9-0.4s-0.4-0.6-0.4-1.1
		c0-0.4,0.1-0.8,0.4-1.2s0.6-0.5,1.1-0.5c0.3,0,0.5,0.1,0.7,0.3v-0.6c0-0.3,0-0.6,0-0.6c0-0.1,0-0.1-0.1-0.2s-0.1,0-0.1,0
		c-0.1,0-0.1,0-0.2,0.1l0-0.1l0.9-0.4h0.1v3.5c0,0.4,0,0.6,0,0.6c0,0.1,0,0.1,0.1,0.2c0,0,0.1,0,0.1,0c0.1,0,0.1,0,0.2-0.1l0,0.1
		l-0.9,0.4h-0.2V150.4z M493.3,150.2v-1.6c0-0.1-0.1-0.3-0.1-0.4s-0.2-0.2-0.3-0.3c-0.1-0.1-0.2-0.1-0.3-0.1c-0.2,0-0.4,0.1-0.5,0.3
		c-0.2,0.2-0.3,0.6-0.3,1c0,0.4,0.1,0.8,0.3,1c0.2,0.2,0.4,0.4,0.6,0.4C492.9,150.5,493.1,150.4,493.3,150.2z"/>
	<path d="M495,148.9c0,0.4,0.1,0.8,0.3,1.1s0.5,0.4,0.8,0.4c0.2,0,0.4-0.1,0.5-0.2c0.1-0.1,0.3-0.3,0.4-0.6l0.1,0.1
		c0,0.3-0.2,0.6-0.4,0.8c-0.2,0.2-0.5,0.4-0.8,0.4c-0.4,0-0.7-0.1-0.9-0.4s-0.4-0.7-0.4-1.1c0-0.5,0.1-0.9,0.4-1.2
		c0.3-0.3,0.6-0.4,1-0.4c0.3,0,0.6,0.1,0.8,0.3c0.2,0.2,0.3,0.5,0.3,0.9H495z M495,148.7h1.4c0-0.2,0-0.3-0.1-0.4
		c-0.1-0.1-0.1-0.2-0.2-0.3s-0.2-0.1-0.3-0.1c-0.2,0-0.3,0.1-0.5,0.2S495,148.4,495,148.7z"/>
	<path d="M498.4,147.7v0.7c0.3-0.5,0.5-0.7,0.8-0.7c0.1,0,0.2,0,0.3,0.1c0.1,0.1,0.1,0.2,0.1,0.3c0,0.1,0,0.2-0.1,0.2
		s-0.1,0.1-0.2,0.1c-0.1,0-0.2,0-0.3-0.1c-0.1-0.1-0.2-0.1-0.2-0.1c0,0-0.1,0-0.1,0.1c-0.1,0.1-0.2,0.2-0.3,0.4v1.4
		c0,0.2,0,0.3,0.1,0.4c0,0.1,0.1,0.1,0.2,0.1c0.1,0,0.2,0.1,0.3,0.1v0.1h-1.5v-0.1c0.2,0,0.3,0,0.3-0.1c0.1,0,0.1-0.1,0.1-0.2
		c0,0,0-0.1,0-0.3v-1.2c0-0.4,0-0.6,0-0.6c0-0.1,0-0.1-0.1-0.1c0,0-0.1,0-0.1,0c-0.1,0-0.1,0-0.2,0l0-0.1l0.9-0.4H498.4z"/>
</g>
<line class="st0" x1="577.7" y1="166.1" x2="577.7" y2="177.3"/>
<g class="st1">
	<path d="M586.5,164.3c0.1,0.1,0.1,0.2,0.1,0.3c0,0.1,0,0.2,0,0.4c0,0.1,0,0.2-0.1,0.3c0,0.1-0.1,0.2-0.1,0.3
		c-0.1,0.3-0.3,0.6-0.6,0.9s-0.5,0.4-0.7,0.5c-0.4,0.2-1,0.3-1.6,0.3c-0.1,0-0.2,0-0.3,0c-0.1,0-0.2,0-0.4-0.1
		c-0.1,0-0.2-0.1-0.4-0.2c-0.1-0.1-0.2-0.2-0.3-0.3c-0.1-0.1-0.1-0.2-0.1-0.4c0-0.1,0-0.2,0-0.4c0-0.1,0-0.2,0.1-0.3
		c0-0.1,0.1-0.2,0.1-0.2c0.1-0.3,0.3-0.6,0.5-0.9s0.5-0.4,0.7-0.5c0.2-0.1,0.5-0.2,0.8-0.3c0.3-0.1,0.6-0.1,1,0c0.1,0,0.2,0,0.3,0
		c0.1,0,0.2,0,0.3,0.1c0.1,0,0.2,0.1,0.3,0.2S586.4,164.2,586.5,164.3z M586.1,164.6c-0.1-0.1-0.2-0.2-0.3-0.2c-0.1,0-0.2,0-0.3,0
		c-0.1,0-0.2,0-0.4,0.1c-0.1,0-0.2,0.1-0.4,0.1c-0.2,0.1-0.3,0.1-0.4,0.2c-0.1,0.1-0.2,0.1-0.4,0.2c-0.3,0.1-0.5,0.3-0.8,0.5
		c-0.1,0.1-0.2,0.1-0.3,0.2s-0.2,0.2-0.3,0.3c-0.1,0.1-0.1,0.2-0.1,0.3c0,0.1,0,0.2,0.1,0.3c0.1,0.1,0.1,0.2,0.3,0.2
		c0.1,0,0.2,0,0.3,0c0.1,0,0.2,0,0.4-0.1s0.2-0.1,0.4-0.1c0.2-0.1,0.3-0.1,0.4-0.2c0.1-0.1,0.3-0.1,0.4-0.2c0.1-0.1,0.3-0.1,0.4-0.2
		c0.1-0.1,0.3-0.2,0.4-0.3c0.1-0.1,0.2-0.1,0.3-0.2s0.2-0.2,0.3-0.3c0.1-0.1,0.1-0.2,0.1-0.3C586.2,164.8,586.2,164.7,586.1,164.6z"
		/>
</g>
<g class="st1">
	<path d="M573.4,163.4v-2.2h0.4v2.1l1.3-0.4v-2h0.4v1.8l0.5-0.2v1.4l-0.5,0.2v2l0.5-0.2v1.4l-0.5,0.2v2.2h-0.4v-2.1l-1.3,0.4v2h-0.4
		v-1.9l-0.6,0.2V167l0.6-0.2v-2l-0.6,0.2v-1.4L573.4,163.4z M573.7,164.7v2l1.3-0.4v-2L573.7,164.7z"/>
</g>
<g class="st1">
	<path d="M568.3,77.5l0.6-0.1c0,0.1,0,0.1,0,0.2c0,0.1,0,0.3,0.1,0.4c0.1,0.1,0.2,0.3,0.3,0.3c0.1,0.1,0.3,0.1,0.4,0.1
		c0.2,0,0.4-0.1,0.6-0.2c0.2-0.1,0.3-0.3,0.5-0.6c0.1-0.2,0.2-0.5,0.2-0.7c0-0.3-0.1-0.5-0.2-0.6c-0.2-0.2-0.4-0.2-0.6-0.2
		c-0.2,0-0.3,0-0.5,0.1c-0.2,0.1-0.3,0.2-0.4,0.4l-0.5,0l0.7-2.5h2.4l-0.1,0.5h-1.8l-0.4,1.2c0.1-0.1,0.3-0.2,0.4-0.2
		c0.1,0,0.3-0.1,0.4-0.1c0.4,0,0.7,0.1,0.9,0.4s0.4,0.6,0.4,1c0,0.4-0.1,0.7-0.2,1c-0.2,0.3-0.4,0.6-0.7,0.7
		c-0.3,0.2-0.6,0.3-0.9,0.3c-0.3,0-0.5-0.1-0.7-0.2s-0.4-0.3-0.5-0.5S568.3,77.8,568.3,77.5C568.3,77.6,568.3,77.6,568.3,77.5z"/>
</g>
<g class="st1">
	<path d="M51.9,46.3v-8.6h2.6l1.6,5.9l1.5-5.9h2.6v8.6h-1.6v-6.8l-1.7,6.8h-1.7l-1.7-6.8v6.8H51.9z"/>
	<path d="M64.8,44l1.6-0.2c0.1,0.4,0.2,0.7,0.4,0.9s0.5,0.3,0.8,0.3c0.3,0,0.6-0.1,0.9-0.4s0.3-0.6,0.3-1c0-0.4-0.1-0.7-0.3-1
		s-0.5-0.4-0.8-0.4c-0.2,0-0.5,0-0.8,0.1l0.2-1.3c0.4,0,0.8-0.1,1-0.3s0.4-0.5,0.4-0.8c0-0.3-0.1-0.5-0.3-0.7S67.8,39,67.5,39
		c-0.3,0-0.5,0.1-0.7,0.3s-0.3,0.5-0.4,0.9l-1.5-0.3c0.1-0.5,0.3-0.9,0.5-1.2s0.5-0.6,0.9-0.7s0.8-0.3,1.3-0.3
		c0.8,0,1.5,0.3,1.9,0.8c0.4,0.4,0.6,0.9,0.6,1.4c0,0.8-0.4,1.4-1.2,1.8c0.5,0.1,0.9,0.3,1.2,0.7s0.4,0.8,0.4,1.3
		c0,0.8-0.3,1.4-0.8,1.9s-1.2,0.8-2.1,0.8c-0.8,0-1.4-0.2-1.9-0.7S64.9,44.7,64.8,44z"/>
	<path d="M75.7,46.3h-1.6V40c-0.6,0.6-1.3,1-2.1,1.2v-1.5c0.4-0.1,0.9-0.4,1.4-0.8s0.8-0.9,1-1.4h1.3V46.3z"/>
	<path d="M78.2,39.3v-1.5h5.6V39c-0.5,0.5-0.9,1.1-1.4,2s-0.8,1.8-1.1,2.7s-0.4,1.8-0.4,2.6h-1.6c0-1.2,0.3-2.4,0.7-3.6
		s1.1-2.3,1.9-3.3H78.2z"/>
	<path d="M88.1,43.5l1.7-0.2c0.1,0.6,0.3,1,0.6,1.2s0.7,0.4,1.3,0.4c0.6,0,1-0.1,1.3-0.4s0.4-0.5,0.4-0.8c0-0.2-0.1-0.4-0.2-0.5
		s-0.3-0.3-0.6-0.4c-0.2-0.1-0.7-0.2-1.4-0.4c-0.9-0.2-1.6-0.5-2-0.8c-0.5-0.5-0.8-1-0.8-1.7c0-0.4,0.1-0.8,0.4-1.2s0.6-0.7,1.1-0.9
		s1-0.3,1.7-0.3c1.1,0,1.9,0.2,2.4,0.7s0.8,1.1,0.9,1.9l-1.7,0.1c-0.1-0.4-0.2-0.8-0.5-1s-0.6-0.3-1.1-0.3c-0.5,0-0.9,0.1-1.2,0.3
		c-0.2,0.1-0.3,0.3-0.3,0.5c0,0.2,0.1,0.4,0.3,0.5c0.2,0.2,0.8,0.4,1.6,0.6s1.5,0.4,1.9,0.6s0.7,0.5,0.9,0.9s0.3,0.8,0.3,1.4
		c0,0.5-0.1,1-0.4,1.4s-0.7,0.7-1.2,1s-1.1,0.3-1.9,0.3c-1.1,0-1.9-0.3-2.5-0.8S88.2,44.4,88.1,43.5z"/>
	<path d="M96.5,46.3v-8.6h1.6v4.6l1.9-2.2h2l-2.1,2.3l2.3,3.9h-1.8l-1.6-2.8l-0.8,0.8v2H96.5z"/>
	<path d="M102.8,44l1.6-0.2c0.1,0.4,0.2,0.7,0.4,0.9s0.5,0.3,0.8,0.3c0.3,0,0.6-0.1,0.9-0.4s0.3-0.6,0.3-1c0-0.4-0.1-0.7-0.3-1
		s-0.5-0.4-0.8-0.4c-0.2,0-0.5,0-0.8,0.1l0.2-1.3c0.4,0,0.8-0.1,1-0.3s0.4-0.5,0.4-0.8c0-0.3-0.1-0.5-0.3-0.7s-0.4-0.3-0.7-0.3
		c-0.3,0-0.5,0.1-0.7,0.3s-0.3,0.5-0.4,0.9l-1.5-0.3c0.1-0.5,0.3-0.9,0.5-1.2s0.5-0.6,0.9-0.7s0.8-0.3,1.3-0.3
		c0.8,0,1.5,0.3,1.9,0.8c0.4,0.4,0.6,0.9,0.6,1.4c0,0.8-0.4,1.4-1.2,1.8c0.5,0.1,0.9,0.3,1.2,0.7s0.4,0.8,0.4,1.3
		c0,0.8-0.3,1.4-0.8,1.9s-1.2,0.8-2.1,0.8c-0.8,0-1.4-0.2-1.9-0.7S102.9,44.7,102.8,44z"/>
	<path d="M109.9,46.3v-1.6h1.6v1.6H109.9z"/>
	<path d="M117.1,46.3h-1.6V40c-0.6,0.6-1.3,1-2.1,1.2v-1.5c0.4-0.1,0.9-0.4,1.4-0.8s0.8-0.9,1-1.4h1.3V46.3z"/>
	<path d="M119.9,46.3v-1.6h1.6v1.6H119.9z"/>
	<path d="M127.1,46.3h-1.6V40c-0.6,0.6-1.3,1-2.1,1.2v-1.5c0.4-0.1,0.9-0.4,1.4-0.8s0.8-0.9,1-1.4h1.3V46.3z"/>
</g>
<path class="st0" d="M473.5,165.4h-1.4v19.1h1.4"/>
<path class="st0" d="M479.6,165.4h1.4v19.1h-1.4"/>
<path class="st0" d="M473.5,124.8h-1.4v19.1h1.4"/>
<path class="st0" d="M479.6,124.8h1.4v19.1h-1.4"/>
<polyline class="st3" points="326.3,97.6 326.3,148.4 454.3,148.4 454.3,109.1 653.3,109.1 653.3,100.4 "/>
<g class="st1">
	<path d="M377.4,120.9l1.7-0.2c0.1,0.6,0.3,1,0.6,1.2s0.7,0.4,1.3,0.4c0.6,0,1-0.1,1.3-0.4s0.4-0.5,0.4-0.8c0-0.2-0.1-0.4-0.2-0.5
		s-0.3-0.3-0.6-0.4c-0.2-0.1-0.7-0.2-1.4-0.4c-0.9-0.2-1.6-0.5-2-0.8c-0.5-0.5-0.8-1-0.8-1.7c0-0.4,0.1-0.8,0.4-1.2s0.6-0.7,1.1-0.9
		s1-0.3,1.7-0.3c1.1,0,1.9,0.2,2.4,0.7s0.8,1.1,0.9,1.9l-1.7,0.1c-0.1-0.4-0.2-0.8-0.5-1s-0.6-0.3-1.1-0.3c-0.5,0-0.9,0.1-1.2,0.3
		c-0.2,0.1-0.3,0.3-0.3,0.5c0,0.2,0.1,0.4,0.3,0.5c0.2,0.2,0.8,0.4,1.6,0.6s1.5,0.4,1.9,0.6s0.7,0.5,0.9,0.9s0.3,0.8,0.3,1.4
		c0,0.5-0.1,1-0.4,1.4s-0.7,0.7-1.2,1s-1.1,0.3-1.9,0.3c-1.1,0-1.9-0.3-2.5-0.8S377.5,121.8,377.4,120.9z"/>
	<path d="M385.8,123.7v-8.6h1.6v4.6l1.9-2.2h2l-2.1,2.3l2.3,3.9h-1.8l-1.6-2.8l-0.8,0.8v2H385.8z"/>
	<path d="M392.1,121.4l1.6-0.2c0.1,0.4,0.2,0.7,0.4,0.9s0.5,0.3,0.8,0.3c0.3,0,0.6-0.1,0.9-0.4s0.3-0.6,0.3-1c0-0.4-0.1-0.7-0.3-1
		s-0.5-0.4-0.8-0.4c-0.2,0-0.5,0-0.8,0.1l0.2-1.3c0.4,0,0.8-0.1,1-0.3s0.4-0.5,0.4-0.8c0-0.3-0.1-0.5-0.3-0.7s-0.4-0.3-0.7-0.3
		c-0.3,0-0.5,0.1-0.7,0.3s-0.3,0.5-0.4,0.9l-1.5-0.3c0.1-0.5,0.3-0.9,0.5-1.2s0.5-0.6,0.9-0.7s0.8-0.3,1.3-0.3
		c0.8,0,1.5,0.3,1.9,0.8c0.4,0.4,0.6,0.9,0.6,1.4c0,0.8-0.4,1.4-1.2,1.8c0.5,0.1,0.9,0.3,1.2,0.7s0.4,0.8,0.4,1.3
		c0,0.8-0.3,1.4-0.8,1.9s-1.2,0.8-2.1,0.8c-0.8,0-1.4-0.2-1.9-0.7S392.2,122.1,392.1,121.4z"/>
	<path d="M399.2,123.7V122h1.6v1.6H399.2z"/>
	<path d="M406.4,123.7h-1.6v-6.2c-0.6,0.6-1.3,1-2.1,1.2v-1.5c0.4-0.1,0.9-0.4,1.4-0.8s0.8-0.9,1-1.4h1.3V123.7z"/>
</g>
<line class="st4" x1="516.6" y1="124.8" x2="503.3" y2="111.1"/>
<line class="st5" x1="516.6" y1="124.8" x2="505" y2="112.8"/>
<path d="M503.3,111.1c1.2,0.5,2.4,0.9,3.7,1.1l-1.8,0.8l-0.9,1.8C504.2,113.5,503.9,112.3,503.3,111.1z"/>
<polyline class="st3" points="90.7,197.1 90.7,117.9 284,117.9 284,158.7 453.7,159.1 453.7,197.1 "/>
<g class="st1">
	<path d="M272.1,177.9l1.7-0.2c0.1,0.6,0.3,1,0.6,1.2s0.7,0.4,1.3,0.4c0.6,0,1-0.1,1.3-0.4s0.4-0.5,0.4-0.8c0-0.2-0.1-0.4-0.2-0.5
		s-0.3-0.3-0.6-0.4c-0.2-0.1-0.7-0.2-1.4-0.4c-0.9-0.2-1.6-0.5-2-0.8c-0.5-0.5-0.8-1-0.8-1.7c0-0.4,0.1-0.8,0.4-1.2s0.6-0.7,1.1-0.9
		s1-0.3,1.7-0.3c1.1,0,1.9,0.2,2.4,0.7s0.8,1.1,0.9,1.9l-1.7,0.1c-0.1-0.4-0.2-0.8-0.5-1s-0.6-0.3-1.1-0.3c-0.5,0-0.9,0.1-1.2,0.3
		c-0.2,0.1-0.3,0.3-0.3,0.5c0,0.2,0.1,0.4,0.3,0.5c0.2,0.2,0.8,0.4,1.6,0.6s1.5,0.4,1.9,0.6s0.7,0.5,0.9,0.9s0.3,0.8,0.3,1.4
		c0,0.5-0.1,1-0.4,1.4s-0.7,0.7-1.2,1s-1.1,0.3-1.9,0.3c-1.1,0-1.9-0.3-2.5-0.8S272.2,178.9,272.1,177.9z"/>
	<path d="M280.5,180.7v-8.6h1.6v4.6l1.9-2.2h2l-2.1,2.3l2.3,3.9h-1.8l-1.6-2.8l-0.8,0.8v2H280.5z"/>
	<path d="M286.8,178.4l1.6-0.2c0.1,0.4,0.2,0.7,0.4,0.9s0.5,0.3,0.8,0.3c0.3,0,0.6-0.1,0.9-0.4s0.3-0.6,0.3-1c0-0.4-0.1-0.7-0.3-1
		s-0.5-0.4-0.8-0.4c-0.2,0-0.5,0-0.8,0.1l0.2-1.3c0.4,0,0.8-0.1,1-0.3s0.4-0.5,0.4-0.8c0-0.3-0.1-0.5-0.3-0.7s-0.4-0.3-0.7-0.3
		c-0.3,0-0.5,0.1-0.7,0.3s-0.3,0.5-0.4,0.9l-1.5-0.3c0.1-0.5,0.3-0.9,0.5-1.2s0.5-0.6,0.9-0.7s0.8-0.3,1.3-0.3
		c0.8,0,1.5,0.3,1.9,0.8c0.4,0.4,0.6,0.9,0.6,1.4c0,0.8-0.4,1.4-1.2,1.8c0.5,0.1,0.9,0.3,1.2,0.7s0.4,0.8,0.4,1.3
		c0,0.8-0.3,1.4-0.8,1.9s-1.2,0.8-2.1,0.8c-0.8,0-1.4-0.2-1.9-0.7S286.9,179.2,286.8,178.4z"/>
	<path d="M293.9,180.7v-1.6h1.6v1.6H293.9z"/>
	<path d="M301.1,180.7h-1.6v-6.2c-0.6,0.6-1.3,1-2.1,1.2v-1.5c0.4-0.1,0.9-0.4,1.4-0.8s0.8-0.9,1-1.4h1.3V180.7z"/>
	<path d="M303.9,180.7v-1.6h1.6v1.6H303.9z"/>
	<path d="M306.8,178.4l1.6-0.2c0.1,0.4,0.2,0.7,0.4,0.9s0.5,0.3,0.8,0.3c0.3,0,0.6-0.1,0.9-0.4s0.3-0.6,0.3-1c0-0.4-0.1-0.7-0.3-1
		s-0.5-0.4-0.8-0.4c-0.2,0-0.5,0-0.8,0.1l0.2-1.3c0.4,0,0.8-0.1,1-0.3s0.4-0.5,0.4-0.8c0-0.3-0.1-0.5-0.3-0.7s-0.4-0.3-0.7-0.3
		c-0.3,0-0.5,0.1-0.7,0.3s-0.3,0.5-0.4,0.9l-1.5-0.3c0.1-0.5,0.3-0.9,0.5-1.2s0.5-0.6,0.9-0.7s0.8-0.3,1.3-0.3
		c0.8,0,1.5,0.3,1.9,0.8c0.4,0.4,0.6,0.9,0.6,1.4c0,0.8-0.4,1.4-1.2,1.8c0.5,0.1,0.9,0.3,1.2,0.7s0.4,0.8,0.4,1.3
		c0,0.8-0.3,1.4-0.8,1.9s-1.2,0.8-2.1,0.8c-0.8,0-1.4-0.2-1.9-0.7S306.9,179.2,306.8,178.4z"/>
</g>
<rect x="637.3" y="159.7" class="st3" width="212.5" height="29.5"/>
<g class="st1">
	<path d="M722.1,174.5l1.7-0.2c0.1,0.6,0.3,1,0.6,1.2s0.7,0.4,1.3,0.4c0.6,0,1-0.1,1.3-0.4s0.4-0.5,0.4-0.8c0-0.2-0.1-0.4-0.2-0.5
		s-0.3-0.3-0.6-0.4c-0.2-0.1-0.7-0.2-1.4-0.4c-0.9-0.2-1.6-0.5-2-0.8c-0.5-0.5-0.8-1-0.8-1.7c0-0.4,0.1-0.8,0.4-1.2s0.6-0.7,1.1-0.9
		s1-0.3,1.7-0.3c1.1,0,1.9,0.2,2.4,0.7s0.8,1.1,0.9,1.9l-1.7,0.1c-0.1-0.4-0.2-0.8-0.5-1s-0.6-0.3-1.1-0.3c-0.5,0-0.9,0.1-1.2,0.3
		c-0.2,0.1-0.3,0.3-0.3,0.5c0,0.2,0.1,0.4,0.3,0.5c0.2,0.2,0.8,0.4,1.6,0.6s1.5,0.4,1.9,0.6s0.7,0.5,0.9,0.9s0.3,0.8,0.3,1.4
		c0,0.5-0.1,1-0.4,1.4s-0.7,0.7-1.2,1s-1.1,0.3-1.9,0.3c-1.1,0-1.9-0.3-2.5-0.8S722.2,175.5,722.1,174.5z"/>
	<path d="M730.5,177.3v-8.6h1.6v4.6l1.9-2.2h2l-2.1,2.3l2.3,3.9h-1.8l-1.6-2.8l-0.8,0.8v2H730.5z"/>
	<path d="M736.8,175.1l1.6-0.2c0.1,0.4,0.2,0.7,0.4,0.9s0.5,0.3,0.8,0.3c0.3,0,0.6-0.1,0.9-0.4s0.3-0.6,0.3-1c0-0.4-0.1-0.7-0.3-1
		s-0.5-0.4-0.8-0.4c-0.2,0-0.5,0-0.8,0.1l0.2-1.3c0.4,0,0.8-0.1,1-0.3s0.4-0.5,0.4-0.8c0-0.3-0.1-0.5-0.3-0.7s-0.4-0.3-0.7-0.3
		c-0.3,0-0.5,0.1-0.7,0.3s-0.3,0.5-0.4,0.9l-1.5-0.3c0.1-0.5,0.3-0.9,0.5-1.2s0.5-0.6,0.9-0.7s0.8-0.3,1.3-0.3
		c0.8,0,1.5,0.3,1.9,0.8c0.4,0.4,0.6,0.9,0.6,1.4c0,0.8-0.4,1.4-1.2,1.8c0.5,0.1,0.9,0.3,1.2,0.7s0.4,0.8,0.4,1.3
		c0,0.8-0.3,1.4-0.8,1.9s-1.2,0.8-2.1,0.8c-0.8,0-1.4-0.2-1.9-0.7S736.9,175.8,736.8,175.1z"/>
	<path d="M743.9,177.3v-1.6h1.6v1.6H743.9z"/>
	<path d="M751.1,177.3h-1.6v-6.2c-0.6,0.6-1.3,1-2.1,1.2v-1.5c0.4-0.1,0.9-0.4,1.4-0.8s0.8-0.9,1-1.4h1.3V177.3z"/>
	<path d="M753.9,177.3v-1.6h1.6v1.6H753.9z"/>
	<path d="M756.8,175.1l1.6-0.2c0.1,0.4,0.2,0.7,0.4,0.9s0.5,0.3,0.8,0.3c0.3,0,0.6-0.1,0.9-0.4s0.3-0.6,0.3-1c0-0.4-0.1-0.7-0.3-1
		s-0.5-0.4-0.8-0.4c-0.2,0-0.5,0-0.8,0.1l0.2-1.3c0.4,0,0.8-0.1,1-0.3s0.4-0.5,0.4-0.8c0-0.3-0.1-0.5-0.3-0.7s-0.4-0.3-0.7-0.3
		c-0.3,0-0.5,0.1-0.7,0.3s-0.3,0.5-0.4,0.9l-1.5-0.3c0.1-0.5,0.3-0.9,0.5-1.2s0.5-0.6,0.9-0.7s0.8-0.3,1.3-0.3
		c0.8,0,1.5,0.3,1.9,0.8c0.4,0.4,0.6,0.9,0.6,1.4c0,0.8-0.4,1.4-1.2,1.8c0.5,0.1,0.9,0.3,1.2,0.7s0.4,0.8,0.4,1.3
		c0,0.8-0.3,1.4-0.8,1.9s-1.2,0.8-2.1,0.8c-0.8,0-1.4-0.2-1.9-0.7S756.9,175.8,756.8,175.1z"/>
	<path d="M763.9,177.3v-1.6h1.6v1.6H763.9z"/>
	<path d="M771.1,177.3h-1.6v-6.2c-0.6,0.6-1.3,1-2.1,1.2v-1.5c0.4-0.1,0.9-0.4,1.4-0.8s0.8-0.9,1-1.4h1.3V177.3z"/>
</g>
<g class="st1">
	<path d="M577.5,165.8c0.1-0.2,0.2-0.3,0.3-0.5s0.3-0.3,0.5-0.4c0.2-0.1,0.4-0.2,0.6-0.3c0.2-0.1,0.4-0.1,0.6-0.1
		c0.2,0,0.4,0,0.6,0.1c0.2,0.1,0.3,0.2,0.4,0.3c0.1,0.1,0.2,0.3,0.2,0.4s0,0.3-0.1,0.5c-0.1,0.2-0.2,0.3-0.3,0.5
		c-0.1,0.2-0.3,0.3-0.5,0.4c-0.2,0.1-0.4,0.2-0.6,0.3s-0.4,0.1-0.6,0.1c-0.2,0-0.4,0-0.6-0.1c-0.2-0.1-0.3-0.2-0.4-0.3
		s-0.2-0.3-0.2-0.4C577.4,166.1,577.4,166,577.5,165.8z"/>
</g>
<line class="st0" x1="582.3" y1="166.1" x2="582.3" y2="177.3"/>
</svg>
