<svg id="Ebene_1" data-name="Ebene 1" xmlns="http://www.w3.org/2000/svg" viewBox="0 0 1021 595"><defs><style>.cls-1,.cls-11,.cls-5,.cls-8{fill:none;}.cls-1,.cls-11,.cls-5,.cls-8,.cls-9{stroke:#000;}.cls-1,.cls-8,.cls-9{stroke-width:0.4px;}.cls-10,.cls-2,.cls-4,.cls-6{isolation:isolate;}.cls-2,.cls-3{font-size:6.75px;font-family:Arial-ItalicMT, Arial;font-style:italic;}.cls-3{letter-spacing:0em;}.cls-4{font-size:13.5px;}.cls-10,.cls-4{font-family:Maestro, Maestro;}.cls-5{stroke-width:0.56px;}.cls-6{font-size:12px;font-family:Arial-BoldMT, Arial;font-weight:700;}.cls-7,.cls-9{fill:#fff;}.cls-8,.cls-9{stroke-miterlimit:10;}.cls-10{font-size:10.13px;}.cls-11{stroke-width:0.4px;}</style></defs><title>Zeichenfläche 1</title><line class="cls-1" x1="84.9" y1="126.7" x2="935.4" y2="126.7"/><line class="cls-1" x1="84.9" y1="130.1" x2="935.4" y2="130.1"/><line class="cls-1" x1="84.9" y1="133.5" x2="935.4" y2="133.5"/><line class="cls-1" x1="84.9" y1="136.8" x2="935.4" y2="136.8"/><line class="cls-1" x1="84.9" y1="140.2" x2="935.4" y2="140.2"/><text class="cls-2" transform="translate(51.02 78.89)">Bl. 38</text><text class="cls-3" transform="translate(68.28 76.65) scale(0.58)">v</text><text class="cls-2" transform="translate(51.02 136.84)">6</text><text class="cls-4" transform="translate(650.95 136.84)">œ</text><text class="cls-4" transform="translate(647.16 136.84)">n</text><text class="cls-4" transform="translate(663.89 140.22)">œ</text><text class="cls-4" transform="translate(660.09 140.22)">n</text><text class="cls-4" transform="translate(680.91 140.22)">œ</text><text class="cls-4" transform="translate(676.97 140.22)">b</text><text class="cls-4" transform="translate(697.78 138.53)">œ</text><text class="cls-4" transform="translate(693.42 138.53)">#</text><line class="cls-5" x1="714" y1="143.6" x2="720" y2="143.6"/><text class="cls-4" transform="translate(714.8 143.59)">œ</text><text class="cls-4" transform="translate(710.44 143.59)">#</text><text class="cls-4" transform="translate(731.67 138.53)">œ</text><text class="cls-4" transform="translate(727.88 138.53)">n</text><text class="cls-4" transform="translate(748.69 141.91)">œ</text><text class="cls-4" transform="translate(744.89 141.91)">n</text><line class="cls-5" x1="764.7" y1="143.6" x2="770.8" y2="143.6"/><text class="cls-4" transform="translate(765.56 145.28)">œ</text><text class="cls-4" transform="translate(761.77 145.28)">n</text><line class="cls-5" x1="781.6" y1="143.6" x2="787.6" y2="143.6"/><text class="cls-4" transform="translate(782.44 145.28)">œ</text><text class="cls-4" transform="translate(778.5 145.28)">b</text><line class="cls-5" x1="798.6" y1="143.6" x2="804.7" y2="143.6"/><text class="cls-4" transform="translate(799.45 143.59)">œ</text><text class="cls-4" transform="translate(795.66 143.59)">n</text><line class="cls-5" x1="815.5" y1="147" x2="821.5" y2="147"/><line class="cls-5" x1="815.5" y1="143.6" x2="821.5" y2="143.6"/><text class="cls-4" transform="translate(816.33 146.97)">œ</text><text class="cls-4" transform="translate(812.53 146.97)">n</text><line class="cls-5" x1="832.5" y1="147" x2="838.5" y2="147"/><line class="cls-5" x1="832.5" y1="143.6" x2="838.5" y2="143.6"/><text class="cls-4" transform="translate(833.34 148.66)">œ</text><text class="cls-4" transform="translate(828.98 148.66)">#</text><text class="cls-6" transform="translate(51.02 46.5)">M 317 Sk3.1.3.1</text><polyline class="cls-7" points="455 113.4 455 157.4 89 157.4 89 113.4"/><line class="cls-8" x1="89" y1="113.4" x2="89" y2="157.4"/><line class="cls-8" x1="455" y1="113.1" x2="455" y2="157.1"/><text class="cls-6" transform="translate(233.5 135.09)">Sk3.1.3</text><polyline class="cls-9" points="482.5 110.3 482.5 156.6 596 156.6 596 110.3"/><text class="cls-6" transform="translate(514 135.39)">Sk3.1.1</text><text class="cls-10" transform="translate(632.42 136.8)">&amp;</text><path class="cls-11" d="M633.1,125h-1.4v19.1h1.4"/><path class="cls-11" d="M639.2,125h1.4v19.1h-1.4"/></svg>