<svg id="Ebene_1" data-name="Ebene 1" xmlns="http://www.w3.org/2000/svg" viewBox="0 0 1021 595"><defs><style>.cls-1,.cls-11,.cls-12,.cls-6,.cls-9{fill:none;}.cls-1,.cls-10,.cls-12,.cls-6,.cls-9{stroke:#000;}.cls-1,.cls-10,.cls-12{stroke-width:0.4px;}.cls-13,.cls-2,.cls-4,.cls-5,.cls-7,.cls-8{isolation:isolate;}.cls-2,.cls-3,.cls-7{font-size:6.75px;}.cls-2,.cls-3{font-family:Arial-ItalicMT, Arial;font-style:italic;}.cls-3{letter-spacing:0em;}.cls-4{font-size:10.13px;}.cls-13,.cls-4,.cls-5{font-family:Maestro, Maestro;}.cls-5{font-size:13.5px;}.cls-6{stroke-width:0.56px;}.cls-7{font-family:TimesNewRomanPSMT, Times New Roman;}.cls-8{font-size:12px;font-family:Arial-BoldMT, Arial;font-weight:700;}.cls-9{stroke-width:0.4px;}.cls-10{fill:#fff;}.cls-10,.cls-12{stroke-miterlimit:10;}.cls-13{font-size:10px;}</style></defs><title>Zeichenfläche 1</title><line class="cls-1" x1="568" y1="167.2" x2="568" y2="180.7"/><line class="cls-1" x1="84.9" y1="126.7" x2="935.4" y2="126.7"/><line class="cls-1" x1="84.9" y1="130.1" x2="935.4" y2="130.1"/><line class="cls-1" x1="84.9" y1="133.5" x2="935.4" y2="133.5"/><line class="cls-1" x1="84.9" y1="136.8" x2="935.4" y2="136.8"/><line class="cls-1" x1="84.9" y1="140.2" x2="935.4" y2="140.2"/><line class="cls-1" x1="84.9" y1="167.2" x2="935.4" y2="167.2"/><line class="cls-1" x1="84.9" y1="170.6" x2="935.4" y2="170.6"/><line class="cls-1" x1="84.9" y1="174" x2="935.4" y2="174"/><line class="cls-1" x1="84.9" y1="177.3" x2="935.4" y2="177.3"/><line class="cls-1" x1="84.9" y1="180.7" x2="935.4" y2="180.7"/><text class="cls-2" transform="translate(51.01 78.91)">Bl. 38</text><text class="cls-3" transform="translate(68.27 76.66) scale(0.58)">v</text><text class="cls-2" transform="translate(51.01 136.84)">5</text><text class="cls-2" transform="translate(51.01 177.34)">6</text><text class="cls-4" transform="translate(472.92 136.84)">&amp;</text><text class="cls-4" transform="translate(472.92 177.34)">&amp;</text><text class="cls-5" transform="translate(487.69 133.47)">œ</text><text class="cls-5" transform="translate(483.89 133.47)">n</text><line class="cls-1" x1="491.8" y1="132.9" x2="491.8" y2="122.5"/><text class="cls-5" transform="translate(501.05 133.47)">œ</text><text class="cls-5" transform="translate(497.11 133.47)">b</text><line class="cls-1" x1="505.2" y1="132.9" x2="505.2" y2="122.5"/><path d="M491.6,121.7h13.8v1.7H491.6Z"/><text class="cls-5" transform="translate(514.41 131.78)">œ</text><text class="cls-5" transform="translate(510.61 131.78)">n</text><line class="cls-6" x1="486.8" y1="184.1" x2="492.9" y2="184.1"/><text class="cls-5" transform="translate(487.69 185.78)">œ</text><text class="cls-5" transform="translate(483.89 185.78)">n</text><line class="cls-1" x1="491.8" y1="185.2" x2="491.8" y2="164.7"/><text class="cls-5" transform="translate(501.05 173.97)">œ</text><text class="cls-5" transform="translate(497.11 173.97)">b</text><line class="cls-1" x1="505.2" y1="173.4" x2="505.2" y2="163"/><path d="M491.6,163.8l13.8-1.7v1.7l-13.8,1.7Z"/><text class="cls-5" transform="translate(519.89 162.44)">.</text><line class="cls-1" x1="514.6" y1="164.4" x2="514.6" y2="175.7"/><line class="cls-6" x1="513.6" y1="163.8" x2="519.6" y2="163.8"/><text class="cls-5" transform="translate(514.41 163.84)">œ</text><text class="cls-5" transform="translate(510.61 163.84)">n</text><text class="cls-5" transform="translate(554.48 180.72)">J</text><line class="cls-1" x1="554.7" y1="172.8" x2="554.7" y2="184.1"/><text class="cls-5" transform="translate(554.48 172.28)">œ</text><text class="cls-5" transform="translate(550.69 172.28)">n</text><text class="cls-2" transform="translate(517.5 78.91)">4</text><text class="cls-7" transform="translate(487.55 150.77)">oder</text><line class="cls-1" x1="577.65" y1="166.1" x2="577.65" y2="177.3"/><text class="cls-5" transform="translate(582.13 165.53)">˙</text><text class="cls-5" transform="translate(572.77 165.53)">#</text><text class="cls-2" transform="translate(567.84 78.91)">5</text><text class="cls-8" transform="translate(51.01 46.25)">M 317 Sk3.1.1</text><path class="cls-9" d="M473.5,165.4h-1.4v19.1h1.4"/><path class="cls-9" d="M479.6,165.4H481v19.1h-1.4"/><path class="cls-9" d="M473.5,124.8h-1.4v19.1h1.4"/><path class="cls-9" d="M479.6,124.8H481v19.1h-1.4"/><polyline class="cls-10" points="326.3 97.56 326.3 148.4 454.3 148.4 454.3 109.1 653.3 109.1 653.3 100.4"/><text class="cls-8" transform="translate(377 123.66)">Sk3.1</text><line class="cls-11" x1="516.6" y1="124.8" x2="503.3" y2="111.1"/><line class="cls-12" x1="516.6" y1="124.8" x2="505" y2="112.8"/><path d="M503.3,111.1a13,13,0,0,0,3.7,1.1l-1.8.8-.9,1.8A10.23,10.23,0,0,0,503.3,111.1Z"/><polyline class="cls-10" points="90.7 197.1 90.7 117.9 284 117.9 284 158.7 453.7 159.1 453.7 197.1"/><text class="cls-8" transform="translate(271.67 180.72)">Sk3.1.3</text><rect class="cls-10" x="637.3" y="159.7" width="212.5" height="29.5"/><text class="cls-8" transform="translate(721.67 177.34)">Sk3.1.3.1</text><text class="cls-13" transform="translate(577.41 165.78)">œ</text><line class="cls-1" x1="582.3" y1="166.1" x2="582.3" y2="177.3"/></svg>