<svg id="Ebene_1" data-name="Ebene 1" xmlns="http://www.w3.org/2000/svg" viewBox="0 0 1021 595"><defs><style>.cls-1,.cls-12,.cls-15,.cls-24,.cls-27,.cls-3,.cls-30,.cls-31,.cls-32,.cls-4{fill:none;}.cls-1,.cls-12,.cls-15,.cls-24,.cls-27,.cls-28,.cls-29,.cls-3,.cls-30,.cls-31,.cls-32,.cls-4{stroke:#000;}.cls-1,.cls-28,.cls-29,.cls-3,.cls-30{stroke-width:0.4px;}.cls-13,.cls-16,.cls-18,.cls-2,.cls-20,.cls-25,.cls-5,.cls-6,.cls-7,.cls-9{isolation:isolate;}.cls-2,.cls-8{font-size:13.5px;}.cls-2,.cls-6,.cls-7{font-family:Maestro, Maestro;}.cls-3{stroke-dasharray:2.5 2.5;}.cls-4{stroke-width:0.56px;}.cls-10,.cls-16,.cls-18,.cls-22,.cls-23,.cls-5,.cls-9{font-size:6.75px;}.cls-16,.cls-20,.cls-5{font-family:TimesNewRomanPSMT, Times New Roman;}.cls-6{font-size:10.13px;}.cls-7{font-size:10px;}.cls-10,.cls-9{font-family:Arial-ItalicMT, Arial;}.cls-10,.cls-13,.cls-33,.cls-9{font-style:italic;}.cls-11{letter-spacing:-0.07em;}.cls-12,.cls-31,.cls-32{stroke-width:0.56px;}.cls-13{font-size:5.63px;font-family:TimesNewRomanPS-BoldItalicMT, Times New Roman;}.cls-13,.cls-25{font-weight:700;}.cls-14,.cls-28,.cls-29{fill:#fff;}.cls-15{stroke-width:0.49px;}.cls-16,.cls-22{letter-spacing:-0.08em;}.cls-17{letter-spacing:0em;}.cls-18{font-family:Times-Roman, Times;}.cls-19{letter-spacing:-0.04em;}.cls-20{font-size:5px;}.cls-21{letter-spacing:-0.1em;}.cls-24{stroke-width:0.25px;}.cls-25{font-size:12px;font-family:Arial-BoldMT, Arial;}.cls-26{letter-spacing:-0.11em;}.cls-27{stroke-width:0.4px;}.cls-29,.cls-30{stroke-miterlimit:10;}.cls-31{stroke-dasharray:0.67 0.67;}.cls-32{stroke-dasharray:0.69 0.69;}.cls-33{font-family:TimesNewRomanPS-ItalicMT, Times New Roman;}</style></defs><title>Zeichenfläche 1</title><line class="cls-1" x1="85.1" y1="207.7" x2="85.1" y2="302.2"/><text class="cls-2" transform="translate(88.73 177.34)">&amp;</text><text class="cls-2" transform="translate(88.73 217.84)">&amp;</text><text class="cls-2" transform="translate(88.73 258.34)">&amp;</text><text class="cls-2" transform="translate(88.73 292.09)">?</text><line class="cls-1" x1="269.4" y1="248.2" x2="269.4" y2="302.2"/><line class="cls-1" x1="269.4" y1="207.7" x2="269.4" y2="221.2"/><line class="cls-1" x1="413.1" y1="248.2" x2="413.1" y2="302.2"/><line class="cls-1" x1="413.1" y1="207.7" x2="413.1" y2="221.2"/><line class="cls-1" x1="582.8" y1="248.2" x2="582.8" y2="302.2"/><line class="cls-1" x1="582.8" y1="207.7" x2="582.8" y2="221.2"/><line class="cls-1" x1="780.4" y1="248.2" x2="780.4" y2="302.2"/><line class="cls-1" x1="780.4" y1="207.7" x2="780.4" y2="221.2"/><line class="cls-1" x1="84.9" y1="126.7" x2="935.4" y2="126.7"/><line class="cls-1" x1="84.9" y1="130.1" x2="935.4" y2="130.1"/><line class="cls-1" x1="84.9" y1="133.5" x2="935.4" y2="133.5"/><line class="cls-1" x1="84.9" y1="136.8" x2="935.4" y2="136.8"/><line class="cls-1" x1="84.9" y1="140.2" x2="935.4" y2="140.2"/><line class="cls-1" x1="84.9" y1="167.2" x2="935.4" y2="167.2"/><line class="cls-1" x1="84.9" y1="170.6" x2="935.4" y2="170.6"/><line class="cls-1" x1="84.9" y1="174" x2="935.4" y2="174"/><line class="cls-1" x1="84.9" y1="177.3" x2="935.4" y2="177.3"/><line class="cls-1" x1="84.9" y1="180.7" x2="935.4" y2="180.7"/><line class="cls-1" x1="84.9" y1="207.7" x2="935.4" y2="207.7"/><line class="cls-1" x1="84.9" y1="211.1" x2="935.4" y2="211.1"/><line class="cls-1" x1="84.9" y1="214.5" x2="935.4" y2="214.5"/><line class="cls-1" x1="84.9" y1="217.8" x2="935.4" y2="217.8"/><line class="cls-1" x1="84.9" y1="221.2" x2="935.4" y2="221.2"/><line class="cls-1" x1="84.9" y1="248.2" x2="935.4" y2="248.2"/><line class="cls-1" x1="84.9" y1="251.6" x2="935.4" y2="251.6"/><line class="cls-1" x1="84.9" y1="255" x2="935.4" y2="255"/><line class="cls-1" x1="84.9" y1="258.3" x2="935.4" y2="258.3"/><line class="cls-1" x1="84.9" y1="261.7" x2="935.4" y2="261.7"/><line class="cls-1" x1="84.9" y1="288.7" x2="935.4" y2="288.7"/><line class="cls-1" x1="84.9" y1="292.1" x2="935.4" y2="292.1"/><line class="cls-1" x1="84.9" y1="295.5" x2="935.4" y2="295.5"/><line class="cls-1" x1="84.9" y1="298.8" x2="935.4" y2="298.8"/><line class="cls-1" x1="84.9" y1="302.2" x2="935.4" y2="302.2"/><line class="cls-1" x1="84.9" y1="329.2" x2="935.4" y2="329.2"/><line class="cls-1" x1="84.9" y1="332.6" x2="935.4" y2="332.6"/><line class="cls-1" x1="84.9" y1="336" x2="935.4" y2="336"/><line class="cls-1" x1="84.9" y1="339.3" x2="935.4" y2="339.3"/><line class="cls-1" x1="84.9" y1="342.7" x2="935.4" y2="342.7"/><line class="cls-1" x1="84.9" y1="369.7" x2="935.4" y2="369.7"/><line class="cls-1" x1="84.9" y1="373.1" x2="935.4" y2="373.1"/><line class="cls-1" x1="84.9" y1="376.5" x2="935.4" y2="376.5"/><line class="cls-1" x1="84.9" y1="379.8" x2="935.4" y2="379.8"/><line class="cls-1" x1="84.9" y1="383.2" x2="935.4" y2="383.2"/><path d="M83.2,248.2c-7.2,11.5,3.1,21.9-3.7,27h.3c8.2-6.8-1.9-15.5,3.4-26.7Z"/><path d="M83.2,302.2c-7.2-11.5,3.1-21.9-3.7-27h.3c8.2,6.8-1.9,15.5,3.4,26.7Z"/><line class="cls-1" x1="270.7" y1="299.4" x2="276.5" y2="288.6"/><line class="cls-1" x1="841.4" y1="148" x2="841.4" y2="146.3"/><line class="cls-3" x1="841.4" y1="146.3" x2="850.8" y2="146.3"/><line class="cls-1" x1="850.8" y1="146.3" x2="850.8" y2="148"/><line class="cls-1" x1="854.6" y1="148" x2="854.6" y2="146.3"/><line class="cls-3" x1="854.6" y1="146.3" x2="860.8" y2="146.3"/><line class="cls-1" x1="860.8" y1="146.3" x2="860.8" y2="148"/><line class="cls-1" x1="570.4" y1="154.1" x2="570.4" y2="152.5"/><line class="cls-3" x1="570.4" y1="152.5" x2="589.9" y2="152.5"/><line class="cls-1" x1="589.9" y1="152.5" x2="589.9" y2="154.1"/><line class="cls-3" x1="264.3" y1="138.5" x2="312" y2="138.5"/><line class="cls-3" x1="711.8" y1="131.5" x2="829.8" y2="131.5"/><line class="cls-3" x1="857.4" y1="131.9" x2="881.2" y2="131.9"/><polyline class="cls-1" points="837 190.4 871.7 192.4 837 194.4"/><polyline class="cls-1" points="506.1 193.8 456 195.8 506.1 197.7"/><polyline class="cls-1" points="370.1 188.6 401.3 190.6 370.1 192.5"/><polyline class="cls-1" points="258 158.6 311.2 160.6 258 162.6"/><polyline class="cls-1" points="127.3 270.3 156 272.3 127.3 274.2"/><polyline class="cls-1" points="236.4 275.1 256.6 277 236.4 279"/><polyline class="cls-1" points="519.9 307.4 495.4 309.4 519.9 311.4"/><polyline class="cls-1" points="745.7 272.3 775.8 274.2 745.7 276.2"/><polyline class="cls-1" points="812.8 311.1 828.6 313 812.8 315"/><text class="cls-2" transform="translate(114.89 173.97)">Œ</text><text class="cls-2" transform="translate(155.95 173.97)">‰</text><line class="cls-1" x1="176.3" y1="166.1" x2="176.3" y2="177.3"/><text class="cls-2" transform="translate(176.06 165.53)">œ</text><text class="cls-2" transform="translate(172.27 165.53)">n</text><text class="cls-2" transform="translate(176.34 161.73)">-</text><line class="cls-1" x1="212.8" y1="166.1" x2="212.8" y2="177.3"/><text class="cls-2" transform="translate(212.63 165.53)">œ</text><text class="cls-2" transform="translate(208.83 165.53)">n</text><text class="cls-2" transform="translate(249.05 173.97)">œ</text><text class="cls-2" transform="translate(245.11 173.97)">b</text><line class="cls-1" x1="249.2" y1="174.5" x2="249.2" y2="185.6"/><line class="cls-4" x1="277" y1="184.1" x2="283.1" y2="184.1"/><text class="cls-2" transform="translate(277.88 185.78)">œ</text><text class="cls-2" transform="translate(274.08 185.78)">n</text><line class="cls-1" x1="282" y1="185.2" x2="282" y2="173.9"/><text class="cls-2" transform="translate(301.78 177.34)">œ</text><text class="cls-2" transform="translate(297.42 177.34)">#</text><line class="cls-1" x1="305.9" y1="176.8" x2="305.9" y2="165.4"/><path d="M249,184.8l57-20.2v1.7l-57,20.2Z"/><text class="cls-2" transform="translate(114.89 214.47)">Œ</text><text class="cls-2" transform="translate(155.95 214.47)">‰</text><line class="cls-1" x1="180.2" y1="217.3" x2="180.2" y2="206"/><text class="cls-2" transform="translate(176.06 217.84)">œ</text><text class="cls-2" transform="translate(172.27 217.84)">n</text><text class="cls-2" transform="translate(176.34 222.91)">-</text><line class="cls-1" x1="216.7" y1="217.3" x2="216.7" y2="206"/><text class="cls-2" transform="translate(212.63 217.84)">œ</text><text class="cls-2" transform="translate(208.83 217.84)">n</text><text class="cls-2" transform="translate(252.96 206.03)">j</text><line class="cls-1" x1="253.2" y1="213.9" x2="253.2" y2="202.7"/><text class="cls-2" transform="translate(249.05 214.47)">œ</text><text class="cls-2" transform="translate(245.11 214.47)">b</text><text class="cls-5" transform="translate(171.65 199)">noch</text><text class="cls-5" transform="translate(213.09 199)">ü</text><text class="cls-5" transform="translate(246.89 199)">ber</text><text class="cls-2" transform="translate(99.84 258.34)"> </text><text class="cls-2" transform="translate(108.98 254.97)">œ</text><text class="cls-2" transform="translate(105.05 254.97)">b</text><line class="cls-1" x1="109.2" y1="255.5" x2="109.2" y2="267.6"/><path d="M99.8,268.5l9.5-1.7v1.7l-9.5,1.7Z"/><line class="cls-1" x1="139.8" y1="247.1" x2="139.8" y2="266.2"/><text class="cls-2" transform="translate(139.64 246.53)">œ</text><text class="cls-2" transform="translate(139.64 256.66)">œ</text><text class="cls-2" transform="translate(135.28 256.66)">#</text><text class="cls-2" transform="translate(135.84 246.53)">n</text><text class="cls-2" transform="translate(176.06 254.97)">‰</text><line class="cls-1" x1="196.5" y1="242" x2="196.5" y2="263.4"/><line class="cls-4" x1="195.5" y1="244.8" x2="201.5" y2="244.8"/><line class="cls-4" x1="195.5" y1="241.5" x2="201.5" y2="241.5"/><text class="cls-2" transform="translate(196.31 241.47)">œ</text><text class="cls-2" transform="translate(196.31 251.59)">œ</text><text class="cls-2" transform="translate(192.52 251.59)">n</text><text class="cls-2" transform="translate(192.52 241.47)">n</text><line class="cls-4" x1="228" y1="285.3" x2="234" y2="285.3"/><line class="cls-4" x1="228" y1="282" x2="234" y2="282"/><text class="cls-2" transform="translate(228.8 280.28)">œ</text><text class="cls-2" transform="translate(225 280.28)">n</text><line class="cls-1" x1="232.9" y1="279.7" x2="232.9" y2="272.3"/><text class="cls-2" transform="translate(249.05 251.59)">œ</text><text class="cls-2" transform="translate(244.69 251.59)">#</text><line class="cls-1" x1="249.2" y1="252.2" x2="249.2" y2="265.6"/><path d="M232.7,271.4l16.3-6.6v1.7l-16.3,6.6Z"/><text class="cls-6" transform="translate(126.28 251.59)">?</text><text class="cls-6" transform="translate(183.66 258.34)">&amp;</text><text class="cls-6" transform="translate(235.69 251.59)">?</text><line class="cls-1" x1="143.8" y1="281" x2="143.8" y2="300.1"/><text class="cls-2" transform="translate(139.64 290.41)">œ</text><text class="cls-2" transform="translate(139.64 300.53)">œ</text><text class="cls-2" transform="translate(135.84 300.53)">n</text><text class="cls-2" transform="translate(135.28 290.41)">#</text><text class="cls-2" transform="translate(176.06 295.47)">‰</text><line class="cls-1" x1="196.5" y1="284.2" x2="196.5" y2="305.6"/><line class="cls-4" x1="195.5" y1="285.3" x2="201.5" y2="285.3"/><text class="cls-2" transform="translate(196.31 283.66)">œ</text><text class="cls-2" transform="translate(196.31 293.78)">œ</text><text class="cls-2" transform="translate(192.52 293.78)">n</text><text class="cls-2" transform="translate(191.95 283.66)">#</text><text class="cls-2" transform="translate(100.97 170.73)">4</text><text class="cls-2" transform="translate(101.25 177.48)">4</text><text class="cls-2" transform="translate(90.7 238.48)">4</text><text class="cls-7" transform="translate(86.84 231.78)">3<tspan class="cls-8" x="3.76" y="0">4</tspan></text><text class="cls-9" transform="translate(51.02 78.91)">Bl. 39</text><text class="cls-10" transform="translate(68.29 76.66) scale(0.58)">r</text><text class="cls-9" transform="translate(51.02 136.84)">8</text><text class="cls-9" transform="translate(51.02 177.34)">9</text><text class="cls-9" transform="translate(51.02 217.84)">10</text><text class="cls-9" transform="translate(51.02 258.34)"><tspan class="cls-11">1</tspan><tspan x="3.25" y="0">1</tspan></text><text class="cls-9" transform="translate(51.02 298.84)">12</text><text class="cls-9" transform="translate(84.94 78.91)">7</text><text class="cls-5" transform="translate(86.91 206.73)">7</text><text class="cls-5" transform="translate(255.94 139.38)">rit</text><text class="cls-9" transform="translate(51.02 339.34)">13</text><text class="cls-9" transform="translate(51.02 379.84)">14</text><text class="cls-2" transform="translate(194.63 273.67)">f</text><path class="cls-12" d="M251.9,271.6H256"/><path class="cls-12" d="M255.9,267.6v4.2"/><text class="cls-2" transform="translate(320.2 173.97)">‰</text><text class="cls-2" transform="translate(349.45 177.34)">œ</text><text class="cls-2" transform="translate(345.09 177.34)">#</text><line class="cls-1" x1="349.7" y1="177.9" x2="349.7" y2="188.3"/><text class="cls-2" transform="translate(370.55 172.28)">œ</text><text class="cls-2" transform="translate(366.19 172.28)">#</text><line class="cls-1" x1="370.7" y1="172.8" x2="370.7" y2="185.2"/><line class="cls-4" x1="390.9" y1="163.8" x2="397" y2="163.8"/><text class="cls-2" transform="translate(391.78 163.84)">œ</text><text class="cls-2" transform="translate(387.98 163.84)">n</text><line class="cls-1" x1="392" y1="164.4" x2="392" y2="182"/><path d="M349.5,187.5l42.7-6.3v1.7l-42.7,6.3Z"/><text class="cls-5" transform="translate(347.48 146.27)">die</text><text class="cls-5" transform="translate(367.82 146.27)">Blu</text><text class="cls-5" transform="translate(388.12 146.27)">men</text><line class="cls-4" x1="277" y1="224.6" x2="283.1" y2="224.6"/><text class="cls-2" transform="translate(277.88 226.28)">œ</text><text class="cls-2" transform="translate(274.08 226.28)">n</text><line class="cls-1" x1="282" y1="225.7" x2="282" y2="208.6"/><text class="cls-2" transform="translate(298.97 217.84)">œ</text><text class="cls-2" transform="translate(294.61 217.84)">#</text><line class="cls-1" x1="303.1" y1="217.3" x2="303.1" y2="206.9"/><path d="M281.8,207.7l21.5-1.7v1.7l-21.5,1.7Z"/><text class="cls-2" transform="translate(320.2 214.47)">‰</text><text class="cls-2" transform="translate(349.45 212.78)">œ</text><text class="cls-2" transform="translate(345.09 212.78)">#</text><line class="cls-1" x1="349.7" y1="213.3" x2="349.7" y2="223.8"/><line class="cls-4" x1="369.7" y1="204.3" x2="375.8" y2="204.3"/><text class="cls-2" transform="translate(370.55 204.34)">œ</text><text class="cls-2" transform="translate(366.75 204.34)">n</text><line class="cls-1" x1="370.7" y1="204.9" x2="370.7" y2="223.8"/><text class="cls-2" transform="translate(391.78 212.78)">œ</text><text class="cls-2" transform="translate(387.98 212.78)">n</text><line class="cls-1" x1="392" y1="213.3" x2="392" y2="223.8"/><path d="M349.5,222.9h42.7v1.7H349.5Z"/><text class="cls-5" transform="translate(272.34 199)">blühn</text><text class="cls-2" transform="translate(277.88 254.97)">Œ</text><text class="cls-2" transform="translate(320.2 258.34)">œ</text><text class="cls-2" transform="translate(315.84 258.34)">#</text><line class="cls-1" x1="324.3" y1="257.8" x2="324.3" y2="247.4"/><line class="cls-4" x1="329.1" y1="268.5" x2="335.1" y2="268.5"/><line class="cls-4" x1="329.1" y1="265.1" x2="335.1" y2="265.1"/><text class="cls-2" transform="translate(329.91 268.47)">œ</text><text class="cls-2" transform="translate(326.11 268.47)">n</text><line class="cls-1" x1="334" y1="267.9" x2="334" y2="247.8"/><line class="cls-4" x1="338.9" y1="265.1" x2="345" y2="265.1"/><text class="cls-2" transform="translate(339.75 265.09)">œ</text><text class="cls-2" transform="translate(335.95 265.09)">n</text><line class="cls-1" x1="343.9" y1="264.5" x2="343.9" y2="248.2"/><path d="M324.1,246.5l19.9.8V249l-19.9-.8Z"/><path d="M324.1,249.1l19.9.8v1.7l-19.9-.8Z"/><line class="cls-4" x1="348.6" y1="285.3" x2="354.7" y2="285.3"/><text class="cls-2" transform="translate(349.45 283.66)">œ</text><text class="cls-2" transform="translate(345.52 283.66)">b</text><line class="cls-1" x1="353.6" y1="283.1" x2="353.6" y2="271.3"/><text class="cls-2" transform="translate(370.55 254.97)">œ</text><text class="cls-2" transform="translate(366.75 254.97)">n</text><line class="cls-1" x1="370.7" y1="255.5" x2="370.7" y2="267.6"/><path d="M353.4,270.4l17.2-3.7v1.7l-17.2,3.7Z"/><text class="cls-2" transform="translate(391.78 254.97)">‰</text><text class="cls-13" transform="translate(330.75 244.84)">3</text><text class="cls-6" transform="translate(303.98 258.34)">&amp;</text><text class="cls-2" transform="translate(283.64 295.47)">Œ</text><text class="cls-2" transform="translate(320.2 295.47)">‰</text><text class="cls-2" transform="translate(391.78 295.47)">‰</text><text class="cls-6" transform="translate(327.06 298.84)">&amp;</text><text class="cls-6" transform="translate(402.47 292.09)">?</text><text class="cls-2" transform="translate(270.42 234.16)">3</text><text class="cls-2" transform="translate(270.14 241.19)">4</text><text class="cls-6" transform="translate(270.7 291.95)">?</text><rect class="cls-14" x="404.7" y="280.8" width="3.9" height="2.8"/><rect class="cls-14" x="404.7" y="303.3" width="3.9" height="2.8"/><path class="cls-15" d="M269,167.2v13.5"/><text class="cls-9" transform="translate(269.16 78.91)">8</text><text class="cls-5" transform="translate(269.16 206.73)">8</text><text class="cls-5" transform="translate(316.69 139.23)">tempo</text><text class="cls-2" transform="translate(348.33 296.89)">S</text><rect class="cls-14" x="307.3" y="243.4" width="3.9" height="2.8"/><rect class="cls-14" x="307.3" y="265.9" width="3.9" height="2.8"/><text class="cls-2" transform="translate(311.06 278.17)">f</text><text class="cls-2" transform="translate(422.16 173.97)">‰</text><text class="cls-2" transform="translate(439.03 172.28)">œ</text><text class="cls-2" transform="translate(435.23 172.28)">n</text><line class="cls-1" x1="439.2" y1="172.8" x2="439.2" y2="190"/><text class="cls-2" transform="translate(456.05 180.72)">œ</text><text class="cls-2" transform="translate(452.11 180.72)">b</text><line class="cls-1" x1="456.2" y1="181.3" x2="456.2" y2="191.7"/><path d="M439,189.2l17.4,1.7v1.7L439,190.9Z"/><line class="cls-1" x1="473.1" y1="169.5" x2="473.1" y2="180.7"/><text class="cls-2" transform="translate(472.92 168.91)">œ</text><text class="cls-2" transform="translate(469.13 168.91)">n</text><text class="cls-2" transform="translate(509.74 173.97)">j</text><line class="cls-1" x1="509.9" y1="181.8" x2="509.9" y2="170.6"/><text class="cls-2" transform="translate(505.83 182.41)">œ</text><text class="cls-2" transform="translate(502.03 182.41)">n</text><text class="cls-2" transform="translate(526.64 173.97)">‰</text><text class="cls-2" transform="translate(548.3 167.22)">œ</text><text class="cls-2" transform="translate(544.5 167.22)">n</text><line class="cls-1" x1="548.5" y1="167.8" x2="548.5" y2="188.3"/><text class="cls-2" transform="translate(565.73 179.03)">œ</text><text class="cls-2" transform="translate(561.38 179.03)">#</text><line class="cls-1" x1="565.9" y1="179.6" x2="565.9" y2="190"/><path d="M548.3,187.5l17.8,1.7v1.7l-17.8-1.7Z"/><text class="cls-13" transform="translate(439.88 164.27)">3</text><text class="cls-13" transform="translate(490.08 172.98)">3</text><text class="cls-13" transform="translate(546.89 195.23)">3</text><text class="cls-5" transform="translate(436.5 153.44)">mir</text><text class="cls-5" transform="translate(454.08 153.44)">die</text><text class="cls-16" transform="translate(469.07 153.44)">W<tspan class="cls-17" x="5.83" y="0">elt!</tspan></text><text class="cls-5" transform="translate(543.89 158.5)">noch</text><text class="cls-5" transform="translate(563.76 158.5)">ein</text><line class="cls-1" x1="422.4" y1="248.8" x2="422.4" y2="269.6"/><text class="cls-2" transform="translate(422.16 248.22)">œ</text><text class="cls-2" transform="translate(422.16 260.03)">œ</text><text class="cls-2" transform="translate(417.8 260.03)">#</text><text class="cls-2" transform="translate(418.36 248.22)">n</text><text class="cls-2" transform="translate(472.92 254.97)">‰</text><text class="cls-2" transform="translate(495.42 261.72)">œ</text><text class="cls-2" transform="translate(491.48 261.72)">b</text><line class="cls-1" x1="495.6" y1="262.3" x2="495.6" y2="278.2"/><text class="cls-2" transform="translate(505.83 249.91)">œ</text><line class="cls-1" x1="506" y1="250.5" x2="506" y2="276.5"/><text class="cls-2" transform="translate(516.23 298.84)">œ</text><text class="cls-2" transform="translate(512.44 298.84)">n</text><line class="cls-1" x1="520.3" y1="298.3" x2="520.3" y2="274.1"/><path d="M495.4,277.3l25.1-4.1v1.7L495.4,279Z"/><line class="cls-1" x1="495.6" y1="277.3" x2="495.6" y2="280.7"/><line class="cls-1" x1="506" y1="275.6" x2="506" y2="279"/><path d="M495.4,279.9l25.1-4.1v1.7l-25.1,4.1Z"/><text class="cls-2" transform="translate(548.02 254.97)">‰</text><line class="cls-1" x1="568" y1="257.8" x2="568" y2="246.5"/><text class="cls-2" transform="translate(563.91 258.34)">œ</text><text class="cls-2" transform="translate(559.55 258.34)">#</text><line class="cls-1" x1="575.6" y1="267.9" x2="575.6" y2="255"/><line class="cls-4" x1="570.7" y1="268.5" x2="576.7" y2="268.5"/><line class="cls-4" x1="570.7" y1="265.1" x2="576.7" y2="265.1"/><text class="cls-2" transform="translate(571.5 268.47)">œ</text><text class="cls-2" transform="translate(563.7 268.47)">n</text><text class="cls-13" transform="translate(506.53 243.58)">3</text><line class="cls-1" x1="422.8" y1="285.9" x2="422.8" y2="307.3"/><line class="cls-4" x1="421.7" y1="285.3" x2="427.8" y2="285.3"/><text class="cls-2" transform="translate(422.58 285.34)">œ</text><text class="cls-2" transform="translate(422.58 295.47)">œ</text><text class="cls-2" transform="translate(418.78 295.47)">n</text><text class="cls-2" transform="translate(418.22 285.34)">#</text><text class="cls-6" transform="translate(486.56 298.84)">&amp;</text><text class="cls-6" transform="translate(572.2 292.09)">?</text><text class="cls-2" transform="translate(526.64 335.97)">J</text><line class="cls-1" x1="526.8" y1="328.1" x2="526.8" y2="339.3"/><text class="cls-2" transform="translate(526.64 327.53)">œ</text><text class="cls-2" transform="translate(522.28 327.53)">#</text><text class="cls-2" transform="translate(558.28 335.97)">‰</text><text class="cls-6" transform="translate(508.92 339.34)">&amp;</text><path class="cls-15" d="M412.9,167.2v13.5"/><text class="cls-9" transform="translate(412.88 78.91)">9</text><text class="cls-5" transform="translate(412.88 206.73)">9</text><rect class="cls-14" x="512" y="323.7" width="3.9" height="2.8"/><rect class="cls-14" x="512" y="346.2" width="3.9" height="2.8"/><text class="cls-18" transform="translate(525.8 344.25)">gilt</text><rect class="cls-14" x="570.4" y="282.1" width="3.9" height="2.8"/><rect class="cls-14" x="570.4" y="304.6" width="3.9" height="2.8"/><text class="cls-2" transform="translate(472.78 239.36)">Œ</text><text class="cls-2" transform="translate(536.77 273.81)">f</text><text class="cls-2" transform="translate(527.2 318.25)">S</text><text class="cls-2" transform="translate(591.89 179.03)">œ</text><text class="cls-2" transform="translate(587.53 179.03)">#</text><line class="cls-1" x1="592.1" y1="179.6" x2="592.1" y2="190"/><text class="cls-2" transform="translate(610.03 165.53)">œ</text><text class="cls-2" transform="translate(606.23 165.53)">n</text><line class="cls-1" x1="610.2" y1="166.1" x2="610.2" y2="188.3"/><path d="M591.9,189.2l18.5-1.7v1.7l-18.5,1.7Z"/><text class="cls-2" transform="translate(628.17 173.97)">‰</text><text class="cls-2" transform="translate(646.45 180.72)">œ</text><text class="cls-2" transform="translate(642.66 180.72)">n</text><line class="cls-1" x1="646.7" y1="181.3" x2="646.7" y2="191.7"/><text class="cls-2" transform="translate(647.16 175.66)">-</text><text class="cls-2" transform="translate(670.64 170.59)">œ</text><text class="cls-2" transform="translate(666.28 170.59)">#</text><line class="cls-1" x1="670.8" y1="171.2" x2="670.8" y2="190"/><text class="cls-2" transform="translate(670.92 165.53)">-</text><path d="M646.5,190.8l24.6-1.7v1.7l-24.6,1.7Z"/><text class="cls-13" transform="translate(610.73 194.92)">3</text><text class="cls-5" transform="translate(588.98 158.5)">mal</text><text class="cls-5" transform="translate(644.29 158.5)">bin</text><text class="cls-5" transform="translate(668.67 158.5)">ich</text><text class="cls-2" transform="translate(591.89 254.97)">‰</text><line class="cls-1" x1="606.1" y1="272.8" x2="606.1" y2="253.7"/><text class="cls-2" transform="translate(605.95 253.28)">œ</text><text class="cls-2" transform="translate(605.95 263.41)">œ</text><text class="cls-2" transform="translate(602.16 263.41)">n</text><text class="cls-2" transform="translate(602.16 253.28)">n</text><line class="cls-1" x1="631.9" y1="243.7" x2="631.9" y2="265.1"/><line class="cls-4" x1="630.9" y1="244.8" x2="637" y2="244.8"/><text class="cls-2" transform="translate(631.75 243.16)">œ</text><text class="cls-2" transform="translate(631.75 253.28)">œ</text><text class="cls-2" transform="translate(627.95 253.28)">n</text><text class="cls-2" transform="translate(627.95 243.16)">n</text><text class="cls-2" transform="translate(670.64 254.97)">‰</text><text class="cls-2" transform="translate(591.89 295.47)">‰</text><line class="cls-1" x1="604.9" y1="287.6" x2="604.9" y2="308.4"/><text class="cls-2" transform="translate(604.69 287.03)">œ</text><text class="cls-2" transform="translate(604.69 298.84)">œ</text><text class="cls-2" transform="translate(600.89 298.84)">n</text><text class="cls-2" transform="translate(600.75 287.03)">b</text><line class="cls-1" x1="635.4" y1="306.7" x2="635.4" y2="285.3"/><text class="cls-2" transform="translate(631.33 297.16)">œ</text><line class="cls-4" x1="630.5" y1="305.6" x2="636.5" y2="305.6"/><text class="cls-2" transform="translate(631.33 307.28)">œ</text><text class="cls-2" transform="translate(627.39 307.28)">b</text><text class="cls-2" transform="translate(627.53 297.16)">n</text><text class="cls-2" transform="translate(670.64 295.47)">‰</text><text class="cls-6" transform="translate(616.59 298.84)">&amp;</text><text class="cls-2" transform="translate(583.31 230.36)">2</text><text class="cls-2" transform="translate(582.89 237.81)">4</text><path class="cls-15" d="M582.5,167.2v13.5"/><text class="cls-9" transform="translate(582.61 78.91)">10</text><text class="cls-5" transform="translate(582.61 206.73)">10</text><text class="cls-2" transform="translate(624.09 275.08)">f</text><text class="cls-2" transform="translate(709.17 165.81)">.</text><line class="cls-1" x1="703.9" y1="167.8" x2="703.9" y2="179"/><text class="cls-2" transform="translate(703.69 167.22)">œ</text><text class="cls-2" transform="translate(699.33 167.22)">#</text><text class="cls-2" transform="translate(765.28 180.72)">J</text><line class="cls-1" x1="765.5" y1="172.8" x2="765.5" y2="184.1"/><text class="cls-2" transform="translate(765.28 172.28)">œ</text><text class="cls-2" transform="translate(760.92 172.28)">#</text><text class="cls-5" transform="translate(699.47 158.5)">ganz</text><text class="cls-5" transform="translate(763.5 158.5)">ins</text><text class="cls-2" transform="translate(703.69 254.97)">‰</text><text class="cls-2" transform="translate(718.45 263.41)">œ</text><text class="cls-2" transform="translate(714.66 263.41)">n</text><line class="cls-1" x1="718.7" y1="264" x2="718.7" y2="277.2"/><line class="cls-4" x1="728" y1="271.8" x2="734.1" y2="271.8"/><line class="cls-4" x1="728" y1="268.5" x2="734.1" y2="268.5"/><line class="cls-4" x1="728" y1="265.1" x2="734.1" y2="265.1"/><text class="cls-2" transform="translate(728.86 271.84)">œ</text><text class="cls-2" transform="translate(725.06 271.84)">n</text><line class="cls-1" x1="729.1" y1="272.4" x2="729.1" y2="279.2"/><text class="cls-2" transform="translate(740.11 293.78)">œ</text><text class="cls-2" transform="translate(735.75 293.78)">#</text><line class="cls-1" x1="744.2" y1="293.2" x2="744.2" y2="282.2"/><path d="M718.5,276.3l26,5.1v1.7l-26-5.1Z"/><line class="cls-1" x1="718.7" y1="276.3" x2="718.7" y2="279.7"/><line class="cls-1" x1="729.1" y1="278.4" x2="729.1" y2="281.7"/><path d="M718.5,278.9l26,5.1v1.7l-26-5.1Z"/><text class="cls-2" transform="translate(748.13 254.97)">‰</text><line class="cls-1" x1="771" y1="248.8" x2="771" y2="260"/><text class="cls-2" transform="translate(770.77 248.22)">œ</text><text class="cls-2" transform="translate(766.41 248.22)">#</text><text class="cls-2" transform="translate(771.05 267.06)">-</text><text class="cls-13" transform="translate(729.98 255.81)">3</text><text class="cls-13" transform="translate(760.22 244.28)">3</text><text class="cls-6" transform="translate(769.92 339.34)">&amp;</text><text class="cls-6" transform="translate(769.92 379.84)">&amp;</text><path class="cls-1" d="M694.3,167.2v13.5"/><path class="cls-1" d="M694.3,248.2v54"/><text class="cls-9" transform="translate(694.83 78.91)"><tspan class="cls-11">1</tspan><tspan x="3.25" y="0">1</tspan></text><text class="cls-5" transform="translate(694.83 206.73)"><tspan class="cls-19">1</tspan><tspan x="3.12" y="0">1</tspan></text><text class="cls-5" transform="translate(703.27 131.92)">rit</text><rect class="cls-14" x="771.4" y="365.1" width="3.9" height="2.8"/><rect class="cls-14" x="783.4" y="387.6" width="3.9" height="2.8"/><rect class="cls-14" x="783.4" y="325" width="3.9" height="2.8"/><rect class="cls-14" x="771.4" y="347.5" width="3.9" height="2.8"/><text class="cls-2" transform="translate(771.84 354.39)">3</text><text class="cls-2" transform="translate(771.28 361.28)">4</text><text class="cls-2" transform="translate(707.77 278.45)">f</text><text class="cls-2" transform="translate(789.05 167.22)">œ</text><text class="cls-2" transform="translate(785.25 167.22)">n</text><line class="cls-1" x1="789.2" y1="167.8" x2="789.2" y2="179.9"/><text class="cls-2" transform="translate(812.81 170.59)">œ</text><text class="cls-2" transform="translate(809.02 170.59)">n</text><line class="cls-1" x1="813" y1="171.2" x2="813" y2="180.7"/><path d="M789,179l24.2.8v1.7l-24.2-.8Z"/><line class="cls-4" x1="835.7" y1="184.1" x2="841.8" y2="184.1"/><text class="cls-2" transform="translate(836.58 185.78)">œ</text><text class="cls-2" transform="translate(832.78 185.78)">n</text><line class="cls-1" x1="840.7" y1="185.2" x2="840.7" y2="163"/><text class="cls-2" transform="translate(850.78 173.97)">œ</text><text class="cls-2" transform="translate(846.84 173.97)">b</text><line class="cls-1" x1="854.9" y1="173.4" x2="854.9" y2="163"/><line class="cls-4" x1="863.7" y1="184.1" x2="869.8" y2="184.1"/><text class="cls-2" transform="translate(864.56 184.09)">œ</text><text class="cls-2" transform="translate(860.77 184.09)">n</text><line class="cls-1" x1="868.7" y1="183.5" x2="868.7" y2="163"/><path d="M840.5,162.2h28.4v1.7H840.5Z"/><text class="cls-13" transform="translate(851.34 160.05)">3</text><text class="cls-20" transform="translate(785.66 158.5)"><tspan class="cls-21">w</tspan><tspan class="cls-22" x="3.11" y="0">W</tspan><tspan class="cls-23" x="8.94" y="0">er</tspan></text><text class="cls-5" transform="translate(810.09 158.5)">den</text><text class="cls-5" transform="translate(834.42 153.02)">hin</text><text class="cls-5" transform="translate(849.75 153.02)">ge</text><text class="cls-5" transform="translate(860.15 153.02)">stellt</text><text class="cls-2" transform="translate(836.58 254.97)">Œ</text><text class="cls-2" transform="translate(789.05 295.47)">‰</text><text class="cls-2" transform="translate(812.81 302.22)">œ</text><text class="cls-2" transform="translate(808.88 302.22)">b</text><line class="cls-1" x1="816.9" y1="301.7" x2="816.9" y2="280.3"/><text class="cls-2" transform="translate(820.69 290.41)">œ</text><text class="cls-2" transform="translate(817.89 290.41)">n</text><line class="cls-1" x1="824.8" y1="289.8" x2="824.8" y2="275.3"/><text class="cls-2" transform="translate(828.56 246.53)">œ</text><text class="cls-2" transform="translate(824.77 246.53)">n</text><line class="cls-1" x1="828.8" y1="247.1" x2="828.8" y2="273.1"/><path d="M816.7,279.4l11.8-7.2v1.7l-11.8,7.2Z"/><line class="cls-1" x1="816.9" y1="279.4" x2="816.9" y2="277.8"/><line class="cls-1" x1="824.8" y1="274.5" x2="824.8" y2="272.8"/><path d="M816.7,276.9l11.8-7.2v1.7l-11.8,7.2Z"/><text class="cls-2" transform="translate(836.58 295.47)">Œ</text><text class="cls-13" transform="translate(821.39 270.86)">3</text><text class="cls-2" transform="translate(836.58 335.97)">‰</text><line class="cls-4" x1="846.3" y1="352.8" x2="852.3" y2="352.8"/><line class="cls-4" x1="846.3" y1="349.5" x2="852.3" y2="349.5"/><line class="cls-4" x1="846.3" y1="346.1" x2="852.3" y2="346.1"/><text class="cls-2" transform="translate(847.13 352.84)">œ</text><text class="cls-2" transform="translate(842.77 352.84)">#</text><line class="cls-1" x1="851.2" y1="352.3" x2="851.2" y2="323.3"/><text class="cls-2" transform="translate(857.67 341.03)">œ</text><text class="cls-2" transform="translate(853.88 341.03)">n</text><line class="cls-1" x1="861.8" y1="340.5" x2="861.8" y2="322.5"/><text class="cls-2" transform="translate(868.22 332.59)">œ</text><text class="cls-2" transform="translate(864.42 332.59)">n</text><line class="cls-1" x1="872.3" y1="332" x2="872.3" y2="321.6"/><path d="M851,322.5l21.5-1.7v1.7L851,324.2Z"/><text class="cls-2" transform="translate(789.05 383.22)">œ</text><text class="cls-2" transform="translate(785.11 383.22)">b</text><line class="cls-1" x1="793.2" y1="382.7" x2="793.2" y2="361.8"/><text class="cls-2" transform="translate(796.92 371.41)">œ</text><text class="cls-2" transform="translate(794.13 371.41)">n</text><line class="cls-1" x1="801" y1="370.8" x2="801" y2="355.8"/><text class="cls-2" transform="translate(804.94 327.53)">œ</text><text class="cls-2" transform="translate(801.14 327.53)">n</text><line class="cls-1" x1="805.1" y1="328.1" x2="805.1" y2="352.9"/><path d="M793,361l12-8.9v1.7l-12,8.9Z"/><line class="cls-1" x1="793.2" y1="361" x2="793.2" y2="359.3"/><line class="cls-1" x1="801" y1="354.9" x2="801" y2="353.3"/><path d="M793,358.5l12-8.9v1.7l-12,8.9Z"/><text class="cls-2" transform="translate(812.81 376.47)">‰</text><path class="cls-15" d="M780.2,167.2v13.5"/><text class="cls-2" transform="translate(782.58 234.72)">4</text><text class="cls-2" transform="translate(782.58 241.75)">4</text><text class="cls-9" transform="translate(780.19 78.91)">12</text><text class="cls-5" transform="translate(780.19 206.73)">12</text><text class="cls-5" transform="translate(835.88 132.2)">molto</text><path class="cls-1" d="M780.3,329.2v54"/><path class="cls-12" d="M830,239.9h4.1"/><path class="cls-12" d="M833.9,239.6v4.2"/><text class="cls-5" transform="translate(845.48 366.67)">4</text><text class="cls-2" transform="translate(881.16 383.22)">œ</text><text class="cls-2" transform="translate(877.36 383.22)">n</text><line class="cls-1" x1="885.3" y1="382.7" x2="885.3" y2="361.8"/><text class="cls-2" transform="translate(900.42 330.91)">œ</text><text class="cls-2" transform="translate(896.48 330.91)">b</text><line class="cls-1" x1="900.6" y1="331.5" x2="900.6" y2="351.7"/><path d="M885.1,361l15.4-10.2v1.7l-15.4,10.2Z"/><path class="cls-1" d="M882,167.2v13.5"/><path class="cls-15" d="M882,248.2v54"/><path class="cls-1" d="M921.8,329.2v54"/><text class="cls-5" transform="translate(230.2 199)">-</text><text class="cls-5" transform="translate(262.76 199)">-</text><line class="cls-24" x1="288.8" y1="198.9" x2="303.2" y2="198.9"/><text class="cls-5" transform="translate(381.73 146.27)">-</text><line class="cls-24" x1="485.2" y1="153.3" x2="510.2" y2="153.3"/><line class="cls-24" x1="600.2" y1="158.4" x2="614.2" y2="158.4"/><text class="cls-5" transform="translate(802.41 158.5)">-</text><path d="M214.7,162c20.1-9.3,71.2-8.7,91,.8h0c-19.8-8.7-70.9-9.2-91-.8"/><path d="M214.7,222.3c19.1,14.5,67.4,14.5,86.5,0h0c-19.1,13.7-67.3,13.7-86.5,0"/><path d="M351.6,172.7c8.2-13.1,30.4-21.2,42.5-12.4h0c-11.9-8-34.1.1-42.5,12.4"/><path d="M441.3,168.8c16.2-8.9,51.8-6.8,66.8,3.9h0c-15.1-9.8-50.7-12-66.8-3.9"/><path d="M594,175.4c2-10.1,11.1-20.2,18.3-13.4h0c-6.7-6.2-15.8,3.9-18.3,13.4"/><path d="M496.5,251.5c-2.1-18,28-24.8,24.3,20h0c3.2-44.1-26.9-37.4-24.3-20"/><text class="cls-25" transform="translate(51.02 46.5)">M 317 Sk4 <tspan class="cls-26" x="61.37" y="0">T</tspan><tspan x="67.37" y="0">. 7–12</tspan></text><text class="cls-2" transform="translate(155.95 161.73)">f</text><path class="cls-27" d="M509.2,327.5h-1.4v19.1h1.4"/><path class="cls-27" d="M515.3,327.5h1.4v19.1h-1.4"/><path class="cls-27" d="M572.9,287.6h-1.4V300h1.4"/><path class="cls-27" d="M579,287.6h1.4V300H579"/><path class="cls-27" d="M304.6,246.3h-1.4v19.1h1.4"/><path class="cls-27" d="M310.7,246.3h1.4v19.1h-1.4"/><path class="cls-27" d="M403.3,287.8h-1.4v12.4h1.4"/><path class="cls-27" d="M409.4,287.8h1.4v12.4h-1.4"/><rect class="cls-28" x="413.1" y="322.7" width="68" height="28.3"/><text class="cls-25" transform="translate(431.33 341.03)">Sk4.2</text><polyline class="cls-29" points="88.7 398.7 88.7 322.7 409.4 322.7 409.4 363.7 491.5 363.7 491.5 398.7"/><text class="cls-25" transform="translate(235.69 379.84)">Sk4 <tspan class="cls-26" x="24.69" y="0">T</tspan><tspan x="30.69" y="0">. 13–15</tspan></text><text class="cls-2" transform="translate(419.8 277.23)">p</text><text class="cls-2" transform="translate(433.04 198.86)">p</text><path class="cls-30" d="M466.3,239.9c.4-4.6,4.3-7.8,7.7-7.8a8.33,8.33,0,0,1,7.7,9.7"/><text class="cls-5" transform="translate(155.95 202.66)">3</text><text class="cls-5" transform="translate(296.02 277.05)">2</text><text class="cls-5" transform="translate(515.28 324.38)">2</text><text class="cls-5" transform="translate(559.55 241.75)">2</text><path class="cls-27" d="M770.2,327.5h-1.4v19.1h1.4"/><path class="cls-27" d="M776.3,327.5h1.4v19.1h-1.4"/><path class="cls-27" d="M770.2,367.9h-1.4V387h1.4"/><path class="cls-27" d="M776.3,367.9h1.4V387h-1.4"/><path class="cls-30" d="M569.3,242.4c-6-.4-10.9,7.2-11.9,13.7-1.6,10.5,6.4,22.4,12.9,21.6,5.9-.7,10.8-11.9,9.4-21.1C578.9,251,575.3,242.8,569.3,242.4Z"/><polyline class="cls-29" points="470.2 116.6 470.2 144.6 650 144.6 650 116.6"/><text class="cls-25" transform="translate(526 130.39)">Sk4 <tspan class="cls-26" x="24.69" y="0">T</tspan><tspan x="30.69" y="0">. 3B–6</tspan></text><path class="cls-12" d="M596.1,175.7h4.1"/><path class="cls-12" d="M600,175.4v4.2"/><text class="cls-5" transform="translate(610.73 202.66)">1</text><path class="cls-30" d="M607.5,239.3c-3.2-.3-5.7,2.6-6.3,3.3-5.1,5.8-2.5,15.6-3.2,33.1-.5,12.6-2,19.5,1.6,28.7.7,1.7,2.7,6.6,5.8,6.8s5.4-4,6.2-5.3c4.5-7.8,3.1-14.4,3.2-29.9.1-16.7,2.2-27.7-2.5-33.6C611.7,241.8,610,239.6,607.5,239.3Z"/><polyline class="cls-1" points="710.8 147.1 769.5 149.1 710.8 151"/><path class="cls-12" d="M523,256.9h4.1"/><path class="cls-12" d="M526.9,256.6v4.2"/><line class="cls-12" x1="572" y1="178.9" x2="572.38" y2="178.9"/><line class="cls-31" x1="573.04" y1="178.9" x2="575.39" y2="178.9"/><line class="cls-12" x1="575.72" y1="178.9" x2="576.1" y2="178.9"/><line class="cls-12" x1="575.9" y1="178.6" x2="575.9" y2="178.98"/><line class="cls-32" x1="575.9" y1="179.67" x2="575.9" y2="182.08"/><line class="cls-12" x1="575.9" y1="182.43" x2="575.9" y2="182.8"/><text class="cls-2" transform="translate(548.5 164.53)">-</text><text class="cls-2" transform="translate(337.95 191.4)">f</text><text class="cls-2" transform="translate(537.77 189.81)">f</text><text class="cls-2" transform="translate(802.41 278.9)">p</text><polyline class="cls-1" points="516.4 289.4 529 289.4 529 291.1"/><text class="cls-5" transform="translate(512.79 294.06)">8</text><text class="cls-2" transform="translate(502.03 249.91)">b</text><text class="cls-20" transform="translate(789.2 121.95)">molto <tspan class="cls-33" x="12.92" y="0">[xx]</tspan></text></svg>