<svg id="Ebene_1" data-name="Ebene 1" xmlns="http://www.w3.org/2000/svg" viewBox="0 0 1021 595"><defs><style>.cls-1,.cls-13,.cls-15,.cls-16,.cls-3,.cls-6,.cls-9{isolation:isolate;}.cls-1{font-size:13.5px;}.cls-1,.cls-16{font-family:Maestro, Maestro;}.cls-14,.cls-17,.cls-18,.cls-19,.cls-2,.cls-20,.cls-22,.cls-23,.cls-24,.cls-8{fill:none;}.cls-12,.cls-14,.cls-17,.cls-18,.cls-19,.cls-2,.cls-20,.cls-21,.cls-23,.cls-24,.cls-8{stroke:#000;}.cls-12,.cls-14,.cls-2,.cls-23{stroke-width:0.4px;}.cls-3,.cls-6,.cls-7{font-size:6.75px;}.cls-3,.cls-9{font-family:TimesNewRomanPSMT, Times New Roman;}.cls-4{letter-spacing:-0.02em;}.cls-5{letter-spacing:0em;}.cls-6,.cls-7{font-family:Arial-ItalicMT, Arial;}.cls-15,.cls-6,.cls-7{font-style:italic;}.cls-7{letter-spacing:0em;}.cls-8{stroke-width:0.49px;}.cls-9{font-size:14px;}.cls-10{letter-spacing:-0.04em;}.cls-11,.cls-12,.cls-21{fill:#fff;}.cls-12,.cls-20,.cls-21,.cls-23,.cls-24{stroke-miterlimit:10;}.cls-13{font-size:12px;font-family:Arial-BoldMT, Arial;}.cls-13,.cls-15{font-weight:700;}.cls-14{stroke-dasharray:2.5 2.5;}.cls-15{font-size:5.63px;font-family:TimesNewRomanPS-BoldItalicMT, Times New Roman;}.cls-16{font-size:10.13px;}.cls-17{stroke-width:0.56px;}.cls-18{stroke-width:0.44px;}.cls-19,.cls-20,.cls-21{stroke-width:0.4px;}.cls-24{stroke-width:0.4px;}</style></defs><title>Zeichenfläche 1</title><text class="cls-1" transform="translate(88.31 177.34)">&amp;</text><text class="cls-1" transform="translate(88.31 217.84)">&amp;</text><text class="cls-1" transform="translate(88.31 251.59)">?</text><line class="cls-2" x1="84.9" y1="126.7" x2="935.4" y2="126.7"/><line class="cls-2" x1="84.9" y1="130.1" x2="935.4" y2="130.1"/><line class="cls-2" x1="84.9" y1="133.5" x2="935.4" y2="133.5"/><line class="cls-2" x1="84.9" y1="136.8" x2="935.4" y2="136.8"/><line class="cls-2" x1="84.9" y1="140.2" x2="935.4" y2="140.2"/><line class="cls-2" x1="84.9" y1="167.2" x2="935.4" y2="167.2"/><line class="cls-2" x1="84.9" y1="170.6" x2="935.4" y2="170.6"/><line class="cls-2" x1="84.9" y1="174" x2="935.4" y2="174"/><line class="cls-2" x1="84.9" y1="177.3" x2="935.4" y2="177.3"/><line class="cls-2" x1="84.9" y1="180.7" x2="935.4" y2="180.7"/><line class="cls-2" x1="84.9" y1="207.7" x2="935.4" y2="207.7"/><line class="cls-2" x1="84.9" y1="211.1" x2="935.4" y2="211.1"/><line class="cls-2" x1="84.9" y1="214.5" x2="935.4" y2="214.5"/><line class="cls-2" x1="84.9" y1="217.8" x2="935.4" y2="217.8"/><line class="cls-2" x1="84.9" y1="221.2" x2="935.4" y2="221.2"/><line class="cls-2" x1="84.9" y1="248.2" x2="935.4" y2="248.2"/><line class="cls-2" x1="84.9" y1="251.6" x2="935.4" y2="251.6"/><line class="cls-2" x1="84.9" y1="255" x2="935.4" y2="255"/><line class="cls-2" x1="84.9" y1="258.3" x2="935.4" y2="258.3"/><line class="cls-2" x1="84.9" y1="261.7" x2="935.4" y2="261.7"/><path d="M83.2,207.7c-7.2,11.5,3.1,21.9-3.7,27h.3c8.2-6.8-1.9-15.5,3.4-26.7Z"/><path d="M83.2,261.7c-7.2-11.5,3.1-21.9-3.7-27h.3c8.2,6.8-1.9,15.5,3.4,26.7Z"/><line class="cls-2" x1="86.3" y1="263" x2="97" y2="242.6"/><text class="cls-3" transform="translate(74.34 115.45) rotate(-12.5)">4.<tspan class="cls-4" x="5.06" y="0"> </tspan><tspan class="cls-5" x="6.63" y="0">VII. 34</tspan></text><text class="cls-6" transform="translate(51.02 80.91)">Bl. 38</text><text class="cls-7" transform="translate(68.28 78.66) scale(0.58)">v</text><text class="cls-6" transform="translate(51.02 136.8)">1</text><text class="cls-6" transform="translate(51.02 177.3)">2</text><text class="cls-6" transform="translate(51.02 217.8)">3</text><text class="cls-6" transform="translate(51.02 258.3)">4</text><path class="cls-8" d="M84.8,126.7l.1,134.9"/><text class="cls-9" transform="translate(135.56 107.45)">„<tspan class="cls-10" x="6.21" y="0">W</tspan><tspan x="18.87" y="0">ie bin ich froh!‟</tspan></text><rect class="cls-11" x="359" y="117.9" width="164" height="30.2"/><rect class="cls-12" x="359" y="117.9" width="175.2" height="30.2"/><text class="cls-13" transform="translate(51.02 47.23)">M 317 Sk3.1</text><rect class="cls-12" x="807" y="117.9" width="126.6" height="30.2"/><polygon class="cls-12" points="538.5 117.9 538.5 148.1 708.5 148.1 708.5 231.4 803.5 231.4 803.5 190.4 933.6 190.4 933.6 159.4 804.5 159.4 804.5 117.9 538.5 117.9"/><rect class="cls-12" x="552.7" y="159.5" width="141.3" height="30.2"/><text class="cls-1" transform="translate(99.5 170.59)">3</text><text class="cls-1" transform="translate(98.92 177.34)">4</text><rect class="cls-12" x="170.3" y="199.4" width="368.2" height="30.2"/><rect class="cls-12" x="112.8" y="239.9" width="199" height="30.2"/><rect class="cls-12" x="669" y="239.9" width="40.2" height="30.2"/><text class="cls-13" transform="translate(441.01 136.84)">Sk1</text><text class="cls-13" transform="translate(746 177.34)">Sk2.1</text><text class="cls-13" transform="translate(851.33 136.84)">Sk2.1.1</text><text class="cls-13" transform="translate(603 177.34)">Sk2.1.2</text><text class="cls-13" transform="translate(670.33 251.59)">Sk2.1.</text><text class="cls-13" transform="translate(670.33 265.99)">2.1</text><text class="cls-13" transform="translate(352 217.84)">Sk3</text><text class="cls-13" transform="translate(189.67 260.03)">Sk3.1.2</text><rect class="cls-12" x="106.7" y="117.9" width="247.5" height="30.2"/><text class="cls-13" transform="translate(214 136.8)">Sk2</text><rect class="cls-12" x="821.5" y="225.4" width="75" height="20.6"/><text class="cls-13" transform="translate(839.33 242.09)">Sk2.1.3</text><line class="cls-2" x1="368.3" y1="248.2" x2="368.3" y2="261.7"/><line class="cls-2" x1="440.5" y1="248.2" x2="440.5" y2="261.7"/><line class="cls-2" x1="511.4" y1="248.2" x2="511.4" y2="261.7"/><line class="cls-2" x1="581.1" y1="248.2" x2="581.1" y2="261.7"/><line class="cls-2" x1="540.5" y1="245.4" x2="548.3" y2="237.8"/><line class="cls-2" x1="548.3" y1="246.5" x2="555.9" y2="238.2"/><line class="cls-2" x1="599.8" y1="278.9" x2="599.8" y2="280.6"/><line class="cls-14" x1="599.8" y1="280.6" x2="607.8" y2="280.6"/><line class="cls-2" x1="607.8" y1="280.6" x2="607.8" y2="278.9"/><text class="cls-1" transform="translate(332.14 254.97)">‰</text><text class="cls-1" transform="translate(344.09 253.28)">œ</text><text class="cls-1" transform="translate(339.73 253.28)">#</text><line class="cls-2" x1="348.2" y1="252.7" x2="348.2" y2="242.3"/><text class="cls-1" transform="translate(357.45 260.03)">œ</text><text class="cls-1" transform="translate(353.66 260.03)">n</text><line class="cls-2" x1="361.6" y1="259.5" x2="361.6" y2="244"/><path d="M348,241.5l13.8,1.7v1.7L348,243.2Z"/><text class="cls-15" transform="translate(345.5 237.95)">3</text><text class="cls-16" transform="translate(319.2 258.34)">&amp;</text><line class="cls-2" x1="381" y1="262.8" x2="381" y2="251.6"/><text class="cls-1" transform="translate(376.86 263.41)">œ</text><text class="cls-1" transform="translate(373.06 263.41)">n</text><text class="cls-1" transform="translate(406.39 254.97)">‰</text><text class="cls-1" transform="translate(417.64 254.97)">œ</text><text class="cls-1" transform="translate(413.7 254.97)">b</text><line class="cls-2" x1="421.7" y1="254.4" x2="421.7" y2="244"/><line class="cls-17" x1="428.2" y1="265.1" x2="434.2" y2="265.1"/><text class="cls-1" transform="translate(429.03 266.78)">œ</text><text class="cls-1" transform="translate(425.23 266.78)">n</text><line class="cls-2" x1="433.1" y1="266.2" x2="433.1" y2="245.7"/><path d="M421.5,243.2l11.8,1.7v1.7l-11.8-1.7Z"/><path class="cls-18" d="M368.1,248.2v13.5"/><text class="cls-1" transform="translate(454.48 253.56)">.</text><line class="cls-2" x1="449.2" y1="253.8" x2="449.2" y2="265.1"/><text class="cls-1" transform="translate(449 253.28)">œ</text><text class="cls-1" transform="translate(445.2 253.28)">n</text><line class="cls-2" x1="493.7" y1="268.6" x2="493.7" y2="257.3"/><text class="cls-1" transform="translate(493.44 256.66)">œ</text><text class="cls-1" transform="translate(489.64 256.66)">n</text><line class="cls-2" x1="520.6" y1="247.1" x2="520.6" y2="258.3"/><text class="cls-1" transform="translate(520.44 246.53)">˙</text><text class="cls-1" transform="translate(516.08 246.53)">#</text><text class="cls-1" transform="translate(555.88 254.97)">‰</text><text class="cls-1" transform="translate(572.3 249.91)">j</text><line class="cls-2" x1="572.5" y1="257.8" x2="572.5" y2="246.5"/><text class="cls-1" transform="translate(568.39 258.34)">œ</text><text class="cls-1" transform="translate(564.59 258.34)">n</text><text class="cls-3" transform="translate(568.01 276.63)">u.</text><text class="cls-3" transform="translate(561.22 242.59)">I</text><text class="cls-1" transform="translate(589.63 209.41)">œ</text><text class="cls-1" transform="translate(585.83 209.41)">n</text><line class="cls-2" x1="589.8" y1="210" x2="589.8" y2="231.3"/><text class="cls-1" transform="translate(605.66 221.22)">œ</text><text class="cls-1" transform="translate(601.72 221.22)">b</text><line class="cls-2" x1="605.9" y1="221.8" x2="605.9" y2="232.2"/><text class="cls-1" transform="translate(621.41 217.84)">œ</text><text class="cls-1" transform="translate(617.47 217.84)">b</text><line class="cls-2" x1="621.6" y1="218.4" x2="621.6" y2="233"/><path d="M589.6,230.5l32.2,1.7v1.7l-32.2-1.7Z"/><text class="cls-15" transform="translate(606.22 215.88)">3</text><text class="cls-1" transform="translate(589.63 249.91)">œ</text><text class="cls-1" transform="translate(585.83 249.91)">n</text><line class="cls-2" x1="589.8" y1="250.5" x2="589.8" y2="265.7"/><text class="cls-1" transform="translate(607.48 261.72)">œ</text><text class="cls-1" transform="translate(603.55 261.72)">b</text><line class="cls-2" x1="607.7" y1="262.3" x2="607.7" y2="267.3"/><path d="M589.6,264.8l18.3,1.7v1.7l-18.3-1.7Z"/><line class="cls-2" x1="629.2" y1="257.8" x2="629.2" y2="246.5"/><text class="cls-1" transform="translate(625.06 258.34)">œ</text><text class="cls-1" transform="translate(621.13 258.34)">b</text><text class="cls-3" transform="translate(584.47 276.63)">leuch</text><text class="cls-3" transform="translate(606.26 276.63)">tet</text><text class="cls-3" transform="translate(624.22 276.63)">so</text><path d="M523.7,243.9c6-3.4,24-3.4,30.1,0l-.1.1c-6-2.7-24-2.7-30,0Z"/><line class="cls-2" x1="83.9" y1="288.7" x2="934.4" y2="288.7"/><line class="cls-2" x1="83.9" y1="292.1" x2="934.4" y2="292.1"/><line class="cls-2" x1="83.9" y1="295.5" x2="934.4" y2="295.5"/><line class="cls-2" x1="83.9" y1="298.8" x2="934.4" y2="298.8"/><line class="cls-2" x1="83.9" y1="302.2" x2="934.4" y2="302.2"/><text class="cls-6" transform="translate(51.02 298.8)">5</text><text class="cls-1" transform="translate(354.89 287.03)">j</text><line class="cls-2" x1="355.1" y1="294.9" x2="355.1" y2="283.7"/><text class="cls-1" transform="translate(350.98 295.47)">œ</text><text class="cls-1" transform="translate(347.05 295.47)">b</text><text class="cls-16" transform="translate(319.2 298.84)">&amp;</text><line class="cls-17" x1="416.8" y1="305.6" x2="422.8" y2="305.6"/><text class="cls-1" transform="translate(417.64 307.28)">œ</text><line class="cls-2" x1="421.7" y1="306.7" x2="421.7" y2="284.5"/><text class="cls-1" transform="translate(429.03 293.78)">œ</text><text class="cls-1" transform="translate(425.23 293.78)">n</text><line class="cls-2" x1="433.1" y1="293.2" x2="433.1" y2="282.8"/><path d="M421.5,283.7l11.8-1.7v1.7l-11.8,1.7Z"/><line class="cls-2" x1="449.2" y1="289.3" x2="449.2" y2="300.5"/><text class="cls-1" transform="translate(449 288.72)">œ</text><path class="cls-2" d="M439.6,288.7v13.5"/><path class="cls-19" d="M319.6,287h-1.4v19.1h1.4"/><path class="cls-19" d="M325.7,287h1.4v19.1h-1.4"/><path class="cls-19" d="M319.6,246.5h-1.4v19.1h1.4"/><path class="cls-19" d="M325.7,246.5h1.4v19.1h-1.4"/><path class="cls-20" d="M310.25,230.64a31.84,31.84,0,0,1,17.6,4.33,28.72,28.72,0,0,1,3,2.1"/><path d="M332.55,238.77a13.32,13.32,0,0,0-3.7-1.2l1.9-.8.9-1.8A10.07,10.07,0,0,0,332.55,238.77Z"/><polyline class="cls-20" points="513.7 242.6 509.2 242.7 509.2 264.8 513.7 264.8"/><polyline class="cls-20" points="642 242.1 657 242.1 657 285.3 642 285.3"/><polyline class="cls-12" points="485 327.4 485 280.6 544.4 280.6 544.4 327.4"/><text class="cls-13" transform="translate(493.67 300.03)">Sk3.1.1</text><polyline class="cls-21" points="90.8 327.4 90.8 280.6 298 280.6 298 327.4"/><text class="cls-13" transform="translate(170.67 300.03)">Sk3.1.3</text><text class="cls-6" transform="translate(367.14 80.91)">3</text><text class="cls-6" transform="translate(439.28 80.91)">4</text><text class="cls-6" transform="translate(510.16 80.91)">{5}</text><text class="cls-6" transform="translate(579.91 80.91)">{6}</text><line class="cls-22" x1="478" y1="284.5" x2="493.7" y2="270.1"/><line class="cls-23" x1="478" y1="284.5" x2="491.9" y2="271.7"/><path d="M493.7,270.1a12.34,12.34,0,0,0-1.2,3.7l-.8-1.9-1.8-.9A10.53,10.53,0,0,0,493.7,270.1Z"/><text class="cls-1" transform="matrix(1, 0, 0, -1, 493.53, 264.67)">j</text><line class="cls-23" x1="370.5" y1="238.9" x2="370.5" y2="244"/><line class="cls-23" x1="367.9" y1="241.4" x2="373.1" y2="241.4"/><line class="cls-23" x1="368.7" y1="239.6" x2="372.3" y2="243.3"/><line class="cls-23" x1="372" y1="239.4" x2="369" y2="243.5"/><text class="cls-3" transform="translate(337.75 276.63)">noch</text><text class="cls-3" transform="translate(353.66 276.63)"><tspan xml:space="preserve">ein   -   mal</tspan></text><line class="cls-24" x1="525.25" y1="278.9" x2="515.39" y2="269"/><path d="M513.7,267.3a12.1,12.1,0,0,0,3.74,1.08l-1.82.85-.86,1.82A12.19,12.19,0,0,0,513.7,267.3Z"/></svg>