<svg id="Ebene_1" data-name="Ebene 1" xmlns="http://www.w3.org/2000/svg" viewBox="0 0 1021 595"><defs><style>.cls-1,.cls-10,.cls-13,.cls-16,.cls-19,.cls-3{fill:none;}.cls-1,.cls-10,.cls-13,.cls-16,.cls-18,.cls-19,.cls-3{stroke:#000;}.cls-1,.cls-18,.cls-19{stroke-width:0.4px;}.cls-14,.cls-17,.cls-2,.cls-4,.cls-5,.cls-6,.cls-8{isolation:isolate;}.cls-2{font-size:13.5px;}.cls-2,.cls-5{font-family:Maestro, Maestro;}.cls-3{stroke-width:0.56px;}.cls-17,.cls-4,.cls-8,.cls-9{font-size:6.75px;}.cls-4{font-family:TimesNewRomanPSMT, Times New Roman;}.cls-5{font-size:10.13px;}.cls-6{font-size:5.63px;font-family:TimesNewRomanPS-BoldItalicMT, Times New Roman;}.cls-14,.cls-6{font-weight:700;}.cls-6,.cls-8,.cls-9{font-style:italic;}.cls-18,.cls-7{fill:#fff;}.cls-8,.cls-9{font-family:Arial-ItalicMT, Arial;}.cls-10{stroke-width:0.56px;}.cls-11{letter-spacing:-0.02em;}.cls-12{letter-spacing:0em;}.cls-13{stroke-width:0.49px;}.cls-14{font-size:12px;font-family:Arial-BoldMT, Arial;}.cls-15{letter-spacing:-0.11em;}.cls-16{stroke-width:0.4px;}.cls-17{font-family:Times-Roman, Times;}.cls-18,.cls-19{stroke-miterlimit:10;}</style></defs><title>Zeichenfläche 1</title><line class="cls-1" x1="85.1" y1="167.2" x2="85.1" y2="261.7"/><text class="cls-2" transform="translate(88.73 136.84)">&amp;</text><text class="cls-2" transform="translate(88.73 177.34)">&amp;</text><text class="cls-2" transform="translate(88.73 217.84)">&amp;</text><text class="cls-2" transform="translate(101.67 177.34)">4</text><text class="cls-2" transform="translate(101.95 170.59)">3</text><text class="cls-2" transform="translate(101.67 217.84)">4</text><text class="cls-2" transform="translate(101.95 211.09)">3</text><text class="cls-2" transform="translate(101.67 258.34)">4</text><text class="cls-2" transform="translate(101.95 251.59)">3</text><line class="cls-1" x1="252.2" y1="207.7" x2="252.2" y2="261.7"/><line class="cls-1" x1="252.2" y1="167.2" x2="252.2" y2="180.7"/><line class="cls-1" x1="395.6" y1="207.7" x2="395.6" y2="261.7"/><line class="cls-1" x1="395.6" y1="167.2" x2="395.6" y2="180.7"/><line class="cls-1" x1="84.9" y1="126.7" x2="935.4" y2="126.7"/><line class="cls-1" x1="84.9" y1="130.1" x2="935.4" y2="130.1"/><line class="cls-1" x1="84.9" y1="133.5" x2="935.4" y2="133.5"/><line class="cls-1" x1="84.9" y1="136.8" x2="935.4" y2="136.8"/><line class="cls-1" x1="84.9" y1="140.2" x2="935.4" y2="140.2"/><line class="cls-1" x1="84.9" y1="167.2" x2="935.4" y2="167.2"/><line class="cls-1" x1="84.9" y1="170.6" x2="935.4" y2="170.6"/><line class="cls-1" x1="84.9" y1="174" x2="935.4" y2="174"/><line class="cls-1" x1="84.9" y1="177.3" x2="935.4" y2="177.3"/><line class="cls-1" x1="84.9" y1="180.7" x2="935.4" y2="180.7"/><line class="cls-1" x1="84.9" y1="207.7" x2="935.4" y2="207.7"/><line class="cls-1" x1="84.9" y1="211.1" x2="935.4" y2="211.1"/><line class="cls-1" x1="84.9" y1="214.5" x2="935.4" y2="214.5"/><line class="cls-1" x1="84.9" y1="217.8" x2="935.4" y2="217.8"/><line class="cls-1" x1="84.9" y1="221.2" x2="935.4" y2="221.2"/><line class="cls-1" x1="84.9" y1="248.2" x2="935.4" y2="248.2"/><line class="cls-1" x1="84.9" y1="251.6" x2="935.4" y2="251.6"/><line class="cls-1" x1="84.9" y1="255" x2="935.4" y2="255"/><line class="cls-1" x1="84.9" y1="258.3" x2="935.4" y2="258.3"/><line class="cls-1" x1="84.9" y1="261.7" x2="935.4" y2="261.7"/><path d="M83.2,207.7c-7.2,11.5,3.1,21.9-3.7,27h.3c8.2-6.8-1.9-15.5,3.4-26.7Z"/><path d="M83.2,261.7c-7.2-11.5,3.1-21.9-3.7-27h.3c8.2,6.8-1.9,15.5,3.4,26.7Z"/><line class="cls-1" x1="195.4" y1="219" x2="207.9" y2="212.5"/><polyline class="cls-1" points="309.1 111.8 273 118.6 309.1 115.8"/><text class="cls-2" transform="translate(138.58 133.47)">‰</text><line class="cls-1" x1="158.3" y1="135.7" x2="158.3" y2="144.7"/><text class="cls-2" transform="translate(158.14 135.16)">œ</text><line class="cls-1" x1="187.7" y1="125.6" x2="187.7" y2="136.8"/><text class="cls-2" transform="translate(187.45 125.03)">œ</text><text class="cls-2" transform="translate(183.09 125.03)">#</text><text class="cls-2" transform="translate(234.96 128.41)">j</text><line class="cls-1" x1="235.2" y1="136.3" x2="235.2" y2="125"/><text class="cls-2" transform="translate(231.05 136.84)">œ</text><text class="cls-2" transform="translate(138.86 173.97)">‰</text><line class="cls-1" x1="158.8" y1="164.4" x2="158.8" y2="175.7"/><line class="cls-3" x1="157.7" y1="163.8" x2="163.8" y2="163.8"/><text class="cls-2" transform="translate(158.56 163.84)">œ</text><text class="cls-2" transform="translate(154.77 163.84)">n</text><line class="cls-1" x1="191.6" y1="176.8" x2="191.6" y2="165.5"/><text class="cls-2" transform="translate(187.45 177.34)">œ</text><text class="cls-2" transform="translate(183.09 177.34)">#</text><text class="cls-2" transform="translate(231.05 173.97)">J</text><line class="cls-1" x1="231.2" y1="166.1" x2="231.2" y2="177.3"/><text class="cls-2" transform="translate(231.05 165.53)">œ</text><text class="cls-2" transform="translate(227.25 165.53)">n</text><text class="cls-4" transform="translate(155.65 155.41)">und</text><text class="cls-4" transform="translate(185.29 155.41)">bin</text><text class="cls-4" transform="translate(228.89 155.41)">auf</text><text class="cls-2" transform="translate(127.83 206.03)">œ</text><text class="cls-2" transform="translate(127.83 212.78)">œ</text><text class="cls-2" transform="translate(123.47 206.03)">#</text><text class="cls-2" transform="translate(119.67 212.78)">n</text><text class="cls-5" transform="translate(135.34 214.47)">‰</text><text class="cls-2" transform="translate(156.81 214.47)">‰</text><line class="cls-1" x1="180" y1="212.2" x2="180" y2="194.8"/><line class="cls-3" x1="175" y1="204.3" x2="181" y2="204.3"/><text class="cls-2" transform="translate(175.84 204.34)">œ</text><text class="cls-2" transform="translate(175.84 212.78)">œ</text><text class="cls-2" transform="translate(172.05 204.34)">n</text><text class="cls-2" transform="translate(167.69 212.78)">#</text><line class="cls-3" x1="206" y1="244.8" x2="212.1" y2="244.8"/><text class="cls-2" transform="translate(206.86 243.16)">œ</text><text class="cls-2" transform="translate(203.06 243.16)">n</text><line class="cls-1" x1="211" y1="242.6" x2="211" y2="233.7"/><text class="cls-2" transform="translate(222.89 214.47)">œ</text><text class="cls-2" transform="translate(218.95 214.47)">b</text><line class="cls-1" x1="223.1" y1="215" x2="223.1" y2="227.8"/><path d="M210.8,232.9l12.1-5.9v1.7l-12.1,5.9Z"/><text class="cls-2" transform="translate(238.92 214.47)">‰</text><text class="cls-6" transform="translate(173.53 234.16)">3</text><text class="cls-6" transform="translate(223.59 239.48)">3</text><text class="cls-2" transform="translate(139.14 214.47)">Œ</text><text class="cls-2" transform="translate(199.86 214.47)">‰</text><line class="cls-1" x1="129.8" y1="264.5" x2="129.8" y2="244.8"/><text class="cls-2" transform="translate(125.72 256.66)">œ</text><line class="cls-3" x1="124.9" y1="265.1" x2="130.9" y2="265.1"/><text class="cls-2" transform="translate(125.72 265.09)">œ</text><text class="cls-2" transform="translate(121.36 265.09)">#</text><text class="cls-5" transform="translate(134.08 254.97)">‰</text><text class="cls-2" transform="translate(156.81 254.97)">‰</text><line class="cls-1" x1="180" y1="264.5" x2="180" y2="246.5"/><text class="cls-2" transform="translate(175.84 258.34)">œ</text><line class="cls-3" x1="175" y1="265.1" x2="181" y2="265.1"/><text class="cls-2" transform="translate(175.84 265.09)">œ</text><text class="cls-2" transform="translate(171.48 258.34)">#</text><text class="cls-2" transform="translate(167.69 265.09)">n</text><text class="cls-2" transform="translate(137.88 254.97)">Œ</text><text class="cls-5" transform="translate(145.95 258.34)">&amp;</text><text class="cls-2" transform="translate(89.02 251.45)">?</text><text class="cls-5" transform="translate(110.39 258.34)">&amp;</text><rect class="cls-7" x="112.4" y="243.7" width="3.9" height="2.8"/><rect class="cls-7" x="112.4" y="266.2" width="3.9" height="2.8"/><text class="cls-8" transform="translate(84.94 78.91)">13</text><text class="cls-4" transform="translate(84.94 166.23)">13</text><text class="cls-4" transform="translate(103.64 125.45)">viel langsamer</text><text class="cls-8" transform="translate(51.02 78.91)">Bl. 39</text><text class="cls-9" transform="translate(68.29 76.66) scale(0.58)">r</text><text class="cls-8" transform="translate(51.02 136.84)">13</text><text class="cls-8" transform="translate(51.02 177.34)">14</text><text class="cls-8" transform="translate(51.02 217.84)">15</text><text class="cls-8" transform="translate(51.02 258.34)">16</text><path class="cls-10" d="M192.4,160h4.1"/><path class="cls-10" d="M196.3,159.8V164"/><text class="cls-2" transform="translate(128.53 161.03)">π</text><text class="cls-2" transform="translate(269.3 132.06)">.</text><line class="cls-1" x1="267.9" y1="132.9" x2="267.9" y2="121.7"/><text class="cls-2" transform="translate(263.81 133.47)">œ</text><text class="cls-2" transform="translate(259.88 133.47)">b</text><line class="cls-1" x1="317.9" y1="122.2" x2="317.9" y2="133.5"/><line class="cls-3" x1="316.8" y1="123.3" x2="322.9" y2="123.3"/><text class="cls-2" transform="translate(317.67 121.66)">œ</text><text class="cls-2" transform="translate(313.88 121.66)">n</text><text class="cls-2" transform="translate(369.14 133.47)">‰</text><line class="cls-1" x1="321.8" y1="144.7" x2="321.8" y2="136.8"/><line class="cls-3" x1="316.8" y1="143.6" x2="322.9" y2="143.6"/><text class="cls-2" transform="translate(317.67 145.28)">œ</text><text class="cls-2" transform="translate(313.88 145.28)">n</text><text class="cls-2" transform="translate(269.3 172.56)">.</text><line class="cls-1" x1="267.9" y1="173.4" x2="267.9" y2="162.2"/><text class="cls-2" transform="translate(263.81 173.97)">œ</text><text class="cls-2" transform="translate(259.88 173.97)">b</text><text class="cls-2" transform="translate(321.58 177.34)">j</text><line class="cls-1" x1="321.8" y1="185.2" x2="321.8" y2="174"/><line class="cls-3" x1="316.8" y1="184.1" x2="322.9" y2="184.1"/><text class="cls-2" transform="translate(317.67 185.78)">œ</text><text class="cls-2" transform="translate(313.88 185.78)">n</text><text class="cls-4" transform="translate(262.78 155.41)">Er</text><text class="cls-4" transform="translate(314.11 155.41)">den.</text><text class="cls-2" transform="translate(263.81 214.47)">‰</text><text class="cls-2" transform="translate(284.63 222.91)">J</text><line class="cls-1" x1="284.8" y1="203.2" x2="284.8" y2="226.3"/><line class="cls-3" x1="283.8" y1="204.3" x2="289.8" y2="204.3"/><text class="cls-2" transform="translate(284.63 202.66)">œ</text><text class="cls-2" transform="translate(284.63 214.47)">œ</text><text class="cls-2" transform="translate(275.77 202.66)">n</text><text class="cls-2" transform="translate(317.67 214.47)">‰</text><text class="cls-2" transform="translate(369.14 209.41)">œ</text><text class="cls-2" transform="translate(365.2 209.41)">b</text><line class="cls-1" x1="369.3" y1="210" x2="369.3" y2="229"/><text class="cls-2" transform="translate(382.64 261.72)">œ</text><text class="cls-2" transform="translate(378.84 261.72)">n</text><line class="cls-1" x1="386.7" y1="261.2" x2="386.7" y2="242"/><path d="M369.1,228.1l17.8,13v1.7l-17.8-13Z"/><line class="cls-1" x1="279.8" y1="203.1" x2="279.8" y2="223.3"/><line class="cls-3" x1="278.7" y1="204.3" x2="283.6" y2="204.3"/><text class="cls-5" transform="translate(279.56 202.66)">œ</text><text class="cls-5" transform="translate(279.56 214.47)">œ</text><text class="cls-2" transform="translate(263.81 254.97)">‰</text><text class="cls-2" transform="translate(284.63 278.59)">J</text><line class="cls-1" x1="284.8" y1="258.9" x2="284.8" y2="282"/><text class="cls-2" transform="translate(284.63 258.34)">œ</text><line class="cls-3" x1="283.8" y1="268.5" x2="289.8" y2="268.5"/><line class="cls-3" x1="283.8" y1="265.1" x2="289.8" y2="265.1"/><text class="cls-2" transform="translate(284.63 270.16)">œ</text><text class="cls-2" transform="translate(275.2 270.16)">#</text><text class="cls-2" transform="translate(275.77 258.34)">n</text><text class="cls-2" transform="translate(317.67 254.97)">‰</text><line class="cls-3" x1="337.8" y1="265.1" x2="343.8" y2="265.1"/><text class="cls-2" transform="translate(338.63 265.09)">œ</text><text class="cls-2" transform="translate(334.27 265.09)">#</text><line class="cls-1" x1="342.7" y1="264.5" x2="342.7" y2="244"/><text class="cls-2" transform="translate(349.31 256.66)">œ</text><text class="cls-2" transform="translate(345.52 256.66)">n</text><line class="cls-1" x1="353.4" y1="256.1" x2="353.4" y2="243.1"/><text class="cls-2" transform="translate(359.16 253.28)">œ</text><line class="cls-1" x1="363.3" y1="252.7" x2="363.3" y2="242.3"/><path d="M342.5,243.2l20.9-1.7v1.7l-20.9,1.7Z"/><path d="M342.5,245.7l20.9-1.7v1.7l-20.9,1.7Z"/><line class="cls-1" x1="279.8" y1="258.8" x2="279.8" y2="277.3"/><text class="cls-5" transform="translate(279.56 258.34)">œ</text><line class="cls-3" x1="278.7" y1="268.5" x2="283.6" y2="268.5"/><line class="cls-3" x1="278.7" y1="265.1" x2="283.6" y2="265.1"/><text class="cls-5" transform="translate(279.56 270.16)">œ</text><text class="cls-8" transform="translate(254.95 78.91)">14</text><text class="cls-4" transform="translate(251.95 166.23)">14</text><text class="cls-2" transform="translate(338.2 235.7)">f</text><text class="cls-2" transform="translate(404.16 214.47)">‰</text><text class="cls-2" transform="translate(436.78 222.91)">œ</text><text class="cls-2" transform="translate(432.98 222.91)">n</text><line class="cls-1" x1="440.9" y1="222.3" x2="440.9" y2="208.6"/><text class="cls-2" transform="translate(451.97 219.53)">œ</text><text class="cls-2" transform="translate(448.17 219.53)">n</text><line class="cls-1" x1="456.1" y1="219" x2="456.1" y2="208.6"/><line class="cls-3" x1="466.2" y1="231.3" x2="472.2" y2="231.3"/><line class="cls-3" x1="466.2" y1="228" x2="472.2" y2="228"/><line class="cls-3" x1="466.2" y1="224.6" x2="472.2" y2="224.6"/><text class="cls-2" transform="translate(467.02 231.34)">œ</text><text class="cls-2" transform="translate(462.66 231.34)">#</text><line class="cls-1" x1="471.1" y1="230.8" x2="471.1" y2="208.6"/><path d="M440.7,207.7h30.6v1.7H440.7Z"/><path d="M440.7,210.3h30.6V212H440.7Z"/><text class="cls-2" transform="translate(408.07 253.28)">j</text><line class="cls-1" x1="408.3" y1="261.2" x2="408.3" y2="249.9"/><text class="cls-2" transform="translate(404.16 261.72)">œ</text><text class="cls-2" transform="translate(400.36 261.72)">n</text><text class="cls-2" transform="translate(431.72 254.97)">‰</text><text class="cls-8" transform="translate(395.44 78.91)">15</text><text class="cls-4" transform="translate(395.44 166.23)">15</text><text class="cls-2" transform="translate(400.92 202.09)">Œ</text><text class="cls-2" transform="translate(417.23 202.66)">‰</text><text class="cls-2" transform="translate(434.25 234.58)">p</text><text class="cls-4" transform="translate(488.95 205.47)">Maria Enzersdorf</text><text class="cls-4" transform="translate(496.66 232.05) rotate(-15)">16.<tspan class="cls-11" x="8.44" y="0"> </tspan><tspan class="cls-12" x="10" y="0">VII. 34</tspan></text><path class="cls-13" d="M481.8,167.2l.7,94.5"/><path class="cls-13" d="M483.9,167.2l.7,94.5"/><text class="cls-4" transform="translate(290.67 155.41)">-</text><text class="cls-14" transform="translate(51.02 46.5)">M 317 Sk4 <tspan class="cls-15" x="61.37" y="0">T</tspan><tspan x="67.37" y="0">. 13–15</tspan></text><text class="cls-2" transform="translate(275.77 214.47)">b</text><path class="cls-16" d="M110.9,246.5h-1.4v19.1h1.4"/><path class="cls-16" d="M117,246.5h1.4v19.1H117"/><path class="cls-16" d="M89.6,121H87.9v25.3h1.7"/><path class="cls-16" d="M97.1,121h1.7v25.3H97.1"/><text class="cls-4" transform="translate(228.21 118.56)">u. 4</text><path class="cls-1" d="M314.5,135.2c-4.3,1.8-7.1,5.4-6.7,8.2.5,3.5,6.2,7.1,13.3,5.2"/><path class="cls-1" d="M323.8,135.1a7.26,7.26,0,0,1,2.5,3.2c1.1,2.8.3,6.1-2,8.7"/><text class="cls-4" transform="translate(259.05 239.48)">3</text><text class="cls-17" transform="translate(110.39 274.08)">gilt</text><text class="cls-4" transform="translate(204.21 274.08)">u 4</text><path class="cls-10" d="M236.4,198h4.1"/><path class="cls-10" d="M240.3,197.8V202"/><line class="cls-1" x1="234.6" y1="202" x2="242.7" y2="197.8"/><text class="cls-4" transform="translate(213.21 197.08)">u 4</text><text class="cls-4" transform="translate(216.21 179.59)">3</text><line class="cls-1" x1="212.7" y1="197.8" x2="222.9" y2="192.1"/><path class="cls-1" d="M210,198.2c-2.9-.1-12.2,0-18,6.5-3.5,4-5,9.4-4.2,20.3.7,9.7,3.5,26.3,14.5,46.3"/><line class="cls-1" x1="232.2" y1="183.1" x2="237.2" y2="191.8"/><path d="M238.4,193.9a11.22,11.22,0,0,0-3.3-2l2-.4,1.3-1.5A10.23,10.23,0,0,0,238.4,193.9Z"/><text class="cls-2" transform="translate(275.77 226.95)">b</text><text class="cls-4" transform="translate(283.78 239.48)">u. 3</text><path class="cls-10" d="M288.4,253h4.1"/><path class="cls-10" d="M292.3,252.8V257"/><path class="cls-1" d="M383.7,232.4a19.34,19.34,0,0,0-7.3,5.5c-7,8.4-7,23,0,29,.6.5,3.9,3.3,7.8,2.7,4.7-.7,8.8-6,9.7-13.3"/><polyline class="cls-1" points="377.2 272.1 400.4 274.1 377.2 276.1"/><path class="cls-1" d="M396.6,209.4c.1,1.7,1.5,1.8,1.9,6.3.3,3.3.8,7.5.8,7.5,1.1.1.5-3.7,1.6-7.5,1.2-4.1,4.1-8.2,4.4-9.8"/><rect class="cls-18" x="396.6" y="116.6" width="80.3" height="32.5"/><text class="cls-14" transform="translate(419.67 136.84)">Sk4.2</text><polyline class="cls-18" points="510.5 102.4 510.5 149.1 581.2 149.1 581.2 116.6 751.2 116.6 751.2 188.9 931.2 188.9 931.2 102.4"/><text class="cls-14" transform="translate(649.73 109.84)">Sk4 <tspan class="cls-15" x="24.69" y="0">T</tspan><tspan x="30.69" y="0">. 7–12</tspan></text><rect class="cls-18" x="567" y="158.1" width="113.7" height="118"/><text class="cls-14" transform="translate(606.67 218.48)">Sk4.3</text><path class="cls-19" d="M291.5,285.4q32.25,3.45,59,5.5c106.8,8.5,143.4,3.2,157,1a377.51,377.51,0,0,0,54-13"/></svg>