<svg id="Ebene_1" data-name="Ebene 1" xmlns="http://www.w3.org/2000/svg" viewBox="0 0 1021 595"><defs><style>.cls-1,.cls-10,.cls-13,.cls-3,.cls-8{fill:none;}.cls-1,.cls-10,.cls-12,.cls-13,.cls-3,.cls-8{stroke:#000;}.cls-1,.cls-12,.cls-13{stroke-width:0.4px;}.cls-11,.cls-2,.cls-4,.cls-6,.cls-9{isolation:isolate;}.cls-2{font-size:13.5px;font-family:Maestro, Maestro;}.cls-3{stroke-width:0.56px;}.cls-4,.cls-5,.cls-6,.cls-9{font-size:6.75px;}.cls-4,.cls-5,.cls-9{font-family:Arial-ItalicMT, Arial;font-style:italic;}.cls-5{letter-spacing:0em;}.cls-6,.cls-7{font-family:TimesNewRomanPSMT, Times New Roman;}.cls-7{font-size:9px;text-decoration:underline;}.cls-8{stroke-width:0.49px;}.cls-9{letter-spacing:-0.04em;}.cls-10{stroke-width:0.39px;}.cls-11{font-size:12px;font-family:Arial-BoldMT, Arial;font-weight:700;}.cls-12{fill:#fff;}.cls-12,.cls-13{stroke-miterlimit:10;}</style></defs><title>Zeichenfläche 1</title><line class="cls-1" x1="85.1" y1="167.2" x2="85.1" y2="221.2"/><text class="cls-2" transform="translate(88.73 177.34)">&amp;</text><text class="cls-2" transform="translate(88.73 217.84)">&amp;</text><line class="cls-1" x1="297.9" y1="167.2" x2="297.9" y2="180.7"/><line class="cls-1" x1="297.9" y1="207.7" x2="297.9" y2="221.2"/><line class="cls-1" x1="455" y1="167.2" x2="455" y2="180.7"/><line class="cls-1" x1="455" y1="207.7" x2="455" y2="221.2"/><line class="cls-1" x1="84.9" y1="126.7" x2="935.4" y2="126.7"/><line class="cls-1" x1="84.9" y1="130.1" x2="935.4" y2="130.1"/><line class="cls-1" x1="84.9" y1="133.5" x2="935.4" y2="133.5"/><line class="cls-1" x1="84.9" y1="136.8" x2="935.4" y2="136.8"/><line class="cls-1" x1="84.9" y1="140.2" x2="935.4" y2="140.2"/><line class="cls-1" x1="84.9" y1="167.2" x2="935.4" y2="167.2"/><line class="cls-1" x1="84.9" y1="170.6" x2="935.4" y2="170.6"/><line class="cls-1" x1="84.9" y1="174" x2="935.4" y2="174"/><line class="cls-1" x1="84.9" y1="177.3" x2="935.4" y2="177.3"/><line class="cls-1" x1="84.9" y1="180.7" x2="935.4" y2="180.7"/><line class="cls-1" x1="84.9" y1="207.7" x2="935.4" y2="207.7"/><line class="cls-1" x1="84.9" y1="211.1" x2="935.4" y2="211.1"/><line class="cls-1" x1="84.9" y1="214.5" x2="935.4" y2="214.5"/><line class="cls-1" x1="84.9" y1="217.8" x2="935.4" y2="217.8"/><line class="cls-1" x1="84.9" y1="221.2" x2="935.4" y2="221.2"/><text class="cls-2" transform="translate(110.53 177.34)">œ</text><text class="cls-2" transform="translate(106.73 177.34)">n</text><text class="cls-2" transform="translate(122.48 180.72)">œ</text><text class="cls-2" transform="translate(118.69 180.72)">n</text><text class="cls-2" transform="translate(138.52 180.72)">œ</text><text class="cls-2" transform="translate(134.58 180.72)">b</text><text class="cls-2" transform="translate(154.41 179.03)">œ</text><text class="cls-2" transform="translate(150.05 179.03)">#</text><line class="cls-3" x1="169.5" y1="184.1" x2="175.5" y2="184.1"/><text class="cls-2" transform="translate(170.3 184.09)">œ</text><text class="cls-2" transform="translate(165.94 184.09)">#</text><text class="cls-2" transform="translate(186.19 179.03)">œ</text><text class="cls-2" transform="translate(182.39 179.03)">n</text><text class="cls-2" transform="translate(202.22 182.41)">œ</text><line class="cls-3" x1="217.3" y1="184.1" x2="223.3" y2="184.1"/><text class="cls-2" transform="translate(218.11 185.78)">œ</text><text class="cls-2" transform="translate(214.31 185.78)">n</text><line class="cls-3" x1="233.2" y1="184.1" x2="239.2" y2="184.1"/><text class="cls-2" transform="translate(234 185.78)">œ</text><text class="cls-2" transform="translate(230.06 185.78)">b</text><text class="cls-2" transform="translate(249.89 172.28)">œ</text><line class="cls-3" x1="249" y1="187.5" x2="255.1" y2="187.5"/><line class="cls-3" x1="249" y1="184.1" x2="255.1" y2="184.1"/><text class="cls-2" transform="translate(249.89 187.47)">œ</text><text class="cls-2" transform="translate(246.09 187.47)">n</text><text class="cls-2" transform="translate(265.92 175.66)">œ</text><line class="cls-3" x1="265.1" y1="184.1" x2="271.1" y2="184.1"/><text class="cls-2" transform="translate(265.92 184.09)">œ</text><text class="cls-2" transform="translate(262.13 175.66)">n</text><text class="cls-2" transform="translate(258.33 184.09)">n</text><line class="cls-3" x1="281" y1="187.5" x2="287" y2="187.5"/><line class="cls-3" x1="281" y1="184.1" x2="287" y2="184.1"/><text class="cls-2" transform="translate(281.81 189.16)">œ</text><text class="cls-2" transform="translate(277.45 189.16)">#</text><text class="cls-2" transform="translate(111.09 217.84)">œ</text><text class="cls-2" transform="translate(107.3 217.84)">n</text><text class="cls-2" transform="translate(122.48 214.47)">œ</text><text class="cls-2" transform="translate(118.55 214.47)">b</text><text class="cls-2" transform="translate(138.52 214.47)">œ</text><text class="cls-2" transform="translate(134.72 214.47)">n</text><text class="cls-2" transform="translate(154.41 217.84)">œ</text><text class="cls-2" transform="translate(150.05 217.84)">#</text><text class="cls-2" transform="translate(170.3 212.78)">œ</text><text class="cls-2" transform="translate(165.94 212.78)">#</text><text class="cls-2" transform="translate(186.19 216.16)">œ</text><text class="cls-2" transform="translate(182.39 216.16)">n</text><text class="cls-2" transform="translate(202.22 212.78)">œ</text><text class="cls-2" transform="translate(198.42 212.78)">n</text><text class="cls-2" transform="translate(218.11 209.41)">œ</text><text class="cls-2" transform="translate(214.17 209.41)">b</text><text class="cls-2" transform="translate(234 209.41)">œ</text><text class="cls-2" transform="translate(230.2 209.41)">n</text><text class="cls-2" transform="translate(249.89 207.72)">œ</text><text class="cls-2" transform="translate(249.89 222.91)">œ</text><text class="cls-2" transform="translate(246.09 222.91)">n</text><text class="cls-2" transform="translate(246.09 207.72)">n</text><text class="cls-2" transform="translate(265.92 211.09)">œ</text><text class="cls-2" transform="translate(265.92 219.53)">œ</text><text class="cls-2" transform="translate(262.13 211.09)">n</text><text class="cls-2" transform="translate(258.33 219.53)">n</text><text class="cls-2" transform="translate(281.81 207.72)">œ</text><text class="cls-2" transform="translate(277.45 207.72)">#</text><text class="cls-4" transform="translate(51.02 78.91)">Bl. 38</text><text class="cls-5" transform="translate(68.28 76.66) scale(0.58)">v</text><text class="cls-4" transform="translate(51.02 136.84)">5</text><text class="cls-4" transform="translate(51.02 177.34)">6</text><text class="cls-6" transform="translate(97.59 166.38)">1</text><text class="cls-4" transform="translate(51.02 217.84)">7</text><text class="cls-6" transform="translate(93.38 200.55)">3</text><text class="cls-7" transform="translate(71.8 144.59)">Reihe</text><path class="cls-8" d="M244.4,138.3v8.8"/><text class="cls-9" transform="translate(84.94 78.91)">A</text><line class="cls-3" x1="306.1" y1="187.5" x2="312.2" y2="187.5"/><line class="cls-3" x1="306.1" y1="184.1" x2="312.2" y2="184.1"/><text class="cls-2" transform="translate(306.98 189.16)">œ</text><text class="cls-2" transform="translate(302.63 189.16)">#</text><text class="cls-2" transform="translate(322.45 175.66)">œ</text><line class="cls-3" x1="321.6" y1="184.1" x2="327.7" y2="184.1"/><text class="cls-2" transform="translate(322.45 184.09)">œ</text><text class="cls-2" transform="translate(318.66 184.09)">n</text><text class="cls-2" transform="translate(334.55 172.28)">œ</text><line class="cls-3" x1="333.7" y1="187.5" x2="339.8" y2="187.5"/><line class="cls-3" x1="333.7" y1="184.1" x2="339.8" y2="184.1"/><text class="cls-2" transform="translate(334.55 187.47)">œ</text><text class="cls-2" transform="translate(330.75 187.47)">n</text><line class="cls-3" x1="345.7" y1="184.1" x2="351.7" y2="184.1"/><text class="cls-2" transform="translate(346.5 185.78)">œ</text><text class="cls-2" transform="translate(342.56 185.78)">b</text><line class="cls-3" x1="357.8" y1="184.1" x2="363.8" y2="184.1"/><text class="cls-2" transform="translate(358.59 185.78)">œ</text><text class="cls-2" transform="translate(354.8 185.78)">n</text><text class="cls-2" transform="translate(370.55 182.41)">œ</text><text class="cls-2" transform="translate(366.75 182.41)">n</text><text class="cls-2" transform="translate(382.64 179.03)">œ</text><text class="cls-2" transform="translate(378.84 179.03)">n</text><line class="cls-3" x1="393.8" y1="184.1" x2="399.8" y2="184.1"/><text class="cls-2" transform="translate(394.59 184.09)">œ</text><text class="cls-2" transform="translate(390.23 184.09)">#</text><text class="cls-2" transform="translate(406.69 179.03)">œ</text><text class="cls-2" transform="translate(402.33 179.03)">#</text><text class="cls-2" transform="translate(418.64 180.72)">œ</text><text class="cls-2" transform="translate(414.7 180.72)">b</text><text class="cls-2" transform="translate(430.73 180.72)">œ</text><text class="cls-2" transform="translate(426.94 180.72)">n</text><text class="cls-2" transform="translate(442.69 177.34)">œ</text><text class="cls-2" transform="translate(438.89 177.34)">n</text><text class="cls-2" transform="translate(306.98 207.72)">œ</text><text class="cls-2" transform="translate(302.63 207.72)">#</text><text class="cls-2" transform="translate(322.45 211.09)">œ</text><text class="cls-2" transform="translate(322.45 219.53)">œ</text><text class="cls-2" transform="translate(318.66 211.09)">n</text><text class="cls-2" transform="translate(314.86 219.53)">n</text><text class="cls-2" transform="translate(334.55 207.72)">œ</text><text class="cls-2" transform="translate(334.55 222.91)">œ</text><text class="cls-2" transform="translate(330.75 207.72)">n</text><text class="cls-2" transform="translate(346.5 209.41)">œ</text><text class="cls-2" transform="translate(342.7 209.41)">n</text><text class="cls-2" transform="translate(358.59 209.41)">œ</text><text class="cls-2" transform="translate(354.66 209.41)">b</text><text class="cls-2" transform="translate(370.55 212.78)">œ</text><text class="cls-2" transform="translate(366.75 212.78)">n</text><text class="cls-2" transform="translate(382.64 216.16)">œ</text><text class="cls-2" transform="translate(378.84 216.16)">n</text><text class="cls-2" transform="translate(394.59 212.78)">œ</text><text class="cls-2" transform="translate(390.23 212.78)">#</text><text class="cls-2" transform="translate(406.69 217.84)">œ</text><text class="cls-2" transform="translate(402.33 217.84)">#</text><text class="cls-2" transform="translate(418.64 214.47)">œ</text><text class="cls-2" transform="translate(414.84 214.47)">n</text><text class="cls-2" transform="translate(430.73 214.47)">œ</text><text class="cls-2" transform="translate(426.8 214.47)">b</text><text class="cls-2" transform="translate(442.69 217.84)">œ</text><text class="cls-2" transform="translate(438.89 217.84)">n</text><text class="cls-6" transform="translate(295.31 206.59)">4</text><text class="cls-6" transform="translate(300.23 165.53)">2</text><text class="cls-4" transform="translate(297.7 78.91)">B</text><path class="cls-10" d="M455.8,159.3h2.8"/><path class="cls-10" d="M458.6,159.3v73.1"/><path class="cls-10" d="M458.6,232.5h-2.8"/><text class="cls-11" transform="translate(51.02 46.5)">M 317 Sk3.1.3</text><rect class="cls-12" x="482.7" y="116.6" width="113.7" height="74.1"/><rect class="cls-12" x="651.5" y="157.7" width="184.2" height="33"/><polyline class="cls-12" points="339.8 107.4 339.8 153.7 469 153.7 469 107.4"/><text class="cls-11" transform="translate(387 128.39)">Sk3.1</text><text class="cls-11" transform="translate(517 157.73)">Sk3.1.1</text><text class="cls-11" transform="translate(717 177.34)">Sk3.1.3.1</text><path class="cls-13" d="M256.2,178.3c-5.6,0-10.2.8-13.5,3.8-1.9,1.7-.8,5.5.8,7.6.3.4,1.5,1.8,6,3,8,2.1,13.9.5,18.4-.8a6.17,6.17,0,0,0,3.1-1.6,7.37,7.37,0,0,0,1.8-7.1C270.9,178.3,261,178.3,256.2,178.3Z"/><path class="cls-13" d="M251.2,199.3c-3.1-.6-6.2.1-7.9,2.2-2.5,3.3-.4,8.3,2,10.8a12.21,12.21,0,0,0,4.9,2.8c7.4,2.3,20.1,2.6,22.2-3,1-2.7-.8-5.7-1.5-6.8-2.9-4.7-9-7-15.8-6.1"/><path class="cls-13" d="M318.8,203c-.5.4-3.6,2.4-4,6.1a4.94,4.94,0,0,0,.5,3.2c.3.5,1.7,2.7,9,2.8,5.1,0,14.5.1,16.6-5.2a6.92,6.92,0,0,0-.5-5.8c-2.3-4-9.4-5.5-17.1-2.2"/><path class="cls-13" d="M316.8,181.8c-.3.7-1.5,3.6-.1,6,.4.8,1.3,1.7,4.8,2.8,3.2,1,8.1,2.4,13.9.8,2.5-.7,4.8-1.4,5.7-3.4,1.2-2.7-1-5.9-1.1-6.1-2.8-3.9-9.9-4.7-17.9-2.2"/></svg>