<svg id="Ebene_1" data-name="Ebene 1" xmlns="http://www.w3.org/2000/svg" viewBox="0 0 1021 595"><defs><style>.cls-1,.cls-13,.cls-15,.cls-3,.cls-6,.cls-9{isolation:isolate;}.cls-1{font-size:13.5px;font-family:Maestro, Maestro;}.cls-16,.cls-17,.cls-2,.cls-8{fill:none;}.cls-12,.cls-16,.cls-17,.cls-2,.cls-8{stroke:#000;}.cls-12,.cls-2{stroke-width:0.4px;}.cls-3,.cls-6,.cls-7{font-size:6.75px;}.cls-3,.cls-9{font-family:TimesNewRomanPSMT, Times New Roman;}.cls-4{letter-spacing:-0.02em;}.cls-5{letter-spacing:0em;}.cls-6,.cls-7{font-family:Arial-ItalicMT, Arial;}.cls-15,.cls-6,.cls-7{font-style:italic;}.cls-7{letter-spacing:0em;}.cls-8{stroke-width:0.49px;}.cls-9{font-size:14px;}.cls-10{letter-spacing:-0.04em;}.cls-11,.cls-12{fill:#fff;}.cls-12,.cls-17{stroke-miterlimit:10;}.cls-13{font-size:12px;font-family:Arial-BoldMT, Arial;}.cls-13,.cls-15{font-weight:700;}.cls-14{letter-spacing:-0.04em;}.cls-15{font-size:5.63px;font-family:TimesNewRomanPS-BoldItalicMT, Times New Roman;}.cls-16{stroke-width:0.56px;}.cls-17{stroke-width:0.4px;}</style></defs><title>Zeichenfläche 1</title><text class="cls-1" transform="translate(88.31 177.34)">&amp;</text><text class="cls-1" transform="translate(88.31 217.84)">&amp;</text><text class="cls-1" transform="translate(88.31 251.59)">?</text><line class="cls-2" x1="84.9" y1="126.7" x2="935.4" y2="126.7"/><line class="cls-2" x1="84.9" y1="130.1" x2="935.4" y2="130.1"/><line class="cls-2" x1="84.9" y1="133.5" x2="935.4" y2="133.5"/><line class="cls-2" x1="84.9" y1="136.8" x2="935.4" y2="136.8"/><line class="cls-2" x1="84.9" y1="140.2" x2="935.4" y2="140.2"/><line class="cls-2" x1="84.9" y1="167.2" x2="935.4" y2="167.2"/><line class="cls-2" x1="84.9" y1="170.6" x2="935.4" y2="170.6"/><line class="cls-2" x1="84.9" y1="174" x2="935.4" y2="174"/><line class="cls-2" x1="84.9" y1="177.3" x2="935.4" y2="177.3"/><line class="cls-2" x1="84.9" y1="180.7" x2="935.4" y2="180.7"/><line class="cls-2" x1="84.9" y1="207.7" x2="935.4" y2="207.7"/><line class="cls-2" x1="84.9" y1="211.1" x2="935.4" y2="211.1"/><line class="cls-2" x1="84.9" y1="214.5" x2="935.4" y2="214.5"/><line class="cls-2" x1="84.9" y1="217.8" x2="935.4" y2="217.8"/><line class="cls-2" x1="84.9" y1="221.2" x2="935.4" y2="221.2"/><line class="cls-2" x1="84.9" y1="248.2" x2="935.4" y2="248.2"/><line class="cls-2" x1="84.9" y1="251.6" x2="935.4" y2="251.6"/><line class="cls-2" x1="84.9" y1="255" x2="935.4" y2="255"/><line class="cls-2" x1="84.9" y1="258.3" x2="935.4" y2="258.3"/><line class="cls-2" x1="84.9" y1="261.7" x2="935.4" y2="261.7"/><path d="M83.2,207.7c-7.2,11.5,3.1,21.9-3.7,27h.3c8.2-6.8-1.9-15.5,3.4-26.7Z"/><path d="M83.2,261.7c-7.2-11.5,3.1-21.9-3.7-27h.3c8.2,6.8-1.9,15.5,3.4,26.7Z"/><line class="cls-2" x1="86.3" y1="263" x2="97" y2="242.6"/><text class="cls-3" transform="translate(74.34 115.45) rotate(-12.5)">4.<tspan class="cls-4" x="5.06" y="0"> </tspan><tspan class="cls-5" x="6.63" y="0">VII. 34</tspan></text><text class="cls-6" transform="translate(51.03 78.91)">Bl. 38</text><text class="cls-7" transform="translate(68.29 76.66) scale(0.58)">v</text><text class="cls-6" transform="translate(51.03 137.02)">1</text><text class="cls-6" transform="translate(51.03 177.52)">2</text><text class="cls-6" transform="translate(51.03 218.02)">3</text><text class="cls-6" transform="translate(51.03 258.52)">4</text><path class="cls-8" d="M84.8,126.7l.1,134.9"/><text class="cls-9" transform="translate(135.56 107.45)">„<tspan class="cls-10" x="6.21" y="0">W</tspan><tspan x="18.87" y="0">ie bin ich froh!‟</tspan></text><rect class="cls-11" x="359" y="117.9" width="164" height="30.2"/><rect class="cls-12" x="359" y="117.9" width="175.2" height="30.2"/><text class="cls-13" transform="translate(51.03 46.5)">M 317 Sk3</text><rect class="cls-12" x="807" y="117.9" width="126.6" height="30.2"/><polygon class="cls-12" points="538.5 117.9 538.5 148.1 708.5 148.1 708.5 231.4 803.5 231.4 803.5 190.4 933.6 190.4 933.6 159.4 804.5 159.4 804.5 117.9 538.5 117.9"/><rect class="cls-12" x="552.7" y="159.5" width="141.3" height="30.2"/><text class="cls-1" transform="translate(99.5 170.59)">3</text><text class="cls-1" transform="translate(98.92 177.34)">4</text><rect class="cls-12" x="112.8" y="239.9" width="199" height="30.2"/><rect class="cls-12" x="669" y="239.9" width="40.2" height="30.2"/><polyline class="cls-12" points="317.6 285.9 317.5 239.9 575 239.9 575 199.4 660 199.4 660 270.1 475 270.1 475 284.9"/><text class="cls-13" transform="translate(441.01 136.84)">Sk1</text><text class="cls-13" transform="translate(746 177.34)">Sk2.1</text><text class="cls-13" transform="translate(851.33 136.84)">Sk2.1.1</text><text class="cls-13" transform="translate(603 177.34)">Sk2.1.2</text><text class="cls-13" transform="translate(670.33 251.59)">Sk2.1.</text><text class="cls-13" transform="translate(670.33 265.99)">2.1</text><text class="cls-13" transform="translate(189.67 260.03)">Sk3.1.2</text><text class="cls-13" transform="translate(463.33 260.03)">Sk3.1</text><rect class="cls-12" x="106.7" y="117.9" width="247.5" height="30.2"/><text class="cls-13" transform="translate(214 136.8)">Sk2</text><rect class="cls-12" x="821.5" y="225.4" width="75" height="20.6"/><text class="cls-13" transform="translate(839.33 242.09)">Sk2.1.3</text><line class="cls-2" x1="281.6" y1="207.7" x2="281.6" y2="221.2"/><line class="cls-2" x1="366.4" y1="207.7" x2="366.4" y2="221.2"/><line class="cls-2" x1="434.1" y1="207.7" x2="434.1" y2="221.2"/><line class="cls-2" x1="523" y1="207.7" x2="523" y2="221.2"/><text class="cls-1" transform="translate(179.27 211.09)">3</text><text class="cls-1" transform="translate(178.98 217.98)">4</text><text class="cls-1" transform="translate(188.27 214.47)">‰</text><line class="cls-2" x1="210.2" y1="217.3" x2="210.2" y2="206"/><text class="cls-1" transform="translate(206.13 217.84)">œ</text><text class="cls-1" transform="translate(202.33 217.84)">n</text><line class="cls-2" x1="238.9" y1="220.7" x2="238.9" y2="209.4"/><text class="cls-1" transform="translate(234.81 221.22)">œ</text><text class="cls-1" transform="translate(231.02 221.22)">n</text><text class="cls-1" transform="translate(263.5 217.84)">J</text><line class="cls-2" x1="263.7" y1="210" x2="263.7" y2="221.2"/><text class="cls-1" transform="translate(263.5 209.41)">œ</text><text class="cls-1" transform="translate(259.56 209.41)">b</text><text class="cls-3" transform="translate(202.79 236.13)"><tspan class="cls-14">W</tspan><tspan x="6.1" y="0">ie</tspan></text><text class="cls-3" transform="translate(232.65 236.13)">bin</text><text class="cls-3" transform="translate(261.53 236.13)">ich</text><path class="cls-8" d="M186.4,207.7v13.5"/><text class="cls-1" transform="translate(296.13 206.31)">.</text><line class="cls-2" x1="290.8" y1="208.3" x2="290.8" y2="219.5"/><text class="cls-1" transform="translate(290.64 207.72)">œ</text><text class="cls-1" transform="translate(286.28 207.72)">#</text><text class="cls-1" transform="translate(335.08 214.47)">‰</text><text class="cls-1" transform="translate(345.48 219.53)">œ</text><line class="cls-2" x1="349.6" y1="219" x2="349.6" y2="203.5"/><text class="cls-1" transform="translate(355.89 212.78)">œ</text><text class="cls-1" transform="translate(351.53 212.78)">#</text><line class="cls-2" x1="360" y1="212.2" x2="360" y2="201.8"/><path d="M349.4,202.7l10.8-1.7v1.7l-10.8,1.7Z"/><text class="cls-15" transform="translate(346.19 200.69)">3</text><text class="cls-3" transform="translate(287.17 236.13)">froh</text><line class="cls-2" x1="379" y1="222.3" x2="379" y2="211.1"/><text class="cls-1" transform="translate(374.88 222.91)">œ</text><text class="cls-1" transform="translate(371.08 222.91)">n</text><text class="cls-1" transform="translate(390.48 214.47)">‰</text><text class="cls-1" transform="translate(409.75 213.06)">.</text><text class="cls-1" transform="translate(404.8 206.03)">j</text><line class="cls-2" x1="405" y1="213.9" x2="405" y2="202.7"/><text class="cls-1" transform="translate(400.89 214.47)">œ</text><text class="cls-1" transform="translate(397.09 214.47)">n</text><text class="cls-1" transform="translate(426.48 223.19)">.</text><text class="cls-1" transform="translate(421.53 216.16)">j</text><line class="cls-2" x1="421.7" y1="224" x2="421.7" y2="212.8"/><line class="cls-16" x1="416.8" y1="224.6" x2="422.8" y2="224.6"/><text class="cls-1" transform="translate(417.63 224.59)">œ</text><text class="cls-1" transform="translate(448.7 216.44)">.</text><line class="cls-2" x1="447.3" y1="217.3" x2="447.3" y2="206"/><text class="cls-1" transform="translate(443.22 217.84)">œ</text><text class="cls-1" transform="translate(438.86 217.84)">#</text><text class="cls-1" transform="translate(483.83 209.41)">j</text><line class="cls-2" x1="484" y1="217.3" x2="484" y2="206"/><text class="cls-1" transform="translate(479.92 217.84)">œ</text><line class="cls-2" x1="496.4" y1="204.9" x2="496.4" y2="216.2"/><line class="cls-16" x1="495.4" y1="204.3" x2="501.4" y2="204.3"/><text class="cls-1" transform="translate(496.23 204.34)">œ</text><text class="cls-1" transform="translate(492.44 204.34)">n</text><line class="cls-2" x1="531.9" y1="215" x2="531.9" y2="226.3"/><text class="cls-1" transform="translate(531.67 214.47)">œ</text><text class="cls-1" transform="translate(527.73 214.47)">b</text><path d="M446.3,220.4c6.9,4.1,27.7,4.1,34.6,0l-.1-.1c-6.8,3.4-27.6,3.4-34.5,0Z"/><text class="cls-6" transform="translate(183.63 78.91)">1</text><text class="cls-6" transform="translate(281.36 78.91)">2</text><text class="cls-6" transform="translate(366.16 78.91)">3</text><text class="cls-6" transform="translate(433.94 78.91)">4</text><text class="cls-6" transform="translate(522.81 78.91)">5</text><path class="cls-17" d="M300.3,200.4c-4.9,3.2-5.8,6.6-6,7.7-1.3,6.7,5.9,15.7,18.7,19.3"/><path class="cls-17" d="M301.7,232.4a14.59,14.59,0,0,1,9-.3,14.91,14.91,0,0,1,4.9,2.4"/><path d="M317.3,236.1a12.91,12.91,0,0,0-3.8-.8l1.8-1,.7-1.9A11,11,0,0,0,317.3,236.1Z"/><text class="cls-1" transform="translate(413.08 224.91)">n</text></svg>