<svg id="Ebene_1" data-name="Ebene 1" xmlns="http://www.w3.org/2000/svg" viewBox="0 0 1021 595"><defs><style>.cls-1,.cls-11,.cls-19,.cls-3,.cls-4,.cls-8{fill:none;stroke:#000;}.cls-1,.cls-3{stroke-width:0.4px;}.cls-10,.cls-12,.cls-13,.cls-16,.cls-2,.cls-5,.cls-9{isolation:isolate;}.cls-2{font-size:13.5px;}.cls-10,.cls-2{font-family:Maestro, Maestro;}.cls-3{stroke-dasharray:2.5 2.5;}.cls-4{stroke-width:0.56px;}.cls-12,.cls-13,.cls-5,.cls-6{font-size:6.75px;}.cls-5,.cls-6{font-family:Arial-ItalicMT, Arial;}.cls-5,.cls-6,.cls-9{font-style:italic;}.cls-6{letter-spacing:0em;}.cls-7{letter-spacing:-0.07em;}.cls-8{stroke-width:0.39px;}.cls-9{font-size:5.63px;font-family:TimesNewRomanPS-BoldItalicMT, Times New Roman;}.cls-16,.cls-9{font-weight:700;}.cls-10{font-size:10.13px;}.cls-11{stroke-width:0.4px;}.cls-12{font-family:TimesNewRomanPSMT, Times New Roman;}.cls-13{font-family:EngraverTextT, EngraverTextT;}.cls-14{letter-spacing:-0.04em;}.cls-15{letter-spacing:-0.04em;}.cls-16{font-size:12px;font-family:Arial-BoldMT, Arial;}.cls-17{letter-spacing:-0.11em;}.cls-18{letter-spacing:-0.04em;}.cls-19{stroke-width:0.56px;}</style></defs><title>Zeichenfläche 1</title><line class="cls-1" x1="85.1" y1="167.2" x2="85.1" y2="261.7"/><text class="cls-2" transform="translate(88.73 177.34)">&amp;</text><text class="cls-2" transform="translate(88.73 217.84)">&amp;</text><text class="cls-2" transform="translate(88.73 251.59)">?</text><line class="cls-1" x1="511.8" y1="207.7" x2="511.8" y2="261.7"/><line class="cls-1" x1="511.8" y1="167.2" x2="511.8" y2="180.7"/><line class="cls-1" x1="652.1" y1="207.7" x2="652.1" y2="261.7"/><line class="cls-1" x1="652.1" y1="167.2" x2="652.1" y2="180.7"/><line class="cls-1" x1="794.9" y1="207.7" x2="794.9" y2="261.7"/><line class="cls-1" x1="794.9" y1="167.2" x2="794.9" y2="180.7"/><line class="cls-1" x1="935.2" y1="207.7" x2="935.2" y2="261.7"/><line class="cls-1" x1="935.2" y1="167.2" x2="935.2" y2="180.7"/><line class="cls-1" x1="84.9" y1="126.7" x2="935.4" y2="126.7"/><line class="cls-1" x1="84.9" y1="130.1" x2="935.4" y2="130.1"/><line class="cls-1" x1="84.9" y1="133.5" x2="935.4" y2="133.5"/><line class="cls-1" x1="84.9" y1="136.8" x2="935.4" y2="136.8"/><line class="cls-1" x1="84.9" y1="140.2" x2="935.4" y2="140.2"/><line class="cls-1" x1="84.9" y1="167.2" x2="935.4" y2="167.2"/><line class="cls-1" x1="84.9" y1="170.6" x2="935.4" y2="170.6"/><line class="cls-1" x1="84.9" y1="174" x2="935.4" y2="174"/><line class="cls-1" x1="84.9" y1="177.3" x2="935.4" y2="177.3"/><line class="cls-1" x1="84.9" y1="180.7" x2="935.4" y2="180.7"/><line class="cls-1" x1="84.9" y1="207.7" x2="935.4" y2="207.7"/><line class="cls-1" x1="84.9" y1="211.1" x2="935.4" y2="211.1"/><line class="cls-1" x1="84.9" y1="214.5" x2="935.4" y2="214.5"/><line class="cls-1" x1="84.9" y1="217.8" x2="935.4" y2="217.8"/><line class="cls-1" x1="84.9" y1="221.2" x2="935.4" y2="221.2"/><line class="cls-1" x1="84.9" y1="248.2" x2="935.4" y2="248.2"/><line class="cls-1" x1="84.9" y1="251.6" x2="935.4" y2="251.6"/><line class="cls-1" x1="84.9" y1="255" x2="935.4" y2="255"/><line class="cls-1" x1="84.9" y1="258.3" x2="935.4" y2="258.3"/><line class="cls-1" x1="84.9" y1="261.7" x2="935.4" y2="261.7"/><path d="M83.2,207.7c-7.2,11.5,3.1,21.9-3.7,27h.3c8.2-6.8-1.9-15.5,3.4-26.7Z"/><path d="M83.2,261.7c-7.2-11.5,3.1-21.9-3.7-27h.3c8.2,6.8-1.9,15.5,3.4,26.7Z"/><polyline class="cls-1" points="526.1 233.7 575.5 235.7 526.1 237.7"/><polyline class="cls-1" points="540.7 270 553.2 270 553.2 268.3"/><polyline class="cls-1" points="750.2 184.8 775.8 186.8 750.2 188.7"/><polyline class="cls-1" points="741 237.5 751.4 239.5 741 241.5"/><line class="cls-3" x1="587" y1="138.7" x2="650.8" y2="138.7"/><line class="cls-4" x1="105.9" y1="271.8" x2="111.9" y2="271.8"/><line class="cls-4" x1="105.9" y1="268.5" x2="111.9" y2="268.5"/><line class="cls-4" x1="105.9" y1="265.1" x2="111.9" y2="265.1"/><text class="cls-2" transform="translate(106.73 273.53)">œ</text><text class="cls-2" transform="translate(102.94 273.53)">n</text><line class="cls-1" x1="110.8" y1="273" x2="110.8" y2="252.7"/><text class="cls-2" transform="translate(138.09 214.47)">œ</text><line class="cls-4" x1="137.2" y1="224.6" x2="143.3" y2="224.6"/><text class="cls-2" transform="translate(138.09 226.28)">œ</text><text class="cls-2" transform="translate(134.3 226.28)">n</text><text class="cls-2" transform="translate(134.16 214.47)">b</text><line class="cls-1" x1="138.3" y1="215" x2="138.3" y2="240"/><path d="M110.6,251.9l27.5-12.7v1.7l-27.5,12.7Z"/><text class="cls-5" transform="translate(51.02 78.91)">Bl. 38</text><text class="cls-6" transform="translate(68.29 76.66) scale(0.58)">v</text><text class="cls-5" transform="translate(51.02 136.84)">9</text><text class="cls-5" transform="translate(51.02 177.34)">10</text><text class="cls-5" transform="translate(51.02 217.84)"><tspan class="cls-7">1</tspan><tspan x="3.25" y="0">1</tspan></text><text class="cls-5" transform="translate(51.02 258.34)">12</text><path class="cls-1" d="M129.1,207.7v54"/><text class="cls-2" transform="translate(158.2 249.91)">œ</text><text class="cls-2" transform="translate(153.84 249.91)">#</text><line class="cls-1" x1="162.3" y1="249.3" x2="162.3" y2="236.7"/><text class="cls-2" transform="translate(178.73 216.16)">œ</text><line class="cls-4" x1="177.9" y1="224.6" x2="183.9" y2="224.6"/><text class="cls-2" transform="translate(178.73 224.59)">œ</text><text class="cls-2" transform="translate(174.94 216.16)">n</text><text class="cls-2" transform="translate(170.58 224.59)">#</text><line class="cls-1" x1="178.9" y1="216.7" x2="178.9" y2="232.2"/><path d="M162.1,235.8l16.6-4.5V233l-16.6,4.5Z"/><path class="cls-8" d="M194.8,162.3h3.7"/><path class="cls-8" d="M198.4,162.3V262"/><text class="cls-5" transform="translate(129.09 78.91)">{1A}</text><line class="cls-4" x1="253.1" y1="231.3" x2="259.2" y2="231.3"/><line class="cls-4" x1="253.1" y1="228" x2="259.2" y2="228"/><line class="cls-4" x1="253.1" y1="224.6" x2="259.2" y2="224.6"/><text class="cls-2" transform="translate(253.97 231.34)">œ</text><text class="cls-2" transform="translate(249.61 231.34)">#</text><line class="cls-1" x1="258.1" y1="230.8" x2="258.1" y2="208.6"/><text class="cls-2" transform="translate(264.66 219.53)">œ</text><text class="cls-2" transform="translate(260.86 219.53)">n</text><line class="cls-1" x1="268.8" y1="219" x2="268.8" y2="208.6"/><text class="cls-2" transform="translate(275.06 222.91)">œ</text><text class="cls-2" transform="translate(271.27 222.91)">n</text><line class="cls-1" x1="279.2" y1="222.3" x2="279.2" y2="208.6"/><path d="M257.9,207.7h21.5v1.7H257.9Z"/><path d="M257.9,210.3h21.5V212H257.9Z"/><text class="cls-9" transform="translate(265.22 204.77)">3</text><text class="cls-2" transform="translate(235.13 254.97)">Œ</text><text class="cls-10" transform="translate(274.08 258.34)">&amp;</text><path class="cls-1" d="M283.9,207.7v54"/><text class="cls-2" transform="translate(292.64 249.91)">œ</text><text class="cls-2" transform="translate(288.84 249.91)">n</text><line class="cls-1" x1="296.7" y1="249.3" x2="296.7" y2="238.1"/><text class="cls-2" transform="translate(292.92 253.81)">-</text><text class="cls-2" transform="translate(316.27 221.22)">œ</text><text class="cls-2" transform="translate(312.33 221.22)">b</text><line class="cls-1" x1="316.5" y1="221.8" x2="316.5" y2="234.4"/><text class="cls-2" transform="translate(316.55 216.66)">-</text><path d="M296.5,237.3l19.7-3.7v1.7L296.5,239Z"/><line class="cls-1" x1="340.1" y1="204.9" x2="340.1" y2="225.7"/><line class="cls-4" x1="339" y1="204.3" x2="345.1" y2="204.3"/><text class="cls-2" transform="translate(339.89 204.34)">œ</text><text class="cls-2" transform="translate(339.89 216.16)">œ</text><text class="cls-2" transform="translate(335.53 216.16)">#</text><text class="cls-2" transform="translate(336.09 204.34)">n</text><text class="cls-10" transform="translate(326.53 211.09)">?</text><text class="cls-10" transform="translate(410.98 217.84)">&amp;</text><line class="cls-1" x1="344" y1="259.5" x2="344" y2="240.3"/><text class="cls-2" transform="translate(339.89 249.91)">œ</text><text class="cls-2" transform="translate(339.89 260.03)">œ</text><text class="cls-2" transform="translate(336.09 260.03)">n</text><text class="cls-2" transform="translate(335.53 249.91)">#</text><text class="cls-2" transform="translate(378 254.97)">‰</text><line class="cls-1" x1="405.7" y1="254.4" x2="405.7" y2="243.2"/><text class="cls-2" transform="translate(401.63 254.97)">œ</text><text class="cls-2" transform="translate(397.83 254.97)">n</text><text class="cls-10" transform="translate(326.53 251.59)">?</text><text class="cls-10" transform="translate(369.14 258.34)">&amp;</text><path class="cls-11" d="M411.3,205.9h-1.4V225h1.4"/><path class="cls-11" d="M417.4,205.9h1.4V225h-1.4"/><text class="cls-5" transform="translate(284.34 78.91)">{1B}</text><text class="cls-2" transform="translate(456.19 173.97)">Œ</text><text class="cls-10" transform="translate(428.34 177.34)">&amp;</text><line class="cls-4" x1="455.3" y1="231.3" x2="461.4" y2="231.3"/><line class="cls-4" x1="455.3" y1="228" x2="461.4" y2="228"/><line class="cls-4" x1="455.3" y1="224.6" x2="461.4" y2="224.6"/><text class="cls-2" transform="translate(456.19 231.34)">œ</text><text class="cls-2" transform="translate(451.83 231.34)">#</text><line class="cls-1" x1="460.3" y1="230.8" x2="460.3" y2="208.6"/><text class="cls-2" transform="translate(466.88 219.53)">œ</text><text class="cls-2" transform="translate(463.08 219.53)">n</text><line class="cls-1" x1="471" y1="219" x2="471" y2="208.6"/><text class="cls-2" transform="translate(477.7 222.91)">œ</text><text class="cls-2" transform="translate(473.91 222.91)">n</text><line class="cls-1" x1="481.8" y1="222.3" x2="481.8" y2="208.6"/><path d="M460.1,207.7H482v1.7H460.1Z"/><path d="M460.1,210.3H482V212H460.1Z"/><text class="cls-2" transform="translate(488.39 249.91)">œ</text><text class="cls-2" transform="translate(484.59 249.91)">n</text><line class="cls-1" x1="492.5" y1="249.3" x2="492.5" y2="238.1"/><text class="cls-2" transform="translate(489.38 253.28)">.</text><text class="cls-2" transform="translate(520.31 221.22)">œ</text><text class="cls-2" transform="translate(516.38 221.22)">b</text><line class="cls-1" x1="520.5" y1="221.8" x2="520.5" y2="231.6"/><path d="M492.3,237.3l28-6.5v1.7l-28,6.5Z"/><text class="cls-9" transform="translate(466.88 231.34)">3</text><text class="cls-2" transform="translate(439.03 170.73)">3</text><text class="cls-2" transform="translate(438.33 177.48)">4</text><text class="cls-2" transform="translate(431.02 211.23)">3</text><text class="cls-2" transform="translate(430.21 217.84)">4</text><text class="cls-2" transform="translate(432.56 251.59)">3</text><text class="cls-2" transform="translate(431.7 258.34)">4</text><text class="cls-2" transform="translate(488.11 271.84)">S</text><path class="cls-8" d="M418.6,160.3h8.1"/><path class="cls-8" d="M426.7,160.3V271.4"/><path class="cls-8" d="M426.7,271.4h-2.8"/><text class="cls-12" transform="translate(438.61 138.67)">Lebhaft </text><text class="cls-13" transform="translate(461.39 138.67)"><tspan xml:space="preserve">q =  </tspan></text><path class="cls-1" d="M421.4,207.7v54"/><text class="cls-2" transform="translate(456.47 244.14)">f</text><text class="cls-12" transform="translate(443.79 202.8)">4</text><text class="cls-2" transform="translate(579.8 173.97)">∑</text><line class="cls-1" x1="579.4" y1="170.6" x2="584.6" y2="170.6"/><line class="cls-1" x1="544.7" y1="204.9" x2="544.7" y2="225.7"/><line class="cls-4" x1="543.7" y1="204.3" x2="549.7" y2="204.3"/><text class="cls-2" transform="translate(544.5 204.34)">œ</text><text class="cls-2" transform="translate(544.5 216.16)">œ</text><text class="cls-2" transform="translate(540.14 216.16)">#</text><text class="cls-2" transform="translate(540.7 204.34)">n</text><text class="cls-2" transform="translate(581.77 214.47)">‰</text><text class="cls-2" transform="translate(604.97 246.53)">œ</text><text class="cls-2" transform="translate(601.17 246.53)">n</text><line class="cls-1" x1="609.1" y1="246" x2="609.1" y2="234.7"/><text class="cls-2" transform="translate(605.25 250.61)">-</text><text class="cls-2" transform="translate(628.88 214.47)">œ</text><text class="cls-2" transform="translate(624.94 214.47)">b</text><line class="cls-1" x1="629.1" y1="215" x2="629.1" y2="231.3"/><text class="cls-2" transform="translate(629.16 209.41)">-</text><path d="M608.9,233.9l20-3.4v1.7l-20,3.4Z"/><text class="cls-10" transform="translate(531.14 211.09)">?</text><text class="cls-10" transform="translate(603.7 217.84)">&amp;</text><line class="cls-1" x1="548.6" y1="259.5" x2="548.6" y2="240.3"/><text class="cls-2" transform="translate(544.5 249.91)">œ</text><text class="cls-2" transform="translate(544.5 260.03)">œ</text><text class="cls-2" transform="translate(540.7 260.03)">n</text><text class="cls-2" transform="translate(540.14 249.91)">#</text><text class="cls-2" transform="translate(581.77 254.97)">‰</text><text class="cls-10" transform="translate(531.14 251.59)">?</text><text class="cls-12" transform="translate(537.05 273.95)">8</text><text class="cls-2" transform="translate(594.56 235.42)">p</text><text class="cls-5" transform="translate(511.59 78.91)">1C</text><text class="cls-12" transform="translate(579.94 138.67)">rit</text><text class="cls-12" transform="translate(511.59 166.23)">1</text><text class="cls-2" transform="translate(659.86 173.97)">‰</text><line class="cls-1" x1="683" y1="176.8" x2="683" y2="165.5"/><text class="cls-2" transform="translate(678.94 177.34)">œ</text><text class="cls-2" transform="translate(675.14 177.34)">n</text><line class="cls-1" x1="732.3" y1="180.2" x2="732.3" y2="168.9"/><text class="cls-2" transform="translate(728.16 180.72)">œ</text><text class="cls-2" transform="translate(724.36 180.72)">n</text><text class="cls-2" transform="translate(772.59 177.34)">J</text><line class="cls-1" x1="772.8" y1="169.5" x2="772.8" y2="180.7"/><text class="cls-2" transform="translate(772.59 168.91)">œ</text><text class="cls-2" transform="translate(768.66 168.91)">b</text><text class="cls-12" transform="translate(675.6 158.5)"><tspan class="cls-14">W</tspan><tspan x="6.1" y="0">ie</tspan></text><text class="cls-12" transform="translate(726 158.5)">bin</text><text class="cls-12" transform="translate(770.62 158.5)">ich</text><text class="cls-2" transform="translate(659.86 214.47)">Œ</text><text class="cls-2" transform="translate(696.94 217.84)">œ</text><text class="cls-2" transform="translate(693.14 217.84)">n</text><line class="cls-1" x1="701" y1="217.3" x2="701" y2="200.1"/><text class="cls-2" transform="translate(707.34 221.22)">œ</text><text class="cls-2" transform="translate(703.55 221.22)">n</text><line class="cls-1" x1="711.5" y1="220.7" x2="711.5" y2="199.3"/><text class="cls-2" transform="translate(717.75 209.41)">œ</text><text class="cls-2" transform="translate(713.81 209.41)">b</text><line class="cls-1" x1="721.9" y1="208.8" x2="721.9" y2="198.4"/><path d="M700.8,199.3l21.2-1.7v1.7L700.8,201Z"/><path d="M700.8,201.8l21.2-1.7v1.7l-21.2,1.7Z"/><text class="cls-2" transform="translate(728.16 248.22)">œ</text><text class="cls-2" transform="translate(723.8 248.22)">#</text><line class="cls-1" x1="732.3" y1="247.7" x2="732.3" y2="235.8"/><text class="cls-2" transform="translate(729.7 253)">.</text><text class="cls-2" transform="translate(750.23 212.78)">œ</text><text class="cls-2" transform="translate(745.88 212.78)">#</text><line class="cls-1" x1="750.4" y1="213.3" x2="750.4" y2="228.5"/><text class="cls-2" transform="translate(751.22 209.97)">.</text><path d="M732.1,235l18.2-7.3v1.7l-18.2,7.3Z"/><line class="cls-1" x1="772.8" y1="215" x2="772.8" y2="235.8"/><text class="cls-2" transform="translate(772.59 214.47)">œ</text><line class="cls-4" x1="771.8" y1="224.6" x2="777.8" y2="224.6"/><text class="cls-2" transform="translate(772.59 226.28)">œ</text><text class="cls-2" transform="translate(768.8 226.28)">n</text><text class="cls-2" transform="translate(768.66 214.47)">b</text><text class="cls-9" transform="translate(708.05 232.05)">3</text><text class="cls-2" transform="translate(659.86 254.97)">Œ</text><text class="cls-2" transform="translate(696.94 254.97)">‰</text><line class="cls-1" x1="776.7" y1="262.8" x2="776.7" y2="243.2"/><text class="cls-2" transform="translate(772.59 254.97)">œ</text><text class="cls-2" transform="translate(772.59 263.41)">œ</text><text class="cls-2" transform="translate(768.8 254.97)">n</text><text class="cls-2" transform="translate(765 263.41)">n</text><text class="cls-10" transform="translate(714.09 258.34)">&amp;</text><text class="cls-10" transform="translate(756.42 251.59)">?</text><text class="cls-12" transform="translate(651.52 166.23)">2</text><text class="cls-5" transform="translate(651.94 78.91)">2</text><text class="cls-12" transform="translate(656.44 138.67)">tempo</text><text class="cls-12" transform="translate(689.48 240.63)">4 u. 1</text><text class="cls-2" transform="translate(809.44 165.81)">.</text><line class="cls-1" x1="804.2" y1="167.8" x2="804.2" y2="179"/><text class="cls-2" transform="translate(803.95 167.22)">œ</text><text class="cls-2" transform="translate(799.59 167.22)">#</text><text class="cls-2" transform="translate(857.25 173.97)">‰</text><text class="cls-2" transform="translate(881.16 173.97)">‰</text><text class="cls-2" transform="translate(899.16 172.28)">œ</text><text class="cls-2" transform="translate(894.8 172.28)">#</text><line class="cls-1" x1="903.3" y1="171.7" x2="903.3" y2="161.3"/><text class="cls-2" transform="translate(917.02 179.03)">œ</text><text class="cls-2" transform="translate(913.22 179.03)">n</text><line class="cls-1" x1="921.1" y1="178.5" x2="921.1" y2="163"/><path d="M903.1,160.5l18.3,1.7v1.7l-18.3-1.7Z"/><text class="cls-9" transform="translate(899.86 156.25)">3</text><text class="cls-12" transform="translate(800.48 158.5)">froh</text><text class="cls-5" transform="translate(794.67 78.91)">3<tspan class="cls-15" x="3.75" y="0">A</tspan></text><text class="cls-12" transform="translate(794.67 165.25)">3</text><path d="M256.2,234.7c7.9,2.5,17.3-1.3,21.1-8.6h0c-4.1,6.6-13.5,10.4-21.1,8.6"/><path d="M458.3,234.7c7.9,2.8,17.7-1.1,21.5-8.6h0c-4.1,6.7-13.9,10.6-21.5,8.6"/><path d="M699,222.3c4.6,9.3,16.2,4.4,21-6.8h0c-5,10.4-16.6,15.3-21,6.8"/><text class="cls-16" transform="translate(51.02 46.5)">M 317 Sk4 <tspan class="cls-17" x="61.37" y="0">T</tspan><tspan x="67.37" y="0">. {1A}–3</tspan><tspan class="cls-18" x="112.07" y="0">A</tspan></text><text class="cls-2" transform="translate(658.36 161.31)">f</text><polyline class="cls-1" points="691.1 234.7 699 228.5 702.1 234.7"/><polyline class="cls-1" points="626.9 328.5 627.1 291.5 933.4 291.5 933.2 328.5"/><text class="cls-16" transform="translate(756.42 310.03)">Sk4.1</text><path class="cls-11" d="M638.7,261.7a15,15,0,0,0-9.8,14.2,14.62,14.62,0,0,0,3.8,9.3"/><path d="M634.4,287a12.74,12.74,0,0,0-3.8-1.1l1.8-.9.9-1.8A13.64,13.64,0,0,0,634.4,287Z"/><text class="cls-2" transform="translate(521.54 216.66)">.</text><text class="cls-2" transform="translate(235.12 214.45)">‰</text><text class="cls-12" transform="translate(656.5 190.12)">1</text><path class="cls-19" d="M634.4,198.4h4.1"/><path class="cls-19" d="M638.3,198.1v4.2"/></svg>