<svg id="Ebene_1" data-name="Ebene 1" xmlns="http://www.w3.org/2000/svg" viewBox="0 0 1021 595"><defs><style>.cls-1,.cls-13,.cls-14,.cls-17,.cls-3,.cls-6,.cls-9{isolation:isolate;}.cls-1,.cls-14{font-size:13.5px;}.cls-1,.cls-17{font-family:Maestro, Maestro;}.cls-15,.cls-16,.cls-2,.cls-8{fill:none;}.cls-12,.cls-15,.cls-16,.cls-2,.cls-8{stroke:#000;}.cls-12,.cls-16,.cls-2{stroke-width:0.4px;}.cls-3,.cls-6,.cls-7{font-size:6.75px;}.cls-14,.cls-3,.cls-9{font-family:TimesNewRomanPSMT, Times New Roman;}.cls-4{letter-spacing:-0.02em;}.cls-5{letter-spacing:0em;}.cls-6,.cls-7{font-family:Arial-ItalicMT, Arial;font-style:italic;}.cls-7{letter-spacing:0em;}.cls-8{stroke-width:0.49px;}.cls-9{font-size:14px;}.cls-10{letter-spacing:-0.04em;}.cls-11,.cls-12{fill:#fff;}.cls-12,.cls-16{stroke-miterlimit:10;}.cls-13{font-size:12px;font-family:Arial-BoldMT, Arial;font-weight:700;}.cls-15{stroke-width:0.4px;}.cls-17{font-size:10px;}</style></defs><title>Zeichenfläche 1</title><text class="cls-1" transform="translate(88.31 177.34)">&amp;</text><text class="cls-1" transform="translate(88.31 217.84)">&amp;</text><text class="cls-1" transform="translate(88.31 251.59)">?</text><line class="cls-2" x1="84.9" y1="126.7" x2="935.4" y2="126.7"/><line class="cls-2" x1="84.9" y1="130.1" x2="935.4" y2="130.1"/><line class="cls-2" x1="84.9" y1="133.5" x2="935.4" y2="133.5"/><line class="cls-2" x1="84.9" y1="136.8" x2="935.4" y2="136.8"/><line class="cls-2" x1="84.9" y1="140.2" x2="935.4" y2="140.2"/><line class="cls-2" x1="84.9" y1="167.2" x2="935.4" y2="167.2"/><line class="cls-2" x1="84.9" y1="170.6" x2="935.4" y2="170.6"/><line class="cls-2" x1="84.9" y1="174" x2="935.4" y2="174"/><line class="cls-2" x1="84.9" y1="177.3" x2="935.4" y2="177.3"/><line class="cls-2" x1="84.9" y1="180.7" x2="935.4" y2="180.7"/><line class="cls-2" x1="84.9" y1="207.7" x2="935.4" y2="207.7"/><line class="cls-2" x1="84.9" y1="211.1" x2="935.4" y2="211.1"/><line class="cls-2" x1="84.9" y1="214.5" x2="935.4" y2="214.5"/><line class="cls-2" x1="84.9" y1="217.8" x2="935.4" y2="217.8"/><line class="cls-2" x1="84.9" y1="221.2" x2="935.4" y2="221.2"/><line class="cls-2" x1="84.9" y1="248.2" x2="935.4" y2="248.2"/><line class="cls-2" x1="84.9" y1="251.6" x2="935.4" y2="251.6"/><line class="cls-2" x1="84.9" y1="255" x2="935.4" y2="255"/><line class="cls-2" x1="84.9" y1="258.3" x2="935.4" y2="258.3"/><line class="cls-2" x1="84.9" y1="261.7" x2="935.4" y2="261.7"/><path d="M83.2,207.7c-7.2,11.5,3.1,21.9-3.7,27h.3c8.2-6.8-1.9-15.5,3.4-26.7Z"/><path d="M83.2,261.7c-7.2-11.5,3.1-21.9-3.7-27h.3c8.2,6.8-1.9,15.5,3.4,26.7Z"/><line class="cls-2" x1="86.3" y1="263" x2="97" y2="242.6"/><text class="cls-3" transform="translate(74.34 115.45) rotate(-12.5)">4.<tspan class="cls-4" x="5.06" y="0"> </tspan><tspan class="cls-5" x="6.63" y="0">VII. 34</tspan></text><text class="cls-6" transform="translate(51.01 77.91)">Bl. 38</text><text class="cls-7" transform="translate(68.28 75.66) scale(0.58)">v</text><text class="cls-6" transform="translate(51.01 136.84)">1</text><text class="cls-6" transform="translate(51.01 177.34)">2</text><text class="cls-6" transform="translate(51.01 217.84)">3</text><text class="cls-6" transform="translate(51.01 258.34)">4</text><path class="cls-8" d="M84.8,126.7l.1,134.9"/><text class="cls-9" transform="translate(135.56 107.45)">„<tspan class="cls-10" x="6.21" y="0">W</tspan><tspan x="18.87" y="0">ie bin ich froh!‟</tspan></text><rect class="cls-11" x="359" y="117.9" width="164" height="30.2"/><rect class="cls-12" x="359" y="117.9" width="175.2" height="30.2"/><text class="cls-13" transform="translate(51.01 46.5)">M 317 Sk3.1.2</text><rect class="cls-12" x="807" y="117.9" width="126.6" height="30.2"/><polygon class="cls-12" points="538.5 117.9 538.5 148.1 708.5 148.1 708.5 231.4 803.5 231.4 803.5 190.4 933.6 190.4 933.6 159.4 804.5 159.4 804.5 117.9 538.5 117.9"/><rect class="cls-12" x="552.7" y="159.5" width="141.3" height="30.2"/><text class="cls-1" transform="translate(99.5 170.59)">3</text><text class="cls-1" transform="translate(98.92 177.34)">4</text><rect class="cls-12" x="170.3" y="199.4" width="368.2" height="30.2"/><rect class="cls-12" x="669" y="239.9" width="40.2" height="30.2"/><polyline class="cls-12" points="317.6 285.9 317.5 239.9 575 239.9 575 199.4 660 199.4 660 270.1 475 270.1 475 284.9"/><text class="cls-13" transform="translate(441.01 136.84)">Sk1</text><text class="cls-13" transform="translate(746 177.34)">Sk2.1</text><text class="cls-13" transform="translate(851.33 136.84)">Sk2.1.1</text><text class="cls-13" transform="translate(603 177.34)">Sk2.1.2</text><text class="cls-13" transform="translate(670.33 251.59)">Sk2.1.</text><text class="cls-13" transform="translate(670.33 265.99)">2.1</text><text class="cls-13" transform="translate(352 217.84)">Sk3</text><text class="cls-13" transform="translate(463.33 260.03)">Sk3.1</text><rect class="cls-12" x="106.7" y="117.9" width="247.5" height="30.2"/><text class="cls-13" transform="translate(214 136.8)">Sk2</text><rect class="cls-12" x="821.5" y="224.4" width="75" height="20.6"/><text class="cls-13" transform="translate(840.33 241.09)">Sk2.1.3</text><line class="cls-2" x1="229.6" y1="248.2" x2="229.6" y2="261.7"/><line class="cls-2" x1="279.1" y1="248.2" x2="279.1" y2="261.7"/><text class="cls-1" transform="translate(140.11 263.69)">.</text><line class="cls-2" x1="136.6" y1="262.8" x2="136.6" y2="251.6"/><text class="cls-1" transform="translate(132.52 263.41)">œ</text><text class="cls-1" transform="translate(128.72 263.41)">n</text><text class="cls-1" transform="translate(162.47 254.97)">‰</text><line class="cls-2" x1="181.2" y1="255.5" x2="181.2" y2="266.8"/><text class="cls-1" transform="translate(181.03 254.97)">œ</text><text class="cls-1" transform="translate(177.23 254.97)">n</text><text class="cls-1" transform="translate(210.84 263.41)">J</text><line class="cls-2" x1="211" y1="255.5" x2="211" y2="266.8"/><text class="cls-1" transform="translate(210.84 254.97)">œ</text><text class="cls-1" transform="translate(206.91 254.97)">b</text><text class="cls-3" transform="translate(129.61 276.63)">mal</text><text class="cls-3" transform="translate(177 276.63)">wird</text><text class="cls-3" transform="translate(208.31 276.63)">mir</text><text class="cls-1" transform="translate(101.47 258.34)">&amp;</text><text class="cls-1" transform="translate(115.5 258.06)">4</text><text class="cls-1" transform="translate(115.5 251.59)">3</text><text class="cls-3" transform="translate(157.55 285.91)">gilt</text><text class="cls-1" transform="translate(243.61 253.56)">.</text><line class="cls-2" x1="238.3" y1="253.8" x2="238.3" y2="265.1"/><text class="cls-1" transform="translate(238.13 253.28)">œ</text><text class="cls-1" transform="translate(234.33 253.28)">n</text><text class="cls-1" transform="translate(263.3 265.09)">J</text><line class="cls-2" x1="263.5" y1="257.2" x2="263.5" y2="268.5"/><text class="cls-1" transform="translate(263.3 256.66)">œ</text><text class="cls-1" transform="translate(259.5 256.66)">n</text><text class="cls-3" transform="translate(237.84 276.63)">al</text><text class="cls-3" transform="translate(261.7 276.63)">les</text><path class="cls-2" d="M291,241.9h11.4v35.4H291"/><path class="cls-2" d="M291,241.9h11.4v35.4H291"/><text class="cls-1" transform="translate(298.67 246.81)">.</text><line class="cls-2" x1="293.4" y1="247.1" x2="293.4" y2="258.3"/><text class="cls-1" transform="translate(293.19 246.53)">œ</text><text class="cls-1" transform="translate(283.83 246.53)">#</text><text class="cls-3" transform="translate(283.4 276.63)">Grün</text><text class="cls-14" transform="translate(307.23 250.19)">!</text><text class="cls-3" transform="translate(251.27 276.63)">-</text><circle class="cls-2" cx="141.4" cy="263.4" r="2.3"/><path class="cls-15" d="M102.2,242.4h-1.7v25.3h1.7"/><path class="cls-15" d="M109.7,242.4h1.7v25.3h-1.7"/><text class="cls-6" transform="translate(84.94 77.91)">3</text><text class="cls-6" transform="translate(229.41 77.91)">4</text><text class="cls-6" transform="translate(278.91 77.91)">5</text><line class="cls-16" x1="117.4" y1="237.3" x2="117.4" y2="242.4"/><line class="cls-16" x1="114.8" y1="239.8" x2="119.9" y2="239.8"/><line class="cls-16" x1="115.6" y1="238" x2="119.2" y2="241.7"/><line class="cls-16" x1="118.9" y1="237.8" x2="115.9" y2="241.9"/><text class="cls-17" transform="translate(288.13 246.81)">˙</text><line class="cls-2" x1="288.3" y1="247.1" x2="288.3" y2="258.3"/></svg>