<svg id="Ebene_1" data-name="Ebene 1" xmlns="http://www.w3.org/2000/svg" viewBox="0 0 1021 595"><defs><style>.cls-1,.cls-13,.cls-15,.cls-3,.cls-6,.cls-9{isolation:isolate;}.cls-1{font-size:13.5px;}.cls-1,.cls-15{font-family:Maestro, Maestro;}.cls-14,.cls-16,.cls-2,.cls-8{fill:none;}.cls-12,.cls-14,.cls-16,.cls-2,.cls-8{stroke:#000;}.cls-12,.cls-2{stroke-width:0.4px;}.cls-3,.cls-6,.cls-7{font-size:6.75px;}.cls-3,.cls-9{font-family:TimesNewRomanPSMT, Times New Roman;}.cls-4{letter-spacing:-0.02em;}.cls-5{letter-spacing:0em;}.cls-6,.cls-7{font-family:Arial-ItalicMT, Arial;font-style:italic;}.cls-7{letter-spacing:0em;}.cls-8{stroke-width:0.49px;}.cls-9{font-size:14px;}.cls-10{letter-spacing:-0.04em;}.cls-11,.cls-12{fill:#fff;}.cls-12{stroke-miterlimit:10;}.cls-13{font-size:12px;font-family:Arial-BoldMT, Arial;font-weight:700;}.cls-14{stroke-width:0.4px;}.cls-15{font-size:10.13px;}.cls-16{stroke-width:0.56px;}</style></defs><title>Zeichenfläche 1</title><text class="cls-1" transform="translate(88.31 136.84)">&amp;</text><text class="cls-1" transform="translate(88.31 177.34)">&amp;</text><text class="cls-1" transform="translate(88.31 217.84)">&amp;</text><text class="cls-1" transform="translate(88.31 251.59)">?</text><line class="cls-2" x1="84.9" y1="126.7" x2="935.4" y2="126.7"/><line class="cls-2" x1="84.9" y1="130.1" x2="935.4" y2="130.1"/><line class="cls-2" x1="84.9" y1="133.5" x2="935.4" y2="133.5"/><line class="cls-2" x1="84.9" y1="136.8" x2="935.4" y2="136.8"/><line class="cls-2" x1="84.9" y1="140.2" x2="935.4" y2="140.2"/><line class="cls-2" x1="84.9" y1="167.2" x2="935.4" y2="167.2"/><line class="cls-2" x1="84.9" y1="170.6" x2="935.4" y2="170.6"/><line class="cls-2" x1="84.9" y1="174" x2="935.4" y2="174"/><line class="cls-2" x1="84.9" y1="177.3" x2="935.4" y2="177.3"/><line class="cls-2" x1="84.9" y1="180.7" x2="935.4" y2="180.7"/><line class="cls-2" x1="84.9" y1="207.7" x2="935.4" y2="207.7"/><line class="cls-2" x1="84.9" y1="211.1" x2="935.4" y2="211.1"/><line class="cls-2" x1="84.9" y1="214.5" x2="935.4" y2="214.5"/><line class="cls-2" x1="84.9" y1="217.8" x2="935.4" y2="217.8"/><line class="cls-2" x1="84.9" y1="221.2" x2="935.4" y2="221.2"/><line class="cls-2" x1="84.9" y1="248.2" x2="935.4" y2="248.2"/><line class="cls-2" x1="84.9" y1="251.6" x2="935.4" y2="251.6"/><line class="cls-2" x1="84.9" y1="255" x2="935.4" y2="255"/><line class="cls-2" x1="84.9" y1="258.3" x2="935.4" y2="258.3"/><line class="cls-2" x1="84.9" y1="261.7" x2="935.4" y2="261.7"/><path d="M83.2,207.7c-7.2,11.5,3.1,21.9-3.7,27h.3c8.2-6.8-1.9-15.5,3.4-26.7Z"/><path d="M83.2,261.7c-7.2-11.5,3.1-21.9-3.7-27h.3c8.2,6.8-1.9,15.5,3.4,26.7Z"/><line class="cls-2" x1="86.3" y1="263" x2="97" y2="242.6"/><text class="cls-3" transform="translate(74.34 115.45) rotate(-12.5)">4.<tspan class="cls-4" x="5.06" y="0"> </tspan><tspan class="cls-5" x="6.63" y="0">VII. 34</tspan></text><text class="cls-6" transform="translate(51.02 78.91)">Bl. 38</text><text class="cls-7" transform="translate(68.28 76.66) scale(0.58)">v</text><text class="cls-6" transform="translate(51.02 136.84)">1</text><text class="cls-6" transform="translate(51.02 177.34)">2</text><text class="cls-6" transform="translate(51.02 217.84)">3</text><text class="cls-6" transform="translate(51.02 258.34)">4</text><path class="cls-8" d="M84.8,126.7l.1,134.9"/><text class="cls-9" transform="translate(135.56 107.45)">„<tspan class="cls-10" x="6.21" y="0">W</tspan><tspan x="18.87" y="0">ie bin ich froh!‟</tspan></text><rect class="cls-11" x="359" y="117.9" width="164" height="30.2"/><rect class="cls-12" x="359" y="117.9" width="175.2" height="30.2"/><text class="cls-13" transform="translate(51.02 46.5)">M 317: Sk2.1.2.1</text><path class="cls-14" d="M89.2,120.8H87.5v25.3h1.7"/><path class="cls-14" d="M96.7,120.8h1.7v25.3H96.7"/><rect class="cls-12" x="807" y="117.9" width="126.6" height="30.2"/><polygon class="cls-12" points="538.5 117.9 538.5 148.1 708.5 148.1 708.5 231.4 803.5 231.4 803.5 190.4 933.6 190.4 933.6 159.4 804.5 159.4 804.5 117.9 538.5 117.9"/><rect class="cls-12" x="552.7" y="159.5" width="141.3" height="30.2"/><rect class="cls-12" x="820" y="225.9" width="75" height="20.6"/><text class="cls-1" transform="translate(99.5 170.59)">3</text><text class="cls-1" transform="translate(98.92 177.34)">4</text><rect class="cls-12" x="170.3" y="199.4" width="368.2" height="30.2"/><rect class="cls-12" x="112.8" y="239.9" width="199" height="30.2"/><polyline class="cls-12" points="317.6 285.9 317.5 239.9 575 239.9 575 199.4 655 199.4 655 270.1 475 270.1 475 284.9"/><text class="cls-13" transform="translate(441.01 136.84)">Sk1</text><text class="cls-13" transform="translate(746 177.34)">Sk2.1</text><text class="cls-13" transform="translate(851.33 136.84)">Sk2.1.1</text><text class="cls-13" transform="translate(837.83 242.59)">Sk2.1.3</text><text class="cls-13" transform="translate(603 177.34)">Sk2.1.2</text><text class="cls-13" transform="translate(352 217.84)">Sk3</text><text class="cls-13" transform="translate(189.67 260.03)">Sk3.1.2</text><text class="cls-13" transform="translate(463.33 260.03)">Sk3.1</text><rect class="cls-12" x="105.2" y="118.4" width="249.3" height="30.2"/><text class="cls-13" transform="translate(205.26 136.84)">Sk2</text><line class="cls-2" x1="694.9" y1="248.3" x2="694.9" y2="261.8"/><text class="cls-1" transform="translate(672.73 255)">œ</text><text class="cls-1" transform="translate(668.8 255)">b</text><line class="cls-2" x1="676.8" y1="254.4" x2="676.8" y2="244"/><text class="cls-1" transform="translate(686.8 263.44)">œ</text><text class="cls-1" transform="translate(683 263.44)">n</text><line class="cls-2" x1="690.9" y1="262.9" x2="690.9" y2="245.7"/><path d="M676.6,243.2l14.5,1.7v1.7l-14.5-1.7Z"/><text class="cls-15" transform="translate(658.39 258.38)">&amp;</text><line class="cls-2" x1="707.5" y1="266.3" x2="707.5" y2="255"/><line class="cls-16" x1="702.5" y1="265.1" x2="708.6" y2="265.1"/><text class="cls-1" transform="translate(703.39 266.81)">œ</text><text class="cls-1" transform="translate(699.59 266.81)">n</text><path class="cls-14" d="M658.8,246.6h-1.4v19.1h1.4"/><path class="cls-14" d="M664.9,246.6h1.4v19.1h-1.4"/><text class="cls-6" transform="translate(694.87 78.91)">3</text></svg>