<svg id="Ebene_1" data-name="Ebene 1" xmlns="http://www.w3.org/2000/svg" viewBox="0 0 1021 595"><defs><style>.cls-1,.cls-12,.cls-17,.cls-18,.cls-22,.cls-3,.cls-6,.cls-8{fill:none;}.cls-1,.cls-12,.cls-17,.cls-18,.cls-21,.cls-22,.cls-3,.cls-6,.cls-8{stroke:#000;}.cls-1,.cls-18,.cls-21,.cls-3{stroke-width:0.4px;}.cls-10,.cls-13,.cls-14,.cls-15,.cls-19,.cls-2,.cls-20,.cls-4,.cls-7,.cls-9{isolation:isolate;}.cls-2{font-size:13.5px;}.cls-10,.cls-13,.cls-19,.cls-2{font-family:Maestro, Maestro;}.cls-3{stroke-dasharray:2.5 2.5;}.cls-4,.cls-5,.cls-7{font-size:6.75px;}.cls-4,.cls-5{font-family:Arial-ItalicMT, Arial;}.cls-14,.cls-4,.cls-5,.cls-9{font-style:italic;}.cls-6{stroke-width:0.49px;}.cls-20,.cls-7{font-family:TimesNewRomanPSMT, Times New Roman;}.cls-8{stroke-width:0.56px;}.cls-14,.cls-9{font-size:5.63px;}.cls-9{font-family:TimesNewRomanPS-BoldItalicMT, Times New Roman;}.cls-15,.cls-9{font-weight:700;}.cls-10{font-size:10.13px;}.cls-11,.cls-21{fill:#fff;}.cls-12{stroke-width:0.56px;}.cls-13{font-size:12.15px;}.cls-14{font-family:TimesNewRomanPS-ItalicMT, Times New Roman;}.cls-15{font-size:12px;font-family:Arial-BoldMT, Arial;}.cls-16{letter-spacing:-0.11em;}.cls-17{stroke-width:0.4px;}.cls-18,.cls-21,.cls-22{stroke-miterlimit:10;}.cls-19{font-size:9px;}.cls-20{font-size:5px;}.cls-22{stroke-width:0.4px;}</style></defs><title>Zeichenfläche 1</title><line class="cls-1" x1="85.1" y1="126.7" x2="85.1" y2="261.7"/><text class="cls-2" transform="translate(88.73 136.84)">&amp;</text><text class="cls-2" transform="translate(88.73 177.34)">&amp;</text><text class="cls-2" transform="translate(88.73 217.84)">&amp;</text><text class="cls-2" transform="translate(88.73 251.59)">?</text><text class="cls-2" transform="translate(187.88 177.34)">4</text><text class="cls-2" transform="translate(188.16 170.59)">3</text><text class="cls-2" transform="translate(187.88 217.84)">4</text><text class="cls-2" transform="translate(188.16 211.09)">3</text><text class="cls-2" transform="translate(187.88 258.34)">4</text><text class="cls-2" transform="translate(188.16 251.59)">3</text><line class="cls-1" x1="368.2" y1="207.7" x2="368.2" y2="261.7"/><line class="cls-1" x1="368.2" y1="167.2" x2="368.2" y2="180.7"/><text class="cls-2" transform="translate(373.81 177.34)">4</text><text class="cls-2" transform="translate(373.95 170.59)">2</text><text class="cls-2" transform="translate(373.81 217.84)">4</text><text class="cls-2" transform="translate(373.95 211.09)">2</text><text class="cls-2" transform="translate(373.81 258.34)">4</text><text class="cls-2" transform="translate(373.95 251.59)">2</text><line class="cls-1" x1="481.6" y1="207.7" x2="481.6" y2="261.7"/><line class="cls-1" x1="481.6" y1="167.2" x2="481.6" y2="180.7"/><text class="cls-2" transform="translate(485.16 177.34)">4</text><text class="cls-2" transform="translate(485.44 170.59)">3</text><text class="cls-2" transform="translate(485.16 217.84)">4</text><text class="cls-2" transform="translate(485.44 211.09)">3</text><text class="cls-2" transform="translate(485.16 258.34)">4</text><text class="cls-2" transform="translate(485.44 251.59)">3</text><line class="cls-1" x1="654.9" y1="207.7" x2="654.9" y2="261.7"/><line class="cls-1" x1="654.9" y1="167.2" x2="654.9" y2="180.7"/><text class="cls-2" transform="translate(658.55 177.34)">4</text><text class="cls-2" transform="translate(658.55 170.59)">4</text><text class="cls-2" transform="translate(658.55 217.84)">4</text><text class="cls-2" transform="translate(658.55 211.09)">4</text><text class="cls-2" transform="translate(658.55 258.34)">4</text><text class="cls-2" transform="translate(658.55 251.59)">4</text><line class="cls-1" x1="907.8" y1="207.7" x2="907.8" y2="261.7"/><line class="cls-1" x1="907.8" y1="167.2" x2="907.8" y2="180.7"/><line class="cls-1" x1="84.9" y1="126.7" x2="935.4" y2="126.7"/><line class="cls-1" x1="84.9" y1="130.1" x2="935.4" y2="130.1"/><line class="cls-1" x1="84.9" y1="133.5" x2="935.4" y2="133.5"/><line class="cls-1" x1="84.9" y1="136.8" x2="935.4" y2="136.8"/><line class="cls-1" x1="84.9" y1="140.2" x2="935.4" y2="140.2"/><line class="cls-1" x1="84.9" y1="167.2" x2="935.4" y2="167.2"/><line class="cls-1" x1="84.9" y1="170.6" x2="935.4" y2="170.6"/><line class="cls-1" x1="84.9" y1="174" x2="935.4" y2="174"/><line class="cls-1" x1="84.9" y1="177.3" x2="935.4" y2="177.3"/><line class="cls-1" x1="84.9" y1="180.7" x2="935.4" y2="180.7"/><line class="cls-1" x1="84.9" y1="207.7" x2="935.4" y2="207.7"/><line class="cls-1" x1="84.9" y1="211.1" x2="935.4" y2="211.1"/><line class="cls-1" x1="84.9" y1="214.5" x2="935.4" y2="214.5"/><line class="cls-1" x1="84.9" y1="217.8" x2="935.4" y2="217.8"/><line class="cls-1" x1="84.9" y1="221.2" x2="935.4" y2="221.2"/><line class="cls-1" x1="84.9" y1="248.2" x2="935.4" y2="248.2"/><line class="cls-1" x1="84.9" y1="251.6" x2="935.4" y2="251.6"/><line class="cls-1" x1="84.9" y1="255" x2="935.4" y2="255"/><line class="cls-1" x1="84.9" y1="258.3" x2="935.4" y2="258.3"/><line class="cls-1" x1="84.9" y1="261.7" x2="935.4" y2="261.7"/><line class="cls-1" x1="84.9" y1="288.7" x2="935.4" y2="288.7"/><line class="cls-1" x1="84.9" y1="292.1" x2="935.4" y2="292.1"/><line class="cls-1" x1="84.9" y1="295.5" x2="935.4" y2="295.5"/><line class="cls-1" x1="84.9" y1="298.8" x2="935.4" y2="298.8"/><line class="cls-1" x1="84.9" y1="302.2" x2="935.4" y2="302.2"/><line class="cls-1" x1="84.9" y1="329.2" x2="935.4" y2="329.2"/><line class="cls-1" x1="84.9" y1="332.6" x2="935.4" y2="332.6"/><line class="cls-1" x1="84.9" y1="336" x2="935.4" y2="336"/><line class="cls-1" x1="84.9" y1="339.3" x2="935.4" y2="339.3"/><line class="cls-1" x1="84.9" y1="342.7" x2="935.4" y2="342.7"/><line class="cls-1" x1="84.9" y1="369.7" x2="935.4" y2="369.7"/><line class="cls-1" x1="84.9" y1="373.1" x2="935.4" y2="373.1"/><line class="cls-1" x1="84.9" y1="376.5" x2="935.4" y2="376.5"/><line class="cls-1" x1="84.9" y1="379.8" x2="935.4" y2="379.8"/><line class="cls-1" x1="84.9" y1="383.2" x2="935.4" y2="383.2"/><line class="cls-1" x1="84.9" y1="410.2" x2="935.4" y2="410.2"/><line class="cls-1" x1="84.9" y1="413.6" x2="935.4" y2="413.6"/><line class="cls-1" x1="84.9" y1="417" x2="935.4" y2="417"/><line class="cls-1" x1="84.9" y1="420.3" x2="935.4" y2="420.3"/><line class="cls-1" x1="84.9" y1="423.7" x2="935.4" y2="423.7"/><path d="M83.2,207.7c-7.2,11.5,3.1,21.9-3.7,27h.3c8.2-6.8-1.9-15.5,3.4-26.7Z"/><path d="M83.2,261.7c-7.2-11.5,3.1-21.9-3.7-27h.3c8.2,6.8-1.9,15.5,3.4,26.7Z"/><line class="cls-1" x1="683.4" y1="156.8" x2="683.4" y2="158.5"/><line class="cls-3" x1="683.4" y1="158.5" x2="691.7" y2="158.5"/><line class="cls-1" x1="691.7" y1="158.5" x2="691.7" y2="156.8"/><line class="cls-3" x1="617.8" y1="123.2" x2="743.8" y2="123.2"/><polyline class="cls-1" points="254 152.6 280.5 154.6 254 156.5"/><polyline class="cls-1" points="454.5 187.5 396 189.4 454.5 191.4"/><polyline class="cls-1" points="433.5 257.5 409.9 259.5 433.5 261.4"/><line class="cls-1" x1="204" y1="162" x2="220.5" y2="159.5"/><polyline class="cls-1" points="214.2 312.8 252 314.7 214.2 316.7"/><polyline class="cls-1" points="577.7 316.8 608.8 318.8 577.7 320.8"/><polyline class="cls-1" points="868.9 320.2 889 322.2 868.9 324.2"/><text class="cls-2" transform="translate(171.84 177.34)">&amp;</text><text class="cls-2" transform="translate(171.84 217.84)">&amp;</text><text class="cls-2" transform="translate(171.84 258.34)">&amp;</text><text class="cls-4" transform="translate(51.02 78.91)">Bl. 39</text><text class="cls-5" transform="translate(68.28 76.66) scale(0.58)">r</text><text class="cls-4" transform="translate(51.02 136.84)">1</text><text class="cls-4" transform="translate(51.02 177.34)">2</text><text class="cls-4" transform="translate(51.02 217.84)">3</text><text class="cls-4" transform="translate(51.02 258.34)">4</text><path class="cls-6" d="M167.9,167.2l.7,94.5"/><path d="M166.1,208.4c-5.8,15.1,2.4,19.9-3,26.5h.3c6.5-8.5-1.5-11.4,2.7-26.1Z"/><path d="M166.1,261.4c-5.8-15.1,2.4-19.9-3-26.5h.3c6.5,8.5-1.5,11.4,2.7,26.1Z"/><text class="cls-4" transform="translate(51.02 298.84)">5</text><text class="cls-4" transform="translate(51.02 339.34)">6</text><text class="cls-4" transform="translate(51.02 379.84)">7</text><text class="cls-4" transform="translate(51.02 420.34)">8</text><text class="cls-7" transform="translate(168.47 164.97)">3</text><text class="cls-7" transform="translate(89.44 117.72)">52</text><line class="cls-1" x1="324" y1="144.7" x2="324" y2="133.5"/><line class="cls-8" x1="319.1" y1="143.6" x2="325.1" y2="143.6"/><text class="cls-2" transform="translate(319.92 145.28)">œ</text><text class="cls-2" transform="translate(316.13 145.28)">n</text><text class="cls-2" transform="translate(212.63 173.97)">‰</text><text class="cls-2" transform="translate(234.84 172.28)">œ</text><text class="cls-2" transform="translate(230.48 172.28)">#</text><line class="cls-1" x1="239" y1="171.7" x2="239" y2="161.3"/><text class="cls-2" transform="translate(253.83 179.03)">œ</text><text class="cls-2" transform="translate(250.03 179.03)">n</text><line class="cls-1" x1="257.9" y1="178.5" x2="257.9" y2="163"/><path d="M238.8,160.5l19.4,1.7v1.7l-19.4-1.7v-1.7Z"/><text class="cls-2" transform="translate(275.74 173.97)">j</text><line class="cls-1" x1="275.9" y1="181.8" x2="275.9" y2="170.6"/><text class="cls-2" transform="translate(271.83 182.41)">œ</text><text class="cls-2" transform="translate(268.03 182.41)">n</text><text class="cls-2" transform="translate(295.88 173.97)">‰</text><text class="cls-2" transform="translate(319.92 173.97)">œ</text><text class="cls-2" transform="translate(316.13 173.97)">n</text><line class="cls-1" x1="320.1" y1="174.5" x2="320.1" y2="184.9"/><text class="cls-2" transform="translate(320.2 168.91)">-</text><text class="cls-2" transform="translate(343.97 173.97)">œ</text><text class="cls-2" transform="translate(340.03 173.97)">b</text><line class="cls-1" x1="344.2" y1="174.5" x2="344.2" y2="184.9"/><text class="cls-2" transform="translate(344.25 168.91)">-</text><path d="M319.9,184.1h24.4v1.7H319.9Z"/><text class="cls-9" transform="translate(234 155.83)">3</text><text class="cls-7" transform="translate(230.44 139.94)">noch</text><text class="cls-7" transform="translate(251.86 139.94)">ein</text><text class="cls-7" transform="translate(268.92 139.94)">mal</text><text class="cls-7" transform="translate(315.89 158.5)">wird</text><text class="cls-7" transform="translate(341.43 158.5)">mir</text><line class="cls-8" x1="211.8" y1="224.6" x2="217.8" y2="224.6"/><text class="cls-2" transform="translate(212.63 224.59)">œ</text><text class="cls-2" transform="translate(208.83 224.59)">n</text><line class="cls-1" x1="216.7" y1="224" x2="216.7" y2="208.6"/><line class="cls-8" x1="222.9" y1="228" x2="228.9" y2="228"/><line class="cls-8" x1="222.9" y1="224.6" x2="228.9" y2="224.6"/><text class="cls-2" transform="translate(223.73 227.97)">œ</text><text class="cls-2" transform="translate(219.94 227.97)">n</text><line class="cls-1" x1="227.8" y1="227.4" x2="227.8" y2="207.7"/><text class="cls-2" transform="translate(234.84 217.84)">œ</text><text class="cls-2" transform="translate(230.48 217.84)">#</text><line class="cls-1" x1="239" y1="217.3" x2="239" y2="206.9"/><path d="M216.5,207.7l22.6-1.7v1.7l-22.6,1.7Z"/><path d="M216.5,210.3l22.6-1.7v1.7L216.5,212Z"/><text class="cls-2" transform="translate(245.95 246.53)">œ</text><text class="cls-2" transform="translate(242.16 246.53)">n</text><line class="cls-1" x1="250.1" y1="246" x2="250.1" y2="236.3"/><text class="cls-2" transform="translate(271.83 214.47)">œ</text><text class="cls-2" transform="translate(267.89 214.47)">b</text><line class="cls-1" x1="272" y1="215" x2="272" y2="228.7"/><path d="M249.9,235.4l22-7.6v1.7l-22,7.6Z"/><line class="cls-1" x1="296.1" y1="215" x2="296.1" y2="234.2"/><text class="cls-2" transform="translate(295.88 214.47)">œ</text><line class="cls-8" x1="295" y1="224.6" x2="301.1" y2="224.6"/><text class="cls-2" transform="translate(295.88 224.59)">œ</text><text class="cls-2" transform="translate(292.08 224.59)">n</text><text class="cls-2" transform="translate(292.08 214.47)">n</text><text class="cls-2" transform="translate(343.97 214.47)">‰</text><text class="cls-9" transform="translate(224.44 204.77)">3</text><line class="cls-1" x1="300" y1="259.5" x2="300" y2="240.3"/><text class="cls-2" transform="translate(295.88 249.91)">œ</text><text class="cls-2" transform="translate(295.88 260.03)">œ</text><text class="cls-2" transform="translate(288.08 260.03)">n</text><text class="cls-2" transform="translate(291.52 249.91)">#</text><text class="cls-2" transform="translate(343.97 254.97)">‰</text><text class="cls-10" transform="translate(278.52 251.59)">?</text><text class="cls-2" transform="translate(271.83 295.47)">‰</text><line class="cls-1" x1="296.1" y1="291" x2="296.1" y2="310.1"/><text class="cls-2" transform="translate(295.88 290.41)">œ</text><text class="cls-2" transform="translate(295.88 300.53)">œ</text><text class="cls-2" transform="translate(288.08 300.53)">n</text><text class="cls-2" transform="translate(292.08 290.41)">n</text><text class="cls-10" transform="translate(261.98 298.84)">&amp;</text><text class="cls-2" transform="translate(245.95 337.66)">J</text><line class="cls-1" x1="246.2" y1="329.8" x2="246.2" y2="341"/><text class="cls-2" transform="translate(245.95 329.22)">œ</text><text class="cls-2" transform="translate(241.59 329.22)">#</text><text class="cls-2" transform="translate(246.94 325.7)">.</text><text class="cls-2" transform="translate(271.83 335.97)">‰</text><line class="cls-1" x1="296.1" y1="324.7" x2="296.1" y2="346.1"/><line class="cls-8" x1="295" y1="325.8" x2="301.1" y2="325.8"/><text class="cls-2" transform="translate(295.88 324.16)">œ</text><text class="cls-2" transform="translate(295.88 334.28)">œ</text><text class="cls-2" transform="translate(291.94 334.28)">b</text><text class="cls-2" transform="translate(288.08 324.16)">n</text><text class="cls-10" transform="translate(231.75 339.34)">&amp;</text><text class="cls-10" transform="translate(262.83 332.59)">?</text><text class="cls-4" transform="translate(184.5 78.91)">3B</text><rect class="cls-11" x="232.7" y="323.9" width="3.9" height="2.8"/><rect class="cls-11" x="232.7" y="346.4" width="3.9" height="2.8"/><rect class="cls-11" x="262.8" y="283.7" width="3.9" height="2.8"/><rect class="cls-11" x="262.8" y="306.2" width="3.9" height="2.8"/><rect class="cls-11" x="307" y="121.1" width="3.9" height="2.8"/><rect class="cls-11" x="307" y="143.6" width="3.9" height="2.8"/><text class="cls-2" transform="translate(220.36 189.86)">f</text><text class="cls-2" transform="translate(203.77 237.11)">f</text><path class="cls-12" d="M237.8,201.8h4.1"/><path class="cls-12" d="M241.7,201.5v4.2"/><text class="cls-7" transform="translate(207 162.3)">zart</text><text class="cls-2" transform="translate(307.41 154.84)">p</text><text class="cls-2" transform="translate(297.98 315.58)">p</text><text class="cls-7" transform="translate(235.55 322.47)">4</text><text class="cls-7" transform="translate(201.52 316.28)">gilt</text><text class="cls-2" transform="translate(392.91 172.56)">.</text><line class="cls-1" x1="387.6" y1="172.8" x2="387.6" y2="184.1"/><text class="cls-2" transform="translate(387.42 172.28)">œ</text><text class="cls-2" transform="translate(383.63 172.28)">n</text><text class="cls-2" transform="translate(465.02 167.22)">j</text><line class="cls-1" x1="465.2" y1="175.1" x2="465.2" y2="163.8"/><text class="cls-2" transform="translate(461.11 175.66)">œ</text><text class="cls-2" transform="translate(457.31 175.66)">n</text><text class="cls-7" transform="translate(387.14 158.5)">al</text><text class="cls-7" transform="translate(459.51 158.5)">les</text><text class="cls-2" transform="translate(387.42 214.47)">‰</text><text class="cls-2" transform="translate(408.8 212.78)">œ</text><text class="cls-2" transform="translate(405 212.78)">n</text><line class="cls-1" x1="409" y1="213.3" x2="409" y2="225"/><text class="cls-2" transform="translate(419.06 216.16)">œ</text><text class="cls-2" transform="translate(415.27 216.16)">n</text><line class="cls-1" x1="419.3" y1="216.7" x2="419.3" y2="227.6"/><line class="cls-8" x1="428.6" y1="244.8" x2="434.7" y2="244.8"/><line class="cls-8" x1="428.6" y1="241.5" x2="434.7" y2="241.5"/><text class="cls-2" transform="translate(429.47 241.47)">œ</text><text class="cls-2" transform="translate(425.11 241.47)">#</text><line class="cls-1" x1="433.6" y1="240.9" x2="433.6" y2="231.3"/><text class="cls-2" transform="translate(430.45 246.39)">.</text><path d="M408.8,224.2l25,6.3v1.7l-25-6.3Z"/><line class="cls-1" x1="409" y1="224.2" x2="409" y2="227.5"/><line class="cls-1" x1="419.3" y1="226.8" x2="419.3" y2="230.1"/><path d="M408.8,226.7l25,6.3v1.7l-25-6.3Z"/><text class="cls-2" transform="translate(439.31 214.47)">‰</text><line class="cls-1" x1="455.1" y1="206.6" x2="455.1" y2="217.8"/><text class="cls-2" transform="translate(454.92 206.03)">œ</text><text class="cls-2" transform="translate(450.56 206.03)">#</text><text class="cls-2" transform="translate(455.2 202.23)">-</text><text class="cls-9" transform="translate(419.91 204.77)">3</text><text class="cls-9" transform="translate(447.89 226.7)">3</text><text class="cls-10" transform="translate(380.94 258.34)">&amp;</text><text class="cls-10" transform="translate(471.09 339.34)">&amp;</text><text class="cls-10" transform="translate(471.09 379.84)">&amp;</text><text class="cls-10" transform="translate(471.09 420.34)">&amp;</text><text class="cls-4" transform="translate(368.02 78.91)">4</text><text class="cls-7" transform="translate(368.02 166.23)">4</text><rect class="cls-11" x="471.8" y="324.4" width="3.9" height="2.8"/><rect class="cls-11" x="471.8" y="346.9" width="3.9" height="2.8"/><rect class="cls-11" x="471.8" y="364.9" width="3.9" height="2.8"/><rect class="cls-11" x="471.8" y="387.4" width="3.9" height="2.8"/><rect class="cls-11" x="472.4" y="404.9" width="3.9" height="2.8"/><rect class="cls-11" x="472.4" y="427.4" width="3.9" height="2.8"/><text class="cls-2" transform="translate(402.19 238.09)">p</text><text class="cls-7" transform="translate(466.17 398.55)">gilt</text><text class="cls-2" transform="translate(507.23 165.81)">.</text><line class="cls-1" x1="501.9" y1="166.1" x2="501.9" y2="177.3"/><text class="cls-2" transform="translate(501.75 165.53)">œ</text><text class="cls-2" transform="translate(577.41 173.97)">‰</text><text class="cls-2" transform="translate(608.48 173.97)">‰</text><text class="cls-2" transform="translate(636.16 168.91)">j</text><line class="cls-1" x1="636.4" y1="176.8" x2="636.4" y2="165.5"/><text class="cls-2" transform="translate(632.25 177.34)">œ</text><text class="cls-2" transform="translate(628.45 177.34)">n</text><text class="cls-2" transform="translate(632.53 182.41)">-</text><text class="cls-7" transform="translate(497.72 154.28)">grün</text><text class="cls-7" transform="translate(629.34 158.5)">und</text><line class="cls-1" x1="497.7" y1="166" x2="497.7" y2="174.4"/><text class="cls-10" transform="translate(497.53 165.53)">˙</text><text class="cls-13" transform="translate(493.59 165.53)">#</text><text class="cls-2" transform="translate(501.33 214.47)">‰</text><line class="cls-1" x1="536.5" y1="217.3" x2="536.5" y2="206"/><text class="cls-2" transform="translate(532.41 217.84)">œ</text><text class="cls-2" transform="translate(528.61 217.84)">n</text><text class="cls-2" transform="translate(532.69 222.91)">-</text><text class="cls-2" transform="translate(577.41 214.47)">Œ</text><line class="cls-1" x1="505.4" y1="266.2" x2="505.4" y2="243.2"/><text class="cls-2" transform="translate(501.33 254.97)">œ</text><line class="cls-8" x1="500.5" y1="265.1" x2="506.5" y2="265.1"/><text class="cls-2" transform="translate(501.33 266.78)">œ</text><text class="cls-2" transform="translate(497.53 266.78)">n</text><text class="cls-2" transform="translate(497.39 254.97)">b</text><text class="cls-2" transform="translate(501.61 270.44)">-</text><text class="cls-2" transform="translate(554.91 254.97)">‰</text><line class="cls-1" x1="581.5" y1="261.2" x2="581.5" y2="240.3"/><text class="cls-2" transform="translate(577.41 249.91)">œ</text><text class="cls-2" transform="translate(577.41 261.72)">œ</text><text class="cls-2" transform="translate(573.61 261.72)">n</text><text class="cls-2" transform="translate(573.47 249.91)">b</text><text class="cls-2" transform="translate(577.69 265.38)">-</text><text class="cls-2" transform="translate(532.41 295.47)">‰</text><text class="cls-2" transform="translate(554.91 330.91)">œ</text><text class="cls-2" transform="translate(551.11 330.91)">n</text><line class="cls-1" x1="559" y1="330.3" x2="559" y2="320.6"/><text class="cls-2" transform="translate(577.41 302.22)">œ</text><text class="cls-2" transform="translate(573.47 302.22)">b</text><line class="cls-1" x1="577.6" y1="302.8" x2="577.6" y2="313.6"/><path d="M558.8,319.8l18.6-7.1v1.7l-18.6,7.1Z"/><text class="cls-2" transform="translate(608.48 295.47)">‰</text><line class="cls-1" x1="625.6" y1="280.8" x2="625.6" y2="303.9"/><line class="cls-8" x1="624.5" y1="285.3" x2="630.6" y2="285.3"/><line class="cls-8" x1="624.5" y1="282" x2="630.6" y2="282"/><text class="cls-2" transform="translate(625.36 280.28)">œ</text><text class="cls-2" transform="translate(633.8 287.03)">œ</text><text class="cls-2" transform="translate(625.36 292.09)">œ</text><text class="cls-2" transform="translate(621 292.09)">#</text><text class="cls-2" transform="translate(621.56 280.28)">n</text><text class="cls-2" transform="translate(630.98 287.03)">n</text><text class="cls-9" transform="translate(617.63 276.34)">3</text><text class="cls-10" transform="translate(599.48 292.09)">?</text><line class="cls-8" x1="500.5" y1="346.1" x2="506.5" y2="346.1"/><text class="cls-2" transform="translate(501.33 347.78)">œ</text><text class="cls-2" transform="translate(497.53 347.78)">n</text><line class="cls-1" x1="505.4" y1="347.2" x2="505.4" y2="322.6"/><text class="cls-2" transform="translate(511.73 335.97)">œ</text><text class="cls-2" transform="translate(507.8 335.97)">b</text><line class="cls-1" x1="515.8" y1="335.4" x2="515.8" y2="318.3"/><text class="cls-2" transform="translate(522.14 298.84)">œ</text><text class="cls-2" transform="translate(518.34 298.84)">n</text><line class="cls-1" x1="522.3" y1="299.4" x2="522.3" y2="315.8"/><path d="M505.2,321.8l16.9-6.8v1.7l-16.9,6.8v-1.7Z"/><line class="cls-1" x1="505.4" y1="321.8" x2="505.4" y2="320.1"/><line class="cls-1" x1="515.8" y1="317.5" x2="515.8" y2="315.8"/><path d="M505.2,319.2l16.9-6.8v1.7l-16.9,6.8v-1.7Z"/><text class="cls-2" transform="translate(608.48 335.97)">‰</text><line class="cls-1" x1="629.5" y1="347.2" x2="629.5" y2="325.8"/><text class="cls-2" transform="translate(625.36 337.66)">œ</text><text class="cls-2" transform="translate(640.55 339.34)">œ</text><line class="cls-8" x1="624.5" y1="346.1" x2="630.6" y2="346.1"/><text class="cls-2" transform="translate(625.36 347.78)">œ</text><text class="cls-2" transform="translate(621.56 347.78)">n</text><text class="cls-2" transform="translate(621 337.66)">#</text><text class="cls-2" transform="translate(637.03 339.34)">b</text><text class="cls-9" transform="translate(512.44 312.91)">3</text><text class="cls-9" transform="translate(617.63 323.73)">3</text><text class="cls-10" transform="translate(599.48 332.59)">?</text><text class="cls-2" transform="translate(501.33 376.47)">Œ</text><text class="cls-2" transform="translate(554.91 376.47)">‰</text><text class="cls-2" transform="translate(577.41 379.84)">œ</text><text class="cls-2" transform="translate(573.61 379.84)">n</text><line class="cls-1" x1="577.6" y1="380.4" x2="577.6" y2="395"/><text class="cls-2" transform="translate(587.81 383.22)">œ</text><text class="cls-2" transform="translate(584.02 383.22)">n</text><line class="cls-1" x1="588" y1="383.8" x2="588" y2="394.2"/><text class="cls-2" transform="translate(598.08 371.41)">œ</text><text class="cls-2" transform="translate(594.14 371.41)">b</text><line class="cls-1" x1="598.3" y1="372" x2="598.3" y2="393.4"/><path d="M577.4,394.2l21.1-1.7v1.7l-21.1,1.7Z"/><path d="M577.4,391.7l21.1-1.7v1.7l-21.1,1.7Z"/><text class="cls-2" transform="translate(608.48 376.47)">Œ</text><text class="cls-9" transform="translate(588.52 399.39)">3</text><line class="cls-8" x1="500.5" y1="427.1" x2="506.5" y2="427.1"/><text class="cls-2" transform="translate(501.33 428.78)">œ</text><text class="cls-2" transform="translate(497.53 428.78)">n</text><line class="cls-1" x1="505.4" y1="428.2" x2="505.4" y2="406"/><text class="cls-2" transform="translate(511.73 416.97)">œ</text><text class="cls-2" transform="translate(507.8 416.97)">b</text><line class="cls-1" x1="515.8" y1="416.4" x2="515.8" y2="406"/><text class="cls-2" transform="translate(522.14 420.34)">œ</text><text class="cls-2" transform="translate(518.34 420.34)">n</text><line class="cls-1" x1="526.2" y1="419.8" x2="526.2" y2="406"/><path d="M505.2,405.2h21.2v1.7H505.2Z"/><path d="M505.2,407.7h21.2v1.7H505.2Z"/><text class="cls-2" transform="translate(532.41 416.97)">‰</text><text class="cls-2" transform="translate(554.91 416.97)">Œ</text><text class="cls-2" transform="translate(608.48 416.97)">Œ</text><text class="cls-9" transform="translate(512.44 403.05)">3</text><text class="cls-14" transform="translate(533.81 200.41)">3</text><text class="cls-4" transform="translate(481.36 78.91)">5</text><path class="cls-6" d="M481.2,288.7v54"/><path class="cls-6" d="M481.4,369.7v54"/><text class="cls-2" transform="translate(485.3 292.23)">3</text><text class="cls-2" transform="translate(485.86 373.23)">3</text><text class="cls-2" transform="translate(485.86 413.45)">3</text><text class="cls-2" transform="translate(485.3 298.84)">4</text><text class="cls-2" transform="translate(485.16 339.48)">4</text><text class="cls-2" transform="translate(485.72 379.98)">4</text><text class="cls-2" transform="translate(485.3 420.34)">4</text><text class="cls-7" transform="translate(607.78 138.81)">viel langsamer</text><text class="cls-7" transform="translate(608.48 123.2)">rit</text><text class="cls-7" transform="translate(481.36 166.23)">5</text><text class="cls-2" transform="translate(485.44 332.31)">3</text><text class="cls-2" transform="translate(496.27 191.13)">f</text><text class="cls-2" transform="translate(501.61 315.44)">f</text><text class="cls-2" transform="translate(502.03 397.7)">f</text><text class="cls-2" transform="translate(618.75 315.44)">p</text><text class="cls-2" transform="translate(575.72 406.14)">f</text><text class="cls-2" transform="translate(630.7 191.55)">p</text><text class="cls-7" transform="translate(640.55 193.23)">zart</text><path class="cls-12" d="M526.4,401.6h4.1"/><path class="cls-12" d="M530.3,401.4v4.2"/><path class="cls-12" d="M540.3,222.9h4.1"/><path class="cls-12" d="M544.2,222.6v4.2"/><text class="cls-7" transform="translate(559.55 395.31)">1</text><text class="cls-2" transform="translate(674.16 168.91)">œ</text><text class="cls-2" transform="translate(670.36 168.91)">n</text><line class="cls-1" x1="674.4" y1="169.5" x2="674.4" y2="192.5"/><text class="cls-2" transform="translate(693.42 182.41)">œ</text><text class="cls-2" transform="translate(689.06 182.41)">#</text><line class="cls-1" x1="693.6" y1="183" x2="693.6" y2="193.4"/><text class="cls-2" transform="translate(712.69 179.03)">œ</text><text class="cls-2" transform="translate(708.33 179.03)">#</text><line class="cls-1" x1="712.9" y1="179.6" x2="712.9" y2="194.2"/><path d="M674.2,191.7l38.9,1.7v1.7l-38.9-1.7Z"/><text class="cls-2" transform="translate(731.95 173.97)">Œ</text><text class="cls-2" transform="translate(794.97 173.97)">Ó</text><line class="cls-1" x1="784.5" y1="174" x2="789.8" y2="174"/><text class="cls-9" transform="translate(694.13 176.22)">3</text><text class="cls-7" transform="translate(669 154.28)">leuch</text><text class="cls-7" transform="translate(692.2 154.28)">tet</text><text class="cls-7" transform="translate(710.72 154.28)">so!</text><text class="cls-2" transform="translate(674.16 214.47)">‰</text><line class="cls-1" x1="703.6" y1="215" x2="703.6" y2="235.8"/><text class="cls-2" transform="translate(703.41 214.47)">œ</text><text class="cls-2" transform="translate(703.41 217.84)">œ</text><line class="cls-8" x1="702.6" y1="224.6" x2="708.6" y2="224.6"/><text class="cls-2" transform="translate(703.41 226.28)">œ</text><text class="cls-2" transform="translate(699.47 214.47)">b</text><text class="cls-2" transform="translate(695.67 217.84)">n</text><text class="cls-2" transform="translate(794.97 214.47)">Œ</text><line class="cls-8" x1="845.4" y1="224.6" x2="851.5" y2="224.6"/><text class="cls-2" transform="translate(846.28 224.59)">œ</text><text class="cls-2" transform="translate(842.48 224.59)">n</text><line class="cls-1" x1="850.4" y1="224" x2="850.4" y2="208.6"/><line class="cls-8" x1="855.2" y1="228" x2="861.3" y2="228"/><line class="cls-8" x1="855.2" y1="224.6" x2="861.3" y2="224.6"/><text class="cls-2" transform="translate(856.09 227.97)">œ</text><line class="cls-1" x1="860.2" y1="227.4" x2="860.2" y2="207.7"/><text class="cls-2" transform="translate(870.05 217.84)">œ</text><text class="cls-2" transform="translate(865.69 217.84)">#</text><line class="cls-1" x1="874.2" y1="217.3" x2="874.2" y2="206.9"/><path d="M850.2,207.7l24.2-1.7v1.7l-24.2,1.7Z"/><path d="M850.2,210.3l24.2-1.7v1.7L850.2,212Z"/><text class="cls-2" transform="translate(881.86 214.47)">‰</text><text class="cls-9" transform="translate(858.94 203.22)">3</text><text class="cls-2" transform="translate(674.16 254.97)">‰</text><line class="cls-1" x1="703.6" y1="250.5" x2="703.6" y2="269.6"/><text class="cls-2" transform="translate(703.41 249.91)">œ</text><text class="cls-2" transform="translate(703.41 256.66)">œ</text><text class="cls-2" transform="translate(703.41 260.03)">œ</text><text class="cls-2" transform="translate(699.61 260.03)">n</text><text class="cls-2" transform="translate(699.05 249.91)">#</text><text class="cls-2" transform="translate(695.25 256.66)">n</text><text class="cls-2" transform="translate(794.97 254.97)">‰</text><text class="cls-2" transform="translate(810.7 263.41)">œ</text><text class="cls-2" transform="translate(806.91 263.41)">n</text><line class="cls-1" x1="814.8" y1="262.8" x2="814.8" y2="245.7"/><line class="cls-8" x1="821.7" y1="265.1" x2="827.7" y2="265.1"/><text class="cls-2" transform="translate(822.52 266.78)">œ</text><text class="cls-2" transform="translate(818.72 266.78)">n</text><line class="cls-1" x1="826.6" y1="266.2" x2="826.6" y2="244.8"/><text class="cls-2" transform="translate(834.33 254.97)">œ</text><text class="cls-2" transform="translate(830.39 254.97)">b</text><line class="cls-1" x1="838.4" y1="254.4" x2="838.4" y2="244"/><path d="M814.6,244.8l24-1.7v1.7l-24,1.7Z"/><path d="M814.6,247.4l24-1.7v1.7l-24,1.7Z"/><text class="cls-2" transform="translate(851.28 254.97)">‰</text><text class="cls-2" transform="translate(881.86 246.53)">œ</text><line class="cls-1" x1="886" y1="246" x2="886" y2="235.6"/><text class="cls-2" transform="translate(915.61 246.53)"> </text><path d="M885.8,234.7l31-4.4V232l-31,4.4Z"/><text class="cls-9" transform="translate(823.22 240.77)">3</text><text class="cls-10" transform="translate(685.13 251.59)">?</text><text class="cls-2" transform="translate(674.16 295.47)">Œ</text><text class="cls-2" transform="translate(731.95 295.47)">‰</text><line class="cls-1" x1="751.6" y1="289.3" x2="751.6" y2="310.1"/><text class="cls-2" transform="translate(751.36 288.72)">œ</text><text class="cls-2" transform="translate(751.36 300.53)">œ</text><text class="cls-2" transform="translate(747 300.53)">#</text><text class="cls-2" transform="translate(747.56 288.72)">n</text><text class="cls-2" transform="translate(794.97 295.47)">‰</text><line class="cls-8" x1="809.9" y1="305.6" x2="815.9" y2="305.6"/><text class="cls-2" transform="translate(810.7 305.59)">œ</text><text class="cls-2" transform="translate(806.91 305.59)">n</text><line class="cls-1" x1="814.8" y1="305" x2="814.8" y2="289.6"/><line class="cls-8" x1="821.7" y1="309" x2="827.7" y2="309"/><line class="cls-8" x1="821.7" y1="305.6" x2="827.7" y2="305.6"/><text class="cls-2" transform="translate(822.52 308.97)">œ</text><text class="cls-2" transform="translate(818.72 308.97)">n</text><line class="cls-1" x1="826.6" y1="308.4" x2="826.6" y2="288.7"/><text class="cls-2" transform="translate(834.33 298.84)">œ</text><text class="cls-2" transform="translate(829.97 298.84)">#</text><line class="cls-1" x1="838.4" y1="298.3" x2="838.4" y2="287.9"/><path d="M814.6,288.7l24-1.7v1.7l-24,1.7Z"/><path d="M814.6,291.3l24-1.7v1.7l-24,1.7Z"/><text class="cls-2" transform="translate(861.28 327.53)">œ</text><text class="cls-2" transform="translate(857.48 327.53)">n</text><line class="cls-1" x1="865.4" y1="327" x2="865.4" y2="317.1"/><text class="cls-2" transform="translate(881.86 295.47)">œ</text><text class="cls-2" transform="translate(877.92 295.47)">b</text><line class="cls-1" x1="882.1" y1="296" x2="882.1" y2="308.8"/><path d="M865.2,316.3l16.7-8.3v1.7L865.2,318Z"/><text class="cls-9" transform="translate(750.36 284.78)">3</text><text class="cls-9" transform="translate(823.22 285.77)">3</text><text class="cls-10" transform="translate(719.97 298.84)">&amp;</text><text class="cls-2" transform="translate(674.16 335.97)">Œ</text><text class="cls-2" transform="translate(731.95 335.97)">‰</text><line class="cls-1" x1="751.6" y1="326.4" x2="751.6" y2="347.8"/><line class="cls-8" x1="750.5" y1="325.8" x2="756.6" y2="325.8"/><text class="cls-2" transform="translate(751.36 325.84)">œ</text><text class="cls-2" transform="translate(751.36 335.97)">œ</text><text class="cls-2" transform="translate(747.56 335.97)">n</text><text class="cls-2" transform="translate(747 325.84)">#</text><text class="cls-9" transform="translate(748.36 352.42)">3</text><text class="cls-10" transform="translate(720.95 332.59)">?</text><text class="cls-10" transform="translate(843.38 339.34)">&amp;</text><text class="cls-14" transform="translate(694.69 228.95)">3</text><rect class="cls-11" x="785.3" y="243.9" width="3.9" height="2.8"/><rect class="cls-11" x="785.3" y="266.4" width="3.9" height="2.8"/><text class="cls-4" transform="translate(654.75 78.91)">6</text><path class="cls-6" d="M654.8,289v54"/><path class="cls-6" d="M654.8,369.7v54"/><rect class="cls-11" x="687.1" y="242.2" width="3.9" height="2.8"/><rect class="cls-11" x="687.1" y="264.7" width="3.9" height="2.8"/><text class="cls-2" transform="translate(658.97 292.23)">4</text><text class="cls-2" transform="translate(659.53 298.7)">4</text><text class="cls-2" transform="translate(658.97 332.73)">4</text><text class="cls-2" transform="translate(659.25 339.34)">4</text><rect class="cls-11" x="721.1" y="283.5" width="3.9" height="2.8"/><rect class="cls-11" x="721.1" y="306" width="3.9" height="2.8"/><rect class="cls-11" x="844.6" y="323.9" width="3.9" height="2.8"/><rect class="cls-11" x="844.6" y="346.4" width="3.9" height="2.8"/><text class="cls-7" transform="translate(745.17 123.2)">tempo</text><text class="cls-7" transform="translate(654.75 166.23)">6</text><text class="cls-2" transform="translate(738.59 317.41)">f</text><text class="cls-2" transform="translate(798.34 235.42)">f</text><text class="cls-2" transform="translate(880.31 269.17)">S</text><path class="cls-12" d="M873.3,200.8h4.1"/><path class="cls-12" d="M877.2,200.5v4.2"/><text class="cls-7" transform="translate(878.48 256.94)">3</text><path class="cls-6" d="M907.6,288.7v54"/><path d="M676.3,165.5c11.8-5.5,30.9-.6,38.5,10h0c-7.8-9.7-26.9-14.6-38.5-10"/><text class="cls-7" transform="translate(263.39 139.94)">-</text><text class="cls-7" transform="translate(424.76 158.5)">-</text><path d="M503.4,432.2a17.35,17.35,0,0,0,20.8-7.3h0c-4.2,6-13.6,9.4-20.8,7.3"/><path d="M579.5,375.2c4.1-9.1,14.9-15.6,20.7-7.2h0c-5.5-7.6-16.3-1.1-20.7,7.2"/><path d="M503.4,351.9c3.8,10.1,16.5-.6,18.8-14.1h0c-2.8,12.8-15.5,23.5-18.8,14.1"/><path d="M812.8,309.3c6.2,9.6,18.1,6.3,23.6-4.9h0c-5.6,10.4-17.6,13.6-23.6,4.9"/><path d="M812.8,267.1c5.1,10.1,17.4,7.6,23.6-4.2h0c-6.3,10.9-18.7,13.5-23.6,4.2"/><path d="M848.5,228c7.5,7.7,18.4,6,23.8-5.1h0c-5.5,10.3-16.5,12-23.8,5.1"/><path d="M411,209.3c10.3-3.2,20.8,6.5,22.5,19.4h0c-2.2-12.3-12.7-22-22.5-19.4"/><path d="M237,175.7c7.3,12,26,18.1,37,10h0c-10.8,7.3-29.5,1.1-37-10"/><path d="M397.1,171.4c20.7-13.1,84-26,106.9-9.4h0c-22.8-15.7-86.1-2.8-106.9,9.4"/><path d="M214.7,228.4c5.3,9.6,17,6.5,22.2-4.8h0c-5.3,10.4-17,13.5-22.2,4.8"/><text class="cls-15" transform="translate(51.02 46.5)">M 317 Sk4 <tspan class="cls-16" x="61.37" y="0">T</tspan><tspan x="67.37" y="0">. 3B–6</tspan></text><path class="cls-17" d="M843.8,327.5h-1.4v19.1h1.4"/><path class="cls-17" d="M849.9,327.5h1.4v19.1h-1.4"/><path class="cls-17" d="M232.1,327.3h-1.4v19.1h1.4"/><path class="cls-17" d="M238.3,327.3h1.4v19.1h-1.4"/><path class="cls-17" d="M262.3,286.7h-1.4v19.1h1.4"/><path class="cls-17" d="M268.4,286.7h1.4v19.1h-1.4"/><line class="cls-17" x1="83.2" y1="121.1" x2="96.9" y2="265.4"/><line class="cls-17" x1="75.3" y1="256.7" x2="103.1" y2="117.7"/><path class="cls-17" d="M85.4,109.4c-5.3,2-7.9,10.3-9.9,30-2.7,26.3-1.2,41.5-.9,62.3.6,43.3-4.9,59.2,4.3,65.3,5.9,3.9,14.9,1.9,20.5-2.7,10.9-8.9,5.8-25.5,6.5-61,1-48.7,11.7-66.4-1.2-83.3C100,114,91.6,107.1,85.4,109.4Z"/><path class="cls-17" d="M306.2,124.6h-1.4v19.1h1.4"/><path class="cls-17" d="M312.3,124.6h1.4v19.1h-1.4"/><text class="cls-10" transform="translate(305.66 136.84)">&amp;</text><path class="cls-18" d="M287.2,198.4c-26.5-4.5-54.9,21.4-50.1,46,3.7,19.1,26.9,34.9,50.1,30,18.8-4,33.7-20.6,32.7-40C318.9,216,303.7,201.3,287.2,198.4Z"/><path class="cls-12" d="M509.3,156.9h4.1"/><path class="cls-12" d="M513.2,156.6v4.2"/><text class="cls-7" transform="translate(243.48 266.78)">3</text><path class="cls-17" d="M471.6,408.5h-1.4v19.1h1.4"/><path class="cls-17" d="M477.7,408.5h1.4v19.1h-1.4"/><path class="cls-17" d="M471.6,367.8h-1.4v19.1h1.4"/><path class="cls-17" d="M477.7,367.8h1.4v19.1h-1.4"/><path class="cls-17" d="M471.6,327.5h-1.4v19.1h1.4"/><path class="cls-17" d="M477.7,327.5h1.4v19.1h-1.4"/><polyline class="cls-1" points="291.4 236.1 304 236.1 304 234.4"/><text class="cls-7" transform="translate(287.79 240.06)">8</text><polyline class="cls-1" points="291.4 266.8 304 266.8 304 265.1"/><text class="cls-7" transform="translate(287.79 270.72)">8</text><text class="cls-19" transform="translate(369.3 251.59)">4</text><text class="cls-19" transform="translate(369.3 170.17)">4</text><text class="cls-19" transform="translate(369.3 211.09)">4</text><text class="cls-7" transform="translate(527.89 297.5)">1</text><path class="cls-12" d="M518.5,290.3h4.1"/><path class="cls-12" d="M522.4,290v4.2"/><path class="cls-12" d="M524.9,290.3H529"/><path class="cls-12" d="M525,294.2V290"/><path class="cls-18" d="M525.1,201c-5.9-.7-13-1.5-19.1,2.6-4.8,3.2-6.7,8-8.5,12.5-3.2,8-2.2,11.8-3.1,30.1-.8,16.5-1.9,21.1,1.8,24.9,3,3.1,7.2,3.4,13.4,3.6a314.66,314.66,0,0,0,54.2-2.5c16.2-2.1,19.2-2.8,22-5.9,7.4-8.3,3.8-23.7,2-31.5s-3.3-13.9-8.1-19.9C573.2,207.2,557.1,205,525.1,201Z"/><text class="cls-7" transform="translate(540.28 206.59)">u. 1</text><text class="cls-7" transform="translate(609.44 189.86)">1</text><text class="cls-20" transform="translate(609.48 163.84)">1</text><line class="cls-18" x1="493.6" y1="348.3" x2="628.5" y2="275"/><line class="cls-18" x1="526.2" y1="348.3" x2="638.2" y2="283.9"/><line class="cls-18" x1="561" y1="348.3" x2="639.5" y2="297.5"/><line class="cls-18" x1="599.5" y1="348.3" x2="644.8" y2="321.8"/><path class="cls-17" d="M720.7,287h-1.4v19.1h1.4"/><path class="cls-17" d="M726.8,287h1.4v19.1h-1.4"/><path class="cls-17" d="M784.2,246.4h-1.4v19.1h1.4"/><path class="cls-17" d="M790.4,246.4h1.4v19.1h-1.4"/><text class="cls-10" transform="translate(783.52 258.34)">&amp;</text><path class="cls-17" d="M686,247.3h-1.4v12.4H686"/><path class="cls-17" d="M692.1,247.3h1.4v12.4h-1.4"/><path class="cls-18" d="M617.6,367.9c21.1-11,29.4-15.3,32.7-17"/><path d="M652.5,349.8a12.61,12.61,0,0,0-2.1,3.2l-.3-2-1.5-1.4A12.64,12.64,0,0,0,652.5,349.8Z"/><path class="cls-18" d="M685.5,199.9c-3.3,0-8.2.7-12,4-5.4,4.7-5,11.9-5,30,0,27.9-.9,29.1,1.5,32.5,8.6,12.1,32.8,14.7,43,4.5,1.4-1.4,4.1-4.6,5.5-28.5,1.3-22.4,1.9-33.7-3.5-39C706.5,195.1,690.9,198.5,685.5,199.9Z"/><path class="cls-18" d="M813.29,279.89c-2.8,2.4-14.5,12.5-14.5,27.5,0,7,2.6,12.2,5,17,.9,1.8,9.1,17.5,25,27,19.2,11.5,53.61,12.54,76.71-10.16,11.3-19.43,12.33-31.56,12.33-57.73"/><text class="cls-7" transform="translate(853.44 351.23)">3</text><polyline class="cls-21" points="248.5 453.9 248.5 396.7 459.5 396.7 459.5 439.4 689 439.4 689 396.7 866.1 396.7 865.7 453.9"/><text class="cls-15" transform="translate(544.4 463.39)">Sk4 <tspan class="cls-16" x="24.69" y="0">T</tspan><tspan x="30.69" y="0">. 7–12</tspan></text><path class="cls-18" d="M745.5,295.9c-2.1,2.9-1.9,6.8.2,9,2.8,3,8.5,2.5,10.5-.8a6.2,6.2,0,0,0-.8-7.2C753.3,294.3,749,293.7,745.5,295.9Z"/><path class="cls-18" d="M720.3,198c4.6,3.3,10.8,9.2,11.7,11.4,2.7,7.1,3.3,27.6,3.5,35.9.1,2.3.3,13.6,0,22.9-.1,4.8,4.8,9.2,7.3,11.8"/><path d="M744.1,282a12.39,12.39,0,0,0-3.4-1.8l2-.5,1.2-1.6A8.6,8.6,0,0,0,744.1,282Z"/><path class="cls-22" d="M320.75,182a6.45,6.45,0,0,0,5.5-6.75,6.33,6.33,0,0,0-5-5.88,6.41,6.41,0,0,0-7.13,5.5C313.67,178.68,317.05,182.34,320.75,182Z"/><text class="cls-2" transform="translate(878.24 246.7)">n</text><line class="cls-1" x1="602" y1="359.8" x2="602" y2="370.2"/><line class="cls-1" x1="591.9" y1="372.11" x2="591.9" y2="382.51"/><line class="cls-1" x1="581.54" y1="368.95" x2="581.54" y2="379.35"/></svg>