<?xml version="1.0" encoding="utf-8"?>
<!-- Generator: Adobe Illustrator 22.1.0, SVG Export Plug-In . SVG Version: 6.00 Build 0)  -->
<svg version="1.1" id="Ebene_1" xmlns="http://www.w3.org/2000/svg" xmlns:xlink="http://www.w3.org/1999/xlink" x="0px" y="0px"
	 viewBox="0 0 1021 595" style="enable-background:new 0 0 1021 595;" xml:space="preserve">
<style type="text/css">
	.st0{fill:none;stroke:#000000;stroke-width:0.4;}
	.st1{enable-background:new    ;}
	.st2{fill:none;stroke:#000000;stroke-width:0.56;}
	.st3{fill:none;stroke:#000000;stroke-width:0.49;}
	.st4{fill:none;stroke:#000000;stroke-width:0.39;}
	.st5{fill:#FFFFFF;stroke:#000000;stroke-width:0.4;stroke-miterlimit:10;}
	.st6{fill:none;stroke:#000000;stroke-width:0.4;stroke-miterlimit:10;}
</style>
<line class="st0" x1="85.1" y1="167.2" x2="85.1" y2="221.2"/>
<g class="st1">
	<path d="M95,180.7c-0.3,0-0.5,0.1-0.8,0.1c-0.3,0-0.6,0-0.8,0s-0.5-0.1-0.7-0.1c-0.2,0-0.4-0.1-0.6-0.2c-0.7-0.3-1.3-0.7-1.7-1.1
		c-0.4-0.4-0.8-0.8-1-1.2c-0.2-0.4-0.4-0.8-0.5-1.2c-0.1-0.4-0.2-0.9-0.2-1.3c0-0.5,0-0.9,0.1-1.4c0.1-0.5,0.3-0.9,0.5-1.3
		c0.2-0.4,0.5-0.8,0.7-1.2c0.3-0.4,0.6-0.7,0.8-0.9c0.3-0.3,0.7-0.6,1-0.9s0.7-0.6,1.2-0.9c0-0.1,0-0.2,0-0.3c0-0.1,0-0.2,0-0.3
		c0-0.1,0-0.2-0.1-0.3c0-0.1,0-0.3,0-0.4c0-0.1,0-0.2,0-0.4c0-0.2,0-0.4,0-0.7c0-0.3,0-0.6,0-0.9c0-0.4,0.1-0.7,0.1-1.1
		c0-0.2,0.1-0.5,0.3-0.9c0.1-0.3,0.3-0.7,0.5-1c0.2-0.3,0.4-0.6,0.6-0.8c0.2-0.2,0.4-0.4,0.6-0.4c0.1,0,0.2,0.1,0.3,0.2
		c0.1,0.1,0.2,0.3,0.3,0.5c0.1,0.2,0.2,0.4,0.3,0.7c0.1,0.3,0.2,0.5,0.3,0.8c0.1,0.3,0.1,0.5,0.2,0.8c0,0.3,0.1,0.5,0.1,0.7
		c0,0.5,0,0.9-0.1,1.2c0,0.4-0.1,0.7-0.2,1c-0.1,0.3-0.2,0.5-0.3,0.8s-0.2,0.5-0.4,0.7c-0.1,0.2-0.3,0.5-0.4,0.6
		c-0.1,0.2-0.3,0.4-0.5,0.6c-0.2,0.2-0.3,0.4-0.5,0.5c-0.2,0.1-0.3,0.3-0.5,0.4c0.1,0.5,0.2,0.9,0.2,1.2c0,0.2,0.1,0.3,0.1,0.5
		c0,0.2,0,0.3,0.1,0.4s0,0.2,0.1,0.3c0,0.1,0,0.1,0,0.2c0.2,0,0.4,0,0.7,0s0.4,0.1,0.7,0.1c0.2,0,0.4,0.1,0.6,0.2s0.3,0.1,0.4,0.2
		c0.5,0.4,0.8,0.8,1,1.2c0.2,0.5,0.3,0.9,0.4,1.4c0,0.4,0,0.8-0.1,1.1c-0.1,0.4-0.2,0.7-0.5,1.1c-0.2,0.3-0.5,0.7-0.8,1
		s-0.7,0.5-1.2,0.7c0.1,0.4,0.1,0.7,0.1,1c0,0.3,0.1,0.5,0.1,0.8c0,0.3,0.1,0.4,0.1,0.5c0.1,0.5,0.1,1,0.1,1.3
		c0,0.3-0.1,0.6-0.2,0.8c-0.1,0.2-0.2,0.4-0.3,0.5c-0.1,0.2-0.3,0.3-0.5,0.5c-0.2,0.1-0.4,0.2-0.6,0.3c-0.2,0.1-0.5,0.1-0.8,0.2
		c-0.2,0-0.5,0-0.8-0.1c-0.3-0.1-0.6-0.2-0.9-0.3c-0.3-0.1-0.6-0.3-0.8-0.6c-0.2-0.3-0.3-0.6-0.4-0.9c0-0.2,0-0.4,0-0.7
		s0.1-0.4,0.2-0.6c0.1-0.2,0.3-0.3,0.4-0.4s0.4-0.2,0.7-0.2c0.2,0,0.3,0,0.5,0.1s0.3,0.1,0.5,0.2c0.1,0.1,0.3,0.2,0.4,0.4
		c0.1,0.2,0.1,0.3,0.2,0.5c0,0.3-0.1,0.7-0.3,1c-0.2,0.3-0.6,0.5-1.2,0.7c0.1,0.1,0.3,0.2,0.5,0.4s0.6,0.2,0.9,0.2
		c0.4,0,0.8-0.1,1.1-0.4c0.4-0.2,0.6-0.5,0.8-0.9c0.1-0.2,0.2-0.5,0.2-0.9c0-0.4,0-0.7-0.1-1.1c0-0.1,0-0.2-0.1-0.5
		c0-0.2-0.1-0.5-0.1-0.8C95.1,181.5,95.1,181.1,95,180.7z M93.3,175.7c-0.2,0.1-0.4,0.3-0.6,0.5c-0.1,0.2-0.2,0.4-0.3,0.6
		s-0.1,0.4-0.1,0.6c0,0.2,0,0.3,0.1,0.5s0.1,0.3,0.2,0.5s0.2,0.3,0.3,0.4c0.1,0.1,0.2,0.2,0.4,0.3c0,0,0,0,0,0s0,0,0,0s0,0,0,0.1
		c-0.3-0.1-0.5-0.3-0.7-0.5c-0.2-0.2-0.3-0.3-0.4-0.4c-0.1-0.1-0.2-0.3-0.3-0.4c-0.1-0.1-0.1-0.2-0.2-0.3c0-0.1-0.1-0.3-0.1-0.4
		c0-0.1-0.1-0.3-0.1-0.5c0-0.2,0-0.4,0-0.6c0-0.2,0.1-0.4,0.2-0.6s0.2-0.4,0.4-0.6c0.2-0.2,0.4-0.4,0.6-0.6c0.1-0.1,0.2-0.2,0.3-0.2
		c0.1-0.1,0.2-0.1,0.3-0.1c0.1,0,0.2-0.1,0.2-0.1c0.1,0,0.2,0,0.3-0.1l-0.4-2.4c-0.1,0.1-0.3,0.2-0.5,0.4c-0.2,0.2-0.5,0.4-0.8,0.7
		c-0.3,0.3-0.6,0.5-0.9,0.8s-0.5,0.6-0.7,0.9c-0.3,0.5-0.6,1-0.8,1.4c-0.2,0.4-0.2,0.9-0.2,1.4c0,0.6,0.2,1.1,0.5,1.6
		c0.3,0.5,0.7,0.9,1.2,1.2c0.5,0.3,1,0.6,1.7,0.7c0.6,0.1,1.3,0.1,1.9,0c-0.1-0.9-0.3-1.7-0.4-2.4c-0.1-0.3-0.1-0.6-0.1-0.9
		c0-0.3-0.1-0.5-0.1-0.8c0-0.2-0.1-0.5-0.1-0.8C93.8,175.5,93.5,175.6,93.3,175.7z M95.3,163.6c-0.4,0-0.7,0.2-0.9,0.5
		c-0.3,0.3-0.5,0.7-0.6,1.2c-0.2,0.5-0.3,1.1-0.3,1.7c-0.1,0.6,0,1.2,0,1.7c0.3-0.2,0.6-0.5,0.9-0.8c0.3-0.3,0.6-0.7,0.9-1
		c0.3-0.4,0.5-0.7,0.6-1.1s0.2-0.7,0.2-1.1c0-0.1,0-0.2-0.1-0.4s-0.1-0.3-0.1-0.4c-0.1-0.1-0.1-0.2-0.2-0.3
		C95.6,163.7,95.5,163.6,95.3,163.6z M95.3,180.2c0.4-0.1,0.7-0.3,0.9-0.5c0.2-0.2,0.4-0.5,0.5-0.7s0.2-0.5,0.2-0.8
		c0-0.3,0-0.5,0-0.7c0-0.2-0.1-0.4-0.1-0.6c-0.1-0.2-0.2-0.5-0.3-0.7c-0.2-0.2-0.4-0.4-0.7-0.6s-0.7-0.2-1.2-0.2L95.3,180.2z"/>
</g>
<g class="st1">
	<path d="M95,221.2c-0.3,0-0.5,0.1-0.8,0.1c-0.3,0-0.6,0-0.8,0s-0.5-0.1-0.7-0.1c-0.2,0-0.4-0.1-0.6-0.2c-0.7-0.3-1.3-0.7-1.7-1.1
		c-0.4-0.4-0.8-0.8-1-1.2c-0.2-0.4-0.4-0.8-0.5-1.2c-0.1-0.4-0.2-0.9-0.2-1.3c0-0.5,0-0.9,0.1-1.4c0.1-0.5,0.3-0.9,0.5-1.3
		c0.2-0.4,0.5-0.8,0.7-1.2c0.3-0.4,0.6-0.7,0.8-0.9c0.3-0.3,0.7-0.6,1-0.9s0.7-0.6,1.2-0.9c0-0.1,0-0.2,0-0.3c0-0.1,0-0.2,0-0.3
		c0-0.1,0-0.2-0.1-0.3c0-0.1,0-0.3,0-0.4c0-0.1,0-0.2,0-0.4c0-0.2,0-0.4,0-0.7c0-0.3,0-0.6,0-0.9c0-0.4,0.1-0.7,0.1-1.1
		c0-0.2,0.1-0.5,0.3-0.9c0.1-0.3,0.3-0.7,0.5-1c0.2-0.3,0.4-0.6,0.6-0.8c0.2-0.2,0.4-0.4,0.6-0.4c0.1,0,0.2,0.1,0.3,0.2
		c0.1,0.1,0.2,0.3,0.3,0.5c0.1,0.2,0.2,0.4,0.3,0.7c0.1,0.3,0.2,0.5,0.3,0.8c0.1,0.3,0.1,0.5,0.2,0.8c0,0.3,0.1,0.5,0.1,0.7
		c0,0.5,0,0.9-0.1,1.2c0,0.4-0.1,0.7-0.2,1c-0.1,0.3-0.2,0.5-0.3,0.8s-0.2,0.5-0.4,0.7c-0.1,0.2-0.3,0.5-0.4,0.6
		c-0.1,0.2-0.3,0.4-0.5,0.6c-0.2,0.2-0.3,0.4-0.5,0.5c-0.2,0.1-0.3,0.3-0.5,0.4c0.1,0.5,0.2,0.9,0.2,1.2c0,0.2,0.1,0.3,0.1,0.5
		c0,0.2,0,0.3,0.1,0.4s0,0.2,0.1,0.3c0,0.1,0,0.1,0,0.2c0.2,0,0.4,0,0.7,0s0.4,0.1,0.7,0.1c0.2,0,0.4,0.1,0.6,0.2s0.3,0.1,0.4,0.2
		c0.5,0.4,0.8,0.8,1,1.2c0.2,0.5,0.3,0.9,0.4,1.4c0,0.4,0,0.8-0.1,1.1c-0.1,0.4-0.2,0.7-0.5,1.1c-0.2,0.3-0.5,0.7-0.8,1
		s-0.7,0.5-1.2,0.7c0.1,0.4,0.1,0.7,0.1,1c0,0.3,0.1,0.5,0.1,0.8c0,0.3,0.1,0.4,0.1,0.5c0.1,0.5,0.1,1,0.1,1.3
		c0,0.3-0.1,0.6-0.2,0.8c-0.1,0.2-0.2,0.4-0.3,0.5c-0.1,0.2-0.3,0.3-0.5,0.5c-0.2,0.1-0.4,0.2-0.6,0.3c-0.2,0.1-0.5,0.1-0.8,0.2
		c-0.2,0-0.5,0-0.8-0.1c-0.3-0.1-0.6-0.2-0.9-0.3c-0.3-0.1-0.6-0.3-0.8-0.6c-0.2-0.3-0.3-0.6-0.4-0.9c0-0.2,0-0.4,0-0.7
		s0.1-0.4,0.2-0.6c0.1-0.2,0.3-0.3,0.4-0.4s0.4-0.2,0.7-0.2c0.2,0,0.3,0,0.5,0.1s0.3,0.1,0.5,0.2c0.1,0.1,0.3,0.2,0.4,0.4
		c0.1,0.2,0.1,0.3,0.2,0.5c0,0.3-0.1,0.7-0.3,1c-0.2,0.3-0.6,0.5-1.2,0.7c0.1,0.1,0.3,0.2,0.5,0.4s0.6,0.2,0.9,0.2
		c0.4,0,0.8-0.1,1.1-0.4c0.4-0.2,0.6-0.5,0.8-0.9c0.1-0.2,0.2-0.5,0.2-0.9c0-0.4,0-0.7-0.1-1.1c0-0.1,0-0.2-0.1-0.5
		c0-0.2-0.1-0.5-0.1-0.8C95.1,222,95.1,221.6,95,221.2z M93.3,216.2c-0.2,0.1-0.4,0.3-0.6,0.5c-0.1,0.2-0.2,0.4-0.3,0.6
		s-0.1,0.4-0.1,0.6c0,0.2,0,0.3,0.1,0.5s0.1,0.3,0.2,0.5s0.2,0.3,0.3,0.4c0.1,0.1,0.2,0.2,0.4,0.3c0,0,0,0,0,0s0,0,0,0s0,0,0,0.1
		c-0.3-0.1-0.5-0.3-0.7-0.5c-0.2-0.2-0.3-0.3-0.4-0.4c-0.1-0.1-0.2-0.3-0.3-0.4c-0.1-0.1-0.1-0.2-0.2-0.3c0-0.1-0.1-0.3-0.1-0.4
		c0-0.1-0.1-0.3-0.1-0.5c0-0.2,0-0.4,0-0.6c0-0.2,0.1-0.4,0.2-0.6s0.2-0.4,0.4-0.6c0.2-0.2,0.4-0.4,0.6-0.6c0.1-0.1,0.2-0.2,0.3-0.2
		c0.1-0.1,0.2-0.1,0.3-0.1c0.1,0,0.2-0.1,0.2-0.1c0.1,0,0.2,0,0.3-0.1l-0.4-2.4c-0.1,0.1-0.3,0.2-0.5,0.4c-0.2,0.2-0.5,0.4-0.8,0.7
		c-0.3,0.3-0.6,0.5-0.9,0.8s-0.5,0.6-0.7,0.9c-0.3,0.5-0.6,1-0.8,1.4c-0.2,0.4-0.2,0.9-0.2,1.4c0,0.6,0.2,1.1,0.5,1.6
		c0.3,0.5,0.7,0.9,1.2,1.2c0.5,0.3,1,0.6,1.7,0.7c0.6,0.1,1.3,0.1,1.9,0c-0.1-0.9-0.3-1.7-0.4-2.4c-0.1-0.3-0.1-0.6-0.1-0.9
		c0-0.3-0.1-0.5-0.1-0.8c0-0.2-0.1-0.5-0.1-0.8C93.8,216,93.5,216.1,93.3,216.2z M95.3,204.1c-0.4,0-0.7,0.2-0.9,0.5
		c-0.3,0.3-0.5,0.7-0.6,1.2c-0.2,0.5-0.3,1.1-0.3,1.7c-0.1,0.6,0,1.2,0,1.7c0.3-0.2,0.6-0.5,0.9-0.8c0.3-0.3,0.6-0.7,0.9-1
		c0.3-0.4,0.5-0.7,0.6-1.1s0.2-0.7,0.2-1.1c0-0.1,0-0.2-0.1-0.4s-0.1-0.3-0.1-0.4c-0.1-0.1-0.1-0.2-0.2-0.3
		C95.6,204.2,95.5,204.1,95.3,204.1z M95.3,220.7c0.4-0.1,0.7-0.3,0.9-0.5c0.2-0.2,0.4-0.5,0.5-0.7s0.2-0.5,0.2-0.8
		c0-0.3,0-0.5,0-0.7c0-0.2-0.1-0.4-0.1-0.6c-0.1-0.2-0.2-0.5-0.3-0.7c-0.2-0.2-0.4-0.4-0.7-0.6S95,216,94.5,216L95.3,220.7z"/>
</g>
<line class="st0" x1="297.9" y1="167.2" x2="297.9" y2="180.7"/>
<line class="st0" x1="297.9" y1="207.7" x2="297.9" y2="221.2"/>
<line class="st0" x1="455" y1="167.2" x2="455" y2="180.7"/>
<line class="st0" x1="455" y1="207.7" x2="455" y2="221.2"/>
<line class="st0" x1="84.9" y1="126.7" x2="935.4" y2="126.7"/>
<line class="st0" x1="84.9" y1="130.1" x2="935.4" y2="130.1"/>
<line class="st0" x1="84.9" y1="133.5" x2="935.4" y2="133.5"/>
<line class="st0" x1="84.9" y1="136.8" x2="935.4" y2="136.8"/>
<line class="st0" x1="84.9" y1="140.2" x2="935.4" y2="140.2"/>
<line class="st0" x1="84.9" y1="167.2" x2="935.4" y2="167.2"/>
<line class="st0" x1="84.9" y1="170.6" x2="935.4" y2="170.6"/>
<line class="st0" x1="84.9" y1="174" x2="935.4" y2="174"/>
<line class="st0" x1="84.9" y1="177.3" x2="935.4" y2="177.3"/>
<line class="st0" x1="84.9" y1="180.7" x2="935.4" y2="180.7"/>
<line class="st0" x1="84.9" y1="207.7" x2="935.4" y2="207.7"/>
<line class="st0" x1="84.9" y1="211.1" x2="935.4" y2="211.1"/>
<line class="st0" x1="84.9" y1="214.5" x2="935.4" y2="214.5"/>
<line class="st0" x1="84.9" y1="217.8" x2="935.4" y2="217.8"/>
<line class="st0" x1="84.9" y1="221.2" x2="935.4" y2="221.2"/>
<g class="st1">
	<path d="M110.6,177.4c0.1-0.2,0.2-0.5,0.4-0.7s0.4-0.4,0.6-0.5c0.2-0.2,0.5-0.3,0.8-0.4c0.3-0.1,0.6-0.1,0.9-0.1s0.5,0,0.8,0.1
		c0.2,0.1,0.4,0.2,0.5,0.4c0.1,0.2,0.2,0.3,0.2,0.6c0,0.2,0,0.4-0.1,0.7s-0.2,0.5-0.4,0.7c-0.2,0.2-0.4,0.4-0.6,0.6
		s-0.5,0.3-0.8,0.4c-0.3,0.1-0.6,0.1-0.8,0.1c-0.3,0-0.5,0-0.7-0.1c-0.2-0.1-0.4-0.2-0.5-0.4s-0.2-0.3-0.2-0.6
		C110.5,177.8,110.5,177.6,110.6,177.4z"/>
</g>
<g class="st1">
	<path d="M108.9,174.7v7.7h-0.4v-2.9l-1.9,0.5v-7.8h0.3v3L108.9,174.7z M107.1,176.5v2.1l1.5-0.4v-2.1L107.1,176.5z"/>
</g>
<g class="st1">
	<path d="M122.6,180.7c0.1-0.2,0.2-0.5,0.4-0.7s0.4-0.4,0.6-0.5c0.2-0.2,0.5-0.3,0.8-0.4c0.3-0.1,0.6-0.1,0.9-0.1s0.5,0,0.8,0.1
		c0.2,0.1,0.4,0.2,0.5,0.4c0.1,0.2,0.2,0.3,0.2,0.6c0,0.2,0,0.4-0.1,0.7s-0.2,0.5-0.4,0.7c-0.2,0.2-0.4,0.4-0.6,0.6
		s-0.5,0.3-0.8,0.4c-0.3,0.1-0.6,0.1-0.8,0.1c-0.3,0-0.5,0-0.7-0.1c-0.2-0.1-0.4-0.2-0.5-0.4s-0.2-0.3-0.2-0.6
		C122.5,181.2,122.5,181,122.6,180.7z"/>
</g>
<g class="st1">
	<path d="M120.9,178.1v7.7h-0.4v-2.9l-1.9,0.5v-7.8h0.3v3L120.9,178.1z M119,179.9v2.1l1.5-0.4v-2.1L119,179.9z"/>
</g>
<g class="st1">
	<path d="M138.6,180.7c0.1-0.2,0.2-0.5,0.4-0.7s0.4-0.4,0.6-0.5c0.2-0.2,0.5-0.3,0.8-0.4c0.3-0.1,0.6-0.1,0.9-0.1s0.5,0,0.8,0.1
		c0.2,0.1,0.4,0.2,0.5,0.4c0.1,0.2,0.2,0.3,0.2,0.6c0,0.2,0,0.4-0.1,0.7s-0.2,0.5-0.4,0.7c-0.2,0.2-0.4,0.4-0.6,0.6
		s-0.5,0.3-0.8,0.4c-0.3,0.1-0.6,0.1-0.8,0.1c-0.3,0-0.5,0-0.7-0.1c-0.2-0.1-0.4-0.2-0.5-0.4s-0.2-0.3-0.2-0.6
		C138.5,181.2,138.5,181,138.6,180.7z"/>
</g>
<g class="st1">
	<path d="M134.9,175.9v2.4v0.9c0.1-0.1,0.2-0.2,0.4-0.3c0.1-0.1,0.2-0.1,0.3-0.2c0.1,0,0.2-0.1,0.3-0.1c0.1,0,0.2,0,0.4,0
		c0.2,0,0.3,0,0.5,0.1c0.1,0.1,0.3,0.2,0.4,0.3c0.1,0.1,0.2,0.2,0.2,0.4c0.1,0.1,0.1,0.3,0.1,0.4c0,0.1,0,0.3,0,0.4
		s-0.1,0.3-0.1,0.4c-0.1,0.2-0.2,0.3-0.3,0.4c-0.1,0.1-0.3,0.2-0.4,0.3c0,0-0.1,0.1-0.2,0.2c-0.1,0.1-0.2,0.2-0.4,0.3
		s-0.3,0.2-0.5,0.3c-0.2,0.1-0.3,0.2-0.4,0.3c-0.1,0.1-0.3,0.2-0.5,0.3v-8h0.4V175.9z M136,179.5c0-0.1-0.1-0.1-0.2-0.1
		c-0.1,0-0.2-0.1-0.2-0.1c-0.1,0-0.2,0-0.3,0.1c-0.1,0.1-0.2,0.1-0.2,0.3c-0.1,0.2-0.1,0.4-0.1,0.6c0,0.3,0,0.5,0,0.7v1.2
		c0.1-0.1,0.2-0.2,0.3-0.2c0.1-0.1,0.2-0.1,0.2-0.2s0.2-0.2,0.2-0.2c0.1-0.1,0.2-0.2,0.3-0.4c0.1-0.1,0.2-0.3,0.2-0.5
		c0.1-0.2,0.1-0.4,0-0.6C136.2,179.8,136.2,179.6,136,179.5z"/>
</g>
<g class="st1">
	<path d="M154.5,179c0.1-0.2,0.2-0.5,0.4-0.7s0.4-0.4,0.6-0.5c0.2-0.2,0.5-0.3,0.8-0.4c0.3-0.1,0.6-0.1,0.9-0.1s0.5,0,0.8,0.1
		c0.2,0.1,0.4,0.2,0.5,0.4c0.1,0.2,0.2,0.3,0.2,0.6c0,0.2,0,0.4-0.1,0.7s-0.2,0.5-0.4,0.7c-0.2,0.2-0.4,0.4-0.6,0.6
		s-0.5,0.3-0.8,0.4c-0.3,0.1-0.6,0.1-0.8,0.1c-0.3,0-0.5,0-0.7-0.1c-0.2-0.1-0.4-0.2-0.5-0.4s-0.2-0.3-0.2-0.6
		C154.4,179.5,154.4,179.3,154.5,179z"/>
</g>
<g class="st1">
	<path d="M150.6,176.9v-2.2h0.4v2.1l1.3-0.4v-2h0.4v1.8l0.5-0.2v1.4l-0.5,0.2v2l0.5-0.2v1.4l-0.5,0.2v2.2h-0.4v-2.1l-1.3,0.4v2h-0.4
		v-1.9l-0.6,0.2v-1.4l0.6-0.2v-2l-0.6,0.2v-1.4L150.6,176.9z M151,178.2v2l1.3-0.4v-2L151,178.2z"/>
</g>
<line class="st2" x1="169.5" y1="184.1" x2="175.5" y2="184.1"/>
<g class="st1">
	<path d="M170.4,184.1c0.1-0.2,0.2-0.5,0.4-0.7s0.4-0.4,0.6-0.5c0.2-0.2,0.5-0.3,0.8-0.4c0.3-0.1,0.6-0.1,0.9-0.1s0.5,0,0.8,0.1
		c0.2,0.1,0.4,0.2,0.5,0.4c0.1,0.2,0.2,0.3,0.2,0.6c0,0.2,0,0.4-0.1,0.7s-0.2,0.5-0.4,0.7c-0.2,0.2-0.4,0.4-0.6,0.6
		s-0.5,0.3-0.8,0.4c-0.3,0.1-0.6,0.1-0.8,0.1c-0.3,0-0.5,0-0.7-0.1c-0.2-0.1-0.4-0.2-0.5-0.4s-0.2-0.3-0.2-0.6
		C170.3,184.6,170.3,184.3,170.4,184.1z"/>
</g>
<g class="st1">
	<path d="M166.5,182v-2.2h0.4v2.1l1.3-0.4v-2h0.4v1.8l0.5-0.2v1.4l-0.5,0.2v2l0.5-0.2v1.4l-0.5,0.2v2.2h-0.4v-2.1l-1.3,0.4v2h-0.4
		v-1.9l-0.6,0.2v-1.4l0.6-0.2v-2l-0.6,0.2v-1.4L166.5,182z M166.9,183.3v2l1.3-0.4v-2L166.9,183.3z"/>
</g>
<g class="st1">
	<path d="M186.3,179c0.1-0.2,0.2-0.5,0.4-0.7s0.4-0.4,0.6-0.5c0.2-0.2,0.5-0.3,0.8-0.4c0.3-0.1,0.6-0.1,0.9-0.1s0.5,0,0.8,0.1
		c0.2,0.1,0.4,0.2,0.5,0.4c0.1,0.2,0.2,0.3,0.2,0.6c0,0.2,0,0.4-0.1,0.7s-0.2,0.5-0.4,0.7c-0.2,0.2-0.4,0.4-0.6,0.6
		s-0.5,0.3-0.8,0.4c-0.3,0.1-0.6,0.1-0.8,0.1c-0.3,0-0.5,0-0.7-0.1c-0.2-0.1-0.4-0.2-0.5-0.4s-0.2-0.3-0.2-0.6
		C186.2,179.5,186.2,179.3,186.3,179z"/>
</g>
<g class="st1">
	<path d="M184.6,176.4v7.7h-0.4v-2.9l-1.9,0.5v-7.8h0.3v3L184.6,176.4z M182.7,178.2v2.1l1.5-0.4v-2.1L182.7,178.2z"/>
</g>
<g class="st1">
	<path d="M202.3,182.4c0.1-0.2,0.2-0.5,0.4-0.7s0.4-0.4,0.6-0.5c0.2-0.2,0.5-0.3,0.8-0.4c0.3-0.1,0.6-0.1,0.9-0.1s0.5,0,0.8,0.1
		c0.2,0.1,0.4,0.2,0.5,0.4c0.1,0.2,0.2,0.3,0.2,0.6c0,0.2,0,0.4-0.1,0.7s-0.2,0.5-0.4,0.7c-0.2,0.2-0.4,0.4-0.6,0.6
		s-0.5,0.3-0.8,0.4c-0.3,0.1-0.6,0.1-0.8,0.1c-0.3,0-0.5,0-0.7-0.1c-0.2-0.1-0.4-0.2-0.5-0.4s-0.2-0.3-0.2-0.6
		C202.2,182.9,202.2,182.7,202.3,182.4z"/>
</g>
<line class="st2" x1="217.3" y1="184.1" x2="223.3" y2="184.1"/>
<g class="st1">
	<path d="M218.2,185.8c0.1-0.2,0.2-0.5,0.4-0.7s0.4-0.4,0.6-0.5c0.2-0.2,0.5-0.3,0.8-0.4c0.3-0.1,0.6-0.1,0.9-0.1s0.5,0,0.8,0.1
		c0.2,0.1,0.4,0.2,0.5,0.4c0.1,0.2,0.2,0.3,0.2,0.6c0,0.2,0,0.4-0.1,0.7s-0.2,0.5-0.4,0.7c-0.2,0.2-0.4,0.4-0.6,0.6
		s-0.5,0.3-0.8,0.4c-0.3,0.1-0.6,0.1-0.8,0.1c-0.3,0-0.5,0-0.7-0.1c-0.2-0.1-0.4-0.2-0.5-0.4s-0.2-0.3-0.2-0.6
		C218.1,186.3,218.1,186,218.2,185.8z"/>
</g>
<g class="st1">
	<path d="M216.5,183.1v7.7h-0.4V188l-1.9,0.5v-7.8h0.3v3L216.5,183.1z M214.6,184.9v2.1l1.5-0.4v-2.1L214.6,184.9z"/>
</g>
<line class="st2" x1="233.2" y1="184.1" x2="239.2" y2="184.1"/>
<g class="st1">
	<path d="M234.1,185.8c0.1-0.2,0.2-0.5,0.4-0.7s0.4-0.4,0.6-0.5c0.2-0.2,0.5-0.3,0.8-0.4c0.3-0.1,0.6-0.1,0.9-0.1s0.5,0,0.8,0.1
		c0.2,0.1,0.4,0.2,0.5,0.4c0.1,0.2,0.2,0.3,0.2,0.6c0,0.2,0,0.4-0.1,0.7s-0.2,0.5-0.4,0.7c-0.2,0.2-0.4,0.4-0.6,0.6
		s-0.5,0.3-0.8,0.4c-0.3,0.1-0.6,0.1-0.8,0.1c-0.3,0-0.5,0-0.7-0.1c-0.2-0.1-0.4-0.2-0.5-0.4s-0.2-0.3-0.2-0.6
		C234,186.3,234,186,234.1,185.8z"/>
</g>
<g class="st1">
	<path d="M230.4,181v2.4v0.9c0.1-0.1,0.2-0.2,0.4-0.3c0.1-0.1,0.2-0.1,0.3-0.2c0.1,0,0.2-0.1,0.3-0.1c0.1,0,0.2,0,0.4,0
		c0.2,0,0.3,0,0.5,0.1c0.1,0.1,0.3,0.2,0.4,0.3c0.1,0.1,0.2,0.2,0.2,0.4c0.1,0.1,0.1,0.3,0.1,0.4c0,0.1,0,0.3,0,0.4
		s-0.1,0.3-0.1,0.4c-0.1,0.2-0.2,0.3-0.3,0.4c-0.1,0.1-0.3,0.2-0.4,0.3c0,0-0.1,0.1-0.2,0.2c-0.1,0.1-0.2,0.2-0.4,0.3
		s-0.3,0.2-0.5,0.3c-0.2,0.1-0.3,0.2-0.4,0.3c-0.1,0.1-0.3,0.2-0.5,0.3v-8h0.4V181z M231.5,184.6c0-0.1-0.1-0.1-0.2-0.1
		c-0.1,0-0.2-0.1-0.2-0.1c-0.1,0-0.2,0-0.3,0.1c-0.1,0.1-0.2,0.1-0.2,0.3c-0.1,0.2-0.1,0.4-0.1,0.6c0,0.3,0,0.5,0,0.7v1.2
		c0.1-0.1,0.2-0.2,0.3-0.2c0.1-0.1,0.2-0.1,0.2-0.2s0.2-0.2,0.2-0.2c0.1-0.1,0.2-0.2,0.3-0.4c0.1-0.1,0.2-0.3,0.2-0.5
		c0.1-0.2,0.1-0.4,0-0.6C231.7,184.9,231.6,184.7,231.5,184.6z"/>
</g>
<g class="st1">
	<path d="M250,172.3c0.1-0.2,0.2-0.5,0.4-0.7s0.4-0.4,0.6-0.5c0.2-0.2,0.5-0.3,0.8-0.4c0.3-0.1,0.6-0.1,0.9-0.1s0.5,0,0.8,0.1
		c0.2,0.1,0.4,0.2,0.5,0.4c0.1,0.2,0.2,0.3,0.2,0.6c0,0.2,0,0.4-0.1,0.7s-0.2,0.5-0.4,0.7c-0.2,0.2-0.4,0.4-0.6,0.6
		s-0.5,0.3-0.8,0.4c-0.3,0.1-0.6,0.1-0.8,0.1c-0.3,0-0.5,0-0.7-0.1c-0.2-0.1-0.4-0.2-0.5-0.4s-0.2-0.3-0.2-0.6
		C249.9,172.8,249.9,172.5,250,172.3z"/>
</g>
<line class="st2" x1="249" y1="187.5" x2="255.1" y2="187.5"/>
<line class="st2" x1="249" y1="184.1" x2="255.1" y2="184.1"/>
<g class="st1">
	<path d="M250,187.5c0.1-0.2,0.2-0.5,0.4-0.7s0.4-0.4,0.6-0.5c0.2-0.2,0.5-0.3,0.8-0.4c0.3-0.1,0.6-0.1,0.9-0.1s0.5,0,0.8,0.1
		c0.2,0.1,0.4,0.2,0.5,0.4c0.1,0.2,0.2,0.3,0.2,0.6c0,0.2,0,0.4-0.1,0.7s-0.2,0.5-0.4,0.7c-0.2,0.2-0.4,0.4-0.6,0.6
		s-0.5,0.3-0.8,0.4c-0.3,0.1-0.6,0.1-0.8,0.1c-0.3,0-0.5,0-0.7-0.1c-0.2-0.1-0.4-0.2-0.5-0.4s-0.2-0.3-0.2-0.6
		C249.9,188,249.9,187.7,250,187.5z"/>
</g>
<g class="st1">
	<path d="M248.3,184.8v7.7H248v-2.9l-1.9,0.5v-7.8h0.3v3L248.3,184.8z M246.4,186.6v2.1l1.5-0.4v-2.1L246.4,186.6z"/>
</g>
<g class="st1">
	<path d="M266,175.7c0.1-0.2,0.2-0.5,0.4-0.7s0.4-0.4,0.6-0.5c0.2-0.2,0.5-0.3,0.8-0.4c0.3-0.1,0.6-0.1,0.9-0.1s0.5,0,0.8,0.1
		c0.2,0.1,0.4,0.2,0.5,0.4c0.1,0.2,0.2,0.3,0.2,0.6c0,0.2,0,0.4-0.1,0.7s-0.2,0.5-0.4,0.7c-0.2,0.2-0.4,0.4-0.6,0.6
		s-0.5,0.3-0.8,0.4c-0.3,0.1-0.6,0.1-0.8,0.1c-0.3,0-0.5,0-0.7-0.1c-0.2-0.1-0.4-0.2-0.5-0.4s-0.2-0.3-0.2-0.6
		C265.9,176.1,265.9,175.9,266,175.7z"/>
</g>
<line class="st2" x1="265.1" y1="184.1" x2="271.1" y2="184.1"/>
<g class="st1">
	<path d="M266,184.1c0.1-0.2,0.2-0.5,0.4-0.7s0.4-0.4,0.6-0.5c0.2-0.2,0.5-0.3,0.8-0.4c0.3-0.1,0.6-0.1,0.9-0.1s0.5,0,0.8,0.1
		c0.2,0.1,0.4,0.2,0.5,0.4c0.1,0.2,0.2,0.3,0.2,0.6c0,0.2,0,0.4-0.1,0.7s-0.2,0.5-0.4,0.7c-0.2,0.2-0.4,0.4-0.6,0.6
		s-0.5,0.3-0.8,0.4c-0.3,0.1-0.6,0.1-0.8,0.1c-0.3,0-0.5,0-0.7-0.1c-0.2-0.1-0.4-0.2-0.5-0.4s-0.2-0.3-0.2-0.6
		C265.9,184.6,265.9,184.3,266,184.1z"/>
</g>
<g class="st1">
	<path d="M264.3,173v7.7H264v-2.9l-1.9,0.5v-7.8h0.3v3L264.3,173z M262.5,174.8v2.1l1.5-0.4v-2.1L262.5,174.8z"/>
</g>
<g class="st1">
	<path d="M260.5,181.4v7.7h-0.4v-2.9l-1.9,0.5v-7.8h0.3v3L260.5,181.4z M258.7,183.3v2.1l1.5-0.4v-2.1L258.7,183.3z"/>
</g>
<line class="st2" x1="281" y1="187.5" x2="287" y2="187.5"/>
<line class="st2" x1="281" y1="184.1" x2="287" y2="184.1"/>
<g class="st1">
	<path d="M281.9,189.2c0.1-0.2,0.2-0.5,0.4-0.7s0.4-0.4,0.6-0.5c0.2-0.2,0.5-0.3,0.8-0.4c0.3-0.1,0.6-0.1,0.9-0.1s0.5,0,0.8,0.1
		c0.2,0.1,0.4,0.2,0.5,0.4c0.1,0.2,0.2,0.3,0.2,0.6c0,0.2,0,0.4-0.1,0.7s-0.2,0.5-0.4,0.7c-0.2,0.2-0.4,0.4-0.6,0.6
		s-0.5,0.3-0.8,0.4c-0.3,0.1-0.6,0.1-0.8,0.1c-0.3,0-0.5,0-0.7-0.1c-0.2-0.1-0.4-0.2-0.5-0.4s-0.2-0.3-0.2-0.6
		C281.8,189.6,281.8,189.4,281.9,189.2z"/>
</g>
<g class="st1">
	<path d="M278,187.1v-2.2h0.4v2.1l1.3-0.4v-2h0.4v1.8l0.5-0.2v1.4l-0.5,0.2v2l0.5-0.2v1.4l-0.5,0.2v2.2h-0.4v-2.1l-1.3,0.4v2H278
		v-1.9l-0.6,0.2v-1.4l0.6-0.2v-2l-0.6,0.2v-1.4L278,187.1z M278.4,188.3v2l1.3-0.4v-2L278.4,188.3z"/>
</g>
<g class="st1">
	<path d="M111.2,217.9c0.1-0.2,0.2-0.5,0.4-0.7s0.4-0.4,0.6-0.5c0.2-0.2,0.5-0.3,0.8-0.4c0.3-0.1,0.6-0.1,0.9-0.1s0.5,0,0.8,0.1
		c0.2,0.1,0.4,0.2,0.5,0.4c0.1,0.2,0.2,0.3,0.2,0.6c0,0.2,0,0.4-0.1,0.7s-0.2,0.5-0.4,0.7c-0.2,0.2-0.4,0.4-0.6,0.6
		s-0.5,0.3-0.8,0.4c-0.3,0.1-0.6,0.1-0.8,0.1c-0.3,0-0.5,0-0.7-0.1c-0.2-0.1-0.4-0.2-0.5-0.4s-0.2-0.3-0.2-0.6
		C111.1,218.3,111.1,218.1,111.2,217.9z"/>
</g>
<g class="st1">
	<path d="M109.5,215.2v7.7h-0.4V220l-1.9,0.5v-7.8h0.3v3L109.5,215.2z M107.6,217v2.1l1.5-0.4v-2.1L107.6,217z"/>
</g>
<g class="st1">
	<path d="M122.6,214.5c0.1-0.2,0.2-0.5,0.4-0.7s0.4-0.4,0.6-0.5c0.2-0.2,0.5-0.3,0.8-0.4c0.3-0.1,0.6-0.1,0.9-0.1s0.5,0,0.8,0.1
		c0.2,0.1,0.4,0.2,0.5,0.4c0.1,0.2,0.2,0.3,0.2,0.6c0,0.2,0,0.4-0.1,0.7s-0.2,0.5-0.4,0.7c-0.2,0.2-0.4,0.4-0.6,0.6
		s-0.5,0.3-0.8,0.4c-0.3,0.1-0.6,0.1-0.8,0.1c-0.3,0-0.5,0-0.7-0.1c-0.2-0.1-0.4-0.2-0.5-0.4s-0.2-0.3-0.2-0.6
		C122.5,215,122.5,214.7,122.6,214.5z"/>
</g>
<g class="st1">
	<path d="M118.9,209.7v2.4v0.9c0.1-0.1,0.2-0.2,0.4-0.3c0.1-0.1,0.2-0.1,0.3-0.2c0.1,0,0.2-0.1,0.3-0.1c0.1,0,0.2,0,0.4,0
		c0.2,0,0.3,0,0.5,0.1c0.1,0.1,0.3,0.2,0.4,0.3c0.1,0.1,0.2,0.2,0.2,0.4c0.1,0.1,0.1,0.3,0.1,0.4c0,0.1,0,0.3,0,0.4
		s-0.1,0.3-0.1,0.4c-0.1,0.2-0.2,0.3-0.3,0.4c-0.1,0.1-0.3,0.2-0.4,0.3c0,0-0.1,0.1-0.2,0.2c-0.1,0.1-0.2,0.2-0.4,0.3
		s-0.3,0.2-0.5,0.3c-0.2,0.1-0.3,0.2-0.4,0.3c-0.1,0.1-0.3,0.2-0.5,0.3v-8h0.4V209.7z M120,213.2c0-0.1-0.1-0.1-0.2-0.1
		c-0.1,0-0.2-0.1-0.2-0.1c-0.1,0-0.2,0-0.3,0.1c-0.1,0.1-0.2,0.1-0.2,0.3c-0.1,0.2-0.1,0.4-0.1,0.6c0,0.3,0,0.5,0,0.7v1.2
		c0.1-0.1,0.2-0.2,0.3-0.2c0.1-0.1,0.2-0.1,0.2-0.2s0.2-0.2,0.2-0.2c0.1-0.1,0.2-0.2,0.3-0.4c0.1-0.1,0.2-0.3,0.2-0.5
		c0.1-0.2,0.1-0.4,0-0.6C120.2,213.6,120.1,213.4,120,213.2z"/>
</g>
<g class="st1">
	<path d="M138.6,214.5c0.1-0.2,0.2-0.5,0.4-0.7s0.4-0.4,0.6-0.5c0.2-0.2,0.5-0.3,0.8-0.4c0.3-0.1,0.6-0.1,0.9-0.1s0.5,0,0.8,0.1
		c0.2,0.1,0.4,0.2,0.5,0.4c0.1,0.2,0.2,0.3,0.2,0.6c0,0.2,0,0.4-0.1,0.7s-0.2,0.5-0.4,0.7c-0.2,0.2-0.4,0.4-0.6,0.6
		s-0.5,0.3-0.8,0.4c-0.3,0.1-0.6,0.1-0.8,0.1c-0.3,0-0.5,0-0.7-0.1c-0.2-0.1-0.4-0.2-0.5-0.4s-0.2-0.3-0.2-0.6
		C138.5,215,138.5,214.7,138.6,214.5z"/>
</g>
<g class="st1">
	<path d="M136.9,211.8v7.7h-0.4v-2.9l-1.9,0.5v-7.8h0.3v3L136.9,211.8z M135,213.6v2.1l1.5-0.4v-2.1L135,213.6z"/>
</g>
<g class="st1">
	<path d="M154.5,217.9c0.1-0.2,0.2-0.5,0.4-0.7s0.4-0.4,0.6-0.5c0.2-0.2,0.5-0.3,0.8-0.4c0.3-0.1,0.6-0.1,0.9-0.1s0.5,0,0.8,0.1
		c0.2,0.1,0.4,0.2,0.5,0.4c0.1,0.2,0.2,0.3,0.2,0.6c0,0.2,0,0.4-0.1,0.7s-0.2,0.5-0.4,0.7c-0.2,0.2-0.4,0.4-0.6,0.6
		s-0.5,0.3-0.8,0.4c-0.3,0.1-0.6,0.1-0.8,0.1c-0.3,0-0.5,0-0.7-0.1c-0.2-0.1-0.4-0.2-0.5-0.4s-0.2-0.3-0.2-0.6
		C154.4,218.3,154.4,218.1,154.5,217.9z"/>
</g>
<g class="st1">
	<path d="M150.6,215.7v-2.2h0.4v2.1l1.3-0.4v-2h0.4v1.8l0.5-0.2v1.4l-0.5,0.2v2l0.5-0.2v1.4l-0.5,0.2v2.2h-0.4V220l-1.3,0.4v2h-0.4
		v-1.9l-0.6,0.2v-1.4l0.6-0.2v-2l-0.6,0.2v-1.4L150.6,215.7z M151,217v2l1.3-0.4v-2L151,217z"/>
</g>
<g class="st1">
	<path d="M170.4,212.8c0.1-0.2,0.2-0.5,0.4-0.7s0.4-0.4,0.6-0.5c0.2-0.2,0.5-0.3,0.8-0.4c0.3-0.1,0.6-0.1,0.9-0.1s0.5,0,0.8,0.1
		c0.2,0.1,0.4,0.2,0.5,0.4c0.1,0.2,0.2,0.3,0.2,0.6c0,0.2,0,0.4-0.1,0.7s-0.2,0.5-0.4,0.7c-0.2,0.2-0.4,0.4-0.6,0.6
		s-0.5,0.3-0.8,0.4c-0.3,0.1-0.6,0.1-0.8,0.1c-0.3,0-0.5,0-0.7-0.1c-0.2-0.1-0.4-0.2-0.5-0.4s-0.2-0.3-0.2-0.6
		C170.3,213.3,170.3,213,170.4,212.8z"/>
</g>
<g class="st1">
	<path d="M166.5,210.7v-2.2h0.4v2.1l1.3-0.4v-2h0.4v1.8l0.5-0.2v1.4l-0.5,0.2v2l0.5-0.2v1.4l-0.5,0.2v2.2h-0.4v-2.1l-1.3,0.4v2h-0.4
		v-1.9l-0.6,0.2v-1.4l0.6-0.2v-2l-0.6,0.2v-1.4L166.5,210.7z M166.9,211.9v2l1.3-0.4v-2L166.9,211.9z"/>
</g>
<g class="st1">
	<path d="M186.3,216.2c0.1-0.2,0.2-0.5,0.4-0.7s0.4-0.4,0.6-0.5c0.2-0.2,0.5-0.3,0.8-0.4c0.3-0.1,0.6-0.1,0.9-0.1s0.5,0,0.8,0.1
		c0.2,0.1,0.4,0.2,0.5,0.4c0.1,0.2,0.2,0.3,0.2,0.6c0,0.2,0,0.4-0.1,0.7s-0.2,0.5-0.4,0.7c-0.2,0.2-0.4,0.4-0.6,0.6
		s-0.5,0.3-0.8,0.4c-0.3,0.1-0.6,0.1-0.8,0.1c-0.3,0-0.5,0-0.7-0.1c-0.2-0.1-0.4-0.2-0.5-0.4s-0.2-0.3-0.2-0.6
		C186.2,216.6,186.2,216.4,186.3,216.2z"/>
</g>
<g class="st1">
	<path d="M184.6,213.5v7.7h-0.4v-2.9l-1.9,0.5V211h0.3v3L184.6,213.5z M182.7,215.3v2.1l1.5-0.4v-2.1L182.7,215.3z"/>
</g>
<g class="st1">
	<path d="M202.3,212.8c0.1-0.2,0.2-0.5,0.4-0.7s0.4-0.4,0.6-0.5c0.2-0.2,0.5-0.3,0.8-0.4c0.3-0.1,0.6-0.1,0.9-0.1s0.5,0,0.8,0.1
		c0.2,0.1,0.4,0.2,0.5,0.4c0.1,0.2,0.2,0.3,0.2,0.6c0,0.2,0,0.4-0.1,0.7s-0.2,0.5-0.4,0.7c-0.2,0.2-0.4,0.4-0.6,0.6
		s-0.5,0.3-0.8,0.4c-0.3,0.1-0.6,0.1-0.8,0.1c-0.3,0-0.5,0-0.7-0.1c-0.2-0.1-0.4-0.2-0.5-0.4s-0.2-0.3-0.2-0.6
		C202.2,213.3,202.2,213,202.3,212.8z"/>
</g>
<g class="st1">
	<path d="M200.6,210.1v7.7h-0.4V215l-1.9,0.5v-7.8h0.3v3L200.6,210.1z M198.7,211.9v2.1l1.5-0.4v-2.1L198.7,211.9z"/>
</g>
<g class="st1">
	<path d="M218.2,209.4c0.1-0.2,0.2-0.5,0.4-0.7s0.4-0.4,0.6-0.5c0.2-0.2,0.5-0.3,0.8-0.4c0.3-0.1,0.6-0.1,0.9-0.1s0.5,0,0.8,0.1
		c0.2,0.1,0.4,0.2,0.5,0.4c0.1,0.2,0.2,0.3,0.2,0.6c0,0.2,0,0.4-0.1,0.7s-0.2,0.5-0.4,0.7c-0.2,0.2-0.4,0.4-0.6,0.6
		s-0.5,0.3-0.8,0.4c-0.3,0.1-0.6,0.1-0.8,0.1c-0.3,0-0.5,0-0.7-0.1c-0.2-0.1-0.4-0.2-0.5-0.4s-0.2-0.3-0.2-0.6
		C218.1,209.9,218.1,209.7,218.2,209.4z"/>
</g>
<g class="st1">
	<path d="M214.5,204.6v2.4v0.9c0.1-0.1,0.2-0.2,0.4-0.3c0.1-0.1,0.2-0.1,0.3-0.2c0.1,0,0.2-0.1,0.3-0.1c0.1,0,0.2,0,0.4,0
		c0.2,0,0.3,0,0.5,0.1c0.1,0.1,0.3,0.2,0.4,0.3c0.1,0.1,0.2,0.2,0.2,0.4c0.1,0.1,0.1,0.3,0.1,0.4c0,0.1,0,0.3,0,0.4
		s-0.1,0.3-0.1,0.4c-0.1,0.2-0.2,0.3-0.3,0.4c-0.1,0.1-0.3,0.2-0.4,0.3c0,0-0.1,0.1-0.2,0.2c-0.1,0.1-0.2,0.2-0.4,0.3
		s-0.3,0.2-0.5,0.3c-0.2,0.1-0.3,0.2-0.4,0.3c-0.1,0.1-0.3,0.2-0.5,0.3v-8h0.4V204.6z M215.6,208.2c0-0.1-0.1-0.1-0.2-0.1
		c-0.1,0-0.2-0.1-0.2-0.1c-0.1,0-0.2,0-0.3,0.1c-0.1,0.1-0.2,0.1-0.2,0.3c-0.1,0.2-0.1,0.4-0.1,0.6c0,0.3,0,0.5,0,0.7v1.2
		c0.1-0.1,0.2-0.2,0.3-0.2c0.1-0.1,0.2-0.1,0.2-0.2s0.2-0.2,0.2-0.2c0.1-0.1,0.2-0.2,0.3-0.4c0.1-0.1,0.2-0.3,0.2-0.5
		c0.1-0.2,0.1-0.4,0-0.6C215.8,208.5,215.7,208.3,215.6,208.2z"/>
</g>
<g class="st1">
	<path d="M234.1,209.4c0.1-0.2,0.2-0.5,0.4-0.7s0.4-0.4,0.6-0.5c0.2-0.2,0.5-0.3,0.8-0.4c0.3-0.1,0.6-0.1,0.9-0.1s0.5,0,0.8,0.1
		c0.2,0.1,0.4,0.2,0.5,0.4c0.1,0.2,0.2,0.3,0.2,0.6c0,0.2,0,0.4-0.1,0.7s-0.2,0.5-0.4,0.7c-0.2,0.2-0.4,0.4-0.6,0.6
		s-0.5,0.3-0.8,0.4c-0.3,0.1-0.6,0.1-0.8,0.1c-0.3,0-0.5,0-0.7-0.1c-0.2-0.1-0.4-0.2-0.5-0.4s-0.2-0.3-0.2-0.6
		C234,209.9,234,209.7,234.1,209.4z"/>
</g>
<g class="st1">
	<path d="M232.4,206.8v7.7h-0.4v-2.9l-1.9,0.5v-7.8h0.3v3L232.4,206.8z M230.5,208.6v2.1l1.5-0.4v-2.1L230.5,208.6z"/>
</g>
<g class="st1">
	<path d="M250,207.7c0.1-0.2,0.2-0.5,0.4-0.7s0.4-0.4,0.6-0.5c0.2-0.2,0.5-0.3,0.8-0.4c0.3-0.1,0.6-0.1,0.9-0.1s0.5,0,0.8,0.1
		c0.2,0.1,0.4,0.2,0.5,0.4c0.1,0.2,0.2,0.3,0.2,0.6c0,0.2,0,0.4-0.1,0.7s-0.2,0.5-0.4,0.7c-0.2,0.2-0.4,0.4-0.6,0.6
		s-0.5,0.3-0.8,0.4c-0.3,0.1-0.6,0.1-0.8,0.1c-0.3,0-0.5,0-0.7-0.1c-0.2-0.1-0.4-0.2-0.5-0.4s-0.2-0.3-0.2-0.6
		C249.9,208.2,249.9,208,250,207.7z"/>
</g>
<g class="st1">
	<path d="M250,222.9c0.1-0.2,0.2-0.5,0.4-0.7s0.4-0.4,0.6-0.5c0.2-0.2,0.5-0.3,0.8-0.4c0.3-0.1,0.6-0.1,0.9-0.1s0.5,0,0.8,0.1
		c0.2,0.1,0.4,0.2,0.5,0.4c0.1,0.2,0.2,0.3,0.2,0.6c0,0.2,0,0.4-0.1,0.7s-0.2,0.5-0.4,0.7c-0.2,0.2-0.4,0.4-0.6,0.6
		s-0.5,0.3-0.8,0.4c-0.3,0.1-0.6,0.1-0.8,0.1c-0.3,0-0.5,0-0.7-0.1c-0.2-0.1-0.4-0.2-0.5-0.4s-0.2-0.3-0.2-0.6
		C249.9,223.4,249.9,223.2,250,222.9z"/>
</g>
<g class="st1">
	<path d="M248.3,220.3v7.7H248v-2.9l-1.9,0.5v-7.8h0.3v3L248.3,220.3z M246.4,222.1v2.1l1.5-0.4v-2.1L246.4,222.1z"/>
</g>
<g class="st1">
	<path d="M248.3,205.1v7.7H248v-2.9l-1.9,0.5v-7.8h0.3v3L248.3,205.1z M246.4,206.9v2.1l1.5-0.4v-2.1L246.4,206.9z"/>
</g>
<g class="st1">
	<path d="M266,211.1c0.1-0.2,0.2-0.5,0.4-0.7s0.4-0.4,0.6-0.5c0.2-0.2,0.5-0.3,0.8-0.4c0.3-0.1,0.6-0.1,0.9-0.1s0.5,0,0.8,0.1
		c0.2,0.1,0.4,0.2,0.5,0.4c0.1,0.2,0.2,0.3,0.2,0.6c0,0.2,0,0.4-0.1,0.7s-0.2,0.5-0.4,0.7c-0.2,0.2-0.4,0.4-0.6,0.6
		s-0.5,0.3-0.8,0.4c-0.3,0.1-0.6,0.1-0.8,0.1c-0.3,0-0.5,0-0.7-0.1c-0.2-0.1-0.4-0.2-0.5-0.4s-0.2-0.3-0.2-0.6
		C265.9,211.6,265.9,211.3,266,211.1z"/>
</g>
<g class="st1">
	<path d="M266,219.5c0.1-0.2,0.2-0.5,0.4-0.7s0.4-0.4,0.6-0.5c0.2-0.2,0.5-0.3,0.8-0.4c0.3-0.1,0.6-0.1,0.9-0.1s0.5,0,0.8,0.1
		c0.2,0.1,0.4,0.2,0.5,0.4c0.1,0.2,0.2,0.3,0.2,0.6c0,0.2,0,0.4-0.1,0.7s-0.2,0.5-0.4,0.7c-0.2,0.2-0.4,0.4-0.6,0.6
		s-0.5,0.3-0.8,0.4c-0.3,0.1-0.6,0.1-0.8,0.1c-0.3,0-0.5,0-0.7-0.1c-0.2-0.1-0.4-0.2-0.5-0.4s-0.2-0.3-0.2-0.6
		C265.9,220,265.9,219.8,266,219.5z"/>
</g>
<g class="st1">
	<path d="M264.3,208.4v7.7H264v-2.9l-1.9,0.5v-7.8h0.3v3L264.3,208.4z M262.5,210.3v2.1l1.5-0.4v-2.1L262.5,210.3z"/>
</g>
<g class="st1">
	<path d="M260.5,216.9v7.7h-0.4v-2.9l-1.9,0.5v-7.8h0.3v3L260.5,216.9z M258.7,218.7v2.1l1.5-0.4v-2.1L258.7,218.7z"/>
</g>
<g class="st1">
	<path d="M281.9,207.7c0.1-0.2,0.2-0.5,0.4-0.7s0.4-0.4,0.6-0.5c0.2-0.2,0.5-0.3,0.8-0.4c0.3-0.1,0.6-0.1,0.9-0.1s0.5,0,0.8,0.1
		c0.2,0.1,0.4,0.2,0.5,0.4c0.1,0.2,0.2,0.3,0.2,0.6c0,0.2,0,0.4-0.1,0.7s-0.2,0.5-0.4,0.7c-0.2,0.2-0.4,0.4-0.6,0.6
		s-0.5,0.3-0.8,0.4c-0.3,0.1-0.6,0.1-0.8,0.1c-0.3,0-0.5,0-0.7-0.1c-0.2-0.1-0.4-0.2-0.5-0.4s-0.2-0.3-0.2-0.6
		C281.8,208.2,281.8,208,281.9,207.7z"/>
</g>
<g class="st1">
	<path d="M278,205.6v-2.2h0.4v2.1l1.3-0.4v-2h0.4v1.8l0.5-0.2v1.4l-0.5,0.2v2l0.5-0.2v1.4l-0.5,0.2v2.2h-0.4v-2.1l-1.3,0.4v2H278
		v-1.9l-0.6,0.2v-1.4l0.6-0.2v-2l-0.6,0.2v-1.4L278,205.6z M278.4,206.9v2l1.3-0.4v-2L278.4,206.9z"/>
</g>
<g class="st1">
	<path d="M51.3,78.9l1-4.8h1.5c0.3,0,0.5,0,0.6,0c0.2,0,0.4,0.1,0.5,0.2c0.1,0.1,0.3,0.2,0.3,0.4c0.1,0.2,0.1,0.3,0.1,0.5
		c0,0.3-0.1,0.5-0.2,0.7s-0.4,0.4-0.7,0.5c0.3,0.1,0.5,0.2,0.6,0.4c0.1,0.2,0.2,0.4,0.2,0.6c0,0.3-0.1,0.5-0.2,0.8s-0.4,0.4-0.6,0.6
		s-0.5,0.2-0.8,0.2H51.3z M52.1,78.4h1.1c0.3,0,0.5,0,0.6,0c0.2,0,0.4-0.1,0.5-0.2c0.1-0.1,0.2-0.2,0.3-0.3c0.1-0.1,0.1-0.3,0.1-0.4
		c0-0.2-0.1-0.4-0.2-0.5c-0.1-0.1-0.4-0.2-0.8-0.2h-1.2L52.1,78.4z M52.5,76.1h1c0.5,0,0.8-0.1,1-0.2c0.2-0.1,0.3-0.4,0.3-0.7
		c0-0.1,0-0.3-0.1-0.4c-0.1-0.1-0.1-0.2-0.3-0.2c-0.1,0-0.3-0.1-0.6-0.1h-1L52.5,76.1z"/>
	<path d="M55.7,78.9l1-4.8h0.6l-1,4.8H55.7z"/>
	<path d="M57.4,78.9l0.1-0.7h0.7l-0.1,0.7H57.4z"/>
	<path d="M61.1,77.6l0.6-0.1c0,0.3,0.1,0.6,0.3,0.7c0.2,0.1,0.3,0.2,0.6,0.2c0.3,0,0.5-0.1,0.8-0.3c0.2-0.2,0.3-0.5,0.3-0.7
		c0-0.2-0.1-0.4-0.2-0.6c-0.2-0.2-0.4-0.2-0.6-0.2c0,0-0.1,0-0.2,0l0.1-0.5c0.1,0,0.1,0,0.2,0c0.3,0,0.6-0.1,0.8-0.2
		s0.3-0.4,0.3-0.6c0-0.2-0.1-0.4-0.2-0.6c-0.2-0.2-0.3-0.2-0.6-0.2c-0.2,0-0.4,0.1-0.6,0.2c-0.2,0.2-0.3,0.4-0.3,0.7l-0.6-0.1
		c0.1-0.4,0.3-0.7,0.6-0.9c0.3-0.2,0.6-0.3,1-0.3c0.4,0,0.7,0.1,1,0.4s0.4,0.5,0.4,0.9c0,0.3-0.1,0.5-0.2,0.7
		c-0.1,0.2-0.3,0.3-0.6,0.5c0.2,0.1,0.3,0.2,0.4,0.4c0.1,0.2,0.1,0.3,0.1,0.5c0,0.4-0.2,0.8-0.5,1.1S63.1,79,62.7,79
		c-0.4,0-0.8-0.1-1.1-0.4C61.3,78.4,61.2,78.1,61.1,77.6z"/>
	<path d="M66,76.3c-0.2-0.1-0.3-0.2-0.4-0.4c-0.1-0.2-0.1-0.3-0.1-0.5c0-0.3,0.1-0.6,0.3-0.8c0.3-0.3,0.7-0.5,1.1-0.5
		c0.4,0,0.8,0.1,1,0.3c0.2,0.2,0.4,0.5,0.4,0.8c0,0.2-0.1,0.4-0.2,0.6c-0.1,0.2-0.3,0.3-0.6,0.5c0.2,0.1,0.3,0.2,0.4,0.4
		c0.1,0.2,0.2,0.4,0.2,0.6c0,0.4-0.2,0.8-0.5,1.2c-0.3,0.3-0.7,0.5-1.2,0.5c-0.4,0-0.7-0.1-1-0.4c-0.3-0.3-0.4-0.6-0.4-0.9
		c0-0.4,0.1-0.7,0.3-0.9C65.5,76.5,65.7,76.3,66,76.3z M65.6,77.7c0,0.1,0,0.3,0.1,0.4c0.1,0.1,0.2,0.2,0.3,0.3s0.3,0.1,0.5,0.1
		c0.3,0,0.6-0.2,0.8-0.5c0.2-0.2,0.2-0.5,0.2-0.8c0-0.2-0.1-0.4-0.2-0.5c-0.1-0.1-0.3-0.2-0.6-0.2c-0.3,0-0.6,0.1-0.8,0.3
		S65.6,77.4,65.6,77.7z M66.1,75.4c0,0.2,0.1,0.4,0.2,0.5c0.1,0.1,0.3,0.2,0.5,0.2c0.3,0,0.5-0.1,0.7-0.2c0.2-0.2,0.3-0.4,0.3-0.6
		c0-0.2-0.1-0.4-0.2-0.5c-0.1-0.1-0.3-0.2-0.5-0.2c-0.2,0-0.3,0-0.5,0.1c-0.1,0.1-0.3,0.2-0.3,0.3C66.1,75.1,66.1,75.3,66.1,75.4z"
		/>
</g>
<g class="st1">
	<path d="M68.9,76.7l-0.3-2h0.3l0.2,1.1c0,0.1,0,0.3,0.1,0.6c0.1-0.1,0.2-0.3,0.3-0.5l0.7-1.2h0.4l-1.2,2H68.9z"/>
</g>
<g class="st1">
	<path d="M51.5,135.5l0.6-0.1c0,0.1,0,0.1,0,0.2c0,0.1,0,0.3,0.1,0.4c0.1,0.1,0.2,0.3,0.3,0.3c0.1,0.1,0.3,0.1,0.4,0.1
		c0.2,0,0.4-0.1,0.6-0.2c0.2-0.1,0.3-0.3,0.5-0.6s0.2-0.5,0.2-0.7c0-0.3-0.1-0.5-0.2-0.6c-0.2-0.2-0.4-0.2-0.6-0.2
		c-0.2,0-0.3,0-0.5,0.1c-0.2,0.1-0.3,0.2-0.4,0.4l-0.5,0l0.7-2.5h2.4l-0.1,0.5h-1.8l-0.4,1.2c0.1-0.1,0.3-0.2,0.4-0.2
		s0.3-0.1,0.4-0.1c0.4,0,0.7,0.1,0.9,0.4s0.4,0.6,0.4,1c0,0.4-0.1,0.7-0.2,1c-0.2,0.3-0.4,0.6-0.7,0.7s-0.6,0.3-0.9,0.3
		c-0.3,0-0.5-0.1-0.7-0.2c-0.2-0.1-0.4-0.3-0.5-0.5S51.5,135.8,51.5,135.5C51.5,135.5,51.5,135.5,51.5,135.5z"/>
</g>
<g class="st1">
	<path d="M52.4,174.5c0.2-0.1,0.3-0.2,0.5-0.3c0.2-0.1,0.3-0.1,0.5-0.1c0.4,0,0.7,0.1,0.9,0.4c0.2,0.2,0.4,0.6,0.4,1
		c0,0.5-0.2,1-0.5,1.4c-0.3,0.3-0.7,0.5-1.1,0.5c-0.4,0-0.7-0.1-1-0.4c-0.3-0.3-0.4-0.7-0.4-1.3c0-0.5,0.1-1,0.3-1.5
		c0.1-0.4,0.3-0.7,0.5-1c0.2-0.3,0.4-0.4,0.6-0.6c0.2-0.1,0.5-0.2,0.7-0.2c0.3,0,0.6,0.1,0.8,0.3c0.2,0.2,0.3,0.5,0.4,0.9l-0.6,0.1
		c0-0.3-0.1-0.5-0.2-0.6c-0.1-0.1-0.3-0.2-0.4-0.2c-0.2,0-0.4,0.1-0.5,0.2c-0.2,0.1-0.3,0.3-0.5,0.6
		C52.5,174.1,52.4,174.3,52.4,174.5z M52.2,176c0,0.3,0.1,0.5,0.3,0.7c0.2,0.2,0.4,0.3,0.6,0.3c0.1,0,0.3-0.1,0.5-0.2
		c0.2-0.1,0.3-0.3,0.4-0.5c0.1-0.2,0.2-0.5,0.2-0.7c0-0.3-0.1-0.5-0.2-0.7c-0.2-0.2-0.4-0.3-0.6-0.3c-0.3,0-0.5,0.1-0.7,0.4
		C52.3,175.2,52.2,175.6,52.2,176z"/>
</g>
<g class="st1">
	<path d="M98.4,162.3l1.1-0.5h0.1v3.8c0,0.3,0,0.4,0,0.5c0,0.1,0.1,0.1,0.1,0.1s0.2,0.1,0.4,0.1v0.1h-1.7v-0.1c0.2,0,0.3,0,0.4-0.1
		c0.1,0,0.1-0.1,0.1-0.1c0-0.1,0-0.2,0-0.5v-2.4c0-0.3,0-0.5,0-0.6c0-0.1,0-0.1-0.1-0.2s-0.1,0-0.1,0c-0.1,0-0.2,0-0.3,0.1
		L98.4,162.3z"/>
</g>
<g class="st1">
	<path d="M52,217.8c0.1-0.3,0.2-0.7,0.3-1.2c0.2-0.6,0.5-1.1,0.8-1.6c0.3-0.5,0.7-1,1.1-1.4h-2.4l0.1-0.5H55l-0.1,0.5
		c-0.5,0.5-1,1.1-1.4,1.8c-0.5,0.8-0.8,1.7-0.9,2.4H52z"/>
</g>
<g class="st1">
	<path d="M93.7,196.9c0.1-0.3,0.3-0.5,0.5-0.7c0.2-0.2,0.4-0.2,0.7-0.2c0.4,0,0.6,0.1,0.8,0.3c0.1,0.2,0.2,0.4,0.2,0.6
		c0,0.3-0.2,0.7-0.6,1c0.3,0.1,0.5,0.3,0.6,0.5c0.1,0.2,0.2,0.4,0.2,0.7c0,0.4-0.1,0.7-0.4,1c-0.3,0.4-0.8,0.6-1.4,0.6
		c-0.3,0-0.5,0-0.6-0.1c-0.1-0.1-0.2-0.2-0.2-0.2c0-0.1,0-0.1,0.1-0.2c0.1,0,0.1-0.1,0.2-0.1c0.1,0,0.1,0,0.2,0c0,0,0.1,0.1,0.3,0.1
		s0.2,0.1,0.3,0.1c0.1,0,0.2,0,0.3,0c0.2,0,0.4-0.1,0.6-0.3s0.2-0.4,0.2-0.6c0-0.2,0-0.3-0.1-0.5c-0.1-0.1-0.1-0.2-0.2-0.3
		c-0.1-0.1-0.2-0.2-0.4-0.2s-0.3-0.1-0.5-0.1h-0.1v-0.1c0.2,0,0.3-0.1,0.5-0.2s0.3-0.2,0.4-0.4c0.1-0.1,0.1-0.3,0.1-0.5
		c0-0.2-0.1-0.4-0.2-0.5c-0.1-0.1-0.3-0.2-0.5-0.2c-0.3,0-0.6,0.2-0.9,0.5L93.7,196.9z"/>
</g>
<g>
	<path d="M77.9,144.6h-1.6l-2-2.8c-0.1,0-0.3,0-0.4,0c0,0-0.1,0-0.1,0c0,0-0.1,0-0.1,0v1.7c0,0.4,0,0.6,0.1,0.7
		c0.1,0.1,0.3,0.2,0.5,0.2h0.2v0.2H72v-0.2h0.2c0.3,0,0.4-0.1,0.5-0.2c0.1-0.1,0.1-0.3,0.1-0.6v-3.8c0-0.4,0-0.6-0.1-0.7
		c-0.1-0.1-0.3-0.2-0.5-0.2H72v-0.2h2.2c0.6,0,1.1,0,1.4,0.1c0.3,0.1,0.6,0.3,0.8,0.5c0.2,0.2,0.3,0.5,0.3,0.9c0,0.4-0.1,0.7-0.4,1
		c-0.2,0.3-0.6,0.5-1.1,0.6l1.2,1.7c0.3,0.4,0.5,0.7,0.7,0.8s0.5,0.2,0.8,0.2V144.6z M73.6,141.5c0.1,0,0.1,0,0.1,0c0,0,0.1,0,0.1,0
		c0.6,0,1-0.1,1.3-0.4c0.3-0.2,0.4-0.6,0.4-0.9c0-0.4-0.1-0.7-0.3-0.9c-0.2-0.2-0.5-0.3-0.9-0.3c-0.2,0-0.4,0-0.7,0.1V141.5z"/>
	<path d="M78.8,142.1c0,0.6,0.1,1.1,0.4,1.4c0.3,0.3,0.6,0.5,1,0.5c0.3,0,0.5-0.1,0.7-0.2c0.2-0.1,0.4-0.4,0.5-0.7l0.1,0.1
		c-0.1,0.4-0.2,0.8-0.5,1.1c-0.3,0.3-0.7,0.5-1.1,0.5c-0.5,0-0.9-0.2-1.2-0.6c-0.3-0.4-0.5-0.9-0.5-1.5c0-0.7,0.2-1.2,0.5-1.6
		c0.4-0.4,0.8-0.6,1.3-0.6c0.5,0,0.8,0.1,1.1,0.4c0.3,0.3,0.4,0.7,0.4,1.2H78.8z M78.8,141.8h1.9c0-0.3,0-0.4-0.1-0.5
		c-0.1-0.2-0.2-0.3-0.3-0.4c-0.1-0.1-0.3-0.1-0.5-0.1c-0.2,0-0.5,0.1-0.7,0.3C78.9,141.2,78.8,141.5,78.8,141.8z"/>
	<path d="M83.5,140.4v3.2c0,0.3,0,0.4,0.1,0.5c0,0.1,0.1,0.1,0.2,0.2c0.1,0,0.2,0.1,0.4,0.1v0.2h-2v-0.2c0.2,0,0.3,0,0.4-0.1
		s0.1-0.1,0.2-0.2c0-0.1,0.1-0.3,0.1-0.5v-1.6c0-0.4,0-0.7,0-0.8c0-0.1-0.1-0.2-0.1-0.2c0,0-0.1-0.1-0.2-0.1c-0.1,0-0.2,0-0.3,0.1
		l-0.1-0.2l1.2-0.5H83.5z M83.1,138.3c0.1,0,0.2,0,0.3,0.1c0.1,0.1,0.1,0.2,0.1,0.3s0,0.2-0.1,0.3s-0.2,0.1-0.3,0.1s-0.2,0-0.3-0.1
		s-0.1-0.2-0.1-0.3s0-0.2,0.1-0.3C82.9,138.4,83,138.3,83.1,138.3z"/>
	<path d="M85.8,138.3v2.9c0.3-0.4,0.6-0.6,0.8-0.7c0.2-0.1,0.4-0.2,0.6-0.2c0.2,0,0.4,0.1,0.6,0.2s0.3,0.3,0.4,0.6
		c0.1,0.2,0.1,0.5,0.1,1v1.4c0,0.3,0,0.4,0.1,0.5c0,0.1,0.1,0.1,0.1,0.2s0.2,0.1,0.4,0.1v0.2h-2v-0.2h0.1c0.2,0,0.3,0,0.4-0.1
		c0.1-0.1,0.1-0.1,0.2-0.3c0,0,0-0.2,0-0.4v-1.4c0-0.4,0-0.7-0.1-0.9c0-0.1-0.1-0.2-0.2-0.3c-0.1-0.1-0.2-0.1-0.4-0.1
		c-0.1,0-0.3,0-0.4,0.1s-0.3,0.2-0.6,0.5v2.1c0,0.3,0,0.4,0,0.5c0,0.1,0.1,0.1,0.2,0.2c0.1,0,0.2,0.1,0.4,0.1v0.2h-2v-0.2
		c0.2,0,0.3,0,0.4-0.1c0.1,0,0.1-0.1,0.1-0.2s0.1-0.2,0.1-0.5V140c0-0.5,0-0.7,0-0.8c0-0.1-0.1-0.2-0.1-0.2s-0.1-0.1-0.2-0.1
		c-0.1,0-0.2,0-0.3,0.1l-0.1-0.2l1.2-0.5H85.8z"/>
	<path d="M89.8,142.1c0,0.6,0.1,1.1,0.4,1.4c0.3,0.3,0.6,0.5,1,0.5c0.3,0,0.5-0.1,0.7-0.2c0.2-0.1,0.4-0.4,0.5-0.7l0.1,0.1
		c-0.1,0.4-0.2,0.8-0.5,1.1c-0.3,0.3-0.7,0.5-1.1,0.5c-0.5,0-0.9-0.2-1.2-0.6c-0.3-0.4-0.5-0.9-0.5-1.5c0-0.7,0.2-1.2,0.5-1.6
		c0.4-0.4,0.8-0.6,1.3-0.6c0.5,0,0.8,0.1,1.1,0.4c0.3,0.3,0.4,0.7,0.4,1.2H89.8z M89.8,141.8h1.9c0-0.3,0-0.4-0.1-0.5
		c-0.1-0.2-0.2-0.3-0.3-0.4c-0.1-0.1-0.3-0.1-0.5-0.1c-0.2,0-0.5,0.1-0.7,0.3C89.9,141.2,89.8,141.5,89.8,141.8z"/>
	<path d="M71.8,145.8v-0.4h21v0.4H71.8z"/>
</g>
<path class="st3" d="M244.4,138.3v8.8"/>
<line class="st2" x1="306.1" y1="187.5" x2="312.2" y2="187.5"/>
<line class="st2" x1="306.1" y1="184.1" x2="312.2" y2="184.1"/>
<g class="st1">
	<path d="M307.1,189.2c0.1-0.2,0.2-0.5,0.4-0.7s0.4-0.4,0.6-0.5c0.2-0.2,0.5-0.3,0.8-0.4c0.3-0.1,0.6-0.1,0.9-0.1s0.5,0,0.8,0.1
		c0.2,0.1,0.4,0.2,0.5,0.4c0.1,0.2,0.2,0.3,0.2,0.6c0,0.2,0,0.4-0.1,0.7s-0.2,0.5-0.4,0.7c-0.2,0.2-0.4,0.4-0.6,0.6
		s-0.5,0.3-0.8,0.4c-0.3,0.1-0.6,0.1-0.8,0.1c-0.3,0-0.5,0-0.7-0.1c-0.2-0.1-0.4-0.2-0.5-0.4s-0.2-0.3-0.2-0.6
		C307,189.6,307,189.4,307.1,189.2z"/>
</g>
<g class="st1">
	<path d="M303.2,187.1v-2.2h0.4v2.1l1.3-0.4v-2h0.4v1.8l0.5-0.2v1.4l-0.5,0.2v2l0.5-0.2v1.4l-0.5,0.2v2.2h-0.4v-2.1l-1.3,0.4v2h-0.4
		v-1.9l-0.6,0.2v-1.4l0.6-0.2v-2l-0.6,0.2v-1.4L303.2,187.1z M303.6,188.3v2l1.3-0.4v-2L303.6,188.3z"/>
</g>
<g class="st1">
	<path d="M322.6,175.7c0.1-0.2,0.2-0.5,0.4-0.7s0.4-0.4,0.6-0.5c0.2-0.2,0.5-0.3,0.8-0.4c0.3-0.1,0.6-0.1,0.9-0.1s0.5,0,0.8,0.1
		c0.2,0.1,0.4,0.2,0.5,0.4c0.1,0.2,0.2,0.3,0.2,0.6c0,0.2,0,0.4-0.1,0.7s-0.2,0.5-0.4,0.7c-0.2,0.2-0.4,0.4-0.6,0.6
		s-0.5,0.3-0.8,0.4c-0.3,0.1-0.6,0.1-0.8,0.1c-0.3,0-0.5,0-0.7-0.1c-0.2-0.1-0.4-0.2-0.5-0.4s-0.2-0.3-0.2-0.6
		C322.4,176.1,322.5,175.9,322.6,175.7z"/>
</g>
<line class="st2" x1="321.6" y1="184.1" x2="327.7" y2="184.1"/>
<g class="st1">
	<path d="M322.6,184.1c0.1-0.2,0.2-0.5,0.4-0.7s0.4-0.4,0.6-0.5c0.2-0.2,0.5-0.3,0.8-0.4c0.3-0.1,0.6-0.1,0.9-0.1s0.5,0,0.8,0.1
		c0.2,0.1,0.4,0.2,0.5,0.4c0.1,0.2,0.2,0.3,0.2,0.6c0,0.2,0,0.4-0.1,0.7s-0.2,0.5-0.4,0.7c-0.2,0.2-0.4,0.4-0.6,0.6
		s-0.5,0.3-0.8,0.4c-0.3,0.1-0.6,0.1-0.8,0.1c-0.3,0-0.5,0-0.7-0.1c-0.2-0.1-0.4-0.2-0.5-0.4s-0.2-0.3-0.2-0.6
		C322.4,184.6,322.5,184.3,322.6,184.1z"/>
</g>
<g class="st1">
	<path d="M320.9,181.4v7.7h-0.4v-2.9l-1.9,0.5v-7.8h0.3v3L320.9,181.4z M319,183.3v2.1l1.5-0.4v-2.1L319,183.3z"/>
</g>
<g class="st1">
	<path d="M334.7,172.3c0.1-0.2,0.2-0.5,0.4-0.7s0.4-0.4,0.6-0.5c0.2-0.2,0.5-0.3,0.8-0.4c0.3-0.1,0.6-0.1,0.9-0.1s0.5,0,0.8,0.1
		c0.2,0.1,0.4,0.2,0.5,0.4c0.1,0.2,0.2,0.3,0.2,0.6c0,0.2,0,0.4-0.1,0.7s-0.2,0.5-0.4,0.7c-0.2,0.2-0.4,0.4-0.6,0.6
		s-0.5,0.3-0.8,0.4c-0.3,0.1-0.6,0.1-0.8,0.1c-0.3,0-0.5,0-0.7-0.1c-0.2-0.1-0.4-0.2-0.5-0.4s-0.2-0.3-0.2-0.6
		C334.5,172.8,334.6,172.5,334.7,172.3z"/>
</g>
<line class="st2" x1="333.7" y1="187.5" x2="339.8" y2="187.5"/>
<line class="st2" x1="333.7" y1="184.1" x2="339.8" y2="184.1"/>
<g class="st1">
	<path d="M334.7,187.5c0.1-0.2,0.2-0.5,0.4-0.7s0.4-0.4,0.6-0.5c0.2-0.2,0.5-0.3,0.8-0.4c0.3-0.1,0.6-0.1,0.9-0.1s0.5,0,0.8,0.1
		c0.2,0.1,0.4,0.2,0.5,0.4c0.1,0.2,0.2,0.3,0.2,0.6c0,0.2,0,0.4-0.1,0.7s-0.2,0.5-0.4,0.7c-0.2,0.2-0.4,0.4-0.6,0.6
		s-0.5,0.3-0.8,0.4c-0.3,0.1-0.6,0.1-0.8,0.1c-0.3,0-0.5,0-0.7-0.1c-0.2-0.1-0.4-0.2-0.5-0.4s-0.2-0.3-0.2-0.6
		C334.5,188,334.6,187.7,334.7,187.5z"/>
</g>
<g class="st1">
	<path d="M333,184.8v7.7h-0.4v-2.9l-1.9,0.5v-7.8h0.3v3L333,184.8z M331.1,186.6v2.1l1.5-0.4v-2.1L331.1,186.6z"/>
</g>
<line class="st2" x1="345.7" y1="184.1" x2="351.7" y2="184.1"/>
<g class="st1">
	<path d="M346.6,185.8c0.1-0.2,0.2-0.5,0.4-0.7s0.4-0.4,0.6-0.5c0.2-0.2,0.5-0.3,0.8-0.4c0.3-0.1,0.6-0.1,0.9-0.1s0.5,0,0.8,0.1
		c0.2,0.1,0.4,0.2,0.5,0.4c0.1,0.2,0.2,0.3,0.2,0.6c0,0.2,0,0.4-0.1,0.7s-0.2,0.5-0.4,0.7c-0.2,0.2-0.4,0.4-0.6,0.6
		s-0.5,0.3-0.8,0.4c-0.3,0.1-0.6,0.1-0.8,0.1c-0.3,0-0.5,0-0.7-0.1c-0.2-0.1-0.4-0.2-0.5-0.4s-0.2-0.3-0.2-0.6
		C346.5,186.3,346.5,186,346.6,185.8z"/>
</g>
<g class="st1">
	<path d="M342.9,181v2.4v0.9c0.1-0.1,0.2-0.2,0.4-0.3c0.1-0.1,0.2-0.1,0.3-0.2c0.1,0,0.2-0.1,0.3-0.1c0.1,0,0.2,0,0.4,0
		c0.2,0,0.3,0,0.5,0.1c0.1,0.1,0.3,0.2,0.4,0.3c0.1,0.1,0.2,0.2,0.2,0.4c0.1,0.1,0.1,0.3,0.1,0.4c0,0.1,0,0.3,0,0.4
		s-0.1,0.3-0.1,0.4c-0.1,0.2-0.2,0.3-0.3,0.4c-0.1,0.1-0.3,0.2-0.4,0.3c0,0-0.1,0.1-0.2,0.2c-0.1,0.1-0.2,0.2-0.4,0.3
		s-0.3,0.2-0.5,0.3c-0.2,0.1-0.3,0.2-0.4,0.3c-0.1,0.1-0.3,0.2-0.5,0.3v-8h0.4V181z M344,184.6c0-0.1-0.1-0.1-0.2-0.1
		c-0.1,0-0.2-0.1-0.2-0.1c-0.1,0-0.2,0-0.3,0.1c-0.1,0.1-0.2,0.1-0.2,0.3c-0.1,0.2-0.1,0.4-0.1,0.6c0,0.3,0,0.5,0,0.7v1.2
		c0.1-0.1,0.2-0.2,0.3-0.2c0.1-0.1,0.2-0.1,0.2-0.2s0.2-0.2,0.2-0.2c0.1-0.1,0.2-0.2,0.3-0.4c0.1-0.1,0.2-0.3,0.2-0.5
		c0.1-0.2,0.1-0.4,0-0.6C344.2,184.9,344.1,184.7,344,184.6z"/>
</g>
<line class="st2" x1="357.8" y1="184.1" x2="363.8" y2="184.1"/>
<g class="st1">
	<path d="M358.7,185.8c0.1-0.2,0.2-0.5,0.4-0.7s0.4-0.4,0.6-0.5c0.2-0.2,0.5-0.3,0.8-0.4c0.3-0.1,0.6-0.1,0.9-0.1s0.5,0,0.8,0.1
		c0.2,0.1,0.4,0.2,0.5,0.4c0.1,0.2,0.2,0.3,0.2,0.6c0,0.2,0,0.4-0.1,0.7s-0.2,0.5-0.4,0.7c-0.2,0.2-0.4,0.4-0.6,0.6
		s-0.5,0.3-0.8,0.4c-0.3,0.1-0.6,0.1-0.8,0.1c-0.3,0-0.5,0-0.7-0.1c-0.2-0.1-0.4-0.2-0.5-0.4s-0.2-0.3-0.2-0.6
		C358.6,186.3,358.6,186,358.7,185.8z"/>
</g>
<g class="st1">
	<path d="M357,183.1v7.7h-0.4V188l-1.9,0.5v-7.8h0.3v3L357,183.1z M355.1,184.9v2.1l1.5-0.4v-2.1L355.1,184.9z"/>
</g>
<g class="st1">
	<path d="M370.7,182.4c0.1-0.2,0.2-0.5,0.4-0.7s0.4-0.4,0.6-0.5c0.2-0.2,0.5-0.3,0.8-0.4c0.3-0.1,0.6-0.1,0.9-0.1s0.5,0,0.8,0.1
		c0.2,0.1,0.4,0.2,0.5,0.4c0.1,0.2,0.2,0.3,0.2,0.6c0,0.2,0,0.4-0.1,0.7s-0.2,0.5-0.4,0.7c-0.2,0.2-0.4,0.4-0.6,0.6
		s-0.5,0.3-0.8,0.4c-0.3,0.1-0.6,0.1-0.8,0.1c-0.3,0-0.5,0-0.7-0.1c-0.2-0.1-0.4-0.2-0.5-0.4s-0.2-0.3-0.2-0.6
		C370.5,182.9,370.6,182.7,370.7,182.4z"/>
</g>
<g class="st1">
	<path d="M369,179.8v7.7h-0.4v-2.9l-1.9,0.5v-7.8h0.3v3L369,179.8z M367.1,181.6v2.1l1.5-0.4v-2.1L367.1,181.6z"/>
</g>
<g class="st1">
	<path d="M382.7,179c0.1-0.2,0.2-0.5,0.4-0.7s0.4-0.4,0.6-0.5c0.2-0.2,0.5-0.3,0.8-0.4c0.3-0.1,0.6-0.1,0.9-0.1s0.5,0,0.8,0.1
		c0.2,0.1,0.4,0.2,0.5,0.4c0.1,0.2,0.2,0.3,0.2,0.6c0,0.2,0,0.4-0.1,0.7s-0.2,0.5-0.4,0.7c-0.2,0.2-0.4,0.4-0.6,0.6
		s-0.5,0.3-0.8,0.4c-0.3,0.1-0.6,0.1-0.8,0.1c-0.3,0-0.5,0-0.7-0.1c-0.2-0.1-0.4-0.2-0.5-0.4s-0.2-0.3-0.2-0.6
		C382.6,179.5,382.7,179.3,382.7,179z"/>
</g>
<g class="st1">
	<path d="M381.1,176.4v7.7h-0.4v-2.9l-1.9,0.5v-7.8h0.3v3L381.1,176.4z M379.2,178.2v2.1l1.5-0.4v-2.1L379.2,178.2z"/>
</g>
<line class="st2" x1="393.8" y1="184.1" x2="399.8" y2="184.1"/>
<g class="st1">
	<path d="M394.7,184.1c0.1-0.2,0.2-0.5,0.4-0.7s0.4-0.4,0.6-0.5c0.2-0.2,0.5-0.3,0.8-0.4c0.3-0.1,0.6-0.1,0.9-0.1s0.5,0,0.8,0.1
		c0.2,0.1,0.4,0.2,0.5,0.4c0.1,0.2,0.2,0.3,0.2,0.6c0,0.2,0,0.4-0.1,0.7s-0.2,0.5-0.4,0.7c-0.2,0.2-0.4,0.4-0.6,0.6
		s-0.5,0.3-0.8,0.4c-0.3,0.1-0.6,0.1-0.8,0.1c-0.3,0-0.5,0-0.7-0.1c-0.2-0.1-0.4-0.2-0.5-0.4s-0.2-0.3-0.2-0.6
		C394.6,184.6,394.6,184.3,394.7,184.1z"/>
</g>
<g class="st1">
	<path d="M390.8,182v-2.2h0.4v2.1l1.3-0.4v-2h0.4v1.8l0.5-0.2v1.4l-0.5,0.2v2l0.5-0.2v1.4l-0.5,0.2v2.2h-0.4v-2.1l-1.3,0.4v2h-0.4
		v-1.9l-0.6,0.2v-1.4l0.6-0.2v-2l-0.6,0.2v-1.4L390.8,182z M391.2,183.3v2l1.3-0.4v-2L391.2,183.3z"/>
</g>
<g class="st1">
	<path d="M406.8,179c0.1-0.2,0.2-0.5,0.4-0.7s0.4-0.4,0.6-0.5c0.2-0.2,0.5-0.3,0.8-0.4c0.3-0.1,0.6-0.1,0.9-0.1s0.5,0,0.8,0.1
		c0.2,0.1,0.4,0.2,0.5,0.4c0.1,0.2,0.2,0.3,0.2,0.6c0,0.2,0,0.4-0.1,0.7s-0.2,0.5-0.4,0.7c-0.2,0.2-0.4,0.4-0.6,0.6
		s-0.5,0.3-0.8,0.4c-0.3,0.1-0.6,0.1-0.8,0.1c-0.3,0-0.5,0-0.7-0.1c-0.2-0.1-0.4-0.2-0.5-0.4s-0.2-0.3-0.2-0.6
		C406.7,179.5,406.7,179.3,406.8,179z"/>
</g>
<g class="st1">
	<path d="M402.9,176.9v-2.2h0.4v2.1l1.3-0.4v-2h0.4v1.8l0.5-0.2v1.4l-0.5,0.2v2l0.5-0.2v1.4L405,181v2.2h-0.4v-2.1l-1.3,0.4v2h-0.4
		v-1.9l-0.6,0.2v-1.4l0.6-0.2v-2l-0.6,0.2v-1.4L402.9,176.9z M403.3,178.2v2l1.3-0.4v-2L403.3,178.2z"/>
</g>
<g class="st1">
	<path d="M418.7,180.7c0.1-0.2,0.2-0.5,0.4-0.7s0.4-0.4,0.6-0.5c0.2-0.2,0.5-0.3,0.8-0.4c0.3-0.1,0.6-0.1,0.9-0.1s0.5,0,0.8,0.1
		c0.2,0.1,0.4,0.2,0.5,0.4c0.1,0.2,0.2,0.3,0.2,0.6c0,0.2,0,0.4-0.1,0.7s-0.2,0.5-0.4,0.7c-0.2,0.2-0.4,0.4-0.6,0.6
		s-0.5,0.3-0.8,0.4c-0.3,0.1-0.6,0.1-0.8,0.1c-0.3,0-0.5,0-0.7-0.1c-0.2-0.1-0.4-0.2-0.5-0.4s-0.2-0.3-0.2-0.6
		C418.6,181.2,418.7,181,418.7,180.7z"/>
</g>
<g class="st1">
	<path d="M415.1,175.9v2.4v0.9c0.1-0.1,0.2-0.2,0.4-0.3c0.1-0.1,0.2-0.1,0.3-0.2c0.1,0,0.2-0.1,0.3-0.1c0.1,0,0.2,0,0.4,0
		c0.2,0,0.3,0,0.5,0.1c0.1,0.1,0.3,0.2,0.4,0.3c0.1,0.1,0.2,0.2,0.2,0.4c0.1,0.1,0.1,0.3,0.1,0.4c0,0.1,0,0.3,0,0.4
		s-0.1,0.3-0.1,0.4c-0.1,0.2-0.2,0.3-0.3,0.4c-0.1,0.1-0.3,0.2-0.4,0.3c0,0-0.1,0.1-0.2,0.2c-0.1,0.1-0.2,0.2-0.4,0.3
		s-0.3,0.2-0.5,0.3c-0.2,0.1-0.3,0.2-0.4,0.3c-0.1,0.1-0.3,0.2-0.5,0.3v-8h0.4V175.9z M416.1,179.5c0-0.1-0.1-0.1-0.2-0.1
		c-0.1,0-0.2-0.1-0.2-0.1c-0.1,0-0.2,0-0.3,0.1c-0.1,0.1-0.2,0.1-0.2,0.3c-0.1,0.2-0.1,0.4-0.1,0.6c0,0.3,0,0.5,0,0.7v1.2
		c0.1-0.1,0.2-0.2,0.3-0.2c0.1-0.1,0.2-0.1,0.2-0.2s0.2-0.2,0.2-0.2c0.1-0.1,0.2-0.2,0.3-0.4c0.1-0.1,0.2-0.3,0.2-0.5
		c0.1-0.2,0.1-0.4,0-0.6C416.3,179.8,416.3,179.6,416.1,179.5z"/>
</g>
<g class="st1">
	<path d="M430.8,180.7c0.1-0.2,0.2-0.5,0.4-0.7s0.4-0.4,0.6-0.5c0.2-0.2,0.5-0.3,0.8-0.4c0.3-0.1,0.6-0.1,0.9-0.1s0.5,0,0.8,0.1
		c0.2,0.1,0.4,0.2,0.5,0.4c0.1,0.2,0.2,0.3,0.2,0.6c0,0.2,0,0.4-0.1,0.7s-0.2,0.5-0.4,0.7c-0.2,0.2-0.4,0.4-0.6,0.6
		s-0.5,0.3-0.8,0.4c-0.3,0.1-0.6,0.1-0.8,0.1c-0.3,0-0.5,0-0.7-0.1c-0.2-0.1-0.4-0.2-0.5-0.4s-0.2-0.3-0.2-0.6
		C430.7,181.2,430.7,181,430.8,180.7z"/>
</g>
<g class="st1">
	<path d="M429.2,178.1v7.7h-0.4v-2.9l-1.9,0.5v-7.8h0.3v3L429.2,178.1z M427.3,179.9v2.1l1.5-0.4v-2.1L427.3,179.9z"/>
</g>
<g class="st1">
	<path d="M442.8,177.4c0.1-0.2,0.2-0.5,0.4-0.7s0.4-0.4,0.6-0.5c0.2-0.2,0.5-0.3,0.8-0.4c0.3-0.1,0.6-0.1,0.9-0.1s0.5,0,0.8,0.1
		c0.2,0.1,0.4,0.2,0.5,0.4c0.1,0.2,0.2,0.3,0.2,0.6c0,0.2,0,0.4-0.1,0.7s-0.2,0.5-0.4,0.7c-0.2,0.2-0.4,0.4-0.6,0.6
		s-0.5,0.3-0.8,0.4c-0.3,0.1-0.6,0.1-0.8,0.1c-0.3,0-0.5,0-0.7-0.1c-0.2-0.1-0.4-0.2-0.5-0.4s-0.2-0.3-0.2-0.6
		C442.7,177.8,442.7,177.6,442.8,177.4z"/>
</g>
<g class="st1">
	<path d="M441.1,174.7v7.7h-0.4v-2.9l-1.9,0.5v-7.8h0.3v3L441.1,174.7z M439.2,176.5v2.1l1.5-0.4v-2.1L439.2,176.5z"/>
</g>
<g class="st1">
	<path d="M307.1,207.7c0.1-0.2,0.2-0.5,0.4-0.7s0.4-0.4,0.6-0.5c0.2-0.2,0.5-0.3,0.8-0.4c0.3-0.1,0.6-0.1,0.9-0.1s0.5,0,0.8,0.1
		c0.2,0.1,0.4,0.2,0.5,0.4c0.1,0.2,0.2,0.3,0.2,0.6c0,0.2,0,0.4-0.1,0.7s-0.2,0.5-0.4,0.7c-0.2,0.2-0.4,0.4-0.6,0.6
		s-0.5,0.3-0.8,0.4c-0.3,0.1-0.6,0.1-0.8,0.1c-0.3,0-0.5,0-0.7-0.1c-0.2-0.1-0.4-0.2-0.5-0.4s-0.2-0.3-0.2-0.6
		C307,208.2,307,208,307.1,207.7z"/>
</g>
<g class="st1">
	<path d="M303.2,205.6v-2.2h0.4v2.1l1.3-0.4v-2h0.4v1.8l0.5-0.2v1.4l-0.5,0.2v2l0.5-0.2v1.4l-0.5,0.2v2.2h-0.4v-2.1l-1.3,0.4v2h-0.4
		v-1.9l-0.6,0.2v-1.4l0.6-0.2v-2l-0.6,0.2v-1.4L303.2,205.6z M303.6,206.9v2l1.3-0.4v-2L303.6,206.9z"/>
</g>
<g class="st1">
	<path d="M322.6,211.1c0.1-0.2,0.2-0.5,0.4-0.7s0.4-0.4,0.6-0.5c0.2-0.2,0.5-0.3,0.8-0.4c0.3-0.1,0.6-0.1,0.9-0.1s0.5,0,0.8,0.1
		c0.2,0.1,0.4,0.2,0.5,0.4c0.1,0.2,0.2,0.3,0.2,0.6c0,0.2,0,0.4-0.1,0.7s-0.2,0.5-0.4,0.7c-0.2,0.2-0.4,0.4-0.6,0.6
		s-0.5,0.3-0.8,0.4c-0.3,0.1-0.6,0.1-0.8,0.1c-0.3,0-0.5,0-0.7-0.1c-0.2-0.1-0.4-0.2-0.5-0.4s-0.2-0.3-0.2-0.6
		C322.4,211.6,322.5,211.3,322.6,211.1z"/>
</g>
<g class="st1">
	<path d="M322.6,219.5c0.1-0.2,0.2-0.5,0.4-0.7s0.4-0.4,0.6-0.5c0.2-0.2,0.5-0.3,0.8-0.4c0.3-0.1,0.6-0.1,0.9-0.1s0.5,0,0.8,0.1
		c0.2,0.1,0.4,0.2,0.5,0.4c0.1,0.2,0.2,0.3,0.2,0.6c0,0.2,0,0.4-0.1,0.7s-0.2,0.5-0.4,0.7c-0.2,0.2-0.4,0.4-0.6,0.6
		s-0.5,0.3-0.8,0.4c-0.3,0.1-0.6,0.1-0.8,0.1c-0.3,0-0.5,0-0.7-0.1c-0.2-0.1-0.4-0.2-0.5-0.4s-0.2-0.3-0.2-0.6
		C322.4,220,322.5,219.8,322.6,219.5z"/>
</g>
<g class="st1">
	<path d="M320.9,208.4v7.7h-0.4v-2.9l-1.9,0.5v-7.8h0.3v3L320.9,208.4z M319,210.3v2.1l1.5-0.4v-2.1L319,210.3z"/>
</g>
<g class="st1">
	<path d="M317.1,216.9v7.7h-0.4v-2.9l-1.9,0.5v-7.8h0.3v3L317.1,216.9z M315.2,218.7v2.1l1.5-0.4v-2.1L315.2,218.7z"/>
</g>
<g class="st1">
	<path d="M334.7,207.7c0.1-0.2,0.2-0.5,0.4-0.7s0.4-0.4,0.6-0.5c0.2-0.2,0.5-0.3,0.8-0.4c0.3-0.1,0.6-0.1,0.9-0.1s0.5,0,0.8,0.1
		c0.2,0.1,0.4,0.2,0.5,0.4c0.1,0.2,0.2,0.3,0.2,0.6c0,0.2,0,0.4-0.1,0.7s-0.2,0.5-0.4,0.7c-0.2,0.2-0.4,0.4-0.6,0.6
		s-0.5,0.3-0.8,0.4c-0.3,0.1-0.6,0.1-0.8,0.1c-0.3,0-0.5,0-0.7-0.1c-0.2-0.1-0.4-0.2-0.5-0.4s-0.2-0.3-0.2-0.6
		C334.5,208.2,334.6,208,334.7,207.7z"/>
</g>
<g class="st1">
	<path d="M334.7,222.9c0.1-0.2,0.2-0.5,0.4-0.7s0.4-0.4,0.6-0.5c0.2-0.2,0.5-0.3,0.8-0.4c0.3-0.1,0.6-0.1,0.9-0.1s0.5,0,0.8,0.1
		c0.2,0.1,0.4,0.2,0.5,0.4c0.1,0.2,0.2,0.3,0.2,0.6c0,0.2,0,0.4-0.1,0.7s-0.2,0.5-0.4,0.7c-0.2,0.2-0.4,0.4-0.6,0.6
		s-0.5,0.3-0.8,0.4c-0.3,0.1-0.6,0.1-0.8,0.1c-0.3,0-0.5,0-0.7-0.1c-0.2-0.1-0.4-0.2-0.5-0.4s-0.2-0.3-0.2-0.6
		C334.5,223.4,334.6,223.2,334.7,222.9z"/>
</g>
<g class="st1">
	<path d="M333,205.1v7.7h-0.4v-2.9l-1.9,0.5v-7.8h0.3v3L333,205.1z M331.1,206.9v2.1l1.5-0.4v-2.1L331.1,206.9z"/>
</g>
<g class="st1">
	<path d="M346.6,209.4c0.1-0.2,0.2-0.5,0.4-0.7s0.4-0.4,0.6-0.5c0.2-0.2,0.5-0.3,0.8-0.4c0.3-0.1,0.6-0.1,0.9-0.1s0.5,0,0.8,0.1
		c0.2,0.1,0.4,0.2,0.5,0.4c0.1,0.2,0.2,0.3,0.2,0.6c0,0.2,0,0.4-0.1,0.7s-0.2,0.5-0.4,0.7c-0.2,0.2-0.4,0.4-0.6,0.6
		s-0.5,0.3-0.8,0.4c-0.3,0.1-0.6,0.1-0.8,0.1c-0.3,0-0.5,0-0.7-0.1c-0.2-0.1-0.4-0.2-0.5-0.4s-0.2-0.3-0.2-0.6
		C346.5,209.9,346.5,209.7,346.6,209.4z"/>
</g>
<g class="st1">
	<path d="M344.9,206.8v7.7h-0.4v-2.9l-1.9,0.5v-7.8h0.3v3L344.9,206.8z M343,208.6v2.1l1.5-0.4v-2.1L343,208.6z"/>
</g>
<g class="st1">
	<path d="M358.7,209.4c0.1-0.2,0.2-0.5,0.4-0.7s0.4-0.4,0.6-0.5c0.2-0.2,0.5-0.3,0.8-0.4c0.3-0.1,0.6-0.1,0.9-0.1s0.5,0,0.8,0.1
		c0.2,0.1,0.4,0.2,0.5,0.4c0.1,0.2,0.2,0.3,0.2,0.6c0,0.2,0,0.4-0.1,0.7s-0.2,0.5-0.4,0.7c-0.2,0.2-0.4,0.4-0.6,0.6
		s-0.5,0.3-0.8,0.4c-0.3,0.1-0.6,0.1-0.8,0.1c-0.3,0-0.5,0-0.7-0.1c-0.2-0.1-0.4-0.2-0.5-0.4s-0.2-0.3-0.2-0.6
		C358.6,209.9,358.6,209.7,358.7,209.4z"/>
</g>
<g class="st1">
	<path d="M355,204.6v2.4v0.9c0.1-0.1,0.2-0.2,0.4-0.3c0.1-0.1,0.2-0.1,0.3-0.2c0.1,0,0.2-0.1,0.3-0.1c0.1,0,0.2,0,0.4,0
		c0.2,0,0.3,0,0.5,0.1c0.1,0.1,0.3,0.2,0.4,0.3c0.1,0.1,0.2,0.2,0.2,0.4c0.1,0.1,0.1,0.3,0.1,0.4c0,0.1,0,0.3,0,0.4
		s-0.1,0.3-0.1,0.4c-0.1,0.2-0.2,0.3-0.3,0.4c-0.1,0.1-0.3,0.2-0.4,0.3c0,0-0.1,0.1-0.2,0.2c-0.1,0.1-0.2,0.2-0.4,0.3
		s-0.3,0.2-0.5,0.3c-0.2,0.1-0.3,0.2-0.4,0.3c-0.1,0.1-0.3,0.2-0.5,0.3v-8h0.4V204.6z M356.1,208.2c0-0.1-0.1-0.1-0.2-0.1
		c-0.1,0-0.2-0.1-0.2-0.1c-0.1,0-0.2,0-0.3,0.1c-0.1,0.1-0.2,0.1-0.2,0.3c-0.1,0.2-0.1,0.4-0.1,0.6c0,0.3,0,0.5,0,0.7v1.2
		c0.1-0.1,0.2-0.2,0.3-0.2c0.1-0.1,0.2-0.1,0.2-0.2s0.2-0.2,0.2-0.2c0.1-0.1,0.2-0.2,0.3-0.4c0.1-0.1,0.2-0.3,0.2-0.5
		c0.1-0.2,0.1-0.4,0-0.6C356.3,208.5,356.2,208.3,356.1,208.2z"/>
</g>
<g class="st1">
	<path d="M370.7,212.8c0.1-0.2,0.2-0.5,0.4-0.7s0.4-0.4,0.6-0.5c0.2-0.2,0.5-0.3,0.8-0.4c0.3-0.1,0.6-0.1,0.9-0.1s0.5,0,0.8,0.1
		c0.2,0.1,0.4,0.2,0.5,0.4c0.1,0.2,0.2,0.3,0.2,0.6c0,0.2,0,0.4-0.1,0.7s-0.2,0.5-0.4,0.7c-0.2,0.2-0.4,0.4-0.6,0.6
		s-0.5,0.3-0.8,0.4c-0.3,0.1-0.6,0.1-0.8,0.1c-0.3,0-0.5,0-0.7-0.1c-0.2-0.1-0.4-0.2-0.5-0.4s-0.2-0.3-0.2-0.6
		C370.5,213.3,370.6,213,370.7,212.8z"/>
</g>
<g class="st1">
	<path d="M369,210.1v7.7h-0.4V215l-1.9,0.5v-7.8h0.3v3L369,210.1z M367.1,211.9v2.1l1.5-0.4v-2.1L367.1,211.9z"/>
</g>
<g class="st1">
	<path d="M382.7,216.2c0.1-0.2,0.2-0.5,0.4-0.7s0.4-0.4,0.6-0.5c0.2-0.2,0.5-0.3,0.8-0.4c0.3-0.1,0.6-0.1,0.9-0.1s0.5,0,0.8,0.1
		c0.2,0.1,0.4,0.2,0.5,0.4c0.1,0.2,0.2,0.3,0.2,0.6c0,0.2,0,0.4-0.1,0.7s-0.2,0.5-0.4,0.7c-0.2,0.2-0.4,0.4-0.6,0.6
		s-0.5,0.3-0.8,0.4c-0.3,0.1-0.6,0.1-0.8,0.1c-0.3,0-0.5,0-0.7-0.1c-0.2-0.1-0.4-0.2-0.5-0.4s-0.2-0.3-0.2-0.6
		C382.6,216.6,382.7,216.4,382.7,216.2z"/>
</g>
<g class="st1">
	<path d="M381.1,213.5v7.7h-0.4v-2.9l-1.9,0.5V211h0.3v3L381.1,213.5z M379.2,215.3v2.1l1.5-0.4v-2.1L379.2,215.3z"/>
</g>
<g class="st1">
	<path d="M394.7,212.8c0.1-0.2,0.2-0.5,0.4-0.7s0.4-0.4,0.6-0.5c0.2-0.2,0.5-0.3,0.8-0.4c0.3-0.1,0.6-0.1,0.9-0.1s0.5,0,0.8,0.1
		c0.2,0.1,0.4,0.2,0.5,0.4c0.1,0.2,0.2,0.3,0.2,0.6c0,0.2,0,0.4-0.1,0.7s-0.2,0.5-0.4,0.7c-0.2,0.2-0.4,0.4-0.6,0.6
		s-0.5,0.3-0.8,0.4c-0.3,0.1-0.6,0.1-0.8,0.1c-0.3,0-0.5,0-0.7-0.1c-0.2-0.1-0.4-0.2-0.5-0.4s-0.2-0.3-0.2-0.6
		C394.6,213.3,394.6,213,394.7,212.8z"/>
</g>
<g class="st1">
	<path d="M390.8,210.7v-2.2h0.4v2.1l1.3-0.4v-2h0.4v1.8l0.5-0.2v1.4l-0.5,0.2v2l0.5-0.2v1.4l-0.5,0.2v2.2h-0.4v-2.1l-1.3,0.4v2h-0.4
		v-1.9l-0.6,0.2v-1.4l0.6-0.2v-2l-0.6,0.2v-1.4L390.8,210.7z M391.2,211.9v2l1.3-0.4v-2L391.2,211.9z"/>
</g>
<g class="st1">
	<path d="M406.8,217.9c0.1-0.2,0.2-0.5,0.4-0.7s0.4-0.4,0.6-0.5c0.2-0.2,0.5-0.3,0.8-0.4c0.3-0.1,0.6-0.1,0.9-0.1s0.5,0,0.8,0.1
		c0.2,0.1,0.4,0.2,0.5,0.4c0.1,0.2,0.2,0.3,0.2,0.6c0,0.2,0,0.4-0.1,0.7s-0.2,0.5-0.4,0.7c-0.2,0.2-0.4,0.4-0.6,0.6
		s-0.5,0.3-0.8,0.4c-0.3,0.1-0.6,0.1-0.8,0.1c-0.3,0-0.5,0-0.7-0.1c-0.2-0.1-0.4-0.2-0.5-0.4s-0.2-0.3-0.2-0.6
		C406.7,218.3,406.7,218.1,406.8,217.9z"/>
</g>
<g class="st1">
	<path d="M402.9,215.7v-2.2h0.4v2.1l1.3-0.4v-2h0.4v1.8l0.5-0.2v1.4l-0.5,0.2v2l0.5-0.2v1.4l-0.5,0.2v2.2h-0.4V220l-1.3,0.4v2h-0.4
		v-1.9l-0.6,0.2v-1.4l0.6-0.2v-2l-0.6,0.2v-1.4L402.9,215.7z M403.3,217v2l1.3-0.4v-2L403.3,217z"/>
</g>
<g class="st1">
	<path d="M418.7,214.5c0.1-0.2,0.2-0.5,0.4-0.7s0.4-0.4,0.6-0.5c0.2-0.2,0.5-0.3,0.8-0.4c0.3-0.1,0.6-0.1,0.9-0.1s0.5,0,0.8,0.1
		c0.2,0.1,0.4,0.2,0.5,0.4c0.1,0.2,0.2,0.3,0.2,0.6c0,0.2,0,0.4-0.1,0.7s-0.2,0.5-0.4,0.7c-0.2,0.2-0.4,0.4-0.6,0.6
		s-0.5,0.3-0.8,0.4c-0.3,0.1-0.6,0.1-0.8,0.1c-0.3,0-0.5,0-0.7-0.1c-0.2-0.1-0.4-0.2-0.5-0.4s-0.2-0.3-0.2-0.6
		C418.6,215,418.7,214.7,418.7,214.5z"/>
</g>
<g class="st1">
	<path d="M417.1,211.8v7.7h-0.4v-2.9l-1.9,0.5v-7.8h0.3v3L417.1,211.8z M415.2,213.6v2.1l1.5-0.4v-2.1L415.2,213.6z"/>
</g>
<g class="st1">
	<path d="M430.8,214.5c0.1-0.2,0.2-0.5,0.4-0.7s0.4-0.4,0.6-0.5c0.2-0.2,0.5-0.3,0.8-0.4c0.3-0.1,0.6-0.1,0.9-0.1s0.5,0,0.8,0.1
		c0.2,0.1,0.4,0.2,0.5,0.4c0.1,0.2,0.2,0.3,0.2,0.6c0,0.2,0,0.4-0.1,0.7s-0.2,0.5-0.4,0.7c-0.2,0.2-0.4,0.4-0.6,0.6
		s-0.5,0.3-0.8,0.4c-0.3,0.1-0.6,0.1-0.8,0.1c-0.3,0-0.5,0-0.7-0.1c-0.2-0.1-0.4-0.2-0.5-0.4s-0.2-0.3-0.2-0.6
		C430.7,215,430.7,214.7,430.8,214.5z"/>
</g>
<g class="st1">
	<path d="M427.2,209.7v2.4v0.9c0.1-0.1,0.2-0.2,0.4-0.3c0.1-0.1,0.2-0.1,0.3-0.2c0.1,0,0.2-0.1,0.3-0.1c0.1,0,0.2,0,0.4,0
		c0.2,0,0.3,0,0.5,0.1c0.1,0.1,0.3,0.2,0.4,0.3c0.1,0.1,0.2,0.2,0.2,0.4c0.1,0.1,0.1,0.3,0.1,0.4c0,0.1,0,0.3,0,0.4
		s-0.1,0.3-0.1,0.4c-0.1,0.2-0.2,0.3-0.3,0.4c-0.1,0.1-0.3,0.2-0.4,0.3c0,0-0.1,0.1-0.2,0.2c-0.1,0.1-0.2,0.2-0.4,0.3
		s-0.3,0.2-0.5,0.3c-0.2,0.1-0.3,0.2-0.4,0.3c-0.1,0.1-0.3,0.2-0.5,0.3v-8h0.4V209.7z M428.2,213.2c0-0.1-0.1-0.1-0.2-0.1
		c-0.1,0-0.2-0.1-0.2-0.1c-0.1,0-0.2,0-0.3,0.1c-0.1,0.1-0.2,0.1-0.2,0.3c-0.1,0.2-0.1,0.4-0.1,0.6c0,0.3,0,0.5,0,0.7v1.2
		c0.1-0.1,0.2-0.2,0.3-0.2c0.1-0.1,0.2-0.1,0.2-0.2s0.2-0.2,0.2-0.2c0.1-0.1,0.2-0.2,0.3-0.4c0.1-0.1,0.2-0.3,0.2-0.5
		c0.1-0.2,0.1-0.4,0-0.6C428.4,213.6,428.4,213.4,428.2,213.2z"/>
</g>
<g class="st1">
	<path d="M442.8,217.9c0.1-0.2,0.2-0.5,0.4-0.7s0.4-0.4,0.6-0.5c0.2-0.2,0.5-0.3,0.8-0.4c0.3-0.1,0.6-0.1,0.9-0.1s0.5,0,0.8,0.1
		c0.2,0.1,0.4,0.2,0.5,0.4c0.1,0.2,0.2,0.3,0.2,0.6c0,0.2,0,0.4-0.1,0.7s-0.2,0.5-0.4,0.7c-0.2,0.2-0.4,0.4-0.6,0.6
		s-0.5,0.3-0.8,0.4c-0.3,0.1-0.6,0.1-0.8,0.1c-0.3,0-0.5,0-0.7-0.1c-0.2-0.1-0.4-0.2-0.5-0.4s-0.2-0.3-0.2-0.6
		C442.7,218.3,442.7,218.1,442.8,217.9z"/>
</g>
<g class="st1">
	<path d="M441.1,215.2v7.7h-0.4V220l-1.9,0.5v-7.8h0.3v3L441.1,215.2z M439.2,217v2.1l1.5-0.4v-2.1L439.2,217z"/>
</g>
<g class="st1">
	<path d="M298.5,204.9v0.5h-0.6v1.2h-0.5v-1.2h-1.9V205l2.1-3h0.4v2.9H298.5z M297.3,204.9v-2.2l-1.6,2.2H297.3z"/>
</g>
<g class="st1">
	<path d="M303.3,164.7l-0.3,0.9h-2.6v-0.1c0.8-0.7,1.3-1.3,1.6-1.7s0.5-0.9,0.5-1.2c0-0.3-0.1-0.5-0.3-0.7c-0.2-0.2-0.4-0.3-0.6-0.3
		c-0.2,0-0.4,0.1-0.6,0.2c-0.2,0.1-0.3,0.3-0.4,0.6h-0.1c0.1-0.4,0.2-0.7,0.4-0.9c0.2-0.2,0.5-0.3,0.9-0.3c0.4,0,0.7,0.1,0.9,0.3
		c0.2,0.2,0.4,0.5,0.4,0.8c0,0.2-0.1,0.5-0.2,0.7c-0.2,0.4-0.4,0.7-0.8,1.1c-0.5,0.6-0.9,1-1,1.1h1.2c0.2,0,0.4,0,0.5,0
		s0.2-0.1,0.3-0.1c0.1-0.1,0.1-0.1,0.2-0.2H303.3z"/>
</g>
<path class="st4" d="M455.8,159.3h2.8"/>
<path class="st4" d="M458.6,159.3v73.1"/>
<path class="st4" d="M458.6,232.5h-2.8"/>
<g class="st1">
	<path d="M51.9,46.5v-8.6h2.6l1.6,5.9l1.5-5.9h2.6v8.6h-1.6v-6.8l-1.7,6.8h-1.7l-1.7-6.8v6.8H51.9z"/>
	<path d="M64.8,44.2l1.6-0.2c0.1,0.4,0.2,0.7,0.4,0.9s0.5,0.3,0.8,0.3c0.3,0,0.6-0.1,0.9-0.4s0.3-0.6,0.3-1c0-0.4-0.1-0.7-0.3-1
		s-0.5-0.4-0.8-0.4c-0.2,0-0.5,0-0.8,0.1l0.2-1.3c0.4,0,0.8-0.1,1-0.3s0.4-0.5,0.4-0.8c0-0.3-0.1-0.5-0.3-0.7s-0.4-0.3-0.7-0.3
		c-0.3,0-0.5,0.1-0.7,0.3s-0.3,0.5-0.4,0.9l-1.5-0.3c0.1-0.5,0.3-0.9,0.5-1.2s0.5-0.6,0.9-0.7s0.8-0.3,1.3-0.3
		c0.8,0,1.5,0.3,1.9,0.8c0.4,0.4,0.6,0.9,0.6,1.4c0,0.8-0.4,1.4-1.2,1.8c0.5,0.1,0.9,0.3,1.2,0.7s0.4,0.8,0.4,1.3
		c0,0.8-0.3,1.4-0.8,1.9s-1.2,0.8-2.1,0.8c-0.8,0-1.4-0.2-1.9-0.7S64.9,44.9,64.8,44.2z"/>
	<path d="M75.7,46.5h-1.6v-6.2c-0.6,0.6-1.3,1-2.1,1.2V40c0.4-0.1,0.9-0.4,1.4-0.8s0.8-0.9,1-1.4h1.3V46.5z"/>
	<path d="M78.2,39.6V38h5.6v1.2c-0.5,0.5-0.9,1.1-1.4,2s-0.8,1.8-1.1,2.7s-0.4,1.8-0.4,2.6h-1.6c0-1.2,0.3-2.4,0.7-3.6
		s1.1-2.3,1.9-3.3H78.2z"/>
	<path d="M88.1,43.7l1.7-0.2c0.1,0.6,0.3,1,0.6,1.2s0.7,0.4,1.3,0.4c0.6,0,1-0.1,1.3-0.4s0.4-0.5,0.4-0.8c0-0.2-0.1-0.4-0.2-0.5
		s-0.3-0.3-0.6-0.4c-0.2-0.1-0.7-0.2-1.4-0.4c-0.9-0.2-1.6-0.5-2-0.8c-0.5-0.5-0.8-1-0.8-1.7c0-0.4,0.1-0.8,0.4-1.2s0.6-0.7,1.1-0.9
		s1-0.3,1.7-0.3c1.1,0,1.9,0.2,2.4,0.7s0.8,1.1,0.9,1.9l-1.7,0.1c-0.1-0.4-0.2-0.8-0.5-1s-0.6-0.3-1.1-0.3c-0.5,0-0.9,0.1-1.2,0.3
		c-0.2,0.1-0.3,0.3-0.3,0.5c0,0.2,0.1,0.4,0.3,0.5c0.2,0.2,0.8,0.4,1.6,0.6s1.5,0.4,1.9,0.6s0.7,0.5,0.9,0.9s0.3,0.8,0.3,1.4
		c0,0.5-0.1,1-0.4,1.4s-0.7,0.7-1.2,1s-1.1,0.3-1.9,0.3c-1.1,0-1.9-0.3-2.5-0.8S88.3,44.7,88.1,43.7z"/>
	<path d="M96.5,46.5v-8.6h1.6v4.6l1.9-2.2h2l-2.1,2.3l2.3,3.9h-1.8l-1.6-2.8l-0.8,0.8v2H96.5z"/>
	<path d="M102.8,44.2l1.6-0.2c0.1,0.4,0.2,0.7,0.4,0.9s0.5,0.3,0.8,0.3c0.3,0,0.6-0.1,0.9-0.4s0.3-0.6,0.3-1c0-0.4-0.1-0.7-0.3-1
		s-0.5-0.4-0.8-0.4c-0.2,0-0.5,0-0.8,0.1l0.2-1.3c0.4,0,0.8-0.1,1-0.3s0.4-0.5,0.4-0.8c0-0.3-0.1-0.5-0.3-0.7s-0.4-0.3-0.7-0.3
		c-0.3,0-0.5,0.1-0.7,0.3s-0.3,0.5-0.4,0.9l-1.5-0.3c0.1-0.5,0.3-0.9,0.5-1.2s0.5-0.6,0.9-0.7s0.8-0.3,1.3-0.3
		c0.8,0,1.5,0.3,1.9,0.8c0.4,0.4,0.6,0.9,0.6,1.4c0,0.8-0.4,1.4-1.2,1.8c0.5,0.1,0.9,0.3,1.2,0.7s0.4,0.8,0.4,1.3
		c0,0.8-0.3,1.4-0.8,1.9s-1.2,0.8-2.1,0.8c-0.8,0-1.4-0.2-1.9-0.7S102.9,44.9,102.8,44.2z"/>
	<path d="M109.9,46.5v-1.6h1.6v1.6H109.9z"/>
	<path d="M117.1,46.5h-1.6v-6.2c-0.6,0.6-1.3,1-2.1,1.2V40c0.4-0.1,0.9-0.4,1.4-0.8s0.8-0.9,1-1.4h1.3V46.5z"/>
	<path d="M119.9,46.5v-1.6h1.6v1.6H119.9z"/>
	<path d="M122.9,44.2l1.6-0.2c0.1,0.4,0.2,0.7,0.4,0.9s0.5,0.3,0.8,0.3c0.3,0,0.6-0.1,0.9-0.4s0.3-0.6,0.3-1c0-0.4-0.1-0.7-0.3-1
		s-0.5-0.4-0.8-0.4c-0.2,0-0.5,0-0.8,0.1l0.2-1.3c0.4,0,0.8-0.1,1-0.3s0.4-0.5,0.4-0.8c0-0.3-0.1-0.5-0.3-0.7s-0.4-0.3-0.7-0.3
		c-0.3,0-0.5,0.1-0.7,0.3s-0.3,0.5-0.4,0.9l-1.5-0.3c0.1-0.5,0.3-0.9,0.5-1.2s0.5-0.6,0.9-0.7s0.8-0.3,1.3-0.3
		c0.8,0,1.5,0.3,1.9,0.8c0.4,0.4,0.6,0.9,0.6,1.4c0,0.8-0.4,1.4-1.2,1.8c0.5,0.1,0.9,0.3,1.2,0.7s0.4,0.8,0.4,1.3
		c0,0.8-0.3,1.4-0.8,1.9s-1.2,0.8-2.1,0.8c-0.8,0-1.4-0.2-1.9-0.7S122.9,44.9,122.9,44.2z"/>
</g>
<rect x="482.7" y="116.6" class="st5" width="113.7" height="74.1"/>
<rect x="651.5" y="157.7" class="st5" width="184.2" height="33"/>
<polyline class="st5" points="339.8,107.4 339.8,153.7 469,153.7 469,107.4 "/>
<g class="st1">
	<path d="M387.4,125.6l1.7-0.2c0.1,0.6,0.3,1,0.6,1.2s0.7,0.4,1.3,0.4c0.6,0,1-0.1,1.3-0.4s0.4-0.5,0.4-0.8c0-0.2-0.1-0.4-0.2-0.5
		s-0.3-0.3-0.6-0.4c-0.2-0.1-0.7-0.2-1.4-0.4c-0.9-0.2-1.6-0.5-2-0.8c-0.5-0.5-0.8-1-0.8-1.7c0-0.4,0.1-0.8,0.4-1.2s0.6-0.7,1.1-0.9
		s1-0.3,1.7-0.3c1.1,0,1.9,0.2,2.4,0.7s0.8,1.1,0.9,1.9l-1.7,0.1c-0.1-0.4-0.2-0.8-0.5-1s-0.6-0.3-1.1-0.3c-0.5,0-0.9,0.1-1.2,0.3
		c-0.2,0.1-0.3,0.3-0.3,0.5c0,0.2,0.1,0.4,0.3,0.5c0.2,0.2,0.8,0.4,1.6,0.6s1.5,0.4,1.9,0.6s0.7,0.5,0.9,0.9s0.3,0.8,0.3,1.4
		c0,0.5-0.1,1-0.4,1.4s-0.7,0.7-1.2,1s-1.1,0.3-1.9,0.3c-1.1,0-1.9-0.3-2.5-0.8C387.9,127.3,387.5,126.6,387.4,125.6z"/>
	<path d="M395.8,128.4v-8.6h1.6v4.6l1.9-2.2h2l-2.1,2.3l2.3,3.9h-1.8l-1.6-2.8l-0.8,0.8v2H395.8z"/>
	<path d="M402.1,126.1l1.6-0.2c0.1,0.4,0.2,0.7,0.4,0.9s0.5,0.3,0.8,0.3c0.3,0,0.6-0.1,0.9-0.4s0.3-0.6,0.3-1c0-0.4-0.1-0.7-0.3-1
		s-0.5-0.4-0.8-0.4c-0.2,0-0.5,0-0.8,0.1l0.2-1.3c0.4,0,0.8-0.1,1-0.3s0.4-0.5,0.4-0.8c0-0.3-0.1-0.5-0.3-0.7s-0.4-0.3-0.7-0.3
		c-0.3,0-0.5,0.1-0.7,0.3s-0.3,0.5-0.4,0.9l-1.5-0.3c0.1-0.5,0.3-0.9,0.5-1.2s0.5-0.6,0.9-0.7s0.8-0.3,1.3-0.3
		c0.8,0,1.5,0.3,1.9,0.8c0.4,0.4,0.6,0.9,0.6,1.4c0,0.8-0.4,1.4-1.2,1.8c0.5,0.1,0.9,0.3,1.2,0.7s0.4,0.8,0.4,1.3
		c0,0.8-0.3,1.4-0.8,1.9c-0.6,0.5-1.2,0.8-2.1,0.8c-0.8,0-1.4-0.2-1.9-0.7C402.5,127.4,402.2,126.8,402.1,126.1z"/>
	<path d="M409.2,128.4v-1.6h1.6v1.6H409.2z"/>
	<path d="M416.4,128.4h-1.6v-6.2c-0.6,0.6-1.3,1-2.1,1.2v-1.5c0.4-0.1,0.9-0.4,1.4-0.8s0.8-0.9,1-1.4h1.3V128.4z"/>
</g>
<g class="st1">
	<path d="M517.4,154.9l1.7-0.2c0.1,0.6,0.3,1,0.6,1.2s0.7,0.4,1.3,0.4c0.6,0,1-0.1,1.3-0.4s0.4-0.5,0.4-0.8c0-0.2-0.1-0.4-0.2-0.5
		s-0.3-0.3-0.6-0.4c-0.2-0.1-0.7-0.2-1.4-0.4c-0.9-0.2-1.6-0.5-2-0.8c-0.5-0.5-0.8-1-0.8-1.7c0-0.4,0.1-0.8,0.4-1.2s0.6-0.7,1.1-0.9
		s1-0.3,1.7-0.3c1.1,0,1.9,0.2,2.4,0.7s0.8,1.1,0.9,1.9l-1.7,0.1c-0.1-0.4-0.2-0.8-0.5-1s-0.6-0.3-1.1-0.3c-0.5,0-0.9,0.1-1.2,0.3
		c-0.2,0.1-0.3,0.3-0.3,0.5c0,0.2,0.1,0.4,0.3,0.5c0.2,0.2,0.8,0.4,1.6,0.6s1.5,0.4,1.9,0.6s0.7,0.5,0.9,0.9s0.3,0.8,0.3,1.4
		c0,0.5-0.1,1-0.4,1.4s-0.7,0.7-1.2,1s-1.1,0.3-1.9,0.3c-1.1,0-1.9-0.3-2.5-0.8S517.5,155.9,517.4,154.9z"/>
	<path d="M525.8,157.7v-8.6h1.6v4.6l1.9-2.2h2l-2.1,2.3l2.3,3.9h-1.8l-1.6-2.8l-0.8,0.8v2H525.8z"/>
	<path d="M532.1,155.5l1.6-0.2c0.1,0.4,0.2,0.7,0.4,0.9s0.5,0.3,0.8,0.3c0.3,0,0.6-0.1,0.9-0.4s0.3-0.6,0.3-1c0-0.4-0.1-0.7-0.3-1
		s-0.5-0.4-0.8-0.4c-0.2,0-0.5,0-0.8,0.1l0.2-1.3c0.4,0,0.8-0.1,1-0.3s0.4-0.5,0.4-0.8c0-0.3-0.1-0.5-0.3-0.7s-0.4-0.3-0.7-0.3
		c-0.3,0-0.5,0.1-0.7,0.3s-0.3,0.5-0.4,0.9l-1.5-0.3c0.1-0.5,0.3-0.9,0.5-1.2s0.5-0.6,0.9-0.7s0.8-0.3,1.3-0.3
		c0.8,0,1.5,0.3,1.9,0.8c0.4,0.4,0.6,0.9,0.6,1.4c0,0.8-0.4,1.4-1.2,1.8c0.5,0.1,0.9,0.3,1.2,0.7s0.4,0.8,0.4,1.3
		c0,0.8-0.3,1.4-0.8,1.9s-1.2,0.8-2.1,0.8c-0.8,0-1.4-0.2-1.9-0.7S532.2,156.2,532.1,155.5z"/>
	<path d="M539.2,157.7v-1.6h1.6v1.6H539.2z"/>
	<path d="M546.4,157.7h-1.6v-6.2c-0.6,0.6-1.3,1-2.1,1.2v-1.5c0.4-0.1,0.9-0.4,1.4-0.8s0.8-0.9,1-1.4h1.3V157.7z"/>
	<path d="M549.2,157.7v-1.6h1.6v1.6H549.2z"/>
	<path d="M556.4,157.7h-1.6v-6.2c-0.6,0.6-1.3,1-2.1,1.2v-1.5c0.4-0.1,0.9-0.4,1.4-0.8s0.8-0.9,1-1.4h1.3V157.7z"/>
</g>
<g class="st1">
	<path d="M717.4,174.5l1.7-0.2c0.1,0.6,0.3,1,0.6,1.2s0.7,0.4,1.3,0.4c0.6,0,1-0.1,1.3-0.4s0.4-0.5,0.4-0.8c0-0.2-0.1-0.4-0.2-0.5
		s-0.3-0.3-0.6-0.4c-0.2-0.1-0.7-0.2-1.4-0.4c-0.9-0.2-1.6-0.5-2-0.8c-0.5-0.5-0.8-1-0.8-1.7c0-0.4,0.1-0.8,0.4-1.2s0.6-0.7,1.1-0.9
		s1-0.3,1.7-0.3c1.1,0,1.9,0.2,2.4,0.7s0.8,1.1,0.9,1.9l-1.7,0.1c-0.1-0.4-0.2-0.8-0.5-1s-0.6-0.3-1.1-0.3c-0.5,0-0.9,0.1-1.2,0.3
		c-0.2,0.1-0.3,0.3-0.3,0.5c0,0.2,0.1,0.4,0.3,0.5c0.2,0.2,0.8,0.4,1.6,0.6s1.5,0.4,1.9,0.6s0.7,0.5,0.9,0.9s0.3,0.8,0.3,1.4
		c0,0.5-0.1,1-0.4,1.4s-0.7,0.7-1.2,1s-1.1,0.3-1.9,0.3c-1.1,0-1.9-0.3-2.5-0.8S717.5,175.5,717.4,174.5z"/>
	<path d="M725.8,177.3v-8.6h1.6v4.6l1.9-2.2h2l-2.1,2.3l2.3,3.9h-1.8l-1.6-2.8l-0.8,0.8v2H725.8z"/>
	<path d="M732.1,175.1l1.6-0.2c0.1,0.4,0.2,0.7,0.4,0.9s0.5,0.3,0.8,0.3c0.3,0,0.6-0.1,0.9-0.4s0.3-0.6,0.3-1c0-0.4-0.1-0.7-0.3-1
		s-0.5-0.4-0.8-0.4c-0.2,0-0.5,0-0.8,0.1l0.2-1.3c0.4,0,0.8-0.1,1-0.3s0.4-0.5,0.4-0.8c0-0.3-0.1-0.5-0.3-0.7s-0.4-0.3-0.7-0.3
		c-0.3,0-0.5,0.1-0.7,0.3s-0.3,0.5-0.4,0.9l-1.5-0.3c0.1-0.5,0.3-0.9,0.5-1.2s0.5-0.6,0.9-0.7s0.8-0.3,1.3-0.3
		c0.8,0,1.5,0.3,1.9,0.8c0.4,0.4,0.6,0.9,0.6,1.4c0,0.8-0.4,1.4-1.2,1.8c0.5,0.1,0.9,0.3,1.2,0.7s0.4,0.8,0.4,1.3
		c0,0.8-0.3,1.4-0.8,1.9s-1.2,0.8-2.1,0.8c-0.8,0-1.4-0.2-1.9-0.7S732.2,175.8,732.1,175.1z"/>
	<path d="M739.2,177.3v-1.6h1.6v1.6H739.2z"/>
	<path d="M746.4,177.3h-1.6v-6.2c-0.6,0.6-1.3,1-2.1,1.2v-1.5c0.4-0.1,0.9-0.4,1.4-0.8s0.8-0.9,1-1.4h1.3V177.3z"/>
	<path d="M749.2,177.3v-1.6h1.6v1.6H749.2z"/>
	<path d="M752.1,175.1l1.6-0.2c0.1,0.4,0.2,0.7,0.4,0.9s0.5,0.3,0.8,0.3c0.3,0,0.6-0.1,0.9-0.4s0.3-0.6,0.3-1c0-0.4-0.1-0.7-0.3-1
		s-0.5-0.4-0.8-0.4c-0.2,0-0.5,0-0.8,0.1l0.2-1.3c0.4,0,0.8-0.1,1-0.3s0.4-0.5,0.4-0.8c0-0.3-0.1-0.5-0.3-0.7s-0.4-0.3-0.7-0.3
		c-0.3,0-0.5,0.1-0.7,0.3s-0.3,0.5-0.4,0.9l-1.5-0.3c0.1-0.5,0.3-0.9,0.5-1.2s0.5-0.6,0.9-0.7s0.8-0.3,1.3-0.3
		c0.8,0,1.5,0.3,1.9,0.8c0.4,0.4,0.6,0.9,0.6,1.4c0,0.8-0.4,1.4-1.2,1.8c0.5,0.1,0.9,0.3,1.2,0.7s0.4,0.8,0.4,1.3
		c0,0.8-0.3,1.4-0.8,1.9s-1.2,0.8-2.1,0.8c-0.8,0-1.4-0.2-1.9-0.7S752.2,175.8,752.1,175.1z"/>
	<path d="M759.2,177.3v-1.6h1.6v1.6H759.2z"/>
	<path d="M766.4,177.3h-1.6v-6.2c-0.6,0.6-1.3,1-2.1,1.2v-1.5c0.4-0.1,0.9-0.4,1.4-0.8s0.8-0.9,1-1.4h1.3V177.3z"/>
</g>
<path class="st6" d="M256.2,178.3c-5.6,0-10.2,0.8-13.5,3.8c-1.9,1.7-0.8,5.5,0.8,7.6c0.3,0.4,1.5,1.8,6,3c8,2.1,13.9,0.5,18.4-0.8
	c1.2-0.2,2.2-0.8,3.1-1.6c1.8-1.9,2.5-4.6,1.8-7.1C270.9,178.3,261,178.3,256.2,178.3z"/>
<path class="st6" d="M251.2,199.3c-3.1-0.6-6.2,0.1-7.9,2.2c-2.5,3.3-0.4,8.3,2,10.8c1.4,1.3,3.1,2.3,4.9,2.8
	c7.4,2.3,20.1,2.6,22.2-3c1-2.7-0.8-5.7-1.5-6.8c-2.9-4.7-9-7-15.8-6.1"/>
<path class="st6" d="M318.8,203c-0.5,0.4-3.6,2.4-4,6.1c-0.2,1.1,0,2.2,0.5,3.2c0.3,0.5,1.7,2.7,9,2.8c5.1,0,14.5,0.1,16.6-5.2
	c0.7-1.9,0.5-4-0.5-5.8c-2.3-4-9.4-5.5-17.1-2.2"/>
<path class="st6" d="M316.8,181.8c-0.3,0.7-1.5,3.6-0.1,6c0.4,0.8,1.3,1.7,4.8,2.8c3.2,1,8.1,2.4,13.9,0.8c2.5-0.7,4.8-1.4,5.7-3.4
	c1.2-2.7-1-5.9-1.1-6.1c-2.8-3.9-9.9-4.7-17.9-2.2"/>
</svg>
