<svg id="Ebene_1" data-name="Ebene 1" xmlns="http://www.w3.org/2000/svg" viewBox="0 0 1021 595"><defs><style>.cls-1,.cls-13,.cls-14,.cls-6{fill:none;}.cls-1,.cls-13,.cls-14,.cls-6,.cls-8{stroke:#000;}.cls-1,.cls-13,.cls-8{stroke-width:0.4px;}.cls-10,.cls-2,.cls-4,.cls-5,.cls-7{isolation:isolate;}.cls-10,.cls-2,.cls-3{font-size:6.75px;}.cls-2,.cls-3{font-family:Arial-ItalicMT, Arial;font-style:italic;}.cls-4{font-size:10.13px;}.cls-4,.cls-5{font-family:Maestro, Maestro;}.cls-5{font-size:13.5px;}.cls-6{stroke-width:0.56px;}.cls-7{font-size:12px;font-family:Arial-BoldMT, Arial;font-weight:700;}.cls-8{fill:#fff;}.cls-13,.cls-8{stroke-miterlimit:10;}.cls-9{letter-spacing:-0.11em;}.cls-10{font-family:TimesNewRomanPSMT, Times New Roman;}.cls-11{letter-spacing:-0.02em;}.cls-12{letter-spacing:0em;}.cls-14{stroke-width:0.4px;}</style></defs><title>Zeichenfläche 1</title><line class="cls-1" x1="565.7" y1="167.2" x2="565.7" y2="221.2"/><line class="cls-1" x1="565.7" y1="126.7" x2="565.7" y2="140.2"/><line class="cls-1" x1="84.9" y1="126.7" x2="935.4" y2="126.7"/><line class="cls-1" x1="84.9" y1="130.1" x2="935.4" y2="130.1"/><line class="cls-1" x1="84.9" y1="133.5" x2="935.4" y2="133.5"/><line class="cls-1" x1="84.9" y1="136.8" x2="935.4" y2="136.8"/><line class="cls-1" x1="84.9" y1="140.2" x2="935.4" y2="140.2"/><line class="cls-1" x1="84.9" y1="167.2" x2="935.4" y2="167.2"/><line class="cls-1" x1="84.9" y1="170.6" x2="935.4" y2="170.6"/><line class="cls-1" x1="84.9" y1="174" x2="935.4" y2="174"/><line class="cls-1" x1="84.9" y1="177.3" x2="935.4" y2="177.3"/><line class="cls-1" x1="84.9" y1="180.7" x2="935.4" y2="180.7"/><line class="cls-1" x1="84.9" y1="207.7" x2="935.4" y2="207.7"/><line class="cls-1" x1="84.9" y1="211.1" x2="935.4" y2="211.1"/><line class="cls-1" x1="84.9" y1="214.5" x2="935.4" y2="214.5"/><line class="cls-1" x1="84.9" y1="217.8" x2="935.4" y2="217.8"/><line class="cls-1" x1="84.9" y1="221.2" x2="935.4" y2="221.2"/><text class="cls-2" transform="translate(51.02 78.86)">Bl. 39</text><text class="cls-3" transform="translate(68.29 76.61) scale(0.58)">r</text><text class="cls-2" transform="translate(51.02 136.84)">14</text><text class="cls-2" transform="translate(51.02 177.34)">15</text><text class="cls-2" transform="translate(51.02 217.84)">16</text><text class="cls-4" transform="translate(555.05 170.59)">?</text><text class="cls-4" transform="translate(555.05 211.09)">?</text><line class="cls-1" x1="584.9" y1="166.1" x2="584.9" y2="185.2"/><text class="cls-5" transform="translate(584.73 165.53)">œ</text><text class="cls-5" transform="translate(584.73 175.66)">œ</text><text class="cls-5" transform="translate(580.38 175.66)">#</text><text class="cls-5" transform="translate(580.94 165.53)">n</text><line class="cls-1" x1="588.8" y1="230.8" x2="588.8" y2="209.4"/><text class="cls-5" transform="translate(584.73 221.22)">œ</text><line class="cls-6" x1="583.9" y1="231.3" x2="589.9" y2="231.3"/><line class="cls-6" x1="583.9" y1="228" x2="589.9" y2="228"/><line class="cls-6" x1="583.9" y1="224.6" x2="589.9" y2="224.6"/><text class="cls-5" transform="translate(584.73 231.34)">œ</text><text class="cls-5" transform="translate(580.94 231.34)">n</text><text class="cls-5" transform="translate(580.38 221.22)">#</text><text class="cls-5" transform="translate(617.34 214.47)">‰</text><text class="cls-5" transform="translate(638.58 217.84)">œ</text><text class="cls-5" transform="translate(634.78 217.84)">n</text><line class="cls-1" x1="642.7" y1="217.3" x2="642.7" y2="206.9"/><line class="cls-6" x1="659.1" y1="231.3" x2="665.2" y2="231.3"/><line class="cls-6" x1="659.1" y1="228" x2="665.2" y2="228"/><line class="cls-6" x1="659.1" y1="224.6" x2="665.2" y2="224.6"/><text class="cls-5" transform="translate(659.95 231.34)">œ</text><text class="cls-5" transform="translate(655.59 231.34)">#</text><line class="cls-1" x1="664.1" y1="230.8" x2="664.1" y2="217.5"/><path d="M642.5,206l21.8,10.6v1.7l-21.8-10.6Z"/><text class="cls-5" transform="translate(638.58 217.84)">œ</text><line class="cls-1" x1="642.7" y1="217.3" x2="642.7" y2="196.8"/><text class="cls-5" transform="translate(659.95 207.7)">œ</text><line class="cls-1" x1="664.1" y1="207.5" x2="664.1" y2="195.1"/><path d="M642.5,195.9l21.8-1.7v1.7l-21.8,1.7Z"/><text class="cls-7" transform="translate(51.02 46.5)">M 317 Sk4.3</text><polyline class="cls-8" points="94 116.6 94 234.4 482 234.4 482 116.6"/><text class="cls-7" transform="translate(236 177.34)">Sk4 <tspan class="cls-9" x="24.69" y="0">T</tspan><tspan x="30.69" y="0">. 13–15</tspan></text><text class="cls-10" transform="translate(499.95 163.8)">Maria Enzersdorf</text><text class="cls-10" transform="translate(510.15 192.05) rotate(-15)">16.<tspan class="cls-11" x="8.44" y="0"> </tspan><tspan class="cls-12" x="10" y="0">VII. 34</tspan></text><polyline class="cls-8" points="921.5 116.6 921.5 149.9 769.8 149.9 769.8 116.6"/><text class="cls-7" transform="translate(813.75 136.84)">Sk4 <tspan class="cls-9" x="24.69" y="0">T</tspan><tspan x="30.69" y="0">. 7–12</tspan></text><path class="cls-13" d="M217.7,239.1A690.37,690.37,0,0,0,397,263.8a692.74,692.74,0,0,0,189.3-25.3"/><path class="cls-14" d="M555.3,206.8h-1.4v12.4h1.4"/><path class="cls-14" d="M561.4,206.8h1.4v12.4h-1.4"/><path class="cls-14" d="M555.3,166.1h-1.4v12.4h1.4"/><path class="cls-14" d="M561.4,166.1h1.4v12.4h-1.4"/><text class="cls-5" transform="translate(655.59 207.7)">#</text><text class="cls-2" transform="translate(565.7 78.86)">13</text></svg>