<?xml version="1.0" encoding="UTF-8" standalone="no"?>
<!DOCTYPE svg PUBLIC "-//W3C//DTD SVG 1.1//EN"
 "http://www.w3.org/Graphics/SVG/1.1/DTD/svg11.dtd">
<!-- Generated by graphviz version 2.47.0 (20210316.0004)
 -->
<!-- Title: dependencies Pages: 1 -->
<svg width="544pt" height="211pt"
 viewBox="0.00 0.00 544.00 211.00" xmlns="http://www.w3.org/2000/svg" xmlns:xlink="http://www.w3.org/1999/xlink">
<g id="graph0" class="graph" transform="scale(1 1) rotate(0) translate(4 207)">
<title>dependencies</title>
<polygon fill="white" stroke="transparent" points="-4,4 -4,-207 540,-207 540,4 -4,4"/>
<text text-anchor="start" x="247.01" y="-42.4" font-family="sans-serif" font-weight="bold" font-size="14.00">Legend</text>
<polygon fill="#ffffb3" stroke="transparent" points="34,-10 34,-30 54,-30 54,-10 34,-10"/>
<text text-anchor="start" x="57.63" y="-15.4" font-family="sans-serif" font-size="14.00"> &#160;Declarations</text>
<polygon fill="#8dd3c7" stroke="transparent" points="147,-10 147,-30 167,-30 167,-10 147,-10"/>
<text text-anchor="start" x="170.73" y="-15.4" font-family="sans-serif" font-size="14.00"> &#160;Module</text>
<polygon fill="#80b1d3" stroke="transparent" points="233,-10 233,-30 253,-30 253,-10 233,-10"/>
<text text-anchor="start" x="256.78" y="-15.4" font-family="sans-serif" font-size="14.00"> &#160;Bootstrap</text>
<polygon fill="#fdb462" stroke="transparent" points="330,-10 330,-30 350,-30 350,-10 330,-10"/>
<text text-anchor="start" x="353.67" y="-15.4" font-family="sans-serif" font-size="14.00"> &#160;Providers</text>
<polygon fill="#fb8072" stroke="transparent" points="426,-10 426,-30 446,-30 446,-10 426,-10"/>
<text text-anchor="start" x="449.73" y="-15.4" font-family="sans-serif" font-size="14.00"> &#160;Exports</text>
<g id="clust1" class="cluster">
<title>cluster_StructureViewModule</title>
<polygon fill="none" stroke="black" stroke-dasharray="1,5" points="8,-70 8,-195 528,-195 528,-70 8,-70"/>
</g>
<g id="clust2" class="cluster">
<title>cluster_StructureViewModule_declarations</title>
<polygon fill="none" stroke="black" points="342,-78 342,-130 520,-130 520,-78 342,-78"/>
</g>
<g id="clust4" class="cluster">
<title>cluster_StructureViewModule_imports</title>
<polygon fill="none" stroke="black" points="16,-78 16,-130 334,-130 334,-78 16,-78"/>
</g>
<!-- StructureViewComponent -->
<g id="node1" class="node">
<title>StructureViewComponent</title>
<polygon fill="#ffffb3" stroke="black" points="512.47,-122 349.53,-122 349.53,-86 512.47,-86 512.47,-122"/>
<text text-anchor="middle" x="431" y="-99.8" font-family="Times,serif" font-size="14.00">StructureViewComponent</text>
</g>
<!-- StructureViewModule -->
<g id="node2" class="node">
<title>StructureViewModule</title>
<polygon fill="#8dd3c7" stroke="black" points="347.68,-187 344.68,-191 323.68,-191 320.68,-187 206.32,-187 206.32,-151 347.68,-151 347.68,-187"/>
<text text-anchor="middle" x="277" y="-164.8" font-family="Times,serif" font-size="14.00">StructureViewModule</text>
</g>
<!-- StructureViewComponent&#45;&gt;StructureViewModule -->
<g id="edge1" class="edge">
<title>StructureViewComponent&#45;&gt;StructureViewModule</title>
<path fill="none" stroke="black" d="M349.2,-104C341.73,-104 336.9,-104 336.9,-104 336.9,-104 336.9,-140.89 336.9,-140.89"/>
<polygon fill="black" stroke="black" points="333.4,-140.89 336.9,-150.89 340.4,-140.89 333.4,-140.89"/>
</g>
<!-- SharedModule -->
<g id="node3" class="node">
<title>SharedModule</title>
<polygon fill="#8dd3c7" stroke="black" points="326.42,-122 323.42,-126 302.42,-126 299.42,-122 227.58,-122 227.58,-86 326.42,-86 326.42,-122"/>
<text text-anchor="middle" x="277" y="-99.8" font-family="Times,serif" font-size="14.00">SharedModule</text>
</g>
<!-- SharedModule&#45;&gt;StructureViewModule -->
<g id="edge2" class="edge">
<title>SharedModule&#45;&gt;StructureViewModule</title>
<path fill="none" stroke="black" d="M277,-122.11C277,-122.11 277,-140.99 277,-140.99"/>
<polygon fill="black" stroke="black" points="273.5,-140.99 277,-150.99 280.5,-140.99 273.5,-140.99"/>
</g>
<!-- StructureViewRoutingModule -->
<g id="node4" class="node">
<title>StructureViewRoutingModule</title>
<polygon fill="#8dd3c7" stroke="black" points="210.3,-122 207.3,-126 186.3,-126 183.3,-122 23.7,-122 23.7,-86 210.3,-86 210.3,-122"/>
<text text-anchor="middle" x="117" y="-99.8" font-family="Times,serif" font-size="14.00">StructureViewRoutingModule</text>
</g>
<!-- StructureViewRoutingModule&#45;&gt;StructureViewModule -->
<g id="edge3" class="edge">
<title>StructureViewRoutingModule&#45;&gt;StructureViewModule</title>
<path fill="none" stroke="black" d="M210.28,-104C215.68,-104 218.97,-104 218.97,-104 218.97,-104 218.97,-140.89 218.97,-140.89"/>
<polygon fill="black" stroke="black" points="215.47,-140.89 218.97,-150.89 222.47,-140.89 215.47,-140.89"/>
</g>
</g>
</svg>
