<?xml version="1.0" encoding="UTF-8" standalone="no"?>
<!DOCTYPE svg PUBLIC "-//W3C//DTD SVG 1.1//EN"
 "http://www.w3.org/Graphics/SVG/1.1/DTD/svg11.dtd">
<!-- Generated by graphviz version 2.40.1 (20161225.0304)
 -->
<!-- Title: dependencies Pages: 1 -->
<svg width="544pt" height="211pt"
 viewBox="0.00 0.00 544.00 211.00" xmlns="http://www.w3.org/2000/svg" xmlns:xlink="http://www.w3.org/1999/xlink">
<g id="graph0" class="graph" transform="scale(1 1) rotate(0) translate(4 207)">
<title>dependencies</title>
<polygon fill="#ffffff" stroke="transparent" points="-4,4 -4,-207 540,-207 540,4 -4,4"/>
<text text-anchor="start" x="247.0091" y="-42.4" font-family="sans-serif" font-weight="bold" font-size="14.00" fill="#000000">Legend</text>
<polygon fill="#ffffb3" stroke="transparent" points="34,-10 34,-30 54,-30 54,-10 34,-10"/>
<text text-anchor="start" x="57.629" y="-15.4" font-family="sans-serif" font-size="14.00" fill="#000000"> &#160;Declarations</text>
<polygon fill="#8dd3c7" stroke="transparent" points="147,-10 147,-30 167,-30 167,-10 147,-10"/>
<text text-anchor="start" x="170.7251" y="-15.4" font-family="sans-serif" font-size="14.00" fill="#000000"> &#160;Module</text>
<polygon fill="#80b1d3" stroke="transparent" points="233,-10 233,-30 253,-30 253,-10 233,-10"/>
<text text-anchor="start" x="256.7812" y="-15.4" font-family="sans-serif" font-size="14.00" fill="#000000"> &#160;Bootstrap</text>
<polygon fill="#fdb462" stroke="transparent" points="330,-10 330,-30 350,-30 350,-10 330,-10"/>
<text text-anchor="start" x="353.6732" y="-15.4" font-family="sans-serif" font-size="14.00" fill="#000000"> &#160;Providers</text>
<polygon fill="#fb8072" stroke="transparent" points="426,-10 426,-30 446,-30 446,-10 426,-10"/>
<text text-anchor="start" x="449.7258" y="-15.4" font-family="sans-serif" font-size="14.00" fill="#000000"> &#160;Exports</text>
<g id="clust1" class="cluster">
<title>cluster_StructureViewModule</title>
<polygon fill="none" stroke="#000000" stroke-dasharray="1,5" points="8,-70 8,-195 528,-195 528,-70 8,-70"/>
</g>
<g id="clust2" class="cluster">
<title>cluster_StructureViewModule_declarations</title>
<polygon fill="none" stroke="#000000" points="342,-78 342,-130 520,-130 520,-78 342,-78"/>
</g>
<g id="clust4" class="cluster">
<title>cluster_StructureViewModule_imports</title>
<polygon fill="none" stroke="#000000" points="16,-78 16,-130 334,-130 334,-78 16,-78"/>
</g>
<!-- StructureViewComponent -->
<g id="node1" class="node">
<title>StructureViewComponent</title>
<polygon fill="#ffffb3" stroke="#000000" points="512.465,-122 349.535,-122 349.535,-86 512.465,-86 512.465,-122"/>
<text text-anchor="middle" x="431" y="-99.8" font-family="Times,serif" font-size="14.00" fill="#000000">StructureViewComponent</text>
</g>
<!-- StructureViewModule -->
<g id="node2" class="node">
<title>StructureViewModule</title>
<polygon fill="#8dd3c7" stroke="#000000" points="347.6825,-187 344.6825,-191 323.6825,-191 320.6825,-187 206.3175,-187 206.3175,-151 347.6825,-151 347.6825,-187"/>
<text text-anchor="middle" x="277" y="-164.8" font-family="Times,serif" font-size="14.00" fill="#000000">StructureViewModule</text>
</g>
<!-- StructureViewComponent&#45;&gt;StructureViewModule -->
<g id="edge1" class="edge">
<title>StructureViewComponent&#45;&gt;StructureViewModule</title>
<path fill="none" stroke="#000000" d="M349.2029,-104C341.7313,-104 336.9011,-104 336.9011,-104 336.9011,-104 336.9011,-140.8939 336.9011,-140.8939"/>
<polygon fill="#000000" stroke="#000000" points="333.4012,-140.8938 336.9011,-150.8939 340.4012,-140.8939 333.4012,-140.8938"/>
</g>
<!-- SharedModule -->
<g id="node3" class="node">
<title>SharedModule</title>
<polygon fill="#8dd3c7" stroke="#000000" points="326.4231,-122 323.4231,-126 302.4231,-126 299.4231,-122 227.5769,-122 227.5769,-86 326.4231,-86 326.4231,-122"/>
<text text-anchor="middle" x="277" y="-99.8" font-family="Times,serif" font-size="14.00" fill="#000000">SharedModule</text>
</g>
<!-- SharedModule&#45;&gt;StructureViewModule -->
<g id="edge2" class="edge">
<title>SharedModule&#45;&gt;StructureViewModule</title>
<path fill="none" stroke="#000000" d="M277,-122.1061C277,-122.1061 277,-140.991 277,-140.991"/>
<polygon fill="#000000" stroke="#000000" points="273.5001,-140.9909 277,-150.991 280.5001,-140.991 273.5001,-140.9909"/>
</g>
<!-- StructureViewRoutingModule -->
<g id="node4" class="node">
<title>StructureViewRoutingModule</title>
<polygon fill="#8dd3c7" stroke="#000000" points="210.3004,-122 207.3004,-126 186.3004,-126 183.3004,-122 23.6996,-122 23.6996,-86 210.3004,-86 210.3004,-122"/>
<text text-anchor="middle" x="117" y="-99.8" font-family="Times,serif" font-size="14.00" fill="#000000">StructureViewRoutingModule</text>
</g>
<!-- StructureViewRoutingModule&#45;&gt;StructureViewModule -->
<g id="edge3" class="edge">
<title>StructureViewRoutingModule&#45;&gt;StructureViewModule</title>
<path fill="none" stroke="#000000" d="M210.2756,-104C215.6771,-104 218.9695,-104 218.9695,-104 218.9695,-104 218.9695,-140.8939 218.9695,-140.8939"/>
<polygon fill="#000000" stroke="#000000" points="215.4696,-140.8938 218.9695,-150.8939 222.4696,-140.8939 215.4696,-140.8938"/>
</g>
</g>
</svg>
