<?xml version="1.0" encoding="UTF-8" standalone="no"?>
<!DOCTYPE svg PUBLIC "-//W3C//DTD SVG 1.1//EN"
 "http://www.w3.org/Graphics/SVG/1.1/DTD/svg11.dtd">
<!-- Generated by graphviz version 5.0.0 (20220707.1540)
 -->
<!-- Title: dependencies Pages: 1 -->
<svg width="544pt" height="174pt"
 viewBox="0.00 0.00 544.00 173.80" xmlns="http://www.w3.org/2000/svg" xmlns:xlink="http://www.w3.org/1999/xlink">
<g id="graph0" class="graph" transform="scale(1 1) rotate(0) translate(4 169.8)">
<title>dependencies</title>
<polygon fill="white" stroke="transparent" points="-4,4 -4,-169.8 540,-169.8 540,4 -4,4"/>
<text text-anchor="middle" x="268" y="-8.2" font-family="sans-serif" font-size="14.00">dependencies</text>
<g id="clust1" class="cluster">
<title>cluster_StructureViewModule</title>
<polygon fill="none" stroke="black" stroke-dasharray="1,5" points="8,-32.8 8,-157.8 528,-157.8 528,-32.8 8,-32.8"/>
</g>
<g id="clust2" class="cluster">
<title>cluster_StructureViewModule_declarations</title>
<polygon fill="none" stroke="black" points="342,-40.8 342,-92.8 520,-92.8 520,-40.8 342,-40.8"/>
</g>
<g id="clust4" class="cluster">
<title>cluster_StructureViewModule_imports</title>
<polygon fill="none" stroke="black" points="16,-40.8 16,-92.8 334,-92.8 334,-40.8 16,-40.8"/>
</g>
<!-- StructureViewComponent -->
<g id="node1" class="node">
<title>StructureViewComponent</title>
<polygon fill="#ffffb3" stroke="black" points="512.47,-84.8 349.53,-84.8 349.53,-48.8 512.47,-48.8 512.47,-84.8"/>
<text text-anchor="middle" x="431" y="-62.6" font-family="Times,serif" font-size="14.00">StructureViewComponent</text>
</g>
<!-- StructureViewModule -->
<g id="node2" class="node">
<title>StructureViewModule</title>
<polygon fill="#8dd3c7" stroke="black" points="347.69,-149.8 344.69,-153.8 323.69,-153.8 320.69,-149.8 206.31,-149.8 206.31,-113.8 347.69,-113.8 347.69,-149.8"/>
<text text-anchor="middle" x="277" y="-127.6" font-family="Times,serif" font-size="14.00">StructureViewModule</text>
</g>
<!-- StructureViewComponent&#45;&gt;StructureViewModule -->
<g id="edge1" class="edge">
<title>StructureViewComponent&#45;&gt;StructureViewModule</title>
<path fill="none" stroke="black" d="M349.21,-66.8C341.74,-66.8 336.91,-66.8 336.91,-66.8 336.91,-66.8 336.91,-103.69 336.91,-103.69"/>
<polygon fill="black" stroke="black" points="333.41,-103.69 336.91,-113.69 340.41,-103.69 333.41,-103.69"/>
</g>
<!-- SharedModule -->
<g id="node3" class="node">
<title>SharedModule</title>
<polygon fill="#8dd3c7" stroke="black" points="326.43,-84.8 323.43,-88.8 302.43,-88.8 299.43,-84.8 227.57,-84.8 227.57,-48.8 326.43,-48.8 326.43,-84.8"/>
<text text-anchor="middle" x="277" y="-62.6" font-family="Times,serif" font-size="14.00">SharedModule</text>
</g>
<!-- SharedModule&#45;&gt;StructureViewModule -->
<g id="edge2" class="edge">
<title>SharedModule&#45;&gt;StructureViewModule</title>
<path fill="none" stroke="black" d="M277,-84.91C277,-84.91 277,-103.79 277,-103.79"/>
<polygon fill="black" stroke="black" points="273.5,-103.79 277,-113.79 280.5,-103.79 273.5,-103.79"/>
</g>
<!-- StructureViewRoutingModule -->
<g id="node4" class="node">
<title>StructureViewRoutingModule</title>
<polygon fill="#8dd3c7" stroke="black" points="210.31,-84.8 207.31,-88.8 186.31,-88.8 183.31,-84.8 23.69,-84.8 23.69,-48.8 210.31,-48.8 210.31,-84.8"/>
<text text-anchor="middle" x="117" y="-62.6" font-family="Times,serif" font-size="14.00">StructureViewRoutingModule</text>
</g>
<!-- StructureViewRoutingModule&#45;&gt;StructureViewModule -->
<g id="edge3" class="edge">
<title>StructureViewRoutingModule&#45;&gt;StructureViewModule</title>
<path fill="none" stroke="black" d="M210.28,-66.8C215.68,-66.8 218.97,-66.8 218.97,-66.8 218.97,-66.8 218.97,-103.69 218.97,-103.69"/>
<polygon fill="black" stroke="black" points="215.47,-103.69 218.97,-113.69 222.47,-103.69 215.47,-103.69"/>
</g>
</g>
</svg>
