<?xml version="1.0" encoding="UTF-8" standalone="no"?>
<!DOCTYPE svg PUBLIC "-//W3C//DTD SVG 1.1//EN"
 "http://www.w3.org/Graphics/SVG/1.1/DTD/svg11.dtd">
<!-- Generated by graphviz version 2.47.3 (20210619.1520)
 -->
<!-- Title: dependencies Pages: 1 -->
<svg width="544pt" height="174pt"
 viewBox="0.00 0.00 544.00 173.80" xmlns="http://www.w3.org/2000/svg" xmlns:xlink="http://www.w3.org/1999/xlink">
<g id="graph0" class="graph" transform="scale(1 1) rotate(0) translate(4 169.8)">
<title>dependencies</title>
<polygon fill="white" stroke="transparent" points="-4,4 -4,-169.8 540,-169.8 540,4 -4,4"/>
<text text-anchor="middle" x="268" y="-8.2" font-family="sans-serif" font-size="14.00">dependencies</text>
<g id="clust1" class="cluster">
<title>cluster_StructureViewModule</title>
<polygon fill="none" stroke="black" stroke-dasharray="1,5" points="8,-32.8 8,-157.8 528,-157.8 528,-32.8 8,-32.8"/>
</g>
<g id="clust4" class="cluster">
<title>cluster_StructureViewModule_imports</title>
<polygon fill="none" stroke="black" points="202,-40.8 202,-92.8 520,-92.8 520,-40.8 202,-40.8"/>
</g>
<g id="clust2" class="cluster">
<title>cluster_StructureViewModule_declarations</title>
<polygon fill="none" stroke="black" points="16,-40.8 16,-92.8 194,-92.8 194,-40.8 16,-40.8"/>
</g>
<!-- StructureViewComponent -->
<g id="node1" class="node">
<title>StructureViewComponent</title>
<polygon fill="#ffffb3" stroke="black" points="186.47,-84.8 23.53,-84.8 23.53,-48.8 186.47,-48.8 186.47,-84.8"/>
<text text-anchor="middle" x="105" y="-62.6" font-family="Times,serif" font-size="14.00">StructureViewComponent</text>
</g>
<!-- StructureViewModule -->
<g id="node2" class="node">
<title>StructureViewModule</title>
<polygon fill="#8dd3c7" stroke="black" points="373.68,-149.8 370.68,-153.8 349.68,-153.8 346.68,-149.8 232.32,-149.8 232.32,-113.8 373.68,-113.8 373.68,-149.8"/>
<text text-anchor="middle" x="303" y="-127.6" font-family="Times,serif" font-size="14.00">StructureViewModule</text>
</g>
<!-- StructureViewComponent&#45;&gt;StructureViewModule -->
<g id="edge1" class="edge">
<title>StructureViewComponent&#45;&gt;StructureViewModule</title>
<path fill="none" stroke="black" d="M105,-84.91C105,-104.14 105,-131.8 105,-131.8 105,-131.8 222.36,-131.8 222.36,-131.8"/>
<polygon fill="black" stroke="black" points="222.36,-135.3 232.36,-131.8 222.36,-128.3 222.36,-135.3"/>
</g>
<!-- SharedModule -->
<g id="node3" class="node">
<title>SharedModule</title>
<polygon fill="#8dd3c7" stroke="black" points="512.42,-84.8 509.42,-88.8 488.42,-88.8 485.42,-84.8 413.58,-84.8 413.58,-48.8 512.42,-48.8 512.42,-84.8"/>
<text text-anchor="middle" x="463" y="-62.6" font-family="Times,serif" font-size="14.00">SharedModule</text>
</g>
<!-- SharedModule&#45;&gt;StructureViewModule -->
<g id="edge2" class="edge">
<title>SharedModule&#45;&gt;StructureViewModule</title>
<path fill="none" stroke="black" d="M463,-84.91C463,-104.14 463,-131.8 463,-131.8 463,-131.8 383.64,-131.8 383.64,-131.8"/>
<polygon fill="black" stroke="black" points="383.64,-128.3 373.64,-131.8 383.64,-135.3 383.64,-128.3"/>
</g>
<!-- StructureViewRoutingModule -->
<g id="node4" class="node">
<title>StructureViewRoutingModule</title>
<polygon fill="#8dd3c7" stroke="black" points="396.3,-84.8 393.3,-88.8 372.3,-88.8 369.3,-84.8 209.7,-84.8 209.7,-48.8 396.3,-48.8 396.3,-84.8"/>
<text text-anchor="middle" x="303" y="-62.6" font-family="Times,serif" font-size="14.00">StructureViewRoutingModule</text>
</g>
<!-- StructureViewRoutingModule&#45;&gt;StructureViewModule -->
<g id="edge3" class="edge">
<title>StructureViewRoutingModule&#45;&gt;StructureViewModule</title>
<path fill="none" stroke="black" d="M303,-84.91C303,-84.91 303,-103.79 303,-103.79"/>
<polygon fill="black" stroke="black" points="299.5,-103.79 303,-113.79 306.5,-103.79 299.5,-103.79"/>
</g>
</g>
</svg>
