<?xml version="1.0" encoding="UTF-8" standalone="no"?>
<!DOCTYPE svg PUBLIC "-//W3C//DTD SVG 1.1//EN"
 "http://www.w3.org/Graphics/SVG/1.1/DTD/svg11.dtd">
<!-- Generated by graphviz version 2.47.0 (20210316.0004)
 -->
<!-- Title: dependencies Pages: 1 -->
<svg width="544pt" height="211pt"
 viewBox="0.00 0.00 544.00 211.00" xmlns="http://www.w3.org/2000/svg" xmlns:xlink="http://www.w3.org/1999/xlink">
<g id="graph0" class="graph" transform="scale(1 1) rotate(0) translate(4 207)">
<title>dependencies</title>
<polygon fill="white" stroke="transparent" points="-4,4 -4,-207 540,-207 540,4 -4,4"/>
<text text-anchor="start" x="247.01" y="-42.4" font-family="sans-serif" font-weight="bold" font-size="14.00">Legend</text>
<polygon fill="#ffffb3" stroke="transparent" points="34,-10 34,-30 54,-30 54,-10 34,-10"/>
<text text-anchor="start" x="57.63" y="-15.4" font-family="sans-serif" font-size="14.00"> &#160;Declarations</text>
<polygon fill="#8dd3c7" stroke="transparent" points="147,-10 147,-30 167,-30 167,-10 147,-10"/>
<text text-anchor="start" x="170.73" y="-15.4" font-family="sans-serif" font-size="14.00"> &#160;Module</text>
<polygon fill="#80b1d3" stroke="transparent" points="233,-10 233,-30 253,-30 253,-10 233,-10"/>
<text text-anchor="start" x="256.78" y="-15.4" font-family="sans-serif" font-size="14.00"> &#160;Bootstrap</text>
<polygon fill="#fdb462" stroke="transparent" points="330,-10 330,-30 350,-30 350,-10 330,-10"/>
<text text-anchor="start" x="353.67" y="-15.4" font-family="sans-serif" font-size="14.00"> &#160;Providers</text>
<polygon fill="#fb8072" stroke="transparent" points="426,-10 426,-30 446,-30 446,-10 426,-10"/>
<text text-anchor="start" x="449.73" y="-15.4" font-family="sans-serif" font-size="14.00"> &#160;Exports</text>
<g id="clust1" class="cluster">
<title>cluster_StructureViewModule</title>
<polygon fill="none" stroke="black" stroke-dasharray="1,5" points="8,-70 8,-195 528,-195 528,-70 8,-70"/>
</g>
<g id="clust4" class="cluster">
<title>cluster_StructureViewModule_imports</title>
<polygon fill="none" stroke="black" points="202,-78 202,-130 520,-130 520,-78 202,-78"/>
</g>
<g id="clust2" class="cluster">
<title>cluster_StructureViewModule_declarations</title>
<polygon fill="none" stroke="black" points="16,-78 16,-130 194,-130 194,-78 16,-78"/>
</g>
<!-- StructureViewComponent -->
<g id="node1" class="node">
<title>StructureViewComponent</title>
<polygon fill="#ffffb3" stroke="black" points="186.47,-122 23.53,-122 23.53,-86 186.47,-86 186.47,-122"/>
<text text-anchor="middle" x="105" y="-99.8" font-family="Times,serif" font-size="14.00">StructureViewComponent</text>
</g>
<!-- StructureViewModule -->
<g id="node2" class="node">
<title>StructureViewModule</title>
<polygon fill="#8dd3c7" stroke="black" points="373.68,-187 370.68,-191 349.68,-191 346.68,-187 232.32,-187 232.32,-151 373.68,-151 373.68,-187"/>
<text text-anchor="middle" x="303" y="-164.8" font-family="Times,serif" font-size="14.00">StructureViewModule</text>
</g>
<!-- StructureViewComponent&#45;&gt;StructureViewModule -->
<g id="edge1" class="edge">
<title>StructureViewComponent&#45;&gt;StructureViewModule</title>
<path fill="none" stroke="black" d="M105,-122.11C105,-141.34 105,-169 105,-169 105,-169 222.36,-169 222.36,-169"/>
<polygon fill="black" stroke="black" points="222.36,-172.5 232.36,-169 222.36,-165.5 222.36,-172.5"/>
</g>
<!-- SharedModule -->
<g id="node3" class="node">
<title>SharedModule</title>
<polygon fill="#8dd3c7" stroke="black" points="512.42,-122 509.42,-126 488.42,-126 485.42,-122 413.58,-122 413.58,-86 512.42,-86 512.42,-122"/>
<text text-anchor="middle" x="463" y="-99.8" font-family="Times,serif" font-size="14.00">SharedModule</text>
</g>
<!-- SharedModule&#45;&gt;StructureViewModule -->
<g id="edge2" class="edge">
<title>SharedModule&#45;&gt;StructureViewModule</title>
<path fill="none" stroke="black" d="M463,-122.11C463,-141.34 463,-169 463,-169 463,-169 383.64,-169 383.64,-169"/>
<polygon fill="black" stroke="black" points="383.64,-165.5 373.64,-169 383.64,-172.5 383.64,-165.5"/>
</g>
<!-- StructureViewRoutingModule -->
<g id="node4" class="node">
<title>StructureViewRoutingModule</title>
<polygon fill="#8dd3c7" stroke="black" points="396.3,-122 393.3,-126 372.3,-126 369.3,-122 209.7,-122 209.7,-86 396.3,-86 396.3,-122"/>
<text text-anchor="middle" x="303" y="-99.8" font-family="Times,serif" font-size="14.00">StructureViewRoutingModule</text>
</g>
<!-- StructureViewRoutingModule&#45;&gt;StructureViewModule -->
<g id="edge3" class="edge">
<title>StructureViewRoutingModule&#45;&gt;StructureViewModule</title>
<path fill="none" stroke="black" d="M303,-122.11C303,-122.11 303,-140.99 303,-140.99"/>
<polygon fill="black" stroke="black" points="299.5,-140.99 303,-150.99 306.5,-140.99 299.5,-140.99"/>
</g>
</g>
</svg>
