<?xml version="1.0" encoding="UTF-8" standalone="no"?>
<!DOCTYPE svg PUBLIC "-//W3C//DTD SVG 1.1//EN"
 "http://www.w3.org/Graphics/SVG/1.1/DTD/svg11.dtd">
<!-- Generated by graphviz version 2.47.0 (20210316.0004)
 -->
<!-- Title: dependencies Pages: 1 -->
<svg width="634pt" height="284pt"
 viewBox="0.00 0.00 634.00 284.00" xmlns="http://www.w3.org/2000/svg" xmlns:xlink="http://www.w3.org/1999/xlink">
<g id="graph0" class="graph" transform="scale(1 1) rotate(0) translate(4 280)">
<title>dependencies</title>
<polygon fill="white" stroke="transparent" points="-4,4 -4,-280 630,-280 630,4 -4,4"/>
<text text-anchor="start" x="292.01" y="-42.4" font-family="Times-12" font-weight="bold" font-size="14.00">Legend</text>
<polygon fill="#ffffb3" stroke="transparent" points="79,-10 79,-30 99,-30 99,-10 79,-10"/>
<text text-anchor="start" x="102.63" y="-15.4" font-family="Times-12" font-size="14.00"> &#160;Declarations</text>
<polygon fill="#8dd3c7" stroke="transparent" points="192,-10 192,-30 212,-30 212,-10 192,-10"/>
<text text-anchor="start" x="215.73" y="-15.4" font-family="Times-12" font-size="14.00"> &#160;Module</text>
<polygon fill="#80b1d3" stroke="transparent" points="278,-10 278,-30 298,-30 298,-10 278,-10"/>
<text text-anchor="start" x="301.78" y="-15.4" font-family="Times-12" font-size="14.00"> &#160;Bootstrap</text>
<polygon fill="#fdb462" stroke="transparent" points="375,-10 375,-30 395,-30 395,-10 375,-10"/>
<text text-anchor="start" x="398.67" y="-15.4" font-family="Times-12" font-size="14.00"> &#160;Providers</text>
<polygon fill="#fb8072" stroke="transparent" points="471,-10 471,-30 491,-30 491,-10 471,-10"/>
<text text-anchor="start" x="494.73" y="-15.4" font-family="Times-12" font-size="14.00"> &#160;Exports</text>
<g id="clust1" class="cluster">
<title>cluster_EditionSvgSheetFacetModule</title>
<polygon fill="none" stroke="black" stroke-dasharray="1,5" points="8,-70 8,-268 618,-268 618,-70 8,-70"/>
</g>
<g id="clust5" class="cluster">
<title>cluster_EditionSvgSheetFacetModule_imports</title>
<polygon fill="none" stroke="black" points="496,-78 496,-130 610,-130 610,-78 496,-78"/>
</g>
<g id="clust2" class="cluster">
<title>cluster_EditionSvgSheetFacetModule_declarations</title>
<polygon fill="none" stroke="black" points="16,-78 16,-130 488,-130 488,-78 16,-78"/>
</g>
<g id="clust6" class="cluster">
<title>cluster_EditionSvgSheetFacetModule_exports</title>
<polygon fill="none" stroke="black" points="74,-208 74,-260 552,-260 552,-208 74,-208"/>
</g>
<!-- EditionSvgSheetFacetComponent -->
<g id="node1" class="node">
<title>EditionSvgSheetFacetComponent</title>
<polygon fill="#ffffb3" stroke="black" points="479.76,-122 274.24,-122 274.24,-86 479.76,-86 479.76,-122"/>
<text text-anchor="middle" x="377" y="-99.8" font-family="Times,serif" font-size="14.00">EditionSvgSheetFacetComponent</text>
</g>
<!-- EditionSvgSheetFacetModule -->
<g id="node3" class="node">
<title>EditionSvgSheetFacetModule</title>
<polygon fill="#8dd3c7" stroke="black" points="468.98,-187 465.98,-191 444.98,-191 441.98,-187 285.02,-187 285.02,-151 468.98,-151 468.98,-187"/>
<text text-anchor="middle" x="377" y="-164.8" font-family="Times,serif" font-size="14.00">EditionSvgSheetFacetModule</text>
</g>
<!-- EditionSvgSheetFacetComponent&#45;&gt;EditionSvgSheetFacetModule -->
<g id="edge1" class="edge">
<title>EditionSvgSheetFacetComponent&#45;&gt;EditionSvgSheetFacetModule</title>
<path fill="none" stroke="black" d="M377,-122.11C377,-122.11 377,-140.99 377,-140.99"/>
<polygon fill="black" stroke="black" points="373.5,-140.99 377,-150.99 380.5,-140.99 373.5,-140.99"/>
</g>
<!-- EditionSvgSheetFacetItemComponent -->
<g id="node2" class="node">
<title>EditionSvgSheetFacetItemComponent</title>
<polygon fill="#ffffb3" stroke="black" points="255.92,-122 24.08,-122 24.08,-86 255.92,-86 255.92,-122"/>
<text text-anchor="middle" x="140" y="-99.8" font-family="Times,serif" font-size="14.00">EditionSvgSheetFacetItemComponent</text>
</g>
<!-- EditionSvgSheetFacetItemComponent&#45;&gt;EditionSvgSheetFacetModule -->
<g id="edge2" class="edge">
<title>EditionSvgSheetFacetItemComponent&#45;&gt;EditionSvgSheetFacetModule</title>
<path fill="none" stroke="black" d="M168.62,-122.11C168.62,-141.34 168.62,-169 168.62,-169 168.62,-169 275,-169 275,-169"/>
<polygon fill="black" stroke="black" points="275,-172.5 285,-169 275,-165.5 275,-172.5"/>
</g>
<!-- EditionSvgSheetFacetComponent  -->
<g id="node5" class="node">
<title>EditionSvgSheetFacetComponent </title>
<polygon fill="#fb8072" stroke="black" points="543.76,-252 334.24,-252 334.24,-216 543.76,-216 543.76,-252"/>
<text text-anchor="middle" x="439" y="-229.8" font-family="Times,serif" font-size="14.00">EditionSvgSheetFacetComponent </text>
</g>
<!-- EditionSvgSheetFacetModule&#45;&gt;EditionSvgSheetFacetComponent  -->
<g id="edge4" class="edge">
<title>EditionSvgSheetFacetModule&#45;&gt;EditionSvgSheetFacetComponent </title>
<path fill="none" stroke="black" stroke-dasharray="5,2" d="M401.68,-187.11C401.68,-187.11 401.68,-205.99 401.68,-205.99"/>
<polygon fill="black" stroke="black" points="398.18,-205.99 401.68,-215.99 405.18,-205.99 398.18,-205.99"/>
</g>
<!-- EditionSvgSheetFacetItemComponent  -->
<g id="node6" class="node">
<title>EditionSvgSheetFacetItemComponent </title>
<polygon fill="#fb8072" stroke="black" points="316.42,-252 81.58,-252 81.58,-216 316.42,-216 316.42,-252"/>
<text text-anchor="middle" x="199" y="-229.8" font-family="Times,serif" font-size="14.00">EditionSvgSheetFacetItemComponent </text>
</g>
<!-- EditionSvgSheetFacetModule&#45;&gt;EditionSvgSheetFacetItemComponent  -->
<g id="edge5" class="edge">
<title>EditionSvgSheetFacetModule&#45;&gt;EditionSvgSheetFacetItemComponent </title>
<path fill="none" stroke="black" stroke-dasharray="5,2" d="M300.73,-187.11C300.73,-187.11 300.73,-205.99 300.73,-205.99"/>
<polygon fill="black" stroke="black" points="297.23,-205.99 300.73,-215.99 304.23,-205.99 297.23,-205.99"/>
</g>
<!-- SharedModule -->
<g id="node4" class="node">
<title>SharedModule</title>
<polygon fill="#8dd3c7" stroke="black" points="602.42,-122 599.42,-126 578.42,-126 575.42,-122 503.58,-122 503.58,-86 602.42,-86 602.42,-122"/>
<text text-anchor="middle" x="553" y="-99.8" font-family="Times,serif" font-size="14.00">SharedModule</text>
</g>
<!-- SharedModule&#45;&gt;EditionSvgSheetFacetModule -->
<g id="edge3" class="edge">
<title>SharedModule&#45;&gt;EditionSvgSheetFacetModule</title>
<path fill="none" stroke="black" d="M523.71,-122.11C523.71,-141.34 523.71,-169 523.71,-169 523.71,-169 479.08,-169 479.08,-169"/>
<polygon fill="black" stroke="black" points="479.08,-165.5 469.08,-169 479.08,-172.5 479.08,-165.5"/>
</g>
</g>
</svg>
