<?xml version="1.0" encoding="UTF-8" standalone="no"?>
<svg xmlns="http://www.w3.org/2000/svg" xml:space="preserve" id="svg2243" width="1039.331" height="1334.33" x="0" y="0" version="1.1" viewBox="0 0 1050 1200">
  <defs id="defs2247">
    <marker id="marker4476" orient="auto" refX="0" refY="0" style="overflow:visible">
      <path id="path4474" d="M8.719 4.034-2.207.016 8.719-4.002c-1.746 2.372-1.736 5.618 0 8.036z" style="fill:#d24a4b;fill-opacity:1;fill-rule:evenodd;stroke:#d24a4b;stroke-width:.625;stroke-linejoin:round;stroke-opacity:1" transform="matrix(-1.1 0 0 -1.1 -1.1 0)"/>
    </marker>
    <marker id="Arrow2Lend" orient="auto" refX="0" refY="0" style="overflow:visible">
      <path id="path4199" d="M8.719 4.034-2.207.016 8.719-4.002c-1.746 2.372-1.736 5.618 0 8.036z" style="fill:#d24b4b;fill-opacity:1;fill-rule:evenodd;stroke:#d24b4b;stroke-width:.625;stroke-linejoin:round;stroke-opacity:1" transform="matrix(-1.1 0 0 -1.1 -1.1 0)"/>
    </marker>
  </defs>
  <font id="font16" horiz-adv-x="1000" horiz-origin-x="0" horiz-origin-y="0" vert-adv-y="90" vert-origin-x="45" vert-origin-y="90">
    <font-face id="font-face2" font-family="'Maestro'" underline-position="-78" underline-thickness="9" units-per-em="1000">
      <font-face-src>
        <font-face-name name="Maestro"/>
      </font-face-src>
    </font-face>
    <glyph id="glyph6" d="M72 62V-87l98 32V94M43 156v163h29V166l98 32v146h29V207l39 13V116l-39-13V-45l39 12v-103l-39-13v-163h-29v154l-98-32v-148H43v138L0-214v104l43 14V53L0 39v103z" horiz-adv-x="236" unicode="#"/>
    <glyph id="glyph8" d="M466-252c-19-3-38-5-59-6s-42 0-62 2c-20 1-38 4-55 7s-31 7-42 12c-51 25-93 51-124 79-32 27-57 56-74 86S21-11 14 21C7 52 2 84 0 116c-3 35 1 69 10 104s21 68 37 100c15 31 33 60 54 87 20 27 40 50 61 70 24 23 49 45 76 68 26 22 55 45 86 68-1 9-1 16-2 23s-3 14-4 21-3 14-4 23c-2 9-3 19-4 32 0 5-1 15-2 30-1 14-2 31-2 52-1 20 0 43 1 69s5 53 10 81c3 17 11 38 22 64 11 25 24 50 39 74s30 45 47 62 32 26 47 26c7 0 15-4 24-13s17-21 26-36c8-15 16-32 24-51s15-39 21-59 11-40 15-59c3-19 5-36 6-51 1-35-1-65-4-91-3-27-8-50-15-71s-14-41-23-58c-9-18-19-36-29-54-11-18-21-34-32-47-11-14-23-28-34-42-12-15-24-27-37-36-13-10-26-21-39-32 6-34 11-65 16-92 2-12 4-24 6-35s4-22 5-31c1-10 3-18 4-24 1-7 2-11 2-12 16 2 33 2 50 1 17-2 33-5 49-8 15-3 29-8 42-13 12-5 22-10 29-15 36-27 62-57 77-91 15-35 23-70 26-106 2-28 0-56-7-84-7-29-18-56-33-81-16-26-36-50-61-71s-55-39-89-53c4-27 8-53 11-76 3-20 6-39 9-58s5-33 6-40c6-40 8-73 7-98-1-26-6-47-15-63-7-13-16-26-25-39-10-13-22-24-35-34s-29-18-46-25c-18-7-38-11-61-12-17-1-38 0-62 5-24 4-47 12-69 23s-41 25-57 44-25 42-27 69c-1 16 0 32 3 49 3 16 9 31 18 44 8 13 19 23 33 32 13 9 30 14 50 15 12 1 24-1 37-5 12-5 23-11 34-19s19-18 26-30 11-25 12-39c2-25-6-48-23-71s-47-41-88-52c7-9 19-18 38-26 19-9 42-13 70-13 29 0 58 9 85 26s47 39 62 65c9 17 14 40 14 68 0 27-2 55-5 83-1 5-3 16-6 35-3 18-6 37-9 57-3 23-7 49-12 78m21 1267c-26 0-49-12-68-36-20-25-36-56-48-93-13-37-21-78-25-123s-3-88 3-129c22 17 45 37 69 61 24 23 46 48 66 75 19 27 35 54 48 81 12 27 17 53 15 78-1 8-2 17-4 27s-5 19-10 28-11 16-18 22-17 9-28 9m-2-1226c29 10 51 23 67 39s28 33 36 52c7 19 12 37 13 56s1 35 0 50c-1 12-4 27-8 45-5 18-13 35-25 52s-29 31-51 42-51 15-88 13m-26-2c-27-1-50-7-67-16-18-10-32-22-42-35-11-14-18-29-21-44-4-15-6-29-5-41s3-24 8-37 11-24 19-35c7-11 16-21 25-30s18-16 27-21l-3-3-4-4c-1-1-2-3-3-4-21 10-39 22-54 36-16 13-26 23-31 29-7 10-14 19-19 27s-10 17-13 26-6 18-8 29c-3 11-4 23-5 38-1 14 0 29 3 45 3 15 9 31 17 47 7 16 17 32 30 47 12 15 26 29 43 42 9 7 17 12 24 16s13 8 19 11 12 5 19 7c6 1 13 3 20 5l-30 181c-8-5-21-14-39-28s-38-31-59-50-42-40-63-62c-21-23-39-44-52-65-24-38-43-73-56-105S65 75 68 38c3-42 16-81 39-117 23-37 52-67 88-92s77-42 123-51c46-10 94-9 143 3-11 66-20 125-29 177-4 22-8 44-11 65s-6 40-9 57-6 30-7 41c-1 10-2 15-2 15z" horiz-adv-x="709" unicode="&amp;"/>
    <glyph id="glyph10" d="M26 354V113c9 9 18 16 26 21s16 10 23 13 15 5 24 6c8 1 17 2 28 2 13 0 24-3 34-8s19-12 26-21 13-18 17-29 6-21 6-31c1-11 0-21-3-31-3-11-6-20-10-29-5-11-12-21-22-30s-19-17-27-25c-3-3-8-7-17-14s-18-14-29-22-23-16-35-24c-12-9-23-16-33-23s-18-13-24-18c-7-5-10-8-10-8v591h26m81-342c-3 4-8 7-13 10-6 3-12 4-19 4s-13-2-20-6-13-11-18-21c-7-13-10-28-10-47-1-19-1-37-1-52v-86s2 2 6 5 9 7 15 12c5 5 11 10 18 16 6 6 12 11 17 16 9 9 17 18 24 28s12 23 15 38c4 15 5 30 3 45s-8 27-17 38z" horiz-adv-x="210" unicode="b"/>
    <glyph id="glyph12" d="M24 62V-95l114 30V92m26 104v-571h-26v214L-1-197v578h25V158z" horiz-adv-x="198" unicode="n"/>
    <glyph id="glyph14" d="M8-1c7 18 17 35 31 50 13 15 29 29 47 41 18 11 37 20 58 27 21 6 42 9 63 9s40-3 56-10 29-17 38-28c9-12 15-26 18-41 2-16 0-33-7-51s-17-35-31-50c-14-16-30-30-48-41-18-12-37-21-58-27-21-7-42-10-63-10s-40 4-55 11c-16 7-29 16-38 28C9-81 3-67 1-51-1-36 1-19 8-1z" horiz-adv-x="319" unicode="œ"/>
  </font>
  <font id="font126" horiz-adv-x="2048" horiz-origin-x="0" horiz-origin-y="0" vert-adv-y="90" vert-origin-x="45" vert-origin-y="90">
    <font-face id="font-face18" font-family="'Times New Roman'" underline-position="-223" underline-thickness="100" units-per-em="2048">
      <font-face-src>
        <font-face-name name="Times New Roman"/>
      </font-face-src>
    </font-face>
    <glyph id="glyph22" horiz-adv-x="512"/>
    <glyph id="glyph24" d="M110-341v44c69 23 122 58 160 106 37 47 56 98 56 151 0 13-3 23-9 32-5 6-9 9-14 9-7 0-23-7-48-20-12-6-25-9-38-9-33 0-59 10-78 29s-29 46-29 80c0 33 13 61 38 84s55 35 91 35c44 0 83-19 118-57 34-39 51-90 51-153 0-69-24-132-71-191-48-59-124-106-227-140z" horiz-adv-x="512" unicode=","/>
    <glyph id="glyph26" d="M256 194c31 0 58-11 79-32 21-22 32-48 32-79s-11-57-32-78c-22-22-48-33-79-33s-57 11-78 33c-22 21-33 47-33 78s11 58 33 79c21 21 47 32 78 32z" horiz-adv-x="512" unicode="."/>
    <glyph id="glyph28" d="M74 670c0 155 23 288 70 400 47 111 109 194 186 249 60 43 122 65 186 65 104 0 197-53 280-159 103-131 155-309 155-534 0-157-23-291-68-401S780 100 710 51C639 1 571-24 506-24c-129 0-237 76-323 229C110 334 74 489 74 670m196-25c0-187 23-339 69-457 38-99 95-149 170-149 36 0 73 16 112 49 39 32 68 86 88 162 31 115 46 276 46 485 0 155-16 284-48 387-24 77-55 131-93 163-27 22-60 33-99 33-45 0-86-20-121-61-48-55-81-142-98-261s-26-236-26-351z" horiz-adv-x="1024" unicode="0"/>
    <glyph id="glyph30" d="m240 1223 330 161h33V239c0-76 3-123 10-142 6-19 19-33 39-43s61-16 122-17V0H264v37c64 1 105 7 124 17 19 9 32 22 39 39 7 16 11 65 11 146v732c0 99-3 162-10 190-5 21-13 37-25 47-13 10-28 15-45 15-25 0-59-10-103-31z" horiz-adv-x="1024" unicode="1"/>
    <glyph id="glyph32" d="M939 261 844 0H44v37c235 215 401 390 497 526s144 260 144 373c0 86-26 157-79 212s-116 83-189 83c-67 0-126-19-179-58s-93-97-118-172H83c17 123 60 218 129 284s155 99 258 99c110 0 202-35 276-106 73-71 110-154 110-250 0-69-16-137-48-206-49-108-129-222-240-343-166-181-270-291-311-328h354c72 0 123 3 152 8s55 16 78 33c23 16 44 39 61 69z" horiz-adv-x="1024" unicode="2"/>
    <glyph id="glyph34" d="M104 1098c39 91 88 162 147 212 59 49 132 74 220 74 109 0 192-35 250-106 44-53 66-109 66-169 0-99-62-201-186-306 83-33 146-79 189-140s64-132 64-214c0-117-37-219-112-305C645 32 504-24 319-24c-91 0-153 11-186 34S83 57 83 83c0 19 8 36 24 51 15 15 34 22 56 22 17 0 34-3 51-8 11-3 37-15 77-36s68-34 83-38c25-7 51-11 79-11 68 0 127 26 178 79 50 53 75 115 75 187 0 53-12 104-35 154-17 37-36 66-57 85-29 27-68 51-118 73-50 21-101 32-153 32h-32v30c53 7 106 26 159 57s91 69 115 113 36 92 36 145c0 69-21 124-64 167-43 42-97 63-161 63-103 0-190-55-259-166z" horiz-adv-x="1024" unicode="3"/>
    <glyph id="glyph36" d="M953 500V358H771V0H606v358H32v128l629 898h110V500m-165 0v673L130 500z" horiz-adv-x="1024" unicode="4"/>
    <glyph id="glyph38" d="m889 1356-78-170H403l-89-182c177-26 317-92 420-197 89-91 133-197 133-320 0-71-14-137-43-198s-66-112-110-155-93-77-147-103C490-6 412-24 331-24S191-10 154 18c-37 27-56 58-56 91 0 19 8 35 23 50 15 14 35 21 58 21 17 0 33-3 46-8s35-19 66-41c50-35 101-52 152-52 78 0 147 30 206 89s88 130 88 215c0 82-26 159-79 230S533 738 440 777c-73 30-172 47-297 52l260 527z" horiz-adv-x="1024" unicode="5"/>
    <glyph id="glyph40" d="M918 1384v-37c-88-9-160-26-215-52-56-27-111-67-165-121-55-54-100-114-135-180-36-67-66-146-90-237 96 66 192 99 289 99 93 0 173-37 241-112s102-171 102-288c0-113-34-217-103-310C759 33 650-24 514-24c-93 0-171 31-236 92C151 187 88 342 88 532c0 121 24 237 73 346s118 206 209 291c90 85 176 142 259 171s160 44 231 44M296 684c-12-90-18-163-18-218 0-64 12-133 36-208 23-75 58-135 105-179 34-31 75-47 124-47 58 0 110 27 156 82 45 55 68 133 68 234 0 114-23 213-68 296S589 769 506 769c-25 0-52-5-81-16s-72-34-129-69z" horiz-adv-x="1024" unicode="6"/>
    <glyph id="glyph42" d="M206 1356h727v-38L481-28H369l405 1221H401c-75 0-129-9-161-27-56-31-101-78-135-142l-29 11z" horiz-adv-x="1024" unicode="7"/>
    <glyph id="glyph44" d="M393 683c-107 88-176 159-207 212s-47 109-47 166c0 88 34 164 102 228 68 63 158 95 271 95 109 0 197-30 264-89s100-127 100-203c0-51-18-102-54-155S711 822 597 751c117-91 195-162 233-214 51-68 76-140 76-215 0-95-36-177-109-244C724 10 629-24 511-24 382-24 282 16 210 97c-57 65-86 135-86 212 0 60 20 120 61 179 40 59 109 124 208 195m157 107c80 72 131 129 152 171 21 41 32 88 32 141 0 70-20 125-59 165-39 39-93 59-161 59s-123-20-166-59-64-85-64-138c0-35 9-69 27-104 17-35 42-68 75-99m54-281c-55-47-96-97-123-152s-40-115-40-179c0-86 24-155 71-206 47-52 106-78 179-78 72 0 130 20 173 61s65 90 65 148c0 48-13 91-38 129-47 71-143 163-287 277z" horiz-adv-x="1024" unicode="8"/>
    <glyph id="glyph46" d="M108-28V9c87 1 167 22 242 61s147 107 217 204c69 97 118 204 145 321-105-67-199-101-284-101-95 0-177 37-245 111-68 73-102 171-102 293 0 119 34 224 102 317 82 113 189 169 321 169 111 0 207-46 286-138 97-114 146-255 146-422 0-151-37-291-111-421-74-131-177-239-309-325C409 7 292-28 165-28m563 697c12 87 18 156 18 208 0 65-11 135-33 210s-53 132-93 172c-41 40-87 60-138 60-59 0-111-27-156-80s-67-133-67-238c0-141 30-251 89-330 43-57 97-86 160-86 31 0 67 7 109 22s79 35 111 62z" horiz-adv-x="1024" unicode="9"/>
    <glyph id="glyph48" d="M937 454H412l-92-214c-23-53-34-92-34-118 0-21 10-39 30-54 19-16 62-26 127-31V0H16v37c57 10 93 23 110 39 34 32 72 97 113 195l477 1116h35l472-1128c38-91 73-149 104-176s74-43 129-46V0H921v37c54 3 91 12 110 27s28 34 28 56c0 29-13 76-40 139M909 528l-230 548-236-548z" horiz-adv-x="1479" unicode="A"/>
    <glyph id="glyph50" d="M946 692c94-20 164-52 211-96 65-61 97-136 97-225 0-67-21-132-64-193-43-62-101-107-175-135C940 14 827 0 674 0H34v37h51c57 0 97 18 122 54 15 23 23 73 23 149v876c0 84-10 137-29 159-26 29-65 44-116 44H34v37h586c109 0 197-8 263-24 100-24 176-66 229-127s79-132 79-211c0-68-21-129-62-182-41-54-102-94-183-120m-524 54c25-5 53-8 85-10 31-3 66-4 104-4 97 0 171 11 220 32s86 53 112 96 39 91 39 142c0 79-32 147-97 203s-159 84-283 84c-67 0-127-7-180-22m0-1169c77-18 154-27 229-27 121 0 213 27 276 82 63 54 95 121 95 201 0 53-14 103-43 152s-75 87-140 115-145 42-240 42c-41 0-77-1-106-2s-53-4-71-7z" horiz-adv-x="1366" unicode="B"/>
    <glyph id="glyph52" d="M419 1282V749h247c57 0 98 13 125 38 26 25 43 74 52 148h37V476h-37c-1 53-7 91-20 116s-31 43-54 56c-23 12-58 18-103 18H419V240c0-69 4-114 13-136 7-17 21-31 42-43 29-16 60-24 92-24h49V0H33v37h48c56 0 97 16 122 49 16 21 24 73 24 154v876c0 69-4 114-13 136-7 17-20 31-41 43-29 16-59 24-92 24H33v37h1009l13-298h-35c-17 63-37 110-60 140-23 29-52 51-85 64-34 13-86 20-157 20z" horiz-adv-x="1139" unicode="F"/>
    <glyph id="glyph54" d="m1257 1387 35-428h-35c-35 107-81 187-137 241-81 78-184 117-311 117-173 0-304-68-394-205-75-115-113-253-113-412 0-129 25-247 75-354s116-185 197-234c81-50 164-75 249-75 50 0 98 6 145 19s92 31 135 56v392c0 68-5 113-15 134-11 21-27 37-48 48-22 11-60 16-115 16v38h525v-38h-25c-52 0-88-17-107-52-13-25-20-73-20-146V89c-77-41-152-72-227-91S913-31 822-31c-262 0-461 84-597 252C123 347 72 492 72 657c0 119 29 234 86 343 68 130 161 230 280 300 99 58 217 87 352 87 49 0 94-4 135-12 40-8 97-26 171-53 37-14 62-21 75-21s24 6 33 18c9 11 14 34 16 68z" horiz-adv-x="1479" unicode="G"/>
    <glyph id="glyph56" d="M421 727h630v388c0 69-4 115-13 137-7 17-21 31-42 43-29 16-59 24-91 24h-48v37h580v-37h-48c-32 0-62-8-91-23-21-11-36-27-43-48-8-22-12-66-12-133V240c0-69 4-114 13-136 7-17 20-31 41-43 29-16 60-24 92-24h48V0H857v37h48c55 0 96 16 121 49 17 21 25 73 25 154v413H421V240c0-69 4-114 13-136 7-17 21-31 42-43 29-16 59-24 91-24h49V0H35v37h48c56 0 97 16 122 49 16 21 24 73 24 154v875c0 69-4 115-13 137-7 17-20 31-41 43-29 16-60 24-92 24H35v37h581v-37h-49c-32 0-62-8-91-23-21-11-35-27-43-48-8-22-12-66-12-133z" horiz-adv-x="1479" unicode="H"/>
    <glyph id="glyph58" d="m612 752 500-497c82-82 152-138 210-167 58-30 116-47 174-51V0H851v37c39 0 67 7 84 20s25 27 25 43-3 30-9 43c-7 13-28 36-63 71L420 677V240c0-69 4-114 13-136 7-17 21-31 42-43 29-16 59-24 91-24h46V0H34v37h48c56 0 97 16 122 49 16 21 24 73 24 154v876c0 69-4 114-13 137-7 16-20 30-41 42-29 16-60 24-92 24H34v37h578v-37h-46c-31 0-62-8-91-23-21-11-35-27-43-48s-12-65-12-132V701c13 13 59 55 137 127 198 181 318 302 359 363 18 27 27 50 27 70 0 15-7 29-21 41-14 11-38 17-71 17h-31v37h498v-37c-29-1-56-5-80-12s-53-21-88-42-77-55-128-102c-15-13-82-82-203-205z" horiz-adv-x="1479" unicode="K"/>
    <glyph id="glyph60" d="M749 1387c176 0 329-67 458-200 129-134 193-301 193-501 0-206-65-377-195-513S918-31 733-31c-187 0-343 66-470 199S72 472 72 683c0 215 73 391 220 527 127 118 280 177 457 177m-19-73c-121 0-219-45-292-135-91-112-137-276-137-492 0-221 47-392 142-511C516 85 612 40 731 40c127 0 233 50 316 149s124 256 124 470c0 232-46 405-137 519-73 91-175 136-304 136z" horiz-adv-x="1479" unicode="O"/>
    <glyph id="glyph62" d="M420 635V240c0-85 9-138 28-159 25-29 64-44 115-44h52V0H34v37h51c57 0 98 19 123 56 13 21 20 70 20 147v876c0 85-9 138-27 159-26 29-65 44-116 44H34v37h497c121 0 217-12 287-37s129-68 177-127 72-130 72-211c0-111-36-201-109-270S781 607 648 607c-33 0-68 2-106 7s-79 12-122 21m0 57c35-7 67-12 94-15s51-5 70-5c69 0 129 27 180 81 50 53 75 123 75 208 0 59-12 113-36 164-24 50-58 88-102 113s-94 37-150 37c-34 0-78-6-131-19z" horiz-adv-x="1139" unicode="P"/>
    <glyph id="glyph64" d="M902-15c68-117 142-204 221-259s168-87 269-95v-32c-92 3-190 22-295 56-105 33-204 80-297 140-94 59-175 123-243 190-96 39-172 80-228 123-81 65-144 144-189 239-45 94-68 205-68 334 0 203 66 371 197 505s290 201 477 201c177 0 331-67 461-201 129-135 194-304 194-509 0-166-46-312-138-437-93-125-213-210-361-255M734 1310c-121 0-219-43-293-130-93-109-140-275-140-499 0-219 47-388 142-507C516 83 613 37 734 37c125 0 226 46 303 137 90 108 135 267 135 478 0 162-25 298-74 409-38 85-88 148-151 189-63 40-134 60-213 60z" horiz-adv-x="1479" unicode="Q"/>
    <glyph id="glyph66" d="M1384 0h-362L563 634c-34-1-62-2-83-2-9 0-18 0-28 1-10 0-20 0-31 1V240c0-85 9-138 28-159 25-29 63-44 114-44h53V0H35v37h51c57 0 98 19 123 56 14 21 21 70 21 147v876c0 85-9 138-28 159-26 29-65 44-116 44H35v37h494c144 0 250-10 319-31 68-21 126-60 174-116 47-57 71-124 71-202 0-83-27-156-81-217-55-61-139-105-253-130l280-389c64-89 119-149 165-178s106-48 180-56M421 697h33c9-1 17-1 23-1 129 0 227 28 293 84 65 56 98 127 98 214 0 85-26 154-79 207s-124 79-211 79c-39 0-91-6-157-19z" horiz-adv-x="1366" unicode="R"/>
    <glyph id="glyph68" d="M939 1387V918h-37c-12 90-33 162-64 215s-76 96-133 127-117 47-178 47c-69 0-127-21-172-63-45-43-68-91-68-145 0-41 14-79 43-113 41-50 140-117 295-200 127-68 213-120 260-156 46-37 82-80 107-129s37-101 37-155c0-103-40-191-119-265C830 6 727-31 602-31c-39 0-76 3-111 9-21 3-63 16-128 37S256 46 239 46s-30-5-39-15c-10-10-17-31-22-62h-37v465h37c17-97 41-170 70-218 29-49 74-89 135-121 60-32 126-48 198-48 83 0 149 22 198 66 48 44 72 96 72 156 0 33-9 67-27 101-19 34-47 66-86 95-26 20-97 63-213 128S327 709 278 748s-87 81-112 128-38 98-38 154c0 97 37 181 112 252 75 70 170 105 285 105 72 0 148-18 229-53 37-17 64-25 79-25 17 0 32 5 43 16 11 10 19 31 26 62z" horiz-adv-x="1139" unicode="S"/>
    <glyph id="glyph70" d="m1185 1356 15-318h-38c-7 56-17 96-30 120-21 39-48 67-82 86-35 18-80 27-136 27H723V235c0-83 9-135 27-156 25-28 64-42 117-42h47V0H339v37h48c57 0 98 17 122 52 15 21 22 70 22 146v1036H368c-63 0-108-5-135-14-35-13-64-37-89-73s-39-85-44-146H62l16 318z" horiz-adv-x="1251" unicode="T"/>
    <glyph id="glyph72" d="M977 1319v37h480v-37h-51c-53 0-94-22-123-67-14-21-21-69-21-144V558c0-136-13-241-40-316s-80-140-159-193C984-5 876-32 740-32 592-32 480-6 403 45S272 165 240 252c-21 59-32 171-32 334v530c0 83-11 138-34 164s-61 39-112 39H11v37h586v-37h-52c-56 0-96-18-120-53-17-24-25-74-25-150V525c0-53 5-113 15-181 9-68 27-121 52-159s62-69 110-94c47-25 106-37 175-37 89 0 168 19 238 58s118 88 144 149c25 60 38 162 38 306v549c0 85-9 138-28 159-26 29-65 44-116 44z" horiz-adv-x="1479" unicode="U"/>
    <glyph id="glyph74" d="M1454 1356v-37c-48-9-84-24-109-46-35-33-67-83-94-150L778-31h-37L233 1138c-26 60-44 97-55 110-17 21-37 37-61 49-25 11-58 19-99 22v37h554v-37c-63-6-103-17-122-32s-28-35-28-59c0-33 15-85 46-156l345-795 320 785c31 77 47 131 47 161 0 19-10 38-29 56-19 17-52 30-98 37-3 1-9 2-17 3v37z" horiz-adv-x="1479" unicode="V"/>
    <glyph id="glyph76" d="M1917 1356v-37c-35 0-64-6-86-19s-43-36-63-71c-13-23-34-79-63-167L1327-31h-40L978 836 671-31h-36L232 1095c-30 84-49 134-57 149-13 25-31 44-54 57-23 12-55 18-94 18v37h502v-37h-24c-35 0-62-8-81-24s-28-35-28-58 15-77 44-161l267-761 225 647-40 114-32 91c-14 33-30 63-47 88-9 13-19 23-32 32-17 12-33 21-50 26-13 4-33 6-60 6v37h528v-37h-36c-37 0-65-8-82-24s-26-38-26-65c0-34 15-93 45-178l260-737 258 747c29 83 44 140 44 172 0 15-5 30-14 43-10 13-22 23-37 28-25 9-58 14-99 14v37z" horiz-adv-x="1933" unicode="W"/>
    <glyph id="glyph78" d="M583 132C489 59 430 17 406 6c-36-17-74-25-115-25-63 0-115 22-156 65S73 146 73 217c0 45 10 83 30 116 27 45 75 88 143 128 67 40 180 89 337 146v36c0 91-14 154-43 188s-72 51-127 51c-42 0-75-11-100-34s-38-49-38-78l2-58c0-31-8-54-23-71-16-17-37-25-62-25s-45 9-60 26c-16 17-24 41-24 71 0 57 29 110 88 158s141 72 247 72c81 0 148-14 200-41 39-21 68-53 87-97 12-29 18-87 18-176V318c0-87 2-141 5-160 3-20 9-33 17-40 7-7 16-10 26-10 11 0 20 2 28 7 14 9 41 33 81 73v-56C830 32 759-18 691-18c-33 0-59 11-78 34s-29 61-30 116m0 65v349c-101-40-166-68-195-85-53-29-90-60-113-92s-34-67-34-105c0-48 14-88 43-119 29-32 62-48 99-48 51 0 117 33 200 100z" horiz-adv-x="909" unicode="a"/>
    <glyph id="glyph80" d="M315 758c89 123 184 185 287 185 94 0 176-40 246-120 70-81 105-191 105-330 0-163-54-294-162-393C698 15 595-28 481-28c-53 0-107 10-162 29S207 49 150 88v949c0 104-2 168-7 192s-13 40-24 49-24 13-40 13c-19 0-42-5-70-16l-14 35 275 112h45m0-728V146c34-33 69-58 106-75 36-17 73-26 111-26 61 0 117 33 170 100 52 67 78 164 78 291 0 117-26 208-78 271-53 63-112 94-179 94-35 0-71-9-106-27-27-13-61-40-102-80z" horiz-adv-x="1024" unicode="b"/>
    <glyph id="glyph82" d="M842 348c-25-121-73-213-145-278S545-28 458-28c-104 0-195 44-272 131S70 308 70 457c0 144 43 261 129 351 85 90 188 135 308 135 90 0 164-24 222-71 58-48 87-98 87-149 0-25-8-46-24-61-17-16-40-24-69-24-39 0-69 13-89 38-11 14-19 41-22 80-4 39-18 69-41 90-23 20-56 30-97 30-67 0-120-25-161-74-54-65-81-152-81-259 0-109 27-206 81-289 53-84 126-126 217-126 65 0 124 22 176 67 37 31 72 86 107 167z" horiz-adv-x="909" unicode="c"/>
    <glyph id="glyph84" d="M711 103C666 56 623 23 580 3c-43-21-89-31-138-31-100 0-187 42-262 126-75 83-112 191-112 322s41 252 124 361 189 163 319 163c81 0 147-26 200-77v169c0 105-2 169-7 193s-13 40-24 49-24 13-40 13c-17 0-40-5-69-16l-13 35 273 112h45V363c0-107 3-173 8-196 5-24 13-41 24-50s23-14 38-14c18 0 42 6 72 17l11-35L757-28h-46m0 201v472c-4 45-16 87-36 124s-46 66-79 85-66 28-97 28c-59 0-111-26-157-79-61-69-91-171-91-304 0-135 29-238 88-309 59-72 124-108 196-108 61 0 119 30 176 91z" horiz-adv-x="1024" unicode="d"/>
    <glyph id="glyph86" d="M218 571c-1-136 32-243 99-320s145-116 235-116c60 0 112 17 157 50 44 33 81 89 111 169l31-20c-14-91-55-174-122-249S577-28 476-28c-110 0-204 43-282 129-79 85-118 200-118 345 0 157 40 279 121 367 80 87 181 131 302 131 103 0 187-34 253-101 66-68 99-159 99-272m-633 58h424c-3 59-10 100-21 124-17 37-41 67-74 88s-68 32-104 32c-55 0-105-21-148-64-44-43-70-103-77-180z" horiz-adv-x="909" unicode="e"/>
    <glyph id="glyph88" d="M422 844V242c0-85 9-139 28-162 25-29 58-44 99-44h83V0H85v36h41c27 0 51 7 73 20s37 31 46 54c8 23 12 67 12 132v602H79v72h178v60c0 91 15 169 44 232s74 115 135 154c60 39 128 58 203 58 70 0 134-23 193-68 39-30 58-64 58-101 0-20-9-39-26-56-17-18-36-27-56-27-15 0-31 6-48 17s-38 34-63 71c-25 36-47 60-68 73s-44 19-69 19c-31 0-57-8-78-24-21-17-37-42-46-76-9-35-14-123-14-266v-66h236v-72z" horiz-adv-x="682" unicode="f"/>
    <glyph id="glyph90" d="M309 334c-56 27-99 66-129 115s-45 103-45 162c0 91 34 169 103 234 68 65 155 98 262 98 87 0 163-21 227-64h194c29 0 45-1 50-2 5-2 8-5 10-9 4-6 6-17 6-32 0-17-2-29-5-36-2-3-5-6-10-8s-22-3-51-3H802c37-48 56-109 56-184 0-85-33-158-98-219s-153-91-263-91c-45 0-92 7-139 20-29-25-49-47-59-66-11-19-16-36-16-49 0-11 6-22 17-33s32-18 64-23c19-3 65-5 140-7 137-3 226-8 267-14 62-9 112-32 149-69s55-83 55-138c0-75-35-146-106-212-104-97-240-146-407-146-129 0-237 29-326 87-50 33-75 68-75 104 0 16 4 32 11 48 11 25 35 59 70 103 5 6 39 42 102 108-35 21-59 39-73 56-15 16-22 34-22 55 0 23 10 51 29 82s62 76 131 133m174 561c-49 0-91-20-124-59s-50-100-50-181c0-105 23-187 68-245 35-44 79-66 132-66 51 0 92 19 125 57s49 98 49 179c0 106-23 189-69 249-34 44-78 66-131 66M299 0c-31-34-55-66-71-95s-24-56-24-81c0-32 19-60 58-84 67-41 163-62 289-62 120 0 209 21 266 64 57 42 85 87 85 135 0 35-17 59-51 74-35 15-103 23-206 26-150 4-265 12-346 23z" horiz-adv-x="1024" unicode="g"/>
    <glyph id="glyph92" d="M333 1422V752c74 81 133 134 176 157s87 34 130 34c52 0 97-14 134-43s65-74 83-135c13-43 19-121 19-234V207c0-58 5-98 14-119 7-16 18-29 34-38s45-14 88-14V0H561v36h21c43 0 72 7 89 20s28 32 35 57c2 11 3 42 3 94v324c0 100-5 166-15 197-11 31-27 55-50 71-23 15-50 23-82 23-33 0-67-9-102-26s-78-52-127-105V207c0-63 4-102 11-117s20-28 39-38c19-11 51-16 98-16V0H27v36c41 0 73 6 96 19 13 7 24 19 32 38s12 57 12 114v829c0 105-2 169-7 193s-13 40-23 49c-11 9-25 13-42 13-14 0-37-5-68-16l-14 35 274 112z" horiz-adv-x="1024" unicode="h"/>
    <glyph id="glyph94" d="M297 1422c28 0 52-10 72-29 19-20 29-44 29-72s-10-52-29-72c-20-20-44-30-72-30s-52 10-72 30-30 44-30 72 10 52 30 72c19 19 43 29 72 29m83-479V207c0-57 4-95 13-114 8-19 20-34 37-43 16-9 46-14 89-14V0H74v36c45 0 75 4 90 13s28 23 37 43 13 58 13 115v353c0 99-3 164-9 193-5 21-12 36-22 45-10 8-24 12-41 12-19 0-41-5-68-15l-14 36 276 112z" horiz-adv-x="569" unicode="i"/>
    <glyph id="glyph96" d="M335 1422V511l233 212c49 45 78 74 86 86 5 8 8 16 8 24 0 13-5 25-16 35-11 9-30 15-55 16v32h398v-32c-55-1-100-10-136-25-37-15-77-43-120-82L498 560l235-297c65-82 109-134 132-156 32-31 60-52 84-61 17-7 46-10 87-10V0H591v36c25 1 43 5 52 12s13 16 13 29c0 15-13 40-40 74L335 510V206c0-59 4-98 13-117 8-19 20-32 35-40s49-12 100-13V0H17v36c47 0 82 6 105 17 14 7 25 19 32 34 10 22 15 60 15 114v834c0 106-2 171-7 195-5 23-12 40-23 49s-25 13-42 13c-14 0-35-6-63-17l-17 35 272 112z" horiz-adv-x="1024" unicode="k"/>
    <glyph id="glyph98" d="M379 1422V207c0-57 4-95 13-114 8-19 21-33 38-42 17-10 50-15 97-15V0H78v36c42 0 71 4 86 13s27 23 36 43 13 58 13 115v832c0 103-2 167-7 191-5 23-12 39-22 48-11 9-24 13-40 13-17 0-39-5-66-16l-17 35 273 112z" horiz-adv-x="569" unicode="l"/>
    <glyph id="glyph100" d="M336 748c67 67 106 105 118 115 30 25 62 45 97 59s69 21 103 21c57 0 107-17 148-50s69-82 83-145c69 80 127 133 174 158s96 37 146 37c49 0 92-12 130-37 37-25 67-66 89-123 15-39 22-99 22-182V207c0-57 4-97 13-118 7-15 19-27 37-37 18-11 47-16 88-16V0h-452v36h19c39 0 70 8 92 23 15 11 26 28 33 51 3 11 4 44 4 97v394c0 75-9 127-27 158-26 43-68 64-125 64-35 0-71-9-106-26-36-18-79-51-130-99l-2-11 2-43V207c0-63 4-102 11-117s20-28 39-38c19-11 52-16 99-16V0H578v36c51 0 86 6 105 18s32 30 39 54c3 11 5 44 5 99v394c0 75-11 128-33 161-29 43-70 64-123 64-36 0-72-10-107-29-55-29-98-62-128-99V207c0-60 4-99 13-117 8-18 20-31 37-40 16-9 49-14 99-14V0H32v36c42 0 71 5 88 14s29 23 38 43c9 19 13 57 13 114v350c0 101-3 166-9 195-5 22-12 37-22 46-10 8-24 12-41 12-19 0-41-5-67-15l-15 36 276 112h43z" horiz-adv-x="1593" unicode="m"/>
    <glyph id="glyph102" d="M331 749c107 129 210 194 307 194 50 0 93-12 129-37s65-67 86-124c15-40 22-101 22-184V207c0-58 5-97 14-118 7-17 19-30 36-39 16-9 46-14 90-14V0H562v36h19c43 0 73 7 90 20s28 32 35 57c3 10 4 41 4 94v375c0 83-11 144-32 182-22 37-59 56-110 56-79 0-158-43-237-130V207c0-62 4-100 11-115 9-19 22-33 39-42 16-9 49-14 99-14V0H27v36h20c47 0 78 12 95 36 16 23 24 68 24 135v340c0 110-2 177-7 201s-13 40-23 49c-11 9-25 13-42 13-19 0-41-5-67-15l-15 36 276 112h43z" horiz-adv-x="1024" unicode="n"/>
    <glyph id="glyph104" d="M512 943c139 0 250-53 334-158 71-90 107-193 107-310 0-82-20-165-59-249S801 79 732 36 586-28 501-28c-138 0-248 55-329 165-69 93-103 197-103 312 0 84 21 168 63 251 41 83 96 144 164 184 68 39 140 59 216 59m-31-65c-35 0-71-10-106-31-36-21-65-58-87-111s-33-120-33-203c0-133 27-248 80-345S457 43 544 43c65 0 118 27 160 80s63 145 63 275c0 163-35 291-105 384-47 64-108 96-181 96z" horiz-adv-x="1024" unicode="o"/>
    <glyph id="glyph106" d="m-2 825 282 114h38V725c47 81 95 137 143 170 47 32 97 48 150 48 92 0 169-36 230-108 75-88 113-203 113-344 0-158-45-289-136-392C743 14 649-28 536-28c-49 0-92 7-128 21-27 10-57 30-90 60v-279c0-63 4-102 12-119 7-17 21-31 40-41s53-15 103-15v-37H-7v37h25c37-1 68 6 94 21 13 7 23 19 30 36 7 16 10 57 10 124v866c0 59-3 97-8 113s-14 28-25 36c-12 8-28 12-48 12-16 0-36-5-61-14m308-127V324c0-74 3-123 9-146 9-39 32-73 69-102 36-29 82-44 137-44 67 0 121 26 162 78 54 68 81 164 81 287 0 140-31 248-92 323-43 52-93 78-152 78-32 0-64-8-95-24-24-12-64-48-119-108z" horiz-adv-x="1024" unicode="p"/>
    <glyph id="glyph108" d="M332 943V737c77 137 155 206 236 206 37 0 67-11 91-33 24-23 36-49 36-78 0-26-9-48-26-66s-38-27-62-27c-23 0-49 12-78 35s-51 34-65 34c-12 0-25-7-39-20-30-27-61-72-93-135V214c0-51 6-89 19-115 9-18 24-33 46-45s54-18 95-18V0H23v36c47 0 81 7 104 22 17 11 28 28 35 51 3 11 5 44 5 97v355c0 107-2 170-6 191-5 20-13 35-24 44-12 9-27 14-44 14-21 0-44-5-70-15l-10 36 277 112z" horiz-adv-x="682" unicode="r"/>
    <glyph id="glyph110" d="M656 943V631h-33c-25 98-58 165-97 200-40 35-91 53-152 53-47 0-84-12-113-37s-43-52-43-82c0-37 11-69 32-96s63-56 126-87l146-71c135-66 203-153 203-261 0-83-31-150-94-201S497-28 419-28c-56 0-120 10-192 30-22 7-40 10-54 10-15 0-27-9-36-26h-33v327h33c19-93 54-164 107-211s112-71 177-71c46 0 84 14 113 41s43 59 43 97c0 46-16 85-48 116-33 31-97 71-194 119s-160 91-190 130c-30 38-45 86-45 144 0 75 26 138 78 189 51 51 118 76 200 76 36 0 80-8 131-23 34-10 57-15 68-15s19 2 25 7 13 15 21 31z" horiz-adv-x="797" unicode="s"/>
    <glyph id="glyph112" d="M330 1217V916h214v-70H330V252c0-59 9-99 26-120s38-31 65-31c22 0 43 7 64 21 21 13 37 33 48 60h39c-23-65-56-114-99-147s-87-50-132-50c-31 0-61 9-90 26s-51 41-65 73c-14 31-21 80-21 146v616H20v33c37 15 74 40 113 75 38 35 72 76 102 124 15 25 37 72 64 139z" horiz-adv-x="569" unicode="t"/>
    <glyph id="glyph114" d="M867 916V361c0-106 3-171 8-194 5-24 13-41 24-50s23-14 38-14c21 0 44 6 70 17l14-35L747-28h-45v194C623 81 563 27 522 5s-85-33-131-33c-51 0-96 15-133 45-38 29-64 67-79 114s-22 113-22 198v409c0 43-5 73-14 90s-23 30-41 39c-19 9-52 13-100 12v37h321V303c0-85 15-141 45-168 29-27 65-40 107-40 29 0 61 9 98 27 36 18 79 52 129 103v519c0 52-9 87-28 106-19 18-59 28-119 29v37z" horiz-adv-x="1024" unicode="u"/>
    <glyph id="glyph116" d="M17 916h431v-37h-28c-26 0-46-6-59-19-14-13-21-30-21-51 0-23 7-51 21-83l213-506 214 525c15 37 23 66 23 85 0 9-3 17-8 23-7 10-17 17-28 21-11 3-34 5-69 5v37h299v-37c-35-3-59-10-72-21-23-20-44-53-63-100L545-28h-41L177 745c-15 36-29 62-42 78-13 15-30 28-51 39-11 6-34 12-67 17z" horiz-adv-x="1024" unicode="v"/>
    <glyph id="glyph118" d="M13 916h384v-37c-35-3-58-9-69-19s-17-24-17-43c0-21 6-46 17-75l196-527 197 429-52 135c-16 40-37 68-63 83-15 9-42 15-82 17v37h436v-37c-48-2-82-11-102-26-13-11-20-28-20-51 0-13 3-27 8-41l208-526 193 507c13 36 20 65 20 86 0 13-6 24-19 34s-39 16-77 17v37h289v-37c-58-9-101-48-128-118L1026-28h-41L756 557 489-28h-37L158 742c-19 49-38 82-57 99s-48 29-88 38z" horiz-adv-x="1479" unicode="w"/>
    <glyph id="glyph120" d="M860 281 849 0H41v36l608 810H349c-65 0-107-4-127-12-20-9-36-25-49-48-18-33-28-75-31-124h-40l6 254h768v-37L262 67h334c70 0 118 6 143 18 25 11 45 32 60 61 11 21 20 66 27 135z" horiz-adv-x="909" unicode="z"/>
    <glyph id="glyph122" d="M583 132C489 59 430 17 406 6c-36-17-74-25-115-25-63 0-115 22-156 65S73 146 73 217c0 45 10 83 30 116 27 45 75 88 143 128 67 40 180 89 337 146v36c0 91-14 154-43 188s-72 51-127 51c-42 0-75-11-100-34s-38-49-38-78l2-58c0-31-8-54-23-71-16-17-37-25-62-25s-45 9-60 26c-16 17-24 41-24 71 0 57 29 110 88 158s141 72 247 72c81 0 148-14 200-41 39-21 68-53 87-97 12-29 18-87 18-176V318c0-87 2-141 5-160 3-20 9-33 17-40 7-7 16-10 26-10 11 0 20 2 28 7 14 9 41 33 81 73v-56C830 32 759-18 691-18c-33 0-59 11-78 34s-29 61-30 116m0 65v349c-101-40-166-68-195-85-53-29-90-60-113-92s-34-67-34-105c0-48 14-88 43-119 29-32 62-48 99-48 51 0 117 33 200 100m51 1140c30 0 56-11 77-32s31-47 31-77-10-55-31-76-47-32-77-32-56 11-77 32-32 46-32 76 11 56 32 77 47 32 77 32m-353 0c31 0 57-11 78-32s31-47 31-77-11-55-32-76-47-32-76-32c-30 0-56 11-77 32s-32 46-32 76 11 56 32 77 46 32 76 32z" horiz-adv-x="909" unicode="ä"/>
    <glyph id="glyph124" d="M512 943c139 0 250-53 334-158 71-90 107-193 107-310 0-82-20-165-59-249S801 79 732 36 586-28 501-28c-138 0-248 55-329 165-69 93-103 197-103 312 0 84 21 168 63 251 41 83 96 144 164 184 68 39 140 59 216 59m-31-65c-35 0-71-10-106-31-36-21-65-58-87-111s-33-120-33-203c0-133 27-248 80-345S457 43 544 43c65 0 118 27 160 80s63 145 63 275c0 163-35 291-105 384-47 64-108 96-181 96m206 458c30 0 56-11 77-32s31-47 31-77-10-55-31-76-47-32-77-32-56 11-77 32-32 46-32 76 11 56 32 77 47 32 77 32m-353 0c31 0 57-11 78-32s31-47 31-77-11-55-32-76-47-32-76-32c-30 0-56 11-77 32s-32 46-32 76 11 56 32 77 46 32 76 32z" horiz-adv-x="1024" unicode="ö"/>
  </font>
  <font id="font194" horiz-adv-x="2048" horiz-origin-x="0" horiz-origin-y="0" vert-adv-y="90" vert-origin-x="45" vert-origin-y="90">
    <font-face id="font-face128" font-family="'Times New Roman'" font-style="italic" underline-position="-223" underline-thickness="100" units-per-em="2048">
      <font-face-src>
        <font-face-name name="Times New Roman Kursiv"/>
      </font-face-src>
    </font-face>
    <glyph id="glyph132" horiz-adv-x="512"/>
    <glyph id="glyph134" d="m385-422-34-16C272-287 215-153 180-37c-27 91-40 182-40 274 0 215 50 407 149 577 122 208 320 411 593 608l24-35c-123-91-224-194-302-307-97-141-177-312-239-512s-93-382-93-546c0-125 38-273 113-444z" horiz-adv-x="682" unicode="("/>
    <glyph id="glyph136" d="m298 1403 34 19c79-151 136-284 170-400 27-91 41-182 41-274 0-215-50-408-149-577C271-38 74-241-199-438l-24 31C-100-315 1-213 79-100c97 141 177 312 239 513 62 200 93 382 93 546 0 125-38 273-113 444z" horiz-adv-x="682" unicode=")"/>
    <glyph id="glyph138" d="M-21-225c50 23 91 51 122 86 24 27 36 52 36 77 0 12-2 23-6 33-3 5-12 16-28 32S78 30 76 36c-5 11-7 24-7 39 0 29 10 53 30 74 19 21 42 31 69 31s52-11 73-33 31-50 31-83c0-59-23-119-70-180S88-224-1-257z" horiz-adv-x="512" unicode=","/>
    <glyph id="glyph140" d="M170 179c29 0 53-10 73-29 19-20 29-44 29-72s-10-52-30-71c-20-20-44-30-72-30S118-13 99 7C79 26 69 50 69 78s10 52 30 72c19 19 43 29 71 29z" horiz-adv-x="512" unicode="."/>
    <glyph id="glyph142" d="M708 1384c85 0 157-36 216-107 58-71 87-184 87-338 0-132-22-267-65-404S842 279 763 178C700 99 635 41 566 6c-40-20-86-30-139-30-87 0-159 36-217 107-59 71-88 184-88 339 0 153 29 306 88 460 69 180 156 317 263 410 70 61 148 92 235 92m1-52c-39 0-78-15-117-45-40-31-81-94-123-190-43-96-83-220-122-371-50-198-75-367-75-506 0-69 15-121 45-155 30-35 66-52 109-52 41 0 75 13 104 40 77 72 142 195 197 369 89 285 133 516 133 694 0 74-15 129-45 164s-65 52-106 52z" horiz-adv-x="1024" unicode="0"/>
    <glyph id="glyph144" d="M855 1384 533 263c-19-66-28-114-28-143 0-25 9-43 26-56s56-22 119-27L640 0H125l14 37c55 1 91 6 108 13 28 12 49 28 63 48 22 31 44 86 67 165l232 805c14 49 22 77 23 84 2 13 3 26 3 39 0 23-6 42-19 55s-30 20-52 20c-17 0-44-4-81-12l-13 36 337 94z" horiz-adv-x="1024" unicode="1"/>
    <glyph id="glyph146" d="M707 0H32v37c344 301 571 538 682 709 51 79 77 163 77 250 0 69-21 126-64 170-43 43-98 65-166 65-94 0-171-45-232-135l-35 16c34 86 84 153 149 201 65 47 136 71 212 71 86 0 158-29 217-88s88-131 88-215c0-59-10-113-31-163-32-78-91-165-177-262-131-148-305-318-523-511h340c55 0 100 11 135 34s61 53 76 91h40z" horiz-adv-x="1024" unicode="2"/>
    <glyph id="glyph148" d="M313 741v29c161 25 282 73 361 144 57 51 86 111 86 181 0 53-17 96-50 131-33 34-74 51-121 51-75 0-141-46-199-139l-37 11c35 77 79 136 134 176 54 39 113 59 178 59 79 0 142-23 191-70s73-107 73-179c0-61-23-120-68-177-46-57-125-107-236-152 69-29 122-70 157-123 35-54 53-119 53-194 0-83-24-167-72-250-48-84-114-149-197-194-84-46-172-69-264-69-84 0-148 15-191 44-29 20-43 43-43 70 0 23 9 43 26 60s37 25 62 25c17 0 35-3 52-8 11-3 37-17 79-40 41-23 74-39 97-46 23-8 47-12 72-12 60 0 110 35 149 105 39 69 58 143 58 222 0 64-13 121-39 171-27 50-68 91-125 122s-119 48-186 52z" horiz-adv-x="1024" unicode="3"/>
    <glyph id="glyph150" d="M997 1356 738 464h162l-36-124H700L595-24H448l106 364H64l42 140 815 876m-146-258L192 464h401z" horiz-adv-x="1024" unicode="4"/>
    <glyph id="glyph152" d="M528 1356h453l-46-165H528l-75-167c108-17 192-51 252-101 93-78 139-187 139-327 0-93-17-176-51-251-35-75-77-138-126-189-50-51-103-91-160-120-77-40-155-60-234-60-67 0-121 15-160 44-27 20-40 45-40 76 0 24 9 45 26 62s39 25 64 25c35 0 75-18 118-53 27-22 49-37 66-44 14-6 31-9 50-9 75 0 145 38 208 113s95 172 95 292c0 83-17 154-50 213-34 59-77 100-129 124s-121 41-208 50z" horiz-adv-x="1024" unicode="5"/>
    <glyph id="glyph154" d="M1076 1384v-39c-114-27-225-83-332-168-107-86-201-196-282-330 72 31 131 46 176 46 85 0 157-31 217-92 59-61 89-144 89-248 0-159-51-295-154-408S577-24 458-24C350-24 268 16 213 96c-56 79-84 171-84 276 0 137 32 272 95 405s149 247 258 342c108 95 220 166 337 211 69 27 155 45 257 54M414 763c-95-203-143-374-143-512 0-71 18-127 54-168s77-62 124-62c77 0 148 56 215 168 66 111 99 241 99 388 0 79-19 139-58 182s-85 64-140 64c-23 0-45-4-66-11-21-8-50-24-85-49z" horiz-adv-x="1024" unicode="6"/>
    <glyph id="glyph156" d="M397 1356h675v-34L312-24l-80 37 665 1184H575c-89 0-149-8-181-23-33-16-70-54-113-115h-41z" horiz-adv-x="1024" unicode="7"/>
    <glyph id="glyph158" d="M691 759c64-69 111-134 141-195 29-61 44-121 44-182 0-109-41-203-124-284S567-24 446-24C337-24 249 9 181 75 112 141 78 218 78 306c0 75 28 149 84 222 55 73 160 143 315 210-59 73-99 133-120 180s-32 94-32 141c0 89 33 165 100 229 66 64 149 96 250 96 96 0 174-28 235-83s91-120 91-194c0-73-24-140-73-200S800 798 691 759m-39 42c72 25 128 65 168 121 39 56 59 120 59 193 0 68-19 122-57 161-39 39-89 58-151 58-59 0-107-19-144-56s-55-86-55-145c0-45 10-86 29-124 28-56 78-125 151-208M514 697c-99-41-174-101-225-179-51-79-77-163-77-253 0-73 23-131 68-175 45-45 104-67 177-67 76 0 140 27 192 80s78 117 78 191c0 56-15 115-45 177-31 61-87 137-168 226z" horiz-adv-x="1024" unicode="8"/>
    <glyph id="glyph160" d="M59-24V8c69 15 128 36 179 64 90 49 171 110 243 183 71 73 135 157 191 253-41-20-72-33-95-39s-48-9-76-9c-101 0-178 34-231 103s-80 149-80 240c0 159 52 296 156 410 103 114 213 171 330 171 106 0 187-40 244-119 57-80 85-173 85-280 0-135-31-269-94-401S763 338 656 243 436 77 318 31C248 4 162-15 59-24m663 615c94 191 141 361 141 511 0 73-18 129-53 169-36 40-78 60-125 60-79 0-150-55-215-165s-98-241-98-392c0-80 19-140 56-181s83-62 139-62c25 0 49 4 70 12 21 7 50 23 85 48z" horiz-adv-x="1024" unicode="9"/>
    <glyph id="glyph162" d="M435 906c28 0 52-10 72-29 20-20 30-44 30-72s-10-52-30-72-44-30-72-30-52 10-72 30-30 44-30 72 10 52 30 72c20 19 44 29 72 29M223 182c28 0 52-10 71-29 19-20 29-44 29-72 0-27-10-51-29-70-20-20-44-30-71-30-28 0-52 10-71 30-20 19-30 43-30 70 0 28 10 52 30 72 19 19 43 29 71 29z" horiz-adv-x="682" unicode=":"/>
    <glyph id="glyph164" d="m303 1319 14 37h484c81 0 154-13 218-38 63-25 111-61 143-106 31-45 47-93 47-144 0-78-28-148-84-211-57-63-149-110-276-140 82-31 142-71 181-122s58-106 58-167c0-67-17-132-52-193S957 126 903 92c-55-34-120-59-197-75C651 6 566 0 450 0H-47l13 37c52 1 87 6 106 15 27 11 46 26 57 45 16 25 37 83 64 174l243 821c21 69 31 118 31 146 0 25-9 44-27 59-19 14-54 21-105 21-11 0-22 0-32 1m203-563c43-1 75-2 94-2 139 0 242 30 310 91 67 60 101 135 101 226 0 69-21 122-62 161-41 38-107 57-198 57-24 0-55-4-92-12M309 88c72-9 128-14 169-14 104 0 196 31 277 94 80 63 120 148 120 255 0 82-25 146-74 192-50 46-130 69-241 69-21 0-47-1-78-3z" horiz-adv-x="1251" unicode="B"/>
    <glyph id="glyph166" d="M851 0 634 659c-51-1-103 4-156 15L361 264c-15-53-23-98-23-135 0-28 10-50 29-66 15-12 55-21 120-26l-9-37H-47l11 37c49 2 83 7 100 15 27 11 47 27 60 46 21 31 44 87 67 166l237 819c16 55 24 97 24 127 0 31-12 57-37 78s-61 32-108 31l12 37h442c148 0 255-28 320-84s98-130 98-221c0-87-33-167-100-239-67-73-159-119-276-138l132-397c32-97 64-161 96-190s84-46 155-50l-11-37M495 731c43-6 81-9 114-9 115 0 205 32 272 96 67 63 100 142 100 237 0 74-21 131-62 170-42 39-105 59-188 59-21 0-47-3-76-8z" horiz-adv-x="1251" unicode="R"/>
    <glyph id="glyph168" d="m13-408 526 1795h426l-22-69H664L180-336h278l-20-72z" horiz-adv-x="797" unicode="["/>
    <glyph id="glyph170" d="M747 1387 221-408h-426l21 69H96l483 1654H302l20 72z" horiz-adv-x="797" unicode="]"/>
    <glyph id="glyph172" d="M961 905 766 227l-22-91c-2-9-3-16-3-22 0-11 3-20 10-28 5-6 12-9 20-9 9 0 20 5 34 16 26 19 61 59 104 120l34-24c-46-69-93-122-142-158-49-37-94-55-135-55-29 0-50 7-64 22-15 14-22 35-22 62 0 33 7 76 22 129l21 75C536 150 455 70 382 25 329-8 278-24 227-24c-49 0-91 20-126 61-35 40-53 95-53 166 0 106 32 218 96 336 63 117 144 211 242 282 77 56 149 84 217 84 41 0 75-11 102-32s47-57 61-106l36 114m-197-28c-43 0-88-20-136-60-68-57-128-141-181-252s-80-212-80-302c0-45 11-81 34-107 23-27 49-40 78-40 73 0 152 54 237 161 114 143 171 289 171 439 0 57-11 98-33 123s-52 38-90 38z" horiz-adv-x="1024" unicode="a"/>
    <glyph id="glyph174" d="M591 1422 394 731c64 67 120 112 168 137 47 25 97 37 149 37 73 0 133-24 180-73s70-115 70-198c0-107-31-214-92-320-61-107-138-190-231-249S454-24 364-24C263-24 160 14 54 89l304 1047c23 81 35 128 35 142 0 17-5 30-16 39-15 12-38 18-68 18-14 0-35-2-64-7v38M204 78c67-37 125-55 176-55 59 0 120 22 183 65s117 115 164 217c46 102 69 205 69 309 0 61-15 109-45 144-31 35-67 52-108 52-62 0-123-25-182-74-59-50-102-119-127-208z" horiz-adv-x="1024" unicode="b"/>
    <glyph id="glyph176" d="M244 377c-5-33-7-61-7-83 0-59 21-110 63-151 42-42 93-63 153-63 48 0 94 10 139 30 44 19 110 63 197 130l21-29C652 54 501-24 358-24c-97 0-171 31-220 92S64 197 64 271c0 99 31 201 92 305s138 185 231 243c93 57 188 86 286 86 71 0 123-14 157-43s51-63 51-102c0-55-22-108-66-159-58-66-143-119-256-160-75-27-180-49-315-64m7 49c99 11 179 31 241 58 82 37 144 81 185 132s61 99 61 145c0 28-9 51-26 68-18 17-43 26-76 26-68 0-140-36-216-108-77-73-133-180-169-321z" horiz-adv-x="909" unicode="e"/>
    <glyph id="glyph178" d="M601 1422 320 451c121 183 216 304 284 364s133 90 195 90c32 0 59-11 80-33s32-51 32-88c0-44-9-97-28-160L761 205c-15-51-23-79-23-84 0-9 3-17 9-23 5-6 12-9 19-9 9 0 19 4 30 13 38 29 76 70 113 122l31-19c-23-35-54-74-94-116-41-43-75-72-104-88-29-17-55-25-78-25-25 0-45 8-60 24-16 15-24 35-24 60 0 29 12 84 35 164l115 400c15 50 22 89 22 118 0 13-4 24-12 32-9 8-20 12-33 12-19 0-41-7-66-22-45-28-98-80-157-156-16-21-69-104-160-250-28-47-51-98-69-153L191 0H41l329 1144 35 124c0 17-7 33-21 46-15 13-32 20-53 20-12 0-30-2-55-6l-21-3v39z" horiz-adv-x="1024" unicode="h"/>
    <glyph id="glyph180" d="M458 1302c28 0 52-10 71-29s29-43 29-71c0-27-10-51-29-70-20-20-44-30-71-30s-51 10-70 30c-20 19-30 43-30 70 0 28 10 52 29 71s43 29 71 29m13-397L273 204c-13-47-20-76-20-85 0-11 3-19 10-26 6-7 13-10 22-10 10 0 22 5 36 16 38 30 76 73 115 128l35-23c-45-69-99-128-160-175-45-35-89-53-130-53-27 0-50 8-67 25-17 16-26 36-26 61s8 66 25 123l130 448c21 73 32 119 32 138 0 15-5 27-15 36-11 9-25 14-43 14-15 0-45-4-91-11v39z" horiz-adv-x="569" unicode="i"/>
    <glyph id="glyph182" d="M609 1422 267 232c-17-59-25-96-25-109 0-10 3-18 10-25 6-7 14-10 23-10 13 0 26 6 41 17 35 27 71 70 109 127l30-31C392 112 333 49 280 14c-39-25-77-38-112-38-25 0-46 9-63 26S79 39 79 62c0 24 11 73 32 148l271 938c22 77 33 121 33 132 0 16-6 29-19 40-13 10-32 15-59 15-15 0-39-2-70-7v37z" horiz-adv-x="569" unicode="l"/>
    <glyph id="glyph184" d="M452 905 319 450c125 186 220 308 287 367 66 59 130 88 191 88 33 0 61-11 83-33 21-22 32-51 32-86 0-40-10-93-29-160L761 205c-14-49-21-78-21-89 0-9 3-17 8-23 5-7 11-10 17-10 8 0 18 4 29 13 35 28 74 71 116 128l31-19C879 116 820 53 765 15c-39-26-73-39-104-39-25 0-44 8-59 23s-22 35-22 60c0 32 11 87 34 165l116 402c15 50 22 89 22 117 0 13-4 24-13 33-9 8-19 12-32 12-19 0-41-8-67-24-49-30-101-79-154-148S376 458 317 351c-31-57-57-119-78-186L189 0H39l182 626c21 75 32 121 32 136s-6 28-17 39c-12 11-27 16-44 16-8 0-22-1-42-4l-38-6-6 36z" horiz-adv-x="1024" unicode="n"/>
    <glyph id="glyph186" d="M947 592c0-100-26-199-79-297S741 119 646 62 459-24 370-24c-91 0-166 29-223 88-58 58-87 133-87 226 0 98 28 196 85 295 56 99 131 177 226 234 94 57 185 86 273 86s161-29 218-87 85-133 85-226m-166 69c0 62-15 110-45 143-31 33-70 49-118 49-98 0-188-70-270-210-83-141-124-280-124-419 0-63 16-112 48-146 32-35 72-52 121-52 94 0 182 70 265 210 82 139 123 281 123 425z" horiz-adv-x="1024" unicode="o"/>
    <glyph id="glyph188" d="m453 905-69-230c73 85 138 145 195 179s115 51 174 51 110-23 152-70 63-109 63-184c0-147-60-296-179-447C670 52 531-24 372-24c-33 0-63 4-88 11-26 7-55 20-87 39l-73-258c-15-51-22-84-22-99s4-27 12-37c7-11 20-19 37-24 17-6 52-9 103-9l-9-37h-471l10 37c62 3 104 13 126 32 21 19 44 70 68 155l253 876c15 55 23 90 23 103 0 18-5 32-15 42-11 10-27 15-48 15-19 0-46-2-81-7v39m110-749c41-49 97-74 167-74 35 0 70 10 106 29s71 48 106 86c34 38 65 82 92 132 27 49 52 108 74 175 21 67 32 134 32 200 0 53-12 94-36 123-25 28-53 42-86 42-72 0-143-41-213-124-71-83-122-179-155-290z" horiz-adv-x="1024" unicode="p"/>
    <glyph id="glyph190" d="m107 849 345 56-144-486c117 199 223 339 318 418 54 45 98 68 132 68 22 0 39-6 52-19s19-32 19-57c0-44-11-86-34-126-16-30-39-45-69-45-15 0-28 5-39 15s-18 25-21 46c-1 13-4 21-9 25-5 5-12 8-19 8-11 0-22-3-32-8-17-9-44-35-79-78-55-65-115-150-180-254-28-44-52-94-72-149-28-76-44-122-48-137L195 0H42l185 621c21 72 32 123 32 154 0 12-5 22-15 30-13 11-31 16-53 16-14 0-40-3-77-9z" horiz-adv-x="797" unicode="r"/>
    <glyph id="glyph192" d="m532 1153-78-272h157l-17-63H438L266 228c-19-63-28-104-28-123 0-11 3-20 8-26s12-9 19-9c17 0 39 12 66 35 16 13 52 54 107 123l33-25C410 114 352 51 297 14c-37-25-75-38-113-38-29 0-53 9-72 28-19 18-28 41-28 70 0 36 11 91 32 165l167 579H132l10 39c73 20 134 50 183 90 49 39 103 108 163 206z" horiz-adv-x="569" unicode="t"/>
  </font>
  <font id="font208" horiz-adv-x="2048" horiz-origin-x="0" horiz-origin-y="0" vert-adv-y="90" vert-origin-x="45" vert-origin-y="90">
    <font-face id="font-face196" font-family="'Times New Roman'" font-style="italic" font-weight="bold" underline-position="-223" underline-thickness="195" units-per-em="2048">
      <font-face-src>
        <font-face-name name="Times New Roman Fett Kursiv"/>
      </font-face-src>
    </font-face>
    <glyph id="glyph200" d="m130-28 86 424H80v133h162l59 292H80v130h247l87 433h132l-88-433h295l86 433h132l-88-433h140V821H858l-60-292h225V396H773L687-28H554l86 424H349L259-28m116 557h294l58 292H433z" horiz-adv-x="1024" unicode="#"/>
    <glyph id="glyph202" d="m1195 1387-113-460h-33c-7 72-20 130-39 173-28 63-65 111-111 145-47 34-97 51-151 51-52 0-97-20-136-59-39-40-59-85-59-135 0-49 14-98 41-145 27-48 90-120 191-216 81-77 135-143 163-198 27-55 41-115 41-180 0-73-19-140-58-201S836 53 763 20c-74-34-158-51-251-51-57 0-129 9-216 26S151 20 122 20c-23 0-43-3-61-10S21-11-6-31h-39L76 486h38c9-91 27-168 55-231 28-64 68-114 120-149 52-36 111-54 178-54 66 0 121 22 166 66 44 43 66 94 66 153 0 50-12 98-37 144s-82 113-171 201-151 167-185 236c-25 51-37 106-37 164 0 101 40 188 119 261s183 110 311 110c58 0 134-13 229-39 55-15 94-23 117-23 19 0 37 4 52 13 15 8 33 24 54 49z" horiz-adv-x="1139" unicode="S"/>
    <glyph id="glyph204" d="M667 1387 391 441l229 212 76 68c22 23 37 42 46 58 5 10 8 19 8 28 0 14-7 26-20 35s-46 16-97 19l11 38h407l-10-38c-48-11-87-24-117-39-23-11-52-30-86-56-51-39-87-70-109-91l-44-41 61-276c23-107 41-168 52-185 7-10 16-15 26-15 23 0 51 27 83 82 5 7 11 18 19 31l37-23C913 155 857 84 794 35c-42-33-80-49-114-49s-62 12-85 37c-23 24-45 88-68 191l-50 227-110-98L267 0H12l332 1129c14 48 21 80 21 97 0 15-3 28-10 38-7 9-16 16-27 21-12 5-35 7-70 7l9 37 340 58z" horiz-adv-x="1024" unicode="k"/>
    <glyph id="glyph206" d="m93 867 349 60c63-99 108-209 134-328 65 97 115 164 148 203 45 52 82 86 111 102 29 15 59 23 92 23 37 0 65-10 85-30 19-20 29-47 29-81 0-32-10-58-29-78-20-21-45-31-74-31-21 0-46 4-73 12-28 7-47 11-58 11-28 0-55-10-80-30-35-27-77-86-128-175 57-200 102-322 136-366 20-26 40-39 61-39 17 0 32 4 45 13 19 14 49 49 89 105l36-21C907 122 850 56 794 17c-43-30-85-45-126-45-43 0-78 10-106 29-29 19-54 50-76 93s-48 111-78 206c-78-99-139-172-183-217-45-46-82-76-111-90S53-28 20-28c-35 0-62 10-82 30-21 20-31 46-31 78 0 34 11 62 33 84s50 33 84 33c18 0 38-5 61-16 33-16 57-24 72-24 19 0 37 4 52 12 20 10 45 32 76 65 19 21 53 65 103 132-64 237-114 379-150 426-23 30-51 45-86 45-18 0-40-3-66-8z" horiz-adv-x="1024" unicode="x"/>
  </font>
</defs>
</svg>
