<?xml version="1.0" encoding="UTF-8" standalone="no"?>
<!DOCTYPE svg PUBLIC "-//W3C//DTD SVG 1.1//EN"
 "http://www.w3.org/Graphics/SVG/1.1/DTD/svg11.dtd">
<!-- Generated by graphviz version 2.47.3 (20210619.1520)
 -->
<!-- Title: dependencies Pages: 1 -->
<svg width="704pt" height="174pt"
 viewBox="0.00 0.00 704.00 173.80" xmlns="http://www.w3.org/2000/svg" xmlns:xlink="http://www.w3.org/1999/xlink">
<g id="graph0" class="graph" transform="scale(1 1) rotate(0) translate(4 169.8)">
<title>dependencies</title>
<polygon fill="white" stroke="transparent" points="-4,4 -4,-169.8 700,-169.8 700,4 -4,4"/>
<text text-anchor="middle" x="348" y="-8.2" font-family="sans-serif" font-size="14.00">dependencies</text>
<g id="clust1" class="cluster">
<title>cluster_EditionGraphModule</title>
<polygon fill="none" stroke="black" stroke-dasharray="1,5" points="8,-32.8 8,-157.8 688,-157.8 688,-32.8 8,-32.8"/>
</g>
<g id="clust2" class="cluster">
<title>cluster_EditionGraphModule_declarations</title>
<polygon fill="none" stroke="black" points="506,-40.8 506,-92.8 680,-92.8 680,-40.8 506,-40.8"/>
</g>
<g id="clust4" class="cluster">
<title>cluster_EditionGraphModule_imports</title>
<polygon fill="none" stroke="black" points="16,-40.8 16,-92.8 498,-92.8 498,-40.8 16,-40.8"/>
</g>
<!-- EditionGraphComponent -->
<g id="node1" class="node">
<title>EditionGraphComponent</title>
<polygon fill="#ffffb3" stroke="black" points="671.54,-84.8 514.46,-84.8 514.46,-48.8 671.54,-48.8 671.54,-84.8"/>
<text text-anchor="middle" x="593" y="-62.6" font-family="Times,serif" font-size="14.00">EditionGraphComponent</text>
</g>
<!-- EditionGraphModule -->
<g id="node2" class="node">
<title>EditionGraphModule</title>
<polygon fill="#8dd3c7" stroke="black" points="375.76,-149.8 372.76,-153.8 351.76,-153.8 348.76,-149.8 240.24,-149.8 240.24,-113.8 375.76,-113.8 375.76,-149.8"/>
<text text-anchor="middle" x="308" y="-127.6" font-family="Times,serif" font-size="14.00">EditionGraphModule</text>
</g>
<!-- EditionGraphComponent&#45;&gt;EditionGraphModule -->
<g id="edge1" class="edge">
<title>EditionGraphComponent&#45;&gt;EditionGraphModule</title>
<path fill="none" stroke="black" d="M593,-84.91C593,-104.14 593,-131.8 593,-131.8 593,-131.8 385.9,-131.8 385.9,-131.8"/>
<polygon fill="black" stroke="black" points="385.9,-128.3 375.9,-131.8 385.9,-135.3 385.9,-128.3"/>
</g>
<!-- EditionGraphRoutingModule -->
<g id="node3" class="node">
<title>EditionGraphRoutingModule</title>
<polygon fill="#8dd3c7" stroke="black" points="490.37,-84.8 487.37,-88.8 466.37,-88.8 463.37,-84.8 309.63,-84.8 309.63,-48.8 490.37,-48.8 490.37,-84.8"/>
<text text-anchor="middle" x="400" y="-62.6" font-family="Times,serif" font-size="14.00">EditionGraphRoutingModule</text>
</g>
<!-- EditionGraphRoutingModule&#45;&gt;EditionGraphModule -->
<g id="edge2" class="edge">
<title>EditionGraphRoutingModule&#45;&gt;EditionGraphModule</title>
<path fill="none" stroke="black" d="M342.72,-84.91C342.72,-84.91 342.72,-103.79 342.72,-103.79"/>
<polygon fill="black" stroke="black" points="339.22,-103.79 342.72,-113.79 346.22,-103.79 339.22,-103.79"/>
</g>
<!-- GraphVisualizerModule -->
<g id="node4" class="node">
<title>GraphVisualizerModule</title>
<polygon fill="#8dd3c7" stroke="black" points="292.06,-84.8 289.06,-88.8 268.06,-88.8 265.06,-84.8 139.94,-84.8 139.94,-48.8 292.06,-48.8 292.06,-84.8"/>
<text text-anchor="middle" x="216" y="-62.6" font-family="Times,serif" font-size="14.00">GraphVisualizerModule</text>
</g>
<!-- GraphVisualizerModule&#45;&gt;EditionGraphModule -->
<g id="edge3" class="edge">
<title>GraphVisualizerModule&#45;&gt;EditionGraphModule</title>
<path fill="none" stroke="black" d="M266.08,-84.91C266.08,-84.91 266.08,-103.79 266.08,-103.79"/>
<polygon fill="black" stroke="black" points="262.58,-103.79 266.08,-113.79 269.58,-103.79 262.58,-103.79"/>
</g>
<!-- SharedModule -->
<g id="node5" class="node">
<title>SharedModule</title>
<polygon fill="#8dd3c7" stroke="black" points="122.42,-84.8 119.42,-88.8 98.42,-88.8 95.42,-84.8 23.58,-84.8 23.58,-48.8 122.42,-48.8 122.42,-84.8"/>
<text text-anchor="middle" x="73" y="-62.6" font-family="Times,serif" font-size="14.00">SharedModule</text>
</g>
<!-- SharedModule&#45;&gt;EditionGraphModule -->
<g id="edge4" class="edge">
<title>SharedModule&#45;&gt;EditionGraphModule</title>
<path fill="none" stroke="black" d="M73,-84.91C73,-104.14 73,-131.8 73,-131.8 73,-131.8 230.03,-131.8 230.03,-131.8"/>
<polygon fill="black" stroke="black" points="230.03,-135.3 240.03,-131.8 230.03,-128.3 230.03,-135.3"/>
</g>
</g>
</svg>
