<?xml version="1.0" encoding="UTF-8" standalone="no"?>
<!DOCTYPE svg PUBLIC "-//W3C//DTD SVG 1.1//EN"
 "http://www.w3.org/Graphics/SVG/1.1/DTD/svg11.dtd">
<!-- Generated by graphviz version 2.47.0 (20210316.0004)
 -->
<!-- Title: dependencies Pages: 1 -->
<svg width="704pt" height="211pt"
 viewBox="0.00 0.00 704.00 211.00" xmlns="http://www.w3.org/2000/svg" xmlns:xlink="http://www.w3.org/1999/xlink">
<g id="graph0" class="graph" transform="scale(1 1) rotate(0) translate(4 207)">
<title>dependencies</title>
<polygon fill="white" stroke="transparent" points="-4,4 -4,-207 700,-207 700,4 -4,4"/>
<text text-anchor="start" x="327.01" y="-42.4" font-family="sans-serif" font-weight="bold" font-size="14.00">Legend</text>
<polygon fill="#ffffb3" stroke="transparent" points="114,-10 114,-30 134,-30 134,-10 114,-10"/>
<text text-anchor="start" x="137.63" y="-15.4" font-family="sans-serif" font-size="14.00"> &#160;Declarations</text>
<polygon fill="#8dd3c7" stroke="transparent" points="227,-10 227,-30 247,-30 247,-10 227,-10"/>
<text text-anchor="start" x="250.73" y="-15.4" font-family="sans-serif" font-size="14.00"> &#160;Module</text>
<polygon fill="#80b1d3" stroke="transparent" points="313,-10 313,-30 333,-30 333,-10 313,-10"/>
<text text-anchor="start" x="336.78" y="-15.4" font-family="sans-serif" font-size="14.00"> &#160;Bootstrap</text>
<polygon fill="#fdb462" stroke="transparent" points="410,-10 410,-30 430,-30 430,-10 410,-10"/>
<text text-anchor="start" x="433.67" y="-15.4" font-family="sans-serif" font-size="14.00"> &#160;Providers</text>
<polygon fill="#fb8072" stroke="transparent" points="506,-10 506,-30 526,-30 526,-10 506,-10"/>
<text text-anchor="start" x="529.73" y="-15.4" font-family="sans-serif" font-size="14.00"> &#160;Exports</text>
<g id="clust1" class="cluster">
<title>cluster_EditionGraphModule</title>
<polygon fill="none" stroke="black" stroke-dasharray="1,5" points="8,-70 8,-195 688,-195 688,-70 8,-70"/>
</g>
<g id="clust4" class="cluster">
<title>cluster_EditionGraphModule_imports</title>
<polygon fill="none" stroke="black" points="198,-78 198,-130 680,-130 680,-78 198,-78"/>
</g>
<g id="clust2" class="cluster">
<title>cluster_EditionGraphModule_declarations</title>
<polygon fill="none" stroke="black" points="16,-78 16,-130 190,-130 190,-78 16,-78"/>
</g>
<!-- EditionGraphComponent -->
<g id="node1" class="node">
<title>EditionGraphComponent</title>
<polygon fill="#ffffb3" stroke="black" points="181.54,-122 24.46,-122 24.46,-86 181.54,-86 181.54,-122"/>
<text text-anchor="middle" x="103" y="-99.8" font-family="Times,serif" font-size="14.00">EditionGraphComponent</text>
</g>
<!-- EditionGraphModule -->
<g id="node2" class="node">
<title>EditionGraphModule</title>
<polygon fill="#8dd3c7" stroke="black" points="393.76,-187 390.76,-191 369.76,-191 366.76,-187 258.24,-187 258.24,-151 393.76,-151 393.76,-187"/>
<text text-anchor="middle" x="326" y="-164.8" font-family="Times,serif" font-size="14.00">EditionGraphModule</text>
</g>
<!-- EditionGraphComponent&#45;&gt;EditionGraphModule -->
<g id="edge1" class="edge">
<title>EditionGraphComponent&#45;&gt;EditionGraphModule</title>
<path fill="none" stroke="black" d="M103,-122.11C103,-141.34 103,-169 103,-169 103,-169 248.18,-169 248.18,-169"/>
<polygon fill="black" stroke="black" points="248.18,-172.5 258.18,-169 248.18,-165.5 248.18,-172.5"/>
</g>
<!-- EditionGraphRoutingModule -->
<g id="node3" class="node">
<title>EditionGraphRoutingModule</title>
<polygon fill="#8dd3c7" stroke="black" points="672.37,-122 669.37,-126 648.37,-126 645.37,-122 491.63,-122 491.63,-86 672.37,-86 672.37,-122"/>
<text text-anchor="middle" x="582" y="-99.8" font-family="Times,serif" font-size="14.00">EditionGraphRoutingModule</text>
</g>
<!-- EditionGraphRoutingModule&#45;&gt;EditionGraphModule -->
<g id="edge2" class="edge">
<title>EditionGraphRoutingModule&#45;&gt;EditionGraphModule</title>
<path fill="none" stroke="black" d="M582,-122.11C582,-141.34 582,-169 582,-169 582,-169 403.93,-169 403.93,-169"/>
<polygon fill="black" stroke="black" points="403.93,-165.5 393.93,-169 403.93,-172.5 403.93,-165.5"/>
</g>
<!-- GraphVisualizerModule -->
<g id="node4" class="node">
<title>GraphVisualizerModule</title>
<polygon fill="#8dd3c7" stroke="black" points="474.06,-122 471.06,-126 450.06,-126 447.06,-122 321.94,-122 321.94,-86 474.06,-86 474.06,-122"/>
<text text-anchor="middle" x="398" y="-99.8" font-family="Times,serif" font-size="14.00">GraphVisualizerModule</text>
</g>
<!-- GraphVisualizerModule&#45;&gt;EditionGraphModule -->
<g id="edge3" class="edge">
<title>GraphVisualizerModule&#45;&gt;EditionGraphModule</title>
<path fill="none" stroke="black" d="M357.92,-122.11C357.92,-122.11 357.92,-140.99 357.92,-140.99"/>
<polygon fill="black" stroke="black" points="354.42,-140.99 357.92,-150.99 361.42,-140.99 354.42,-140.99"/>
</g>
<!-- SharedModule -->
<g id="node5" class="node">
<title>SharedModule</title>
<polygon fill="#8dd3c7" stroke="black" points="304.42,-122 301.42,-126 280.42,-126 277.42,-122 205.58,-122 205.58,-86 304.42,-86 304.42,-122"/>
<text text-anchor="middle" x="255" y="-99.8" font-family="Times,serif" font-size="14.00">SharedModule</text>
</g>
<!-- SharedModule&#45;&gt;EditionGraphModule -->
<g id="edge4" class="edge">
<title>SharedModule&#45;&gt;EditionGraphModule</title>
<path fill="none" stroke="black" d="M281.17,-122.11C281.17,-122.11 281.17,-140.99 281.17,-140.99"/>
<polygon fill="black" stroke="black" points="277.67,-140.99 281.17,-150.99 284.67,-140.99 277.67,-140.99"/>
</g>
</g>
</svg>
