<?xml version="1.0" encoding="UTF-8" standalone="no"?>
<!DOCTYPE svg PUBLIC "-//W3C//DTD SVG 1.1//EN"
 "http://www.w3.org/Graphics/SVG/1.1/DTD/svg11.dtd">
<!-- Generated by graphviz version 2.40.1 (20161225.0304)
 -->
<!-- Title: dependencies Pages: 1 -->
<svg width="504pt" height="284pt"
 viewBox="0.00 0.00 504.00 284.00" xmlns="http://www.w3.org/2000/svg" xmlns:xlink="http://www.w3.org/1999/xlink">
<g id="graph0" class="graph" transform="scale(1 1) rotate(0) translate(4 280)">
<title>dependencies</title>
<polygon fill="#ffffff" stroke="transparent" points="-4,4 -4,-280 500,-280 500,4 -4,4"/>
<text text-anchor="start" x="227.0091" y="-42.4" font-family="sans-serif" font-weight="bold" font-size="14.00" fill="#000000">Legend</text>
<polygon fill="#ffffb3" stroke="transparent" points="14,-10 14,-30 34,-30 34,-10 14,-10"/>
<text text-anchor="start" x="37.629" y="-15.4" font-family="sans-serif" font-size="14.00" fill="#000000"> &#160;Declarations</text>
<polygon fill="#8dd3c7" stroke="transparent" points="127,-10 127,-30 147,-30 147,-10 127,-10"/>
<text text-anchor="start" x="150.7251" y="-15.4" font-family="sans-serif" font-size="14.00" fill="#000000"> &#160;Module</text>
<polygon fill="#80b1d3" stroke="transparent" points="213,-10 213,-30 233,-30 233,-10 213,-10"/>
<text text-anchor="start" x="236.7812" y="-15.4" font-family="sans-serif" font-size="14.00" fill="#000000"> &#160;Bootstrap</text>
<polygon fill="#fdb462" stroke="transparent" points="310,-10 310,-30 330,-30 330,-10 310,-10"/>
<text text-anchor="start" x="333.6732" y="-15.4" font-family="sans-serif" font-size="14.00" fill="#000000"> &#160;Providers</text>
<polygon fill="#fb8072" stroke="transparent" points="406,-10 406,-30 426,-30 426,-10 406,-10"/>
<text text-anchor="start" x="429.7258" y="-15.4" font-family="sans-serif" font-size="14.00" fill="#000000"> &#160;Exports</text>
<g id="clust1" class="cluster">
<title>cluster_EditionGraphModule</title>
<polygon fill="none" stroke="#000000" stroke-dasharray="1,5" points="98,-70 98,-268 398,-268 398,-70 98,-70"/>
</g>
<g id="clust3" class="cluster">
<title>cluster_EditionGraphModule_imports</title>
<polygon fill="none" stroke="#000000" points="106,-78 106,-130 390,-130 390,-78 106,-78"/>
</g>
<g id="clust4" class="cluster">
<title>cluster_EditionGraphModule_exports</title>
<polygon fill="none" stroke="#000000" points="151,-208 151,-260 345,-260 345,-208 151,-208"/>
</g>
<!-- GraphVisualizerModule -->
<g id="node1" class="node">
<title>GraphVisualizerModule</title>
<polygon fill="#8dd3c7" stroke="#000000" points="382.059,-122 379.059,-126 358.059,-126 355.059,-122 229.941,-122 229.941,-86 382.059,-86 382.059,-122"/>
<text text-anchor="middle" x="306" y="-99.8" font-family="Times,serif" font-size="14.00" fill="#000000">GraphVisualizerModule</text>
</g>
<!-- EditionGraphModule -->
<g id="node3" class="node">
<title>EditionGraphModule</title>
<polygon fill="#8dd3c7" stroke="#000000" points="315.7562,-187 312.7562,-191 291.7562,-191 288.7562,-187 180.2438,-187 180.2438,-151 315.7562,-151 315.7562,-187"/>
<text text-anchor="middle" x="248" y="-164.8" font-family="Times,serif" font-size="14.00" fill="#000000">EditionGraphModule</text>
</g>
<!-- GraphVisualizerModule&#45;&gt;EditionGraphModule -->
<g id="edge1" class="edge">
<title>GraphVisualizerModule&#45;&gt;EditionGraphModule</title>
<path fill="none" stroke="#000000" d="M272.9243,-122.1061C272.9243,-122.1061 272.9243,-140.991 272.9243,-140.991"/>
<polygon fill="#000000" stroke="#000000" points="269.4243,-140.9909 272.9243,-150.991 276.4243,-140.991 269.4243,-140.9909"/>
</g>
<!-- SharedModule -->
<g id="node2" class="node">
<title>SharedModule</title>
<polygon fill="#8dd3c7" stroke="#000000" points="212.4231,-122 209.4231,-126 188.4231,-126 185.4231,-122 113.5769,-122 113.5769,-86 212.4231,-86 212.4231,-122"/>
<text text-anchor="middle" x="163" y="-99.8" font-family="Times,serif" font-size="14.00" fill="#000000">SharedModule</text>
</g>
<!-- SharedModule&#45;&gt;EditionGraphModule -->
<g id="edge2" class="edge">
<title>SharedModule&#45;&gt;EditionGraphModule</title>
<path fill="none" stroke="#000000" d="M196.1666,-122.1061C196.1666,-122.1061 196.1666,-140.991 196.1666,-140.991"/>
<polygon fill="#000000" stroke="#000000" points="192.6666,-140.9909 196.1666,-150.991 199.6666,-140.991 192.6666,-140.9909"/>
</g>
<!-- GraphVisualizerComponent  -->
<g id="node4" class="node">
<title>GraphVisualizerComponent </title>
<polygon fill="#fb8072" stroke="#000000" points="336.8419,-252 159.1581,-252 159.1581,-216 336.8419,-216 336.8419,-252"/>
<text text-anchor="middle" x="248" y="-229.8" font-family="Times,serif" font-size="14.00" fill="#000000">GraphVisualizerComponent </text>
</g>
<!-- EditionGraphModule&#45;&gt;GraphVisualizerComponent  -->
<g id="edge3" class="edge">
<title>EditionGraphModule&#45;&gt;GraphVisualizerComponent </title>
<path fill="none" stroke="#000000" stroke-dasharray="5,2" d="M248,-187.1061C248,-187.1061 248,-205.991 248,-205.991"/>
<polygon fill="#000000" stroke="#000000" points="244.5001,-205.9909 248,-215.991 251.5001,-205.991 244.5001,-205.9909"/>
</g>
</g>
</svg>
