<?xml version="1.0" encoding="UTF-8" standalone="no"?>
<!DOCTYPE svg PUBLIC "-//W3C//DTD SVG 1.1//EN"
 "http://www.w3.org/Graphics/SVG/1.1/DTD/svg11.dtd">
<!-- Generated by graphviz version 5.0.0 (20220707.1540)
 -->
<!-- Title: dependencies Pages: 1 -->
<svg width="704pt" height="174pt"
 viewBox="0.00 0.00 704.00 173.80" xmlns="http://www.w3.org/2000/svg" xmlns:xlink="http://www.w3.org/1999/xlink">
<g id="graph0" class="graph" transform="scale(1 1) rotate(0) translate(4 169.8)">
<title>dependencies</title>
<polygon fill="white" stroke="transparent" points="-4,4 -4,-169.8 700,-169.8 700,4 -4,4"/>
<text text-anchor="middle" x="348" y="-8.2" font-family="sans-serif" font-size="14.00">dependencies</text>
<g id="clust1" class="cluster">
<title>cluster_EditionGraphModule</title>
<polygon fill="none" stroke="black" stroke-dasharray="1,5" points="8,-32.8 8,-157.8 688,-157.8 688,-32.8 8,-32.8"/>
</g>
<g id="clust4" class="cluster">
<title>cluster_EditionGraphModule_imports</title>
<polygon fill="none" stroke="black" points="198,-40.8 198,-92.8 680,-92.8 680,-40.8 198,-40.8"/>
</g>
<g id="clust2" class="cluster">
<title>cluster_EditionGraphModule_declarations</title>
<polygon fill="none" stroke="black" points="16,-40.8 16,-92.8 190,-92.8 190,-40.8 16,-40.8"/>
</g>
<!-- EditionGraphComponent -->
<g id="node1" class="node">
<title>EditionGraphComponent</title>
<polygon fill="#ffffb3" stroke="black" points="181.54,-84.8 24.46,-84.8 24.46,-48.8 181.54,-48.8 181.54,-84.8"/>
<text text-anchor="middle" x="103" y="-62.6" font-family="Times,serif" font-size="14.00">EditionGraphComponent</text>
</g>
<!-- EditionGraphModule -->
<g id="node2" class="node">
<title>EditionGraphModule</title>
<polygon fill="#8dd3c7" stroke="black" points="393.76,-149.8 390.76,-153.8 369.76,-153.8 366.76,-149.8 258.24,-149.8 258.24,-113.8 393.76,-113.8 393.76,-149.8"/>
<text text-anchor="middle" x="326" y="-127.6" font-family="Times,serif" font-size="14.00">EditionGraphModule</text>
</g>
<!-- EditionGraphComponent&#45;&gt;EditionGraphModule -->
<g id="edge1" class="edge">
<title>EditionGraphComponent&#45;&gt;EditionGraphModule</title>
<path fill="none" stroke="black" d="M103,-84.91C103,-104.14 103,-131.8 103,-131.8 103,-131.8 248.18,-131.8 248.18,-131.8"/>
<polygon fill="black" stroke="black" points="248.18,-135.3 258.18,-131.8 248.18,-128.3 248.18,-135.3"/>
</g>
<!-- EditionGraphRoutingModule -->
<g id="node3" class="node">
<title>EditionGraphRoutingModule</title>
<polygon fill="#8dd3c7" stroke="black" points="672.38,-84.8 669.38,-88.8 648.38,-88.8 645.38,-84.8 491.62,-84.8 491.62,-48.8 672.38,-48.8 672.38,-84.8"/>
<text text-anchor="middle" x="582" y="-62.6" font-family="Times,serif" font-size="14.00">EditionGraphRoutingModule</text>
</g>
<!-- EditionGraphRoutingModule&#45;&gt;EditionGraphModule -->
<g id="edge2" class="edge">
<title>EditionGraphRoutingModule&#45;&gt;EditionGraphModule</title>
<path fill="none" stroke="black" d="M582,-84.91C582,-104.14 582,-131.8 582,-131.8 582,-131.8 403.93,-131.8 403.93,-131.8"/>
<polygon fill="black" stroke="black" points="403.93,-128.3 393.93,-131.8 403.93,-135.3 403.93,-128.3"/>
</g>
<!-- GraphVisualizerModule -->
<g id="node4" class="node">
<title>GraphVisualizerModule</title>
<polygon fill="#8dd3c7" stroke="black" points="474.07,-84.8 471.07,-88.8 450.07,-88.8 447.07,-84.8 321.93,-84.8 321.93,-48.8 474.07,-48.8 474.07,-84.8"/>
<text text-anchor="middle" x="398" y="-62.6" font-family="Times,serif" font-size="14.00">GraphVisualizerModule</text>
</g>
<!-- GraphVisualizerModule&#45;&gt;EditionGraphModule -->
<g id="edge3" class="edge">
<title>GraphVisualizerModule&#45;&gt;EditionGraphModule</title>
<path fill="none" stroke="black" d="M357.92,-84.91C357.92,-84.91 357.92,-103.79 357.92,-103.79"/>
<polygon fill="black" stroke="black" points="354.42,-103.79 357.92,-113.79 361.42,-103.79 354.42,-103.79"/>
</g>
<!-- SharedModule -->
<g id="node5" class="node">
<title>SharedModule</title>
<polygon fill="#8dd3c7" stroke="black" points="304.43,-84.8 301.43,-88.8 280.43,-88.8 277.43,-84.8 205.57,-84.8 205.57,-48.8 304.43,-48.8 304.43,-84.8"/>
<text text-anchor="middle" x="255" y="-62.6" font-family="Times,serif" font-size="14.00">SharedModule</text>
</g>
<!-- SharedModule&#45;&gt;EditionGraphModule -->
<g id="edge4" class="edge">
<title>SharedModule&#45;&gt;EditionGraphModule</title>
<path fill="none" stroke="black" d="M281.17,-84.91C281.17,-84.91 281.17,-103.79 281.17,-103.79"/>
<polygon fill="black" stroke="black" points="277.67,-103.79 281.17,-113.79 284.67,-103.79 277.67,-103.79"/>
</g>
</g>
</svg>
