<?xml version="1.0" encoding="UTF-8" standalone="no"?>
<!DOCTYPE svg PUBLIC "-//W3C//DTD SVG 1.1//EN"
 "http://www.w3.org/Graphics/SVG/1.1/DTD/svg11.dtd">
<!-- Generated by graphviz version 2.47.0 (20210316.0004)
 -->
<!-- Title: dependencies Pages: 1 -->
<svg width="520pt" height="211pt"
 viewBox="0.00 0.00 520.00 211.00" xmlns="http://www.w3.org/2000/svg" xmlns:xlink="http://www.w3.org/1999/xlink">
<g id="graph0" class="graph" transform="scale(1 1) rotate(0) translate(4 207)">
<title>dependencies</title>
<polygon fill="white" stroke="transparent" points="-4,4 -4,-207 516,-207 516,4 -4,4"/>
<text text-anchor="start" x="235.01" y="-42.4" font-family="sans-serif" font-weight="bold" font-size="14.00">Legend</text>
<polygon fill="#ffffb3" stroke="transparent" points="22,-10 22,-30 42,-30 42,-10 22,-10"/>
<text text-anchor="start" x="45.63" y="-15.4" font-family="sans-serif" font-size="14.00"> &#160;Declarations</text>
<polygon fill="#8dd3c7" stroke="transparent" points="135,-10 135,-30 155,-30 155,-10 135,-10"/>
<text text-anchor="start" x="158.73" y="-15.4" font-family="sans-serif" font-size="14.00"> &#160;Module</text>
<polygon fill="#80b1d3" stroke="transparent" points="221,-10 221,-30 241,-30 241,-10 221,-10"/>
<text text-anchor="start" x="244.78" y="-15.4" font-family="sans-serif" font-size="14.00"> &#160;Bootstrap</text>
<polygon fill="#fdb462" stroke="transparent" points="318,-10 318,-30 338,-30 338,-10 318,-10"/>
<text text-anchor="start" x="341.67" y="-15.4" font-family="sans-serif" font-size="14.00"> &#160;Providers</text>
<polygon fill="#fb8072" stroke="transparent" points="414,-10 414,-30 434,-30 434,-10 414,-10"/>
<text text-anchor="start" x="437.73" y="-15.4" font-family="sans-serif" font-size="14.00"> &#160;Exports</text>
<g id="clust1" class="cluster">
<title>cluster_EditionIntroModule</title>
<polygon fill="none" stroke="black" stroke-dasharray="1,5" points="8,-70 8,-195 504,-195 504,-70 8,-70"/>
</g>
<g id="clust4" class="cluster">
<title>cluster_EditionIntroModule_imports</title>
<polygon fill="none" stroke="black" points="190,-78 190,-130 496,-130 496,-78 190,-78"/>
</g>
<g id="clust2" class="cluster">
<title>cluster_EditionIntroModule_declarations</title>
<polygon fill="none" stroke="black" points="16,-78 16,-130 182,-130 182,-78 16,-78"/>
</g>
<!-- EditionIntroComponent -->
<g id="node1" class="node">
<title>EditionIntroComponent</title>
<polygon fill="#ffffb3" stroke="black" points="173.77,-122 24.23,-122 24.23,-86 173.77,-86 173.77,-122"/>
<text text-anchor="middle" x="99" y="-99.8" font-family="Times,serif" font-size="14.00">EditionIntroComponent</text>
</g>
<!-- EditionIntroModule -->
<g id="node2" class="node">
<title>EditionIntroModule</title>
<polygon fill="#8dd3c7" stroke="black" points="310.99,-187 307.99,-191 286.99,-191 283.99,-187 183.01,-187 183.01,-151 310.99,-151 310.99,-187"/>
<text text-anchor="middle" x="247" y="-164.8" font-family="Times,serif" font-size="14.00">EditionIntroModule</text>
</g>
<!-- EditionIntroComponent&#45;&gt;EditionIntroModule -->
<g id="edge1" class="edge">
<title>EditionIntroComponent&#45;&gt;EditionIntroModule</title>
<path fill="none" stroke="black" d="M174.06,-104C183.76,-104 190.4,-104 190.4,-104 190.4,-104 190.4,-140.89 190.4,-140.89"/>
<polygon fill="black" stroke="black" points="186.9,-140.89 190.4,-150.89 193.9,-140.89 186.9,-140.89"/>
</g>
<!-- EditionIntroRoutingModule -->
<g id="node3" class="node">
<title>EditionIntroRoutingModule</title>
<polygon fill="#8dd3c7" stroke="black" points="487.6,-122 484.6,-126 463.6,-126 460.6,-122 314.4,-122 314.4,-86 487.6,-86 487.6,-122"/>
<text text-anchor="middle" x="401" y="-99.8" font-family="Times,serif" font-size="14.00">EditionIntroRoutingModule</text>
</g>
<!-- EditionIntroRoutingModule&#45;&gt;EditionIntroModule -->
<g id="edge2" class="edge">
<title>EditionIntroRoutingModule&#45;&gt;EditionIntroModule</title>
<path fill="none" stroke="black" d="M314.4,-104C307.78,-104 303.6,-104 303.6,-104 303.6,-104 303.6,-140.89 303.6,-140.89"/>
<polygon fill="black" stroke="black" points="300.1,-140.89 303.6,-150.89 307.1,-140.89 300.1,-140.89"/>
</g>
<!-- SharedModule -->
<g id="node4" class="node">
<title>SharedModule</title>
<polygon fill="#8dd3c7" stroke="black" points="296.42,-122 293.42,-126 272.42,-126 269.42,-122 197.58,-122 197.58,-86 296.42,-86 296.42,-122"/>
<text text-anchor="middle" x="247" y="-99.8" font-family="Times,serif" font-size="14.00">SharedModule</text>
</g>
<!-- SharedModule&#45;&gt;EditionIntroModule -->
<g id="edge3" class="edge">
<title>SharedModule&#45;&gt;EditionIntroModule</title>
<path fill="none" stroke="black" d="M247,-122.11C247,-122.11 247,-140.99 247,-140.99"/>
<polygon fill="black" stroke="black" points="243.5,-140.99 247,-150.99 250.5,-140.99 243.5,-140.99"/>
</g>
</g>
</svg>
