<?xml version="1.0" encoding="UTF-8" standalone="no"?>
<!DOCTYPE svg PUBLIC "-//W3C//DTD SVG 1.1//EN"
 "http://www.w3.org/Graphics/SVG/1.1/DTD/svg11.dtd">
<!-- Generated by graphviz version 2.47.3 (20210619.1520)
 -->
<!-- Title: dependencies Pages: 1 -->
<svg width="520pt" height="174pt"
 viewBox="0.00 0.00 520.00 173.80" xmlns="http://www.w3.org/2000/svg" xmlns:xlink="http://www.w3.org/1999/xlink">
<g id="graph0" class="graph" transform="scale(1 1) rotate(0) translate(4 169.8)">
<title>dependencies</title>
<polygon fill="white" stroke="transparent" points="-4,4 -4,-169.8 516,-169.8 516,4 -4,4"/>
<text text-anchor="middle" x="256" y="-8.2" font-family="sans-serif" font-size="14.00">dependencies</text>
<g id="clust1" class="cluster">
<title>cluster_EditionIntroModule</title>
<polygon fill="none" stroke="black" stroke-dasharray="1,5" points="8,-32.8 8,-157.8 504,-157.8 504,-32.8 8,-32.8"/>
</g>
<g id="clust4" class="cluster">
<title>cluster_EditionIntroModule_imports</title>
<polygon fill="none" stroke="black" points="190,-40.8 190,-92.8 496,-92.8 496,-40.8 190,-40.8"/>
</g>
<g id="clust2" class="cluster">
<title>cluster_EditionIntroModule_declarations</title>
<polygon fill="none" stroke="black" points="16,-40.8 16,-92.8 182,-92.8 182,-40.8 16,-40.8"/>
</g>
<!-- EditionIntroComponent -->
<g id="node1" class="node">
<title>EditionIntroComponent</title>
<polygon fill="#ffffb3" stroke="black" points="173.77,-84.8 24.23,-84.8 24.23,-48.8 173.77,-48.8 173.77,-84.8"/>
<text text-anchor="middle" x="99" y="-62.6" font-family="Times,serif" font-size="14.00">EditionIntroComponent</text>
</g>
<!-- EditionIntroModule -->
<g id="node2" class="node">
<title>EditionIntroModule</title>
<polygon fill="#8dd3c7" stroke="black" points="310.99,-149.8 307.99,-153.8 286.99,-153.8 283.99,-149.8 183.01,-149.8 183.01,-113.8 310.99,-113.8 310.99,-149.8"/>
<text text-anchor="middle" x="247" y="-127.6" font-family="Times,serif" font-size="14.00">EditionIntroModule</text>
</g>
<!-- EditionIntroComponent&#45;&gt;EditionIntroModule -->
<g id="edge1" class="edge">
<title>EditionIntroComponent&#45;&gt;EditionIntroModule</title>
<path fill="none" stroke="black" d="M174.06,-66.8C183.76,-66.8 190.4,-66.8 190.4,-66.8 190.4,-66.8 190.4,-103.69 190.4,-103.69"/>
<polygon fill="black" stroke="black" points="186.9,-103.69 190.4,-113.69 193.9,-103.69 186.9,-103.69"/>
</g>
<!-- EditionIntroRoutingModule -->
<g id="node3" class="node">
<title>EditionIntroRoutingModule</title>
<polygon fill="#8dd3c7" stroke="black" points="487.6,-84.8 484.6,-88.8 463.6,-88.8 460.6,-84.8 314.4,-84.8 314.4,-48.8 487.6,-48.8 487.6,-84.8"/>
<text text-anchor="middle" x="401" y="-62.6" font-family="Times,serif" font-size="14.00">EditionIntroRoutingModule</text>
</g>
<!-- EditionIntroRoutingModule&#45;&gt;EditionIntroModule -->
<g id="edge2" class="edge">
<title>EditionIntroRoutingModule&#45;&gt;EditionIntroModule</title>
<path fill="none" stroke="black" d="M314.4,-66.8C307.78,-66.8 303.6,-66.8 303.6,-66.8 303.6,-66.8 303.6,-103.69 303.6,-103.69"/>
<polygon fill="black" stroke="black" points="300.1,-103.69 303.6,-113.69 307.1,-103.69 300.1,-103.69"/>
</g>
<!-- SharedModule -->
<g id="node4" class="node">
<title>SharedModule</title>
<polygon fill="#8dd3c7" stroke="black" points="296.42,-84.8 293.42,-88.8 272.42,-88.8 269.42,-84.8 197.58,-84.8 197.58,-48.8 296.42,-48.8 296.42,-84.8"/>
<text text-anchor="middle" x="247" y="-62.6" font-family="Times,serif" font-size="14.00">SharedModule</text>
</g>
<!-- SharedModule&#45;&gt;EditionIntroModule -->
<g id="edge3" class="edge">
<title>SharedModule&#45;&gt;EditionIntroModule</title>
<path fill="none" stroke="black" d="M247,-84.91C247,-84.91 247,-103.79 247,-103.79"/>
<polygon fill="black" stroke="black" points="243.5,-103.79 247,-113.79 250.5,-103.79 243.5,-103.79"/>
</g>
</g>
</svg>
