<?xml version="1.0" encoding="UTF-8" standalone="no"?>
<!DOCTYPE svg PUBLIC "-//W3C//DTD SVG 1.1//EN"
 "http://www.w3.org/Graphics/SVG/1.1/DTD/svg11.dtd">
<!-- Generated by graphviz version 2.40.1 (20161225.0304)
 -->
<!-- Title: dependencies Pages: 1 -->
<svg width="520pt" height="211pt"
 viewBox="0.00 0.00 520.00 211.00" xmlns="http://www.w3.org/2000/svg" xmlns:xlink="http://www.w3.org/1999/xlink">
<g id="graph0" class="graph" transform="scale(1 1) rotate(0) translate(4 207)">
<title>dependencies</title>
<polygon fill="#ffffff" stroke="transparent" points="-4,4 -4,-207 516,-207 516,4 -4,4"/>
<text text-anchor="start" x="235.0091" y="-42.4" font-family="sans-serif" font-weight="bold" font-size="14.00" fill="#000000">Legend</text>
<polygon fill="#ffffb3" stroke="transparent" points="22,-10 22,-30 42,-30 42,-10 22,-10"/>
<text text-anchor="start" x="45.629" y="-15.4" font-family="sans-serif" font-size="14.00" fill="#000000"> &#160;Declarations</text>
<polygon fill="#8dd3c7" stroke="transparent" points="135,-10 135,-30 155,-30 155,-10 135,-10"/>
<text text-anchor="start" x="158.7251" y="-15.4" font-family="sans-serif" font-size="14.00" fill="#000000"> &#160;Module</text>
<polygon fill="#80b1d3" stroke="transparent" points="221,-10 221,-30 241,-30 241,-10 221,-10"/>
<text text-anchor="start" x="244.7812" y="-15.4" font-family="sans-serif" font-size="14.00" fill="#000000"> &#160;Bootstrap</text>
<polygon fill="#fdb462" stroke="transparent" points="318,-10 318,-30 338,-30 338,-10 318,-10"/>
<text text-anchor="start" x="341.6732" y="-15.4" font-family="sans-serif" font-size="14.00" fill="#000000"> &#160;Providers</text>
<polygon fill="#fb8072" stroke="transparent" points="414,-10 414,-30 434,-30 434,-10 414,-10"/>
<text text-anchor="start" x="437.7258" y="-15.4" font-family="sans-serif" font-size="14.00" fill="#000000"> &#160;Exports</text>
<g id="clust1" class="cluster">
<title>cluster_EditionIntroModule</title>
<polygon fill="none" stroke="#000000" stroke-dasharray="1,5" points="8,-70 8,-195 504,-195 504,-70 8,-70"/>
</g>
<g id="clust2" class="cluster">
<title>cluster_EditionIntroModule_declarations</title>
<polygon fill="none" stroke="#000000" points="330,-78 330,-130 496,-130 496,-78 330,-78"/>
</g>
<g id="clust4" class="cluster">
<title>cluster_EditionIntroModule_imports</title>
<polygon fill="none" stroke="#000000" points="16,-78 16,-130 322,-130 322,-78 16,-78"/>
</g>
<!-- EditionIntroComponent -->
<g id="node1" class="node">
<title>EditionIntroComponent</title>
<polygon fill="#ffffb3" stroke="#000000" points="487.7688,-122 338.2312,-122 338.2312,-86 487.7688,-86 487.7688,-122"/>
<text text-anchor="middle" x="413" y="-99.8" font-family="Times,serif" font-size="14.00" fill="#000000">EditionIntroComponent</text>
</g>
<!-- EditionIntroModule -->
<g id="node2" class="node">
<title>EditionIntroModule</title>
<polygon fill="#8dd3c7" stroke="#000000" points="290.986,-187 287.986,-191 266.986,-191 263.986,-187 163.014,-187 163.014,-151 290.986,-151 290.986,-187"/>
<text text-anchor="middle" x="227" y="-164.8" font-family="Times,serif" font-size="14.00" fill="#000000">EditionIntroModule</text>
</g>
<!-- EditionIntroComponent&#45;&gt;EditionIntroModule -->
<g id="edge1" class="edge">
<title>EditionIntroComponent&#45;&gt;EditionIntroModule</title>
<path fill="none" stroke="#000000" d="M413,-122.1061C413,-141.3391 413,-169 413,-169 413,-169 301.0106,-169 301.0106,-169"/>
<polygon fill="#000000" stroke="#000000" points="301.0107,-165.5001 291.0106,-169 301.0106,-172.5001 301.0107,-165.5001"/>
</g>
<!-- EditionIntroRoutingModule -->
<g id="node3" class="node">
<title>EditionIntroRoutingModule</title>
<polygon fill="#8dd3c7" stroke="#000000" points="313.6038,-122 310.6038,-126 289.6038,-126 286.6038,-122 140.3962,-122 140.3962,-86 313.6038,-86 313.6038,-122"/>
<text text-anchor="middle" x="227" y="-99.8" font-family="Times,serif" font-size="14.00" fill="#000000">EditionIntroRoutingModule</text>
</g>
<!-- EditionIntroRoutingModule&#45;&gt;EditionIntroModule -->
<g id="edge2" class="edge">
<title>EditionIntroRoutingModule&#45;&gt;EditionIntroModule</title>
<path fill="none" stroke="#000000" d="M227,-122.1061C227,-122.1061 227,-140.991 227,-140.991"/>
<polygon fill="#000000" stroke="#000000" points="223.5001,-140.9909 227,-150.991 230.5001,-140.991 223.5001,-140.9909"/>
</g>
<!-- SharedModule -->
<g id="node4" class="node">
<title>SharedModule</title>
<polygon fill="#8dd3c7" stroke="#000000" points="122.4231,-122 119.4231,-126 98.4231,-126 95.4231,-122 23.5769,-122 23.5769,-86 122.4231,-86 122.4231,-122"/>
<text text-anchor="middle" x="73" y="-99.8" font-family="Times,serif" font-size="14.00" fill="#000000">SharedModule</text>
</g>
<!-- SharedModule&#45;&gt;EditionIntroModule -->
<g id="edge3" class="edge">
<title>SharedModule&#45;&gt;EditionIntroModule</title>
<path fill="none" stroke="#000000" d="M73,-122.1061C73,-141.3391 73,-169 73,-169 73,-169 152.5824,-169 152.5824,-169"/>
<polygon fill="#000000" stroke="#000000" points="152.5825,-172.5001 162.5824,-169 152.5824,-165.5001 152.5825,-172.5001"/>
</g>
</g>
</svg>
