<?xml version="1.0" encoding="UTF-8" standalone="no"?>
<!DOCTYPE svg PUBLIC "-//W3C//DTD SVG 1.1//EN"
 "http://www.w3.org/Graphics/SVG/1.1/DTD/svg11.dtd">
<!-- Generated by graphviz version 5.0.0 (20220707.1540)
 -->
<!-- Title: dependencies Pages: 1 -->
<svg width="520pt" height="174pt"
 viewBox="0.00 0.00 520.00 173.80" xmlns="http://www.w3.org/2000/svg" xmlns:xlink="http://www.w3.org/1999/xlink">
<g id="graph0" class="graph" transform="scale(1 1) rotate(0) translate(4 169.8)">
<title>dependencies</title>
<polygon fill="white" stroke="transparent" points="-4,4 -4,-169.8 516,-169.8 516,4 -4,4"/>
<text text-anchor="middle" x="256" y="-8.2" font-family="sans-serif" font-size="14.00">dependencies</text>
<g id="clust1" class="cluster">
<title>cluster_EditionIntroModule</title>
<polygon fill="none" stroke="black" stroke-dasharray="1,5" points="8,-32.8 8,-157.8 504,-157.8 504,-32.8 8,-32.8"/>
</g>
<g id="clust2" class="cluster">
<title>cluster_EditionIntroModule_declarations</title>
<polygon fill="none" stroke="black" points="330,-40.8 330,-92.8 496,-92.8 496,-40.8 330,-40.8"/>
</g>
<g id="clust4" class="cluster">
<title>cluster_EditionIntroModule_imports</title>
<polygon fill="none" stroke="black" points="16,-40.8 16,-92.8 322,-92.8 322,-40.8 16,-40.8"/>
</g>
<!-- EditionIntroComponent -->
<g id="node1" class="node">
<title>EditionIntroComponent</title>
<polygon fill="#ffffb3" stroke="black" points="487.77,-84.8 338.23,-84.8 338.23,-48.8 487.77,-48.8 487.77,-84.8"/>
<text text-anchor="middle" x="413" y="-62.6" font-family="Times,serif" font-size="14.00">EditionIntroComponent</text>
</g>
<!-- EditionIntroModule -->
<g id="node2" class="node">
<title>EditionIntroModule</title>
<polygon fill="#8dd3c7" stroke="black" points="290.99,-149.8 287.99,-153.8 266.99,-153.8 263.99,-149.8 163.01,-149.8 163.01,-113.8 290.99,-113.8 290.99,-149.8"/>
<text text-anchor="middle" x="227" y="-127.6" font-family="Times,serif" font-size="14.00">EditionIntroModule</text>
</g>
<!-- EditionIntroComponent&#45;&gt;EditionIntroModule -->
<g id="edge1" class="edge">
<title>EditionIntroComponent&#45;&gt;EditionIntroModule</title>
<path fill="none" stroke="black" d="M413,-84.91C413,-104.14 413,-131.8 413,-131.8 413,-131.8 301.01,-131.8 301.01,-131.8"/>
<polygon fill="black" stroke="black" points="301.01,-128.3 291.01,-131.8 301.01,-135.3 301.01,-128.3"/>
</g>
<!-- EditionIntroRoutingModule -->
<g id="node3" class="node">
<title>EditionIntroRoutingModule</title>
<polygon fill="#8dd3c7" stroke="black" points="313.6,-84.8 310.6,-88.8 289.6,-88.8 286.6,-84.8 140.4,-84.8 140.4,-48.8 313.6,-48.8 313.6,-84.8"/>
<text text-anchor="middle" x="227" y="-62.6" font-family="Times,serif" font-size="14.00">EditionIntroRoutingModule</text>
</g>
<!-- EditionIntroRoutingModule&#45;&gt;EditionIntroModule -->
<g id="edge2" class="edge">
<title>EditionIntroRoutingModule&#45;&gt;EditionIntroModule</title>
<path fill="none" stroke="black" d="M227,-84.91C227,-84.91 227,-103.79 227,-103.79"/>
<polygon fill="black" stroke="black" points="223.5,-103.79 227,-113.79 230.5,-103.79 223.5,-103.79"/>
</g>
<!-- SharedModule -->
<g id="node4" class="node">
<title>SharedModule</title>
<polygon fill="#8dd3c7" stroke="black" points="122.43,-84.8 119.43,-88.8 98.43,-88.8 95.43,-84.8 23.57,-84.8 23.57,-48.8 122.43,-48.8 122.43,-84.8"/>
<text text-anchor="middle" x="73" y="-62.6" font-family="Times,serif" font-size="14.00">SharedModule</text>
</g>
<!-- SharedModule&#45;&gt;EditionIntroModule -->
<g id="edge3" class="edge">
<title>SharedModule&#45;&gt;EditionIntroModule</title>
<path fill="none" stroke="black" d="M73,-84.91C73,-104.14 73,-131.8 73,-131.8 73,-131.8 152.58,-131.8 152.58,-131.8"/>
<polygon fill="black" stroke="black" points="152.58,-135.3 162.58,-131.8 152.58,-128.3 152.58,-135.3"/>
</g>
</g>
</svg>
