<?xml version="1.0" encoding="UTF-8" standalone="no"?>
<!DOCTYPE svg PUBLIC "-//W3C//DTD SVG 1.1//EN"
 "http://www.w3.org/Graphics/SVG/1.1/DTD/svg11.dtd">
<!-- Generated by graphviz version 2.47.0 (20210316.0004)
 -->
<!-- Title: dependencies Pages: 1 -->
<svg width="520pt" height="211pt"
 viewBox="0.00 0.00 520.00 211.00" xmlns="http://www.w3.org/2000/svg" xmlns:xlink="http://www.w3.org/1999/xlink">
<g id="graph0" class="graph" transform="scale(1 1) rotate(0) translate(4 207)">
<title>dependencies</title>
<polygon fill="white" stroke="transparent" points="-4,4 -4,-207 516,-207 516,4 -4,4"/>
<text text-anchor="start" x="235.01" y="-42.4" font-family="Times-12" font-weight="bold" font-size="14.00">Legend</text>
<polygon fill="#ffffb3" stroke="transparent" points="22,-10 22,-30 42,-30 42,-10 22,-10"/>
<text text-anchor="start" x="45.63" y="-15.4" font-family="Times-12" font-size="14.00"> &#160;Declarations</text>
<polygon fill="#8dd3c7" stroke="transparent" points="135,-10 135,-30 155,-30 155,-10 135,-10"/>
<text text-anchor="start" x="158.73" y="-15.4" font-family="Times-12" font-size="14.00"> &#160;Module</text>
<polygon fill="#80b1d3" stroke="transparent" points="221,-10 221,-30 241,-30 241,-10 221,-10"/>
<text text-anchor="start" x="244.78" y="-15.4" font-family="Times-12" font-size="14.00"> &#160;Bootstrap</text>
<polygon fill="#fdb462" stroke="transparent" points="318,-10 318,-30 338,-30 338,-10 318,-10"/>
<text text-anchor="start" x="341.67" y="-15.4" font-family="Times-12" font-size="14.00"> &#160;Providers</text>
<polygon fill="#fb8072" stroke="transparent" points="414,-10 414,-30 434,-30 434,-10 414,-10"/>
<text text-anchor="start" x="437.73" y="-15.4" font-family="Times-12" font-size="14.00"> &#160;Exports</text>
<g id="clust1" class="cluster">
<title>cluster_EditionIntroModule</title>
<polygon fill="none" stroke="black" stroke-dasharray="1,5" points="8,-70 8,-195 504,-195 504,-70 8,-70"/>
</g>
<g id="clust2" class="cluster">
<title>cluster_EditionIntroModule_declarations</title>
<polygon fill="none" stroke="black" points="330,-78 330,-130 496,-130 496,-78 330,-78"/>
</g>
<g id="clust4" class="cluster">
<title>cluster_EditionIntroModule_imports</title>
<polygon fill="none" stroke="black" points="16,-78 16,-130 322,-130 322,-78 16,-78"/>
</g>
<!-- EditionIntroComponent -->
<g id="node1" class="node">
<title>EditionIntroComponent</title>
<polygon fill="#ffffb3" stroke="black" points="487.77,-122 338.23,-122 338.23,-86 487.77,-86 487.77,-122"/>
<text text-anchor="middle" x="413" y="-99.8" font-family="Times,serif" font-size="14.00">EditionIntroComponent</text>
</g>
<!-- EditionIntroModule -->
<g id="node2" class="node">
<title>EditionIntroModule</title>
<polygon fill="#8dd3c7" stroke="black" points="290.99,-187 287.99,-191 266.99,-191 263.99,-187 163.01,-187 163.01,-151 290.99,-151 290.99,-187"/>
<text text-anchor="middle" x="227" y="-164.8" font-family="Times,serif" font-size="14.00">EditionIntroModule</text>
</g>
<!-- EditionIntroComponent&#45;&gt;EditionIntroModule -->
<g id="edge1" class="edge">
<title>EditionIntroComponent&#45;&gt;EditionIntroModule</title>
<path fill="none" stroke="black" d="M413,-122.11C413,-141.34 413,-169 413,-169 413,-169 301.01,-169 301.01,-169"/>
<polygon fill="black" stroke="black" points="301.01,-165.5 291.01,-169 301.01,-172.5 301.01,-165.5"/>
</g>
<!-- EditionIntroRoutingModule -->
<g id="node3" class="node">
<title>EditionIntroRoutingModule</title>
<polygon fill="#8dd3c7" stroke="black" points="313.6,-122 310.6,-126 289.6,-126 286.6,-122 140.4,-122 140.4,-86 313.6,-86 313.6,-122"/>
<text text-anchor="middle" x="227" y="-99.8" font-family="Times,serif" font-size="14.00">EditionIntroRoutingModule</text>
</g>
<!-- EditionIntroRoutingModule&#45;&gt;EditionIntroModule -->
<g id="edge2" class="edge">
<title>EditionIntroRoutingModule&#45;&gt;EditionIntroModule</title>
<path fill="none" stroke="black" d="M227,-122.11C227,-122.11 227,-140.99 227,-140.99"/>
<polygon fill="black" stroke="black" points="223.5,-140.99 227,-150.99 230.5,-140.99 223.5,-140.99"/>
</g>
<!-- SharedModule -->
<g id="node4" class="node">
<title>SharedModule</title>
<polygon fill="#8dd3c7" stroke="black" points="122.42,-122 119.42,-126 98.42,-126 95.42,-122 23.58,-122 23.58,-86 122.42,-86 122.42,-122"/>
<text text-anchor="middle" x="73" y="-99.8" font-family="Times,serif" font-size="14.00">SharedModule</text>
</g>
<!-- SharedModule&#45;&gt;EditionIntroModule -->
<g id="edge3" class="edge">
<title>SharedModule&#45;&gt;EditionIntroModule</title>
<path fill="none" stroke="black" d="M73,-122.11C73,-141.34 73,-169 73,-169 73,-169 152.58,-169 152.58,-169"/>
<polygon fill="black" stroke="black" points="152.58,-172.5 162.58,-169 152.58,-165.5 152.58,-172.5"/>
</g>
</g>
</svg>
