<?xml version="1.0" encoding="UTF-8" standalone="no"?>
<!DOCTYPE svg PUBLIC "-//W3C//DTD SVG 1.1//EN"
 "http://www.w3.org/Graphics/SVG/1.1/DTD/svg11.dtd">
<!-- Generated by graphviz version 2.40.1 (20161225.0304)
 -->
<!-- Title: dependencies Pages: 1 -->
<svg width="1242pt" height="284pt"
 viewBox="0.00 0.00 1242.00 284.00" xmlns="http://www.w3.org/2000/svg" xmlns:xlink="http://www.w3.org/1999/xlink">
<g id="graph0" class="graph" transform="scale(1 1) rotate(0) translate(4 280)">
<title>dependencies</title>
<polygon fill="#ffffff" stroke="transparent" points="-4,4 -4,-280 1238,-280 1238,4 -4,4"/>
<text text-anchor="start" x="596.0091" y="-42.4" font-family="sans-serif" font-weight="bold" font-size="14.00" fill="#000000">Legend</text>
<polygon fill="#ffffb3" stroke="transparent" points="383,-10 383,-30 403,-30 403,-10 383,-10"/>
<text text-anchor="start" x="406.629" y="-15.4" font-family="sans-serif" font-size="14.00" fill="#000000"> &#160;Declarations</text>
<polygon fill="#8dd3c7" stroke="transparent" points="496,-10 496,-30 516,-30 516,-10 496,-10"/>
<text text-anchor="start" x="519.7251" y="-15.4" font-family="sans-serif" font-size="14.00" fill="#000000"> &#160;Module</text>
<polygon fill="#80b1d3" stroke="transparent" points="582,-10 582,-30 602,-30 602,-10 582,-10"/>
<text text-anchor="start" x="605.7812" y="-15.4" font-family="sans-serif" font-size="14.00" fill="#000000"> &#160;Bootstrap</text>
<polygon fill="#fdb462" stroke="transparent" points="679,-10 679,-30 699,-30 699,-10 679,-10"/>
<text text-anchor="start" x="702.6732" y="-15.4" font-family="sans-serif" font-size="14.00" fill="#000000"> &#160;Providers</text>
<polygon fill="#fb8072" stroke="transparent" points="775,-10 775,-30 795,-30 795,-10 775,-10"/>
<text text-anchor="start" x="798.7258" y="-15.4" font-family="sans-serif" font-size="14.00" fill="#000000"> &#160;Exports</text>
<g id="clust1" class="cluster">
<title>cluster_EditionDetailModule</title>
<polygon fill="none" stroke="#000000" stroke-dasharray="1,5" points="8,-70 8,-268 1226,-268 1226,-70 8,-70"/>
</g>
<g id="clust2" class="cluster">
<title>cluster_EditionDetailModule_declarations</title>
<polygon fill="none" stroke="#000000" points="418,-78 418,-130 1218,-130 1218,-78 418,-78"/>
</g>
<g id="clust7" class="cluster">
<title>cluster_EditionDetailModule_imports</title>
<polygon fill="none" stroke="#000000" points="16,-78 16,-130 410,-130 410,-78 16,-78"/>
</g>
<g id="clust8" class="cluster">
<title>cluster_EditionDetailModule_exports</title>
<polygon fill="none" stroke="#000000" points="112,-208 112,-260 927,-260 927,-208 112,-208"/>
</g>
<!-- EditionAccoladeComponent -->
<g id="node1" class="node">
<title>EditionAccoladeComponent</title>
<polygon fill="#ffffb3" stroke="#000000" points="1209.9129,-122 1034.0871,-122 1034.0871,-86 1209.9129,-86 1209.9129,-122"/>
<text text-anchor="middle" x="1122" y="-99.8" font-family="Times,serif" font-size="14.00" fill="#000000">EditionAccoladeComponent</text>
</g>
<!-- EditionDetailModule -->
<g id="node5" class="node">
<title>EditionDetailModule</title>
<polygon fill="#8dd3c7" stroke="#000000" points="592.4818,-187 589.4818,-191 568.4818,-191 565.4818,-187 457.5182,-187 457.5182,-151 592.4818,-151 592.4818,-187"/>
<text text-anchor="middle" x="525" y="-164.8" font-family="Times,serif" font-size="14.00" fill="#000000">EditionDetailModule</text>
</g>
<!-- EditionAccoladeComponent&#45;&gt;EditionDetailModule -->
<g id="edge1" class="edge">
<title>EditionAccoladeComponent&#45;&gt;EditionDetailModule</title>
<path fill="none" stroke="#000000" d="M1122,-122.1289C1122,-142.5724 1122,-173 1122,-173 1122,-173 602.6124,-173 602.6124,-173"/>
<polygon fill="#000000" stroke="#000000" points="602.6124,-169.5001 592.6124,-173 602.6123,-176.5001 602.6124,-169.5001"/>
</g>
<!-- EditionConvoluteComponent -->
<g id="node2" class="node">
<title>EditionConvoluteComponent</title>
<polygon fill="#ffffb3" stroke="#000000" points="1016.3892,-122 835.6108,-122 835.6108,-86 1016.3892,-86 1016.3892,-122"/>
<text text-anchor="middle" x="926" y="-99.8" font-family="Times,serif" font-size="14.00" fill="#000000">EditionConvoluteComponent</text>
</g>
<!-- EditionConvoluteComponent&#45;&gt;EditionDetailModule -->
<g id="edge2" class="edge">
<title>EditionConvoluteComponent&#45;&gt;EditionDetailModule</title>
<path fill="none" stroke="#000000" d="M877.5058,-122.2667C877.5058,-140.5552 877.5058,-166 877.5058,-166 877.5058,-166 602.5496,-166 602.5496,-166"/>
<polygon fill="#000000" stroke="#000000" points="602.5496,-162.5001 592.5496,-166 602.5495,-169.5001 602.5496,-162.5001"/>
</g>
<!-- EditionSvgSheetComponent -->
<g id="node3" class="node">
<title>EditionSvgSheetComponent</title>
<polygon fill="#ffffb3" stroke="#000000" points="817.9424,-122 642.0576,-122 642.0576,-86 817.9424,-86 817.9424,-122"/>
<text text-anchor="middle" x="730" y="-99.8" font-family="Times,serif" font-size="14.00" fill="#000000">EditionSvgSheetComponent</text>
</g>
<!-- EditionSvgSheetComponent&#45;&gt;EditionDetailModule -->
<g id="edge3" class="edge">
<title>EditionSvgSheetComponent&#45;&gt;EditionDetailModule</title>
<path fill="none" stroke="#000000" d="M682.2369,-122.0091C682.2369,-138.0494 682.2369,-159 682.2369,-159 682.2369,-159 602.5951,-159 602.5951,-159"/>
<polygon fill="#000000" stroke="#000000" points="602.5951,-155.5001 592.5951,-159 602.5951,-162.5001 602.5951,-155.5001"/>
</g>
<!-- EditionSvgSheetNavComponent -->
<g id="node4" class="node">
<title>EditionSvgSheetNavComponent</title>
<polygon fill="#ffffb3" stroke="#000000" points="624.2631,-122 425.7369,-122 425.7369,-86 624.2631,-86 624.2631,-122"/>
<text text-anchor="middle" x="525" y="-99.8" font-family="Times,serif" font-size="14.00" fill="#000000">EditionSvgSheetNavComponent</text>
</g>
<!-- EditionSvgSheetNavComponent&#45;&gt;EditionDetailModule -->
<g id="edge4" class="edge">
<title>EditionSvgSheetNavComponent&#45;&gt;EditionDetailModule</title>
<path fill="none" stroke="#000000" d="M525,-122.1061C525,-122.1061 525,-140.991 525,-140.991"/>
<polygon fill="#000000" stroke="#000000" points="521.5001,-140.9909 525,-150.991 528.5001,-140.991 521.5001,-140.9909"/>
</g>
<!-- EditionAccoladeComponent  -->
<g id="node9" class="node">
<title>EditionAccoladeComponent </title>
<polygon fill="#fb8072" stroke="#000000" points="919.4124,-252 740.5876,-252 740.5876,-216 919.4124,-216 919.4124,-252"/>
<text text-anchor="middle" x="830" y="-229.8" font-family="Times,serif" font-size="14.00" fill="#000000">EditionAccoladeComponent </text>
</g>
<!-- EditionDetailModule&#45;&gt;EditionAccoladeComponent  -->
<g id="edge8" class="edge">
<title>EditionDetailModule&#45;&gt;EditionAccoladeComponent </title>
<path fill="none" stroke="#000000" stroke-dasharray="5,2" d="M592.769,-180C668.052,-180 779.1324,-180 779.1324,-180 779.1324,-180 779.1324,-205.7181 779.1324,-205.7181"/>
<polygon fill="#000000" stroke="#000000" points="775.6324,-205.718 779.1324,-215.7181 782.6324,-205.7181 775.6324,-205.718"/>
</g>
<!-- EditionConvoluteComponent  -->
<g id="node10" class="node">
<title>EditionConvoluteComponent </title>
<polygon fill="#fb8072" stroke="#000000" points="722.3896,-252 537.6104,-252 537.6104,-216 722.3896,-216 722.3896,-252"/>
<text text-anchor="middle" x="630" y="-229.8" font-family="Times,serif" font-size="14.00" fill="#000000">EditionConvoluteComponent </text>
</g>
<!-- EditionDetailModule&#45;&gt;EditionConvoluteComponent  -->
<g id="edge9" class="edge">
<title>EditionDetailModule&#45;&gt;EditionConvoluteComponent </title>
<path fill="none" stroke="#000000" stroke-dasharray="5,2" d="M565.1482,-187.1061C565.1482,-187.1061 565.1482,-205.991 565.1482,-205.991"/>
<polygon fill="#000000" stroke="#000000" points="561.6482,-205.9909 565.1482,-215.991 568.6482,-205.991 561.6482,-205.9909"/>
</g>
<!-- EditionSvgSheetComponent  -->
<g id="node11" class="node">
<title>EditionSvgSheetComponent </title>
<polygon fill="#fb8072" stroke="#000000" points="519.4418,-252 340.5582,-252 340.5582,-216 519.4418,-216 519.4418,-252"/>
<text text-anchor="middle" x="430" y="-229.8" font-family="Times,serif" font-size="14.00" fill="#000000">EditionSvgSheetComponent </text>
</g>
<!-- EditionDetailModule&#45;&gt;EditionSvgSheetComponent  -->
<g id="edge10" class="edge">
<title>EditionDetailModule&#45;&gt;EditionSvgSheetComponent </title>
<path fill="none" stroke="#000000" stroke-dasharray="5,2" d="M488.49,-187.1061C488.49,-187.1061 488.49,-205.991 488.49,-205.991"/>
<polygon fill="#000000" stroke="#000000" points="484.9901,-205.9909 488.49,-215.991 491.9901,-205.991 484.9901,-205.9909"/>
</g>
<!-- EditionSvgSheetNavComponent  -->
<g id="node12" class="node">
<title>EditionSvgSheetNavComponent </title>
<polygon fill="#fb8072" stroke="#000000" points="322.2632,-252 119.7368,-252 119.7368,-216 322.2632,-216 322.2632,-252"/>
<text text-anchor="middle" x="221" y="-229.8" font-family="Times,serif" font-size="14.00" fill="#000000">EditionSvgSheetNavComponent </text>
</g>
<!-- EditionDetailModule&#45;&gt;EditionSvgSheetNavComponent  -->
<g id="edge11" class="edge">
<title>EditionDetailModule&#45;&gt;EditionSvgSheetNavComponent </title>
<path fill="none" stroke="#000000" stroke-dasharray="5,2" d="M457.4973,-180C386.5002,-180 284.9623,-180 284.9623,-180 284.9623,-180 284.9623,-205.7181 284.9623,-205.7181"/>
<polygon fill="#000000" stroke="#000000" points="281.4624,-205.718 284.9623,-215.7181 288.4624,-205.7181 281.4624,-205.718"/>
</g>
<!-- EditionTkaTableModule -->
<g id="node6" class="node">
<title>EditionTkaTableModule</title>
<polygon fill="#8dd3c7" stroke="#000000" points="402.4144,-122 399.4144,-126 378.4144,-126 375.4144,-122 247.5856,-122 247.5856,-86 402.4144,-86 402.4144,-122"/>
<text text-anchor="middle" x="325" y="-99.8" font-family="Times,serif" font-size="14.00" fill="#000000">EditionTkaTableModule</text>
</g>
<!-- EditionTkaTableModule&#45;&gt;EditionDetailModule -->
<g id="edge5" class="edge">
<title>EditionTkaTableModule&#45;&gt;EditionDetailModule</title>
<path fill="none" stroke="#000000" d="M371.368,-122.0091C371.368,-138.0494 371.368,-159 371.368,-159 371.368,-159 447.1676,-159 447.1676,-159"/>
<polygon fill="#000000" stroke="#000000" points="447.1676,-162.5001 457.1676,-159 447.1675,-155.5001 447.1676,-162.5001"/>
</g>
<!-- FolioModule -->
<g id="node7" class="node">
<title>FolioModule</title>
<polygon fill="#8dd3c7" stroke="#000000" points="229.6137,-122 226.6137,-126 205.6137,-126 202.6137,-122 140.3863,-122 140.3863,-86 229.6137,-86 229.6137,-122"/>
<text text-anchor="middle" x="185" y="-99.8" font-family="Times,serif" font-size="14.00" fill="#000000">FolioModule</text>
</g>
<!-- FolioModule&#45;&gt;EditionDetailModule -->
<g id="edge6" class="edge">
<title>FolioModule&#45;&gt;EditionDetailModule</title>
<path fill="none" stroke="#000000" d="M185,-122.2667C185,-140.5552 185,-166 185,-166 185,-166 447.4204,-166 447.4204,-166"/>
<polygon fill="#000000" stroke="#000000" points="447.4205,-169.5001 457.4204,-166 447.4204,-162.5001 447.4205,-169.5001"/>
</g>
<!-- SharedModule -->
<g id="node8" class="node">
<title>SharedModule</title>
<polygon fill="#8dd3c7" stroke="#000000" points="122.4231,-122 119.4231,-126 98.4231,-126 95.4231,-122 23.5769,-122 23.5769,-86 122.4231,-86 122.4231,-122"/>
<text text-anchor="middle" x="73" y="-99.8" font-family="Times,serif" font-size="14.00" fill="#000000">SharedModule</text>
</g>
<!-- SharedModule&#45;&gt;EditionDetailModule -->
<g id="edge7" class="edge">
<title>SharedModule&#45;&gt;EditionDetailModule</title>
<path fill="none" stroke="#000000" d="M71.8287,-122.1289C71.8287,-142.5724 71.8287,-173 71.8287,-173 71.8287,-173 447.1557,-173 447.1557,-173"/>
<polygon fill="#000000" stroke="#000000" points="447.1557,-176.5001 457.1557,-173 447.1556,-169.5001 447.1557,-176.5001"/>
</g>
</g>
</svg>
