<?xml version="1.0" encoding="UTF-8" standalone="no"?>
<!DOCTYPE svg PUBLIC "-//W3C//DTD SVG 1.1//EN"
 "http://www.w3.org/Graphics/SVG/1.1/DTD/svg11.dtd">
<!-- Generated by graphviz version 2.47.0 (20210316.0004)
 -->
<!-- Title: dependencies Pages: 1 -->
<svg width="1615pt" height="211pt"
 viewBox="0.00 0.00 1615.00 211.00" xmlns="http://www.w3.org/2000/svg" xmlns:xlink="http://www.w3.org/1999/xlink">
<g id="graph0" class="graph" transform="scale(1 1) rotate(0) translate(4 207)">
<title>dependencies</title>
<polygon fill="white" stroke="transparent" points="-4,4 -4,-207 1611,-207 1611,4 -4,4"/>
<text text-anchor="start" x="782.51" y="-42.4" font-family="sans-serif" font-weight="bold" font-size="14.00">Legend</text>
<polygon fill="#ffffb3" stroke="transparent" points="569.5,-10 569.5,-30 589.5,-30 589.5,-10 569.5,-10"/>
<text text-anchor="start" x="593.13" y="-15.4" font-family="sans-serif" font-size="14.00"> &#160;Declarations</text>
<polygon fill="#8dd3c7" stroke="transparent" points="682.5,-10 682.5,-30 702.5,-30 702.5,-10 682.5,-10"/>
<text text-anchor="start" x="706.23" y="-15.4" font-family="sans-serif" font-size="14.00"> &#160;Module</text>
<polygon fill="#80b1d3" stroke="transparent" points="768.5,-10 768.5,-30 788.5,-30 788.5,-10 768.5,-10"/>
<text text-anchor="start" x="792.28" y="-15.4" font-family="sans-serif" font-size="14.00"> &#160;Bootstrap</text>
<polygon fill="#fdb462" stroke="transparent" points="865.5,-10 865.5,-30 885.5,-30 885.5,-10 865.5,-10"/>
<text text-anchor="start" x="889.17" y="-15.4" font-family="sans-serif" font-size="14.00"> &#160;Providers</text>
<polygon fill="#fb8072" stroke="transparent" points="961.5,-10 961.5,-30 981.5,-30 981.5,-10 961.5,-10"/>
<text text-anchor="start" x="985.23" y="-15.4" font-family="sans-serif" font-size="14.00"> &#160;Exports</text>
<g id="clust1" class="cluster">
<title>cluster_EditionDetailModule</title>
<polygon fill="none" stroke="black" stroke-dasharray="1,5" points="8,-70 8,-195 1599,-195 1599,-70 8,-70"/>
</g>
<g id="clust2" class="cluster">
<title>cluster_EditionDetailModule_declarations</title>
<polygon fill="none" stroke="black" points="616,-78 616,-130 1591,-130 1591,-78 616,-78"/>
</g>
<g id="clust8" class="cluster">
<title>cluster_EditionDetailModule_imports</title>
<polygon fill="none" stroke="black" points="16,-78 16,-130 608,-130 608,-78 16,-78"/>
</g>
<!-- EditionAccoladeComponent -->
<g id="node1" class="node">
<title>EditionAccoladeComponent</title>
<polygon fill="#ffffb3" stroke="black" points="1582.91,-122 1407.09,-122 1407.09,-86 1582.91,-86 1582.91,-122"/>
<text text-anchor="middle" x="1495" y="-99.8" font-family="Times,serif" font-size="14.00">EditionAccoladeComponent</text>
</g>
<!-- EditionDetailModule -->
<g id="node6" class="node">
<title>EditionDetailModule</title>
<polygon fill="#8dd3c7" stroke="black" points="790.48,-187 787.48,-191 766.48,-191 763.48,-187 655.52,-187 655.52,-151 790.48,-151 790.48,-187"/>
<text text-anchor="middle" x="723" y="-164.8" font-family="Times,serif" font-size="14.00">EditionDetailModule</text>
</g>
<!-- EditionAccoladeComponent&#45;&gt;EditionDetailModule -->
<g id="edge1" class="edge">
<title>EditionAccoladeComponent&#45;&gt;EditionDetailModule</title>
<path fill="none" stroke="black" d="M1495,-122.01C1495,-144.49 1495,-180 1495,-180 1495,-180 800.5,-180 800.5,-180"/>
<polygon fill="black" stroke="black" points="800.5,-176.5 790.5,-180 800.5,-183.5 800.5,-176.5"/>
</g>
<!-- EditionConvoluteComponent -->
<g id="node2" class="node">
<title>EditionConvoluteComponent</title>
<polygon fill="#ffffb3" stroke="black" points="1389.39,-122 1208.61,-122 1208.61,-86 1389.39,-86 1389.39,-122"/>
<text text-anchor="middle" x="1299" y="-99.8" font-family="Times,serif" font-size="14.00">EditionConvoluteComponent</text>
</g>
<!-- EditionConvoluteComponent&#45;&gt;EditionDetailModule -->
<g id="edge2" class="edge">
<title>EditionConvoluteComponent&#45;&gt;EditionDetailModule</title>
<path fill="none" stroke="black" d="M1299,-122.13C1299,-142.57 1299,-173 1299,-173 1299,-173 800.48,-173 800.48,-173"/>
<polygon fill="black" stroke="black" points="800.48,-169.5 790.48,-173 800.48,-176.5 800.48,-169.5"/>
</g>
<!-- EditionDetailComponent -->
<g id="node3" class="node">
<title>EditionDetailComponent</title>
<polygon fill="#ffffb3" stroke="black" points="1190.26,-122 1033.74,-122 1033.74,-86 1190.26,-86 1190.26,-122"/>
<text text-anchor="middle" x="1112" y="-99.8" font-family="Times,serif" font-size="14.00">EditionDetailComponent</text>
</g>
<!-- EditionDetailComponent&#45;&gt;EditionDetailModule -->
<g id="edge3" class="edge">
<title>EditionDetailComponent&#45;&gt;EditionDetailModule</title>
<path fill="none" stroke="black" d="M1112,-122.27C1112,-140.56 1112,-166 1112,-166 1112,-166 800.76,-166 800.76,-166"/>
<polygon fill="black" stroke="black" points="800.76,-162.5 790.76,-166 800.76,-169.5 800.76,-162.5"/>
</g>
<!-- EditionSvgSheetComponent -->
<g id="node4" class="node">
<title>EditionSvgSheetComponent</title>
<polygon fill="#ffffb3" stroke="black" points="1015.94,-122 840.06,-122 840.06,-86 1015.94,-86 1015.94,-122"/>
<text text-anchor="middle" x="928" y="-99.8" font-family="Times,serif" font-size="14.00">EditionSvgSheetComponent</text>
</g>
<!-- EditionSvgSheetComponent&#45;&gt;EditionDetailModule -->
<g id="edge4" class="edge">
<title>EditionSvgSheetComponent&#45;&gt;EditionDetailModule</title>
<path fill="none" stroke="black" d="M928,-122.01C928,-138.05 928,-159 928,-159 928,-159 800.69,-159 800.69,-159"/>
<polygon fill="black" stroke="black" points="800.69,-155.5 790.69,-159 800.69,-162.5 800.69,-155.5"/>
</g>
<!-- EditionSvgSheetNavComponent -->
<g id="node5" class="node">
<title>EditionSvgSheetNavComponent</title>
<polygon fill="#ffffb3" stroke="black" points="822.26,-122 623.74,-122 623.74,-86 822.26,-86 822.26,-122"/>
<text text-anchor="middle" x="723" y="-99.8" font-family="Times,serif" font-size="14.00">EditionSvgSheetNavComponent</text>
</g>
<!-- EditionSvgSheetNavComponent&#45;&gt;EditionDetailModule -->
<g id="edge5" class="edge">
<title>EditionSvgSheetNavComponent&#45;&gt;EditionDetailModule</title>
<path fill="none" stroke="black" d="M723,-122.11C723,-122.11 723,-140.99 723,-140.99"/>
<polygon fill="black" stroke="black" points="719.5,-140.99 723,-150.99 726.5,-140.99 719.5,-140.99"/>
</g>
<!-- EditionDetailRoutingModule -->
<g id="node7" class="node">
<title>EditionDetailRoutingModule</title>
<polygon fill="#8dd3c7" stroke="black" points="600.1,-122 597.1,-126 576.1,-126 573.1,-122 419.9,-122 419.9,-86 600.1,-86 600.1,-122"/>
<text text-anchor="middle" x="510" y="-99.8" font-family="Times,serif" font-size="14.00">EditionDetailRoutingModule</text>
</g>
<!-- EditionDetailRoutingModule&#45;&gt;EditionDetailModule -->
<g id="edge6" class="edge">
<title>EditionDetailRoutingModule&#45;&gt;EditionDetailModule</title>
<path fill="none" stroke="black" d="M510,-122.01C510,-138.05 510,-159 510,-159 510,-159 645.31,-159 645.31,-159"/>
<polygon fill="black" stroke="black" points="645.31,-162.5 655.31,-159 645.31,-155.5 645.31,-162.5"/>
</g>
<!-- EditionTkaTableModule -->
<g id="node8" class="node">
<title>EditionTkaTableModule</title>
<polygon fill="#8dd3c7" stroke="black" points="402.41,-122 399.41,-126 378.41,-126 375.41,-122 247.59,-122 247.59,-86 402.41,-86 402.41,-122"/>
<text text-anchor="middle" x="325" y="-99.8" font-family="Times,serif" font-size="14.00">EditionTkaTableModule</text>
</g>
<!-- EditionTkaTableModule&#45;&gt;EditionDetailModule -->
<g id="edge7" class="edge">
<title>EditionTkaTableModule&#45;&gt;EditionDetailModule</title>
<path fill="none" stroke="black" d="M325,-122.27C325,-140.56 325,-166 325,-166 325,-166 645.48,-166 645.48,-166"/>
<polygon fill="black" stroke="black" points="645.48,-169.5 655.48,-166 645.48,-162.5 645.48,-169.5"/>
</g>
<!-- FolioModule -->
<g id="node9" class="node">
<title>FolioModule</title>
<polygon fill="#8dd3c7" stroke="black" points="229.61,-122 226.61,-126 205.61,-126 202.61,-122 140.39,-122 140.39,-86 229.61,-86 229.61,-122"/>
<text text-anchor="middle" x="185" y="-99.8" font-family="Times,serif" font-size="14.00">FolioModule</text>
</g>
<!-- FolioModule&#45;&gt;EditionDetailModule -->
<g id="edge8" class="edge">
<title>FolioModule&#45;&gt;EditionDetailModule</title>
<path fill="none" stroke="black" d="M185,-122.13C185,-142.57 185,-173 185,-173 185,-173 645.41,-173 645.41,-173"/>
<polygon fill="black" stroke="black" points="645.41,-176.5 655.41,-173 645.41,-169.5 645.41,-176.5"/>
</g>
<!-- SharedModule -->
<g id="node10" class="node">
<title>SharedModule</title>
<polygon fill="#8dd3c7" stroke="black" points="122.42,-122 119.42,-126 98.42,-126 95.42,-122 23.58,-122 23.58,-86 122.42,-86 122.42,-122"/>
<text text-anchor="middle" x="73" y="-99.8" font-family="Times,serif" font-size="14.00">SharedModule</text>
</g>
<!-- SharedModule&#45;&gt;EditionDetailModule -->
<g id="edge9" class="edge">
<title>SharedModule&#45;&gt;EditionDetailModule</title>
<path fill="none" stroke="black" d="M73,-122.01C73,-144.49 73,-180 73,-180 73,-180 645.28,-180 645.28,-180"/>
<polygon fill="black" stroke="black" points="645.28,-183.5 655.28,-180 645.28,-176.5 645.28,-183.5"/>
</g>
</g>
</svg>
