<?xml version="1.0" encoding="UTF-8" standalone="no"?>
<!DOCTYPE svg PUBLIC "-//W3C//DTD SVG 1.1//EN"
 "http://www.w3.org/Graphics/SVG/1.1/DTD/svg11.dtd">
<!-- Generated by graphviz version 2.40.1 (20161225.0304)
 -->
<!-- Title: dependencies Pages: 1 -->
<svg width="1615pt" height="211pt"
 viewBox="0.00 0.00 1615.00 211.00" xmlns="http://www.w3.org/2000/svg" xmlns:xlink="http://www.w3.org/1999/xlink">
<g id="graph0" class="graph" transform="scale(1 1) rotate(0) translate(4 207)">
<title>dependencies</title>
<polygon fill="#ffffff" stroke="transparent" points="-4,4 -4,-207 1611,-207 1611,4 -4,4"/>
<text text-anchor="start" x="782.5091" y="-42.4" font-family="sans-serif" font-weight="bold" font-size="14.00" fill="#000000">Legend</text>
<polygon fill="#ffffb3" stroke="transparent" points="569.5,-10 569.5,-30 589.5,-30 589.5,-10 569.5,-10"/>
<text text-anchor="start" x="593.129" y="-15.4" font-family="sans-serif" font-size="14.00" fill="#000000"> &#160;Declarations</text>
<polygon fill="#8dd3c7" stroke="transparent" points="682.5,-10 682.5,-30 702.5,-30 702.5,-10 682.5,-10"/>
<text text-anchor="start" x="706.2251" y="-15.4" font-family="sans-serif" font-size="14.00" fill="#000000"> &#160;Module</text>
<polygon fill="#80b1d3" stroke="transparent" points="768.5,-10 768.5,-30 788.5,-30 788.5,-10 768.5,-10"/>
<text text-anchor="start" x="792.2812" y="-15.4" font-family="sans-serif" font-size="14.00" fill="#000000"> &#160;Bootstrap</text>
<polygon fill="#fdb462" stroke="transparent" points="865.5,-10 865.5,-30 885.5,-30 885.5,-10 865.5,-10"/>
<text text-anchor="start" x="889.1732" y="-15.4" font-family="sans-serif" font-size="14.00" fill="#000000"> &#160;Providers</text>
<polygon fill="#fb8072" stroke="transparent" points="961.5,-10 961.5,-30 981.5,-30 981.5,-10 961.5,-10"/>
<text text-anchor="start" x="985.2258" y="-15.4" font-family="sans-serif" font-size="14.00" fill="#000000"> &#160;Exports</text>
<g id="clust1" class="cluster">
<title>cluster_EditionDetailModule</title>
<polygon fill="none" stroke="#000000" stroke-dasharray="1,5" points="8,-70 8,-195 1599,-195 1599,-70 8,-70"/>
</g>
<g id="clust2" class="cluster">
<title>cluster_EditionDetailModule_declarations</title>
<polygon fill="none" stroke="#000000" points="616,-78 616,-130 1591,-130 1591,-78 616,-78"/>
</g>
<g id="clust8" class="cluster">
<title>cluster_EditionDetailModule_imports</title>
<polygon fill="none" stroke="#000000" points="16,-78 16,-130 608,-130 608,-78 16,-78"/>
</g>
<!-- EditionAccoladeComponent -->
<g id="node1" class="node">
<title>EditionAccoladeComponent</title>
<polygon fill="#ffffb3" stroke="#000000" points="1582.9129,-122 1407.0871,-122 1407.0871,-86 1582.9129,-86 1582.9129,-122"/>
<text text-anchor="middle" x="1495" y="-99.8" font-family="Times,serif" font-size="14.00" fill="#000000">EditionAccoladeComponent</text>
</g>
<!-- EditionDetailModule -->
<g id="node6" class="node">
<title>EditionDetailModule</title>
<polygon fill="#8dd3c7" stroke="#000000" points="790.4818,-187 787.4818,-191 766.4818,-191 763.4818,-187 655.5182,-187 655.5182,-151 790.4818,-151 790.4818,-187"/>
<text text-anchor="middle" x="723" y="-164.8" font-family="Times,serif" font-size="14.00" fill="#000000">EditionDetailModule</text>
</g>
<!-- EditionAccoladeComponent&#45;&gt;EditionDetailModule -->
<g id="edge1" class="edge">
<title>EditionAccoladeComponent&#45;&gt;EditionDetailModule</title>
<path fill="none" stroke="#000000" d="M1495,-122.0109C1495,-144.4852 1495,-180 1495,-180 1495,-180 800.496,-180 800.496,-180"/>
<polygon fill="#000000" stroke="#000000" points="800.496,-176.5001 790.496,-180 800.496,-183.5001 800.496,-176.5001"/>
</g>
<!-- EditionConvoluteComponent -->
<g id="node2" class="node">
<title>EditionConvoluteComponent</title>
<polygon fill="#ffffb3" stroke="#000000" points="1389.3892,-122 1208.6108,-122 1208.6108,-86 1389.3892,-86 1389.3892,-122"/>
<text text-anchor="middle" x="1299" y="-99.8" font-family="Times,serif" font-size="14.00" fill="#000000">EditionConvoluteComponent</text>
</g>
<!-- EditionConvoluteComponent&#45;&gt;EditionDetailModule -->
<g id="edge2" class="edge">
<title>EditionConvoluteComponent&#45;&gt;EditionDetailModule</title>
<path fill="none" stroke="#000000" d="M1299,-122.1289C1299,-142.5724 1299,-173 1299,-173 1299,-173 800.4848,-173 800.4848,-173"/>
<polygon fill="#000000" stroke="#000000" points="800.4849,-169.5001 790.4848,-173 800.4848,-176.5001 800.4849,-169.5001"/>
</g>
<!-- EditionDetailComponent -->
<g id="node3" class="node">
<title>EditionDetailComponent</title>
<polygon fill="#ffffb3" stroke="#000000" points="1190.2646,-122 1033.7354,-122 1033.7354,-86 1190.2646,-86 1190.2646,-122"/>
<text text-anchor="middle" x="1112" y="-99.8" font-family="Times,serif" font-size="14.00" fill="#000000">EditionDetailComponent</text>
</g>
<!-- EditionDetailComponent&#45;&gt;EditionDetailModule -->
<g id="edge3" class="edge">
<title>EditionDetailComponent&#45;&gt;EditionDetailModule</title>
<path fill="none" stroke="#000000" d="M1112,-122.2667C1112,-140.5552 1112,-166 1112,-166 1112,-166 800.7586,-166 800.7586,-166"/>
<polygon fill="#000000" stroke="#000000" points="800.7587,-162.5001 790.7586,-166 800.7586,-169.5001 800.7587,-162.5001"/>
</g>
<!-- EditionSvgSheetComponent -->
<g id="node4" class="node">
<title>EditionSvgSheetComponent</title>
<polygon fill="#ffffb3" stroke="#000000" points="1015.9424,-122 840.0576,-122 840.0576,-86 1015.9424,-86 1015.9424,-122"/>
<text text-anchor="middle" x="928" y="-99.8" font-family="Times,serif" font-size="14.00" fill="#000000">EditionSvgSheetComponent</text>
</g>
<!-- EditionSvgSheetComponent&#45;&gt;EditionDetailModule -->
<g id="edge4" class="edge">
<title>EditionSvgSheetComponent&#45;&gt;EditionDetailModule</title>
<path fill="none" stroke="#000000" d="M928,-122.0091C928,-138.0494 928,-159 928,-159 928,-159 800.6928,-159 800.6928,-159"/>
<polygon fill="#000000" stroke="#000000" points="800.6928,-155.5001 790.6928,-159 800.6928,-162.5001 800.6928,-155.5001"/>
</g>
<!-- EditionSvgSheetNavComponent -->
<g id="node5" class="node">
<title>EditionSvgSheetNavComponent</title>
<polygon fill="#ffffb3" stroke="#000000" points="822.2631,-122 623.7369,-122 623.7369,-86 822.2631,-86 822.2631,-122"/>
<text text-anchor="middle" x="723" y="-99.8" font-family="Times,serif" font-size="14.00" fill="#000000">EditionSvgSheetNavComponent</text>
</g>
<!-- EditionSvgSheetNavComponent&#45;&gt;EditionDetailModule -->
<g id="edge5" class="edge">
<title>EditionSvgSheetNavComponent&#45;&gt;EditionDetailModule</title>
<path fill="none" stroke="#000000" d="M723,-122.1061C723,-122.1061 723,-140.991 723,-140.991"/>
<polygon fill="#000000" stroke="#000000" points="719.5001,-140.9909 723,-150.991 726.5001,-140.991 719.5001,-140.9909"/>
</g>
<!-- EditionDetailRoutingModule -->
<g id="node7" class="node">
<title>EditionDetailRoutingModule</title>
<polygon fill="#8dd3c7" stroke="#000000" points="600.0996,-122 597.0996,-126 576.0996,-126 573.0996,-122 419.9004,-122 419.9004,-86 600.0996,-86 600.0996,-122"/>
<text text-anchor="middle" x="510" y="-99.8" font-family="Times,serif" font-size="14.00" fill="#000000">EditionDetailRoutingModule</text>
</g>
<!-- EditionDetailRoutingModule&#45;&gt;EditionDetailModule -->
<g id="edge6" class="edge">
<title>EditionDetailRoutingModule&#45;&gt;EditionDetailModule</title>
<path fill="none" stroke="#000000" d="M510,-122.0091C510,-138.0494 510,-159 510,-159 510,-159 645.3128,-159 645.3128,-159"/>
<polygon fill="#000000" stroke="#000000" points="645.3128,-162.5001 655.3128,-159 645.3128,-155.5001 645.3128,-162.5001"/>
</g>
<!-- EditionTkaTableModule -->
<g id="node8" class="node">
<title>EditionTkaTableModule</title>
<polygon fill="#8dd3c7" stroke="#000000" points="402.4144,-122 399.4144,-126 378.4144,-126 375.4144,-122 247.5856,-122 247.5856,-86 402.4144,-86 402.4144,-122"/>
<text text-anchor="middle" x="325" y="-99.8" font-family="Times,serif" font-size="14.00" fill="#000000">EditionTkaTableModule</text>
</g>
<!-- EditionTkaTableModule&#45;&gt;EditionDetailModule -->
<g id="edge7" class="edge">
<title>EditionTkaTableModule&#45;&gt;EditionDetailModule</title>
<path fill="none" stroke="#000000" d="M325,-122.2667C325,-140.5552 325,-166 325,-166 325,-166 645.4847,-166 645.4847,-166"/>
<polygon fill="#000000" stroke="#000000" points="645.4848,-169.5001 655.4847,-166 645.4847,-162.5001 645.4848,-169.5001"/>
</g>
<!-- FolioModule -->
<g id="node9" class="node">
<title>FolioModule</title>
<polygon fill="#8dd3c7" stroke="#000000" points="229.6137,-122 226.6137,-126 205.6137,-126 202.6137,-122 140.3863,-122 140.3863,-86 229.6137,-86 229.6137,-122"/>
<text text-anchor="middle" x="185" y="-99.8" font-family="Times,serif" font-size="14.00" fill="#000000">FolioModule</text>
</g>
<!-- FolioModule&#45;&gt;EditionDetailModule -->
<g id="edge8" class="edge">
<title>FolioModule&#45;&gt;EditionDetailModule</title>
<path fill="none" stroke="#000000" d="M185,-122.1289C185,-142.5724 185,-173 185,-173 185,-173 645.4067,-173 645.4067,-173"/>
<polygon fill="#000000" stroke="#000000" points="645.4067,-176.5001 655.4067,-173 645.4066,-169.5001 645.4067,-176.5001"/>
</g>
<!-- SharedModule -->
<g id="node10" class="node">
<title>SharedModule</title>
<polygon fill="#8dd3c7" stroke="#000000" points="122.4231,-122 119.4231,-126 98.4231,-126 95.4231,-122 23.5769,-122 23.5769,-86 122.4231,-86 122.4231,-122"/>
<text text-anchor="middle" x="73" y="-99.8" font-family="Times,serif" font-size="14.00" fill="#000000">SharedModule</text>
</g>
<!-- SharedModule&#45;&gt;EditionDetailModule -->
<g id="edge9" class="edge">
<title>SharedModule&#45;&gt;EditionDetailModule</title>
<path fill="none" stroke="#000000" d="M73,-122.0109C73,-144.4852 73,-180 73,-180 73,-180 645.2781,-180 645.2781,-180"/>
<polygon fill="#000000" stroke="#000000" points="645.2781,-183.5001 655.2781,-180 645.278,-176.5001 645.2781,-183.5001"/>
</g>
</g>
</svg>
