<?xml version="1.0" encoding="UTF-8" standalone="no"?>
<!DOCTYPE svg PUBLIC "-//W3C//DTD SVG 1.1//EN"
 "http://www.w3.org/Graphics/SVG/1.1/DTD/svg11.dtd">
<!-- Generated by graphviz version 2.47.3 (20210619.1520)
 -->
<!-- Title: dependencies Pages: 1 -->
<svg width="1615pt" height="174pt"
 viewBox="0.00 0.00 1615.00 173.80" xmlns="http://www.w3.org/2000/svg" xmlns:xlink="http://www.w3.org/1999/xlink">
<g id="graph0" class="graph" transform="scale(1 1) rotate(0) translate(4 169.8)">
<title>dependencies</title>
<polygon fill="white" stroke="transparent" points="-4,4 -4,-169.8 1611,-169.8 1611,4 -4,4"/>
<text text-anchor="middle" x="803.5" y="-8.2" font-family="sans-serif" font-size="14.00">dependencies</text>
<g id="clust1" class="cluster">
<title>cluster_EditionDetailModule</title>
<polygon fill="none" stroke="black" stroke-dasharray="1,5" points="8,-32.8 8,-157.8 1599,-157.8 1599,-32.8 8,-32.8"/>
</g>
<g id="clust8" class="cluster">
<title>cluster_EditionDetailModule_imports</title>
<polygon fill="none" stroke="black" points="999,-40.8 999,-92.8 1591,-92.8 1591,-40.8 999,-40.8"/>
</g>
<g id="clust2" class="cluster">
<title>cluster_EditionDetailModule_declarations</title>
<polygon fill="none" stroke="black" points="16,-40.8 16,-92.8 991,-92.8 991,-40.8 16,-40.8"/>
</g>
<!-- EditionAccoladeComponent -->
<g id="node1" class="node">
<title>EditionAccoladeComponent</title>
<polygon fill="#ffffb3" stroke="black" points="982.91,-84.8 807.09,-84.8 807.09,-48.8 982.91,-48.8 982.91,-84.8"/>
<text text-anchor="middle" x="895" y="-62.6" font-family="Times,serif" font-size="14.00">EditionAccoladeComponent</text>
</g>
<!-- EditionDetailModule -->
<g id="node6" class="node">
<title>EditionDetailModule</title>
<polygon fill="#8dd3c7" stroke="black" points="962.48,-149.8 959.48,-153.8 938.48,-153.8 935.48,-149.8 827.52,-149.8 827.52,-113.8 962.48,-113.8 962.48,-149.8"/>
<text text-anchor="middle" x="895" y="-127.6" font-family="Times,serif" font-size="14.00">EditionDetailModule</text>
</g>
<!-- EditionAccoladeComponent&#45;&gt;EditionDetailModule -->
<g id="edge1" class="edge">
<title>EditionAccoladeComponent&#45;&gt;EditionDetailModule</title>
<path fill="none" stroke="black" d="M895,-84.91C895,-84.91 895,-103.79 895,-103.79"/>
<polygon fill="black" stroke="black" points="891.5,-103.79 895,-113.79 898.5,-103.79 891.5,-103.79"/>
</g>
<!-- EditionConvoluteComponent -->
<g id="node2" class="node">
<title>EditionConvoluteComponent</title>
<polygon fill="#ffffb3" stroke="black" points="789.39,-84.8 608.61,-84.8 608.61,-48.8 789.39,-48.8 789.39,-84.8"/>
<text text-anchor="middle" x="699" y="-62.6" font-family="Times,serif" font-size="14.00">EditionConvoluteComponent</text>
</g>
<!-- EditionConvoluteComponent&#45;&gt;EditionDetailModule -->
<g id="edge2" class="edge">
<title>EditionConvoluteComponent&#45;&gt;EditionDetailModule</title>
<path fill="none" stroke="black" d="M699,-84.81C699,-100.85 699,-121.8 699,-121.8 699,-121.8 817.27,-121.8 817.27,-121.8"/>
<polygon fill="black" stroke="black" points="817.27,-125.3 827.27,-121.8 817.27,-118.3 817.27,-125.3"/>
</g>
<!-- EditionDetailComponent -->
<g id="node3" class="node">
<title>EditionDetailComponent</title>
<polygon fill="#ffffb3" stroke="black" points="590.26,-84.8 433.74,-84.8 433.74,-48.8 590.26,-48.8 590.26,-84.8"/>
<text text-anchor="middle" x="512" y="-62.6" font-family="Times,serif" font-size="14.00">EditionDetailComponent</text>
</g>
<!-- EditionDetailComponent&#45;&gt;EditionDetailModule -->
<g id="edge3" class="edge">
<title>EditionDetailComponent&#45;&gt;EditionDetailModule</title>
<path fill="none" stroke="black" d="M512,-85.07C512,-103.36 512,-128.8 512,-128.8 512,-128.8 817.41,-128.8 817.41,-128.8"/>
<polygon fill="black" stroke="black" points="817.41,-132.3 827.41,-128.8 817.41,-125.3 817.41,-132.3"/>
</g>
<!-- EditionSvgSheetComponent -->
<g id="node4" class="node">
<title>EditionSvgSheetComponent</title>
<polygon fill="#ffffb3" stroke="black" points="415.94,-84.8 240.06,-84.8 240.06,-48.8 415.94,-48.8 415.94,-84.8"/>
<text text-anchor="middle" x="328" y="-62.6" font-family="Times,serif" font-size="14.00">EditionSvgSheetComponent</text>
</g>
<!-- EditionSvgSheetComponent&#45;&gt;EditionDetailModule -->
<g id="edge4" class="edge">
<title>EditionSvgSheetComponent&#45;&gt;EditionDetailModule</title>
<path fill="none" stroke="black" d="M328,-84.93C328,-105.37 328,-135.8 328,-135.8 328,-135.8 817.45,-135.8 817.45,-135.8"/>
<polygon fill="black" stroke="black" points="817.45,-139.3 827.45,-135.8 817.45,-132.3 817.45,-139.3"/>
</g>
<!-- EditionSvgSheetNavComponent -->
<g id="node5" class="node">
<title>EditionSvgSheetNavComponent</title>
<polygon fill="#ffffb3" stroke="black" points="222.26,-84.8 23.74,-84.8 23.74,-48.8 222.26,-48.8 222.26,-84.8"/>
<text text-anchor="middle" x="123" y="-62.6" font-family="Times,serif" font-size="14.00">EditionSvgSheetNavComponent</text>
</g>
<!-- EditionSvgSheetNavComponent&#45;&gt;EditionDetailModule -->
<g id="edge5" class="edge">
<title>EditionSvgSheetNavComponent&#45;&gt;EditionDetailModule</title>
<path fill="none" stroke="black" d="M123,-84.81C123,-107.29 123,-142.8 123,-142.8 123,-142.8 817.5,-142.8 817.5,-142.8"/>
<polygon fill="black" stroke="black" points="817.5,-146.3 827.5,-142.8 817.5,-139.3 817.5,-146.3"/>
</g>
<!-- EditionDetailRoutingModule -->
<g id="node7" class="node">
<title>EditionDetailRoutingModule</title>
<polygon fill="#8dd3c7" stroke="black" points="1583.1,-84.8 1580.1,-88.8 1559.1,-88.8 1556.1,-84.8 1402.9,-84.8 1402.9,-48.8 1583.1,-48.8 1583.1,-84.8"/>
<text text-anchor="middle" x="1493" y="-62.6" font-family="Times,serif" font-size="14.00">EditionDetailRoutingModule</text>
</g>
<!-- EditionDetailRoutingModule&#45;&gt;EditionDetailModule -->
<g id="edge6" class="edge">
<title>EditionDetailRoutingModule&#45;&gt;EditionDetailModule</title>
<path fill="none" stroke="black" d="M1493,-84.81C1493,-107.29 1493,-142.8 1493,-142.8 1493,-142.8 972.73,-142.8 972.73,-142.8"/>
<polygon fill="black" stroke="black" points="972.73,-139.3 962.73,-142.8 972.73,-146.3 972.73,-139.3"/>
</g>
<!-- EditionTkaTableModule -->
<g id="node8" class="node">
<title>EditionTkaTableModule</title>
<polygon fill="#8dd3c7" stroke="black" points="1385.41,-84.8 1382.41,-88.8 1361.41,-88.8 1358.41,-84.8 1230.59,-84.8 1230.59,-48.8 1385.41,-48.8 1385.41,-84.8"/>
<text text-anchor="middle" x="1308" y="-62.6" font-family="Times,serif" font-size="14.00">EditionTkaTableModule</text>
</g>
<!-- EditionTkaTableModule&#45;&gt;EditionDetailModule -->
<g id="edge7" class="edge">
<title>EditionTkaTableModule&#45;&gt;EditionDetailModule</title>
<path fill="none" stroke="black" d="M1308,-84.93C1308,-105.37 1308,-135.8 1308,-135.8 1308,-135.8 972.74,-135.8 972.74,-135.8"/>
<polygon fill="black" stroke="black" points="972.74,-132.3 962.74,-135.8 972.74,-139.3 972.74,-132.3"/>
</g>
<!-- FolioModule -->
<g id="node9" class="node">
<title>FolioModule</title>
<polygon fill="#8dd3c7" stroke="black" points="1212.61,-84.8 1209.61,-88.8 1188.61,-88.8 1185.61,-84.8 1123.39,-84.8 1123.39,-48.8 1212.61,-48.8 1212.61,-84.8"/>
<text text-anchor="middle" x="1168" y="-62.6" font-family="Times,serif" font-size="14.00">FolioModule</text>
</g>
<!-- FolioModule&#45;&gt;EditionDetailModule -->
<g id="edge8" class="edge">
<title>FolioModule&#45;&gt;EditionDetailModule</title>
<path fill="none" stroke="black" d="M1168,-85.07C1168,-103.36 1168,-128.8 1168,-128.8 1168,-128.8 972.48,-128.8 972.48,-128.8"/>
<polygon fill="black" stroke="black" points="972.48,-125.3 962.48,-128.8 972.48,-132.3 972.48,-125.3"/>
</g>
<!-- SharedModule -->
<g id="node10" class="node">
<title>SharedModule</title>
<polygon fill="#8dd3c7" stroke="black" points="1105.42,-84.8 1102.42,-88.8 1081.42,-88.8 1078.42,-84.8 1006.58,-84.8 1006.58,-48.8 1105.42,-48.8 1105.42,-84.8"/>
<text text-anchor="middle" x="1056" y="-62.6" font-family="Times,serif" font-size="14.00">SharedModule</text>
</g>
<!-- SharedModule&#45;&gt;EditionDetailModule -->
<g id="edge9" class="edge">
<title>SharedModule&#45;&gt;EditionDetailModule</title>
<path fill="none" stroke="black" d="M1056,-84.81C1056,-100.85 1056,-121.8 1056,-121.8 1056,-121.8 972.81,-121.8 972.81,-121.8"/>
<polygon fill="black" stroke="black" points="972.81,-118.3 962.81,-121.8 972.81,-125.3 972.81,-118.3"/>
</g>
</g>
</svg>
