<?xml version="1.0" encoding="UTF-8" standalone="no"?>
<!DOCTYPE svg PUBLIC "-//W3C//DTD SVG 1.1//EN"
 "http://www.w3.org/Graphics/SVG/1.1/DTD/svg11.dtd">
<!-- Generated by graphviz version 2.47.0 (20210316.0004)
 -->
<!-- Title: dependencies Pages: 1 -->
<svg width="1450pt" height="284pt"
 viewBox="0.00 0.00 1450.00 284.00" xmlns="http://www.w3.org/2000/svg" xmlns:xlink="http://www.w3.org/1999/xlink">
<g id="graph0" class="graph" transform="scale(1 1) rotate(0) translate(4 280)">
<title>dependencies</title>
<polygon fill="white" stroke="transparent" points="-4,4 -4,-280 1446,-280 1446,4 -4,4"/>
<text text-anchor="start" x="700.01" y="-42.4" font-family="Times-12" font-weight="bold" font-size="14.00">Legend</text>
<polygon fill="#ffffb3" stroke="transparent" points="487,-10 487,-30 507,-30 507,-10 487,-10"/>
<text text-anchor="start" x="510.63" y="-15.4" font-family="Times-12" font-size="14.00"> &#160;Declarations</text>
<polygon fill="#8dd3c7" stroke="transparent" points="600,-10 600,-30 620,-30 620,-10 600,-10"/>
<text text-anchor="start" x="623.73" y="-15.4" font-family="Times-12" font-size="14.00"> &#160;Module</text>
<polygon fill="#80b1d3" stroke="transparent" points="686,-10 686,-30 706,-30 706,-10 686,-10"/>
<text text-anchor="start" x="709.78" y="-15.4" font-family="Times-12" font-size="14.00"> &#160;Bootstrap</text>
<polygon fill="#fdb462" stroke="transparent" points="783,-10 783,-30 803,-30 803,-10 783,-10"/>
<text text-anchor="start" x="806.67" y="-15.4" font-family="Times-12" font-size="14.00"> &#160;Providers</text>
<polygon fill="#fb8072" stroke="transparent" points="879,-10 879,-30 899,-30 899,-10 879,-10"/>
<text text-anchor="start" x="902.73" y="-15.4" font-family="Times-12" font-size="14.00"> &#160;Exports</text>
<g id="clust1" class="cluster">
<title>cluster_EditionAccoladeModule</title>
<polygon fill="none" stroke="black" stroke-dasharray="1,5" points="8,-70 8,-268 1434,-268 1434,-70 8,-70"/>
</g>
<g id="clust2" class="cluster">
<title>cluster_EditionAccoladeModule_declarations</title>
<polygon fill="none" stroke="black" points="310,-78 310,-130 1426,-130 1426,-78 310,-78"/>
</g>
<g id="clust9" class="cluster">
<title>cluster_EditionAccoladeModule_exports</title>
<polygon fill="none" stroke="black" points="568,-208 568,-260 762,-260 762,-208 568,-208"/>
</g>
<g id="clust8" class="cluster">
<title>cluster_EditionAccoladeModule_imports</title>
<polygon fill="none" stroke="black" points="16,-78 16,-130 302,-130 302,-78 16,-78"/>
</g>
<!-- EditionAccoladeComponent -->
<g id="node1" class="node">
<title>EditionAccoladeComponent</title>
<polygon fill="#ffffb3" stroke="black" points="1417.91,-122 1242.09,-122 1242.09,-86 1417.91,-86 1417.91,-122"/>
<text text-anchor="middle" x="1330" y="-99.8" font-family="Times,serif" font-size="14.00">EditionAccoladeComponent</text>
</g>
<!-- EditionAccoladeModule -->
<g id="node6" class="node">
<title>EditionAccoladeModule</title>
<polygon fill="#8dd3c7" stroke="black" points="741.63,-187 738.63,-191 717.63,-191 714.63,-187 588.37,-187 588.37,-151 741.63,-151 741.63,-187"/>
<text text-anchor="middle" x="665" y="-164.8" font-family="Times,serif" font-size="14.00">EditionAccoladeModule</text>
</g>
<!-- EditionAccoladeComponent&#45;&gt;EditionAccoladeModule -->
<g id="edge1" class="edge">
<title>EditionAccoladeComponent&#45;&gt;EditionAccoladeModule</title>
<path fill="none" stroke="black" d="M1330,-122.29C1330,-144.21 1330,-178 1330,-178 1330,-178 751.93,-178 751.93,-178"/>
<polygon fill="black" stroke="black" points="751.93,-174.5 741.93,-178 751.93,-181.5 751.93,-174.5"/>
</g>
<!-- EditionSvgSheetFooterComponent -->
<g id="node2" class="node">
<title>EditionSvgSheetFooterComponent</title>
<polygon fill="#ffffb3" stroke="black" points="1223.99,-122 1012.01,-122 1012.01,-86 1223.99,-86 1223.99,-122"/>
<text text-anchor="middle" x="1118" y="-99.8" font-family="Times,serif" font-size="14.00">EditionSvgSheetFooterComponent</text>
</g>
<!-- EditionSvgSheetFooterComponent&#45;&gt;EditionAccoladeModule -->
<g id="edge2" class="edge">
<title>EditionSvgSheetFooterComponent&#45;&gt;EditionAccoladeModule</title>
<path fill="none" stroke="black" d="M1118,-122.11C1118,-141.34 1118,-169 1118,-169 1118,-169 751.85,-169 751.85,-169"/>
<polygon fill="black" stroke="black" points="751.85,-165.5 741.85,-169 751.85,-172.5 751.85,-165.5"/>
</g>
<!-- EditionSvgSheetNavComponent -->
<g id="node3" class="node">
<title>EditionSvgSheetNavComponent</title>
<polygon fill="#ffffb3" stroke="black" points="994.26,-122 795.74,-122 795.74,-86 994.26,-86 994.26,-122"/>
<text text-anchor="middle" x="895" y="-99.8" font-family="Times,serif" font-size="14.00">EditionSvgSheetNavComponent</text>
</g>
<!-- EditionSvgSheetNavComponent&#45;&gt;EditionAccoladeModule -->
<g id="edge3" class="edge">
<title>EditionSvgSheetNavComponent&#45;&gt;EditionAccoladeModule</title>
<path fill="none" stroke="black" d="M895,-122.03C895,-138.4 895,-160 895,-160 895,-160 751.91,-160 751.91,-160"/>
<polygon fill="black" stroke="black" points="751.91,-156.5 741.91,-160 751.91,-163.5 751.91,-156.5"/>
</g>
<!-- EditionSvgSheetNavItemComponent -->
<g id="node4" class="node">
<title>EditionSvgSheetNavItemComponent</title>
<polygon fill="#ffffb3" stroke="black" points="777.42,-122 552.58,-122 552.58,-86 777.42,-86 777.42,-122"/>
<text text-anchor="middle" x="665" y="-99.8" font-family="Times,serif" font-size="14.00">EditionSvgSheetNavItemComponent</text>
</g>
<!-- EditionSvgSheetNavItemComponent&#45;&gt;EditionAccoladeModule -->
<g id="edge4" class="edge">
<title>EditionSvgSheetNavItemComponent&#45;&gt;EditionAccoladeModule</title>
<path fill="none" stroke="black" d="M665,-122.11C665,-122.11 665,-140.99 665,-140.99"/>
<polygon fill="black" stroke="black" points="661.5,-140.99 665,-150.99 668.5,-140.99 661.5,-140.99"/>
</g>
<!-- EditionSvgSheetViewerComponent -->
<g id="node5" class="node">
<title>EditionSvgSheetViewerComponent</title>
<polygon fill="#ffffb3" stroke="black" points="534.14,-122 317.86,-122 317.86,-86 534.14,-86 534.14,-122"/>
<text text-anchor="middle" x="426" y="-99.8" font-family="Times,serif" font-size="14.00">EditionSvgSheetViewerComponent</text>
</g>
<!-- EditionSvgSheetViewerComponent&#45;&gt;EditionAccoladeModule -->
<g id="edge5" class="edge">
<title>EditionSvgSheetViewerComponent&#45;&gt;EditionAccoladeModule</title>
<path fill="none" stroke="black" d="M426,-122.03C426,-138.4 426,-160 426,-160 426,-160 578.06,-160 578.06,-160"/>
<polygon fill="black" stroke="black" points="578.06,-163.5 588.06,-160 578.06,-156.5 578.06,-163.5"/>
</g>
<!-- EditionAccoladeComponent  -->
<g id="node9" class="node">
<title>EditionAccoladeComponent </title>
<polygon fill="#fb8072" stroke="black" points="754.41,-252 575.59,-252 575.59,-216 754.41,-216 754.41,-252"/>
<text text-anchor="middle" x="665" y="-229.8" font-family="Times,serif" font-size="14.00">EditionAccoladeComponent </text>
</g>
<!-- EditionAccoladeModule&#45;&gt;EditionAccoladeComponent  -->
<g id="edge8" class="edge">
<title>EditionAccoladeModule&#45;&gt;EditionAccoladeComponent </title>
<path fill="none" stroke="black" stroke-dasharray="5,2" d="M665,-187.11C665,-187.11 665,-205.99 665,-205.99"/>
<polygon fill="black" stroke="black" points="661.5,-205.99 665,-215.99 668.5,-205.99 661.5,-205.99"/>
</g>
<!-- EditionTkaTableModule -->
<g id="node7" class="node">
<title>EditionTkaTableModule</title>
<polygon fill="#8dd3c7" stroke="black" points="294.41,-122 291.41,-126 270.41,-126 267.41,-122 139.59,-122 139.59,-86 294.41,-86 294.41,-122"/>
<text text-anchor="middle" x="217" y="-99.8" font-family="Times,serif" font-size="14.00">EditionTkaTableModule</text>
</g>
<!-- EditionTkaTableModule&#45;&gt;EditionAccoladeModule -->
<g id="edge6" class="edge">
<title>EditionTkaTableModule&#45;&gt;EditionAccoladeModule</title>
<path fill="none" stroke="black" d="M217,-122.11C217,-141.34 217,-169 217,-169 217,-169 578.24,-169 578.24,-169"/>
<polygon fill="black" stroke="black" points="578.24,-172.5 588.24,-169 578.24,-165.5 578.24,-172.5"/>
</g>
<!-- SharedModule -->
<g id="node8" class="node">
<title>SharedModule</title>
<polygon fill="#8dd3c7" stroke="black" points="122.42,-122 119.42,-126 98.42,-126 95.42,-122 23.58,-122 23.58,-86 122.42,-86 122.42,-122"/>
<text text-anchor="middle" x="73" y="-99.8" font-family="Times,serif" font-size="14.00">SharedModule</text>
</g>
<!-- SharedModule&#45;&gt;EditionAccoladeModule -->
<g id="edge7" class="edge">
<title>SharedModule&#45;&gt;EditionAccoladeModule</title>
<path fill="none" stroke="black" d="M73,-122.29C73,-144.21 73,-178 73,-178 73,-178 578.21,-178 578.21,-178"/>
<polygon fill="black" stroke="black" points="578.21,-181.5 588.21,-178 578.21,-174.5 578.21,-181.5"/>
</g>
</g>
</svg>
