<?xml version="1.0" encoding="UTF-8" standalone="no"?>
<!DOCTYPE svg PUBLIC "-//W3C//DTD SVG 1.1//EN"
 "http://www.w3.org/Graphics/SVG/1.1/DTD/svg11.dtd">
<!-- Generated by graphviz version 5.0.0 (20220707.1540)
 -->
<!-- Title: dependencies Pages: 1 -->
<svg width="1450pt" height="247pt"
 viewBox="0.00 0.00 1450.00 246.80" xmlns="http://www.w3.org/2000/svg" xmlns:xlink="http://www.w3.org/1999/xlink">
<g id="graph0" class="graph" transform="scale(1 1) rotate(0) translate(4 242.8)">
<title>dependencies</title>
<polygon fill="white" stroke="transparent" points="-4,4 -4,-242.8 1446,-242.8 1446,4 -4,4"/>
<text text-anchor="middle" x="721" y="-8.2" font-family="sans-serif" font-size="14.00">dependencies</text>
<g id="clust1" class="cluster">
<title>cluster_EditionAccoladeModule</title>
<polygon fill="none" stroke="black" stroke-dasharray="1,5" points="8,-32.8 8,-230.8 1434,-230.8 1434,-32.8 8,-32.8"/>
</g>
<g id="clust8" class="cluster">
<title>cluster_EditionAccoladeModule_imports</title>
<polygon fill="none" stroke="black" points="1140,-40.8 1140,-92.8 1426,-92.8 1426,-40.8 1140,-40.8"/>
</g>
<g id="clust9" class="cluster">
<title>cluster_EditionAccoladeModule_exports</title>
<polygon fill="none" stroke="black" points="727,-170.8 727,-222.8 921,-222.8 921,-170.8 727,-170.8"/>
</g>
<g id="clust2" class="cluster">
<title>cluster_EditionAccoladeModule_declarations</title>
<polygon fill="none" stroke="black" points="16,-40.8 16,-92.8 1132,-92.8 1132,-40.8 16,-40.8"/>
</g>
<!-- EditionAccoladeComponent -->
<g id="node1" class="node">
<title>EditionAccoladeComponent</title>
<polygon fill="#ffffb3" stroke="black" points="1123.91,-84.8 948.09,-84.8 948.09,-48.8 1123.91,-48.8 1123.91,-84.8"/>
<text text-anchor="middle" x="1036" y="-62.6" font-family="Times,serif" font-size="14.00">EditionAccoladeComponent</text>
</g>
<!-- EditionAccoladeModule -->
<g id="node6" class="node">
<title>EditionAccoladeModule</title>
<polygon fill="#8dd3c7" stroke="black" points="900.63,-149.8 897.63,-153.8 876.63,-153.8 873.63,-149.8 747.37,-149.8 747.37,-113.8 900.63,-113.8 900.63,-149.8"/>
<text text-anchor="middle" x="824" y="-127.6" font-family="Times,serif" font-size="14.00">EditionAccoladeModule</text>
</g>
<!-- EditionAccoladeComponent&#45;&gt;EditionAccoladeModule -->
<g id="edge1" class="edge">
<title>EditionAccoladeComponent&#45;&gt;EditionAccoladeModule</title>
<path fill="none" stroke="black" d="M1036,-84.83C1036,-101.2 1036,-122.8 1036,-122.8 1036,-122.8 910.84,-122.8 910.84,-122.8"/>
<polygon fill="black" stroke="black" points="910.84,-119.3 900.84,-122.8 910.84,-126.3 910.84,-119.3"/>
</g>
<!-- EditionSvgSheetFooterComponent -->
<g id="node2" class="node">
<title>EditionSvgSheetFooterComponent</title>
<polygon fill="#ffffb3" stroke="black" points="929.99,-84.8 718.01,-84.8 718.01,-48.8 929.99,-48.8 929.99,-84.8"/>
<text text-anchor="middle" x="824" y="-62.6" font-family="Times,serif" font-size="14.00">EditionSvgSheetFooterComponent</text>
</g>
<!-- EditionSvgSheetFooterComponent&#45;&gt;EditionAccoladeModule -->
<g id="edge2" class="edge">
<title>EditionSvgSheetFooterComponent&#45;&gt;EditionAccoladeModule</title>
<path fill="none" stroke="black" d="M824,-84.91C824,-84.91 824,-103.79 824,-103.79"/>
<polygon fill="black" stroke="black" points="820.5,-103.79 824,-113.79 827.5,-103.79 820.5,-103.79"/>
</g>
<!-- EditionSvgSheetNavComponent -->
<g id="node3" class="node">
<title>EditionSvgSheetNavComponent</title>
<polygon fill="#ffffb3" stroke="black" points="700.27,-84.8 501.73,-84.8 501.73,-48.8 700.27,-48.8 700.27,-84.8"/>
<text text-anchor="middle" x="601" y="-62.6" font-family="Times,serif" font-size="14.00">EditionSvgSheetNavComponent</text>
</g>
<!-- EditionSvgSheetNavComponent&#45;&gt;EditionAccoladeModule -->
<g id="edge3" class="edge">
<title>EditionSvgSheetNavComponent&#45;&gt;EditionAccoladeModule</title>
<path fill="none" stroke="black" d="M601,-84.83C601,-101.2 601,-122.8 601,-122.8 601,-122.8 737.26,-122.8 737.26,-122.8"/>
<polygon fill="black" stroke="black" points="737.26,-126.3 747.26,-122.8 737.26,-119.3 737.26,-126.3"/>
</g>
<!-- EditionSvgSheetNavItemComponent -->
<g id="node4" class="node">
<title>EditionSvgSheetNavItemComponent</title>
<polygon fill="#ffffb3" stroke="black" points="483.42,-84.8 258.58,-84.8 258.58,-48.8 483.42,-48.8 483.42,-84.8"/>
<text text-anchor="middle" x="371" y="-62.6" font-family="Times,serif" font-size="14.00">EditionSvgSheetNavItemComponent</text>
</g>
<!-- EditionSvgSheetNavItemComponent&#45;&gt;EditionAccoladeModule -->
<g id="edge4" class="edge">
<title>EditionSvgSheetNavItemComponent&#45;&gt;EditionAccoladeModule</title>
<path fill="none" stroke="black" d="M371,-84.91C371,-104.14 371,-131.8 371,-131.8 371,-131.8 737.15,-131.8 737.15,-131.8"/>
<polygon fill="black" stroke="black" points="737.15,-135.3 747.15,-131.8 737.15,-128.3 737.15,-135.3"/>
</g>
<!-- EditionSvgSheetViewerComponent -->
<g id="node5" class="node">
<title>EditionSvgSheetViewerComponent</title>
<polygon fill="#ffffb3" stroke="black" points="240.14,-84.8 23.86,-84.8 23.86,-48.8 240.14,-48.8 240.14,-84.8"/>
<text text-anchor="middle" x="132" y="-62.6" font-family="Times,serif" font-size="14.00">EditionSvgSheetViewerComponent</text>
</g>
<!-- EditionSvgSheetViewerComponent&#45;&gt;EditionAccoladeModule -->
<g id="edge5" class="edge">
<title>EditionSvgSheetViewerComponent&#45;&gt;EditionAccoladeModule</title>
<path fill="none" stroke="black" d="M132,-85.09C132,-107.01 132,-140.8 132,-140.8 132,-140.8 737.3,-140.8 737.3,-140.8"/>
<polygon fill="black" stroke="black" points="737.3,-144.3 747.3,-140.8 737.3,-137.3 737.3,-144.3"/>
</g>
<!-- EditionAccoladeComponent  -->
<g id="node9" class="node">
<title>EditionAccoladeComponent </title>
<polygon fill="#fb8072" stroke="black" points="913.41,-214.8 734.59,-214.8 734.59,-178.8 913.41,-178.8 913.41,-214.8"/>
<text text-anchor="middle" x="824" y="-192.6" font-family="Times,serif" font-size="14.00">EditionAccoladeComponent </text>
</g>
<!-- EditionAccoladeModule&#45;&gt;EditionAccoladeComponent  -->
<g id="edge8" class="edge">
<title>EditionAccoladeModule&#45;&gt;EditionAccoladeComponent </title>
<path fill="none" stroke="black" stroke-dasharray="5,2" d="M824,-149.91C824,-149.91 824,-168.79 824,-168.79"/>
<polygon fill="black" stroke="black" points="820.5,-168.79 824,-178.79 827.5,-168.79 820.5,-168.79"/>
</g>
<!-- EditionTkaTableModule -->
<g id="node7" class="node">
<title>EditionTkaTableModule</title>
<polygon fill="#8dd3c7" stroke="black" points="1418.41,-84.8 1415.41,-88.8 1394.41,-88.8 1391.41,-84.8 1263.59,-84.8 1263.59,-48.8 1418.41,-48.8 1418.41,-84.8"/>
<text text-anchor="middle" x="1341" y="-62.6" font-family="Times,serif" font-size="14.00">EditionTkaTableModule</text>
</g>
<!-- EditionTkaTableModule&#45;&gt;EditionAccoladeModule -->
<g id="edge6" class="edge">
<title>EditionTkaTableModule&#45;&gt;EditionAccoladeModule</title>
<path fill="none" stroke="black" d="M1341,-85.09C1341,-107.01 1341,-140.8 1341,-140.8 1341,-140.8 910.84,-140.8 910.84,-140.8"/>
<polygon fill="black" stroke="black" points="910.84,-137.3 900.84,-140.8 910.84,-144.3 910.84,-137.3"/>
</g>
<!-- SharedModule -->
<g id="node8" class="node">
<title>SharedModule</title>
<polygon fill="#8dd3c7" stroke="black" points="1246.43,-84.8 1243.43,-88.8 1222.43,-88.8 1219.43,-84.8 1147.57,-84.8 1147.57,-48.8 1246.43,-48.8 1246.43,-84.8"/>
<text text-anchor="middle" x="1197" y="-62.6" font-family="Times,serif" font-size="14.00">SharedModule</text>
</g>
<!-- SharedModule&#45;&gt;EditionAccoladeModule -->
<g id="edge7" class="edge">
<title>SharedModule&#45;&gt;EditionAccoladeModule</title>
<path fill="none" stroke="black" d="M1197,-84.91C1197,-104.14 1197,-131.8 1197,-131.8 1197,-131.8 910.83,-131.8 910.83,-131.8"/>
<polygon fill="black" stroke="black" points="910.83,-128.3 900.83,-131.8 910.83,-135.3 910.83,-128.3"/>
</g>
</g>
</svg>
