<?xml version="1.0" encoding="UTF-8" standalone="no"?>
<!DOCTYPE svg PUBLIC "-//W3C//DTD SVG 1.1//EN"
 "http://www.w3.org/Graphics/SVG/1.1/DTD/svg11.dtd">
<!-- Generated by graphviz version 5.0.0 (20220707.1540)
 -->
<!-- Title: dependencies Pages: 1 -->
<svg width="1450pt" height="247pt"
 viewBox="0.00 0.00 1450.00 246.80" xmlns="http://www.w3.org/2000/svg" xmlns:xlink="http://www.w3.org/1999/xlink">
<g id="graph0" class="graph" transform="scale(1 1) rotate(0) translate(4 242.8)">
<title>dependencies</title>
<polygon fill="white" stroke="transparent" points="-4,4 -4,-242.8 1446,-242.8 1446,4 -4,4"/>
<text text-anchor="middle" x="721" y="-8.2" font-family="sans-serif" font-size="14.00">dependencies</text>
<g id="clust1" class="cluster">
<title>cluster_EditionAccoladeModule</title>
<polygon fill="none" stroke="black" stroke-dasharray="1,5" points="8,-32.8 8,-230.8 1434,-230.8 1434,-32.8 8,-32.8"/>
</g>
<g id="clust2" class="cluster">
<title>cluster_EditionAccoladeModule_declarations</title>
<polygon fill="none" stroke="black" points="310,-40.8 310,-92.8 1426,-92.8 1426,-40.8 310,-40.8"/>
</g>
<g id="clust8" class="cluster">
<title>cluster_EditionAccoladeModule_imports</title>
<polygon fill="none" stroke="black" points="16,-40.8 16,-92.8 302,-92.8 302,-40.8 16,-40.8"/>
</g>
<g id="clust9" class="cluster">
<title>cluster_EditionAccoladeModule_exports</title>
<polygon fill="none" stroke="black" points="568,-170.8 568,-222.8 762,-222.8 762,-170.8 568,-170.8"/>
</g>
<!-- EditionAccoladeComponent -->
<g id="node1" class="node">
<title>EditionAccoladeComponent</title>
<polygon fill="#ffffb3" stroke="black" points="1417.91,-84.8 1242.09,-84.8 1242.09,-48.8 1417.91,-48.8 1417.91,-84.8"/>
<text text-anchor="middle" x="1330" y="-62.6" font-family="Times,serif" font-size="14.00">EditionAccoladeComponent</text>
</g>
<!-- EditionAccoladeModule -->
<g id="node6" class="node">
<title>EditionAccoladeModule</title>
<polygon fill="#8dd3c7" stroke="black" points="741.63,-149.8 738.63,-153.8 717.63,-153.8 714.63,-149.8 588.37,-149.8 588.37,-113.8 741.63,-113.8 741.63,-149.8"/>
<text text-anchor="middle" x="665" y="-127.6" font-family="Times,serif" font-size="14.00">EditionAccoladeModule</text>
</g>
<!-- EditionAccoladeComponent&#45;&gt;EditionAccoladeModule -->
<g id="edge1" class="edge">
<title>EditionAccoladeComponent&#45;&gt;EditionAccoladeModule</title>
<path fill="none" stroke="black" d="M1330,-85.09C1330,-107.01 1330,-140.8 1330,-140.8 1330,-140.8 751.93,-140.8 751.93,-140.8"/>
<polygon fill="black" stroke="black" points="751.93,-137.3 741.93,-140.8 751.93,-144.3 751.93,-137.3"/>
</g>
<!-- EditionSvgSheetFooterComponent -->
<g id="node2" class="node">
<title>EditionSvgSheetFooterComponent</title>
<polygon fill="#ffffb3" stroke="black" points="1223.99,-84.8 1012.01,-84.8 1012.01,-48.8 1223.99,-48.8 1223.99,-84.8"/>
<text text-anchor="middle" x="1118" y="-62.6" font-family="Times,serif" font-size="14.00">EditionSvgSheetFooterComponent</text>
</g>
<!-- EditionSvgSheetFooterComponent&#45;&gt;EditionAccoladeModule -->
<g id="edge2" class="edge">
<title>EditionSvgSheetFooterComponent&#45;&gt;EditionAccoladeModule</title>
<path fill="none" stroke="black" d="M1118,-84.91C1118,-104.14 1118,-131.8 1118,-131.8 1118,-131.8 751.85,-131.8 751.85,-131.8"/>
<polygon fill="black" stroke="black" points="751.85,-128.3 741.85,-131.8 751.85,-135.3 751.85,-128.3"/>
</g>
<!-- EditionSvgSheetNavComponent -->
<g id="node3" class="node">
<title>EditionSvgSheetNavComponent</title>
<polygon fill="#ffffb3" stroke="black" points="994.27,-84.8 795.73,-84.8 795.73,-48.8 994.27,-48.8 994.27,-84.8"/>
<text text-anchor="middle" x="895" y="-62.6" font-family="Times,serif" font-size="14.00">EditionSvgSheetNavComponent</text>
</g>
<!-- EditionSvgSheetNavComponent&#45;&gt;EditionAccoladeModule -->
<g id="edge3" class="edge">
<title>EditionSvgSheetNavComponent&#45;&gt;EditionAccoladeModule</title>
<path fill="none" stroke="black" d="M895,-84.83C895,-101.2 895,-122.8 895,-122.8 895,-122.8 751.91,-122.8 751.91,-122.8"/>
<polygon fill="black" stroke="black" points="751.91,-119.3 741.91,-122.8 751.91,-126.3 751.91,-119.3"/>
</g>
<!-- EditionSvgSheetNavItemComponent -->
<g id="node4" class="node">
<title>EditionSvgSheetNavItemComponent</title>
<polygon fill="#ffffb3" stroke="black" points="777.42,-84.8 552.58,-84.8 552.58,-48.8 777.42,-48.8 777.42,-84.8"/>
<text text-anchor="middle" x="665" y="-62.6" font-family="Times,serif" font-size="14.00">EditionSvgSheetNavItemComponent</text>
</g>
<!-- EditionSvgSheetNavItemComponent&#45;&gt;EditionAccoladeModule -->
<g id="edge4" class="edge">
<title>EditionSvgSheetNavItemComponent&#45;&gt;EditionAccoladeModule</title>
<path fill="none" stroke="black" d="M665,-84.91C665,-84.91 665,-103.79 665,-103.79"/>
<polygon fill="black" stroke="black" points="661.5,-103.79 665,-113.79 668.5,-103.79 661.5,-103.79"/>
</g>
<!-- EditionSvgSheetViewerComponent -->
<g id="node5" class="node">
<title>EditionSvgSheetViewerComponent</title>
<polygon fill="#ffffb3" stroke="black" points="534.14,-84.8 317.86,-84.8 317.86,-48.8 534.14,-48.8 534.14,-84.8"/>
<text text-anchor="middle" x="426" y="-62.6" font-family="Times,serif" font-size="14.00">EditionSvgSheetViewerComponent</text>
</g>
<!-- EditionSvgSheetViewerComponent&#45;&gt;EditionAccoladeModule -->
<g id="edge5" class="edge">
<title>EditionSvgSheetViewerComponent&#45;&gt;EditionAccoladeModule</title>
<path fill="none" stroke="black" d="M426,-84.83C426,-101.2 426,-122.8 426,-122.8 426,-122.8 578.06,-122.8 578.06,-122.8"/>
<polygon fill="black" stroke="black" points="578.06,-126.3 588.06,-122.8 578.06,-119.3 578.06,-126.3"/>
</g>
<!-- EditionAccoladeComponent  -->
<g id="node9" class="node">
<title>EditionAccoladeComponent </title>
<polygon fill="#fb8072" stroke="black" points="754.41,-214.8 575.59,-214.8 575.59,-178.8 754.41,-178.8 754.41,-214.8"/>
<text text-anchor="middle" x="665" y="-192.6" font-family="Times,serif" font-size="14.00">EditionAccoladeComponent </text>
</g>
<!-- EditionAccoladeModule&#45;&gt;EditionAccoladeComponent  -->
<g id="edge8" class="edge">
<title>EditionAccoladeModule&#45;&gt;EditionAccoladeComponent </title>
<path fill="none" stroke="black" stroke-dasharray="5,2" d="M665,-149.91C665,-149.91 665,-168.79 665,-168.79"/>
<polygon fill="black" stroke="black" points="661.5,-168.79 665,-178.79 668.5,-168.79 661.5,-168.79"/>
</g>
<!-- EditionTkaTableModule -->
<g id="node7" class="node">
<title>EditionTkaTableModule</title>
<polygon fill="#8dd3c7" stroke="black" points="294.41,-84.8 291.41,-88.8 270.41,-88.8 267.41,-84.8 139.59,-84.8 139.59,-48.8 294.41,-48.8 294.41,-84.8"/>
<text text-anchor="middle" x="217" y="-62.6" font-family="Times,serif" font-size="14.00">EditionTkaTableModule</text>
</g>
<!-- EditionTkaTableModule&#45;&gt;EditionAccoladeModule -->
<g id="edge6" class="edge">
<title>EditionTkaTableModule&#45;&gt;EditionAccoladeModule</title>
<path fill="none" stroke="black" d="M217,-84.91C217,-104.14 217,-131.8 217,-131.8 217,-131.8 578.24,-131.8 578.24,-131.8"/>
<polygon fill="black" stroke="black" points="578.24,-135.3 588.24,-131.8 578.24,-128.3 578.24,-135.3"/>
</g>
<!-- SharedModule -->
<g id="node8" class="node">
<title>SharedModule</title>
<polygon fill="#8dd3c7" stroke="black" points="122.43,-84.8 119.43,-88.8 98.43,-88.8 95.43,-84.8 23.57,-84.8 23.57,-48.8 122.43,-48.8 122.43,-84.8"/>
<text text-anchor="middle" x="73" y="-62.6" font-family="Times,serif" font-size="14.00">SharedModule</text>
</g>
<!-- SharedModule&#45;&gt;EditionAccoladeModule -->
<g id="edge7" class="edge">
<title>SharedModule&#45;&gt;EditionAccoladeModule</title>
<path fill="none" stroke="black" d="M73,-85.09C73,-107.01 73,-140.8 73,-140.8 73,-140.8 578.21,-140.8 578.21,-140.8"/>
<polygon fill="black" stroke="black" points="578.21,-144.3 588.21,-140.8 578.21,-137.3 578.21,-144.3"/>
</g>
</g>
</svg>
