<?xml version="1.0" encoding="UTF-8" standalone="no"?>
<!DOCTYPE svg PUBLIC "-//W3C//DTD SVG 1.1//EN"
 "http://www.w3.org/Graphics/SVG/1.1/DTD/svg11.dtd">
<!-- Generated by graphviz version 2.47.3 (20210619.1520)
 -->
<!-- Title: dependencies Pages: 1 -->
<svg width="935pt" height="247pt"
 viewBox="0.00 0.00 935.00 246.80" xmlns="http://www.w3.org/2000/svg" xmlns:xlink="http://www.w3.org/1999/xlink">
<g id="graph0" class="graph" transform="scale(1 1) rotate(0) translate(4 242.8)">
<title>dependencies</title>
<polygon fill="white" stroke="transparent" points="-4,4 -4,-242.8 931,-242.8 931,4 -4,4"/>
<text text-anchor="middle" x="463.5" y="-8.2" font-family="sans-serif" font-size="14.00">dependencies</text>
<g id="clust1" class="cluster">
<title>cluster_EditionAccoladeModule</title>
<polygon fill="none" stroke="black" stroke-dasharray="1,5" points="8,-32.8 8,-230.8 919,-230.8 919,-32.8 8,-32.8"/>
</g>
<g id="clust6" class="cluster">
<title>cluster_EditionAccoladeModule_imports</title>
<polygon fill="none" stroke="black" points="625,-40.8 625,-92.8 911,-92.8 911,-40.8 625,-40.8"/>
</g>
<g id="clust2" class="cluster">
<title>cluster_EditionAccoladeModule_declarations</title>
<polygon fill="none" stroke="black" points="16,-40.8 16,-92.8 617,-92.8 617,-40.8 16,-40.8"/>
</g>
<g id="clust7" class="cluster">
<title>cluster_EditionAccoladeModule_exports</title>
<polygon fill="none" stroke="black" points="424,-170.8 424,-222.8 618,-222.8 618,-170.8 424,-170.8"/>
</g>
<!-- EditionAccoladeComponent -->
<g id="node1" class="node">
<title>EditionAccoladeComponent</title>
<polygon fill="#ffffb3" stroke="black" points="608.91,-84.8 433.09,-84.8 433.09,-48.8 608.91,-48.8 608.91,-84.8"/>
<text text-anchor="middle" x="521" y="-62.6" font-family="Times,serif" font-size="14.00">EditionAccoladeComponent</text>
</g>
<!-- EditionAccoladeModule -->
<g id="node4" class="node">
<title>EditionAccoladeModule</title>
<polygon fill="#8dd3c7" stroke="black" points="597.63,-149.8 594.63,-153.8 573.63,-153.8 570.63,-149.8 444.37,-149.8 444.37,-113.8 597.63,-113.8 597.63,-149.8"/>
<text text-anchor="middle" x="521" y="-127.6" font-family="Times,serif" font-size="14.00">EditionAccoladeModule</text>
</g>
<!-- EditionAccoladeComponent&#45;&gt;EditionAccoladeModule -->
<g id="edge1" class="edge">
<title>EditionAccoladeComponent&#45;&gt;EditionAccoladeModule</title>
<path fill="none" stroke="black" d="M521,-84.91C521,-84.91 521,-103.79 521,-103.79"/>
<polygon fill="black" stroke="black" points="517.5,-103.79 521,-113.79 524.5,-103.79 517.5,-103.79"/>
</g>
<!-- EditionSvgSheetComponent -->
<g id="node2" class="node">
<title>EditionSvgSheetComponent</title>
<polygon fill="#ffffb3" stroke="black" points="415.94,-84.8 240.06,-84.8 240.06,-48.8 415.94,-48.8 415.94,-84.8"/>
<text text-anchor="middle" x="328" y="-62.6" font-family="Times,serif" font-size="14.00">EditionSvgSheetComponent</text>
</g>
<!-- EditionSvgSheetComponent&#45;&gt;EditionAccoladeModule -->
<g id="edge2" class="edge">
<title>EditionSvgSheetComponent&#45;&gt;EditionAccoladeModule</title>
<path fill="none" stroke="black" d="M328,-84.82C328,-102.17 328,-125.8 328,-125.8 328,-125.8 434.17,-125.8 434.17,-125.8"/>
<polygon fill="black" stroke="black" points="434.17,-129.3 444.17,-125.8 434.17,-122.3 434.17,-129.3"/>
</g>
<!-- EditionSvgSheetNavComponent -->
<g id="node3" class="node">
<title>EditionSvgSheetNavComponent</title>
<polygon fill="#ffffb3" stroke="black" points="222.26,-84.8 23.74,-84.8 23.74,-48.8 222.26,-48.8 222.26,-84.8"/>
<text text-anchor="middle" x="123" y="-62.6" font-family="Times,serif" font-size="14.00">EditionSvgSheetNavComponent</text>
</g>
<!-- EditionSvgSheetNavComponent&#45;&gt;EditionAccoladeModule -->
<g id="edge3" class="edge">
<title>EditionSvgSheetNavComponent&#45;&gt;EditionAccoladeModule</title>
<path fill="none" stroke="black" d="M123,-85.08C123,-106.12 123,-137.8 123,-137.8 123,-137.8 434.26,-137.8 434.26,-137.8"/>
<polygon fill="black" stroke="black" points="434.26,-141.3 444.26,-137.8 434.26,-134.3 434.26,-141.3"/>
</g>
<!-- EditionAccoladeComponent  -->
<g id="node7" class="node">
<title>EditionAccoladeComponent </title>
<polygon fill="#fb8072" stroke="black" points="610.41,-214.8 431.59,-214.8 431.59,-178.8 610.41,-178.8 610.41,-214.8"/>
<text text-anchor="middle" x="521" y="-192.6" font-family="Times,serif" font-size="14.00">EditionAccoladeComponent </text>
</g>
<!-- EditionAccoladeModule&#45;&gt;EditionAccoladeComponent  -->
<g id="edge6" class="edge">
<title>EditionAccoladeModule&#45;&gt;EditionAccoladeComponent </title>
<path fill="none" stroke="black" stroke-dasharray="5,2" d="M521,-149.91C521,-149.91 521,-168.79 521,-168.79"/>
<polygon fill="black" stroke="black" points="517.5,-168.79 521,-178.79 524.5,-168.79 517.5,-168.79"/>
</g>
<!-- EditionTkaTableModule -->
<g id="node5" class="node">
<title>EditionTkaTableModule</title>
<polygon fill="#8dd3c7" stroke="black" points="903.41,-84.8 900.41,-88.8 879.41,-88.8 876.41,-84.8 748.59,-84.8 748.59,-48.8 903.41,-48.8 903.41,-84.8"/>
<text text-anchor="middle" x="826" y="-62.6" font-family="Times,serif" font-size="14.00">EditionTkaTableModule</text>
</g>
<!-- EditionTkaTableModule&#45;&gt;EditionAccoladeModule -->
<g id="edge4" class="edge">
<title>EditionTkaTableModule&#45;&gt;EditionAccoladeModule</title>
<path fill="none" stroke="black" d="M826,-85.08C826,-106.12 826,-137.8 826,-137.8 826,-137.8 607.96,-137.8 607.96,-137.8"/>
<polygon fill="black" stroke="black" points="607.96,-134.3 597.96,-137.8 607.96,-141.3 607.96,-134.3"/>
</g>
<!-- SharedModule -->
<g id="node6" class="node">
<title>SharedModule</title>
<polygon fill="#8dd3c7" stroke="black" points="731.42,-84.8 728.42,-88.8 707.42,-88.8 704.42,-84.8 632.58,-84.8 632.58,-48.8 731.42,-48.8 731.42,-84.8"/>
<text text-anchor="middle" x="682" y="-62.6" font-family="Times,serif" font-size="14.00">SharedModule</text>
</g>
<!-- SharedModule&#45;&gt;EditionAccoladeModule -->
<g id="edge5" class="edge">
<title>SharedModule&#45;&gt;EditionAccoladeModule</title>
<path fill="none" stroke="black" d="M682,-84.82C682,-102.17 682,-125.8 682,-125.8 682,-125.8 607.73,-125.8 607.73,-125.8"/>
<polygon fill="black" stroke="black" points="607.73,-122.3 597.73,-125.8 607.73,-129.3 607.73,-122.3"/>
</g>
</g>
</svg>
