<?xml version="1.0" encoding="UTF-8" standalone="no"?>
<!DOCTYPE svg PUBLIC "-//W3C//DTD SVG 1.1//EN"
 "http://www.w3.org/Graphics/SVG/1.1/DTD/svg11.dtd">
<!-- Generated by graphviz version 2.47.0 (20210316.0004)
 -->
<!-- Title: dependencies Pages: 1 -->
<svg width="1656pt" height="284pt"
 viewBox="0.00 0.00 1656.00 284.00" xmlns="http://www.w3.org/2000/svg" xmlns:xlink="http://www.w3.org/1999/xlink">
<g id="graph0" class="graph" transform="scale(1 1) rotate(0) translate(4 280)">
<title>dependencies</title>
<polygon fill="white" stroke="transparent" points="-4,4 -4,-280 1652,-280 1652,4 -4,4"/>
<text text-anchor="start" x="803.01" y="-42.4" font-family="Times-12" font-weight="bold" font-size="14.00">Legend</text>
<polygon fill="#ffffb3" stroke="transparent" points="590,-10 590,-30 610,-30 610,-10 590,-10"/>
<text text-anchor="start" x="613.63" y="-15.4" font-family="Times-12" font-size="14.00"> &#160;Declarations</text>
<polygon fill="#8dd3c7" stroke="transparent" points="703,-10 703,-30 723,-30 723,-10 703,-10"/>
<text text-anchor="start" x="726.73" y="-15.4" font-family="Times-12" font-size="14.00"> &#160;Module</text>
<polygon fill="#80b1d3" stroke="transparent" points="789,-10 789,-30 809,-30 809,-10 789,-10"/>
<text text-anchor="start" x="812.78" y="-15.4" font-family="Times-12" font-size="14.00"> &#160;Bootstrap</text>
<polygon fill="#fdb462" stroke="transparent" points="886,-10 886,-30 906,-30 906,-10 886,-10"/>
<text text-anchor="start" x="909.67" y="-15.4" font-family="Times-12" font-size="14.00"> &#160;Providers</text>
<polygon fill="#fb8072" stroke="transparent" points="982,-10 982,-30 1002,-30 1002,-10 982,-10"/>
<text text-anchor="start" x="1005.73" y="-15.4" font-family="Times-12" font-size="14.00"> &#160;Exports</text>
<g id="clust1" class="cluster">
<title>cluster_EditionAccoladeModule</title>
<polygon fill="none" stroke="black" stroke-dasharray="1,5" points="8,-70 8,-268 1640,-268 1640,-70 8,-70"/>
</g>
<g id="clust8" class="cluster">
<title>cluster_EditionAccoladeModule_imports</title>
<polygon fill="none" stroke="black" points="1140,-78 1140,-130 1632,-130 1632,-78 1140,-78"/>
</g>
<g id="clust2" class="cluster">
<title>cluster_EditionAccoladeModule_declarations</title>
<polygon fill="none" stroke="black" points="16,-78 16,-130 1132,-130 1132,-78 16,-78"/>
</g>
<g id="clust9" class="cluster">
<title>cluster_EditionAccoladeModule_exports</title>
<polygon fill="none" stroke="black" points="833,-208 833,-260 1027,-260 1027,-208 833,-208"/>
</g>
<!-- EditionAccoladeComponent -->
<g id="node1" class="node">
<title>EditionAccoladeComponent</title>
<polygon fill="#ffffb3" stroke="black" points="1123.91,-122 948.09,-122 948.09,-86 1123.91,-86 1123.91,-122"/>
<text text-anchor="middle" x="1036" y="-99.8" font-family="Times,serif" font-size="14.00">EditionAccoladeComponent</text>
</g>
<!-- EditionAccoladeModule -->
<g id="node6" class="node">
<title>EditionAccoladeModule</title>
<polygon fill="#8dd3c7" stroke="black" points="1006.63,-187 1003.63,-191 982.63,-191 979.63,-187 853.37,-187 853.37,-151 1006.63,-151 1006.63,-187"/>
<text text-anchor="middle" x="930" y="-164.8" font-family="Times,serif" font-size="14.00">EditionAccoladeModule</text>
</g>
<!-- EditionAccoladeComponent&#45;&gt;EditionAccoladeModule -->
<g id="edge1" class="edge">
<title>EditionAccoladeComponent&#45;&gt;EditionAccoladeModule</title>
<path fill="none" stroke="black" d="M977.55,-122.11C977.55,-122.11 977.55,-140.99 977.55,-140.99"/>
<polygon fill="black" stroke="black" points="974.05,-140.99 977.55,-150.99 981.05,-140.99 974.05,-140.99"/>
</g>
<!-- EditionSvgSheetFooterComponent -->
<g id="node2" class="node">
<title>EditionSvgSheetFooterComponent</title>
<polygon fill="#ffffb3" stroke="black" points="929.99,-122 718.01,-122 718.01,-86 929.99,-86 929.99,-122"/>
<text text-anchor="middle" x="824" y="-99.8" font-family="Times,serif" font-size="14.00">EditionSvgSheetFooterComponent</text>
</g>
<!-- EditionSvgSheetFooterComponent&#45;&gt;EditionAccoladeModule -->
<g id="edge2" class="edge">
<title>EditionSvgSheetFooterComponent&#45;&gt;EditionAccoladeModule</title>
<path fill="none" stroke="black" d="M891.59,-122.11C891.59,-122.11 891.59,-140.99 891.59,-140.99"/>
<polygon fill="black" stroke="black" points="888.09,-140.99 891.59,-150.99 895.09,-140.99 888.09,-140.99"/>
</g>
<!-- EditionSvgSheetNavComponent -->
<g id="node3" class="node">
<title>EditionSvgSheetNavComponent</title>
<polygon fill="#ffffb3" stroke="black" points="700.26,-122 501.74,-122 501.74,-86 700.26,-86 700.26,-122"/>
<text text-anchor="middle" x="601" y="-99.8" font-family="Times,serif" font-size="14.00">EditionSvgSheetNavComponent</text>
</g>
<!-- EditionSvgSheetNavComponent&#45;&gt;EditionAccoladeModule -->
<g id="edge3" class="edge">
<title>EditionSvgSheetNavComponent&#45;&gt;EditionAccoladeModule</title>
<path fill="none" stroke="black" d="M601,-122.03C601,-138.4 601,-160 601,-160 601,-160 843.28,-160 843.28,-160"/>
<polygon fill="black" stroke="black" points="843.28,-163.5 853.28,-160 843.28,-156.5 843.28,-163.5"/>
</g>
<!-- EditionSvgSheetNavItemComponent -->
<g id="node4" class="node">
<title>EditionSvgSheetNavItemComponent</title>
<polygon fill="#ffffb3" stroke="black" points="483.42,-122 258.58,-122 258.58,-86 483.42,-86 483.42,-122"/>
<text text-anchor="middle" x="371" y="-99.8" font-family="Times,serif" font-size="14.00">EditionSvgSheetNavItemComponent</text>
</g>
<!-- EditionSvgSheetNavItemComponent&#45;&gt;EditionAccoladeModule -->
<g id="edge4" class="edge">
<title>EditionSvgSheetNavItemComponent&#45;&gt;EditionAccoladeModule</title>
<path fill="none" stroke="black" d="M371,-122.11C371,-141.34 371,-169 371,-169 371,-169 843.15,-169 843.15,-169"/>
<polygon fill="black" stroke="black" points="843.15,-172.5 853.15,-169 843.15,-165.5 843.15,-172.5"/>
</g>
<!-- EditionSvgSheetViewerComponent -->
<g id="node5" class="node">
<title>EditionSvgSheetViewerComponent</title>
<polygon fill="#ffffb3" stroke="black" points="240.14,-122 23.86,-122 23.86,-86 240.14,-86 240.14,-122"/>
<text text-anchor="middle" x="132" y="-99.8" font-family="Times,serif" font-size="14.00">EditionSvgSheetViewerComponent</text>
</g>
<!-- EditionSvgSheetViewerComponent&#45;&gt;EditionAccoladeModule -->
<g id="edge5" class="edge">
<title>EditionSvgSheetViewerComponent&#45;&gt;EditionAccoladeModule</title>
<path fill="none" stroke="black" d="M132,-122.29C132,-144.21 132,-178 132,-178 132,-178 843.12,-178 843.12,-178"/>
<polygon fill="black" stroke="black" points="843.12,-181.5 853.12,-178 843.12,-174.5 843.12,-181.5"/>
</g>
<!-- EditionAccoladeComponent  -->
<g id="node10" class="node">
<title>EditionAccoladeComponent </title>
<polygon fill="#fb8072" stroke="black" points="1019.41,-252 840.59,-252 840.59,-216 1019.41,-216 1019.41,-252"/>
<text text-anchor="middle" x="930" y="-229.8" font-family="Times,serif" font-size="14.00">EditionAccoladeComponent </text>
</g>
<!-- EditionAccoladeModule&#45;&gt;EditionAccoladeComponent  -->
<g id="edge9" class="edge">
<title>EditionAccoladeModule&#45;&gt;EditionAccoladeComponent </title>
<path fill="none" stroke="black" stroke-dasharray="5,2" d="M930,-187.11C930,-187.11 930,-205.99 930,-205.99"/>
<polygon fill="black" stroke="black" points="926.5,-205.99 930,-215.99 933.5,-205.99 926.5,-205.99"/>
</g>
<!-- EditionTkaDescriptionModule -->
<g id="node7" class="node">
<title>EditionTkaDescriptionModule</title>
<polygon fill="#8dd3c7" stroke="black" points="1623.85,-122 1620.85,-126 1599.85,-126 1596.85,-122 1436.15,-122 1436.15,-86 1623.85,-86 1623.85,-122"/>
<text text-anchor="middle" x="1530" y="-99.8" font-family="Times,serif" font-size="14.00">EditionTkaDescriptionModule</text>
</g>
<!-- EditionTkaDescriptionModule&#45;&gt;EditionAccoladeModule -->
<g id="edge6" class="edge">
<title>EditionTkaDescriptionModule&#45;&gt;EditionAccoladeModule</title>
<path fill="none" stroke="black" d="M1530,-122.29C1530,-144.21 1530,-178 1530,-178 1530,-178 1016.91,-178 1016.91,-178"/>
<polygon fill="black" stroke="black" points="1016.91,-174.5 1006.91,-178 1016.91,-181.5 1016.91,-174.5"/>
</g>
<!-- EditionTkaTableModule -->
<g id="node8" class="node">
<title>EditionTkaTableModule</title>
<polygon fill="#8dd3c7" stroke="black" points="1418.41,-122 1415.41,-126 1394.41,-126 1391.41,-122 1263.59,-122 1263.59,-86 1418.41,-86 1418.41,-122"/>
<text text-anchor="middle" x="1341" y="-99.8" font-family="Times,serif" font-size="14.00">EditionTkaTableModule</text>
</g>
<!-- EditionTkaTableModule&#45;&gt;EditionAccoladeModule -->
<g id="edge7" class="edge">
<title>EditionTkaTableModule&#45;&gt;EditionAccoladeModule</title>
<path fill="none" stroke="black" d="M1341,-122.11C1341,-141.34 1341,-169 1341,-169 1341,-169 1016.82,-169 1016.82,-169"/>
<polygon fill="black" stroke="black" points="1016.82,-165.5 1006.82,-169 1016.82,-172.5 1016.82,-165.5"/>
</g>
<!-- SharedModule -->
<g id="node9" class="node">
<title>SharedModule</title>
<polygon fill="#8dd3c7" stroke="black" points="1246.42,-122 1243.42,-126 1222.42,-126 1219.42,-122 1147.58,-122 1147.58,-86 1246.42,-86 1246.42,-122"/>
<text text-anchor="middle" x="1197" y="-99.8" font-family="Times,serif" font-size="14.00">SharedModule</text>
</g>
<!-- SharedModule&#45;&gt;EditionAccoladeModule -->
<g id="edge8" class="edge">
<title>SharedModule&#45;&gt;EditionAccoladeModule</title>
<path fill="none" stroke="black" d="M1197,-122.03C1197,-138.4 1197,-160 1197,-160 1197,-160 1016.87,-160 1016.87,-160"/>
<polygon fill="black" stroke="black" points="1016.87,-156.5 1006.87,-160 1016.87,-163.5 1016.87,-156.5"/>
</g>
</g>
</svg>
