<?xml version="1.0" encoding="UTF-8" standalone="no"?>
<!DOCTYPE svg PUBLIC "-//W3C//DTD SVG 1.1//EN"
 "http://www.w3.org/Graphics/SVG/1.1/DTD/svg11.dtd">
<!-- Generated by graphviz version 2.47.3 (20210619.1520)
 -->
<!-- Title: dependencies Pages: 1 -->
<svg width="935pt" height="247pt"
 viewBox="0.00 0.00 935.00 246.80" xmlns="http://www.w3.org/2000/svg" xmlns:xlink="http://www.w3.org/1999/xlink">
<g id="graph0" class="graph" transform="scale(1 1) rotate(0) translate(4 242.8)">
<title>dependencies</title>
<polygon fill="white" stroke="transparent" points="-4,4 -4,-242.8 931,-242.8 931,4 -4,4"/>
<text text-anchor="middle" x="463.5" y="-8.2" font-family="sans-serif" font-size="14.00">dependencies</text>
<g id="clust1" class="cluster">
<title>cluster_EditionAccoladeModule</title>
<polygon fill="none" stroke="black" stroke-dasharray="1,5" points="8,-32.8 8,-230.8 919,-230.8 919,-32.8 8,-32.8"/>
</g>
<g id="clust7" class="cluster">
<title>cluster_EditionAccoladeModule_exports</title>
<polygon fill="none" stroke="black" points="320,-170.8 320,-222.8 514,-222.8 514,-170.8 320,-170.8"/>
</g>
<g id="clust2" class="cluster">
<title>cluster_EditionAccoladeModule_declarations</title>
<polygon fill="none" stroke="black" points="310,-40.8 310,-92.8 911,-92.8 911,-40.8 310,-40.8"/>
</g>
<g id="clust6" class="cluster">
<title>cluster_EditionAccoladeModule_imports</title>
<polygon fill="none" stroke="black" points="16,-40.8 16,-92.8 302,-92.8 302,-40.8 16,-40.8"/>
</g>
<!-- EditionAccoladeComponent -->
<g id="node1" class="node">
<title>EditionAccoladeComponent</title>
<polygon fill="#ffffb3" stroke="black" points="902.91,-84.8 727.09,-84.8 727.09,-48.8 902.91,-48.8 902.91,-84.8"/>
<text text-anchor="middle" x="815" y="-62.6" font-family="Times,serif" font-size="14.00">EditionAccoladeComponent</text>
</g>
<!-- EditionAccoladeModule -->
<g id="node4" class="node">
<title>EditionAccoladeModule</title>
<polygon fill="#8dd3c7" stroke="black" points="493.63,-149.8 490.63,-153.8 469.63,-153.8 466.63,-149.8 340.37,-149.8 340.37,-113.8 493.63,-113.8 493.63,-149.8"/>
<text text-anchor="middle" x="417" y="-127.6" font-family="Times,serif" font-size="14.00">EditionAccoladeModule</text>
</g>
<!-- EditionAccoladeComponent&#45;&gt;EditionAccoladeModule -->
<g id="edge1" class="edge">
<title>EditionAccoladeComponent&#45;&gt;EditionAccoladeModule</title>
<path fill="none" stroke="black" d="M815,-85.08C815,-106.12 815,-137.8 815,-137.8 815,-137.8 503.74,-137.8 503.74,-137.8"/>
<polygon fill="black" stroke="black" points="503.74,-134.3 493.74,-137.8 503.74,-141.3 503.74,-134.3"/>
</g>
<!-- EditionSvgSheetComponent -->
<g id="node2" class="node">
<title>EditionSvgSheetComponent</title>
<polygon fill="#ffffb3" stroke="black" points="709.94,-84.8 534.06,-84.8 534.06,-48.8 709.94,-48.8 709.94,-84.8"/>
<text text-anchor="middle" x="622" y="-62.6" font-family="Times,serif" font-size="14.00">EditionSvgSheetComponent</text>
</g>
<!-- EditionSvgSheetComponent&#45;&gt;EditionAccoladeModule -->
<g id="edge2" class="edge">
<title>EditionSvgSheetComponent&#45;&gt;EditionAccoladeModule</title>
<path fill="none" stroke="black" d="M622,-84.82C622,-102.17 622,-125.8 622,-125.8 622,-125.8 503.92,-125.8 503.92,-125.8"/>
<polygon fill="black" stroke="black" points="503.92,-122.3 493.92,-125.8 503.92,-129.3 503.92,-122.3"/>
</g>
<!-- EditionSvgSheetNavComponent -->
<g id="node3" class="node">
<title>EditionSvgSheetNavComponent</title>
<polygon fill="#ffffb3" stroke="black" points="516.26,-84.8 317.74,-84.8 317.74,-48.8 516.26,-48.8 516.26,-84.8"/>
<text text-anchor="middle" x="417" y="-62.6" font-family="Times,serif" font-size="14.00">EditionSvgSheetNavComponent</text>
</g>
<!-- EditionSvgSheetNavComponent&#45;&gt;EditionAccoladeModule -->
<g id="edge3" class="edge">
<title>EditionSvgSheetNavComponent&#45;&gt;EditionAccoladeModule</title>
<path fill="none" stroke="black" d="M417,-84.91C417,-84.91 417,-103.79 417,-103.79"/>
<polygon fill="black" stroke="black" points="413.5,-103.79 417,-113.79 420.5,-103.79 413.5,-103.79"/>
</g>
<!-- EditionAccoladeComponent  -->
<g id="node7" class="node">
<title>EditionAccoladeComponent </title>
<polygon fill="#fb8072" stroke="black" points="506.41,-214.8 327.59,-214.8 327.59,-178.8 506.41,-178.8 506.41,-214.8"/>
<text text-anchor="middle" x="417" y="-192.6" font-family="Times,serif" font-size="14.00">EditionAccoladeComponent </text>
</g>
<!-- EditionAccoladeModule&#45;&gt;EditionAccoladeComponent  -->
<g id="edge6" class="edge">
<title>EditionAccoladeModule&#45;&gt;EditionAccoladeComponent </title>
<path fill="none" stroke="black" stroke-dasharray="5,2" d="M417,-149.91C417,-149.91 417,-168.79 417,-168.79"/>
<polygon fill="black" stroke="black" points="413.5,-168.79 417,-178.79 420.5,-168.79 413.5,-168.79"/>
</g>
<!-- EditionTkaTableModule -->
<g id="node5" class="node">
<title>EditionTkaTableModule</title>
<polygon fill="#8dd3c7" stroke="black" points="294.41,-84.8 291.41,-88.8 270.41,-88.8 267.41,-84.8 139.59,-84.8 139.59,-48.8 294.41,-48.8 294.41,-84.8"/>
<text text-anchor="middle" x="217" y="-62.6" font-family="Times,serif" font-size="14.00">EditionTkaTableModule</text>
</g>
<!-- EditionTkaTableModule&#45;&gt;EditionAccoladeModule -->
<g id="edge4" class="edge">
<title>EditionTkaTableModule&#45;&gt;EditionAccoladeModule</title>
<path fill="none" stroke="black" d="M217,-84.82C217,-102.17 217,-125.8 217,-125.8 217,-125.8 330.25,-125.8 330.25,-125.8"/>
<polygon fill="black" stroke="black" points="330.25,-129.3 340.25,-125.8 330.25,-122.3 330.25,-129.3"/>
</g>
<!-- SharedModule -->
<g id="node6" class="node">
<title>SharedModule</title>
<polygon fill="#8dd3c7" stroke="black" points="122.42,-84.8 119.42,-88.8 98.42,-88.8 95.42,-84.8 23.58,-84.8 23.58,-48.8 122.42,-48.8 122.42,-84.8"/>
<text text-anchor="middle" x="73" y="-62.6" font-family="Times,serif" font-size="14.00">SharedModule</text>
</g>
<!-- SharedModule&#45;&gt;EditionAccoladeModule -->
<g id="edge5" class="edge">
<title>SharedModule&#45;&gt;EditionAccoladeModule</title>
<path fill="none" stroke="black" d="M73,-85.08C73,-106.12 73,-137.8 73,-137.8 73,-137.8 330.23,-137.8 330.23,-137.8"/>
<polygon fill="black" stroke="black" points="330.23,-141.3 340.23,-137.8 330.23,-134.3 330.23,-141.3"/>
</g>
</g>
</svg>
