<?xml version="1.0" encoding="UTF-8" standalone="no"?>
<!DOCTYPE svg PUBLIC "-//W3C//DTD SVG 1.1//EN"
 "http://www.w3.org/Graphics/SVG/1.1/DTD/svg11.dtd">
<!-- Generated by graphviz version 2.47.0 (20210316.0004)
 -->
<!-- Title: dependencies Pages: 1 -->
<svg width="1450pt" height="284pt"
 viewBox="0.00 0.00 1450.00 284.00" xmlns="http://www.w3.org/2000/svg" xmlns:xlink="http://www.w3.org/1999/xlink">
<g id="graph0" class="graph" transform="scale(1 1) rotate(0) translate(4 280)">
<title>dependencies</title>
<polygon fill="white" stroke="transparent" points="-4,4 -4,-280 1446,-280 1446,4 -4,4"/>
<text text-anchor="start" x="700.01" y="-42.4" font-family="Times-12" font-weight="bold" font-size="14.00">Legend</text>
<polygon fill="#ffffb3" stroke="transparent" points="487,-10 487,-30 507,-30 507,-10 487,-10"/>
<text text-anchor="start" x="510.63" y="-15.4" font-family="Times-12" font-size="14.00"> &#160;Declarations</text>
<polygon fill="#8dd3c7" stroke="transparent" points="600,-10 600,-30 620,-30 620,-10 600,-10"/>
<text text-anchor="start" x="623.73" y="-15.4" font-family="Times-12" font-size="14.00"> &#160;Module</text>
<polygon fill="#80b1d3" stroke="transparent" points="686,-10 686,-30 706,-30 706,-10 686,-10"/>
<text text-anchor="start" x="709.78" y="-15.4" font-family="Times-12" font-size="14.00"> &#160;Bootstrap</text>
<polygon fill="#fdb462" stroke="transparent" points="783,-10 783,-30 803,-30 803,-10 783,-10"/>
<text text-anchor="start" x="806.67" y="-15.4" font-family="Times-12" font-size="14.00"> &#160;Providers</text>
<polygon fill="#fb8072" stroke="transparent" points="879,-10 879,-30 899,-30 899,-10 879,-10"/>
<text text-anchor="start" x="902.73" y="-15.4" font-family="Times-12" font-size="14.00"> &#160;Exports</text>
<g id="clust1" class="cluster">
<title>cluster_EditionAccoladeModule</title>
<polygon fill="none" stroke="black" stroke-dasharray="1,5" points="8,-70 8,-268 1434,-268 1434,-70 8,-70"/>
</g>
<g id="clust9" class="cluster">
<title>cluster_EditionAccoladeModule_exports</title>
<polygon fill="none" stroke="black" points="727,-208 727,-260 921,-260 921,-208 727,-208"/>
</g>
<g id="clust8" class="cluster">
<title>cluster_EditionAccoladeModule_imports</title>
<polygon fill="none" stroke="black" points="1140,-78 1140,-130 1426,-130 1426,-78 1140,-78"/>
</g>
<g id="clust2" class="cluster">
<title>cluster_EditionAccoladeModule_declarations</title>
<polygon fill="none" stroke="black" points="16,-78 16,-130 1132,-130 1132,-78 16,-78"/>
</g>
<!-- EditionAccoladeComponent -->
<g id="node1" class="node">
<title>EditionAccoladeComponent</title>
<polygon fill="#ffffb3" stroke="black" points="1123.91,-122 948.09,-122 948.09,-86 1123.91,-86 1123.91,-122"/>
<text text-anchor="middle" x="1036" y="-99.8" font-family="Times,serif" font-size="14.00">EditionAccoladeComponent</text>
</g>
<!-- EditionAccoladeModule -->
<g id="node6" class="node">
<title>EditionAccoladeModule</title>
<polygon fill="#8dd3c7" stroke="black" points="900.63,-187 897.63,-191 876.63,-191 873.63,-187 747.37,-187 747.37,-151 900.63,-151 900.63,-187"/>
<text text-anchor="middle" x="824" y="-164.8" font-family="Times,serif" font-size="14.00">EditionAccoladeModule</text>
</g>
<!-- EditionAccoladeComponent&#45;&gt;EditionAccoladeModule -->
<g id="edge1" class="edge">
<title>EditionAccoladeComponent&#45;&gt;EditionAccoladeModule</title>
<path fill="none" stroke="black" d="M1036,-122.03C1036,-138.4 1036,-160 1036,-160 1036,-160 910.84,-160 910.84,-160"/>
<polygon fill="black" stroke="black" points="910.84,-156.5 900.84,-160 910.84,-163.5 910.84,-156.5"/>
</g>
<!-- EditionSvgSheetFooterComponent -->
<g id="node2" class="node">
<title>EditionSvgSheetFooterComponent</title>
<polygon fill="#ffffb3" stroke="black" points="929.99,-122 718.01,-122 718.01,-86 929.99,-86 929.99,-122"/>
<text text-anchor="middle" x="824" y="-99.8" font-family="Times,serif" font-size="14.00">EditionSvgSheetFooterComponent</text>
</g>
<!-- EditionSvgSheetFooterComponent&#45;&gt;EditionAccoladeModule -->
<g id="edge2" class="edge">
<title>EditionSvgSheetFooterComponent&#45;&gt;EditionAccoladeModule</title>
<path fill="none" stroke="black" d="M824,-122.11C824,-122.11 824,-140.99 824,-140.99"/>
<polygon fill="black" stroke="black" points="820.5,-140.99 824,-150.99 827.5,-140.99 820.5,-140.99"/>
</g>
<!-- EditionSvgSheetNavComponent -->
<g id="node3" class="node">
<title>EditionSvgSheetNavComponent</title>
<polygon fill="#ffffb3" stroke="black" points="700.26,-122 501.74,-122 501.74,-86 700.26,-86 700.26,-122"/>
<text text-anchor="middle" x="601" y="-99.8" font-family="Times,serif" font-size="14.00">EditionSvgSheetNavComponent</text>
</g>
<!-- EditionSvgSheetNavComponent&#45;&gt;EditionAccoladeModule -->
<g id="edge3" class="edge">
<title>EditionSvgSheetNavComponent&#45;&gt;EditionAccoladeModule</title>
<path fill="none" stroke="black" d="M601,-122.03C601,-138.4 601,-160 601,-160 601,-160 737.26,-160 737.26,-160"/>
<polygon fill="black" stroke="black" points="737.26,-163.5 747.26,-160 737.26,-156.5 737.26,-163.5"/>
</g>
<!-- EditionSvgSheetNavItemComponent -->
<g id="node4" class="node">
<title>EditionSvgSheetNavItemComponent</title>
<polygon fill="#ffffb3" stroke="black" points="483.42,-122 258.58,-122 258.58,-86 483.42,-86 483.42,-122"/>
<text text-anchor="middle" x="371" y="-99.8" font-family="Times,serif" font-size="14.00">EditionSvgSheetNavItemComponent</text>
</g>
<!-- EditionSvgSheetNavItemComponent&#45;&gt;EditionAccoladeModule -->
<g id="edge4" class="edge">
<title>EditionSvgSheetNavItemComponent&#45;&gt;EditionAccoladeModule</title>
<path fill="none" stroke="black" d="M371,-122.11C371,-141.34 371,-169 371,-169 371,-169 737.15,-169 737.15,-169"/>
<polygon fill="black" stroke="black" points="737.15,-172.5 747.15,-169 737.15,-165.5 737.15,-172.5"/>
</g>
<!-- EditionSvgSheetViewerComponent -->
<g id="node5" class="node">
<title>EditionSvgSheetViewerComponent</title>
<polygon fill="#ffffb3" stroke="black" points="240.14,-122 23.86,-122 23.86,-86 240.14,-86 240.14,-122"/>
<text text-anchor="middle" x="132" y="-99.8" font-family="Times,serif" font-size="14.00">EditionSvgSheetViewerComponent</text>
</g>
<!-- EditionSvgSheetViewerComponent&#45;&gt;EditionAccoladeModule -->
<g id="edge5" class="edge">
<title>EditionSvgSheetViewerComponent&#45;&gt;EditionAccoladeModule</title>
<path fill="none" stroke="black" d="M132,-122.29C132,-144.21 132,-178 132,-178 132,-178 737.3,-178 737.3,-178"/>
<polygon fill="black" stroke="black" points="737.3,-181.5 747.3,-178 737.3,-174.5 737.3,-181.5"/>
</g>
<!-- EditionAccoladeComponent  -->
<g id="node9" class="node">
<title>EditionAccoladeComponent </title>
<polygon fill="#fb8072" stroke="black" points="913.41,-252 734.59,-252 734.59,-216 913.41,-216 913.41,-252"/>
<text text-anchor="middle" x="824" y="-229.8" font-family="Times,serif" font-size="14.00">EditionAccoladeComponent </text>
</g>
<!-- EditionAccoladeModule&#45;&gt;EditionAccoladeComponent  -->
<g id="edge8" class="edge">
<title>EditionAccoladeModule&#45;&gt;EditionAccoladeComponent </title>
<path fill="none" stroke="black" stroke-dasharray="5,2" d="M824,-187.11C824,-187.11 824,-205.99 824,-205.99"/>
<polygon fill="black" stroke="black" points="820.5,-205.99 824,-215.99 827.5,-205.99 820.5,-205.99"/>
</g>
<!-- EditionTkaTableModule -->
<g id="node7" class="node">
<title>EditionTkaTableModule</title>
<polygon fill="#8dd3c7" stroke="black" points="1418.41,-122 1415.41,-126 1394.41,-126 1391.41,-122 1263.59,-122 1263.59,-86 1418.41,-86 1418.41,-122"/>
<text text-anchor="middle" x="1341" y="-99.8" font-family="Times,serif" font-size="14.00">EditionTkaTableModule</text>
</g>
<!-- EditionTkaTableModule&#45;&gt;EditionAccoladeModule -->
<g id="edge6" class="edge">
<title>EditionTkaTableModule&#45;&gt;EditionAccoladeModule</title>
<path fill="none" stroke="black" d="M1341,-122.29C1341,-144.21 1341,-178 1341,-178 1341,-178 910.84,-178 910.84,-178"/>
<polygon fill="black" stroke="black" points="910.84,-174.5 900.84,-178 910.84,-181.5 910.84,-174.5"/>
</g>
<!-- SharedModule -->
<g id="node8" class="node">
<title>SharedModule</title>
<polygon fill="#8dd3c7" stroke="black" points="1246.42,-122 1243.42,-126 1222.42,-126 1219.42,-122 1147.58,-122 1147.58,-86 1246.42,-86 1246.42,-122"/>
<text text-anchor="middle" x="1197" y="-99.8" font-family="Times,serif" font-size="14.00">SharedModule</text>
</g>
<!-- SharedModule&#45;&gt;EditionAccoladeModule -->
<g id="edge7" class="edge">
<title>SharedModule&#45;&gt;EditionAccoladeModule</title>
<path fill="none" stroke="black" d="M1197,-122.11C1197,-141.34 1197,-169 1197,-169 1197,-169 910.83,-169 910.83,-169"/>
<polygon fill="black" stroke="black" points="910.83,-165.5 900.83,-169 910.83,-172.5 910.83,-165.5"/>
</g>
</g>
</svg>
