<?xml version="1.0" encoding="UTF-8" standalone="no"?>
<!DOCTYPE svg PUBLIC "-//W3C//DTD SVG 1.1//EN"
 "http://www.w3.org/Graphics/SVG/1.1/DTD/svg11.dtd">
<!-- Generated by graphviz version 2.47.3 (20210619.1520)
 -->
<!-- Title: dependencies Pages: 1 -->
<svg width="1834pt" height="174pt"
 viewBox="0.00 0.00 1834.00 173.80" xmlns="http://www.w3.org/2000/svg" xmlns:xlink="http://www.w3.org/1999/xlink">
<g id="graph0" class="graph" transform="scale(1 1) rotate(0) translate(4 169.8)">
<title>dependencies</title>
<polygon fill="white" stroke="transparent" points="-4,4 -4,-169.8 1830,-169.8 1830,4 -4,4"/>
<text text-anchor="middle" x="913" y="-8.2" font-family="sans-serif" font-size="14.00">dependencies</text>
<g id="clust1" class="cluster">
<title>cluster_EditionSheetsModule</title>
<polygon fill="none" stroke="black" stroke-dasharray="1,5" points="8,-32.8 8,-157.8 1818,-157.8 1818,-32.8 8,-32.8"/>
</g>
<g id="clust2" class="cluster">
<title>cluster_EditionSheetsModule_declarations</title>
<polygon fill="none" stroke="black" points="618,-40.8 618,-92.8 1810,-92.8 1810,-40.8 618,-40.8"/>
</g>
<g id="clust9" class="cluster">
<title>cluster_EditionSheetsModule_imports</title>
<polygon fill="none" stroke="black" points="16,-40.8 16,-92.8 610,-92.8 610,-40.8 16,-40.8"/>
</g>
<!-- EditionAccoladeComponent -->
<g id="node1" class="node">
<title>EditionAccoladeComponent</title>
<polygon fill="#ffffb3" stroke="black" points="1801.91,-84.8 1626.09,-84.8 1626.09,-48.8 1801.91,-48.8 1801.91,-84.8"/>
<text text-anchor="middle" x="1714" y="-62.6" font-family="Times,serif" font-size="14.00">EditionAccoladeComponent</text>
</g>
<!-- EditionSheetsModule -->
<g id="node7" class="node">
<title>EditionSheetsModule</title>
<polygon fill="#8dd3c7" stroke="black" points="901.82,-149.8 898.82,-153.8 877.82,-153.8 874.82,-149.8 764.18,-149.8 764.18,-113.8 901.82,-113.8 901.82,-149.8"/>
<text text-anchor="middle" x="833" y="-127.6" font-family="Times,serif" font-size="14.00">EditionSheetsModule</text>
</g>
<!-- EditionAccoladeComponent&#45;&gt;EditionSheetsModule -->
<g id="edge1" class="edge">
<title>EditionAccoladeComponent&#45;&gt;EditionSheetsModule</title>
<path fill="none" stroke="black" d="M1714,-84.81C1714,-107.29 1714,-142.8 1714,-142.8 1714,-142.8 911.76,-142.8 911.76,-142.8"/>
<polygon fill="black" stroke="black" points="911.76,-139.3 901.76,-142.8 911.76,-146.3 911.76,-139.3"/>
</g>
<!-- EditionConvoluteComponent -->
<g id="node2" class="node">
<title>EditionConvoluteComponent</title>
<polygon fill="#ffffb3" stroke="black" points="1608.39,-84.8 1427.61,-84.8 1427.61,-48.8 1608.39,-48.8 1608.39,-84.8"/>
<text text-anchor="middle" x="1518" y="-62.6" font-family="Times,serif" font-size="14.00">EditionConvoluteComponent</text>
</g>
<!-- EditionConvoluteComponent&#45;&gt;EditionSheetsModule -->
<g id="edge2" class="edge">
<title>EditionConvoluteComponent&#45;&gt;EditionSheetsModule</title>
<path fill="none" stroke="black" d="M1518,-84.93C1518,-105.37 1518,-135.8 1518,-135.8 1518,-135.8 911.82,-135.8 911.82,-135.8"/>
<polygon fill="black" stroke="black" points="911.82,-132.3 901.82,-135.8 911.82,-139.3 911.82,-132.3"/>
</g>
<!-- EditionSheetsComponent -->
<g id="node3" class="node">
<title>EditionSheetsComponent</title>
<polygon fill="#ffffb3" stroke="black" points="1409.6,-84.8 1250.4,-84.8 1250.4,-48.8 1409.6,-48.8 1409.6,-84.8"/>
<text text-anchor="middle" x="1330" y="-62.6" font-family="Times,serif" font-size="14.00">EditionSheetsComponent</text>
</g>
<!-- EditionSheetsComponent&#45;&gt;EditionSheetsModule -->
<g id="edge3" class="edge">
<title>EditionSheetsComponent&#45;&gt;EditionSheetsModule</title>
<path fill="none" stroke="black" d="M1330,-85.07C1330,-103.36 1330,-128.8 1330,-128.8 1330,-128.8 911.84,-128.8 911.84,-128.8"/>
<polygon fill="black" stroke="black" points="911.84,-125.3 901.84,-128.8 911.84,-132.3 911.84,-125.3"/>
</g>
<!-- EditionSvgSheetComponent -->
<g id="node4" class="node">
<title>EditionSvgSheetComponent</title>
<polygon fill="#ffffb3" stroke="black" points="1232.94,-84.8 1057.06,-84.8 1057.06,-48.8 1232.94,-48.8 1232.94,-84.8"/>
<text text-anchor="middle" x="1145" y="-62.6" font-family="Times,serif" font-size="14.00">EditionSvgSheetComponent</text>
</g>
<!-- EditionSvgSheetComponent&#45;&gt;EditionSheetsModule -->
<g id="edge4" class="edge">
<title>EditionSvgSheetComponent&#45;&gt;EditionSheetsModule</title>
<path fill="none" stroke="black" d="M1145,-84.81C1145,-100.85 1145,-121.8 1145,-121.8 1145,-121.8 911.86,-121.8 911.86,-121.8"/>
<polygon fill="black" stroke="black" points="911.86,-118.3 901.86,-121.8 911.86,-125.3 911.86,-118.3"/>
</g>
<!-- EditionSvgSheetListComponent -->
<g id="node5" class="node">
<title>EditionSvgSheetListComponent</title>
<polygon fill="#ffffb3" stroke="black" points="1039.72,-84.8 842.28,-84.8 842.28,-48.8 1039.72,-48.8 1039.72,-84.8"/>
<text text-anchor="middle" x="941" y="-62.6" font-family="Times,serif" font-size="14.00">EditionSvgSheetListComponent</text>
</g>
<!-- EditionSvgSheetListComponent&#45;&gt;EditionSheetsModule -->
<g id="edge5" class="edge">
<title>EditionSvgSheetListComponent&#45;&gt;EditionSheetsModule</title>
<path fill="none" stroke="black" d="M872.03,-84.91C872.03,-84.91 872.03,-103.79 872.03,-103.79"/>
<polygon fill="black" stroke="black" points="868.53,-103.79 872.03,-113.79 875.53,-103.79 868.53,-103.79"/>
</g>
<!-- EditionSvgSheetNavComponent -->
<g id="node6" class="node">
<title>EditionSvgSheetNavComponent</title>
<polygon fill="#ffffb3" stroke="black" points="824.26,-84.8 625.74,-84.8 625.74,-48.8 824.26,-48.8 824.26,-84.8"/>
<text text-anchor="middle" x="725" y="-62.6" font-family="Times,serif" font-size="14.00">EditionSvgSheetNavComponent</text>
</g>
<!-- EditionSvgSheetNavComponent&#45;&gt;EditionSheetsModule -->
<g id="edge6" class="edge">
<title>EditionSvgSheetNavComponent&#45;&gt;EditionSheetsModule</title>
<path fill="none" stroke="black" d="M794.36,-84.91C794.36,-84.91 794.36,-103.79 794.36,-103.79"/>
<polygon fill="black" stroke="black" points="790.86,-103.79 794.36,-113.79 797.86,-103.79 790.86,-103.79"/>
</g>
<!-- EditionSheetsRoutingModule -->
<g id="node8" class="node">
<title>EditionSheetsRoutingModule</title>
<polygon fill="#8dd3c7" stroke="black" points="602.44,-84.8 599.44,-88.8 578.44,-88.8 575.44,-84.8 419.56,-84.8 419.56,-48.8 602.44,-48.8 602.44,-84.8"/>
<text text-anchor="middle" x="511" y="-62.6" font-family="Times,serif" font-size="14.00">EditionSheetsRoutingModule</text>
</g>
<!-- EditionSheetsRoutingModule&#45;&gt;EditionSheetsModule -->
<g id="edge7" class="edge">
<title>EditionSheetsRoutingModule&#45;&gt;EditionSheetsModule</title>
<path fill="none" stroke="black" d="M511,-84.81C511,-100.85 511,-121.8 511,-121.8 511,-121.8 754.32,-121.8 754.32,-121.8"/>
<polygon fill="black" stroke="black" points="754.32,-125.3 764.32,-121.8 754.32,-118.3 754.32,-125.3"/>
</g>
<!-- EditionTkaTableModule -->
<g id="node9" class="node">
<title>EditionTkaTableModule</title>
<polygon fill="#8dd3c7" stroke="black" points="402.41,-84.8 399.41,-88.8 378.41,-88.8 375.41,-84.8 247.59,-84.8 247.59,-48.8 402.41,-48.8 402.41,-84.8"/>
<text text-anchor="middle" x="325" y="-62.6" font-family="Times,serif" font-size="14.00">EditionTkaTableModule</text>
</g>
<!-- EditionTkaTableModule&#45;&gt;EditionSheetsModule -->
<g id="edge8" class="edge">
<title>EditionTkaTableModule&#45;&gt;EditionSheetsModule</title>
<path fill="none" stroke="black" d="M325,-85.07C325,-103.36 325,-128.8 325,-128.8 325,-128.8 754.22,-128.8 754.22,-128.8"/>
<polygon fill="black" stroke="black" points="754.22,-132.3 764.22,-128.8 754.22,-125.3 754.22,-132.3"/>
</g>
<!-- FolioModule -->
<g id="node10" class="node">
<title>FolioModule</title>
<polygon fill="#8dd3c7" stroke="black" points="229.61,-84.8 226.61,-88.8 205.61,-88.8 202.61,-84.8 140.39,-84.8 140.39,-48.8 229.61,-48.8 229.61,-84.8"/>
<text text-anchor="middle" x="185" y="-62.6" font-family="Times,serif" font-size="14.00">FolioModule</text>
</g>
<!-- FolioModule&#45;&gt;EditionSheetsModule -->
<g id="edge9" class="edge">
<title>FolioModule&#45;&gt;EditionSheetsModule</title>
<path fill="none" stroke="black" d="M185,-84.93C185,-105.37 185,-135.8 185,-135.8 185,-135.8 754.27,-135.8 754.27,-135.8"/>
<polygon fill="black" stroke="black" points="754.27,-139.3 764.27,-135.8 754.27,-132.3 754.27,-139.3"/>
</g>
<!-- SharedModule -->
<g id="node11" class="node">
<title>SharedModule</title>
<polygon fill="#8dd3c7" stroke="black" points="122.42,-84.8 119.42,-88.8 98.42,-88.8 95.42,-84.8 23.58,-84.8 23.58,-48.8 122.42,-48.8 122.42,-84.8"/>
<text text-anchor="middle" x="73" y="-62.6" font-family="Times,serif" font-size="14.00">SharedModule</text>
</g>
<!-- SharedModule&#45;&gt;EditionSheetsModule -->
<g id="edge10" class="edge">
<title>SharedModule&#45;&gt;EditionSheetsModule</title>
<path fill="none" stroke="black" d="M73,-84.81C73,-107.29 73,-142.8 73,-142.8 73,-142.8 754.21,-142.8 754.21,-142.8"/>
<polygon fill="black" stroke="black" points="754.21,-146.3 764.21,-142.8 754.21,-139.3 754.21,-146.3"/>
</g>
</g>
</svg>
