<?xml version="1.0" encoding="UTF-8" standalone="no"?>
<!DOCTYPE svg PUBLIC "-//W3C//DTD SVG 1.1//EN"
 "http://www.w3.org/Graphics/SVG/1.1/DTD/svg11.dtd">
<!-- Generated by graphviz version 2.47.3 (20210619.1520)
 -->
<!-- Title: dependencies Pages: 1 -->
<svg width="1834pt" height="174pt"
 viewBox="0.00 0.00 1834.00 173.80" xmlns="http://www.w3.org/2000/svg" xmlns:xlink="http://www.w3.org/1999/xlink">
<g id="graph0" class="graph" transform="scale(1 1) rotate(0) translate(4 169.8)">
<title>dependencies</title>
<polygon fill="white" stroke="transparent" points="-4,4 -4,-169.8 1830,-169.8 1830,4 -4,4"/>
<text text-anchor="middle" x="913" y="-8.2" font-family="sans-serif" font-size="14.00">dependencies</text>
<g id="clust1" class="cluster">
<title>cluster_EditionSheetsModule</title>
<polygon fill="none" stroke="black" stroke-dasharray="1,5" points="8,-32.8 8,-157.8 1818,-157.8 1818,-32.8 8,-32.8"/>
</g>
<g id="clust9" class="cluster">
<title>cluster_EditionSheetsModule_imports</title>
<polygon fill="none" stroke="black" points="1216,-40.8 1216,-92.8 1810,-92.8 1810,-40.8 1216,-40.8"/>
</g>
<g id="clust2" class="cluster">
<title>cluster_EditionSheetsModule_declarations</title>
<polygon fill="none" stroke="black" points="16,-40.8 16,-92.8 1208,-92.8 1208,-40.8 16,-40.8"/>
</g>
<!-- EditionAccoladeComponent -->
<g id="node1" class="node">
<title>EditionAccoladeComponent</title>
<polygon fill="#ffffb3" stroke="black" points="1199.91,-84.8 1024.09,-84.8 1024.09,-48.8 1199.91,-48.8 1199.91,-84.8"/>
<text text-anchor="middle" x="1112" y="-62.6" font-family="Times,serif" font-size="14.00">EditionAccoladeComponent</text>
</g>
<!-- EditionSheetsModule -->
<g id="node7" class="node">
<title>EditionSheetsModule</title>
<polygon fill="#8dd3c7" stroke="black" points="1082.82,-149.8 1079.82,-153.8 1058.82,-153.8 1055.82,-149.8 945.18,-149.8 945.18,-113.8 1082.82,-113.8 1082.82,-149.8"/>
<text text-anchor="middle" x="1014" y="-127.6" font-family="Times,serif" font-size="14.00">EditionSheetsModule</text>
</g>
<!-- EditionAccoladeComponent&#45;&gt;EditionSheetsModule -->
<g id="edge1" class="edge">
<title>EditionAccoladeComponent&#45;&gt;EditionSheetsModule</title>
<path fill="none" stroke="black" d="M1053.48,-84.91C1053.48,-84.91 1053.48,-103.79 1053.48,-103.79"/>
<polygon fill="black" stroke="black" points="1049.98,-103.79 1053.48,-113.79 1056.98,-103.79 1049.98,-103.79"/>
</g>
<!-- EditionConvoluteComponent -->
<g id="node2" class="node">
<title>EditionConvoluteComponent</title>
<polygon fill="#ffffb3" stroke="black" points="1006.39,-84.8 825.61,-84.8 825.61,-48.8 1006.39,-48.8 1006.39,-84.8"/>
<text text-anchor="middle" x="916" y="-62.6" font-family="Times,serif" font-size="14.00">EditionConvoluteComponent</text>
</g>
<!-- EditionConvoluteComponent&#45;&gt;EditionSheetsModule -->
<g id="edge2" class="edge">
<title>EditionConvoluteComponent&#45;&gt;EditionSheetsModule</title>
<path fill="none" stroke="black" d="M975.89,-84.91C975.89,-84.91 975.89,-103.79 975.89,-103.79"/>
<polygon fill="black" stroke="black" points="972.39,-103.79 975.89,-113.79 979.39,-103.79 972.39,-103.79"/>
</g>
<!-- EditionSheetsComponent -->
<g id="node3" class="node">
<title>EditionSheetsComponent</title>
<polygon fill="#ffffb3" stroke="black" points="807.6,-84.8 648.4,-84.8 648.4,-48.8 807.6,-48.8 807.6,-84.8"/>
<text text-anchor="middle" x="728" y="-62.6" font-family="Times,serif" font-size="14.00">EditionSheetsComponent</text>
</g>
<!-- EditionSheetsComponent&#45;&gt;EditionSheetsModule -->
<g id="edge3" class="edge">
<title>EditionSheetsComponent&#45;&gt;EditionSheetsModule</title>
<path fill="none" stroke="black" d="M728,-84.81C728,-100.85 728,-121.8 728,-121.8 728,-121.8 935.13,-121.8 935.13,-121.8"/>
<polygon fill="black" stroke="black" points="935.13,-125.3 945.13,-121.8 935.13,-118.3 935.13,-125.3"/>
</g>
<!-- EditionSvgSheetComponent -->
<g id="node4" class="node">
<title>EditionSvgSheetComponent</title>
<polygon fill="#ffffb3" stroke="black" points="630.94,-84.8 455.06,-84.8 455.06,-48.8 630.94,-48.8 630.94,-84.8"/>
<text text-anchor="middle" x="543" y="-62.6" font-family="Times,serif" font-size="14.00">EditionSvgSheetComponent</text>
</g>
<!-- EditionSvgSheetComponent&#45;&gt;EditionSheetsModule -->
<g id="edge4" class="edge">
<title>EditionSvgSheetComponent&#45;&gt;EditionSheetsModule</title>
<path fill="none" stroke="black" d="M543,-85.07C543,-103.36 543,-128.8 543,-128.8 543,-128.8 935.26,-128.8 935.26,-128.8"/>
<polygon fill="black" stroke="black" points="935.26,-132.3 945.26,-128.8 935.26,-125.3 935.26,-132.3"/>
</g>
<!-- EditionSvgSheetListComponent -->
<g id="node5" class="node">
<title>EditionSvgSheetListComponent</title>
<polygon fill="#ffffb3" stroke="black" points="437.72,-84.8 240.28,-84.8 240.28,-48.8 437.72,-48.8 437.72,-84.8"/>
<text text-anchor="middle" x="339" y="-62.6" font-family="Times,serif" font-size="14.00">EditionSvgSheetListComponent</text>
</g>
<!-- EditionSvgSheetListComponent&#45;&gt;EditionSheetsModule -->
<g id="edge5" class="edge">
<title>EditionSvgSheetListComponent&#45;&gt;EditionSheetsModule</title>
<path fill="none" stroke="black" d="M339,-84.93C339,-105.37 339,-135.8 339,-135.8 339,-135.8 935.25,-135.8 935.25,-135.8"/>
<polygon fill="black" stroke="black" points="935.25,-139.3 945.25,-135.8 935.25,-132.3 935.25,-139.3"/>
</g>
<!-- EditionSvgSheetNavComponent -->
<g id="node6" class="node">
<title>EditionSvgSheetNavComponent</title>
<polygon fill="#ffffb3" stroke="black" points="222.26,-84.8 23.74,-84.8 23.74,-48.8 222.26,-48.8 222.26,-84.8"/>
<text text-anchor="middle" x="123" y="-62.6" font-family="Times,serif" font-size="14.00">EditionSvgSheetNavComponent</text>
</g>
<!-- EditionSvgSheetNavComponent&#45;&gt;EditionSheetsModule -->
<g id="edge6" class="edge">
<title>EditionSvgSheetNavComponent&#45;&gt;EditionSheetsModule</title>
<path fill="none" stroke="black" d="M123,-84.81C123,-107.29 123,-142.8 123,-142.8 123,-142.8 935.2,-142.8 935.2,-142.8"/>
<polygon fill="black" stroke="black" points="935.2,-146.3 945.2,-142.8 935.2,-139.3 935.2,-146.3"/>
</g>
<!-- EditionSheetsRoutingModule -->
<g id="node8" class="node">
<title>EditionSheetsRoutingModule</title>
<polygon fill="#8dd3c7" stroke="black" points="1802.44,-84.8 1799.44,-88.8 1778.44,-88.8 1775.44,-84.8 1619.56,-84.8 1619.56,-48.8 1802.44,-48.8 1802.44,-84.8"/>
<text text-anchor="middle" x="1711" y="-62.6" font-family="Times,serif" font-size="14.00">EditionSheetsRoutingModule</text>
</g>
<!-- EditionSheetsRoutingModule&#45;&gt;EditionSheetsModule -->
<g id="edge7" class="edge">
<title>EditionSheetsRoutingModule&#45;&gt;EditionSheetsModule</title>
<path fill="none" stroke="black" d="M1711,-84.81C1711,-107.29 1711,-142.8 1711,-142.8 1711,-142.8 1092.74,-142.8 1092.74,-142.8"/>
<polygon fill="black" stroke="black" points="1092.74,-139.3 1082.74,-142.8 1092.74,-146.3 1092.74,-139.3"/>
</g>
<!-- EditionTkaTableModule -->
<g id="node9" class="node">
<title>EditionTkaTableModule</title>
<polygon fill="#8dd3c7" stroke="black" points="1602.41,-84.8 1599.41,-88.8 1578.41,-88.8 1575.41,-84.8 1447.59,-84.8 1447.59,-48.8 1602.41,-48.8 1602.41,-84.8"/>
<text text-anchor="middle" x="1525" y="-62.6" font-family="Times,serif" font-size="14.00">EditionTkaTableModule</text>
</g>
<!-- EditionTkaTableModule&#45;&gt;EditionSheetsModule -->
<g id="edge8" class="edge">
<title>EditionTkaTableModule&#45;&gt;EditionSheetsModule</title>
<path fill="none" stroke="black" d="M1525,-84.93C1525,-105.37 1525,-135.8 1525,-135.8 1525,-135.8 1092.92,-135.8 1092.92,-135.8"/>
<polygon fill="black" stroke="black" points="1092.92,-132.3 1082.92,-135.8 1092.92,-139.3 1092.92,-132.3"/>
</g>
<!-- FolioModule -->
<g id="node10" class="node">
<title>FolioModule</title>
<polygon fill="#8dd3c7" stroke="black" points="1429.61,-84.8 1426.61,-88.8 1405.61,-88.8 1402.61,-84.8 1340.39,-84.8 1340.39,-48.8 1429.61,-48.8 1429.61,-84.8"/>
<text text-anchor="middle" x="1385" y="-62.6" font-family="Times,serif" font-size="14.00">FolioModule</text>
</g>
<!-- FolioModule&#45;&gt;EditionSheetsModule -->
<g id="edge9" class="edge">
<title>FolioModule&#45;&gt;EditionSheetsModule</title>
<path fill="none" stroke="black" d="M1385,-85.07C1385,-103.36 1385,-128.8 1385,-128.8 1385,-128.8 1092.91,-128.8 1092.91,-128.8"/>
<polygon fill="black" stroke="black" points="1092.91,-125.3 1082.91,-128.8 1092.91,-132.3 1092.91,-125.3"/>
</g>
<!-- SharedModule -->
<g id="node11" class="node">
<title>SharedModule</title>
<polygon fill="#8dd3c7" stroke="black" points="1322.42,-84.8 1319.42,-88.8 1298.42,-88.8 1295.42,-84.8 1223.58,-84.8 1223.58,-48.8 1322.42,-48.8 1322.42,-84.8"/>
<text text-anchor="middle" x="1273" y="-62.6" font-family="Times,serif" font-size="14.00">SharedModule</text>
</g>
<!-- SharedModule&#45;&gt;EditionSheetsModule -->
<g id="edge10" class="edge">
<title>SharedModule&#45;&gt;EditionSheetsModule</title>
<path fill="none" stroke="black" d="M1273,-84.81C1273,-100.85 1273,-121.8 1273,-121.8 1273,-121.8 1092.73,-121.8 1092.73,-121.8"/>
<polygon fill="black" stroke="black" points="1092.73,-118.3 1082.73,-121.8 1092.73,-125.3 1092.73,-118.3"/>
</g>
</g>
</svg>
