<?xml version="1.0" encoding="UTF-8" standalone="no"?>
<!DOCTYPE svg PUBLIC "-//W3C//DTD SVG 1.1//EN"
 "http://www.w3.org/Graphics/SVG/1.1/DTD/svg11.dtd">
<!-- Generated by graphviz version 2.47.3 (20210619.1520)
 -->
<!-- Title: dependencies Pages: 1 -->
<svg width="887pt" height="174pt"
 viewBox="0.00 0.00 887.00 173.80" xmlns="http://www.w3.org/2000/svg" xmlns:xlink="http://www.w3.org/1999/xlink">
<g id="graph0" class="graph" transform="scale(1 1) rotate(0) translate(4 169.8)">
<title>dependencies</title>
<polygon fill="white" stroke="transparent" points="-4,4 -4,-169.8 883,-169.8 883,4 -4,4"/>
<text text-anchor="middle" x="439.5" y="-8.2" font-family="sans-serif" font-size="14.00">dependencies</text>
<g id="clust1" class="cluster">
<title>cluster_EditionSheetsModule</title>
<polygon fill="none" stroke="black" stroke-dasharray="1,5" points="8,-32.8 8,-157.8 871,-157.8 871,-32.8 8,-32.8"/>
</g>
<g id="clust2" class="cluster">
<title>cluster_EditionSheetsModule_declarations</title>
<polygon fill="none" stroke="black" points="687,-40.8 687,-92.8 863,-92.8 863,-40.8 687,-40.8"/>
</g>
<g id="clust4" class="cluster">
<title>cluster_EditionSheetsModule_imports</title>
<polygon fill="none" stroke="black" points="16,-40.8 16,-92.8 679,-92.8 679,-40.8 16,-40.8"/>
</g>
<!-- EditionSheetsComponent -->
<g id="node1" class="node">
<title>EditionSheetsComponent</title>
<polygon fill="#ffffb3" stroke="black" points="854.6,-84.8 695.4,-84.8 695.4,-48.8 854.6,-48.8 854.6,-84.8"/>
<text text-anchor="middle" x="775" y="-62.6" font-family="Times,serif" font-size="14.00">EditionSheetsComponent</text>
</g>
<!-- EditionSheetsModule -->
<g id="node2" class="node">
<title>EditionSheetsModule</title>
<polygon fill="#8dd3c7" stroke="black" points="488.82,-149.8 485.82,-153.8 464.82,-153.8 461.82,-149.8 351.18,-149.8 351.18,-113.8 488.82,-113.8 488.82,-149.8"/>
<text text-anchor="middle" x="420" y="-127.6" font-family="Times,serif" font-size="14.00">EditionSheetsModule</text>
</g>
<!-- EditionSheetsComponent&#45;&gt;EditionSheetsModule -->
<g id="edge1" class="edge">
<title>EditionSheetsComponent&#45;&gt;EditionSheetsModule</title>
<path fill="none" stroke="black" d="M775,-85.08C775,-106.12 775,-137.8 775,-137.8 775,-137.8 498.87,-137.8 498.87,-137.8"/>
<polygon fill="black" stroke="black" points="498.87,-134.3 488.87,-137.8 498.87,-141.3 498.87,-134.3"/>
</g>
<!-- EditionAccoladeModule -->
<g id="node3" class="node">
<title>EditionAccoladeModule</title>
<polygon fill="#8dd3c7" stroke="black" points="670.63,-84.8 667.63,-88.8 646.63,-88.8 643.63,-84.8 517.37,-84.8 517.37,-48.8 670.63,-48.8 670.63,-84.8"/>
<text text-anchor="middle" x="594" y="-62.6" font-family="Times,serif" font-size="14.00">EditionAccoladeModule</text>
</g>
<!-- EditionAccoladeModule&#45;&gt;EditionSheetsModule -->
<g id="edge2" class="edge">
<title>EditionAccoladeModule&#45;&gt;EditionSheetsModule</title>
<path fill="none" stroke="black" d="M594,-84.82C594,-102.17 594,-125.8 594,-125.8 594,-125.8 498.77,-125.8 498.77,-125.8"/>
<polygon fill="black" stroke="black" points="498.77,-122.3 488.77,-125.8 498.77,-129.3 498.77,-122.3"/>
</g>
<!-- EditionConvoluteModule -->
<g id="node4" class="node">
<title>EditionConvoluteModule</title>
<polygon fill="#8dd3c7" stroke="black" points="499.61,-84.8 496.61,-88.8 475.61,-88.8 472.61,-84.8 340.39,-84.8 340.39,-48.8 499.61,-48.8 499.61,-84.8"/>
<text text-anchor="middle" x="420" y="-62.6" font-family="Times,serif" font-size="14.00">EditionConvoluteModule</text>
</g>
<!-- EditionConvoluteModule&#45;&gt;EditionSheetsModule -->
<g id="edge3" class="edge">
<title>EditionConvoluteModule&#45;&gt;EditionSheetsModule</title>
<path fill="none" stroke="black" d="M420,-84.91C420,-84.91 420,-103.79 420,-103.79"/>
<polygon fill="black" stroke="black" points="416.5,-103.79 420,-113.79 423.5,-103.79 416.5,-103.79"/>
</g>
<!-- EditionSheetsRoutingModule -->
<g id="node5" class="node">
<title>EditionSheetsRoutingModule</title>
<polygon fill="#8dd3c7" stroke="black" points="322.44,-84.8 319.44,-88.8 298.44,-88.8 295.44,-84.8 139.56,-84.8 139.56,-48.8 322.44,-48.8 322.44,-84.8"/>
<text text-anchor="middle" x="231" y="-62.6" font-family="Times,serif" font-size="14.00">EditionSheetsRoutingModule</text>
</g>
<!-- EditionSheetsRoutingModule&#45;&gt;EditionSheetsModule -->
<g id="edge4" class="edge">
<title>EditionSheetsRoutingModule&#45;&gt;EditionSheetsModule</title>
<path fill="none" stroke="black" d="M231,-84.82C231,-102.17 231,-125.8 231,-125.8 231,-125.8 341.23,-125.8 341.23,-125.8"/>
<polygon fill="black" stroke="black" points="341.23,-129.3 351.23,-125.8 341.23,-122.3 341.23,-129.3"/>
</g>
<!-- SharedModule -->
<g id="node6" class="node">
<title>SharedModule</title>
<polygon fill="#8dd3c7" stroke="black" points="122.42,-84.8 119.42,-88.8 98.42,-88.8 95.42,-84.8 23.58,-84.8 23.58,-48.8 122.42,-48.8 122.42,-84.8"/>
<text text-anchor="middle" x="73" y="-62.6" font-family="Times,serif" font-size="14.00">SharedModule</text>
</g>
<!-- SharedModule&#45;&gt;EditionSheetsModule -->
<g id="edge5" class="edge">
<title>SharedModule&#45;&gt;EditionSheetsModule</title>
<path fill="none" stroke="black" d="M73,-85.08C73,-106.12 73,-137.8 73,-137.8 73,-137.8 341.03,-137.8 341.03,-137.8"/>
<polygon fill="black" stroke="black" points="341.03,-141.3 351.03,-137.8 341.03,-134.3 341.03,-141.3"/>
</g>
</g>
</svg>
