<?xml version="1.0" encoding="UTF-8" standalone="no"?>
<!DOCTYPE svg PUBLIC "-//W3C//DTD SVG 1.1//EN"
 "http://www.w3.org/Graphics/SVG/1.1/DTD/svg11.dtd">
<!-- Generated by graphviz version 5.0.0 (20220707.1540)
 -->
<!-- Title: dependencies Pages: 1 -->
<svg width="887pt" height="174pt"
 viewBox="0.00 0.00 887.00 173.80" xmlns="http://www.w3.org/2000/svg" xmlns:xlink="http://www.w3.org/1999/xlink">
<g id="graph0" class="graph" transform="scale(1 1) rotate(0) translate(4 169.8)">
<title>dependencies</title>
<polygon fill="white" stroke="transparent" points="-4,4 -4,-169.8 883,-169.8 883,4 -4,4"/>
<text text-anchor="middle" x="439.5" y="-8.2" font-family="sans-serif" font-size="14.00">dependencies</text>
<g id="clust1" class="cluster">
<title>cluster_EditionSheetsModule</title>
<polygon fill="none" stroke="black" stroke-dasharray="1,5" points="8,-32.8 8,-157.8 871,-157.8 871,-32.8 8,-32.8"/>
</g>
<g id="clust4" class="cluster">
<title>cluster_EditionSheetsModule_imports</title>
<polygon fill="none" stroke="black" points="200,-40.8 200,-92.8 863,-92.8 863,-40.8 200,-40.8"/>
</g>
<g id="clust2" class="cluster">
<title>cluster_EditionSheetsModule_declarations</title>
<polygon fill="none" stroke="black" points="16,-40.8 16,-92.8 192,-92.8 192,-40.8 16,-40.8"/>
</g>
<!-- EditionSheetsComponent -->
<g id="node1" class="node">
<title>EditionSheetsComponent</title>
<polygon fill="#ffffb3" stroke="black" points="183.6,-84.8 24.4,-84.8 24.4,-48.8 183.6,-48.8 183.6,-84.8"/>
<text text-anchor="middle" x="104" y="-62.6" font-family="Times,serif" font-size="14.00">EditionSheetsComponent</text>
</g>
<!-- EditionSheetsModule -->
<g id="node2" class="node">
<title>EditionSheetsModule</title>
<polygon fill="#8dd3c7" stroke="black" points="483.82,-149.8 480.82,-153.8 459.82,-153.8 456.82,-149.8 346.18,-149.8 346.18,-113.8 483.82,-113.8 483.82,-149.8"/>
<text text-anchor="middle" x="415" y="-127.6" font-family="Times,serif" font-size="14.00">EditionSheetsModule</text>
</g>
<!-- EditionSheetsComponent&#45;&gt;EditionSheetsModule -->
<g id="edge1" class="edge">
<title>EditionSheetsComponent&#45;&gt;EditionSheetsModule</title>
<path fill="none" stroke="black" d="M104,-85.08C104,-106.12 104,-137.8 104,-137.8 104,-137.8 335.98,-137.8 335.98,-137.8"/>
<polygon fill="black" stroke="black" points="335.98,-141.3 345.98,-137.8 335.98,-134.3 335.98,-141.3"/>
</g>
<!-- EditionAccoladeModule -->
<g id="node3" class="node">
<title>EditionAccoladeModule</title>
<polygon fill="#8dd3c7" stroke="black" points="854.63,-84.8 851.63,-88.8 830.63,-88.8 827.63,-84.8 701.37,-84.8 701.37,-48.8 854.63,-48.8 854.63,-84.8"/>
<text text-anchor="middle" x="778" y="-62.6" font-family="Times,serif" font-size="14.00">EditionAccoladeModule</text>
</g>
<!-- EditionAccoladeModule&#45;&gt;EditionSheetsModule -->
<g id="edge2" class="edge">
<title>EditionAccoladeModule&#45;&gt;EditionSheetsModule</title>
<path fill="none" stroke="black" d="M778,-85.08C778,-106.12 778,-137.8 778,-137.8 778,-137.8 493.7,-137.8 493.7,-137.8"/>
<polygon fill="black" stroke="black" points="493.7,-134.3 483.7,-137.8 493.7,-141.3 493.7,-134.3"/>
</g>
<!-- EditionConvoluteModule -->
<g id="node4" class="node">
<title>EditionConvoluteModule</title>
<polygon fill="#8dd3c7" stroke="black" points="683.6,-84.8 680.6,-88.8 659.6,-88.8 656.6,-84.8 524.4,-84.8 524.4,-48.8 683.6,-48.8 683.6,-84.8"/>
<text text-anchor="middle" x="604" y="-62.6" font-family="Times,serif" font-size="14.00">EditionConvoluteModule</text>
</g>
<!-- EditionConvoluteModule&#45;&gt;EditionSheetsModule -->
<g id="edge3" class="edge">
<title>EditionConvoluteModule&#45;&gt;EditionSheetsModule</title>
<path fill="none" stroke="black" d="M604,-84.82C604,-102.17 604,-125.8 604,-125.8 604,-125.8 493.77,-125.8 493.77,-125.8"/>
<polygon fill="black" stroke="black" points="493.77,-122.3 483.77,-125.8 493.77,-129.3 493.77,-122.3"/>
</g>
<!-- EditionSheetsRoutingModule -->
<g id="node5" class="node">
<title>EditionSheetsRoutingModule</title>
<polygon fill="#8dd3c7" stroke="black" points="506.44,-84.8 503.44,-88.8 482.44,-88.8 479.44,-84.8 323.56,-84.8 323.56,-48.8 506.44,-48.8 506.44,-84.8"/>
<text text-anchor="middle" x="415" y="-62.6" font-family="Times,serif" font-size="14.00">EditionSheetsRoutingModule</text>
</g>
<!-- EditionSheetsRoutingModule&#45;&gt;EditionSheetsModule -->
<g id="edge4" class="edge">
<title>EditionSheetsRoutingModule&#45;&gt;EditionSheetsModule</title>
<path fill="none" stroke="black" d="M415,-84.91C415,-84.91 415,-103.79 415,-103.79"/>
<polygon fill="black" stroke="black" points="411.5,-103.79 415,-113.79 418.5,-103.79 411.5,-103.79"/>
</g>
<!-- SharedModule -->
<g id="node6" class="node">
<title>SharedModule</title>
<polygon fill="#8dd3c7" stroke="black" points="306.43,-84.8 303.43,-88.8 282.43,-88.8 279.43,-84.8 207.57,-84.8 207.57,-48.8 306.43,-48.8 306.43,-84.8"/>
<text text-anchor="middle" x="257" y="-62.6" font-family="Times,serif" font-size="14.00">SharedModule</text>
</g>
<!-- SharedModule&#45;&gt;EditionSheetsModule -->
<g id="edge5" class="edge">
<title>SharedModule&#45;&gt;EditionSheetsModule</title>
<path fill="none" stroke="black" d="M257,-84.82C257,-102.17 257,-125.8 257,-125.8 257,-125.8 336.16,-125.8 336.16,-125.8"/>
<polygon fill="black" stroke="black" points="336.16,-129.3 346.16,-125.8 336.16,-122.3 336.16,-129.3"/>
</g>
</g>
</svg>
