<?xml version="1.0" encoding="UTF-8" standalone="no"?>
<!DOCTYPE svg PUBLIC "-//W3C//DTD SVG 1.1//EN"
 "http://www.w3.org/Graphics/SVG/1.1/DTD/svg11.dtd">
<!-- Generated by graphviz version 2.47.3 (20210619.1520)
 -->
<!-- Title: dependencies Pages: 1 -->
<svg width="2162pt" height="247pt"
 viewBox="0.00 0.00 2162.00 246.80" xmlns="http://www.w3.org/2000/svg" xmlns:xlink="http://www.w3.org/1999/xlink">
<g id="graph0" class="graph" transform="scale(1 1) rotate(0) translate(4 242.8)">
<title>dependencies</title>
<polygon fill="white" stroke="transparent" points="-4,4 -4,-242.8 2158,-242.8 2158,4 -4,4"/>
<text text-anchor="middle" x="1077" y="-8.2" font-family="sans-serif" font-size="14.00">dependencies</text>
<g id="clust1" class="cluster">
<title>cluster_GraphVisualizerModule</title>
<polygon fill="none" stroke="black" stroke-dasharray="1,5" points="8,-32.8 8,-230.8 2146,-230.8 2146,-32.8 8,-32.8"/>
</g>
<g id="clust14" class="cluster">
<title>cluster_GraphVisualizerModule_exports</title>
<polygon fill="none" stroke="black" points="990,-170.8 990,-222.8 1184,-222.8 1184,-170.8 990,-170.8"/>
</g>
<g id="clust16" class="cluster">
<title>cluster_GraphVisualizerModule_providers</title>
<polygon fill="none" stroke="black" points="1914,-40.8 1914,-92.8 2138,-92.8 2138,-40.8 1914,-40.8"/>
</g>
<g id="clust2" class="cluster">
<title>cluster_GraphVisualizerModule_declarations</title>
<polygon fill="none" stroke="black" points="138,-40.8 138,-92.8 1906,-92.8 1906,-40.8 138,-40.8"/>
</g>
<g id="clust13" class="cluster">
<title>cluster_GraphVisualizerModule_imports</title>
<polygon fill="none" stroke="black" points="16,-40.8 16,-92.8 130,-92.8 130,-40.8 16,-40.8"/>
</g>
<!-- ConstructResultsComponent -->
<g id="node1" class="node">
<title>ConstructResultsComponent</title>
<polygon fill="#ffffb3" stroke="black" points="1898.49,-84.8 1721.51,-84.8 1721.51,-48.8 1898.49,-48.8 1898.49,-84.8"/>
<text text-anchor="middle" x="1810" y="-62.6" font-family="Times,serif" font-size="14.00">ConstructResultsComponent</text>
</g>
<!-- GraphVisualizerModule -->
<g id="node11" class="node">
<title>GraphVisualizerModule</title>
<polygon fill="#8dd3c7" stroke="black" points="1163.06,-149.8 1160.06,-153.8 1139.06,-153.8 1136.06,-149.8 1010.94,-149.8 1010.94,-113.8 1163.06,-113.8 1163.06,-149.8"/>
<text text-anchor="middle" x="1087" y="-127.6" font-family="Times,serif" font-size="14.00">GraphVisualizerModule</text>
</g>
<!-- ConstructResultsComponent&#45;&gt;GraphVisualizerModule -->
<g id="edge1" class="edge">
<title>ConstructResultsComponent&#45;&gt;GraphVisualizerModule</title>
<path fill="none" stroke="black" d="M1810,-85.08C1810,-106.12 1810,-137.8 1810,-137.8 1810,-137.8 1173.35,-137.8 1173.35,-137.8"/>
<polygon fill="black" stroke="black" points="1173.35,-134.3 1163.35,-137.8 1173.35,-141.3 1173.35,-134.3"/>
</g>
<!-- ForceGraphComponent -->
<g id="node2" class="node">
<title>ForceGraphComponent</title>
<polygon fill="#ffffb3" stroke="black" points="1703.19,-84.8 1554.81,-84.8 1554.81,-48.8 1703.19,-48.8 1703.19,-84.8"/>
<text text-anchor="middle" x="1629" y="-62.6" font-family="Times,serif" font-size="14.00">ForceGraphComponent</text>
</g>
<!-- ForceGraphComponent&#45;&gt;GraphVisualizerModule -->
<g id="edge2" class="edge">
<title>ForceGraphComponent&#45;&gt;GraphVisualizerModule</title>
<path fill="none" stroke="black" d="M1629,-84.91C1629,-104.14 1629,-131.8 1629,-131.8 1629,-131.8 1173.22,-131.8 1173.22,-131.8"/>
<polygon fill="black" stroke="black" points="1173.22,-128.3 1163.22,-131.8 1173.22,-135.3 1173.22,-128.3"/>
</g>
<!-- GraphVisualizerComponent -->
<g id="node3" class="node">
<title>GraphVisualizerComponent</title>
<polygon fill="#ffffb3" stroke="black" points="1536.84,-84.8 1363.16,-84.8 1363.16,-48.8 1536.84,-48.8 1536.84,-84.8"/>
<text text-anchor="middle" x="1450" y="-62.6" font-family="Times,serif" font-size="14.00">GraphVisualizerComponent</text>
</g>
<!-- GraphVisualizerComponent&#45;&gt;GraphVisualizerModule -->
<g id="edge3" class="edge">
<title>GraphVisualizerComponent&#45;&gt;GraphVisualizerModule</title>
<path fill="none" stroke="black" d="M1450,-84.82C1450,-102.17 1450,-125.8 1450,-125.8 1450,-125.8 1173.1,-125.8 1173.1,-125.8"/>
<polygon fill="black" stroke="black" points="1173.1,-122.3 1163.1,-125.8 1173.1,-129.3 1173.1,-122.3"/>
</g>
<!-- PrefixPipe -->
<g id="node4" class="node">
<title>PrefixPipe</title>
<polygon fill="#ffffb3" stroke="black" points="1345.6,-84.8 1270.4,-84.8 1270.4,-48.8 1345.6,-48.8 1345.6,-84.8"/>
<text text-anchor="middle" x="1308" y="-62.6" font-family="Times,serif" font-size="14.00">PrefixPipe</text>
</g>
<!-- PrefixPipe&#45;&gt;GraphVisualizerModule -->
<g id="edge4" class="edge">
<title>PrefixPipe&#45;&gt;GraphVisualizerModule</title>
<path fill="none" stroke="black" d="M1308,-85.04C1308,-100.37 1308,-119.8 1308,-119.8 1308,-119.8 1173.06,-119.8 1173.06,-119.8"/>
<polygon fill="black" stroke="black" points="1173.06,-116.3 1163.06,-119.8 1173.06,-123.3 1173.06,-116.3"/>
</g>
<!-- SelectResultsComponent -->
<g id="node5" class="node">
<title>SelectResultsComponent</title>
<polygon fill="#ffffb3" stroke="black" points="1252.26,-84.8 1095.74,-84.8 1095.74,-48.8 1252.26,-48.8 1252.26,-84.8"/>
<text text-anchor="middle" x="1174" y="-62.6" font-family="Times,serif" font-size="14.00">SelectResultsComponent</text>
</g>
<!-- SelectResultsComponent&#45;&gt;GraphVisualizerModule -->
<g id="edge5" class="edge">
<title>SelectResultsComponent&#45;&gt;GraphVisualizerModule</title>
<path fill="none" stroke="black" d="M1129.32,-84.91C1129.32,-84.91 1129.32,-103.79 1129.32,-103.79"/>
<polygon fill="black" stroke="black" points="1125.82,-103.79 1129.32,-113.79 1132.82,-103.79 1125.82,-103.79"/>
</g>
<!-- SparqlEditorComponent -->
<g id="node6" class="node">
<title>SparqlEditorComponent</title>
<polygon fill="#ffffb3" stroke="black" points="1077.38,-84.8 924.62,-84.8 924.62,-48.8 1077.38,-48.8 1077.38,-84.8"/>
<text text-anchor="middle" x="1001" y="-62.6" font-family="Times,serif" font-size="14.00">SparqlEditorComponent</text>
</g>
<!-- SparqlEditorComponent&#45;&gt;GraphVisualizerModule -->
<g id="edge6" class="edge">
<title>SparqlEditorComponent&#45;&gt;GraphVisualizerModule</title>
<path fill="none" stroke="black" d="M1044.2,-84.91C1044.2,-84.91 1044.2,-103.79 1044.2,-103.79"/>
<polygon fill="black" stroke="black" points="1040.7,-103.79 1044.2,-113.79 1047.7,-103.79 1040.7,-103.79"/>
</g>
<!-- SparqlNoResultsComponent -->
<g id="node7" class="node">
<title>SparqlNoResultsComponent</title>
<polygon fill="#ffffb3" stroke="black" points="906.21,-84.8 729.79,-84.8 729.79,-48.8 906.21,-48.8 906.21,-84.8"/>
<text text-anchor="middle" x="818" y="-62.6" font-family="Times,serif" font-size="14.00">SparqlNoResultsComponent</text>
</g>
<!-- SparqlNoResultsComponent&#45;&gt;GraphVisualizerModule -->
<g id="edge7" class="edge">
<title>SparqlNoResultsComponent&#45;&gt;GraphVisualizerModule</title>
<path fill="none" stroke="black" d="M818,-85.04C818,-100.37 818,-119.8 818,-119.8 818,-119.8 1000.63,-119.8 1000.63,-119.8"/>
<polygon fill="black" stroke="black" points="1000.63,-123.3 1010.63,-119.8 1000.63,-116.3 1000.63,-123.3"/>
</g>
<!-- SparqlTableComponent -->
<g id="node8" class="node">
<title>SparqlTableComponent</title>
<polygon fill="#ffffb3" stroke="black" points="711.75,-84.8 562.25,-84.8 562.25,-48.8 711.75,-48.8 711.75,-84.8"/>
<text text-anchor="middle" x="637" y="-62.6" font-family="Times,serif" font-size="14.00">SparqlTableComponent</text>
</g>
<!-- SparqlTableComponent&#45;&gt;GraphVisualizerModule -->
<g id="edge8" class="edge">
<title>SparqlTableComponent&#45;&gt;GraphVisualizerModule</title>
<path fill="none" stroke="black" d="M637,-84.82C637,-102.17 637,-125.8 637,-125.8 637,-125.8 1000.92,-125.8 1000.92,-125.8"/>
<polygon fill="black" stroke="black" points="1000.92,-129.3 1010.92,-125.8 1000.92,-122.3 1000.92,-129.3"/>
</g>
<!-- TriplesEditorComponent -->
<g id="node9" class="node">
<title>TriplesEditorComponent</title>
<polygon fill="#ffffb3" stroke="black" points="543.98,-84.8 388.02,-84.8 388.02,-48.8 543.98,-48.8 543.98,-84.8"/>
<text text-anchor="middle" x="466" y="-62.6" font-family="Times,serif" font-size="14.00">TriplesEditorComponent</text>
</g>
<!-- TriplesEditorComponent&#45;&gt;GraphVisualizerModule -->
<g id="edge9" class="edge">
<title>TriplesEditorComponent&#45;&gt;GraphVisualizerModule</title>
<path fill="none" stroke="black" d="M466,-84.91C466,-104.14 466,-131.8 466,-131.8 466,-131.8 1000.85,-131.8 1000.85,-131.8"/>
<polygon fill="black" stroke="black" points="1000.85,-135.3 1010.85,-131.8 1000.85,-128.3 1000.85,-135.3"/>
</g>
<!-- UnsupportedTypeResultsComponent -->
<g id="node10" class="node">
<title>UnsupportedTypeResultsComponent</title>
<polygon fill="#ffffb3" stroke="black" points="369.64,-84.8 146.36,-84.8 146.36,-48.8 369.64,-48.8 369.64,-84.8"/>
<text text-anchor="middle" x="258" y="-62.6" font-family="Times,serif" font-size="14.00">UnsupportedTypeResultsComponent</text>
</g>
<!-- UnsupportedTypeResultsComponent&#45;&gt;GraphVisualizerModule -->
<g id="edge10" class="edge">
<title>UnsupportedTypeResultsComponent&#45;&gt;GraphVisualizerModule</title>
<path fill="none" stroke="black" d="M258,-85.08C258,-106.12 258,-137.8 258,-137.8 258,-137.8 1000.87,-137.8 1000.87,-137.8"/>
<polygon fill="black" stroke="black" points="1000.87,-141.3 1010.87,-137.8 1000.87,-134.3 1000.87,-141.3"/>
</g>
<!-- GraphVisualizerComponent  -->
<g id="node13" class="node">
<title>GraphVisualizerComponent </title>
<polygon fill="#fb8072" stroke="black" points="1175.84,-214.8 998.16,-214.8 998.16,-178.8 1175.84,-178.8 1175.84,-214.8"/>
<text text-anchor="middle" x="1087" y="-192.6" font-family="Times,serif" font-size="14.00">GraphVisualizerComponent </text>
</g>
<!-- GraphVisualizerModule&#45;&gt;GraphVisualizerComponent  -->
<g id="edge12" class="edge">
<title>GraphVisualizerModule&#45;&gt;GraphVisualizerComponent </title>
<path fill="none" stroke="black" stroke-dasharray="5,2" d="M1087,-149.91C1087,-149.91 1087,-168.79 1087,-168.79"/>
<polygon fill="black" stroke="black" points="1083.5,-168.79 1087,-178.79 1090.5,-168.79 1083.5,-168.79"/>
</g>
<!-- SharedModule -->
<g id="node12" class="node">
<title>SharedModule</title>
<polygon fill="#8dd3c7" stroke="black" points="122.42,-84.8 119.42,-88.8 98.42,-88.8 95.42,-84.8 23.58,-84.8 23.58,-48.8 122.42,-48.8 122.42,-84.8"/>
<text text-anchor="middle" x="73" y="-62.6" font-family="Times,serif" font-size="14.00">SharedModule</text>
</g>
<!-- SharedModule&#45;&gt;GraphVisualizerModule -->
<g id="edge11" class="edge">
<title>SharedModule&#45;&gt;GraphVisualizerModule</title>
<path fill="none" stroke="black" d="M73,-85.05C73,-107.82 73,-143.8 73,-143.8 73,-143.8 1000.79,-143.8 1000.79,-143.8"/>
<polygon fill="black" stroke="black" points="1000.79,-147.3 1010.79,-143.8 1000.79,-140.3 1000.79,-147.3"/>
</g>
<!-- GraphVisualizerService -->
<g id="node14" class="node">
<title>GraphVisualizerService</title>
<ellipse fill="#fdb462" stroke="black" cx="2026" cy="-66.8" rx="103.61" ry="18"/>
<text text-anchor="middle" x="2026" y="-62.6" font-family="Times,serif" font-size="14.00">GraphVisualizerService</text>
</g>
<!-- GraphVisualizerService&#45;&gt;GraphVisualizerModule -->
<g id="edge13" class="edge">
<title>GraphVisualizerService&#45;&gt;GraphVisualizerModule</title>
<path fill="none" stroke="black" d="M2026,-85.05C2026,-107.82 2026,-143.8 2026,-143.8 2026,-143.8 1173.05,-143.8 1173.05,-143.8"/>
<polygon fill="black" stroke="black" points="1173.05,-140.3 1163.05,-143.8 1173.05,-147.3 1173.05,-140.3"/>
</g>
</g>
</svg>
