<?xml version="1.0" encoding="UTF-8" standalone="no"?>
<!DOCTYPE svg PUBLIC "-//W3C//DTD SVG 1.1//EN"
 "http://www.w3.org/Graphics/SVG/1.1/DTD/svg11.dtd">
<!-- Generated by graphviz version 2.47.0 (20210316.0004)
 -->
<!-- Title: dependencies Pages: 1 -->
<svg width="1786pt" height="284pt"
 viewBox="0.00 0.00 1786.00 284.00" xmlns="http://www.w3.org/2000/svg" xmlns:xlink="http://www.w3.org/1999/xlink">
<g id="graph0" class="graph" transform="scale(1 1) rotate(0) translate(4 280)">
<title>dependencies</title>
<polygon fill="white" stroke="transparent" points="-4,4 -4,-280 1782,-280 1782,4 -4,4"/>
<text text-anchor="start" x="868.01" y="-42.4" font-family="sans-serif" font-weight="bold" font-size="14.00">Legend</text>
<polygon fill="#ffffb3" stroke="transparent" points="655,-10 655,-30 675,-30 675,-10 655,-10"/>
<text text-anchor="start" x="678.63" y="-15.4" font-family="sans-serif" font-size="14.00"> &#160;Declarations</text>
<polygon fill="#8dd3c7" stroke="transparent" points="768,-10 768,-30 788,-30 788,-10 768,-10"/>
<text text-anchor="start" x="791.73" y="-15.4" font-family="sans-serif" font-size="14.00"> &#160;Module</text>
<polygon fill="#80b1d3" stroke="transparent" points="854,-10 854,-30 874,-30 874,-10 854,-10"/>
<text text-anchor="start" x="877.78" y="-15.4" font-family="sans-serif" font-size="14.00"> &#160;Bootstrap</text>
<polygon fill="#fdb462" stroke="transparent" points="951,-10 951,-30 971,-30 971,-10 951,-10"/>
<text text-anchor="start" x="974.67" y="-15.4" font-family="sans-serif" font-size="14.00"> &#160;Providers</text>
<polygon fill="#fb8072" stroke="transparent" points="1047,-10 1047,-30 1067,-30 1067,-10 1047,-10"/>
<text text-anchor="start" x="1070.73" y="-15.4" font-family="sans-serif" font-size="14.00"> &#160;Exports</text>
<g id="clust1" class="cluster">
<title>cluster_GraphVisualizerModule</title>
<polygon fill="none" stroke="black" stroke-dasharray="1,5" points="8,-70 8,-268 1770,-268 1770,-70 8,-70"/>
</g>
<g id="clust12" class="cluster">
<title>cluster_GraphVisualizerModule_imports</title>
<polygon fill="none" stroke="black" points="1648,-78 1648,-130 1762,-130 1762,-78 1648,-78"/>
</g>
<g id="clust13" class="cluster">
<title>cluster_GraphVisualizerModule_exports</title>
<polygon fill="none" stroke="black" points="797,-208 797,-260 991,-260 991,-208 797,-208"/>
</g>
<g id="clust2" class="cluster">
<title>cluster_GraphVisualizerModule_declarations</title>
<polygon fill="none" stroke="black" points="16,-78 16,-130 1640,-130 1640,-78 16,-78"/>
</g>
<!-- ConstructResultsComponent -->
<g id="node1" class="node">
<title>ConstructResultsComponent</title>
<polygon fill="#ffffb3" stroke="black" points="1632.49,-122 1455.51,-122 1455.51,-86 1632.49,-86 1632.49,-122"/>
<text text-anchor="middle" x="1544" y="-99.8" font-family="Times,serif" font-size="14.00">ConstructResultsComponent</text>
</g>
<!-- GraphVisualizerModule -->
<g id="node10" class="node">
<title>GraphVisualizerModule</title>
<polygon fill="#8dd3c7" stroke="black" points="970.06,-187 967.06,-191 946.06,-191 943.06,-187 817.94,-187 817.94,-151 970.06,-151 970.06,-187"/>
<text text-anchor="middle" x="894" y="-164.8" font-family="Times,serif" font-size="14.00">GraphVisualizerModule</text>
</g>
<!-- ConstructResultsComponent&#45;&gt;GraphVisualizerModule -->
<g id="edge1" class="edge">
<title>ConstructResultsComponent&#45;&gt;GraphVisualizerModule</title>
<path fill="none" stroke="black" d="M1544,-122.13C1544,-142.57 1544,-173 1544,-173 1544,-173 980.15,-173 980.15,-173"/>
<polygon fill="black" stroke="black" points="980.15,-169.5 970.15,-173 980.15,-176.5 980.15,-169.5"/>
</g>
<!-- ForceGraphComponent -->
<g id="node2" class="node">
<title>ForceGraphComponent</title>
<polygon fill="#ffffb3" stroke="black" points="1437.19,-122 1288.81,-122 1288.81,-86 1437.19,-86 1437.19,-122"/>
<text text-anchor="middle" x="1363" y="-99.8" font-family="Times,serif" font-size="14.00">ForceGraphComponent</text>
</g>
<!-- ForceGraphComponent&#45;&gt;GraphVisualizerModule -->
<g id="edge2" class="edge">
<title>ForceGraphComponent&#45;&gt;GraphVisualizerModule</title>
<path fill="none" stroke="black" d="M1363,-122.27C1363,-140.56 1363,-166 1363,-166 1363,-166 980.14,-166 980.14,-166"/>
<polygon fill="black" stroke="black" points="980.14,-162.5 970.14,-166 980.14,-169.5 980.14,-162.5"/>
</g>
<!-- ForceGraphNoResultComponent -->
<g id="node3" class="node">
<title>ForceGraphNoResultComponent</title>
<polygon fill="#ffffb3" stroke="black" points="1270.57,-122 1069.43,-122 1069.43,-86 1270.57,-86 1270.57,-122"/>
<text text-anchor="middle" x="1170" y="-99.8" font-family="Times,serif" font-size="14.00">ForceGraphNoResultComponent</text>
</g>
<!-- ForceGraphNoResultComponent&#45;&gt;GraphVisualizerModule -->
<g id="edge3" class="edge">
<title>ForceGraphNoResultComponent&#45;&gt;GraphVisualizerModule</title>
<path fill="none" stroke="black" d="M1170,-122.01C1170,-138.05 1170,-159 1170,-159 1170,-159 980.15,-159 980.15,-159"/>
<polygon fill="black" stroke="black" points="980.15,-155.5 970.15,-159 980.15,-162.5 980.15,-155.5"/>
</g>
<!-- GraphVisualizerComponent -->
<g id="node4" class="node">
<title>GraphVisualizerComponent</title>
<polygon fill="#ffffb3" stroke="black" points="1051.84,-122 878.16,-122 878.16,-86 1051.84,-86 1051.84,-122"/>
<text text-anchor="middle" x="965" y="-99.8" font-family="Times,serif" font-size="14.00">GraphVisualizerComponent</text>
</g>
<!-- GraphVisualizerComponent&#45;&gt;GraphVisualizerModule -->
<g id="edge4" class="edge">
<title>GraphVisualizerComponent&#45;&gt;GraphVisualizerModule</title>
<path fill="none" stroke="black" d="M924.05,-122.11C924.05,-122.11 924.05,-140.99 924.05,-140.99"/>
<polygon fill="black" stroke="black" points="920.55,-140.99 924.05,-150.99 927.55,-140.99 920.55,-140.99"/>
</g>
<!-- PrefixPipe -->
<g id="node5" class="node">
<title>PrefixPipe</title>
<polygon fill="#ffffb3" stroke="black" points="860.6,-122 785.4,-122 785.4,-86 860.6,-86 860.6,-122"/>
<text text-anchor="middle" x="823" y="-99.8" font-family="Times,serif" font-size="14.00">PrefixPipe</text>
</g>
<!-- PrefixPipe&#45;&gt;GraphVisualizerModule -->
<g id="edge5" class="edge">
<title>PrefixPipe&#45;&gt;GraphVisualizerModule</title>
<path fill="none" stroke="black" d="M839.26,-122.11C839.26,-122.11 839.26,-140.99 839.26,-140.99"/>
<polygon fill="black" stroke="black" points="835.76,-140.99 839.26,-150.99 842.76,-140.99 835.76,-140.99"/>
</g>
<!-- SelectResultsComponent -->
<g id="node6" class="node">
<title>SelectResultsComponent</title>
<polygon fill="#ffffb3" stroke="black" points="767.26,-122 610.74,-122 610.74,-86 767.26,-86 767.26,-122"/>
<text text-anchor="middle" x="689" y="-99.8" font-family="Times,serif" font-size="14.00">SelectResultsComponent</text>
</g>
<!-- SelectResultsComponent&#45;&gt;GraphVisualizerModule -->
<g id="edge6" class="edge">
<title>SelectResultsComponent&#45;&gt;GraphVisualizerModule</title>
<path fill="none" stroke="black" d="M689,-122.01C689,-138.05 689,-159 689,-159 689,-159 807.96,-159 807.96,-159"/>
<polygon fill="black" stroke="black" points="807.96,-162.5 817.96,-159 807.96,-155.5 807.96,-162.5"/>
</g>
<!-- SparqlEditorComponent -->
<g id="node7" class="node">
<title>SparqlEditorComponent</title>
<polygon fill="#ffffb3" stroke="black" points="592.38,-122 439.62,-122 439.62,-86 592.38,-86 592.38,-122"/>
<text text-anchor="middle" x="516" y="-99.8" font-family="Times,serif" font-size="14.00">SparqlEditorComponent</text>
</g>
<!-- SparqlEditorComponent&#45;&gt;GraphVisualizerModule -->
<g id="edge7" class="edge">
<title>SparqlEditorComponent&#45;&gt;GraphVisualizerModule</title>
<path fill="none" stroke="black" d="M516,-122.27C516,-140.56 516,-166 516,-166 516,-166 807.96,-166 807.96,-166"/>
<polygon fill="black" stroke="black" points="807.96,-169.5 817.96,-166 807.96,-162.5 807.96,-169.5"/>
</g>
<!-- TriplesEditorComponent -->
<g id="node8" class="node">
<title>TriplesEditorComponent</title>
<polygon fill="#ffffb3" stroke="black" points="421.98,-122 266.02,-122 266.02,-86 421.98,-86 421.98,-122"/>
<text text-anchor="middle" x="344" y="-99.8" font-family="Times,serif" font-size="14.00">TriplesEditorComponent</text>
</g>
<!-- TriplesEditorComponent&#45;&gt;GraphVisualizerModule -->
<g id="edge8" class="edge">
<title>TriplesEditorComponent&#45;&gt;GraphVisualizerModule</title>
<path fill="none" stroke="black" d="M344,-122.13C344,-142.57 344,-173 344,-173 344,-173 807.81,-173 807.81,-173"/>
<polygon fill="black" stroke="black" points="807.81,-176.5 817.81,-173 807.81,-169.5 807.81,-176.5"/>
</g>
<!-- UnsupportedTypeResultsComponent -->
<g id="node9" class="node">
<title>UnsupportedTypeResultsComponent</title>
<polygon fill="#ffffb3" stroke="black" points="247.64,-122 24.36,-122 24.36,-86 247.64,-86 247.64,-122"/>
<text text-anchor="middle" x="136" y="-99.8" font-family="Times,serif" font-size="14.00">UnsupportedTypeResultsComponent</text>
</g>
<!-- UnsupportedTypeResultsComponent&#45;&gt;GraphVisualizerModule -->
<g id="edge9" class="edge">
<title>UnsupportedTypeResultsComponent&#45;&gt;GraphVisualizerModule</title>
<path fill="none" stroke="black" d="M136,-122.01C136,-144.49 136,-180 136,-180 136,-180 807.85,-180 807.85,-180"/>
<polygon fill="black" stroke="black" points="807.85,-183.5 817.85,-180 807.85,-176.5 807.85,-183.5"/>
</g>
<!-- GraphVisualizerComponent  -->
<g id="node12" class="node">
<title>GraphVisualizerComponent </title>
<polygon fill="#fb8072" stroke="black" points="982.84,-252 805.16,-252 805.16,-216 982.84,-216 982.84,-252"/>
<text text-anchor="middle" x="894" y="-229.8" font-family="Times,serif" font-size="14.00">GraphVisualizerComponent </text>
</g>
<!-- GraphVisualizerModule&#45;&gt;GraphVisualizerComponent  -->
<g id="edge11" class="edge">
<title>GraphVisualizerModule&#45;&gt;GraphVisualizerComponent </title>
<path fill="none" stroke="black" stroke-dasharray="5,2" d="M894,-187.11C894,-187.11 894,-205.99 894,-205.99"/>
<polygon fill="black" stroke="black" points="890.5,-205.99 894,-215.99 897.5,-205.99 890.5,-205.99"/>
</g>
<!-- SharedModule -->
<g id="node11" class="node">
<title>SharedModule</title>
<polygon fill="#8dd3c7" stroke="black" points="1754.42,-122 1751.42,-126 1730.42,-126 1727.42,-122 1655.58,-122 1655.58,-86 1754.42,-86 1754.42,-122"/>
<text text-anchor="middle" x="1705" y="-99.8" font-family="Times,serif" font-size="14.00">SharedModule</text>
</g>
<!-- SharedModule&#45;&gt;GraphVisualizerModule -->
<g id="edge10" class="edge">
<title>SharedModule&#45;&gt;GraphVisualizerModule</title>
<path fill="none" stroke="black" d="M1705,-122.01C1705,-144.49 1705,-180 1705,-180 1705,-180 980.3,-180 980.3,-180"/>
<polygon fill="black" stroke="black" points="980.3,-176.5 970.3,-180 980.3,-183.5 980.3,-176.5"/>
</g>
</g>
</svg>
