<?xml version="1.0" encoding="UTF-8" standalone="no"?>
<!DOCTYPE svg PUBLIC "-//W3C//DTD SVG 1.1//EN"
 "http://www.w3.org/Graphics/SVG/1.1/DTD/svg11.dtd">
<!-- Generated by graphviz version 2.40.1 (20161225.0304)
 -->
<!-- Title: dependencies Pages: 1 -->
<svg width="1786pt" height="284pt"
 viewBox="0.00 0.00 1786.00 284.00" xmlns="http://www.w3.org/2000/svg" xmlns:xlink="http://www.w3.org/1999/xlink">
<g id="graph0" class="graph" transform="scale(1 1) rotate(0) translate(4 280)">
<title>dependencies</title>
<polygon fill="#ffffff" stroke="transparent" points="-4,4 -4,-280 1782,-280 1782,4 -4,4"/>
<text text-anchor="start" x="868.0091" y="-42.4" font-family="sans-serif" font-weight="bold" font-size="14.00" fill="#000000">Legend</text>
<polygon fill="#ffffb3" stroke="transparent" points="655,-10 655,-30 675,-30 675,-10 655,-10"/>
<text text-anchor="start" x="678.629" y="-15.4" font-family="sans-serif" font-size="14.00" fill="#000000"> &#160;Declarations</text>
<polygon fill="#8dd3c7" stroke="transparent" points="768,-10 768,-30 788,-30 788,-10 768,-10"/>
<text text-anchor="start" x="791.7251" y="-15.4" font-family="sans-serif" font-size="14.00" fill="#000000"> &#160;Module</text>
<polygon fill="#80b1d3" stroke="transparent" points="854,-10 854,-30 874,-30 874,-10 854,-10"/>
<text text-anchor="start" x="877.7812" y="-15.4" font-family="sans-serif" font-size="14.00" fill="#000000"> &#160;Bootstrap</text>
<polygon fill="#fdb462" stroke="transparent" points="951,-10 951,-30 971,-30 971,-10 951,-10"/>
<text text-anchor="start" x="974.6732" y="-15.4" font-family="sans-serif" font-size="14.00" fill="#000000"> &#160;Providers</text>
<polygon fill="#fb8072" stroke="transparent" points="1047,-10 1047,-30 1067,-30 1067,-10 1047,-10"/>
<text text-anchor="start" x="1070.7258" y="-15.4" font-family="sans-serif" font-size="14.00" fill="#000000"> &#160;Exports</text>
<g id="clust1" class="cluster">
<title>cluster_GraphVisualizerModule</title>
<polygon fill="none" stroke="#000000" stroke-dasharray="1,5" points="8,-70 8,-268 1770,-268 1770,-70 8,-70"/>
</g>
<g id="clust2" class="cluster">
<title>cluster_GraphVisualizerModule_declarations</title>
<polygon fill="none" stroke="#000000" points="138,-78 138,-130 1762,-130 1762,-78 138,-78"/>
</g>
<g id="clust12" class="cluster">
<title>cluster_GraphVisualizerModule_imports</title>
<polygon fill="none" stroke="#000000" points="16,-78 16,-130 130,-130 130,-78 16,-78"/>
</g>
<g id="clust13" class="cluster">
<title>cluster_GraphVisualizerModule_exports</title>
<polygon fill="none" stroke="#000000" points="781,-208 781,-260 975,-260 975,-208 781,-208"/>
</g>
<!-- ConstructResultsComponent -->
<g id="node1" class="node">
<title>ConstructResultsComponent</title>
<polygon fill="#ffffb3" stroke="#000000" points="1754.4916,-122 1577.5084,-122 1577.5084,-86 1754.4916,-86 1754.4916,-122"/>
<text text-anchor="middle" x="1666" y="-99.8" font-family="Times,serif" font-size="14.00" fill="#000000">ConstructResultsComponent</text>
</g>
<!-- GraphVisualizerModule -->
<g id="node10" class="node">
<title>GraphVisualizerModule</title>
<polygon fill="#8dd3c7" stroke="#000000" points="954.059,-187 951.059,-191 930.059,-191 927.059,-187 801.941,-187 801.941,-151 954.059,-151 954.059,-187"/>
<text text-anchor="middle" x="878" y="-164.8" font-family="Times,serif" font-size="14.00" fill="#000000">GraphVisualizerModule</text>
</g>
<!-- ConstructResultsComponent&#45;&gt;GraphVisualizerModule -->
<g id="edge1" class="edge">
<title>ConstructResultsComponent&#45;&gt;GraphVisualizerModule</title>
<path fill="none" stroke="#000000" d="M1666,-122.0109C1666,-144.4852 1666,-180 1666,-180 1666,-180 964.2727,-180 964.2727,-180"/>
<polygon fill="#000000" stroke="#000000" points="964.2728,-176.5001 954.2727,-180 964.2727,-183.5001 964.2728,-176.5001"/>
</g>
<!-- ForceGraphComponent -->
<g id="node2" class="node">
<title>ForceGraphComponent</title>
<polygon fill="#ffffb3" stroke="#000000" points="1559.1867,-122 1410.8133,-122 1410.8133,-86 1559.1867,-86 1559.1867,-122"/>
<text text-anchor="middle" x="1485" y="-99.8" font-family="Times,serif" font-size="14.00" fill="#000000">ForceGraphComponent</text>
</g>
<!-- ForceGraphComponent&#45;&gt;GraphVisualizerModule -->
<g id="edge2" class="edge">
<title>ForceGraphComponent&#45;&gt;GraphVisualizerModule</title>
<path fill="none" stroke="#000000" d="M1485,-122.1289C1485,-142.5724 1485,-173 1485,-173 1485,-173 964.2623,-173 964.2623,-173"/>
<polygon fill="#000000" stroke="#000000" points="964.2624,-169.5001 954.2623,-173 964.2623,-176.5001 964.2624,-169.5001"/>
</g>
<!-- ForceGraphNoResultComponent -->
<g id="node3" class="node">
<title>ForceGraphNoResultComponent</title>
<polygon fill="#ffffb3" stroke="#000000" points="1392.5702,-122 1191.4298,-122 1191.4298,-86 1392.5702,-86 1392.5702,-122"/>
<text text-anchor="middle" x="1292" y="-99.8" font-family="Times,serif" font-size="14.00" fill="#000000">ForceGraphNoResultComponent</text>
</g>
<!-- ForceGraphNoResultComponent&#45;&gt;GraphVisualizerModule -->
<g id="edge3" class="edge">
<title>ForceGraphNoResultComponent&#45;&gt;GraphVisualizerModule</title>
<path fill="none" stroke="#000000" d="M1292,-122.2667C1292,-140.5552 1292,-166 1292,-166 1292,-166 964.4164,-166 964.4164,-166"/>
<polygon fill="#000000" stroke="#000000" points="964.4165,-162.5001 954.4164,-166 964.4164,-169.5001 964.4165,-162.5001"/>
</g>
<!-- GraphVisualizerComponent -->
<g id="node4" class="node">
<title>GraphVisualizerComponent</title>
<polygon fill="#ffffb3" stroke="#000000" points="1173.8417,-122 1000.1583,-122 1000.1583,-86 1173.8417,-86 1173.8417,-122"/>
<text text-anchor="middle" x="1087" y="-99.8" font-family="Times,serif" font-size="14.00" fill="#000000">GraphVisualizerComponent</text>
</g>
<!-- GraphVisualizerComponent&#45;&gt;GraphVisualizerModule -->
<g id="edge4" class="edge">
<title>GraphVisualizerComponent&#45;&gt;GraphVisualizerModule</title>
<path fill="none" stroke="#000000" d="M1087,-122.0091C1087,-138.0494 1087,-159 1087,-159 1087,-159 964.045,-159 964.045,-159"/>
<polygon fill="#000000" stroke="#000000" points="964.0451,-155.5001 954.045,-159 964.045,-162.5001 964.0451,-155.5001"/>
</g>
<!-- PrefixPipe -->
<g id="node5" class="node">
<title>PrefixPipe</title>
<polygon fill="#ffffb3" stroke="#000000" points="982.5969,-122 907.4031,-122 907.4031,-86 982.5969,-86 982.5969,-122"/>
<text text-anchor="middle" x="945" y="-99.8" font-family="Times,serif" font-size="14.00" fill="#000000">PrefixPipe</text>
</g>
<!-- PrefixPipe&#45;&gt;GraphVisualizerModule -->
<g id="edge5" class="edge">
<title>PrefixPipe&#45;&gt;GraphVisualizerModule</title>
<path fill="none" stroke="#000000" d="M930.7406,-122.1061C930.7406,-122.1061 930.7406,-140.991 930.7406,-140.991"/>
<polygon fill="#000000" stroke="#000000" points="927.2406,-140.9909 930.7406,-150.991 934.2406,-140.991 927.2406,-140.9909"/>
</g>
<!-- SelectResultsComponent -->
<g id="node6" class="node">
<title>SelectResultsComponent</title>
<polygon fill="#ffffb3" stroke="#000000" points="889.2618,-122 732.7382,-122 732.7382,-86 889.2618,-86 889.2618,-122"/>
<text text-anchor="middle" x="811" y="-99.8" font-family="Times,serif" font-size="14.00" fill="#000000">SelectResultsComponent</text>
</g>
<!-- SelectResultsComponent&#45;&gt;GraphVisualizerModule -->
<g id="edge6" class="edge">
<title>SelectResultsComponent&#45;&gt;GraphVisualizerModule</title>
<path fill="none" stroke="#000000" d="M845.6757,-122.1061C845.6757,-122.1061 845.6757,-140.991 845.6757,-140.991"/>
<polygon fill="#000000" stroke="#000000" points="842.1757,-140.9909 845.6757,-150.991 849.1757,-140.991 842.1757,-140.9909"/>
</g>
<!-- SparqlEditorComponent -->
<g id="node7" class="node">
<title>SparqlEditorComponent</title>
<polygon fill="#ffffb3" stroke="#000000" points="714.3753,-122 561.6247,-122 561.6247,-86 714.3753,-86 714.3753,-122"/>
<text text-anchor="middle" x="638" y="-99.8" font-family="Times,serif" font-size="14.00" fill="#000000">SparqlEditorComponent</text>
</g>
<!-- SparqlEditorComponent&#45;&gt;GraphVisualizerModule -->
<g id="edge7" class="edge">
<title>SparqlEditorComponent&#45;&gt;GraphVisualizerModule</title>
<path fill="none" stroke="#000000" d="M638,-122.0091C638,-138.0494 638,-159 638,-159 638,-159 791.7327,-159 791.7327,-159"/>
<polygon fill="#000000" stroke="#000000" points="791.7328,-162.5001 801.7327,-159 791.7327,-155.5001 791.7328,-162.5001"/>
</g>
<!-- TriplesEditorComponent -->
<g id="node8" class="node">
<title>TriplesEditorComponent</title>
<polygon fill="#ffffb3" stroke="#000000" points="543.9804,-122 388.0196,-122 388.0196,-86 543.9804,-86 543.9804,-122"/>
<text text-anchor="middle" x="466" y="-99.8" font-family="Times,serif" font-size="14.00" fill="#000000">TriplesEditorComponent</text>
</g>
<!-- TriplesEditorComponent&#45;&gt;GraphVisualizerModule -->
<g id="edge8" class="edge">
<title>TriplesEditorComponent&#45;&gt;GraphVisualizerModule</title>
<path fill="none" stroke="#000000" d="M466,-122.2667C466,-140.5552 466,-166 466,-166 466,-166 791.9527,-166 791.9527,-166"/>
<polygon fill="#000000" stroke="#000000" points="791.9528,-169.5001 801.9527,-166 791.9527,-162.5001 791.9528,-169.5001"/>
</g>
<!-- UnsupportedTypeResultsComponent -->
<g id="node9" class="node">
<title>UnsupportedTypeResultsComponent</title>
<polygon fill="#ffffb3" stroke="#000000" points="369.6385,-122 146.3615,-122 146.3615,-86 369.6385,-86 369.6385,-122"/>
<text text-anchor="middle" x="258" y="-99.8" font-family="Times,serif" font-size="14.00" fill="#000000">UnsupportedTypeResultsComponent</text>
</g>
<!-- UnsupportedTypeResultsComponent&#45;&gt;GraphVisualizerModule -->
<g id="edge9" class="edge">
<title>UnsupportedTypeResultsComponent&#45;&gt;GraphVisualizerModule</title>
<path fill="none" stroke="#000000" d="M258,-122.1289C258,-142.5724 258,-173 258,-173 258,-173 791.6652,-173 791.6652,-173"/>
<polygon fill="#000000" stroke="#000000" points="791.6652,-176.5001 801.6652,-173 791.6651,-169.5001 791.6652,-176.5001"/>
</g>
<!-- GraphVisualizerComponent  -->
<g id="node12" class="node">
<title>GraphVisualizerComponent </title>
<polygon fill="#fb8072" stroke="#000000" points="966.8419,-252 789.1581,-252 789.1581,-216 966.8419,-216 966.8419,-252"/>
<text text-anchor="middle" x="878" y="-229.8" font-family="Times,serif" font-size="14.00" fill="#000000">GraphVisualizerComponent </text>
</g>
<!-- GraphVisualizerModule&#45;&gt;GraphVisualizerComponent  -->
<g id="edge11" class="edge">
<title>GraphVisualizerModule&#45;&gt;GraphVisualizerComponent </title>
<path fill="none" stroke="#000000" stroke-dasharray="5,2" d="M878,-187.1061C878,-187.1061 878,-205.991 878,-205.991"/>
<polygon fill="#000000" stroke="#000000" points="874.5001,-205.9909 878,-215.991 881.5001,-205.991 874.5001,-205.9909"/>
</g>
<!-- SharedModule -->
<g id="node11" class="node">
<title>SharedModule</title>
<polygon fill="#8dd3c7" stroke="#000000" points="122.4231,-122 119.4231,-126 98.4231,-126 95.4231,-122 23.5769,-122 23.5769,-86 122.4231,-86 122.4231,-122"/>
<text text-anchor="middle" x="73" y="-99.8" font-family="Times,serif" font-size="14.00" fill="#000000">SharedModule</text>
</g>
<!-- SharedModule&#45;&gt;GraphVisualizerModule -->
<g id="edge10" class="edge">
<title>SharedModule&#45;&gt;GraphVisualizerModule</title>
<path fill="none" stroke="#000000" d="M73,-122.0109C73,-144.4852 73,-180 73,-180 73,-180 791.905,-180 791.905,-180"/>
<polygon fill="#000000" stroke="#000000" points="791.9051,-183.5001 801.905,-180 791.905,-176.5001 791.9051,-183.5001"/>
</g>
</g>
</svg>
