<?xml version="1.0" encoding="UTF-8" standalone="no"?>
<!DOCTYPE svg PUBLIC "-//W3C//DTD SVG 1.1//EN"
 "http://www.w3.org/Graphics/SVG/1.1/DTD/svg11.dtd">
<!-- Generated by graphviz version 2.40.1 (20161225.0304)
 -->
<!-- Title: dependencies Pages: 1 -->
<svg width="830pt" height="284pt"
 viewBox="0.00 0.00 830.00 284.00" xmlns="http://www.w3.org/2000/svg" xmlns:xlink="http://www.w3.org/1999/xlink">
<g id="graph0" class="graph" transform="scale(1 1) rotate(0) translate(4 280)">
<title>dependencies</title>
<polygon fill="#ffffff" stroke="transparent" points="-4,4 -4,-280 826,-280 826,4 -4,4"/>
<text text-anchor="start" x="390.0091" y="-42.4" font-family="sans-serif" font-weight="bold" font-size="14.00" fill="#000000">Legend</text>
<polygon fill="#ffffb3" stroke="transparent" points="177,-10 177,-30 197,-30 197,-10 177,-10"/>
<text text-anchor="start" x="200.629" y="-15.4" font-family="sans-serif" font-size="14.00" fill="#000000"> &#160;Declarations</text>
<polygon fill="#8dd3c7" stroke="transparent" points="290,-10 290,-30 310,-30 310,-10 290,-10"/>
<text text-anchor="start" x="313.7251" y="-15.4" font-family="sans-serif" font-size="14.00" fill="#000000"> &#160;Module</text>
<polygon fill="#80b1d3" stroke="transparent" points="376,-10 376,-30 396,-30 396,-10 376,-10"/>
<text text-anchor="start" x="399.7812" y="-15.4" font-family="sans-serif" font-size="14.00" fill="#000000"> &#160;Bootstrap</text>
<polygon fill="#fdb462" stroke="transparent" points="473,-10 473,-30 493,-30 493,-10 473,-10"/>
<text text-anchor="start" x="496.6732" y="-15.4" font-family="sans-serif" font-size="14.00" fill="#000000"> &#160;Providers</text>
<polygon fill="#fb8072" stroke="transparent" points="569,-10 569,-30 589,-30 589,-10 569,-10"/>
<text text-anchor="start" x="592.7258" y="-15.4" font-family="sans-serif" font-size="14.00" fill="#000000"> &#160;Exports</text>
<g id="clust1" class="cluster">
<title>cluster_GraphVisualizerModule</title>
<polygon fill="none" stroke="#000000" stroke-dasharray="1,5" points="8,-70 8,-268 814,-268 814,-70 8,-70"/>
</g>
<g id="clust2" class="cluster">
<title>cluster_GraphVisualizerModule_declarations</title>
<polygon fill="none" stroke="#000000" points="138,-78 138,-130 806,-130 806,-78 138,-78"/>
</g>
<g id="clust7" class="cluster">
<title>cluster_GraphVisualizerModule_imports</title>
<polygon fill="none" stroke="#000000" points="16,-78 16,-130 130,-130 130,-78 16,-78"/>
</g>
<g id="clust8" class="cluster">
<title>cluster_GraphVisualizerModule_exports</title>
<polygon fill="none" stroke="#000000" points="229,-208 229,-260 423,-260 423,-208 229,-208"/>
</g>
<!-- ForceGraphComponent -->
<g id="node1" class="node">
<title>ForceGraphComponent</title>
<polygon fill="#ffffb3" stroke="#000000" points="798.1867,-122 649.8133,-122 649.8133,-86 798.1867,-86 798.1867,-122"/>
<text text-anchor="middle" x="724" y="-99.8" font-family="Times,serif" font-size="14.00" fill="#000000">ForceGraphComponent</text>
</g>
<!-- GraphVisualizerModule -->
<g id="node5" class="node">
<title>GraphVisualizerModule</title>
<polygon fill="#8dd3c7" stroke="#000000" points="402.059,-187 399.059,-191 378.059,-191 375.059,-187 249.941,-187 249.941,-151 402.059,-151 402.059,-187"/>
<text text-anchor="middle" x="326" y="-164.8" font-family="Times,serif" font-size="14.00" fill="#000000">GraphVisualizerModule</text>
</g>
<!-- ForceGraphComponent&#45;&gt;GraphVisualizerModule -->
<g id="edge1" class="edge">
<title>ForceGraphComponent&#45;&gt;GraphVisualizerModule</title>
<path fill="none" stroke="#000000" d="M724,-122.2843C724,-143.3211 724,-175 724,-175 724,-175 412.2675,-175 412.2675,-175"/>
<polygon fill="#000000" stroke="#000000" points="412.2675,-171.5001 402.2675,-175 412.2675,-178.5001 412.2675,-171.5001"/>
</g>
<!-- ForceGraphNoResultComponent -->
<g id="node2" class="node">
<title>ForceGraphNoResultComponent</title>
<polygon fill="#ffffb3" stroke="#000000" points="631.5702,-122 430.4298,-122 430.4298,-86 631.5702,-86 631.5702,-122"/>
<text text-anchor="middle" x="531" y="-99.8" font-family="Times,serif" font-size="14.00" fill="#000000">ForceGraphNoResultComponent</text>
</g>
<!-- ForceGraphNoResultComponent&#45;&gt;GraphVisualizerModule -->
<g id="edge2" class="edge">
<title>ForceGraphNoResultComponent&#45;&gt;GraphVisualizerModule</title>
<path fill="none" stroke="#000000" d="M531,-122.0225C531,-139.3734 531,-163 531,-163 531,-163 412.0431,-163 412.0431,-163"/>
<polygon fill="#000000" stroke="#000000" points="412.0431,-159.5001 402.0431,-163 412.0431,-166.5001 412.0431,-159.5001"/>
</g>
<!-- GraphVisualizerComponent -->
<g id="node3" class="node">
<title>GraphVisualizerComponent</title>
<polygon fill="#ffffb3" stroke="#000000" points="412.8417,-122 239.1583,-122 239.1583,-86 412.8417,-86 412.8417,-122"/>
<text text-anchor="middle" x="326" y="-99.8" font-family="Times,serif" font-size="14.00" fill="#000000">GraphVisualizerComponent</text>
</g>
<!-- GraphVisualizerComponent&#45;&gt;GraphVisualizerModule -->
<g id="edge3" class="edge">
<title>GraphVisualizerComponent&#45;&gt;GraphVisualizerModule</title>
<path fill="none" stroke="#000000" d="M326,-122.1061C326,-122.1061 326,-140.991 326,-140.991"/>
<polygon fill="#000000" stroke="#000000" points="322.5001,-140.9909 326,-150.991 329.5001,-140.991 322.5001,-140.9909"/>
</g>
<!-- PrefixPipe -->
<g id="node4" class="node">
<title>PrefixPipe</title>
<polygon fill="#ffffb3" stroke="#000000" points="221.5969,-122 146.4031,-122 146.4031,-86 221.5969,-86 221.5969,-122"/>
<text text-anchor="middle" x="184" y="-99.8" font-family="Times,serif" font-size="14.00" fill="#000000">PrefixPipe</text>
</g>
<!-- PrefixPipe&#45;&gt;GraphVisualizerModule -->
<g id="edge4" class="edge">
<title>PrefixPipe&#45;&gt;GraphVisualizerModule</title>
<path fill="none" stroke="#000000" d="M184,-122.0225C184,-139.3734 184,-163 184,-163 184,-163 239.5964,-163 239.5964,-163"/>
<polygon fill="#000000" stroke="#000000" points="239.5965,-166.5001 249.5964,-163 239.5964,-159.5001 239.5965,-166.5001"/>
</g>
<!-- GraphVisualizerComponent  -->
<g id="node7" class="node">
<title>GraphVisualizerComponent </title>
<polygon fill="#fb8072" stroke="#000000" points="414.8419,-252 237.1581,-252 237.1581,-216 414.8419,-216 414.8419,-252"/>
<text text-anchor="middle" x="326" y="-229.8" font-family="Times,serif" font-size="14.00" fill="#000000">GraphVisualizerComponent </text>
</g>
<!-- GraphVisualizerModule&#45;&gt;GraphVisualizerComponent  -->
<g id="edge6" class="edge">
<title>GraphVisualizerModule&#45;&gt;GraphVisualizerComponent </title>
<path fill="none" stroke="#000000" stroke-dasharray="5,2" d="M326,-187.1061C326,-187.1061 326,-205.991 326,-205.991"/>
<polygon fill="#000000" stroke="#000000" points="322.5001,-205.9909 326,-215.991 329.5001,-205.991 322.5001,-205.9909"/>
</g>
<!-- SharedModule -->
<g id="node6" class="node">
<title>SharedModule</title>
<polygon fill="#8dd3c7" stroke="#000000" points="122.4231,-122 119.4231,-126 98.4231,-126 95.4231,-122 23.5769,-122 23.5769,-86 122.4231,-86 122.4231,-122"/>
<text text-anchor="middle" x="73" y="-99.8" font-family="Times,serif" font-size="14.00" fill="#000000">SharedModule</text>
</g>
<!-- SharedModule&#45;&gt;GraphVisualizerModule -->
<g id="edge5" class="edge">
<title>SharedModule&#45;&gt;GraphVisualizerModule</title>
<path fill="none" stroke="#000000" d="M73,-122.2843C73,-143.3211 73,-175 73,-175 73,-175 239.7486,-175 239.7486,-175"/>
<polygon fill="#000000" stroke="#000000" points="239.7486,-178.5001 249.7486,-175 239.7485,-171.5001 239.7486,-178.5001"/>
</g>
</g>
</svg>
