<?xml version="1.0" encoding="UTF-8" standalone="no"?>
<!DOCTYPE svg PUBLIC "-//W3C//DTD SVG 1.1//EN"
 "http://www.w3.org/Graphics/SVG/1.1/DTD/svg11.dtd">
<!-- Generated by graphviz version 2.47.0 (20210316.0004)
 -->
<!-- Title: dependencies Pages: 1 -->
<svg width="2162pt" height="284pt"
 viewBox="0.00 0.00 2162.00 284.00" xmlns="http://www.w3.org/2000/svg" xmlns:xlink="http://www.w3.org/1999/xlink">
<g id="graph0" class="graph" transform="scale(1 1) rotate(0) translate(4 280)">
<title>dependencies</title>
<polygon fill="white" stroke="transparent" points="-4,4 -4,-280 2158,-280 2158,4 -4,4"/>
<text text-anchor="start" x="1056.01" y="-42.4" font-family="Times-12" font-weight="bold" font-size="14.00">Legend</text>
<polygon fill="#ffffb3" stroke="transparent" points="843,-10 843,-30 863,-30 863,-10 843,-10"/>
<text text-anchor="start" x="866.63" y="-15.4" font-family="Times-12" font-size="14.00"> &#160;Declarations</text>
<polygon fill="#8dd3c7" stroke="transparent" points="956,-10 956,-30 976,-30 976,-10 956,-10"/>
<text text-anchor="start" x="979.73" y="-15.4" font-family="Times-12" font-size="14.00"> &#160;Module</text>
<polygon fill="#80b1d3" stroke="transparent" points="1042,-10 1042,-30 1062,-30 1062,-10 1042,-10"/>
<text text-anchor="start" x="1065.78" y="-15.4" font-family="Times-12" font-size="14.00"> &#160;Bootstrap</text>
<polygon fill="#fdb462" stroke="transparent" points="1139,-10 1139,-30 1159,-30 1159,-10 1139,-10"/>
<text text-anchor="start" x="1162.67" y="-15.4" font-family="Times-12" font-size="14.00"> &#160;Providers</text>
<polygon fill="#fb8072" stroke="transparent" points="1235,-10 1235,-30 1255,-30 1255,-10 1235,-10"/>
<text text-anchor="start" x="1258.73" y="-15.4" font-family="Times-12" font-size="14.00"> &#160;Exports</text>
<g id="clust1" class="cluster">
<title>cluster_GraphVisualizerModule</title>
<polygon fill="none" stroke="black" stroke-dasharray="1,5" points="8,-70 8,-268 2146,-268 2146,-70 8,-70"/>
</g>
<g id="clust14" class="cluster">
<title>cluster_GraphVisualizerModule_exports</title>
<polygon fill="none" stroke="black" points="990,-208 990,-260 1184,-260 1184,-208 990,-208"/>
</g>
<g id="clust16" class="cluster">
<title>cluster_GraphVisualizerModule_providers</title>
<polygon fill="none" stroke="black" points="1914,-78 1914,-130 2138,-130 2138,-78 1914,-78"/>
</g>
<g id="clust2" class="cluster">
<title>cluster_GraphVisualizerModule_declarations</title>
<polygon fill="none" stroke="black" points="138,-78 138,-130 1906,-130 1906,-78 138,-78"/>
</g>
<g id="clust13" class="cluster">
<title>cluster_GraphVisualizerModule_imports</title>
<polygon fill="none" stroke="black" points="16,-78 16,-130 130,-130 130,-78 16,-78"/>
</g>
<!-- ConstructResultsComponent -->
<g id="node1" class="node">
<title>ConstructResultsComponent</title>
<polygon fill="#ffffb3" stroke="black" points="1898.49,-122 1721.51,-122 1721.51,-86 1898.49,-86 1898.49,-122"/>
<text text-anchor="middle" x="1810" y="-99.8" font-family="Times,serif" font-size="14.00">ConstructResultsComponent</text>
</g>
<!-- GraphVisualizerModule -->
<g id="node11" class="node">
<title>GraphVisualizerModule</title>
<polygon fill="#8dd3c7" stroke="black" points="1163.06,-187 1160.06,-191 1139.06,-191 1136.06,-187 1010.94,-187 1010.94,-151 1163.06,-151 1163.06,-187"/>
<text text-anchor="middle" x="1087" y="-164.8" font-family="Times,serif" font-size="14.00">GraphVisualizerModule</text>
</g>
<!-- ConstructResultsComponent&#45;&gt;GraphVisualizerModule -->
<g id="edge1" class="edge">
<title>ConstructResultsComponent&#45;&gt;GraphVisualizerModule</title>
<path fill="none" stroke="black" d="M1810,-122.28C1810,-143.32 1810,-175 1810,-175 1810,-175 1173.35,-175 1173.35,-175"/>
<polygon fill="black" stroke="black" points="1173.35,-171.5 1163.35,-175 1173.35,-178.5 1173.35,-171.5"/>
</g>
<!-- ForceGraphComponent -->
<g id="node2" class="node">
<title>ForceGraphComponent</title>
<polygon fill="#ffffb3" stroke="black" points="1703.19,-122 1554.81,-122 1554.81,-86 1703.19,-86 1703.19,-122"/>
<text text-anchor="middle" x="1629" y="-99.8" font-family="Times,serif" font-size="14.00">ForceGraphComponent</text>
</g>
<!-- ForceGraphComponent&#45;&gt;GraphVisualizerModule -->
<g id="edge2" class="edge">
<title>ForceGraphComponent&#45;&gt;GraphVisualizerModule</title>
<path fill="none" stroke="black" d="M1629,-122.11C1629,-141.34 1629,-169 1629,-169 1629,-169 1173.22,-169 1173.22,-169"/>
<polygon fill="black" stroke="black" points="1173.22,-165.5 1163.22,-169 1173.22,-172.5 1173.22,-165.5"/>
</g>
<!-- GraphVisualizerComponent -->
<g id="node3" class="node">
<title>GraphVisualizerComponent</title>
<polygon fill="#ffffb3" stroke="black" points="1536.84,-122 1363.16,-122 1363.16,-86 1536.84,-86 1536.84,-122"/>
<text text-anchor="middle" x="1450" y="-99.8" font-family="Times,serif" font-size="14.00">GraphVisualizerComponent</text>
</g>
<!-- GraphVisualizerComponent&#45;&gt;GraphVisualizerModule -->
<g id="edge3" class="edge">
<title>GraphVisualizerComponent&#45;&gt;GraphVisualizerModule</title>
<path fill="none" stroke="black" d="M1450,-122.02C1450,-139.37 1450,-163 1450,-163 1450,-163 1173.1,-163 1173.1,-163"/>
<polygon fill="black" stroke="black" points="1173.1,-159.5 1163.1,-163 1173.1,-166.5 1173.1,-159.5"/>
</g>
<!-- PrefixPipe -->
<g id="node4" class="node">
<title>PrefixPipe</title>
<polygon fill="#ffffb3" stroke="black" points="1345.6,-122 1270.4,-122 1270.4,-86 1345.6,-86 1345.6,-122"/>
<text text-anchor="middle" x="1308" y="-99.8" font-family="Times,serif" font-size="14.00">PrefixPipe</text>
</g>
<!-- PrefixPipe&#45;&gt;GraphVisualizerModule -->
<g id="edge4" class="edge">
<title>PrefixPipe&#45;&gt;GraphVisualizerModule</title>
<path fill="none" stroke="black" d="M1308,-122.24C1308,-137.57 1308,-157 1308,-157 1308,-157 1173.06,-157 1173.06,-157"/>
<polygon fill="black" stroke="black" points="1173.06,-153.5 1163.06,-157 1173.06,-160.5 1173.06,-153.5"/>
</g>
<!-- SelectResultsComponent -->
<g id="node5" class="node">
<title>SelectResultsComponent</title>
<polygon fill="#ffffb3" stroke="black" points="1252.26,-122 1095.74,-122 1095.74,-86 1252.26,-86 1252.26,-122"/>
<text text-anchor="middle" x="1174" y="-99.8" font-family="Times,serif" font-size="14.00">SelectResultsComponent</text>
</g>
<!-- SelectResultsComponent&#45;&gt;GraphVisualizerModule -->
<g id="edge5" class="edge">
<title>SelectResultsComponent&#45;&gt;GraphVisualizerModule</title>
<path fill="none" stroke="black" d="M1129.32,-122.11C1129.32,-122.11 1129.32,-140.99 1129.32,-140.99"/>
<polygon fill="black" stroke="black" points="1125.82,-140.99 1129.32,-150.99 1132.82,-140.99 1125.82,-140.99"/>
</g>
<!-- SparqlEditorComponent -->
<g id="node6" class="node">
<title>SparqlEditorComponent</title>
<polygon fill="#ffffb3" stroke="black" points="1077.38,-122 924.62,-122 924.62,-86 1077.38,-86 1077.38,-122"/>
<text text-anchor="middle" x="1001" y="-99.8" font-family="Times,serif" font-size="14.00">SparqlEditorComponent</text>
</g>
<!-- SparqlEditorComponent&#45;&gt;GraphVisualizerModule -->
<g id="edge6" class="edge">
<title>SparqlEditorComponent&#45;&gt;GraphVisualizerModule</title>
<path fill="none" stroke="black" d="M1044.2,-122.11C1044.2,-122.11 1044.2,-140.99 1044.2,-140.99"/>
<polygon fill="black" stroke="black" points="1040.7,-140.99 1044.2,-150.99 1047.7,-140.99 1040.7,-140.99"/>
</g>
<!-- SparqlNoResultsComponent -->
<g id="node7" class="node">
<title>SparqlNoResultsComponent</title>
<polygon fill="#ffffb3" stroke="black" points="906.21,-122 729.79,-122 729.79,-86 906.21,-86 906.21,-122"/>
<text text-anchor="middle" x="818" y="-99.8" font-family="Times,serif" font-size="14.00">SparqlNoResultsComponent</text>
</g>
<!-- SparqlNoResultsComponent&#45;&gt;GraphVisualizerModule -->
<g id="edge7" class="edge">
<title>SparqlNoResultsComponent&#45;&gt;GraphVisualizerModule</title>
<path fill="none" stroke="black" d="M818,-122.24C818,-137.57 818,-157 818,-157 818,-157 1000.63,-157 1000.63,-157"/>
<polygon fill="black" stroke="black" points="1000.63,-160.5 1010.63,-157 1000.63,-153.5 1000.63,-160.5"/>
</g>
<!-- SparqlTableComponent -->
<g id="node8" class="node">
<title>SparqlTableComponent</title>
<polygon fill="#ffffb3" stroke="black" points="711.75,-122 562.25,-122 562.25,-86 711.75,-86 711.75,-122"/>
<text text-anchor="middle" x="637" y="-99.8" font-family="Times,serif" font-size="14.00">SparqlTableComponent</text>
</g>
<!-- SparqlTableComponent&#45;&gt;GraphVisualizerModule -->
<g id="edge8" class="edge">
<title>SparqlTableComponent&#45;&gt;GraphVisualizerModule</title>
<path fill="none" stroke="black" d="M637,-122.02C637,-139.37 637,-163 637,-163 637,-163 1000.92,-163 1000.92,-163"/>
<polygon fill="black" stroke="black" points="1000.92,-166.5 1010.92,-163 1000.92,-159.5 1000.92,-166.5"/>
</g>
<!-- TriplesEditorComponent -->
<g id="node9" class="node">
<title>TriplesEditorComponent</title>
<polygon fill="#ffffb3" stroke="black" points="543.98,-122 388.02,-122 388.02,-86 543.98,-86 543.98,-122"/>
<text text-anchor="middle" x="466" y="-99.8" font-family="Times,serif" font-size="14.00">TriplesEditorComponent</text>
</g>
<!-- TriplesEditorComponent&#45;&gt;GraphVisualizerModule -->
<g id="edge9" class="edge">
<title>TriplesEditorComponent&#45;&gt;GraphVisualizerModule</title>
<path fill="none" stroke="black" d="M466,-122.11C466,-141.34 466,-169 466,-169 466,-169 1000.85,-169 1000.85,-169"/>
<polygon fill="black" stroke="black" points="1000.85,-172.5 1010.85,-169 1000.85,-165.5 1000.85,-172.5"/>
</g>
<!-- UnsupportedTypeResultsComponent -->
<g id="node10" class="node">
<title>UnsupportedTypeResultsComponent</title>
<polygon fill="#ffffb3" stroke="black" points="369.64,-122 146.36,-122 146.36,-86 369.64,-86 369.64,-122"/>
<text text-anchor="middle" x="258" y="-99.8" font-family="Times,serif" font-size="14.00">UnsupportedTypeResultsComponent</text>
</g>
<!-- UnsupportedTypeResultsComponent&#45;&gt;GraphVisualizerModule -->
<g id="edge10" class="edge">
<title>UnsupportedTypeResultsComponent&#45;&gt;GraphVisualizerModule</title>
<path fill="none" stroke="black" d="M258,-122.28C258,-143.32 258,-175 258,-175 258,-175 1000.87,-175 1000.87,-175"/>
<polygon fill="black" stroke="black" points="1000.87,-178.5 1010.87,-175 1000.87,-171.5 1000.87,-178.5"/>
</g>
<!-- GraphVisualizerComponent  -->
<g id="node13" class="node">
<title>GraphVisualizerComponent </title>
<polygon fill="#fb8072" stroke="black" points="1175.84,-252 998.16,-252 998.16,-216 1175.84,-216 1175.84,-252"/>
<text text-anchor="middle" x="1087" y="-229.8" font-family="Times,serif" font-size="14.00">GraphVisualizerComponent </text>
</g>
<!-- GraphVisualizerModule&#45;&gt;GraphVisualizerComponent  -->
<g id="edge12" class="edge">
<title>GraphVisualizerModule&#45;&gt;GraphVisualizerComponent </title>
<path fill="none" stroke="black" stroke-dasharray="5,2" d="M1087,-187.11C1087,-187.11 1087,-205.99 1087,-205.99"/>
<polygon fill="black" stroke="black" points="1083.5,-205.99 1087,-215.99 1090.5,-205.99 1083.5,-205.99"/>
</g>
<!-- SharedModule -->
<g id="node12" class="node">
<title>SharedModule</title>
<polygon fill="#8dd3c7" stroke="black" points="122.42,-122 119.42,-126 98.42,-126 95.42,-122 23.58,-122 23.58,-86 122.42,-86 122.42,-122"/>
<text text-anchor="middle" x="73" y="-99.8" font-family="Times,serif" font-size="14.00">SharedModule</text>
</g>
<!-- SharedModule&#45;&gt;GraphVisualizerModule -->
<g id="edge11" class="edge">
<title>SharedModule&#45;&gt;GraphVisualizerModule</title>
<path fill="none" stroke="black" d="M73,-122.25C73,-145.02 73,-181 73,-181 73,-181 1000.79,-181 1000.79,-181"/>
<polygon fill="black" stroke="black" points="1000.79,-184.5 1010.79,-181 1000.79,-177.5 1000.79,-184.5"/>
</g>
<!-- GraphVisualizerService -->
<g id="node14" class="node">
<title>GraphVisualizerService</title>
<ellipse fill="#fdb462" stroke="black" cx="2026" cy="-104" rx="103.61" ry="18"/>
<text text-anchor="middle" x="2026" y="-99.8" font-family="Times,serif" font-size="14.00">GraphVisualizerService</text>
</g>
<!-- GraphVisualizerService&#45;&gt;GraphVisualizerModule -->
<g id="edge13" class="edge">
<title>GraphVisualizerService&#45;&gt;GraphVisualizerModule</title>
<path fill="none" stroke="black" d="M2026,-122.25C2026,-145.02 2026,-181 2026,-181 2026,-181 1173.05,-181 1173.05,-181"/>
<polygon fill="black" stroke="black" points="1173.05,-177.5 1163.05,-181 1173.05,-184.5 1173.05,-177.5"/>
</g>
</g>
</svg>
