<?xml version="1.0" encoding="UTF-8" standalone="no"?>
<!DOCTYPE svg PUBLIC "-//W3C//DTD SVG 1.1//EN"
 "http://www.w3.org/Graphics/SVG/1.1/DTD/svg11.dtd">
<!-- Generated by graphviz version 2.47.0 (20210316.0004)
 -->
<!-- Title: dependencies Pages: 1 -->
<svg width="2162pt" height="284pt"
 viewBox="0.00 0.00 2162.00 284.00" xmlns="http://www.w3.org/2000/svg" xmlns:xlink="http://www.w3.org/1999/xlink">
<g id="graph0" class="graph" transform="scale(1 1) rotate(0) translate(4 280)">
<title>dependencies</title>
<polygon fill="white" stroke="transparent" points="-4,4 -4,-280 2158,-280 2158,4 -4,4"/>
<text text-anchor="start" x="1056.01" y="-42.4" font-family="sans-serif" font-weight="bold" font-size="14.00">Legend</text>
<polygon fill="#ffffb3" stroke="transparent" points="843,-10 843,-30 863,-30 863,-10 843,-10"/>
<text text-anchor="start" x="866.63" y="-15.4" font-family="sans-serif" font-size="14.00"> &#160;Declarations</text>
<polygon fill="#8dd3c7" stroke="transparent" points="956,-10 956,-30 976,-30 976,-10 956,-10"/>
<text text-anchor="start" x="979.73" y="-15.4" font-family="sans-serif" font-size="14.00"> &#160;Module</text>
<polygon fill="#80b1d3" stroke="transparent" points="1042,-10 1042,-30 1062,-30 1062,-10 1042,-10"/>
<text text-anchor="start" x="1065.78" y="-15.4" font-family="sans-serif" font-size="14.00"> &#160;Bootstrap</text>
<polygon fill="#fdb462" stroke="transparent" points="1139,-10 1139,-30 1159,-30 1159,-10 1139,-10"/>
<text text-anchor="start" x="1162.67" y="-15.4" font-family="sans-serif" font-size="14.00"> &#160;Providers</text>
<polygon fill="#fb8072" stroke="transparent" points="1235,-10 1235,-30 1255,-30 1255,-10 1235,-10"/>
<text text-anchor="start" x="1258.73" y="-15.4" font-family="sans-serif" font-size="14.00"> &#160;Exports</text>
<g id="clust1" class="cluster">
<title>cluster_GraphVisualizerModule</title>
<polygon fill="none" stroke="black" stroke-dasharray="1,5" points="8,-70 8,-268 2146,-268 2146,-70 8,-70"/>
</g>
<g id="clust16" class="cluster">
<title>cluster_GraphVisualizerModule_providers</title>
<polygon fill="none" stroke="black" points="1914,-78 1914,-130 2138,-130 2138,-78 1914,-78"/>
</g>
<g id="clust13" class="cluster">
<title>cluster_GraphVisualizerModule_imports</title>
<polygon fill="none" stroke="black" points="1792,-78 1792,-130 1906,-130 1906,-78 1792,-78"/>
</g>
<g id="clust14" class="cluster">
<title>cluster_GraphVisualizerModule_exports</title>
<polygon fill="none" stroke="black" points="1022,-208 1022,-260 1216,-260 1216,-208 1022,-208"/>
</g>
<g id="clust2" class="cluster">
<title>cluster_GraphVisualizerModule_declarations</title>
<polygon fill="none" stroke="black" points="16,-78 16,-130 1784,-130 1784,-78 16,-78"/>
</g>
<!-- ConstructResultsComponent -->
<g id="node1" class="node">
<title>ConstructResultsComponent</title>
<polygon fill="#ffffb3" stroke="black" points="1776.49,-122 1599.51,-122 1599.51,-86 1776.49,-86 1776.49,-122"/>
<text text-anchor="middle" x="1688" y="-99.8" font-family="Times,serif" font-size="14.00">ConstructResultsComponent</text>
</g>
<!-- GraphVisualizerModule -->
<g id="node11" class="node">
<title>GraphVisualizerModule</title>
<polygon fill="#8dd3c7" stroke="black" points="1195.06,-187 1192.06,-191 1171.06,-191 1168.06,-187 1042.94,-187 1042.94,-151 1195.06,-151 1195.06,-187"/>
<text text-anchor="middle" x="1119" y="-164.8" font-family="Times,serif" font-size="14.00">GraphVisualizerModule</text>
</g>
<!-- ConstructResultsComponent&#45;&gt;GraphVisualizerModule -->
<g id="edge1" class="edge">
<title>ConstructResultsComponent&#45;&gt;GraphVisualizerModule</title>
<path fill="none" stroke="black" d="M1688,-122.11C1688,-141.34 1688,-169 1688,-169 1688,-169 1205.15,-169 1205.15,-169"/>
<polygon fill="black" stroke="black" points="1205.15,-165.5 1195.15,-169 1205.15,-172.5 1205.15,-165.5"/>
</g>
<!-- ForceGraphComponent -->
<g id="node2" class="node">
<title>ForceGraphComponent</title>
<polygon fill="#ffffb3" stroke="black" points="1581.19,-122 1432.81,-122 1432.81,-86 1581.19,-86 1581.19,-122"/>
<text text-anchor="middle" x="1507" y="-99.8" font-family="Times,serif" font-size="14.00">ForceGraphComponent</text>
</g>
<!-- ForceGraphComponent&#45;&gt;GraphVisualizerModule -->
<g id="edge2" class="edge">
<title>ForceGraphComponent&#45;&gt;GraphVisualizerModule</title>
<path fill="none" stroke="black" d="M1507,-122.02C1507,-139.37 1507,-163 1507,-163 1507,-163 1205.19,-163 1205.19,-163"/>
<polygon fill="black" stroke="black" points="1205.19,-159.5 1195.19,-163 1205.19,-166.5 1205.19,-159.5"/>
</g>
<!-- GraphVisualizerComponent -->
<g id="node3" class="node">
<title>GraphVisualizerComponent</title>
<polygon fill="#ffffb3" stroke="black" points="1414.84,-122 1241.16,-122 1241.16,-86 1414.84,-86 1414.84,-122"/>
<text text-anchor="middle" x="1328" y="-99.8" font-family="Times,serif" font-size="14.00">GraphVisualizerComponent</text>
</g>
<!-- GraphVisualizerComponent&#45;&gt;GraphVisualizerModule -->
<g id="edge3" class="edge">
<title>GraphVisualizerComponent&#45;&gt;GraphVisualizerModule</title>
<path fill="none" stroke="black" d="M1328,-122.24C1328,-137.57 1328,-157 1328,-157 1328,-157 1205.05,-157 1205.05,-157"/>
<polygon fill="black" stroke="black" points="1205.05,-153.5 1195.05,-157 1205.04,-160.5 1205.05,-153.5"/>
</g>
<!-- PrefixPipe -->
<g id="node4" class="node">
<title>PrefixPipe</title>
<polygon fill="#ffffb3" stroke="black" points="1223.6,-122 1148.4,-122 1148.4,-86 1223.6,-86 1223.6,-122"/>
<text text-anchor="middle" x="1186" y="-99.8" font-family="Times,serif" font-size="14.00">PrefixPipe</text>
</g>
<!-- PrefixPipe&#45;&gt;GraphVisualizerModule -->
<g id="edge4" class="edge">
<title>PrefixPipe&#45;&gt;GraphVisualizerModule</title>
<path fill="none" stroke="black" d="M1171.74,-122.11C1171.74,-122.11 1171.74,-140.99 1171.74,-140.99"/>
<polygon fill="black" stroke="black" points="1168.24,-140.99 1171.74,-150.99 1175.24,-140.99 1168.24,-140.99"/>
</g>
<!-- SelectResultsComponent -->
<g id="node5" class="node">
<title>SelectResultsComponent</title>
<polygon fill="#ffffb3" stroke="black" points="1130.26,-122 973.74,-122 973.74,-86 1130.26,-86 1130.26,-122"/>
<text text-anchor="middle" x="1052" y="-99.8" font-family="Times,serif" font-size="14.00">SelectResultsComponent</text>
</g>
<!-- SelectResultsComponent&#45;&gt;GraphVisualizerModule -->
<g id="edge5" class="edge">
<title>SelectResultsComponent&#45;&gt;GraphVisualizerModule</title>
<path fill="none" stroke="black" d="M1086.68,-122.11C1086.68,-122.11 1086.68,-140.99 1086.68,-140.99"/>
<polygon fill="black" stroke="black" points="1083.18,-140.99 1086.68,-150.99 1090.18,-140.99 1083.18,-140.99"/>
</g>
<!-- SparqlEditorComponent -->
<g id="node6" class="node">
<title>SparqlEditorComponent</title>
<polygon fill="#ffffb3" stroke="black" points="955.38,-122 802.62,-122 802.62,-86 955.38,-86 955.38,-122"/>
<text text-anchor="middle" x="879" y="-99.8" font-family="Times,serif" font-size="14.00">SparqlEditorComponent</text>
</g>
<!-- SparqlEditorComponent&#45;&gt;GraphVisualizerModule -->
<g id="edge6" class="edge">
<title>SparqlEditorComponent&#45;&gt;GraphVisualizerModule</title>
<path fill="none" stroke="black" d="M879,-122.24C879,-137.57 879,-157 879,-157 879,-157 1032.73,-157 1032.73,-157"/>
<polygon fill="black" stroke="black" points="1032.73,-160.5 1042.73,-157 1032.73,-153.5 1032.73,-160.5"/>
</g>
<!-- SparqlNoResultsComponent -->
<g id="node7" class="node">
<title>SparqlNoResultsComponent</title>
<polygon fill="#ffffb3" stroke="black" points="784.21,-122 607.79,-122 607.79,-86 784.21,-86 784.21,-122"/>
<text text-anchor="middle" x="696" y="-99.8" font-family="Times,serif" font-size="14.00">SparqlNoResultsComponent</text>
</g>
<!-- SparqlNoResultsComponent&#45;&gt;GraphVisualizerModule -->
<g id="edge7" class="edge">
<title>SparqlNoResultsComponent&#45;&gt;GraphVisualizerModule</title>
<path fill="none" stroke="black" d="M696,-122.02C696,-139.37 696,-163 696,-163 696,-163 1032.89,-163 1032.89,-163"/>
<polygon fill="black" stroke="black" points="1032.89,-166.5 1042.89,-163 1032.89,-159.5 1032.89,-166.5"/>
</g>
<!-- SparqlTableComponent -->
<g id="node8" class="node">
<title>SparqlTableComponent</title>
<polygon fill="#ffffb3" stroke="black" points="589.75,-122 440.25,-122 440.25,-86 589.75,-86 589.75,-122"/>
<text text-anchor="middle" x="515" y="-99.8" font-family="Times,serif" font-size="14.00">SparqlTableComponent</text>
</g>
<!-- SparqlTableComponent&#45;&gt;GraphVisualizerModule -->
<g id="edge8" class="edge">
<title>SparqlTableComponent&#45;&gt;GraphVisualizerModule</title>
<path fill="none" stroke="black" d="M515,-122.11C515,-141.34 515,-169 515,-169 515,-169 1032.81,-169 1032.81,-169"/>
<polygon fill="black" stroke="black" points="1032.81,-172.5 1042.81,-169 1032.81,-165.5 1032.81,-172.5"/>
</g>
<!-- TriplesEditorComponent -->
<g id="node9" class="node">
<title>TriplesEditorComponent</title>
<polygon fill="#ffffb3" stroke="black" points="421.98,-122 266.02,-122 266.02,-86 421.98,-86 421.98,-122"/>
<text text-anchor="middle" x="344" y="-99.8" font-family="Times,serif" font-size="14.00">TriplesEditorComponent</text>
</g>
<!-- TriplesEditorComponent&#45;&gt;GraphVisualizerModule -->
<g id="edge9" class="edge">
<title>TriplesEditorComponent&#45;&gt;GraphVisualizerModule</title>
<path fill="none" stroke="black" d="M344,-122.28C344,-143.32 344,-175 344,-175 344,-175 1032.92,-175 1032.92,-175"/>
<polygon fill="black" stroke="black" points="1032.92,-178.5 1042.92,-175 1032.92,-171.5 1032.92,-178.5"/>
</g>
<!-- UnsupportedTypeResultsComponent -->
<g id="node10" class="node">
<title>UnsupportedTypeResultsComponent</title>
<polygon fill="#ffffb3" stroke="black" points="247.64,-122 24.36,-122 24.36,-86 247.64,-86 247.64,-122"/>
<text text-anchor="middle" x="136" y="-99.8" font-family="Times,serif" font-size="14.00">UnsupportedTypeResultsComponent</text>
</g>
<!-- UnsupportedTypeResultsComponent&#45;&gt;GraphVisualizerModule -->
<g id="edge10" class="edge">
<title>UnsupportedTypeResultsComponent&#45;&gt;GraphVisualizerModule</title>
<path fill="none" stroke="black" d="M136,-122.25C136,-145.02 136,-181 136,-181 136,-181 1032.68,-181 1032.68,-181"/>
<polygon fill="black" stroke="black" points="1032.68,-184.5 1042.68,-181 1032.68,-177.5 1032.68,-184.5"/>
</g>
<!-- GraphVisualizerComponent  -->
<g id="node13" class="node">
<title>GraphVisualizerComponent </title>
<polygon fill="#fb8072" stroke="black" points="1207.84,-252 1030.16,-252 1030.16,-216 1207.84,-216 1207.84,-252"/>
<text text-anchor="middle" x="1119" y="-229.8" font-family="Times,serif" font-size="14.00">GraphVisualizerComponent </text>
</g>
<!-- GraphVisualizerModule&#45;&gt;GraphVisualizerComponent  -->
<g id="edge12" class="edge">
<title>GraphVisualizerModule&#45;&gt;GraphVisualizerComponent </title>
<path fill="none" stroke="black" stroke-dasharray="5,2" d="M1119,-187.11C1119,-187.11 1119,-205.99 1119,-205.99"/>
<polygon fill="black" stroke="black" points="1115.5,-205.99 1119,-215.99 1122.5,-205.99 1115.5,-205.99"/>
</g>
<!-- SharedModule -->
<g id="node12" class="node">
<title>SharedModule</title>
<polygon fill="#8dd3c7" stroke="black" points="1898.42,-122 1895.42,-126 1874.42,-126 1871.42,-122 1799.58,-122 1799.58,-86 1898.42,-86 1898.42,-122"/>
<text text-anchor="middle" x="1849" y="-99.8" font-family="Times,serif" font-size="14.00">SharedModule</text>
</g>
<!-- SharedModule&#45;&gt;GraphVisualizerModule -->
<g id="edge11" class="edge">
<title>SharedModule&#45;&gt;GraphVisualizerModule</title>
<path fill="none" stroke="black" d="M1849,-122.28C1849,-143.32 1849,-175 1849,-175 1849,-175 1205.06,-175 1205.06,-175"/>
<polygon fill="black" stroke="black" points="1205.06,-171.5 1195.06,-175 1205.06,-178.5 1205.06,-171.5"/>
</g>
<!-- GraphVisualizerService -->
<g id="node14" class="node">
<title>GraphVisualizerService</title>
<ellipse fill="#fdb462" stroke="black" cx="2026" cy="-104" rx="103.61" ry="18"/>
<text text-anchor="middle" x="2026" y="-99.8" font-family="Times,serif" font-size="14.00">GraphVisualizerService</text>
</g>
<!-- GraphVisualizerService&#45;&gt;GraphVisualizerModule -->
<g id="edge13" class="edge">
<title>GraphVisualizerService&#45;&gt;GraphVisualizerModule</title>
<path fill="none" stroke="black" d="M2026,-122.25C2026,-145.02 2026,-181 2026,-181 2026,-181 1205.16,-181 1205.16,-181"/>
<polygon fill="black" stroke="black" points="1205.16,-177.5 1195.16,-181 1205.16,-184.5 1205.16,-177.5"/>
</g>
</g>
</svg>
