<?xml version="1.0" encoding="UTF-8" standalone="no"?>
<!DOCTYPE svg PUBLIC "-//W3C//DTD SVG 1.1//EN"
 "http://www.w3.org/Graphics/SVG/1.1/DTD/svg11.dtd">
<!-- Generated by graphviz version 2.47.3 (20210619.1520)
 -->
<!-- Title: dependencies Pages: 1 -->
<svg width="2162pt" height="247pt"
 viewBox="0.00 0.00 2162.00 246.80" xmlns="http://www.w3.org/2000/svg" xmlns:xlink="http://www.w3.org/1999/xlink">
<g id="graph0" class="graph" transform="scale(1 1) rotate(0) translate(4 242.8)">
<title>dependencies</title>
<polygon fill="white" stroke="transparent" points="-4,4 -4,-242.8 2158,-242.8 2158,4 -4,4"/>
<text text-anchor="middle" x="1077" y="-8.2" font-family="sans-serif" font-size="14.00">dependencies</text>
<g id="clust1" class="cluster">
<title>cluster_GraphVisualizerModule</title>
<polygon fill="none" stroke="black" stroke-dasharray="1,5" points="8,-32.8 8,-230.8 2146,-230.8 2146,-32.8 8,-32.8"/>
</g>
<g id="clust16" class="cluster">
<title>cluster_GraphVisualizerModule_providers</title>
<polygon fill="none" stroke="black" points="1914,-40.8 1914,-92.8 2138,-92.8 2138,-40.8 1914,-40.8"/>
</g>
<g id="clust14" class="cluster">
<title>cluster_GraphVisualizerModule_exports</title>
<polygon fill="none" stroke="black" points="1022,-170.8 1022,-222.8 1216,-222.8 1216,-170.8 1022,-170.8"/>
</g>
<g id="clust13" class="cluster">
<title>cluster_GraphVisualizerModule_imports</title>
<polygon fill="none" stroke="black" points="1792,-40.8 1792,-92.8 1906,-92.8 1906,-40.8 1792,-40.8"/>
</g>
<g id="clust2" class="cluster">
<title>cluster_GraphVisualizerModule_declarations</title>
<polygon fill="none" stroke="black" points="16,-40.8 16,-92.8 1784,-92.8 1784,-40.8 16,-40.8"/>
</g>
<!-- ConstructResultsComponent -->
<g id="node1" class="node">
<title>ConstructResultsComponent</title>
<polygon fill="#ffffb3" stroke="black" points="1776.49,-84.8 1599.51,-84.8 1599.51,-48.8 1776.49,-48.8 1776.49,-84.8"/>
<text text-anchor="middle" x="1688" y="-62.6" font-family="Times,serif" font-size="14.00">ConstructResultsComponent</text>
</g>
<!-- GraphVisualizerModule -->
<g id="node11" class="node">
<title>GraphVisualizerModule</title>
<polygon fill="#8dd3c7" stroke="black" points="1195.06,-149.8 1192.06,-153.8 1171.06,-153.8 1168.06,-149.8 1042.94,-149.8 1042.94,-113.8 1195.06,-113.8 1195.06,-149.8"/>
<text text-anchor="middle" x="1119" y="-127.6" font-family="Times,serif" font-size="14.00">GraphVisualizerModule</text>
</g>
<!-- ConstructResultsComponent&#45;&gt;GraphVisualizerModule -->
<g id="edge1" class="edge">
<title>ConstructResultsComponent&#45;&gt;GraphVisualizerModule</title>
<path fill="none" stroke="black" d="M1688,-84.91C1688,-104.14 1688,-131.8 1688,-131.8 1688,-131.8 1205.15,-131.8 1205.15,-131.8"/>
<polygon fill="black" stroke="black" points="1205.15,-128.3 1195.15,-131.8 1205.15,-135.3 1205.15,-128.3"/>
</g>
<!-- ForceGraphComponent -->
<g id="node2" class="node">
<title>ForceGraphComponent</title>
<polygon fill="#ffffb3" stroke="black" points="1581.19,-84.8 1432.81,-84.8 1432.81,-48.8 1581.19,-48.8 1581.19,-84.8"/>
<text text-anchor="middle" x="1507" y="-62.6" font-family="Times,serif" font-size="14.00">ForceGraphComponent</text>
</g>
<!-- ForceGraphComponent&#45;&gt;GraphVisualizerModule -->
<g id="edge2" class="edge">
<title>ForceGraphComponent&#45;&gt;GraphVisualizerModule</title>
<path fill="none" stroke="black" d="M1507,-84.82C1507,-102.17 1507,-125.8 1507,-125.8 1507,-125.8 1205.19,-125.8 1205.19,-125.8"/>
<polygon fill="black" stroke="black" points="1205.19,-122.3 1195.19,-125.8 1205.19,-129.3 1205.19,-122.3"/>
</g>
<!-- GraphVisualizerComponent -->
<g id="node3" class="node">
<title>GraphVisualizerComponent</title>
<polygon fill="#ffffb3" stroke="black" points="1414.84,-84.8 1241.16,-84.8 1241.16,-48.8 1414.84,-48.8 1414.84,-84.8"/>
<text text-anchor="middle" x="1328" y="-62.6" font-family="Times,serif" font-size="14.00">GraphVisualizerComponent</text>
</g>
<!-- GraphVisualizerComponent&#45;&gt;GraphVisualizerModule -->
<g id="edge3" class="edge">
<title>GraphVisualizerComponent&#45;&gt;GraphVisualizerModule</title>
<path fill="none" stroke="black" d="M1328,-85.04C1328,-100.37 1328,-119.8 1328,-119.8 1328,-119.8 1205.05,-119.8 1205.05,-119.8"/>
<polygon fill="black" stroke="black" points="1205.05,-116.3 1195.05,-119.8 1205.04,-123.3 1205.05,-116.3"/>
</g>
<!-- PrefixPipe -->
<g id="node4" class="node">
<title>PrefixPipe</title>
<polygon fill="#ffffb3" stroke="black" points="1223.6,-84.8 1148.4,-84.8 1148.4,-48.8 1223.6,-48.8 1223.6,-84.8"/>
<text text-anchor="middle" x="1186" y="-62.6" font-family="Times,serif" font-size="14.00">PrefixPipe</text>
</g>
<!-- PrefixPipe&#45;&gt;GraphVisualizerModule -->
<g id="edge4" class="edge">
<title>PrefixPipe&#45;&gt;GraphVisualizerModule</title>
<path fill="none" stroke="black" d="M1171.74,-84.91C1171.74,-84.91 1171.74,-103.79 1171.74,-103.79"/>
<polygon fill="black" stroke="black" points="1168.24,-103.79 1171.74,-113.79 1175.24,-103.79 1168.24,-103.79"/>
</g>
<!-- SelectResultsComponent -->
<g id="node5" class="node">
<title>SelectResultsComponent</title>
<polygon fill="#ffffb3" stroke="black" points="1130.26,-84.8 973.74,-84.8 973.74,-48.8 1130.26,-48.8 1130.26,-84.8"/>
<text text-anchor="middle" x="1052" y="-62.6" font-family="Times,serif" font-size="14.00">SelectResultsComponent</text>
</g>
<!-- SelectResultsComponent&#45;&gt;GraphVisualizerModule -->
<g id="edge5" class="edge">
<title>SelectResultsComponent&#45;&gt;GraphVisualizerModule</title>
<path fill="none" stroke="black" d="M1086.68,-84.91C1086.68,-84.91 1086.68,-103.79 1086.68,-103.79"/>
<polygon fill="black" stroke="black" points="1083.18,-103.79 1086.68,-113.79 1090.18,-103.79 1083.18,-103.79"/>
</g>
<!-- SparqlEditorComponent -->
<g id="node6" class="node">
<title>SparqlEditorComponent</title>
<polygon fill="#ffffb3" stroke="black" points="955.38,-84.8 802.62,-84.8 802.62,-48.8 955.38,-48.8 955.38,-84.8"/>
<text text-anchor="middle" x="879" y="-62.6" font-family="Times,serif" font-size="14.00">SparqlEditorComponent</text>
</g>
<!-- SparqlEditorComponent&#45;&gt;GraphVisualizerModule -->
<g id="edge6" class="edge">
<title>SparqlEditorComponent&#45;&gt;GraphVisualizerModule</title>
<path fill="none" stroke="black" d="M879,-85.04C879,-100.37 879,-119.8 879,-119.8 879,-119.8 1032.73,-119.8 1032.73,-119.8"/>
<polygon fill="black" stroke="black" points="1032.73,-123.3 1042.73,-119.8 1032.73,-116.3 1032.73,-123.3"/>
</g>
<!-- SparqlNoResultsComponent -->
<g id="node7" class="node">
<title>SparqlNoResultsComponent</title>
<polygon fill="#ffffb3" stroke="black" points="784.21,-84.8 607.79,-84.8 607.79,-48.8 784.21,-48.8 784.21,-84.8"/>
<text text-anchor="middle" x="696" y="-62.6" font-family="Times,serif" font-size="14.00">SparqlNoResultsComponent</text>
</g>
<!-- SparqlNoResultsComponent&#45;&gt;GraphVisualizerModule -->
<g id="edge7" class="edge">
<title>SparqlNoResultsComponent&#45;&gt;GraphVisualizerModule</title>
<path fill="none" stroke="black" d="M696,-84.82C696,-102.17 696,-125.8 696,-125.8 696,-125.8 1032.89,-125.8 1032.89,-125.8"/>
<polygon fill="black" stroke="black" points="1032.89,-129.3 1042.89,-125.8 1032.89,-122.3 1032.89,-129.3"/>
</g>
<!-- SparqlTableComponent -->
<g id="node8" class="node">
<title>SparqlTableComponent</title>
<polygon fill="#ffffb3" stroke="black" points="589.75,-84.8 440.25,-84.8 440.25,-48.8 589.75,-48.8 589.75,-84.8"/>
<text text-anchor="middle" x="515" y="-62.6" font-family="Times,serif" font-size="14.00">SparqlTableComponent</text>
</g>
<!-- SparqlTableComponent&#45;&gt;GraphVisualizerModule -->
<g id="edge8" class="edge">
<title>SparqlTableComponent&#45;&gt;GraphVisualizerModule</title>
<path fill="none" stroke="black" d="M515,-84.91C515,-104.14 515,-131.8 515,-131.8 515,-131.8 1032.81,-131.8 1032.81,-131.8"/>
<polygon fill="black" stroke="black" points="1032.81,-135.3 1042.81,-131.8 1032.81,-128.3 1032.81,-135.3"/>
</g>
<!-- TriplesEditorComponent -->
<g id="node9" class="node">
<title>TriplesEditorComponent</title>
<polygon fill="#ffffb3" stroke="black" points="421.98,-84.8 266.02,-84.8 266.02,-48.8 421.98,-48.8 421.98,-84.8"/>
<text text-anchor="middle" x="344" y="-62.6" font-family="Times,serif" font-size="14.00">TriplesEditorComponent</text>
</g>
<!-- TriplesEditorComponent&#45;&gt;GraphVisualizerModule -->
<g id="edge9" class="edge">
<title>TriplesEditorComponent&#45;&gt;GraphVisualizerModule</title>
<path fill="none" stroke="black" d="M344,-85.08C344,-106.12 344,-137.8 344,-137.8 344,-137.8 1032.92,-137.8 1032.92,-137.8"/>
<polygon fill="black" stroke="black" points="1032.92,-141.3 1042.92,-137.8 1032.92,-134.3 1032.92,-141.3"/>
</g>
<!-- UnsupportedTypeResultsComponent -->
<g id="node10" class="node">
<title>UnsupportedTypeResultsComponent</title>
<polygon fill="#ffffb3" stroke="black" points="247.64,-84.8 24.36,-84.8 24.36,-48.8 247.64,-48.8 247.64,-84.8"/>
<text text-anchor="middle" x="136" y="-62.6" font-family="Times,serif" font-size="14.00">UnsupportedTypeResultsComponent</text>
</g>
<!-- UnsupportedTypeResultsComponent&#45;&gt;GraphVisualizerModule -->
<g id="edge10" class="edge">
<title>UnsupportedTypeResultsComponent&#45;&gt;GraphVisualizerModule</title>
<path fill="none" stroke="black" d="M136,-85.05C136,-107.82 136,-143.8 136,-143.8 136,-143.8 1032.68,-143.8 1032.68,-143.8"/>
<polygon fill="black" stroke="black" points="1032.68,-147.3 1042.68,-143.8 1032.68,-140.3 1032.68,-147.3"/>
</g>
<!-- GraphVisualizerComponent  -->
<g id="node13" class="node">
<title>GraphVisualizerComponent </title>
<polygon fill="#fb8072" stroke="black" points="1207.84,-214.8 1030.16,-214.8 1030.16,-178.8 1207.84,-178.8 1207.84,-214.8"/>
<text text-anchor="middle" x="1119" y="-192.6" font-family="Times,serif" font-size="14.00">GraphVisualizerComponent </text>
</g>
<!-- GraphVisualizerModule&#45;&gt;GraphVisualizerComponent  -->
<g id="edge12" class="edge">
<title>GraphVisualizerModule&#45;&gt;GraphVisualizerComponent </title>
<path fill="none" stroke="black" stroke-dasharray="5,2" d="M1119,-149.91C1119,-149.91 1119,-168.79 1119,-168.79"/>
<polygon fill="black" stroke="black" points="1115.5,-168.79 1119,-178.79 1122.5,-168.79 1115.5,-168.79"/>
</g>
<!-- SharedModule -->
<g id="node12" class="node">
<title>SharedModule</title>
<polygon fill="#8dd3c7" stroke="black" points="1898.42,-84.8 1895.42,-88.8 1874.42,-88.8 1871.42,-84.8 1799.58,-84.8 1799.58,-48.8 1898.42,-48.8 1898.42,-84.8"/>
<text text-anchor="middle" x="1849" y="-62.6" font-family="Times,serif" font-size="14.00">SharedModule</text>
</g>
<!-- SharedModule&#45;&gt;GraphVisualizerModule -->
<g id="edge11" class="edge">
<title>SharedModule&#45;&gt;GraphVisualizerModule</title>
<path fill="none" stroke="black" d="M1849,-85.08C1849,-106.12 1849,-137.8 1849,-137.8 1849,-137.8 1205.06,-137.8 1205.06,-137.8"/>
<polygon fill="black" stroke="black" points="1205.06,-134.3 1195.06,-137.8 1205.06,-141.3 1205.06,-134.3"/>
</g>
<!-- GraphVisualizerService -->
<g id="node14" class="node">
<title>GraphVisualizerService</title>
<ellipse fill="#fdb462" stroke="black" cx="2026" cy="-66.8" rx="103.61" ry="18"/>
<text text-anchor="middle" x="2026" y="-62.6" font-family="Times,serif" font-size="14.00">GraphVisualizerService</text>
</g>
<!-- GraphVisualizerService&#45;&gt;GraphVisualizerModule -->
<g id="edge13" class="edge">
<title>GraphVisualizerService&#45;&gt;GraphVisualizerModule</title>
<path fill="none" stroke="black" d="M2026,-85.05C2026,-107.82 2026,-143.8 2026,-143.8 2026,-143.8 1205.16,-143.8 1205.16,-143.8"/>
<polygon fill="black" stroke="black" points="1205.16,-140.3 1195.16,-143.8 1205.16,-147.3 1205.16,-140.3"/>
</g>
</g>
</svg>
