<?xml version="1.0" encoding="UTF-8" standalone="no"?>
<!DOCTYPE svg PUBLIC "-//W3C//DTD SVG 1.1//EN"
 "http://www.w3.org/Graphics/SVG/1.1/DTD/svg11.dtd">
<!-- Generated by graphviz version 2.40.1 (20161225.0304)
 -->
<!-- Title: dependencies Pages: 1 -->
<svg width="1062pt" height="284pt"
 viewBox="0.00 0.00 1062.00 284.00" xmlns="http://www.w3.org/2000/svg" xmlns:xlink="http://www.w3.org/1999/xlink">
<g id="graph0" class="graph" transform="scale(1 1) rotate(0) translate(4 280)">
<title>dependencies</title>
<polygon fill="#ffffff" stroke="transparent" points="-4,4 -4,-280 1058,-280 1058,4 -4,4"/>
<text text-anchor="start" x="506.0091" y="-42.4" font-family="sans-serif" font-weight="bold" font-size="14.00" fill="#000000">Legend</text>
<polygon fill="#ffffb3" stroke="transparent" points="293,-10 293,-30 313,-30 313,-10 293,-10"/>
<text text-anchor="start" x="316.629" y="-15.4" font-family="sans-serif" font-size="14.00" fill="#000000"> &#160;Declarations</text>
<polygon fill="#8dd3c7" stroke="transparent" points="406,-10 406,-30 426,-30 426,-10 406,-10"/>
<text text-anchor="start" x="429.7251" y="-15.4" font-family="sans-serif" font-size="14.00" fill="#000000"> &#160;Module</text>
<polygon fill="#80b1d3" stroke="transparent" points="492,-10 492,-30 512,-30 512,-10 492,-10"/>
<text text-anchor="start" x="515.7812" y="-15.4" font-family="sans-serif" font-size="14.00" fill="#000000"> &#160;Bootstrap</text>
<polygon fill="#fdb462" stroke="transparent" points="589,-10 589,-30 609,-30 609,-10 589,-10"/>
<text text-anchor="start" x="612.6732" y="-15.4" font-family="sans-serif" font-size="14.00" fill="#000000"> &#160;Providers</text>
<polygon fill="#fb8072" stroke="transparent" points="685,-10 685,-30 705,-30 705,-10 685,-10"/>
<text text-anchor="start" x="708.7258" y="-15.4" font-family="sans-serif" font-size="14.00" fill="#000000"> &#160;Exports</text>
<g id="clust1" class="cluster">
<title>cluster_GraphVisualizerModule</title>
<polygon fill="none" stroke="#000000" stroke-dasharray="1,5" points="8,-70 8,-268 1046,-268 1046,-70 8,-70"/>
</g>
<g id="clust2" class="cluster">
<title>cluster_GraphVisualizerModule_declarations</title>
<polygon fill="none" stroke="#000000" points="370,-78 370,-130 1038,-130 1038,-78 370,-78"/>
</g>
<g id="clust7" class="cluster">
<title>cluster_GraphVisualizerModule_imports</title>
<polygon fill="none" stroke="#000000" points="248,-78 248,-130 362,-130 362,-78 248,-78"/>
</g>
<g id="clust8" class="cluster">
<title>cluster_GraphVisualizerModule_exports</title>
<polygon fill="none" stroke="#000000" points="390,-208 390,-260 584,-260 584,-208 390,-208"/>
</g>
<g id="clust10" class="cluster">
<title>cluster_GraphVisualizerModule_providers</title>
<polygon fill="none" stroke="#000000" points="16,-78 16,-130 240,-130 240,-78 16,-78"/>
</g>
<!-- ForceGraphComponent -->
<g id="node1" class="node">
<title>ForceGraphComponent</title>
<polygon fill="#ffffb3" stroke="#000000" points="1030.1867,-122 881.8133,-122 881.8133,-86 1030.1867,-86 1030.1867,-122"/>
<text text-anchor="middle" x="956" y="-99.8" font-family="Times,serif" font-size="14.00" fill="#000000">ForceGraphComponent</text>
</g>
<!-- GraphVisualizerModule -->
<g id="node5" class="node">
<title>GraphVisualizerModule</title>
<polygon fill="#8dd3c7" stroke="#000000" points="563.059,-187 560.059,-191 539.059,-191 536.059,-187 410.941,-187 410.941,-151 563.059,-151 563.059,-187"/>
<text text-anchor="middle" x="487" y="-164.8" font-family="Times,serif" font-size="14.00" fill="#000000">GraphVisualizerModule</text>
</g>
<!-- ForceGraphComponent&#45;&gt;GraphVisualizerModule -->
<g id="edge1" class="edge">
<title>ForceGraphComponent&#45;&gt;GraphVisualizerModule</title>
<path fill="none" stroke="#000000" d="M956,-122.2843C956,-143.3211 956,-175 956,-175 956,-175 573.1353,-175 573.1353,-175"/>
<polygon fill="#000000" stroke="#000000" points="573.1354,-171.5001 563.1353,-175 573.1353,-178.5001 573.1354,-171.5001"/>
</g>
<!-- ForceGraphNoResultComponent -->
<g id="node2" class="node">
<title>ForceGraphNoResultComponent</title>
<polygon fill="#ffffb3" stroke="#000000" points="863.5702,-122 662.4298,-122 662.4298,-86 863.5702,-86 863.5702,-122"/>
<text text-anchor="middle" x="763" y="-99.8" font-family="Times,serif" font-size="14.00" fill="#000000">ForceGraphNoResultComponent</text>
</g>
<!-- ForceGraphNoResultComponent&#45;&gt;GraphVisualizerModule -->
<g id="edge2" class="edge">
<title>ForceGraphNoResultComponent&#45;&gt;GraphVisualizerModule</title>
<path fill="none" stroke="#000000" d="M763,-122.0225C763,-139.3734 763,-163 763,-163 763,-163 573.1488,-163 573.1488,-163"/>
<polygon fill="#000000" stroke="#000000" points="573.1489,-159.5001 563.1488,-163 573.1488,-166.5001 573.1489,-159.5001"/>
</g>
<!-- GraphVisualizerComponent -->
<g id="node3" class="node">
<title>GraphVisualizerComponent</title>
<polygon fill="#ffffb3" stroke="#000000" points="644.8417,-122 471.1583,-122 471.1583,-86 644.8417,-86 644.8417,-122"/>
<text text-anchor="middle" x="558" y="-99.8" font-family="Times,serif" font-size="14.00" fill="#000000">GraphVisualizerComponent</text>
</g>
<!-- GraphVisualizerComponent&#45;&gt;GraphVisualizerModule -->
<g id="edge3" class="edge">
<title>GraphVisualizerComponent&#45;&gt;GraphVisualizerModule</title>
<path fill="none" stroke="#000000" d="M517.0544,-122.1061C517.0544,-122.1061 517.0544,-140.991 517.0544,-140.991"/>
<polygon fill="#000000" stroke="#000000" points="513.5544,-140.9909 517.0544,-150.991 520.5544,-140.991 513.5544,-140.9909"/>
</g>
<!-- PrefixPipe -->
<g id="node4" class="node">
<title>PrefixPipe</title>
<polygon fill="#ffffb3" stroke="#000000" points="453.5969,-122 378.4031,-122 378.4031,-86 453.5969,-86 453.5969,-122"/>
<text text-anchor="middle" x="416" y="-99.8" font-family="Times,serif" font-size="14.00" fill="#000000">PrefixPipe</text>
</g>
<!-- PrefixPipe&#45;&gt;GraphVisualizerModule -->
<g id="edge4" class="edge">
<title>PrefixPipe&#45;&gt;GraphVisualizerModule</title>
<path fill="none" stroke="#000000" d="M432.2595,-122.1061C432.2595,-122.1061 432.2595,-140.991 432.2595,-140.991"/>
<polygon fill="#000000" stroke="#000000" points="428.7595,-140.9909 432.2595,-150.991 435.7595,-140.991 428.7595,-140.9909"/>
</g>
<!-- GraphVisualizerComponent  -->
<g id="node7" class="node">
<title>GraphVisualizerComponent </title>
<polygon fill="#fb8072" stroke="#000000" points="575.8419,-252 398.1581,-252 398.1581,-216 575.8419,-216 575.8419,-252"/>
<text text-anchor="middle" x="487" y="-229.8" font-family="Times,serif" font-size="14.00" fill="#000000">GraphVisualizerComponent </text>
</g>
<!-- GraphVisualizerModule&#45;&gt;GraphVisualizerComponent  -->
<g id="edge6" class="edge">
<title>GraphVisualizerModule&#45;&gt;GraphVisualizerComponent </title>
<path fill="none" stroke="#000000" stroke-dasharray="5,2" d="M487,-187.1061C487,-187.1061 487,-205.991 487,-205.991"/>
<polygon fill="#000000" stroke="#000000" points="483.5001,-205.9909 487,-215.991 490.5001,-205.991 483.5001,-205.9909"/>
</g>
<!-- SharedModule -->
<g id="node6" class="node">
<title>SharedModule</title>
<polygon fill="#8dd3c7" stroke="#000000" points="354.4231,-122 351.4231,-126 330.4231,-126 327.4231,-122 255.5769,-122 255.5769,-86 354.4231,-86 354.4231,-122"/>
<text text-anchor="middle" x="305" y="-99.8" font-family="Times,serif" font-size="14.00" fill="#000000">SharedModule</text>
</g>
<!-- SharedModule&#45;&gt;GraphVisualizerModule -->
<g id="edge5" class="edge">
<title>SharedModule&#45;&gt;GraphVisualizerModule</title>
<path fill="none" stroke="#000000" d="M305,-122.0225C305,-139.3734 305,-163 305,-163 305,-163 400.8702,-163 400.8702,-163"/>
<polygon fill="#000000" stroke="#000000" points="400.8702,-166.5001 410.8702,-163 400.8701,-159.5001 400.8702,-166.5001"/>
</g>
<!-- GraphVisualizerService -->
<g id="node8" class="node">
<title>GraphVisualizerService</title>
<ellipse fill="#fdb462" stroke="#000000" cx="128" cy="-104" rx="103.6065" ry="18"/>
<text text-anchor="middle" x="128" y="-99.8" font-family="Times,serif" font-size="14.00" fill="#000000">GraphVisualizerService</text>
</g>
<!-- GraphVisualizerService&#45;&gt;GraphVisualizerModule -->
<g id="edge7" class="edge">
<title>GraphVisualizerService&#45;&gt;GraphVisualizerModule</title>
<path fill="none" stroke="#000000" d="M128,-122.2843C128,-143.3211 128,-175 128,-175 128,-175 400.8653,-175 400.8653,-175"/>
<polygon fill="#000000" stroke="#000000" points="400.8654,-178.5001 410.8653,-175 400.8653,-171.5001 400.8654,-178.5001"/>
</g>
</g>
</svg>
