<?xml version="1.0" encoding="UTF-8" standalone="no"?>
<!DOCTYPE svg PUBLIC "-//W3C//DTD SVG 1.1//EN"
 "http://www.w3.org/Graphics/SVG/1.1/DTD/svg11.dtd">
<!-- Generated by graphviz version 2.47.0 (20210316.0004)
 -->
<!-- Title: dependencies Pages: 1 -->
<svg width="1786pt" height="284pt"
 viewBox="0.00 0.00 1786.00 284.00" xmlns="http://www.w3.org/2000/svg" xmlns:xlink="http://www.w3.org/1999/xlink">
<g id="graph0" class="graph" transform="scale(1 1) rotate(0) translate(4 280)">
<title>dependencies</title>
<polygon fill="white" stroke="transparent" points="-4,4 -4,-280 1782,-280 1782,4 -4,4"/>
<text text-anchor="start" x="868.01" y="-42.4" font-family="sans-serif" font-weight="bold" font-size="14.00">Legend</text>
<polygon fill="#ffffb3" stroke="transparent" points="655,-10 655,-30 675,-30 675,-10 655,-10"/>
<text text-anchor="start" x="678.63" y="-15.4" font-family="sans-serif" font-size="14.00"> &#160;Declarations</text>
<polygon fill="#8dd3c7" stroke="transparent" points="768,-10 768,-30 788,-30 788,-10 768,-10"/>
<text text-anchor="start" x="791.73" y="-15.4" font-family="sans-serif" font-size="14.00"> &#160;Module</text>
<polygon fill="#80b1d3" stroke="transparent" points="854,-10 854,-30 874,-30 874,-10 854,-10"/>
<text text-anchor="start" x="877.78" y="-15.4" font-family="sans-serif" font-size="14.00"> &#160;Bootstrap</text>
<polygon fill="#fdb462" stroke="transparent" points="951,-10 951,-30 971,-30 971,-10 951,-10"/>
<text text-anchor="start" x="974.67" y="-15.4" font-family="sans-serif" font-size="14.00"> &#160;Providers</text>
<polygon fill="#fb8072" stroke="transparent" points="1047,-10 1047,-30 1067,-30 1067,-10 1047,-10"/>
<text text-anchor="start" x="1070.73" y="-15.4" font-family="sans-serif" font-size="14.00"> &#160;Exports</text>
<g id="clust1" class="cluster">
<title>cluster_GraphVisualizerModule</title>
<polygon fill="none" stroke="black" stroke-dasharray="1,5" points="8,-70 8,-268 1770,-268 1770,-70 8,-70"/>
</g>
<g id="clust13" class="cluster">
<title>cluster_GraphVisualizerModule_exports</title>
<polygon fill="none" stroke="black" points="781,-208 781,-260 975,-260 975,-208 781,-208"/>
</g>
<g id="clust2" class="cluster">
<title>cluster_GraphVisualizerModule_declarations</title>
<polygon fill="none" stroke="black" points="138,-78 138,-130 1762,-130 1762,-78 138,-78"/>
</g>
<g id="clust12" class="cluster">
<title>cluster_GraphVisualizerModule_imports</title>
<polygon fill="none" stroke="black" points="16,-78 16,-130 130,-130 130,-78 16,-78"/>
</g>
<!-- ConstructResultsComponent -->
<g id="node1" class="node">
<title>ConstructResultsComponent</title>
<polygon fill="#ffffb3" stroke="black" points="1754.49,-122 1577.51,-122 1577.51,-86 1754.49,-86 1754.49,-122"/>
<text text-anchor="middle" x="1666" y="-99.8" font-family="Times,serif" font-size="14.00">ConstructResultsComponent</text>
</g>
<!-- GraphVisualizerModule -->
<g id="node10" class="node">
<title>GraphVisualizerModule</title>
<polygon fill="#8dd3c7" stroke="black" points="954.06,-187 951.06,-191 930.06,-191 927.06,-187 801.94,-187 801.94,-151 954.06,-151 954.06,-187"/>
<text text-anchor="middle" x="878" y="-164.8" font-family="Times,serif" font-size="14.00">GraphVisualizerModule</text>
</g>
<!-- ConstructResultsComponent&#45;&gt;GraphVisualizerModule -->
<g id="edge1" class="edge">
<title>ConstructResultsComponent&#45;&gt;GraphVisualizerModule</title>
<path fill="none" stroke="black" d="M1666,-122.01C1666,-144.49 1666,-180 1666,-180 1666,-180 964.27,-180 964.27,-180"/>
<polygon fill="black" stroke="black" points="964.27,-176.5 954.27,-180 964.27,-183.5 964.27,-176.5"/>
</g>
<!-- ForceGraphComponent -->
<g id="node2" class="node">
<title>ForceGraphComponent</title>
<polygon fill="#ffffb3" stroke="black" points="1559.19,-122 1410.81,-122 1410.81,-86 1559.19,-86 1559.19,-122"/>
<text text-anchor="middle" x="1485" y="-99.8" font-family="Times,serif" font-size="14.00">ForceGraphComponent</text>
</g>
<!-- ForceGraphComponent&#45;&gt;GraphVisualizerModule -->
<g id="edge2" class="edge">
<title>ForceGraphComponent&#45;&gt;GraphVisualizerModule</title>
<path fill="none" stroke="black" d="M1485,-122.13C1485,-142.57 1485,-173 1485,-173 1485,-173 964.26,-173 964.26,-173"/>
<polygon fill="black" stroke="black" points="964.26,-169.5 954.26,-173 964.26,-176.5 964.26,-169.5"/>
</g>
<!-- ForceGraphNoResultComponent -->
<g id="node3" class="node">
<title>ForceGraphNoResultComponent</title>
<polygon fill="#ffffb3" stroke="black" points="1392.57,-122 1191.43,-122 1191.43,-86 1392.57,-86 1392.57,-122"/>
<text text-anchor="middle" x="1292" y="-99.8" font-family="Times,serif" font-size="14.00">ForceGraphNoResultComponent</text>
</g>
<!-- ForceGraphNoResultComponent&#45;&gt;GraphVisualizerModule -->
<g id="edge3" class="edge">
<title>ForceGraphNoResultComponent&#45;&gt;GraphVisualizerModule</title>
<path fill="none" stroke="black" d="M1292,-122.27C1292,-140.56 1292,-166 1292,-166 1292,-166 964.42,-166 964.42,-166"/>
<polygon fill="black" stroke="black" points="964.42,-162.5 954.42,-166 964.42,-169.5 964.42,-162.5"/>
</g>
<!-- GraphVisualizerComponent -->
<g id="node4" class="node">
<title>GraphVisualizerComponent</title>
<polygon fill="#ffffb3" stroke="black" points="1173.84,-122 1000.16,-122 1000.16,-86 1173.84,-86 1173.84,-122"/>
<text text-anchor="middle" x="1087" y="-99.8" font-family="Times,serif" font-size="14.00">GraphVisualizerComponent</text>
</g>
<!-- GraphVisualizerComponent&#45;&gt;GraphVisualizerModule -->
<g id="edge4" class="edge">
<title>GraphVisualizerComponent&#45;&gt;GraphVisualizerModule</title>
<path fill="none" stroke="black" d="M1087,-122.01C1087,-138.05 1087,-159 1087,-159 1087,-159 964.05,-159 964.05,-159"/>
<polygon fill="black" stroke="black" points="964.05,-155.5 954.05,-159 964.04,-162.5 964.05,-155.5"/>
</g>
<!-- PrefixPipe -->
<g id="node5" class="node">
<title>PrefixPipe</title>
<polygon fill="#ffffb3" stroke="black" points="982.6,-122 907.4,-122 907.4,-86 982.6,-86 982.6,-122"/>
<text text-anchor="middle" x="945" y="-99.8" font-family="Times,serif" font-size="14.00">PrefixPipe</text>
</g>
<!-- PrefixPipe&#45;&gt;GraphVisualizerModule -->
<g id="edge5" class="edge">
<title>PrefixPipe&#45;&gt;GraphVisualizerModule</title>
<path fill="none" stroke="black" d="M930.74,-122.11C930.74,-122.11 930.74,-140.99 930.74,-140.99"/>
<polygon fill="black" stroke="black" points="927.24,-140.99 930.74,-150.99 934.24,-140.99 927.24,-140.99"/>
</g>
<!-- SelectResultsComponent -->
<g id="node6" class="node">
<title>SelectResultsComponent</title>
<polygon fill="#ffffb3" stroke="black" points="889.26,-122 732.74,-122 732.74,-86 889.26,-86 889.26,-122"/>
<text text-anchor="middle" x="811" y="-99.8" font-family="Times,serif" font-size="14.00">SelectResultsComponent</text>
</g>
<!-- SelectResultsComponent&#45;&gt;GraphVisualizerModule -->
<g id="edge6" class="edge">
<title>SelectResultsComponent&#45;&gt;GraphVisualizerModule</title>
<path fill="none" stroke="black" d="M845.68,-122.11C845.68,-122.11 845.68,-140.99 845.68,-140.99"/>
<polygon fill="black" stroke="black" points="842.18,-140.99 845.68,-150.99 849.18,-140.99 842.18,-140.99"/>
</g>
<!-- SparqlEditorComponent -->
<g id="node7" class="node">
<title>SparqlEditorComponent</title>
<polygon fill="#ffffb3" stroke="black" points="714.38,-122 561.62,-122 561.62,-86 714.38,-86 714.38,-122"/>
<text text-anchor="middle" x="638" y="-99.8" font-family="Times,serif" font-size="14.00">SparqlEditorComponent</text>
</g>
<!-- SparqlEditorComponent&#45;&gt;GraphVisualizerModule -->
<g id="edge7" class="edge">
<title>SparqlEditorComponent&#45;&gt;GraphVisualizerModule</title>
<path fill="none" stroke="black" d="M638,-122.01C638,-138.05 638,-159 638,-159 638,-159 791.73,-159 791.73,-159"/>
<polygon fill="black" stroke="black" points="791.73,-162.5 801.73,-159 791.73,-155.5 791.73,-162.5"/>
</g>
<!-- TriplesEditorComponent -->
<g id="node8" class="node">
<title>TriplesEditorComponent</title>
<polygon fill="#ffffb3" stroke="black" points="543.98,-122 388.02,-122 388.02,-86 543.98,-86 543.98,-122"/>
<text text-anchor="middle" x="466" y="-99.8" font-family="Times,serif" font-size="14.00">TriplesEditorComponent</text>
</g>
<!-- TriplesEditorComponent&#45;&gt;GraphVisualizerModule -->
<g id="edge8" class="edge">
<title>TriplesEditorComponent&#45;&gt;GraphVisualizerModule</title>
<path fill="none" stroke="black" d="M466,-122.27C466,-140.56 466,-166 466,-166 466,-166 791.95,-166 791.95,-166"/>
<polygon fill="black" stroke="black" points="791.95,-169.5 801.95,-166 791.95,-162.5 791.95,-169.5"/>
</g>
<!-- UnsupportedTypeResultsComponent -->
<g id="node9" class="node">
<title>UnsupportedTypeResultsComponent</title>
<polygon fill="#ffffb3" stroke="black" points="369.64,-122 146.36,-122 146.36,-86 369.64,-86 369.64,-122"/>
<text text-anchor="middle" x="258" y="-99.8" font-family="Times,serif" font-size="14.00">UnsupportedTypeResultsComponent</text>
</g>
<!-- UnsupportedTypeResultsComponent&#45;&gt;GraphVisualizerModule -->
<g id="edge9" class="edge">
<title>UnsupportedTypeResultsComponent&#45;&gt;GraphVisualizerModule</title>
<path fill="none" stroke="black" d="M258,-122.13C258,-142.57 258,-173 258,-173 258,-173 791.67,-173 791.67,-173"/>
<polygon fill="black" stroke="black" points="791.67,-176.5 801.67,-173 791.67,-169.5 791.67,-176.5"/>
</g>
<!-- GraphVisualizerComponent  -->
<g id="node12" class="node">
<title>GraphVisualizerComponent </title>
<polygon fill="#fb8072" stroke="black" points="966.84,-252 789.16,-252 789.16,-216 966.84,-216 966.84,-252"/>
<text text-anchor="middle" x="878" y="-229.8" font-family="Times,serif" font-size="14.00">GraphVisualizerComponent </text>
</g>
<!-- GraphVisualizerModule&#45;&gt;GraphVisualizerComponent  -->
<g id="edge11" class="edge">
<title>GraphVisualizerModule&#45;&gt;GraphVisualizerComponent </title>
<path fill="none" stroke="black" stroke-dasharray="5,2" d="M878,-187.11C878,-187.11 878,-205.99 878,-205.99"/>
<polygon fill="black" stroke="black" points="874.5,-205.99 878,-215.99 881.5,-205.99 874.5,-205.99"/>
</g>
<!-- SharedModule -->
<g id="node11" class="node">
<title>SharedModule</title>
<polygon fill="#8dd3c7" stroke="black" points="122.42,-122 119.42,-126 98.42,-126 95.42,-122 23.58,-122 23.58,-86 122.42,-86 122.42,-122"/>
<text text-anchor="middle" x="73" y="-99.8" font-family="Times,serif" font-size="14.00">SharedModule</text>
</g>
<!-- SharedModule&#45;&gt;GraphVisualizerModule -->
<g id="edge10" class="edge">
<title>SharedModule&#45;&gt;GraphVisualizerModule</title>
<path fill="none" stroke="black" d="M73,-122.01C73,-144.49 73,-180 73,-180 73,-180 791.91,-180 791.91,-180"/>
<polygon fill="black" stroke="black" points="791.91,-183.5 801.91,-180 791.91,-176.5 791.91,-183.5"/>
</g>
</g>
</svg>
