<?xml version="1.0" encoding="UTF-8" standalone="no"?>
<!DOCTYPE svg PUBLIC "-//W3C//DTD SVG 1.1//EN"
 "http://www.w3.org/Graphics/SVG/1.1/DTD/svg11.dtd">
<!-- Generated by graphviz version 5.0.0 (20220707.1540)
 -->
<!-- Title: dependencies Pages: 1 -->
<svg width="2163pt" height="247pt"
 viewBox="0.00 0.00 2163.00 246.80" xmlns="http://www.w3.org/2000/svg" xmlns:xlink="http://www.w3.org/1999/xlink">
<g id="graph0" class="graph" transform="scale(1 1) rotate(0) translate(4 242.8)">
<title>dependencies</title>
<polygon fill="white" stroke="transparent" points="-4,4 -4,-242.8 2159,-242.8 2159,4 -4,4"/>
<text text-anchor="middle" x="1077.5" y="-8.2" font-family="sans-serif" font-size="14.00">dependencies</text>
<g id="clust1" class="cluster">
<title>cluster_GraphVisualizerModule</title>
<polygon fill="none" stroke="black" stroke-dasharray="1,5" points="8,-32.8 8,-230.8 2147,-230.8 2147,-32.8 8,-32.8"/>
</g>
<g id="clust2" class="cluster">
<title>cluster_GraphVisualizerModule_declarations</title>
<polygon fill="none" stroke="black" points="370,-40.8 370,-92.8 2139,-92.8 2139,-40.8 370,-40.8"/>
</g>
<g id="clust13" class="cluster">
<title>cluster_GraphVisualizerModule_imports</title>
<polygon fill="none" stroke="black" points="248,-40.8 248,-92.8 362,-92.8 362,-40.8 248,-40.8"/>
</g>
<g id="clust14" class="cluster">
<title>cluster_GraphVisualizerModule_exports</title>
<polygon fill="none" stroke="black" points="1044,-170.8 1044,-222.8 1238,-222.8 1238,-170.8 1044,-170.8"/>
</g>
<g id="clust16" class="cluster">
<title>cluster_GraphVisualizerModule_providers</title>
<polygon fill="none" stroke="black" points="16,-40.8 16,-92.8 240,-92.8 240,-40.8 16,-40.8"/>
</g>
<!-- ConstructResultsComponent -->
<g id="node1" class="node">
<title>ConstructResultsComponent</title>
<polygon fill="#ffffb3" stroke="black" points="2130.5,-84.8 1953.5,-84.8 1953.5,-48.8 2130.5,-48.8 2130.5,-84.8"/>
<text text-anchor="middle" x="2042" y="-62.6" font-family="Times,serif" font-size="14.00">ConstructResultsComponent</text>
</g>
<!-- GraphVisualizerModule -->
<g id="node11" class="node">
<title>GraphVisualizerModule</title>
<polygon fill="#8dd3c7" stroke="black" points="1217.07,-149.8 1214.07,-153.8 1193.07,-153.8 1190.07,-149.8 1064.93,-149.8 1064.93,-113.8 1217.07,-113.8 1217.07,-149.8"/>
<text text-anchor="middle" x="1141" y="-127.6" font-family="Times,serif" font-size="14.00">GraphVisualizerModule</text>
</g>
<!-- ConstructResultsComponent&#45;&gt;GraphVisualizerModule -->
<g id="edge1" class="edge">
<title>ConstructResultsComponent&#45;&gt;GraphVisualizerModule</title>
<path fill="none" stroke="black" d="M2042,-85.05C2042,-107.82 2042,-143.8 2042,-143.8 2042,-143.8 1227.04,-143.8 1227.04,-143.8"/>
<polygon fill="black" stroke="black" points="1227.04,-140.3 1217.04,-143.8 1227.04,-147.3 1227.04,-140.3"/>
</g>
<!-- ForceGraphComponent -->
<g id="node2" class="node">
<title>ForceGraphComponent</title>
<polygon fill="#ffffb3" stroke="black" points="1935.19,-84.8 1786.81,-84.8 1786.81,-48.8 1935.19,-48.8 1935.19,-84.8"/>
<text text-anchor="middle" x="1861" y="-62.6" font-family="Times,serif" font-size="14.00">ForceGraphComponent</text>
</g>
<!-- ForceGraphComponent&#45;&gt;GraphVisualizerModule -->
<g id="edge2" class="edge">
<title>ForceGraphComponent&#45;&gt;GraphVisualizerModule</title>
<path fill="none" stroke="black" d="M1861,-85.08C1861,-106.12 1861,-137.8 1861,-137.8 1861,-137.8 1227.37,-137.8 1227.37,-137.8"/>
<polygon fill="black" stroke="black" points="1227.37,-134.3 1217.37,-137.8 1227.37,-141.3 1227.37,-134.3"/>
</g>
<!-- GraphVisualizerComponent -->
<g id="node3" class="node">
<title>GraphVisualizerComponent</title>
<polygon fill="#ffffb3" stroke="black" points="1768.85,-84.8 1595.15,-84.8 1595.15,-48.8 1768.85,-48.8 1768.85,-84.8"/>
<text text-anchor="middle" x="1682" y="-62.6" font-family="Times,serif" font-size="14.00">GraphVisualizerComponent</text>
</g>
<!-- GraphVisualizerComponent&#45;&gt;GraphVisualizerModule -->
<g id="edge3" class="edge">
<title>GraphVisualizerComponent&#45;&gt;GraphVisualizerModule</title>
<path fill="none" stroke="black" d="M1682,-84.91C1682,-104.14 1682,-131.8 1682,-131.8 1682,-131.8 1227.08,-131.8 1227.08,-131.8"/>
<polygon fill="black" stroke="black" points="1227.08,-128.3 1217.08,-131.8 1227.08,-135.3 1227.08,-128.3"/>
</g>
<!-- PrefixPipe -->
<g id="node4" class="node">
<title>PrefixPipe</title>
<polygon fill="#ffffb3" stroke="black" points="1577.6,-84.8 1502.4,-84.8 1502.4,-48.8 1577.6,-48.8 1577.6,-84.8"/>
<text text-anchor="middle" x="1540" y="-62.6" font-family="Times,serif" font-size="14.00">PrefixPipe</text>
</g>
<!-- PrefixPipe&#45;&gt;GraphVisualizerModule -->
<g id="edge4" class="edge">
<title>PrefixPipe&#45;&gt;GraphVisualizerModule</title>
<path fill="none" stroke="black" d="M1540,-84.82C1540,-102.17 1540,-125.8 1540,-125.8 1540,-125.8 1227.46,-125.8 1227.46,-125.8"/>
<polygon fill="black" stroke="black" points="1227.46,-122.3 1217.46,-125.8 1227.46,-129.3 1227.46,-122.3"/>
</g>
<!-- SelectResultsComponent -->
<g id="node5" class="node">
<title>SelectResultsComponent</title>
<polygon fill="#ffffb3" stroke="black" points="1484.27,-84.8 1327.73,-84.8 1327.73,-48.8 1484.27,-48.8 1484.27,-84.8"/>
<text text-anchor="middle" x="1406" y="-62.6" font-family="Times,serif" font-size="14.00">SelectResultsComponent</text>
</g>
<!-- SelectResultsComponent&#45;&gt;GraphVisualizerModule -->
<g id="edge5" class="edge">
<title>SelectResultsComponent&#45;&gt;GraphVisualizerModule</title>
<path fill="none" stroke="black" d="M1406,-85.04C1406,-100.37 1406,-119.8 1406,-119.8 1406,-119.8 1227.29,-119.8 1227.29,-119.8"/>
<polygon fill="black" stroke="black" points="1227.29,-116.3 1217.29,-119.8 1227.29,-123.3 1227.29,-116.3"/>
</g>
<!-- SparqlEditorComponent -->
<g id="node6" class="node">
<title>SparqlEditorComponent</title>
<polygon fill="#ffffb3" stroke="black" points="1309.38,-84.8 1156.62,-84.8 1156.62,-48.8 1309.38,-48.8 1309.38,-84.8"/>
<text text-anchor="middle" x="1233" y="-62.6" font-family="Times,serif" font-size="14.00">SparqlEditorComponent</text>
</g>
<!-- SparqlEditorComponent&#45;&gt;GraphVisualizerModule -->
<g id="edge6" class="edge">
<title>SparqlEditorComponent&#45;&gt;GraphVisualizerModule</title>
<path fill="none" stroke="black" d="M1186.8,-84.91C1186.8,-84.91 1186.8,-103.79 1186.8,-103.79"/>
<polygon fill="black" stroke="black" points="1183.3,-103.79 1186.8,-113.79 1190.3,-103.79 1183.3,-103.79"/>
</g>
<!-- SparqlNoResultsComponent -->
<g id="node7" class="node">
<title>SparqlNoResultsComponent</title>
<polygon fill="#ffffb3" stroke="black" points="1138.22,-84.8 961.78,-84.8 961.78,-48.8 1138.22,-48.8 1138.22,-84.8"/>
<text text-anchor="middle" x="1050" y="-62.6" font-family="Times,serif" font-size="14.00">SparqlNoResultsComponent</text>
</g>
<!-- SparqlNoResultsComponent&#45;&gt;GraphVisualizerModule -->
<g id="edge7" class="edge">
<title>SparqlNoResultsComponent&#45;&gt;GraphVisualizerModule</title>
<path fill="none" stroke="black" d="M1101.54,-84.91C1101.54,-84.91 1101.54,-103.79 1101.54,-103.79"/>
<polygon fill="black" stroke="black" points="1098.04,-103.79 1101.54,-113.79 1105.04,-103.79 1098.04,-103.79"/>
</g>
<!-- SparqlTableComponent -->
<g id="node8" class="node">
<title>SparqlTableComponent</title>
<polygon fill="#ffffb3" stroke="black" points="943.75,-84.8 794.25,-84.8 794.25,-48.8 943.75,-48.8 943.75,-84.8"/>
<text text-anchor="middle" x="869" y="-62.6" font-family="Times,serif" font-size="14.00">SparqlTableComponent</text>
</g>
<!-- SparqlTableComponent&#45;&gt;GraphVisualizerModule -->
<g id="edge8" class="edge">
<title>SparqlTableComponent&#45;&gt;GraphVisualizerModule</title>
<path fill="none" stroke="black" d="M869,-85.04C869,-100.37 869,-119.8 869,-119.8 869,-119.8 1054.87,-119.8 1054.87,-119.8"/>
<polygon fill="black" stroke="black" points="1054.87,-123.3 1064.87,-119.8 1054.87,-116.3 1054.87,-123.3"/>
</g>
<!-- TriplesEditorComponent -->
<g id="node9" class="node">
<title>TriplesEditorComponent</title>
<polygon fill="#ffffb3" stroke="black" points="775.98,-84.8 620.02,-84.8 620.02,-48.8 775.98,-48.8 775.98,-84.8"/>
<text text-anchor="middle" x="698" y="-62.6" font-family="Times,serif" font-size="14.00">TriplesEditorComponent</text>
</g>
<!-- TriplesEditorComponent&#45;&gt;GraphVisualizerModule -->
<g id="edge9" class="edge">
<title>TriplesEditorComponent&#45;&gt;GraphVisualizerModule</title>
<path fill="none" stroke="black" d="M698,-84.82C698,-102.17 698,-125.8 698,-125.8 698,-125.8 1054.85,-125.8 1054.85,-125.8"/>
<polygon fill="black" stroke="black" points="1054.85,-129.3 1064.85,-125.8 1054.85,-122.3 1054.85,-129.3"/>
</g>
<!-- UnsupportedTypeResultsComponent -->
<g id="node10" class="node">
<title>UnsupportedTypeResultsComponent</title>
<polygon fill="#ffffb3" stroke="black" points="601.65,-84.8 378.35,-84.8 378.35,-48.8 601.65,-48.8 601.65,-84.8"/>
<text text-anchor="middle" x="490" y="-62.6" font-family="Times,serif" font-size="14.00">UnsupportedTypeResultsComponent</text>
</g>
<!-- UnsupportedTypeResultsComponent&#45;&gt;GraphVisualizerModule -->
<g id="edge10" class="edge">
<title>UnsupportedTypeResultsComponent&#45;&gt;GraphVisualizerModule</title>
<path fill="none" stroke="black" d="M490,-84.91C490,-104.14 490,-131.8 490,-131.8 490,-131.8 1054.73,-131.8 1054.73,-131.8"/>
<polygon fill="black" stroke="black" points="1054.73,-135.3 1064.73,-131.8 1054.73,-128.3 1054.73,-135.3"/>
</g>
<!-- GraphVisualizerComponent  -->
<g id="node13" class="node">
<title>GraphVisualizerComponent </title>
<polygon fill="#fb8072" stroke="black" points="1229.85,-214.8 1052.15,-214.8 1052.15,-178.8 1229.85,-178.8 1229.85,-214.8"/>
<text text-anchor="middle" x="1141" y="-192.6" font-family="Times,serif" font-size="14.00">GraphVisualizerComponent </text>
</g>
<!-- GraphVisualizerModule&#45;&gt;GraphVisualizerComponent  -->
<g id="edge12" class="edge">
<title>GraphVisualizerModule&#45;&gt;GraphVisualizerComponent </title>
<path fill="none" stroke="black" stroke-dasharray="5,2" d="M1141,-149.91C1141,-149.91 1141,-168.79 1141,-168.79"/>
<polygon fill="black" stroke="black" points="1137.5,-168.79 1141,-178.79 1144.5,-168.79 1137.5,-168.79"/>
</g>
<!-- SharedModule -->
<g id="node12" class="node">
<title>SharedModule</title>
<polygon fill="#8dd3c7" stroke="black" points="354.43,-84.8 351.43,-88.8 330.43,-88.8 327.43,-84.8 255.57,-84.8 255.57,-48.8 354.43,-48.8 354.43,-84.8"/>
<text text-anchor="middle" x="305" y="-62.6" font-family="Times,serif" font-size="14.00">SharedModule</text>
</g>
<!-- SharedModule&#45;&gt;GraphVisualizerModule -->
<g id="edge11" class="edge">
<title>SharedModule&#45;&gt;GraphVisualizerModule</title>
<path fill="none" stroke="black" d="M305,-85.08C305,-106.12 305,-137.8 305,-137.8 305,-137.8 1054.59,-137.8 1054.59,-137.8"/>
<polygon fill="black" stroke="black" points="1054.59,-141.3 1064.59,-137.8 1054.59,-134.3 1054.59,-141.3"/>
</g>
<!-- GraphVisualizerService -->
<g id="node14" class="node">
<title>GraphVisualizerService</title>
<ellipse fill="#fdb462" stroke="black" cx="128" cy="-66.8" rx="103.62" ry="18"/>
<text text-anchor="middle" x="128" y="-62.6" font-family="Times,serif" font-size="14.00">GraphVisualizerService</text>
</g>
<!-- GraphVisualizerService&#45;&gt;GraphVisualizerModule -->
<g id="edge13" class="edge">
<title>GraphVisualizerService&#45;&gt;GraphVisualizerModule</title>
<path fill="none" stroke="black" d="M128,-85.05C128,-107.82 128,-143.8 128,-143.8 128,-143.8 1054.86,-143.8 1054.86,-143.8"/>
<polygon fill="black" stroke="black" points="1054.86,-147.3 1064.86,-143.8 1054.86,-140.3 1054.86,-147.3"/>
</g>
</g>
</svg>
