<?xml version="1.0" encoding="UTF-8" standalone="no"?>
<!DOCTYPE svg PUBLIC "-//W3C//DTD SVG 1.1//EN"
 "http://www.w3.org/Graphics/SVG/1.1/DTD/svg11.dtd">
<!-- Generated by graphviz version 2.40.1 (20161225.0304)
 -->
<!-- Title: dependencies Pages: 1 -->
<svg width="504pt" height="284pt"
 viewBox="0.00 0.00 504.00 284.00" xmlns="http://www.w3.org/2000/svg" xmlns:xlink="http://www.w3.org/1999/xlink">
<g id="graph0" class="graph" transform="scale(1 1) rotate(0) translate(4 280)">
<title>dependencies</title>
<polygon fill="#ffffff" stroke="transparent" points="-4,4 -4,-280 500,-280 500,4 -4,4"/>
<text text-anchor="start" x="227.0091" y="-42.4" font-family="sans-serif" font-weight="bold" font-size="14.00" fill="#000000">Legend</text>
<polygon fill="#ffffb3" stroke="transparent" points="14,-10 14,-30 34,-30 34,-10 14,-10"/>
<text text-anchor="start" x="37.629" y="-15.4" font-family="sans-serif" font-size="14.00" fill="#000000"> &#160;Declarations</text>
<polygon fill="#8dd3c7" stroke="transparent" points="127,-10 127,-30 147,-30 147,-10 127,-10"/>
<text text-anchor="start" x="150.7251" y="-15.4" font-family="sans-serif" font-size="14.00" fill="#000000"> &#160;Module</text>
<polygon fill="#80b1d3" stroke="transparent" points="213,-10 213,-30 233,-30 233,-10 213,-10"/>
<text text-anchor="start" x="236.7812" y="-15.4" font-family="sans-serif" font-size="14.00" fill="#000000"> &#160;Bootstrap</text>
<polygon fill="#fdb462" stroke="transparent" points="310,-10 310,-30 330,-30 330,-10 310,-10"/>
<text text-anchor="start" x="333.6732" y="-15.4" font-family="sans-serif" font-size="14.00" fill="#000000"> &#160;Providers</text>
<polygon fill="#fb8072" stroke="transparent" points="406,-10 406,-30 426,-30 426,-10 406,-10"/>
<text text-anchor="start" x="429.7258" y="-15.4" font-family="sans-serif" font-size="14.00" fill="#000000"> &#160;Exports</text>
<g id="clust1" class="cluster">
<title>cluster_FolioModule</title>
<polygon fill="none" stroke="#000000" stroke-dasharray="1,5" points="88,-70 88,-268 408,-268 408,-70 88,-70"/>
</g>
<g id="clust2" class="cluster">
<title>cluster_FolioModule_declarations</title>
<polygon fill="none" stroke="#000000" points="218,-78 218,-130 400,-130 400,-78 218,-78"/>
</g>
<g id="clust4" class="cluster">
<title>cluster_FolioModule_imports</title>
<polygon fill="none" stroke="#000000" points="96,-78 96,-130 210,-130 210,-78 96,-78"/>
</g>
<g id="clust5" class="cluster">
<title>cluster_FolioModule_exports</title>
<polygon fill="none" stroke="#000000" points="155,-208 155,-260 341,-260 341,-208 155,-208"/>
</g>
<!-- FolioOverviewComponent -->
<g id="node1" class="node">
<title>FolioOverviewComponent</title>
<polygon fill="#ffffb3" stroke="#000000" points="392.0898,-122 225.9102,-122 225.9102,-86 392.0898,-86 392.0898,-122"/>
<text text-anchor="middle" x="309" y="-99.8" font-family="Times,serif" font-size="14.00" fill="#000000">FolioOverviewComponent</text>
</g>
<!-- FolioModule -->
<g id="node2" class="node">
<title>FolioModule</title>
<polygon fill="#8dd3c7" stroke="#000000" points="292.6137,-187 289.6137,-191 268.6137,-191 265.6137,-187 203.3863,-187 203.3863,-151 292.6137,-151 292.6137,-187"/>
<text text-anchor="middle" x="248" y="-164.8" font-family="Times,serif" font-size="14.00" fill="#000000">FolioModule</text>
</g>
<!-- FolioOverviewComponent&#45;&gt;FolioModule -->
<g id="edge1" class="edge">
<title>FolioOverviewComponent&#45;&gt;FolioModule</title>
<path fill="none" stroke="#000000" d="M259.256,-122.1061C259.256,-122.1061 259.256,-140.991 259.256,-140.991"/>
<polygon fill="#000000" stroke="#000000" points="255.756,-140.9909 259.256,-150.991 262.756,-140.991 255.756,-140.9909"/>
</g>
<!-- FolioOverviewComponent  -->
<g id="node4" class="node">
<title>FolioOverviewComponent </title>
<polygon fill="#fb8072" stroke="#000000" points="332.5903,-252 163.4097,-252 163.4097,-216 332.5903,-216 332.5903,-252"/>
<text text-anchor="middle" x="248" y="-229.8" font-family="Times,serif" font-size="14.00" fill="#000000">FolioOverviewComponent </text>
</g>
<!-- FolioModule&#45;&gt;FolioOverviewComponent  -->
<g id="edge3" class="edge">
<title>FolioModule&#45;&gt;FolioOverviewComponent </title>
<path fill="none" stroke="#000000" stroke-dasharray="5,2" d="M248,-187.1061C248,-187.1061 248,-205.991 248,-205.991"/>
<polygon fill="#000000" stroke="#000000" points="244.5001,-205.9909 248,-215.991 251.5001,-205.991 244.5001,-205.9909"/>
</g>
<!-- SharedModule -->
<g id="node3" class="node">
<title>SharedModule</title>
<polygon fill="#8dd3c7" stroke="#000000" points="202.4231,-122 199.4231,-126 178.4231,-126 175.4231,-122 103.5769,-122 103.5769,-86 202.4231,-86 202.4231,-122"/>
<text text-anchor="middle" x="153" y="-99.8" font-family="Times,serif" font-size="14.00" fill="#000000">SharedModule</text>
</g>
<!-- SharedModule&#45;&gt;FolioModule -->
<g id="edge2" class="edge">
<title>SharedModule&#45;&gt;FolioModule</title>
<path fill="none" stroke="#000000" d="M202.2134,-104C209.5437,-104 214.6992,-104 214.6992,-104 214.6992,-104 214.6992,-140.8939 214.6992,-140.8939"/>
<polygon fill="#000000" stroke="#000000" points="211.1992,-140.8938 214.6992,-150.8939 218.1992,-140.8939 211.1992,-140.8938"/>
</g>
</g>
</svg>
