<?xml version="1.0" encoding="UTF-8" standalone="no"?>
<!DOCTYPE svg PUBLIC "-//W3C//DTD SVG 1.1//EN"
 "http://www.w3.org/Graphics/SVG/1.1/DTD/svg11.dtd">
<!-- Generated by graphviz version 2.47.0 (20210316.0004)
 -->
<!-- Title: dependencies Pages: 1 -->
<svg width="504pt" height="284pt"
 viewBox="0.00 0.00 504.00 284.00" xmlns="http://www.w3.org/2000/svg" xmlns:xlink="http://www.w3.org/1999/xlink">
<g id="graph0" class="graph" transform="scale(1 1) rotate(0) translate(4 280)">
<title>dependencies</title>
<polygon fill="white" stroke="transparent" points="-4,4 -4,-280 500,-280 500,4 -4,4"/>
<text text-anchor="start" x="227.01" y="-42.4" font-family="sans-serif" font-weight="bold" font-size="14.00">Legend</text>
<polygon fill="#ffffb3" stroke="transparent" points="14,-10 14,-30 34,-30 34,-10 14,-10"/>
<text text-anchor="start" x="37.63" y="-15.4" font-family="sans-serif" font-size="14.00"> &#160;Declarations</text>
<polygon fill="#8dd3c7" stroke="transparent" points="127,-10 127,-30 147,-30 147,-10 127,-10"/>
<text text-anchor="start" x="150.73" y="-15.4" font-family="sans-serif" font-size="14.00"> &#160;Module</text>
<polygon fill="#80b1d3" stroke="transparent" points="213,-10 213,-30 233,-30 233,-10 213,-10"/>
<text text-anchor="start" x="236.78" y="-15.4" font-family="sans-serif" font-size="14.00"> &#160;Bootstrap</text>
<polygon fill="#fdb462" stroke="transparent" points="310,-10 310,-30 330,-30 330,-10 310,-10"/>
<text text-anchor="start" x="333.67" y="-15.4" font-family="sans-serif" font-size="14.00"> &#160;Providers</text>
<polygon fill="#fb8072" stroke="transparent" points="406,-10 406,-30 426,-30 426,-10 406,-10"/>
<text text-anchor="start" x="429.73" y="-15.4" font-family="sans-serif" font-size="14.00"> &#160;Exports</text>
<g id="clust1" class="cluster">
<title>cluster_FolioModule</title>
<polygon fill="none" stroke="black" stroke-dasharray="1,5" points="88,-70 88,-268 408,-268 408,-70 88,-70"/>
</g>
<g id="clust4" class="cluster">
<title>cluster_FolioModule_imports</title>
<polygon fill="none" stroke="black" points="286,-78 286,-130 400,-130 400,-78 286,-78"/>
</g>
<g id="clust5" class="cluster">
<title>cluster_FolioModule_exports</title>
<polygon fill="none" stroke="black" points="155,-208 155,-260 341,-260 341,-208 155,-208"/>
</g>
<g id="clust2" class="cluster">
<title>cluster_FolioModule_declarations</title>
<polygon fill="none" stroke="black" points="96,-78 96,-130 278,-130 278,-78 96,-78"/>
</g>
<!-- FolioOverviewComponent -->
<g id="node1" class="node">
<title>FolioOverviewComponent</title>
<polygon fill="#ffffb3" stroke="black" points="270.09,-122 103.91,-122 103.91,-86 270.09,-86 270.09,-122"/>
<text text-anchor="middle" x="187" y="-99.8" font-family="Times,serif" font-size="14.00">FolioOverviewComponent</text>
</g>
<!-- FolioModule -->
<g id="node2" class="node">
<title>FolioModule</title>
<polygon fill="#8dd3c7" stroke="black" points="292.61,-187 289.61,-191 268.61,-191 265.61,-187 203.39,-187 203.39,-151 292.61,-151 292.61,-187"/>
<text text-anchor="middle" x="248" y="-164.8" font-family="Times,serif" font-size="14.00">FolioModule</text>
</g>
<!-- FolioOverviewComponent&#45;&gt;FolioModule -->
<g id="edge1" class="edge">
<title>FolioOverviewComponent&#45;&gt;FolioModule</title>
<path fill="none" stroke="black" d="M236.74,-122.11C236.74,-122.11 236.74,-140.99 236.74,-140.99"/>
<polygon fill="black" stroke="black" points="233.24,-140.99 236.74,-150.99 240.24,-140.99 233.24,-140.99"/>
</g>
<!-- FolioOverviewComponent  -->
<g id="node4" class="node">
<title>FolioOverviewComponent </title>
<polygon fill="#fb8072" stroke="black" points="332.59,-252 163.41,-252 163.41,-216 332.59,-216 332.59,-252"/>
<text text-anchor="middle" x="248" y="-229.8" font-family="Times,serif" font-size="14.00">FolioOverviewComponent </text>
</g>
<!-- FolioModule&#45;&gt;FolioOverviewComponent  -->
<g id="edge3" class="edge">
<title>FolioModule&#45;&gt;FolioOverviewComponent </title>
<path fill="none" stroke="black" stroke-dasharray="5,2" d="M248,-187.11C248,-187.11 248,-205.99 248,-205.99"/>
<polygon fill="black" stroke="black" points="244.5,-205.99 248,-215.99 251.5,-205.99 244.5,-205.99"/>
</g>
<!-- SharedModule -->
<g id="node3" class="node">
<title>SharedModule</title>
<polygon fill="#8dd3c7" stroke="black" points="392.42,-122 389.42,-126 368.42,-126 365.42,-122 293.58,-122 293.58,-86 392.42,-86 392.42,-122"/>
<text text-anchor="middle" x="343" y="-99.8" font-family="Times,serif" font-size="14.00">SharedModule</text>
</g>
<!-- SharedModule&#45;&gt;FolioModule -->
<g id="edge2" class="edge">
<title>SharedModule&#45;&gt;FolioModule</title>
<path fill="none" stroke="black" d="M293.79,-104C286.46,-104 281.3,-104 281.3,-104 281.3,-104 281.3,-140.89 281.3,-140.89"/>
<polygon fill="black" stroke="black" points="277.8,-140.89 281.3,-150.89 284.8,-140.89 277.8,-140.89"/>
</g>
</g>
</svg>
