<?xml version="1.0" encoding="UTF-8" standalone="no"?>
<!DOCTYPE svg PUBLIC "-//W3C//DTD SVG 1.1//EN"
 "http://www.w3.org/Graphics/SVG/1.1/DTD/svg11.dtd">
<!-- Generated by graphviz version 2.47.3 (20210619.1520)
 -->
<!-- Title: dependencies Pages: 1 -->
<svg width="344pt" height="247pt"
 viewBox="0.00 0.00 344.00 246.80" xmlns="http://www.w3.org/2000/svg" xmlns:xlink="http://www.w3.org/1999/xlink">
<g id="graph0" class="graph" transform="scale(1 1) rotate(0) translate(4 242.8)">
<title>dependencies</title>
<polygon fill="white" stroke="transparent" points="-4,4 -4,-242.8 340,-242.8 340,4 -4,4"/>
<text text-anchor="middle" x="168" y="-8.2" font-family="sans-serif" font-size="14.00">dependencies</text>
<g id="clust1" class="cluster">
<title>cluster_FolioModule</title>
<polygon fill="none" stroke="black" stroke-dasharray="1,5" points="8,-32.8 8,-230.8 328,-230.8 328,-32.8 8,-32.8"/>
</g>
<g id="clust4" class="cluster">
<title>cluster_FolioModule_imports</title>
<polygon fill="none" stroke="black" points="206,-40.8 206,-92.8 320,-92.8 320,-40.8 206,-40.8"/>
</g>
<g id="clust5" class="cluster">
<title>cluster_FolioModule_exports</title>
<polygon fill="none" stroke="black" points="75,-170.8 75,-222.8 261,-222.8 261,-170.8 75,-170.8"/>
</g>
<g id="clust2" class="cluster">
<title>cluster_FolioModule_declarations</title>
<polygon fill="none" stroke="black" points="16,-40.8 16,-92.8 198,-92.8 198,-40.8 16,-40.8"/>
</g>
<!-- FolioOverviewComponent -->
<g id="node1" class="node">
<title>FolioOverviewComponent</title>
<polygon fill="#ffffb3" stroke="black" points="190.09,-84.8 23.91,-84.8 23.91,-48.8 190.09,-48.8 190.09,-84.8"/>
<text text-anchor="middle" x="107" y="-62.6" font-family="Times,serif" font-size="14.00">FolioOverviewComponent</text>
</g>
<!-- FolioModule -->
<g id="node2" class="node">
<title>FolioModule</title>
<polygon fill="#8dd3c7" stroke="black" points="212.61,-149.8 209.61,-153.8 188.61,-153.8 185.61,-149.8 123.39,-149.8 123.39,-113.8 212.61,-113.8 212.61,-149.8"/>
<text text-anchor="middle" x="168" y="-127.6" font-family="Times,serif" font-size="14.00">FolioModule</text>
</g>
<!-- FolioOverviewComponent&#45;&gt;FolioModule -->
<g id="edge1" class="edge">
<title>FolioOverviewComponent&#45;&gt;FolioModule</title>
<path fill="none" stroke="black" d="M156.74,-84.91C156.74,-84.91 156.74,-103.79 156.74,-103.79"/>
<polygon fill="black" stroke="black" points="153.24,-103.79 156.74,-113.79 160.24,-103.79 153.24,-103.79"/>
</g>
<!-- FolioOverviewComponent  -->
<g id="node4" class="node">
<title>FolioOverviewComponent </title>
<polygon fill="#fb8072" stroke="black" points="252.59,-214.8 83.41,-214.8 83.41,-178.8 252.59,-178.8 252.59,-214.8"/>
<text text-anchor="middle" x="168" y="-192.6" font-family="Times,serif" font-size="14.00">FolioOverviewComponent </text>
</g>
<!-- FolioModule&#45;&gt;FolioOverviewComponent  -->
<g id="edge3" class="edge">
<title>FolioModule&#45;&gt;FolioOverviewComponent </title>
<path fill="none" stroke="black" stroke-dasharray="5,2" d="M168,-149.91C168,-149.91 168,-168.79 168,-168.79"/>
<polygon fill="black" stroke="black" points="164.5,-168.79 168,-178.79 171.5,-168.79 164.5,-168.79"/>
</g>
<!-- SharedModule -->
<g id="node3" class="node">
<title>SharedModule</title>
<polygon fill="#8dd3c7" stroke="black" points="312.42,-84.8 309.42,-88.8 288.42,-88.8 285.42,-84.8 213.58,-84.8 213.58,-48.8 312.42,-48.8 312.42,-84.8"/>
<text text-anchor="middle" x="263" y="-62.6" font-family="Times,serif" font-size="14.00">SharedModule</text>
</g>
<!-- SharedModule&#45;&gt;FolioModule -->
<g id="edge2" class="edge">
<title>SharedModule&#45;&gt;FolioModule</title>
<path fill="none" stroke="black" d="M213.79,-66.8C206.46,-66.8 201.3,-66.8 201.3,-66.8 201.3,-66.8 201.3,-103.69 201.3,-103.69"/>
<polygon fill="black" stroke="black" points="197.8,-103.69 201.3,-113.69 204.8,-103.69 197.8,-103.69"/>
</g>
</g>
</svg>
