<?xml version="1.0" encoding="UTF-8" standalone="no"?>
<!DOCTYPE svg PUBLIC "-//W3C//DTD SVG 1.1//EN"
 "http://www.w3.org/Graphics/SVG/1.1/DTD/svg11.dtd">
<!-- Generated by graphviz version 2.40.1 (20161225.0304)
 -->
<!-- Title: dependencies Pages: 1 -->
<svg width="1197pt" height="284pt"
 viewBox="0.00 0.00 1197.00 284.00" xmlns="http://www.w3.org/2000/svg" xmlns:xlink="http://www.w3.org/1999/xlink">
<g id="graph0" class="graph" transform="scale(1 1) rotate(0) translate(4 280)">
<title>dependencies</title>
<polygon fill="#ffffff" stroke="transparent" points="-4,4 -4,-280 1193,-280 1193,4 -4,4"/>
<text text-anchor="start" x="573.5091" y="-42.4" font-family="sans-serif" font-weight="bold" font-size="14.00" fill="#000000">Legend</text>
<polygon fill="#ffffb3" stroke="transparent" points="360.5,-10 360.5,-30 380.5,-30 380.5,-10 360.5,-10"/>
<text text-anchor="start" x="384.129" y="-15.4" font-family="sans-serif" font-size="14.00" fill="#000000"> &#160;Declarations</text>
<polygon fill="#8dd3c7" stroke="transparent" points="473.5,-10 473.5,-30 493.5,-30 493.5,-10 473.5,-10"/>
<text text-anchor="start" x="497.2251" y="-15.4" font-family="sans-serif" font-size="14.00" fill="#000000"> &#160;Module</text>
<polygon fill="#80b1d3" stroke="transparent" points="559.5,-10 559.5,-30 579.5,-30 579.5,-10 559.5,-10"/>
<text text-anchor="start" x="583.2812" y="-15.4" font-family="sans-serif" font-size="14.00" fill="#000000"> &#160;Bootstrap</text>
<polygon fill="#fdb462" stroke="transparent" points="656.5,-10 656.5,-30 676.5,-30 676.5,-10 656.5,-10"/>
<text text-anchor="start" x="680.1732" y="-15.4" font-family="sans-serif" font-size="14.00" fill="#000000"> &#160;Providers</text>
<polygon fill="#fb8072" stroke="transparent" points="752.5,-10 752.5,-30 772.5,-30 772.5,-10 752.5,-10"/>
<text text-anchor="start" x="776.2258" y="-15.4" font-family="sans-serif" font-size="14.00" fill="#000000"> &#160;Exports</text>
<g id="clust1" class="cluster">
<title>cluster_ReportModule</title>
<polygon fill="none" stroke="#000000" stroke-dasharray="1,5" points="8,-70 8,-268 1181,-268 1181,-70 8,-70"/>
</g>
<g id="clust2" class="cluster">
<title>cluster_ReportModule_declarations</title>
<polygon fill="none" stroke="#000000" points="310,-78 310,-130 1173,-130 1173,-78 310,-78"/>
</g>
<g id="clust8" class="cluster">
<title>cluster_ReportModule_imports</title>
<polygon fill="none" stroke="#000000" points="16,-78 16,-130 302,-130 302,-78 16,-78"/>
</g>
<g id="clust9" class="cluster">
<title>cluster_ReportModule_exports</title>
<polygon fill="none" stroke="#000000" points="150,-208 150,-260 1031,-260 1031,-208 150,-208"/>
</g>
<!-- SourceDescriptionComponent -->
<g id="node1" class="node">
<title>SourceDescriptionComponent</title>
<polygon fill="#ffffb3" stroke="#000000" points="1164.5182,-122 979.4818,-122 979.4818,-86 1164.5182,-86 1164.5182,-122"/>
<text text-anchor="middle" x="1072" y="-99.8" font-family="Times,serif" font-size="14.00" fill="#000000">SourceDescriptionComponent</text>
</g>
<!-- ReportModule -->
<g id="node6" class="node">
<title>ReportModule</title>
<polygon fill="#8dd3c7" stroke="#000000" points="588.6528,-187 585.6528,-191 564.6528,-191 561.6528,-187 491.3472,-187 491.3472,-151 588.6528,-151 588.6528,-187"/>
<text text-anchor="middle" x="540" y="-164.8" font-family="Times,serif" font-size="14.00" fill="#000000">ReportModule</text>
</g>
<!-- SourceDescriptionComponent&#45;&gt;ReportModule -->
<g id="edge1" class="edge">
<title>SourceDescriptionComponent&#45;&gt;ReportModule</title>
<path fill="none" stroke="#000000" d="M1000.875,-122.1061C1000.875,-141.3391 1000.875,-169 1000.875,-169 1000.875,-169 598.8854,-169 598.8854,-169"/>
<polygon fill="#000000" stroke="#000000" points="598.8854,-165.5001 588.8854,-169 598.8853,-172.5001 598.8854,-165.5001"/>
</g>
<!-- SourceEvaluationComponent -->
<g id="node2" class="node">
<title>SourceEvaluationComponent</title>
<polygon fill="#ffffb3" stroke="#000000" points="961.3585,-122 780.6415,-122 780.6415,-86 961.3585,-86 961.3585,-122"/>
<text text-anchor="middle" x="871" y="-99.8" font-family="Times,serif" font-size="14.00" fill="#000000">SourceEvaluationComponent</text>
</g>
<!-- SourceEvaluationComponent&#45;&gt;ReportModule -->
<g id="edge2" class="edge">
<title>SourceEvaluationComponent&#45;&gt;ReportModule</title>
<path fill="none" stroke="#000000" d="M797.875,-122.0225C797.875,-139.3734 797.875,-163 797.875,-163 797.875,-163 598.8075,-163 598.8075,-163"/>
<polygon fill="#000000" stroke="#000000" points="598.8075,-159.5001 588.8075,-163 598.8074,-166.5001 598.8075,-159.5001"/>
</g>
<!-- SourceListComponent -->
<g id="node3" class="node">
<title>SourceListComponent</title>
<polygon fill="#ffffb3" stroke="#000000" points="762.9832,-122 621.0168,-122 621.0168,-86 762.9832,-86 762.9832,-122"/>
<text text-anchor="middle" x="692" y="-99.8" font-family="Times,serif" font-size="14.00" fill="#000000">SourceListComponent</text>
</g>
<!-- SourceListComponent&#45;&gt;ReportModule -->
<g id="edge3" class="edge">
<title>SourceListComponent&#45;&gt;ReportModule</title>
<path fill="none" stroke="#000000" d="M625.9146,-122.2396C625.9146,-137.5706 625.9146,-157 625.9146,-157 625.9146,-157 598.7309,-157 598.7309,-157"/>
<polygon fill="#000000" stroke="#000000" points="598.7309,-153.5001 588.7309,-157 598.7309,-160.5001 598.7309,-153.5001"/>
</g>
<!-- SourcesComponent -->
<g id="node4" class="node">
<title>SourcesComponent</title>
<polygon fill="#ffffb3" stroke="#000000" points="602.6499,-122 477.3501,-122 477.3501,-86 602.6499,-86 602.6499,-122"/>
<text text-anchor="middle" x="540" y="-99.8" font-family="Times,serif" font-size="14.00" fill="#000000">SourcesComponent</text>
</g>
<!-- SourcesComponent&#45;&gt;ReportModule -->
<g id="edge4" class="edge">
<title>SourcesComponent&#45;&gt;ReportModule</title>
<path fill="none" stroke="#000000" d="M540,-122.1061C540,-122.1061 540,-140.991 540,-140.991"/>
<polygon fill="#000000" stroke="#000000" points="536.5001,-140.9909 540,-150.991 543.5001,-140.991 536.5001,-140.9909"/>
</g>
<!-- TextcriticsComponent -->
<g id="node5" class="node">
<title>TextcriticsComponent</title>
<polygon fill="#ffffb3" stroke="#000000" points="459.6965,-122 318.3035,-122 318.3035,-86 459.6965,-86 459.6965,-122"/>
<text text-anchor="middle" x="389" y="-99.8" font-family="Times,serif" font-size="14.00" fill="#000000">TextcriticsComponent</text>
</g>
<!-- TextcriticsComponent&#45;&gt;ReportModule -->
<g id="edge5" class="edge">
<title>TextcriticsComponent&#45;&gt;ReportModule</title>
<path fill="none" stroke="#000000" d="M454.5865,-122.2396C454.5865,-137.5706 454.5865,-157 454.5865,-157 454.5865,-157 481.3052,-157 481.3052,-157"/>
<polygon fill="#000000" stroke="#000000" points="481.3052,-160.5001 491.3052,-157 481.3051,-153.5001 481.3052,-160.5001"/>
</g>
<!-- SourceDescriptionComponent  -->
<g id="node9" class="node">
<title>SourceDescriptionComponent </title>
<polygon fill="#fb8072" stroke="#000000" points="1022.5176,-252 833.4824,-252 833.4824,-216 1022.5176,-216 1022.5176,-252"/>
<text text-anchor="middle" x="928" y="-229.8" font-family="Times,serif" font-size="14.00" fill="#000000">SourceDescriptionComponent </text>
</g>
<!-- ReportModule&#45;&gt;SourceDescriptionComponent  -->
<g id="edge8" class="edge">
<title>ReportModule&#45;&gt;SourceDescriptionComponent </title>
<path fill="none" stroke="#000000" stroke-dasharray="5,2" d="M588.9538,-175C686.8532,-175 897.4602,-175 897.4602,-175 897.4602,-175 897.4602,-205.9775 897.4602,-205.9775"/>
<polygon fill="#000000" stroke="#000000" points="893.9603,-205.9774 897.4602,-215.9775 900.9603,-205.9775 893.9603,-205.9774"/>
</g>
<!-- SourceEvaluationComponent  -->
<g id="node10" class="node">
<title>SourceEvaluationComponent </title>
<polygon fill="#fb8072" stroke="#000000" points="815.3587,-252 630.6413,-252 630.6413,-216 815.3587,-216 815.3587,-252"/>
<text text-anchor="middle" x="723" y="-229.8" font-family="Times,serif" font-size="14.00" fill="#000000">SourceEvaluationComponent </text>
</g>
<!-- ReportModule&#45;&gt;SourceEvaluationComponent  -->
<g id="edge9" class="edge">
<title>ReportModule&#45;&gt;SourceEvaluationComponent </title>
<path fill="none" stroke="#000000" stroke-dasharray="5,2" d="M588.786,-181C634.8462,-181 696.9062,-181 696.9062,-181 696.9062,-181 696.9062,-205.7604 696.9062,-205.7604"/>
<polygon fill="#000000" stroke="#000000" points="693.4063,-205.7604 696.9062,-215.7604 700.4063,-205.7604 693.4063,-205.7604"/>
</g>
<!-- SourceListComponent  -->
<g id="node11" class="node">
<title>SourceListComponent </title>
<polygon fill="#fb8072" stroke="#000000" points="612.984,-252 467.016,-252 467.016,-216 612.984,-216 612.984,-252"/>
<text text-anchor="middle" x="540" y="-229.8" font-family="Times,serif" font-size="14.00" fill="#000000">SourceListComponent </text>
</g>
<!-- ReportModule&#45;&gt;SourceListComponent  -->
<g id="edge10" class="edge">
<title>ReportModule&#45;&gt;SourceListComponent </title>
<path fill="none" stroke="#000000" stroke-dasharray="5,2" d="M540,-187.1061C540,-187.1061 540,-205.991 540,-205.991"/>
<polygon fill="#000000" stroke="#000000" points="536.5001,-205.9909 540,-215.991 543.5001,-205.991 536.5001,-205.9909"/>
</g>
<!-- SourcesComponent  -->
<g id="node12" class="node">
<title>SourcesComponent </title>
<polygon fill="#fb8072" stroke="#000000" points="449.6495,-252 320.3505,-252 320.3505,-216 449.6495,-216 449.6495,-252"/>
<text text-anchor="middle" x="385" y="-229.8" font-family="Times,serif" font-size="14.00" fill="#000000">SourcesComponent </text>
</g>
<!-- ReportModule&#45;&gt;SourcesComponent  -->
<g id="edge11" class="edge">
<title>ReportModule&#45;&gt;SourcesComponent </title>
<path fill="none" stroke="#000000" stroke-dasharray="5,2" d="M490.957,-181C445.5469,-181 385,-181 385,-181 385,-181 385,-205.7604 385,-205.7604"/>
<polygon fill="#000000" stroke="#000000" points="381.5001,-205.7604 385,-215.7604 388.5001,-205.7604 381.5001,-205.7604"/>
</g>
<!-- TextcriticsComponent  -->
<g id="node13" class="node">
<title>TextcriticsComponent </title>
<polygon fill="#fb8072" stroke="#000000" points="302.1967,-252 157.8033,-252 157.8033,-216 302.1967,-216 302.1967,-252"/>
<text text-anchor="middle" x="230" y="-229.8" font-family="Times,serif" font-size="14.00" fill="#000000">TextcriticsComponent </text>
</g>
<!-- ReportModule&#45;&gt;TextcriticsComponent  -->
<g id="edge12" class="edge">
<title>ReportModule&#45;&gt;TextcriticsComponent </title>
<path fill="none" stroke="#000000" stroke-dasharray="5,2" d="M491.0839,-175C420.4518,-175 298.2776,-175 298.2776,-175 298.2776,-175 298.2776,-205.9775 298.2776,-205.9775"/>
<polygon fill="#000000" stroke="#000000" points="294.7776,-205.9774 298.2776,-215.9775 301.7776,-205.9775 294.7776,-205.9774"/>
</g>
<!-- EditionTkaTableModule -->
<g id="node7" class="node">
<title>EditionTkaTableModule</title>
<polygon fill="#8dd3c7" stroke="#000000" points="294.4144,-122 291.4144,-126 270.4144,-126 267.4144,-122 139.5856,-122 139.5856,-86 294.4144,-86 294.4144,-122"/>
<text text-anchor="middle" x="217" y="-99.8" font-family="Times,serif" font-size="14.00" fill="#000000">EditionTkaTableModule</text>
</g>
<!-- EditionTkaTableModule&#45;&gt;ReportModule -->
<g id="edge6" class="edge">
<title>EditionTkaTableModule&#45;&gt;ReportModule</title>
<path fill="none" stroke="#000000" d="M225.9294,-122.0225C225.9294,-139.3734 225.9294,-163 225.9294,-163 225.9294,-163 481.2711,-163 481.2711,-163"/>
<polygon fill="#000000" stroke="#000000" points="481.2711,-166.5001 491.2711,-163 481.271,-159.5001 481.2711,-166.5001"/>
</g>
<!-- SharedModule -->
<g id="node8" class="node">
<title>SharedModule</title>
<polygon fill="#8dd3c7" stroke="#000000" points="122.4231,-122 119.4231,-126 98.4231,-126 95.4231,-122 23.5769,-122 23.5769,-86 122.4231,-86 122.4231,-122"/>
<text text-anchor="middle" x="73" y="-99.8" font-family="Times,serif" font-size="14.00" fill="#000000">SharedModule</text>
</g>
<!-- SharedModule&#45;&gt;ReportModule -->
<g id="edge7" class="edge">
<title>SharedModule&#45;&gt;ReportModule</title>
<path fill="none" stroke="#000000" d="M73,-122.1061C73,-141.3391 73,-169 73,-169 73,-169 481.3444,-169 481.3444,-169"/>
<polygon fill="#000000" stroke="#000000" points="481.3444,-172.5001 491.3444,-169 481.3444,-165.5001 481.3444,-172.5001"/>
</g>
</g>
</svg>
