<?xml version="1.0" encoding="UTF-8" standalone="no"?>
<!DOCTYPE svg PUBLIC "-//W3C//DTD SVG 1.1//EN"
 "http://www.w3.org/Graphics/SVG/1.1/DTD/svg11.dtd">
<!-- Generated by graphviz version 2.40.1 (20161225.0304)
 -->
<!-- Title: dependencies Pages: 1 -->
<svg width="1355pt" height="284pt"
 viewBox="0.00 0.00 1355.00 284.00" xmlns="http://www.w3.org/2000/svg" xmlns:xlink="http://www.w3.org/1999/xlink">
<g id="graph0" class="graph" transform="scale(1 1) rotate(0) translate(4 280)">
<title>dependencies</title>
<polygon fill="#ffffff" stroke="transparent" points="-4,4 -4,-280 1351,-280 1351,4 -4,4"/>
<text text-anchor="start" x="652.5091" y="-42.4" font-family="sans-serif" font-weight="bold" font-size="14.00" fill="#000000">Legend</text>
<polygon fill="#ffffb3" stroke="transparent" points="439.5,-10 439.5,-30 459.5,-30 459.5,-10 439.5,-10"/>
<text text-anchor="start" x="463.129" y="-15.4" font-family="sans-serif" font-size="14.00" fill="#000000"> &#160;Declarations</text>
<polygon fill="#8dd3c7" stroke="transparent" points="552.5,-10 552.5,-30 572.5,-30 572.5,-10 552.5,-10"/>
<text text-anchor="start" x="576.2251" y="-15.4" font-family="sans-serif" font-size="14.00" fill="#000000"> &#160;Module</text>
<polygon fill="#80b1d3" stroke="transparent" points="638.5,-10 638.5,-30 658.5,-30 658.5,-10 638.5,-10"/>
<text text-anchor="start" x="662.2812" y="-15.4" font-family="sans-serif" font-size="14.00" fill="#000000"> &#160;Bootstrap</text>
<polygon fill="#fdb462" stroke="transparent" points="735.5,-10 735.5,-30 755.5,-30 755.5,-10 735.5,-10"/>
<text text-anchor="start" x="759.1732" y="-15.4" font-family="sans-serif" font-size="14.00" fill="#000000"> &#160;Providers</text>
<polygon fill="#fb8072" stroke="transparent" points="831.5,-10 831.5,-30 851.5,-30 851.5,-10 831.5,-10"/>
<text text-anchor="start" x="855.2258" y="-15.4" font-family="sans-serif" font-size="14.00" fill="#000000"> &#160;Exports</text>
<g id="clust1" class="cluster">
<title>cluster_ReportModule</title>
<polygon fill="none" stroke="#000000" stroke-dasharray="1,5" points="8,-70 8,-268 1339,-268 1339,-70 8,-70"/>
</g>
<g id="clust2" class="cluster">
<title>cluster_ReportModule_declarations</title>
<polygon fill="none" stroke="#000000" points="310,-78 310,-130 1331,-130 1331,-78 310,-78"/>
</g>
<g id="clust9" class="cluster">
<title>cluster_ReportModule_imports</title>
<polygon fill="none" stroke="#000000" points="16,-78 16,-130 302,-130 302,-78 16,-78"/>
</g>
<g id="clust10" class="cluster">
<title>cluster_ReportModule_exports</title>
<polygon fill="none" stroke="#000000" points="128,-208 128,-260 1170,-260 1170,-208 128,-208"/>
</g>
<!-- CriticsListComponent -->
<g id="node1" class="node">
<title>CriticsListComponent</title>
<polygon fill="#ffffb3" stroke="#000000" points="1323.4397,-122 1182.5603,-122 1182.5603,-86 1323.4397,-86 1323.4397,-122"/>
<text text-anchor="middle" x="1253" y="-99.8" font-family="Times,serif" font-size="14.00" fill="#000000">CriticsListComponent</text>
</g>
<!-- ReportModule -->
<g id="node7" class="node">
<title>ReportModule</title>
<polygon fill="#8dd3c7" stroke="#000000" points="657.6528,-187 654.6528,-191 633.6528,-191 630.6528,-187 560.3472,-187 560.3472,-151 657.6528,-151 657.6528,-187"/>
<text text-anchor="middle" x="609" y="-164.8" font-family="Times,serif" font-size="14.00" fill="#000000">ReportModule</text>
</g>
<!-- CriticsListComponent&#45;&gt;ReportModule -->
<g id="edge1" class="edge">
<title>CriticsListComponent&#45;&gt;ReportModule</title>
<path fill="none" stroke="#000000" d="M1253,-122.1061C1253,-141.3391 1253,-169 1253,-169 1253,-169 667.6687,-169 667.6687,-169"/>
<polygon fill="#000000" stroke="#000000" points="667.6687,-165.5001 657.6687,-169 667.6686,-172.5001 667.6687,-165.5001"/>
</g>
<!-- SourceDescriptionComponent -->
<g id="node2" class="node">
<title>SourceDescriptionComponent</title>
<polygon fill="#ffffb3" stroke="#000000" points="1164.5182,-122 979.4818,-122 979.4818,-86 1164.5182,-86 1164.5182,-122"/>
<text text-anchor="middle" x="1072" y="-99.8" font-family="Times,serif" font-size="14.00" fill="#000000">SourceDescriptionComponent</text>
</g>
<!-- SourceDescriptionComponent&#45;&gt;ReportModule -->
<g id="edge2" class="edge">
<title>SourceDescriptionComponent&#45;&gt;ReportModule</title>
<path fill="none" stroke="#000000" d="M989.875,-122.0225C989.875,-139.3734 989.875,-163 989.875,-163 989.875,-163 668.013,-163 668.013,-163"/>
<polygon fill="#000000" stroke="#000000" points="668.0131,-159.5001 658.013,-163 668.013,-166.5001 668.0131,-159.5001"/>
</g>
<!-- SourceEvaluationComponent -->
<g id="node3" class="node">
<title>SourceEvaluationComponent</title>
<polygon fill="#ffffb3" stroke="#000000" points="961.3585,-122 780.6415,-122 780.6415,-86 961.3585,-86 961.3585,-122"/>
<text text-anchor="middle" x="871" y="-99.8" font-family="Times,serif" font-size="14.00" fill="#000000">SourceEvaluationComponent</text>
</g>
<!-- SourceEvaluationComponent&#45;&gt;ReportModule -->
<g id="edge3" class="edge">
<title>SourceEvaluationComponent&#45;&gt;ReportModule</title>
<path fill="none" stroke="#000000" d="M786.875,-122.2396C786.875,-137.5706 786.875,-157 786.875,-157 786.875,-157 668.076,-157 668.076,-157"/>
<polygon fill="#000000" stroke="#000000" points="668.076,-153.5001 658.076,-157 668.076,-160.5001 668.076,-153.5001"/>
</g>
<!-- SourceListComponent -->
<g id="node4" class="node">
<title>SourceListComponent</title>
<polygon fill="#ffffb3" stroke="#000000" points="762.9832,-122 621.0168,-122 621.0168,-86 762.9832,-86 762.9832,-122"/>
<text text-anchor="middle" x="692" y="-99.8" font-family="Times,serif" font-size="14.00" fill="#000000">SourceListComponent</text>
</g>
<!-- SourceListComponent&#45;&gt;ReportModule -->
<g id="edge4" class="edge">
<title>SourceListComponent&#45;&gt;ReportModule</title>
<path fill="none" stroke="#000000" d="M639.4173,-122.1061C639.4173,-122.1061 639.4173,-140.991 639.4173,-140.991"/>
<polygon fill="#000000" stroke="#000000" points="635.9173,-140.9909 639.4173,-150.991 642.9173,-140.991 635.9173,-140.9909"/>
</g>
<!-- SourcesComponent -->
<g id="node5" class="node">
<title>SourcesComponent</title>
<polygon fill="#ffffb3" stroke="#000000" points="602.6499,-122 477.3501,-122 477.3501,-86 602.6499,-86 602.6499,-122"/>
<text text-anchor="middle" x="540" y="-99.8" font-family="Times,serif" font-size="14.00" fill="#000000">SourcesComponent</text>
</g>
<!-- SourcesComponent&#45;&gt;ReportModule -->
<g id="edge5" class="edge">
<title>SourcesComponent&#45;&gt;ReportModule</title>
<path fill="none" stroke="#000000" d="M581.4993,-122.1061C581.4993,-122.1061 581.4993,-140.991 581.4993,-140.991"/>
<polygon fill="#000000" stroke="#000000" points="577.9994,-140.9909 581.4993,-150.991 584.9994,-140.991 577.9994,-140.9909"/>
</g>
<!-- TextcriticsComponent -->
<g id="node6" class="node">
<title>TextcriticsComponent</title>
<polygon fill="#ffffb3" stroke="#000000" points="459.6965,-122 318.3035,-122 318.3035,-86 459.6965,-86 459.6965,-122"/>
<text text-anchor="middle" x="389" y="-99.8" font-family="Times,serif" font-size="14.00" fill="#000000">TextcriticsComponent</text>
</g>
<!-- TextcriticsComponent&#45;&gt;ReportModule -->
<g id="edge6" class="edge">
<title>TextcriticsComponent&#45;&gt;ReportModule</title>
<path fill="none" stroke="#000000" d="M452.4283,-122.2396C452.4283,-137.5706 452.4283,-157 452.4283,-157 452.4283,-157 550.318,-157 550.318,-157"/>
<polygon fill="#000000" stroke="#000000" points="550.318,-160.5001 560.318,-157 550.318,-153.5001 550.318,-160.5001"/>
</g>
<!-- CriticsListComponent  -->
<g id="node10" class="node">
<title>CriticsListComponent </title>
<polygon fill="#fb8072" stroke="#000000" points="1161.939,-252 1018.061,-252 1018.061,-216 1161.939,-216 1161.939,-252"/>
<text text-anchor="middle" x="1090" y="-229.8" font-family="Times,serif" font-size="14.00" fill="#000000">CriticsListComponent </text>
</g>
<!-- ReportModule&#45;&gt;CriticsListComponent  -->
<g id="edge9" class="edge">
<title>ReportModule&#45;&gt;CriticsListComponent </title>
<path fill="none" stroke="#000000" stroke-dasharray="5,2" d="M657.7679,-175C780.052,-175 1090,-175 1090,-175 1090,-175 1090,-205.9775 1090,-205.9775"/>
<polygon fill="#000000" stroke="#000000" points="1086.5001,-205.9774 1090,-215.9775 1093.5001,-205.9775 1086.5001,-205.9774"/>
</g>
<!-- SourceDescriptionComponent  -->
<g id="node11" class="node">
<title>SourceDescriptionComponent </title>
<polygon fill="#fb8072" stroke="#000000" points="1000.5176,-252 811.4824,-252 811.4824,-216 1000.5176,-216 1000.5176,-252"/>
<text text-anchor="middle" x="906" y="-229.8" font-family="Times,serif" font-size="14.00" fill="#000000">SourceDescriptionComponent </text>
</g>
<!-- ReportModule&#45;&gt;SourceDescriptionComponent  -->
<g id="edge10" class="edge">
<title>ReportModule&#45;&gt;SourceDescriptionComponent </title>
<path fill="none" stroke="#000000" stroke-dasharray="5,2" d="M657.9656,-181C737.619,-181 886.4602,-181 886.4602,-181 886.4602,-181 886.4602,-205.7604 886.4602,-205.7604"/>
<polygon fill="#000000" stroke="#000000" points="882.9603,-205.7604 886.4602,-215.7604 889.9603,-205.7604 882.9603,-205.7604"/>
</g>
<!-- SourceEvaluationComponent  -->
<g id="node12" class="node">
<title>SourceEvaluationComponent </title>
<polygon fill="#fb8072" stroke="#000000" points="793.3587,-252 608.6413,-252 608.6413,-216 793.3587,-216 793.3587,-252"/>
<text text-anchor="middle" x="701" y="-229.8" font-family="Times,serif" font-size="14.00" fill="#000000">SourceEvaluationComponent </text>
</g>
<!-- ReportModule&#45;&gt;SourceEvaluationComponent  -->
<g id="edge11" class="edge">
<title>ReportModule&#45;&gt;SourceEvaluationComponent </title>
<path fill="none" stroke="#000000" stroke-dasharray="5,2" d="M633.3235,-187.1061C633.3235,-187.1061 633.3235,-205.991 633.3235,-205.991"/>
<polygon fill="#000000" stroke="#000000" points="629.8235,-205.9909 633.3235,-215.991 636.8235,-205.991 629.8235,-205.9909"/>
</g>
<!-- SourceListComponent  -->
<g id="node13" class="node">
<title>SourceListComponent </title>
<polygon fill="#fb8072" stroke="#000000" points="590.984,-252 445.016,-252 445.016,-216 590.984,-216 590.984,-252"/>
<text text-anchor="middle" x="518" y="-229.8" font-family="Times,serif" font-size="14.00" fill="#000000">SourceListComponent </text>
</g>
<!-- ReportModule&#45;&gt;SourceListComponent  -->
<g id="edge12" class="edge">
<title>ReportModule&#45;&gt;SourceListComponent </title>
<path fill="none" stroke="#000000" stroke-dasharray="5,2" d="M575.4578,-187.1061C575.4578,-187.1061 575.4578,-205.991 575.4578,-205.991"/>
<polygon fill="#000000" stroke="#000000" points="571.9578,-205.9909 575.4578,-215.991 578.9578,-205.991 571.9578,-205.9909"/>
</g>
<!-- SourcesComponent  -->
<g id="node14" class="node">
<title>SourcesComponent </title>
<polygon fill="#fb8072" stroke="#000000" points="427.6495,-252 298.3505,-252 298.3505,-216 427.6495,-216 427.6495,-252"/>
<text text-anchor="middle" x="363" y="-229.8" font-family="Times,serif" font-size="14.00" fill="#000000">SourcesComponent </text>
</g>
<!-- ReportModule&#45;&gt;SourcesComponent  -->
<g id="edge13" class="edge">
<title>ReportModule&#45;&gt;SourcesComponent </title>
<path fill="none" stroke="#000000" stroke-dasharray="5,2" d="M560.0982,-181C490.9689,-181 372.9883,-181 372.9883,-181 372.9883,-181 372.9883,-205.7604 372.9883,-205.7604"/>
<polygon fill="#000000" stroke="#000000" points="369.4883,-205.7604 372.9883,-215.7604 376.4883,-205.7604 369.4883,-205.7604"/>
</g>
<!-- TextcriticsComponent  -->
<g id="node15" class="node">
<title>TextcriticsComponent </title>
<polygon fill="#fb8072" stroke="#000000" points="280.1967,-252 135.8033,-252 135.8033,-216 280.1967,-216 280.1967,-252"/>
<text text-anchor="middle" x="208" y="-229.8" font-family="Times,serif" font-size="14.00" fill="#000000">TextcriticsComponent </text>
</g>
<!-- ReportModule&#45;&gt;TextcriticsComponent  -->
<g id="edge14" class="edge">
<title>ReportModule&#45;&gt;TextcriticsComponent </title>
<path fill="none" stroke="#000000" stroke-dasharray="5,2" d="M560.0834,-175C453.5578,-175 210.0707,-175 210.0707,-175 210.0707,-175 210.0707,-205.9775 210.0707,-205.9775"/>
<polygon fill="#000000" stroke="#000000" points="206.5707,-205.9774 210.0707,-215.9775 213.5707,-205.9775 206.5707,-205.9774"/>
</g>
<!-- EditionTkaTableModule -->
<g id="node8" class="node">
<title>EditionTkaTableModule</title>
<polygon fill="#8dd3c7" stroke="#000000" points="294.4144,-122 291.4144,-126 270.4144,-126 267.4144,-122 139.5856,-122 139.5856,-86 294.4144,-86 294.4144,-122"/>
<text text-anchor="middle" x="217" y="-99.8" font-family="Times,serif" font-size="14.00" fill="#000000">EditionTkaTableModule</text>
</g>
<!-- EditionTkaTableModule&#45;&gt;ReportModule -->
<g id="edge7" class="edge">
<title>EditionTkaTableModule&#45;&gt;ReportModule</title>
<path fill="none" stroke="#000000" d="M287.2776,-122.0225C287.2776,-139.3734 287.2776,-163 287.2776,-163 287.2776,-163 550.1373,-163 550.1373,-163"/>
<polygon fill="#000000" stroke="#000000" points="550.1373,-166.5001 560.1373,-163 550.1372,-159.5001 550.1373,-166.5001"/>
</g>
<!-- SharedModule -->
<g id="node9" class="node">
<title>SharedModule</title>
<polygon fill="#8dd3c7" stroke="#000000" points="122.4231,-122 119.4231,-126 98.4231,-126 95.4231,-122 23.5769,-122 23.5769,-86 122.4231,-86 122.4231,-122"/>
<text text-anchor="middle" x="73" y="-99.8" font-family="Times,serif" font-size="14.00" fill="#000000">SharedModule</text>
</g>
<!-- SharedModule&#45;&gt;ReportModule -->
<g id="edge8" class="edge">
<title>SharedModule&#45;&gt;ReportModule</title>
<path fill="none" stroke="#000000" d="M73,-122.1061C73,-141.3391 73,-169 73,-169 73,-169 550.0127,-169 550.0127,-169"/>
<polygon fill="#000000" stroke="#000000" points="550.0127,-172.5001 560.0127,-169 550.0126,-165.5001 550.0127,-172.5001"/>
</g>
</g>
</svg>
