<?xml version="1.0" encoding="UTF-8" standalone="no"?>
<!DOCTYPE svg PUBLIC "-//W3C//DTD SVG 1.1//EN"
 "http://www.w3.org/Graphics/SVG/1.1/DTD/svg11.dtd">
<!-- Generated by graphviz version 2.47.0 (20210316.0004)
 -->
<!-- Title: dependencies Pages: 1 -->
<svg width="650pt" height="284pt"
 viewBox="0.00 0.00 650.00 284.00" xmlns="http://www.w3.org/2000/svg" xmlns:xlink="http://www.w3.org/1999/xlink">
<g id="graph0" class="graph" transform="scale(1 1) rotate(0) translate(4 280)">
<title>dependencies</title>
<polygon fill="white" stroke="transparent" points="-4,4 -4,-280 646,-280 646,4 -4,4"/>
<text text-anchor="start" x="300.01" y="-42.4" font-family="sans-serif" font-weight="bold" font-size="14.00">Legend</text>
<polygon fill="#ffffb3" stroke="transparent" points="87,-10 87,-30 107,-30 107,-10 87,-10"/>
<text text-anchor="start" x="110.63" y="-15.4" font-family="sans-serif" font-size="14.00"> &#160;Declarations</text>
<polygon fill="#8dd3c7" stroke="transparent" points="200,-10 200,-30 220,-30 220,-10 200,-10"/>
<text text-anchor="start" x="223.73" y="-15.4" font-family="sans-serif" font-size="14.00"> &#160;Module</text>
<polygon fill="#80b1d3" stroke="transparent" points="286,-10 286,-30 306,-30 306,-10 286,-10"/>
<text text-anchor="start" x="309.78" y="-15.4" font-family="sans-serif" font-size="14.00"> &#160;Bootstrap</text>
<polygon fill="#fdb462" stroke="transparent" points="383,-10 383,-30 403,-30 403,-10 383,-10"/>
<text text-anchor="start" x="406.67" y="-15.4" font-family="sans-serif" font-size="14.00"> &#160;Providers</text>
<polygon fill="#fb8072" stroke="transparent" points="479,-10 479,-30 499,-30 499,-10 479,-10"/>
<text text-anchor="start" x="502.73" y="-15.4" font-family="sans-serif" font-size="14.00"> &#160;Exports</text>
<g id="clust1" class="cluster">
<title>cluster_TextcriticsModule</title>
<polygon fill="none" stroke="black" stroke-dasharray="1,5" points="8,-70 8,-268 634,-268 634,-70 8,-70"/>
</g>
<g id="clust6" class="cluster">
<title>cluster_TextcriticsModule_exports</title>
<polygon fill="none" stroke="black" points="158,-208 158,-260 480,-260 480,-208 158,-208"/>
</g>
<g id="clust5" class="cluster">
<title>cluster_TextcriticsModule_imports</title>
<polygon fill="none" stroke="black" points="340,-78 340,-130 626,-130 626,-78 340,-78"/>
</g>
<g id="clust2" class="cluster">
<title>cluster_TextcriticsModule_declarations</title>
<polygon fill="none" stroke="black" points="16,-78 16,-130 332,-130 332,-78 16,-78"/>
</g>
<!-- CriticsListComponent -->
<g id="node1" class="node">
<title>CriticsListComponent</title>
<polygon fill="#ffffb3" stroke="black" points="324.44,-122 183.56,-122 183.56,-86 324.44,-86 324.44,-122"/>
<text text-anchor="middle" x="254" y="-99.8" font-family="Times,serif" font-size="14.00">CriticsListComponent</text>
</g>
<!-- TextcriticsModule -->
<g id="node3" class="node">
<title>TextcriticsModule</title>
<polygon fill="#8dd3c7" stroke="black" points="378.91,-187 375.91,-191 354.91,-191 351.91,-187 259.09,-187 259.09,-151 378.91,-151 378.91,-187"/>
<text text-anchor="middle" x="319" y="-164.8" font-family="Times,serif" font-size="14.00">TextcriticsModule</text>
</g>
<!-- CriticsListComponent&#45;&gt;TextcriticsModule -->
<g id="edge1" class="edge">
<title>CriticsListComponent&#45;&gt;TextcriticsModule</title>
<path fill="none" stroke="black" d="M291.76,-122.11C291.76,-122.11 291.76,-140.99 291.76,-140.99"/>
<polygon fill="black" stroke="black" points="288.26,-140.99 291.76,-150.99 295.26,-140.99 288.26,-140.99"/>
</g>
<!-- TextcriticsComponent -->
<g id="node2" class="node">
<title>TextcriticsComponent</title>
<polygon fill="#ffffb3" stroke="black" points="165.7,-122 24.3,-122 24.3,-86 165.7,-86 165.7,-122"/>
<text text-anchor="middle" x="95" y="-99.8" font-family="Times,serif" font-size="14.00">TextcriticsComponent</text>
</g>
<!-- TextcriticsComponent&#45;&gt;TextcriticsModule -->
<g id="edge2" class="edge">
<title>TextcriticsComponent&#45;&gt;TextcriticsModule</title>
<path fill="none" stroke="black" d="M95,-122.11C95,-141.34 95,-169 95,-169 95,-169 249.27,-169 249.27,-169"/>
<polygon fill="black" stroke="black" points="249.27,-172.5 259.27,-169 249.27,-165.5 249.27,-172.5"/>
</g>
<!-- CriticsListComponent  -->
<g id="node6" class="node">
<title>CriticsListComponent </title>
<polygon fill="#fb8072" stroke="black" points="471.94,-252 328.06,-252 328.06,-216 471.94,-216 471.94,-252"/>
<text text-anchor="middle" x="400" y="-229.8" font-family="Times,serif" font-size="14.00">CriticsListComponent </text>
</g>
<!-- TextcriticsModule&#45;&gt;CriticsListComponent  -->
<g id="edge5" class="edge">
<title>TextcriticsModule&#45;&gt;CriticsListComponent </title>
<path fill="none" stroke="black" stroke-dasharray="5,2" d="M353.37,-187.11C353.37,-187.11 353.37,-205.99 353.37,-205.99"/>
<polygon fill="black" stroke="black" points="349.87,-205.99 353.37,-215.99 356.87,-205.99 349.87,-205.99"/>
</g>
<!-- TextcriticsComponent  -->
<g id="node7" class="node">
<title>TextcriticsComponent </title>
<polygon fill="#fb8072" stroke="black" points="310.2,-252 165.8,-252 165.8,-216 310.2,-216 310.2,-252"/>
<text text-anchor="middle" x="238" y="-229.8" font-family="Times,serif" font-size="14.00">TextcriticsComponent </text>
</g>
<!-- TextcriticsModule&#45;&gt;TextcriticsComponent  -->
<g id="edge6" class="edge">
<title>TextcriticsModule&#45;&gt;TextcriticsComponent </title>
<path fill="none" stroke="black" stroke-dasharray="5,2" d="M284.82,-187.11C284.82,-187.11 284.82,-205.99 284.82,-205.99"/>
<polygon fill="black" stroke="black" points="281.32,-205.99 284.82,-215.99 288.32,-205.99 281.32,-205.99"/>
</g>
<!-- EditionTkaTableModule -->
<g id="node4" class="node">
<title>EditionTkaTableModule</title>
<polygon fill="#8dd3c7" stroke="black" points="618.41,-122 615.41,-126 594.41,-126 591.41,-122 463.59,-122 463.59,-86 618.41,-86 618.41,-122"/>
<text text-anchor="middle" x="541" y="-99.8" font-family="Times,serif" font-size="14.00">EditionTkaTableModule</text>
</g>
<!-- EditionTkaTableModule&#45;&gt;TextcriticsModule -->
<g id="edge3" class="edge">
<title>EditionTkaTableModule&#45;&gt;TextcriticsModule</title>
<path fill="none" stroke="black" d="M467.88,-122.11C467.88,-141.34 467.88,-169 467.88,-169 467.88,-169 389.13,-169 389.13,-169"/>
<polygon fill="black" stroke="black" points="389.13,-165.5 379.13,-169 389.13,-172.5 389.13,-165.5"/>
</g>
<!-- SharedModule -->
<g id="node5" class="node">
<title>SharedModule</title>
<polygon fill="#8dd3c7" stroke="black" points="446.42,-122 443.42,-126 422.42,-126 419.42,-122 347.58,-122 347.58,-86 446.42,-86 446.42,-122"/>
<text text-anchor="middle" x="397" y="-99.8" font-family="Times,serif" font-size="14.00">SharedModule</text>
</g>
<!-- SharedModule&#45;&gt;TextcriticsModule -->
<g id="edge4" class="edge">
<title>SharedModule&#45;&gt;TextcriticsModule</title>
<path fill="none" stroke="black" d="M363.25,-122.11C363.25,-122.11 363.25,-140.99 363.25,-140.99"/>
<polygon fill="black" stroke="black" points="359.75,-140.99 363.25,-150.99 366.75,-140.99 359.75,-140.99"/>
</g>
</g>
</svg>
