<?xml version="1.0" encoding="UTF-8" standalone="no"?>
<!DOCTYPE svg PUBLIC "-//W3C//DTD SVG 1.1//EN"
 "http://www.w3.org/Graphics/SVG/1.1/DTD/svg11.dtd">
<!-- Generated by graphviz version 2.47.3 (20210619.1520)
 -->
<!-- Title: dependencies Pages: 1 -->
<svg width="650pt" height="247pt"
 viewBox="0.00 0.00 650.00 246.80" xmlns="http://www.w3.org/2000/svg" xmlns:xlink="http://www.w3.org/1999/xlink">
<g id="graph0" class="graph" transform="scale(1 1) rotate(0) translate(4 242.8)">
<title>dependencies</title>
<polygon fill="white" stroke="transparent" points="-4,4 -4,-242.8 646,-242.8 646,4 -4,4"/>
<text text-anchor="middle" x="321" y="-8.2" font-family="sans-serif" font-size="14.00">dependencies</text>
<g id="clust1" class="cluster">
<title>cluster_TextcriticsModule</title>
<polygon fill="none" stroke="black" stroke-dasharray="1,5" points="8,-32.8 8,-230.8 634,-230.8 634,-32.8 8,-32.8"/>
</g>
<g id="clust5" class="cluster">
<title>cluster_TextcriticsModule_imports</title>
<polygon fill="none" stroke="black" points="340,-40.8 340,-92.8 626,-92.8 626,-40.8 340,-40.8"/>
</g>
<g id="clust2" class="cluster">
<title>cluster_TextcriticsModule_declarations</title>
<polygon fill="none" stroke="black" points="16,-40.8 16,-92.8 332,-92.8 332,-40.8 16,-40.8"/>
</g>
<g id="clust6" class="cluster">
<title>cluster_TextcriticsModule_exports</title>
<polygon fill="none" stroke="black" points="158,-170.8 158,-222.8 480,-222.8 480,-170.8 158,-170.8"/>
</g>
<!-- CriticsListComponent -->
<g id="node1" class="node">
<title>CriticsListComponent</title>
<polygon fill="#ffffb3" stroke="black" points="324.44,-84.8 183.56,-84.8 183.56,-48.8 324.44,-48.8 324.44,-84.8"/>
<text text-anchor="middle" x="254" y="-62.6" font-family="Times,serif" font-size="14.00">CriticsListComponent</text>
</g>
<!-- TextcriticsModule -->
<g id="node3" class="node">
<title>TextcriticsModule</title>
<polygon fill="#8dd3c7" stroke="black" points="378.91,-149.8 375.91,-153.8 354.91,-153.8 351.91,-149.8 259.09,-149.8 259.09,-113.8 378.91,-113.8 378.91,-149.8"/>
<text text-anchor="middle" x="319" y="-127.6" font-family="Times,serif" font-size="14.00">TextcriticsModule</text>
</g>
<!-- CriticsListComponent&#45;&gt;TextcriticsModule -->
<g id="edge1" class="edge">
<title>CriticsListComponent&#45;&gt;TextcriticsModule</title>
<path fill="none" stroke="black" d="M291.76,-84.91C291.76,-84.91 291.76,-103.79 291.76,-103.79"/>
<polygon fill="black" stroke="black" points="288.26,-103.79 291.76,-113.79 295.26,-103.79 288.26,-103.79"/>
</g>
<!-- TextcriticsComponent -->
<g id="node2" class="node">
<title>TextcriticsComponent</title>
<polygon fill="#ffffb3" stroke="black" points="165.7,-84.8 24.3,-84.8 24.3,-48.8 165.7,-48.8 165.7,-84.8"/>
<text text-anchor="middle" x="95" y="-62.6" font-family="Times,serif" font-size="14.00">TextcriticsComponent</text>
</g>
<!-- TextcriticsComponent&#45;&gt;TextcriticsModule -->
<g id="edge2" class="edge">
<title>TextcriticsComponent&#45;&gt;TextcriticsModule</title>
<path fill="none" stroke="black" d="M95,-84.91C95,-104.14 95,-131.8 95,-131.8 95,-131.8 249.27,-131.8 249.27,-131.8"/>
<polygon fill="black" stroke="black" points="249.27,-135.3 259.27,-131.8 249.27,-128.3 249.27,-135.3"/>
</g>
<!-- CriticsListComponent  -->
<g id="node6" class="node">
<title>CriticsListComponent </title>
<polygon fill="#fb8072" stroke="black" points="471.94,-214.8 328.06,-214.8 328.06,-178.8 471.94,-178.8 471.94,-214.8"/>
<text text-anchor="middle" x="400" y="-192.6" font-family="Times,serif" font-size="14.00">CriticsListComponent </text>
</g>
<!-- TextcriticsModule&#45;&gt;CriticsListComponent  -->
<g id="edge5" class="edge">
<title>TextcriticsModule&#45;&gt;CriticsListComponent </title>
<path fill="none" stroke="black" stroke-dasharray="5,2" d="M353.37,-149.91C353.37,-149.91 353.37,-168.79 353.37,-168.79"/>
<polygon fill="black" stroke="black" points="349.87,-168.79 353.37,-178.79 356.87,-168.79 349.87,-168.79"/>
</g>
<!-- TextcriticsComponent  -->
<g id="node7" class="node">
<title>TextcriticsComponent </title>
<polygon fill="#fb8072" stroke="black" points="310.2,-214.8 165.8,-214.8 165.8,-178.8 310.2,-178.8 310.2,-214.8"/>
<text text-anchor="middle" x="238" y="-192.6" font-family="Times,serif" font-size="14.00">TextcriticsComponent </text>
</g>
<!-- TextcriticsModule&#45;&gt;TextcriticsComponent  -->
<g id="edge6" class="edge">
<title>TextcriticsModule&#45;&gt;TextcriticsComponent </title>
<path fill="none" stroke="black" stroke-dasharray="5,2" d="M284.82,-149.91C284.82,-149.91 284.82,-168.79 284.82,-168.79"/>
<polygon fill="black" stroke="black" points="281.32,-168.79 284.82,-178.79 288.32,-168.79 281.32,-168.79"/>
</g>
<!-- EditionTkaTableModule -->
<g id="node4" class="node">
<title>EditionTkaTableModule</title>
<polygon fill="#8dd3c7" stroke="black" points="618.41,-84.8 615.41,-88.8 594.41,-88.8 591.41,-84.8 463.59,-84.8 463.59,-48.8 618.41,-48.8 618.41,-84.8"/>
<text text-anchor="middle" x="541" y="-62.6" font-family="Times,serif" font-size="14.00">EditionTkaTableModule</text>
</g>
<!-- EditionTkaTableModule&#45;&gt;TextcriticsModule -->
<g id="edge3" class="edge">
<title>EditionTkaTableModule&#45;&gt;TextcriticsModule</title>
<path fill="none" stroke="black" d="M467.88,-84.91C467.88,-104.14 467.88,-131.8 467.88,-131.8 467.88,-131.8 389.13,-131.8 389.13,-131.8"/>
<polygon fill="black" stroke="black" points="389.13,-128.3 379.13,-131.8 389.13,-135.3 389.13,-128.3"/>
</g>
<!-- SharedModule -->
<g id="node5" class="node">
<title>SharedModule</title>
<polygon fill="#8dd3c7" stroke="black" points="446.42,-84.8 443.42,-88.8 422.42,-88.8 419.42,-84.8 347.58,-84.8 347.58,-48.8 446.42,-48.8 446.42,-84.8"/>
<text text-anchor="middle" x="397" y="-62.6" font-family="Times,serif" font-size="14.00">SharedModule</text>
</g>
<!-- SharedModule&#45;&gt;TextcriticsModule -->
<g id="edge4" class="edge">
<title>SharedModule&#45;&gt;TextcriticsModule</title>
<path fill="none" stroke="black" d="M363.25,-84.91C363.25,-84.91 363.25,-103.79 363.25,-103.79"/>
<polygon fill="black" stroke="black" points="359.75,-103.79 363.25,-113.79 366.75,-103.79 359.75,-103.79"/>
</g>
</g>
</svg>
