<?xml version="1.0" encoding="UTF-8" standalone="no"?>
<!DOCTYPE svg PUBLIC "-//W3C//DTD SVG 1.1//EN"
 "http://www.w3.org/Graphics/SVG/1.1/DTD/svg11.dtd">
<!-- Generated by graphviz version 2.47.0 (20210316.0004)
 -->
<!-- Title: dependencies Pages: 1 -->
<svg width="650pt" height="284pt"
 viewBox="0.00 0.00 650.00 284.00" xmlns="http://www.w3.org/2000/svg" xmlns:xlink="http://www.w3.org/1999/xlink">
<g id="graph0" class="graph" transform="scale(1 1) rotate(0) translate(4 280)">
<title>dependencies</title>
<polygon fill="white" stroke="transparent" points="-4,4 -4,-280 646,-280 646,4 -4,4"/>
<text text-anchor="start" x="300.01" y="-42.4" font-family="sans-serif" font-weight="bold" font-size="14.00">Legend</text>
<polygon fill="#ffffb3" stroke="transparent" points="87,-10 87,-30 107,-30 107,-10 87,-10"/>
<text text-anchor="start" x="110.63" y="-15.4" font-family="sans-serif" font-size="14.00"> &#160;Declarations</text>
<polygon fill="#8dd3c7" stroke="transparent" points="200,-10 200,-30 220,-30 220,-10 200,-10"/>
<text text-anchor="start" x="223.73" y="-15.4" font-family="sans-serif" font-size="14.00"> &#160;Module</text>
<polygon fill="#80b1d3" stroke="transparent" points="286,-10 286,-30 306,-30 306,-10 286,-10"/>
<text text-anchor="start" x="309.78" y="-15.4" font-family="sans-serif" font-size="14.00"> &#160;Bootstrap</text>
<polygon fill="#fdb462" stroke="transparent" points="383,-10 383,-30 403,-30 403,-10 383,-10"/>
<text text-anchor="start" x="406.67" y="-15.4" font-family="sans-serif" font-size="14.00"> &#160;Providers</text>
<polygon fill="#fb8072" stroke="transparent" points="479,-10 479,-30 499,-30 499,-10 479,-10"/>
<text text-anchor="start" x="502.73" y="-15.4" font-family="sans-serif" font-size="14.00"> &#160;Exports</text>
<g id="clust1" class="cluster">
<title>cluster_TextcriticsModule</title>
<polygon fill="none" stroke="black" stroke-dasharray="1,5" points="8,-70 8,-268 634,-268 634,-70 8,-70"/>
</g>
<g id="clust2" class="cluster">
<title>cluster_TextcriticsModule_declarations</title>
<polygon fill="none" stroke="black" points="310,-78 310,-130 626,-130 626,-78 310,-78"/>
</g>
<g id="clust6" class="cluster">
<title>cluster_TextcriticsModule_exports</title>
<polygon fill="none" stroke="black" points="139,-208 139,-260 461,-260 461,-208 139,-208"/>
</g>
<g id="clust5" class="cluster">
<title>cluster_TextcriticsModule_imports</title>
<polygon fill="none" stroke="black" points="16,-78 16,-130 302,-130 302,-78 16,-78"/>
</g>
<!-- CriticsListComponent -->
<g id="node1" class="node">
<title>CriticsListComponent</title>
<polygon fill="#ffffb3" stroke="black" points="618.44,-122 477.56,-122 477.56,-86 618.44,-86 618.44,-122"/>
<text text-anchor="middle" x="548" y="-99.8" font-family="Times,serif" font-size="14.00">CriticsListComponent</text>
</g>
<!-- TextcriticsModule -->
<g id="node3" class="node">
<title>TextcriticsModule</title>
<polygon fill="#8dd3c7" stroke="black" points="359.91,-187 356.91,-191 335.91,-191 332.91,-187 240.09,-187 240.09,-151 359.91,-151 359.91,-187"/>
<text text-anchor="middle" x="300" y="-164.8" font-family="Times,serif" font-size="14.00">TextcriticsModule</text>
</g>
<!-- CriticsListComponent&#45;&gt;TextcriticsModule -->
<g id="edge1" class="edge">
<title>CriticsListComponent&#45;&gt;TextcriticsModule</title>
<path fill="none" stroke="black" d="M548,-122.11C548,-141.34 548,-169 548,-169 548,-169 369.72,-169 369.72,-169"/>
<polygon fill="black" stroke="black" points="369.72,-165.5 359.72,-169 369.72,-172.5 369.72,-165.5"/>
</g>
<!-- TextcriticsComponent -->
<g id="node2" class="node">
<title>TextcriticsComponent</title>
<polygon fill="#ffffb3" stroke="black" points="459.7,-122 318.3,-122 318.3,-86 459.7,-86 459.7,-122"/>
<text text-anchor="middle" x="389" y="-99.8" font-family="Times,serif" font-size="14.00">TextcriticsComponent</text>
</g>
<!-- TextcriticsComponent&#45;&gt;TextcriticsModule -->
<g id="edge2" class="edge">
<title>TextcriticsComponent&#45;&gt;TextcriticsModule</title>
<path fill="none" stroke="black" d="M339.05,-122.11C339.05,-122.11 339.05,-140.99 339.05,-140.99"/>
<polygon fill="black" stroke="black" points="335.55,-140.99 339.05,-150.99 342.55,-140.99 335.55,-140.99"/>
</g>
<!-- CriticsListComponent  -->
<g id="node6" class="node">
<title>CriticsListComponent </title>
<polygon fill="#fb8072" stroke="black" points="452.94,-252 309.06,-252 309.06,-216 452.94,-216 452.94,-252"/>
<text text-anchor="middle" x="381" y="-229.8" font-family="Times,serif" font-size="14.00">CriticsListComponent </text>
</g>
<!-- TextcriticsModule&#45;&gt;CriticsListComponent  -->
<g id="edge5" class="edge">
<title>TextcriticsModule&#45;&gt;CriticsListComponent </title>
<path fill="none" stroke="black" stroke-dasharray="5,2" d="M334.37,-187.11C334.37,-187.11 334.37,-205.99 334.37,-205.99"/>
<polygon fill="black" stroke="black" points="330.87,-205.99 334.37,-215.99 337.87,-205.99 330.87,-205.99"/>
</g>
<!-- TextcriticsComponent  -->
<g id="node7" class="node">
<title>TextcriticsComponent </title>
<polygon fill="#fb8072" stroke="black" points="291.2,-252 146.8,-252 146.8,-216 291.2,-216 291.2,-252"/>
<text text-anchor="middle" x="219" y="-229.8" font-family="Times,serif" font-size="14.00">TextcriticsComponent </text>
</g>
<!-- TextcriticsModule&#45;&gt;TextcriticsComponent  -->
<g id="edge6" class="edge">
<title>TextcriticsModule&#45;&gt;TextcriticsComponent </title>
<path fill="none" stroke="black" stroke-dasharray="5,2" d="M265.82,-187.11C265.82,-187.11 265.82,-205.99 265.82,-205.99"/>
<polygon fill="black" stroke="black" points="262.32,-205.99 265.82,-215.99 269.32,-205.99 262.32,-205.99"/>
</g>
<!-- EditionTkaTableModule -->
<g id="node4" class="node">
<title>EditionTkaTableModule</title>
<polygon fill="#8dd3c7" stroke="black" points="294.41,-122 291.41,-126 270.41,-126 267.41,-122 139.59,-122 139.59,-86 294.41,-86 294.41,-122"/>
<text text-anchor="middle" x="217" y="-99.8" font-family="Times,serif" font-size="14.00">EditionTkaTableModule</text>
</g>
<!-- EditionTkaTableModule&#45;&gt;TextcriticsModule -->
<g id="edge3" class="edge">
<title>EditionTkaTableModule&#45;&gt;TextcriticsModule</title>
<path fill="none" stroke="black" d="M267.25,-122.11C267.25,-122.11 267.25,-140.99 267.25,-140.99"/>
<polygon fill="black" stroke="black" points="263.75,-140.99 267.25,-150.99 270.75,-140.99 263.75,-140.99"/>
</g>
<!-- SharedModule -->
<g id="node5" class="node">
<title>SharedModule</title>
<polygon fill="#8dd3c7" stroke="black" points="122.42,-122 119.42,-126 98.42,-126 95.42,-122 23.58,-122 23.58,-86 122.42,-86 122.42,-122"/>
<text text-anchor="middle" x="73" y="-99.8" font-family="Times,serif" font-size="14.00">SharedModule</text>
</g>
<!-- SharedModule&#45;&gt;TextcriticsModule -->
<g id="edge4" class="edge">
<title>SharedModule&#45;&gt;TextcriticsModule</title>
<path fill="none" stroke="black" d="M73,-122.11C73,-141.34 73,-169 73,-169 73,-169 230.06,-169 230.06,-169"/>
<polygon fill="black" stroke="black" points="230.06,-172.5 240.06,-169 230.06,-165.5 230.06,-172.5"/>
</g>
</g>
</svg>
