<?xml version="1.0" encoding="UTF-8" standalone="no"?>
<!DOCTYPE svg PUBLIC "-//W3C//DTD SVG 1.1//EN"
 "http://www.w3.org/Graphics/SVG/1.1/DTD/svg11.dtd">
<!-- Generated by graphviz version 2.40.1 (20161225.0304)
 -->
<!-- Title: dependencies Pages: 1 -->
<svg width="650pt" height="284pt"
 viewBox="0.00 0.00 650.00 284.00" xmlns="http://www.w3.org/2000/svg" xmlns:xlink="http://www.w3.org/1999/xlink">
<g id="graph0" class="graph" transform="scale(1 1) rotate(0) translate(4 280)">
<title>dependencies</title>
<polygon fill="#ffffff" stroke="transparent" points="-4,4 -4,-280 646,-280 646,4 -4,4"/>
<text text-anchor="start" x="300.0091" y="-42.4" font-family="sans-serif" font-weight="bold" font-size="14.00" fill="#000000">Legend</text>
<polygon fill="#ffffb3" stroke="transparent" points="87,-10 87,-30 107,-30 107,-10 87,-10"/>
<text text-anchor="start" x="110.629" y="-15.4" font-family="sans-serif" font-size="14.00" fill="#000000"> &#160;Declarations</text>
<polygon fill="#8dd3c7" stroke="transparent" points="200,-10 200,-30 220,-30 220,-10 200,-10"/>
<text text-anchor="start" x="223.7251" y="-15.4" font-family="sans-serif" font-size="14.00" fill="#000000"> &#160;Module</text>
<polygon fill="#80b1d3" stroke="transparent" points="286,-10 286,-30 306,-30 306,-10 286,-10"/>
<text text-anchor="start" x="309.7812" y="-15.4" font-family="sans-serif" font-size="14.00" fill="#000000"> &#160;Bootstrap</text>
<polygon fill="#fdb462" stroke="transparent" points="383,-10 383,-30 403,-30 403,-10 383,-10"/>
<text text-anchor="start" x="406.6732" y="-15.4" font-family="sans-serif" font-size="14.00" fill="#000000"> &#160;Providers</text>
<polygon fill="#fb8072" stroke="transparent" points="479,-10 479,-30 499,-30 499,-10 479,-10"/>
<text text-anchor="start" x="502.7258" y="-15.4" font-family="sans-serif" font-size="14.00" fill="#000000"> &#160;Exports</text>
<g id="clust1" class="cluster">
<title>cluster_TextcriticsModule</title>
<polygon fill="none" stroke="#000000" stroke-dasharray="1,5" points="8,-70 8,-268 634,-268 634,-70 8,-70"/>
</g>
<g id="clust2" class="cluster">
<title>cluster_TextcriticsModule_declarations</title>
<polygon fill="none" stroke="#000000" points="310,-78 310,-130 626,-130 626,-78 310,-78"/>
</g>
<g id="clust5" class="cluster">
<title>cluster_TextcriticsModule_imports</title>
<polygon fill="none" stroke="#000000" points="16,-78 16,-130 302,-130 302,-78 16,-78"/>
</g>
<g id="clust6" class="cluster">
<title>cluster_TextcriticsModule_exports</title>
<polygon fill="none" stroke="#000000" points="139,-208 139,-260 461,-260 461,-208 139,-208"/>
</g>
<!-- CriticsListComponent -->
<g id="node1" class="node">
<title>CriticsListComponent</title>
<polygon fill="#ffffb3" stroke="#000000" points="618.4397,-122 477.5603,-122 477.5603,-86 618.4397,-86 618.4397,-122"/>
<text text-anchor="middle" x="548" y="-99.8" font-family="Times,serif" font-size="14.00" fill="#000000">CriticsListComponent</text>
</g>
<!-- TextcriticsModule -->
<g id="node3" class="node">
<title>TextcriticsModule</title>
<polygon fill="#8dd3c7" stroke="#000000" points="359.9145,-187 356.9145,-191 335.9145,-191 332.9145,-187 240.0855,-187 240.0855,-151 359.9145,-151 359.9145,-187"/>
<text text-anchor="middle" x="300" y="-164.8" font-family="Times,serif" font-size="14.00" fill="#000000">TextcriticsModule</text>
</g>
<!-- CriticsListComponent&#45;&gt;TextcriticsModule -->
<g id="edge1" class="edge">
<title>CriticsListComponent&#45;&gt;TextcriticsModule</title>
<path fill="none" stroke="#000000" d="M548,-122.1061C548,-141.3391 548,-169 548,-169 548,-169 369.7178,-169 369.7178,-169"/>
<polygon fill="#000000" stroke="#000000" points="369.7178,-165.5001 359.7178,-169 369.7177,-172.5001 369.7178,-165.5001"/>
</g>
<!-- TextcriticsComponent -->
<g id="node2" class="node">
<title>TextcriticsComponent</title>
<polygon fill="#ffffb3" stroke="#000000" points="459.6965,-122 318.3035,-122 318.3035,-86 459.6965,-86 459.6965,-122"/>
<text text-anchor="middle" x="389" y="-99.8" font-family="Times,serif" font-size="14.00" fill="#000000">TextcriticsComponent</text>
</g>
<!-- TextcriticsComponent&#45;&gt;TextcriticsModule -->
<g id="edge2" class="edge">
<title>TextcriticsComponent&#45;&gt;TextcriticsModule</title>
<path fill="none" stroke="#000000" d="M339.0544,-122.1061C339.0544,-122.1061 339.0544,-140.991 339.0544,-140.991"/>
<polygon fill="#000000" stroke="#000000" points="335.5544,-140.9909 339.0544,-150.991 342.5544,-140.991 335.5544,-140.9909"/>
</g>
<!-- CriticsListComponent  -->
<g id="node6" class="node">
<title>CriticsListComponent </title>
<polygon fill="#fb8072" stroke="#000000" points="452.939,-252 309.061,-252 309.061,-216 452.939,-216 452.939,-252"/>
<text text-anchor="middle" x="381" y="-229.8" font-family="Times,serif" font-size="14.00" fill="#000000">CriticsListComponent </text>
</g>
<!-- TextcriticsModule&#45;&gt;CriticsListComponent  -->
<g id="edge5" class="edge">
<title>TextcriticsModule&#45;&gt;CriticsListComponent </title>
<path fill="none" stroke="#000000" stroke-dasharray="5,2" d="M334.3687,-187.1061C334.3687,-187.1061 334.3687,-205.991 334.3687,-205.991"/>
<polygon fill="#000000" stroke="#000000" points="330.8688,-205.9909 334.3687,-215.991 337.8688,-205.991 330.8688,-205.9909"/>
</g>
<!-- TextcriticsComponent  -->
<g id="node7" class="node">
<title>TextcriticsComponent </title>
<polygon fill="#fb8072" stroke="#000000" points="291.1967,-252 146.8033,-252 146.8033,-216 291.1967,-216 291.1967,-252"/>
<text text-anchor="middle" x="219" y="-229.8" font-family="Times,serif" font-size="14.00" fill="#000000">TextcriticsComponent </text>
</g>
<!-- TextcriticsModule&#45;&gt;TextcriticsComponent  -->
<g id="edge6" class="edge">
<title>TextcriticsModule&#45;&gt;TextcriticsComponent </title>
<path fill="none" stroke="#000000" stroke-dasharray="5,2" d="M265.8207,-187.1061C265.8207,-187.1061 265.8207,-205.991 265.8207,-205.991"/>
<polygon fill="#000000" stroke="#000000" points="262.3207,-205.9909 265.8207,-215.991 269.3207,-205.991 262.3207,-205.9909"/>
</g>
<!-- EditionTkaTableModule -->
<g id="node4" class="node">
<title>EditionTkaTableModule</title>
<polygon fill="#8dd3c7" stroke="#000000" points="294.4144,-122 291.4144,-126 270.4144,-126 267.4144,-122 139.5856,-122 139.5856,-86 294.4144,-86 294.4144,-122"/>
<text text-anchor="middle" x="217" y="-99.8" font-family="Times,serif" font-size="14.00" fill="#000000">EditionTkaTableModule</text>
</g>
<!-- EditionTkaTableModule&#45;&gt;TextcriticsModule -->
<g id="edge3" class="edge">
<title>EditionTkaTableModule&#45;&gt;TextcriticsModule</title>
<path fill="none" stroke="#000000" d="M267.25,-122.1061C267.25,-122.1061 267.25,-140.991 267.25,-140.991"/>
<polygon fill="#000000" stroke="#000000" points="263.7501,-140.9909 267.25,-150.991 270.7501,-140.991 263.7501,-140.9909"/>
</g>
<!-- SharedModule -->
<g id="node5" class="node">
<title>SharedModule</title>
<polygon fill="#8dd3c7" stroke="#000000" points="122.4231,-122 119.4231,-126 98.4231,-126 95.4231,-122 23.5769,-122 23.5769,-86 122.4231,-86 122.4231,-122"/>
<text text-anchor="middle" x="73" y="-99.8" font-family="Times,serif" font-size="14.00" fill="#000000">SharedModule</text>
</g>
<!-- SharedModule&#45;&gt;TextcriticsModule -->
<g id="edge4" class="edge">
<title>SharedModule&#45;&gt;TextcriticsModule</title>
<path fill="none" stroke="#000000" d="M73,-122.1061C73,-141.3391 73,-169 73,-169 73,-169 230.0615,-169 230.0615,-169"/>
<polygon fill="#000000" stroke="#000000" points="230.0615,-172.5001 240.0615,-169 230.0615,-165.5001 230.0615,-172.5001"/>
</g>
</g>
</svg>
