<?xml version="1.0" encoding="UTF-8" standalone="no"?>
<!DOCTYPE svg PUBLIC "-//W3C//DTD SVG 1.1//EN"
 "http://www.w3.org/Graphics/SVG/1.1/DTD/svg11.dtd">
<!-- Generated by graphviz version 2.47.3 (20210619.1520)
 -->
<!-- Title: dependencies Pages: 1 -->
<svg width="354pt" height="247pt"
 viewBox="0.00 0.00 354.00 246.80" xmlns="http://www.w3.org/2000/svg" xmlns:xlink="http://www.w3.org/1999/xlink">
<g id="graph0" class="graph" transform="scale(1 1) rotate(0) translate(4 242.8)">
<title>dependencies</title>
<polygon fill="white" stroke="transparent" points="-4,4 -4,-242.8 350,-242.8 350,4 -4,4"/>
<text text-anchor="middle" x="173" y="-8.2" font-family="sans-serif" font-size="14.00">dependencies</text>
<g id="clust1" class="cluster">
<title>cluster_EditionTkaTableModule</title>
<polygon fill="none" stroke="black" stroke-dasharray="1,5" points="8,-32.8 8,-230.8 338,-230.8 338,-32.8 8,-32.8"/>
</g>
<g id="clust4" class="cluster">
<title>cluster_EditionTkaTableModule_imports</title>
<polygon fill="none" stroke="black" points="216,-40.8 216,-92.8 330,-92.8 330,-40.8 216,-40.8"/>
</g>
<g id="clust2" class="cluster">
<title>cluster_EditionTkaTableModule_declarations</title>
<polygon fill="none" stroke="black" points="16,-40.8 16,-92.8 208,-92.8 208,-40.8 16,-40.8"/>
</g>
<g id="clust5" class="cluster">
<title>cluster_EditionTkaTableModule_exports</title>
<polygon fill="none" stroke="black" points="75,-170.8 75,-222.8 271,-222.8 271,-170.8 75,-170.8"/>
</g>
<!-- EditionTkaTableComponent -->
<g id="node1" class="node">
<title>EditionTkaTableComponent</title>
<polygon fill="#ffffb3" stroke="black" points="200.2,-84.8 23.8,-84.8 23.8,-48.8 200.2,-48.8 200.2,-84.8"/>
<text text-anchor="middle" x="112" y="-62.6" font-family="Times,serif" font-size="14.00">EditionTkaTableComponent</text>
</g>
<!-- EditionTkaTableModule -->
<g id="node2" class="node">
<title>EditionTkaTableModule</title>
<polygon fill="#8dd3c7" stroke="black" points="250.41,-149.8 247.41,-153.8 226.41,-153.8 223.41,-149.8 95.59,-149.8 95.59,-113.8 250.41,-113.8 250.41,-149.8"/>
<text text-anchor="middle" x="173" y="-127.6" font-family="Times,serif" font-size="14.00">EditionTkaTableModule</text>
</g>
<!-- EditionTkaTableComponent&#45;&gt;EditionTkaTableModule -->
<g id="edge1" class="edge">
<title>EditionTkaTableComponent&#45;&gt;EditionTkaTableModule</title>
<path fill="none" stroke="black" d="M147.95,-84.91C147.95,-84.91 147.95,-103.79 147.95,-103.79"/>
<polygon fill="black" stroke="black" points="144.45,-103.79 147.95,-113.79 151.45,-103.79 144.45,-103.79"/>
</g>
<!-- EditionTkaTableComponent  -->
<g id="node4" class="node">
<title>EditionTkaTableComponent </title>
<polygon fill="#fb8072" stroke="black" points="262.7,-214.8 83.3,-214.8 83.3,-178.8 262.7,-178.8 262.7,-214.8"/>
<text text-anchor="middle" x="173" y="-192.6" font-family="Times,serif" font-size="14.00">EditionTkaTableComponent </text>
</g>
<!-- EditionTkaTableModule&#45;&gt;EditionTkaTableComponent  -->
<g id="edge3" class="edge">
<title>EditionTkaTableModule&#45;&gt;EditionTkaTableComponent </title>
<path fill="none" stroke="black" stroke-dasharray="5,2" d="M173,-149.91C173,-149.91 173,-168.79 173,-168.79"/>
<polygon fill="black" stroke="black" points="169.5,-168.79 173,-178.79 176.5,-168.79 169.5,-168.79"/>
</g>
<!-- SharedModule -->
<g id="node3" class="node">
<title>SharedModule</title>
<polygon fill="#8dd3c7" stroke="black" points="322.42,-84.8 319.42,-88.8 298.42,-88.8 295.42,-84.8 223.58,-84.8 223.58,-48.8 322.42,-48.8 322.42,-84.8"/>
<text text-anchor="middle" x="273" y="-62.6" font-family="Times,serif" font-size="14.00">SharedModule</text>
</g>
<!-- SharedModule&#45;&gt;EditionTkaTableModule -->
<g id="edge2" class="edge">
<title>SharedModule&#45;&gt;EditionTkaTableModule</title>
<path fill="none" stroke="black" d="M237,-84.91C237,-84.91 237,-103.79 237,-103.79"/>
<polygon fill="black" stroke="black" points="233.5,-103.79 237,-113.79 240.5,-103.79 233.5,-103.79"/>
</g>
</g>
</svg>
